<svg xmlns="http://www.w3.org/2000/svg" width="445" height="394" viewBox="0 0 445 394">
    <defs>
        <linearGradient id="2u9rr5q16a" x1="50.898%" x2="41.036%" y1="79.568%" y2="-11.87%">
            <stop offset=".058%" stop-color="#FFF"/>
            <stop offset="100%" stop-color="#1E313F"/>
        </linearGradient>
        <linearGradient id="e0kqhnr1eb" x1="48.094%" x2="58.005%" y1="17.958%" y2="112.287%">
            <stop offset=".058%" stop-color="#FFF"/>
            <stop offset="99.67%" stop-color="#4E5A64"/>
        </linearGradient>
    </defs>
    <g fill="none">
        <g>
            <path fill="#00D592" d="M237.089 218.256c-7.711 0-15.32-2.055-22.105-5.96-21.18-12.228-28.48-39.459-16.245-60.627 5.963-10.276 15.525-17.571 26.937-20.654 11.413-3.083 23.442-1.541 33.723 4.419 10.282 5.96 17.582 15.516 20.666 26.922 3.084 11.406 1.542 23.428-4.421 33.704s-15.525 17.572-26.937 20.654c-3.907 1.028-7.711 1.542-11.618 1.542zm.205-87.755c-3.804 0-7.608.514-11.31 1.542-11.206 2.98-20.562 10.173-26.32 20.243-11.926 20.654-4.832 47.268 15.834 59.188 10.076 5.754 21.694 7.295 32.9 4.315 11.207-2.98 20.563-10.172 26.32-20.243 5.758-10.07 7.3-21.681 4.319-32.882-2.982-11.2-10.179-20.551-20.255-26.306-6.58-3.904-13.982-5.857-21.488-5.857z" transform="translate(-15) translate(169.643 170.576)"/>
            <path fill="#17D99C" d="M223.62 214.454c-8.43 0-16.656-2.158-24.161-6.474-11.207-6.474-19.226-16.852-22.516-29.389-3.29-12.536-1.645-25.483 4.832-36.684 6.477-11.2 16.861-19.215 29.405-22.503 12.44-3.391 25.497-1.645 36.704 4.83 11.207 6.473 19.226 16.851 22.516 29.388 3.29 12.536 1.645 25.483-4.832 36.684-6.477 11.2-16.861 19.215-29.405 22.504-4.112 1.027-8.328 1.644-12.543 1.644zm.206-95.77c-4.113 0-8.225.514-12.338 1.644-12.235 3.289-22.413 11.098-28.788 22.093-6.374 10.995-8.02 23.737-4.73 35.965 3.29 12.228 11.105 22.401 22.106 28.772 11 6.37 23.75 8.015 35.985 4.727 12.234-3.289 22.413-11.098 28.787-22.093 6.375-10.995 8.02-23.737 4.73-35.965-3.29-12.228-11.104-22.4-22.105-28.772-7.403-4.213-15.525-6.37-23.647-6.37z" transform="translate(-15) translate(169.643 170.576)"/>
            <path fill="#2EDDA6" d="M210.152 210.652c-8.842 0-17.89-2.261-26.115-6.988-24.984-14.386-33.62-46.549-19.124-71.519 14.394-24.97 46.575-33.601 71.559-19.112 24.984 14.386 33.62 46.548 19.123 71.518-9.664 16.647-27.348 26.1-45.443 26.1zm.205-103.682c-17.787 0-35.06 9.248-44.518 25.69-14.189 24.455-5.758 56.002 18.815 70.08 24.47 14.18 56.033 5.754 70.119-18.805 14.188-24.456 5.757-56.003-18.815-70.08-8.123-4.727-16.964-6.885-25.6-6.885z" transform="translate(-15) translate(169.643 170.576)"/>
            <path fill="#46E0B0" d="M196.683 206.85c-9.767 0-19.432-2.57-28.068-7.604-13.058-7.502-22.414-19.627-26.218-34.218-3.907-14.49-1.85-29.697 5.655-42.747 7.505-13.05 19.637-22.401 34.237-26.203 14.497-3.905 29.713-1.85 42.77 5.651 13.058 7.502 22.414 19.627 26.218 34.218 3.907 14.49 1.85 29.697-5.655 42.747-7.505 13.05-19.637 22.401-34.237 26.203-4.935 1.336-9.87 1.953-14.702 1.953zm.206-111.697c-4.833 0-9.665.616-14.394 1.952-14.292 3.802-26.218 12.948-33.62 25.792-7.403 12.845-9.357 27.745-5.552 41.925 3.804 14.283 12.954 26.203 25.806 33.602 12.749 7.398 27.76 9.35 41.948 5.548 14.291-3.802 26.217-12.947 33.62-25.792 7.403-12.844 9.356-27.744 5.552-41.924-3.804-14.284-12.955-26.203-25.806-33.602-8.534-5.035-17.993-7.501-27.554-7.501z" transform="translate(-15) translate(169.643 170.576)"/>
            <path fill="#5DE4BA" d="M183.214 203.048c-10.487 0-20.768-2.775-30.124-8.118-28.788-16.647-38.761-53.64-22.105-82.411 16.656-28.772 53.669-38.74 82.457-22.093 13.982 8.015 23.955 21.065 28.17 36.582 4.216 15.516 2.057 31.854-6.065 45.726-8.02 13.975-21.077 23.943-36.602 28.156-5.244 1.438-10.487 2.158-15.73 2.158zm.206-119.61c-20.563 0-40.509 10.585-51.51 29.595-16.347 28.36-6.58 64.634 21.694 80.972 13.674 7.912 29.713 10.07 45.032 5.96 15.32-4.11 28.069-13.872 35.985-27.642 7.917-13.666 10.076-29.696 5.963-45.007-4.112-15.311-13.88-28.053-27.657-35.965-9.356-5.343-19.534-7.912-29.507-7.912z" transform="translate(-15) translate(169.643 170.576)"/>
            <path fill="#74E8C4" d="M169.643 199.246c-11.104 0-22.105-2.878-32.078-8.632-30.741-17.777-41.331-57.133-23.544-87.857 17.786-30.724 57.164-41.308 87.905-23.531 14.908 8.631 25.498 22.503 30.022 39.047 4.421 16.544 2.16 33.91-6.477 48.81-8.637 14.9-22.516 25.483-39.07 30.005-5.449 1.438-11.103 2.158-16.758 2.158zm.205-127.624c-21.899 0-43.181 11.303-54.902 31.649-17.478 30.21-7.094 68.95 23.133 86.418 14.6 8.426 31.667 10.687 48.014 6.371 16.347-4.418 30.022-14.797 38.452-29.491 8.431-14.694 10.693-31.65 6.375-47.988-4.421-16.338-14.805-30.005-29.508-38.43-9.87-5.755-20.768-8.53-31.564-8.53z" transform="translate(-15) translate(169.643 170.576)"/>
            <path fill="#8BECCD" d="M156.174 195.444c-11.823 0-23.544-3.083-34.031-9.146-15.833-9.145-27.143-23.84-31.872-41.514-4.73-17.571-2.262-36.067 6.785-51.789 18.815-32.574 60.763-43.877 93.355-24.97 15.834 9.145 27.143 23.84 31.873 41.514 4.729 17.674 2.261 36.068-6.786 51.79-9.15 15.824-23.853 27.127-41.537 31.854-5.86 1.541-11.824 2.26-17.787 2.26zm.206-135.537c-23.236 0-45.958 12.023-58.398 33.602-8.945 15.516-11.413 33.704-6.683 51.07 4.626 17.366 15.833 31.855 31.358 40.897 15.525 8.94 33.723 11.406 51.098 6.68 17.376-4.625 31.873-15.825 40.92-31.341 9.048-15.517 11.413-33.705 6.683-51.07C216.732 92.377 205.525 77.89 190 68.846c-10.59-6.063-22.208-8.94-33.62-8.94z" transform="translate(-15) translate(169.643 170.576)"/>
            <path fill="#A2F0D7" d="M142.706 191.642c-12.235 0-24.676-3.083-36.088-9.66-16.759-9.659-28.685-25.278-33.723-43.877-5.038-18.599-2.468-38.123 7.197-54.872 19.946-34.526 64.259-46.343 98.804-26.408 34.546 19.934 46.37 64.223 26.423 98.749-13.263 23.12-37.63 36.068-62.613 36.068zm.205-143.552c-24.675 0-48.63 12.742-61.894 35.657-19.637 34.012-7.916 77.684 26.115 97.31 34.031 19.627 77.727 7.913 97.365-26.1 19.637-34.012 7.916-77.684-26.115-97.31-11.104-6.474-23.339-9.557-35.47-9.557z" transform="translate(-15) translate(169.643 170.576)"/>
            <path fill="#B9F4E1" d="M129.237 187.942c-13.263 0-26.32-3.493-38.041-10.275-17.684-10.173-30.33-26.614-35.574-46.344-5.243-19.729-2.57-40.28 7.609-57.852 21.076-36.376 67.754-48.912 104.253-27.95 36.396 21.065 48.94 67.717 27.965 104.196-10.178 17.674-26.629 30.313-46.369 35.554-6.58 1.747-13.263 2.671-19.843 2.671zm.206-151.566c-26.012 0-51.407 13.461-65.287 37.609-10.076 17.366-12.75 37.712-7.506 57.133 5.244 19.42 17.684 35.656 35.06 45.727 35.985 20.757 82.045 8.426 102.814-27.54 20.768-35.964 8.43-82-27.554-102.756-11.824-6.885-24.676-10.173-37.527-10.173z" transform="translate(-15) translate(169.643 170.576)"/>
            <path fill="#D1F7EB" d="M115.768 184.14c-13.88 0-27.657-3.596-39.994-10.79-18.61-10.686-31.872-28.052-37.424-48.706-5.552-20.757-2.674-42.336 8.019-60.935C57.062 45.11 74.437 31.855 95.103 26.306c20.665-5.55 42.36-2.672 60.968 8.015 18.61 10.687 31.873 28.052 37.425 48.707 5.552 20.756 2.673 42.335-8.02 60.934-10.692 18.6-28.068 31.855-48.734 37.404-6.99 1.85-13.982 2.774-20.974 2.774zm.206-159.581c-6.889 0-13.777.925-20.666 2.774-20.46 5.446-37.527 18.6-48.116 36.89-21.9 37.815-8.842 86.419 28.993 108.203 18.3 10.584 39.686 13.358 60.146 7.912 20.46-5.446 37.527-18.599 48.117-36.89 10.59-18.29 13.366-39.664 7.917-60.112-5.45-20.449-18.61-37.506-36.91-48.09-12.132-7.09-25.704-10.687-39.481-10.687z" transform="translate(-15) translate(169.643 170.576)"/>
            <path fill="#E8FBF5" d="M102.3 180.236c-14.291 0-28.788-3.597-42.051-11.304C19.946 145.71 6.169 94.125 29.405 53.845 52.64 13.667 104.253-.205 144.556 23.018c19.535 11.2 33.415 29.388 39.275 51.172 5.86 21.785 2.879 44.391-8.43 63.915-15.628 27.025-44.005 42.13-73.101 42.13zm.205-167.391c-7.197 0-14.496.924-21.693 2.877-21.488 5.754-39.48 19.524-50.585 38.74C7.3 94.227 20.974 145.194 60.66 168.11c39.79 22.915 90.785 9.248 113.712-30.416 11.104-19.215 14.086-41.72 8.328-63.195-5.757-21.476-19.534-39.459-38.76-50.557-12.75-7.398-26.938-11.097-41.435-11.097z" transform="translate(-15) translate(169.643 170.576)"/>
            <path fill="#FFF" d="M88.831 176.536c-15.01 0-30.124-3.802-44.004-11.817-20.46-11.817-35.06-30.827-41.126-53.536C-2.365 88.371.72 64.634 12.543 44.185 24.367 23.737 43.387 9.145 66.11 3.083c22.825-6.063 46.575-2.98 67.035 8.837 20.46 11.817 35.06 30.827 41.125 53.536 6.066 22.812 2.982 46.549-8.842 66.998-16.347 28.258-46.163 44.082-76.596 44.082zm.206-175.508c-7.608 0-15.217 1.027-22.722 2.98-22.516 6.062-41.331 20.448-52.95 40.588-24.058 41.617-9.767 95.05 31.976 119.096 41.64 24.045 95.103 9.762 119.161-31.958l.411.206-.41-.206c24.058-41.616 9.766-95.05-31.976-119.095-13.366-7.604-28.377-11.611-43.49-11.611z" transform="translate(-15) translate(169.643 170.576)"/>
        </g>
        <g transform="translate(-15) translate(354.708 288.747)">
            <ellipse cx="60.161" cy="60.298" fill="#1E313F" rx="43.882" ry="43.894" transform="rotate(-59.999 60.161 60.298)"/>
            <path fill="#00D592" d="M60.043 104.607c-7.505 0-15.113-1.953-22.105-5.96-21.18-12.228-28.48-39.459-16.244-60.627C27.657 27.744 37.219 20.45 48.63 17.366c11.412-3.083 23.442-1.541 33.723 4.418 21.18 12.229 28.48 39.46 16.244 60.627-8.225 14.283-23.235 22.196-38.555 22.196zm.206-87.652c-15.01 0-29.61 7.81-37.63 21.682-11.926 20.654-4.832 47.268 15.833 59.188 20.666 11.92 47.295 4.83 59.221-15.825 11.927-20.654 4.832-47.268-15.833-59.188-6.786-4.007-14.291-5.857-21.591-5.857z"/>
        </g>
        <g>
            <path fill="#FEC100" d="M44.93 218.153c-15.32 0-30.33-7.912-38.556-22.196C-5.86 174.79 1.44 147.56 22.62 135.331c10.281-5.96 22.208-7.501 33.723-4.419 11.412 3.083 21.077 10.379 26.937 20.654 5.963 10.276 7.506 22.196 4.421 33.705-3.084 11.508-10.384 21.065-20.665 26.922-6.992 4.11-14.6 5.96-22.105 5.96zM7.3 195.443c11.926 20.655 38.555 27.848 59.22 15.825 10.076-5.754 17.17-15.105 20.255-26.306 2.981-11.2 1.44-22.914-4.318-32.882-5.758-9.967-15.114-17.16-26.32-20.243-11.207-2.98-22.928-1.439-32.901 4.316C2.468 148.278-4.73 174.789 7.3 195.443z" transform="translate(-15) translate(23.647 170.576)"/>
            <path fill="#FEC717" d="M58.398 214.454c-4.215 0-8.43-.514-12.646-1.644-12.44-3.391-22.927-11.304-29.405-22.504-6.477-11.2-8.225-24.25-4.832-36.684 3.393-12.434 11.31-22.915 22.516-29.389 11.207-6.474 24.264-8.22 36.705-4.83 12.44 3.391 22.927 11.304 29.405 22.504 6.477 11.2 8.225 24.25 4.832 36.684-3.393 12.434-11.31 22.915-22.516 29.389-7.403 4.213-15.73 6.474-24.059 6.474zm-23.75-89.399c-11 6.371-18.815 16.544-22.105 28.772-3.29 12.228-1.645 24.97 4.73 35.965 6.374 10.995 16.553 18.804 28.788 22.093 12.234 3.288 24.983 1.541 35.984-4.727 22.62-13.05 30.433-42.028 17.376-64.634-6.374-10.995-16.553-18.805-28.788-22.093-12.338-3.39-25.086-1.747-35.985 4.624z" transform="translate(-15) translate(23.647 170.576)"/>
            <path fill="#FECC2E" d="M71.867 210.652c-4.524 0-9.15-.617-13.674-1.85-13.469-3.596-24.778-12.33-31.77-24.353-14.394-24.97-5.86-57.03 19.124-71.52 24.983-14.385 57.061-5.856 71.558 19.114 6.991 12.125 8.842 26.203 5.243 39.767-3.598 13.46-12.337 24.764-24.366 31.751-8.123 4.727-17.067 7.09-26.115 7.09zM71.66 106.97c-8.739 0-17.478 2.26-25.6 6.885-11.927 6.884-20.358 17.88-23.956 31.135-3.599 13.256-1.748 27.025 5.14 38.945 6.89 11.92 17.89 20.346 31.153 23.942 13.263 3.597 27.04 1.747 38.967-5.138 24.47-14.18 33.003-45.624 18.815-70.08-9.46-16.544-26.732-25.69-44.519-25.69z" transform="translate(-15) translate(23.647 170.576)"/>
            <path fill="#FED246" d="M85.335 206.85c-4.935 0-9.87-.617-14.702-1.953-14.497-3.905-26.731-13.255-34.237-26.203-7.505-13.05-9.562-28.258-5.655-42.747 3.907-14.488 13.263-26.716 26.218-34.218l.206.411-.206-.41c13.057-7.502 28.274-9.557 42.77-5.652 14.497 3.904 26.732 13.255 34.237 26.203 15.525 26.922 6.272 61.448-20.665 76.965-8.534 5.035-18.198 7.604-27.966 7.604zM85.13 95.153c-9.356 0-18.918 2.363-27.554 7.398-12.852 7.399-22.002 19.319-25.807 33.602-3.804 14.283-1.85 29.183 5.552 41.925 7.403 12.844 19.33 21.99 33.62 25.792 14.292 3.802 29.2 1.85 41.949-5.55 26.423-15.207 35.47-49.117 20.254-75.526-10.179-17.674-28.788-27.641-48.014-27.641z" transform="translate(-15) translate(23.647 170.576)"/>
            <path fill="#FED85D" d="M98.804 203.048c-5.243 0-10.487-.72-15.73-2.056-15.525-4.213-28.583-14.18-36.602-28.155-8.02-13.975-10.179-30.21-6.066-45.727 4.215-15.516 14.188-28.566 28.17-36.581 28.789-16.647 65.802-6.68 82.458 22.093 16.655 28.771 6.682 65.764-22.105 82.41-9.356 5.241-19.638 8.016-30.125 8.016zm-.206-119.61c-10.075 0-20.254 2.57-29.61 7.913-13.674 7.912-23.544 20.757-27.657 35.965-4.112 15.31-1.953 31.238 5.963 45.007 7.917 13.667 20.666 23.532 35.985 27.642 15.32 4.11 31.256 1.952 45.033-5.96 28.376-16.338 38.04-52.714 21.693-80.972-10.898-19.01-30.844-29.594-51.407-29.594z" transform="translate(-15) translate(23.647 170.576)"/>
            <path fill="#FEDD74" d="M112.273 199.246c-5.552 0-11.207-.72-16.759-2.261-16.553-4.419-30.433-15.105-39.07-30.005-17.786-30.724-7.196-70.08 23.545-87.857 30.742-17.777 70.12-7.193 87.906 23.531 17.787 30.724 7.197 70.08-23.544 87.857-9.87 5.857-20.872 8.735-32.078 8.735zM80.606 80.15C50.38 97.62 39.995 136.358 57.473 166.57c8.43 14.591 22.105 25.073 38.452 29.491 16.348 4.419 33.415 2.158 48.014-6.37 30.228-17.47 40.612-56.209 23.134-86.42-17.479-30.21-56.24-40.588-86.467-23.12z" transform="translate(-15) translate(23.647 170.576)"/>
            <path fill="#FFE38B" d="M125.844 195.444c-5.963 0-11.926-.822-17.787-2.364-17.58-4.727-32.386-16.03-41.536-31.854-9.15-15.825-11.516-34.218-6.786-51.79 4.73-17.571 16.039-32.368 31.872-41.514 32.592-18.804 74.54-7.604 93.355 24.97 9.15 15.825 11.515 34.218 6.786 51.79-4.73 17.571-16.04 32.368-31.872 41.513-10.59 6.166-22.208 9.249-34.032 9.249zm-.308-135.537c-11.413 0-22.928 2.877-33.518 9.043-15.524 8.94-26.731 23.531-31.358 40.897-4.626 17.366-2.262 35.451 6.683 51.07 8.945 15.517 23.544 26.717 40.92 31.341 17.376 4.624 35.47 2.26 51.098-6.68 15.525-8.939 26.732-23.53 31.359-40.896 4.626-17.366 2.262-35.451-6.683-51.07-12.543-21.682-35.163-33.705-58.501-33.705z" transform="translate(-15) translate(23.647 170.576)"/>
            <path fill="#FFE8A2" d="M139.313 191.642c-24.984 0-49.35-12.948-62.717-36.17-19.946-34.527-8.02-78.815 26.423-98.75 34.546-19.935 78.859-8.015 98.805 26.408 19.945 34.424 8.02 78.815-26.424 98.75-11.412 6.679-23.852 9.762-36.087 9.762zm-.309-143.552c-12.132 0-24.367 3.083-35.573 9.557-34.032 19.626-45.752 63.298-26.115 97.31 13.16 22.812 37.219 35.657 61.894 35.657 12.132 0 24.367-3.083 35.574-9.556 16.45-9.557 28.273-24.868 33.208-43.261 4.935-18.393 2.365-37.609-7.094-54.05-13.16-22.812-37.218-35.657-61.894-35.657z" transform="translate(-15) translate(23.647 170.576)"/>
            <path fill="#FFEEB9" d="M152.781 187.84c-26.423 0-52.126-13.667-66.212-38.123-21.077-36.376-8.533-83.13 27.966-104.196 36.396-21.065 83.176-8.529 104.253 27.95 21.077 36.376 8.533 83.13-27.965 104.196-12.03 6.884-25.087 10.173-38.042 10.173zM115.05 46.446c-35.985 20.757-48.323 66.895-27.554 102.757 13.88 24.148 39.274 37.609 65.286 37.609 12.75 0 25.704-3.288 37.527-10.07 35.985-20.757 48.323-66.895 27.555-102.757-20.769-35.965-66.932-48.296-102.814-27.539z" transform="translate(-15) translate(23.647 170.576)"/>
            <path fill="#FFF4D1" d="M166.25 184.038c-27.76 0-54.8-14.386-69.708-40.076-10.692-18.599-13.571-40.178-8.02-60.934 5.553-20.757 18.816-38.02 37.425-48.707l.206.41-.206-.41c18.61-10.687 40.2-13.564 60.969-8.015 20.768 5.549 38.04 18.804 48.733 37.403 10.693 18.6 13.572 40.178 8.02 60.935-5.552 20.757-18.815 38.02-37.424 48.707-12.544 7.296-26.424 10.687-39.995 10.687zm-.206-159.48c-13.777 0-27.245 3.597-39.48 10.688-18.301 10.584-31.461 27.641-36.91 48.09-5.45 20.448-2.673 41.822 7.916 60.113 14.703 25.38 41.332 39.561 68.783 39.561 13.468 0 27.04-3.391 39.48-10.584 18.301-10.584 31.461-27.642 36.91-48.09 5.45-20.449 2.674-41.822-7.916-60.113-10.59-18.29-27.657-31.444-48.117-36.89-6.889-1.85-13.88-2.774-20.666-2.774z" transform="translate(-15) translate(23.647 170.576)"/>
            <path fill="#FFF9E8" d="M179.719 180.338c-7.3 0-14.703-.924-22.003-2.877-21.796-5.857-39.891-19.73-51.2-39.253-23.237-40.28-9.357-91.865 30.843-115.088 19.535-11.2 42.257-14.283 63.95-8.426 21.797 5.857 39.892 19.73 51.202 39.253 11.31 19.524 14.29 42.233 8.43 63.915-5.86 21.682-19.74 39.87-39.274 51.173-12.955 7.501-27.349 11.303-41.948 11.303zm-.206-167.493c-14.394 0-28.685 3.802-41.537 11.2-39.789 22.915-53.463 73.985-30.433 113.65 11.104 19.215 29.097 32.984 50.585 38.739 21.488 5.754 43.901 2.774 63.23-8.324 19.226-11.097 33.003-29.08 38.761-50.556 5.758-21.476 2.776-43.877-8.328-63.196-11.104-19.215-29.096-32.985-50.584-38.739-7.197-1.85-14.497-2.774-21.694-2.774z" transform="translate(-15) translate(23.647 170.576)"/>
            <path fill="#FFF" d="M193.187 176.536c-30.535 0-60.249-15.824-76.596-44.082-24.367-42.13-9.87-96.18 32.283-120.534 20.46-11.817 44.21-14.9 67.035-8.837 22.825 6.062 41.845 20.654 53.566 41.102 24.367 42.13 9.87 96.18-32.283 120.534-13.88 8.015-28.994 11.817-44.005 11.817zm-75.67-44.699c24.058 41.617 77.52 56.003 119.16 31.957 41.64-24.045 56.034-77.478 31.976-119.095-11.618-20.14-30.433-34.629-52.95-40.589-22.516-6.062-46.06-2.98-66.212 8.735-41.742 23.942-56.033 77.376-31.975 118.992z" transform="translate(-15) translate(23.647 170.576)"/>
        </g>
        <g transform="translate(-15) translate(0 288.747)">
            <ellipse cx="60.154" cy="60.002" fill="#1E313F" rx="43.894" ry="43.882" transform="rotate(-30.001 60.154 60.002)"/>
            <path fill="#FEC100" d="M60.249 104.401c-3.907 0-7.711-.514-11.515-1.541C37.32 99.777 27.657 92.48 21.797 82.206 15.833 71.93 14.29 60.01 17.376 48.5 20.46 37.095 27.76 27.436 38.04 21.58c10.282-5.96 22.208-7.501 33.723-4.419 11.412 3.083 21.077 10.379 26.937 20.655 5.964 10.275 7.506 22.195 4.421 33.704-3.084 11.406-10.384 21.065-20.665 26.922-6.889 3.905-14.497 5.96-22.208 5.96zm-.103-87.754c-7.505 0-14.908 1.952-21.59 5.857C28.478 28.258 21.385 37.609 18.3 48.81c-2.982 11.2-1.44 22.914 4.318 32.882 5.758 10.07 15.114 17.16 26.32 20.243 11.207 2.98 22.928 1.438 32.9-4.316 10.077-5.754 17.17-15.105 20.255-26.306 2.982-11.2 1.44-22.915-4.318-32.882-5.758-9.967-15.114-17.16-26.32-20.243-3.804-1.028-7.609-1.541-11.31-1.541z"/>
        </g>
        <g>
            <path fill="#1A82FF" d="M88.728 88.987c-24.47 0-44.415-19.934-44.415-44.39C44.313 20.14 64.259.205 88.728.205c24.47 0 44.416 19.934 44.416 44.39 0 24.457-19.946 44.391-44.416 44.391zm0-87.754c-23.955 0-43.387 19.421-43.387 43.363 0 23.943 19.432 43.364 43.387 43.364 23.956 0 43.388-19.421 43.388-43.364 0-23.942-19.432-43.363-43.388-43.363z" transform="translate(-15) translate(150.108 9.248)"/>
            <path fill="#2F8DFF" d="M88.728 108.511c-26.731 0-48.425-21.681-48.425-48.398 0-26.717 21.694-48.399 48.425-48.399 26.732 0 48.426 21.682 48.426 48.399 0 26.717-21.797 48.398-48.426 48.398zm0-95.666c-26.114 0-47.397 21.27-47.397 47.37 0 26.1 21.283 47.371 47.397 47.371 26.115 0 47.398-21.27 47.398-47.37 0-26.1-21.283-47.371-47.398-47.371z" transform="translate(-15) translate(150.108 9.248)"/>
            <path fill="#49F" d="M88.728 128.035c-28.89 0-52.332-23.531-52.332-52.303S59.94 23.429 88.728 23.429c28.891 0 52.333 23.53 52.333 52.303 0 28.772-23.442 52.303-52.333 52.303zm0-103.682c-28.273 0-51.304 23.018-51.304 51.276 0 28.258 23.03 51.276 51.304 51.276s51.304-23.018 51.304-51.276c0-28.258-23.03-51.276-51.304-51.276z" transform="translate(-15) translate(150.108 9.248)"/>
            <path fill="#58A4FF" d="M88.728 147.559c-31.05 0-56.342-25.278-56.342-56.31 0-31.033 25.293-56.312 56.342-56.312 31.05 0 56.342 25.279 56.342 56.311 0 31.033-25.292 56.31-56.342 56.31zm0-111.594c-30.535 0-55.313 24.764-55.313 55.283 0 30.519 24.778 55.283 55.313 55.283 30.536 0 55.314-24.764 55.314-55.283 0-30.519-24.778-55.283-55.314-55.283z" transform="translate(-15) translate(150.108 9.248)"/>
            <path fill="#6DAFFF" d="M88.728 167.083c-33.311 0-60.351-27.025-60.351-60.319 0-33.293 27.04-60.318 60.351-60.318 33.312 0 60.352 27.025 60.352 60.318 0 33.294-27.04 60.319-60.352 60.319zm0-119.61c-32.694 0-59.323 26.615-59.323 59.291 0 32.677 26.629 59.291 59.323 59.291 32.695 0 59.324-26.614 59.324-59.29 0-32.677-26.629-59.291-59.324-59.291z" transform="translate(-15) translate(150.108 9.248)"/>
            <path fill="#82BBFF" d="M88.728 186.71c-35.47 0-64.361-28.875-64.361-64.327 0-35.45 28.89-64.325 64.361-64.325 35.471 0 64.362 28.874 64.362 64.325 0 35.452-28.89 64.326-64.362 64.326zm0-127.625c-34.956 0-63.333 28.361-63.333 63.298 0 34.938 28.377 63.299 63.333 63.299 34.957 0 63.334-28.361 63.334-63.299 0-34.937-28.377-63.298-63.334-63.298z" transform="translate(-15) translate(150.108 9.248)"/>
            <path fill="#97C6FF" d="M88.728 206.233c-37.63 0-68.37-30.621-68.37-68.333 0-37.61 30.638-68.334 68.37-68.334 37.63 0 68.372 30.622 68.372 68.334s-30.742 68.333-68.372 68.333zm0-135.639c-37.115 0-67.343 30.21-67.343 67.306 0 37.095 30.228 67.306 67.343 67.306 37.116 0 67.343-30.211 67.343-67.306s-30.227-67.306-67.343-67.306z" transform="translate(-15) translate(150.108 9.248)"/>
            <path fill="#ACD2FF" d="M88.728 225.757c-39.891 0-72.278-32.471-72.278-72.238 0-39.87 32.49-72.238 72.278-72.238 39.892 0 72.278 32.47 72.278 72.238 0 39.767-32.386 72.238-72.278 72.238zm0-143.551c-39.275 0-71.25 31.957-71.25 71.21 0 39.253 31.975 71.21 71.25 71.21s71.25-31.957 71.25-71.21c0-39.253-31.975-71.21-71.25-71.21z" transform="translate(-15) translate(150.108 9.248)"/>
            <path fill="#C1DDFF" d="M88.728 245.28c-42.05 0-76.288-34.217-76.288-76.245 0-42.027 34.237-76.246 76.288-76.246 42.051 0 76.288 34.219 76.288 76.246 0 42.028-34.237 76.246-76.288 76.246zm0-151.463c-41.536 0-75.26 33.704-75.26 75.218s33.724 75.218 75.26 75.218c41.537 0 75.26-33.704 75.26-75.218s-33.723-75.218-75.26-75.218z" transform="translate(-15) translate(150.108 9.248)"/>
            <path fill="#D5E8FF" d="M88.728 264.805c-44.312 0-80.297-35.965-80.297-80.254 0-44.288 35.985-80.253 80.297-80.253 44.313 0 80.298 35.965 80.298 80.253 0 44.289-35.985 80.254-80.298 80.254zm0-159.48c-43.696 0-79.27 35.555-79.27 79.226 0 43.672 35.574 79.226 79.27 79.226s79.27-35.554 79.27-79.226c0-43.671-35.574-79.225-79.27-79.225z" transform="translate(-15) translate(150.108 9.248)"/>
            <path fill="#EAF4FF" d="M88.728 284.328c-46.472 0-84.307-37.814-84.307-84.26 0-46.446 37.835-84.261 84.307-84.261s84.308 37.815 84.308 84.26c0 46.447-37.836 84.261-84.308 84.261zm0-167.39c-45.957 0-83.279 37.3-83.279 83.232 0 45.933 37.322 83.234 83.28 83.234 45.957 0 83.279-37.301 83.279-83.234 0-45.932-37.322-83.233-83.28-83.233z" transform="translate(-15) translate(150.108 9.248)"/>
            <path fill="#FFF" d="M88.728 303.955c-48.63 0-88.317-39.562-88.317-88.268 0-48.707 39.584-88.268 88.317-88.268 48.734 0 88.317 39.561 88.317 88.268 0 48.706-39.686 88.268-88.317 88.268zm0-175.509c-48.117 0-87.289 39.15-87.289 87.24 0 48.09 39.172 87.241 87.29 87.241 48.116 0 87.288-39.15 87.288-87.24 0-48.09-39.172-87.24-87.289-87.24z" transform="translate(-15) translate(150.108 9.248)"/>
        </g>
        <g transform="translate(-15) translate(194.318)">
            <ellipse cx="44.518" cy="44.596" fill="#1E313F" rx="43.902" ry="43.877"/>
            <path fill="#1A82FF" d="M44.518 88.987c-24.47 0-44.415-19.934-44.415-44.39C.103 20.14 20.049.205 44.518.205c24.47 0 44.416 19.934 44.416 44.39 0 24.457-19.946 44.391-44.416 44.391zm0-87.754c-23.955 0-43.387 19.421-43.387 43.363 0 23.943 19.432 43.364 43.387 43.364 23.956 0 43.388-19.421 43.388-43.364 0-23.942-19.432-43.363-43.388-43.363z"/>
        </g>
        <g transform="translate(-15) translate(138.799 148.997)">
            <ellipse cx="99.01" cy="98.749" fill="#1E313F" rx="97.57" ry="97.516"/>
            <g transform="translate(4.201 4.003)">
                <circle cx="94.846" cy="95.159" r="94.14" fill="#1E313F" transform="rotate(-.192 94.846 95.159)"/>
                <path fill="#FFF" d="M153.72 153.642c32.292-32.527 32.136-84.992-.39-117.284-32.528-32.292-84.993-32.136-117.285.391L153.72 153.642z" opacity=".2"/>
                <g>
                    <path fill="#FAFBFC" d="M52.074 50.745c-.938-.157-1.798-.391-2.658-.547-11.572-2.346-19.939-3.988-19.939-12.042 0-5.004 4.926-8.991 13.762-8.991 7.897 0 14.152 3.205 18.218 9.226l.625.156 12.589-12.9-.078-.47c-5.005-5.942-11.338-10.086-18.61-12.276-1.016-.313-1.954-.547-2.97-.782h-.079c-.39-.078-.704-.156-1.094-.234V.469H34.638v11.416c-.547.078-1.095.234-1.642.313h-.078c-8.132 1.954-15.247 6.176-20.799 12.666-2.345 3.91-3.518 8.601-3.518 13.996 0 18.453 13.918 24.317 27.522 27.6 2.503.626 5.005 1.096 7.428 1.487 8.523 1.563 15.873 2.893 15.873 10.555 0 4.77-5.239 10.712-16.185 10.712-6.49 0-11.807-2.19-15.716-6.177-.235-.235-.548-.47-.782-.704L11.885 92.654v.548c2.11 2.502 4.457 4.691 6.959 6.568.86.625 1.72 1.172 2.58 1.72h.078c.86.547 1.798 1.016 2.658 1.485 0 0 .079 0 .079.078.938.47 1.798.86 2.736 1.252.078 0 .078 0 .157.078.938.39 1.876.703 2.815 1.016.078 0 .156 0 .156.078.469.157.86.235 1.33.391h.155c.47.157.939.235 1.486.391.078 0 .156 0 .235.078.39.079.86.157 1.25.235v11.416h17.202v-11.416c.313-.078.626-.078.939-.156h.156c1.173-.235 2.346-.548 3.518-.939.548-.156 1.173-.39 1.72-.547 6.334-2.346 11.885-6.255 16.42-11.572 1.72-2.033 3.206-4.144 4.535-6.49.704-2.502 1.017-5.317 1.017-8.288.078-19.86-14.934-25.255-27.992-27.835z" transform="translate(51.605 35.967)"/>
                    <path fill="url(#2u9rr5q16a)" d="M11.963 93.123c-.86-1.016-1.642-2.032-2.346-3.127-.312-.47-.625-.938-.938-1.33-.078-.078-.156-.234-.235-.312-.234-.391-.547-.86-.781-1.33l-.235-.468c-.235-.391-.47-.86-.704-1.251l-.234-.47c-.235-.39-.47-.86-.626-1.329-.078-.156-.156-.39-.234-.547-.235-.47-.391-.86-.626-1.33-.078-.156-.156-.312-.234-.547-.157-.469-.391-.938-.548-1.407 0-.078-.078-.235-.078-.313-.39-1.095-.782-2.19-1.095-3.284 0-.078-.078-.156-.078-.313-.078-.39-.234-.781-.313-1.172l-.234-.939c-.078-.39-.157-.703-.235-1.094-.078-.313-.156-.704-.234-1.017-.078-.39-.157-.703-.235-1.094l-.234-1.173c-.079-.313-.079-.704-.157-1.017-.078-.39-.156-.782-.156-1.25-.078-.314-.078-.626-.157-1.017-.078-.47-.078-.86-.156-1.33 0-.312-.078-.625-.078-.938 0-.547-.078-1.016-.078-1.564 0-.234 0-.469-.078-.781 0-.782-.079-1.564-.079-2.346s0-1.486.079-2.268v-.703c0-.548.078-1.017.078-1.564 0-.235.078-.547.078-.782.078-.47.078-1.016.156-1.486 0-.234.078-.469.078-.703.079-.626.157-1.173.235-1.72 0-.157 0-.313.078-.391.078-.704.235-1.408.391-2.111.078-.235.078-.47.157-.626.078-.47.234-.938.312-1.407.078-.235.157-.548.157-.782.078-.47.234-.86.312-1.33.079-.234.157-.547.235-.781.156-.47.313-.939.391-1.408.078-.234.156-.39.235-.625l.703-1.877c.078-.234.157-.39.235-.625.156-.47.313-.86.547-1.33.078-.234.235-.469.313-.781.156-.391.313-.704.547-1.095.157-.235.235-.547.391-.782.157-.391.391-.704.547-1.095.157-.234.235-.469.391-.703l.939-1.642c-.704 2.58-1.017 5.395-1.017 8.366 0 10.165 4.3 17.905 12.823 23.144.47 9.148 3.128 16.341 7.663 20.955L11.963 93.123z" transform="translate(51.605 35.967)"/>
                    <path fill="url(#e0kqhnr1eb)" d="M61.535 38.39c2.658 3.989 4.379 8.993 5.004 15.013 2.19 1.017 4.066 2.19 5.786 3.519 6.333 4.926 9.54 12.12 9.54 21.267 0 1.095-.079 2.19-.157 3.284v-.078c.313-.704.625-1.486.86-2.267.078-.235.156-.391.234-.626.157-.547.391-1.095.548-1.642.078-.234.156-.547.234-.782.079-.313.235-.704.313-1.016.156-.47.235-.86.391-1.33.078-.312.156-.703.235-1.016l.234-1.173c.078-.234.078-.547.157-.782.078-.547.234-1.173.312-1.72 0-.234.079-.469.079-.704l.234-1.876c0-.156 0-.235.078-.391.078-.626.157-1.173.157-1.798 0-.157 0-.313.078-.47.078-.703.078-1.407.156-2.11v-.47c0-.703.078-1.485.078-2.19 0-.781 0-1.563-.078-2.423 0-.235 0-.47-.078-.782 0-.547-.078-1.094-.078-1.564 0-.312-.078-.625-.078-.938-.079-.469-.079-.938-.157-1.407 0-.313-.078-.626-.156-1.017-.078-.469-.078-.86-.156-1.329-.079-.313-.079-.704-.157-1.016-.078-.391-.156-.86-.234-1.251-.079-.313-.157-.704-.235-1.017l-.235-1.173c-.078-.313-.156-.703-.234-1.016-.078-.391-.235-.782-.313-1.173-.078-.313-.156-.704-.313-1.017-.078-.39-.234-.703-.312-1.094-.079-.313-.235-.704-.313-1.017-.157-.39-.235-.703-.391-1.016-.156-.313-.235-.704-.391-1.017-.156-.312-.235-.703-.391-1.016-.156-.313-.313-.704-.39-1.016l-.47-.939c-.156-.313-.313-.625-.47-1.016l-.468-.938c-.157-.313-.313-.626-.548-.939-.156-.313-.312-.625-.547-.86-.156-.313-.39-.625-.547-.938-.157-.313-.391-.547-.548-.86-.547-.86-1.172-1.72-1.798-2.58-.47-.626-.938-1.173-1.407-1.72L61.535 38.39z" transform="translate(51.605 35.967)"/>
                </g>
            </g>
            <path fill="#FFF" d="M99.01 196.78C44.93 196.78.925 152.8.925 98.75.925 44.7 44.93.72 99.01.72c54.08 0 98.084 43.98 98.084 98.03-.103 54.05-44.004 98.03-98.084 98.03zm0-194.93c-53.463 0-97.057 43.466-97.057 97.002 0 53.434 43.49 97.003 97.057 97.003 53.463 0 97.056-43.467 97.056-97.003C195.963 45.316 152.473 1.85 99.01 1.85z"/>
        </g>
        <path fill="#FEC100" d="M61.071 327.486l-22.207 22.196 22.207 22.195 22.208-22.195-22.208-22.196zm4.833 20.757l-4.833-4.83-4.318 4.83H46.575L61.07 332.11l15.011 16.133H65.904z" transform="translate(-15)"/>
        <path fill="#00D592" d="M419.995 345.469v-5.344h12.132v-8.117h-33.004v8.117h12.132v5.344c-9.87.41-17.272 2.363-17.272 4.726 0 2.364 7.402 4.316 17.272 4.727v17.058h8.74v-16.955c9.87-.411 17.272-2.363 17.272-4.727 0-2.363-7.402-4.316-17.272-4.83m0 8.118c-.206 0-1.543.103-4.319.103-2.261 0-3.907-.103-4.42-.103-8.74-.41-15.217-1.952-15.217-3.699 0-1.747 6.477-3.288 15.216-3.699v5.96c.617 0 2.16.103 4.421.103 2.674 0 4.113-.103 4.319-.103v-5.96c8.739.411 15.216 1.952 15.216 3.7 0 1.746-6.477 3.287-15.216 3.698" transform="translate(-15)"/>
        <path fill="#1A82FF" d="M248.501 49.118c0-5.138-3.084-6.885-9.253-7.604-4.421-.617-5.244-1.747-5.244-3.802 0-2.055 1.44-3.391 4.421-3.391 2.673 0 4.113.925 4.833 3.083.102.41.616.719 1.028.719h2.364c.617 0 1.029-.411 1.029-1.028v-.103c-.617-3.185-3.188-5.754-6.58-5.96V27.54c0-.617-.412-1.028-1.131-1.13h-2.16c-.616 0-1.028.41-1.13 1.13v3.39c-4.422.617-7.197 3.495-7.197 7.194 0 4.83 2.981 6.782 9.047 7.501 4.113.72 5.45 1.644 5.45 3.905 0 2.26-2.057 3.905-4.833 3.905-3.804 0-5.14-1.645-5.552-3.802-.103-.617-.617-.925-1.028-.925h-2.468c-.616 0-1.028.41-1.028 1.027v.103c.617 3.7 2.982 6.268 7.814 6.988v3.493c0 .617.411 1.028 1.131 1.13h2.16c.616 0 1.027-.41 1.13-1.13v-3.493c4.215-.617 7.197-3.7 7.197-7.707zm-17.17 15.413c-11.412-4.11-17.273-16.852-13.057-28.155 2.159-6.165 6.991-10.79 13.057-13.05.617-.308.925-.72.925-1.439v-2.055c0-.616-.308-1.027-.925-1.13-.103 0-.411 0-.617.103-13.88 4.418-21.59 19.215-17.17 33.087 2.674 8.22 8.945 14.489 17.17 17.16.617.309 1.131 0 1.337-.616.103-.103.103-.308.103-.616v-2.056c.102-.308-.412-.924-.823-1.233zm15.525-45.726c-.617-.309-1.13 0-1.337.616-.102.103-.102.308-.102.617v2.055c0 .616.41 1.13.925 1.438 11.412 4.11 17.273 16.852 13.057 28.156-2.159 6.165-6.991 10.79-13.057 13.05-.617.308-.925.72-.925 1.438v2.056c0 .616.308 1.027.925 1.13.103 0 .411 0 .617-.103 13.88-4.418 21.59-19.215 17.17-33.088-2.776-8.426-9.253-14.694-17.273-17.365z" transform="translate(-15)"/>
    </g>
</svg>
