<svg xmlns="http://www.w3.org/2000/svg" width="91" height="26" viewBox="0 0 91 26">
    <g>
        <path d="M55.858 23.526L47.085 2.239c-.07-.194-.106-.398-.109-.604-.017-.434.137-.859.428-1.182.305-.313.73-.478 1.166-.453.326.005.642.11.905.302.275.205.489.48.621.797l8.345 20.825 8.345-20.825c.135-.317.352-.593.63-.797.263-.192.58-.297.905-.302.433-.022.855.143 1.158.453.294.322.45.746.436 1.182-.003.206-.04.41-.11.604l-8.772 21.287c-.308.958-1.19 1.615-2.198 1.635h-.78c-1.006-.02-1.889-.677-2.197-1.635zM73.647 24.507c-.3-.302-.464-.714-.453-1.14V1.811c-.01-.436.152-.859.453-1.175.295-.312.71-.483 1.14-.47h14.259c.406-.01.797.156 1.073.454.295.278.459.668.453 1.073.012.402-.154.788-.453 1.057-.287.284-.677.442-1.082.436H76.432v7.85H87.77c.406-.01.797.155 1.074.453.29.281.454.67.452 1.074.012.402-.154.788-.452 1.057-.286.282-.672.439-1.074.436h-11.34v7.884h12.606c.41-.013.804.152 1.082.453.297.28.461.673.453 1.081.012.402-.154.789-.453 1.057-.289.282-.678.436-1.082.428h-14.25c-.429.031-.849-.136-1.14-.453zM49.073 22.922L40.292 1.635C39.985.68 39.106.023 38.102 0h-.771c-1.007.02-1.89.677-2.197 1.635l-3.817 9.277h-2.893c-.866.009-1.564.71-1.569 1.576v.017c.005.866.703 1.568 1.569 1.577h1.551l-3.64 8.84c-.069.194-.106.398-.109.604-.017.435.137.859.428 1.182.305.313.73.478 1.166.453.326-.004.642-.11.906-.302.274-.205.488-.48.62-.796l4.018-9.981h2.76c.865-.01 1.563-.711 1.568-1.577v-.042c-.005-.865-.703-1.567-1.569-1.577H34.63l3.087-7.649 8.345 20.826c.132.316.346.59.62.796.264.192.58.298.906.302.44.027.868-.138 1.175-.453.288-.324.438-.748.419-1.182.01-.206-.024-.412-.1-.604h-.01zM22.855 22.922L14.082 1.635C13.773.674 12.886.016 11.876 0h-.771c-1.007.02-1.89.677-2.198 1.635l-3.816 9.277H2.197c-.865.009-1.563.71-1.568 1.576v.017c.005.866.703 1.568 1.568 1.577H3.75l-3.64 8.84c-.07.194-.106.398-.109.604-.017.435.136.859.428 1.182.305.313.73.478 1.166.453.325-.004.642-.11.905-.302.275-.205.489-.48.621-.796l4.017-9.981h2.777c.868-.005 1.572-.708 1.576-1.577v-.042c-.004-.869-.708-1.572-1.576-1.577H8.429l3.061-7.649 8.345 20.826c.133.316.347.59.621.796.264.192.58.298.906.302.439.027.867-.138 1.174-.453.288-.324.439-.748.42-1.182.01-.206-.024-.412-.101-.604z"/>
    </g>
</svg>
