<svg width="113" height="32" viewBox="0 0 113 32" fill="none" xmlns="http://www.w3.org/2000/svg">
<path d="M69.2844 29.5564L58.4131 3.18984C58.3273 2.94929 58.2821 2.69614 58.2793 2.44075C58.2579 1.90003 58.4496 1.37252 58.8131 0.971658C58.9996 0.780945 59.2247 0.632311 59.4733 0.535726C59.7219 0.439141 59.9883 0.396839 60.2546 0.411658C60.6582 0.4163 61.0503 0.547 61.376 0.785476C61.7182 1.0394 61.9859 1.38047 62.1513 1.77311L72.4888 27.5797L82.8277 1.77311C82.9921 1.38028 83.2594 1.03907 83.6015 0.785476C83.9272 0.547 84.3193 0.4163 84.723 0.411658C84.9895 0.396629 85.2562 0.438827 85.505 0.535418C85.7539 0.63201 85.9792 0.780755 86.1659 0.971658C86.5294 1.37252 86.7211 1.90003 86.6997 2.44075C86.6969 2.69567 86.6517 2.94834 86.5659 3.18839L75.6946 29.5564C75.0822 30.9193 74.1717 31.5927 72.9702 31.5927H72.0088C70.8073 31.5869 69.8982 30.9193 69.2844 29.5564Z" fill="url(#paint0_linear_1260_867)"/>
<path d="M91.3207 30.7855C91.1362 30.5996 90.9912 30.3782 90.8947 30.1347C90.7982 29.8912 90.7521 29.6306 90.7593 29.3688V2.65457C90.7495 2.11894 90.9512 1.60104 91.3207 1.21312C91.5016 1.02096 91.7214 0.869644 91.9655 0.769304C92.2096 0.668965 92.4723 0.621914 92.736 0.631299H110.393C110.642 0.624323 110.891 0.670665 111.121 0.767233C111.351 0.8638 111.558 1.00837 111.728 1.1913C111.909 1.36298 112.053 1.57048 112.149 1.80061C112.246 2.03074 112.294 2.27846 112.289 2.52803C112.296 2.77384 112.249 3.01815 112.152 3.24414C112.055 3.47013 111.911 3.67243 111.728 3.83712C111.37 4.18225 110.89 4.37157 110.393 4.36366H94.7665V14.0902H108.816C109.066 14.0835 109.314 14.1301 109.544 14.2269C109.774 14.3238 109.981 14.4685 110.151 14.6517C110.331 14.8244 110.473 15.0319 110.57 15.2615C110.666 15.4911 110.715 15.7379 110.713 15.9869C110.719 16.2327 110.672 16.4771 110.576 16.703C110.479 16.929 110.334 17.1313 110.151 17.296C109.975 17.4688 109.766 17.605 109.537 17.6966C109.308 17.7882 109.063 17.8335 108.816 17.8298H94.7665V27.6073H110.393C110.643 27.5998 110.891 27.6461 111.121 27.743C111.352 27.8398 111.559 27.985 111.728 28.1688C111.909 28.34 112.053 28.5473 112.15 28.7772C112.246 29.0071 112.294 29.2547 112.289 29.504C112.296 29.7498 112.249 29.9941 112.152 30.2201C112.055 30.4461 111.911 30.6484 111.728 30.8131C111.371 31.1609 110.891 31.3529 110.393 31.3469H92.736C92.473 31.3663 92.209 31.3259 91.9639 31.2287C91.7188 31.1314 91.4989 30.9799 91.3207 30.7855V30.7855Z" fill="url(#paint1_linear_1260_867)"/>
<path d="M60.8698 28.8087L50 2.44071C49.3876 1.07926 48.4727 0.411621 47.2756 0.411621H46.3127C45.1098 0.411621 44.2022 1.07926 43.5884 2.44798L38.8596 13.9389H35.2815C34.7651 13.9419 34.2707 14.1484 33.9056 14.5136C33.5404 14.8787 33.334 15.3731 33.3309 15.8894V15.9156C33.3336 16.4321 33.5399 16.9267 33.9052 17.2919C34.2704 17.6571 34.765 17.8635 35.2815 17.8662H37.2044L32.6953 28.8189C32.6095 29.059 32.5643 29.3116 32.5615 29.5665C32.5399 30.1073 32.7316 30.6348 33.0953 31.0356C33.2818 31.2267 33.5071 31.3757 33.756 31.4725C34.0048 31.5694 34.2715 31.6118 34.5382 31.5971C34.9416 31.5911 35.3333 31.4605 35.6596 31.2233C36.0015 30.9685 36.2692 30.627 36.4349 30.2342L41.4022 17.8705H44.8189C45.3353 17.8675 45.8296 17.661 46.1948 17.2959C46.5599 16.9307 46.7664 16.4364 46.7695 15.92V15.8545C46.7668 15.338 46.5604 14.8435 46.1952 14.4782C45.83 14.113 45.3354 13.9067 44.8189 13.904H42.9716L46.7927 4.42035L57.1302 30.2269C57.2946 30.6197 57.5619 30.9609 57.904 31.2145C58.2301 31.4533 58.6228 31.584 59.0269 31.5884C59.2932 31.6032 59.5596 31.5609 59.8082 31.4643C60.0568 31.3677 60.2819 31.2191 60.4684 31.0284C60.8321 30.627 61.0238 30.099 61.0022 29.5578C61.0137 29.3014 60.9685 29.0456 60.8698 28.8087V28.8087Z" fill="url(#paint2_linear_1260_867)"/>
<path d="M28.3899 28.8087L17.5201 2.44071C16.9091 1.07926 15.9957 0.411621 14.7928 0.411621H13.8313C12.6299 0.411621 11.7222 1.07926 11.107 2.44798L6.37969 13.9389H2.80005C2.28379 13.9423 1.78966 14.1489 1.4246 14.514C1.05954 14.879 0.852936 15.3732 0.849506 15.8894V15.9156C0.855593 16.4301 1.06337 16.9217 1.42814 17.2845C1.79292 17.6474 2.28554 17.8526 2.80005 17.856H4.72296L0.213869 28.8087C0.128133 29.0488 0.0829099 29.3014 0.0800512 29.5563C0.0582005 30.0971 0.249944 30.6248 0.613869 31.0254C0.800416 31.2165 1.02569 31.3655 1.27456 31.4623C1.52343 31.5592 1.79014 31.6016 2.05678 31.5869C2.4602 31.5809 2.8519 31.4503 3.17823 31.2131C3.52012 30.9583 3.78777 30.6168 3.95351 30.224L8.92078 17.8603H12.3622C12.8786 17.8573 13.373 17.6508 13.7381 17.2857C14.1032 16.9205 14.3097 16.4262 14.3128 15.9098V15.8545C14.3101 15.338 14.1037 14.8435 13.7385 14.4782C13.3733 14.113 12.8787 13.9067 12.3622 13.904H10.5193L14.3128 4.41889L24.6502 30.224C24.815 30.6174 25.0828 30.9591 25.4255 31.2131C25.7518 31.4503 26.1435 31.5809 26.547 31.5869C26.8136 31.6013 27.0802 31.5586 27.329 31.4618C27.5778 31.365 27.8031 31.2162 27.9899 31.0254C28.3534 30.6246 28.5451 30.0971 28.5237 29.5563C28.5335 29.3004 28.4879 29.0454 28.3899 28.8087V28.8087Z" fill="url(#paint3_linear_1260_867)"/>
<defs>
<linearGradient id="paint0_linear_1260_867" x1="1.67386" y1="32.2775" x2="115.259" y2="8.12302" gradientUnits="userSpaceOnUse">
<stop stop-color="#31BAC6"/>
<stop offset="1" stop-color="#B6509E"/>
</linearGradient>
<linearGradient id="paint1_linear_1260_867" x1="3.48894" y1="41.2637" x2="117.895" y2="26.9269" gradientUnits="userSpaceOnUse">
<stop stop-color="#31BAC6"/>
<stop offset="1" stop-color="#B6509E"/>
</linearGradient>
<linearGradient id="paint2_linear_1260_867" x1="0.844824" y1="29.3437" x2="114.356" y2="5.2231" gradientUnits="userSpaceOnUse">
<stop stop-color="#31BAC6"/>
<stop offset="1" stop-color="#B6509E"/>
</linearGradient>
<linearGradient id="paint3_linear_1260_867" x1="-1.49633" y1="21.2502" x2="112.101" y2="-2.94606" gradientUnits="userSpaceOnUse">
<stop stop-color="#31BAC6"/>
<stop offset="1" stop-color="#B6509E"/>
</linearGradient>
</defs>
</svg>
