<svg xmlns="http://www.w3.org/2000/svg" width="489" height="292" viewBox="0 0 489 292">
    <defs>
        <linearGradient id="4o16kh8qha" x1="50.968%" x2="41.008%" y1="79.399%" y2="-12.429%">
            <stop offset=".058%" stop-color="#FFF"/>
            <stop offset="100%" stop-color="#1E313F"/>
        </linearGradient>
        <linearGradient id="7yzx9z0v2b" x1="48.217%" x2="58.076%" y1="17.731%" y2="112.387%">
            <stop offset=".058%" stop-color="#FFF"/>
            <stop offset="99.67%" stop-color="#4E5A64"/>
        </linearGradient>
    </defs>
    <g fill="none" fill-rule="evenodd" transform="translate(0 1)">
        <path stroke="#00D592" d="M212.15 222.737c-7.917-3.32-15.069-7.663-21.454-13.026-14.047-12.004-23.753-28.606-27.073-47.761M231.306 227.845c-4.087-.511-7.918-1.533-12.004-2.554"/>
        <path stroke="#FEC100" d="M322.23 148.924c0 28.095-14.557 52.87-36.522 67.172M318.91 125.937c1.278 4.598 2.3 9.706 2.81 14.559"/>
        <path stroke="#7A26F3" d="M175.372 105.505c14.303-21.965 38.822-36.523 66.916-36.523 5.364 0 10.728.51 16.091 1.532"/>
        <path stroke="#FEC100" d="M348.538 209.455c-21.199 36.78-60.787 61.554-106.25 61.554M357.477 190.045c-1.532 4.341-3.32 8.683-5.363 12.77"/>
        <path stroke="#7A26F3" d="M242.288 26.584c30.65 0 59 11.493 80.454 30.138"/>
        <path stroke="#00D592" d="M129.143 102.695c12.004-29.372 34.99-52.869 63.852-65.64M126.844 108.825c-1.277 3.32-2.298 6.896-3.064 10.216H85.213M242.288 290.164c-65.384 0-120.296-44.185-136.642-104.206"/>
        <path stroke="#7A26F3" d="M375.1 198.218c-8.684 22.986-22.986 43.163-41.631 58.743"/>
        <path stroke="#FEC100" d="M286.985 14.58c41.887 14.047 74.834 46.995 89.137 88.882h47.506M401.407 151.989L448.913 151.989M458.618 151.989L470.367 151.989M477.008 151.989L488.756 151.989"/>
        <path stroke="#7A26F3" d="M380.719 119.041L427.969 119.041M438.186 119.041L460.151 119.041"/>
        <path stroke="#00D592" d="M291.837 59.276c27.84 15.325 47.506 43.42 51.848 76.367M259.145 47.783c7.407 1.277 14.559 3.32 21.455 5.874"/>
        <path stroke="#7A26F3" d="M261.955 248.533c-6.385 1.277-12.77 1.788-19.411 1.788-30.904 0-58.488-13.537-77.133-35.247M303.075 230.399c-7.151 5.108-14.813 9.45-22.986 12.77M321.72 212.776c-2.043 2.554-4.086 4.852-6.385 7.151"/>
        <circle cx="344.451" cy="148.413" r="6.641" stroke="#00D592"/>
        <circle cx="270.894" cy="74.345" r="6.641" stroke="#7A26F3"/>
        <circle cx="323.253" cy="264.879" r="6.641" stroke="#7A26F3"/>
        <circle cx="157.749" cy="205.369" r="6.641" stroke="#7A26F3"/>
        <circle cx="45.114" cy="150.456" r="6.641" stroke="#7A26F3"/>
        <circle cx="102.836" cy="173.698" r="6.641" stroke="#00D592"/>
        <circle cx="172.818" cy="73.834" r="6.641" stroke="#FEC100"/>
        <circle cx="242.288" cy="6.662" r="6.641" stroke="#7A26F3"/>
        <circle cx="436.398" cy="103.462" r="6.641" stroke="#FEC100"/>
        <path stroke="#FEC100" d="M74.741 134.877h66.406c2.554-19.411 10.727-37.29 22.731-51.593M59.417 134.877L.673 134.877"/>
        <path stroke="#7A26F3" d="M67.08 103.206h40.864c17.623-52.103 64.618-90.67 121.319-96.033M54.309 103.206L15.998 103.206"/>
        <path stroke="#00D592" d="M79.85 167.058L54.309 167.058M41.538 167.058L28.768 167.058M487.479 134.877L390.68 134.877"/>
        <path stroke="#7A26F3" d="M423.883 167.058h-40.865c-.766 6.64-2.299 13.026-3.831 19.41"/>
        <g>
            <g fill-rule="nonzero" transform="translate(180.225 78.176) translate(37.757 33.203)">
                <circle cx="24.307" cy="74.068" r="24.008" fill="#1A82FF" stroke="#FFF" stroke-width=".809" opacity=".1"/>
                <circle cx="24.307" cy="61.809" r="24.008" fill="#1A82FF" stroke="#FFF" stroke-width=".809" opacity=".3"/>
                <circle cx="24.307" cy="49.549" r="24.008" fill="#1A82FF" stroke="#FFF" stroke-width=".809" opacity=".5"/>
                <circle cx="24.307" cy="37.545" r="24.008" fill="#1A82FF" stroke="#FFF" stroke-width=".809" opacity=".7"/>
                <g transform="translate(.018 .62)">
                    <circle cx="24.46" cy="24.541" r="24.379" fill="#1E313F" stroke="#FFF" transform="rotate(-.192 24.46 24.541)"/>
                    <path fill="#FFF" d="M39.706 39.666c8.363-8.423 8.322-22.01-.101-30.372C31.182.93 17.595.972 9.233 9.395l30.473 30.27z" opacity=".2"/>
                    <g>
                        <path fill="url(#4o16kh8qha)" d="M3.1 23.765c-.23-.253-.437-.551-.643-.827-.092-.115-.16-.23-.253-.367-.023-.023-.046-.046-.046-.092l-.206-.344c-.023-.046-.046-.07-.07-.115-.068-.115-.137-.23-.183-.345l-.069-.137c-.069-.115-.115-.23-.183-.345l-.07-.138c-.045-.114-.114-.23-.16-.344l-.069-.138c-.046-.115-.092-.252-.16-.367 0-.023-.024-.046-.024-.07-.114-.275-.206-.573-.298-.872 0-.023-.023-.046-.023-.069-.023-.114-.069-.206-.092-.321-.023-.092-.046-.16-.069-.253-.023-.091-.046-.206-.069-.298l-.069-.276c-.023-.091-.046-.183-.046-.275-.022-.092-.045-.207-.045-.299-.023-.091-.023-.183-.046-.275-.023-.115-.023-.23-.046-.322 0-.091-.023-.183-.023-.275-.023-.115-.023-.23-.046-.367 0-.092-.023-.161-.023-.253 0-.138-.023-.276-.023-.413v-.207c0-.207-.023-.413-.023-.62 0-.207 0-.413.023-.597v-.184c0-.137.023-.275.023-.413 0-.069 0-.138.023-.207 0-.137.023-.275.046-.39 0-.069.023-.138.023-.207.023-.16.046-.321.069-.459 0-.046 0-.069.023-.115.023-.183.068-.367.091-.574 0-.069.023-.114.046-.183.023-.138.046-.253.092-.39.023-.07.023-.138.046-.207.023-.115.069-.23.092-.345l.069-.206c.046-.115.069-.253.115-.368.023-.046.046-.115.046-.16.068-.161.114-.345.183-.506.023-.046.046-.114.07-.16l.137-.345c.023-.069.069-.138.092-.206.046-.092.092-.207.138-.299.022-.069.068-.138.091-.207.046-.091.092-.206.161-.298.023-.069.069-.115.092-.184.092-.16.16-.298.253-.436-.184.689-.276 1.424-.276 2.227 0 2.71 1.148 4.776 3.421 6.177.115 2.434.827 4.362 2.044 5.602L3.1 23.765z" transform="translate(12.626 9.791)"/>
                        <path fill="url(#7yzx9z0v2b)" d="M16.302 9.161c.712 1.057 1.148 2.411 1.31 4.019.573.275 1.101.597 1.538.941 1.676 1.309 2.548 3.238 2.548 5.671 0 .299-.023.597-.046.873v-.023c.092-.207.161-.39.23-.597.023-.046.046-.115.069-.16.046-.138.092-.3.138-.437l.068-.207.07-.275c.022-.115.068-.23.091-.345l.07-.275c.022-.092.045-.207.068-.299.023-.068.023-.137.046-.206.023-.16.069-.322.092-.46 0-.068.023-.114.023-.183.023-.16.046-.345.069-.505 0-.046 0-.07.023-.115.023-.16.023-.322.045-.482v-.115c.023-.184.023-.367.023-.551v-.115-.597c0-.207 0-.436-.023-.643v-.206c0-.138-.022-.276-.022-.437 0-.092-.023-.16-.023-.252 0-.115-.023-.253-.046-.368 0-.092-.023-.183-.023-.252-.023-.115-.023-.23-.046-.345-.023-.092-.023-.183-.046-.275-.023-.115-.046-.23-.07-.322-.022-.092-.045-.183-.045-.275-.023-.115-.046-.207-.069-.322l-.069-.275c-.023-.092-.046-.207-.092-.299l-.068-.275c-.023-.092-.07-.184-.092-.299-.023-.092-.07-.183-.092-.275-.023-.092-.07-.184-.092-.276-.023-.092-.069-.183-.092-.275-.046-.092-.069-.184-.115-.276-.046-.092-.069-.184-.114-.275-.046-.092-.07-.161-.115-.253-.046-.092-.092-.184-.115-.253-.046-.091-.092-.16-.138-.252-.046-.092-.092-.16-.138-.253-.046-.069-.091-.16-.137-.23-.046-.091-.092-.16-.138-.252-.046-.069-.092-.138-.138-.23-.16-.23-.298-.459-.482-.688-.115-.161-.23-.299-.367-.46l-3.468 3.536z" transform="translate(12.626 9.791)"/>
                        <path fill="#FFF" d="M13.8 12.468c-.253-.046-.483-.092-.712-.138-3.077-.62-5.327-1.056-5.327-3.214 0-1.332 1.309-2.388 3.674-2.388 2.09 0 3.765.85 4.867 2.456.092.138.184.276.253.414-.092-.138-.16-.276-.253-.414l3.49-3.513c-1.331-1.584-3.03-2.686-4.96-3.283-.252-.069-.527-.138-.803-.207h-.023c-.16-.023-.321-.069-.482-.092C13.478.941 12.56.046 11.412.046c-1.148 0-2.067.918-2.113 2.043-.206.046-.413.07-.62.115h-.023C6.475 2.71 4.592 3.857 3.123 5.58c-.62 1.033-.919 2.273-.919 3.72 0 4.913 3.697 6.474 7.325 7.347.666.16 1.332.275 1.975.39 2.273.413 4.224.758 4.224 2.801 0 1.263-1.4 2.848-4.316 2.848-1.745 0-3.169-.574-4.202-1.677l.023.023-4.156 2.71c.574.666 1.194 1.24 1.86 1.745.23.16.459.321.688.46.23.137.483.275.712.39h.023c.23.114.482.229.735.344.023 0 .023 0 .046.023l.758.275c.023 0 .023 0 .046.023.114.046.23.07.344.115h.046c.138.046.252.069.39.092.023 0 .046 0 .046.023l.345.069c.023 0 .045 0 .068.023.023 0 .07 0 .092.023 0 1.17.942 2.112 2.113 2.112 1.17 0 2.112-.941 2.112-2.112.138-.023.276-.046.413-.092h.046c.322-.069.62-.16.919-.253.16-.046.298-.092.459-.16 1.676-.62 3.169-1.654 4.363-3.077.459-.528.85-1.102 1.217-1.722.183-.666.275-1.424.275-2.205.069-5.258-3.926-6.704-7.393-7.37z" transform="translate(12.626 9.791)"/>
                    </g>
                </g>
            </g>
            <g stroke="#FFF" stroke-width=".809">
                <path d="M55.168 16.091L62.064 9.195 55.168 2.299" transform="translate(180.225 78.176)"/>
                <path d="M62.064 9.195c-33.714 0-61.042 27.328-61.042 61.042s27.328 61.042 61.042 61.042 61.042-27.328 61.042-61.042c0-29.883-21.454-54.657-49.549-60.02" transform="translate(180.225 78.176)"/>
            </g>
        </g>
        <circle cx="162.601" cy="148.924" r="6.641" stroke="#00D592"/>
        <circle cx="274.725" cy="221.715" r="6.641" stroke="#FEC100"/>
        <path stroke="#7A26F3" d="M327.34 61.575c1.276-1.277 2.809-1.788 4.596-1.788 3.576 0 6.641 2.81 6.641 6.64 0 3.832-2.81 6.641-6.64 6.641-3.832 0-6.641-2.81-6.641-6.64 0-2.044.766-3.832 2.043-4.853"/>
        <circle cx="229.774" cy="269.987" r="6.641" stroke="#FEC100"/>
        <circle cx="205.254" cy="32.714" r="6.641" stroke="#00D592"/>
        <path stroke="#FEC100" d="M348.538 88.903c-1.533-2.81-3.065-5.363-4.853-7.917M361.564 172.932c1.532-7.917 2.554-16.09 2.554-24.519 0-19.41-4.598-37.8-12.515-53.89"/>
        <path stroke="#7A26F3" d="M182.779 254.663c5.619 3.32 11.748 5.874 17.878 8.173M174.35 249.299c-31.926-21.454-52.87-57.722-53.635-98.843H56.863"/>
        <path stroke="#00D592" d="M74.997 119.297L61.46 119.297M280.089 284.545c2.81-.766 5.619-1.532 8.173-2.554M254.293 289.142c6.896-.51 13.536-1.532 20.177-3.064M242.288 47.017c-11.237 0-22.22 1.787-32.18 5.108"/>
    </g>
</svg>
