<svg xmlns="http://www.w3.org/2000/svg" width="344" height="276" viewBox="0 0 344 276">
    <defs>
        <linearGradient id="oc11mkyvva" x1="50.968%" x2="41.008%" y1="79.399%" y2="-12.429%">
            <stop offset=".058%" stop-color="#FFF"/>
            <stop offset="100%" stop-color="#1E313F"/>
        </linearGradient>
        <linearGradient id="cads2uaxib" x1="48.217%" x2="58.076%" y1="17.731%" y2="112.387%">
            <stop offset=".058%" stop-color="#FFF"/>
            <stop offset="99.67%" stop-color="#4E5A64"/>
        </linearGradient>
    </defs>
    <g fill="none">
        <g transform="translate(1) translate(105.136)">
            <ellipse cx="67.196" cy="67.574" fill="#1A82FF" stroke="#183140" rx="67.005" ry="66.908"/>
            <path fill="#183140" d="M81.302 75.95c0-7.33-4.384-9.899-13.248-10.946-6.291-.856-7.53-2.474-7.53-5.425 0-2.95 2.097-4.854 6.29-4.854 3.813 0 5.91 1.238 6.958 4.378.191.666.858 1.047 1.43 1.047h3.336c.858 0 1.43-.666 1.43-1.427v-.19c-.858-4.57-4.575-8.186-9.436-8.566v-5.045c0-.856-.667-1.427-1.716-1.713h-3.05c-.858 0-1.43.666-1.715 1.713v4.854c-6.291.857-10.294 5.044-10.294 10.279 0 6.948 4.193 9.613 13.058 10.66 5.909 1.046 7.815 2.284 7.815 5.615 0 3.33-2.954 5.615-6.958 5.615-5.432 0-7.339-2.284-8.006-5.425-.19-.856-.858-1.237-1.43-1.237H54.71c-.858 0-1.43.666-1.43 1.428v.19c.858 5.234 4.194 9.041 11.152 10.088v5.045c0 .856.667 1.427 1.715 1.713h3.146c.858 0 1.43-.666 1.715-1.713v-5.045c6.1-.951 10.294-5.425 10.294-11.04zm-24.59 21.984c-16.394-5.9-24.782-24.079-18.682-40.258 3.145-8.852 10.103-15.514 18.681-18.655.858-.38 1.24-1.046 1.24-2.093v-2.95c0-.857-.382-1.428-1.24-1.714-.19 0-.667 0-.857.19-19.92 6.282-30.882 27.506-24.591 47.397 3.812 11.707 12.772 20.748 24.59 24.555.858.381 1.716 0 1.907-.856.19-.19.19-.381.19-.857v-2.95c0-.571-.571-1.428-1.239-1.809zM79.014 32.55c-.858-.381-1.716 0-1.907.856-.19.19-.19.38-.19.857v2.95c0 .857.667 1.713 1.239 2.094 16.394 5.9 24.781 24.08 18.681 40.259-3.145 8.851-10.103 15.513-18.681 18.654-.858.38-1.24 1.047-1.24 2.094v2.95c0 .857.382 1.428 1.24 1.713.19 0 .667 0 .858-.19 19.92-6.282 30.881-27.505 24.59-47.397-3.812-12.087-13.057-21.129-24.59-24.84z"/>
        </g>
        <g transform="translate(1) translate(.291 54.25)">
            <ellipse cx="67.196" cy="67.574" fill="#1A82FF" stroke="#FEC100" rx="67.005" ry="66.908"/>
            <path fill="#FEC100" d="M67.196 27.505L26.878 67.67l40.223 40.164 40.222-40.164-40.127-40.164zM75.965 65.1l-8.77-8.756-7.91 8.756H40.889l26.307-29.313L94.36 65.099H75.965z"/>
        </g>
        <g transform="translate(1) translate(207.12 54.25)">
            <ellipse cx="67.482" cy="67.574" fill="#1A82FF" stroke="#00D592" rx="67.005" ry="66.908"/>
            <path fill="#00D592" d="M75.297 58.913V49.68h21.255V35.5H38.697v14.181h21.255v9.232c-17.252.761-30.214 4.188-30.214 8.28 0 4.093 12.962 7.519 30.214 8.28v29.695h15.345V75.473c17.252-.761 30.215-4.187 30.215-8.28 0-4.092-12.963-7.519-30.215-8.28m0 14.086c-.476 0-2.668.19-7.625.19-4.003 0-6.767-.095-7.72-.19-15.25-.666-26.688-3.331-26.688-6.472 0-3.14 11.343-5.806 26.688-6.472v10.374c.953.095 3.813.19 7.816.19 4.765 0 7.148-.19 7.53-.19v-10.47c15.25.667 26.592 3.332 26.592 6.473 0 3.14-11.342 5.805-26.593 6.567"/>
        </g>
        <g transform="translate(1) translate(85 101)">
            <circle cx="87.357" cy="87.647" r="87.067" fill="#1E313F" transform="rotate(-.192 87.357 87.647)"/>
            <path fill="#FFF" d="M141.808 141.663c29.866-30.082 29.72-78.605-.362-108.47-30.082-29.867-78.605-29.722-108.47.36l108.832 108.11z" opacity=".2"/>
            <g>
                <path fill="url(#oc11mkyvva)" d="M11.07 84.874c-.82-.902-1.558-1.968-2.296-2.952-.328-.41-.574-.82-.902-1.312-.082-.082-.164-.164-.164-.328l-.738-1.23c-.082-.164-.164-.246-.246-.41-.246-.41-.492-.82-.656-1.23l-.246-.492c-.246-.41-.41-.82-.656-1.23l-.246-.492c-.164-.41-.41-.82-.574-1.23l-.246-.492c-.164-.41-.328-.902-.574-1.313 0-.082-.082-.164-.082-.246-.41-.984-.738-2.05-1.066-3.116 0-.082-.082-.164-.082-.246-.082-.41-.246-.738-.328-1.148-.082-.328-.164-.574-.246-.902-.082-.328-.164-.738-.246-1.066l-.246-.984c-.082-.328-.164-.656-.164-.984-.082-.328-.164-.738-.164-1.066-.082-.328-.082-.656-.164-.984-.082-.41-.082-.82-.164-1.148 0-.328-.082-.656-.082-.984-.082-.41-.082-.82-.164-1.312 0-.328-.082-.574-.082-.902 0-.492-.082-.984-.082-1.476v-.738c0-.738-.082-1.476-.082-2.214s0-1.477.082-2.133v-.656c0-.492.082-.984.082-1.476 0-.246 0-.492.082-.738 0-.492.082-.984.164-1.394 0-.246.082-.492.082-.738.082-.574.164-1.148.246-1.64 0-.164 0-.246.082-.41.082-.656.246-1.312.328-2.05 0-.246.082-.41.164-.656.082-.492.164-.902.328-1.394.082-.246.082-.492.164-.738.082-.41.246-.82.328-1.23l.246-.738c.164-.41.246-.902.41-1.312.082-.164.164-.41.164-.574.246-.574.41-1.23.656-1.804.082-.164.164-.41.246-.574l.492-1.23c.082-.247.246-.493.328-.739.164-.328.328-.738.492-1.066.082-.246.246-.492.328-.738.164-.328.328-.738.574-1.066.082-.246.246-.41.328-.656.328-.574.574-1.066.902-1.558-.656 2.46-.984 5.084-.984 7.955 0 9.676 4.1 17.056 12.219 22.059.41 8.692 2.952 15.58 7.298 20.009l-14.842 9.512z" transform="translate(45.093 34.969)"/>
                <path fill="url(#cads2uaxib)" d="M58.223 32.72c2.542 3.772 4.1 8.61 4.674 14.35 2.05.984 3.936 2.132 5.494 3.362 5.987 4.675 9.103 11.563 9.103 20.255 0 1.066-.082 2.133-.164 3.117v-.082c.328-.738.574-1.394.82-2.133.082-.164.164-.41.246-.574.164-.492.328-1.066.492-1.558l.246-.738.246-.984c.082-.41.246-.82.328-1.23l.246-.984c.082-.328.164-.738.246-1.066.082-.246.082-.492.164-.738.082-.574.246-1.148.328-1.64 0-.246.082-.41.082-.656.082-.574.164-1.23.246-1.804 0-.164 0-.246.082-.41.082-.574.082-1.148.164-1.722v-.41c.082-.656.082-1.312.082-1.968v-.41-2.132c0-.738 0-1.559-.082-2.297v-.738c0-.492-.082-.984-.082-1.558 0-.328-.082-.574-.082-.902 0-.41-.082-.902-.164-1.312 0-.328-.082-.656-.082-.902-.082-.41-.082-.82-.164-1.23-.082-.328-.082-.656-.164-.984-.082-.41-.164-.82-.246-1.148-.082-.328-.164-.656-.164-.984-.082-.41-.164-.738-.246-1.148l-.246-.984c-.082-.328-.164-.738-.328-1.066l-.246-.984c-.082-.328-.246-.656-.328-1.066-.082-.328-.246-.656-.328-.984-.082-.328-.246-.656-.328-.984-.082-.328-.246-.656-.328-.984-.164-.328-.246-.656-.41-.984-.164-.328-.246-.657-.41-.985-.164-.328-.246-.574-.41-.902-.164-.328-.328-.656-.41-.902-.164-.328-.328-.574-.492-.902-.164-.328-.328-.574-.492-.902-.164-.246-.328-.574-.492-.82-.164-.328-.328-.574-.492-.902-.164-.246-.328-.492-.492-.82-.574-.82-1.066-1.64-1.723-2.46-.41-.574-.82-1.066-1.312-1.64L58.223 32.72z" transform="translate(45.093 34.969)"/>
                <path fill="#FFF" d="M49.284 44.528c-.902-.164-1.722-.328-2.542-.492-10.988-2.214-19.025-3.772-19.025-11.48 0-4.757 4.675-8.529 13.121-8.529 7.462 0 13.449 3.034 17.385 8.775.328.492.656.984.902 1.476-.328-.492-.574-.984-.902-1.476l12.464-12.547c-4.756-5.658-10.824-9.594-17.712-11.727-.902-.246-1.887-.492-2.87-.738h-.083c-.574-.082-1.148-.246-1.722-.328-.164-4.1-3.444-7.298-7.544-7.298s-7.38 3.28-7.544 7.298c-.738.164-1.476.246-2.214.41h-.083c-7.79 1.804-14.514 5.905-19.762 12.055-2.215 3.69-3.28 8.118-3.28 13.285 0 17.548 13.202 23.125 26.159 26.24 2.378.575 4.756.985 7.052 1.395 8.118 1.476 15.089 2.706 15.089 10.004 0 4.51-5.003 10.169-15.417 10.169-6.232 0-11.317-2.05-15.007-5.986l.082.082-14.842 9.676c2.05 2.378 4.264 4.428 6.642 6.232.82.574 1.64 1.148 2.46 1.64.82.493 1.722.985 2.542 1.395h.082c.82.41 1.722.82 2.624 1.23.082 0 .082 0 .164.082l2.706.984c.082 0 .082 0 .164.082.41.164.82.246 1.23.41h.164c.492.164.902.246 1.395.328.082 0 .164 0 .164.082l1.23.246c.082 0 .164 0 .246.082.082 0 .246 0 .328.082 0 4.182 3.362 7.544 7.544 7.544 4.182 0 7.544-3.362 7.544-7.544.492-.082.984-.164 1.476-.328h.164c1.148-.246 2.215-.574 3.28-.902.575-.164 1.067-.328 1.64-.574 5.987-2.214 11.317-5.905 15.581-10.989 1.64-1.886 3.035-3.936 4.347-6.15.656-2.378.984-5.084.984-7.873.246-18.778-14.023-23.945-26.406-26.323z" transform="translate(45.093 34.969)"/>
            </g>
        </g>
    </g>
</svg>
