<svg xmlns="http://www.w3.org/2000/svg" width="344" height="289" viewBox="0 0 344 289">
    <defs>
        <linearGradient id="mcst485rca" x1="50.898%" x2="41.036%" y1="79.568%" y2="-11.87%">
            <stop offset=".058%" stop-color="#FFF"/>
            <stop offset="100%" stop-color="#1E313F"/>
        </linearGradient>
        <linearGradient id="mzn7p96jzb" x1="48.094%" x2="58.005%" y1="17.958%" y2="112.287%">
            <stop offset=".058%" stop-color="#FFF"/>
            <stop offset="99.67%" stop-color="#4E5A64"/>
        </linearGradient>
    </defs>
    <g fill="none">
        <g>
            <path stroke="#183140" d="M134.152 64.981C132.788 29.231 103.332.666 67.196.666c-36.43 0-66.07 29.031-66.984 65.19" transform="translate(1) translate(105.136)"/>
            <path fill="#183140" d="M81.302 75.95c0-7.33-4.384-9.899-13.248-10.946-6.291-.856-7.53-2.474-7.53-5.425 0-2.95 2.097-4.854 6.29-4.854 3.813 0 5.91 1.238 6.958 4.378.191.666.858 1.047 1.43 1.047h3.336c.858 0 1.43-.666 1.43-1.427v-.19c-.858-4.57-4.575-8.186-9.436-8.566v-5.045c0-.856-.667-1.427-1.716-1.713h-3.05c-.858 0-1.43.666-1.715 1.713v4.854c-6.291.857-10.294 5.044-10.294 10.279 0 6.948 4.193 9.613 13.058 10.66 5.909 1.046 7.815 2.284 7.815 5.615 0 3.33-2.954 5.615-6.958 5.615-5.432 0-7.339-2.284-8.006-5.425-.19-.856-.858-1.237-1.43-1.237H54.71c-.858 0-1.43.666-1.43 1.428v.19c.858 5.234 4.194 9.041 11.152 10.088v5.045c0 .856.667 1.427 1.715 1.713h3.146c.858 0 1.43-.666 1.715-1.713v-5.045c6.1-.951 10.294-5.425 10.294-11.04zm-24.59 21.984c-16.394-5.9-24.782-24.079-18.682-40.258 3.145-8.852 10.103-15.514 18.681-18.655.858-.38 1.24-1.046 1.24-2.093v-2.95c0-.857-.382-1.428-1.24-1.714-.19 0-.667 0-.857.19-19.92 6.282-30.882 27.506-24.591 47.397 3.812 11.707 12.772 20.748 24.59 24.555.858.381 1.716 0 1.907-.856.19-.19.19-.381.19-.857v-2.95c0-.571-.571-1.428-1.239-1.809zM79.014 32.55c-.858-.381-1.716 0-1.907.856-.19.19-.19.38-.19.857v2.95c0 .857.667 1.713 1.239 2.094 16.394 5.9 24.781 24.08 18.681 40.259-3.145 8.851-10.103 15.513-18.681 18.654-.858.38-1.24 1.047-1.24 2.094v2.95c0 .857.382 1.428 1.24 1.713.19 0 .667 0 .858-.19 19.92-6.282 30.881-27.505 24.59-47.397-3.812-12.087-13.057-21.129-24.59-24.84z" transform="translate(1) translate(105.136)"/>
        </g>
        <g transform="translate(1) translate(.291 54.25)">
            <ellipse cx="67.196" cy="67.574" stroke="#FEC100" rx="67.005" ry="66.908"/>
            <path fill="#FEC100" d="M67.196 27.505L26.878 67.67l40.223 40.164 40.222-40.164-40.127-40.164zM75.965 65.1l-8.77-8.756-7.91 8.756H40.889l26.307-29.313L94.36 65.099H75.965z"/>
        </g>
        <g transform="translate(1) translate(207.12 54.25)">
            <ellipse cx="67.482" cy="67.574" stroke="#00D592" rx="67.005" ry="66.908"/>
            <path fill="#00D592" d="M75.297 58.913V49.68h21.255V35.5H38.697v14.181h21.255v9.232c-17.252.761-30.214 4.188-30.214 8.28 0 4.093 12.962 7.519 30.214 8.28v29.695h15.345V75.473c17.252-.761 30.215-4.187 30.215-8.28 0-4.092-12.963-7.519-30.215-8.28m0 14.086c-.476 0-2.668.19-7.625.19-4.003 0-6.767-.095-7.72-.19-15.25-.666-26.688-3.331-26.688-6.472 0-3.14 11.343-5.806 26.688-6.472v10.374c.953.095 3.813.19 7.816.19 4.765 0 7.148-.19 7.53-.19v-10.47c15.25.667 26.592 3.332 26.592 6.473 0 3.14-11.342 5.805-26.593 6.567"/>
        </g>
        <g transform="translate(1) translate(83 109)">
            <circle cx="89.854" cy="90.15" r="89.186" fill="#1E313F" transform="rotate(-.192 89.854 90.15)"/>
            <path fill="#FFF" d="M145.63 145.556c30.592-30.815 30.444-80.519-.37-111.112C114.443 3.852 64.74 4 34.147 34.814L145.63 145.557z" opacity=".2"/>
            <g>
                <path fill="#FAFBFC" d="M49.333 48.074c-.889-.148-1.703-.37-2.518-.518-10.963-2.223-18.89-3.778-18.89-11.408 0-4.74 4.668-8.518 13.038-8.518 7.481 0 13.407 3.037 17.26 8.74l.592.149L70.74 24.296l-.074-.444c-4.741-5.63-10.741-9.556-17.63-11.63-.963-.296-1.852-.518-2.815-.74h-.074c-.37-.075-.667-.149-1.037-.223V.444H32.815V11.26c-.519.074-1.037.222-1.556.297h-.074c-7.704 1.851-14.444 5.851-19.704 12-2.222 3.703-3.333 8.148-3.333 13.259 0 17.481 13.185 23.037 26.074 26.148 2.37.593 4.741 1.037 7.037 1.407 8.074 1.482 15.037 2.741 15.037 10 0 4.519-4.963 10.149-15.333 10.149-6.148 0-11.185-2.075-14.889-5.852-.222-.223-.518-.445-.74-.667l-14.075 9.778v.518c2 2.37 4.222 4.445 6.593 6.223.815.592 1.63 1.11 2.444 1.63h.074c.815.518 1.704.962 2.519 1.407 0 0 .074 0 .074.074.889.444 1.704.814 2.593 1.185.074 0 .074 0 .148.074.889.37 1.777.667 2.666.963.074 0 .149 0 .149.074.444.148.814.222 1.259.37h.148c.444.148.889.223 1.407.37.074 0 .148 0 .223.075.37.074.814.148 1.185.222v10.815h16.296v-10.815c.296-.074.593-.074.889-.148h.148c1.111-.222 2.222-.519 3.333-.89.519-.147 1.112-.37 1.63-.518 6-2.222 11.26-5.926 15.556-10.963 1.63-1.925 3.037-3.925 4.296-6.148.667-2.37.963-5.037.963-7.852.074-18.814-14.148-23.925-26.519-26.37z" transform="translate(48.889 34.074)"/>
                <path fill="url(#mcst485rca)" d="M11.333 88.222c-.814-.963-1.555-1.926-2.222-2.963-.296-.444-.592-.889-.889-1.259-.074-.074-.148-.222-.222-.296-.222-.37-.519-.815-.74-1.26L7.036 82c-.222-.37-.444-.815-.667-1.185l-.222-.445c-.222-.37-.444-.814-.592-1.259-.075-.148-.149-.37-.223-.518-.222-.445-.37-.815-.592-1.26-.074-.148-.148-.296-.222-.518-.149-.445-.37-.89-.519-1.334 0-.074-.074-.222-.074-.296-.37-1.037-.74-2.074-1.037-3.11 0-.075-.074-.15-.074-.297-.074-.37-.222-.741-.296-1.111l-.223-.89c-.074-.37-.148-.666-.222-1.036-.074-.297-.148-.667-.222-.963-.074-.37-.148-.667-.222-1.037l-.223-1.111c-.074-.297-.074-.667-.148-.963-.074-.37-.148-.741-.148-1.186-.074-.296-.074-.592-.148-.962-.074-.445-.074-.815-.148-1.26 0-.296-.074-.592-.074-.889 0-.518-.074-.963-.074-1.481 0-.222 0-.445-.074-.74 0-.742-.074-1.482-.074-2.223 0-.74 0-1.407.074-2.148v-.667c0-.518.074-.963.074-1.481 0-.223.074-.519.074-.741.074-.445.074-.963.148-1.408 0-.222.074-.444.074-.666.074-.593.148-1.111.222-1.63 0-.148 0-.296.074-.37.074-.667.222-1.334.37-2 .075-.222.075-.445.149-.593.074-.444.222-.889.296-1.333.074-.222.148-.519.148-.74.074-.445.222-.816.297-1.26.074-.222.148-.519.222-.74.148-.445.296-.89.37-1.334.074-.222.148-.37.222-.593L4 36.444c.074-.222.148-.37.222-.592.148-.445.297-.815.519-1.26.074-.222.222-.444.296-.74.148-.37.296-.667.519-1.037.148-.222.222-.519.37-.74.148-.371.37-.668.518-1.038.149-.222.223-.444.37-.667l.89-1.555c-.667 2.444-.963 5.11-.963 7.926 0 9.63 4.074 16.963 12.148 21.926.444 8.666 2.963 15.481 7.26 19.852l-14.816 9.703z" transform="translate(48.889 34.074)"/>
                <path fill="url(#mzn7p96jzb)" d="M58.296 36.37c2.519 3.778 4.148 8.519 4.741 14.223 2.074.963 3.852 2.074 5.482 3.333 6 4.667 9.037 11.481 9.037 20.148 0 1.037-.075 2.074-.149 3.111v-.074c.297-.667.593-1.407.815-2.148.074-.222.148-.37.222-.593.149-.518.37-1.037.519-1.555.074-.222.148-.519.222-.74.074-.297.222-.668.296-.964.149-.444.223-.815.37-1.26.075-.295.149-.666.223-.962l.222-1.111c.074-.222.074-.519.148-.741.075-.518.223-1.111.297-1.63 0-.222.074-.444.074-.666l.222-1.778c0-.148 0-.222.074-.37.074-.593.148-1.112.148-1.704 0-.148 0-.296.074-.445.074-.666.074-1.333.148-2V58c0-.667.075-1.407.075-2.074 0-.74 0-1.482-.075-2.296 0-.223 0-.445-.074-.741 0-.519-.074-1.037-.074-1.482 0-.296-.074-.592-.074-.888-.074-.445-.074-.89-.148-1.334 0-.296-.074-.592-.148-.963-.074-.444-.074-.815-.148-1.259-.074-.296-.074-.667-.148-.963-.074-.37-.148-.815-.223-1.185-.074-.296-.148-.667-.222-.963L80 42.74c-.074-.297-.148-.667-.222-.963-.074-.37-.222-.741-.297-1.111-.074-.297-.148-.667-.296-.963-.074-.37-.222-.667-.296-1.037-.074-.297-.222-.667-.296-.963-.149-.37-.223-.667-.37-.963-.149-.297-.223-.667-.371-.963-.148-.297-.222-.667-.37-.963-.149-.296-.297-.667-.37-.963l-.445-.889c-.148-.296-.297-.593-.445-.963l-.444-.889c-.148-.296-.297-.592-.519-.889-.148-.296-.296-.592-.518-.815-.148-.296-.37-.592-.519-.888-.148-.297-.37-.519-.518-.815-.519-.815-1.111-1.63-1.704-2.445-.444-.592-.889-1.11-1.333-1.63L58.297 36.37z" transform="translate(48.889 34.074)"/>
            </g>
        </g>
    </g>
</svg>
