<svg width="75" height="87" viewBox="0 0 75 87" fill="none" xmlns="http://www.w3.org/2000/svg">
<path d="M73.99 1V65.1005L37.5576 86.1171L1.12524 65.1005V1H73.99Z" fill="#79F2A5" stroke="#2D505F" stroke-width="1.44"/>
<path d="M37.5579 2.05078L73.9903 23.0673V65.1005L37.5579 86.117L1.12549 65.1005V23.0673L37.5579 2.05078Z" fill="#3399D6" stroke="#2D505F" stroke-width="1.44"/>
<path d="M37.5579 2.05078L73.9903 65.1005L37.5579 86.117L1.12549 65.1005L37.5579 2.05078Z" fill="#40DCFF"/>
<path d="M2.02222 23.4634L73.4371 64.9185" stroke="#2D505F" stroke-width="1.44"/>
<path d="M73.4377 23.4634L2.02288 64.9185" stroke="#2D505F" stroke-width="1.44"/>
<path d="M37.73 2.9585V84.9406" stroke="#2D505F" stroke-width="1.44"/>
<path d="M37.5791 2.46436L1.87714 64.7269" stroke="#2D505F" stroke-width="1.44"/>
<path d="M37.4431 2.00586L73.4872 64.727" stroke="#2D505F" stroke-width="1.44"/>
<path d="M37.5579 2.05078L73.9903 23.0673V65.1005L37.5579 86.117L1.12549 65.1005V23.0673L37.5579 2.05078Z" stroke="#2D505F" stroke-width="1.44"/>
</svg>
