<svg xmlns="http://www.w3.org/2000/svg" width="787" height="469" viewBox="0 0 787 469">
    <g fill="none" fill-rule="evenodd">
        <g>
            <g>
                <path stroke="#FAFBFC" stroke-width=".5" d="M744 225.5L68 225.5M744 319.5L68 319.5M744 131.5L68 131.5M744 37.5L68 37.5" opacity=".3" transform="translate(-317 -3175) translate(317 3170)"/>
                <text fill="#FAFBFC" font-family="Lato-Regular, Lato" font-size="16" transform="translate(-317 -3175) translate(317 3170)">
                    <tspan x="756" y="77">15%</tspan>
                </text>
                <text fill="#FAFBFC" font-family="Lato-Regular, Lato" font-size="16" transform="translate(-317 -3175) translate(317 3170)">
                    <tspan x="756" y="178">14%</tspan>
                </text>
                <text fill="#FAFBFC" font-family="Lato-Regular, Lato" font-size="16" transform="translate(-317 -3175) translate(317 3170)">
                    <tspan x="756" y="249">13%</tspan>
                </text>
                <text fill="#FAFBFC" font-family="Lato-Regular, Lato" font-size="12" opacity=".7" transform="translate(-317 -3175) translate(317 3170)">
                    <tspan x="11" y="230">$15M</tspan>
                </text>
                <text fill="#FAFBFC" font-family="Lato-Regular, Lato" font-size="12" opacity=".7" transform="translate(-317 -3175) translate(317 3170)">
                    <tspan x="0" y="136">$22.5M</tspan>
                </text>
                <text fill="#FAFBFC" font-family="Lato-Regular, Lato" font-size="12" opacity=".7" transform="translate(-317 -3175) translate(317 3170)">
                    <tspan x="8" y="324">$7.5M</tspan>
                </text>
                <text fill="#FAFBFC" font-family="Lato-Regular, Lato" font-size="12" opacity=".7" transform="translate(-317 -3175) translate(317 3170)">
                    <tspan x="33" y="418">$0</tspan>
                </text>
                <text fill="#FAFBFC" font-family="Lato-Regular, Lato" font-size="12" opacity=".7" transform="translate(-317 -3175) translate(317 3170)">
                    <tspan x="11" y="43">$30M</tspan>
                </text>
                <text fill="#FFF" font-family="Lato-Regular, Lato" font-size="16" opacity=".8" transform="translate(-317 -3175) translate(317 3170)">
                    <tspan x="251.192" y="16">Growth of $100K at Different Annual Rates</tspan>
                </text>
                <text fill="#FAFBFC" font-family="Lato-Regular, Lato" font-size="16" transform="translate(-317 -3175) translate(317 3170)">
                    <tspan x="756" y="299">12%</tspan>
                </text>
                <text fill="#FAFBFC" font-family="Lato-Regular, Lato" font-size="16" transform="translate(-317 -3175) translate(317 3170)">
                    <tspan x="756" y="335">11%</tspan>
                </text>
                <text fill="#FAFBFC" font-family="Lato-Regular, Lato" font-size="16" transform="translate(-317 -3175) translate(317 3170)">
                    <tspan x="756" y="359">10%</tspan>
                </text>
                <text fill="#FAFBFC" font-family="Lato-Regular, Lato" font-size="16" transform="translate(-317 -3175) translate(317 3170)">
                    <tspan x="756" y="379">9%</tspan>
                </text>
                <text fill="#FAFBFC" font-family="Lato-Regular, Lato" font-size="16" transform="translate(-317 -3175) translate(317 3170)">
                    <tspan x="756" y="421">1%</tspan>
                </text>
                <text fill="#FAFBFC" font-family="Lato-Regular, Lato" font-size="12" opacity=".7" transform="translate(-317 -3175) translate(317 3170)">
                    <tspan x="63" y="445">0</tspan>
                </text>
                <text fill="#FAFBFC" font-family="Lato-Regular, Lato" font-size="12" opacity=".7" transform="translate(-317 -3175) translate(317 3170)">
                    <tspan x="396" y="445">20</tspan>
                </text>
                <text fill="#FFF" font-family="Lato-Regular, Lato" font-size="12" opacity=".8" transform="translate(-317 -3175) translate(317 3170)">
                    <tspan x="391.102" y="468">Year</tspan>
                </text>
                <text fill="#FAFBFC" font-family="Lato-Regular, Lato" font-size="12" opacity=".7" transform="translate(-317 -3175) translate(317 3170)">
                    <tspan x="564" y="445">30</tspan>
                </text>
                <text fill="#FAFBFC" font-family="Lato-Regular, Lato" font-size="12" opacity=".7" transform="translate(-317 -3175) translate(317 3170)">
                    <tspan x="228" y="445">10</tspan>
                </text>
                <text fill="#FAFBFC" font-family="Lato-Regular, Lato" font-size="12" opacity=".7" transform="translate(-317 -3175) translate(317 3170)">
                    <tspan x="733" y="445">40</tspan>
                </text>
                <path stroke="#FFF" stroke-width=".5" d="M68 412.85C597 417.545 646 312.655 744 70M68 412.975C582 414.54 628 343.342 744 172M68 411.973c514 1.56 582-63.935 676-169.973M68 413.963C582 415.533 641 367.62 744 293M68 414c438.3 0 551.7-22.53 676-84M68 414c438.3 0 546.3-17.857 676-59M68 413c438.3 0 545-15.77 676-41M68 414c438.3 0 544.3-13.262 676-27M68 413c438.3 0 543.7-8.374 676-18M68 414c438.3 0 544-4.875 676-13M68 413c438.3 0 544-3.15 676-7M68 413c438.3 0 543.7-1.6 676-4M744 413.5L68 413.5" transform="translate(-317 -3175) translate(317 3170)"/>
            </g>
        </g>
    </g>
</svg>
