<svg width="144" height="32" viewBox="0 0 144 32" fill="none" xmlns="http://www.w3.org/2000/svg">
<path d="M140.776 18.1725C140.776 16.3031 139.674 14.8891 137.924 14.8891C136.175 14.8891 135.072 16.3031 135.072 18.1725C135.072 20.0418 136.175 21.4558 137.924 21.4558C139.674 21.4558 140.776 20.0418 140.776 18.1725ZM140.68 13.6429V8.72987C140.68 8.39434 140.896 8.13072 141.208 8.03486L143.796 7.33984V23.9243H140.92V22.5103C140.201 23.5648 138.883 24.1879 137.253 24.1879C133.898 24.1879 131.957 21.5037 131.957 18.1485C131.957 14.7933 133.922 12.1091 137.253 12.1091C138.907 12.133 140.081 12.8281 140.68 13.6429ZM122.946 12.3967V13.8107C123.473 12.8281 124.671 12.133 126.373 12.133C129.153 12.133 130.615 13.9784 130.615 16.7345V23.9483H127.499V17.094C127.499 15.7519 126.924 14.8172 125.534 14.8172C124.024 14.8172 123.185 15.7759 123.185 17.3337V23.9483H120.07V12.4206H122.946V12.3967ZM112.76 24.2119C109.381 24.2119 107.511 22.75 107.511 19.0113V12.3967H110.627V19.0592C110.627 20.6649 111.346 21.4079 112.736 21.4079C114.126 21.4079 114.845 20.6649 114.845 19.0592V12.3967H117.961V19.0113C117.985 22.75 116.115 24.2119 112.76 24.2119ZM97.1821 18.1725C97.1821 20.2335 98.4523 21.4558 100.106 21.4558C101.76 21.4558 103.03 20.2335 103.03 18.1725C103.03 16.1114 101.76 14.8891 100.106 14.8891C98.4763 14.8891 97.1821 16.0874 97.1821 18.1725ZM100.106 24.2119C96.4152 24.2119 94.0426 21.4558 94.0426 18.1725C94.0426 14.8891 96.3912 12.133 100.106 12.133C103.797 12.133 106.169 14.8891 106.169 18.1725C106.169 21.4558 103.821 24.2119 100.106 24.2119ZM84.5281 18.1725C84.5281 20.0418 85.6305 21.4558 87.38 21.4558C89.1295 21.4558 90.232 20.0418 90.232 18.1725C90.232 16.3031 89.1295 14.8891 87.38 14.8891C85.6305 14.8891 84.5281 16.3031 84.5281 18.1725ZM84.6239 22.702V27.4952C84.6239 27.8308 84.4082 28.0944 84.0967 28.1902L81.5084 28.8613V12.3967H84.3843V13.8107C85.1032 12.7562 86.4214 12.133 88.0511 12.133C91.4063 12.133 93.3475 14.8172 93.3475 18.1725C93.3475 21.5277 91.3823 24.2119 88.0511 24.2119C86.3974 24.2119 85.2231 23.4929 84.6239 22.702ZM72.2095 17.3816V23.9483H69.094V17.094C69.094 15.8238 68.6386 14.8172 67.2486 14.8172C65.7867 14.8172 64.9958 15.7519 64.9958 17.3097V23.9483H61.8802V12.3967H64.7561V13.8107C65.2834 12.8281 66.4337 12.133 68.0874 12.133C69.6452 12.133 70.7716 12.7562 71.4426 13.7627C72.4492 12.6363 73.6235 12.133 75.2772 12.133C78.0572 12.133 79.4712 14.0503 79.4712 16.7345V23.9483H76.3557V17.094C76.3557 15.8238 75.9003 14.8172 74.5103 14.8172C72.9765 14.8172 72.2095 15.7759 72.2095 17.3816ZM51.431 18.1725C51.431 20.2335 52.7012 21.4558 54.3549 21.4558C56.0085 21.4558 57.2787 20.2335 57.2787 18.1725C57.2787 16.1114 56.0085 14.8891 54.3549 14.8891C52.7012 14.8891 51.431 16.0874 51.431 18.1725ZM54.3549 24.2119C50.6641 24.2119 48.2915 21.4558 48.2915 18.1725C48.2915 14.8891 50.6402 12.133 54.3549 12.133C58.0696 12.133 60.4183 14.8891 60.4183 18.1725C60.4183 21.4558 58.0457 24.2119 54.3549 24.2119ZM32.0665 16.0874C32.0665 11.1984 35.4457 7.96296 39.9274 7.96296C43.8338 7.96296 46.9015 10.2637 47.5006 14.0743H44.0735C43.6181 12.1091 42.0364 11.0066 39.9274 11.0066C37.0754 11.0066 35.4457 12.9958 35.4457 16.0635C35.4457 19.1551 37.0515 21.1203 39.9274 21.1203C42.0124 21.1203 43.5942 20.0178 44.0735 18.0526H47.5006C46.9015 21.8632 43.8338 24.164 39.9274 24.164C35.4457 24.2359 32.0665 20.9765 32.0665 16.0874Z" fill="white"/>
<path d="M1.29416 24.9069C0.503286 24.4276 0 23.5408 0 22.6301V17.4295C0 17.2378 0.0479321 17.0461 0.143796 16.8783C0.455354 16.3511 1.15037 16.1593 1.67762 16.4709L13.4209 23.3252C14.116 23.7326 14.5234 24.4516 14.5234 25.2664V30.6587C14.5234 30.8984 14.4515 31.1381 14.3317 31.3538C13.9482 31.9769 13.1094 32.1926 12.4863 31.8091L1.29416 24.9069ZM18.8133 15.0329C19.5083 15.4404 19.9157 16.1593 19.9157 16.9742V27.9266C19.9157 28.2621 19.748 28.5497 19.4604 28.7175L16.896 30.1555C16.872 30.1794 16.8241 30.1794 16.8002 30.2034V24.14C16.8002 23.3491 16.3927 22.6301 15.7217 22.2227L5.41631 16.0635V9.1373C5.41631 8.94557 5.46424 8.75385 5.56011 8.58608C5.87167 8.05883 6.56668 7.8671 7.09393 8.17866L18.8133 15.0329ZM23.942 6.93243C24.637 7.33985 25.0444 8.05883 25.0444 8.87367V24.859C25.0444 25.1945 24.8527 25.4821 24.5651 25.6499L22.1206 26.968V15.8478C22.1206 15.0569 21.7132 14.3379 21.0421 13.9305L10.4971 7.60348V1.1087C10.4971 0.916967 10.545 0.725242 10.6409 0.557481C10.9525 0.0302291 11.6475 -0.161502 12.1747 0.150056L23.942 6.93243Z" fill="#00D395"/>
</svg>
