<svg xmlns="http://www.w3.org/2000/svg" width="150" height="34" viewBox="0 0 150 34">
    <g fill="none" fill-rule="evenodd">
        <path fill="#000" d="M33.45 16.782c0-5.1 3.525-8.475 8.2-8.475 4.075 0 7.275 2.4 7.9 6.375h-3.575c-.475-2.05-2.125-3.2-4.325-3.2-2.975 0-4.675 2.075-4.675 5.275 0 3.225 1.675 5.275 4.675 5.275 2.175 0 3.825-1.15 4.325-3.2h3.575c-.625 3.975-3.825 6.375-7.9 6.375-4.675.075-8.2-3.325-8.2-8.425zm23.25 8.475c-3.85 0-6.325-2.875-6.325-6.3s2.45-6.3 6.325-6.3 6.325 2.875 6.325 6.3-2.475 6.3-6.325 6.3zm-3.05-6.3c0 2.15 1.325 3.425 3.05 3.425 1.725 0 3.05-1.275 3.05-3.425s-1.325-3.425-3.05-3.425c-1.725 0-3.05 1.25-3.05 3.425zm21.675-.825v6.85h-3.25v-7.15c0-1.325-.475-2.375-1.925-2.375-1.525 0-2.35.975-2.35 2.6v6.925h-3.25v-12.05h3v1.475c.55-1.025 1.75-1.75 3.475-1.75 1.625 0 2.8.65 3.5 1.7 1.05-1.175 2.275-1.7 4-1.7 2.9 0 4.375 2 4.375 4.8v7.525h-3.25v-7.15c0-1.325-.475-2.375-1.925-2.375-1.6 0-2.4 1-2.4 2.675zm12.95 5.55v5c0 .35-.225.625-.55.725l-2.7.7V12.932h3v1.475c.75-1.1 2.125-1.75 3.825-1.75 3.5 0 5.525 2.8 5.525 6.3s-2.05 6.3-5.525 6.3c-1.725 0-2.95-.75-3.575-1.575zm-.1-4.725c0 1.95 1.15 3.425 2.975 3.425 1.825 0 2.975-1.475 2.975-3.425 0-1.95-1.15-3.425-2.975-3.425-1.825 0-2.975 1.475-2.975 3.425zm16.25 6.3c-3.85 0-6.325-2.875-6.325-6.3s2.45-6.3 6.325-6.3c3.85 0 6.325 2.875 6.325 6.3s-2.45 6.3-6.325 6.3zm-3.05-6.3c0 2.15 1.325 3.425 3.05 3.425 1.725 0 3.05-1.275 3.05-3.425s-1.325-3.425-3.05-3.425c-1.7 0-3.05 1.25-3.05 3.425zm16.25 6.3c-3.525 0-5.475-1.525-5.475-5.425v-6.9h3.25v6.95c0 1.675.75 2.45 2.2 2.45 1.45 0 2.2-.775 2.2-2.45v-6.95h3.25v6.9c.025 3.9-1.925 5.425-5.425 5.425zm10.625-12.325v1.475c.55-1.025 1.8-1.75 3.575-1.75 2.9 0 4.425 1.925 4.425 4.8v7.525H133v-7.15c0-1.4-.6-2.375-2.05-2.375-1.575 0-2.45 1-2.45 2.625v6.9h-3.25V12.957h3v-.025zm18.5 1.3V9.107c0-.35.225-.625.55-.725l2.7-.725v17.3h-3v-1.475c-.75 1.1-2.125 1.75-3.825 1.75-3.5 0-5.525-2.8-5.525-6.3s2.05-6.3 5.525-6.3c1.725.025 2.95.75 3.575 1.6zm.1 4.725c0-1.95-1.15-3.425-2.975-3.425-1.825 0-2.975 1.475-2.975 3.425 0 1.95 1.15 3.425 2.975 3.425 1.825 0 2.975-1.475 2.975-3.425z"/>
        <path fill="#00D395" d="M24.975 7.232c.725.425 1.15 1.175 1.15 2.025v16.675c0 .35-.2.65-.5.825l-2.55 1.375v-11.6c0-.825-.425-1.575-1.125-2l-11-6.6V1.157c0-.2.05-.4.15-.575.325-.55 1.05-.75 1.6-.425l12.275 7.075zm-5.35 8.45c.725.425 1.15 1.175 1.15 2.025v11.425c0 .35-.175.65-.475.825l-2.675 1.5c-.025.025-.075.025-.1.05v-6.325c0-.825-.425-1.575-1.125-2L5.65 16.757V9.532c0-.2.05-.4.15-.575.325-.55 1.05-.75 1.6-.425l12.225 7.15zM1.35 25.982C.525 25.482 0 24.557 0 23.607v-5.425c0-.2.05-.4.15-.575.325-.55 1.05-.75 1.6-.425L14 24.332c.725.425 1.15 1.175 1.15 2.025v5.625c0 .25-.075.5-.2.725-.4.65-1.275.875-1.925.475l-11.675-7.2z"/>
    </g>
</svg>
