<svg xmlns="http://www.w3.org/2000/svg" width="120" height="62" viewBox="0 0 120 62">
    <defs>
        <linearGradient id="l17t8jk0sa" x1="50.898%" x2="41.036%" y1="79.568%" y2="-11.87%">
            <stop offset=".058%" stop-color="#FFF"/>
            <stop offset="100%" stop-color="#1E313F"/>
        </linearGradient>
        <linearGradient id="jepkesbqdb" x1="48.094%" x2="58.005%" y1="17.958%" y2="112.287%">
            <stop offset=".058%" stop-color="#FFF"/>
            <stop offset="99.67%" stop-color="#4E5A64"/>
        </linearGradient>
    </defs>
    <g fill="none">
        <circle cx="30.45" cy="30.75" r="30" stroke="#FFF" stroke-width=".809" opacity=".1"/>
        <circle cx="45.45" cy="30.75" r="30" stroke="#FFF" stroke-width=".809" opacity=".3"/>
        <circle cx="60.45" cy="30.75" r="30" stroke="#FFF" stroke-width=".809" opacity=".5"/>
        <circle cx="75" cy="30.3" r="29.55" stroke="#FFF" stroke-width=".809" opacity=".7"/>
        <g transform="translate(60)">
            <circle cx="29.951" cy="30.05" r="29.729" fill="#1E313F" transform="rotate(-.192 29.951 30.05)"/>
            <path fill="#FFF" d="M48.543 48.519c10.198-10.272 10.148-26.84-.123-37.038-10.272-10.197-26.84-10.148-37.037.124l37.16 36.914z" opacity=".2"/>
            <g>
                <path fill="#FAFBFC" d="M16.444 16.025c-.296-.05-.567-.124-.84-.173-3.653-.74-6.295-1.26-6.295-3.803 0-1.58 1.555-2.84 4.345-2.84 2.494 0 4.47 1.013 5.753 2.914l.198.05 3.975-4.074-.024-.148c-1.58-1.877-3.58-3.186-5.877-3.877-.321-.099-.617-.173-.938-.247h-.025c-.123-.025-.222-.05-.346-.074V.148h-5.432v3.605c-.173.025-.345.074-.518.099h-.025c-2.568.617-4.815 1.95-6.568 4-.74 1.234-1.111 2.716-1.111 4.42 0 5.827 4.395 7.679 8.691 8.716.79.197 1.58.345 2.346.469 2.691.494 5.012.913 5.012 3.333 0 1.506-1.654 3.383-5.11 3.383-2.05 0-3.73-.692-4.964-1.95-.074-.075-.172-.149-.247-.223l-4.69 3.26v.172c.666.79 1.406 1.482 2.197 2.074.271.198.543.37.814.543h.025c.272.173.568.321.84.47 0 0 .024 0 .024.024.297.148.568.272.865.395.024 0 .024 0 .049.025.296.123.592.222.889.321.024 0 .05 0 .05.025.147.049.27.074.419.123h.05c.147.05.296.074.468.124.025 0 .05 0 .075.024.123.025.271.05.395.074v3.605h5.432v-3.605c.098-.024.197-.024.296-.05h.05c.37-.073.74-.172 1.11-.295.173-.05.37-.124.544-.173 2-.74 3.753-1.976 5.185-3.655.543-.641 1.012-1.308 1.432-2.049.222-.79.321-1.679.321-2.617.025-6.272-4.716-7.975-8.84-8.79z" transform="translate(16.296 11.358)"/>
                <path fill="url(#l17t8jk0sa)" d="M3.778 29.407c-.272-.32-.519-.642-.741-.987-.099-.148-.197-.297-.296-.42-.025-.025-.05-.074-.074-.099-.074-.123-.173-.271-.247-.42l-.074-.148c-.074-.123-.148-.271-.223-.395l-.074-.148c-.074-.123-.148-.271-.197-.42-.025-.049-.05-.123-.074-.172-.074-.149-.124-.272-.198-.42-.024-.05-.05-.099-.074-.173-.05-.148-.123-.296-.173-.445 0-.024-.024-.074-.024-.098-.124-.346-.247-.692-.346-1.037 0-.025-.025-.05-.025-.1-.024-.123-.074-.246-.098-.37l-.075-.296c-.024-.123-.049-.222-.074-.345-.024-.1-.049-.223-.074-.321-.024-.124-.05-.223-.074-.346l-.074-.37c-.025-.1-.025-.223-.05-.321-.024-.124-.049-.247-.049-.396-.024-.098-.024-.197-.049-.32-.025-.149-.025-.272-.05-.42 0-.099-.024-.198-.024-.297 0-.172-.025-.32-.025-.493 0-.074 0-.149-.024-.247 0-.247-.025-.494-.025-.741s0-.47.025-.716v-.222c0-.173.024-.321.024-.494 0-.074.025-.173.025-.247.025-.148.025-.321.05-.47 0-.073.024-.147.024-.221.025-.198.05-.37.074-.544 0-.049 0-.098.025-.123.024-.222.074-.445.123-.667.025-.074.025-.148.05-.197.024-.148.074-.297.098-.445.025-.074.05-.173.05-.247.024-.148.074-.271.099-.42.024-.073.049-.172.074-.246.049-.148.098-.297.123-.445.025-.074.05-.123.074-.197l.222-.593c.025-.074.05-.123.074-.197.05-.149.1-.272.173-.42.025-.074.074-.148.099-.247.05-.124.099-.222.173-.346.05-.074.074-.173.123-.247.05-.123.124-.222.173-.345.05-.074.074-.148.124-.223l.296-.518c-.222.815-.321 1.704-.321 2.642 0 3.21 1.358 5.654 4.05 7.309.147 2.888.987 5.16 2.419 6.617l-4.938 3.234z" transform="translate(16.296 11.358)"/>
                <path fill="url(#jepkesbqdb)" d="M19.432 12.123c.84 1.26 1.383 2.84 1.58 4.741.692.321 1.284.692 1.828 1.111 2 1.556 3.012 3.827 3.012 6.716 0 .346-.025.692-.05 1.037v-.024c.1-.223.198-.47.272-.716.025-.074.05-.124.074-.198.05-.173.124-.346.173-.518.025-.074.05-.173.074-.247.025-.1.074-.223.099-.321.05-.148.074-.272.123-.42.025-.099.05-.222.074-.321l.074-.37c.025-.074.025-.173.05-.247.025-.173.074-.37.099-.544 0-.074.024-.148.024-.222l.074-.592c0-.05 0-.074.025-.124.025-.197.05-.37.05-.568 0-.05 0-.098.024-.148.025-.222.025-.444.05-.667v-.148c0-.222.024-.469.024-.691 0-.247 0-.494-.025-.765 0-.075 0-.149-.024-.247 0-.173-.025-.346-.025-.494 0-.099-.025-.198-.025-.296-.024-.149-.024-.297-.049-.445 0-.099-.025-.197-.05-.32-.024-.15-.024-.273-.049-.42-.024-.1-.024-.223-.05-.322-.024-.123-.048-.271-.073-.395-.025-.098-.05-.222-.074-.32l-.074-.371c-.025-.099-.05-.222-.074-.321-.025-.124-.074-.247-.1-.37-.024-.1-.049-.223-.098-.321-.025-.124-.074-.223-.099-.346-.024-.099-.074-.222-.098-.321-.05-.124-.075-.222-.124-.321-.05-.099-.074-.222-.123-.321-.05-.099-.074-.222-.124-.321s-.099-.222-.123-.321l-.148-.296c-.05-.1-.1-.198-.149-.321l-.148-.297c-.05-.098-.099-.197-.173-.296-.049-.099-.098-.197-.172-.272-.05-.098-.124-.197-.173-.296-.05-.099-.124-.173-.173-.271-.173-.272-.37-.544-.568-.815-.148-.198-.296-.37-.444-.543l-4.124 4.246z" transform="translate(16.296 11.358)"/>
            </g>
        </g>
    </g>
</svg>
