<svg width="256" height="32" viewBox="0 0 256 32" fill="none" xmlns="http://www.w3.org/2000/svg">
<path d="M143.741 5.99679V1.31519H137.13V3.26079H135.197V9.06879H132.298V12.7712H135.197V29.2192H139.878V12.7712H143.744V9.07199H139.878V5.99679H143.741ZM139.475 9.87519H142.938V11.9712H139.475H139.075V12.3712V28.4192H136V11.968H133.101V9.87199H136V4.06399H137.53H137.93V3.66399V2.11839H142.934V5.19359H139.472H139.072V5.59359V9.47198V9.87199H139.475V9.87519Z" fill="white"/>
<path d="M145.862 2.29443V6.96003H150.528V2.29443H145.862ZM149.728 6.16003H146.666V3.09763H149.728V6.16003Z" fill="white"/>
<path d="M145.862 9.07202V29.2224H150.528V9.07202H145.862ZM149.728 28.4192H146.666V9.87522H149.728V28.4192Z" fill="white"/>
<path d="M168.912 12.9344V11.0016H166.966V9.06885H159.389V11.0016H158.259V9.06885H153.594V29.2192H158.259V15.6704H160.192V13.7376H164.234V15.6704H166.166V29.2224H170.848V12.9344H168.912ZM170.042 28.4192H166.966V14.8672H165.034V12.9344H159.389V14.8672H157.456V28.4192H154.394V9.87525H157.456V11.808H160.192V9.87525H166.163V11.808H168.109V13.7408H170.042V28.4192Z" fill="white"/>
<path d="M190.205 12.9344V11.0016H188.272V9.06885H177.782V11.0016H175.85V12.9344H173.917V15.6704H180.515V13.7376H185.52V15.6704H187.466V16.8128H179.712V18.7456H175.846V20.6784H173.914V25.36H175.846V27.2928H177.779V29.2256H186.323V27.2928H187.466V29.2256H192.131V12.9344H190.205ZM191.331 28.4192H188.269V26.4864H185.52V28.4192H178.582V26.4864H176.65V24.5536H174.72V21.4784H176.653V19.5456H180.518V17.6128H188.272V14.864H186.326V12.9312H179.712V14.864H174.72V13.7344H176.653V11.8016H178.586V9.86885H187.469V11.8016H189.402V13.7344H191.334V28.4192H191.331Z" fill="white"/>
<path d="M185.523 18.7456V20.6784H178.749V25.36H186.326V23.424H188.272V18.7456H185.523ZM187.469 22.6208H185.523V24.5536H179.552V21.4784H186.326V19.5456H187.469V22.6208Z" fill="white"/>
<path d="M210.515 12.9344V11.0016H208.57V9.06885H200.992V11.0016H199.862V9.06885H195.197V29.2192H199.862V15.6704H201.795V13.7376H205.837V15.6704H207.77V29.2224H212.451V12.9344H210.515ZM211.645 28.4192H208.57V14.8672H206.637V12.9344H200.992V14.8672H199.059V28.4192H195.997V9.87525H199.059V11.808H201.795V9.87525H207.766V11.808H209.712V13.7408H211.645V28.4192Z" fill="white"/>
<path d="M231.808 12.9344V11.0016H229.875V9.06885H219.386V11.0016H217.453V12.9344H215.52V25.3568H217.453V27.2896H219.386V29.2224H229.875V27.2896H231.808V25.3568H233.741V20.6752H229.075V22.6208H227.13V24.5536H222.125V22.6208H220.192V15.6704H222.125V13.7376H227.13V15.6704H229.075V17.616H233.741V12.9344H231.808ZM232.938 16.8128H229.875V14.8672H227.93V12.9344H221.318V14.8672H219.386V23.424H221.318V25.3568H227.93V23.424H229.875V21.4784H232.938V24.5536H231.005V26.4864H229.072V28.4192H220.189V26.4864H218.256V24.5536H216.323V13.7376H218.256V11.8048H220.189V9.87205H229.072V11.8048H231.005V13.7376H232.938V16.8128Z" fill="white"/>
<path d="M253.088 12.9344V11.0016H251.155V9.06885H240.666V11.0016H238.733V12.9344H236.8V25.3568H238.733V27.2896H240.666V29.2224H251.155V27.2896H253.088V25.3568H255.021V22.6208H248.41V24.5536H243.405V22.6208H241.472V20.512H255.024V12.9344H253.088ZM254.218 19.7088H240.666V23.424H242.598V25.3568H249.21V23.424H254.214V24.5536H252.282V26.4864H250.349V28.4192H241.466V26.4864H239.533V24.5536H237.6V13.7376H239.533V11.8048H241.466V9.87205H250.349V11.8048H252.282V13.7376H254.214V19.7088H254.218Z" fill="white"/>
<path d="M249.21 14.8671V12.9343H242.598V14.8671H240.666V17.6159H251.155V14.8671H249.21ZM250.352 16.8127H241.469V15.6703H243.402V13.7375H248.406V15.6703H250.352V16.8127Z" fill="white"/>
<path d="M20.2624 16.6304V11.6H17.7472V9.08478H12.7232V6.56958H7.70238V9.08478H2.67838V11.6H0.166382V26.6912H2.67838V29.2064H7.69918V31.7216H12.7232V29.2064H17.7472V26.6912H20.2624V21.6608H15.2352V24.1696H12.7232V26.6848H7.70238V24.1696H5.19038V14.1152H7.70238V11.6H12.7232V14.1152H15.2352V16.6304H20.2624Z" fill="white"/>
<path d="M33.872 9.07202C39.6608 9.07202 43.8368 13.1616 43.8368 19.168C43.8368 25.1744 39.6768 29.2192 33.872 29.2192C28.0672 29.2192 23.952 25.1296 23.952 19.168C23.952 13.2064 28.128 9.07202 33.872 9.07202ZM33.872 12.7712C30.6528 12.7712 28.3008 15.2512 28.3008 19.1712C28.3008 23.0912 30.6528 25.5232 33.872 25.5232C37.1808 25.5232 39.4848 23.0432 39.4848 19.1712C39.4848 15.2992 37.1808 12.7712 33.872 12.7712Z" fill="white"/>
<path d="M47.36 10.7296C50.1856 9.66717 53.1776 9.10717 56.1952 9.07837C61.1136 9.07837 64.2464 10.9472 64.2464 16.3872V28.784H59.9808V16.7744C59.9808 13.9872 58.24 12.9888 55.8464 12.9888C54.4352 12.9792 53.0272 13.168 51.6672 13.552V28.784H47.36V10.7296Z" fill="white"/>
<path d="M74.4288 28.7839L66.9888 9.50708H71.5584L76.9984 24.6079L82.4064 9.50708H86.8448L79.3472 28.7839H74.4288Z" fill="white"/>
<path d="M92.5344 20.1247V20.2111C92.7936 23.6511 95.7536 25.5199 98.7584 25.5199C101.411 25.5199 103.328 24.9119 105.242 23.6511V27.4367C103.501 28.6559 100.934 29.2191 98.4544 29.2191C92.448 29.2191 88.3552 25.3791 88.3552 19.2991C88.3552 13.2191 92.3616 9.05908 97.6704 9.05908C103.283 9.05908 105.939 12.6687 105.939 17.9359V20.1119L92.5344 20.1247ZM92.6656 17.3407H101.891C101.805 14.3359 100.323 12.6815 97.5392 12.6815C95.0592 12.6815 93.232 14.4223 92.6656 17.3407Z" fill="white"/>
<path d="M120.448 18.8639L127.587 28.7839H122.669L117.926 22.0383L113.181 28.7839H108.48L115.619 18.9055L108.899 9.50708H113.862L118.125 15.6863L122.32 9.50708H127.206L120.448 18.8639Z" fill="white"/>
</svg>
