<svg width="28" height="28" viewBox="0 0 28 28" fill="none" xmlns="http://www.w3.org/2000/svg">
<path d="M8.45283 17.2308C13.1212 17.2308 16.9057 13.3735 16.9057 8.61539C16.9057 3.85724 13.1212 0 8.45283 0C3.78446 0 0 3.85724 0 8.61539C0 13.3735 3.78446 17.2308 8.45283 17.2308Z" fill="#F4B731"/>
<path fill-rule="evenodd" clip-rule="evenodd" d="M4.90094 4.30762H8.36238C10.4677 4.30762 12.0637 5.447 12.6575 7.10439H13.7357V8.10646H12.8846C12.901 8.26477 12.9095 8.42631 12.9095 8.59V8.61477C12.9095 8.79892 12.8989 8.98093 12.8778 9.15862H13.7357V10.1602H12.6369C12.0277 11.7949 10.4444 12.923 8.3629 12.923H4.90094V10.1602H3.698V9.15862H4.90094V8.10646H3.698V7.10492H4.90094V4.30762V4.30762ZM5.86826 10.1602V12.0243H8.36185C9.90132 12.0243 11.0446 11.2775 11.5766 10.1602H5.86826V10.1602ZM11.8729 9.15862H5.86826V8.10646H11.8751C11.8967 8.27177 11.9083 8.44139 11.9083 8.61477V8.639C11.9083 8.81616 11.8962 8.989 11.8729 9.15808V9.15862ZM8.3629 5.20416C9.90872 5.20416 11.0557 5.97092 11.5845 7.10385H5.86826V5.20469H8.36185L8.3629 5.20416Z" fill="white"/>
<path d="M19.5471 17.2308C24.2154 17.2308 27.9999 13.3735 27.9999 8.61539C27.9999 3.85724 24.2154 0 19.5471 0C14.8787 0 11.0942 3.85724 11.0942 8.61539C11.0942 13.3735 14.8787 17.2308 19.5471 17.2308Z" fill="#3E73C4"/>
<path d="M21.6718 9.75904C21.6718 8.61535 20.9956 8.22335 19.6432 8.05966C18.6774 7.92881 18.4846 7.66766 18.4846 7.20997C18.4846 6.75227 18.8069 6.45827 19.4503 6.45827C20.0299 6.45827 20.3521 6.65427 20.5127 7.14481C20.5295 7.19224 20.5601 7.23331 20.6004 7.26248C20.6407 7.29165 20.6889 7.30753 20.7383 7.30797H21.2534C21.2832 7.30877 21.3128 7.30342 21.3404 7.29222C21.3681 7.28102 21.3932 7.26421 21.4143 7.24281C21.4354 7.22141 21.452 7.19587 21.4631 7.16773C21.4743 7.13959 21.4797 7.10945 21.479 7.07912V7.04681C21.4161 6.69191 21.2399 6.36814 20.9778 6.12578C20.7158 5.88343 20.3825 5.73606 20.0299 5.70658V4.92258C20.0299 4.79173 19.9332 4.69373 19.7726 4.66089H19.2892C19.1608 4.66089 19.0641 4.75889 19.0319 4.92258V5.67427C18.0656 5.80458 17.4544 6.45827 17.4544 7.27566C17.4544 8.35366 18.0979 8.7785 19.4503 8.9422C20.3521 9.10535 20.6416 9.30189 20.6416 9.82473C20.6416 10.347 20.191 10.7067 19.5792 10.7067C18.7419 10.7067 18.4524 10.3476 18.3557 9.85704C18.324 9.72673 18.2268 9.66104 18.1301 9.66104H17.5828C17.5531 9.66031 17.5235 9.66572 17.4959 9.67695C17.4683 9.68819 17.4433 9.70501 17.4222 9.7264C17.4012 9.74779 17.3846 9.77331 17.3735 9.80141C17.3624 9.82951 17.3571 9.85961 17.3577 9.88989V9.9222C17.4861 10.7396 18.0017 11.3276 19.0641 11.4913V12.2758C19.0641 12.4061 19.1608 12.5047 19.3214 12.537H19.8048C19.9332 12.537 20.0299 12.439 20.0621 12.2758V11.4907C21.0284 11.3276 21.6718 10.641 21.6718 9.7585V9.75904Z" fill="white"/>
<path d="M17.9051 13.1906C15.3935 12.2752 14.1055 9.43212 15.0396 6.91589C15.5224 5.54281 16.5849 4.49766 17.9051 4.00712C18.034 3.94196 18.0979 3.84396 18.0979 3.68027V3.22258C18.0979 3.09227 18.034 2.99427 17.9051 2.96143C17.8729 2.96143 17.8084 2.96143 17.7762 2.99373C17.0516 3.22437 16.3789 3.59882 15.7968 4.09552C15.2148 4.59222 14.7349 5.20136 14.3848 5.88787C14.0347 6.57438 13.8213 7.3247 13.7569 8.09562C13.6924 8.86654 13.7782 9.64283 14.0094 10.3798C14.5884 12.2106 15.9731 13.616 17.7762 14.204C17.9051 14.2691 18.034 14.204 18.0657 14.0731C18.0979 14.0408 18.0979 14.0074 18.0979 13.9423V13.4846C18.0979 13.3866 18.0018 13.2563 17.9051 13.1906V13.1906ZM21.3179 2.99427C21.189 2.92858 21.0601 2.99427 21.0284 3.12458C20.9962 3.15743 20.9962 3.19027 20.9962 3.25543V3.71312C20.9962 3.84396 21.0923 3.97427 21.189 4.03996C23.7005 4.95535 24.9885 7.79843 24.0545 10.3147C23.5716 11.6877 22.5092 12.7329 21.189 13.2234C21.0601 13.2886 20.9962 13.3866 20.9962 13.5503V14.008C20.9962 14.1383 21.0601 14.2363 21.189 14.2691C21.2212 14.2691 21.2857 14.2691 21.3179 14.2368C22.0425 14.0062 22.7152 13.6317 23.2972 13.135C23.8793 12.6383 24.3592 12.0292 24.7093 11.3427C25.0594 10.6562 25.2728 9.90585 25.3372 9.13493C25.4017 8.36401 25.3158 7.58771 25.0847 6.85073C24.5057 4.98766 23.0888 3.58227 21.3179 2.99427V2.99427Z" fill="white"/>
<path d="M13.2075 28.0001C17.8758 28.0001 21.6603 24.1428 21.6603 19.3847C21.6603 14.6265 17.8758 10.7693 13.2075 10.7693C8.5391 10.7693 4.75464 14.6265 4.75464 19.3847C4.75464 24.1428 8.5391 28.0001 13.2075 28.0001Z" fill="#26A17B"/>
<path fill-rule="evenodd" clip-rule="evenodd" d="M14.2229 20.1293V20.1283C14.1648 20.1326 13.8653 20.1509 13.197 20.1509C12.6634 20.1509 12.2878 20.1347 12.1557 20.1283V20.1299C10.1016 20.0378 8.56852 19.6733 8.56852 19.2371C8.56852 18.8015 10.1016 18.437 12.1557 18.3433V19.767C12.2899 19.7766 12.6745 19.7998 13.206 19.7998C13.8436 19.7998 14.1632 19.7729 14.2229 19.7675V18.3443C16.2727 18.4375 17.8022 18.802 17.8022 19.2371C17.8022 19.6733 16.2727 20.0367 14.2229 20.1293V20.1293ZM14.2229 18.1963V16.9223H17.0832V14.9795H9.29546V16.9223H12.1557V18.1957C9.83116 18.3045 8.08301 18.774 8.08301 19.3362C8.08301 19.8983 9.83116 20.3673 12.1557 20.4766V24.5593H14.2229V20.4756C16.5438 20.3668 18.2877 19.8978 18.2877 19.3362C18.2877 18.7746 16.5438 18.3056 14.2229 18.1963" fill="white"/>
</svg>
