<svg xmlns="http://www.w3.org/2000/svg" width="34" height="29" viewBox="0 0 34 29">
    <g fill="none" fill-rule="evenodd">
        <g fill="#007FFF">
            <path d="M638.866 369.5c0-1.185.96-2.146 2.146-2.146 1.185 0 2.146.961 2.146 2.146s-.961 2.146-2.146 2.146c-1.186 0-2.146-.961-2.146-2.146zM638.4 355c-1.87 0-3.4 1.53-3.4 3.4v22.201c0 1.87 1.53 3.399 3.4 3.399h26.475c1.871 0 3.4-1.53 3.4-3.399v-22.2c0-1.87-1.529-3.401-3.4-3.401H638.4z" transform="translate(-635 -355) matrix(-1 0 0 1 1303.275 0)"/>
        </g>
    </g>
</svg>
