<svg xmlns="http://www.w3.org/2000/svg" width="29" height="21" viewBox="0 0 29 21">
    <path fill="#183140" fill-rule="evenodd" d="M18.9 14.856c-1.4 0-2.567-1.245-2.567-2.8 0-1.556 1.167-2.8 2.567-2.8 1.4 0 2.567 1.244 2.567 2.8 0 1.555-1.167 2.8-2.567 2.8m-9.1 0c-1.4 0-2.566-1.245-2.566-2.8 0-1.556 1.166-2.8 2.566-2.8s2.567 1.244 2.567 2.8c0 1.555-1.167 2.8-2.567 2.8M25.356 2.645c-3.579-2.723-7-2.645-7-2.645l-.312.39c4.278 1.321 6.222 3.188 6.222 3.188C21.7 2.1 19.134 1.478 16.8 1.167c-1.788-.156-3.5-.156-5.055.078-.078 0-.233.077-.389.077-.933.078-3.034.39-5.678 1.556-.933.389-1.478.7-1.478.7S6.3 1.634 10.812.311l-.234-.31s-3.423-.079-7 2.644c0 0-3.578 6.533-3.578 14.544 0 0 2.1 3.656 7.623 3.811 0 0 .855-1.166 1.633-2.1-3.189-.933-4.356-2.955-4.356-2.955s.234.155.7.389c0 0 0 .077.078.077.078.078.156.078.234.156.622.389 1.243.622 1.788.856 1.01.388 2.256.777 3.656 1.088 1.867.312 4.044.467 6.456 0 1.166-.233 2.333-.544 3.577-1.088.856-.312 1.867-.778 2.877-1.478 0 0-1.243 2.022-4.51 2.955.7.934 1.633 2.023 1.633 2.023 5.523-.156 7.623-3.812 7.544-3.734 0-8.011-3.577-14.544-3.577-14.544"/>
</svg>
