<svg xmlns="http://www.w3.org/2000/svg" xmlns:xlink="http://www.w3.org/1999/xlink" width="202" height="40" viewBox="0 0 202 40">
    <defs>
        <path id="m38eznofga" d="M0.088 0.19L145.964 0.19 145.964 33.891 0.088 33.891z"/>
    </defs>
    <g fill="none" fill-rule="evenodd">
        <path fill="#FFF" d="M35.094 0L23.396 7.45l11.698 7.45-11.698 7.452 11.698 7.45 11.698-7.45L35.094 14.9l11.698-7.45L35.094 0zM11.698 0L0 7.45l11.698 7.45L0 22.353l11.698 7.45 11.698-7.45L11.698 14.9l11.698-7.45L11.698 0zm-.035 32.274l11.698 7.45 11.698-7.45-11.698-7.45-11.698 7.45z" transform="translate(-.034 .248)"/>
        <g transform="translate(-.034 .248) translate(55.862 5.276)">
            <mask id="e6r3z8mw2b" fill="#fff">
                <use xlink:href="#m38eznofga"/>
            </mask>
            <path fill="#FFF" d="M132.421 16.588l-7.032-9.679h6.022l4.074 6.023 4.108-6.023h5.988l-7.137 9.645 7.52 10.444h-5.918l-4.63-6.65-4.492 6.65h-6.127l7.624-10.41zm-12.115.731v-.487c0-3.76-1.88-5.953-4.84-5.953-2.925 0-4.874 2.053-4.874 5.953v.487c0 3.62 1.845 5.64 4.84 5.64 3.029 0 4.874-1.984 4.874-5.64zm-15.006.07v-.557c0-6.754 4.282-10.375 10.132-10.375 5.988 0 10.165 3.69 10.165 10.375v.557c0 6.615-4.108 10.131-10.165 10.131-6.476 0-10.132-3.516-10.132-10.131zm-7.59-.313v-.488c0-3.69-2.02-5.71-4.804-5.71-2.89 0-4.874 2.333-4.874 5.78v.418c0 3.76 1.915 5.918 4.804 5.918 3.03 0 4.874-1.95 4.874-5.918zm-9.748 6.266l-.418 3.656h-4.526V.19h5.118v10.305c1.114-2.61 3.342-4.038 6.51-4.038 4.77.035 8.321 3.342 8.321 10.027v.592c0 6.684-3.342 10.444-8.46 10.444-3.307 0-5.466-1.602-6.545-4.178zm-12.986-5.988v-.453c0-4.003-2.054-5.988-4.805-5.988-2.924 0-4.874 2.229-4.874 5.953v.384c0 3.55 1.88 5.779 4.77 5.779 2.994 0 4.909-1.985 4.909-5.675zM60.284 6.91h4.386l.523 3.83c1.079-2.576 3.307-4.282 6.615-4.282 5.118 0 8.46 3.69 8.46 10.444v.557c0 6.615-3.725 10.062-8.46 10.062-3.203 0-5.327-1.427-6.406-3.76v10.131h-5.118V6.91zm-8.042 10.41v-.487c0-3.76-1.88-5.953-4.84-5.953-2.924 0-4.874 2.053-4.874 5.953v.487c0 3.62 1.845 5.64 4.839 5.64 2.995 0 4.875-1.984 4.875-5.64zm-15.006.07v-.557c0-6.754 4.317-10.375 10.166-10.375 5.989 0 10.131 3.69 10.131 10.375v.557c0 6.615-4.073 10.131-10.13 10.131-6.476 0-10.167-3.516-10.167-10.131zM23.38 6.909h4.212l.662 4.666c.8-3.203 2.855-4.84 6.58-4.84h1.288v5.327h-2.158c-4.318 0-5.362 1.497-5.362 5.745v9.19H23.38V6.91zm-18-.243v15.771h4.073c3.412 0 5.745-2.263 5.745-7.242v-1.288c0-4.978-2.402-7.241-5.919-7.241h-3.9zM.088 2.175h9.47c6.058 0 11.002 3.516 11.002 11.489v1.706c0 8.007-4.666 11.628-10.863 11.628H.088V2.175z" mask="url(#e6r3z8mw2b)"/>
        </g>
    </g>
</svg>
