<svg xmlns="http://www.w3.org/2000/svg" width="95" height="46" viewBox="0 0 95 46">
    <path fill-rule="evenodd" d="M35.777 12.51L28.02 26.566v8.873h-1.674v-8.753L18.549 12.51h1.877l6.778 12.529 6.817-12.529h1.756zM5.109 22.696c-.816.401-1.47.883-1.96 1.445-.49.535-.858 1.179-1.103 1.926-.272.75-.408 1.591-.408 2.528 0 1.739.543 3.128 1.633 4.173 1.088 1.041 2.546 1.564 4.37 1.564 1.88 0 3.335-.534 4.37-1.604 1.035-1.098 1.551-2.675 1.551-4.734 0-1.392-.38-2.595-1.143-3.612-.735-1.016-2.001-1.966-3.798-2.849-1.55.374-2.722.763-3.512 1.163zm5.987-11.525c.98.215 2.122.63 3.427 1.246l-.734 1.365c-1.198-.589-2.217-1.003-3.06-1.244-.843-.214-1.699-.321-2.57-.321-1.17 0-2.08.268-2.732.802-.683.537-1.02 1.246-1.02 2.13 0 .856.272 1.593.815 2.208.57.589 1.837 1.446 3.794 2.57 1.768 1.018 3.045 1.889 3.834 2.611.817.75 1.415 1.553 1.796 2.41.353.856.53 1.887.53 3.093 0 2.383-.666 4.271-2 5.662-1.331 1.366-3.195 2.049-5.588 2.049-2.312 0-4.161-.655-5.548-1.967C.68 32.499 0 30.772 0 28.603c0-2.036.585-3.696 1.755-4.98 1.141-1.313 2.977-2.29 5.507-2.933-1.686-.936-2.856-1.82-3.508-2.65-.654-.857-.98-1.807-.98-2.851 0-1.285.49-2.33 1.469-3.133 1.006-.803 2.298-1.206 3.875-1.206 1.034 0 2.027.108 2.978.321zM63.86 22.696c-.817.401-1.471.883-1.962 1.445-.49.535-.858 1.179-1.104 1.926-.27.75-.407 1.591-.407 2.528 0 1.739.545 3.128 1.635 4.173 1.086 1.041 2.545 1.564 4.37 1.564 1.877 0 3.335-.534 4.368-1.604 1.036-1.098 1.552-2.675 1.552-4.734 0-1.392-.38-2.595-1.143-3.612-.734-1.016-2.001-1.966-3.798-2.849-1.553.374-2.721.763-3.511 1.163zM79.745 12.51l6.284 9.799 6.366-9.799h1.756l-7.223 10.963 7.793 11.966h-1.836L85.99 24.758l-7.02 10.681h-1.795l7.836-11.966-7.1-10.963h1.835zM61.548 15.19c0-1.285.488-2.33 1.468-3.133 1.006-.803 2.298-1.206 3.875-1.206 1.034 0 2.026.108 2.978.321.98.215 2.122.63 3.427 1.246l-.734 1.365c-1.196-.589-2.217-1.003-3.06-1.244-.842-.214-1.699-.321-2.57-.321-1.17 0-2.081.268-2.733.802-.679.537-1.02 1.246-1.02 2.13 0 .856.273 1.593.817 2.208.57.589 1.836 1.446 3.793 2.57 1.769 1.018 3.046 1.889 3.835 2.611.816.75 1.414 1.553 1.795 2.41.353.856.53 1.887.53 3.093 0 2.383-.666 4.271-2 5.662-1.331 1.366-3.195 2.049-5.587 2.049-2.311 0-4.162-.655-5.549-1.967-1.36-1.286-2.04-3.013-2.04-5.182 0-2.036.584-3.696 1.755-4.98 1.141-1.313 2.978-2.29 5.507-2.933-1.686-.936-2.856-1.82-3.508-2.65-.654-.857-.98-1.807-.98-2.851zm-2.85-15.19L36.653 45.88H35.02L57.067 0h1.632z"/>
</svg>
