<svg xmlns="http://www.w3.org/2000/svg" width="24" height="24" viewBox="0 0 24 24">
    <path fill="#8293a4" fill-rule="evenodd" d="M4.95 21.704c5.357 3.897 12.858 2.714 16.755-2.644C23.197 17.008 24 14.537 24 12c0-.276-.013-.55-.031-.821-4.383 6.537-12.474 9.594-19.018 10.525m.037-10.278c0-.561.455-1.017 1.017-1.017h.005l1.694.005c.562 0 1.018.457 1.018 1.02v6.407c.191-.056.436-.116.704-.18.383-.09.654-.432.654-.826V8.887c0-.563.456-1.02 1.019-1.02h1.697c.563 0 1.019.457 1.019 1.02v7.377s.425-.172.839-.347c.314-.133.519-.441.519-.782V6.339c0-.562.456-1.019 1.018-1.019h1.698c.562 0 1.018.456 1.018 1.02v7.242c1.472-1.067 2.963-2.35 4.147-3.893.349-.455.447-1.055.26-1.597-1.64-4.784-6.108-8.021-11.163-8.09C5.498-.089 0 5.343 0 12c-.006 2.106.543 4.176 1.593 6.002.296.51.86.802 1.447.75.32-.029.72-.069 1.196-.124.428-.05.752-.411.752-.843v-6.36"/>
</svg>
