<svg xmlns="http://www.w3.org/2000/svg" width="29" height="29" viewBox="0 0 29 29">
    <path fill="#183140" fill-rule="evenodd" d="M14.395.58C6.446.58 0 7.026 0 14.977c0 6.36 4.125 11.755 9.844 13.658.719.133.983-.312.983-.692 0-.343-.013-1.477-.019-2.68-4.005.87-4.85-1.698-4.85-1.698-.654-1.664-1.598-2.106-1.598-2.106-1.306-.894.099-.875.099-.875 1.445.101 2.206 1.483 2.206 1.483 1.284 2.2 3.367 1.564 4.189 1.196.13-.93.502-1.565.914-1.925-3.197-.363-6.559-1.597-6.559-7.114 0-1.57.563-2.855 1.483-3.863-.149-.363-.642-1.827.14-3.81 0 0 1.21-.387 3.96 1.476 1.148-.32 2.38-.479 3.603-.485 1.223.006 2.455.166 3.606.485 2.747-1.863 3.954-1.476 3.954-1.476.784 1.983.29 3.447.142 3.81.923 1.008 1.48 2.292 1.48 3.863 0 5.53-3.366 6.747-6.572 7.103.516.447.976 1.323.976 2.666 0 1.926-.016 3.476-.016 3.95 0 .384.26.832.989.69 5.716-1.905 9.835-7.299 9.835-13.656C28.79 7.026 22.344.58 14.395.58"/>
</svg>
