<svg xmlns="http://www.w3.org/2000/svg" width="26" height="25" viewBox="0 0 26 25">
    <path fill="#BDCBD5" fill-rule="evenodd" d="M13.02 0C6.098 0 .484 5.613.484 12.537c0 5.539 3.592 10.238 8.573 11.895.626.116.856-.272.856-.602 0-.3-.011-1.287-.017-2.335-3.487.758-4.223-1.479-4.223-1.479-.57-1.45-1.392-1.834-1.392-1.834-1.137-.778.086-.762.086-.762 1.258.088 1.921 1.292 1.921 1.292 1.118 1.916 2.933 1.362 3.648 1.042.113-.81.438-1.364.796-1.677-2.784-.316-5.711-1.391-5.711-6.195 0-1.369.49-2.487 1.291-3.365-.13-.316-.56-1.591.122-3.318 0 0 1.053-.337 3.448 1.285 1-.278 2.073-.417 3.138-.422 1.065.005 2.139.144 3.141.422C18.553 4.862 19.605 5.2 19.605 5.2c.682 1.727.253 3.002.123 3.318.804.878 1.29 1.996 1.29 3.365 0 4.815-2.932 5.875-5.724 6.185.45.39.85 1.152.85 2.322 0 1.677-.015 3.027-.015 3.44 0 .334.226.725.862.602 4.978-1.66 8.566-6.357 8.566-11.894C25.557 5.613 19.944 0 13.02 0"/>
</svg>
