<svg xmlns="http://www.w3.org/2000/svg" xmlns:xlink="http://www.w3.org/1999/xlink" width="148" height="49" viewBox="0 0 148 49">
    <defs>
        <path id="71v1jgyu0a" d="M0 0L146.62 0 146.62 48.264 0 48.264z"/>
    </defs>
    <g fill="none" fill-rule="evenodd" transform="translate(.683 .624)">
        <mask id="949bt4q1fb" fill="#fff">
            <use xlink:href="#71v1jgyu0a"/>
        </mask>
        <path fill="#FFF" d="M18.994 22.262v-5.117h17.242c.169.892.256 1.947.256 3.089 0 3.838-1.05 8.586-4.432 11.968-3.29 3.425-7.493 5.252-13.06 5.252-10.322 0-19-8.407-19-18.727S8.678 0 19 0c5.709 0 9.776 2.24 12.832 5.16l-3.61 3.611c-2.192-2.055-5.161-3.654-9.228-3.654-7.537 0-13.431 6.074-13.431 13.61s5.894 13.61 13.43 13.61c4.89 0 7.673-1.962 9.457-3.746 1.446-1.447 2.398-3.513 2.773-6.335l-12.23.006zm110.634 2.768l10.777-4.476C139.813 19.048 138.03 18 135.93 18c-2.692 0-6.438 2.376-6.302 7.03zm12.653 4.339l4.111 2.74c-1.327 1.963-4.524 5.345-10.049 5.345-6.851 0-11.968-5.296-11.968-12.06 0-7.172 5.16-12.06 11.376-12.06 6.258 0 9.32 4.98 10.32 7.672l.55 1.37-16.123 6.677c1.234 2.42 3.154 3.654 5.845 3.654 2.697 0 4.568-1.326 5.938-3.338zm-25.296 7.351h5.166V1.376h-5.166V36.72zm-7.78-11.277c0-4.247-2.834-7.352-6.44-7.352-3.653 0-6.715 3.105-6.715 7.352 0 4.203 3.062 7.264 6.716 7.264 3.605 0 6.438-3.06 6.438-7.264zm4.654-11.376V35.72c0 8.907-5.253 12.545-11.463 12.545-5.845 0-9.363-3.91-10.69-7.107l4.61-1.92c.822 1.963 2.834 4.28 6.075 4.28 3.975 0 6.438-2.453 6.438-7.07v-1.735h-.185c-1.185 1.464-3.47 2.741-6.351 2.741-6.03 0-11.555-5.252-11.555-12.011 0-6.808 5.525-12.104 11.555-12.104 2.876 0 5.16 1.277 6.351 2.697h.185v-1.963h5.03v-.006zM83.549 25.4c0-4.339-3.148-7.308-6.802-7.308-3.654 0-6.803 2.969-6.803 7.308 0 4.296 3.149 7.308 6.803 7.308s6.802-3.017 6.802-7.308zm5.297 0c0 6.944-5.433 12.06-12.1 12.06-6.666 0-12.098-5.116-12.098-12.06 0-6.987 5.432-12.06 12.099-12.06 6.666 0 12.099 5.067 12.099 12.06zm-31.397 0c0-4.339-3.149-7.308-6.803-7.308s-6.802 2.969-6.802 7.308c0 4.296 3.148 7.308 6.802 7.308 3.654 0 6.803-3.017 6.803-7.308zm5.296 0c0 6.944-5.432 12.06-12.099 12.06-6.666 0-12.099-5.116-12.099-12.06 0-6.993 5.433-12.06 12.1-12.06 6.666 0 12.098 5.067 12.098 12.06z" mask="url(#949bt4q1fb)"/>
    </g>
</svg>
