<svg xmlns="http://www.w3.org/2000/svg" xmlns:xlink="http://www.w3.org/1999/xlink" width="168" height="56" viewBox="0 0 168 56">
    <defs>
        <path id="ezx3ka0t4a" d="M0 0L167.641 0 167.641 55.184 0 55.184z"/>
    </defs>
    <g fill="none" fill-rule="evenodd">
        <mask id="uv0ubpldzb" fill="#fff">
            <use xlink:href="#ezx3ka0t4a"/>
        </mask>
        <path fill="#FFF" d="M21.717 25.453v-5.85h19.715c.192 1.02.292 2.226.292 3.531 0 4.39-1.2 9.817-5.067 13.684-3.762 3.917-8.568 6.006-14.934 6.006C9.923 42.824 0 33.212 0 21.412 0 9.612 9.923 0 21.723 0c6.528 0 11.179 2.562 14.673 5.9l-4.129 4.128c-2.505-2.35-5.9-4.178-10.55-4.178C13.1 5.85 6.36 12.795 6.36 21.412c0 8.617 6.74 15.562 15.357 15.562 5.59 0 8.772-2.244 10.812-4.284 1.653-1.654 2.741-4.016 3.17-7.243l-13.982.006zm126.496 3.165l12.322-5.117c-.678-1.722-2.717-2.922-5.117-2.922-3.077 0-7.36 2.717-7.205 8.039zm14.467 4.961l4.7 3.133c-1.517 2.245-5.173 6.112-11.49 6.112-7.833 0-13.683-6.055-13.683-13.79 0-8.2 5.9-13.79 13.006-13.79 7.156 0 10.656 5.696 11.8 8.773l.628 1.567-18.434 7.635c1.412 2.766 3.606 4.178 6.684 4.178 3.084 0 5.222-1.517 6.789-3.818zm-28.923 8.406h5.907V1.573h-5.907v40.412zm-8.896-12.895c0-4.855-3.24-8.405-7.362-8.405-4.178 0-7.678 3.55-7.678 8.405 0 4.806 3.5 8.307 7.678 8.307 4.122 0 7.362-3.5 7.362-8.307zm5.322-13.006v24.757c0 10.184-6.006 14.343-13.106 14.343-6.684 0-10.706-4.47-12.223-8.126l5.272-2.194c.939 2.244 3.239 4.893 6.944 4.893 4.545 0 7.362-2.804 7.362-8.083V39.69h-.212c-1.355 1.673-3.966 3.134-7.261 3.134-6.895 0-13.212-6.006-13.212-13.734 0-7.783 6.317-13.84 13.212-13.84 3.288 0 5.9 1.462 7.261 3.085h.212V16.09h5.75v-.006zM95.528 29.041c0-4.962-3.6-8.356-7.778-8.356-4.178 0-7.778 3.394-7.778 8.356 0 4.911 3.6 8.356 7.778 8.356 4.178 0 7.778-3.45 7.778-8.356zm6.055 0c0 7.94-6.21 13.79-13.833 13.79-7.622 0-13.833-5.85-13.833-13.79 0-7.99 6.21-13.79 13.833-13.79 7.622 0 13.833 5.794 13.833 13.79zm-35.898 0c0-4.962-3.6-8.356-7.778-8.356-4.178 0-7.777 3.394-7.777 8.356 0 4.911 3.6 8.356 7.777 8.356 4.178 0 7.778-3.45 7.778-8.356zm6.056 0c0 7.94-6.211 13.79-13.834 13.79-7.622 0-13.833-5.85-13.833-13.79 0-7.996 6.21-13.79 13.833-13.79s13.834 5.794 13.834 13.79z" mask="url(#uv0ubpldzb)"/>
    </g>
</svg>
