<svg width="110" height="32" viewBox="0 0 110 32" fill="none" xmlns="http://www.w3.org/2000/svg">
<path d="M14.5541 10.3999C14.1533 14.927 9.63159 19.023 8.10303 21.61C6.63726 24.0906 6.12667 26.4352 7.19888 30.9637C7.2558 31.2041 7.01518 31.4142 6.79068 31.3111C4.87512 30.4319 2.46154e-06 27.7945 0 21.5068C-2.46154e-06 12.6378 9.81065 12.321 9.34959 0.317255C9.34032 0.0759615 9.60428 -0.0880324 9.80174 0.0509805C13.0113 2.31074 14.9361 6.0849 14.5541 10.3999Z" fill="url(#paint0_linear_1478_11601)"/>
<path d="M8.15484 31.6697C8.03975 31.6345 7.9595 31.5296 7.95494 31.4094C7.84329 28.4672 9.42629 26.5445 11.2013 25.118C15.1412 21.9518 17.5704 17.6758 16.609 12.7284C16.5516 12.4332 16.8975 12.2384 17.0907 12.4688C18.0175 13.5737 18.9616 15.071 19.4841 16.1626C22.0041 21.5761 20.6592 27.7801 14.629 30.9106C12.7412 31.848 10.4994 32.386 8.15484 31.6697Z" fill="url(#paint1_linear_1478_11601)"/>
<path fill-rule="evenodd" clip-rule="evenodd" d="M40.3392 8.04688V17.3948H31.3653V9.24964C31.3653 8.58525 30.8413 8.04688 30.1947 8.04688H27.1659V30.3236C27.1659 30.9877 27.6902 31.5264 28.3365 31.5264H31.3653V21.1654H40.3392V30.3236C40.3392 30.9877 40.8631 31.5264 41.5098 31.5264H44.5386V9.24964C44.5386 8.58525 44.0143 8.04688 43.3676 8.04688H40.3392Z" fill="url(#paint2_linear_1478_11601)"/>
<path fill-rule="evenodd" clip-rule="evenodd" d="M58.3132 13.5749V24.7138C58.3132 25.726 57.8008 26.6855 56.9319 27.1916C54.5053 28.605 51.9948 26.8398 51.9948 24.5118V14.7787C51.9948 14.1135 51.4602 13.5745 50.8004 13.5745H47.6975L47.6971 24.9092C47.6971 28.5558 50.6571 31.5394 54.2743 31.5394H56.0332C59.6507 31.5394 62.6103 28.5558 62.6103 24.9089V14.7787C62.6103 14.1135 62.0757 13.5745 61.4162 13.5745L58.3132 13.5749Z" fill="url(#paint3_linear_1478_11601)"/>
<path fill-rule="evenodd" clip-rule="evenodd" d="M105.991 31.5258H109.029V15.7276C109.029 15.0614 108.503 14.5216 107.855 14.5216H104.817V30.3195C104.817 30.9857 105.343 31.5258 105.991 31.5258Z" fill="url(#paint4_linear_1478_11601)"/>
<path fill-rule="evenodd" clip-rule="evenodd" d="M106.949 12.7322C108.242 12.7322 109.291 11.6835 109.291 10.3896C109.291 9.09564 108.242 8.04688 106.949 8.04688C105.655 8.04688 104.606 9.09564 104.606 10.3896C104.606 11.6835 105.655 12.7322 106.949 12.7322Z" fill="url(#paint5_linear_1478_11601)"/>
<path fill-rule="evenodd" clip-rule="evenodd" d="M77.6966 24.0775C77.6966 26.2177 75.9712 27.6425 73.8623 27.6425C71.7532 27.6425 70.0278 26.2177 70.0278 24.0775V21.0234C70.0278 18.8832 71.7532 17.4583 73.8623 17.4583C75.9712 17.4583 77.6966 18.8832 77.6966 21.0234V24.0775ZM73.8623 13.5745C69.4034 13.5745 65.7548 16.8114 65.7548 21.3362V23.7836C65.7548 28.3087 69.4034 31.5263 73.8623 31.5263C78.3213 31.5263 81.9693 28.3087 81.9693 23.7836V21.3362C81.9693 16.8114 78.3213 13.5745 73.8623 13.5745Z" fill="url(#paint6_linear_1478_11601)"/>
<path fill-rule="evenodd" clip-rule="evenodd" d="M97.1444 24.0826C97.1444 26.2213 95.4075 27.6452 93.285 27.6452C91.1624 27.6452 89.4258 26.2213 89.4258 24.0826V21.0304C89.4258 18.8917 91.1624 17.4679 93.285 17.4679C95.4075 17.4679 97.1444 18.8917 97.1444 21.0304V24.0826ZM93.285 13.5867C91.8823 13.5867 90.5596 13.9025 89.4035 14.4751V9.24828C89.4035 8.5848 88.8694 8.04688 88.2108 8.04688H85.125V23.7888C85.125 28.3109 88.797 31.5264 93.285 31.5264C97.7728 31.5264 101.445 28.3109 101.445 23.7888V21.3431C101.445 16.8214 97.7728 13.5867 93.285 13.5867Z" fill="url(#paint7_linear_1478_11601)"/>
<defs>
<linearGradient id="paint0_linear_1478_11601" x1="-4.96778" y1="18.7013" x2="133.633" y2="28.2963" gradientUnits="userSpaceOnUse">
<stop stop-color="#FEDBA8"/>
<stop offset="0.878478" stop-color="#CF75D5"/>
</linearGradient>
<linearGradient id="paint1_linear_1478_11601" x1="-4.96778" y1="18.7013" x2="133.633" y2="28.2963" gradientUnits="userSpaceOnUse">
<stop stop-color="#FEDBA8"/>
<stop offset="0.878478" stop-color="#CF75D5"/>
</linearGradient>
<linearGradient id="paint2_linear_1478_11601" x1="-4.96778" y1="18.7013" x2="133.633" y2="28.2963" gradientUnits="userSpaceOnUse">
<stop stop-color="#FEDBA8"/>
<stop offset="0.878478" stop-color="#CF75D5"/>
</linearGradient>
<linearGradient id="paint3_linear_1478_11601" x1="-4.96778" y1="18.7013" x2="133.633" y2="28.2963" gradientUnits="userSpaceOnUse">
<stop stop-color="#FEDBA8"/>
<stop offset="0.878478" stop-color="#CF75D5"/>
</linearGradient>
<linearGradient id="paint4_linear_1478_11601" x1="-4.96778" y1="18.7013" x2="133.633" y2="28.2963" gradientUnits="userSpaceOnUse">
<stop stop-color="#FEDBA8"/>
<stop offset="0.878478" stop-color="#CF75D5"/>
</linearGradient>
<linearGradient id="paint5_linear_1478_11601" x1="-4.96778" y1="18.7013" x2="133.633" y2="28.2963" gradientUnits="userSpaceOnUse">
<stop stop-color="#FEDBA8"/>
<stop offset="0.878478" stop-color="#CF75D5"/>
</linearGradient>
<linearGradient id="paint6_linear_1478_11601" x1="-4.96778" y1="18.7013" x2="133.633" y2="28.2963" gradientUnits="userSpaceOnUse">
<stop stop-color="#FEDBA8"/>
<stop offset="0.878478" stop-color="#CF75D5"/>
</linearGradient>
<linearGradient id="paint7_linear_1478_11601" x1="-4.96778" y1="18.7013" x2="133.633" y2="28.2963" gradientUnits="userSpaceOnUse">
<stop stop-color="#FEDBA8"/>
<stop offset="0.878478" stop-color="#CF75D5"/>
</linearGradient>
</defs>
</svg>
