<svg width="111" height="32" viewBox="0 0 111 32" fill="none" xmlns="http://www.w3.org/2000/svg">
<g clip-path="url(#clip0_298_1663)">
<path d="M15.3248 10.3999C14.924 14.927 10.4023 19.023 8.87372 21.61C7.40795 24.0906 6.89736 26.4352 7.96957 30.9637C8.02649 31.2041 7.78587 31.4142 7.56138 31.3111C5.64581 30.4319 0.770693 27.7945 0.770691 21.5068C0.770688 12.6378 10.5813 12.321 10.1203 0.317255C10.111 0.0759615 10.375 -0.0880324 10.5724 0.0509805C13.782 2.31074 15.7068 6.0849 15.3248 10.3999Z" fill="white"/>
<path d="M8.92557 31.6699C8.81048 31.6347 8.73022 31.5298 8.72567 31.4096C8.61401 28.4674 10.197 26.5447 11.972 25.1183C15.9119 21.952 18.3412 17.676 17.3797 12.7286C17.3223 12.4335 17.6682 12.2387 17.8614 12.469C18.7882 13.5739 19.7323 15.0712 20.2548 16.1628C22.7748 21.5763 21.4299 27.7803 15.3998 30.9109C13.5119 31.8482 11.2701 32.3862 8.92557 31.6699Z" fill="white"/>
<path fill-rule="evenodd" clip-rule="evenodd" d="M41.1099 8.04688V17.3948H32.136V9.24963C32.136 8.58525 31.612 8.04688 30.9654 8.04688H27.9366V30.3236C27.9366 30.9877 28.4609 31.5264 29.1072 31.5264H32.136V21.1654H41.1099V30.3236C41.1099 30.9877 41.6338 31.5264 42.2805 31.5264H45.3093V9.24963C45.3093 8.58525 44.785 8.04688 44.1383 8.04688H41.1099Z" fill="white"/>
<path fill-rule="evenodd" clip-rule="evenodd" d="M59.0839 13.5751V24.714C59.0839 25.7262 58.5715 26.6857 57.7026 27.1918C55.276 28.6052 52.7655 26.8399 52.7655 24.5119V14.7789C52.7655 14.1137 52.2309 13.5747 51.571 13.5747H48.4681H48.4678V24.9094C48.4678 28.556 51.4278 31.5396 55.045 31.5396H56.8039C60.4214 31.5396 63.381 28.556 63.381 24.9091V14.7789C63.381 14.1137 62.8464 13.5747 62.1869 13.5747H59.0839V13.5751Z" fill="white"/>
<path fill-rule="evenodd" clip-rule="evenodd" d="M106.762 31.5257H109.8V15.7275C109.8 15.0613 109.274 14.5215 108.626 14.5215H105.588V30.3194C105.588 30.9856 106.114 31.5257 106.762 31.5257Z" fill="white"/>
<path fill-rule="evenodd" clip-rule="evenodd" d="M107.719 12.7322C109.013 12.7322 110.062 11.6835 110.062 10.3896C110.062 9.09564 109.013 8.04688 107.719 8.04688C106.425 8.04688 105.376 9.09564 105.376 10.3896C105.376 11.6835 106.425 12.7322 107.719 12.7322Z" fill="white"/>
<path fill-rule="evenodd" clip-rule="evenodd" d="M78.4673 24.0777C78.4673 26.2179 76.7419 27.6426 74.633 27.6426C72.5239 27.6426 70.7985 26.2179 70.7985 24.0777V21.0236C70.7985 18.8834 72.5239 17.4585 74.633 17.4585C76.7419 17.4585 78.4673 18.8834 78.4673 21.0236V24.0777ZM74.633 13.5747C70.1741 13.5747 66.5255 16.8116 66.5255 21.3364V23.7838C66.5255 28.3089 70.1741 31.5265 74.633 31.5265C79.092 31.5265 82.74 28.3089 82.74 23.7838V21.3364C82.74 16.8116 79.092 13.5747 74.633 13.5747Z" fill="white"/>
<path fill-rule="evenodd" clip-rule="evenodd" d="M97.9151 24.0826C97.9151 26.2213 96.1782 27.6452 94.0557 27.6452C91.9332 27.6452 90.1966 26.2213 90.1966 24.0826V21.0304C90.1966 18.8917 91.9332 17.4679 94.0557 17.4679C96.1782 17.4679 97.9151 18.8917 97.9151 21.0304V24.0826ZM94.0557 13.5867C92.653 13.5867 91.3303 13.9025 90.1743 14.4751V9.24828C90.1743 8.58479 89.6401 8.04688 88.9815 8.04688H85.8958V23.7888C85.8958 28.3109 89.5677 31.5264 94.0557 31.5264C98.5435 31.5264 102.216 28.3109 102.216 23.7888V21.3431C102.216 16.8214 98.5435 13.5867 94.0557 13.5867Z" fill="white"/>
</g>
<defs>
<clipPath id="clip0_298_1663">
<rect width="110.769" height="32" fill="white" transform="translate(0.0327148)"/>
</clipPath>
</defs>
</svg>
