<svg width="140" height="32" viewBox="0 0 140 32" fill="none" xmlns="http://www.w3.org/2000/svg">
<g clip-path="url(#clip0_298_1682)">
<path d="M109.493 15.9851C109.493 15.1689 109.493 14.4012 109.467 13.6923C109.449 13.0234 109.382 12.3567 109.268 11.6974C109.162 11.0953 108.974 10.5106 108.709 9.95941C108.43 9.39108 108.057 8.87396 107.605 8.42987C106.965 7.77391 106.203 7.2489 105.362 6.88418C104.453 6.51569 103.478 6.33302 102.497 6.34693C101.512 6.3342 100.534 6.5168 99.6199 6.88418C98.7742 7.24392 98.0075 7.76664 97.3637 8.42253C96.9132 8.86636 96.5414 9.38358 96.2643 9.95207C96.002 10.5034 95.8168 11.0882 95.7138 11.6901C95.6025 12.3496 95.5387 13.0162 95.523 13.6849C95.5054 14.3939 95.4966 15.1616 95.501 15.9778C95.5054 16.7939 95.501 17.5557 95.523 18.2691C95.5387 18.9378 95.6025 19.6045 95.7138 20.264C95.8168 20.8658 96.002 21.4506 96.2643 22.002C96.5425 22.5698 96.9142 23.0869 97.3637 23.5315C98.0065 24.1879 98.7734 24.7099 99.6199 25.0669C100.533 25.4367 101.512 25.6204 102.497 25.6071C103.479 25.6216 104.453 25.4379 105.362 25.0669C106.203 24.7071 106.965 24.1854 107.605 23.5315C108.056 23.0866 108.429 22.5696 108.709 22.002C108.974 21.4508 109.162 20.866 109.268 20.264C109.381 19.6065 109.446 18.9418 109.464 18.275C109.486 17.5616 109.496 16.7983 109.49 15.9836L109.493 15.9851ZM105.794 15.9851C105.794 16.8893 105.781 17.6423 105.75 18.2412C105.732 18.7332 105.683 19.2235 105.603 19.7091C105.548 20.0327 105.449 20.3472 105.309 20.6442C105.196 20.8835 105.048 21.1046 104.869 21.3003C104.594 21.6158 104.252 21.8664 103.868 22.0343C103.436 22.219 102.971 22.313 102.501 22.3103C102.029 22.3123 101.562 22.2184 101.127 22.0343C100.734 21.8695 100.383 21.6187 100.1 21.3003C99.9203 21.1055 99.7718 20.8842 99.6595 20.6442C99.5236 20.3469 99.4298 20.0322 99.3806 19.7091C99.3023 19.2232 99.2532 18.733 99.2338 18.2412C99.2074 17.6423 99.1942 16.8903 99.1942 15.9851C99.1942 15.0809 99.2074 14.3264 99.2338 13.7275C99.2533 13.2357 99.3023 12.7455 99.3806 12.2596C99.4298 11.9365 99.5236 11.6218 99.6595 11.3245C99.7721 11.0847 99.9206 10.8635 100.1 10.6684C100.384 10.3505 100.735 10.0997 101.127 9.93445C101.561 9.74821 102.029 9.65423 102.501 9.65849C102.971 9.65361 103.437 9.74764 103.868 9.93445C104.251 10.1028 104.593 10.3534 104.869 10.6684C105.047 10.8643 105.196 11.0854 105.309 11.3245C105.449 11.6215 105.548 11.936 105.603 12.2596C105.683 12.7452 105.732 13.2355 105.75 13.7275C105.782 14.3249 105.794 15.0794 105.794 15.9851Z" fill="white"/>
<path d="M138.968 6.8371C138.967 6.6586 138.822 6.51429 138.644 6.5127H135.592C135.413 6.5135 135.268 6.65827 135.268 6.8371V18.1105L127.825 6.6037C127.776 6.52591 127.732 6.5127 127.621 6.5127H124.791C124.613 6.51507 124.469 6.65893 124.467 6.8371V25.1299C124.469 25.3079 124.613 25.4513 124.791 25.4529H127.842C128.02 25.4521 128.164 25.308 128.165 25.1299V13.8272L135.608 25.3604C135.66 25.4382 135.701 25.4514 135.812 25.4514H138.641C138.819 25.4506 138.964 25.3067 138.965 25.1285L138.968 6.8371Z" fill="white"/>
<path d="M118.512 6.8371C118.511 6.65827 118.366 6.5135 118.187 6.5127H115.138C114.96 6.5135 114.815 6.65827 114.814 6.8371V25.1285C114.815 25.3073 114.96 25.4521 115.138 25.4529H118.187C118.366 25.4521 118.511 25.3073 118.512 25.1285V6.8371Z" fill="white"/>
<path d="M82.0141 15.9852C82.0141 15.0751 82.0244 14.3177 82.0508 13.7144C82.0687 13.2225 82.1178 12.7322 82.1976 12.2465C82.4794 10.6171 83.7271 9.65568 85.3198 9.65568C86.359 9.66449 87.3014 10.0491 87.9033 10.9239C88.1758 11.3324 88.3745 11.7855 88.4904 12.2627C88.4993 12.3129 88.5453 12.348 88.5961 12.3434H92.1851C92.2365 12.3434 92.2555 12.3082 92.2467 12.2583C91.8548 10.0373 90.6702 8.04247 88.577 7.05458C87.5483 6.57827 86.4254 6.33995 85.2919 6.35733C83.2711 6.35733 81.5688 7.0492 80.1851 8.43293C79.3951 9.20288 78.8558 10.1933 78.6379 11.2748C78.4266 12.3395 78.3199 13.9091 78.3179 15.9838C78.316 18.0584 78.4226 19.6275 78.6379 20.6913C78.854 21.7741 79.3917 22.7665 80.1807 23.539C81.5634 24.9217 83.2657 25.6131 85.2875 25.6131C86.4208 25.6303 87.5435 25.3925 88.5726 24.9173C90.6658 23.9294 91.8504 21.9346 92.2423 19.7137C92.2511 19.6623 92.2321 19.6285 92.1807 19.6285H88.5902C88.5392 19.6232 88.4928 19.6586 88.4845 19.7093C88.3684 20.1859 88.1697 20.6385 87.8974 21.0465C87.2955 21.9272 86.3532 22.3074 85.3139 22.3148C83.7212 22.3148 82.4735 21.3548 82.1917 19.7254C82.112 19.2397 82.0629 18.7494 82.0449 18.2575C82.0243 17.6513 82.0141 16.8924 82.0141 15.9852Z" fill="white"/>
<path d="M44.1073 6.8371C44.1065 6.65827 43.9617 6.5135 43.7829 6.5127H40.7341C40.5552 6.5135 40.4105 6.65827 40.4097 6.8371V25.1299C40.4113 25.3082 40.5558 25.4521 40.7341 25.453H43.7829C43.9611 25.4521 44.1057 25.3082 44.1073 25.1299V19.7604L46.5543 16.8349L51.5803 25.356C51.619 25.4188 51.6886 25.4559 51.7623 25.453H55.4673C55.6376 25.453 55.6684 25.3472 55.5832 25.2019L49.0027 14.0459L55.0401 6.80334C55.162 6.65655 55.1106 6.5171 54.9198 6.5171H50.8699C50.8206 6.5142 50.7731 6.53626 50.7436 6.57581L44.1073 14.5347V6.8371Z" fill="white"/>
<path d="M66.3194 22.3145C64.6034 22.3145 63.0475 20.7263 63.0475 18.8298V6.8371C63.0467 6.65827 62.9019 6.5135 62.7231 6.5127H59.6743C59.4954 6.5135 59.3507 6.65827 59.3499 6.8371V18.7828C59.3499 22.9589 62.4735 25.6129 66.3194 25.6129C70.1653 25.6129 73.2889 22.9589 73.2889 18.7828V6.8371C73.2873 6.6586 73.143 6.51429 72.9645 6.5127H69.9143C69.736 6.5143 69.5921 6.65884 69.5913 6.8371V18.8298C69.5913 20.7248 68.0339 22.3145 66.3194 22.3145Z" fill="white"/>
<path fill-rule="evenodd" clip-rule="evenodd" d="M9.76304 15.9851L19.228 25.4516L25.2023 19.4772C26.2706 18.5153 27.905 18.5581 28.9214 19.5746C29.9379 20.5911 29.9807 22.2255 29.0188 23.2938L21.1348 31.1793C20.0758 32.2208 18.3773 32.2208 17.3183 31.1793L5.94359 19.8016V26.5642C5.94359 28.0567 4.73369 29.2666 3.2412 29.2666C1.74872 29.2666 0.538818 28.0567 0.538818 26.5642V5.39724C0.538818 3.90475 1.74872 2.69486 3.2412 2.69486C4.73369 2.69486 5.94359 3.90475 5.94359 5.39724V12.1598L17.3168 0.785131C18.3755 -0.257153 20.0746 -0.257153 21.1333 0.785131L29.0232 8.66917C29.9851 9.73745 29.9423 11.3718 28.9258 12.3883C27.9094 13.4048 26.275 13.4476 25.2067 12.4857L19.2324 6.51137L9.76304 15.9851ZM19.2324 13.2798C18.1381 13.2792 17.1512 13.938 16.732 14.9488C16.3128 15.9597 16.5439 17.1235 17.3175 17.8976C18.0911 18.6716 19.2548 18.9033 20.2659 18.4847C21.277 18.066 21.9363 17.0795 21.9363 15.9851C21.9366 15.2676 21.652 14.5794 21.1449 14.0718C20.6378 13.5641 19.9499 13.2787 19.2324 13.2783V13.2798Z" fill="white"/>
</g>
<defs>
<clipPath id="clip0_298_1682">
<rect width="139.429" height="32" fill="white" transform="translate(0.538818)"/>
</clipPath>
</defs>
</svg>
