<svg width="172" height="64" viewBox="0 0 172 64" fill="none" xmlns="http://www.w3.org/2000/svg">
<path d="M124.992 31.9853C124.992 31.1692 124.992 30.4015 124.965 29.6925C124.947 29.0236 124.881 28.3569 124.767 27.6976C124.661 27.0956 124.473 26.5109 124.208 25.9596C123.929 25.3913 123.556 24.8742 123.104 24.4301C122.464 23.7741 121.702 23.2491 120.861 22.8844C119.952 22.5159 118.977 22.3332 117.996 22.3472C117.011 22.3344 116.033 22.517 115.119 22.8844C114.273 23.2441 113.506 23.7669 112.863 24.4228C112.412 24.8666 112.04 25.3838 111.763 25.9523C111.501 26.5036 111.316 27.0884 111.213 27.6903C111.101 28.3498 111.038 29.0165 111.022 29.6851C111.004 30.3941 110.996 31.1618 111 31.978C111.004 32.7941 111 33.556 111.022 34.2694C111.038 34.938 111.101 35.6047 111.213 36.2642C111.316 36.8661 111.501 37.4509 111.763 38.0022C112.041 38.57 112.413 39.0871 112.863 39.5317C113.505 40.1882 114.272 40.7101 115.119 41.0672C116.032 41.4369 117.01 41.6206 117.996 41.6073C118.978 41.6218 119.952 41.4381 120.861 41.0672C121.702 40.7073 122.464 40.1856 123.104 39.5317C123.555 39.0868 123.928 38.5699 124.208 38.0022C124.473 37.451 124.661 36.8663 124.767 36.2642C124.88 35.6068 124.945 34.9421 124.963 34.2752C124.985 33.5618 124.995 32.7985 124.989 31.9839L124.992 31.9853ZM121.293 31.9853C121.293 32.8895 121.28 33.6426 121.249 34.2415C121.231 34.7334 121.182 35.2237 121.102 35.7094C121.047 36.0329 120.948 36.3475 120.808 36.6444C120.695 36.8837 120.547 37.1049 120.368 37.3005C120.092 37.616 119.751 37.8666 119.367 38.0345C118.935 38.2193 118.47 38.3132 118 38.3105C117.528 38.3125 117.061 38.2187 116.626 38.0345C116.233 37.8697 115.882 37.6189 115.599 37.3005C115.419 37.1057 115.271 36.8844 115.158 36.6444C115.023 36.3472 114.929 36.0325 114.88 35.7094C114.801 35.2235 114.752 34.7333 114.733 34.2415C114.706 33.6426 114.693 32.8905 114.693 31.9853C114.693 31.0811 114.706 30.3266 114.733 29.7277C114.752 29.2359 114.801 28.7457 114.88 28.2598C114.929 27.9367 115.023 27.622 115.158 27.3248C115.271 27.0849 115.42 26.8637 115.599 26.6686C115.883 26.3507 116.234 26.1 116.626 25.9347C117.06 25.7484 117.528 25.6545 118 25.6587C118.47 25.6538 118.936 25.7479 119.367 25.9347C119.75 26.1031 120.092 26.3536 120.368 26.6686C120.546 26.8646 120.695 27.0856 120.808 27.3248C120.948 27.6217 121.047 27.9363 121.102 28.2598C121.182 28.7455 121.231 29.2358 121.249 29.7277C121.281 30.3251 121.293 31.0796 121.293 31.9853Z" fill="url(#paint0_linear_1478_11604)"/>
<path d="M154.467 22.8374C154.466 22.6589 154.321 22.5146 154.143 22.513H151.091C150.912 22.5138 150.767 22.6586 150.767 22.8374V34.1108L143.324 22.604C143.274 22.5262 143.23 22.513 143.12 22.513H140.29C140.112 22.5154 139.968 22.6593 139.966 22.8374V41.1303C139.968 41.3082 140.112 41.4516 140.29 41.4532H143.34C143.519 41.4524 143.663 41.3083 143.663 41.1303V29.8275L151.107 41.3607C151.158 41.4385 151.2 41.4517 151.311 41.4517H154.14C154.318 41.4509 154.463 41.3071 154.464 41.1288L154.467 22.8374Z" fill="url(#paint1_linear_1478_11604)"/>
<path d="M134.011 22.8374C134.01 22.6586 133.865 22.5138 133.686 22.513H130.637C130.459 22.5138 130.314 22.6586 130.313 22.8374V41.1288C130.314 41.3076 130.459 41.4524 130.637 41.4532H133.686C133.865 41.4524 134.01 41.3076 134.011 41.1288V22.8374Z" fill="url(#paint2_linear_1478_11604)"/>
<path d="M97.513 31.9853C97.513 31.0752 97.5233 30.3178 97.5497 29.7145C97.5676 29.2226 97.6167 28.7323 97.6965 28.2466C97.9783 26.6172 99.226 25.6558 100.819 25.6558C101.858 25.6646 102.8 26.0492 103.402 26.924C103.675 27.3325 103.873 27.7856 103.989 28.2628C103.998 28.313 104.044 28.3481 104.095 28.3435H107.684C107.735 28.3435 107.754 28.3083 107.746 28.2583C107.354 26.0374 106.169 24.0426 104.076 23.0547C103.047 22.5784 101.924 22.34 100.791 22.3574C98.77 22.3574 97.0677 23.0493 95.684 24.433C94.894 25.203 94.3547 26.1934 94.1368 27.2749C93.9255 28.3396 93.8188 29.9092 93.8168 31.9839C93.8149 34.0585 93.9215 35.6276 94.1368 36.6914C94.3529 37.7742 94.8906 38.7666 95.6796 39.5391C97.0623 40.9218 98.7646 41.6132 100.786 41.6132C101.92 41.6304 103.042 41.3926 104.072 40.9174C106.165 39.9295 107.349 37.9347 107.741 35.7138C107.75 35.6624 107.731 35.6286 107.68 35.6286H104.089C104.038 35.6233 103.992 35.6587 103.983 35.7094C103.867 36.186 103.669 36.6386 103.396 37.0466C102.794 37.9273 101.852 38.3075 100.813 38.3149C99.2201 38.3149 97.9724 37.3549 97.6906 35.7255C97.6109 35.2398 97.5618 34.7495 97.5438 34.2576C97.5233 33.6514 97.513 32.8925 97.513 31.9853Z" fill="url(#paint3_linear_1478_11604)"/>
<path d="M59.6062 22.8374C59.6054 22.6586 59.4606 22.5138 59.2818 22.513H56.233C56.0541 22.5138 55.9094 22.6586 55.9086 22.8374V41.1303C55.9102 41.3085 56.0547 41.4524 56.233 41.4534H59.2818C59.46 41.4524 59.6046 41.3085 59.6062 41.1303V35.7607L62.0532 32.8352L67.0792 41.3563C67.1179 41.4192 67.1875 41.4562 67.2612 41.4534H70.9662C71.1365 41.4534 71.1673 41.3475 71.0822 41.2022L64.5016 30.0462L70.539 22.8037C70.6609 22.6569 70.6095 22.5174 70.4187 22.5174H66.3688C66.3195 22.5145 66.272 22.5366 66.2425 22.5761L59.6062 30.535V22.8374Z" fill="url(#paint4_linear_1478_11604)"/>
<path d="M81.8183 38.3149C80.1023 38.3149 78.5464 36.7266 78.5464 34.8301V22.8374C78.5456 22.6586 78.4008 22.5138 78.222 22.513H75.1732C74.9943 22.5138 74.8496 22.6586 74.8488 22.8374V34.7831C74.8488 38.9593 77.9724 41.6132 81.8183 41.6132C85.6642 41.6132 88.7878 38.9593 88.7878 34.7831V22.8374C88.7862 22.6589 88.6419 22.5146 88.4634 22.513H85.4132C85.2349 22.5146 85.091 22.6592 85.0902 22.8374V34.8301C85.0902 36.7251 83.5328 38.3149 81.8183 38.3149Z" fill="url(#paint5_linear_1478_11604)"/>
<path fill-rule="evenodd" clip-rule="evenodd" d="M25.262 31.9853L34.7269 41.4517L40.7012 35.4774C41.7695 34.5155 43.4039 34.5583 44.4204 35.5748C45.4369 36.5913 45.4797 38.2257 44.5177 39.2939L36.6337 47.1795C35.5747 48.2209 33.8762 48.2209 32.8172 47.1795L21.4425 35.8018V42.5644C21.4425 44.0569 20.2326 45.2668 18.7401 45.2668C17.2476 45.2668 16.0378 44.0569 16.0378 42.5644V21.3974C16.0378 19.9049 17.2476 18.695 18.7401 18.695C20.2326 18.695 21.4425 19.9049 21.4425 21.3974V28.16L32.8157 16.7853C33.8744 15.743 35.5736 15.743 36.6322 16.7853L44.5222 24.6694C45.4841 25.7376 45.4413 27.372 44.4248 28.3885C43.4083 29.405 41.7739 29.4478 40.7056 28.4859L34.7313 22.5116L25.262 31.9853ZM34.7313 29.28C33.637 29.2794 32.6501 29.9382 32.2309 30.949C31.8117 31.9599 32.0428 33.1237 32.8164 33.8978C33.59 34.6718 34.7537 34.9035 35.7648 34.4849C36.7759 34.0662 37.4352 33.0797 37.4352 31.9853C37.4356 31.2678 37.1509 30.5796 36.6438 30.0719C36.1368 29.5643 35.4488 29.2789 34.7313 29.2785V29.28Z" fill="url(#paint6_linear_1478_11604)"/>
<defs>
<linearGradient id="paint0_linear_1478_11604" x1="-7.75446" y1="37.4026" x2="210.048" y2="49.2277" gradientUnits="userSpaceOnUse">
<stop stop-color="#FEDBA8"/>
<stop offset="0.878478" stop-color="#CF75D5"/>
</linearGradient>
<linearGradient id="paint1_linear_1478_11604" x1="-7.75446" y1="37.4026" x2="210.048" y2="49.2277" gradientUnits="userSpaceOnUse">
<stop stop-color="#FEDBA8"/>
<stop offset="0.878478" stop-color="#CF75D5"/>
</linearGradient>
<linearGradient id="paint2_linear_1478_11604" x1="-7.75446" y1="37.4026" x2="210.048" y2="49.2277" gradientUnits="userSpaceOnUse">
<stop stop-color="#FEDBA8"/>
<stop offset="0.878478" stop-color="#CF75D5"/>
</linearGradient>
<linearGradient id="paint3_linear_1478_11604" x1="-7.75446" y1="37.4026" x2="210.048" y2="49.2277" gradientUnits="userSpaceOnUse">
<stop stop-color="#FEDBA8"/>
<stop offset="0.878478" stop-color="#CF75D5"/>
</linearGradient>
<linearGradient id="paint4_linear_1478_11604" x1="-7.75446" y1="37.4026" x2="210.048" y2="49.2277" gradientUnits="userSpaceOnUse">
<stop stop-color="#FEDBA8"/>
<stop offset="0.878478" stop-color="#CF75D5"/>
</linearGradient>
<linearGradient id="paint5_linear_1478_11604" x1="-7.75446" y1="37.4026" x2="210.048" y2="49.2277" gradientUnits="userSpaceOnUse">
<stop stop-color="#FEDBA8"/>
<stop offset="0.878478" stop-color="#CF75D5"/>
</linearGradient>
<linearGradient id="paint6_linear_1478_11604" x1="-7.75446" y1="37.4026" x2="210.048" y2="49.2277" gradientUnits="userSpaceOnUse">
<stop stop-color="#FEDBA8"/>
<stop offset="0.878478" stop-color="#CF75D5"/>
</linearGradient>
</defs>
</svg>
