<svg xmlns="http://www.w3.org/2000/svg" width="31" height="30" viewBox="0 0 31 30">
    <path fill="#BDCBD5" fill-rule="evenodd" d="M24.55 8.347l-1.397 1.34c-.12.092-.18.243-.155.392v9.842c-.026.149.034.3.155.392l1.364 1.34v.293h-6.862v-.293l1.412-1.373c.14-.139.14-.179.14-.391v-7.957l-3.93 9.982h-.53l-4.576-9.982v6.69c-.039.282.055.564.253.768l1.839 2.23v.294H7.05v-.294l1.839-2.23c.196-.204.284-.489.236-.767v-7.735c.022-.216-.06-.428-.22-.572L7.27 8.347v-.293h5.074l3.922 8.6 3.448-8.6h4.836v.293zM15.8 0C7.517 0 .8 6.715.8 15c0 8.284 6.717 15 15 15 8.284 0 15-6.716 15-15 0-8.285-6.716-15-15-15z"/>
</svg>
