<svg xmlns="http://www.w3.org/2000/svg" width="40" height="39" viewBox="0 0 40 39">
    <defs>
        <linearGradient id="oarwvx2zpa" x1="82.484%" x2="-8.484%" y1="3.117%" y2="134.39%">
            <stop offset="0%" stop-color="#1ABC9C"/>
            <stop offset="100%" stop-color="#1A5DAF"/>
        </linearGradient>
        <linearGradient id="m0nxb6yo7b" x1="73.392%" x2="40.57%" y1="-94.009%" y2="120.369%">
            <stop offset="0%" stop-color="#1ABC9C"/>
            <stop offset="100%" stop-color="#1A5DAF"/>
        </linearGradient>
        <linearGradient id="0li9a10s4c" x1="62.756%" x2="30.9%" y1="-40.82%" y2="166.665%">
            <stop offset="0%" stop-color="#1ABC9C"/>
            <stop offset="100%" stop-color="#1A5DAF"/>
        </linearGradient>
    </defs>
    <g fill="none" fill-rule="evenodd">
        <g fill-rule="nonzero">
            <g transform="translate(-632 -276) translate(632 276)">
                <ellipse cx="20.16" cy="19.5" fill="url(#oarwvx2zpa)" rx="19.692" ry="19.5"/>
                <g>
                    <path fill="#FFF" d="M37.988 17.227L31.822 32.175 28.56 24.546 31.532 17.349 29.926 17.349 27.502 23.333 25.102 17.349 23.52 17.349 26.492 24.546 23.255 32.175 17.065 17.227 13.957 9.975 17.157 2.346 23.323 17.294 25.145 17.294 17.926 0.427 16.437 0.427 12.862 8.702 9.262 0.427 7.797 0.427 0.597 17.294 2.4 17.294 8.591 2.346 11.828 9.975 8.855 17.178 10.437 17.178 12.837 11.188 15.262 17.227 22.462 34.101 23.926 34.101 27.526 25.758 31.102 34.101 32.591 34.101 39.809 17.227 37.988 17.227z" opacity=".2" transform="translate(0 2.438)"/>
                    <path fill="url(#m0nxb6yo7b)" d="M21.6 24.68c-.472.11-.955.165-1.44.164-3.434 0-6.357-2.59-6.566-6.435.05-.734.167-1.462.35-2.175l-5.329-2.218c-.555 1.503-.839 3.091-.837 4.692 0 6.593 5.705 11.937 12.364 11.937 1.533-.005 3.052-.3 4.473-.87L21.6 24.68z" transform="translate(0 2.438)"/>
                    <path fill="url(#0li9a10s4c)" d="M20.16 6.094c-1.73-.003-3.442.365-5.015 1.078l2.99 5.034c.652-.222 1.336-.336 2.025-.335 3.04 0 6.265 2.522 6.572 5.63l-8.646.037 13.483 5.68c.673-1.605.992-3.334.936-5.07 0-6.57-5.687-12.054-12.345-12.054z" transform="translate(0 2.438)"/>
                    <path fill="#FFF" d="M21.6 23.376c-.472.11-.955.165-1.44.164-3.434 0-6.357-2.59-6.566-6.435.05-.734.167-1.462.35-2.175l-5.329-2.243c-.555 1.503-.839 3.092-.837 4.692 0 6.594 5.705 11.938 12.364 11.938 1.532.003 3.05-.285 4.473-.847L21.6 23.376zM20.16 4.808c-1.73-.002-3.442.365-5.015 1.079l2.99 5.033c.652-.222 1.336-.335 2.025-.335 3.04 0 6.265 2.523 6.572 5.63l-8.646.037 13.483 5.686c.673-1.605.992-3.334.936-5.07 0-6.618-5.687-12.06-12.345-12.06z" transform="translate(0 2.438)"/>
                </g>
            </g>
        </g>
    </g>
</svg>
