<svg width="397" height="397" viewBox="0 0 397 397" fill="none" xmlns="http://www.w3.org/2000/svg">
<mask id="mask0_323_379" style="mask-type:alpha" maskUnits="userSpaceOnUse" x="0" y="0" width="397" height="397">
<path fill-rule="evenodd" clip-rule="evenodd" d="M0 0H397V397H0V0Z" fill="white"/>
</mask>
<g mask="url(#mask0_323_379)">
<path fill-rule="evenodd" clip-rule="evenodd" d="M197.835 0.0011368C307.463 -0.36593 396.632 88.2069 396.999 197.835C397.366 307.463 308.793 396.631 199.165 396.999C89.5372 397.366 0.368691 308.793 0.0011368 199.165C-0.36593 89.5372 88.2069 0.368204 197.835 0.0011368Z" fill="#030C17"/>
</g>
<path opacity="0.1" fill-rule="evenodd" clip-rule="evenodd" d="M322.56 321.732C390.612 253.193 390.27 142.488 321.732 74.4367C253.193 6.3855 142.488 6.72673 74.4368 75.2654L322.56 321.732Z" fill="white"/>
<path fill-rule="evenodd" clip-rule="evenodd" d="M305.791 139.368L283.221 116.603L270.937 129.082C270.888 129.034 270.839 128.985 270.791 128.936L260.797 139.027L199.328 201.326L160.427 161.889C152.384 170.274 147.07 181.291 145.9 193.477L199.328 247.636L259.774 186.36C260.554 190.26 260.944 194.306 260.944 198.45C260.944 232.865 232.914 260.895 198.498 260.895C164.083 260.895 136.053 232.865 136.053 198.45C136.053 164.034 164.083 136.004 198.498 136.004C212.635 136.004 225.699 140.733 236.18 148.679L262.943 121.526C245.491 106.902 223.018 98.0303 198.498 98.0303C143.17 98.0303 98.1278 143.073 98.1278 198.401C98.1278 253.778 143.17 298.772 198.498 298.772C253.827 298.772 298.869 253.729 298.869 198.401C298.869 183.192 295.457 168.811 289.412 155.893L305.791 139.368Z" fill="white"/>
<mask id="mask1_323_379" style="mask-type:alpha" maskUnits="userSpaceOnUse" x="145" y="161" width="55" height="87">
<path fill-rule="evenodd" clip-rule="evenodd" d="M145.949 193.478L199.328 247.636H199.376V201.326L160.476 161.889C152.433 170.274 147.119 181.242 145.949 193.478Z" fill="white"/>
</mask>
<g mask="url(#mask1_323_379)">
<path fill-rule="evenodd" clip-rule="evenodd" d="M145.949 193.478L199.328 247.636H199.376V201.326L160.476 161.889C152.433 170.274 147.119 181.242 145.949 193.478Z" fill="url(#paint0_linear_323_379)"/>
</g>
<defs>
<linearGradient id="paint0_linear_323_379" x1="119.202" y1="200.667" x2="175.157" y2="220.151" gradientUnits="userSpaceOnUse">
<stop stop-color="#1C313F"/>
<stop offset="1" stop-color="white"/>
</linearGradient>
</defs>
</svg>
