<svg width="104" height="24" viewBox="0 0 104 24" fill="none" xmlns="http://www.w3.org/2000/svg">
<path d="M36.1174 23.4652L31.5652 15.6522C31.4609 15.6522 31.3956 15.6522 31.3043 15.6522H27.8348V23.4652H23.2956V0.573913H31.3043C36.9261 0.573913 40.2913 3.61304 40.2913 8.21739C40.2913 11.3609 38.7522 13.6435 35.9739 14.7913L41.2043 23.4522H36.1174V23.4652ZM27.8478 11.5957H31.9043C34.4217 11.5957 35.5956 9.96522 35.5956 8.23043C35.5956 6.43043 34.3826 4.82609 31.9043 4.82609H27.8478V11.5957ZM43.2913 23.4652V0.573913H47.8304V23.4522H43.2913V23.4652ZM68.8826 21.0783C67.6434 22.487 64.9304 23.9217 61.9565 23.9217C55.3826 23.9217 50.0869 18.9261 50.0869 12.0261C50.0869 5.12609 55.3826 0.130435 61.9565 0.130435C66.4956 0.169565 70.2913 2.51739 72.3521 6.18261L67.7087 7.39565C66.4695 5.7 64.213 4.61739 61.9565 4.61739C57.6782 4.61739 54.8348 7.69565 54.8348 12.0391C54.8348 16.5783 57.9782 19.487 62.2174 19.487C66.1434 19.487 68.2043 17.3348 68.9217 15.5609V14.5826H62.5826V10.8783H72.8087V23.4652H68.8826C68.8826 21.5739 68.9217 21.1174 68.9217 21.0783H68.8826ZM76.0043 23.4652V0.573913H80.5434V23.4522H76.0043V23.4652ZM103.983 0.573913V23.4522H99.7043L93.1956 14.6217C91.1347 11.8043 88.6173 8.21739 88.5913 8.21739H88.5521C88.526 8.21739 88.5913 11.5174 88.5913 16.0565V23.4391H84.0521V0.573913H88.3304L94.9695 9.49565C96.5347 11.5565 99.4174 15.6391 99.4434 15.6391H99.4826C99.5217 15.6391 99.4434 11.9087 99.4434 8.06087V0.573913H103.983ZM20.0478 5.89565L16.3435 9.6C16.4869 10.3304 16.5652 11.1391 16.5652 12.013C16.5652 16.6957 14.3609 19.5 10.6696 19.5C9.13043 19.5 7.83913 19.0043 6.86087 18.0652L19.6956 5.23043C19.3565 4.61739 18.9652 4.05652 18.5217 3.53478C18.3391 3.31304 18.1435 3.11739 17.9478 2.9087C17.9217 2.88261 17.8956 2.85652 17.8696 2.83043C17.8043 2.77826 17.7522 2.71304 17.6869 2.66087C15.8087 0.913043 13.4217 0 10.6696 0C7.5 0 4.78695 1.21304 2.84348 3.52174C1.00435 5.7 0 8.71304 0 12.013C0 14.2043 0.443478 16.2652 1.27826 18.0391L5.00869 14.3087C4.87826 13.6043 4.81304 12.8348 4.81304 12C4.81304 9.84783 5.25652 8.1 6.11739 6.8087C7.13478 5.3087 8.71304 4.51304 10.6696 4.51304C12.1956 4.51304 13.4739 4.99565 14.4391 5.89565L1.63043 18.7043C1.98261 19.3435 2.38696 19.9435 2.84348 20.4783C2.93478 20.5826 3.02609 20.687 3.13043 20.7913C3.23478 20.9087 3.35217 21.0261 3.46956 21.1435C3.48261 21.1565 3.49565 21.1696 3.50869 21.1826C3.54782 21.2217 3.57391 21.2609 3.61304 21.287C5.47826 23.0609 7.8913 24 10.6696 24C13.8522 24 16.5652 22.787 18.5217 20.4783C20.3609 18.3 21.3783 15.3 21.3783 12C21.3783 9.78261 20.9087 7.68261 20.0478 5.89565Z" fill="white"/>
</svg>
