<svg width="109" height="24" viewBox="0 0 109 24" fill="none" xmlns="http://www.w3.org/2000/svg">
<path d="M22.8321 11.2116C22.7861 10.4457 22.6711 9.68556 22.4884 8.94037C22.4162 8.64423 22.3335 8.35123 22.2404 8.06137C22.2043 7.95464 22.0065 7.38015 22.0128 7.37388C21.9165 7.13843 21.8145 6.9056 21.7067 6.67539L17.9631 10.4912C17.9631 10.4912 18.0683 11.3921 18.0808 11.546C18.1259 12.1066 18.108 12.6704 18.0275 13.227C17.6853 15.605 16.1957 17.7586 13.9747 18.7302L13.8444 18.7851C13.624 18.8767 13.3987 18.9558 13.1695 19.0221C11.5057 19.5024 9.54676 19.2905 8.06816 18.3629L20.9219 5.26272L20.8214 5.10576C20.7178 4.9488 20.6127 4.8091 20.5075 4.66312V4.6537C19.0716 2.64966 17.0118 1.17829 14.6504 0.46993C12.289 -0.238427 9.75942 -0.143782 7.45758 0.739045C4.72799 1.77186 2.45359 4.0494 1.19004 6.66283C1.06918 6.91711 0.954593 7.17453 0.850997 7.43509C0.241328 9.00439 -0.0460537 10.6804 0.00599328 12.3632C0.0580402 14.0459 0.448449 15.701 1.15393 17.2296C1.17591 17.2783 1.19945 17.3269 1.223 17.3756L4.93675 13.5896C4.9289 13.5519 4.92262 13.5127 4.91478 13.4735C4.74311 12.3661 4.78037 11.2364 5.02465 10.1427C5.2422 9.15586 5.67098 8.22787 6.28145 7.42257C6.89193 6.61727 7.66962 5.95378 8.56103 5.47776C10.3787 4.53598 12.6986 4.51558 14.5099 5.48718C14.568 5.51857 14.6245 5.54996 14.681 5.5845L14.8474 5.68809L1.9262 18.7788C2.00765 18.9174 2.09727 19.0511 2.1946 19.1791C2.28878 19.3172 2.3861 19.4522 2.48656 19.5856C2.69242 19.85 2.91304 20.1026 3.14737 20.3422C3.32317 20.5242 3.50367 20.7032 3.68418 20.8806C4.21023 21.3973 4.78891 21.8577 5.41077 22.254C6.66435 23.051 8.06385 23.591 9.52792 23.8425C10.4487 24.0021 11.3864 24.0406 12.3172 23.957C15.976 23.6196 19.3805 21.3671 21.2264 18.1871C22.4321 16.0689 22.9904 13.6438 22.8321 11.2116V11.2116Z" fill="white"/>
<path d="M42.6667 12.263C43.457 11.0314 43.8676 9.59459 43.8474 8.13139C43.8714 6.54866 43.4142 4.99596 42.5362 3.67886C41.6582 2.36175 40.4009 1.34235 38.9308 0.755604C37.9569 0.367337 36.9144 0.180715 35.8663 0.207032H26.7802C26.6367 0.207239 26.4947 0.2357 26.3622 0.29079C26.2298 0.345881 26.1095 0.426521 26.0082 0.528108C25.9069 0.629695 25.8266 0.750236 25.7719 0.882854C25.7172 1.01547 25.6891 1.15757 25.6893 1.30103V23.7957H30.647V15.8319H34.4192L39.287 23.7957H44.7932L39.3958 15.08C40.737 14.4793 41.8738 13.5003 42.6667 12.263ZM38.8094 9.31209C38.6421 9.71725 38.3919 10.0829 38.0748 10.3856H38.089C37.7642 10.6899 37.3829 10.9277 36.9666 11.0855C36.5504 11.2418 36.1072 11.3136 35.663 11.2967H30.6564V4.84153H35.8837C36.3055 4.81921 36.7273 4.88758 37.1205 5.04203C37.5137 5.19648 37.8692 5.43343 38.1631 5.7369C38.4527 6.04392 38.6789 6.40515 38.8285 6.79985C38.9781 7.19455 39.0482 7.61492 39.0348 8.03681C39.0505 8.47304 38.9736 8.90765 38.8094 9.31209Z" fill="white"/>
<rect x="46.6805" y="0.20459" width="4.88526" height="23.5911" fill="white"/>
<rect x="46.6805" y="0.20459" width="4.88526" height="23.5911" fill="white"/>
<path d="M74.9037 10.3019H65.0235L65.0738 14.7643L71.8397 14.7345C71.5616 16.1486 70.9142 16.84 69.9369 17.7199C68.8288 18.7069 67.3953 19.2502 65.9113 19.2456C65.0134 19.2669 64.1215 19.0938 63.2967 18.7381C62.4683 18.3813 61.7262 17.8508 61.1205 17.1825C59.8832 15.7494 59.2037 13.9184 59.2066 12.025C59.2095 10.1317 59.8945 8.30276 61.1362 6.87341C61.7423 6.20589 62.4836 5.67507 63.3108 5.31628C64.1358 4.96125 65.0276 4.78866 65.9254 4.81033C67.1603 4.79153 68.3698 5.16207 69.3822 5.86937C70.1619 6.42255 70.8087 7.14231 71.2756 7.97645L71.5176 8.40698H76.5048C76.2336 7.19269 75.7438 6.03787 75.0593 4.99888C74.5918 4.3013 74.0525 3.6546 73.4503 3.06936C73.0593 2.69046 72.6424 2.33922 72.2027 2.01818C70.378 0.683605 68.1702 -0.0242069 65.9097 0.000661177C64.3782 -0.0161916 62.8603 0.289301 61.4545 0.897296C60.0488 1.50529 58.7867 2.40219 57.7501 3.52974C55.5959 5.82419 54.3967 8.85321 54.3967 12.0005C54.3967 15.1477 55.5959 18.1768 57.7501 20.4712C58.7884 21.5994 60.0525 22.4965 61.4601 23.1042C62.8678 23.712 64.3876 24.0167 65.9207 23.9987C68.0922 24.0412 70.842 23.0198 72.0157 21.2804V23.7536H76.8505V12.2833C76.8509 11.7594 76.6448 11.2564 76.277 10.8833C76.0975 10.6992 75.883 10.5529 75.646 10.453C75.4091 10.3531 75.1546 10.3018 74.8974 10.3019H74.9037Z" fill="white"/>
<rect x="79.996" y="0.20459" width="4.88526" height="23.5911" fill="white"/>
<rect x="79.996" y="0.20459" width="4.88526" height="23.5911" fill="white"/>
<path d="M104.069 0.20932H103.766V17.0031L95.4276 1.71597C95.2262 1.26708 94.9016 0.884543 94.4915 0.612775C94.0899 0.345932 93.6183 0.203908 93.1361 0.204592H90.5058C89.8466 0.22805 89.2234 0.511324 88.7722 0.99259C88.2903 1.50403 88.0235 2.18111 88.0268 2.88379V23.7925H92.925V6.67563L101.375 22.278C101.581 22.7271 101.909 23.1094 102.321 23.3812C102.723 23.6494 103.195 23.7936 103.678 23.7957H106.13C106.468 23.7932 106.802 23.7221 107.112 23.5866C107.421 23.4512 107.7 23.2542 107.932 23.0077C108.413 22.4962 108.68 21.8192 108.677 21.1165V0.210895H104.081L104.069 0.20932Z" fill="white"/>
</svg>
