<svg xmlns="http://www.w3.org/2000/svg" xmlns:xlink="http://www.w3.org/1999/xlink" width="140" height="140" viewBox="0 0 140 140">
    <defs>
        <linearGradient id="lkemzwud1a" x1="50.968%" x2="41.008%" y1="79.399%" y2="-12.429%">
            <stop offset=".058%" stop-color="#FFF"/>
            <stop offset="100%" stop-color="#1E313F"/>
        </linearGradient>
        <linearGradient id="y7qsgohxtb" x1="48.217%" x2="58.076%" y1="17.731%" y2="112.387%">
            <stop offset=".058%" stop-color="#FFF"/>
            <stop offset="99.67%" stop-color="#4E5A64"/>
        </linearGradient>
        <path id="xm374i83gc" d="M0 0L26.635 0 26.635 26.635 0 26.635z"/>
    </defs>
    <g fill="none" fill-rule="evenodd">
        <g fill-rule="nonzero">
            <ellipse cx="69.885" cy="70.117" fill="#1E313F" rx="69.654" ry="69.653" transform="rotate(-.192 69.885 70.117)"/>
            <path fill="#FFF" d="M113.446 113.33c23.893-24.066 23.777-62.884-.289-86.776C89.091 2.66 50.273 2.777 26.38 26.843l87.066 86.488z" opacity=".2"/>
            <g>
                <path fill="url(#lkemzwud1a)" d="M8.856 67.9c-.656-.722-1.246-1.575-1.836-2.362-.263-.328-.46-.656-.722-1.05-.066-.066-.131-.131-.131-.262l-.59-.985c-.066-.13-.132-.196-.198-.328-.196-.328-.393-.656-.524-.984l-.197-.393c-.197-.328-.328-.656-.525-.984l-.197-.394c-.131-.328-.328-.656-.459-.984l-.197-.394c-.131-.328-.262-.721-.46-1.05 0-.065-.065-.13-.065-.196-.328-.787-.59-1.64-.853-2.493 0-.066-.065-.131-.065-.197-.066-.328-.197-.59-.263-.918-.065-.263-.13-.46-.196-.722-.066-.262-.132-.59-.197-.853l-.197-.787c-.066-.262-.131-.525-.131-.787-.066-.263-.131-.59-.131-.853-.066-.262-.066-.525-.132-.787-.065-.328-.065-.656-.13-.919 0-.262-.066-.524-.066-.787-.066-.328-.066-.656-.132-1.05 0-.262-.065-.459-.065-.721 0-.394-.066-.787-.066-1.181v-.59c0-.59-.065-1.181-.065-1.772 0-.59 0-1.18.065-1.705v-.525c0-.394.066-.788.066-1.181 0-.197 0-.394.065-.59 0-.394.066-.788.132-1.116 0-.197.065-.393.065-.59.066-.46.131-.919.197-1.312 0-.132 0-.197.066-.328.065-.525.196-1.05.262-1.64 0-.197.066-.328.131-.525.066-.394.131-.722.263-1.115.065-.197.065-.394.13-.59.066-.329.198-.657.263-.985l.197-.59c.131-.328.197-.722.328-1.05.066-.131.131-.328.131-.46.197-.458.328-.983.525-1.443.066-.13.131-.328.197-.459l.394-.984c.065-.197.196-.393.262-.59.131-.263.262-.59.394-.853.065-.197.196-.394.262-.59.131-.263.262-.59.46-.853.065-.197.196-.328.262-.525.262-.46.459-.853.721-1.247-.525 1.968-.787 4.068-.787 6.364 0 7.741 3.28 13.645 9.775 17.647.328 6.954 2.362 12.465 5.839 16.007L8.856 67.9z" transform="translate(36.074 27.975)"/>
                <path fill="url(#y7qsgohxtb)" d="M46.578 26.176c2.034 3.017 3.28 6.888 3.74 11.48 1.64.787 3.149 1.706 4.395 2.69 4.79 3.74 7.282 9.25 7.282 16.204 0 .853-.066 1.706-.131 2.493v-.066c.262-.59.459-1.115.656-1.705.065-.132.131-.328.197-.46.13-.393.262-.852.393-1.246l.197-.59.197-.788c.065-.328.197-.656.262-.984l.197-.787c.066-.262.131-.59.197-.853.066-.197.066-.394.131-.59.066-.46.197-.919.263-1.312 0-.197.065-.328.065-.525.066-.46.131-.984.197-1.443 0-.132 0-.197.066-.329.065-.459.065-.918.13-1.377v-.328c.066-.525.066-1.05.066-1.575v-.328-1.705c0-.59 0-1.247-.065-1.837v-.59c0-.394-.066-.788-.066-1.247 0-.263-.065-.46-.065-.722 0-.328-.066-.721-.132-1.05 0-.262-.065-.524-.065-.721-.066-.328-.066-.656-.131-.984-.066-.263-.066-.525-.132-.787-.065-.328-.13-.656-.196-.919-.066-.262-.132-.525-.132-.787-.065-.328-.13-.59-.197-.918l-.196-.788c-.066-.262-.132-.59-.263-.853-.065-.262-.13-.524-.197-.787-.065-.262-.196-.525-.262-.853-.066-.262-.197-.524-.262-.787-.066-.262-.197-.525-.263-.787-.065-.263-.197-.525-.262-.787-.131-.263-.197-.525-.328-.788-.131-.262-.197-.524-.328-.787-.131-.262-.197-.459-.328-.721-.131-.263-.263-.525-.328-.722-.131-.263-.263-.46-.394-.722-.131-.262-.262-.459-.393-.721-.132-.197-.263-.46-.394-.656-.131-.263-.263-.46-.394-.722-.13-.197-.262-.394-.393-.656-.46-.656-.853-1.312-1.378-1.968-.328-.46-.656-.853-1.05-1.312l-9.906 10.103z" transform="translate(36.074 27.975)"/>
                <path fill="#FFF" d="M39.428 35.623c-.722-.132-1.378-.263-2.034-.394-8.791-1.771-15.22-3.018-15.22-9.185 0-3.805 3.74-6.822 10.496-6.822 5.97 0 10.76 2.427 13.908 7.02.263.393.525.787.722 1.18-.263-.393-.46-.787-.722-1.18l9.972-10.038c-3.805-4.527-8.66-7.676-14.17-9.381-.722-.197-1.51-.394-2.296-.59h-.066c-.46-.066-.919-.198-1.378-.263C38.51 2.69 35.885.13 32.605.13c-3.28 0-5.905 2.624-6.036 5.839-.59.131-1.18.197-1.771.328h-.066C18.5 7.74 13.121 11.02 8.922 15.942c-1.771 2.952-2.624 6.494-2.624 10.627 0 14.04 10.562 18.5 20.927 20.993 1.903.46 3.805.788 5.642 1.116 6.495 1.18 12.071 2.164 12.071 8.003 0 3.608-4.002 8.135-12.333 8.135-4.986 0-9.053-1.64-12.006-4.79l.066.067-11.874 7.74c1.64 1.903 3.411 3.543 5.314 4.987.656.459 1.312.918 1.968 1.312.656.393 1.377.787 2.033 1.115h.066c.656.328 1.378.656 2.1.984.065 0 .065 0 .13.065l2.165.788c.066 0 .066 0 .132.065.328.132.656.197.984.328h.131c.394.132.722.197 1.115.263.066 0 .131 0 .131.065l.984.197c.066 0 .132 0 .197.066.066 0 .197 0 .263.065 0 3.346 2.69 6.036 6.035 6.036 3.346 0 6.036-2.69 6.036-6.036.393-.065.787-.13 1.18-.262h.132c.918-.197 1.771-.46 2.624-.722.46-.13.853-.262 1.312-.459 4.789-1.771 9.053-4.723 12.465-8.79 1.312-1.51 2.427-3.15 3.476-4.92.525-1.903.788-4.068.788-6.299.197-15.023-11.218-19.156-21.124-21.058z" transform="translate(36.074 27.975)"/>
            </g>
        </g>
        <g transform="translate(96 2)">
            <mask id="euebfph2yd" fill="#fff">
                <use xlink:href="#xm374i83gc"/>
            </mask>
            <path fill="#FFF" d="M26.635 13.317c-9.718 0-13.317 3.168-13.317 13.319 0-10.15-3.6-13.319-13.318-13.319 9.718 0 13.318-3.167 13.318-13.317 0 10.15 3.6 13.317 13.317 13.317" mask="url(#euebfph2yd)"/>
        </g>
    </g>
</svg>
