<svg xmlns="http://www.w3.org/2000/svg" width="168" height="161" viewBox="0 0 168 161">
    <defs>
        <linearGradient id="qyyziw217b" x1="51.329%" x2="41.611%" y1="79.552%" y2="-11.852%">
            <stop offset=".058%" stop-color="#FFF"/>
            <stop offset="100%" stop-color="#1E313F"/>
        </linearGradient>
        <linearGradient id="dwtp8g4r3c" x1="47.972%" x2="58.111%" y1="17.01%" y2="112.061%">
            <stop offset=".058%" stop-color="#FFF"/>
            <stop offset="99.67%" stop-color="#4E5A64"/>
        </linearGradient>
        <radialGradient id="27f8y7d2qa" cx="49.585%" cy="50.137%" r="55.043%" fx="49.585%" fy="50.137%">
            <stop offset=".136%" stop-color="#C0C5C9"/>
            <stop offset="100%" stop-color="#1E313F" stop-opacity="0"/>
        </radialGradient>
    </defs>
    <g fill="none" fill-rule="evenodd">
        <g>
            <g>
                <g>
                    <g>
                        <g>
                            <g>
                                <g>
                                    <g fill-rule="nonzero" transform="translate(-961 -207) translate(250 197) translate(650) translate(10 10) translate(52 -53) translate(41.079 68.138)">
                                        <circle cx="42.122" cy="41.991" r="41.991" fill="url(#27f8y7d2qa)"/>
                                        <g transform="translate(20.865 20.54)">
                                            <ellipse cx="21.257" cy="21.452" fill="#1E313F" rx="21.126" ry="21.094" transform="rotate(-.192 21.257 21.452)"/>
                                            <path fill="#FFF" d="M34.46 34.558c7.238-7.27 7.205-19.04-.097-26.277C27.06 1.043 15.29 1.076 8.02 8.379l26.44 26.18z" opacity=".2"/>
                                            <g>
                                                <path fill="#FAFBFC" d="M10.628 10.302c-.195-.032-.358-.065-.554-.098-2.347-.456-4.043-.815-4.043-2.445 0-1.01.978-1.825 2.772-1.825 1.597 0 2.869.652 3.684 1.858l.13.032 2.543-2.608V5.12c-1.01-1.207-2.282-2.054-3.75-2.478-.195-.065-.39-.098-.619-.163h-.032c-.066 0-.13-.033-.229-.033V.13H7.042v2.315c-.098.033-.228.033-.326.065h-.033c-1.662.392-3.064 1.24-4.205 2.543-.457.783-.717 1.728-.717 2.804 0 3.717 2.803 4.89 5.574 5.575.522.13 1.011.228 1.5.293 1.728.326 3.195.587 3.195 2.12 0 .945-1.043 2.151-3.26 2.151-1.304 0-2.38-.424-3.162-1.239-.033-.032-.098-.097-.163-.13l-3 2.087v.097c.424.49.913.946 1.402 1.304.163.13.359.229.522.36.163.097.358.195.554.292h.033c.195.098.358.163.554.261h.032l.587.196h.033c.098.033.163.065.26.065h.033c.098.033.196.065.294.065h.032c.098.033.163.033.261.066v2.314h3.488V21.42c.066 0 .13-.033.196-.033h.033c.228-.065.489-.13.717-.196.13-.032.228-.065.359-.13 1.271-.457 2.412-1.239 3.325-2.347.359-.392.652-.848.913-1.305.13-.521.195-1.075.195-1.662.033-3.847-2.999-4.923-5.64-5.445z" transform="translate(12.389 9.455)"/>
                                                <path fill="url(#qyyziw217b)" d="M2.51 18.844c-.163-.196-.326-.424-.489-.62-.065-.097-.13-.195-.195-.26 0-.033-.033-.033-.033-.065-.065-.098-.098-.164-.163-.261-.033-.033-.033-.066-.065-.098-.065-.098-.098-.163-.13-.26-.033-.034-.033-.066-.066-.099-.032-.098-.098-.163-.13-.26-.033-.033-.033-.066-.065-.098-.033-.098-.098-.163-.13-.261 0-.033-.033-.065-.033-.098-.033-.098-.066-.196-.13-.293 0-.033 0-.033-.033-.066-.066-.228-.163-.423-.229-.652 0-.032 0-.032-.032-.065-.033-.065-.033-.163-.065-.228-.033-.065-.033-.13-.066-.196-.032-.065-.032-.163-.065-.228 0-.065-.032-.13-.032-.228 0-.065-.033-.13-.033-.228 0-.066-.033-.163-.033-.229 0-.065-.032-.13-.032-.195 0-.098-.033-.163-.033-.261 0-.065-.032-.13-.032-.196 0-.097-.033-.195-.033-.26v-.196c0-.098 0-.196-.033-.293v-.163-.457-.456-.13c0-.098 0-.196.033-.327v-.163c0-.098.033-.195.033-.293 0-.065 0-.098.032-.163 0-.13.033-.228.033-.359v-.098c.032-.13.032-.293.065-.423 0-.033.033-.098.033-.13.032-.099.032-.196.065-.294 0-.065.032-.098.032-.163.033-.098.033-.163.066-.261 0-.065.032-.098.032-.163.033-.098.065-.196.098-.26 0-.033.033-.099.033-.131.032-.13.097-.261.13-.392 0-.032.033-.065.033-.13.032-.098.065-.163.097-.26.033-.066.033-.099.066-.164.032-.065.065-.163.097-.228.033-.065.066-.098.066-.163.032-.065.065-.163.13-.228.033-.033.033-.098.065-.13.065-.098.13-.229.196-.327-.13.522-.196 1.076-.196 1.696 0 2.054.88 3.619 2.576 4.662.098 1.858.62 3.293 1.565 4.238l-3 2.054z" transform="translate(12.389 9.455)"/>
                                                <path fill="url(#dwtp8g4r3c)" d="M12.552 7.824c.554.783.88 1.794 1.01 3.032.424.196.815.457 1.174.718 1.272 1.01 1.924 2.445 1.924 4.303 0 .228 0 .457-.033.652.065-.163.13-.293.196-.456 0-.033.032-.098.032-.13.033-.098.065-.229.098-.327.033-.065.033-.097.065-.163.033-.065.033-.13.065-.195.033-.098.066-.163.066-.261.032-.065.032-.13.065-.196.032-.065.032-.163.065-.228 0-.065.033-.098.033-.163.032-.13.032-.228.065-.359 0-.032 0-.097.032-.13.033-.13.033-.26.066-.391v-.065c0-.13.032-.229.032-.359v-.098c0-.13.033-.293.033-.424v-.097-.457-.489-.163c0-.098 0-.228-.033-.326 0-.065 0-.13-.032-.196 0-.097-.033-.195-.033-.293 0-.065-.033-.13-.033-.196 0-.097-.032-.163-.032-.26 0-.066-.033-.13-.033-.196 0-.098-.032-.163-.032-.26 0-.066-.033-.131-.033-.196-.033-.066-.033-.163-.065-.229-.033-.065-.033-.13-.065-.195-.033-.065-.033-.163-.066-.228-.032-.066-.032-.13-.065-.196-.032-.065-.032-.163-.065-.228s-.033-.13-.065-.196c-.033-.065-.065-.13-.065-.196-.033-.065-.066-.13-.066-.195l-.097-.196-.098-.195-.098-.196-.098-.196-.098-.195-.097-.196c-.033-.065-.066-.13-.098-.163l-.098-.195c-.033-.066-.065-.098-.098-.163-.13-.163-.228-.359-.358-.522-.098-.13-.196-.228-.294-.359l-2.673 2.608z" transform="translate(12.389 9.455)"/>
                                            </g>
                                        </g>
                                    </g>
                                    <g stroke="#FFF" opacity=".6">
                                        <path stroke-width=".163" d="M54.902 195.09c-2.38-1.5-4.727-2.934-6.977-4.303-9.226-5.64-18.811-11.476-27.386-20.441-6.716-7.01-11.867-14.997-15.29-23.735-3.423-8.704-5.184-18.126-5.184-28.037V26.929h51.87L83.233.293l31.298 26.636h51.87v91.645c0 9.91-1.728 19.365-5.184 28.037-3.456 8.738-8.607 16.725-15.29 23.735-8.575 8.998-18.16 14.8-27.386 20.441-2.25 1.37-4.597 2.804-6.977 4.303L83.233 212.99 54.902 195.09z" opacity=".1" transform="translate(-961 -207) translate(250 197) translate(650) translate(10 10) translate(52 -53)"/>
                                        <path stroke-width=".203" d="M2.576 29.44c.326 0 49.978 0 50.24-.098.162-.065 30.189-25.528 30.417-25.723.228.195 30.222 25.658 30.385 25.723.26.098 49.914.098 50.24.098v89.134c0 9.617-1.696 18.746-5.021 27.157-3.358 8.444-8.346 16.17-14.866 22.952-8.314 8.672-17.573 14.312-26.539 19.822-2.184 1.337-4.433 2.706-6.748 4.173-.13.098-27.288 17.214-27.451 17.344-.163-.098-27.32-17.246-27.45-17.344-2.316-1.467-4.565-2.836-6.75-4.173-8.998-5.477-18.224-11.15-26.538-19.822-6.52-6.781-11.54-14.508-14.899-22.952-3.325-8.411-5.02-17.54-5.02-27.157V29.44z" opacity=".143" transform="translate(-961 -207) translate(250 197) translate(650) translate(10 10) translate(52 -53)"/>
                                        <path stroke-width=".242" d="M5.119 31.95c.684 0 48.087 0 48.642-.228.358-.13 29.048-24.452 29.505-24.81.423.358 29.146 24.68 29.504 24.81.522.195 47.958.228 48.643.228v86.59c0 9.325-1.63 18.16-4.858 26.278-3.26 8.183-8.118 15.617-14.443 22.202-8.02 8.346-16.985 13.823-25.69 19.17-2.12 1.304-4.304 2.64-6.52 4.043-.294.163-26.245 16.562-26.571 16.79-.359-.228-26.31-16.595-26.57-16.758-2.25-1.401-4.435-2.738-6.521-4.042-8.835-5.347-17.801-10.824-25.821-19.17-6.325-6.553-11.183-14.02-14.443-22.202-3.227-8.118-4.857-16.953-4.857-26.31V31.95z" opacity=".186" transform="translate(-961 -207) translate(250 197) translate(650) translate(10 10) translate(52 -53)"/>
                                        <path stroke-width=".282" d="M7.629 34.493c1.01 0 46.23-.033 47.012-.326.522-.196 27.94-23.376 28.592-23.93.652.554 28.038 23.702 28.592 23.93.782.326 46.001.326 47.012.326v84.08c0 9.031-1.597 17.573-4.727 25.43-3.163 7.89-7.857 15.095-13.987 21.42-7.726 8.02-16.398 13.334-24.875 18.518-2.054 1.238-4.173 2.543-6.325 3.912-.423.26-25.201 15.877-25.69 16.203-.522-.326-25.267-15.942-25.69-16.203-2.152-1.37-4.271-2.64-6.325-3.912-8.477-5.184-17.116-10.498-24.876-18.518-6.129-6.358-10.823-13.563-13.986-21.452-3.13-7.825-4.727-16.367-4.727-25.43V34.493z" opacity=".229" transform="translate(-961 -207) translate(250 197) translate(650) translate(10 10) translate(52 -53)"/>
                                        <path stroke-width=".322" d="M10.172 37.003c1.337 0 44.339-.032 45.414-.456.718-.294 26.8-22.3 27.68-23.017.88.75 26.961 22.723 27.679 23.017 1.076.424 44.078.456 45.414.456v81.538c0 8.737-1.532 16.986-4.564 24.55-3.065 7.596-7.596 14.54-13.562 20.669-7.466 7.694-15.812 12.845-24.028 17.866-1.989 1.206-4.01 2.445-6.097 3.782-.554.358-24.125 15.225-24.842 15.649-.685-.424-24.256-15.29-24.81-15.65-2.087-1.303-4.141-2.575-6.097-3.781-8.216-5.02-16.562-10.14-24.028-17.866-5.933-6.13-10.498-13.04-13.562-20.67-3.032-7.563-4.565-15.78-4.565-24.55V37.004h-.032z" opacity=".271" transform="translate(-961 -207) translate(250 197) translate(650) translate(10 10) translate(52 -53)"/>
                                        <path stroke-width=".362" d="M12.682 39.546c1.663 0 42.448-.032 43.785-.554.88-.359 25.657-21.191 26.766-22.104 1.076.913 25.853 21.778 26.766 22.104 1.337.522 42.122.554 43.785.554v79.028c0 8.476-1.5 16.398-4.402 23.669-2.934 7.335-7.368 13.986-13.106 19.887-7.172 7.368-15.225 12.356-23.18 17.214-1.89 1.173-3.88 2.38-5.9 3.619-.718.423-23.083 14.54-23.963 15.094-.848-.554-23.245-14.638-23.963-15.094-2.02-1.272-3.977-2.478-5.9-3.62-7.955-4.857-16.008-9.812-23.18-17.213-5.771-5.901-10.172-12.552-13.107-19.887-2.934-7.27-4.4-15.193-4.4-23.67V39.547z" opacity=".314" transform="translate(-961 -207) translate(250 197) translate(650) translate(10 10) translate(52 -53)"/>
                                        <path stroke-width=".402" d="M15.225 42.057c2.021 0 40.59-.033 42.187-.652 1.076-.424 24.55-20.116 25.854-21.224 1.304 1.108 24.777 20.8 25.853 21.224 1.597.619 40.166.652 42.187.652v76.484c0 8.183-1.435 15.812-4.238 22.789-2.837 7.042-7.108 13.432-12.682 19.137-6.88 7.075-14.639 11.835-22.333 16.562-1.826 1.108-3.716 2.282-5.673 3.488-.847.522-22.039 13.889-23.082 14.54-1.043-.651-22.202-13.985-23.082-14.54-1.924-1.206-3.847-2.38-5.673-3.488-7.694-4.727-15.453-9.487-22.332-16.562-5.575-5.673-9.846-12.063-12.682-19.105-2.837-6.976-4.239-14.605-4.239-22.788V42.057h-.065z" opacity=".357" transform="translate(-961 -207) translate(250 197) translate(650) translate(10 10) translate(52 -53)"/>
                                        <path stroke-width=".442" d="M17.735 44.6c2.348 0 38.7-.066 40.557-.783 1.24-.489 23.409-19.04 24.941-20.31 1.5 1.27 23.669 19.821 24.94 20.31 1.859.717 38.21.783 40.557.783v73.974c0 7.89-1.369 15.225-4.107 21.908-2.739 6.781-6.88 12.91-12.259 18.355-6.618 6.749-14.051 11.346-21.485 15.91-1.76 1.076-3.586 2.184-5.444 3.358-1.01.62-20.996 13.204-22.202 13.954-1.206-.75-21.191-13.367-22.202-13.954-1.858-1.174-3.684-2.282-5.445-3.358-7.433-4.564-14.899-9.161-21.484-15.91-5.38-5.444-9.487-11.574-12.259-18.355-2.706-6.716-4.108-14.019-4.108-21.908V44.6z" opacity=".4" transform="translate(-961 -207) translate(250 197) translate(650) translate(10 10) translate(52 -53)"/>
                                        <path stroke-width=".482" d="M20.278 47.11c2.674 0 36.808-.065 38.96-.88 1.434-.555 22.3-17.931 24.028-19.399 1.727 1.468 22.593 18.844 24.027 19.399 2.12.815 36.254.88 38.96.88v71.43c0 7.597-1.337 14.607-3.945 21.03-2.64 6.487-6.618 12.355-11.802 17.572-6.325 6.422-13.465 10.856-20.67 15.257-1.695 1.044-3.456 2.12-5.249 3.228-1.14.685-19.952 12.552-21.321 13.4-1.37-.88-20.181-12.715-21.322-13.4-1.793-1.141-3.554-2.184-5.25-3.228-7.172-4.4-14.344-8.835-20.669-15.257-5.183-5.217-9.16-11.085-11.802-17.573-2.608-6.422-3.945-13.432-3.945-21.028V47.11z" opacity=".443" transform="translate(-961 -207) translate(250 197) translate(650) translate(10 10) translate(52 -53)"/>
                                        <path stroke-width=".522" d="M22.789 49.653c3 0 34.95-.065 37.33-1.01 1.597-.62 21.158-16.856 23.114-18.519 1.956 1.663 21.485 17.899 23.115 18.518 2.38.946 34.33 1.01 37.33 1.01v68.922c0 7.302-1.272 14.018-3.783 20.148-2.543 6.227-6.39 11.802-11.378 16.822-6.064 6.097-12.878 10.368-19.822 14.606-1.63 1.01-3.293 2.021-5.02 3.097-1.272.783-18.877 11.867-20.442 12.845-1.532-.978-19.137-12.062-20.442-12.845-1.727-1.076-3.39-2.119-5.02-3.097-6.912-4.238-13.758-8.51-19.822-14.606-4.988-5.02-8.803-10.595-11.378-16.822-2.51-6.13-3.782-12.878-3.782-20.181V49.653z" opacity=".486" transform="translate(-961 -207) translate(250 197) translate(650) translate(10 10) translate(52 -53)"/>
                                        <path stroke-width=".561" d="M25.332 52.196c3.358 0 33.058-.065 35.699-1.109 1.793-.684 20.018-15.779 22.202-17.605 2.152 1.826 20.409 16.92 22.202 17.605 2.64 1.044 32.374 1.109 35.7 1.109v66.378c0 7.009-1.24 13.432-3.652 19.267-2.445 5.934-6.13 11.248-10.922 16.04-5.77 5.771-12.29 9.879-18.974 13.954-1.565.946-3.163 1.924-4.793 2.967-1.434.88-17.833 11.182-19.561 12.291-1.728-1.076-18.127-11.41-19.561-12.291-1.63-1.043-3.26-2.021-4.793-2.967-6.683-4.108-13.204-8.183-18.974-13.953-4.793-4.793-8.477-10.107-10.922-16.04-2.412-5.836-3.651-12.292-3.651-19.301V52.196z" opacity=".529" transform="translate(-961 -207) translate(250 197) translate(650) translate(10 10) translate(52 -53)"/>
                                        <path stroke-width=".601" d="M27.875 54.706c3.684 0 31.167-.098 34.101-1.239 1.957-.782 18.91-14.703 21.29-16.725 2.38 2.022 19.3 15.943 21.289 16.725 2.934 1.141 30.417 1.24 34.101 1.24v63.867c0 6.716-1.173 12.845-3.488 18.42-2.347 5.672-5.901 10.726-10.498 15.29-5.477 5.445-11.737 9.357-18.127 13.302-1.467.913-2.999 1.858-4.596 2.836-1.565.946-16.79 10.53-18.681 11.704-1.891-1.206-17.116-10.758-18.681-11.704-1.565-.978-3.098-1.923-4.597-2.836-6.423-3.945-12.65-7.857-18.127-13.302-4.597-4.564-8.15-9.618-10.498-15.29-2.315-5.575-3.488-11.704-3.488-18.42V54.706h0z" opacity=".571" transform="translate(-961 -207) translate(250 197) translate(650) translate(10 10) translate(52 -53)"/>
                                        <path stroke-width=".641" d="M30.385 57.25c4.01 0 29.31-.099 32.472-1.338 2.151-.847 17.768-13.595 20.376-15.812 2.608 2.217 18.224 14.965 20.376 15.812 3.195 1.24 28.462 1.337 32.472 1.337v61.325c0 6.422-1.109 12.258-3.326 17.54-2.25 5.379-5.64 10.171-10.041 14.507-5.184 5.119-11.15 8.868-17.28 12.65-1.4.88-2.868 1.76-4.368 2.706-1.695 1.043-15.747 9.846-17.8 11.15-2.054-1.304-16.073-10.107-17.801-11.15-1.5-.946-2.967-1.826-4.369-2.706-6.162-3.782-12.095-7.531-17.279-12.65-4.401-4.336-7.792-9.128-10.074-14.508-2.217-5.281-3.325-11.117-3.325-17.54V57.25h-.033z" opacity=".614" transform="translate(-961 -207) translate(250 197) translate(650) translate(10 10) translate(52 -53)"/>
                                        <path stroke-width=".681" d="M32.928 59.76c4.336 0 27.418-.098 30.874-1.435 2.315-.913 16.627-12.52 19.464-14.9 2.803 2.38 17.116 13.987 19.463 14.9 3.456 1.337 26.505 1.435 30.874 1.435v58.814c0 6.129-1.076 11.671-3.162 16.66-2.152 5.085-5.412 9.617-9.618 13.757-4.923 4.793-10.563 8.379-16.464 11.998-1.337.815-2.738 1.662-4.14 2.575-1.859 1.141-14.704 9.194-16.92 10.596-2.218-1.402-15.063-9.455-16.921-10.596-1.435-.88-2.804-1.728-4.14-2.575-5.902-3.619-11.542-7.205-16.465-11.998-4.238-4.108-7.466-8.64-9.617-13.758-2.12-4.988-3.163-10.53-3.163-16.66V59.76h-.065z" opacity=".657" transform="translate(-961 -207) translate(250 197) translate(650) translate(10 10) translate(52 -53)"/>
                                        <path stroke-width=".721" d="M35.438 62.302c4.695 0 25.528-.097 29.244-1.564 2.51-.978 15.519-11.444 18.551-14.02 3.032 2.576 16.04 13.042 18.55 14.02 3.717 1.434 24.582 1.564 29.245 1.564v56.272c0 5.835-1.011 11.084-3.032 15.779-2.054 4.825-5.152 9.096-9.194 12.976-4.63 4.466-9.976 7.89-15.617 11.345-1.271.782-2.575 1.598-3.944 2.413-1.99 1.206-13.628 8.509-16.04 10.041-2.413-1.5-14.052-8.803-16.04-10.041-1.338-.848-2.674-1.63-3.946-2.413-5.64-3.488-10.987-6.879-15.616-11.345-4.043-3.913-7.14-8.151-9.194-12.976-1.989-4.695-3.032-9.944-3.032-15.78v-56.27h.065z" opacity=".7" transform="translate(-961 -207) translate(250 197) translate(650) translate(10 10) translate(52 -53)"/>
                                        <path stroke-width=".761" d="M37.981 64.813c5.021 0 23.67-.13 27.647-1.663 2.673-1.043 14.377-10.335 17.638-13.106 3.227 2.771 14.931 12.063 17.637 13.106 3.978 1.565 22.626 1.663 27.647 1.663v53.728c0 5.542-.978 10.465-2.87 14.9-1.955 4.53-4.89 8.54-8.737 12.225-4.336 4.173-9.389 7.4-14.768 10.726-1.207.75-2.445 1.5-3.717 2.282-2.152 1.304-12.584 7.857-15.16 9.455-2.575-1.63-13.04-8.15-15.16-9.455-1.271-.782-2.51-1.565-3.716-2.282-5.38-3.326-10.433-6.553-14.77-10.694-3.846-3.684-6.78-7.661-8.736-12.225-1.891-4.434-2.87-9.357-2.87-14.9v-53.76h-.065z" opacity=".743" transform="translate(-961 -207) translate(250 197) translate(650) translate(10 10) translate(52 -53)"/>
                                        <path stroke-width=".801" d="M40.492 67.356c5.346 0 21.778-.13 26.016-1.793 2.87-1.109 13.27-9.26 16.725-12.193 3.456 2.934 13.856 11.084 16.725 12.193 4.238 1.662 20.67 1.793 26.016 1.793v51.218c0 5.281-.913 9.878-2.706 14.018-1.858 4.271-4.662 7.988-8.313 11.444-4.076 3.847-8.803 6.879-13.921 10.074-1.141.684-2.315 1.402-3.489 2.151-2.282 1.402-11.54 7.173-14.28 8.9-2.738-1.727-11.997-7.498-14.28-8.9-1.205-.75-2.38-1.467-3.488-2.151-5.118-3.163-9.878-6.227-13.92-10.042-3.652-3.455-6.456-7.172-8.314-11.443-1.793-4.14-2.706-8.77-2.706-14.051V67.356h-.065z" opacity=".786" transform="translate(-961 -207) translate(250 197) translate(650) translate(10 10) translate(52 -53)"/>
                                        <path stroke-width=".841" d="M43.035 69.866c5.672 0 19.887-.13 24.419-1.89 3.032-1.174 12.128-8.184 15.812-11.314 3.684 3.13 12.747 10.107 15.812 11.313 4.499 1.76 18.713 1.891 24.418 1.891v48.675c0 4.988-.88 9.292-2.542 13.139-1.761 3.977-4.402 7.465-7.858 10.693-3.781 3.521-8.215 6.39-13.106 9.422-1.075.652-2.151 1.337-3.292 2.021-2.413 1.5-10.498 6.52-13.4 8.346-2.901-1.825-10.987-6.846-13.4-8.346-1.14-.684-2.216-1.369-3.292-2.021-4.858-3-9.324-5.901-13.073-9.422-3.456-3.228-6.13-6.683-7.858-10.66-1.695-3.848-2.575-8.184-2.575-13.172V69.866h-.065z" opacity=".829" transform="translate(-961 -207) translate(250 197) translate(650) translate(10 10) translate(52 -53)"/>
                                        <path stroke-width=".88" d="M45.545 72.41c6.031 0 18.029-.131 22.789-1.99 3.227-1.239 10.987-7.107 14.899-10.4 3.88 3.293 11.671 9.129 14.9 10.368 4.792 1.858 16.79 1.988 22.788 1.988v46.165c0 4.695-.815 8.705-2.413 12.258-1.662 3.717-4.173 6.912-7.433 9.911-3.488 3.195-7.629 5.901-12.258 8.77-.978.62-2.022 1.24-3.065 1.891-2.575 1.565-9.454 5.836-12.519 7.792-3.097-1.956-9.976-6.194-12.52-7.792-1.042-.652-2.086-1.271-3.064-1.89-4.597-2.87-8.77-5.543-12.258-8.77-3.26-3-5.77-6.195-7.433-9.912-1.598-3.586-2.413-7.596-2.413-12.29v-46.1z" opacity=".871" transform="translate(-961 -207) translate(250 197) translate(650) translate(10 10) translate(52 -53)"/>
                                        <path stroke-width=".92" d="M48.088 74.92c6.357 0 16.138-.131 21.191-2.12 3.39-1.336 9.879-5.998 13.987-9.487 4.107 3.489 10.563 8.183 13.986 9.487 5.053 1.956 14.834 2.12 21.191 2.12v43.62c0 4.402-.75 8.119-2.25 11.412-1.564 3.423-3.912 6.357-7.009 9.128-3.195 2.902-7.042 5.412-11.41 8.118-.913.587-1.859 1.141-2.837 1.76-2.706 1.663-8.379 5.152-11.639 7.238-3.26-2.054-8.933-5.575-11.639-7.205-.978-.62-1.923-1.173-2.836-1.76-4.369-2.706-8.216-5.217-11.41-8.118-3.098-2.771-5.445-5.706-7.01-9.129-1.5-3.293-2.25-7.01-2.25-11.41V74.919h-.065z" opacity=".914" transform="translate(-961 -207) translate(250 197) translate(650) translate(10 10) translate(52 -53)"/>
                                        <path stroke-width=".96" d="M50.598 77.462c6.684 0 14.247-.163 19.562-2.217 3.586-1.401 8.737-4.922 13.073-8.606 4.336 3.684 9.487 7.205 13.073 8.606 5.315 2.087 12.878 2.217 19.562 2.217v41.112c0 4.107-.718 7.53-2.087 10.53-1.467 3.13-3.651 5.836-6.553 8.379-2.902 2.575-6.455 4.923-10.563 7.466-.848.521-1.728 1.075-2.64 1.63-2.837 1.76-7.336 4.499-10.76 6.65-3.423-2.151-7.922-4.922-10.758-6.65-.913-.555-1.793-1.109-2.64-1.63-4.109-2.543-7.662-4.89-10.564-7.466-2.902-2.543-5.118-5.217-6.553-8.379-1.402-3-2.086-6.423-2.086-10.53V77.462h-.066z" opacity=".957" transform="translate(-961 -207) translate(250 197) translate(650) translate(10 10) translate(52 -53)"/>
                                        <path d="M83.233 69.931c-11.28 9.618-18.355 10.042-30.092 10.042v38.568c0 15.388 10.726 19.398 30.092 31.657 19.398-12.259 30.092-16.269 30.092-31.657V79.973c-11.737 0-18.812-.424-30.092-10.042z" transform="translate(-961 -207) translate(250 197) translate(650) translate(10 10) translate(52 -53)"/>
                                    </g>
                                </g>
                            </g>
                        </g>
                    </g>
                </g>
            </g>
        </g>
    </g>
</svg>
