<svg xmlns="http://www.w3.org/2000/svg" width="206" height="21" viewBox="0 0 206 21">
    <g fill="none">
        <path fill="#1E313F" d="M101.042 20.41V.636h6.995c6.058 0 10.454 4.2 10.454 9.97 0 5.772-4.29 9.806-10.424 9.806h-7.025zm3.928-3.55h2.795c3.127 0 6.768-1.631 6.768-6.24 0-4.426-3.4-6.42-6.768-6.42h-2.795v12.66zm47.424 3.55v-3.565h-8.008V.635h-3.913V20.41h11.92zm13.974 0v-3.565h-8.007V.635h-3.913V20.41h11.92zm17.33 0l-1.255-3.459h-9.442l-1.254 3.46h-4.094L175.282.635h4.94l7.66 19.776h-4.185zM177.29 5.349c-.105.106-.105.106-.785 1.904l-.499 1.33-1.752 4.91h6.95l-1.753-4.88c-.272-.726-.514-1.375-.71-1.889-.484-1.284-.484-1.284-.574-1.39L178 5.167h-.543l-.167.181zm23.267 15.063l-3.898-6.89h-3.097v6.89h-3.913V.635h7.387c4.865 0 7.766 2.432 7.766 6.526 0 2.629-1.27 4.548-3.58 5.424l-.62.227 4.608 7.599h-4.653zm-6.995-9.79h3.792c2.16 0 3.414-1.179 3.414-3.233 0-2.115-1.254-3.324-3.43-3.324h-3.761v6.557h-.015zm-57.577-7.358c-1.662-1.979-3.988-3.021-6.708-3.021-2.719 0-5.03 1.042-6.707 3.021-1.572 1.859-2.433 4.442-2.433 7.267s.876 5.409 2.448 7.267c1.677 1.98 3.973 3.022 6.692 3.022 2.72 0 5.016-1.043 6.693-3.022 1.571-1.858 2.448-4.442 2.448-7.267s-.861-5.408-2.433-7.267zm-6.708 13.673c-3.157 0-5.015-2.402-5.015-6.406 0-1.843.377-3.339 1.118-4.442.876-1.284 2.22-1.964 3.897-1.964 1.677 0 3.022.68 3.898 1.964.74 1.103 1.118 2.6 1.118 4.442 0 4.004-1.858 6.406-5.016 6.406z"/>
        <path fill="#FFF" d="M31.334 20.41l-3.928-6.752h-3.218v6.753H20.26V.635h6.92c4.864 0 7.765 2.628 7.765 6.617 0 2.72-1.33 4.683-3.732 5.68l4.517 7.494h-4.396v-.015zm-7.146-10.257h3.505c2.175 0 3.188-1.42 3.188-2.916 0-1.556-1.043-2.931-3.188-2.931h-3.505v5.847zM37.543 20.41V.635h3.928V20.41h-3.928zm22.118-2.055c-1.073 1.209-3.414 2.463-5.983 2.463-5.68 0-10.258-4.321-10.258-10.289C43.42 4.563 47.998.242 53.678.242c3.928.03 7.207 2.07 8.99 5.227l-4.02 1.043c-1.072-1.466-3.02-2.403-4.97-2.403-3.701 0-6.164 2.66-6.164 6.421 0 3.928 2.72 6.436 6.391 6.436 3.384 0 5.167-1.858 5.786-3.384v-.846h-5.484V9.548h8.838v10.878h-3.384c0-1.632.03-2.04.03-2.07h-.03zm6.15 2.055V.635h3.927V20.41H65.81zM89.997.635V20.41h-3.702l-5.62-7.63c-1.782-2.432-3.958-5.544-3.988-5.544h-.03c-.03 0 .03 2.855.03 6.783v6.39H72.76V.636h3.701l5.741 7.72c1.36 1.782 3.838 5.318 3.868 5.318h.03c.03 0-.03-3.218-.03-6.557V.65h3.928V.635zM17.45 5.227L14.247 8.43c.12.635.196 1.33.196 2.085 0 4.049-1.903 6.466-5.091 6.466-1.33 0-2.448-.423-3.294-1.239l11.09-11.089c-.303-.529-.635-1.012-1.013-1.465-.166-.197-.332-.363-.498-.544-.015-.015-.046-.045-.076-.06l-.15-.152C13.793.937 11.723.136 9.35.136c-2.749 0-5.09 1.058-6.768 3.052C.997 5.06.121 7.66.121 10.515c0 1.889.393 3.671 1.103 5.212l3.218-3.218c-.106-.604-.166-1.269-.166-1.994 0-1.858.377-3.369 1.133-4.487.876-1.3 2.236-1.994 3.928-1.994 1.314 0 2.417.423 3.248 1.193L1.51 16.301c.302.56.65 1.073 1.057 1.541.076.091.167.182.242.272.09.106.196.197.287.303l.03.03.091.09c1.617 1.541 3.701 2.342 6.104 2.342 2.75 0 5.09-1.057 6.783-3.052 1.586-1.873 2.463-4.487 2.463-7.327.03-1.904-.363-3.717-1.118-5.273z"/>
        <g fill="#FFF" opacity=".15">
            <path d="M79.301.483h-4.94l-3.777 9.79h3.838l.664-1.858.499-1.33c.68-1.812.68-1.812.786-1.903l.166-.166h.544l.166.166c.106.106.106.106.574 1.39.196.514.438 1.163.71 1.888l.65 1.813h3.913L79.3.483zM96.101.483h-7.387v9.79h3.913V3.928h3.761c2.191 0 3.43 1.209 3.43 3.324 0 1.556-.725 2.613-2.024 3.021h5.197c.559-.906.86-1.994.86-3.263.016-4.08-2.885-6.527-7.75-6.527zM53.512.483H57.425V10.273H53.512zM7.116.483H.12v9.79h3.913V4.05h2.795c3.324 0 6.677 1.934 6.768 6.224h3.943C17.465 4.593 13.1.483 7.116.483zM35.065 3.112C33.404 1.133 31.077.091 28.358.091c-2.72 0-5.031 1.042-6.708 3.021-1.556 1.843-2.418 4.382-2.433 7.161h4.125c.015-1.797.393-3.263 1.118-4.336.876-1.284 2.22-1.964 3.898-1.964 1.677 0 3.021.68 3.897 1.964.726 1.073 1.103 2.539 1.118 4.336h4.125c-.03-2.78-.876-5.333-2.433-7.16zM39.537.483H43.449999999999996V10.273H39.537z" transform="translate(100.92 .151)"/>
        </g>
    </g>
</svg>
