<svg width="385" height="384" viewBox="0 0 385 384" fill="none" xmlns="http://www.w3.org/2000/svg">
<path d="M383.504 190.957C383.858 296.419 298.65 382.2 193.187 382.553C87.7249 382.907 1.94423 297.699 1.59082 192.237C1.23742 86.774 86.4452 0.993324 191.908 0.63992C297.37 0.286515 383.151 85.4942 383.504 190.957Z" fill="#030C17"/>
<path opacity="0.2" d="M311.97 310.226C377.473 244.247 377.156 137.826 311.177 72.323C245.199 6.82038 138.777 7.13758 73.2744 73.116L311.97 310.226Z" fill="white"/>
<path d="M210.465 174.463C208.562 174.145 206.817 173.67 205.072 173.352C181.599 168.594 164.629 165.264 164.629 148.928C164.629 138.777 174.621 130.688 192.543 130.688C208.562 130.688 221.25 137.191 229.497 149.403L230.766 149.721L256.301 123.551L256.142 122.6C245.992 110.546 233.145 102.14 218.395 97.6993C216.333 97.0649 214.43 96.5891 212.368 96.1133H212.209C211.416 95.9547 210.782 95.796 209.989 95.6374V72.4816H175.097V95.6374C173.986 95.796 172.876 96.1133 171.766 96.2719H171.607C155.113 100.237 140.68 108.801 129.419 121.965C124.661 129.895 122.282 139.412 122.282 150.355C122.282 187.785 150.513 199.68 178.11 206.342C183.185 207.61 188.261 208.562 193.177 209.355C210.465 212.527 225.373 215.223 225.373 230.766C225.373 240.441 214.747 252.495 192.543 252.495C179.379 252.495 168.594 248.054 160.664 239.965C160.188 239.489 159.554 239.014 159.078 238.538L128.943 259.473V260.583C133.226 265.659 137.984 270.1 143.059 273.906C144.804 275.175 146.548 276.285 148.293 277.395C148.293 277.395 148.293 277.395 148.451 277.395C150.196 278.505 152.099 279.457 153.844 280.409C153.844 280.409 154.003 280.409 154.003 280.567C155.906 281.519 157.65 282.312 159.554 283.105C159.712 283.105 159.712 283.105 159.871 283.264C161.774 284.057 163.677 284.691 165.58 285.325C165.739 285.325 165.898 285.325 165.898 285.484C166.849 285.801 167.642 285.96 168.594 286.277C168.753 286.277 168.753 286.277 168.911 286.277C169.863 286.594 170.814 286.753 171.925 287.07C172.083 287.07 172.242 287.07 172.4 287.229C173.193 287.387 174.145 287.546 174.938 287.704V310.86H209.83V287.704C210.465 287.546 211.099 287.546 211.734 287.387C211.892 287.387 211.892 287.387 212.051 287.387C214.43 286.911 216.809 286.277 219.188 285.484C220.298 285.167 221.567 284.691 222.677 284.374C235.524 279.616 246.785 271.686 255.984 260.901C259.473 256.777 262.486 252.495 265.182 247.737C266.61 242.661 267.244 236.952 267.244 230.925C267.403 190.64 236.951 179.696 210.465 174.463Z" fill="#FAFBFC"/>
<path d="M129.103 260.425C127.358 258.363 125.772 256.301 124.345 254.081C123.71 253.129 123.076 252.178 122.441 251.385C122.283 251.226 122.124 250.909 121.966 250.75C121.49 249.957 120.855 249.006 120.38 248.054C120.221 247.737 120.062 247.42 119.904 247.102C119.428 246.309 118.952 245.358 118.476 244.565C118.318 244.247 118.159 243.93 118.001 243.613C117.525 242.82 117.049 241.868 116.732 240.917C116.573 240.6 116.415 240.124 116.256 239.807C115.78 238.855 115.463 238.062 114.987 237.11C114.828 236.793 114.67 236.476 114.511 236C114.194 235.049 113.718 234.097 113.401 233.145C113.401 232.987 113.242 232.67 113.242 232.511C112.449 230.291 111.656 228.07 111.022 225.85C111.022 225.691 110.863 225.532 110.863 225.215C110.705 224.422 110.388 223.629 110.229 222.836C110.07 222.202 109.912 221.567 109.753 220.933C109.595 220.14 109.436 219.506 109.277 218.713C109.119 218.078 108.96 217.285 108.802 216.651C108.643 215.858 108.484 215.223 108.326 214.43C108.167 213.637 108.009 212.844 107.85 212.051C107.691 211.417 107.691 210.624 107.533 209.989C107.374 209.196 107.216 208.403 107.216 207.452C107.057 206.817 107.057 206.183 106.898 205.39C106.74 204.438 106.74 203.645 106.581 202.694C106.581 202.059 106.423 201.425 106.423 200.791C106.423 199.68 106.264 198.729 106.264 197.619C106.264 197.143 106.264 196.667 106.105 196.033C106.105 194.446 105.947 192.86 105.947 191.274C105.947 189.688 105.947 188.261 106.105 186.675C106.105 186.199 106.105 185.723 106.105 185.248C106.105 184.137 106.264 183.186 106.264 182.076C106.264 181.6 106.423 180.965 106.423 180.49C106.581 179.538 106.581 178.428 106.74 177.476C106.74 177 106.898 176.524 106.898 176.049C107.057 174.78 107.216 173.67 107.374 172.559C107.374 172.242 107.374 171.925 107.533 171.766C107.691 170.339 108.009 168.912 108.326 167.484C108.484 167.008 108.484 166.533 108.643 166.215C108.802 165.264 109.119 164.312 109.277 163.361C109.436 162.885 109.595 162.25 109.595 161.774C109.753 160.823 110.07 160.03 110.229 159.078C110.388 158.602 110.546 157.968 110.705 157.492C111.022 156.541 111.339 155.589 111.498 154.637C111.656 154.162 111.815 153.844 111.974 153.369C112.449 152.1 112.925 150.831 113.401 149.562C113.56 149.086 113.718 148.769 113.877 148.293C114.194 147.342 114.511 146.549 114.987 145.597C115.146 145.121 115.463 144.645 115.621 144.011C115.939 143.218 116.256 142.584 116.732 141.791C117.049 141.315 117.208 140.68 117.525 140.205C117.842 139.412 118.318 138.777 118.635 137.984C118.952 137.508 119.111 137.033 119.428 136.557C120.062 135.447 120.697 134.336 121.331 133.226C119.904 138.46 119.269 144.17 119.269 150.197C119.269 170.815 127.992 186.516 145.28 197.143C146.232 215.699 151.624 230.291 160.823 239.648L129.103 260.425Z" fill="url(#paint0_linear_298_1305)"/>
<path d="M229.656 149.403C235.049 157.492 238.538 167.643 239.807 179.855C244.248 181.917 248.054 184.296 251.543 186.992C264.39 196.984 270.893 211.575 270.893 230.132C270.893 232.352 270.734 234.573 270.576 236.793V236.635C271.21 235.207 271.844 233.621 272.32 232.035C272.479 231.559 272.637 231.242 272.796 230.766C273.113 229.656 273.589 228.546 273.906 227.436C274.065 226.96 274.223 226.325 274.382 225.85C274.541 225.215 274.858 224.422 275.016 223.788C275.334 222.836 275.492 222.043 275.809 221.092C275.968 220.457 276.127 219.664 276.285 219.03C276.444 218.237 276.602 217.444 276.761 216.651C276.92 216.175 276.92 215.54 277.078 215.065C277.237 213.954 277.554 212.686 277.713 211.575C277.713 211.1 277.871 210.624 277.871 210.148C278.03 208.879 278.189 207.61 278.347 206.342C278.347 206.024 278.347 205.866 278.506 205.549C278.664 204.28 278.823 203.17 278.823 201.901C278.823 201.584 278.823 201.266 278.982 200.949C279.14 199.522 279.14 198.094 279.299 196.667C279.299 196.35 279.299 196.032 279.299 195.715C279.299 194.288 279.457 192.702 279.457 191.274C279.457 189.688 279.457 188.102 279.299 186.358C279.299 185.882 279.299 185.406 279.14 184.772C279.14 183.661 278.982 182.551 278.982 181.6C278.982 180.965 278.823 180.331 278.823 179.696C278.664 178.745 278.664 177.793 278.506 176.842C278.506 176.207 278.347 175.573 278.189 174.78C278.03 173.828 278.03 173.035 277.871 172.084C277.713 171.449 277.713 170.656 277.554 170.022C277.395 169.229 277.237 168.277 277.078 167.484C276.92 166.85 276.761 166.057 276.602 165.422C276.444 164.629 276.285 163.836 276.127 163.043C275.968 162.409 275.809 161.616 275.651 160.981C275.492 160.188 275.175 159.395 275.016 158.602C274.858 157.968 274.699 157.175 274.382 156.541C274.223 155.748 273.906 155.113 273.748 154.32C273.589 153.686 273.272 152.893 273.113 152.258C272.796 151.465 272.637 150.831 272.32 150.196C272.003 149.562 271.844 148.769 271.527 148.135C271.21 147.5 271.051 146.707 270.734 146.073C270.417 145.438 270.1 144.645 269.941 144.011C269.624 143.377 269.307 142.742 268.99 142.108C268.672 141.473 268.355 140.839 268.038 140.046C267.721 139.412 267.404 138.777 267.086 138.143C266.769 137.508 266.452 136.874 265.976 136.24C265.659 135.605 265.342 134.971 264.866 134.495C264.549 133.861 264.073 133.226 263.756 132.592C263.439 131.957 262.963 131.481 262.646 130.847C261.535 129.102 260.266 127.358 258.998 125.613C258.046 124.344 257.094 123.234 256.143 122.124L229.656 149.403Z" fill="url(#paint1_linear_298_1305)"/>
<defs>
<linearGradient id="paint0_linear_298_1305" x1="161.121" y1="200.737" x2="86.702" y2="145.332" gradientUnits="userSpaceOnUse">
<stop offset="0.00058093" stop-color="white"/>
<stop offset="1" stop-color="#1E313F"/>
</linearGradient>
<linearGradient id="paint1_linear_298_1305" x1="226.035" y1="172.844" x2="294.761" y2="226.424" gradientUnits="userSpaceOnUse">
<stop offset="0.00058093" stop-color="white"/>
<stop offset="0.9967" stop-color="#4E5A64"/>
</linearGradient>
</defs>
</svg>
