<svg width="39" height="39" viewBox="0 0 39 39" fill="none" xmlns="http://www.w3.org/2000/svg">
<path d="M38.4349 19.4366C38.4699 29.894 30.0209 38.3998 19.5635 38.4349C9.10601 38.4699 0.600166 30.0209 0.565123 19.5635C0.530081 9.10601 8.97911 0.60017 19.4365 0.565128C29.894 0.530085 38.3998 8.97911 38.4349 19.4366Z" fill="black" stroke="white"/>
<path opacity="0.2" d="M31.6544 31.5737C38.321 24.8586 38.2887 14.0274 31.5737 7.36077C24.8587 0.694152 14.0274 0.726436 7.36082 7.44148L31.6544 31.5737Z" fill="white"/>
<path d="M21.3236 17.7562C21.1299 17.7239 20.9523 17.6755 20.7747 17.6432C18.3857 17.1589 16.6585 16.8199 16.6585 15.1573C16.6585 14.1242 17.6755 13.301 19.4995 13.301C21.1299 13.301 22.4212 13.9628 23.2606 15.2057L23.3897 15.238L25.9886 12.5746L25.9724 12.4778C24.9394 11.251 23.6319 10.3954 22.1307 9.94347C21.9208 9.87891 21.7271 9.83048 21.5173 9.78205H21.5011C21.4204 9.76591 21.3558 9.74977 21.2751 9.73363V7.37691H17.7239V9.73363C17.6109 9.74977 17.4979 9.78205 17.3849 9.7982H17.3688C15.69 10.2017 14.2211 11.0734 13.075 12.4132C12.5908 13.2203 12.3487 14.1888 12.3487 15.3026C12.3487 19.1121 15.2219 20.3227 18.0306 21.0007C18.5472 21.1298 19.0637 21.2267 19.5641 21.3074C21.3236 21.6302 22.8409 21.9046 22.8409 23.4865C22.8409 24.4712 21.7594 25.698 19.4995 25.698C18.1597 25.698 17.0621 25.246 16.255 24.4228C16.2066 24.3743 16.142 24.3259 16.0936 24.2775L13.0266 26.4082V26.5212C13.4624 27.0378 13.9467 27.4897 14.4632 27.8771C14.6408 28.0063 14.8184 28.1193 14.9959 28.2323C14.9959 28.2323 14.9959 28.2323 15.0121 28.2323C15.1896 28.3453 15.3833 28.4421 15.5609 28.539C15.5609 28.539 15.577 28.539 15.577 28.5551C15.7707 28.652 15.9483 28.7327 16.142 28.8134C16.1581 28.8134 16.1581 28.8134 16.1743 28.8295C16.368 28.9102 16.5617 28.9748 16.7554 29.0394C16.7715 29.0394 16.7877 29.0394 16.7877 29.0555C16.8845 29.0878 16.9652 29.1039 17.0621 29.1362C17.0782 29.1362 17.0782 29.1362 17.0944 29.1362C17.1912 29.1685 17.2881 29.1846 17.4011 29.2169C17.4172 29.2169 17.4334 29.2169 17.4495 29.2331C17.5302 29.2492 17.6271 29.2654 17.7078 29.2815V31.6382H21.259V29.2815C21.3236 29.2654 21.3881 29.2654 21.4527 29.2492C21.4688 29.2492 21.4688 29.2492 21.485 29.2492C21.7271 29.2008 21.9692 29.1362 22.2114 29.0555C22.3244 29.0232 22.4535 28.9748 22.5665 28.9425C23.874 28.4583 25.0201 27.6512 25.9563 26.5535C26.3114 26.1338 26.6181 25.698 26.8925 25.2137C27.0378 24.6972 27.1024 24.1161 27.1024 23.5027C27.1185 19.4026 24.0193 18.2888 21.3236 17.7562Z" fill="#FAFBFC"/>
<path d="M13.0428 26.5051C12.8653 26.2952 12.7038 26.0854 12.5586 25.8594C12.494 25.7626 12.4294 25.6657 12.3649 25.585C12.3487 25.5689 12.3326 25.5366 12.3164 25.5204C12.268 25.4397 12.2034 25.3429 12.155 25.246C12.1389 25.2137 12.1227 25.1814 12.1066 25.1492C12.0582 25.0685 12.0097 24.9716 11.9613 24.8909C11.9452 24.8586 11.929 24.8263 11.9129 24.794C11.8645 24.7133 11.816 24.6165 11.7837 24.5196C11.7676 24.4873 11.7515 24.4389 11.7353 24.4066C11.6869 24.3098 11.6546 24.2291 11.6062 24.1322C11.59 24.0999 11.5739 24.0677 11.5578 24.0192C11.5255 23.9224 11.4771 23.8255 11.4448 23.7287C11.4448 23.7125 11.4286 23.6803 11.4286 23.6641C11.3479 23.4381 11.2672 23.2121 11.2026 22.9861C11.2026 22.97 11.1865 22.9539 11.1865 22.9216C11.1704 22.8409 11.1381 22.7602 11.1219 22.6795C11.1058 22.6149 11.0896 22.5503 11.0735 22.4857C11.0574 22.405 11.0412 22.3405 11.0251 22.2598C11.0089 22.1952 10.9928 22.1145 10.9767 22.0499C10.9605 21.9692 10.9444 21.9046 10.9282 21.8239C10.9121 21.7432 10.8959 21.6625 10.8798 21.5818C10.8637 21.5172 10.8637 21.4365 10.8475 21.372C10.8314 21.2912 10.8152 21.2105 10.8152 21.1137C10.7991 21.0491 10.7991 20.9845 10.7829 20.9038C10.7668 20.807 10.7668 20.7263 10.7507 20.6294C10.7507 20.5649 10.7345 20.5003 10.7345 20.4357C10.7345 20.3227 10.7184 20.2259 10.7184 20.1129C10.7184 20.0645 10.7184 20.016 10.7022 19.9515C10.7022 19.79 10.6861 19.6286 10.6861 19.4672C10.6861 19.3058 10.6861 19.1605 10.7022 18.9991C10.7022 18.9507 10.7022 18.9022 10.7022 18.8538C10.7022 18.7408 10.7184 18.644 10.7184 18.531C10.7184 18.4826 10.7345 18.418 10.7345 18.3696C10.7507 18.2727 10.7507 18.1597 10.7668 18.0629C10.7668 18.0144 10.7829 17.966 10.7829 17.9176C10.7991 17.7884 10.8152 17.6755 10.8314 17.5625C10.8314 17.5302 10.8314 17.4979 10.8475 17.4818C10.8637 17.3365 10.8959 17.1912 10.9282 17.0459C10.9444 16.9975 10.9444 16.9491 10.9605 16.9168C10.9767 16.8199 11.0089 16.7231 11.0251 16.6262C11.0412 16.5778 11.0574 16.5132 11.0574 16.4648C11.0735 16.368 11.1058 16.2873 11.1219 16.1904C11.1381 16.142 11.1542 16.0774 11.1704 16.029C11.2026 15.9321 11.2349 15.8353 11.2511 15.7384C11.2672 15.69 11.2833 15.6577 11.2995 15.6093C11.3479 15.4802 11.3963 15.351 11.4448 15.2219C11.4609 15.1735 11.4771 15.1412 11.4932 15.0927C11.5255 14.9959 11.5578 14.9152 11.6062 14.8183C11.6223 14.7699 11.6546 14.7215 11.6708 14.6569C11.703 14.5762 11.7353 14.5116 11.7837 14.4309C11.816 14.3825 11.8322 14.3179 11.8645 14.2695C11.8967 14.1888 11.9452 14.1242 11.9774 14.0435C12.0097 13.9951 12.0259 13.9467 12.0582 13.8982C12.1227 13.7853 12.1873 13.6723 12.2519 13.5593C12.1066 14.0919 12.042 14.6731 12.042 15.2865C12.042 17.3849 12.9298 18.983 14.6893 20.0645C14.7861 21.9531 15.335 23.4381 16.2712 24.3905L13.0428 26.5051Z" fill="url(#paint0_linear_353_1171)"/>
<path d="M23.2768 15.2057C23.8256 16.029 24.1807 17.0621 24.3099 18.305C24.7619 18.5148 25.1493 18.757 25.5044 19.0314C26.8119 20.0483 27.4737 21.5334 27.4737 23.422C27.4737 23.648 27.4576 23.874 27.4414 24.0999V24.0838C27.506 23.9385 27.5705 23.7771 27.619 23.6157C27.6351 23.5673 27.6513 23.535 27.6674 23.4865C27.6997 23.3736 27.7481 23.2606 27.7804 23.1476C27.7965 23.0991 27.8127 23.0346 27.8288 22.9861C27.845 22.9216 27.8772 22.8409 27.8934 22.7763C27.9257 22.6794 27.9418 22.5987 27.9741 22.5019C27.9902 22.4373 28.0064 22.3566 28.0225 22.292C28.0387 22.2113 28.0548 22.1306 28.0709 22.0499C28.0871 22.0015 28.0871 21.9369 28.1032 21.8885C28.1194 21.7755 28.1517 21.6464 28.1678 21.5334C28.1678 21.4849 28.1839 21.4365 28.1839 21.3881C28.2001 21.259 28.2162 21.1298 28.2324 21.0007C28.2324 20.9684 28.2324 20.9523 28.2485 20.92C28.2646 20.7908 28.2808 20.6779 28.2808 20.5487C28.2808 20.5164 28.2808 20.4841 28.2969 20.4519C28.3131 20.3066 28.3131 20.1613 28.3292 20.016C28.3292 19.9837 28.3292 19.9515 28.3292 19.9192C28.3292 19.7739 28.3454 19.6125 28.3454 19.4672C28.3454 19.3058 28.3454 19.1444 28.3292 18.9668C28.3292 18.9184 28.3292 18.87 28.3131 18.8054C28.3131 18.6924 28.2969 18.5794 28.2969 18.4825C28.2969 18.418 28.2808 18.3534 28.2808 18.2888C28.2646 18.192 28.2646 18.0951 28.2485 17.9983C28.2485 17.9337 28.2324 17.8692 28.2162 17.7884C28.2001 17.6916 28.2001 17.6109 28.1839 17.514C28.1678 17.4495 28.1678 17.3688 28.1517 17.3042C28.1355 17.2235 28.1194 17.1266 28.1032 17.0459C28.0871 16.9814 28.0709 16.9006 28.0548 16.8361C28.0387 16.7554 28.0225 16.6747 28.0064 16.5939C27.9902 16.5294 27.9741 16.4487 27.958 16.3841C27.9418 16.3034 27.9095 16.2227 27.8934 16.142C27.8772 16.0774 27.8611 15.9967 27.8288 15.9321C27.8127 15.8514 27.7804 15.7868 27.7642 15.7061C27.7481 15.6416 27.7158 15.5609 27.6997 15.4963C27.6674 15.4156 27.6513 15.351 27.619 15.2864C27.5867 15.2219 27.5705 15.1412 27.5383 15.0766C27.506 15.012 27.4898 14.9313 27.4576 14.8668C27.4253 14.8022 27.393 14.7215 27.3768 14.6569C27.3446 14.5923 27.3123 14.5278 27.28 14.4632C27.2477 14.3986 27.2154 14.3341 27.1831 14.2534C27.1509 14.1888 27.1186 14.1242 27.0863 14.0597C27.054 13.9951 27.0217 13.9305 26.9733 13.866C26.941 13.8014 26.9087 13.7368 26.8603 13.6884C26.828 13.6238 26.7796 13.5593 26.7473 13.4947C26.715 13.4301 26.6666 13.3817 26.6343 13.3171C26.5213 13.1396 26.3922 12.962 26.263 12.7845C26.1662 12.6553 26.0693 12.5423 25.9725 12.4293L23.2768 15.2057Z" fill="url(#paint1_linear_353_1171)"/>
<defs>
<linearGradient id="paint0_linear_353_1171" x1="16.3015" y1="20.4302" x2="8.72743" y2="14.7913" gradientUnits="userSpaceOnUse">
<stop offset="0.00058093" stop-color="white"/>
<stop offset="1" stop-color="#1E313F"/>
</linearGradient>
<linearGradient id="paint1_linear_353_1171" x1="22.9082" y1="17.5914" x2="29.9029" y2="23.0446" gradientUnits="userSpaceOnUse">
<stop offset="0.00058093" stop-color="white"/>
<stop offset="0.9967" stop-color="#4E5A64"/>
</linearGradient>
</defs>
</svg>
