<svg xmlns="http://www.w3.org/2000/svg" xmlns:xlink="http://www.w3.org/1999/xlink" width="517" height="608" viewBox="0 0 517 608">
    <defs>
        <linearGradient id="08otk17dmd" x1="51.329%" x2="41.611%" y1="79.552%" y2="-11.852%">
            <stop offset=".058%" stop-color="#FFF"/>
            <stop offset="100%" stop-color="#1E313F"/>
        </linearGradient>
        <linearGradient id="sayifgeybe" x1="47.972%" x2="58.111%" y1="17.01%" y2="112.061%">
            <stop offset=".058%" stop-color="#FFF"/>
            <stop offset="99.67%" stop-color="#4E5A64"/>
        </linearGradient>
        <radialGradient id="84cv4r60rc" cx="50.263%" cy="50.137%" r="53.918%" fx="50.263%" fy="50.137%">
            <stop offset="0%" stop-color="#8DC1FF" stop-opacity="0"/>
            <stop offset="100%" stop-color="#1A82FF" stop-opacity=".5"/>
        </radialGradient>
        <path id="o3bj084x6a" d="M0 0L558 0 558 608 0 608z"/>
    </defs>
    <g fill="none" fill-rule="evenodd">
        <g>
            <g transform="translate(-721 -4129) translate(696 4129)">
                <mask id="hqzpw9fo5b" fill="#fff">
                    <use xlink:href="#o3bj084x6a"/>
                </mask>
                <g mask="url(#hqzpw9fo5b)">
                    <g>
                        <g fill-rule="nonzero" transform="translate(25 -12) translate(127.554 211.578)">
                            <circle cx="130.793" cy="130.389" r="130.389" fill="url(#84cv4r60rc)"/>
                            <g transform="translate(64.79 63.777)">
                                <ellipse cx="66.005" cy="66.612" fill="#1E313F" rx="65.6" ry="65.498" transform="rotate(-.192 66.005 66.612)"/>
                                <path fill="#FFF" d="M107.004 107.307c22.473-22.575 22.372-59.12-.304-81.594-22.676-22.474-59.222-22.372-81.797.304l82.1 81.29z" opacity=".2"/>
                                <g>
                                    <path fill="#FAFBFC" d="M33.002 31.99c-.607-.102-1.114-.203-1.72-.304-7.29-1.417-12.554-2.53-12.554-7.592 0-3.139 3.037-5.67 8.605-5.67 4.96 0 8.909 2.025 11.44 5.77l.404.102 7.896-8.099v-.303c-3.138-3.746-7.086-6.378-11.641-7.694-.608-.203-1.215-.304-1.924-.506h-.101c-.202 0-.405-.102-.709-.102V.405H21.866v7.187c-.303.102-.708.102-1.012.203h-.101c-5.163 1.215-9.516 3.847-13.06 7.896-1.417 2.43-2.226 5.366-2.226 8.706 0 11.54 8.706 15.185 17.31 17.311 1.62.405 3.139.709 4.657.911 5.366 1.013 9.921 1.822 9.921 6.58 0 2.936-3.24 6.682-10.123 6.682-4.05 0-7.39-1.316-9.82-3.847-.101-.101-.304-.304-.506-.405l-9.314 6.479v.304c1.317 1.518 2.835 2.935 4.354 4.049.506.405 1.113.709 1.62 1.114.505.303 1.113.607 1.72.91h.101c.608.304 1.114.507 1.721.81h.102l1.822.608h.101c.304.101.506.202.81.202h.101c.304.102.608.203.911.203h.102c.303.101.506.101.81.202v7.188h10.831V66.51c.203 0 .405-.1.608-.1h.101c.709-.203 1.518-.406 2.227-.608.405-.102.709-.203 1.114-.405 3.948-1.418 7.491-3.847 10.325-7.29 1.114-1.214 2.025-2.631 2.835-4.048.405-1.62.607-3.341.607-5.163.102-11.946-9.313-15.287-17.513-16.906z" transform="translate(38.469 29.358)"/>
                                    <path fill="url(#08otk17dmd)" d="M7.795 58.513c-.506-.608-1.012-1.316-1.519-1.924-.202-.303-.404-.607-.607-.81 0-.1-.101-.1-.101-.202-.203-.304-.304-.506-.506-.81-.102-.101-.102-.202-.203-.303-.202-.304-.304-.507-.405-.81-.101-.102-.101-.203-.202-.304-.101-.304-.304-.506-.405-.81-.101-.101-.101-.202-.203-.304-.1-.303-.303-.506-.405-.81 0-.1-.1-.202-.1-.303-.102-.304-.203-.608-.406-.911 0-.102 0-.102-.1-.203-.203-.708-.507-1.316-.71-2.024 0-.102 0-.102-.1-.203-.102-.202-.102-.506-.203-.709-.102-.202-.102-.404-.203-.607-.101-.202-.101-.506-.202-.709 0-.202-.101-.404-.101-.708 0-.203-.102-.405-.102-.709 0-.202-.1-.506-.1-.708 0-.203-.102-.405-.102-.608 0-.304-.101-.506-.101-.81 0-.202-.102-.405-.102-.607 0-.304-.1-.608-.1-.81v-.607c0-.304 0-.608-.102-.911v-.507-1.417-1.417-.405c0-.304 0-.608.101-1.012v-.507c0-.303.101-.607.101-.91 0-.203 0-.304.102-.507 0-.405.1-.709.1-1.113v-.304c.102-.405.102-.911.203-1.316 0-.101.102-.304.102-.405.1-.304.1-.608.202-.911 0-.203.101-.304.101-.506.101-.304.101-.507.203-.81 0-.203.101-.304.101-.506.101-.304.202-.608.304-.81 0-.102.1-.304.1-.405.102-.405.305-.81.406-1.215 0-.101.101-.202.101-.405.101-.304.203-.506.304-.81.101-.202.101-.304.202-.506s.203-.506.304-.709c.101-.202.202-.303.202-.506.102-.202.203-.506.405-.708.102-.102.102-.304.203-.405.202-.304.405-.709.607-1.013-.405 1.62-.607 3.341-.607 5.264 0 6.378 2.733 11.237 7.997 14.477.304 5.77 1.924 10.224 4.86 13.16l-9.314 6.378z" transform="translate(38.469 29.358)"/>
                                    <path fill="url(#sayifgeybe)" d="M38.975 24.296c1.72 2.43 2.733 5.568 3.138 9.415 1.316.607 2.53 1.417 3.644 2.227 3.949 3.138 5.973 7.592 5.973 13.363 0 .708 0 1.417-.101 2.024.202-.506.405-.91.607-1.417 0-.101.102-.304.102-.405.1-.304.202-.709.303-1.012.102-.203.102-.304.203-.506.101-.203.101-.405.202-.608.101-.304.203-.506.203-.81.101-.202.101-.405.202-.607.101-.203.101-.506.203-.709 0-.202.1-.303.1-.506.102-.405.102-.709.203-1.113 0-.102 0-.304.102-.405.1-.405.1-.81.202-1.215v-.203c0-.405.101-.708.101-1.113v-.304c0-.405.102-.911.102-1.316v-.304-1.417-1.518-.507c0-.303 0-.708-.102-1.012 0-.202 0-.405-.1-.607 0-.304-.102-.608-.102-.911 0-.203-.101-.405-.101-.608 0-.304-.102-.506-.102-.81 0-.202-.1-.405-.1-.607 0-.304-.102-.506-.102-.81 0-.202-.101-.405-.101-.607-.102-.203-.102-.507-.203-.709-.101-.202-.101-.405-.202-.607-.102-.203-.102-.507-.203-.709-.101-.202-.101-.405-.202-.607-.101-.203-.101-.507-.203-.709-.1-.203-.1-.405-.202-.607-.101-.203-.203-.405-.203-.608-.1-.202-.202-.405-.202-.607l-.304-.608-.303-.607-.304-.607-.304-.608-.304-.607c-.1-.203-.202-.405-.303-.608-.102-.202-.203-.405-.304-.506l-.304-.607c-.1-.203-.202-.304-.303-.506-.405-.507-.709-1.114-1.114-1.62-.304-.405-.607-.709-.911-1.114l-8.301 8.099z" transform="translate(38.469 29.358)"/>
                                </g>
                            </g>
                        </g>
                        <g stroke="#FFF" opacity=".6">
                            <path stroke-width=".163" d="M170.477 605.78c-7.39-4.656-14.679-9.11-21.664-13.363-28.649-17.513-58.412-35.634-85.036-63.473-20.854-21.765-36.849-46.567-47.478-73.698C5.669 428.217.202 398.961.202 368.186V83.619h161.063L258.449.91l97.184 82.708h161.062v284.567c0 30.775-5.365 60.132-16.096 87.06-10.73 27.13-26.726 51.933-47.479 73.698-26.624 27.94-56.387 45.96-85.036 63.473-6.985 4.252-14.274 8.707-21.664 13.363l-87.971 55.577-87.972-55.577z" opacity=".1" transform="translate(25 -12)"/>
                            <path stroke-width=".203" d="M7.997 91.414c1.013 0 155.191 0 156.001-.304.506-.202 93.742-79.266 94.45-79.873.71.607 93.844 79.67 94.35 79.873.81.304 154.988.304 156 .304v276.772c0 29.863-5.263 58.209-15.59 84.327-10.426 26.22-25.915 50.212-46.162 71.268-25.814 26.928-54.564 44.442-82.404 61.55-6.782 4.15-13.767 8.402-20.955 12.958-.405.304-84.732 53.451-85.238 53.856-.506-.304-84.834-53.552-85.239-53.856-7.187-4.556-14.172-8.807-20.955-12.958-27.94-17.007-56.59-34.622-82.404-61.55-20.247-21.056-35.837-45.049-46.264-71.268-10.325-26.118-15.59-54.464-15.59-84.327V91.414z" opacity=".143" transform="translate(25 -12)"/>
                            <path stroke-width=".242" d="M15.894 99.209c2.126 0 149.319 0 151.04-.709 1.113-.405 90.199-75.925 91.616-77.039 1.316 1.114 90.503 76.634 91.616 77.039 1.62.607 148.914.709 151.04.709v268.875c0 28.953-5.061 56.387-15.084 81.594-10.123 25.41-25.207 48.491-44.846 68.94-24.903 25.916-52.742 42.923-79.772 59.526-6.58 4.049-13.363 8.2-20.246 12.552-.912.507-81.493 51.427-82.506 52.136-1.113-.709-81.695-51.528-82.505-52.034-6.985-4.353-13.768-8.504-20.246-12.553-27.435-16.602-55.274-33.61-80.177-59.525-19.64-20.348-34.723-43.53-44.847-68.94-10.022-25.207-15.083-52.642-15.083-81.696V99.21z" opacity=".186" transform="translate(25 -12)"/>
                            <path stroke-width=".282" d="M23.689 107.105c3.138 0 143.548-.101 145.978-1.012 1.62-.608 86.757-72.585 88.782-74.306 2.024 1.721 87.06 73.597 88.781 74.306 2.43 1.012 142.84 1.012 145.979 1.012v261.08c0 28.042-4.96 54.565-14.679 78.963-9.82 24.498-24.397 46.87-43.43 66.51-23.991 24.903-50.92 41.404-77.24 57.5-6.378 3.847-12.958 7.897-19.64 12.148-1.315.81-78.253 49.301-79.771 50.313-1.62-1.012-78.456-49.503-79.772-50.313-6.682-4.251-13.262-8.2-19.64-12.148-26.32-16.096-53.147-32.597-77.24-57.5-19.032-19.74-33.61-42.113-43.43-66.612-9.718-24.296-14.678-50.819-14.678-78.962v-260.98z" opacity=".229" transform="translate(25 -12)"/>
                            <path stroke-width=".322" d="M31.585 114.9c4.15 0 137.677-.101 141.018-1.417 2.227-.912 83.214-69.244 85.947-71.471 2.733 2.328 83.72 70.56 85.947 71.47 3.34 1.317 136.867 1.418 141.018 1.418v253.184c0 27.13-4.758 52.743-14.173 76.23-9.516 23.586-23.587 45.15-42.113 64.181-23.182 23.891-49.098 39.886-74.609 55.476-6.175 3.746-12.451 7.592-18.93 11.743-1.721 1.114-74.913 47.276-77.14 48.592-2.126-1.316-75.318-47.478-77.039-48.592-6.479-4.05-12.856-7.997-18.93-11.743-25.511-15.59-51.427-31.484-74.61-55.476-18.424-19.032-32.596-40.493-42.112-64.182-9.415-23.486-14.173-48.997-14.173-76.229V114.9h-.101z" opacity=".271" transform="translate(25 -12)"/>
                            <path stroke-width=".362" d="M39.38 122.796c5.163 0 131.806-.101 135.956-1.72 2.733-1.115 79.67-65.803 83.113-68.637 3.34 2.834 80.278 67.624 83.112 68.636 4.15 1.62 130.794 1.721 135.957 1.721v245.39c0 26.32-4.657 50.92-13.667 73.495-9.11 22.778-22.879 43.43-40.696 61.752-22.271 22.88-47.276 38.368-71.977 53.452-5.871 3.644-12.046 7.39-18.323 11.236-2.227 1.316-71.673 45.15-74.406 46.871-2.632-1.72-72.18-45.453-74.407-46.87-6.276-3.949-12.35-7.694-18.323-11.237-24.701-15.084-49.706-30.472-71.977-53.452-17.918-18.323-31.585-38.974-40.696-61.752-9.11-22.575-13.666-47.175-13.666-73.495v-245.39z" opacity=".314" transform="translate(25 -12)"/>
                            <path stroke-width=".402" d="M47.276 130.591c6.276 0 126.035-.101 130.996-2.025 3.34-1.316 76.229-62.46 80.278-65.903 4.05 3.442 76.937 64.587 80.278 65.903 4.96 1.924 124.72 2.025 130.996 2.025v237.493c0 25.41-4.454 49.099-13.16 70.762-8.808 21.867-22.07 41.709-39.38 59.424-21.36 21.968-45.454 36.748-69.345 51.427-5.67 3.442-11.54 7.086-17.615 10.832-2.632 1.62-68.433 43.125-71.673 45.15-3.24-2.025-68.94-43.43-71.673-45.15-5.973-3.746-11.946-7.39-17.615-10.832-23.89-14.679-47.984-29.459-69.344-51.427-17.311-17.614-30.573-37.456-39.38-59.322-8.808-21.664-13.16-45.353-13.16-70.762V130.59h-.203z" opacity=".357" transform="translate(25 -12)"/>
                            <path stroke-width=".442" d="M55.07 138.487c7.29 0 120.165-.202 125.935-2.43 3.847-1.518 72.686-59.12 77.444-63.068 4.656 3.948 73.495 61.55 77.443 63.069 5.77 2.227 118.646 2.43 125.934 2.43v229.698c0 24.498-4.251 47.276-12.755 68.028-8.504 21.057-21.36 40.089-38.064 56.995-20.55 20.955-43.631 35.229-66.712 49.402-5.467 3.34-11.136 6.782-16.906 10.427-3.139 1.923-65.195 41-68.94 43.328-3.746-2.329-65.802-41.506-68.94-43.328-5.77-3.645-11.44-7.087-16.906-10.427-23.081-14.173-46.264-28.447-66.713-49.402-16.703-16.906-29.459-35.938-38.064-56.995-8.402-20.854-12.755-43.53-12.755-68.028V138.487z" opacity=".4" transform="translate(25 -12)"/>
                            <path stroke-width=".482" d="M62.967 146.282c8.301 0 114.293-.202 120.974-2.733 4.454-1.721 69.244-55.678 74.609-60.234 5.365 4.556 70.155 58.513 74.609 60.234 6.58 2.53 112.571 2.733 120.974 2.733v221.802c0 23.588-4.15 45.353-12.25 65.296-8.2 20.145-20.55 38.367-36.646 54.565-19.64 19.943-41.81 33.71-64.182 47.377-5.264 3.24-10.73 6.58-16.298 10.022-3.544 2.126-61.955 38.975-66.207 41.607-4.252-2.733-62.664-39.481-66.207-41.607-5.568-3.543-11.034-6.783-16.298-10.022-22.272-13.667-44.543-27.434-64.182-47.377-16.096-16.198-28.447-34.42-36.647-54.565-8.098-19.943-12.249-41.708-12.249-65.296V146.282z" opacity=".443" transform="translate(25 -12)"/>
                            <path stroke-width=".522" d="M70.762 154.178c9.314 0 108.522-.202 115.912-3.138 4.96-1.923 65.7-52.338 71.775-57.5 6.074 5.162 66.712 55.577 71.774 57.5 7.39 2.936 106.599 3.138 115.912 3.138v214.008c0 22.676-3.948 43.53-11.743 62.562-7.896 19.335-19.842 36.646-35.33 52.236-18.83 18.93-39.987 32.192-61.55 45.353-5.062 3.138-10.225 6.276-15.59 9.617-3.948 2.43-58.614 36.849-63.473 39.886-4.758-3.037-59.424-37.456-63.474-39.886-5.365-3.34-10.528-6.58-15.59-9.617-21.461-13.16-42.72-26.422-61.55-45.353-15.488-15.59-27.332-32.9-35.33-52.236-7.795-19.032-11.743-39.987-11.743-62.664V154.178z" opacity=".486" transform="translate(25 -12)"/>
                            <path stroke-width=".561" d="M78.658 162.075c10.427 0 102.65-.203 110.85-3.442 5.569-2.126 62.158-48.997 68.94-54.666 6.682 5.669 63.373 52.54 68.94 54.666 8.2 3.24 100.525 3.442 110.851 3.442v206.11c0 21.766-3.847 41.709-11.338 59.83-7.593 18.424-19.032 34.925-33.913 49.806-17.919 17.919-38.165 30.674-58.918 43.328-4.86 2.936-9.82 5.973-14.881 9.212-4.455 2.734-55.375 34.723-60.74 38.165-5.366-3.34-56.286-35.431-60.74-38.165-5.062-3.239-10.124-6.276-14.882-9.212-20.752-12.755-41-25.41-58.917-43.328-14.882-14.881-26.321-31.382-33.914-49.806-7.49-18.121-11.338-38.165-11.338-59.93v-206.01z" opacity=".529" transform="translate(25 -12)"/>
                            <path stroke-width=".601" d="M86.554 169.87c11.44 0 96.78-.304 105.89-3.847 6.075-2.43 58.716-45.657 66.106-51.933 7.39 6.276 59.93 49.503 66.105 51.933 9.111 3.543 94.451 3.847 105.89 3.847v198.316c0 20.854-3.644 39.886-10.832 57.196-7.288 17.615-18.323 33.306-32.597 47.479-17.007 16.906-36.444 29.054-56.285 41.303-4.556 2.835-9.314 5.77-14.274 8.807-4.86 2.936-52.136 32.699-58.007 36.343-5.872-3.745-53.148-33.407-58.007-36.343-4.859-3.037-9.617-5.972-14.274-8.807-19.943-12.25-39.278-24.397-56.285-41.303-14.274-14.173-25.309-29.864-32.598-47.479-7.187-17.31-10.832-36.342-10.832-57.196V169.87h0z" opacity=".571" transform="translate(25 -12)"/>
                            <path stroke-width=".641" d="M94.35 177.766c12.451 0 91.008-.304 100.828-4.15 6.681-2.633 55.172-42.215 63.27-49.099 8.1 6.884 56.59 46.466 63.272 49.098 9.92 3.847 88.376 4.15 100.828 4.15v190.42c0 19.944-3.442 38.064-10.326 54.464-6.985 16.704-17.513 31.585-31.18 45.049-16.096 15.894-34.622 27.535-53.653 39.279-4.353 2.733-8.909 5.466-13.566 8.402-5.264 3.24-48.895 30.572-55.273 34.622-6.378-4.05-49.908-31.383-55.273-34.622-4.657-2.936-9.213-5.67-13.566-8.402-19.133-11.744-37.557-23.385-53.653-39.279-13.667-13.464-24.195-28.345-31.282-45.049-6.883-16.4-10.325-34.52-10.325-54.463v-190.42h-.102z" opacity=".614" transform="translate(25 -12)"/>
                            <path stroke-width=".681" d="M102.246 185.56c13.464 0 85.137-.303 95.868-4.454 7.187-2.834 51.629-38.873 60.436-46.263 8.706 7.39 53.147 43.429 60.436 46.263 10.731 4.151 82.303 4.455 95.868 4.455v182.625c0 19.031-3.34 36.241-9.82 51.73-6.68 15.792-16.804 29.864-29.863 42.72-15.287 14.882-32.8 26.017-51.123 37.254-4.15 2.531-8.504 5.163-12.857 7.998-5.77 3.543-45.656 28.547-52.54 32.9-6.884-4.353-46.77-29.357-52.54-32.9-4.454-2.734-8.706-5.366-12.857-7.998-18.323-11.237-35.836-22.372-51.122-37.254-13.16-12.755-23.183-26.827-29.864-42.72-6.58-15.489-9.82-32.699-9.82-51.73V185.56h-.202z" opacity=".657" transform="translate(25 -12)"/>
                            <path stroke-width=".721" d="M110.04 193.457c14.578 0 79.266-.304 90.807-4.86 7.795-3.036 48.187-35.532 57.602-43.53 9.414 7.998 49.806 40.494 57.601 43.53 11.541 4.455 76.33 4.86 90.807 4.86v174.729c0 18.12-3.138 34.419-9.415 48.997-6.378 14.982-15.995 28.244-28.548 40.29-14.375 13.87-30.977 24.499-48.49 35.23-3.949 2.43-7.998 4.96-12.25 7.49-6.175 3.747-42.315 26.423-49.807 31.18-7.49-4.656-43.631-27.332-49.806-31.18-4.15-2.631-8.301-5.06-12.25-7.49-17.513-10.832-34.115-21.36-48.49-35.23-12.553-12.148-22.17-25.308-28.548-40.29-6.175-14.578-9.415-30.877-9.415-48.997v-174.73h.203z" opacity=".7" transform="translate(25 -12)"/>
                            <path stroke-width=".761" d="M117.937 201.252c15.59 0 73.495-.405 85.846-5.163 8.3-3.24 44.644-32.091 54.767-40.696 10.022 8.605 46.365 37.456 54.767 40.696 12.35 4.86 70.256 5.163 85.846 5.163v166.832c0 17.21-3.037 32.496-8.909 46.264-6.074 14.071-15.185 26.523-27.13 37.963-13.464 12.957-29.155 22.98-45.859 33.305-3.745 2.329-7.592 4.657-11.54 7.087-6.682 4.049-39.076 24.397-47.074 29.357-7.997-5.061-40.493-25.308-47.073-29.357-3.948-2.43-7.795-4.86-11.54-7.087-16.704-10.326-32.396-20.348-45.86-33.204-11.945-11.44-21.056-23.79-27.13-37.963-5.872-13.767-8.909-29.054-8.909-46.263V201.252h-.202z" opacity=".743" transform="translate(25 -12)"/>
                            <path stroke-width=".801" d="M125.732 209.148c16.602 0 67.624-.405 80.784-5.568 8.909-3.442 41.202-28.75 51.933-37.861 10.73 9.111 43.024 34.42 51.932 37.861 13.16 5.163 64.182 5.568 80.785 5.568v159.038c0 16.4-2.835 30.673-8.403 43.53-5.77 13.262-14.476 24.802-25.814 35.533-12.654 11.945-27.333 21.36-43.227 31.281-3.543 2.126-7.187 4.353-10.832 6.681-7.086 4.353-35.836 22.272-44.34 27.637-8.504-5.365-37.254-23.284-44.34-27.637-3.746-2.328-7.39-4.555-10.832-6.681-15.894-9.82-30.674-19.336-43.227-31.18-11.338-10.73-20.044-22.271-25.814-35.533-5.568-12.856-8.403-27.232-8.403-43.631V209.148h-.202z" opacity=".786" transform="translate(25 -12)"/>
                            <path stroke-width=".841" d="M133.628 216.943c17.615 0 61.752-.405 75.824-5.872 9.414-3.644 37.659-25.41 49.098-35.127 11.44 9.718 39.582 31.382 49.098 35.127 13.97 5.467 58.108 5.872 75.824 5.872v151.141c0 15.49-2.733 28.852-7.896 40.797-5.467 12.35-13.667 23.183-24.398 33.205-11.743 10.933-25.51 19.842-40.695 29.256-3.341 2.025-6.682 4.151-10.225 6.277-7.491 4.657-32.597 20.247-41.607 25.916-9.01-5.67-34.115-21.26-41.607-25.916-3.543-2.126-6.884-4.252-10.224-6.277-15.084-9.313-28.953-18.323-40.595-29.256-10.73-10.022-19.032-20.753-24.397-33.103-5.264-11.946-7.998-25.41-7.998-40.899V216.943h-.202z" opacity=".829" transform="translate(25 -12)"/>
                            <path stroke-width=".88" d="M141.423 224.84c18.728 0 55.982-.406 70.762-6.176 10.022-3.847 34.116-22.069 46.264-32.293 12.046 10.224 36.241 28.345 46.263 32.192 14.882 5.77 52.135 6.175 70.762 6.175v143.346c0 14.578-2.53 27.03-7.49 38.064-5.164 11.54-12.959 21.462-23.082 30.775-10.832 9.92-23.689 18.323-38.064 27.232-3.037 1.923-6.276 3.847-9.516 5.871-7.997 4.86-29.357 18.121-38.873 24.195-9.617-6.074-30.978-19.234-38.874-24.195-3.24-2.024-6.479-3.948-9.516-5.871-14.274-8.909-27.232-17.21-38.064-27.232-10.123-9.313-17.918-19.234-23.08-30.775-4.961-11.136-7.492-23.587-7.492-38.165V224.84z" opacity=".871" transform="translate(25 -12)"/>
                            <path stroke-width=".92" d="M149.32 232.634c19.74 0 50.11-.405 65.8-6.58 10.53-4.15 30.675-18.627 43.43-29.459 12.755 10.832 32.8 25.41 43.429 29.459 15.691 6.074 46.061 6.58 65.802 6.58v135.45c0 13.667-2.329 25.207-6.985 35.432-4.86 10.63-12.148 19.74-21.766 28.345-9.92 9.01-21.866 16.805-35.431 25.207-2.835 1.823-5.77 3.544-8.808 5.467-8.402 5.163-26.017 15.995-36.14 22.474-10.123-6.378-27.738-17.311-36.14-22.373-3.037-1.923-5.973-3.644-8.807-5.466-13.566-8.403-25.511-16.198-35.432-25.207-9.617-8.605-16.906-17.716-21.765-28.346-4.657-10.224-6.985-21.765-6.985-35.431V232.634h-.203z" opacity=".914" transform="translate(25 -12)"/>
                            <path stroke-width=".96" d="M157.114 240.53c20.753 0 44.24-.506 60.74-6.883 11.136-4.354 27.13-15.287 40.595-26.726 13.464 11.44 29.459 22.372 40.594 26.726 16.501 6.478 39.987 6.883 60.74 6.883v127.656c0 12.755-2.227 23.385-6.479 32.698-4.555 9.718-11.338 18.12-20.348 26.017-9.01 7.997-20.044 15.286-32.8 23.182-2.631 1.62-5.365 3.341-8.2 5.062-8.806 5.467-22.777 13.97-33.406 20.652-10.63-6.682-24.6-15.287-33.407-20.652-2.835-1.72-5.568-3.442-8.2-5.062-12.755-7.896-23.79-15.185-32.8-23.182-9.01-7.896-15.893-16.197-20.347-26.017-4.354-9.313-6.48-19.943-6.48-32.698V240.53h-.202z" opacity=".957" transform="translate(25 -12)"/>
                            <path d="M258.449 217.145c-35.027 29.864-56.995 31.18-93.439 31.18v119.76c0 47.782 33.306 60.233 93.439 98.297 60.234-38.064 93.438-50.515 93.438-98.298V248.325c-36.444 0-58.412-1.316-93.438-31.18z" transform="translate(25 -12)"/>
                        </g>
                    </g>
                </g>
            </g>
        </g>
    </g>
</svg>
