<svg xmlns="http://www.w3.org/2000/svg" xmlns:xlink="http://www.w3.org/1999/xlink" width="177" height="44" viewBox="0 0 177 44">
    <defs>
        <path id="t8xcvvmmla" d="M0.339 0.141L10.478 0.141 10.478 27.251 0.339 27.251z"/>
        <path id="f38qxgdwdc" d="M0 0.105L33.084 0.105 33.084 38.391 0 38.391z"/>
    </defs>
    <g fill="none" fill-rule="evenodd">
        <path fill="#FFF" d="M65.943 10.03h-9.76c-.667 0-1.235.486-1.34 1.145L50.898 36.2c-.079.494.303.939.805.939h4.659c.668 0 1.235-.485 1.34-1.146l1.064-6.75c.103-.66.672-1.146 1.338-1.146h3.09c6.429 0 10.139-3.11 11.108-9.275.436-2.697.018-4.816-1.245-6.3-1.387-1.63-3.847-2.492-7.113-2.492m1.126 9.14c-.534 3.502-3.21 3.502-5.797 3.502H59.8l1.033-6.54c.061-.395.404-.686.803-.686h.675c1.762 0 3.425 0 4.284 1.004.512.6.67 1.49.474 2.72M95.115 19.057H90.44c-.398 0-.741.292-.803.687l-.207 1.307-.327-.474c-1.011-1.468-3.268-1.96-5.52-1.96-5.164 0-9.575 3.912-10.434 9.4-.446 2.736.19 5.353 1.742 7.179 1.424 1.678 3.461 2.377 5.886 2.377 4.161 0 6.468-2.676 6.468-2.676l-.208 1.299c-.078.497.304.941.802.941h4.21c.669 0 1.234-.485 1.34-1.145l2.525-15.996c.08-.492-.3-.939-.8-.939M88.6 28.153c-.451 2.67-2.57 4.462-5.273 4.462-1.357 0-2.442-.435-3.138-1.26-.69-.819-.954-1.985-.734-3.283.421-2.647 2.576-4.498 5.238-4.498 1.327 0 2.405.441 3.116 1.273.712.84.995 2.013.79 3.306M120.004 19.057h-4.696c-.448 0-.87.223-1.123.596l-6.477 9.54-2.746-9.168c-.172-.574-.702-.968-1.301-.968h-4.615c-.56 0-.95.548-.772 1.076l5.173 15.18-4.863 6.866c-.383.541.003 1.284.663 1.284h4.691c.445 0 .862-.217 1.115-.582l15.62-22.546c.373-.54-.01-1.278-.669-1.278M135.553 10.03h-9.76c-.667 0-1.235.486-1.34 1.145L120.508 36.2c-.079.494.303.939.801.939h5.01c.465 0 .863-.34.935-.802l1.12-7.094c.103-.66.673-1.146 1.34-1.146h3.087c6.43 0 10.14-3.11 11.11-9.275.438-2.697.016-4.816-1.246-6.3-1.386-1.63-3.845-2.492-7.111-2.492m1.126 9.14c-.533 3.502-3.208 3.502-5.797 3.502h-1.47l1.034-6.54c.061-.395.401-.686.802-.686h.675c1.76 0 3.424 0 4.284 1.004.512.6.668 1.49.472 2.72M164.724 19.057h-4.671c-.4 0-.742.292-.802.687l-.207 1.307-.328-.474c-1.012-1.468-3.266-1.96-5.518-1.96-5.164 0-9.574 3.912-10.433 9.4-.445 2.736.187 5.353 1.74 7.179 1.426 1.678 3.461 2.377 5.886 2.377 4.161 0 6.468-2.676 6.468-2.676l-.208 1.299c-.079.497.304.941.805.941h4.208c.667 0 1.235-.485 1.339-1.145l2.527-15.996c.077-.492-.305-.939-.806-.939m-6.515 9.096c-.448 2.67-2.57 4.462-5.272 4.462-1.354 0-2.442-.435-3.138-1.26-.69-.819-.95-1.985-.734-3.283.424-2.647 2.576-4.498 5.238-4.498 1.326 0 2.405.441 3.116 1.273.715.84.997 2.013.79 3.306" transform="translate(.665 .498)"/>
        <g transform="translate(.665 .498) translate(165.879 9.888)">
            <mask id="w04xox0r4b" fill="#fff">
                <use xlink:href="#t8xcvvmmla"/>
            </mask>
            <path fill="#FFF" d="M4.355.829L.349 26.312c-.079.494.304.939.802.939h4.027c.67 0 1.237-.485 1.34-1.146l3.95-25.024c.078-.494-.304-.94-.802-.94h-4.51c-.398.001-.74.292-.801.688" mask="url(#w04xox0r4b)"/>
        </g>
        <path fill="#FFF" d="M32.89 11.34c-.04.256-.086.517-.138.785-1.765 9.063-7.804 12.194-15.517 12.194h-3.927c-.943 0-1.738.685-1.885 1.615l-2.01 12.752-.57 3.614c-.096.611.375 1.162.992 1.162H16.8c.825 0 1.525-.6 1.655-1.413l.069-.354 1.311-8.322.084-.457c.129-.816.83-1.415 1.656-1.415h1.042c6.748 0 12.03-2.74 13.574-10.669.646-3.311.311-6.077-1.395-8.022-.517-.586-1.158-1.073-1.907-1.47" opacity=".5" transform="translate(.665 .498)"/>
        <path fill="#FFF" d="M31.043 10.604c-.27-.078-.548-.15-.834-.214-.286-.063-.58-.119-.883-.167-1.059-.171-2.219-.253-3.462-.253H15.373c-.258 0-.504.06-.723.165-.484.232-.844.69-.931 1.251l-2.232 14.136-.064.412c.147-.93.942-1.615 1.885-1.615h3.927c7.713 0 13.752-3.132 15.517-12.194.053-.268.097-.53.137-.785-.446-.236-.93-.44-1.45-.612-.13-.043-.262-.084-.396-.124" transform="translate(.665 .498)"/>
        <g transform="translate(.665 .498) translate(0 .295)">
            <mask id="kait1lr4bd" fill="#fff">
                <use xlink:href="#f38qxgdwdc"/>
            </mask>
            <path fill="#FFF" d="M13.72 11.09c.086-.56.446-1.018.93-1.249.22-.106.465-.164.723-.164h10.491c1.243 0 2.403.081 3.462.252.303.049.597.104.883.167.286.064.564.136.834.214.134.04.267.082.396.123.522.173 1.005.377 1.452.612.525-3.349-.004-5.63-1.815-7.694-1.997-2.273-5.6-3.246-10.21-3.246H7.48c-.942 0-1.745.685-1.89 1.616L.013 37.061c-.11.7.43 1.33 1.135 1.33h8.264l2.075-13.164 2.231-14.136z" mask="url(#kait1lr4bd)"/>
        </g>
    </g>
</svg>
