<svg xmlns="http://www.w3.org/2000/svg" xmlns:xlink="http://www.w3.org/1999/xlink" width="202" height="50" viewBox="0 0 202 50">
    <defs>
        <path id="w4hfloaboa" d="M0.387 0.161L11.98 0.161 11.98 31.158 0.387 31.158z"/>
        <path id="558x6wc0ac" d="M0 0.12L37.827 0.12 37.827 43.895 0 43.895z"/>
    </defs>
    <g fill="none" fill-rule="evenodd">
        <path fill="#FFF" d="M75.397 11.468H64.239c-.764 0-1.414.555-1.532 1.309L58.194 41.39c-.09.564.347 1.073.92 1.073h5.327c.764 0 1.413-.554 1.532-1.31l1.217-7.717c.117-.755.769-1.31 1.53-1.31h3.533c7.35 0 11.592-3.557 12.7-10.605.5-3.084.022-5.507-1.423-7.204-1.585-1.863-4.398-2.849-8.133-2.849m1.287 10.45c-.61 4.004-3.669 4.004-6.627 4.004h-1.684l1.181-7.477c.07-.452.462-.785.92-.785h.77c2.016 0 3.916 0 4.898 1.149.586.685.766 1.703.542 3.11M108.751 21.79h-5.343c-.455 0-.848.333-.919.784l-.236 1.495-.374-.542c-1.156-1.679-3.736-2.24-6.31-2.24-5.906 0-10.949 4.472-11.931 10.746-.51 3.129.216 6.121 1.99 8.209 1.63 1.918 3.958 2.718 6.73 2.718 4.759 0 7.397-3.06 7.397-3.06l-.239 1.485c-.09.568.348 1.077.918 1.077h4.813c.765 0 1.411-.555 1.532-1.31l2.888-18.289c.091-.562-.345-1.073-.916-1.073m-7.448 10.4c-.516 3.052-2.938 5.101-6.029 5.101-1.551 0-2.791-.497-3.588-1.44-.789-.937-1.09-2.27-.838-3.755.481-3.026 2.945-5.142 5.988-5.142 1.517 0 2.75.504 3.563 1.455.814.96 1.137 2.302.904 3.78M137.21 21.79h-5.37c-.512 0-.994.254-1.284.68l-7.406 10.91-3.14-10.484c-.196-.656-.802-1.106-1.487-1.106h-5.277c-.64 0-1.086.626-.882 1.23l5.914 17.356-5.56 7.85c-.438.619.003 1.469.758 1.469h5.364c.508 0 .985-.249 1.274-.666l17.86-25.78c.426-.616-.012-1.46-.765-1.46M154.987 11.468h-11.16c-.762 0-1.411.555-1.53 1.309l-4.513 28.613c-.09.564.347 1.073.916 1.073h5.728c.532 0 .987-.388 1.07-.917l1.28-8.11c.118-.755.77-1.31 1.531-1.31h3.53c7.352 0 11.593-3.557 12.702-10.605.502-3.084.02-5.507-1.424-7.204-1.584-1.863-4.395-2.849-8.13-2.849m1.287 10.45c-.608 4.004-3.667 4.004-6.627 4.004h-1.682l1.183-7.477c.07-.452.459-.785.916-.785h.772c2.014 0 3.916 0 4.899 1.149.585.685.763 1.703.54 3.11M188.34 21.79H183c-.459 0-.849.333-.917.784l-.237 1.495-.375-.542c-1.157-1.679-3.735-2.24-6.31-2.24-5.904 0-10.946 4.472-11.928 10.746-.509 3.129.214 6.121 1.989 8.209 1.632 1.918 3.958 2.718 6.73 2.718 4.758 0 7.396-3.06 7.396-3.06l-.238 1.485c-.09.568.348 1.077.92 1.077h4.812c.762 0 1.411-.555 1.53-1.31l2.89-18.289c.088-.562-.35-1.073-.922-1.073m-7.448 10.4c-.513 3.052-2.939 5.101-6.029 5.101-1.548 0-2.792-.497-3.588-1.44-.79-.937-1.087-2.27-.838-3.755.484-3.026 2.945-5.142 5.988-5.142 1.517 0 2.75.504 3.563 1.455.817.96 1.14 2.302.904 3.78"/>
        <g transform="translate(189.66 11.306)">
            <mask id="ss7yzer8nb" fill="#fff">
                <use xlink:href="#w4hfloaboa"/>
            </mask>
            <path fill="#FFF" d="M4.979.948L.399 30.084c-.09.565.348 1.074.917 1.074H5.92c.765 0 1.415-.555 1.532-1.31L11.97 1.236c.09-.565-.348-1.075-.918-1.075H5.896c-.455.002-.847.335-.917.787" mask="url(#ss7yzer8nb)"/>
        </g>
        <path fill="#FFF" d="M37.605 12.966c-.046.292-.098.59-.157.897-2.018 10.363-8.923 13.942-17.742 13.942h-4.49c-1.078 0-1.987.784-2.155 1.848l-2.299 14.58-.651 4.132c-.11.698.429 1.328 1.134 1.328h7.964c.943 0 1.744-.685 1.892-1.615l.079-.405 1.499-9.515.096-.523c.147-.933.95-1.618 1.893-1.618h1.191c7.716 0 13.756-3.132 15.521-12.198.738-3.787.356-6.949-1.595-9.172-.591-.67-1.324-1.227-2.18-1.68" opacity=".5"/>
        <path fill="#FFF" d="M35.493 12.124c-.308-.09-.626-.171-.953-.244-.327-.072-.664-.136-1.01-.191-1.21-.196-2.536-.29-3.958-.29H17.577c-.295 0-.576.068-.827.189-.553.266-.964.79-1.064 1.43l-2.552 16.163-.073.471c.168-1.063 1.077-1.846 2.155-1.846h4.49c8.819 0 15.724-3.582 17.742-13.942.06-.307.111-.606.157-.898-.511-.27-1.064-.502-1.66-.7-.146-.049-.298-.096-.452-.142"/>
        <g transform="translate(0 .337)">
            <mask id="f8kirhx3dd" fill="#fff">
                <use xlink:href="#558x6wc0ac"/>
            </mask>
            <path fill="#FFF" d="M15.686 12.681c.1-.641.51-1.165 1.064-1.43.253-.12.532-.187.827-.187h11.995c1.422 0 2.748.093 3.959.289.345.055.682.119 1.01.191.326.073.644.155.952.244.154.046.306.094.454.14.596.198 1.149.431 1.66.7.6-3.828-.005-6.436-2.076-8.797C33.249 1.232 29.129.12 23.857.12H8.553C7.476.12 6.557.903 6.39 1.968L.016 42.374c-.125.8.492 1.521 1.297 1.521h9.45l2.371-15.051 2.552-16.163z" mask="url(#f8kirhx3dd)"/>
        </g>
    </g>
</svg>
