<svg xmlns="http://www.w3.org/2000/svg" width="16" height="16" viewBox="0 0 16 16">
    <g fill="none" fill-rule="evenodd">
        <g fill="#8293A4" fill-rule="nonzero">
            <g>
                <path d="M607.512 231.188c.084 0 .159-.03.225-.09s.111-.138.135-.234l.27-1.962c.372-.144.798-.39 1.278-.738l1.854.738c.096.036.183.042.261.018.078-.024.141-.078.189-.162l1.512-2.592c.048-.084.066-.174.054-.27-.012-.096-.054-.174-.126-.234l-1.566-1.224c.024-.168.036-.414.036-.738s-.012-.57-.036-.738l1.566-1.224c.072-.06.114-.138.126-.234.012-.096-.006-.186-.054-.27l-1.512-2.592c-.048-.084-.111-.138-.189-.162-.078-.024-.165-.018-.261.018l-1.854.738c-.384-.312-.81-.558-1.278-.738l-.27-1.962c-.024-.096-.069-.174-.135-.234-.066-.06-.141-.09-.225-.09h-3.024c-.084 0-.159.03-.225.09s-.105.138-.117.234l-.288 1.962c-.408.168-.828.414-1.26.738l-1.872-.738c-.192-.084-.342-.036-.45.144l-1.512 2.592c-.048.084-.066.174-.054.27.012.096.054.174.126.234l1.584 1.224c-.024.168-.036.414-.036.738s.012.57.036.738l-1.584 1.224c-.072.06-.114.138-.126.234-.012.096.006.186.054.27l1.512 2.592c.108.18.258.228.45.144l1.872-.738c.336.288.756.534 1.26.738l.288 1.962c.012.096.051.174.117.234.066.06.141.09.225.09h3.024zm-1.512-4.86c-.468 0-.903-.12-1.305-.36-.402-.24-.723-.561-.963-.963-.24-.402-.36-.837-.36-1.305 0-.468.12-.906.36-1.314.24-.408.561-.732.963-.972.402-.24.837-.36 1.305-.36.468 0 .906.12 1.314.36.408.24.732.564.972.972.24.408.36.846.36 1.314 0 .468-.12.903-.36 1.305-.24.402-.564.723-.972.963-.408.24-.846.36-1.314.36z" transform="translate(-848.000000, -413.000000) translate(250.000000, 197.000000)"/>
            </g>
        </g>
    </g>
</svg>
