<svg xmlns="http://www.w3.org/2000/svg" width="546" height="361" viewBox="0 0 546 361">
    <defs>
        <linearGradient id="c62eqiqjwa" x1="50.968%" x2="41.008%" y1="79.399%" y2="-12.429%">
            <stop offset=".058%" stop-color="#FFF"/>
            <stop offset="100%" stop-color="#1E313F"/>
        </linearGradient>
        <linearGradient id="j4kklvfwcb" x1="48.217%" x2="58.076%" y1="17.731%" y2="112.387%">
            <stop offset=".058%" stop-color="#FFF"/>
            <stop offset="99.67%" stop-color="#4E5A64"/>
        </linearGradient>
    </defs>
    <g fill="none" fill-rule="evenodd">
        <g>
            <g fill-rule="nonzero">
                <g stroke="#1E313F" stroke-width=".5">
                    <path fill="#FAFBFC" d="M174.89 77.32c6.368 3.675 6.368 9.676 0 13.35l-63.971 36.946c-6.369 3.674-16.738 3.674-23.107 0L5.062 79.81c-6.368-3.674-6.368-9.675 0-13.35l63.971-36.945c6.369-3.674 16.738-3.674 23.107 0l82.75 47.805z" opacity=".3" transform="translate(1) translate(182.891 104.55) translate(182.075) translate(0 15.064)"/>
                    <path fill="#FAFBFC" d="M174.89 82.628c6.368 3.674 6.368 9.675 0 13.35l-63.971 36.945c-6.369 3.674-16.738 3.674-23.107 0L5.062 85.118c-6.368-3.674-6.368-9.675 0-13.35l63.971-36.945c6.369-3.674 16.738-3.674 23.107 0l82.75 47.805z" opacity=".1" transform="translate(1) translate(182.891 104.55) translate(182.075) translate(0 15.064)"/>
                    <path fill="#FAFBFC" d="M174.89 71.81c6.368 3.674 6.368 9.675 0 13.349l-63.93 36.905c-6.369 3.674-16.738 3.674-23.107 0L5.063 74.259c-6.37-3.674-6.37-9.675 0-13.35l63.97-36.945c6.369-3.674 16.738-3.674 23.107 0l82.75 47.845z" opacity=".5" transform="translate(1) translate(182.891 104.55) translate(182.075) translate(0 15.064)"/>
                    <path fill="#FAFBFC" d="M174.89 66.257c6.368 3.674 6.368 9.676 0 13.35l-63.971 36.945c-6.369 3.675-16.738 3.675-23.107 0L5.062 68.748c-6.368-3.675-6.368-9.676 0-13.35l63.971-36.946c6.369-3.674 16.738-3.674 23.107 0l82.75 47.805z" opacity=".7" transform="translate(1) translate(182.891 104.55) translate(182.075) translate(0 15.064)"/>
                    <path fill="#F7F8F9" d="M174.89 64.094l-63.971 36.945c-3.185 1.837-7.349 2.736-11.553 2.736-4.205 0-8.37-.899-11.554-2.736L5.062 53.234C1.96 51.438.408 49.111.327 46.744v9.593C.408 58.705 2 61.032 5.062 62.828l82.791 47.805c3.184 1.837 7.348 2.735 11.553 2.735 4.205 0 8.37-.898 11.554-2.735l63.97-36.946c3.267-1.878 4.859-4.368 4.736-6.858v-9.594c.082 2.49-1.51 4.98-4.776 6.859z" transform="translate(1) translate(182.891 104.55) translate(182.075) translate(0 15.064)"/>
                    <path fill="#FFF" d="M174.89 50.744c6.368 3.674 6.368 9.675 0 13.35l-63.971 36.945c-6.369 3.674-16.738 3.674-23.107 0L5.062 53.234c-6.368-3.674-6.368-9.675 0-13.349L69.033 2.939c6.369-3.674 16.738-3.674 23.107 0l82.75 47.805z" transform="translate(1) translate(182.891 104.55) translate(182.075) translate(0 15.064)"/>
                    <path fill="#FAFBFC" d="M92.63 89.2c-1.92-1.102-2.899-2.572-2.899-4.041 0-1.47.98-2.94 2.94-4.083 3.878-2.245 10.205-2.245 14.084-.04 1.918 1.102 2.898 2.571 2.898 4.041 0 1.47-.98 2.94-2.94 4.083-3.918 2.245-10.205 2.245-14.083.04z" transform="translate(1) translate(182.891 104.55) translate(182.075) translate(0 15.064)"/>
                </g>
                <g fill="#1E313F">
                    <path d="M1.837 1.143c.939-.53 1.878-.898 2.735-.98.898-.122 1.715.041 2.531.531.817.45 1.103.939.898 1.47-.204.49-.775 1.02-1.714 1.592-.94.53-1.878.898-2.735.98-.858.081-1.715-.041-2.531-.531-.817-.45-1.103-.94-.899-1.47.164-.53.776-1.061 1.715-1.592zm3.47 2c.694-.408 1.102-.734 1.306-1.061.205-.327.041-.612-.449-.898-.49-.286-1.02-.368-1.55-.245-.532.122-1.144.367-1.838.776-.694.408-1.143.734-1.347 1.061-.204.327-.041.612.449.898.49.286 1.02.368 1.551.245.572-.122 1.184-.408 1.878-.776zM7.063 7.634L7.552 6.001 4.899 6.369 3.797 5.756 7.797 5.266 8.491 3.062 9.594 3.715 9.104 5.307 11.716 4.94 12.778 5.552 8.859 6.001 8.165 8.287zM10.655 8.491L9.594 9.104 8.491 8.451 9.553 7.838zM12.288 9.43L11.227 10.043 10.124 9.39 11.186 8.777zM13.921 10.369L12.86 10.982 11.757 10.328 12.819 9.716zM16.575 9.634c.938-.53 1.877-.898 2.735-.98.898-.122 1.714.042 2.53.531.817.49 1.103.94.899 1.47-.204.49-.776 1.02-1.715 1.592-.939.53-1.878.898-2.735.98-.857.082-1.714-.04-2.53-.53-.817-.49-1.103-.94-.9-1.47.205-.49.777-1.021 1.716-1.593zm3.47 2c.694-.407 1.102-.734 1.306-1.06.204-.327.04-.613-.45-.899-.489-.285-1.02-.367-1.55-.245-.531.123-1.144.368-1.838.776-.694.408-1.143.735-1.347 1.061-.204.327-.04.613.45.899.49.285 1.02.367 1.55.244.572-.122 1.185-.367 1.879-.775zM21.882 12.696c.939-.53 1.878-.898 2.735-.98.898-.122 1.714.041 2.53.531.817.49 1.103.94.9 1.47-.205.49-.777 1.02-1.716 1.592-.938.53-1.877.898-2.735.98-.898.122-1.714-.041-2.53-.53-.817-.49-1.103-.94-.899-1.47.204-.49.776-1.021 1.715-1.593zm3.47 2c.694-.408 1.102-.734 1.306-1.06.204-.327.04-.613-.449-.899-.49-.286-1.02-.367-1.551-.245-.531.123-1.143.368-1.837.776-.694.408-1.143.735-1.348 1.061-.204.327-.04.613.45.898.49.286 1.02.368 1.55.245.572-.122 1.185-.367 1.879-.775zM27.23 15.799c.939-.53 1.877-.898 2.735-.98.898-.122 1.714.04 2.53.53.817.49 1.103.94.899 1.47-.204.49-.776 1.021-1.715 1.593-.939.53-1.878.898-2.735.98-.857.081-1.714-.041-2.53-.531-.817-.49-1.103-.94-.899-1.47.163-.53.735-1.061 1.715-1.592zm3.47 2c.694-.408 1.102-.735 1.306-1.061.204-.327.04-.613-.45-.898-.489-.286-1.02-.368-1.55-.245-.531.122-1.143.367-1.837.775-.694.409-1.144.735-1.348 1.062-.204.326-.04.612.45.898.49.286 1.02.367 1.55.245.572-.123 1.185-.408 1.879-.776zM34.251 17.473L35.149 16.942 37.068 18.044 31.067 21.514 30.046 20.943 35.149 18.003z" transform="translate(1) translate(182.891 104.55) translate(182.075) translate(19.187 58.337)"/>
                </g>
                <g transform="translate(1) translate(182.891 104.55) translate(182.075) translate(51.034 .45)">
                    <circle cx="37.439" cy="37.563" r="37.314" fill="#1E313F" transform="rotate(-.192 37.439 37.563)"/>
                    <path fill="#FFF" d="M60.775 60.713c12.8-12.893 12.737-33.688-.155-46.488-12.893-12.8-33.688-12.737-46.488.155l46.643 46.333z" opacity=".2"/>
                    <g>
                        <path fill="url(#c62eqiqjwa)" d="M4.745 36.375c-.352-.387-.668-.844-.985-1.266-.14-.175-.246-.351-.386-.562-.035-.035-.07-.07-.07-.14l-.317-.528c-.035-.07-.07-.105-.105-.175-.106-.176-.211-.352-.281-.528l-.106-.21c-.105-.176-.175-.352-.28-.528l-.106-.21c-.07-.176-.176-.352-.246-.528l-.106-.21c-.07-.176-.14-.387-.246-.563 0-.035-.035-.07-.035-.105-.176-.422-.316-.879-.457-1.336 0-.035-.035-.07-.035-.105-.035-.176-.105-.316-.14-.492-.036-.14-.07-.246-.106-.387-.035-.14-.07-.316-.105-.457l-.106-.421c-.035-.141-.07-.282-.07-.422-.035-.14-.07-.316-.07-.457-.036-.14-.036-.281-.07-.422-.036-.175-.036-.351-.071-.492 0-.14-.035-.28-.035-.421-.035-.176-.035-.352-.07-.563 0-.14-.036-.246-.036-.386 0-.211-.035-.422-.035-.633v-.316c0-.317-.035-.633-.035-.95 0-.315 0-.632.035-.913v-.281c0-.211.035-.422.035-.633 0-.105 0-.21.036-.316 0-.21.035-.422.07-.597 0-.106.035-.211.035-.317.035-.246.07-.492.105-.703 0-.07 0-.105.036-.175.035-.282.105-.563.14-.879 0-.105.035-.176.07-.281.036-.211.07-.387.141-.598.035-.105.035-.21.07-.316.035-.176.106-.351.14-.527l.106-.316c.07-.176.106-.387.176-.563.035-.07.07-.175.07-.246.106-.246.176-.527.282-.773.035-.07.07-.176.105-.246l.21-.527c.036-.106.106-.21.141-.316.07-.14.141-.317.211-.457.035-.106.106-.211.14-.317.071-.14.141-.316.247-.456.035-.106.105-.176.14-.282.141-.246.246-.456.387-.667-.281 1.054-.422 2.179-.422 3.409 0 4.147 1.758 7.31 5.237 9.454.176 3.725 1.265 6.677 3.128 8.575l-6.361 4.077z" transform="translate(19.326 14.987)"/>
                        <path fill="url(#j4kklvfwcb)" d="M24.953 14.023c1.09 1.616 1.757 3.69 2.003 6.15.878.422 1.687.914 2.355 1.44 2.565 2.004 3.9 4.956 3.9 8.682 0 .456-.035.913-.07 1.335v-.035c.14-.316.246-.597.352-.914.035-.07.07-.176.105-.246.07-.21.14-.457.211-.668l.105-.316.106-.422c.035-.175.105-.351.14-.527l.106-.421c.035-.141.07-.317.105-.457.036-.106.036-.211.07-.317.036-.246.106-.492.141-.703 0-.105.035-.175.035-.28.036-.247.07-.528.106-.774 0-.07 0-.105.035-.176.035-.246.035-.492.07-.738v-.175c.035-.282.035-.563.035-.844v-.176-.913c0-.317 0-.668-.035-.984v-.317c0-.21-.035-.421-.035-.667 0-.141-.035-.246-.035-.387 0-.176-.035-.387-.07-.562 0-.14-.035-.281-.035-.387-.036-.176-.036-.351-.07-.527-.036-.14-.036-.281-.071-.422-.035-.176-.07-.351-.105-.492-.036-.14-.07-.281-.07-.422-.036-.175-.071-.316-.106-.492l-.106-.421c-.035-.14-.07-.317-.14-.457l-.106-.422c-.035-.14-.105-.281-.14-.457-.035-.14-.106-.281-.14-.422-.036-.14-.106-.28-.141-.421-.036-.14-.106-.281-.141-.422-.07-.14-.105-.281-.176-.422-.07-.14-.105-.28-.175-.422-.07-.14-.106-.246-.176-.386-.07-.14-.14-.281-.176-.387-.07-.14-.14-.246-.21-.386-.071-.14-.141-.246-.212-.387-.07-.105-.14-.246-.21-.351-.07-.14-.141-.246-.211-.387-.07-.105-.14-.21-.211-.351-.246-.352-.457-.703-.738-1.055-.176-.246-.352-.457-.563-.703l-5.306 5.413z" transform="translate(19.326 14.987)"/>
                        <path fill="#FFF" d="M21.122 19.083c-.387-.07-.738-.14-1.09-.21-4.709-.95-8.153-1.617-8.153-4.92 0-2.039 2.003-3.656 5.623-3.656 3.198 0 5.764 1.3 7.45 3.76.141.212.282.423.387.633-.14-.21-.246-.421-.386-.632l5.342-5.377c-2.039-2.425-4.64-4.112-7.592-5.026-.386-.105-.808-.21-1.23-.316h-.035c-.246-.035-.492-.106-.738-.14C20.63 1.44 19.224.07 17.467.07c-1.757 0-3.163 1.406-3.233 3.128-.317.07-.633.106-.95.176h-.035c-3.338.773-6.22 2.53-8.47 5.166-.948 1.582-1.405 3.48-1.405 5.694 0 7.52 5.658 9.91 11.211 11.246 1.02.246 2.038.422 3.022.597 3.48.633 6.467 1.16 6.467 4.288 0 1.933-2.144 4.358-6.607 4.358-2.671 0-4.85-.879-6.432-2.566l.036.035-6.362 4.147c.879 1.02 1.828 1.898 2.847 2.671.352.246.703.492 1.054.703.352.211.738.422 1.09.598h.035c.351.176.738.351 1.125.527.035 0 .035 0 .07.035l1.16.422c.035 0 .035 0 .07.035.176.07.351.105.527.176h.07c.211.07.387.105.598.14.035 0 .07 0 .07.035l.527.106c.036 0 .07 0 .106.035.035 0 .105 0 .14.035 0 1.793 1.441 3.233 3.234 3.233 1.792 0 3.233-1.44 3.233-3.233.21-.035.422-.07.633-.14h.07c.492-.106.949-.246 1.406-.387.246-.07.457-.14.703-.246 2.565-.949 4.85-2.53 6.677-4.71.703-.808 1.3-1.686 1.863-2.635.28-1.02.421-2.18.421-3.374.106-8.048-6.01-10.262-11.316-11.282z" transform="translate(19.326 14.987)"/>
                    </g>
                </g>
            </g>
            <g stroke="#1E313F" stroke-width=".5">
                <path d="M34.904 38.334L0.122 38.415 0.204 18.33" transform="translate(1) translate(182.891 104.55) translate(163.704 115.49)"/>
                <path d="M15.881 9.267L15.758 29.352 50.54 29.312" transform="translate(1) translate(182.891 104.55) translate(163.704 115.49)"/>
                <path d="M31.557 0.245L31.434 20.33 66.216 20.249" transform="translate(1) translate(182.891 104.55) translate(163.704 115.49)"/>
            </g>
            <g fill-rule="nonzero">
                <g stroke="#1E313F" stroke-width=".5">
                    <path fill="#FAFBFC" d="M174.89 77.32c6.368 3.675 6.368 9.676 0 13.35l-63.971 36.946c-6.369 3.674-16.738 3.674-23.107 0L5.062 79.81c-6.368-3.674-6.368-9.675 0-13.35l63.971-36.945c6.369-3.674 16.738-3.674 23.107 0l82.75 47.805z" opacity=".3" transform="translate(1) translate(182.891 104.55) translate(0 106.326) translate(0 14.064)"/>
                    <path fill="#FAFBFC" d="M174.89 82.628c6.368 3.674 6.368 9.675 0 13.35l-63.971 36.945c-6.369 3.674-16.738 3.674-23.107 0L5.062 85.118c-6.368-3.674-6.368-9.675 0-13.35l63.971-36.945c6.369-3.674 16.738-3.674 23.107 0l82.75 47.805z" opacity=".1" transform="translate(1) translate(182.891 104.55) translate(0 106.326) translate(0 14.064)"/>
                    <path fill="#FAFBFC" d="M174.89 71.81c6.368 3.674 6.368 9.675 0 13.349l-63.93 36.905c-6.369 3.674-16.738 3.674-23.107 0L5.063 74.259c-6.37-3.674-6.37-9.675 0-13.35l63.97-36.945c6.369-3.674 16.738-3.674 23.107 0l82.75 47.845z" opacity=".5" transform="translate(1) translate(182.891 104.55) translate(0 106.326) translate(0 14.064)"/>
                    <path fill="#FAFBFC" d="M174.89 66.257c6.368 3.674 6.368 9.676 0 13.35l-63.971 36.945c-6.369 3.675-16.738 3.675-23.107 0L5.062 68.748c-6.368-3.675-6.368-9.676 0-13.35l63.971-36.946c6.369-3.674 16.738-3.674 23.107 0l82.75 47.805z" opacity=".7" transform="translate(1) translate(182.891 104.55) translate(0 106.326) translate(0 14.064)"/>
                    <path fill="#F7F8F9" d="M174.89 64.094l-63.971 36.945c-3.185 1.837-7.349 2.736-11.553 2.736-4.205 0-8.37-.899-11.554-2.736L5.062 53.234C1.96 51.438.408 49.111.327 46.744v9.593C.408 58.705 2 61.032 5.062 62.828l82.791 47.805c3.184 1.837 7.348 2.735 11.553 2.735 4.205 0 8.37-.898 11.554-2.735l63.97-36.946c3.267-1.878 4.859-4.368 4.736-6.858v-9.594c.082 2.49-1.51 4.98-4.776 6.859z" transform="translate(1) translate(182.891 104.55) translate(0 106.326) translate(0 14.064)"/>
                    <path fill="#FFF" d="M174.89 50.744c6.368 3.674 6.368 9.675 0 13.35l-63.971 36.945c-6.369 3.674-16.738 3.674-23.107 0L5.062 53.234c-6.368-3.674-6.368-9.675 0-13.349L69.033 2.939c6.369-3.674 16.738-3.674 23.107 0l82.75 47.805z" transform="translate(1) translate(182.891 104.55) translate(0 106.326) translate(0 14.064)"/>
                    <path fill="#FAFBFC" d="M92.63 89.2c-1.92-1.102-2.899-2.572-2.899-4.041 0-1.47.98-2.94 2.94-4.083 3.878-2.245 10.205-2.245 14.084-.04 1.918 1.102 2.898 2.571 2.898 4.041 0 1.47-.98 2.94-2.94 4.083-3.918 2.245-10.205 2.245-14.083.04z" transform="translate(1) translate(182.891 104.55) translate(0 106.326) translate(0 14.064)"/>
                </g>
                <g fill="#1E313F">
                    <path d="M1.837 1.143c.939-.53 1.878-.898 2.735-.98.898-.122 1.715.041 2.531.531.817.49 1.103.939.898 1.47-.204.49-.775 1.02-1.714 1.592-.94.53-1.878.898-2.735.98-.898.122-1.715-.041-2.531-.531-.817-.49-1.103-.94-.899-1.47.164-.53.776-1.061 1.715-1.592zm3.47 2c.694-.408 1.102-.734 1.306-1.061.205-.327.041-.612-.449-.898-.49-.286-1.02-.368-1.55-.245-.532.122-1.144.367-1.838.776-.694.408-1.143.734-1.347 1.061-.204.327-.041.612.449.898.49.286 1.02.368 1.551.245.572-.122 1.184-.408 1.878-.776zM7.063 7.634L7.552 6.001 4.899 6.369 3.797 5.756 7.797 5.266 8.491 3.062 9.594 3.715 9.104 5.307 11.716 4.94 12.778 5.552 8.859 6.001 8.165 8.287zM10.655 8.491L9.594 9.104 8.491 8.451 9.553 7.838zM12.288 9.43L11.227 10.043 10.124 9.39 11.186 8.777zM13.921 10.369L12.86 10.982 11.757 10.328 12.819 9.716zM16.575 9.634c.938-.53 1.877-.898 2.735-.98.898-.122 1.714.042 2.53.531.817.49 1.103.94.899 1.47-.204.49-.776 1.02-1.715 1.592-.939.53-1.878.898-2.735.98-.898.122-1.714-.04-2.53-.53-.817-.49-1.103-.94-.9-1.47.205-.49.777-1.021 1.716-1.593zm3.47 2c.694-.407 1.102-.734 1.306-1.06.204-.327.04-.613-.45-.899-.489-.285-1.02-.367-1.55-.245-.531.123-1.144.368-1.838.776-.694.408-1.143.735-1.347 1.061-.204.327-.04.613.45.899.49.285 1.02.367 1.55.244.572-.122 1.185-.367 1.879-.775zM21.882 12.696c.939-.53 1.878-.898 2.735-.98.898-.122 1.714.041 2.53.531.817.49 1.103.94.9 1.47-.205.49-.777 1.02-1.716 1.592-.938.53-1.877.898-2.735.98-.898.122-1.714-.041-2.53-.53-.817-.49-1.103-.94-.899-1.47.204-.49.776-1.021 1.715-1.593zm3.47 2c.694-.408 1.102-.734 1.306-1.06.204-.327.04-.613-.449-.899-.49-.286-1.02-.367-1.551-.245-.531.123-1.143.368-1.837.776-.694.408-1.143.735-1.348 1.061-.204.327-.04.613.45.898.49.286 1.02.368 1.55.245.572-.081 1.185-.367 1.879-.775zM27.23 15.799c.939-.53 1.877-.898 2.735-.98.898-.122 1.714.04 2.53.53.817.49 1.103.94.899 1.47-.204.49-.776 1.021-1.715 1.593-.939.53-1.878.898-2.735.98-.898.122-1.714-.041-2.53-.531-.817-.49-1.103-.94-.899-1.47.163-.53.735-1.061 1.715-1.592zm3.47 2c.694-.408 1.102-.735 1.306-1.061.204-.327.04-.613-.45-.898-.489-.286-1.02-.368-1.55-.245-.531.122-1.143.367-1.837.775-.694.409-1.144.735-1.348 1.062-.204.326-.04.612.45.898.49.286 1.02.367 1.55.245.572-.123 1.185-.408 1.879-.776zM34.21 20.33c1.144-.04 2-.204 2.49-.49.287-.163.49-.367.49-.571.041-.204-.122-.368-.448-.572-.368-.204-.735-.285-1.103-.245-.408.041-.816.164-1.265.368l-.94-.53c.736-.368 1.47-.572 2.205-.532.735 0 1.43.205 2 .531.572.327.899.694.899 1.062.04.367-.245.694-.776 1.02-.449.245-1.02.408-1.714.53-.735.083-1.47.123-2.246.123-.775-.04-1.551-.081-2.245-.163l2.858 1.633-.776.45-4.164-2.41.694-.408c1.551.164 2.898.245 4.041.204z" transform="translate(1) translate(182.891 104.55) translate(0 106.326) translate(19.187 57.337)"/>
                </g>
                <g transform="translate(1) translate(182.891 104.55) translate(0 106.326) translate(51.109 .124)">
                    <circle cx="37.439" cy="37.563" r="37.314" fill="#1E313F" transform="rotate(-.192 37.439 37.563)"/>
                    <path fill="#FFF" d="M60.775 60.713c12.8-12.893 12.737-33.688-.155-46.488-12.893-12.8-33.688-12.737-46.488.155l46.643 46.333z" opacity=".2"/>
                    <g>
                        <path fill="url(#c62eqiqjwa)" d="M4.745 36.375c-.352-.387-.668-.844-.985-1.266-.14-.175-.246-.351-.386-.562-.035-.035-.07-.07-.07-.14l-.317-.528c-.035-.07-.07-.105-.105-.175-.106-.176-.211-.352-.281-.528l-.106-.21c-.105-.176-.175-.352-.28-.528l-.106-.21c-.07-.176-.176-.352-.246-.528l-.106-.21c-.07-.176-.14-.387-.246-.563 0-.035-.035-.07-.035-.105-.176-.422-.316-.879-.457-1.336 0-.035-.035-.07-.035-.105-.035-.176-.105-.316-.14-.492-.036-.14-.07-.246-.106-.387-.035-.14-.07-.316-.105-.457l-.106-.421c-.035-.141-.07-.282-.07-.422-.035-.14-.07-.316-.07-.457-.036-.14-.036-.281-.07-.422-.036-.175-.036-.351-.071-.492 0-.14-.035-.28-.035-.421-.035-.176-.035-.352-.07-.563 0-.14-.036-.246-.036-.386 0-.211-.035-.422-.035-.633v-.316c0-.317-.035-.633-.035-.95 0-.315 0-.632.035-.913v-.281c0-.211.035-.422.035-.633 0-.105 0-.21.036-.316 0-.21.035-.422.07-.597 0-.106.035-.211.035-.317.035-.246.07-.492.105-.703 0-.07 0-.105.036-.175.035-.282.105-.563.14-.879 0-.105.035-.176.07-.281.036-.211.07-.387.141-.598.035-.105.035-.21.07-.316.035-.176.106-.351.14-.527l.106-.316c.07-.176.106-.387.176-.563.035-.07.07-.175.07-.246.106-.246.176-.527.282-.773.035-.07.07-.176.105-.246l.21-.527c.036-.106.106-.21.141-.316.07-.14.141-.317.211-.457.035-.106.106-.211.14-.317.071-.14.141-.316.247-.456.035-.106.105-.176.14-.282.141-.246.246-.456.387-.667-.281 1.054-.422 2.179-.422 3.409 0 4.147 1.758 7.31 5.237 9.454.176 3.725 1.265 6.677 3.128 8.575l-6.361 4.077z" transform="translate(19.326 14.987)"/>
                        <path fill="url(#j4kklvfwcb)" d="M24.953 14.023c1.09 1.616 1.757 3.69 2.003 6.15.878.422 1.687.914 2.355 1.44 2.565 2.004 3.9 4.956 3.9 8.682 0 .456-.035.913-.07 1.335v-.035c.14-.316.246-.597.352-.914.035-.07.07-.176.105-.246.07-.21.14-.457.211-.668l.105-.316.106-.422c.035-.175.105-.351.14-.527l.106-.421c.035-.141.07-.317.105-.457.036-.106.036-.211.07-.317.036-.246.106-.492.141-.703 0-.105.035-.175.035-.28.036-.247.07-.528.106-.774 0-.07 0-.105.035-.176.035-.246.035-.492.07-.738v-.175c.035-.282.035-.563.035-.844v-.176-.913c0-.317 0-.668-.035-.984v-.317c0-.21-.035-.421-.035-.667 0-.141-.035-.246-.035-.387 0-.176-.035-.387-.07-.562 0-.14-.035-.281-.035-.387-.036-.176-.036-.351-.07-.527-.036-.14-.036-.281-.071-.422-.035-.176-.07-.351-.105-.492-.036-.14-.07-.281-.07-.422-.036-.175-.071-.316-.106-.492l-.106-.421c-.035-.14-.07-.317-.14-.457l-.106-.422c-.035-.14-.105-.281-.14-.457-.035-.14-.106-.281-.14-.422-.036-.14-.106-.28-.141-.421-.036-.14-.106-.281-.141-.422-.07-.14-.105-.281-.176-.422-.07-.14-.105-.28-.175-.422-.07-.14-.106-.246-.176-.386-.07-.14-.14-.281-.176-.387-.07-.14-.14-.246-.21-.386-.071-.14-.141-.246-.212-.387-.07-.105-.14-.246-.21-.351-.07-.14-.141-.246-.211-.387-.07-.105-.14-.21-.211-.351-.246-.352-.457-.703-.738-1.055-.176-.246-.352-.457-.563-.703l-5.306 5.413z" transform="translate(19.326 14.987)"/>
                        <path fill="#FFF" d="M21.122 19.083c-.387-.07-.738-.14-1.09-.21-4.709-.95-8.153-1.617-8.153-4.92 0-2.039 2.003-3.656 5.623-3.656 3.198 0 5.764 1.3 7.45 3.76.141.212.282.423.387.633-.14-.21-.246-.421-.386-.632l5.342-5.377c-2.039-2.425-4.64-4.112-7.592-5.026-.386-.105-.808-.21-1.23-.316h-.035c-.246-.035-.492-.106-.738-.14C20.63 1.44 19.224.07 17.467.07c-1.757 0-3.163 1.406-3.233 3.128-.317.07-.633.106-.95.176h-.035c-3.338.773-6.22 2.53-8.47 5.166-.948 1.582-1.405 3.48-1.405 5.694 0 7.52 5.658 9.91 11.211 11.246 1.02.246 2.038.422 3.022.597 3.48.633 6.467 1.16 6.467 4.288 0 1.933-2.144 4.358-6.607 4.358-2.671 0-4.85-.879-6.432-2.566l.036.035-6.362 4.147c.879 1.02 1.828 1.898 2.847 2.671.352.246.703.492 1.054.703.352.211.738.422 1.09.598h.035c.351.176.738.351 1.125.527.035 0 .035 0 .07.035l1.16.422c.035 0 .035 0 .07.035.176.07.351.105.527.176h.07c.211.07.387.105.598.14.035 0 .07 0 .07.035l.527.106c.036 0 .07 0 .106.035.035 0 .105 0 .14.035 0 1.793 1.441 3.233 3.234 3.233 1.792 0 3.233-1.44 3.233-3.233.21-.035.422-.07.633-.14h.07c.492-.106.949-.246 1.406-.387.246-.07.457-.14.703-.246 2.565-.949 4.85-2.53 6.677-4.71.703-.808 1.3-1.686 1.863-2.635.28-1.02.421-2.18.421-3.374.106-8.048-6.01-10.262-11.316-11.282z" transform="translate(19.326 14.987)"/>
                    </g>
                </g>
            </g>
        </g>
        <g fill-rule="nonzero" transform="translate(1) translate(182.075)">
            <g stroke="#1A82FF" stroke-width=".5">
                <path fill="#FAFBFC" d="M174.686 77.402c6.368 3.674 6.368 9.676 0 13.35l-63.971 36.945c-6.369 3.675-16.738 3.675-23.107 0L4.818 79.893c-6.37-3.675-6.37-9.676 0-13.35l63.97-36.946c6.369-3.674 16.738-3.674 23.107 0l82.79 47.805z" opacity=".3" transform="translate(0 13.064)"/>
                <path fill="#FAFBFC" d="M174.686 82.71c6.368 3.674 6.368 9.675 0 13.349l-63.971 36.945c-6.369 3.675-16.738 3.675-23.107 0L4.818 85.2c-6.37-3.675-6.37-9.676 0-13.35l63.97-36.946c6.369-3.674 16.738-3.674 23.107 0l82.79 47.805z" opacity=".1" transform="translate(0 13.064)"/>
                <path fill="#FAFBFC" d="M174.686 71.891c6.368 3.674 6.368 9.675 0 13.35l-63.971 36.945c-6.369 3.674-16.738 3.674-23.107 0L4.818 74.34c-6.37-3.674-6.37-9.675 0-13.349l63.97-36.905c6.369-3.674 16.738-3.674 23.107 0l82.79 47.805z" opacity=".5" transform="translate(0 13.064)"/>
                <path fill="#FAFBFC" d="M174.686 66.339c6.368 3.674 6.368 9.675 0 13.35l-63.971 36.945c-6.369 3.674-16.738 3.674-23.107 0L4.818 68.83c-6.37-3.674-6.37-9.675 0-13.35l63.97-36.945c6.369-3.674 16.738-3.674 23.107 0l82.79 47.805z" opacity=".7" transform="translate(0 13.064)"/>
                <path fill="#F7F8F9" d="M174.686 64.175l-63.971 36.946c-3.185 1.837-7.349 2.735-11.554 2.735-4.204 0-8.368-.898-11.553-2.735L4.818 53.316C1.714 51.52.162 49.193.081 46.826v9.593c.081 2.368 1.673 4.694 4.735 6.49l82.791 47.806c3.185 1.837 7.349 2.735 11.553 2.735 4.205 0 8.37-.898 11.554-2.735l63.97-36.946c3.267-1.878 4.859-4.368 4.736-6.859v-9.593c.082 2.49-1.47 4.98-4.735 6.858z" transform="translate(0 13.064)"/>
                <path fill="#FFF" d="M174.686 50.826c6.368 3.674 6.368 9.675 0 13.35l-63.971 36.945c-6.369 3.674-16.738 3.674-23.107 0L4.818 53.316c-6.37-3.674-6.37-9.675 0-13.35l63.97-36.945c6.369-3.674 16.738-3.674 23.107 0l82.79 47.805z" transform="translate(0 13.064)"/>
                <path fill="#FAFBFC" d="M92.385 89.282c-1.92-1.102-2.899-2.572-2.899-4.042 0-1.47.98-2.939 2.94-4.082 3.878-2.245 10.205-2.245 14.084-.04 1.918 1.101 2.898 2.571 2.898 4.04 0 1.47-.98 2.94-2.94 4.083-3.918 2.246-10.205 2.246-14.083.041z" transform="translate(0 13.064)"/>
            </g>
            <g fill="#1A82FF">
                <path d="M2 1.225C2.94.694 3.878.327 4.736.245c.898-.123 1.714.04 2.53.53.817.49 1.103.94.899 1.47-.204.49-.776 1.02-1.715 1.592-.939.531-1.878.899-2.735.98-.898.123-1.715-.04-2.531-.53-.817-.49-1.102-.94-.898-1.47C.49 2.287 1.06 1.755 2 1.225zm3.47 2c.694-.408 1.103-.735 1.307-1.061.204-.327.04-.613-.45-.898-.49-.286-1.02-.368-1.55-.245-.531.122-1.144.367-1.838.775-.694.408-1.143.735-1.347 1.062-.204.326-.04.612.45.898.49.286 1.02.367 1.55.245.572-.123 1.184-.408 1.878-.776zM7.226 7.716L7.716 6.083 5.062 6.45 3.96 5.838 7.961 5.348 8.655 3.143 9.757 3.797 9.267 5.389 11.88 5.021 12.941 5.634 9.022 6.083 8.328 8.369zM10.818 8.573L9.757 9.185 8.655 8.532 9.716 7.92zM12.451 9.512L11.39 10.124 10.288 9.471 11.349 8.859zM14.084 10.451L13.023 11.063 11.921 10.41 12.982 9.798zM16.738 9.716c.939-.53 1.878-.898 2.735-.98.898-.122 1.715.041 2.531.531.817.49 1.102.939.898 1.47-.204.49-.775 1.02-1.714 1.592-.94.53-1.878.898-2.736.98-.898.122-1.714-.041-2.53-.531-.817-.49-1.103-.939-.899-1.47.204-.49.776-1.02 1.715-1.592zm3.47 2c.694-.408 1.102-.734 1.306-1.06.204-.328.041-.613-.449-.9-.49-.285-1.02-.366-1.551-.244-.53.122-1.143.367-1.837.776-.694.408-1.143.734-1.347 1.061-.205.327-.041.612.449.898.49.286 1.02.368 1.551.245.571-.122 1.184-.367 1.878-.776zM22.086 12.778c.939-.53 1.878-.898 2.735-.98.898-.122 1.715.041 2.531.53.817.49 1.102.94.898 1.47-.204.49-.775 1.021-1.714 1.593-.94.53-1.878.898-2.736.98-.898.122-1.714-.041-2.53-.531-.817-.49-1.103-.94-.899-1.47.163-.49.735-1.02 1.715-1.592zm3.429 2c.694-.408 1.102-.735 1.306-1.061.204-.327.041-.613-.449-.898-.49-.286-1.02-.368-1.551-.245-.53.122-1.143.367-1.837.775-.694.409-1.143.735-1.347 1.062-.204.326-.041.612.449.898.49.286 1.02.367 1.551.245.612-.123 1.225-.367 1.878-.776zM27.393 15.88c.939-.53 1.878-.898 2.735-.98.898-.122 1.715.042 2.531.531.817.49 1.102.94.898 1.47-.204.49-.775 1.02-1.714 1.592-.94.531-1.878.898-2.736.98-.898.123-1.714-.04-2.53-.53-.817-.49-1.103-.94-.899-1.47.164-.531.735-1.062 1.715-1.592zm3.47 2c.694-.407 1.102-.734 1.306-1.06.204-.327.041-.613-.449-.899-.49-.285-1.02-.367-1.551-.245-.53.123-1.143.368-1.837.776-.694.408-1.143.735-1.347 1.061-.204.327-.041.613.449.899.49.285 1.02.367 1.551.245.572-.123 1.184-.409 1.878-.776zM34.415 17.554L35.313 17.024 37.231 18.126 31.23 21.596 30.21 21.024 35.313 18.085z" transform="translate(18.779 56.337)"/>
            </g>
            <circle cx="88.71" cy="36.66" r="36.333" fill="#FFF" stroke="#1A82FF" stroke-width=".5"/>
            <path fill="#1A82FF" d="M90.221 29.557c1.633.49 2.98.98 4 1.47 1.021.49 1.92 1.183 2.654 2.122.735.939 1.103 2.205 1.103 3.715 0 1.225-.327 2.368-.98 3.43-.653 1.02-1.592 1.877-2.899 2.49-1.306.612-2.857.938-4.695.938h-.04v2.736h-1.307v-2.776c-2.408-.204-4.327-.94-5.838-2.205-1.51-1.265-2.326-2.898-2.49-4.94h5.185c.082.817.408 1.552.98 2.164.571.612 1.306 1.02 2.204 1.225V33.19l-.694-.204c-1.674-.49-2.98-.94-4-1.43-1.021-.448-1.879-1.183-2.613-2.122-.735-.939-1.103-2.204-1.103-3.756 0-1.347.368-2.53 1.103-3.51.734-1.021 1.714-1.797 2.98-2.328 1.265-.53 2.735-.816 4.327-.857v-2.898h1.306v2.898c2.41.163 4.287.857 5.716 2.082 1.429 1.225 2.204 2.776 2.408 4.695h-5.225c-.122-.735-.408-1.388-.898-1.919-.49-.53-1.143-.898-1.96-1.061v6.532l.776.245zm-4.572-2.082c.571.53 1.347.98 2.367 1.347v-6.165c-1.02.041-1.796.327-2.367.776-.572.49-.858 1.143-.858 2.041.041.817.327 1.47.858 2zm6.164 11.675c.612-.571.898-1.265.898-2.163 0-.858-.286-1.511-.898-2.042-.571-.53-1.429-.939-2.49-1.306v6.41c1.061-.042 1.919-.327 2.49-.899zM75.279 49.356H102.223V53.03H75.279z"/>
        </g>
        <g stroke="#1A82FF" stroke-width=".5">
            <path d="M35.068 38.415L0.286 38.497 0.408 18.412" transform="translate(1) translate(163.296 113.49)"/>
            <path d="M16.044 9.349L15.962 29.434 50.744 29.393" transform="translate(1) translate(163.296 113.49)"/>
            <path d="M31.72 0.327L31.598 20.412 66.38 20.33" transform="translate(1) translate(163.296 113.49)"/>
        </g>
        <g fill-rule="nonzero">
            <g stroke="#1A82FF" stroke-width=".5">
                <path fill="#FAFBFC" d="M174.686 77.402c6.368 3.674 6.368 9.676 0 13.35l-63.971 36.945c-6.369 3.675-16.738 3.675-23.107 0L4.818 79.893c-6.37-3.675-6.37-9.676 0-13.35l63.97-36.946c6.369-3.674 16.738-3.674 23.107 0l82.79 47.805z" opacity=".3" transform="translate(1) translate(0 118.39)"/>
                <path fill="#FAFBFC" d="M174.686 82.71c6.368 3.674 6.368 9.675 0 13.349l-63.971 36.945c-6.369 3.675-16.738 3.675-23.107 0L4.818 85.2c-6.37-3.675-6.37-9.676 0-13.35l63.97-36.946c6.369-3.674 16.738-3.674 23.107 0l82.79 47.805z" opacity=".1" transform="translate(1) translate(0 118.39)"/>
                <path fill="#FAFBFC" d="M174.686 71.891c6.368 3.674 6.368 9.675 0 13.35l-63.971 36.945c-6.369 3.674-16.738 3.674-23.107 0L4.818 74.381c-6.37-3.674-6.37-9.675 0-13.35l63.97-36.945c6.369-3.674 16.738-3.674 23.107 0l82.79 47.805z" opacity=".5" transform="translate(1) translate(0 118.39)"/>
                <path fill="#FAFBFC" d="M174.686 66.339c6.368 3.674 6.368 9.675 0 13.35l-63.971 36.945c-6.369 3.674-16.738 3.674-23.107 0L4.818 68.83c-6.37-3.674-6.37-9.675 0-13.35l63.97-36.945c6.369-3.674 16.738-3.674 23.107 0l82.79 47.805z" opacity=".7" transform="translate(1) translate(0 118.39)"/>
                <path fill="#F7F8F9" d="M174.686 64.175l-63.971 36.946c-3.185 1.837-7.349 2.735-11.554 2.735-4.204 0-8.368-.898-11.553-2.735L4.818 53.316C1.714 51.52.162 49.193.081 46.826v9.593c.081 2.368 1.673 4.694 4.735 6.49l82.791 47.806c3.185 1.837 7.349 2.735 11.553 2.735 4.205 0 8.37-.898 11.554-2.735l63.97-36.946c3.267-1.878 4.859-4.368 4.736-6.859v-9.593c.082 2.49-1.47 4.98-4.735 6.858z" transform="translate(1) translate(0 118.39)"/>
                <path fill="#FFF" d="M174.686 50.826c6.368 3.674 6.368 9.675 0 13.35l-63.971 36.945c-6.369 3.674-16.738 3.674-23.107 0L4.818 53.316c-6.37-3.674-6.37-9.675 0-13.35l63.97-36.945c6.369-3.674 16.738-3.674 23.107 0l82.79 47.805z" transform="translate(1) translate(0 118.39)"/>
                <path fill="#FAFBFC" d="M92.385 89.282c-1.92-1.102-2.899-2.572-2.899-4.042 0-1.47.98-2.939 2.94-4.082 3.878-2.245 10.205-2.245 14.084-.04 1.918 1.101 2.898 2.571 2.898 4.04 0 1.47-.98 2.94-2.94 4.083-3.918 2.246-10.205 2.246-14.083.041z" transform="translate(1) translate(0 118.39)"/>
            </g>
            <g fill="#1A82FF">
                <path d="M2 1.225C2.94.694 3.878.327 4.736.245c.898-.123 1.714.04 2.53.53.817.49 1.103.94.899 1.47-.204.49-.776 1.02-1.715 1.592-.939.531-1.878.899-2.735.98-.898.123-1.715-.04-2.531-.53-.817-.49-1.102-.94-.898-1.47C.49 2.287 1.06 1.755 2 1.225zm3.47 2c.694-.408 1.103-.735 1.307-1.061.204-.327.04-.613-.45-.898-.49-.286-1.02-.368-1.55-.245-.531.122-1.144.367-1.838.775-.694.408-1.143.735-1.347 1.062-.204.326-.04.612.45.898.49.286 1.02.367 1.55.245.572-.123 1.184-.408 1.878-.776zM7.226 7.716L7.716 6.083 5.062 6.45 3.96 5.838 7.961 5.348 8.655 3.143 9.757 3.797 9.267 5.389 11.88 5.021 12.941 5.634 9.022 6.083 8.328 8.369zM10.818 8.573L9.757 9.185 8.655 8.532 9.716 7.92zM12.451 9.512L11.39 10.124 10.288 9.471 11.349 8.859zM14.084 10.451L13.023 11.063 11.921 10.41 12.982 9.798zM16.738 9.716c.939-.53 1.878-.898 2.735-.98.898-.122 1.715.041 2.531.531.817.49 1.102.939.898 1.47-.204.49-.775 1.02-1.714 1.592-.94.53-1.878.898-2.736.98-.898.122-1.714-.041-2.53-.531-.817-.49-1.103-.939-.899-1.47.204-.49.776-1.02 1.715-1.592zm3.47 2c.694-.408 1.102-.734 1.306-1.06.204-.328.041-.613-.449-.9-.49-.285-1.02-.366-1.551-.244-.53.122-1.143.367-1.837.776-.694.408-1.143.734-1.347 1.061-.205.327-.041.612.449.898.49.286 1.02.368 1.551.245.571-.122 1.184-.367 1.878-.776zM22.086 12.778c.939-.53 1.878-.898 2.735-.98.898-.122 1.715.041 2.531.53.817.49 1.102.94.898 1.47-.204.49-.775 1.021-1.714 1.593-.94.53-1.878.898-2.736.98-.898.122-1.714-.041-2.53-.531-.817-.49-1.103-.94-.899-1.47.163-.49.735-1.02 1.715-1.592zm3.429 2c.694-.408 1.102-.735 1.306-1.061.204-.327.041-.613-.449-.898-.49-.286-1.02-.368-1.551-.245-.53.122-1.143.367-1.837.775-.694.409-1.143.735-1.347 1.062-.204.326-.041.612.449.898.49.286 1.02.367 1.551.245.612-.123 1.225-.367 1.878-.776zM27.393 15.88c.939-.53 1.878-.898 2.735-.98.898-.122 1.715.042 2.531.531.817.49 1.102.94.898 1.47-.204.49-.775 1.02-1.714 1.592-.94.531-1.878.898-2.736.98-.898.123-1.714-.04-2.53-.53-.817-.49-1.103-.94-.899-1.47.164-.531.735-1.062 1.715-1.592zm3.47 2c.694-.407 1.102-.734 1.306-1.06.204-.327.041-.613-.449-.899-.49-.285-1.02-.367-1.551-.245-.53.123-1.143.368-1.837.776-.694.408-1.143.735-1.347 1.061-.204.327-.041.613.449.899.49.285 1.02.367 1.551.245.572-.123 1.184-.409 1.878-.776zM34.374 20.412c1.143-.04 2-.204 2.49-.49.286-.163.49-.367.49-.571.04-.205-.123-.368-.45-.572-.367-.204-.734-.286-1.101-.245-.409.04-.817.163-1.266.367l-.939-.53c.735-.368 1.47-.572 2.205-.53.734 0 1.428.203 2 .53.572.326.898.694.898 1.061.04.368-.245.694-.776 1.02-.449.246-1.02.409-1.714.532-.735.081-1.47.122-2.245.122-.776-.04-1.552-.082-2.246-.163l2.858 1.633-.776.449-4.164-2.409.694-.408c1.552.163 2.899.245 4.042.204z" transform="translate(1) translate(0 118.39) translate(18.779 43.273)"/>
            </g>
            <g transform="translate(1) translate(0 118.39) translate(41.64 6.532)">
                <circle cx="15.881" cy="15.84" r="15.84" fill="#FFF" stroke="#1A82FF" stroke-width=".5"/>
                <path fill="#1A82FF" d="M15.88 6.328L6.329 15.84l9.512 9.512 9.512-9.512-9.471-9.512zm2.083 8.9l-2.082-2.083-1.878 2.082H9.675l6.206-6.94 6.409 6.94h-4.327z"/>
            </g>
            <g transform="translate(1) translate(0 118.39) translate(67.768 21.637)">
                <circle cx="15.881" cy="15.84" r="15.84" fill="#FFF" stroke="#1A82FF" stroke-width=".5"/>
                <path fill="#1A82FF" d="M19.228 17.84c0-1.755-1.061-2.327-3.143-2.572-1.51-.204-1.797-.612-1.797-1.306 0-.694.49-1.143 1.51-1.143.899 0 1.389.285 1.634 1.061.04.163.204.245.367.245h.776c.204 0 .367-.163.367-.367v-.041c-.204-1.102-1.102-1.919-2.245-2.041v-1.184c0-.204-.163-.368-.408-.408h-.776c-.204 0-.367.163-.408.408v1.143c-1.51.204-2.45 1.184-2.45 2.45 0 1.632.98 2.285 3.062 2.53 1.388.245 1.837.531 1.837 1.348 0 .816-.694 1.347-1.633 1.347-1.306 0-1.755-.531-1.878-1.307-.04-.204-.204-.285-.367-.285h-.857c-.204 0-.368.163-.368.367v.04c.204 1.226.98 2.124 2.654 2.369v1.184c0 .204.163.367.408.408h.817c.204 0 .367-.164.408-.408v-1.184c1.47-.286 2.49-1.307 2.49-2.654zm-5.838 5.185c-3.878-1.388-5.878-5.716-4.409-9.553.735-2.082 2.368-3.674 4.41-4.41.203-.08.285-.244.285-.489v-.694c0-.204-.082-.367-.286-.408-.04 0-.163 0-.204.04C8.451 9.023 5.88 14.004 7.39 18.739c.898 2.776 3.021 4.94 5.797 5.797.204.082.408 0 .45-.204.04-.04.04-.082.04-.204v-.694c0-.082-.122-.286-.286-.408zm5.267-15.473c-.205-.081-.409 0-.45.205-.04.04-.04.081-.04.204v.694c0 .204.163.408.285.49 3.879 1.388 5.88 5.715 4.41 9.552-.735 2.082-2.368 3.675-4.41 4.41-.204.081-.285.244-.285.49v.693c0 .204.081.368.285.409.041 0 .164 0 .205-.041 4.735-1.51 7.307-6.491 5.797-11.227-.858-2.858-3.062-4.98-5.797-5.879z"/>
            </g>
            <g transform="translate(1) translate(0 118.39) translate(93.895 36.742)">
                <circle cx="16.003" cy="16.044" r="15.84" fill="#FFF" stroke="#1A82FF" stroke-width=".5"/>
                <path fill="#1A82FF" d="M17.84 14.003v-2.205h5.021V8.451H9.185v3.347h5.022v2.205c-4.083.204-7.144.98-7.144 1.96 0 .979 3.061 1.795 7.144 1.959v7.062h3.633v-7.062c4.082-.204 7.144-.98 7.144-1.96s-3.062-1.796-7.144-1.96m0 3.307c-.122 0-.612.041-1.796.041-.94 0-1.592-.04-1.837-.04-3.593-.164-6.287-.776-6.287-1.552s2.694-1.388 6.287-1.551v2.45c.245 0 .898.04 1.837.04 1.102 0 1.674-.04 1.796-.04v-2.45c3.593.163 6.287.775 6.287 1.551 0 .776-2.694 1.388-6.287 1.551"/>
            </g>
        </g>
        <g fill-rule="nonzero" transform="translate(1) translate(197.588 122.88)">
            <circle cx="18.167" cy="18.085" r="17.922" fill="#FFF" stroke="#1A82FF" stroke-width=".5"/>
            <g fill="#1A82FF">
                <path d="M4.899.694c.49.367.776.816.939 1.429h-1.02c-.123-.327-.327-.572-.654-.776-.286-.204-.653-.286-1.061-.286-.368 0-.694.082-1.021.245-.286.164-.53.409-.694.735-.163.327-.245.694-.245 1.143 0 .45.082.858.245 1.184.163.327.408.572.735.735.326.163.653.245 1.061.245.49 0 .94-.163 1.266-.45.367-.326.571-.734.653-1.265H2.899V2.94h3.02v.94c-.081.448-.244.816-.49 1.183-.244.368-.57.653-.98.857-.407.205-.856.327-1.387.327-.572 0-1.102-.122-1.552-.408-.449-.245-.775-.613-1.02-1.062-.245-.449-.368-.98-.368-1.592 0-.571.123-1.102.368-1.592.245-.449.571-.816 1.02-1.061.45-.245.94-.368 1.552-.368.775 0 1.388.164 1.837.531zM14.533.204L13.023 6.164 11.839 6.164 10.573 1.551 9.308 6.164 8.124 6.164 6.613.204 7.675.204 8.696 5.062 10.002.204 11.063.204 12.37 5.062 13.39.204zM16.37.98L16.37 2.776 18.575 2.776 18.575 3.511 16.37 3.511 16.37 5.348 18.82 5.348 18.82 6.124 15.391 6.124 15.391.163 18.82.163 18.82.939 16.37.939zM20.739.204L20.739 6.164 19.759 6.164 19.759.204z" transform="translate(6.94 15.105)"/>
            </g>
        </g>
        <g fill-rule="nonzero" transform="translate(1) translate(168.603 74.3)">
            <circle cx="18.126" cy="18.167" r="17.922" fill="#FFF" stroke="#1A82FF" stroke-width=".5"/>
            <g fill="#1A82FF">
                <path d="M4.899.776c.49.367.776.816.939 1.428h-1.02c-.123-.326-.327-.571-.654-.775-.286-.204-.653-.286-1.061-.286-.368 0-.694.082-1.021.245-.286.163-.53.408-.694.735-.163.326-.245.694-.245 1.143 0 .449.082.857.245 1.184.163.326.408.571.735.735.326.163.653.245 1.061.245.49 0 .94-.164 1.266-.45.367-.326.571-.734.653-1.265H2.899v-.694h3.02v.939c-.081.449-.244.816-.49 1.184-.244.367-.57.653-.98.857-.407.204-.856.327-1.387.327-.572 0-1.102-.123-1.552-.409-.449-.244-.775-.612-1.02-1.06-.245-.45-.368-.98-.368-1.593 0-.572.123-1.102.368-1.592.245-.45.571-.817 1.02-1.062.45-.245.94-.367 1.552-.367.775 0 1.347.163 1.837.53zM14.533.286L13.023 6.246 11.839 6.246 10.573 1.633 9.308 6.246 8.124 6.246 6.613.286 7.675.286 8.696 5.144 10.002.286 11.063.286 12.37 5.144 13.39.286zM16.37 1.061L16.37 2.858 18.575 2.858 18.575 3.593 16.37 3.593 16.37 5.43 18.82 5.43 18.82 6.205 15.391 6.205 15.391.245 18.82.245 18.82 1.021 16.37 1.021zM20.739.286L20.739 6.246 19.759 6.246 19.759.286z" transform="translate(6.94 15.105)"/>
            </g>
        </g>
        <g fill-rule="nonzero" transform="translate(1) translate(132.27 108.184)">
            <circle cx="18.085" cy="18.003" r="17.922" fill="#FFF" stroke="#1A82FF" stroke-width=".5"/>
            <g fill="#1A82FF">
                <path d="M4.858.612c.49.368.776.817.939 1.43h-1.02c-.123-.327-.327-.572-.654-.776C3.837 1.06 3.47.98 3.062.98c-.368 0-.694.081-1.02.245-.287.163-.532.408-.695.735-.163.326-.245.694-.245 1.143 0 .449.082.857.245 1.184.163.326.408.571.735.734.327.164.653.245 1.061.245.49 0 .94-.163 1.266-.449.367-.326.572-.735.653-1.265H2.858v-.694h3.02v.939c-.081.449-.244.816-.49 1.184-.244.367-.57.653-.979.857-.408.204-.857.326-1.388.326-.572 0-1.102-.122-1.551-.408-.45-.245-.776-.612-1.02-1.061-.246-.45-.368-.98-.368-1.592C.082 2.53.204 2 .449 1.51c.245-.449.572-.816 1.02-1.06.45-.246.94-.368 1.552-.368.776 0 1.347.204 1.837.53zM14.493.163L12.982 6.124 11.798 6.124 10.533 1.51 9.267 6.124 8.083 6.124 6.573.163 7.634.163 8.655 5.021 9.961.163 11.022.163 12.329 5.021 13.349.163zM16.33.939L16.33 2.735 18.534 2.735 18.534 3.47 16.33 3.47 16.33 5.307 18.779 5.307 18.779 6.083 15.35 6.083 15.35.122 18.779.122 18.779.898 16.33.898zM20.698.163L20.698 6.124 19.718 6.124 19.718.163z" transform="translate(6.94 15.105)"/>
            </g>
        </g>
    </g>
</svg>
