<svg xmlns="http://www.w3.org/2000/svg" width="31" height="30" viewBox="0 0 31 30">
    <path fill="#BDCBD5" fill-rule="evenodd" d="M11.751 16.011l1.225 4.039.273-2.556s4.728-4.268 7.427-6.699c.078-.071.088-.191.023-.275-.065-.084-.185-.104-.274-.046L11.75 16.01m9.364 5.82c-.06.28-.259.512-.528.614-.268.102-.572.06-.807-.106-1.478-1.053-4.083-2.961-4.083-2.961l-2.256 2.13c-.157.15-.381.206-.592.152-.21-.055-.37-.216-.44-.42-.552-1.626-1.61-4.824-1.61-4.824s-2.265-.719-3.992-1.235c-.25-.075-.423-.298-.432-.556-.008-.259.151-.492.395-.584 3.849-1.424 13.265-4.956 16.322-6.089.198-.072.42-.033.582.103.16.136.233.349.188.554-.575 2.707-2.113 10.245-2.747 13.222M15.75 0c-8.283 0-15 6.715-15 15 0 8.284 6.717 15 15 15 8.284 0 15-6.716 15-15 0-8.285-6.716-15-15-15"/>
</svg>
