<svg xmlns="http://www.w3.org/2000/svg" width="67" height="16" viewBox="0 0 67 16">
    <g fill="none" fill-rule="evenodd">
        <g>
            <g>
                <path fill="#BBC9DA" d="M8 0h51c4.418 0 8 3.582 8 8s-3.582 8-8 8H8c-4.418 0-8-3.582-8-8s3.582-8 8-8z" transform="translate(-793 -227) translate(793 227)"/>
                <path fill="#FFF" d="M9.158 3L6 5.631l3.158 2.632V6.158h5.79V5.105h-5.79V3zm2.63 6.842H6v1.053h5.789V13l3.158-2.632-3.158-2.631v2.105z" transform="translate(-793 -227) translate(793 227)"/>
                <path fill="#FFF" fill-rule="nonzero" d="M23.015 12V5.263h2.392V4.046h-6.275v1.216h2.403V12h1.48zm6.506.088c.602 0 1.15-.102 1.645-.305.495-.204.918-.487 1.27-.85s.626-.793.82-1.29c.194-.497.291-1.037.291-1.62 0-.582-.097-1.122-.291-1.62-.194-.496-.468-.925-.82-1.286-.352-.361-.775-.645-1.27-.85-.495-.205-1.043-.308-1.645-.308-.6 0-1.15.102-1.647.305-.497.204-.922.487-1.276.85s-.628.793-.822 1.29c-.194.497-.291 1.037-.291 1.62 0 .583.097 1.122.291 1.62.194.496.468.926.822 1.289.354.363.78.646 1.276.85.497.203 1.046.305 1.648.305zm0-1.265c-.388 0-.738-.064-1.05-.193-.312-.128-.577-.312-.795-.552-.218-.24-.386-.534-.503-.88-.117-.347-.176-.738-.176-1.175 0-.436.059-.827.176-1.174.117-.346.285-.64.503-.883.218-.242.483-.427.795-.555.312-.128.662-.192 1.05-.192.39 0 .738.064 1.048.192.31.128.573.314.79.556.216.242.382.536.497.882.116.347.173.738.173 1.175 0 .436-.057.827-.173 1.174-.115.346-.281.64-.498.88-.216.24-.479.424-.789.553-.31.128-.659.192-1.047.192zM36.242 12V8.502h.468c.169 0 .299.021.39.063.092.042.175.111.248.207l2.25 2.937c.058.095.13.167.217.217.086.05.217.074.393.074h1.309l-2.761-3.723c-.092-.125-.186-.228-.283-.308-.097-.081-.206-.144-.328-.188.088-.043.171-.1.248-.17.077-.07.158-.156.242-.258l2.678-3.306h-1.276c-.154 0-.28.023-.382.069-.1.046-.197.127-.288.245l-2.195 2.777c-.066.084-.145.146-.236.184-.092.039-.208.058-.347.058h-.346V4.042h-1.48V12h1.48zm11.166 0v-1.182h-3.526v-2.25h2.778V7.43h-2.778V5.223h3.526V4.047H42.39V12h5.017zm2.584 0V7.116c0-.095-.002-.2-.008-.316-.005-.116-.014-.232-.025-.35l4.158 5.297c.074.095.149.161.226.198.077.037.174.055.291.055h.765V4.047h-1.303v4.835c0 .106.002.22.008.343.005.123.015.249.03.377l-4.175-5.319c-.04-.05-.077-.092-.11-.123-.032-.031-.066-.055-.101-.072-.035-.016-.075-.027-.118-.033-.044-.005-.1-.008-.166-.008h-.775V12h1.303zm9.02.088c.44 0 .831-.067 1.172-.2.341-.135.63-.318.866-.55.237-.234.416-.507.54-.82.122-.314.183-.65.183-1.01 0-.33-.052-.61-.156-.841-.105-.231-.243-.426-.415-.586-.173-.16-.369-.291-.589-.396-.22-.104-.445-.196-.674-.275-.229-.079-.453-.153-.673-.223-.22-.07-.417-.148-.589-.236s-.31-.194-.415-.319c-.105-.125-.157-.28-.157-.467 0-.147.026-.282.077-.405.051-.123.13-.228.234-.316.104-.088.233-.157.385-.206.152-.05.33-.075.536-.075.227 0 .424.029.591.086.167.057.313.12.438.19.124.07.232.132.324.19.092.056.174.085.248.085.073 0 .136-.017.19-.05.052-.033.1-.09.14-.17l.362-.699c-.278-.264-.616-.47-1.012-.616-.396-.147-.828-.22-1.297-.22-.415 0-.783.064-1.106.193-.323.128-.595.298-.817.511-.222.213-.39.457-.506.731-.115.276-.173.558-.173.848 0 .362.052.668.157.915.104.248.243.454.415.619.172.165.369.299.589.402.22.102.443.19.67.263.228.074.452.142.672.204.22.062.416.138.588.228s.31.201.415.333c.105.132.157.303.157.511 0 .374-.115.661-.346.861-.232.2-.558.3-.98.3-.274 0-.51-.038-.706-.113-.196-.075-.367-.158-.512-.25-.145-.092-.27-.175-.377-.25-.106-.075-.205-.113-.297-.113-.07 0-.132.017-.19.052-.056.035-.105.078-.145.13l-.429.709c.154.158.33.3.525.429.196.128.407.238.633.33.225.092.46.162.706.212.246.05.495.074.748.074z" transform="translate(-793 -227) translate(793 227)"/>
            </g>
        </g>
    </g>
</svg>
