<svg width="128" height="78" viewBox="0 0 128 78" fill="none" xmlns="http://www.w3.org/2000/svg">
<g clip-path="url(#clip0_298_1516)">
<path d="M46.4134 75.234L36.0896 69.5986L33.595 77.053L46.394 75.2388C46.3551 75.2388 46.3355 75.2388 46.4134 75.234Z" fill="white"/>
<path d="M46.4131 75.2339L46.3938 75.2388C46.442 75.2388 46.5241 75.2339 46.4131 75.2339Z" fill="white"/>
<path d="M81.9509 71.6059L90.2616 69.1548L93.3836 59.2881L85.7099 59.814L81.9509 71.6059Z" fill="white"/>
<path d="M101.728 8.39131L95.3773 4.26611L91.8225 15.5899L98.8105 17.6936L101.728 8.39131Z" fill="white"/>
<path d="M58.8767 5.74745C58.8767 5.74745 63.1804 7.06944 64.8776 7.55191L70.995 9.36604L71.1019 0.946777L60.3453 3.08899L58.8767 5.74745Z" fill="white"/>
<path d="M16.171 37.1955L23.7231 37.2148L26.4122 28.7666L19.5459 26.9429C18.8164 29.2636 16.9151 34.8748 16.171 37.1955Z" fill="white"/>
<path d="M2.11743 29.3453L7.76807 35.2412L11.0213 24.7811L4.08688 22.938L2.11743 29.3453Z" fill="white"/>
<path d="M121.802 63.1046C121.685 60.1421 120.863 59.1725 119.118 57.3535L110.015 57.9614C112.553 59.5584 114.109 61.5365 114.43 64.1902C114.785 67.1044 111.624 70.472 108.565 70.472C106.859 70.472 106.008 69.1308 106.008 67.5917C106.056 66.4433 106.46 64.9524 107.063 63.9586H107.014H99.3405C98.7375 65.5026 98.2367 67.2443 98.2367 68.8847C98.2367 74.5055 103.202 75.9482 107.914 75.9482C112.825 75.9482 116.891 75.0025 119.448 70.472C120.601 68.4264 121.899 65.4929 121.802 63.1046Z" fill="white"/>
<path d="M25.7414 1.70898L2.07384 1.72828L0.225952 7.5518L8.90129 7.54215L4.61225 21.0806L11.5515 22.9236L16.3707 7.53733L23.8935 7.52768L25.7414 1.70898Z" fill="white"/>
<path d="M28.3238 22.5524C29.1748 22.4992 30.0306 22.4992 30.8816 22.4992C32.287 22.4945 34.3926 22.5957 34.3926 24.5353C34.3975 25.8766 33.8965 27.5701 33.4979 28.8632C32.749 31.5023 31.8494 34.1367 31.6986 36.824L39.4694 36.8144C39.2652 32.4865 41.969 28.7039 41.9641 24.4243C41.9641 21.5391 39.7563 20.3956 37.1985 19.9469L37.9474 19.8456C43.5153 19.0929 46.6178 14.7651 46.6129 9.34203C46.6081 3.33035 41.541 1.64167 36.3767 1.64649L27.4533 1.65614C24.9148 9.47231 22.5078 17.3319 20.0424 25.1818L26.9038 27.0008L28.3238 22.5524ZM33.1234 7.17087L35.6327 7.16606C37.4903 7.16606 39.343 7.60993 39.3479 9.80039C39.3527 12.4878 37.3979 17.0182 34.1884 17.0182L30.0744 17.0231L33.1234 7.17087Z" fill="white"/>
<path d="M49.3503 36.9107L53.3523 29.3936L62.9321 29.384L62.6404 36.9444L70.1633 36.9397L70.7614 11.1994L64.2986 9.25499C63.7102 14.0846 63.3795 18.9673 63.3795 23.8114H63.3309L56.1095 23.8163C58.7063 18.9432 61.1961 14.0315 63.438 8.99445L58.259 7.43604L41.5259 36.9155L49.3503 36.9107Z" fill="white"/>
<path d="M102.608 36.8623L104.51 31.1353L94.4289 31.1498L98.1637 19.4448L91.1756 17.3413L84.9562 36.8768L102.608 36.8623Z" fill="white"/>
<path d="M55.915 39.1157H46.0386L36.7651 67.9004L48.5673 74.2788C55.633 74.0134 60.5834 68.8268 60.5834 61.7054C60.5834 58.9698 58.8766 56.8324 56.2214 56.0845C61.4393 54.8928 64.7947 51.5588 64.7947 46.0876C64.7898 40.7562 60.6272 39.1157 55.915 39.1157ZM51.8546 66.728C50.4492 68.8171 48.9465 68.9667 46.5881 68.9667H43.5294L46.8896 58.6224C49.3453 58.7189 53.7073 58.1254 53.7073 61.7054C53.7073 63.2928 52.7591 65.435 51.8546 66.728ZM51.2516 53.5902H48.4408L51.3975 44.4857C53.6052 44.5871 57.7678 43.8923 57.7678 47.2744C57.8213 51.2549 55.2634 53.5902 51.2516 53.5902Z" fill="white"/>
<path d="M79.8359 13.9688L72.3423 38.8261L65.7239 58.9888L73.6699 58.3809L79.408 40.4424H79.4177L87.1691 16.1447C86.0895 15.8456 81.7907 14.4753 79.8359 13.9688Z" fill="white"/>
<path d="M83.5511 39.1689L81.6935 44.9828H90.3737L86.3132 57.9276L93.8895 57.4115L97.843 44.9828H105.361L107.219 39.1689H83.5511Z" fill="white"/>
<path d="M117.951 38.8164C110.18 38.8164 105.566 44.1864 105.566 51.6504C105.575 52.736 106.553 55.4089 108.551 56.3014L117.898 55.6742C116.308 54.3426 113.497 51.2016 113.497 49.5323C113.497 47.2405 114.786 44.2443 117.445 44.2443C119.25 44.2443 120.353 44.7413 120.353 46.6809C120.353 47.9256 119.75 49.0691 119.4 50.2656H126.622C127.074 49.2186 127.774 46.8304 127.774 45.7351C127.779 40.3073 122.464 38.8164 117.951 38.8164Z" fill="white"/>
<path d="M32.2628 39.3232C28.7274 39.3232 28.2217 41.9141 27.3464 44.6643C27.0547 45.6534 26.5002 46.8597 26.5002 47.8969C26.5002 49.8944 28.285 50.2756 29.9432 50.2756C31.971 50.29 33.0505 49.6146 33.7702 47.7232C34.2614 46.4302 35.5403 42.8743 35.5403 41.6246C35.5403 39.8539 33.741 39.3232 32.2628 39.3232ZM33.25 41.8659C33.25 42.3099 32.7443 43.7572 32.574 44.2639L31.791 46.6858C31.4847 47.6026 31.1152 48.6544 29.9481 48.6544C29.2868 48.6544 28.8588 48.2732 28.8588 47.5881C28.8588 46.7004 29.5493 45.0551 29.8411 44.1385C30.1328 43.2265 30.5171 41.4076 31.5334 41.0553C31.7619 40.9781 32.0099 40.9492 32.258 40.9492C32.7198 40.9492 33.2743 41.3594 33.2743 41.8515L33.25 41.8659Z" fill="white"/>
<path d="M41.2586 45.499L41.7935 43.7428H38.7202L39.5517 41.1228H42.7807L43.3496 39.3667H37.7524L34.3873 50.1356H36.741L38.1998 45.499H41.2586Z" fill="white"/>
</g>
<defs>
<clipPath id="clip0_298_1516">
<rect width="127.548" height="76.1062" fill="white" transform="translate(0.225952 0.946777)"/>
</clipPath>
</defs>
</svg>
