<svg width="36" height="40" viewBox="0 0 36 40" fill="none" xmlns="http://www.w3.org/2000/svg">
<g clip-path="url(#clip0_298_1672)">
<path d="M14.4242 9.10203C13.9908 9.04011 13.9702 9.01947 14.1766 8.99883C14.5687 8.93691 15.4769 9.01947 16.1167 9.16395C17.6028 9.51482 18.9444 10.423 20.3685 12.0122L20.74 12.4457L21.2767 12.3631C23.5677 11.9916 25.9206 12.2806 27.8814 13.1887C28.418 13.4364 29.2643 13.9317 29.3675 14.0556C29.4088 14.0969 29.4707 14.3652 29.512 14.6335C29.6564 15.6036 29.5945 16.326 29.2849 16.8832C29.1198 17.1928 29.1198 17.2754 29.223 17.5437C29.3056 17.7501 29.5532 17.8946 29.7803 17.8946C30.2756 17.8946 30.7916 17.1103 31.0393 16.0164L31.1425 15.5829L31.3283 15.7893C32.3809 16.9658 33.2065 18.5964 33.3303 19.7522L33.3716 20.0618L33.1858 19.7935C32.8762 19.3187 32.5873 19.0091 32.1951 18.7408C31.4934 18.2661 30.7503 18.1216 28.7896 18.0184C27.0145 17.9152 26.0032 17.7708 25.0125 17.4405C23.32 16.8832 22.4531 16.1609 20.4511 13.4983C19.5636 12.3218 19.0063 11.682 18.449 11.1454C17.2313 9.9689 16.0135 9.3497 14.4242 9.10203Z" fill="white"/>
<path d="M29.8009 11.7236C29.8422 10.9392 29.9454 10.4232 30.1724 9.94853C30.255 9.76278 30.3375 9.59766 30.3582 9.59766C30.3788 9.59766 30.3375 9.74214 30.2756 9.90725C30.1105 10.3613 30.0898 11.0012 30.193 11.7236C30.3375 12.6524 30.3994 12.7762 31.3902 13.7875C31.8442 14.2623 32.3809 14.8608 32.5873 15.1085L32.9381 15.5626L32.5873 15.2323C32.1538 14.8195 31.1631 14.0352 30.9361 13.932C30.7916 13.8495 30.771 13.8495 30.6678 13.9527C30.5852 14.0352 30.5646 14.1591 30.5646 14.7576C30.5439 15.6864 30.4201 16.2643 30.1105 16.8629C29.9454 17.1725 29.9247 17.1106 30.0692 16.7597C30.1724 16.4914 30.193 16.3675 30.193 15.48C30.193 13.6843 29.9866 13.2509 28.7276 12.5285C28.418 12.3428 27.8814 12.0744 27.5718 11.93C27.2415 11.7855 26.9939 11.6616 27.0145 11.6616C27.0558 11.6204 28.2735 11.9712 28.7483 12.1776C29.4706 12.4666 29.5945 12.4872 29.677 12.4666C29.739 12.4047 29.7802 12.2396 29.8009 11.7236Z" fill="white"/>
<path d="M15.2705 14.7987C14.4036 13.6016 13.8463 11.744 13.9702 10.3612L14.0115 9.92773L14.2179 9.96901C14.5894 10.0309 15.2292 10.2786 15.5388 10.4644C16.3644 10.9597 16.7359 11.6408 17.0868 13.3333C17.19 13.8287 17.3345 14.4066 17.3964 14.5923C17.4996 14.9019 17.8917 15.6243 18.222 16.0784C18.449 16.4086 18.3045 16.5738 17.7886 16.5325C17.0042 16.4499 15.9516 15.7275 15.2705 14.7987Z" fill="white"/>
<path d="M28.7483 23.777C24.6616 22.1258 23.2168 20.7017 23.2168 18.2868C23.2168 17.9359 23.2374 17.647 23.2374 17.647C23.2581 17.647 23.4026 17.7708 23.5883 17.9153C24.4139 18.5758 25.3427 18.8647 27.9227 19.2362C29.4294 19.4633 30.2963 19.6284 31.0806 19.8967C33.578 20.7223 35.126 22.4148 35.4975 24.7058C35.6007 25.3663 35.5388 26.6253 35.3737 27.2858C35.2292 27.8018 34.8164 28.7512 34.7132 28.7718C34.6925 28.7718 34.6513 28.6686 34.6513 28.5035C34.61 27.6367 34.1765 26.8111 33.4542 26.1712C32.5873 25.4282 31.4727 24.8709 28.7483 23.777Z" fill="white"/>
<path d="M25.8587 24.4582C25.8174 24.1486 25.7143 23.7565 25.6523 23.5913L25.5491 23.2817L25.7349 23.5088C26.0032 23.8184 26.2096 24.1899 26.3954 24.7059C26.5398 25.098 26.5398 25.2219 26.5398 25.8617C26.5398 26.4809 26.5192 26.6254 26.3954 26.9763C26.189 27.5335 25.9413 27.9257 25.5285 28.3591C24.7855 29.1228 23.8154 29.5356 22.4325 29.7214C22.1848 29.742 21.4831 29.8039 20.8639 29.8452C19.3159 29.9278 18.2839 30.0929 17.3551 30.4231C17.2313 30.4644 17.1074 30.5057 17.0868 30.485C17.0455 30.4438 17.6854 30.0722 18.2014 29.8246C18.9237 29.4737 19.6668 29.2879 21.2973 28.999C22.1023 28.8751 22.9279 28.71 23.1343 28.6275C25.1776 27.9876 26.189 26.3984 25.8587 24.4582Z" fill="white"/>
<path d="M27.7369 27.781C27.2003 26.6045 27.0764 25.49 27.3654 24.4374C27.4067 24.3342 27.4479 24.231 27.4892 24.231C27.5305 24.231 27.6543 24.2929 27.7782 24.3754C28.0259 24.5406 28.5419 24.8295 29.8628 25.5519C31.5346 26.4601 32.4841 27.1618 33.1445 27.9668C33.7225 28.6685 34.0733 29.4735 34.2385 30.4642C34.3417 31.0215 34.2797 32.3631 34.1353 32.9203C33.6812 34.6747 32.6492 36.0782 31.1425 36.8832C30.9154 37.007 30.7297 37.0896 30.709 37.0896C30.6884 37.0896 30.771 36.8832 30.8948 36.6355C31.3902 35.5829 31.4521 34.5715 31.0806 33.4363C30.8535 32.7346 30.3788 31.8883 29.4294 30.4642C28.2942 28.813 28.0259 28.3796 27.7369 27.781Z" fill="white"/>
<path d="M12.3603 34.0969C13.8876 32.8172 15.7658 31.9091 17.4996 31.6201C18.2426 31.4963 19.481 31.5375 20.1621 31.7233C21.256 32.0123 22.2467 32.6315 22.7627 33.3951C23.2581 34.1382 23.4851 34.778 23.7122 36.2021C23.7947 36.7594 23.8979 37.3373 23.9186 37.4612C24.0837 38.2042 24.4139 38.7821 24.8267 39.0917C25.4666 39.5664 26.5811 39.5871 27.675 39.1743C27.8608 39.1124 28.0259 39.0504 28.0259 39.0711C28.0672 39.1124 27.5099 39.4839 27.1384 39.6696C26.6224 39.938 26.2096 40.0205 25.6523 40.0205C24.6616 40.0205 23.8154 39.5045 23.1342 38.4725C22.9898 38.2661 22.7008 37.6676 22.4531 37.1103C21.7307 35.4385 21.3592 34.9431 20.513 34.3858C19.77 33.9111 18.8205 33.8079 18.0981 34.1588C17.1487 34.6129 16.901 35.8306 17.5615 36.5737C17.8298 36.8833 18.3252 37.1309 18.738 37.1929C19.5016 37.2961 20.1621 36.6975 20.1621 35.9338C20.1621 35.4385 19.9764 35.1495 19.481 34.9225C18.8205 34.6335 18.0981 34.9638 18.1188 35.6036C18.1188 35.8719 18.2426 36.037 18.5109 36.1609C18.676 36.2434 18.676 36.2434 18.5522 36.2228C17.9537 36.0989 17.8092 35.3559 18.2839 34.8812C18.8618 34.3033 20.0796 34.551 20.4924 35.3559C20.6575 35.6862 20.6781 36.3466 20.5336 36.7594C20.1828 37.6676 19.192 38.1423 18.1807 37.874C17.4996 37.6882 17.2106 37.5025 16.385 36.6562C14.9402 35.1702 14.383 34.8812 12.319 34.5716L11.9268 34.5097L12.3603 34.0969Z" fill="white"/>
<path fill-rule="evenodd" clip-rule="evenodd" d="M1.50406 0.887513C6.31315 6.72859 13.7228 15.8101 14.0944 16.3055C14.404 16.7183 14.2801 17.1104 13.7641 17.3994C13.4752 17.5645 12.8766 17.7296 12.5877 17.7296C12.2574 17.7296 11.8653 17.5645 11.5969 17.2962C11.4112 17.1104 10.6062 15.934 8.78993 13.1063C7.40706 10.9391 6.23059 9.14345 6.20995 9.12281C6.12739 9.08153 6.12739 9.08153 8.64545 13.581C10.2347 16.4087 10.7507 17.42 10.7507 17.5439C10.7507 17.8122 10.6681 17.9567 10.3379 18.3282C9.78064 18.9474 9.53296 19.6491 9.3472 21.1146C9.1408 22.7451 8.58353 23.9009 6.99426 25.8617C6.06547 27.0175 5.92099 27.2239 5.69395 27.6987C5.40499 28.2766 5.32243 28.6068 5.28115 29.3498C5.23987 30.1342 5.32243 30.6295 5.54947 31.3725C5.75587 32.033 5.98291 32.4665 6.54018 33.3127C7.0149 34.0557 7.30386 34.613 7.30386 34.8194C7.30386 34.9845 7.34514 34.9845 8.08817 34.8194C9.8632 34.4066 11.3286 33.7049 12.1336 32.838C12.6289 32.3013 12.7528 32.0124 12.7528 31.2694C12.7528 30.7946 12.7321 30.6914 12.6083 30.4025C12.4019 29.9484 12.0097 29.5769 11.1635 28.999C10.049 28.2353 9.57424 27.6161 9.4504 26.7905C9.3472 26.0888 9.47104 25.614 10.0902 24.3137C10.7301 22.9721 10.8952 22.4149 10.9984 21.0526C11.0603 20.1858 11.1635 19.8349 11.4112 19.5666C11.6795 19.2776 11.9065 19.1744 12.5464 19.0918C13.599 18.9474 14.2801 18.6791 14.8168 18.1631C15.2915 17.7296 15.4979 17.2962 15.5185 16.6563L15.5392 16.1816L15.2708 15.8927C14.3008 14.7781 0.864229 0 0.80231 0C0.78167 0 1.11191 0.392157 1.50406 0.887513ZM7.84049 30.2374C8.06753 29.8452 7.94369 29.3498 7.57218 29.1022C7.2213 28.8751 6.68466 28.9783 6.68466 29.2879C6.68466 29.3705 6.72594 29.453 6.84978 29.4943C7.03554 29.5975 7.05618 29.7007 6.9117 29.9278C6.76722 30.1548 6.76722 30.3612 6.95298 30.5057C7.24194 30.7327 7.63409 30.6089 7.84049 30.2374Z" fill="white"/>
<path fill-rule="evenodd" clip-rule="evenodd" d="M16.1992 19.381C15.7039 19.5255 15.2292 20.0621 15.0847 20.5988C15.0021 20.929 15.0434 21.5276 15.1879 21.7133C15.4149 22.0023 15.6213 22.0848 16.1992 22.0848C17.3344 22.0848 18.3045 21.5895 18.4077 20.9909C18.5109 20.4956 18.0775 19.8145 17.4789 19.5049C17.1693 19.3397 16.5295 19.2778 16.1992 19.381ZM17.5202 20.413C17.6853 20.1653 17.6234 19.897 17.3138 19.7113C16.7565 19.3604 15.9103 19.6493 15.9103 20.186C15.9103 20.4543 16.3437 20.7432 16.7565 20.7432C17.0248 20.7432 17.3963 20.5781 17.5202 20.413Z" fill="white"/>
</g>
<defs>
<clipPath id="clip0_298_1672">
<rect width="34.7368" height="40" fill="white" transform="translate(0.801941)"/>
</clipPath>
</defs>
</svg>
