<svg width="36" height="41" viewBox="0 0 36 41" fill="none" xmlns="http://www.w3.org/2000/svg">
<path d="M13.914 10.0817C13.4806 10.0197 13.4599 9.9991 13.6663 9.97846C14.0585 9.91654 14.9667 9.9991 15.6065 10.1436C17.0926 10.4945 18.4341 11.4026 19.8583 12.9919L20.2298 13.4253L20.7664 13.3428C23.0575 12.9712 25.4104 13.2602 27.3712 14.1683C27.9078 14.416 28.7541 14.9114 28.8573 15.0352C28.8985 15.0765 28.9605 15.3448 29.0017 15.6131C29.1462 16.5832 29.0843 17.3056 28.7747 17.8629C28.6096 18.1725 28.6096 18.255 28.7128 18.5234C28.7953 18.7297 29.043 18.8742 29.2701 18.8742C29.7654 18.8742 30.2814 18.0899 30.5291 16.996L30.6323 16.5626L30.818 16.769C31.8707 17.9454 32.6963 19.576 32.8201 20.7318L32.8614 21.0414L32.6756 20.7731C32.366 20.2984 32.0771 19.9888 31.6849 19.7205C30.9832 19.2457 30.2401 19.1013 28.2794 18.9981C26.5043 18.8949 25.493 18.7504 24.5023 18.4202C22.8098 17.8629 21.9429 17.1405 19.9409 14.4779C19.0533 13.3015 18.4961 12.6616 17.9388 12.125C16.721 10.9485 15.5033 10.3293 13.914 10.0817Z" fill="url(#paint0_linear_1478_11602)"/>
<path d="M29.2907 12.7029C29.332 11.9186 29.4352 11.4026 29.6622 10.9279C29.7448 10.7421 29.8273 10.577 29.848 10.577C29.8686 10.577 29.8273 10.7215 29.7654 10.8866C29.6003 11.3407 29.5797 11.9805 29.6829 12.7029C29.8273 13.6317 29.8893 13.7556 30.88 14.7669C31.334 15.2416 31.8707 15.8402 32.0771 16.0879L32.428 16.5419L32.0771 16.2117C31.6436 15.7989 30.6529 15.0146 30.4259 14.9114C30.2814 14.8288 30.2608 14.8288 30.1576 14.932C30.075 15.0146 30.0544 15.1384 30.0544 15.737C30.0337 16.6658 29.9099 17.2437 29.6003 17.8422C29.4352 18.1518 29.4145 18.0899 29.559 17.739C29.6622 17.4707 29.6829 17.3469 29.6829 16.4594C29.6829 14.6637 29.4765 14.2303 28.2174 13.5079C27.9078 13.3221 27.3712 13.0538 27.0616 12.9093C26.7314 12.7648 26.4837 12.641 26.5043 12.641C26.5456 12.5997 27.7634 12.9506 28.2381 13.157C28.9605 13.446 29.0843 13.4666 29.1669 13.446C29.2288 13.384 29.2701 13.2189 29.2907 12.7029Z" fill="url(#paint1_linear_1478_11602)"/>
<path d="M14.7603 15.7783C13.8934 14.5811 13.3361 12.7236 13.4599 11.3407L13.5012 10.9073L13.7076 10.9485C14.0791 11.0105 14.719 11.2581 15.0286 11.4439C15.8542 11.9392 16.2257 12.6204 16.5766 14.3128C16.6798 14.8082 16.8242 15.3861 16.8862 15.5719C16.9894 15.8815 17.3815 16.6038 17.7118 17.0579C17.9388 17.3882 17.7943 17.5533 17.2783 17.512C16.494 17.4294 15.4414 16.707 14.7603 15.7783Z" fill="url(#paint2_linear_1478_11602)"/>
<path d="M28.2381 24.7566C24.1514 23.1054 22.7066 21.6812 22.7066 19.2664C22.7066 18.9155 22.7272 18.6266 22.7272 18.6266C22.7479 18.6266 22.8924 18.7504 23.0781 18.8949C23.9037 19.5553 24.8325 19.8443 27.4125 20.2158C28.9192 20.4429 29.7861 20.608 30.5704 20.8763C33.0678 21.7019 34.6158 23.3944 34.9873 25.6854C35.0905 26.3458 35.0286 27.6049 34.8635 28.2654C34.719 28.7813 34.3062 29.7308 34.203 29.7514C34.1823 29.7514 34.1411 29.6482 34.1411 29.4831C34.0998 28.6162 33.6663 27.7906 32.944 27.1508C32.0771 26.4078 30.9625 25.8505 28.2381 24.7566Z" fill="url(#paint3_linear_1478_11602)"/>
<path d="M25.3485 25.4377C25.3072 25.1281 25.204 24.7359 25.1421 24.5708L25.0389 24.2612L25.2247 24.4883C25.493 24.7979 25.6994 25.1694 25.8851 25.6854C26.0296 26.0775 26.0296 26.2014 26.0296 26.8412C26.0296 27.4604 26.009 27.6049 25.8851 27.9558C25.6787 28.513 25.4311 28.9052 25.0183 29.3386C24.2752 30.1023 23.3052 30.5151 21.9223 30.7009C21.6746 30.7215 20.9728 30.7834 20.3537 30.8247C18.8057 30.9073 17.7737 31.0724 16.8449 31.4026C16.721 31.4439 16.5972 31.4852 16.5766 31.4645C16.5353 31.4232 17.1751 31.0517 17.6911 30.8041C18.4135 30.4532 19.1565 30.2674 20.7871 29.9785C21.592 29.8546 22.4176 29.6895 22.624 29.6069C24.6674 28.9671 25.6787 27.3778 25.3485 25.4377Z" fill="url(#paint4_linear_1478_11602)"/>
<path d="M27.2267 28.7607C26.6901 27.5842 26.5662 26.4697 26.8552 25.4171C26.8965 25.3139 26.9378 25.2107 26.979 25.2107C27.0203 25.2107 27.1442 25.2726 27.268 25.3551C27.5157 25.5203 28.0317 25.8092 29.3526 26.5316C31.0245 27.4398 31.9739 28.1415 32.6344 28.9465C33.2123 29.6482 33.5631 30.4532 33.7283 31.4439C33.8315 32.0012 33.7695 33.3428 33.6251 33.9C33.171 35.6544 32.139 37.0579 30.6323 37.8629C30.4053 37.9867 30.2195 38.0693 30.1989 38.0693C30.1782 38.0693 30.2608 37.8629 30.3846 37.6152C30.88 36.5626 30.9419 35.5512 30.5704 34.416C30.3433 33.7143 29.8686 32.868 28.9192 31.4439C27.784 29.7927 27.5157 29.3593 27.2267 28.7607Z" fill="url(#paint5_linear_1478_11602)"/>
<path d="M11.85 35.0765C13.3774 33.7968 15.2556 32.8887 16.9894 32.5997C17.7324 32.4759 18.9708 32.5172 19.6519 32.7029C20.7458 32.9919 21.7365 33.6111 22.2525 34.3747C22.7479 35.1178 22.9749 35.7576 23.202 37.1818C23.2845 37.739 23.3877 38.317 23.4083 38.4408C23.5735 39.1838 23.9037 39.7617 24.3165 40.0713C24.9563 40.5461 26.0709 40.5667 27.1648 40.1539C27.3506 40.092 27.5157 40.0301 27.5157 40.0507C27.557 40.092 26.9997 40.4635 26.6282 40.6493C26.1122 40.9176 25.6994 41.0001 25.1421 41.0001C24.1514 41.0001 23.3052 40.4841 22.624 39.4521C22.4796 39.2457 22.1906 38.6472 21.9429 38.0899C21.2205 36.4181 20.849 35.9227 20.0028 35.3655C19.2597 34.8907 18.3103 34.7875 17.5879 35.1384C16.6385 35.5925 16.3908 36.8102 17.0513 37.5533C17.3196 37.8629 17.815 38.1105 18.2278 38.1725C18.9914 38.2757 19.6519 37.6771 19.6519 36.9134C19.6519 36.4181 19.4661 36.1291 18.9708 35.9021C18.3103 35.6131 17.5879 35.9434 17.6086 36.5832C17.6086 36.8515 17.7324 37.0166 18.0007 37.1405C18.1658 37.223 18.1658 37.223 18.042 37.2024C17.4434 37.0786 17.299 36.3355 17.7737 35.8608C18.3516 35.2829 19.5693 35.5306 19.9821 36.3355C20.1473 36.6658 20.1679 37.3262 20.0234 37.739C19.6725 38.6472 18.6818 39.1219 17.6705 38.8536C16.9894 38.6678 16.7004 38.4821 15.8748 37.6358C14.43 36.1498 13.8727 35.8608 11.8088 35.5512L11.4166 35.4893L11.85 35.0765Z" fill="url(#paint6_linear_1478_11602)"/>
<path fill-rule="evenodd" clip-rule="evenodd" d="M0.993856 1.86701C5.80294 7.70808 13.2126 16.7896 13.5842 17.285C13.8938 17.6978 13.7699 18.0899 13.2539 18.3789C12.965 18.544 12.3664 18.7091 12.0774 18.7091C11.7472 18.7091 11.3551 18.544 11.0867 18.2757C10.901 18.0899 10.096 16.9134 8.27972 14.0858C6.89685 11.9186 5.72038 10.1229 5.69974 10.1023C5.61718 10.061 5.61718 10.061 8.13524 14.5605C9.72451 17.3882 10.2405 18.3995 10.2405 18.5234C10.2405 18.7917 10.1579 18.9361 9.8277 19.3077C9.27043 19.9269 9.02275 20.6286 8.83699 22.094C8.6306 23.7246 8.07332 24.8804 6.48405 26.8412C5.55526 27.997 5.41078 28.2034 5.18374 28.6782C4.89478 29.2561 4.81223 29.5863 4.77095 30.3293C4.72967 31.1137 4.81222 31.609 5.03926 32.352C5.24566 33.0125 5.4727 33.446 6.02997 34.2922C6.50469 35.0352 6.79365 35.5925 6.79365 35.7989C6.79365 35.964 6.83493 35.964 7.57796 35.7989C9.35299 35.3861 10.8184 34.6843 11.6234 33.8175C12.1187 33.2808 12.2426 32.9919 12.2426 32.2488C12.2426 31.7741 12.2219 31.6709 12.0981 31.382C11.8917 30.9279 11.4995 30.5564 10.6533 29.9785C9.53875 29.2148 9.06403 28.5956 8.94019 27.77C8.83699 27.0682 8.96083 26.5935 9.58003 25.2932C10.2199 23.9516 10.385 23.3944 10.4882 22.0321C10.5501 21.1653 10.6533 20.8144 10.901 20.5461C11.1693 20.2571 11.3963 20.1539 12.0362 20.0713C13.0888 19.9269 13.7699 19.6585 14.3065 19.1425C14.7813 18.7091 14.9877 18.2757 15.0083 17.6358L15.0289 17.1611L14.7606 16.8722C13.7906 15.7576 0.354021 0.979492 0.292102 0.979492C0.271462 0.979492 0.601699 1.37165 0.993856 1.86701ZM7.33028 31.2169C7.55732 30.8247 7.43348 30.3293 7.06197 30.0817C6.71109 29.8546 6.17445 29.9578 6.17445 30.2674C6.17445 30.35 6.21573 30.4325 6.33957 30.4738C6.52533 30.577 6.54597 30.6802 6.40149 30.9073C6.25701 31.1343 6.25701 31.3407 6.44277 31.4852C6.73173 31.7122 7.12389 31.5884 7.33028 31.2169Z" fill="url(#paint7_linear_1478_11602)"/>
<path fill-rule="evenodd" clip-rule="evenodd" d="M15.6891 20.3603C15.1937 20.5048 14.719 21.0414 14.5745 21.578C14.4919 21.9083 14.5332 22.5068 14.6777 22.6926C14.9047 22.9816 15.1111 23.0641 15.6891 23.0641C16.8242 23.0641 17.7943 22.5688 17.8975 21.9702C18.0007 21.4748 17.5673 20.7937 16.9687 20.4841C16.6591 20.319 16.0193 20.2571 15.6891 20.3603ZM17.01 21.3923C17.1751 21.1446 17.1132 20.8763 16.8036 20.6905C16.2463 20.3397 15.4001 20.6286 15.4001 21.1653C15.4001 21.4336 15.8335 21.7225 16.2463 21.7225C16.5146 21.7225 16.8862 21.5574 17.01 21.3923Z" fill="url(#paint8_linear_1478_11602)"/>
<defs>
<linearGradient id="paint0_linear_1478_11602" x1="-1.28821" y1="24.3682" x2="42.9742" y2="25.1471" gradientUnits="userSpaceOnUse">
<stop stop-color="#FEDBA8"/>
<stop offset="0.878478" stop-color="#CF75D5"/>
</linearGradient>
<linearGradient id="paint1_linear_1478_11602" x1="-1.28821" y1="24.3682" x2="42.9742" y2="25.1471" gradientUnits="userSpaceOnUse">
<stop stop-color="#FEDBA8"/>
<stop offset="0.878478" stop-color="#CF75D5"/>
</linearGradient>
<linearGradient id="paint2_linear_1478_11602" x1="-1.28821" y1="24.3682" x2="42.9742" y2="25.1471" gradientUnits="userSpaceOnUse">
<stop stop-color="#FEDBA8"/>
<stop offset="0.878478" stop-color="#CF75D5"/>
</linearGradient>
<linearGradient id="paint3_linear_1478_11602" x1="-1.28821" y1="24.3682" x2="42.9742" y2="25.1471" gradientUnits="userSpaceOnUse">
<stop stop-color="#FEDBA8"/>
<stop offset="0.878478" stop-color="#CF75D5"/>
</linearGradient>
<linearGradient id="paint4_linear_1478_11602" x1="-1.28821" y1="24.3682" x2="42.9742" y2="25.1471" gradientUnits="userSpaceOnUse">
<stop stop-color="#FEDBA8"/>
<stop offset="0.878478" stop-color="#CF75D5"/>
</linearGradient>
<linearGradient id="paint5_linear_1478_11602" x1="-1.28821" y1="24.3682" x2="42.9742" y2="25.1471" gradientUnits="userSpaceOnUse">
<stop stop-color="#FEDBA8"/>
<stop offset="0.878478" stop-color="#CF75D5"/>
</linearGradient>
<linearGradient id="paint6_linear_1478_11602" x1="-1.28821" y1="24.3682" x2="42.9742" y2="25.1471" gradientUnits="userSpaceOnUse">
<stop stop-color="#FEDBA8"/>
<stop offset="0.878478" stop-color="#CF75D5"/>
</linearGradient>
<linearGradient id="paint7_linear_1478_11602" x1="-1.28821" y1="24.3682" x2="42.9742" y2="25.1471" gradientUnits="userSpaceOnUse">
<stop stop-color="#FEDBA8"/>
<stop offset="0.878478" stop-color="#CF75D5"/>
</linearGradient>
<linearGradient id="paint8_linear_1478_11602" x1="-1.28821" y1="24.3682" x2="42.9742" y2="25.1471" gradientUnits="userSpaceOnUse">
<stop stop-color="#FEDBA8"/>
<stop offset="0.878478" stop-color="#CF75D5"/>
</linearGradient>
</defs>
</svg>
