<svg xmlns="http://www.w3.org/2000/svg" width="30" height="30" viewBox="0 0 30 30">
    <g fill="none" fill-rule="evenodd">
        <g>
            <g>
                <g>
                    <path fill="#FFF" d="M15 0c8.284 0 15 6.716 15 15 0 8.284-6.716 15-15 15-8.284 0-15-6.716-15-15C0 6.716 6.716 0 15 0z" transform="translate(-300 -397) translate(250 372) translate(50 25)"/>
                    <path fill="#53AE94" d="M17.034 16.904v-.002c-.114.007-.702.042-2.01.042-1.046 0-1.782-.03-2.041-.043v.003c-4.025-.178-7.029-.879-7.029-1.717 0-.839 3.005-1.539 7.029-1.717v2.736c.264.018 1.018.063 2.058.063 1.25 0 1.878-.052 1.994-.063V13.47c4.017.178 7.014.88 7.014 1.716 0 .835-2.999 1.537-7.014 1.716m-.002-3.717v-2.45h5.605V7H7.376v3.734h5.605v2.45C8.425 13.392 5 14.294 5 15.375c0 1.08 3.427 1.983 7.981 2.193v7.851h4.053V17.57c4.548-.21 7.966-1.112 7.966-2.192s-3.418-1.981-7.966-2.19" transform="translate(-300 -397) translate(250 372) translate(50 25)"/>
                </g>
            </g>
        </g>
    </g>
</svg>
