<svg xmlns="http://www.w3.org/2000/svg" width="91" height="78" viewBox="0 0 91 78">
    <g fill="none" fill-rule="evenodd">
        <g fill="#1A82FF">
            <path d="M749.903 505.965c0 2.696-2.185 4.881-4.88 4.881-2.697 0-4.882-2.185-4.882-4.881s2.185-4.881 4.881-4.881 4.881 2.185 4.881 4.88zm9.472 20.803c0 2.211-1.798 4.01-4.01 4.01h-69.73c-2.212 0-4.01-1.799-4.01-4.01v-46.287c1.087.444 2.263.715 3.494.774h.023c.163.008.327.013.492.013h.017l69.715-.348c2.21 0 4.01 1.798 4.01 4.01v41.838zm-73.74-60.143h62.758c2.21 0 4.01 1.798 4.01 4.01v3.675l-66.769.334c-2.21 0-4.01-1.8-4.01-4.01s1.8-4.01 4.01-4.01zm73.392 8.323v-4.314c0-5.863-4.77-10.634-10.634-10.634h-62.759c-5.863 0-10.634 4.77-10.634 10.634v56.134c0 5.864 4.77 10.634 10.634 10.634h69.732c5.863 0 10.634-4.77 10.634-10.634V484.93c0-4.575-2.904-8.483-6.973-9.981z" transform="translate(-675 -460)"/>
        </g>
    </g>
</svg>
