<svg xmlns="http://www.w3.org/2000/svg" width="35" height="21" viewBox="0 0 35 21">
    <g fill="none" fill-rule="evenodd">
        <g fill="#3B99FC">
            <g>
                <g>
                    <path d="M46.006 22.761l2.048 2.005c.279.273.279.717 0 .99l-9.232 9.039c-.28.273-.732.273-1.012 0l-6.552-6.415c-.07-.069-.183-.069-.253 0l-6.552 6.415c-.28.273-.732.273-1.011 0l-9.232-9.039c-.28-.274-.28-.717 0-.99l2.047-2.005c.28-.274.732-.274 1.012 0l6.552 6.415c.07.068.183.068.253 0l6.552-6.415c.279-.274.732-.274 1.011 0l6.552 6.415c.07.068.184.068.253 0l6.553-6.415c.279-.274.732-.274 1.011 0zm-24.992-4.658c5.588-5.47 14.647-5.47 20.235 0l.672.658c.28.274.28.718 0 .991l-2.3 2.252c-.14.137-.366.137-.506 0l-.925-.906c-3.898-3.816-10.218-3.816-14.116 0l-.991.97c-.14.137-.367.137-.506 0l-2.3-2.252c-.28-.273-.28-.717 0-.99l.737-.723z" transform="translate(-593 -505) translate(525 307) translate(54 184)"/>
                </g>
            </g>
        </g>
    </g>
</svg>
