<svg xmlns="http://www.w3.org/2000/svg" xmlns:xlink="http://www.w3.org/1999/xlink" width="229" height="362" viewBox="0 0 229 362">
    <defs>
        <linearGradient id="lr68p9aoja" x1="50.008%" x2="50.008%" y1="105.96%" y2="66.408%">
            <stop offset="0%" stop-color="#0077D8"/>
            <stop offset="100%" stop-color="#1A82FF"/>
        </linearGradient>
        <linearGradient id="or1m8niktb" x1="50.968%" x2="41.008%" y1="79.399%" y2="-12.429%">
            <stop offset=".058%" stop-color="#FFF"/>
            <stop offset="100%" stop-color="#1E313F"/>
        </linearGradient>
        <linearGradient id="wdcdz5cq5c" x1="48.217%" x2="58.076%" y1="17.731%" y2="112.387%">
            <stop offset=".058%" stop-color="#FFF"/>
            <stop offset="99.67%" stop-color="#4E5A64"/>
        </linearGradient>
        <path id="k1xr8uxidd" d="M0 0L24.733 0 24.733 24.733 0 24.733z"/>
    </defs>
    <g fill="none" fill-rule="evenodd">
        <g stroke="#FFF" stroke-width=".5">
            <path fill="#0077D8" fill-rule="nonzero" d="M33.44 208.138C11.372 195.418.394 178.701.338 161.985c0-16.885 11.203-33.826 33.609-46.772 44.586-25.722 116.646-25.89 160.95-.281 22.069 12.72 33.047 29.436 33.103 46.153 0 16.885-11.203 33.826-33.609 46.772-44.587 25.721-116.646 25.89-160.951.281z" transform="translate(0 133.667)"/>
            <path d="M33.44 184.274C11.372 171.554.394 154.837.338 138.12c0-16.885 11.203-33.827 33.609-46.772 44.586-25.722 116.646-25.89 160.95-.282 22.069 12.72 33.047 29.437 33.103 46.153 0 16.885-11.203 33.827-33.609 46.772" opacity=".7" transform="translate(0 133.667)"/>
            <path d="M33.44 160.41C11.372 147.688.394 130.972.338 114.255c0-16.885 11.203-33.826 33.609-46.772 44.586-25.721 116.646-25.89 160.95-.281 22.069 12.72 33.047 29.437 33.103 46.153 0 16.885-11.203 33.826-33.609 46.772" opacity=".5" transform="translate(0 133.667)"/>
            <path d="M33.44 136.545C11.372 123.825.394 107.108.338 90.392c0-16.885 11.203-33.827 33.609-46.772 44.586-25.722 116.646-25.89 160.95-.281C216.967 56.059 227.945 72.775 228 89.49c0 16.886-11.203 33.827-33.609 46.772" opacity=".3" transform="translate(0 133.667)"/>
            <path d="M33.44 112.624C11.372 99.904.394 83.188.338 66.471c0-16.885 11.203-33.826 33.609-46.772 44.586-25.721 116.646-25.89 160.95-.281 22.069 12.72 33.047 29.436 33.103 46.153 0 16.885-11.203 33.826-33.609 46.772" opacity=".1" transform="translate(0 133.667)"/>
            <path fill="url(#lr68p9aoja)" fill-rule="nonzero" stroke-linecap="round" stroke-linejoin="round" d="M74.086 223.166c25.784 5.516 54.326 5.403 80.166-.282V95.908h28.711l-68.794-68.835-68.85 68.835h28.767v127.258z" transform="translate(0 133.667)"/>
            <path fill="#008DFF" fill-rule="nonzero" d="M45.319 80.936L114.169 12.101 114.169 27.073 45.319 95.908zM114.169 12.101L182.963 80.936 182.963 95.908 114.169 27.073z" transform="translate(0 133.667)"/>
            <path d="M194.391 136.207c-44.587 25.722-116.646 25.89-160.951.282" opacity=".3" transform="translate(0 133.667)"/>
            <path d="M194.391 112.343c-44.587 25.721-116.646 25.89-160.951.281" opacity=".1" transform="translate(0 133.667)"/>
            <path d="M194.391 183.992c-44.587 25.722-116.646 25.89-160.951.282" opacity=".7" transform="translate(0 133.667)"/>
            <path d="M194.391 160.128c-44.587 25.722-116.646 25.89-160.951.281" opacity=".5" transform="translate(0 133.667)"/>
        </g>
        <g>
            <g fill-rule="nonzero" transform="translate(49)">
                <circle cx="64.894" cy="65.109" r="64.678" fill="#1E313F" transform="rotate(-.192 64.894 65.11)"/>
                <path fill="#FFF" d="M105.343 105.236c22.186-22.348 22.078-58.393-.269-80.579-22.347-22.186-58.392-22.078-80.578.269l80.847 80.31z" opacity=".2"/>
                <g>
                    <path fill="url(#or1m8niktb)" d="M8.224 63.05c-.61-.67-1.158-1.463-1.706-2.194-.244-.304-.426-.609-.67-.974-.06-.061-.122-.122-.122-.244l-.548-.914c-.061-.122-.122-.183-.183-.304-.183-.305-.365-.61-.487-.914l-.183-.366c-.183-.304-.304-.609-.487-.913l-.183-.366c-.122-.304-.305-.61-.426-.914l-.183-.365c-.122-.305-.244-.67-.427-.975 0-.06-.06-.122-.06-.183-.305-.73-.549-1.523-.792-2.314 0-.061-.061-.122-.061-.183-.061-.305-.183-.548-.244-.853-.06-.244-.122-.426-.183-.67-.06-.244-.122-.548-.182-.792l-.183-.731c-.061-.244-.122-.487-.122-.731-.061-.244-.122-.548-.122-.792-.06-.244-.06-.487-.122-.731-.06-.305-.06-.61-.122-.853 0-.244-.06-.487-.06-.73-.061-.305-.061-.61-.122-.976 0-.243-.061-.426-.061-.67 0-.365-.061-.73-.061-1.096v-.548c0-.549-.061-1.097-.061-1.645s0-1.097.06-1.584v-.487c0-.366.062-.731.062-1.097 0-.183 0-.365.06-.548 0-.366.062-.731.123-1.036 0-.182.06-.365.06-.548.061-.426.122-.853.183-1.218 0-.122 0-.183.061-.305.061-.487.183-.975.244-1.523 0-.183.06-.304.122-.487.06-.366.121-.67.243-1.036.061-.182.061-.365.122-.548.061-.305.183-.61.244-.914l.183-.548c.121-.305.182-.67.304-.975.061-.122.122-.304.122-.426.183-.427.305-.914.487-1.34.061-.122.122-.305.183-.427l.366-.913c.06-.183.182-.366.243-.549.122-.243.244-.548.366-.792.06-.182.182-.365.243-.548.122-.244.244-.548.427-.792.06-.183.183-.304.243-.487.244-.427.427-.792.67-1.158-.487 1.828-.73 3.777-.73 5.91 0 7.188 3.045 12.67 9.076 16.386.305 6.457 2.193 11.574 5.422 14.864L8.224 63.049z" transform="translate(33.498 25.977)"/>
                    <path fill="url(#wdcdz5cq5c)" d="M43.251 24.306c1.889 2.802 3.046 6.396 3.473 10.66 1.522.732 2.924 1.584 4.081 2.498 4.447 3.472 6.762 8.59 6.762 15.047 0 .792-.061 1.584-.122 2.315v-.061c.244-.549.426-1.036.61-1.584.06-.122.121-.305.182-.427.122-.365.244-.792.365-1.157l.183-.548.183-.731c.06-.305.183-.61.244-.914l.182-.731c.061-.244.122-.548.183-.792.061-.183.061-.366.122-.548.06-.427.183-.853.244-1.219 0-.182.06-.304.06-.487.061-.426.122-.914.183-1.34 0-.122 0-.183.061-.305.061-.426.061-.853.122-1.279v-.305c.06-.487.06-.974.06-1.462v-.304-1.584c0-.548 0-1.157-.06-1.706v-.548c0-.365-.06-.731-.06-1.157 0-.244-.062-.427-.062-.67 0-.305-.06-.67-.122-.975 0-.244-.06-.488-.06-.67-.062-.305-.062-.61-.122-.914-.061-.244-.061-.487-.122-.731-.061-.305-.122-.61-.183-.853-.06-.244-.122-.487-.122-.73-.06-.305-.122-.55-.183-.854l-.182-.73c-.061-.244-.122-.549-.244-.793l-.183-.73c-.06-.244-.183-.488-.243-.793-.061-.243-.183-.487-.244-.73-.061-.244-.183-.488-.244-.732-.06-.243-.183-.487-.243-.73-.122-.244-.183-.488-.305-.732-.122-.243-.183-.487-.305-.73-.121-.244-.182-.427-.304-.67-.122-.244-.244-.488-.305-.67-.122-.244-.243-.427-.365-.67-.122-.245-.244-.427-.366-.671-.122-.183-.243-.426-.365-.61-.122-.243-.244-.426-.366-.67-.122-.182-.243-.365-.365-.608-.427-.61-.792-1.219-1.28-1.828-.304-.426-.609-.792-.974-1.218l-9.199 9.381z" transform="translate(33.498 25.977)"/>
                    <path fill="#FFF" d="M36.611 33.078c-.67-.122-1.279-.244-1.888-.365-8.163-1.645-14.133-2.803-14.133-8.529 0-3.533 3.472-6.335 9.747-6.335 5.543 0 9.99 2.254 12.914 6.518.244.365.488.73.67 1.096-.243-.365-.426-.73-.67-1.096l9.26-9.32c-3.534-4.204-8.041-7.128-13.158-8.712-.67-.182-1.402-.365-2.133-.548h-.06c-.427-.06-.853-.183-1.28-.244-.122-3.045-2.558-5.421-5.604-5.421-3.046 0-5.483 2.437-5.605 5.421-.548.122-1.096.183-1.644.305h-.061c-5.787 1.34-10.783 4.386-14.681 8.955-1.645 2.741-2.437 6.03-2.437 9.868 0 13.037 9.808 17.18 19.433 19.494 1.766.426 3.533.731 5.239 1.036 6.03 1.096 11.208 2.01 11.208 7.431 0 3.35-3.716 7.554-11.452 7.554-4.63 0-8.407-1.523-11.148-4.447l.06.061-11.025 7.188c1.523 1.767 3.168 3.29 4.934 4.63.61.427 1.219.853 1.828 1.218.609.366 1.279.731 1.888 1.036h.061c.61.305 1.28.61 1.95.914.06 0 .06 0 .121.06l2.01.732c.061 0 .061 0 .122.06.305.123.61.183.914.305h.122c.365.122.67.183 1.036.244.06 0 .121 0 .121.06l.914.184c.061 0 .122 0 .183.06.06 0 .183 0 .244.061 0 3.107 2.497 5.605 5.604 5.605s5.604-2.498 5.604-5.605c.366-.06.731-.121 1.097-.243h.122c.853-.183 1.644-.427 2.436-.67.427-.122.792-.244 1.219-.427 4.447-1.645 8.406-4.386 11.574-8.163 1.218-1.4 2.254-2.924 3.229-4.568.487-1.767.73-3.777.73-5.849.183-13.95-10.416-17.787-19.615-19.554z" transform="translate(33.498 25.977)"/>
                </g>
            </g>
            <g transform="translate(49) translate(90.143 .929)">
                <mask id="44hcbyh6be" fill="#fff">
                    <use xlink:href="#k1xr8uxidd"/>
                </mask>
                <path fill="#FFF" d="M24.733 12.366c-9.024 0-12.367 2.942-12.367 12.367 0-9.425-3.342-12.367-12.366-12.367 9.024 0 12.366-2.94 12.366-12.366 0 9.425 3.343 12.366 12.367 12.366" mask="url(#44hcbyh6be)"/>
            </g>
        </g>
    </g>
</svg>
