<svg xmlns="http://www.w3.org/2000/svg" width="140" height="141" viewBox="0 0 140 141">
    <g fill="none" fill-rule="evenodd" stroke-width=".5">
        <path stroke="#1E313F" stroke-linecap="round" stroke-linejoin="round" d="M85.35 2.446C81.3 1.518 77.168.928 72.866.759"/>
        <path stroke="#FFF" d="M67.048.759C29.94 2.277.422 32.807.422 70.253c0 38.458 31.12 69.578 69.578 69.578s69.578-31.12 69.578-69.578c0-31.12-20.41-57.434-48.494-66.373"/>
        <g transform="translate(21.928 22.771)">
            <circle cx="13.494" cy="35.506" r="10.458" fill="#1A82FF" fill-rule="nonzero" stroke="#FAFBFC" opacity=".212"/>
            <circle cx="20.325" cy="23.614" r="10.458" fill="#1A82FF" fill-rule="nonzero" stroke="#FAFBFC" opacity=".325"/>
            <circle cx="31.795" cy="14.506" r="10.458" fill="#1A82FF" fill-rule="nonzero" stroke="#FAFBFC" opacity=".438"/>
            <circle cx="48.157" cy="10.88" r="10.458" fill="#1A82FF" fill-rule="nonzero" stroke="#FAFBFC" opacity=".55"/>
            <circle cx="64.349" cy="14.422" r="10.458" fill="#1A82FF" fill-rule="nonzero" stroke="#FAFBFC" opacity=".662"/>
            <circle cx="82.566" cy="59.627" r="10.458" stroke="#1E313F" opacity=".212"/>
            <circle cx="75.735" cy="23.361" r="10.458" fill="#1A82FF" fill-rule="nonzero" stroke="#FAFBFC" opacity=".775"/>
            <circle cx="82.566" cy="35.253" r="10.458" fill="#1A82FF" fill-rule="nonzero" stroke="#FAFBFC" opacity=".887"/>
            <circle cx="84.843" cy="47.651" r="10.458" fill="#1A82FF" fill-rule="nonzero" stroke="#FAFBFC"/>
            <circle cx="75.735" cy="71.518" r="10.458" stroke="#1E313F" opacity=".325"/>
            <circle cx="64.265" cy="80.627" r="10.458" stroke="#1E313F" opacity=".438"/>
            <circle cx="47.904" cy="84.253" r="10.458" stroke="#1E313F" opacity=".55"/>
            <circle cx="31.711" cy="80.711" r="10.458" stroke="#1E313F" opacity=".662"/>
            <circle cx="20.325" cy="71.771" r="10.458" stroke="#1E313F" opacity=".775"/>
            <circle cx="13.494" cy="59.88" r="10.458" stroke="#1E313F" opacity=".887"/>
            <circle cx="11.217" cy="47.482" r="10.458" fill="#1A82FF" fill-rule="nonzero" stroke="#1E313F"/>
        </g>
    </g>
</svg>
