<svg xmlns="http://www.w3.org/2000/svg" width="119" height="51" viewBox="0 0 119 51">
    <path fill="#FFF" fill-rule="evenodd" d="M106.542 36.937c1.062 0 1.7-.595 1.91-1.763.044-.212.044-1.274.044-3.016H113v.68c0 1.402-.106 2.4-.148 2.825-.151.977-.489 1.85-.999 2.612-1.191 1.742-2.973 2.594-5.204 2.594-2.23 0-3.929-.81-5.184-2.466-.912-1.21-1.485-2.974-1.485-5.523V24.47c0-2.549.531-4.545 1.444-5.777 1.232-1.636 2.974-2.507 5.14-2.507 2.167 0 3.866.85 5.098 2.507.85 1.232 1.38 3.1 1.38 5.67v4.95h-8.538v4.29c0 2.23.637 3.335 2.082 3.335h-.043zM97.07 33.39c0 2.21-.149 3.78-.425 4.8-.595 1.785-1.848 2.698-3.547 2.698-1.53 0-3.101-.935-4.545-2.719v2.422H84.26V8.454h4.248v10.45c1.402-1.7 2.974-2.698 4.567-2.698 1.699 0 2.846.999 3.398 2.762.319.998.595 2.549.595 4.821v9.601zm-16.355 7.18H76.21v-2.634c-1.7 1.996-3.186 2.973-4.737 2.973-1.402 0-2.336-.637-2.848-1.848-.253-.743-.465-1.869-.465-3.547V16.568h4.503v19.477c.106.637.38.892.956.892.847 0 1.656-.786 2.61-2.124V16.568h4.484v24.001zm-17.099 0H58.88V12.956h-4.992V8.454H68.84v4.503h-5.204v27.612h-.02zm54.63-29.78s-.7-4.885-2.824-7.073C112.723.85 109.684.85 108.326.701 98.407 0 83.518 0 83.518 0h-.043S68.607 0 58.687.7c-1.38.17-4.418.17-7.115 3.017-2.124 2.167-2.804 7.073-2.804 7.073s-.722 5.778-.722 11.555v5.416c0 5.778.722 11.534.722 11.534s.68 4.928 2.804 7.094c2.697 2.846 6.245 2.761 7.816 3.038 5.672.554 24.106.722 24.106.722s14.934 0 24.854-.722c1.38-.17 4.396-.17 7.092-3.017 2.124-2.166 2.827-7.094 2.827-7.094s.68-5.756.68-11.555v-5.416c0-5.777-.701-11.555-.701-11.555zm-9.749 12.298c0-2.23-.575-2.888-1.998-2.888-1.421 0-2.037.637-2.037 2.867v2.655h4.035v-2.634zm-17.714-2.91c-.701 0-1.487.425-2.23 1.105v14.57c.698.723 1.484 1.063 2.209 1.063 1.274 0 1.805-.892 1.805-3.292V23.3c0-2.4-.576-3.101-1.827-3.101l.043-.022zM10.684 27.4v13.17H5.947V27.4S.998 11.172 0 8.156h4.992l3.334 12.66L11.64 8.178h4.97l-5.947 19.201.021.021zm13.318 5.99c.212 2.4-.531 3.61-1.912 3.61-1.402 0-2.124-1.21-1.912-3.61v-9.6c-.212-2.4.51-3.527 1.912-3.527 1.38 0 2.124 1.126 1.912 3.526v9.601zm4.46-9.133c0-2.592-.488-4.525-1.402-5.735-1.19-1.7-3.08-2.337-4.991-2.337-2.167 0-3.823.637-4.992 2.337-.934 1.21-1.423 3.186-1.423 5.735v8.647c0 2.546.425 4.333 1.36 5.52 1.19 1.7 3.143 2.549 5.034 2.549 1.911 0 3.865-.85 5.097-2.549.85-1.187 1.275-2.974 1.275-5.52v-8.69l.042.043zm15.93 16.312H39.89v-2.633c-1.7 1.996-3.186 2.973-4.737 2.973-1.402 0-2.336-.637-2.846-1.848-.255-.743-.468-1.869-.468-3.547V16.355h4.503v19.669c.107.637.383.892.956.892.85 0 1.657-.786 2.613-2.124V16.355h4.503V40.57h-.021z"/>
</svg>
