<svg xmlns="http://www.w3.org/2000/svg" width="136" height="58" viewBox="0 0 136 58">
    <path fill="#FFF" fill-rule="evenodd" d="M121.817 42.233c1.214 0 1.943-.68 2.183-2.016.051-.243.051-1.457.051-3.448h5.149v.777c0 1.603-.121 2.744-.17 3.23-.172 1.117-.559 2.115-1.141 2.987-1.363 1.991-3.4 2.965-5.95 2.965-2.55 0-4.493-.925-5.929-2.82-1.041-1.384-1.697-3.4-1.697-6.314v-9.617c0-2.914.607-5.197 1.651-6.606 1.409-1.87 3.4-2.865 5.877-2.865 2.478 0 4.42.971 5.829 2.865.971 1.409 1.579 3.546 1.579 6.485v5.658h-9.763v4.906c0 2.55.728 3.813 2.38 3.813h-.049zm-10.831-4.056c0 2.526-.17 4.323-.486 5.489-.68 2.04-2.113 3.084-4.056 3.084-1.748 0-3.545-1.069-5.197-3.109v2.769h-4.906V9.666h4.858v11.948c1.602-1.943 3.4-3.084 5.221-3.084 1.943 0 3.254 1.141 3.886 3.157.364 1.142.68 2.914.68 5.513v10.977zm-18.7 8.209h-5.149v-3.012c-1.943 2.283-3.643 3.4-5.416 3.4-1.602 0-2.671-.728-3.256-2.113-.29-.85-.532-2.137-.532-4.055V18.943h5.148v22.27c.122.728.435 1.02 1.093 1.02.97 0 1.895-.899 2.985-2.429V18.943h5.127v27.443zm-19.55 0H67.32V14.814h-5.707V9.666H78.71v5.148h-5.95v31.572h-.024zm62.463-34.049s-.802-5.586-3.23-8.087c-3.085-3.279-6.56-3.279-8.112-3.449C112.516 0 95.491 0 95.491 0h-.048s-17 0-28.342.801c-1.578.195-5.051.195-8.135 3.449-2.429 2.477-3.206 8.087-3.206 8.087s-.826 6.606-.826 13.212v6.192c0 6.606.826 13.188.826 13.188s.777 5.634 3.206 8.111c3.084 3.254 7.14 3.157 8.937 3.473 6.484.634 27.562.826 27.562.826s17.075 0 28.416-.826c1.579-.194 5.028-.194 8.11-3.449 2.428-2.477 3.232-8.111 3.232-8.111S136 38.37 136 31.74V25.55c0-6.606-.801-13.212-.801-13.212zM124.05 26.4c0-2.55-.658-3.303-2.285-3.303-1.625 0-2.329.728-2.329 3.278v3.036h4.614v-3.011zm-20.254-3.328c-.801 0-1.7.486-2.55 1.263v16.66c.8.826 1.698 1.215 2.526 1.215 1.457 0 2.064-1.02 2.064-3.765V26.641c0-2.744-.658-3.545-2.088-3.545l.048-.025zM12.216 31.33v15.057H6.8V31.329S1.141 12.774 0 9.326h5.707L9.52 23.8l3.789-14.45h5.682l-6.8 21.954.025.025zm15.227 6.848c.243 2.744-.607 4.129-2.186 4.129-1.603 0-2.428-1.385-2.186-4.129V27.2c-.242-2.744.583-4.031 2.186-4.031 1.579 0 2.429 1.287 2.186 4.031v10.977zm5.1-10.443c0-2.963-.559-5.173-1.603-6.557-1.36-1.943-3.521-2.671-5.707-2.671-2.477 0-4.372.728-5.707 2.671-1.069 1.384-1.627 3.643-1.627 6.557v9.887c0 2.912.485 4.954 1.554 6.312 1.36 1.943 3.594 2.914 5.756 2.914 2.185 0 4.42-.971 5.828-2.914.972-1.358 1.457-3.4 1.457-6.312v-9.935l.049.048zm18.214 18.652H45.61v-3.012c-1.943 2.283-3.643 3.4-5.416 3.4-1.603 0-2.672-.728-3.254-2.113-.292-.85-.535-2.137-.535-4.055V18.7h5.149v22.489c.121.728.437 1.02 1.093 1.02.971 0 1.894-.899 2.987-2.429V18.7h5.148v27.686h-.024z"/>
</svg>
