<svg width="101" height="40" viewBox="0 0 101 40" fill="none" xmlns="http://www.w3.org/2000/svg">
<path d="M80.5 40C91.5457 40 100.5 31.0457 100.5 20C100.5 8.9543 91.5457 0 80.5 0C69.4543 0 60.5 8.9543 60.5 20C60.5 31.0457 69.4543 40 80.5 40Z" fill="#26A17B"/>
<path fill-rule="evenodd" clip-rule="evenodd" d="M82.9025 21.7291V21.7266C82.765 21.7366 82.0562 21.7791 80.475 21.7791C79.2125 21.7791 78.3237 21.7416 78.0112 21.7266V21.7303C73.1512 21.5166 69.5237 20.6703 69.5237 19.6578C69.5237 18.6466 73.1512 17.8003 78.0112 17.5828V20.8878C78.3287 20.9103 79.2387 20.9641 80.4962 20.9641C82.005 20.9641 82.7613 20.9016 82.9025 20.8891V17.5853C87.7525 17.8016 91.3713 18.6478 91.3713 19.6578C91.3713 20.6703 87.7525 21.5141 82.9025 21.7291ZM82.9025 17.2416V14.2841H89.67V9.77407H71.2438V14.2841H78.0112V17.2403C72.5112 17.4928 68.375 18.5828 68.375 19.8878C68.375 21.1928 72.5112 22.2816 78.0112 22.5353V32.0128H82.9025V22.5328C88.3938 22.2803 92.52 21.1916 92.52 19.8878C92.52 18.5841 88.3938 17.4953 82.9025 17.2416Z" fill="white"/>
<g clip-path="url(#clip0_3224_30137)">
<path d="M50.5 40C61.5834 40 70.5 31.0834 70.5 20C70.5 8.9166 61.5834 0 50.5 0C39.4166 0 30.5 8.9166 30.5 20C30.5 31.0834 39.4166 40 50.5 40Z" fill="#2775CA"/>
<path d="M56.0006 23.1666C56.0006 20.25 54.2506 19.25 50.7506 18.8334C48.2506 18.5 47.7506 17.8334 47.7506 16.6666C47.7506 15.4998 48.584 14.75 50.2506 14.75C51.7506 14.75 52.584 15.25 53.0006 16.5C53.084 16.75 53.334 16.9166 53.584 16.9166H54.9172C55.2506 16.9166 55.5006 16.6666 55.5006 16.3334V16.25C55.1672 14.4166 53.6672 13 51.7506 12.8334V10.8334C51.7506 10.5 51.5006 10.25 51.084 10.1666H49.834C49.5006 10.1666 49.2506 10.4166 49.1672 10.8334V12.75C46.6672 13.0834 45.084 14.75 45.084 16.8334C45.084 19.5834 46.7506 20.6666 50.2506 21.0834C52.584 21.5 53.334 22 53.334 23.3334C53.334 24.6668 52.1672 25.5834 50.584 25.5834C48.4172 25.5834 47.6672 24.6666 47.4172 23.4166C47.334 23.0834 47.084 22.9166 46.834 22.9166H45.4172C45.084 22.9166 44.834 23.1666 44.834 23.5V23.5834C45.1672 25.6666 46.5006 27.1666 49.2506 27.5834V29.5834C49.2506 29.9166 49.5006 30.1666 49.9172 30.25H51.1672C51.5006 30.25 51.7506 30 51.834 29.5834V27.5834C54.334 27.1666 56.0006 25.4166 56.0006 23.1666Z" fill="white"/>
<path d="M46.2497 31.9166C39.7497 29.5834 36.4163 22.3334 38.8331 15.9166C40.0831 12.4166 42.8331 9.75 46.2497 8.5C46.5831 8.3334 46.7497 8.0834 46.7497 7.6666V6.5C46.7497 6.1666 46.5831 5.9166 46.2497 5.8334C46.1663 5.8334 45.9997 5.8334 45.9163 5.9166C37.9997 8.4166 33.6663 16.8334 36.1663 24.75C37.6663 29.4166 41.2497 33 45.9163 34.5C46.2497 34.6666 46.5831 34.5 46.6663 34.1666C46.7497 34.0834 46.7497 34 46.7497 33.8334V32.6666C46.7497 32.4166 46.4997 32.0834 46.2497 31.9166ZM55.0831 5.9166C54.7497 5.75 54.4163 5.9166 54.3331 6.25C54.2497 6.3334 54.2497 6.4166 54.2497 6.5834V7.75C54.2497 8.0834 54.4997 8.4166 54.7497 8.5834C61.2497 10.9166 64.5831 18.1666 62.1663 24.5834C60.9163 28.0834 58.1663 30.75 54.7497 32C54.4163 32.1666 54.2497 32.4166 54.2497 32.8334V34C54.2497 34.3334 54.4163 34.5834 54.7497 34.6666C54.8331 34.6666 54.9997 34.6666 55.0831 34.5834C62.9997 32.0834 67.3331 23.6666 64.8331 15.75C63.3331 11 59.6663 7.4166 55.0831 5.9166Z" fill="white"/>
</g>
<path d="M20.5 40C31.5457 40 40.5 31.0457 40.5 20C40.5 8.95431 31.5457 0 20.5 0C9.45431 0 0.5 8.95431 0.5 20C0.5 31.0457 9.45431 40 20.5 40Z" fill="url(#paint0_linear_3224_30137)"/>
<path d="M32.3609 16.7001H29.9876C28.6809 13.0734 25.1676 10.5868 20.5342 10.5868H12.9142V16.7001H10.2676V18.8934H12.9142V21.1934H10.2676V23.3867H12.9142V29.4268H20.5342C25.1142 29.4268 28.6009 26.9601 29.9409 23.3867H32.3609V21.1934H30.4742C30.5209 20.8068 30.5476 20.4068 30.5476 20.0068V19.9534C30.5476 19.5934 30.5276 19.2401 30.4942 18.8934H32.3676V16.7001H32.3609ZM15.0476 12.5401H20.5342C23.9342 12.5401 26.4609 14.2134 27.6276 16.6934H15.0476V12.5401ZM20.5342 27.4534H15.0476V23.3801H27.6142C26.4409 25.8201 23.9209 27.4534 20.5342 27.4534ZM28.3409 20.0534C28.3409 20.4401 28.3142 20.8201 28.2609 21.1867H15.0476V18.8867H28.2676C28.3142 19.2467 28.3409 19.6201 28.3409 20.0001V20.0534Z" fill="white"/>
<defs>
<linearGradient id="paint0_linear_3224_30137" x1="20.5" y1="-5.66667" x2="20.5" y2="44.2" gradientUnits="userSpaceOnUse">
<stop stop-color="#F9A606"/>
<stop offset="1" stop-color="#FBCC5F"/>
</linearGradient>
<clipPath id="clip0_3224_30137">
<rect width="40" height="40" fill="white" transform="translate(30.5)"/>
</clipPath>
</defs>
</svg>
