<svg width="356" height="100" viewBox="0 0 356 100" fill="none" xmlns="http://www.w3.org/2000/svg">
<rect x="74" width="99" height="35" rx="4" fill="#131313"/>
<path d="M116.878 23.1938C116.049 23.1938 115.322 23.0485 114.697 22.7577C114.073 22.467 113.583 22.0525 113.228 21.5141C112.883 20.9757 112.705 20.335 112.695 19.5921H114.503C114.514 20.195 114.724 20.7065 115.133 21.1264C115.543 21.5464 116.119 21.7563 116.862 21.7563C117.518 21.7563 118.03 21.6002 118.396 21.288C118.773 20.9649 118.961 20.5558 118.961 20.0605C118.961 19.6621 118.87 19.339 118.687 19.0914C118.514 18.8437 118.272 18.6391 117.96 18.4776C117.658 18.3161 117.308 18.1707 116.91 18.0415C116.512 17.9123 116.092 17.7723 115.65 17.6216C114.778 17.3309 114.121 16.954 113.68 16.491C113.249 16.028 113.034 15.4196 113.034 14.6659C113.023 14.0306 113.168 13.4761 113.47 13.0023C113.782 12.5285 114.213 12.1624 114.762 11.904C115.322 11.6348 115.973 11.5002 116.716 11.5002C117.448 11.5002 118.089 11.6348 118.638 11.904C119.198 12.1732 119.634 12.5501 119.946 13.0346C120.259 13.5084 120.42 14.0629 120.431 14.6982H118.622C118.622 14.4075 118.547 14.1329 118.396 13.8745C118.245 13.6053 118.024 13.3846 117.734 13.2123C117.443 13.04 117.088 12.9539 116.668 12.9539C116.129 12.9431 115.683 13.0777 115.327 13.3576C114.983 13.6376 114.81 14.0252 114.81 14.5205C114.81 14.962 114.94 15.3012 115.198 15.5381C115.456 15.775 115.812 15.9742 116.264 16.1357C116.716 16.2864 117.233 16.4641 117.814 16.6687C118.374 16.8517 118.875 17.0725 119.317 17.3309C119.758 17.5893 120.108 17.9285 120.366 18.3484C120.636 18.7683 120.77 19.3013 120.77 19.9474C120.77 20.5181 120.625 21.0511 120.334 21.5464C120.043 22.0309 119.607 22.4293 119.026 22.7416C118.444 23.0431 117.728 23.1938 116.878 23.1938ZM126.324 23.1938C125.538 23.1938 124.839 23.0215 124.225 22.677C123.622 22.3216 123.148 21.8317 122.803 21.2072C122.459 20.5827 122.287 19.8559 122.287 19.0268C122.287 18.1869 122.454 17.4493 122.787 16.814C123.132 16.1787 123.606 15.6834 124.209 15.3281C124.822 14.9728 125.533 14.7951 126.341 14.7951C127.127 14.7951 127.81 14.9728 128.392 15.3281C128.973 15.6727 129.426 16.1357 129.749 16.7171C130.072 17.2986 130.233 17.9392 130.233 18.6391C130.233 18.7468 130.228 18.8653 130.217 18.9945C130.217 19.1129 130.212 19.2475 130.201 19.3982H123.966C124.02 20.1735 124.273 20.7657 124.726 21.1749C125.189 21.5733 125.722 21.7725 126.324 21.7725C126.809 21.7725 127.213 21.6648 127.536 21.4495C127.87 21.2234 128.117 20.9219 128.279 20.545H129.991C129.775 21.2987 129.345 21.9286 128.699 22.4347C128.063 22.9408 127.272 23.1938 126.324 23.1938ZM126.324 16.2003C125.754 16.2003 125.248 16.3726 124.806 16.7171C124.365 17.0509 124.096 17.557 123.999 18.2354H128.521C128.489 17.6108 128.268 17.1155 127.859 16.7494C127.45 16.3833 126.938 16.2003 126.324 16.2003ZM132.01 23V14.9889H133.528L133.657 16.3941C133.905 15.8988 134.265 15.5112 134.739 15.2312C135.224 14.9405 135.778 14.7951 136.403 14.7951C137.372 14.7951 138.131 15.0966 138.68 15.6996C139.24 16.3026 139.52 17.2017 139.52 18.3969V23H137.824V18.5745C137.824 17.024 137.189 16.2487 135.918 16.2487C135.283 16.2487 134.755 16.4749 134.335 16.9271C133.926 17.3793 133.722 18.0254 133.722 18.8653V23H132.01ZM145.186 23.1938C144.411 23.1938 143.727 23.0108 143.135 22.6447C142.543 22.2786 142.08 21.7779 141.746 21.1426C141.412 20.5073 141.246 19.7859 141.246 18.9783C141.246 18.1707 141.412 17.4547 141.746 16.8302C142.08 16.1949 142.543 15.6996 143.135 15.3443C143.738 14.9782 144.427 14.7951 145.203 14.7951C145.838 14.7951 146.392 14.9189 146.866 15.1666C147.351 15.4142 147.728 15.7642 147.997 16.2164V11.371H149.709V23H148.174L147.997 21.7563C147.738 22.1332 147.383 22.467 146.931 22.7577C146.479 23.0485 145.897 23.1938 145.186 23.1938ZM145.493 21.7079C146.226 21.7079 146.823 21.4549 147.286 20.9488C147.76 20.4427 147.997 19.7913 147.997 18.9945C147.997 18.1869 147.76 17.5355 147.286 17.0402C146.823 16.5341 146.226 16.281 145.493 16.281C144.761 16.281 144.158 16.5341 143.684 17.0402C143.211 17.5355 142.974 18.1869 142.974 18.9945C142.974 19.5221 143.081 19.9905 143.297 20.3996C143.512 20.8088 143.808 21.1318 144.185 21.3687C144.573 21.5948 145.009 21.7079 145.493 21.7079Z" fill="white"/>
<path d="M104.173 13H99.5154C99.0479 13 98.6882 13.3773 98.6882 13.8264C98.6882 14.2755 99.0659 14.6528 99.5154 14.6528H102.159L96.2427 20.5809C95.9191 20.9042 95.9191 21.4252 96.2427 21.7485C96.4045 21.9102 96.6204 22 96.8361 22C97.0518 22 97.2677 21.9102 97.4295 21.7485L103.346 15.8384V18.4791C103.346 18.9461 103.723 19.3055 104.173 19.3055C104.64 19.3055 105 18.9282 105 18.4791L105 13.8264C105 13.3594 104.64 13.0001 104.173 13.0001L104.173 13Z" fill="white"/>
<path d="M212.147 23V11.6941H216.039C216.933 11.6941 217.665 11.8448 218.236 12.1463C218.817 12.4478 219.248 12.8569 219.528 13.3738C219.808 13.8799 219.948 14.4452 219.948 15.0697C219.948 15.7696 219.759 16.4049 219.383 16.9755C219.016 17.5462 218.44 17.9554 217.654 18.203L220.061 23H218.074L215.878 18.4453H213.859V23H212.147ZM213.859 17.1532H215.942C216.718 17.1532 217.283 16.9648 217.638 16.5879C218.004 16.211 218.187 15.7211 218.187 15.1181C218.187 14.5152 218.01 14.036 217.654 13.6807C217.299 13.3146 216.723 13.1315 215.926 13.1315H213.859V17.1532ZM225.167 23.1938C224.381 23.1938 223.681 23.0215 223.067 22.677C222.464 22.3216 221.99 21.8317 221.646 21.2072C221.301 20.5827 221.129 19.8559 221.129 19.0268C221.129 18.1869 221.296 17.4493 221.63 16.814C221.974 16.1787 222.448 15.6834 223.051 15.3281C223.665 14.9728 224.375 14.7951 225.183 14.7951C225.969 14.7951 226.653 14.9728 227.234 15.3281C227.816 15.6727 228.268 16.1357 228.591 16.7171C228.914 17.2986 229.075 17.9392 229.075 18.6391C229.075 18.7468 229.07 18.8653 229.059 18.9945C229.059 19.1129 229.054 19.2475 229.043 19.3982H222.809C222.862 20.1735 223.116 20.7657 223.568 21.1749C224.031 21.5733 224.564 21.7725 225.167 21.7725C225.651 21.7725 226.055 21.6648 226.378 21.4495C226.712 21.2234 226.96 20.9219 227.121 20.545H228.833C228.618 21.2987 228.187 21.9286 227.541 22.4347C226.906 22.9408 226.114 23.1938 225.167 23.1938ZM225.167 16.2003C224.596 16.2003 224.09 16.3726 223.649 16.7171C223.207 17.0509 222.938 17.557 222.841 18.2354H227.363C227.331 17.6108 227.11 17.1155 226.701 16.7494C226.292 16.3833 225.781 16.2003 225.167 16.2003ZM234.647 23.1938C233.861 23.1938 233.156 23.0162 232.532 22.6608C231.918 22.3055 231.433 21.8156 231.078 21.191C230.733 20.5558 230.561 19.8236 230.561 18.9945C230.561 18.1654 230.733 17.4386 231.078 16.814C231.433 16.1787 231.918 15.6834 232.532 15.3281C233.156 14.9728 233.861 14.7951 234.647 14.7951C235.638 14.7951 236.467 15.0535 237.135 15.5704C237.813 16.0872 238.249 16.7871 238.443 17.6701H236.65C236.542 17.2286 236.306 16.884 235.939 16.6364C235.573 16.3887 235.143 16.2649 234.647 16.2649C234.227 16.2649 233.84 16.3726 233.484 16.5879C233.129 16.7925 232.844 17.0994 232.628 17.5085C232.413 17.9069 232.305 18.4022 232.305 18.9945C232.305 19.5867 232.413 20.0874 232.628 20.4965C232.844 20.8949 233.129 21.2018 233.484 21.4172C233.84 21.6325 234.227 21.7402 234.647 21.7402C235.143 21.7402 235.573 21.6164 235.939 21.3687C236.306 21.1211 236.542 20.7711 236.65 20.3189H238.443C238.26 21.1803 237.829 21.8748 237.151 22.4024C236.472 22.93 235.638 23.1938 234.647 23.1938ZM244.047 23.1938C243.261 23.1938 242.561 23.0215 241.947 22.677C241.344 22.3216 240.87 21.8317 240.526 21.2072C240.181 20.5827 240.009 19.8559 240.009 19.0268C240.009 18.1869 240.176 17.4493 240.51 16.814C240.854 16.1787 241.328 15.6834 241.931 15.3281C242.545 14.9728 243.255 14.7951 244.063 14.7951C244.849 14.7951 245.533 14.9728 246.114 15.3281C246.696 15.6727 247.148 16.1357 247.471 16.7171C247.794 17.2986 247.955 17.9392 247.955 18.6391C247.955 18.7468 247.95 18.8653 247.939 18.9945C247.939 19.1129 247.934 19.2475 247.923 19.3982H241.689C241.743 20.1735 241.996 20.7657 242.448 21.1749C242.911 21.5733 243.444 21.7725 244.047 21.7725C244.531 21.7725 244.935 21.6648 245.258 21.4495C245.592 21.2234 245.84 20.9219 246.001 20.545H247.713C247.498 21.2987 247.067 21.9286 246.421 22.4347C245.786 22.9408 244.994 23.1938 244.047 23.1938ZM244.047 16.2003C243.476 16.2003 242.97 16.3726 242.529 16.7171C242.087 17.0509 241.818 17.557 241.721 18.2354H246.243C246.211 17.6108 245.99 17.1155 245.581 16.7494C245.172 16.3833 244.661 16.2003 244.047 16.2003ZM250.701 13.4707C250.378 13.4707 250.109 13.3738 249.893 13.18C249.689 12.9754 249.586 12.7224 249.586 12.4209C249.586 12.1194 249.689 11.8717 249.893 11.6779C250.109 11.4733 250.378 11.371 250.701 11.371C251.024 11.371 251.288 11.4733 251.492 11.6779C251.708 11.8717 251.815 12.1194 251.815 12.4209C251.815 12.7224 251.708 12.9754 251.492 13.18C251.288 13.3738 251.024 13.4707 250.701 13.4707ZM249.845 23V14.9889H251.557V23H249.845ZM256.062 23L253.058 14.9889H254.851L257.08 21.3687L259.308 14.9889H261.085L258.097 23H256.062ZM265.829 23.1938C265.043 23.1938 264.343 23.0215 263.729 22.677C263.126 22.3216 262.653 21.8317 262.308 21.2072C261.963 20.5827 261.791 19.8559 261.791 19.0268C261.791 18.1869 261.958 17.4493 262.292 16.814C262.636 16.1787 263.11 15.6834 263.713 15.3281C264.327 14.9728 265.038 14.7951 265.845 14.7951C266.631 14.7951 267.315 14.9728 267.896 15.3281C268.478 15.6727 268.93 16.1357 269.253 16.7171C269.576 17.2986 269.738 17.9392 269.738 18.6391C269.738 18.7468 269.732 18.8653 269.722 18.9945C269.722 19.1129 269.716 19.2475 269.705 19.3982H263.471C263.525 20.1735 263.778 20.7657 264.23 21.1749C264.693 21.5733 265.226 21.7725 265.829 21.7725C266.314 21.7725 266.717 21.6648 267.04 21.4495C267.374 21.2234 267.622 20.9219 267.783 20.545H269.495C269.28 21.2987 268.849 21.9286 268.203 22.4347C267.568 22.9408 266.777 23.1938 265.829 23.1938ZM265.829 16.2003C265.258 16.2003 264.752 16.3726 264.311 16.7171C263.869 17.0509 263.6 17.557 263.503 18.2354H268.026C267.993 17.6108 267.773 17.1155 267.363 16.7494C266.954 16.3833 266.443 16.2003 265.829 16.2003Z" fill="black"/>
<path d="M196.827 22H201.485C201.952 22 202.312 21.6227 202.312 21.1736C202.312 20.7245 201.934 20.3472 201.485 20.3472H198.841L204.757 14.4191C205.081 14.0958 205.081 13.5748 204.757 13.2515C204.595 13.0898 204.38 13 204.164 13C203.948 13 203.732 13.0898 203.57 13.2515L197.654 19.1616V16.5209C197.654 16.0539 197.277 15.6945 196.827 15.6945C196.36 15.6945 196 16.0718 196 16.5209L196 21.1736C196 21.6406 196.36 21.9999 196.827 21.9999L196.827 22Z" fill="black"/>
<rect x="182.5" y="0.5" width="99" height="34" rx="3.5" stroke="black"/>
<rect y="50" width="356" height="50" fill="#DDDDDD"/>
<rect width="178" height="1" transform="matrix(1 0 0 -1 0 100)" fill="#131313"/>
<path d="M86.4485 79.1387C85.6319 79.1387 84.931 78.9653 84.3455 78.6187C83.7601 78.2644 83.3095 77.7752 82.9937 77.1513C82.6779 76.5196 82.5199 75.7917 82.5199 74.9675C82.5199 74.1433 82.6779 73.4154 82.9937 72.7837C83.3095 72.1521 83.7601 71.6591 84.3455 71.3047C84.931 70.9504 85.6319 70.7732 86.4485 70.7732C87.419 70.7732 88.2124 71.0159 88.8287 71.5012C89.4526 71.9788 89.8416 72.6528 89.9957 73.5232H88.3665C88.2664 73.0841 88.0507 72.7413 87.7194 72.4949C87.3959 72.2407 86.9646 72.1136 86.4253 72.1136C85.6782 72.1136 85.0927 72.3678 84.6691 72.8762C84.2454 73.3845 84.0336 74.0817 84.0336 74.9675C84.0336 75.8533 84.2454 76.5505 84.6691 77.0589C85.0927 77.5595 85.6782 77.8099 86.4253 77.8099C86.9646 77.8099 87.3959 77.6943 87.7194 77.4633C88.0507 77.2245 88.2664 76.8971 88.3665 76.4811H89.9957C89.8416 77.3131 89.4526 77.964 88.8287 78.4338C88.2124 78.9037 87.419 79.1387 86.4485 79.1387ZM95.0947 79.1387C94.2859 79.1387 93.5772 78.9615 92.9687 78.6071C92.3678 78.2528 91.8941 77.7637 91.5475 77.1397C91.2086 76.5081 91.0391 75.7802 91.0391 74.9559C91.0391 74.1317 91.2086 73.4077 91.5475 72.7837C91.8941 72.1521 92.3678 71.6591 92.9687 71.3047C93.5772 70.9504 94.2859 70.7732 95.0947 70.7732C95.8958 70.7732 96.6006 70.9504 97.2092 71.3047C97.8177 71.6591 98.2914 72.1521 98.6303 72.7837C98.9693 73.4077 99.1387 74.1317 99.1387 74.9559C99.1387 75.7802 98.9693 76.5081 98.6303 77.1397C98.2914 77.7637 97.8177 78.2528 97.2092 78.6071C96.6006 78.9615 95.8958 79.1387 95.0947 79.1387ZM95.0947 77.8099C95.865 77.8099 96.4774 77.5557 96.9318 77.0473C97.394 76.5389 97.6251 75.8418 97.6251 74.9559C97.6251 74.0701 97.394 73.373 96.9318 72.8646C96.4774 72.3562 95.865 72.102 95.0947 72.102C94.3244 72.102 93.7082 72.3562 93.246 72.8646C92.7838 73.373 92.5527 74.0701 92.5527 74.9559C92.5527 75.8418 92.7838 76.5389 93.246 77.0473C93.7082 77.5557 94.3244 77.8099 95.0947 77.8099ZM100.445 79V70.9119H101.924V79H100.445ZM103.491 79V70.9119H104.97L108.772 76.6082V70.9119H110.25V79H108.772L104.97 73.3152V79H103.491ZM114.58 79.1387C113.987 79.1387 113.463 79.0385 113.009 78.8382C112.554 78.6303 112.196 78.3375 111.934 77.9601C111.672 77.575 111.537 77.1089 111.53 76.562H113.089C113.105 76.9395 113.24 77.2591 113.494 77.521C113.756 77.7752 114.114 77.9023 114.568 77.9023C114.961 77.9023 115.273 77.8099 115.504 77.625C115.735 77.4324 115.851 77.1783 115.851 76.8624C115.851 76.5312 115.747 76.2732 115.539 76.0883C115.339 75.9034 115.069 75.7532 114.73 75.6377C114.391 75.5221 114.029 75.3989 113.644 75.2679C113.02 75.0522 112.543 74.7749 112.211 74.436C111.888 74.0971 111.726 73.6464 111.726 73.0841C111.718 72.6065 111.83 72.1983 112.061 71.8594C112.3 71.5127 112.623 71.247 113.032 71.0621C113.44 70.8695 113.91 70.7732 114.441 70.7732C114.981 70.7732 115.454 70.8695 115.863 71.0621C116.278 71.2547 116.602 71.5243 116.833 71.8709C117.072 72.2175 117.199 72.6297 117.214 73.1072H115.631C115.624 72.8222 115.512 72.5719 115.296 72.3562C115.088 72.1328 114.796 72.0211 114.418 72.0211C114.095 72.0134 113.821 72.0943 113.598 72.2638C113.382 72.4255 113.274 72.6643 113.274 72.9801C113.274 73.2497 113.359 73.4654 113.529 73.6272C113.698 73.7812 113.929 73.9122 114.222 74.02C114.514 74.1279 114.85 74.2434 115.227 74.3667C115.628 74.5053 115.993 74.6671 116.325 74.852C116.656 75.0368 116.922 75.2833 117.122 75.5914C117.322 75.8919 117.422 76.2809 117.422 76.7584C117.422 77.1821 117.315 77.575 117.099 77.937C116.883 78.299 116.563 78.5917 116.14 78.8151C115.716 79.0308 115.196 79.1387 114.58 79.1387Z" fill="black"/>
<path d="M239.448 79.1387C238.632 79.1387 237.931 78.9653 237.346 78.6187C236.76 78.2644 236.31 77.7752 235.994 77.1513C235.678 76.5196 235.52 75.7917 235.52 74.9675C235.52 74.1433 235.678 73.4154 235.994 72.7837C236.31 72.1521 236.76 71.6591 237.346 71.3047C237.931 70.9504 238.632 70.7732 239.448 70.7732C240.419 70.7732 241.212 71.0159 241.829 71.5012C242.453 71.9788 242.842 72.6528 242.996 73.5232H241.366C241.266 73.0841 241.051 72.7413 240.719 72.4949C240.396 72.2407 239.965 72.1136 239.425 72.1136C238.678 72.1136 238.093 72.3678 237.669 72.8762C237.245 73.3845 237.034 74.0817 237.034 74.9675C237.034 75.8533 237.245 76.5505 237.669 77.0589C238.093 77.5595 238.678 77.8099 239.425 77.8099C239.965 77.8099 240.396 77.6943 240.719 77.4633C241.051 77.2245 241.266 76.8971 241.366 76.4811H242.996C242.842 77.3131 242.453 77.964 241.829 78.4338C241.212 78.9037 240.419 79.1387 239.448 79.1387ZM248.095 79.1387C247.286 79.1387 246.577 78.9615 245.969 78.6071C245.368 78.2528 244.894 77.7637 244.547 77.1397C244.209 76.5081 244.039 75.7802 244.039 74.9559C244.039 74.1317 244.209 73.4077 244.547 72.7837C244.894 72.1521 245.368 71.6591 245.969 71.3047C246.577 70.9504 247.286 70.7732 248.095 70.7732C248.896 70.7732 249.601 70.9504 250.209 71.3047C250.818 71.6591 251.291 72.1521 251.63 72.7837C251.969 73.4077 252.139 74.1317 252.139 74.9559C252.139 75.7802 251.969 76.5081 251.63 77.1397C251.291 77.7637 250.818 78.2528 250.209 78.6071C249.601 78.9615 248.896 79.1387 248.095 79.1387ZM248.095 77.8099C248.865 77.8099 249.477 77.5557 249.932 77.0473C250.394 76.5389 250.625 75.8418 250.625 74.9559C250.625 74.0701 250.394 73.373 249.932 72.8646C249.477 72.3562 248.865 72.102 248.095 72.102C247.324 72.102 246.708 72.3562 246.246 72.8646C245.784 73.373 245.553 74.0701 245.553 74.9559C245.553 75.8418 245.784 76.5389 246.246 77.0473C246.708 77.5557 247.324 77.8099 248.095 77.8099ZM253.445 79V70.9119H254.924V77.8446H258.505V79H253.445ZM259.809 79V70.9119H261.288V77.8446H264.869V79H259.809ZM266.173 79V70.9119H271.453V72.102H267.651V74.3205H271.106V75.4759H267.651V77.8099H271.453V79H266.173ZM276.515 79.1387C275.699 79.1387 274.998 78.9653 274.412 78.6187C273.827 78.2644 273.376 77.7752 273.06 77.1513C272.745 76.5196 272.587 75.7917 272.587 74.9675C272.587 74.1433 272.745 73.4154 273.06 72.7837C273.376 72.1521 273.827 71.6591 274.412 71.3047C274.998 70.9504 275.699 70.7732 276.515 70.7732C277.486 70.7732 278.279 71.0159 278.895 71.5012C279.519 71.9788 279.908 72.6528 280.062 73.5232H278.433C278.333 73.0841 278.117 72.7413 277.786 72.4949C277.463 72.2407 277.031 72.1136 276.492 72.1136C275.745 72.1136 275.159 72.3678 274.736 72.8762C274.312 73.3845 274.1 74.0817 274.1 74.9675C274.1 75.8533 274.312 76.5505 274.736 77.0589C275.159 77.5595 275.745 77.8099 276.492 77.8099C277.031 77.8099 277.463 77.6943 277.786 77.4633C278.117 77.2245 278.333 76.8971 278.433 76.4811H280.062C279.908 77.3131 279.519 77.964 278.895 78.4338C278.279 78.9037 277.486 79.1387 276.515 79.1387ZM283.153 79V72.102H280.796V70.9119H287.001V72.102H284.632V79H283.153ZM288.097 79V70.9119H289.576V79H288.097ZM294.933 79.1387C294.124 79.1387 293.416 78.9615 292.807 78.6071C292.206 78.2528 291.732 77.7637 291.386 77.1397C291.047 76.5081 290.877 75.7802 290.877 74.9559C290.877 74.1317 291.047 73.4077 291.386 72.7837C291.732 72.1521 292.206 71.6591 292.807 71.3047C293.416 70.9504 294.124 70.7732 294.933 70.7732C295.734 70.7732 296.439 70.9504 297.047 71.3047C297.656 71.6591 298.13 72.1521 298.469 72.7837C298.808 73.4077 298.977 74.1317 298.977 74.9559C298.977 75.7802 298.808 76.5081 298.469 77.1397C298.13 77.7637 297.656 78.2528 297.047 78.6071C296.439 78.9615 295.734 79.1387 294.933 79.1387ZM294.933 77.8099C295.703 77.8099 296.316 77.5557 296.77 77.0473C297.232 76.5389 297.463 75.8418 297.463 74.9559C297.463 74.0701 297.232 73.373 296.77 72.8646C296.316 72.3562 295.703 72.102 294.933 72.102C294.163 72.102 293.546 72.3562 293.084 72.8646C292.622 73.373 292.391 74.0701 292.391 74.9559C292.391 75.8418 292.622 76.5389 293.084 77.0473C293.546 77.5557 294.163 77.8099 294.933 77.8099ZM300.283 79V70.9119H301.762L305.563 76.6082V70.9119H307.042V79H305.563L301.762 73.3152V79H300.283ZM311.372 79.1387C310.779 79.1387 310.255 79.0385 309.8 78.8382C309.346 78.6303 308.988 78.3375 308.726 77.9601C308.464 77.575 308.329 77.1089 308.321 76.562H309.881C309.897 76.9395 310.031 77.2591 310.286 77.521C310.548 77.7752 310.906 77.9023 311.36 77.9023C311.753 77.9023 312.065 77.8099 312.296 77.625C312.527 77.4324 312.643 77.1783 312.643 76.8624C312.643 76.5312 312.539 76.2732 312.331 76.0883C312.13 75.9034 311.861 75.7532 311.522 75.6377C311.183 75.5221 310.821 75.3989 310.436 75.2679C309.812 75.0522 309.334 74.7749 309.003 74.436C308.68 74.0971 308.518 73.6464 308.518 73.0841C308.51 72.6065 308.622 72.1983 308.853 71.8594C309.092 71.5127 309.415 71.247 309.823 71.0621C310.232 70.8695 310.702 70.7732 311.233 70.7732C311.772 70.7732 312.246 70.8695 312.654 71.0621C313.07 71.2547 313.394 71.5243 313.625 71.8709C313.864 72.2175 313.991 72.6297 314.006 73.1072H312.423C312.415 72.8222 312.304 72.5719 312.088 72.3562C311.88 72.1328 311.587 72.0211 311.21 72.0211C310.886 72.0134 310.613 72.0943 310.39 72.2638C310.174 72.4255 310.066 72.6643 310.066 72.9801C310.066 73.2497 310.151 73.4654 310.32 73.6272C310.49 73.7812 310.721 73.9122 311.014 74.02C311.306 74.1279 311.641 74.2434 312.019 74.3667C312.419 74.5053 312.785 74.6671 313.116 74.852C313.448 75.0368 313.713 75.2833 313.914 75.5914C314.114 75.8919 314.214 76.2809 314.214 76.7584C314.214 77.1821 314.106 77.575 313.891 77.937C313.675 78.299 313.355 78.5917 312.932 78.8151C312.508 79.0308 311.988 79.1387 311.372 79.1387Z" fill="#A3A4A8"/>
<path fill-rule="evenodd" clip-rule="evenodd" d="M59 68.75C55.5482 68.75 52.75 71.5482 52.75 75C52.75 78.4518 55.5482 81.25 59 81.25C59.4142 81.25 59.75 81.5858 59.75 82C59.75 82.4142 59.4142 82.75 59 82.75C54.7198 82.75 51.25 79.2802 51.25 75C51.25 70.7198 54.7198 67.25 59 67.25C59.4142 67.25 59.75 67.5858 59.75 68C59.75 68.4142 59.4142 68.75 59 68.75Z" fill="black"/>
<path fill-rule="evenodd" clip-rule="evenodd" d="M67 81.5C70.5899 81.5 73.5 78.5899 73.5 75C73.5 71.4101 70.5899 68.5 67 68.5C63.4101 68.5 60.5 71.4101 60.5 75C60.5 78.5899 63.4101 81.5 67 81.5ZM67 83C71.4183 83 75 79.4183 75 75C75 70.5817 71.4183 67 67 67C62.5817 67 59 70.5817 59 75C59 79.4183 62.5817 83 67 83Z" fill="black"/>
<path fill-rule="evenodd" clip-rule="evenodd" d="M209 71.5L212.75 66.5H222.25L226 71.5H209ZM207.031 72.2455C206.96 71.9706 207.003 71.6629 207.2 71.4L211.7 65.4C211.889 65.1482 212.186 65 212.5 65H222.5C222.815 65 223.112 65.1482 223.3 65.4L227.8 71.4C227.998 71.6629 228.041 71.9706 227.97 72.2456C228.05 72.5441 227.996 72.8814 227.759 73.1547L218.256 84.1271C217.858 84.5876 217.143 84.5876 216.745 84.1271L207.242 73.1547C207.005 72.8814 206.951 72.5441 207.031 72.2455ZM209.092 73L217.5 82.7087L225.908 73L209.092 73Z" fill="#A3A4A8"/>
</svg>
