<svg width="400" height="210" viewBox="0 0 400 210" fill="none" xmlns="http://www.w3.org/2000/svg">
<rect x="-10" width="420" height="210" fill="#F6F8FE"/>
<path d="M235.17 89.7251H223.12V120.332H235.089C243.512 120.332 249.88 114.685 249.88 105.028C249.88 95.3718 243.593 89.7251 235.17 89.7251ZM235.17 93.8987C241.054 93.8987 245.084 97.7041 245.084 105.028C245.084 112.353 240.973 116.158 235.129 116.158H227.875V93.8987H235.17Z" fill="#02080D"/>
<path d="M263.023 98.9725C256.857 98.9725 252.223 103.187 252.223 109.857C252.223 116.485 256.857 120.741 263.023 120.741C269.149 120.741 273.784 116.485 273.784 109.857C273.784 103.187 269.149 98.9725 263.023 98.9725ZM263.023 102.901C266.57 102.901 269.23 105.478 269.23 109.857C269.23 114.194 266.57 116.772 263.023 116.772C259.437 116.772 256.817 114.194 256.817 109.857C256.817 105.478 259.437 102.901 263.023 102.901Z" fill="#02080D"/>
<path d="M281.676 89.4232H277.162V120.332H281.676V89.4232Z" fill="#02080D"/>
<path d="M290.554 89.4232H286.041V120.332H290.554V89.4232Z" fill="#02080D"/>
<path d="M303.148 98.9725C297.989 98.9725 294.927 102.696 294.927 106.379L299.481 106.542C299.481 104.66 300.609 102.982 303.188 102.982C305.727 102.982 306.856 104.66 306.856 107.361V107.974L301.939 108.261C297.707 108.506 294.362 110.102 294.362 114.603C294.362 118.531 297.143 120.741 301.254 120.741C303.551 120.741 305.405 119.841 306.856 118.449V120.332H311.41V107.279C311.41 101.919 308.468 98.9725 303.148 98.9725ZM306.896 111.534V112.271C306.896 115.462 304.881 116.894 302.02 116.894C300.206 116.894 298.916 116.281 298.916 114.521C298.916 112.639 300.448 111.943 302.584 111.821L306.896 111.534Z" fill="#02080D"/>
<path d="M326.233 99.0953C322.928 99.0953 321.115 100.65 320.349 102.287V99.3408H315.956V120.332H320.47V108.916C320.47 105.847 322.687 103.555 326.233 103.555V99.0953Z" fill="#02080D"/>
<path d="M122.068 120.287L116.01 109.87C115.871 109.87 115.784 109.87 115.663 109.87H111.045V120.287H105.004V89.7652H115.663C123.145 89.7652 127.623 93.8174 127.623 99.9565C127.623 104.148 125.575 107.191 121.877 108.722L128.839 120.27H122.068V120.287ZM111.062 104.461H116.461C119.812 104.461 121.374 102.287 121.374 99.9739C121.374 97.5739 119.76 95.4348 116.461 95.4348H111.062V104.461ZM131.616 120.287V89.7652H137.657V120.27H131.616V120.287ZM165.675 117.104C164.026 118.983 160.415 120.896 156.457 120.896C147.708 120.896 140.66 114.235 140.66 105.035C140.66 95.8348 147.708 89.1739 156.457 89.1739C162.499 89.2261 167.55 92.3565 170.293 97.2435L164.113 98.8609C162.464 96.6 159.461 95.1565 156.457 95.1565C150.764 95.1565 146.979 99.2609 146.979 105.052C146.979 111.104 151.163 114.983 156.805 114.983C162.03 114.983 164.773 112.113 165.727 109.748V108.443H157.291V103.504H170.901V120.287H165.675C165.675 117.765 165.727 117.157 165.727 117.104H165.675ZM175.154 120.287V89.7652H181.195V120.27H175.154V120.287ZM212.39 89.7652V120.27H206.696L198.033 108.496C195.291 104.739 191.94 99.9565 191.905 99.9565H191.853C191.819 99.9565 191.905 104.357 191.905 110.409V120.252H185.864V89.7652H191.558L200.394 101.661C202.477 104.409 206.314 109.852 206.349 109.852H206.401C206.453 109.852 206.349 104.878 206.349 99.7478V89.7652H212.39ZM100.681 96.8609L95.7514 101.8C95.9424 102.774 96.0465 103.852 96.0465 105.017C96.0465 111.261 93.1128 115 88.2 115C86.1516 115 84.433 114.339 83.1311 113.087L100.213 95.9739C99.7614 95.1565 99.2407 94.4087 98.6504 93.713C98.4074 93.4174 98.147 93.1565 97.8866 92.8783C97.8519 92.8435 97.8172 92.8087 97.7825 92.7739C97.6957 92.7043 97.6262 92.6174 97.5394 92.5478C95.0397 90.2174 91.8629 89 88.2 89C83.9817 89 80.3709 90.6174 77.7844 93.6957C75.3367 96.6 74 100.617 74 105.017C74 107.939 74.5902 110.687 75.7012 113.052L80.666 108.078C80.4924 107.139 80.4056 106.113 80.4056 105C80.4056 102.13 80.9959 99.8 82.1416 98.0783C83.4956 96.0783 85.5961 95.0174 88.2 95.0174C90.2311 95.0174 91.9323 95.6609 93.2169 96.8609L76.1699 113.939C76.6386 114.791 77.1768 115.591 77.7844 116.304C77.9059 116.443 78.0274 116.583 78.1663 116.722C78.3051 116.878 78.4614 117.035 78.6176 117.191C78.635 117.209 78.6523 117.226 78.6697 117.243C78.7218 117.296 78.7565 117.348 78.8086 117.383C81.291 119.748 84.5025 121 88.2 121C92.4357 121 96.0465 119.383 98.6504 116.304C101.098 113.4 102.452 109.4 102.452 105C102.452 102.043 101.827 99.2435 100.681 96.8609Z" fill="#0074F0"/>
</svg>
