<svg width="20" height="13" viewBox="0 0 20 13" fill="none" xmlns="http://www.w3.org/2000/svg">
<path fill-rule="evenodd" clip-rule="evenodd" d="M19.2 1.625C19.2 1.00368 18.7224 0.5 18.1333 0.5H17.0667C16.4776 0.5 16 1.00368 16 1.625V11.375C16 11.9963 16.4776 12.5 17.0667 12.5H18.1333C18.7224 12.5 19.2 11.9963 19.2 11.375V1.625ZM11.7667 2.9H12.8333C13.4224 2.9 13.9 3.41577 13.9 4.052V11.348C13.9 11.9842 13.4224 12.5 12.8333 12.5H11.7667C11.1776 12.5 10.7 11.9842 10.7 11.348V4.052C10.7 3.41577 11.1776 2.9 11.7667 2.9ZM7.43333 5.5H6.36667C5.77756 5.5 5.3 6.02233 5.3 6.66667V11.3333C5.3 11.9777 5.77756 12.5 6.36667 12.5H7.43333C8.02244 12.5 8.5 11.9777 8.5 11.3333V6.66667C8.5 6.02233 8.02244 5.5 7.43333 5.5ZM2.13333 7.9H1.06667C0.477563 7.9 0 8.41487 0 9.05V11.35C0 11.9851 0.477563 12.5 1.06667 12.5H2.13333C2.72244 12.5 3.2 11.9851 3.2 11.35V9.05C3.2 8.41487 2.72244 7.9 2.13333 7.9Z" fill="black"/>
</svg>
