<svg width="41" height="40" viewBox="0 0 41 40" fill="none" xmlns="http://www.w3.org/2000/svg">
<g clip-path="url(#clip0_176_852)">
<path d="M35.0662 23.8C34.7516 24.014 34.3843 24.1403 34.0031 24.1656C33.6219 24.1908 33.2408 24.1142 32.9 23.9436C32.1 23.4974 31.6688 22.4513 31.6688 21.0256V16.6564C31.6688 14.559 30.8273 13.0667 29.4195 12.6615C27.0403 11.9744 25.2636 14.8513 24.5779 15.9333L20.3701 22.6564V14.4513C20.3234 12.559 19.7 11.4256 18.5208 11.0872C17.7416 10.8615 16.5727 10.9538 15.4351 12.6667L6.02727 27.5744C4.77553 25.2102 4.12649 22.5804 4.13636 19.9128C4.13636 10.9282 11.4091 3.62051 20.3701 3.62051C29.3312 3.62051 36.6299 10.9282 36.6299 19.9128V19.959C36.6299 19.959 36.6299 19.9897 36.6299 20.0051C36.7182 21.7436 36.1468 23.1282 35.0714 23.8H35.0662ZM40.261 19.9179V19.8308C40.1883 8.88205 31.2948 0 20.3701 0C9.44545 0 0.5 8.93334 0.5 19.9128C0.5 30.8923 9.41429 39.8308 20.3701 39.8308C25.395 39.8305 30.2286 37.9292 33.8766 34.5179C34.2307 34.1886 34.4391 33.7348 34.4566 33.2548C34.4741 32.7749 34.2993 32.3075 33.9701 31.9538C33.8126 31.7818 33.6222 31.6423 33.4098 31.5432C33.1974 31.4441 32.9673 31.3874 32.7326 31.3765C32.498 31.3655 32.2635 31.4005 32.0426 31.4793C31.8217 31.5582 31.6187 31.6793 31.4455 31.8359C29.8749 33.3066 28.0194 34.4489 25.9905 35.1941C23.9616 35.9393 21.8011 36.2721 19.6386 36.1724C17.4762 36.0728 15.3564 35.5429 13.4066 34.6143C11.4568 33.6858 9.71721 32.378 8.29221 30.7692L16.7597 17.3333V23.5333C16.7597 26.5128 17.9286 27.4769 18.9104 27.759C19.8922 28.041 21.3935 27.8462 22.9675 25.3231L27.6429 17.8513C27.7883 17.6103 27.9286 17.4051 28.0532 17.2256V21.0256C28.0532 23.8103 29.1857 26.0359 31.1701 27.1333C32.0725 27.6142 33.0893 27.8465 34.1139 27.8059C35.1385 27.7653 36.1331 27.4533 36.9935 26.9026C39.1753 25.5026 40.3649 22.9692 40.2403 19.9179H40.261Z" fill="white"/>
</g>
<defs>
<clipPath id="clip0_176_852">
<rect width="40" height="40" fill="white" transform="translate(0.5)"/>
</clipPath>
</defs>
</svg>
