<svg width="41" height="40" viewBox="0 0 41 40" fill="none" xmlns="http://www.w3.org/2000/svg">
<g clip-path="url(#clip0_176_861)">
<path fill-rule="evenodd" clip-rule="evenodd" d="M27.4507 36.517C34.1456 33.7299 38.4714 27.2105 38.4499 19.9842C38.4047 10.1349 30.3511 2.19225 20.4081 2.21264C13.1619 2.25922 6.62316 6.626 3.88701 13.3C1.14674 19.9841 2.71039 27.6558 7.87047 32.7386C13.0309 37.8218 20.7486 39.3071 27.4507 36.517ZM20.3996 0.225151C12.3493 0.275151 5.07885 5.12516 2.03482 12.5502C-1.0092 19.9752 0.726648 28.5002 6.4625 34.1502C12.1983 39.8002 20.777 41.4501 28.2235 38.3501C35.67 35.2501 40.4751 28.0002 40.4499 19.9751C40.3996 9.02515 31.4436 0.200151 20.3996 0.225151Z" fill="white"/>
<path d="M20.5762 10.2749C21.507 10.3499 24.8781 11.4249 25.7334 12.0249C25.0038 9.94991 22.5888 9.67491 20.5762 10.2749Z" fill="white"/>
<path fill-rule="evenodd" clip-rule="evenodd" d="M25.9838 12.1231C27.3059 12.6398 28.6043 13.1473 29.8583 13.4999C39.4432 16.0999 34.764 22.2499 28.2482 25.5499C20.2231 29.6249 23.7702 38.0999 23.7702 38.0999C13.3803 40.2999 6.18534 32.0999 5.53125 30.6999C7.26966 27.5142 7.36568 24.3388 7.45374 21.4263C7.60272 16.4993 7.72895 12.3246 15.7451 10.1249C17.3048 9.74993 18.9401 9.89993 20.5753 10.2749C22.0596 9.92493 23.7954 9.89993 24.7011 10.6999C25.33 11.2499 25.657 11.6749 25.7325 12.0249C25.8164 12.0577 25.9001 12.0904 25.9838 12.1231ZM30.135 19.6249C30.613 20.0999 31.4432 19.7499 31.4432 19.0749C31.4432 18.6499 31.091 18.3249 30.6633 18.2999C29.9841 18.3249 29.6571 19.1499 30.135 19.6249ZM19.242 18.8249C20.5753 18.2749 21.4558 16.9749 21.4558 15.5499C21.4558 14.5999 21.0784 13.6999 20.374 12.9999C19.7199 12.3499 18.8143 11.9749 17.8583 11.9749C16.4243 11.9749 15.1162 12.8499 14.5627 14.1749C14.0093 15.4999 14.3111 17.0249 15.3426 18.0499C16.374 19.0749 17.9086 19.3749 19.242 18.8249Z" fill="white"/>
<path d="M20.3991 15.5748C20.3991 16.5748 19.7954 17.4998 18.8394 17.8748C17.9086 18.2498 16.8268 18.0498 16.0972 17.3248C15.3677 16.5998 15.1664 15.5498 15.5438 14.5998C15.9211 13.6748 16.852 13.0498 17.8582 13.0498C19.2671 13.0748 20.3991 14.1998 20.3991 15.5748Z" fill="white"/>
<path d="M34.3364 20.6501C31.4433 22.6751 28.1477 24.2001 23.4936 24.2001C21.3049 24.2001 20.8772 21.9001 19.4181 23.0251C18.6634 23.6001 16.0471 24.9001 13.959 24.8251C11.871 24.7251 8.49989 23.5001 7.56907 19.1001C7.19171 23.5251 7.01561 26.7751 5.33008 30.5001C8.65083 35.8001 16.5754 39.8751 23.7703 38.1251C22.9905 32.7501 27.72 27.5001 30.3615 24.8251C31.393 23.7751 33.3301 22.1251 34.3364 20.6501Z" fill="white"/>
</g>
<defs>
<clipPath id="clip0_176_861">
<rect width="40" height="40" fill="white" transform="translate(0.5)"/>
</clipPath>
</defs>
</svg>
