<svg width="32" height="24" viewBox="0 0 32 24" fill="none" xmlns="http://www.w3.org/2000/svg">
<path d="M26.7848 2.02711C24.7585 1.09945 22.6195 0.441335 20.4222 0.0695801C20.1215 0.607084 19.8495 1.1601 19.6072 1.72632C17.2667 1.37363 14.8865 1.37363 12.546 1.72632C12.3036 1.16016 12.0315 0.607148 11.731 0.0695801C9.53229 0.444475 7.39181 1.10415 5.36354 2.03196C1.3369 7.98945 0.245341 13.799 0.79112 19.526C3.14922 21.2683 5.78861 22.5933 8.59455 23.4435C9.22637 22.5937 9.78545 21.6922 10.2659 20.7486C9.35339 20.4078 8.4727 19.9873 7.63398 19.492C7.85472 19.332 8.07061 19.167 8.27922 19.0069C10.7197 20.1546 13.3833 20.7497 16.0802 20.7497C18.7771 20.7497 21.4408 20.1546 23.8812 19.0069C24.0923 19.1791 24.3082 19.3441 24.5265 19.492C23.6861 19.9881 22.8038 20.4094 21.8897 20.751C22.3696 21.6942 22.9287 22.595 23.561 23.4435C26.3694 22.5967 29.0108 21.2723 31.3693 19.5284C32.0097 12.8869 30.2753 7.13075 26.7848 2.02711ZM10.9572 16.0039C9.43627 16.0039 8.17976 14.6237 8.17976 12.9257C8.17976 11.2277 9.39261 9.83539 10.9523 9.83539C12.512 9.83539 13.7588 11.2277 13.7322 12.9257C13.7055 14.6237 12.5072 16.0039 10.9572 16.0039ZM21.2033 16.0039C19.6799 16.0039 18.4283 14.6237 18.4283 12.9257C18.4283 11.2277 19.6411 9.83539 21.2033 9.83539C22.7654 9.83539 24.0025 11.2277 23.9758 12.9257C23.9492 14.6237 22.7533 16.0039 21.2033 16.0039Z" fill="#5865F2"/>
</svg>
