<svg width="400" height="238" viewBox="0 0 400 238" fill="none" xmlns="http://www.w3.org/2000/svg">
<path d="M0.43934 224.939C-0.146447 225.525 -0.146447 226.475 0.43934 227.061L9.98528 236.607C10.5711 237.192 11.5208 237.192 12.1066 236.607C12.6924 236.021 12.6924 235.071 12.1066 234.485L3.62132 226L12.1066 217.515C12.6924 216.929 12.6924 215.979 12.1066 215.393C11.5208 214.808 10.5711 214.808 9.98528 215.393L0.43934 224.939ZM286 224.5H1.5V227.5H286V224.5ZM284.5 3.5H286V0.5H284.5V3.5ZM396.5 114C396.5 175.027 347.027 224.5 286 224.5V227.5C348.684 227.5 399.5 176.684 399.5 114H396.5ZM399.5 114C399.5 51.3157 348.684 0.5 286 0.5V3.5C347.027 3.5 396.5 52.9725 396.5 114H399.5Z" fill="url(#paint0_linear_625_4671)"/>
<defs>
<linearGradient id="paint0_linear_625_4671" x1="103.5" y1="262.5" x2="299.5" y2="-123.5" gradientUnits="userSpaceOnUse">
<stop stop-color="#0074F0"/>
<stop offset="1" stop-color="#0074F0" stop-opacity="0"/>
</linearGradient>
</defs>
</svg>
