<svg width="399" height="238" viewBox="0 0 399 238" fill="none" xmlns="http://www.w3.org/2000/svg">
<path d="M116.561 227.061C117.146 226.475 117.146 225.525 116.561 224.939L107.015 215.393C106.429 214.808 105.479 214.808 104.893 215.393C104.308 215.979 104.308 216.929 104.893 217.515L113.379 226L104.893 234.485C104.308 235.071 104.308 236.021 104.893 236.607C105.479 237.192 106.429 237.192 107.015 236.607L116.561 227.061ZM114 3.5H398.5V0.5H114V3.5ZM115.5 224.5H114V227.5H115.5V224.5ZM3.5 114C3.5 52.9725 52.9725 3.5 114 3.5V0.5C51.3157 0.5 0.5 51.3157 0.5 114H3.5ZM0.5 114C0.5 176.684 51.3157 227.5 114 227.5V224.5C52.9725 224.5 3.5 175.027 3.5 114H0.5Z" fill="url(#paint0_linear_625_4672)"/>
<defs>
<linearGradient id="paint0_linear_625_4672" x1="54.4791" y1="226" x2="423.306" y2="226" gradientUnits="userSpaceOnUse">
<stop stop-color="#0074F0"/>
<stop offset="1" stop-color="#0074F0" stop-opacity="0"/>
</linearGradient>
</defs>
</svg>
