<svg width="16" height="16" viewBox="0 0 16 16" fill="none" xmlns="http://www.w3.org/2000/svg">
<path d="M14.5293 0H6.24961C5.4185 0 4.77898 0.670768 4.77898 1.46917C4.77898 2.26756 5.45042 2.93833 6.24961 2.93833H10.9489L0.431479 13.4772C-0.143826 14.0519 -0.143826 14.9782 0.431479 15.5529C0.719137 15.8403 1.10292 16 1.48642 16C1.86991 16 2.2537 15.8403 2.54135 15.5529L13.0587 5.04599V9.74057C13.0587 10.5708 13.7302 11.2097 14.5294 11.2097C15.3605 11.2097 16 10.539 16 9.74057L15.9998 1.46917C15.9998 0.638889 15.3605 0.000227988 14.5294 0.000227988L14.5293 0Z" fill="url(#paint0_linear_493_4739)"/>
<defs>
<linearGradient id="paint0_linear_493_4739" x1="-4.63905" y1="8" x2="23.1953" y2="8" gradientUnits="userSpaceOnUse">
<stop stop-color="#FFFFFF"/>
<stop offset="1" stop-color="#FFFFFF"/>
</linearGradient>
</defs>
</svg>
