<svg width="12" height="12" viewBox="0 0 12 12" fill="none" xmlns="http://www.w3.org/2000/svg">
<path d="M10.8969 0H4.68721C4.06388 0 3.58423 0.503076 3.58423 1.10187C3.58423 1.70067 4.08781 2.20375 4.68721 2.20375H8.21165L0.323609 10.1079C-0.10787 10.5389 -0.10787 11.2336 0.323609 11.6647C0.539353 11.8802 0.827187 12 1.11481 12C1.40244 12 1.69027 11.8802 1.90601 11.6647L9.79405 3.78449V7.30543C9.79405 7.92814 10.2976 8.4073 10.897 8.4073C11.5204 8.4073 12 7.90423 12 7.30543L11.9998 1.10187C11.9998 0.479167 11.5204 0.000170991 10.897 0.000170991L10.8969 0Z" fill="#FAFBFB"/>
</svg>
