<svg width="14" height="16" viewBox="0 0 14 16" fill="none" xmlns="http://www.w3.org/2000/svg">
<path d="M2.4084 7.11124H7.37279C7.53954 7.11046 7.69903 7.0435 7.81655 6.92519C7.93396 6.80688 7.99981 6.64684 7.99936 6.48009V2.40458C7.99959 2.23828 7.93362 2.0788 7.8161 1.96125C7.69857 1.84371 7.53897 1.77776 7.37277 1.77799H2.40838C2.24175 1.77754 2.08168 1.84328 1.9634 1.9608C1.84509 2.07822 1.77812 2.23782 1.77734 2.40456V6.48007C1.77801 6.64727 1.84465 6.80742 1.96295 6.92563C2.08114 7.04393 2.24131 7.11057 2.4084 7.11124ZM2.66621 2.66686H7.1106V6.22237H2.66621V2.66686Z" fill="url(#paint0_linear_174_8319)"/>
<path d="M12.2352 2.88904C12.0046 2.88725 11.7768 2.94038 11.5706 3.04373V0.443099C11.5692 0.285284 11.4841 0.140093 11.3472 0.0616051C11.2104 -0.0168566 11.042 -0.0168566 10.9052 0.0616051C10.7683 0.140067 10.6832 0.28527 10.6818 0.443099V4.41576C10.6815 4.42558 10.6796 4.43484 10.6796 4.44467C10.6809 4.85685 10.8452 5.25171 11.1366 5.54323C11.428 5.83464 11.823 5.99893 12.2351 6.00016C12.4665 6.00194 12.6951 5.94859 12.9018 5.84457V14.4442C12.9013 14.6209 12.8309 14.7902 12.706 14.9151C12.581 15.04 12.4118 15.1104 12.2351 15.1109H9.77749V0.880049C9.77693 0.646784 9.68407 0.423353 9.51911 0.258378C9.35415 0.0934202 9.1307 0.000560919 8.89744 9.06722e-07H0.884405C0.650471 -0.000333929 0.426024 0.0920801 0.260163 0.257038C0.0943108 0.422107 0.000782975 0.646104 1.00291e-07 0.880052V15.1152C-0.000111531 15.3498 0.0929708 15.575 0.258823 15.7408C0.424787 15.9067 0.649803 15.9999 0.884408 15.9997H12.0929C12.1093 16.0006 12.1259 15.9992 12.1418 15.9953C12.1727 15.999 12.204 16.0004 12.2351 15.9997C12.6199 15.9993 12.9907 15.8564 13.2762 15.5987C13.5619 15.341 13.742 14.9868 13.7818 14.6042C13.7872 14.5748 13.7901 14.5451 13.7906 14.5152V4.44442C13.7902 4.03201 13.6261 3.6366 13.3346 3.34497C13.043 3.05333 12.6475 2.88939 12.2351 2.88893L12.2352 2.88904ZM8.80851 15.111L0.888618 15.1155L0.884153 0.889171L8.88833 0.880242L8.88844 15.1111L8.80851 15.111ZM12.2352 5.11137C12.0598 5.11003 11.8919 5.04016 11.7675 4.91661C11.6431 4.79317 11.5719 4.62586 11.5691 4.45063C11.5691 4.44795 11.5706 4.44583 11.5706 4.44315V4.42396C11.5763 4.24862 11.651 4.08266 11.7783 3.96212C11.9057 3.84158 12.0754 3.77606 12.2508 3.77997C12.4261 3.78388 12.5929 3.85676 12.7147 3.98288C12.8366 4.10889 12.9038 4.27797 12.9018 4.45343C12.8997 4.62877 12.8286 4.79618 12.7037 4.91941C12.5789 5.04263 12.4105 5.11159 12.2352 5.11137Z" fill="url(#paint1_linear_174_8319)"/>
<path d="M7.55747 7.99869H2.22421C2.0665 8.00025 1.9214 8.0853 1.84294 8.22213C1.76459 8.35908 1.76459 8.52717 1.84294 8.66411C1.9214 8.80095 2.0665 8.88599 2.22421 8.88755H7.55747C7.71517 8.88599 7.86028 8.80095 7.93874 8.66411C8.01709 8.52717 8.01709 8.35908 7.93874 8.22213C7.86027 8.0853 7.71518 8.00025 7.55747 7.99869Z" fill="url(#paint2_linear_174_8319)"/>
<defs>
<linearGradient id="paint0_linear_174_8319" x1="-0.0266741" y1="4.44461" x2="10.7974" y2="4.44461" gradientUnits="userSpaceOnUse">
<stop stop-color="#8C66FC"/>
<stop offset="1" stop-color="#0274F1"/>
</linearGradient>
<linearGradient id="paint1_linear_174_8319" x1="-3.99847" y1="8" x2="19.9923" y2="8" gradientUnits="userSpaceOnUse">
<stop stop-color="#8C66FC"/>
<stop offset="1" stop-color="#0274F1"/>
</linearGradient>
<linearGradient id="paint2_linear_174_8319" x1="-0.0173149" y1="8.44312" x2="10.7917" y2="8.44312" gradientUnits="userSpaceOnUse">
<stop stop-color="#8C66FC"/>
<stop offset="1" stop-color="#0274F1"/>
</linearGradient>
</defs>
</svg>
