<svg width="176" height="40" viewBox="0 0 176 40" fill="none" xmlns="http://www.w3.org/2000/svg">
<g clip-path="url(#clip0_1_976)">
<mask id="mask0_1_976" style="mask-type:alpha" maskUnits="userSpaceOnUse" x="0" y="0" width="176" height="40">
<path d="M0 0H176V40H0V0Z" fill="white"/>
</mask>
<g mask="url(#mask0_1_976)">
<path fill-rule="evenodd" clip-rule="evenodd" d="M145.705 11.8876H150.704V6.92578H145.705V11.8876ZM119.138 20.1506C120.093 17.6365 122.539 15.8465 125.407 15.8465C128.274 15.8465 130.72 17.6365 131.675 20.1506H119.138ZM125.407 11.2332C119.142 11.2332 114.061 16.2759 114.061 22.4966C114.061 28.7173 119.142 33.7592 125.407 33.7592C129.706 33.7592 133.446 31.3862 135.372 27.8883L131.179 25.8692C130.014 27.8298 127.866 29.146 125.407 29.146C122.3 29.146 119.688 27.0464 118.93 24.1987H131.883C131.882 24.2008 131.882 24.2037 131.881 24.2062H136.625C136.711 23.6485 136.755 23.0775 136.755 22.4966C136.755 16.2759 131.674 11.2332 125.407 11.2332ZM138.072 33.1588H143.071V28.197H138.072V33.1588ZM145.705 33.1588H150.704V14.0689H145.705V33.1588ZM164.655 29.146C160.955 29.146 157.956 26.1688 157.956 22.4966C157.956 18.8236 160.955 15.8465 164.655 15.8465C168.354 15.8465 171.353 18.8236 171.353 22.4966C171.353 26.1688 168.354 29.146 164.655 29.146ZM164.652 11.2332C158.387 11.2332 153.307 16.2759 153.307 22.4966C153.307 28.7173 158.387 33.7592 164.652 33.7592C170.92 33.7592 176.001 28.7173 176.001 22.4966C176.001 16.2759 170.92 11.2332 164.652 11.2332ZM60.1491 18.3448V23.4751H67.1379C66.773 24.941 66.0515 26.2547 65.017 27.3041C63.4567 28.8871 61.2931 29.7592 58.9244 29.7592C54.0092 29.7592 50.0099 25.7896 50.0099 20.9099C50.0099 16.0303 54.0092 12.0602 58.9244 12.0602C61.5573 12.0602 63.9775 13.1789 65.6553 15.1083L69.6567 11.8627C67.0037 8.77639 63.0675 6.92952 58.9244 6.92952C51.1593 6.92952 44.8418 13.2013 44.8418 20.9099C44.8418 28.6186 51.1593 34.8899 58.9244 34.8899C62.6947 34.8899 66.1703 33.5414 68.7112 30.9638C70.8434 28.8003 72.2566 25.7825 72.5283 22.7593C72.6608 21.2846 72.673 19.8199 72.5948 18.3448H60.1491ZM85.6081 29.1472C81.9085 29.1472 78.909 26.1692 78.909 22.4966C78.909 18.8232 81.9085 15.8461 85.6081 15.8461C89.3082 15.8461 92.3077 18.8232 92.3077 22.4966C92.3077 26.1692 89.3082 29.1472 85.6081 29.1472ZM92.3085 13.4282C90.4305 12.0614 88.1148 11.2523 85.6081 11.2523C79.3428 11.2523 74.2638 16.2946 74.2638 22.5141C74.2638 28.7344 79.3428 33.7758 85.6081 33.7758C88.1148 33.7758 90.4305 32.9671 92.3085 31.6003V33.1588H96.9529V11.8697H92.3085V13.4282ZM106.923 6.9262H102.278V11.8876H99.4942V16.239H102.278V27.6265C102.278 28.8024 102.427 29.7916 102.722 30.568C103.013 31.336 103.458 31.9372 103.986 32.4069C104.522 32.8837 105.151 33.2551 105.896 33.4659C106.654 33.6775 107.489 33.7592 108.372 33.7592C109.287 33.7592 110.102 33.665 110.797 33.4787C111.443 33.3065 112.062 33.063 112.638 32.7534V29.2472C111.722 29.6406 110.865 29.7829 109.888 29.8281C108.856 29.8763 108.246 29.5837 107.738 29.1032C107.206 28.5999 106.923 27.9439 106.923 26.8435V16.239H112.638V11.8876H106.923V6.9262Z" fill="white"/>
<path fill-rule="evenodd" clip-rule="evenodd" d="M20.1476 30.9997C14.0278 30.9997 9.06666 26.0753 9.06666 19.9998C9.06666 13.9247 14.0278 8.99946 20.1476 8.99946V-0.000488281C9.02026 -0.000488281 0 8.95381 0 19.9998C0 31.0454 9.02026 39.9997 20.1476 39.9997C31.2746 39.9997 40.2953 31.0454 40.2953 19.9998H31.2286C31.2286 26.0753 26.2674 30.9997 20.1476 30.9997Z" fill="#2354E6"/>
<path fill-rule="evenodd" clip-rule="evenodd" d="M20.1484 19.9999H31.2294V9H20.1484V19.9999Z" fill="#17E6A1"/>
</g>
</g>
<defs>
<clipPath id="clip0_1_976">
<rect width="176" height="40" fill="white"/>
</clipPath>
</defs>
</svg>
