<svg width="139" height="40" viewBox="0 0 139 40" fill="none" xmlns="http://www.w3.org/2000/svg">
<g clip-path="url(#clip0_1_978)">
<path d="M20.048 12.9999C19.5487 18.6588 13.9154 23.7788 12.011 27.0125C10.1849 30.1132 9.54883 33.044 10.8846 38.7046C10.9555 39.0051 10.6558 39.2677 10.3761 39.1389C7.9896 38.0398 1.91602 34.7431 1.91602 26.8835C1.91601 15.7972 14.1384 15.4012 13.564 0.396569C13.5525 0.0949519 13.8814 -0.11004 14.1273 0.0637257C18.1259 2.88843 20.5239 7.60612 20.048 12.9999Z" fill="#0CA28B"/>
<path d="M12.0743 39.587C11.931 39.543 11.831 39.4119 11.8253 39.2616C11.6862 35.5839 13.6584 33.1805 15.8697 31.3975C20.7781 27.4396 23.8046 22.0947 22.6068 15.9104C22.5353 15.5415 22.9662 15.298 23.2069 15.5859C24.3615 16.967 25.5377 18.8387 26.1886 20.2031C29.3281 26.9701 27.6527 34.725 20.1401 38.6382C17.7881 39.8099 14.9952 40.4824 12.0743 39.587Z" fill="#3BBEAA"/>
<path fill-rule="evenodd" clip-rule="evenodd" d="M52.1715 10.0586V21.7435H40.9915V11.562C40.9915 10.7316 40.3388 10.0586 39.5331 10.0586H35.7598V37.9045C35.7598 38.7346 36.413 39.408 37.2181 39.408H40.9915V26.4568H52.1715V37.9045C52.1715 38.7346 52.8242 39.408 53.6298 39.408H57.4032V11.562C57.4032 10.7316 56.75 10.0586 55.9444 10.0586H52.1715Z" fill="#F0F1F4"/>
<path fill-rule="evenodd" clip-rule="evenodd" d="M74.5638 16.9687V30.8924C74.5638 32.1576 73.9255 33.357 72.8429 33.9896C69.8198 35.7564 66.6921 33.5498 66.6921 30.6398V18.4735C66.6921 17.642 66.0261 16.9683 65.204 16.9683H61.3384H61.3379V31.1366C61.3379 35.6949 65.0256 39.4244 69.532 39.4244H71.7233C76.2301 39.4244 79.9173 35.6949 79.9173 31.1363V18.4735C79.9173 17.642 79.2512 16.9683 78.4297 16.9683H74.5638V16.9687Z" fill="#F0F1F4"/>
<path fill-rule="evenodd" clip-rule="evenodd" d="M133.963 39.4073H137.747V19.6596C137.747 18.8269 137.092 18.1521 136.284 18.1521H132.5V37.8995C132.5 38.7323 133.155 39.4073 133.963 39.4073Z" fill="#F0F1F4"/>
<path fill-rule="evenodd" clip-rule="evenodd" d="M135.155 15.9152C136.767 15.9152 138.074 14.6043 138.074 12.9869C138.074 11.3695 136.767 10.0586 135.155 10.0586C133.543 10.0586 132.236 11.3695 132.236 12.9869C132.236 14.6043 133.543 15.9152 135.155 15.9152Z" fill="#F0F1F4"/>
<path fill-rule="evenodd" clip-rule="evenodd" d="M98.7134 30.097C98.7134 32.7723 96.5638 34.5532 93.9365 34.5532C91.3089 34.5532 89.1594 32.7723 89.1594 30.097V26.2793C89.1594 23.6041 91.3089 21.823 93.9365 21.823C96.5638 21.823 98.7134 23.6041 98.7134 26.2793V30.097ZM93.9365 16.9683C88.3815 16.9683 83.8359 21.0144 83.8359 26.6704V29.7296C83.8359 35.386 88.3815 39.408 93.9365 39.408C99.4917 39.408 104.037 35.386 104.037 29.7296V26.6704C104.037 21.0144 99.4917 16.9683 93.9365 16.9683Z" fill="#F0F1F4"/>
<path fill-rule="evenodd" clip-rule="evenodd" d="M122.941 30.1032C122.941 32.7766 120.777 34.5565 118.133 34.5565C115.488 34.5565 113.325 32.7766 113.325 30.1032V26.288C113.325 23.6146 115.488 21.8349 118.133 21.8349C120.777 21.8349 122.941 23.6146 122.941 26.288V30.1032ZM118.133 16.9834C116.385 16.9834 114.737 17.3781 113.297 18.0938V11.5603C113.297 10.731 112.632 10.0586 111.811 10.0586H107.967V29.736C107.967 35.3886 112.541 39.408 118.133 39.408C123.724 39.408 128.298 35.3886 128.298 29.736V26.6789C128.298 21.0268 123.724 16.9834 118.133 16.9834Z" fill="#F0F1F4"/>
</g>
<defs>
<clipPath id="clip0_1_978">
<rect width="138" height="40" fill="white" transform="translate(0.996094)"/>
</clipPath>
</defs>
</svg>
