<svg width="25" height="24" viewBox="0 0 25 24" fill="none" xmlns="http://www.w3.org/2000/svg">
<g opacity="0.7">
<path d="M12.5078 0C9.32508 0 6.27279 1.26451 4.02269 3.51488C1.77232 5.76525 0.507812 8.81754 0.507812 12C0.507812 15.1825 1.77232 18.235 4.02269 20.4851C6.27306 22.7355 9.32536 24 12.5078 24C15.6903 24 18.7428 22.7355 20.9929 20.4851C23.2433 18.2347 24.5078 15.1825 24.5078 12C24.5078 8.81754 23.2433 5.76497 20.9929 3.51488C18.7426 1.26451 15.6903 0 12.5078 0ZM12.5078 21.6777C9.94126 21.6777 7.47978 20.6581 5.66469 18.8433C3.84988 17.0282 2.83028 14.5667 2.83028 12.0001C2.83028 9.43359 3.84988 6.97211 5.66469 5.15702C7.47978 3.3422 9.94126 2.32261 12.5078 2.32261C15.0744 2.32261 17.5358 3.3422 19.3509 5.15702C21.1657 6.97211 22.1853 9.43359 22.1853 12.0001C22.1853 14.5667 21.1657 17.0282 19.3509 18.8433C17.5358 20.6581 15.0744 21.6777 12.5078 21.6777Z" fill="#B5BECA"/>
<path d="M11.3457 11.613H13.6684V17.8068H11.3457V11.613Z" fill="#B5BECA"/>
<path d="M13.6684 7.35498C13.6684 7.99627 13.1484 8.51635 12.5071 8.51635C11.8658 8.51635 11.3457 7.99629 11.3457 7.35498C11.3457 6.71368 11.8658 6.1936 12.5071 6.1936C13.1484 6.1936 13.6684 6.71366 13.6684 7.35498Z" fill="#B5BECA"/>
</g>
</svg>
