<svg width="16" height="16" viewBox="0 0 16 16" fill="none" xmlns="http://www.w3.org/2000/svg">
<path d="M8 0C5.87818 0 3.84332 0.843005 2.34325 2.34325C0.843005 3.8435 0 5.87836 0 8C0 10.1216 0.843005 12.1567 2.34325 13.6567C3.8435 15.157 5.87836 16 8 16C10.1216 16 12.1567 15.157 13.6567 13.6567C15.157 12.1565 16 10.1216 16 8C16 5.87836 15.157 3.84332 13.6567 2.34325C12.1565 0.843005 10.1216 0 8 0V0ZM8 14.4518C6.28897 14.4518 4.64798 13.772 3.43792 12.5622C2.22804 11.3521 1.54831 9.71113 1.54831 8.00009C1.54831 6.28906 2.22804 4.64807 3.43792 3.43801C4.64798 2.22814 6.28897 1.5484 8 1.5484C9.71103 1.5484 11.352 2.22814 12.5621 3.43801C13.772 4.64807 14.4517 6.28906 14.4517 8.00009C14.4517 9.71113 13.772 11.3521 12.5621 12.5622C11.352 13.772 9.71103 14.4518 8 14.4518Z" fill="#FAFBFB"/>
<path d="M7.22583 7.74194H8.77433V11.8711H7.22583V7.74194Z" fill="#FAFBFB"/>
<path d="M8.77408 4.9034C8.77408 5.33093 8.42738 5.67765 7.99983 5.67765C7.57229 5.67765 7.22559 5.33094 7.22559 4.9034C7.22559 4.47587 7.57229 4.12915 7.99983 4.12915C8.42738 4.12915 8.77408 4.47586 8.77408 4.9034Z" fill="#FAFBFB"/>
</svg>
