<svg width="171" height="40" viewBox="0 0 171 40" fill="none" xmlns="http://www.w3.org/2000/svg">
<path d="M133.842 20C133.842 18.9804 133.842 18.0392 133.803 17.1764C133.764 16.3137 133.686 15.4902 133.568 14.7451C133.45 14 133.215 13.2941 132.901 12.6274C132.588 11.9608 132.117 11.3333 131.529 10.7451C130.705 9.92154 129.803 9.29409 128.784 8.86272C127.764 8.43134 126.588 8.19604 125.254 8.19604C123.921 8.19604 122.744 8.43134 121.725 8.86272C120.705 9.29409 119.764 9.92154 118.941 10.7451C118.352 11.3333 117.921 11.9608 117.607 12.6274C117.293 13.2941 117.058 14 116.941 14.7451C116.823 15.4902 116.744 16.3137 116.705 17.1764C116.666 18.0392 116.666 18.9804 116.666 20C116.666 21.0196 116.666 21.9215 116.705 22.8235C116.744 23.6862 116.823 24.5098 116.941 25.2549C117.058 26 117.293 26.7058 117.607 27.3725C117.921 28.0392 118.392 28.6666 118.941 29.2549C119.764 30.0784 120.666 30.7058 121.725 31.1372C122.744 31.5686 123.921 31.8039 125.254 31.8039C126.588 31.8039 127.725 31.5686 128.784 31.1372C129.803 30.7058 130.744 30.0784 131.529 29.2549C132.117 28.6666 132.548 28.0392 132.901 27.3725C133.215 26.7058 133.45 26 133.568 25.2549C133.686 24.5098 133.803 23.6862 133.803 22.8235C133.842 21.9215 133.842 21.0196 133.842 20ZM129.333 20C129.333 21.098 129.333 22.0392 129.293 22.7843C129.254 23.5294 129.215 24.1176 129.097 24.5882C129.019 25.0588 128.901 25.451 128.744 25.7255C128.588 26.0392 128.431 26.3137 128.195 26.549C127.882 26.9411 127.45 27.2157 126.98 27.4509C126.47 27.6862 125.921 27.7647 125.293 27.8039C124.666 27.8039 124.117 27.6862 123.607 27.4509C123.097 27.2157 122.705 26.9411 122.352 26.549C122.117 26.3137 121.96 26.0392 121.803 25.7255C121.646 25.4117 121.529 25.0588 121.45 24.5882C121.372 24.1176 121.293 23.5294 121.293 22.7843C121.254 22.0392 121.254 21.1372 121.254 20C121.254 18.9019 121.254 17.9608 121.293 17.2157C121.333 16.4706 121.372 15.8823 121.45 15.4117C121.529 14.9411 121.646 14.549 121.803 14.2745C121.96 13.9608 122.117 13.6862 122.352 13.451C122.666 13.0588 123.097 12.7843 123.607 12.549C124.117 12.3137 124.666 12.2353 125.293 12.196C125.921 12.196 126.47 12.3137 126.98 12.549C127.45 12.7843 127.882 13.0588 128.195 13.451C128.431 13.6862 128.588 13.9608 128.744 14.2745C128.901 14.5882 129.019 14.9411 129.097 15.4117C129.176 15.8823 129.254 16.4706 129.293 17.2157C129.293 17.9608 129.333 18.9019 129.333 20Z" fill="#28CD96"/>
<path d="M169.999 8.78425C169.999 8.54895 169.803 8.39209 169.607 8.39209H165.881C165.646 8.39209 165.489 8.58817 165.489 8.78425V22.6274L156.352 8.50974C156.274 8.43131 156.234 8.39209 156.117 8.39209H152.627C152.43 8.39209 152.234 8.58817 152.234 8.78425C152.234 16.2744 152.234 23.7646 152.234 31.2156C152.234 31.4509 152.43 31.6078 152.627 31.6078H156.352C156.587 31.6078 156.744 31.4117 156.744 31.2156V17.3333L165.881 31.4901C165.96 31.5686 165.999 31.6078 166.117 31.6078H169.607C169.842 31.6078 169.999 31.4117 169.999 31.2156V8.78425Z" fill="#28CD96"/>
<path d="M144.902 8.78425C144.902 8.54895 144.706 8.39209 144.51 8.39209H140.785C140.549 8.39209 140.393 8.58817 140.393 8.78425V31.2156C140.393 31.4509 140.589 31.6078 140.785 31.6078H144.51C144.746 31.6078 144.902 31.4117 144.902 31.2156V8.78425Z" fill="#28CD96"/>
<path d="M100.157 20C100.157 18.9019 100.157 17.9608 100.196 17.2157C100.235 16.4706 100.274 15.8823 100.353 15.4117C100.706 13.4117 102.235 12.2353 104.196 12.2353C105.49 12.2353 106.627 12.7058 107.372 13.8039C107.686 14.2745 107.921 14.8235 108.078 15.4509C108.078 15.5294 108.117 15.5686 108.196 15.5686H112.588C112.666 15.5686 112.666 15.5294 112.666 15.4509C112.196 12.7451 110.745 10.2745 108.157 9.05879C106.98 8.50978 105.608 8.19604 104.117 8.19604C101.647 8.19604 99.5291 9.05879 97.8429 10.7451C96.8625 11.7255 96.235 12.9019 95.9605 14.2353C95.686 15.5294 95.5684 17.4509 95.5684 20C95.5684 22.549 95.686 24.4706 95.9605 25.7647C96.235 27.098 96.9017 28.2745 97.8429 29.2549C99.5291 30.9411 101.647 31.8039 104.117 31.8039C105.608 31.8039 106.941 31.5294 108.157 30.9411C110.706 29.7255 112.196 27.2941 112.666 24.549C112.666 24.4706 112.666 24.4313 112.588 24.4313H108.196C108.117 24.4313 108.078 24.4706 108.078 24.549C107.921 25.1764 107.686 25.7255 107.372 26.196C106.627 27.2549 105.49 27.7255 104.196 27.7647C102.235 27.7647 100.706 26.5882 100.353 24.5882C100.274 24.1176 100.196 23.5294 100.196 22.7843C100.157 22.0392 100.157 21.098 100.157 20Z" fill="#28CD96"/>
<path d="M53.6465 8.7844C53.6465 8.5491 53.4504 8.39224 53.2544 8.39224H49.5289C49.2936 8.39224 49.1367 8.58832 49.1367 8.7844V31.2158C49.1367 31.4511 49.3328 31.6079 49.5289 31.6079H53.2544C53.4897 31.6079 53.6465 31.4119 53.6465 31.2158V24.6275L56.6661 21.0197L62.823 31.4903C62.8622 31.5687 62.9406 31.6079 63.0583 31.6079H67.6073C67.8034 31.6079 67.8426 31.4903 67.7642 31.2942L59.6857 17.6079L67.0975 8.70597C67.2544 8.50989 67.1759 8.35303 66.9406 8.35303H61.9603C61.8818 8.35303 61.8426 8.35303 61.8034 8.43146L53.6465 18.1962V8.7844Z" fill="#28CD96"/>
<path d="M80.9024 27.7646C78.7847 27.7646 76.9024 25.8039 76.9024 23.4901V8.78425C76.9024 8.54895 76.7063 8.39209 76.5102 8.39209H72.7847C72.5494 8.39209 72.3926 8.58817 72.3926 8.78425V23.4509C72.3926 28.5882 76.2357 31.8431 80.9416 31.8431C85.6475 31.8431 89.4906 28.5882 89.4906 23.4509V8.78425C89.4906 8.54895 89.2945 8.39209 89.0985 8.39209H85.373C85.1377 8.39209 84.9808 8.58817 84.9808 8.78425V23.4901C84.9024 25.8039 82.9808 27.7646 80.9024 27.7646Z" fill="#28CD96"/>
<path d="M11.4896 20L23.0974 31.6079L30.4308 24.2746C31.7249 22.9804 33.8425 22.9804 35.1366 24.2746C36.4308 25.5687 36.4308 27.6863 35.1366 28.9804L25.4504 38.6667C24.1563 39.9608 22.0386 39.9608 20.7445 38.6667L6.82292 24.7059V33.0197C6.82292 34.8236 5.33272 36.353 3.48958 36.353C1.64645 36.353 0.15625 34.8628 0.15625 33.0197V7.05887C0.15625 5.21574 1.64645 3.72554 3.48958 3.72554C5.33272 3.72554 6.82292 5.21574 6.82292 7.05887V15.2942L20.7837 1.33338C22.0778 0.0392635 24.1955 0.0392635 25.4896 1.33338L35.1759 11.0197C36.47 12.3138 36.47 14.4314 35.1759 15.7255C33.8817 17.0197 31.7641 17.0197 30.47 15.7255L23.1366 8.39221L11.4896 20ZM23.1366 16.6667C21.2935 16.6667 19.8033 18.1569 19.8033 20C19.8033 21.8432 21.2935 23.3334 23.1366 23.3334C24.9798 23.3334 26.47 21.8432 26.47 20C26.4308 18.1569 24.9406 16.6667 23.1366 16.6667Z" fill="#28CD96"/>
</svg>
