<svg width="12" height="12" viewBox="0 0 12 12" fill="none" xmlns="http://www.w3.org/2000/svg">
<path d="M8.81684 0H3.18316C1.42737 0 0 1.42739 0 3.18316V8.81684C0 10.5726 1.42739 12 3.18316 12H8.81684C10.5726 12 12 10.5726 12 8.81684L11.9999 3.18316C11.9999 1.42737 10.5725 0 8.81675 0H8.81684ZM10.8253 8.81684C10.8253 9.92844 9.91586 10.8379 8.80423 10.8379H3.18318C2.07158 10.8379 1.16208 9.92847 1.16208 8.81684V3.18316C1.16208 2.07156 2.07156 1.16206 3.18318 1.16206H8.81686C9.92847 1.16206 10.838 2.07153 10.838 3.18316L10.8379 8.81684H10.8253Z" fill="#B5BECA"/>
<path d="M8.51348 2.90527H5.2419C4.9135 2.90527 4.6608 3.17058 4.6608 3.48637C4.6608 3.80216 4.92611 4.06747 5.2419 4.06747H7.09874L2.94295 8.23589C2.71563 8.46321 2.71563 8.82957 2.94295 9.0569C3.05662 9.17056 3.20826 9.23374 3.3598 9.23374C3.51133 9.23374 3.66298 9.17056 3.77664 9.0569L7.93243 4.90111V6.75795C7.93243 7.08635 8.19774 7.33905 8.51352 7.33905C8.84192 7.33905 9.09462 7.07374 9.09462 6.75795L9.09453 3.48637C9.09453 3.15797 8.84193 2.90536 8.51353 2.90536L8.51348 2.90527Z" fill="#B5BECA"/>
</svg>
