<svg width="763" height="382" viewBox="0 0 763 382" fill="none" xmlns="http://www.w3.org/2000/svg">
<g clip-path="url(#clip0_2979_25486)">
<rect width="763" height="382" rx="16" fill="url(#paint0_linear_2979_25486)"/>
<g opacity="0.4">
<mask id="mask0_2979_25486" style="mask-type:luminance" maskUnits="userSpaceOnUse" x="311" y="191" width="277" height="277">
<path fill-rule="evenodd" clip-rule="evenodd" d="M311 191H588V468H311V191Z" fill="white"/>
</mask>
<g mask="url(#mask0_2979_25486)">
<path fill-rule="evenodd" clip-rule="evenodd" d="M449.036 191.001C525.527 190.745 587.743 252.545 587.999 329.036C588.255 405.527 526.455 467.743 449.964 467.999C373.473 468.255 311.257 406.455 311.001 329.964C310.745 253.473 372.545 191.257 449.036 191.001Z" fill="#030C17"/>
</g>
<path opacity="0.1" fill-rule="evenodd" clip-rule="evenodd" d="M536.061 415.483C583.543 367.661 583.304 290.419 535.483 242.937C487.661 195.455 410.419 195.693 362.937 243.515L536.061 415.483Z" fill="white"/>
<path fill-rule="evenodd" clip-rule="evenodd" d="M524.361 288.242L508.613 272.358L500.042 281.065C500.008 281.031 499.974 280.997 499.94 280.963L492.967 288.004L450.077 331.472L422.935 303.956C417.323 309.806 413.616 317.493 412.799 325.996L450.077 363.784L492.253 321.03C492.797 323.751 493.069 326.574 493.069 329.465C493.069 353.478 473.512 373.035 449.499 373.035C425.486 373.035 405.929 353.478 405.929 329.465C405.929 305.452 425.486 285.895 449.499 285.895C459.363 285.895 468.478 289.194 475.791 294.738L494.464 275.793C482.287 265.589 466.607 259.399 449.499 259.399C410.895 259.399 379.467 290.827 379.467 329.431C379.467 368.069 410.895 399.463 449.499 399.463C488.103 399.463 519.531 368.035 519.531 329.431C519.531 318.819 517.15 308.785 512.932 299.772L524.361 288.242Z" fill="white"/>
<mask id="mask1_2979_25486" style="mask-type:luminance" maskUnits="userSpaceOnUse" x="412" y="303" width="39" height="61">
<path fill-rule="evenodd" clip-rule="evenodd" d="M412.833 325.996L450.077 363.784H450.111V331.472L422.969 303.955C417.357 309.805 413.65 317.458 412.833 325.996Z" fill="white"/>
</mask>
<g mask="url(#mask1_2979_25486)">
<path fill-rule="evenodd" clip-rule="evenodd" d="M412.833 325.996L450.077 363.784H450.111V331.472L422.969 303.955C417.357 309.805 413.65 317.458 412.833 325.996Z" fill="url(#paint1_linear_2979_25486)"/>
</g>
</g>
<g opacity="0.4" filter="url(#filter0_d_2979_25486)">
<path d="M451.536 52.0375C451.792 128.273 389.975 190.282 313.464 190.538C236.953 190.793 174.721 129.199 174.464 52.9626C174.208 -23.2734 236.025 -85.2819 312.536 -85.5374C389.047 -85.7929 451.279 -24.1985 451.536 52.0375Z" fill="#030C17"/>
<path opacity="0.2" d="M399.639 138.254C447.16 90.5599 446.93 13.6304 399.064 -33.7197C351.197 -81.0697 273.99 -80.8404 226.469 -33.1464L399.639 138.254Z" fill="white"/>
<path d="M325.999 40.1142C324.618 39.8849 323.352 39.541 322.087 39.3117C305.057 35.8722 292.746 33.4646 292.746 21.6557C292.746 14.3182 299.995 8.47109 312.997 8.47109C324.618 8.47109 333.823 13.1717 339.806 21.9997L340.727 22.229L359.252 3.31188L359.137 2.62399C351.773 -6.08934 342.453 -12.1657 331.752 -15.3759C330.256 -15.8345 328.875 -16.1785 327.38 -16.5224H327.265C326.689 -16.637 326.229 -16.7517 325.654 -16.8663V-33.6051H300.34V-16.8663C299.534 -16.7517 298.729 -16.5224 297.924 -16.4077H297.808C285.842 -13.5415 275.371 -7.35048 267.202 2.16539C263.75 7.89784 262.024 14.7768 262.024 22.6876C262.024 49.7447 282.505 58.3434 302.526 63.1587C306.208 64.0759 309.89 64.7638 313.457 65.337C325.999 67.63 336.815 69.579 336.815 80.8146C336.815 87.8082 329.106 96.5215 312.997 96.5215C303.447 96.5215 295.622 93.3114 289.869 87.4643C289.524 87.1203 289.064 86.7764 288.718 86.4324L266.857 101.566V102.369C269.963 106.037 273.415 109.248 277.097 111.999C278.363 112.916 279.628 113.719 280.894 114.521C280.894 114.521 280.894 114.521 281.009 114.521C282.275 115.324 283.656 116.012 284.921 116.7C284.921 116.7 285.036 116.7 285.036 116.814C286.417 117.502 287.683 118.076 289.064 118.649C289.179 118.649 289.179 118.649 289.294 118.763C290.675 119.337 292.055 119.795 293.436 120.254C293.551 120.254 293.666 120.254 293.666 120.369C294.357 120.598 294.932 120.712 295.622 120.942C295.737 120.942 295.737 120.942 295.852 120.942C296.543 121.171 297.233 121.286 298.039 121.515C298.154 121.515 298.269 121.515 298.384 121.63C298.959 121.744 299.649 121.859 300.225 121.974V138.712H325.539V121.974C325.999 121.859 326.459 121.859 326.919 121.744C327.034 121.744 327.034 121.744 327.149 121.744C328.875 121.4 330.601 120.942 332.327 120.369C333.133 120.139 334.053 119.795 334.859 119.566C344.179 116.127 352.348 110.394 359.022 102.598C361.553 99.6171 363.739 96.5215 365.696 93.0821C366.731 89.4133 367.191 85.2859 367.191 80.9293C367.306 51.8084 345.214 43.8976 325.999 40.1142Z" fill="#FAFBFC"/>
<path d="M266.972 102.254C265.706 100.764 264.556 99.2732 263.52 97.6681C263.06 96.9802 262.6 96.2923 262.139 95.7191C262.024 95.6044 261.909 95.3752 261.794 95.2605C261.449 94.6873 260.989 93.9994 260.643 93.3115C260.528 93.0822 260.413 92.8529 260.298 92.6236C259.953 92.0503 259.608 91.3624 259.263 90.7892C259.148 90.5599 259.033 90.3306 258.918 90.1013C258.572 89.528 258.227 88.8402 257.997 88.1523C257.882 87.923 257.767 87.579 257.652 87.3497C257.307 86.6618 257.077 86.0886 256.731 85.4007C256.616 85.1714 256.501 84.9421 256.386 84.5981C256.156 83.9102 255.811 83.2224 255.581 82.5345C255.581 82.4198 255.466 82.1905 255.466 82.0759C254.89 80.4708 254.315 78.8657 253.855 77.2606C253.855 77.146 253.74 77.0313 253.74 76.802C253.625 76.2288 253.394 75.6555 253.279 75.0823C253.164 74.6237 253.049 74.1651 252.934 73.7065C252.819 73.1332 252.704 72.6746 252.589 72.1014C252.474 71.6428 252.359 71.0695 252.244 70.611C252.129 70.0377 252.014 69.5791 251.899 69.0059C251.784 68.4326 251.669 67.8594 251.553 67.2861C251.438 66.8275 251.438 66.2543 251.323 65.7957C251.208 65.2224 251.093 64.6492 251.093 63.9613C250.978 63.5027 250.978 63.0441 250.863 62.4709C250.748 61.783 250.748 61.2097 250.633 60.5218C250.633 60.0632 250.518 59.6046 250.518 59.146C250.518 58.3435 250.403 57.6556 250.403 56.8531C250.403 56.5091 250.403 56.1652 250.288 55.7066C250.288 54.5601 250.173 53.4136 250.173 52.2671C250.173 51.1206 250.173 50.0888 250.288 48.9423C250.288 48.5983 250.288 48.2544 250.288 47.9104C250.288 47.1079 250.403 46.42 250.403 45.6175C250.403 45.2735 250.518 44.8149 250.518 44.471C250.633 43.7831 250.633 42.9805 250.748 42.2926C250.748 41.9487 250.863 41.6047 250.863 41.2608C250.978 40.3436 251.093 39.5411 251.208 38.7385C251.208 38.5092 251.208 38.2799 251.323 38.1653C251.438 37.1334 251.669 36.1016 251.899 35.0697C252.014 34.7258 252.014 34.3818 252.129 34.1525C252.244 33.4647 252.474 32.7768 252.589 32.0889C252.704 31.7449 252.819 31.2863 252.819 30.9424C252.934 30.2545 253.164 29.6812 253.279 28.9933C253.394 28.6494 253.51 28.1908 253.625 27.8468C253.855 27.159 254.085 26.4711 254.2 25.7832C254.315 25.4392 254.43 25.2099 254.545 24.866C254.89 23.9488 255.235 23.0316 255.581 22.1144C255.696 21.7704 255.811 21.5412 255.926 21.1972C256.156 20.5093 256.386 19.9361 256.731 19.2482C256.846 18.9042 257.077 18.5603 257.192 18.1017C257.422 17.5284 257.652 17.0698 257.997 16.4966C258.227 16.1526 258.342 15.694 258.572 15.3501C258.802 14.7769 259.148 14.3183 259.378 13.745C259.608 13.4011 259.723 13.0571 259.953 12.7132C260.413 11.9106 260.874 11.1081 261.334 10.3055C260.298 14.089 259.838 18.2163 259.838 22.573C259.838 37.4774 266.166 48.8276 278.708 56.5091C279.399 69.9231 283.311 80.4708 289.984 87.2351L266.972 102.254Z" fill="url(#paint2_linear_2979_25486)"/>
<path d="M339.922 21.9997C343.834 27.8468 346.365 35.1843 347.286 44.0123C350.508 45.5027 353.269 47.2225 355.801 49.1715C365.121 56.3944 369.838 66.9421 369.838 80.356C369.838 81.9611 369.723 83.5662 369.608 85.1713V85.0566C370.068 84.0248 370.529 82.8783 370.874 81.7318C370.989 81.3879 371.104 81.1586 371.219 80.8146C371.449 80.0121 371.794 79.2095 372.024 78.407C372.14 78.063 372.255 77.6045 372.37 77.2605C372.485 76.8019 372.715 76.2287 372.83 75.7701C373.06 75.0822 373.175 74.5089 373.405 73.821C373.52 73.3624 373.635 72.7892 373.75 72.3306C373.865 71.7573 373.981 71.1841 374.096 70.6109C374.211 70.2669 374.211 69.8083 374.326 69.4644C374.441 68.6618 374.671 67.7446 374.786 66.9421C374.786 66.5981 374.901 66.2542 374.901 65.9102C375.016 64.9931 375.131 64.0759 375.246 63.1587C375.246 62.9294 375.246 62.8147 375.361 62.5854C375.476 61.6682 375.591 60.8657 375.591 59.9485C375.591 59.7192 375.591 59.4899 375.706 59.2606C375.822 58.2288 375.822 57.1969 375.937 56.1651C375.937 55.9358 375.937 55.7065 375.937 55.4772C375.937 54.4453 376.052 53.2989 376.052 52.267C376.052 51.1205 376.052 49.974 375.937 48.7129C375.937 48.3689 375.937 48.025 375.822 47.5664C375.822 46.7639 375.706 45.9613 375.706 45.2734C375.706 44.8148 375.591 44.3562 375.591 43.8976C375.476 43.2097 375.476 42.5218 375.361 41.834C375.361 41.3754 375.246 40.9168 375.131 40.3435C375.016 39.6556 375.016 39.0824 374.901 38.3945C374.786 37.9359 374.786 37.3626 374.671 36.904C374.556 36.3308 374.441 35.6429 374.326 35.0697C374.211 34.6111 374.096 34.0378 373.981 33.5792C373.865 33.006 373.75 32.4327 373.635 31.8595C373.52 31.4009 373.405 30.8276 373.29 30.369C373.175 29.7958 372.945 29.2226 372.83 28.6493C372.715 28.1907 372.6 27.6175 372.37 27.1589C372.255 26.5856 372.024 26.127 371.909 25.5538C371.794 25.0952 371.564 24.5219 371.449 24.0633C371.219 23.4901 371.104 23.0315 370.874 22.5729C370.644 22.1143 370.529 21.5411 370.298 21.0825C370.068 20.6239 369.953 20.0506 369.723 19.592C369.493 19.1334 369.263 18.5602 369.148 18.1016C368.918 17.643 368.688 17.1844 368.457 16.7258C368.227 16.2672 367.997 15.8086 367.767 15.2354C367.537 14.7768 367.307 14.3182 367.077 13.8596C366.847 13.401 366.616 12.9424 366.271 12.4838C366.041 12.0252 365.811 11.5666 365.466 11.2227C365.236 10.7641 364.891 10.3055 364.66 9.84687C364.43 9.38827 364.085 9.04432 363.855 8.58573C363.05 7.32459 362.129 6.06345 361.209 4.80231C360.518 3.88512 359.828 3.08257 359.137 2.28003L339.922 21.9997Z" fill="url(#paint3_linear_2979_25486)"/>
</g>
<path d="M647.117 341.465L642.565 333.652C642.461 333.652 642.396 333.652 642.304 333.652H638.835V341.465H634.296V318.574H642.304C647.926 318.574 651.291 321.613 651.291 326.217C651.291 329.361 649.752 331.643 646.974 332.791L652.204 341.452H647.117V341.465ZM638.848 329.596H642.904C645.422 329.596 646.596 327.965 646.596 326.23C646.596 324.43 645.383 322.826 642.904 322.826H638.848V329.596ZM654.291 341.465V318.574H658.83V341.452H654.291V341.465ZM679.883 339.078C678.643 340.487 675.93 341.922 672.957 341.922C666.383 341.922 661.087 336.926 661.087 330.026C661.087 323.126 666.383 318.13 672.957 318.13C677.496 318.17 681.291 320.517 683.352 324.183L678.709 325.396C677.47 323.7 675.213 322.617 672.957 322.617C668.678 322.617 665.835 325.696 665.835 330.039C665.835 334.578 668.978 337.487 673.217 337.487C677.143 337.487 679.204 335.335 679.922 333.561V332.583H673.583V328.878H683.809V341.465H679.883C679.883 339.574 679.922 339.117 679.922 339.078H679.883ZM687.004 341.465V318.574H691.543V341.452H687.004V341.465ZM714.983 318.574V341.452H710.704L704.196 332.622C702.135 329.804 699.617 326.217 699.591 326.217H699.552C699.526 326.217 699.591 329.517 699.591 334.057V341.439H695.052V318.574H699.33L705.97 327.496C707.535 329.557 710.417 333.639 710.443 333.639H710.483C710.522 333.639 710.443 329.909 710.443 326.061V318.574H714.983ZM631.048 323.896L627.343 327.6C627.487 328.33 627.565 329.139 627.565 330.013C627.565 334.696 625.361 337.5 621.67 337.5C620.13 337.5 618.839 337.004 617.861 336.065L630.696 323.23C630.357 322.617 629.965 322.057 629.522 321.535C629.339 321.313 629.143 321.117 628.948 320.909C628.922 320.883 628.896 320.857 628.87 320.83C628.804 320.778 628.752 320.713 628.687 320.661C626.809 318.913 624.422 318 621.67 318C618.5 318 615.787 319.213 613.843 321.522C612.004 323.7 611 326.713 611 330.013C611 332.204 611.443 334.265 612.278 336.039L616.009 332.309C615.878 331.604 615.813 330.835 615.813 330C615.813 327.848 616.257 326.1 617.117 324.809C618.135 323.309 619.713 322.513 621.67 322.513C623.196 322.513 624.474 322.996 625.439 323.896L612.63 336.704C612.983 337.343 613.387 337.943 613.843 338.478C613.935 338.583 614.026 338.687 614.13 338.791C614.235 338.909 614.352 339.026 614.47 339.143C614.483 339.157 614.496 339.17 614.509 339.183C614.548 339.222 614.574 339.261 614.613 339.287C616.478 341.061 618.891 342 621.67 342C624.852 342 627.565 340.787 629.522 338.478C631.361 336.3 632.378 333.3 632.378 330C632.378 327.783 631.909 325.683 631.048 323.896Z" fill="white"/>
<path d="M149.935 172.568C139.135 172.568 131.263 179.768 131.263 191.048C131.263 202.328 139.135 209.528 149.935 209.528C160.639 209.528 168.559 202.328 168.559 191.048C168.559 179.768 160.639 172.568 149.935 172.568ZM149.935 179.144C156.415 179.144 160.975 183.608 160.975 191.048C160.975 198.44 156.415 202.952 149.935 202.952C143.359 202.952 138.799 198.44 138.799 191.048C138.799 183.608 143.359 179.144 149.935 179.144ZM204.565 173.096H197.173V194.312C197.173 199.928 194.389 202.952 189.301 202.952C184.117 202.952 181.381 199.928 181.381 194.312V173.096H173.989V194.408C173.989 204.008 179.797 209.528 189.301 209.528C198.709 209.528 204.565 204.008 204.565 194.408V173.096ZM223.405 172.568C214.813 172.568 210.637 177.656 210.637 183.56C210.637 190.52 216.013 192.392 222.493 194.024C227.293 195.224 229.885 196.232 229.885 198.968C229.885 201.896 227.533 203.096 224.221 203.096C220.333 203.096 217.501 200.888 217.357 197.624L209.821 198.008C209.917 205.448 215.917 209.528 224.221 209.528C231.421 209.528 237.421 206.168 237.421 198.536C237.421 192.152 232.573 189.848 225.229 187.976C220.285 186.824 218.221 186.056 218.221 183.32C218.221 180.776 220.141 179 223.549 179C226.957 179 229.069 180.968 229.117 183.992L236.701 183.608C236.509 176.696 231.181 172.568 223.405 172.568ZM257.592 173.096H242.808V209H257.544C267.768 209 275.4 202.328 275.4 191.048C275.4 179.768 267.816 173.096 257.592 173.096ZM257.64 179.432C263.928 179.432 268.056 183.32 268.056 191.048C268.056 198.776 263.88 202.664 257.64 202.664H250.2V179.432H257.64ZM297.33 173.096H290.034L277.794 212.216H285.138L297.33 173.096ZM318.403 172.568C307.603 172.568 299.731 179.768 299.731 191.048C299.731 202.328 307.603 209.528 318.403 209.528C329.107 209.528 337.027 202.328 337.027 191.048C337.027 179.768 329.107 172.568 318.403 172.568ZM318.403 179.144C324.883 179.144 329.443 183.608 329.443 191.048C329.443 198.44 324.883 202.952 318.403 202.952C311.827 202.952 307.267 198.44 307.267 191.048C307.267 183.608 311.827 179.144 318.403 179.144ZM359.642 189.416V195.944H368.666C367.562 200.888 364.01 202.952 359.594 202.952C353.21 202.952 348.986 199.016 348.986 191.048C348.986 183.08 353.162 179.144 359.594 179.144C364.49 179.144 367.754 181.832 368.762 186.2L376.442 184.904C374.522 177.032 367.946 172.568 359.642 172.568C349.178 172.568 341.45 179.432 341.45 191.048C341.45 202.616 349.226 209.528 359.69 209.528C370.202 209.528 376.778 202.424 376.778 191.816V189.416H359.642ZM412.857 173.096H404.697L394.617 197.48L384.489 173.096H376.377L391.497 209H397.737L412.857 173.096ZM434.125 171.704H427.117V209H434.125V171.704ZM444.308 171.848C442.052 171.848 440.132 173.72 440.132 176.072C440.132 178.376 441.956 180.248 444.308 180.248C446.66 180.248 448.532 178.376 448.532 176.072C448.532 173.72 446.66 171.848 444.308 171.848ZM447.812 184.184H440.804V209H447.812V184.184ZM468.94 190.232V184.184H463.132L463.18 175.976H456.172L456.124 184.184H451.564V190.232H456.076L456.028 201.128C455.98 206.888 459.676 209.48 465.052 209.48C466.972 209.48 467.932 209.336 468.94 209.192V202.952C468.412 203.048 467.788 203.192 466.78 203.192C464.812 203.192 463.036 202.184 463.036 199.448L463.084 190.232H468.94ZM496.753 196.04C496.753 188.312 492.049 183.704 484.897 183.704C477.505 183.704 472.273 188.6 472.273 196.616C472.273 204.584 477.505 209.528 485.089 209.528C490.897 209.528 495.649 206.168 496.513 201.464L489.457 201.128C488.929 202.856 487.345 203.864 484.897 203.864C481.729 203.864 479.857 201.896 479.713 198.824H496.753V196.04ZM484.849 189.176C488.017 189.176 489.553 191.144 489.697 194.168H479.713C479.905 191 481.873 189.176 484.849 189.176ZM515.991 183.704C512.535 183.704 509.943 185.048 508.647 186.776V184.184H502.023V221.24H509.031V206.888C510.327 208.328 512.823 209.528 515.991 209.528C523.047 209.528 527.991 204.392 527.991 196.616C527.991 188.84 523.047 183.704 515.991 183.704ZM514.887 189.704C518.391 189.704 520.887 192.2 520.887 196.616C520.887 201.032 518.391 203.528 514.887 203.528C511.431 203.528 509.031 201.176 509.031 197.192V196.04C509.031 192.056 511.431 189.704 514.887 189.704ZM542.985 183.704C536.601 183.704 532.617 188.216 532.617 192.584L539.625 192.872C539.625 191.24 540.681 189.608 543.081 189.608C545.241 189.608 546.297 190.952 546.297 193.448V194.408L541.881 194.648C536.601 194.888 531.945 196.664 531.945 202.184C531.945 206.984 535.209 209.528 540.201 209.528C543.033 209.528 545.145 208.424 546.537 206.984V209H553.305V193.688C553.305 187.16 549.657 183.704 542.985 183.704ZM546.297 199.016V200.072C546.297 202.712 544.377 204.104 541.833 204.104C540.153 204.104 538.953 203.48 538.953 201.848C538.953 200.072 540.441 199.352 542.553 199.256L546.297 199.016ZM573.694 183.704C570.238 183.704 567.646 185.048 566.35 186.776V184.184H559.726V221.24H566.734V206.888C568.03 208.328 570.526 209.528 573.694 209.528C580.75 209.528 585.694 204.392 585.694 196.616C585.694 188.84 580.75 183.704 573.694 183.704ZM572.59 189.704C576.094 189.704 578.59 192.2 578.59 196.616C578.59 201.032 576.094 203.528 572.59 203.528C569.134 203.528 566.734 201.176 566.734 197.192V196.04C566.734 192.056 569.134 189.704 572.59 189.704ZM614.128 196.04C614.128 188.312 609.424 183.704 602.272 183.704C594.88 183.704 589.648 188.6 589.648 196.616C589.648 204.584 594.88 209.528 602.464 209.528C608.272 209.528 613.024 206.168 613.888 201.464L606.832 201.128C606.304 202.856 604.72 203.864 602.272 203.864C599.104 203.864 597.232 201.896 597.088 198.824H614.128V196.04ZM602.224 189.176C605.392 189.176 606.928 191.144 607.072 194.168H597.088C597.28 191 599.248 189.176 602.224 189.176ZM632.982 183.944C629.19 183.944 627.222 185.384 626.166 187.016V184.184H619.398V209H626.406V196.424C626.406 193.016 628.95 190.712 632.982 190.712V183.944Z" fill="white"/>
</g>
<defs>
<filter id="filter0_d_2979_25486" x="146" y="-110" width="334" height="333" filterUnits="userSpaceOnUse" color-interpolation-filters="sRGB">
<feFlood flood-opacity="0" result="BackgroundImageFix"/>
<feColorMatrix in="SourceAlpha" type="matrix" values="0 0 0 0 0 0 0 0 0 0 0 0 0 0 0 0 0 0 127 0" result="hardAlpha"/>
<feOffset dy="4"/>
<feGaussianBlur stdDeviation="14"/>
<feComposite in2="hardAlpha" operator="out"/>
<feColorMatrix type="matrix" values="0 0 0 0 0.0175205 0 0 0 0 0.000763889 0 0 0 0 0.0458333 0 0 0 0.1 0"/>
<feBlend mode="normal" in2="BackgroundImageFix" result="effect1_dropShadow_2979_25486"/>
<feBlend mode="normal" in="SourceGraphic" in2="effect1_dropShadow_2979_25486" result="shape"/>
</filter>
<linearGradient id="paint0_linear_2979_25486" x1="-100.825" y1="-66.0313" x2="763.459" y2="369.629" gradientUnits="userSpaceOnUse">
<stop stop-color="#7148AF"/>
<stop offset="1" stop-color="#131519"/>
</linearGradient>
<linearGradient id="paint1_linear_2979_25486" x1="394.171" y1="331.012" x2="433.213" y2="344.606" gradientUnits="userSpaceOnUse">
<stop stop-color="#1C313F"/>
<stop offset="1" stop-color="white"/>
</linearGradient>
<linearGradient id="paint2_linear_2979_25486" x1="290.201" y1="59.107" x2="236.35" y2="18.8703" gradientUnits="userSpaceOnUse">
<stop offset="0.00058093" stop-color="white"/>
<stop offset="1" stop-color="#1E313F"/>
</linearGradient>
<linearGradient id="paint3_linear_2979_25486" x1="337.294" y1="38.9441" x2="387.018" y2="77.8495" gradientUnits="userSpaceOnUse">
<stop offset="0.00058093" stop-color="white"/>
<stop offset="0.9967" stop-color="#4E5A64"/>
</linearGradient>
<clipPath id="clip0_2979_25486">
<rect width="763" height="382" rx="16" fill="white"/>
</clipPath>
</defs>
</svg>
