<svg width="24" height="24" viewBox="0 0 24 24" fill="none" xmlns="http://www.w3.org/2000/svg">
<g clip-path="url(#clip0_2986_10959)">
<mask id="mask0_2986_10959" style="mask-type:luminance" maskUnits="userSpaceOnUse" x="0" y="0" width="24" height="24">
<path d="M24 0H0V24H24V0Z" fill="white"/>
</mask>
<g mask="url(#mask0_2986_10959)">
<path d="M23.5193 15.4155C22.8979 17.559 21.6902 19.4863 20.0324 20.9804C18.3745 22.4745 16.3324 23.4759 14.136 23.8718V20.457C14.9458 20.1486 15.6746 19.6594 16.2668 19.0268C16.596 18.6739 16.8774 18.2792 17.1038 17.853C17.5344 17.0411 17.7573 16.1351 17.7525 15.216C17.7525 12.1965 15.573 10.9905 13.53 10.095L12.4958 9.6375C11.3895 9.141 10.5458 8.7 10.5458 7.94475C10.5532 7.72217 10.6052 7.50334 10.6987 7.30125C10.7923 7.09916 10.9255 6.91792 11.0905 6.76829C11.2554 6.61866 11.4487 6.50369 11.659 6.43021C11.8692 6.35672 12.092 6.32622 12.3143 6.3405C12.7371 6.32417 13.1547 6.4392 13.5095 6.6698C13.8643 6.90039 14.139 7.23521 14.2958 7.62825L14.7203 8.36475L17.454 6.6105L17.097 5.949C16.47 4.75353 15.4113 3.84173 14.136 3.399V0.265503C14.4023 0.311253 14.661 0.369003 14.9303 0.437253L15.0143 0.456753C15.044 0.462323 15.0733 0.469839 15.102 0.479253C15.111 0.480307 15.1199 0.482578 15.1283 0.486003C15.2033 0.505503 15.2745 0.522003 15.3488 0.544503C18.404 1.43351 20.981 3.49953 22.5132 6.28824C24.0454 9.07695 24.4073 12.36 23.5193 15.4155Z" fill="#745DDF"/>
<path d="M14.3962 15.3795C14.3701 15.99 14.1046 16.5656 13.6573 16.9819C13.21 17.3982 12.6168 17.6217 12.006 17.604C11.4182 17.584 10.858 17.3498 10.4309 16.9454C10.0037 16.5411 9.73918 15.9946 9.687 15.4087L9.55725 14.4907L6.24975 15.4237L6.39975 16.1632C6.58375 17.2477 7.08291 18.2541 7.83498 19.0569C8.58705 19.8596 9.55877 20.4232 10.629 20.6775V23.982C10.0421 23.9134 9.46105 23.8019 8.8905 23.6482C8.8095 23.6287 8.7315 23.6062 8.6505 23.5837C6.15714 22.8578 3.96634 21.3431 2.40667 19.2668C0.847011 17.1904 0.00256843 14.6644 0 12.0675L0 0.537734C0.000198345 0.412281 0.0501222 0.292023 0.138831 0.203314C0.227539 0.114606 0.347797 0.064682 0.47325 0.0644836H10.6275V3.36448C9.44041 3.70975 8.42939 4.49416 7.8 5.55823C7.39557 6.26602 7.18523 7.06806 7.19025 7.88323V7.94773C7.2225 10.6395 9.201 11.7652 11.0692 12.6112L12 13.0177L12.075 13.0537C13.5593 13.7295 14.3962 14.175 14.3962 15.3795Z" fill="#2EB6EA"/>
<path d="M17.7533 15.216C17.7581 16.1351 17.5352 17.041 17.1045 17.853C16.8782 18.2792 16.5967 18.6738 16.2675 19.0267C15.6753 19.6594 14.9466 20.1485 14.1368 20.457V23.8875L13.1775 23.9722C13.1775 23.9722 11.121 24.0337 10.6275 23.9722L10.6223 20.6775C9.55207 20.4233 8.58034 19.8596 7.82827 19.0569C7.0762 18.2541 6.57705 17.2478 6.39304 16.1632L6.24304 15.4237L9.55129 14.493L9.68104 15.411C9.73322 15.9968 9.99778 16.5434 10.4249 16.9477C10.852 17.352 11.4122 17.5862 12 17.6062C12.6108 17.624 13.2041 17.4005 13.6514 16.9842C14.0987 16.5679 14.3641 15.9922 14.3903 15.3817C14.3903 14.175 13.5533 13.7317 12.0713 13.0567L11.9963 13.0207L11.0625 12.615C9.19429 11.7682 7.21654 10.6432 7.18354 7.9515V7.88325C7.17853 7.06808 7.38887 6.26604 7.79329 5.55825C8.42386 4.49399 9.43631 3.71005 10.6245 3.366V0.0607466C11.7992 -0.0193052 12.9792 0.0487289 14.1368 0.263247V3.39825C15.412 3.84097 16.4708 4.75277 17.0978 5.94825L17.4548 6.60975L14.721 8.36325L14.2973 7.6275C14.1405 7.23446 13.8658 6.89963 13.511 6.66904C13.1562 6.43845 12.7386 6.32341 12.3158 6.33975C12.0935 6.32546 11.8706 6.35599 11.6603 6.42952C11.45 6.50305 11.2567 6.61809 11.0917 6.76779C10.9267 6.9175 10.7936 7.09883 10.7 7.30101C10.6065 7.50319 10.5546 7.7221 10.5473 7.94475C10.5473 8.70075 11.394 9.14475 12.4973 9.6375L13.5315 10.095C15.5723 10.9905 17.7533 12.1965 17.7533 15.216Z" fill="white"/>
</g>
</g>
<defs>
<clipPath id="clip0_2986_10959">
<rect width="24" height="24" fill="white"/>
</clipPath>
</defs>
</svg>
