<svg width="321" height="40" viewBox="0 0 321 40" fill="none" xmlns="http://www.w3.org/2000/svg">
<g clip-path="url(#clip0_1_982)">
<path d="M63.2164 27.3879L49.5408 3.66596C46.5427 -1.27829 39.2315 -1.33089 36.3385 3.87634L21.9793 28.5451C19.2967 33.0685 22.6103 38.7491 27.9755 38.7491H56.7467C62.1644 38.7491 66.2145 32.9106 63.2164 27.3879Z" fill="#00B897"/>
<path d="M43.492 29.229L42.6505 27.7562C41.8615 26.3886 40.1257 23.4431 40.1257 23.4431L28.5541 3.35054C25.556 -1.12032 18.4553 -1.48851 15.4571 4.13952L1.99195 27.4406C-0.795763 32.3322 2.51793 38.6966 8.56676 38.7493H37.1802H49.383H56.6417C49.2253 38.8019 46.8585 34.9621 43.492 29.229Z" fill="#76FCB2"/>
<path d="M43.4918 29.2288L42.6503 27.7562C41.8613 26.3886 40.1255 23.4431 40.1255 23.4431L32.6566 10.2935L21.9265 28.5977C19.244 33.1212 22.5577 38.8017 27.9229 38.8017H37.1274H49.3303H56.6415C49.1726 38.7492 46.8581 34.9621 43.4918 29.2288Z" fill="url(#paint0_linear_1_982)"/>
<path d="M316.826 36.9079C314.879 36.9079 313.354 36.4871 312.197 35.7507C310.986 34.9618 310.355 33.8045 310.355 32.2266V9.2937H313.407C314.512 9.2937 315.458 10.1879 315.458 11.345V31.5427C315.458 31.5955 315.458 32.5422 316.247 33.3311C316.719 33.8045 317.298 34.0675 318.087 34.0675H318.666C318.877 34.0675 319.087 34.278 319.087 34.4883V36.9605L316.826 36.9079Z" fill="#00B897"/>
<path d="M251.077 36.9074C247.921 36.9074 245.344 36.0659 243.397 34.3826C242.399 33.5411 241.715 32.5942 241.294 31.5422C240.874 30.4904 240.662 28.9649 240.662 26.9137C240.662 24.915 240.874 23.3369 241.294 22.2849C241.662 21.2857 242.346 20.3914 243.346 19.5499C245.291 17.8667 247.868 17.0251 251.024 17.0251C254.18 17.0251 256.757 17.8667 258.704 19.5499C259.704 20.3914 260.388 21.3382 260.755 22.2849C261.176 23.3895 261.386 24.915 261.386 26.9137C261.386 28.9649 261.176 30.4904 260.755 31.5422C260.334 32.5942 259.651 33.5411 258.651 34.3826C256.811 36.0659 254.234 36.9074 251.077 36.9074ZM251.077 19.918C247.605 19.918 245.87 22.2849 245.87 26.9662C245.87 31.7001 247.605 34.067 251.077 34.067C254.548 34.067 256.285 31.7001 256.285 27.0188C256.285 22.2849 254.496 19.918 251.077 19.918Z" fill="#00B897"/>
<path d="M272.853 36.9079C270.118 36.9079 267.594 36.1715 265.438 34.7513C265.227 34.5408 264.806 34.278 264.28 33.9624C264.175 33.9098 264.07 33.7519 264.07 33.5942V9.2937H267.173C268.278 9.2937 269.225 10.2405 269.225 11.345V18.4458L270.171 17.9198C271.276 17.3413 272.748 17.0783 274.642 17.0783C277.956 17.0783 280.48 18.0776 282.164 20.0237C283.636 21.7595 284.373 24.0738 284.373 26.9142C284.373 29.7546 283.531 32.0688 281.847 33.7519C279.901 35.8559 276.851 36.9079 272.853 36.9079ZM273.379 19.9186C272.223 19.9186 270.907 20.3393 269.434 21.2336L269.225 21.3387V32.7527L269.434 32.9104C270.592 33.6467 271.96 34.0149 273.379 34.0149C275.272 34.0149 276.747 33.226 277.745 31.6481C278.587 30.3856 279.061 28.7551 279.061 26.9142C279.061 22.2854 277.114 19.9186 273.379 19.9186Z" fill="#00B897"/>
<path d="M296.523 36.8548C290.736 36.8548 287.107 33.0678 287.107 26.9137C287.107 20.8123 290.683 17.0251 296.416 17.0251C298.626 17.0251 300.519 17.6037 302.045 18.7083L302.361 18.9187V17.3933H306.41C306.673 17.3933 306.831 17.6037 306.831 17.8141V36.4866H302.307V34.8034L301.991 35.0664C300.73 36.2236 298.73 36.8548 296.523 36.8548ZM297.574 20.3914C293.944 20.3914 291.787 23.1792 291.787 26.9137C291.787 30.6481 293.944 33.5411 297.574 33.5411C298.73 33.5411 300.73 33.4359 302.307 31.8579L302.361 31.8053V22.2323L302.307 22.1798C301.203 20.9175 299.572 20.3914 297.574 20.3914Z" fill="#00B897"/>
<path d="M109.641 36.6445V9.24072H132.416V10.9765C132.416 12.344 131.311 13.4486 129.944 13.4486H115.321V20.8123H129.944V25.0203H115.321V32.3839H129.944C131.311 32.3839 132.416 33.4885 132.416 34.8561V36.5919L109.641 36.6445Z" fill="white"/>
<path d="M165.133 9.24072H159.768C158.768 9.24072 157.874 9.6615 157.243 10.4505L150.773 18.6032L144.304 10.5031C143.673 9.71411 142.778 9.29331 141.779 9.29331H136.414L147.302 22.9689L136.414 36.6445H141.779C142.778 36.6445 143.673 36.2237 144.304 35.4348L150.773 27.3346L157.296 35.4874C157.927 36.2237 158.821 36.6971 159.82 36.6971H165.185L154.297 23.0214L165.133 9.24072Z" fill="white"/>
<path d="M91.8092 33.7534L99.2781 20.709V36.5937H104.959V9.18994H101.435C100.33 9.18994 99.2781 9.76851 98.7522 10.7679L89.8105 27.0734L80.8688 10.7679C80.3427 9.76851 79.2907 9.18994 78.1861 9.18994H74.6621V36.5937H80.3427V20.709L87.8116 33.7534H91.8092Z" fill="white"/>
<path d="M179.965 36.9604C172.075 37.0656 165.658 30.8589 165.605 22.9692C165.605 18.6561 166.92 15.0794 169.393 12.6073C171.865 10.1878 175.441 8.8728 179.702 8.8728C184.699 8.8728 188.644 10.6086 191.484 13.9749L189.696 15.5002C188.591 16.447 186.96 16.4996 185.751 15.6054C184.173 14.3956 182.174 13.8171 179.912 13.8171C174.337 13.8171 171.023 17.1834 171.023 22.864C171.023 28.5972 174.442 32.1214 179.912 32.1214C182.226 32.1214 184.173 31.4901 185.751 30.333C186.908 29.4387 188.538 29.4915 189.696 30.4381L191.484 31.9635C188.644 35.2772 184.857 36.9604 179.965 36.9604Z" fill="white"/>
<path d="M214.943 36.9601C206.107 36.9601 200.637 31.5952 200.637 22.9689C200.637 14.3428 206.107 8.97778 214.839 8.97778C219.046 8.97778 222.57 10.1875 225.305 12.6597L223.991 14.1324C223.412 14.7636 222.57 15.1318 221.728 15.1318C221.256 15.1318 220.781 15.0266 220.361 14.8162C218.73 13.9746 216.837 13.5538 214.839 13.5538C209.157 13.5538 205.633 17.1831 205.633 23.0216C205.633 28.9125 209.315 32.5418 215.206 32.5418C218.046 32.5418 220.256 32.0159 221.886 30.8588L221.991 30.8062V25.178H215.732V23.3371C215.732 21.9696 216.837 20.8651 218.204 20.8651H225.936C226.147 20.8651 226.357 21.0753 226.357 21.2858V33.4361C223.675 35.7504 219.835 36.9601 214.943 36.9601Z" fill="#00B897"/>
<path d="M236.508 36.9079C234.561 36.9079 233.035 36.4871 231.879 35.7507C230.669 34.9618 230.037 33.8045 230.037 32.2266V9.2937H233.089C234.193 9.2937 235.14 10.1879 235.14 11.345V31.5427C235.14 31.5955 235.14 32.5422 235.929 33.3311C236.403 33.8045 236.98 34.0675 237.769 34.0675H238.348C238.559 34.0675 238.769 34.278 238.769 34.4883V36.9605L236.508 36.9079Z" fill="#00B897"/>
</g>
<defs>
<linearGradient id="paint0_linear_1_982" x1="18.1077" y1="20.281" x2="51.3489" y2="32.5646" gradientUnits="userSpaceOnUse">
<stop stop-color="#53E57A" stop-opacity="0"/>
<stop offset="1" stop-color="#00A977"/>
</linearGradient>
<clipPath id="clip0_1_982">
<rect width="320" height="40" fill="white" transform="translate(0.992188)"/>
</clipPath>
</defs>
</svg>
