<svg width="151" height="32" viewBox="0 0 151 32" fill="none" xmlns="http://www.w3.org/2000/svg">
<path d="M49.2698 6.5166H52.6555L59.0441 20.5395L65.4326 6.5166H68.8178V25.6612H65.5418V13.2269L59.8629 25.6612H58.2246L52.5463 13.2269V25.6612H49.2698V6.5166Z" fill="white"/>
<path d="M79.2177 26.072C77.6891 26.072 76.3423 25.7983 75.1771 25.2503C74.0308 24.6846 73.1388 23.8811 72.5017 22.8406C71.8646 21.7811 71.5463 20.5303 71.5463 19.088C71.5463 17.6823 71.8554 16.4589 72.4743 15.4177C73.1114 14.3589 74.0126 13.5463 75.1771 12.9806C76.3423 12.396 77.6891 12.104 79.2177 12.104C80.7468 12.104 82.0846 12.396 83.2314 12.9806C84.396 13.5463 85.2971 14.3589 85.9343 15.4177C86.5714 16.4589 86.8897 17.6823 86.8897 19.088C86.8897 20.5303 86.5714 21.7811 85.9343 22.8406C85.2971 23.8811 84.396 24.6846 83.2314 25.2503C82.0846 25.7983 80.7468 26.072 79.2177 26.072ZM79.2177 23.3606C80.4737 23.3606 81.4748 22.968 82.2211 22.1829C82.9674 21.3794 83.3406 20.348 83.3406 19.088C83.3406 17.7549 82.9674 16.7143 82.2211 15.9657C81.4931 15.1989 80.492 14.8154 79.2177 14.8154C77.944 14.8154 76.9337 15.1989 76.1874 15.9657C75.4594 16.7143 75.0954 17.7549 75.0954 19.088C75.0954 20.348 75.4686 21.3794 76.2148 22.1829C76.9611 22.968 77.9623 23.3606 79.2177 23.3606Z" fill="white"/>
<path d="M89.6091 12.5149H92.94V14.6235C93.4674 13.9115 94.2137 13.3823 95.1783 13.0349C96.1611 12.688 97.2806 12.5149 98.5366 12.5149V15.144C97.208 15.144 96.052 15.3543 95.0691 15.7743C94.1046 16.176 93.4314 16.8149 93.0491 17.6915V25.6612H89.6091V12.5149Z" fill="white"/>
<path d="M100.727 12.5149H104.058V14.1034C104.767 13.4274 105.541 12.9257 106.378 12.5971C107.215 12.268 108.171 12.104 109.245 12.104C110.574 12.104 111.757 12.396 112.794 12.9806C113.85 13.5463 114.669 14.3589 115.251 15.4177C115.852 16.4589 116.153 17.6731 116.153 19.0606C116.153 20.4303 115.852 21.6446 115.251 22.7034C114.669 23.7623 113.85 24.5932 112.794 25.196C111.757 25.78 110.574 26.072 109.245 26.072C108.244 26.072 107.298 25.9354 106.406 25.6611C105.532 25.3691 104.786 24.94 104.167 24.3743V31.6594H100.727V12.5149ZM108.399 23.3606C109.637 23.3606 110.655 22.9589 111.457 22.1554C112.257 21.352 112.658 20.3206 112.658 19.0606C112.658 17.8006 112.257 16.7783 111.457 15.9931C110.655 15.208 109.637 14.8154 108.399 14.8154C107.416 14.8154 106.542 15.08 105.778 15.6097C105.013 16.1394 104.477 16.8514 104.167 17.7463V20.4029C104.458 21.2971 104.986 22.0189 105.75 22.5663C106.533 23.096 107.416 23.3606 108.399 23.3606Z" fill="white"/>
<path d="M118.883 5.42114H122.323V14.1858C123.561 12.7978 125.163 12.1041 127.129 12.1041C128.894 12.1041 130.214 12.5881 131.087 13.5555C131.961 14.5053 132.398 15.7744 132.398 17.3624V25.6613H128.958V17.6915C128.958 15.7744 128.066 14.8155 126.282 14.8155C125.499 14.8155 124.762 15.007 124.071 15.3904C123.379 15.7561 122.797 16.3127 122.323 17.0613V25.6613H118.883V5.42114Z" fill="white"/>
<path d="M142.273 26.072C140.744 26.072 139.397 25.7983 138.232 25.2503C137.086 24.6846 136.194 23.8811 135.557 22.8406C134.919 21.7811 134.601 20.5303 134.601 19.088C134.601 17.6823 134.91 16.4589 135.529 15.4177C136.166 14.3589 137.067 13.5463 138.232 12.9806C139.397 12.396 140.744 12.104 142.273 12.104C143.802 12.104 145.139 12.396 146.286 12.9806C147.451 13.5463 148.352 14.3589 148.989 15.4177C149.626 16.4589 149.945 17.6823 149.945 19.088C149.945 20.5303 149.626 21.7811 148.989 22.8406C148.352 23.8811 147.451 24.6846 146.286 25.2503C145.139 25.7983 143.802 26.072 142.273 26.072ZM142.273 23.3606C143.529 23.3606 144.53 22.968 145.276 22.1829C146.022 21.3794 146.395 20.348 146.395 19.088C146.395 17.7549 146.022 16.7143 145.276 15.9657C144.548 15.1989 143.547 14.8154 142.273 14.8154C140.999 14.8154 139.989 15.1989 139.242 15.9657C138.514 16.7143 138.15 17.7549 138.15 19.088C138.15 20.348 138.523 21.3794 139.27 22.1829C140.016 22.968 141.017 23.3606 142.273 23.3606Z" fill="white"/>
<path opacity="0.9" d="M4.40735 21.7148V30.8354C4.40735 31.3965 4.88249 31.6297 5.03032 31.6828C5.17815 31.7463 5.67438 31.884 6.11786 31.4708L13.9 23.9925C14.6177 23.06 14.8817 22.4777 14.8817 22.4777C15.304 21.6194 15.304 20.7937 14.8925 19.9674C14.28 18.7382 12.7171 17.4885 10.3625 16.3022L6.33963 18.548C5.14649 19.2257 4.40735 20.4228 4.40735 21.7148Z" fill="#A9D6FF"/>
<g filter="url(#filter0_i_1971_9623)">
<path d="M0.375244 1.43035V10.9954C0.375244 12.1925 1.17776 13.252 2.3181 13.5908C6.20376 14.7137 12.972 17.1285 14.6086 20.6771C14.82 21.1434 14.9463 21.5988 14.9886 22.0754C16.0766 20.0942 16.5726 17.8171 16.34 15.508C16.0234 12.2348 14.292 9.2583 11.5886 7.36219L1.94856 0.614755C1.77959 0.487612 1.57896 0.424072 1.37839 0.424072C1.20942 0.424072 1.06159 0.455841 0.903185 0.540584C0.586442 0.720641 0.375244 1.04904 0.375244 1.43035Z" fill="url(#paint0_linear_1971_9623)"/>
</g>
<path opacity="0.9" d="M30.0708 21.7148V30.8354C30.0708 31.3965 29.5954 31.6297 29.448 31.6828C29.3 31.7463 28.804 31.884 28.36 31.4708L20.5782 23.9925C19.8605 23.06 19.5965 22.4777 19.5965 22.4777C19.1742 21.6194 19.1742 20.7937 19.5857 19.9674C20.1982 18.7382 21.7611 17.4885 24.1154 16.3022L28.1382 18.548C29.3422 19.2257 30.0708 20.4228 30.0708 21.7148Z" fill="#A9D6FF"/>
<g filter="url(#filter1_i_1971_9623)">
<path d="M34.1108 1.42987V10.995C34.1108 12.192 33.308 13.2515 32.168 13.5903C28.2823 14.7132 21.5137 17.128 19.8771 20.6766C19.6663 21.1429 19.5394 21.5983 19.4971 22.0749C18.4097 20.0938 17.9131 17.8166 18.1457 15.5075C18.4623 12.2343 20.1943 9.25781 22.8971 7.36176L32.5371 0.614267C32.7063 0.487124 32.9068 0.423584 33.1074 0.423584C33.2765 0.423584 33.4245 0.455353 33.5828 0.540096C33.8994 0.720153 34.1108 1.04855 34.1108 1.42987Z" fill="url(#paint1_linear_1971_9623)"/>
</g>
<defs>
<filter id="filter0_i_1971_9623" x="0.375244" y="0.424072" width="16.021" height="25.6514" filterUnits="userSpaceOnUse" color-interpolation-filters="sRGB">
<feFlood flood-opacity="0" result="BackgroundImageFix"/>
<feBlend mode="normal" in="SourceGraphic" in2="BackgroundImageFix" result="shape"/>
<feColorMatrix in="SourceAlpha" type="matrix" values="0 0 0 0 0 0 0 0 0 0 0 0 0 0 0 0 0 0 127 0" result="hardAlpha"/>
<feOffset dy="4"/>
<feGaussianBlur stdDeviation="5"/>
<feComposite in2="hardAlpha" operator="arithmetic" k2="-1" k3="1"/>
<feColorMatrix type="matrix" values="0 0 0 0 0 0 0 0 0 0 0 0 0 0 0 0 0 0 0.2 0"/>
<feBlend mode="normal" in2="shape" result="effect1_innerShadow_1971_9623"/>
</filter>
<filter id="filter1_i_1971_9623" x="18.0895" y="0.423584" width="16.0214" height="25.6514" filterUnits="userSpaceOnUse" color-interpolation-filters="sRGB">
<feFlood flood-opacity="0" result="BackgroundImageFix"/>
<feBlend mode="normal" in="SourceGraphic" in2="BackgroundImageFix" result="shape"/>
<feColorMatrix in="SourceAlpha" type="matrix" values="0 0 0 0 0 0 0 0 0 0 0 0 0 0 0 0 0 0 127 0" result="hardAlpha"/>
<feOffset dy="4"/>
<feGaussianBlur stdDeviation="5"/>
<feComposite in2="hardAlpha" operator="arithmetic" k2="-1" k3="1"/>
<feColorMatrix type="matrix" values="0 0 0 0 0 0 0 0 0 0 0 0 0 0 0 0 0 0 0.2 0"/>
<feBlend mode="normal" in2="shape" result="effect1_innerShadow_1971_9623"/>
</filter>
<linearGradient id="paint0_linear_1971_9623" x1="16.9103" y1="21.936" x2="0.375244" y2="21.936" gradientUnits="userSpaceOnUse">
<stop offset="0.0677083" stop-color="#EFFDFF"/>
<stop offset="1" stop-color="#A9D6FF"/>
</linearGradient>
<linearGradient id="paint1_linear_1971_9623" x1="18.1343" y1="21.9355" x2="33.984" y2="21.9355" gradientUnits="userSpaceOnUse">
<stop offset="0.0677083" stop-color="#EFFDFF"/>
<stop offset="1" stop-color="#A9D6FF"/>
</linearGradient>
</defs>
</svg>
