<svg width="40" height="41" viewBox="0 0 40 41" fill="none" xmlns="http://www.w3.org/2000/svg">
<path d="M39.9332 20.4334C39.9701 31.4422 31.0756 40.3965 20.0668 40.4334C9.05799 40.4703 0.103687 31.5758 0.0667962 20.567C0.0299057 9.55819 8.9244 0.603883 19.9332 0.566993C30.942 0.530102 39.8963 9.4246 39.9332 20.4334Z" fill="#030C17"/>
<path opacity="0.2" d="M32.4661 32.8831C39.3036 25.9958 39.2705 14.8869 32.3833 8.04934C25.4961 1.21179 14.3871 1.2449 7.54956 8.13212L32.4661 32.8831Z" fill="white"/>
<path d="M21.8703 18.7113C21.6716 18.6782 21.4895 18.6285 21.3074 18.5954C18.8572 18.0987 17.0857 17.7511 17.0857 16.0458C17.0857 14.9862 18.1287 14.1419 19.9995 14.1419C21.6716 14.1419 22.9961 14.8207 23.857 16.0955L23.9895 16.1286L26.6549 13.3969L26.6384 13.2976C25.5788 12.0393 24.2378 11.1619 22.6981 10.6983C22.4829 10.6321 22.2842 10.5824 22.069 10.5327H22.0524C21.9697 10.5162 21.9034 10.4996 21.8206 10.4831V8.06592H18.1784V10.4831C18.0625 10.4996 17.9466 10.5327 17.8307 10.5493H17.8141C16.0923 10.9632 14.5858 11.8572 13.4103 13.2313C12.9136 14.0591 12.6653 15.0525 12.6653 16.1948C12.6653 20.102 15.6122 21.3437 18.4929 22.039C19.0227 22.1715 19.5525 22.2708 20.0657 22.3536C21.8703 22.6847 23.4266 22.9662 23.4266 24.5886C23.4266 25.5985 22.3173 26.8568 19.9995 26.8568C18.6254 26.8568 17.4996 26.3932 16.6718 25.5489C16.6221 25.4992 16.5559 25.4495 16.5062 25.3999L13.3606 27.5852V27.7011C13.8076 28.2309 14.3043 28.6945 14.8341 29.0918C15.0162 29.2242 15.1983 29.3401 15.3804 29.456C15.3804 29.456 15.3804 29.456 15.397 29.456C15.5791 29.5719 15.7778 29.6713 15.9599 29.7706C15.9599 29.7706 15.9764 29.7706 15.9764 29.7871C16.1751 29.8865 16.3572 29.9693 16.5559 30.052C16.5725 30.052 16.5725 30.052 16.589 30.0686C16.7877 30.1514 16.9864 30.2176 17.185 30.2838C17.2016 30.2838 17.2181 30.2838 17.2181 30.3004C17.3175 30.3335 17.4002 30.35 17.4996 30.3832C17.5161 30.3832 17.5161 30.3832 17.5327 30.3832C17.632 30.4163 17.7314 30.4328 17.8473 30.4659C17.8638 30.4659 17.8804 30.4659 17.8969 30.4825C17.9797 30.499 18.079 30.5156 18.1618 30.5322V32.9493H21.8041V30.5322C21.8703 30.5156 21.9365 30.5156 22.0028 30.499C22.0193 30.499 22.0193 30.499 22.0359 30.499C22.2842 30.4494 22.5325 30.3832 22.7809 30.3004C22.8968 30.2673 23.0292 30.2176 23.1451 30.1845C24.4861 29.6878 25.6616 28.86 26.6218 27.7342C26.9861 27.3038 27.3006 26.8568 27.5821 26.3601C27.7311 25.8303 27.7973 25.2343 27.7973 24.6052C27.8139 20.4 24.6351 19.2576 21.8703 18.7113Z" fill="#FAFBFC"/>
<path d="M13.3772 27.6845C13.1951 27.4693 13.0296 27.2541 12.8806 27.0223C12.8143 26.9229 12.7481 26.8236 12.6819 26.7408C12.6653 26.7243 12.6488 26.6912 12.6322 26.6746C12.5826 26.5918 12.5163 26.4925 12.4667 26.3932C12.4501 26.36 12.4336 26.3269 12.417 26.2938C12.3673 26.211 12.3177 26.1117 12.268 26.0289C12.2514 25.9958 12.2349 25.9627 12.2183 25.9296C12.1687 25.8468 12.119 25.7475 12.0859 25.6481C12.0693 25.615 12.0528 25.5654 12.0362 25.5322C11.9865 25.4329 11.9534 25.3501 11.9038 25.2508C11.8872 25.2177 11.8707 25.1846 11.8541 25.1349C11.821 25.0356 11.7713 24.9362 11.7382 24.8369C11.7382 24.8203 11.7217 24.7872 11.7217 24.7707C11.6389 24.5389 11.5561 24.3071 11.4899 24.0753C11.4899 24.0588 11.4733 24.0422 11.4733 24.0091C11.4568 23.9263 11.4236 23.8436 11.4071 23.7608C11.3905 23.6946 11.374 23.6283 11.3574 23.5621C11.3409 23.4793 11.3243 23.4131 11.3078 23.3303C11.2912 23.2641 11.2746 23.1813 11.2581 23.1151C11.2415 23.0323 11.225 22.9661 11.2084 22.8833C11.1919 22.8005 11.1753 22.7178 11.1588 22.635C11.1422 22.5688 11.1422 22.486 11.1256 22.4198C11.1091 22.337 11.0925 22.2542 11.0925 22.1549C11.076 22.0886 11.076 22.0224 11.0594 21.9396C11.0429 21.8403 11.0429 21.7575 11.0263 21.6582C11.0263 21.592 11.0098 21.5257 11.0098 21.4595C11.0098 21.3436 10.9932 21.2443 10.9932 21.1284C10.9932 21.0787 10.9932 21.0291 10.9766 20.9628C10.9766 20.7973 10.9601 20.6317 10.9601 20.4662C10.9601 20.3006 10.9601 20.1516 10.9766 19.986C10.9766 19.9364 10.9766 19.8867 10.9766 19.837C10.9766 19.7212 10.9932 19.6218 10.9932 19.5059C10.9932 19.4563 11.0098 19.39 11.0098 19.3404C11.0263 19.241 11.0263 19.1251 11.0429 19.0258C11.0429 18.9761 11.0594 18.9265 11.0594 18.8768C11.076 18.7444 11.0925 18.6285 11.1091 18.5126C11.1091 18.4795 11.1091 18.4464 11.1256 18.4298C11.1422 18.2808 11.1753 18.1318 11.2084 17.9828C11.225 17.9331 11.225 17.8835 11.2415 17.8503C11.2581 17.751 11.2912 17.6517 11.3078 17.5523C11.3243 17.5027 11.3409 17.4365 11.3409 17.3868C11.3574 17.2875 11.3905 17.2047 11.4071 17.1053C11.4236 17.0557 11.4402 16.9894 11.4568 16.9398C11.4899 16.8404 11.523 16.7411 11.5395 16.6418C11.5561 16.5921 11.5726 16.559 11.5892 16.5093C11.6389 16.3769 11.6885 16.2444 11.7382 16.112C11.7548 16.0623 11.7713 16.0292 11.7879 15.9795C11.821 15.8802 11.8541 15.7974 11.9038 15.6981C11.9203 15.6484 11.9534 15.5988 11.97 15.5325C12.0031 15.4498 12.0362 15.3835 12.0859 15.3008C12.119 15.2511 12.1355 15.1849 12.1687 15.1352C12.2018 15.0524 12.2514 14.9862 12.2845 14.9034C12.3177 14.8537 12.3342 14.8041 12.3673 14.7544C12.4336 14.6385 12.4998 14.5226 12.566 14.4067C12.417 14.9531 12.3508 15.5491 12.3508 16.1782C12.3508 18.3305 13.2613 19.9695 15.0659 21.0787C15.1653 23.0158 15.7282 24.5389 16.6884 25.5157L13.3772 27.6845Z" fill="url(#paint0_linear_1938_45091)"/>
<path d="M23.8737 16.0956C24.4366 16.94 24.8008 17.9996 24.9332 19.2744C25.3968 19.4896 25.7941 19.7379 26.1584 20.0194C27.4994 21.0624 28.1782 22.5855 28.1782 24.5226C28.1782 24.7543 28.1616 24.9861 28.1451 25.2179V25.2013C28.2113 25.0523 28.2775 24.8868 28.3272 24.7212C28.3437 24.6716 28.3603 24.6384 28.3768 24.5888C28.41 24.4729 28.4596 24.357 28.4927 24.2411C28.5093 24.1914 28.5258 24.1252 28.5424 24.0756C28.559 24.0093 28.5921 23.9265 28.6086 23.8603C28.6417 23.761 28.6583 23.6782 28.6914 23.5789C28.708 23.5127 28.7245 23.4299 28.7411 23.3637C28.7576 23.2809 28.7742 23.1981 28.7907 23.1153C28.8073 23.0656 28.8073 22.9994 28.8238 22.9498C28.8404 22.8339 28.8735 22.7014 28.8901 22.5855C28.8901 22.5359 28.9066 22.4862 28.9066 22.4365C28.9232 22.3041 28.9397 22.1716 28.9563 22.0392C28.9563 22.0061 28.9563 21.9895 28.9728 21.9564C28.9894 21.824 29.006 21.7081 29.006 21.5756C29.006 21.5425 29.006 21.5094 29.0225 21.4763C29.0391 21.3273 29.0391 21.1783 29.0556 21.0293C29.0556 20.9962 29.0556 20.9631 29.0556 20.9299C29.0556 20.7809 29.0722 20.6154 29.0722 20.4664C29.0722 20.3008 29.0722 20.1353 29.0556 19.9532C29.0556 19.9035 29.0556 19.8538 29.0391 19.7876C29.0391 19.6717 29.0225 19.5558 29.0225 19.4565C29.0225 19.3903 29.006 19.324 29.006 19.2578C28.9894 19.1585 28.9894 19.0591 28.9728 18.9598C28.9728 18.8936 28.9563 18.8274 28.9397 18.7446C28.9232 18.6452 28.9232 18.5625 28.9066 18.4631C28.8901 18.3969 28.8901 18.3141 28.8735 18.2479C28.857 18.1651 28.8404 18.0658 28.8238 17.983C28.8073 17.9168 28.7907 17.834 28.7742 17.7678C28.7576 17.685 28.7411 17.6022 28.7245 17.5194C28.708 17.4532 28.6914 17.3704 28.6748 17.3042C28.6583 17.2214 28.6252 17.1387 28.6086 17.0559C28.5921 16.9897 28.5755 16.9069 28.5424 16.8407C28.5258 16.7579 28.4927 16.6917 28.4762 16.6089C28.4596 16.5427 28.4265 16.4599 28.41 16.3937C28.3768 16.3109 28.3603 16.2446 28.3272 16.1784C28.2941 16.1122 28.2775 16.0294 28.2444 15.9632C28.2113 15.897 28.1947 15.8142 28.1616 15.748C28.1285 15.6818 28.0954 15.599 28.0788 15.5327C28.0457 15.4665 28.0126 15.4003 27.9795 15.3341C27.9464 15.2679 27.9133 15.2016 27.8802 15.1189C27.8471 15.0526 27.8139 14.9864 27.7808 14.9202C27.7477 14.854 27.7146 14.7877 27.6649 14.7215C27.6318 14.6553 27.5987 14.5891 27.549 14.5394C27.5159 14.4732 27.4663 14.407 27.4332 14.3407C27.4 14.2745 27.3504 14.2248 27.3173 14.1586C27.2014 13.9765 27.0689 13.7944 26.9365 13.6123C26.8371 13.4798 26.7378 13.3639 26.6385 13.248L23.8737 16.0956Z" fill="url(#paint1_linear_1938_45091)"/>
<defs>
<linearGradient id="paint0_linear_1938_45091" x1="16.7195" y1="21.4539" x2="8.9512" y2="15.6704" gradientUnits="userSpaceOnUse">
<stop offset="0.00058093" stop-color="white"/>
<stop offset="1" stop-color="#1E313F"/>
</linearGradient>
<linearGradient id="paint1_linear_1938_45091" x1="23.4956" y1="18.5425" x2="30.6696" y2="24.1355" gradientUnits="userSpaceOnUse">
<stop offset="0.00058093" stop-color="white"/>
<stop offset="0.9967" stop-color="#4E5A64"/>
</linearGradient>
</defs>
</svg>
