<svg width="182" height="40" viewBox="0 0 182 40" fill="none" xmlns="http://www.w3.org/2000/svg">
<g clip-path="url(#clip0_1_980)">
<path fill-rule="evenodd" clip-rule="evenodd" d="M1.70247 0.883976C6.20572 6.40468 11.1502 13.3404 11.9499 14.4622C11.9926 14.522 12.0234 14.5653 12.0418 14.5909C12.4681 15.1861 12.82 15.6285 13.0873 15.9645L13.0873 15.9646C13.6807 16.7105 13.8567 16.9318 13.5027 17.1351C13.2171 17.299 12.9225 17.3531 12.6286 17.3531C12.2961 17.3531 11.9215 17.1914 11.6487 16.93C11.456 16.7454 10.1368 14.8101 8.34046 11.9949C6.96604 9.84068 5.8158 8.05369 5.78442 8.02377C5.71188 7.95457 5.71312 7.95692 8.20033 12.452C9.76207 15.2746 10.8304 17.3605 10.8304 17.494C10.8304 17.7654 10.757 17.9081 10.4255 18.2816C9.87289 18.9044 9.62583 19.6041 9.4475 21.0522C9.24758 22.6755 8.6854 23.8223 7.12743 25.7848C6.21544 26.9337 6.06622 27.1442 5.8361 27.6073C5.54626 28.1904 5.46654 28.517 5.43424 29.2533C5.4001 30.0319 5.4666 30.5348 5.70207 31.2791C5.90823 31.9307 6.12341 32.3611 6.67351 33.2218C7.14825 33.9643 7.4216 34.5162 7.4216 34.7322C7.4216 34.904 7.45407 34.9042 8.18972 34.7365C9.9502 34.3348 11.3797 33.6287 12.1837 32.7632C12.6813 32.2274 12.7981 31.9316 12.8019 31.1976C12.8044 30.7174 12.7876 30.6169 12.6591 30.3407C12.45 29.8909 12.0692 29.5172 11.2298 28.9377C10.1301 28.1782 9.6604 27.5669 9.53066 26.7262C9.42423 26.0364 9.54771 25.5497 10.1561 24.2618C10.7858 22.9286 10.9418 22.3606 11.0474 21.0167C11.1156 20.1485 11.21 19.8062 11.4569 19.5315C11.7145 19.2449 11.9463 19.1478 12.5837 19.0597C13.6228 18.9164 14.2845 18.6449 14.8284 18.1386C15.3002 17.6995 15.4977 17.2763 15.528 16.6393L15.551 16.1564L15.2873 15.846C14.3325 14.7214 1.06303 0 1.00427 0C0.991717 0 1.30592 0.397816 1.70247 0.883976ZM7.9576 30.1343C8.17349 29.748 8.05879 29.2516 7.69766 29.009C7.35646 28.7799 6.82643 28.8879 6.82643 29.1865C6.82643 29.2776 6.87631 29.3438 6.98876 29.4024C7.17807 29.5008 7.19182 29.6115 7.04286 29.8376C6.89201 30.0667 6.90418 30.268 7.07721 30.4047C7.35608 30.6254 7.75084 30.504 7.9576 30.1343ZM14.4556 9.07502C14.0296 9.00828 14.0116 9.00045 14.2121 8.96933C14.5962 8.90965 15.5033 8.99098 16.1284 9.14113C17.5878 9.49149 18.9157 10.3891 20.3331 11.9832L20.7096 12.4067L21.2484 12.3192C23.5179 11.9508 25.8266 12.2436 27.7577 13.1446C28.289 13.3925 29.1265 13.886 29.2311 14.0128C29.2644 14.0532 29.3258 14.3133 29.3671 14.5909C29.5106 15.5513 29.4388 16.2874 29.1479 16.8372C28.9898 17.1364 28.981 17.2312 29.0873 17.4873C29.1722 17.6916 29.409 17.8428 29.6435 17.8425C30.1233 17.8418 30.6398 17.0583 30.8792 15.968L30.9742 15.5349L31.1626 15.7504C32.1954 16.9326 33.0069 18.5447 33.1462 19.6922L33.1825 19.9914L33.009 19.7194C32.71 19.2515 32.4099 18.9328 32.0253 18.6758C31.3323 18.2126 30.5994 18.055 28.6587 17.9517C26.9059 17.8584 25.9139 17.7071 24.9303 17.3831C23.2565 16.832 22.4129 16.0979 20.4247 13.4633C19.5418 12.2931 18.996 11.6456 18.4531 11.1242C17.2194 9.93947 16.0072 9.31814 14.4556 9.07502ZM29.6264 11.6878C29.6706 10.9037 29.7759 10.3865 29.9876 9.91412C30.0713 9.72715 30.1498 9.57412 30.1618 9.57412C30.174 9.57412 30.1376 9.71213 30.0809 9.88077C29.9271 10.3392 29.9017 10.9662 30.0078 11.6957C30.1423 12.6213 30.2189 12.7548 31.1874 13.7546C31.6416 14.2236 32.1701 14.8151 32.3616 15.069L32.71 15.5308L32.3616 15.2008C31.9357 14.7973 30.9562 14.0103 30.7399 13.8978C30.5947 13.8223 30.5731 13.8236 30.4837 13.9136C30.4013 13.9965 30.3838 14.1211 30.3723 14.71C30.3545 15.6279 30.2308 16.217 29.9318 16.8061C29.7701 17.1247 29.7446 17.0567 29.8908 16.6971C30.0001 16.4286 30.0112 16.3105 30.0105 15.422C30.0088 13.6367 29.7988 13.2075 28.5682 12.4722C28.2567 12.286 27.7429 12.0173 27.4268 11.8752C27.1109 11.7331 26.8599 11.6094 26.8689 11.6002C26.9038 11.5651 28.104 11.9189 28.587 12.1066C29.3055 12.3858 29.424 12.422 29.5113 12.3883C29.5697 12.3657 29.5981 12.1936 29.6264 11.6878ZM13.999 10.3172C13.8832 11.6956 14.4182 13.5394 15.283 14.742C15.9534 15.6742 16.9926 16.3986 17.7598 16.4686C18.2621 16.5144 18.4131 16.3555 18.1858 16.0204C17.8703 15.5549 17.4823 14.8383 17.3796 14.5315C17.3158 14.3408 17.1772 13.7778 17.0715 13.2803C16.7107 11.5817 16.3562 10.9202 15.5372 10.4178C15.2387 10.2347 14.6013 9.99506 14.2317 9.92697L14.0348 9.89067L13.999 10.3172ZM28.5776 23.6922C24.5361 22.0486 23.1126 20.622 23.1126 18.2148C23.1126 17.8605 23.1248 17.5707 23.1395 17.5707C23.1543 17.5707 23.3106 17.6876 23.4869 17.8305C24.3064 18.4944 25.2242 18.778 27.7648 19.1523C29.2597 19.3728 30.101 19.5506 30.8771 19.8107C33.3438 20.637 34.87 22.3138 35.2339 24.5979C35.3397 25.2616 35.2777 26.5061 35.1062 27.1621C34.9708 27.6802 34.5577 28.6139 34.4482 28.6498C34.4178 28.6597 34.3879 28.5422 34.3802 28.3822C34.3387 27.5245 33.9096 26.6896 33.1891 26.064C32.3697 25.3529 31.2689 24.7869 28.5776 23.6922ZM25.5451 23.5114C25.6018 23.6821 25.6897 24.0706 25.7402 24.375C26.064 26.3209 25.0527 27.8931 23.0856 28.5023C22.8773 28.5668 22.057 28.729 21.2627 28.8625C19.6547 29.133 18.937 29.3245 18.216 29.6753C17.7047 29.9241 17.0857 30.2967 17.1224 30.3337C17.1343 30.3457 17.251 30.3176 17.3817 30.2712C18.291 29.9487 19.3028 29.7818 20.8401 29.701C21.4503 29.6691 22.1442 29.618 22.3823 29.5878C23.7519 29.4135 24.7012 28.9932 25.4394 28.2344C25.8501 27.812 26.095 27.4186 26.2923 26.8638C26.4174 26.5119 26.4343 26.3812 26.4353 25.7577C26.4364 25.1224 26.4212 25.0062 26.2856 24.6154C26.1081 24.1031 25.8987 23.7187 25.6336 23.418L25.442 23.2009L25.5451 23.5114ZM27.593 27.6984C27.0559 26.5324 26.9327 25.4068 27.2268 24.357C27.2584 24.2447 27.3089 24.1529 27.3395 24.1529C27.3699 24.1529 27.4965 24.2222 27.621 24.3067C27.8683 24.4749 28.3646 24.7583 29.6867 25.4864C31.3367 26.3949 32.2773 27.0984 32.9169 27.9023C33.4771 28.6062 33.8238 29.4079 33.9906 30.3855C34.0852 30.9393 34.0298 32.2719 33.8892 32.8295C33.4456 34.5878 32.4146 35.9688 30.9442 36.7748C30.7288 36.8928 30.5354 36.9897 30.5143 36.9902C30.4935 36.9906 30.572 36.7891 30.6888 36.5422C31.1834 35.4977 31.2398 34.4817 30.8659 33.351C30.6368 32.6586 30.1699 31.8137 29.2272 30.3857C28.1312 28.7256 27.8625 28.2838 27.593 27.6984ZM17.4785 31.5226C15.7788 31.8015 13.9127 32.71 12.4129 33.9891L11.9664 34.37L12.3588 34.4319C14.4065 34.7547 14.9579 35.0411 16.3783 36.5191C17.1957 37.3694 17.4718 37.5587 18.1497 37.7335C19.1455 37.9902 20.1271 37.5185 20.4638 36.6212C20.6142 36.2203 20.5941 35.5564 20.4215 35.2231C20.011 34.4293 18.815 34.1728 18.2367 34.7542C17.755 35.2385 17.8953 35.9681 18.4944 36.0935C18.6316 36.1224 18.6277 36.1162 18.4595 36.0394C18.1973 35.9196 18.0834 35.7536 18.0819 35.4894C18.0786 34.8699 18.7805 34.5221 19.4334 34.8195C19.9115 35.0376 20.1014 35.3223 20.1014 35.8214C20.1014 36.59 19.4537 37.1692 18.7 37.0746C18.2971 37.0238 17.8044 36.7636 17.5402 36.462C16.8754 35.7027 17.1344 34.5046 18.0626 34.0449C18.7692 33.695 19.7084 33.7812 20.4368 34.2629C21.2736 34.8165 21.6294 35.3224 22.3502 36.9829C22.5849 37.5236 22.8869 38.1322 23.0212 38.3354C23.704 39.3677 24.522 39.874 25.5074 39.874C26.0508 39.874 26.4597 39.7737 26.974 39.5144C27.3562 39.3215 27.898 38.9551 27.8589 38.9159C27.8478 38.9048 27.6893 38.9546 27.5066 39.0265C26.4307 39.4503 25.337 39.4212 24.7019 38.9515C24.3019 38.656 23.9793 38.067 23.8135 37.3305C23.7847 37.203 23.6901 36.64 23.603 36.0792C23.3821 34.658 23.1701 34.0192 22.6756 33.286C22.1697 32.536 21.1971 31.9065 20.1098 31.6254C19.4314 31.45 18.2111 31.4023 17.4785 31.5226ZM15.0979 20.5343C15.2447 19.9867 15.7189 19.4644 16.2067 19.3131C16.5169 19.2169 17.1581 19.2783 17.4596 19.4331C18.0438 19.7331 18.468 20.4165 18.3759 20.9099C18.2637 21.5114 17.2979 21.9927 16.187 22.0006C15.6196 22.0045 15.41 21.9275 15.1933 21.6353C15.0592 21.4543 15.0084 20.8684 15.0979 20.5343ZM17.3104 19.6475C17.6018 19.8272 17.6767 20.093 17.5054 20.3388C17.3874 20.5082 17.0221 20.6691 16.7551 20.6691C16.354 20.6691 15.9165 20.3814 15.9165 20.1179C15.9165 19.5885 16.7555 19.3052 17.3104 19.6475ZM104.39 21.1634C103.484 18.1488 104.979 15.6483 108.168 14.8448C109.082 14.6143 113.224 14.7183 113.933 14.9897C114.194 15.0892 114.307 15.471 114.31 16.2556C114.311 16.8736 114.379 17.6241 114.459 17.9233C114.581 18.377 114.51 18.4663 114.031 18.459C113.598 18.4522 113.336 18.1985 112.971 17.4308C112.387 16.2046 111.68 15.8146 110.032 15.81C107.929 15.8039 106.39 17.22 106.641 18.9311C106.804 20.0445 107.916 21.1401 110.413 22.6462C112.788 24.0789 114.175 25.2571 114.727 26.3127C116.204 29.1348 114.943 32.1549 111.652 33.6766C109.962 34.4577 107.131 34.5384 105.14 33.8623L103.865 33.4293V31.3925C103.865 29.5478 103.909 29.3553 104.33 29.3553C104.682 29.3553 104.834 29.5878 104.957 30.3161C105.264 32.1269 106.64 33.2263 108.6 33.2263C110.52 33.2263 111.862 32.1773 112.377 30.2751C112.596 29.4648 112.558 29.166 112.124 28.2721C111.603 27.2004 110.707 26.4892 107.662 24.733C105.973 23.7583 104.779 22.4552 104.39 21.1634ZM44.7132 16.0483C44.2978 16.0483 44.1357 15.9125 44.1357 15.5644C44.1357 15.1035 44.2978 15.0805 47.5528 15.0805C50.574 15.0805 50.9607 15.126 50.8914 15.4727C50.848 15.6885 50.4306 15.9878 49.9631 16.138L49.1132 16.4112L49.0407 22.5808C48.9921 26.6977 49.0604 29.0725 49.2458 29.7181C49.7969 31.6383 51.4783 32.7425 53.8505 32.7425C55.5019 32.7425 56.4666 32.3564 57.6786 31.2098C58.9823 29.9771 59.1902 28.8058 59.1861 22.7183C59.1821 16.7137 59.0775 16.2181 57.7879 16.0935C57.2011 16.0367 57.0045 15.8999 57.0045 15.5491C57.0045 15.1117 57.1981 15.0805 59.9181 15.0805C62.6698 15.0805 62.8317 15.1073 62.8317 15.5644C62.8317 15.8625 62.6685 16.0497 62.4067 16.0519C61.2822 16.0618 61.2616 16.1688 61.1102 22.7531C60.9532 29.5906 60.8065 30.4002 59.4208 32.0751C59.0212 32.5583 58.0681 33.2599 57.3031 33.6344C56.0563 34.2445 55.6597 34.3146 53.4837 34.3106C51.4779 34.3065 50.8447 34.2096 49.8416 33.7531C48.3776 33.0866 47.4255 32.224 46.7235 30.9279C46.2336 30.0231 46.1917 29.5335 46.0783 23.4034C45.9483 16.3865 45.8854 16.0483 44.7132 16.0483ZM67.4336 16.0483C66.8784 16.0483 66.7166 15.9389 66.7166 15.5644C66.7166 15.1107 66.8717 15.0817 69.2052 15.1003L71.694 15.1202L72.8848 16.4915C73.5393 17.2457 75.6734 19.6049 77.6266 21.7339C79.58 23.8631 81.8227 26.3399 82.6101 27.2381C83.3977 28.1365 84.1389 28.8714 84.2574 28.8714C84.3791 28.8714 84.4398 26.3339 84.3964 23.0434L84.3198 17.2154L83.6385 16.6318C83.2638 16.3108 82.6905 16.0483 82.3639 16.0483C81.9295 16.0483 81.7705 15.9166 81.7705 15.5576C81.7705 15.0851 81.8944 15.0694 85.1089 15.1342C87.8422 15.1894 88.4475 15.2656 88.4475 15.5545C88.4475 15.7604 88.1094 15.9764 87.6358 16.073C87.1896 16.1639 86.6978 16.3643 86.5432 16.5181C86.3438 16.7168 86.2422 19.2851 86.1928 25.375L86.1231 33.9521H85.4195C84.8137 33.9521 84.0925 33.2704 80.2371 29.0528C77.7738 26.3579 74.8985 23.1553 73.8477 21.9358C72.7966 20.7161 71.8548 19.7089 71.7547 19.6978C71.4728 19.6663 71.541 30.5632 71.8292 31.5976C72.054 32.4036 72.2086 32.5423 73.1635 32.797C73.9325 33.0019 74.2435 33.2098 74.2435 33.5185C74.2435 33.9149 73.9504 33.9521 70.8443 33.9521C67.6824 33.9521 67.445 33.9206 67.445 33.4986C67.445 33.1897 67.6738 32.9994 68.1624 32.902C69.645 32.6066 69.7434 32.1376 69.8266 24.9696C69.8732 20.9549 69.8048 18.146 69.6458 17.5578C69.3663 16.5235 68.67 16.0483 67.4336 16.0483ZM92.8931 16.0483C92.3729 16.0483 92.211 15.9334 92.211 15.5644C92.211 15.102 92.3729 15.0805 95.8531 15.0805C99.3331 15.0805 99.4952 15.102 99.4952 15.5644C99.4952 15.9193 99.3331 16.0483 98.888 16.0483C98.5543 16.0483 98.0582 16.2704 97.7857 16.5419C97.3047 17.0211 97.2924 17.2595 97.3609 24.6669C97.4276 31.8978 97.4561 32.3162 97.9025 32.6413C98.1618 32.83 98.6261 32.9844 98.9344 32.9844C99.3331 32.9844 99.4952 33.1239 99.4952 33.4684C99.4952 33.9307 99.3331 33.9521 95.8531 33.9521C92.4557 33.9521 92.211 33.9217 92.211 33.4993C92.211 33.1587 92.4493 33.0083 93.1729 32.893C94.6097 32.664 94.6831 32.1953 94.5936 23.8312C94.522 17.1329 94.4912 16.7153 94.0463 16.3913C93.787 16.2026 93.2681 16.0483 92.8931 16.0483ZM118.298 16.0483C117.966 16.0483 117.714 15.8642 117.635 15.5644C117.512 15.0965 117.628 15.0805 121.127 15.0805C124.585 15.0805 124.747 15.102 124.747 15.5644C124.747 15.9362 124.585 16.0483 124.048 16.0483C122.519 16.0483 122.554 16.325 124.867 22.6524C126.044 25.8732 127.188 28.9328 127.408 29.4513L127.807 30.3942L129.662 25.4592C131.845 19.6501 132.128 18.5759 131.758 17.5164C131.499 16.778 130.494 16.0483 129.736 16.0483C129.522 16.0483 129.36 15.8402 129.36 15.5644C129.36 15.1013 129.522 15.0805 133.124 15.0805C136.725 15.0805 136.887 15.1013 136.887 15.5644C136.887 15.9087 136.725 16.0483 136.326 16.0483C135.305 16.0483 134.855 16.5907 135.002 17.6446C135.153 18.7295 139.329 30.3895 139.504 30.215C139.789 29.9313 144.414 17.3792 144.414 16.89C144.414 16.3038 144.002 16.0483 143.059 16.0483C142.633 16.0483 142.471 15.915 142.471 15.5644C142.471 15.1073 142.633 15.0805 145.385 15.0805C147.856 15.0805 148.299 15.1376 148.299 15.456C148.299 15.6626 147.996 15.9367 147.626 16.0652C146.794 16.3543 146.585 16.6843 145.54 19.3576C145.082 20.5315 143.647 24.2054 142.352 27.5215C141.056 30.8379 139.94 33.696 139.872 33.8727C139.804 34.0496 139.403 34.1942 138.98 34.1942H138.211L136.467 29.6577C135.508 27.1628 134.375 24.2069 133.949 23.0892C133.219 21.1739 133.158 21.0907 132.884 21.6374C132.723 21.9568 131.571 24.9179 130.322 28.2178L128.053 34.2178L127.206 34.1455L126.358 34.0732L123.127 25.624C121.322 20.9035 119.662 16.926 119.366 16.6115C119.074 16.3016 118.593 16.0483 118.298 16.0483ZM166.847 16.1509C166.807 16.059 166.807 15.7287 166.807 15.7287C166.807 15.7287 166.798 15.6095 166.848 15.546C166.898 15.4826 166.915 15.481 167.094 15.464L167.096 15.4638C167.751 15.4015 169.066 15.2965 170.164 15.2486C170.265 15.2442 170.376 15.2392 170.498 15.2337L170.5 15.2336L170.502 15.2335L170.503 15.2334C171.711 15.1786 173.872 15.1053 175.358 15.1796C178.209 15.322 180.237 16.7 180.927 18.9771C181.619 21.2541 181.253 23.3915 180.311 24.7521C179.369 26.1127 177.786 27.2841 175.153 27.2079C172.98 27.145 172.398 26.738 171.934 26.413C171.836 26.3442 171.743 26.2791 171.641 26.2218V29.1256C171.664 31.1061 171.681 32.0573 171.834 32.4094C172.041 32.8834 172.508 33.1754 173.418 33.3992C173.418 33.3992 173.829 33.4958 173.936 33.5987C174.042 33.7016 174.042 33.9301 174.042 33.9301C174.042 33.9301 174.063 34.1438 173.978 34.2528C173.893 34.3617 173.728 34.3399 173.728 34.3399L169.698 34.3074L167.268 34.301C167.268 34.301 167.013 34.3499 166.918 34.2473C166.822 34.1446 166.831 33.9307 166.831 33.9307C166.831 33.9307 166.852 33.7003 166.963 33.5972C167.075 33.4939 167.49 33.3786 167.49 33.3786C168.427 33.1155 168.833 32.8372 169.046 32.3129C169.217 31.8901 169.218 31.1063 169.216 24.7095C169.214 18.6432 169.206 17.5116 169.066 17.1861C168.861 16.7044 168.345 16.5767 167.611 16.395L167.611 16.3949C167.465 16.3589 167.311 16.3207 167.149 16.2773C167.149 16.2773 166.888 16.2428 166.847 16.1509ZM178.582 21.1008C178.582 22.0956 178.564 23.653 177.505 24.6485C176.447 25.6439 174.361 25.9164 172.946 25.6392C172.5 25.5519 172.245 25.4173 172.048 25.3134L172.029 25.3031L171.666 25.1123L171.645 21.6173C171.632 19.4274 171.655 18.0007 171.707 17.7967C171.754 16.642 173.457 16.4984 174.289 16.5411C177.85 16.5411 178.478 19.541 178.582 21.1008ZM155.667 15.216C155.667 15.216 155.493 15.2827 155.23 15.3827L154.279 15.8737L153.594 17.5828C153.218 18.5227 152.529 20.2483 152.064 21.4173C151.217 23.5465 150.657 24.9454 150.068 26.4054C149.895 26.8349 149.372 28.1427 148.906 29.3117C148.44 30.4806 147.974 31.593 147.871 31.7838C147.854 31.8156 147.835 31.8498 147.816 31.8858C147.556 32.3756 147.103 33.2263 146.304 33.3549C146.304 33.3549 145.864 33.3981 145.701 33.5589C145.539 33.7198 145.554 33.8513 145.554 33.8513V34.0539C145.554 34.0539 145.569 34.1521 145.661 34.2009C145.754 34.25 145.878 34.2528 145.878 34.2528L148.803 34.2195H151.825C151.825 34.2195 152.039 34.2445 152.121 34.1762C152.204 34.1078 152.226 34.0064 152.226 34.0064V33.793C152.226 33.793 152.184 33.5617 152.065 33.4714C151.945 33.3812 151.496 33.3194 151.496 33.3194C150.286 33.1604 150.078 32.2453 150.227 31.4223C150.301 31.018 150.787 29.5224 151.335 28.0167L151.524 27.4963L154.691 27.4721C156.433 27.4588 157.936 27.4678 158.033 27.4922C158.17 27.5269 158.363 27.9177 158.928 29.3097C159.784 31.4186 159.852 31.6755 159.663 32.07C159.651 32.0941 159.639 32.1206 159.625 32.1491C159.448 32.5307 159.102 33.2721 158.232 33.3476C158.232 33.3476 157.77 33.3636 157.656 33.5016C157.541 33.6398 157.566 33.7987 157.566 33.7987V34.0098C157.566 34.0098 157.596 34.1335 157.656 34.1825C157.715 34.2315 157.815 34.2192 157.815 34.2192L160.69 34.1985L164.73 34.1983C164.73 34.1983 164.889 34.2152 164.932 34.1544C164.975 34.0933 164.984 34.0216 164.984 34.0216V33.7412C164.984 33.7412 164.967 33.5921 164.889 33.5099C164.811 33.4278 164.287 33.341 164.287 33.341C163.618 33.2331 163.284 32.6806 163.036 32.2691C162.973 32.1641 162.915 32.0684 162.859 31.9915C162.744 31.8347 162.333 30.9754 162.011 30.1489C161.689 29.3224 160.963 27.4554 160.398 26.0002C159.832 24.545 159.043 22.5149 158.644 21.4892C158.245 20.4633 157.486 18.5114 156.958 17.1515C156.872 16.9283 156.794 16.7279 156.725 16.5484L156.724 16.5476C156.37 15.6344 156.228 15.2659 156.188 15.216C156.061 15.054 155.667 15.216 155.667 15.216ZM155.479 20.773C155.352 20.4629 155.127 19.9067 154.98 19.5369C154.714 18.8648 154.612 18.71 154.53 18.8488C154.506 18.8894 154.338 19.3487 154.157 19.8697C152.985 23.2424 152.454 24.7611 152.348 25.0473C152.281 25.2272 152.226 25.4126 152.226 25.4593C152.226 25.5131 153.179 25.5444 154.813 25.5444C156.235 25.5444 157.399 25.5268 157.399 25.5052C157.399 25.4836 157.272 25.1617 157.117 24.7895C156.962 24.4173 156.582 23.4883 156.273 22.7249C155.964 21.9615 155.607 21.0832 155.479 20.773Z" fill="#FF007A"/>
</g>
<defs>
<clipPath id="clip0_1_980">
<rect width="180.469" height="40" fill="white" transform="translate(0.996094)"/>
</clipPath>
</defs>
</svg>
