<svg width="72" height="72" viewBox="0 0 72 72" fill="none" xmlns="http://www.w3.org/2000/svg">
<g clip-path="url(#clip0_298_1476)">
<path d="M36 72C55.9501 72 72 55.9501 72 36C72 16.0499 55.9501 0 36 0C16.0499 0 0 16.0499 0 36C0 55.9501 16.0499 72 36 72Z" fill="#2775CA"/>
<path d="M45.9001 41.6998C45.9001 36.4499 42.7501 34.6499 36.4501 33.9C31.9501 33.2999 31.0501 32.1 31.0501 29.9998C31.0501 27.8996 32.5502 26.5499 35.5501 26.5499C38.2501 26.5499 39.7502 27.4499 40.5001 29.6999C40.6502 30.1499 41.1002 30.4498 41.5502 30.4498H43.9499C44.55 30.4498 45.0001 29.9998 45.0001 29.4V29.2499C44.3999 25.9498 41.6999 23.3999 38.2501 23.1V19.5C38.2501 18.8999 37.8001 18.4499 37.0502 18.2998H34.8002C34.2001 18.2998 33.7501 18.7498 33.5999 19.5V22.9499C29.0999 23.55 26.2502 26.5499 26.2502 30.3C26.2502 35.25 29.2501 37.1998 35.5501 37.95C39.7502 38.6999 41.1002 39.5999 41.1002 42C41.1002 44.4002 38.9999 46.05 36.1502 46.05C32.2499 46.05 30.8999 44.3998 30.4499 42.1498C30.3002 41.55 29.8502 41.2498 29.4002 41.2498H26.8499C26.2502 41.2498 25.8002 41.6998 25.8002 42.2999V42.45C26.3999 46.1998 28.8001 48.8998 33.7501 49.65V53.25C33.7501 53.8498 34.2001 54.2998 34.9499 54.4499H37.1999C37.8 54.4499 38.2501 53.9999 38.4002 53.25V49.65C42.9002 48.8998 45.9001 45.7498 45.9001 41.6998Z" fill="white"/>
<path d="M28.35 57.4498C16.65 53.25 10.6499 40.2 15.0001 28.6498C17.2501 22.3498 22.2001 17.5499 28.35 15.2999C28.9501 15 29.25 14.55 29.25 13.7998V11.6999C29.25 11.0998 28.9501 10.6498 28.35 10.5C28.1999 10.5 27.9 10.5 27.7499 10.6498C13.5 15.1498 5.69987 30.3 10.1999 44.5499C12.8999 52.9498 19.35 59.3999 27.7499 62.0999C28.35 62.3998 28.9501 62.0999 29.0999 61.4998C29.25 61.35 29.25 61.1999 29.25 60.9V58.7998C29.25 58.3498 28.8 57.75 28.35 57.4498ZM44.2501 10.6498C43.65 10.3499 43.0499 10.6498 42.9001 11.2499C42.75 11.4 42.75 11.5498 42.75 11.85V13.9499C42.75 14.55 43.2 15.1498 43.65 15.45C55.35 19.6498 61.3501 32.6998 56.9999 44.25C54.7499 50.55 49.7999 55.3499 43.65 57.5999C43.0499 57.8998 42.75 58.3498 42.75 59.1V61.1999C42.75 61.8 43.0499 62.25 43.65 62.3998C43.8001 62.3998 44.1 62.3998 44.2501 62.25C58.5 57.75 66.3001 42.5998 61.8001 28.3499C59.1001 19.7999 52.4999 13.3498 44.2501 10.6498Z" fill="white"/>
</g>
<defs>
<clipPath id="clip0_298_1476">
<rect width="72" height="72" fill="white"/>
</clipPath>
</defs>
</svg>
