<svg width="72" height="72" viewBox="0 0 72 72" fill="none" xmlns="http://www.w3.org/2000/svg">
<g clip-path="url(#clip0_298_1496)">
<path d="M36 0C55.8814 0 72 16.1186 72 36C72 55.8814 55.8806 72 36 72C16.1194 72 0 55.8857 0 36C0 16.1143 16.1165 0 36 0Z" fill="#009393"/>
<path d="M40.4431 31.2034V25.848H52.6896V17.6882H19.3421V25.848H31.59V31.199C21.636 31.6562 14.1516 33.6276 14.1516 35.9892C14.1516 38.3508 21.6396 40.3222 31.59 40.7822V57.9362H40.446V40.7808C50.382 40.3222 57.8513 38.3522 57.8513 35.9928C57.8513 33.6334 50.382 31.6634 40.446 31.2048M40.446 39.3278V39.3235C40.1962 39.3394 38.9124 39.4164 36.054 39.4164C33.7687 39.4164 32.161 39.3516 31.5943 39.3221V39.3293C22.8003 38.9398 16.236 37.4083 16.236 35.5759C16.236 33.7435 22.801 32.2142 31.5943 31.824V37.8036C32.1703 37.8432 33.8177 37.9404 36.0914 37.9404C38.8224 37.9404 40.1955 37.8266 40.4475 37.8036V31.824C49.2243 32.215 55.7734 33.7478 55.7734 35.5738C55.7734 37.3997 49.2214 38.9333 40.4475 39.3242" fill="white"/>
</g>
<defs>
<clipPath id="clip0_298_1496">
<rect width="72" height="72" fill="white"/>
</clipPath>
</defs>
</svg>
