<svg width="182" height="40" viewBox="0 0 182 40" fill="none" xmlns="http://www.w3.org/2000/svg">
<path fill-rule="evenodd" clip-rule="evenodd" d="M1.54172 0.883976C6.04497 6.40468 10.9894 13.3404 11.7892 14.4622C11.8318 14.522 11.8627 14.5653 11.881 14.5909C12.3074 15.1861 12.6593 15.6285 12.9266 15.9645L12.9266 15.9646C13.5199 16.7105 13.696 16.9318 13.3419 17.1351C13.0564 17.299 12.7618 17.3531 12.4678 17.3531C12.1353 17.3531 11.7607 17.1914 11.488 16.93C11.2952 16.7454 9.97603 14.8101 8.17971 11.9949C6.80528 9.84068 5.65505 8.05369 5.62367 8.02377C5.55112 7.95457 5.55236 7.95692 8.03958 12.452C9.60132 15.2746 10.6696 17.3605 10.6696 17.494C10.6696 17.7654 10.5963 17.9081 10.2648 18.2816C9.71214 18.9044 9.46508 19.6041 9.28675 21.0522C9.08682 22.6755 8.52465 23.8223 6.96667 25.7848C6.05469 26.9337 5.90547 27.1442 5.67535 27.6073C5.38551 28.1904 5.30579 28.517 5.27349 29.2533C5.23935 30.0319 5.30585 30.5348 5.54132 31.2791C5.74748 31.9307 5.96266 32.3611 6.51276 33.2218C6.9875 33.9643 7.26085 34.5162 7.26085 34.7322C7.26085 34.904 7.29332 34.9042 8.02896 34.7365C9.78945 34.3348 11.219 33.6287 12.0229 32.7632C12.5205 32.2274 12.6373 31.9316 12.6411 31.1976C12.6436 30.7174 12.6269 30.6169 12.4984 30.3407C12.2892 29.8909 11.9084 29.5172 11.0691 28.9377C9.96936 28.1782 9.49965 27.5669 9.3699 26.7262C9.26348 26.0364 9.38696 25.5497 9.99533 24.2618C10.625 22.9286 10.7811 22.3606 10.8866 21.0167C10.9548 20.1485 11.0492 19.8062 11.2962 19.5315C11.5537 19.2449 11.7856 19.1478 12.423 19.0597C13.4621 18.9164 14.1238 18.6449 14.6677 18.1386C15.1395 17.6995 15.3369 17.2763 15.3672 16.6393L15.3902 16.1564L15.1265 15.846C14.1717 14.7214 0.902279 0 0.843518 0C0.830965 0 1.14517 0.397816 1.54172 0.883976ZM7.79685 30.1343C8.01274 29.748 7.89804 29.2516 7.53691 29.009C7.19571 28.7799 6.66568 28.8879 6.66568 29.1865C6.66568 29.2776 6.71556 29.3438 6.82801 29.4024C7.01732 29.5008 7.03107 29.6115 6.88211 29.8376C6.73126 30.0667 6.74342 30.268 6.91646 30.4047C7.19533 30.6254 7.59009 30.504 7.79685 30.1343ZM14.2948 9.07502C13.8688 9.00828 13.8509 9.00045 14.0513 8.96933C14.4355 8.90965 15.3426 8.99098 15.9677 9.14113C17.427 9.49149 18.7549 10.3891 20.1723 11.9832L20.5489 12.4067L21.0877 12.3192C23.3571 11.9508 25.6659 12.2436 27.5969 13.1446C28.1282 13.3925 28.9658 13.886 29.0704 14.0128C29.1036 14.0532 29.165 14.3133 29.2063 14.5909C29.3498 15.5513 29.2781 16.2874 28.9872 16.8372C28.8291 17.1364 28.8202 17.2312 28.9265 17.4873C29.0114 17.6916 29.2482 17.8428 29.4828 17.8425C29.9626 17.8418 30.479 17.0583 30.7184 15.968L30.8135 15.5349L31.0018 15.7504C32.0347 16.9326 32.8461 18.5447 32.9855 19.6922L33.0217 19.9914L32.8482 19.7194C32.5492 19.2515 32.2492 18.9328 31.8646 18.6758C31.1716 18.2126 30.4386 18.055 28.498 17.9517C26.7451 17.8584 25.7532 17.7071 24.7695 17.3831C23.0957 16.832 22.2522 16.0979 20.264 13.4633C19.381 12.2931 18.8352 11.6456 18.2923 11.1242C17.0587 9.93947 15.8465 9.31814 14.2948 9.07502ZM29.4657 11.6878C29.5098 10.9037 29.6152 10.3865 29.8268 9.91412C29.9106 9.72715 29.9891 9.57412 30.0011 9.57412C30.0133 9.57412 29.9769 9.71213 29.9201 9.88077C29.7663 10.3392 29.741 10.9662 29.8471 11.6957C29.9815 12.6213 30.0582 12.7548 31.0266 13.7546C31.4809 14.2236 32.0093 14.8151 32.2009 15.069L32.5492 15.5308L32.2009 15.2008C31.775 14.7973 30.7954 14.0103 30.5791 13.8978C30.4339 13.8223 30.4123 13.8236 30.323 13.9136C30.2405 13.9965 30.223 14.1211 30.2116 14.71C30.1938 15.6279 30.07 16.217 29.771 16.8061C29.6093 17.1247 29.5838 17.0567 29.7301 16.6971C29.8394 16.4286 29.8505 16.3105 29.8497 15.422C29.848 13.6367 29.6381 13.2075 28.4075 12.4722C28.0959 12.286 27.5821 12.0173 27.2661 11.8752C26.9502 11.7331 26.6991 11.6094 26.7081 11.6002C26.7431 11.5651 27.9432 11.9189 28.4262 12.1066C29.1447 12.3858 29.2632 12.422 29.3506 12.3883C29.409 12.3657 29.4373 12.1936 29.4657 11.6878ZM13.8382 10.3172C13.7224 11.6956 14.2575 13.5394 15.1223 14.742C15.7926 15.6742 16.8318 16.3986 17.599 16.4686C18.1014 16.5144 18.2523 16.3555 18.0251 16.0204C17.7096 15.5549 17.3215 14.8383 17.2188 14.5315C17.155 14.3408 17.0164 13.7778 16.9107 13.2803C16.55 11.5817 16.1954 10.9202 15.3764 10.4178C15.0779 10.2347 14.4406 9.99506 14.0709 9.92697L13.8741 9.89067L13.8382 10.3172ZM28.4169 23.6922C24.3754 22.0486 22.9519 20.622 22.9519 18.2148C22.9519 17.8605 22.9641 17.5707 22.9787 17.5707C22.9936 17.5707 23.1498 17.6876 23.3261 17.8305C24.1457 18.4944 25.0634 18.778 27.6041 19.1523C29.0989 19.3728 29.9402 19.5506 30.7164 19.8107C33.183 20.637 34.7092 22.3138 35.0732 24.5979C35.1789 25.2616 35.1169 26.5061 34.9455 27.1621C34.8101 27.6802 34.3969 28.6139 34.2875 28.6498C34.257 28.6597 34.2272 28.5422 34.2195 28.3822C34.178 27.5245 33.7489 26.6896 33.0283 26.064C32.209 25.3529 31.1081 24.7869 28.4169 23.6922ZM25.3844 23.5114C25.4411 23.6821 25.529 24.0706 25.5795 24.375C25.9032 26.3209 24.892 27.8931 22.9248 28.5023C22.7166 28.5668 21.8963 28.729 21.1019 28.8625C19.4939 29.133 18.7762 29.3245 18.0553 29.6753C17.544 29.9241 16.9249 30.2967 16.9617 30.3337C16.9735 30.3457 17.0903 30.3176 17.221 30.2712C18.1302 29.9487 19.1421 29.7818 20.6794 29.701C21.2895 29.6691 21.9834 29.618 22.2215 29.5878C23.5911 29.4135 24.5404 28.9932 25.2786 28.2344C25.6893 27.812 25.9342 27.4186 26.1316 26.8638C26.2567 26.5119 26.2736 26.3812 26.2745 25.7577C26.2756 25.1224 26.2604 25.0062 26.1248 24.6154C25.9474 24.1031 25.738 23.7187 25.4728 23.418L25.2813 23.2009L25.3844 23.5114ZM27.4323 27.6984C26.8952 26.5324 26.772 25.4068 27.0661 24.357C27.0976 24.2447 27.1481 24.1529 27.1787 24.1529C27.2092 24.1529 27.3357 24.2222 27.4602 24.3067C27.7076 24.4749 28.2039 24.7583 29.526 25.4864C31.1759 26.3949 32.1166 27.0984 32.7562 27.9023C33.3164 28.6062 33.663 29.4079 33.8298 30.3855C33.9245 30.9393 33.8691 32.2719 33.7284 32.8295C33.2848 34.5878 32.2538 35.9688 30.7834 36.7748C30.568 36.8928 30.3746 36.9897 30.3536 36.9902C30.3327 36.9906 30.4112 36.7891 30.528 36.5422C31.0227 35.4977 31.079 34.4817 30.7051 33.351C30.476 32.6586 30.0092 31.8137 29.0664 30.3857C27.9705 28.7256 27.7017 28.2838 27.4323 27.6984ZM17.3178 31.5226C15.618 31.8015 13.752 32.71 12.2522 33.9891L11.8057 34.37L12.1981 34.4319C14.2458 34.7547 14.7972 35.0411 16.2176 36.5191C17.035 37.3694 17.311 37.5587 17.989 37.7335C18.9848 37.9902 19.9663 37.5185 20.3031 36.6212C20.4535 36.2203 20.4334 35.5564 20.2608 35.2231C19.8503 34.4293 18.6543 34.1728 18.0759 34.7542C17.5942 35.2385 17.7346 35.9681 18.3337 36.0935C18.4709 36.1224 18.467 36.1162 18.2987 36.0394C18.0365 35.9196 17.9226 35.7536 17.9212 35.4894C17.9178 34.8699 18.6197 34.5221 19.2727 34.8195C19.7507 35.0376 19.9406 35.3223 19.9406 35.8214C19.9406 36.59 19.293 37.1692 18.5392 37.0746C18.1364 37.0238 17.6437 36.7636 17.3795 36.462C16.7147 35.7027 16.9737 34.5046 17.9018 34.0449C18.6084 33.695 19.5476 33.7812 20.276 34.2629C21.1128 34.8165 21.4687 35.3224 22.1894 36.9829C22.4242 37.5236 22.7261 38.1322 22.8604 38.3354C23.5432 39.3677 24.3613 39.874 25.3466 39.874C25.8901 39.874 26.2989 39.7737 26.8133 39.5144C27.1954 39.3215 27.7372 38.9551 27.6982 38.9159C27.6871 38.9048 27.5286 38.9546 27.3459 39.0265C26.27 39.4503 25.1763 39.4212 24.5412 38.9515C24.1412 38.656 23.8185 38.067 23.6527 37.3305C23.624 37.203 23.5293 36.64 23.4422 36.0792C23.2214 34.658 23.0093 34.0192 22.5149 33.286C22.009 32.536 21.0364 31.9065 19.9491 31.6254C19.2707 31.45 18.0503 31.4023 17.3178 31.5226ZM14.9372 20.5343C15.084 19.9867 15.5581 19.4644 16.046 19.3131C16.3562 19.2169 16.9974 19.2783 17.2988 19.4331C17.8831 19.7331 18.3072 20.4165 18.2152 20.9099C18.1029 21.5114 17.1372 21.9927 16.0262 22.0006C15.4588 22.0045 15.2492 21.9275 15.0326 21.6353C14.8984 21.4543 14.8476 20.8684 14.9372 20.5343ZM17.1497 19.6475C17.441 19.8272 17.516 20.093 17.3447 20.3388C17.2267 20.5082 16.8613 20.6691 16.5944 20.6691C16.1933 20.6691 15.7557 20.3814 15.7557 20.1179C15.7557 19.5885 16.5948 19.3052 17.1497 19.6475ZM104.229 21.1634C103.323 18.1488 104.818 15.6483 108.007 14.8448C108.921 14.6143 113.063 14.7183 113.772 14.9897C114.033 15.0892 114.146 15.471 114.149 16.2556C114.151 16.8736 114.218 17.6241 114.298 17.9233C114.42 18.377 114.349 18.4663 113.87 18.459C113.437 18.4522 113.176 18.1985 112.81 17.4308C112.226 16.2046 111.519 15.8146 109.871 15.81C107.768 15.8039 106.229 17.22 106.48 18.9311C106.643 20.0445 107.755 21.1401 110.252 22.6462C112.627 24.0789 114.014 25.2571 114.566 26.3127C116.043 29.1348 114.782 32.1549 111.491 33.6766C109.801 34.4577 106.97 34.5384 104.979 33.8623L103.705 33.4293V31.3925C103.705 29.5478 103.749 29.3553 104.169 29.3553C104.521 29.3553 104.673 29.5878 104.796 30.3161C105.103 32.1269 106.48 33.2263 108.44 33.2263C110.36 33.2263 111.702 32.1773 112.216 30.2751C112.435 29.4648 112.397 29.166 111.963 28.2721C111.442 27.2004 110.546 26.4892 107.502 24.733C105.812 23.7583 104.618 22.4552 104.229 21.1634ZM44.5524 16.0483C44.137 16.0483 43.975 15.9125 43.975 15.5644C43.975 15.1035 44.137 15.0805 47.3921 15.0805C50.4133 15.0805 50.8 15.126 50.7307 15.4727C50.6873 15.6885 50.2698 15.9878 49.8024 16.138L48.9524 16.4112L48.88 22.5808C48.8313 26.6977 48.8997 29.0725 49.085 29.7181C49.6362 31.6383 51.3175 32.7425 53.6897 32.7425C55.3412 32.7425 56.3059 32.3564 57.5179 31.2098C58.8215 29.9771 59.0294 28.8058 59.0253 22.7183C59.0214 16.7137 58.9168 16.2181 57.6272 16.0935C57.0403 16.0367 56.8437 15.8999 56.8437 15.5491C56.8437 15.1117 57.0373 15.0805 59.7573 15.0805C62.5091 15.0805 62.6709 15.1073 62.6709 15.5644C62.6709 15.8625 62.5077 16.0497 62.246 16.0519C61.1215 16.0618 61.1008 16.1688 60.9494 22.7531C60.7924 29.5906 60.6458 30.4002 59.26 32.0751C58.8604 32.5583 57.9074 33.2599 57.1423 33.6344C55.8955 34.2445 55.4989 34.3146 53.323 34.3106C51.3171 34.3065 50.6839 34.2096 49.6809 33.7531C48.2169 33.0866 47.2647 32.224 46.5628 30.9279C46.0728 30.0231 46.0309 29.5335 45.9175 23.4034C45.7876 16.3865 45.7246 16.0483 44.5524 16.0483ZM67.2728 16.0483C66.7177 16.0483 66.5558 15.9389 66.5558 15.5644C66.5558 15.1107 66.7109 15.0817 69.0445 15.1003L71.5333 15.1202L72.7241 16.4915C73.3785 17.2457 75.5126 19.6049 77.4659 21.7339C79.4193 23.8631 81.6619 26.3399 82.4493 27.2381C83.237 28.1365 83.9782 28.8714 84.0967 28.8714C84.2184 28.8714 84.279 26.3339 84.2356 23.0434L84.159 17.2154L83.4777 16.6318C83.1031 16.3108 82.5297 16.0483 82.2031 16.0483C81.7688 16.0483 81.6097 15.9166 81.6097 15.5576C81.6097 15.0851 81.7337 15.0694 84.9481 15.1342C87.6815 15.1894 88.2867 15.2656 88.2867 15.5545C88.2867 15.7604 87.9487 15.9764 87.4751 16.073C87.0289 16.1639 86.537 16.3643 86.3825 16.5181C86.1831 16.7168 86.0815 19.2851 86.0321 25.375L85.9624 33.9521H85.2587C84.6529 33.9521 83.9318 33.2704 80.0764 29.0528C77.6131 26.3579 74.7378 23.1553 73.6869 21.9358C72.6358 20.7161 71.694 19.7089 71.5939 19.6978C71.3121 19.6663 71.3802 30.5632 71.6685 31.5976C71.8933 32.4036 72.0478 32.5423 73.0028 32.797C73.7718 33.0019 74.0828 33.2098 74.0828 33.5185C74.0828 33.9149 73.7896 33.9521 70.6835 33.9521C67.5216 33.9521 67.2843 33.9206 67.2843 33.4986C67.2843 33.1897 67.513 32.9994 68.0016 32.902C69.4843 32.6066 69.5827 32.1376 69.6659 24.9696C69.7124 20.9549 69.6441 18.146 69.485 17.5578C69.2056 16.5235 68.5092 16.0483 67.2728 16.0483ZM92.7323 16.0483C92.2122 16.0483 92.0503 15.9334 92.0503 15.5644C92.0503 15.102 92.2122 15.0805 95.6923 15.0805C99.1723 15.0805 99.3344 15.102 99.3344 15.5644C99.3344 15.9193 99.1723 16.0483 98.7273 16.0483C98.3936 16.0483 97.8974 16.2704 97.6249 16.5419C97.144 17.0211 97.1316 17.2595 97.2001 24.6669C97.2668 31.8978 97.2953 32.3162 97.7417 32.6413C98.0011 32.83 98.4653 32.9844 98.7737 32.9844C99.1723 32.9844 99.3344 33.1239 99.3344 33.4684C99.3344 33.9307 99.1723 33.9521 95.6923 33.9521C92.295 33.9521 92.0503 33.9217 92.0503 33.4993C92.0503 33.1587 92.2886 33.0083 93.0122 32.893C94.449 32.664 94.5224 32.1953 94.4328 23.8312C94.3613 17.1329 94.3305 16.7153 93.8856 16.3913C93.6262 16.2026 93.1074 16.0483 92.7323 16.0483ZM118.138 16.0483C117.805 16.0483 117.553 15.8642 117.474 15.5644C117.352 15.0965 117.467 15.0805 120.967 15.0805C124.424 15.0805 124.586 15.102 124.586 15.5644C124.586 15.9362 124.424 16.0483 123.887 16.0483C122.359 16.0483 122.393 16.325 124.706 22.6524C125.884 25.8732 127.027 28.9328 127.247 29.4513L127.646 30.3942L129.501 25.4592C131.684 19.6501 131.967 18.5759 131.597 17.5164C131.338 16.778 130.334 16.0483 129.576 16.0483C129.361 16.0483 129.199 15.8402 129.199 15.5644C129.199 15.1013 129.361 15.0805 132.963 15.0805C136.564 15.0805 136.726 15.1013 136.726 15.5644C136.726 15.9087 136.564 16.0483 136.166 16.0483C135.145 16.0483 134.695 16.5907 134.841 17.6446C134.992 18.7295 139.168 30.3895 139.343 30.215C139.628 29.9313 144.253 17.3792 144.253 16.89C144.253 16.3038 143.841 16.0483 142.898 16.0483C142.473 16.0483 142.311 15.915 142.311 15.5644C142.311 15.1073 142.473 15.0805 145.224 15.0805C147.696 15.0805 148.138 15.1376 148.138 15.456C148.138 15.6626 147.835 15.9367 147.465 16.0652C146.633 16.3543 146.424 16.6843 145.38 19.3576C144.921 20.5315 143.486 24.2054 142.191 27.5215C140.895 30.8379 139.78 33.696 139.712 33.8727C139.644 34.0496 139.242 34.1942 138.819 34.1942H138.051L136.307 29.6577C135.347 27.1628 134.214 24.2069 133.788 23.0892C133.059 21.1739 132.997 21.0907 132.723 21.6374C132.563 21.9568 131.41 24.9179 130.162 28.2178L127.892 34.2178L127.045 34.1455L126.198 34.0732L122.967 25.624C121.162 20.9035 119.502 16.926 119.205 16.6115C118.913 16.3016 118.433 16.0483 118.138 16.0483ZM166.687 16.1509C166.646 16.059 166.646 15.7287 166.646 15.7287C166.646 15.7287 166.637 15.6095 166.687 15.546C166.737 15.4826 166.755 15.481 166.933 15.464L166.935 15.4638C167.59 15.4015 168.906 15.2965 170.003 15.2486C170.104 15.2442 170.216 15.2392 170.337 15.2337L170.339 15.2336L170.341 15.2335L170.342 15.2334C171.55 15.1786 173.712 15.1053 175.198 15.1796C178.048 15.322 180.076 16.7 180.767 18.9771C181.458 21.2541 181.092 23.3915 180.151 24.7521C179.209 26.1127 177.625 27.2841 174.992 27.2079C172.819 27.145 172.238 26.738 171.773 26.413C171.675 26.3442 171.582 26.2791 171.48 26.2218V29.1256C171.503 31.1061 171.52 32.0573 171.673 32.4094C171.88 32.8834 172.347 33.1754 173.257 33.3992C173.257 33.3992 173.669 33.4958 173.775 33.5987C173.881 33.7016 173.881 33.9301 173.881 33.9301C173.881 33.9301 173.903 34.1438 173.817 34.2528C173.732 34.3617 173.567 34.3399 173.567 34.3399L169.537 34.3074L167.107 34.301C167.107 34.301 166.852 34.3499 166.757 34.2473C166.661 34.1446 166.67 33.9307 166.67 33.9307C166.67 33.9307 166.691 33.7003 166.803 33.5972C166.914 33.4939 167.329 33.3786 167.329 33.3786C168.266 33.1155 168.672 32.8372 168.885 32.3129C169.056 31.8901 169.057 31.1063 169.055 24.7095C169.054 18.6432 169.045 17.5116 168.906 17.1861C168.7 16.7044 168.184 16.5767 167.45 16.395L167.45 16.3949C167.305 16.3589 167.151 16.3207 166.989 16.2773C166.989 16.2773 166.727 16.2428 166.687 16.1509ZM178.421 21.1008C178.421 22.0956 178.404 23.653 177.345 24.6485C176.286 25.6439 174.201 25.9164 172.785 25.6392C172.339 25.5519 172.084 25.4173 171.887 25.3134L171.868 25.3031L171.505 25.1123L171.484 21.6173C171.471 19.4274 171.494 18.0007 171.546 17.7967C171.593 16.642 173.296 16.4984 174.128 16.5411C177.689 16.5411 178.317 19.541 178.421 21.1008ZM155.506 15.216C155.506 15.216 155.333 15.2827 155.069 15.3827L154.118 15.8737L153.434 17.5828C153.057 18.5227 152.368 20.2483 151.903 21.4173C151.056 23.5465 150.496 24.9454 149.907 26.4054C149.734 26.8349 149.211 28.1427 148.745 29.3117C148.279 30.4806 147.813 31.593 147.71 31.7838C147.693 31.8156 147.675 31.8498 147.656 31.8858C147.395 32.3756 146.942 33.2263 146.143 33.3549C146.143 33.3549 145.703 33.3981 145.541 33.5589C145.378 33.7198 145.394 33.8513 145.394 33.8513V34.0539C145.394 34.0539 145.408 34.1521 145.501 34.2009C145.593 34.25 145.718 34.2528 145.718 34.2528L148.642 34.2195H151.664C151.664 34.2195 151.878 34.2445 151.96 34.1762C152.043 34.1078 152.065 34.0064 152.065 34.0064V33.793C152.065 33.793 152.023 33.5617 151.904 33.4714C151.784 33.3812 151.336 33.3194 151.336 33.3194C150.126 33.1604 149.917 32.2453 150.067 31.4223C150.14 31.018 150.626 29.5224 151.174 28.0167L151.363 27.4963L154.53 27.4721C156.272 27.4588 157.776 27.4678 157.872 27.4922C158.009 27.5269 158.202 27.9177 158.767 29.3097C159.623 31.4186 159.691 31.6755 159.502 32.07C159.49 32.0941 159.478 32.1206 159.465 32.1491C159.287 32.5307 158.942 33.2721 158.071 33.3476C158.071 33.3476 157.61 33.3636 157.495 33.5016C157.38 33.6398 157.405 33.7987 157.405 33.7987V34.0098C157.405 34.0098 157.436 34.1335 157.495 34.1825C157.554 34.2315 157.654 34.2192 157.654 34.2192L160.529 34.1985L164.57 34.1983C164.57 34.1983 164.728 34.2152 164.771 34.1544C164.814 34.0933 164.823 34.0216 164.823 34.0216V33.7412C164.823 33.7412 164.806 33.5921 164.728 33.5099C164.65 33.4278 164.126 33.341 164.126 33.341C163.457 33.2331 163.124 32.6806 162.875 32.2691C162.812 32.1641 162.754 32.0684 162.698 31.9915C162.583 31.8347 162.172 30.9754 161.85 30.1489C161.528 29.3224 160.802 27.4554 160.237 26.0002C159.671 24.545 158.882 22.5149 158.483 21.4892C158.084 20.4633 157.326 18.5114 156.798 17.1515C156.711 16.9283 156.633 16.7279 156.564 16.5484L156.564 16.5476C156.21 15.6344 156.067 15.2659 156.028 15.216C155.901 15.054 155.506 15.216 155.506 15.216ZM155.318 20.773C155.191 20.4629 154.966 19.9067 154.819 19.5369C154.553 18.8648 154.452 18.71 154.369 18.8488C154.345 18.8894 154.177 19.3487 153.996 19.8697C152.824 23.2424 152.293 24.7611 152.187 25.0473C152.12 25.2272 152.065 25.4126 152.065 25.4593C152.065 25.5131 153.019 25.5444 154.652 25.5444C156.074 25.5444 157.238 25.5268 157.238 25.5052C157.238 25.4836 157.111 25.1617 156.956 24.7895C156.801 24.4173 156.421 23.4883 156.112 22.7249C155.803 21.9615 155.446 21.0832 155.318 20.773Z" fill="url(#paint0_linear_2935_198)"/>
<defs>
<linearGradient id="paint0_linear_2935_198" x1="-7.35146" y1="23.303" x2="220.461" y2="44.1806" gradientUnits="userSpaceOnUse">
<stop stop-color="#FEDBA8"/>
<stop offset="0.878478" stop-color="#CF75D5"/>
</linearGradient>
</defs>
</svg>
