<svg width="32" height="32" viewBox="0 0 32 32" fill="none" xmlns="http://www.w3.org/2000/svg">
<path d="M16.0534 31.9466C24.8605 31.917 31.9761 24.7536 31.9466 15.9466C31.917 7.13952 24.7536 0.0239232 15.9466 0.0534356C7.13952 0.082948 0.0239245 7.24639 0.0534369 16.0534C0.0829493 24.8605 7.24639 31.9761 16.0534 31.9466Z" fill="#0074F0"/>
<path opacity="0.2" d="M25.9667 25.9038C31.4344 20.3996 31.407 11.4999 25.9028 6.0322C20.3987 0.564548 11.4989 0.591931 6.03125 6.0961L25.9667 25.9038Z" fill="white"/>
<path d="M15.3479 9.70186C15.562 9.67998 15.7792 9.66877 15.9991 9.66877C19.4944 9.66877 22.328 12.5023 22.328 15.9977C22.328 18.7233 20.6049 21.0466 18.1886 21.9376L16.0412 24.9576C20.9703 24.9349 24.9591 20.9321 24.9591 15.9977C24.9591 11.3642 21.442 7.55217 16.9319 7.08563L15.3479 9.70186Z" fill="white"/>
<path d="M15.7957 7.03992C10.9412 7.148 7.03906 11.1171 7.03906 15.9977C7.03906 20.5636 10.4544 24.3319 14.8697 24.8872L16.7193 22.286C16.4829 22.3128 16.2426 22.3265 15.9991 22.3265C12.5037 22.3265 9.67017 19.493 9.67017 15.9977C9.67017 13.1967 11.4897 10.8207 14.0113 9.98721L15.7957 7.03992Z" fill="white"/>
<path d="M18.1904 21.9376C20.6067 21.0466 22.3297 18.7234 22.3297 15.9977H24.9608C24.9608 20.9321 20.972 24.9349 16.043 24.9576L18.1904 21.9376Z" fill="url(#paint0_linear_338_3852)"/>
<path d="M15.7957 7.03992C10.9412 7.148 7.03906 11.1171 7.03906 15.9977C7.03906 15.9977 9.67017 16.0355 9.67017 15.9977C9.67017 13.1967 11.4897 10.8207 14.0113 9.98721L15.7957 7.03992Z" fill="url(#paint1_linear_338_3852)"/>
<path d="M15.9847 23.3223L20.4836 16.9868L15.9847 19.6418L11.4883 16.9868L15.9847 23.3223Z" fill="white"/>
<path opacity="0.1" d="M15.9844 23.3223L20.4833 16.9868L15.9844 19.6418V23.3223Z" fill="#0074F0"/>
<path d="M15.9705 18.801L20.4917 16.1411L15.9705 8.6734L11.4492 16.1411L15.9705 18.801Z" fill="url(#paint2_linear_338_3852)"/>
<path d="M15.9705 18.801L20.4917 16.1411L15.9705 8.6734L11.4492 16.1411L15.9705 18.801Z" fill="white"/>
<path opacity="0.1" d="M15.9687 18.8008L11.4475 16.1411L15.9688 8.6734L15.9687 18.8008Z" fill="#0074F0"/>
<path opacity="0.1" d="M15.9705 18.801V14.0215L11.4492 16.1411L15.9705 18.801Z" fill="#0074F0"/>
<path opacity="0.1" d="M15.9709 18.801V14.0215L20.4922 16.1411L15.9709 18.801Z" fill="#0074F0"/>
<defs>
<linearGradient id="paint0_linear_338_3852" x1="10.1016" y1="27.2243" x2="19.9694" y2="20.7604" gradientUnits="userSpaceOnUse">
<stop stop-color="#1A82FF" stop-opacity="0.5"/>
<stop offset="1" stop-color="white"/>
</linearGradient>
<linearGradient id="paint1_linear_338_3852" x1="20.8346" y1="2.91561" x2="11.3931" y2="9.73744" gradientUnits="userSpaceOnUse">
<stop stop-color="#1A82FF" stop-opacity="0.5"/>
<stop offset="1" stop-color="white"/>
</linearGradient>
<linearGradient id="paint2_linear_338_3852" x1="6.35161" y1="11.3777" x2="14.2725" y2="16.2114" gradientUnits="userSpaceOnUse">
<stop stop-color="#1C313F"/>
<stop offset="1" stop-color="white"/>
</linearGradient>
</defs>
</svg>
