<svg width="28" height="28" viewBox="0 0 28 28" fill="none" xmlns="http://www.w3.org/2000/svg">
<path d="M14 0C10.2873 0 6.72631 1.47459 4.10078 4.10079C1.47525 6.72632 0 10.2873 0 14C0 17.7127 1.47543 21.2737 4.10078 23.8992C6.72631 26.5254 10.2873 28 14 28C17.7135 28 21.2745 26.5254 23.9001 23.8992C26.5256 21.2737 28 17.7127 28 14C27.9966 10.2882 26.5195 6.72957 23.8949 4.10513C21.2703 1.48068 17.7118 0.004339 14 0ZM18.5017 16.4873C19.0576 17.0433 19.0576 17.945 18.5017 18.5009C17.9458 19.0568 17.0441 19.0568 16.4881 18.5009L14.0008 16.0136L11.5135 18.5009C10.9559 19.0492 10.0609 19.0458 9.50839 18.4924C8.955 17.9399 8.95161 17.0441 9.49992 16.4873L11.9873 14L9.49992 11.5127H9.49907C8.95077 10.9559 8.95416 10.0601 9.50754 9.50756C10.0601 8.95416 10.955 8.95078 11.5126 9.49908L14 11.9864L16.4873 9.49908C17.0432 8.94315 17.945 8.94315 18.5009 9.49908C19.0568 10.055 19.0568 10.9567 18.5009 11.5126L16.0135 14L18.5017 16.4873Z" fill="#FF4E4E"/>
</svg>
