<svg width="30" height="30" viewBox="0 0 30 30" fill="none" xmlns="http://www.w3.org/2000/svg">
<path d="M24.5176 10.6552L27.3592 12.3448L28.9998 9.41824" stroke="#66FE90" stroke-linecap="round" stroke-linejoin="round"/>
<path d="M5.20508 20.9822L2.12132 19.8275L1.00021 23.0035" stroke="#66FE90" stroke-linecap="round" stroke-linejoin="round"/>
<path fill-rule="evenodd" clip-rule="evenodd" d="M26.812 12.1035C25.5339 6.30018 20.4972 1.98279 14.5006 1.98279C8.50399 1.98279 3.46728 6.30018 2.18909 12.1035H1.16715C2.46332 5.76035 7.93037 0.982788 14.5006 0.982788C21.0708 0.982788 26.5378 5.76035 27.834 12.1035H26.812ZM26.2293 19.8276H27.2954C25.3848 25.1848 20.3851 29.0173 14.5006 29.0173C8.61601 29.0173 3.61637 25.1848 1.70572 19.8276H2.77188C4.63345 24.6321 9.1907 28.0173 14.5006 28.0173C19.8104 28.0173 24.3677 24.6321 26.2293 19.8276Z" fill="#66FE90"/>
</svg>
