<svg width="28" height="28" viewBox="0 0 28 28" fill="none" xmlns="http://www.w3.org/2000/svg">
<path d="M14 0C10.2873 0 6.72631 1.47459 4.10078 4.10079C1.47525 6.72632 0 10.2873 0 14C0 17.7127 1.47543 21.2737 4.10078 23.8992C6.72631 26.5254 10.2873 28 14 28C17.7135 28 21.2745 26.5254 23.9001 23.8992C26.5256 21.2737 28 17.7127 28 14C27.9966 10.2882 26.5195 6.72957 23.8949 4.10513C21.2703 1.48068 17.7118 0.004339 14 0ZM20.7458 11.5832L13.1762 18.5171C12.5983 19.0468 11.7 19.0086 11.1678 18.4324L7.16937 14.0977C6.91344 13.8198 6.77868 13.4519 6.79393 13.0748C6.80919 12.6977 6.9736 12.3418 7.25073 12.0858C7.82955 11.5528 8.72954 11.5892 9.26259 12.1672L12.2982 15.4588L18.8218 9.48331H18.8227C19.1006 9.22568 19.4693 9.08924 19.8481 9.1045C20.2269 9.11975 20.5846 9.28585 20.8405 9.56552C21.0964 9.84519 21.2303 10.2155 21.2125 10.5943C21.1947 10.9723 21.0272 11.3281 20.7458 11.5832Z" fill="#5BFF92"/>
</svg>
