<svg xmlns="http://www.w3.org/2000/svg" width="111" height="22" viewBox="0 0 111 22">
    <path fill-rule="evenodd" d="M111 8.674c-.262-.043-.545-.065-.85-.065-1.134 0-1.903.48-2.308 1.438v7.122h-1.728V7.135h1.682l.028 1.16c.566-.897 1.37-1.346 2.41-1.346.336 0 .592.044.766.13v1.595zM99.576 8.36c-.698 0-1.283.252-1.757.756-.473.504-.766 1.21-.878 2.119h5.063v-.13c-.05-.872-.286-1.547-.71-2.026-.423-.48-.996-.719-1.718-.719zm.214 8.995c-1.37 0-2.484-.446-3.344-1.34-.86-.893-1.289-2.088-1.289-3.584v-.315c0-.996.192-1.884.575-2.666.383-.782.918-1.394 1.606-1.836.688-.442 1.434-.664 2.238-.664 1.314 0 2.335.43 3.064 1.29.728.859 1.093 2.09 1.093 3.69v.714h-6.848c.025.99.316 1.789.874 2.397.557.61 1.266.914 2.125.914.61 0 1.127-.124 1.55-.371.424-.247.795-.575 1.112-.983l1.056.816c-.847 1.292-2.118 1.938-3.812 1.938zm-10.536-1.4c.616 0 1.155-.186 1.616-.557.46-.37.716-.834.766-1.39h1.634c-.03.574-.23 1.121-.597 1.64-.368.52-.858.934-1.472 1.243-.613.31-1.262.464-1.947.464-1.377 0-2.471-.456-3.284-1.368-.813-.911-1.22-2.159-1.22-3.741v-.288c0-.977.182-1.845.543-2.606.36-.76.88-1.35 1.555-1.77.676-.421 1.475-.632 2.396-.632 1.134 0 2.076.338 2.826 1.011.75.674 1.15 1.549 1.2 2.625h-1.634c-.05-.65-.298-1.183-.743-1.6-.445-.417-.995-.626-1.649-.626-.878 0-1.558.314-2.04.941-.484.628-.725 1.535-.725 2.722v.325c0 1.156.24 2.046.72 2.67.479.625 1.164.937 2.055.937zM75.895 7.135l.057 1.261c.772-.964 1.78-1.447 3.026-1.447 2.136 0 3.214 1.197 3.232 3.59v6.63h-1.728v-6.64c-.006-.723-.173-1.258-.5-1.604-.326-.346-.836-.52-1.527-.52-.56 0-1.053.149-1.476.446-.423.296-.754.686-.99 1.168v7.15H74.26V7.135h1.634zm-9.051 8.726c.542 0 1.056-.139 1.541-.417.486-.278.838-.64 1.056-1.085V12.3h-1.355c-2.117 0-3.176.615-3.176 1.846 0 .537.18.958.542 1.26.361.304.825.455 1.392.455zm2.868 1.308c-.1-.198-.18-.55-.243-1.058-.803.829-1.763 1.243-2.877 1.243-.997 0-1.814-.28-2.452-.839-.639-.56-.958-1.269-.958-2.128 0-1.045.4-1.856 1.2-2.435.8-.577 1.926-.867 3.377-.867h1.682v-.788c0-.6-.18-1.077-.542-1.432-.361-.356-.894-.534-1.597-.534-.617 0-1.134.155-1.551.464-.417.31-.626.683-.626 1.122h-1.737c0-.5.179-.984.537-1.451.358-.467.844-.836 1.457-1.109.613-.271 1.288-.408 2.022-.408 1.165 0 2.077.29 2.738.868.66.578 1.002 1.374 1.027 2.387v4.619c0 .92.118 1.653.355 2.197v.149h-1.812zm-11.116 0h1.728V2.925h-1.728v14.244zm-7.567-1.308c.542 0 1.056-.139 1.542-.417.485-.278.837-.64 1.055-1.085V12.3h-1.354c-2.118 0-3.176.615-3.176 1.846 0 .537.18.958.541 1.26.362.304.826.455 1.392.455zm2.868 1.308c-.1-.198-.18-.55-.243-1.058-.803.829-1.762 1.243-2.877 1.243-.996 0-1.814-.28-2.452-.839-.638-.56-.957-1.269-.957-2.128 0-1.045.4-1.856 1.2-2.435.8-.577 1.926-.867 3.377-.867h1.681v-.788c0-.6-.18-1.077-.541-1.432-.362-.356-.894-.534-1.598-.534-.616 0-1.133.155-1.55.464-.418.31-.626.683-.626 1.122h-1.738c0-.5.179-.984.537-1.451.358-.467.844-.836 1.457-1.109.614-.271 1.288-.408 2.023-.408 1.164 0 2.077.29 2.737.868.66.578 1.002 1.374 1.027 2.387v4.619c0 .92.119 1.653.356 2.197v.149h-1.813zm-16.469-6.315v4.859h2.962c.834 0 1.493-.215 1.976-.645.482-.43.724-1.021.724-1.776 0-1.625-.891-2.438-2.672-2.438h-2.99zm0-1.429h2.71c.784 0 1.412-.195 1.882-.585.47-.39.705-.92.705-1.589 0-.744-.218-1.284-.654-1.622-.436-.337-1.099-.506-1.99-.506h-2.653v4.302zm-1.793 7.744V3.667h4.447c1.476 0 2.585.303 3.33.909.744.606 1.116 1.502 1.116 2.689 0 .63-.18 1.188-.542 1.674-.361.485-.853.86-1.476 1.126.735.204 1.316.592 1.742 1.164.427.572.64 1.254.64 2.045 0 1.212-.395 2.164-1.186 2.856-.79.693-1.909 1.039-3.354 1.039h-4.717zM13.647 0c4.522 0 8.188 1.216 8.188 2.716 0 1.5-3.666 2.716-8.188 2.716S5.46 4.216 5.46 2.716C5.459 1.216 9.125 0 13.647 0zm3.454 5.889c4.337.48 7.464 1.836 7.464 3.436 0 2-4.888 3.621-10.918 3.621-6.03 0-10.918-1.62-10.918-3.62 0-1.6 3.127-2.958 7.464-3.437 1.062.172 2.23.267 3.454.267 1.182 0 2.31-.088 3.342-.25l.112-.017zm2.064 7.443c4.788.703 8.13 2.293 8.13 4.141 0 2.5-6.11 4.527-13.648 4.527C6.11 22 0 19.973 0 17.473c0-1.848 3.34-3.438 8.13-4.141 1.644.332 3.522.52 5.517.52 1.945 0 3.779-.179 5.394-.495l.124-.025z"/>
</svg>
