<svg xmlns="http://www.w3.org/2000/svg" xmlns:xlink="http://www.w3.org/1999/xlink" width="29" height="29" viewBox="0 0 29 29">
    <defs>
        <path id="j188ftco6a" d="M0 0.049L28.913 0.049 28.913 28.954 0 28.954z"/>
    </defs>
    <g fill="none" fill-rule="evenodd">
        <g>
            <g>
                <g>
                    <g transform="translate(-891.000000, -322.000000) translate(874.000000, 312.000000) translate(17.000000, 10.000000) translate(0.000000, 0.088645)">
                        <mask id="ccam9fzqgb" fill="#fff">
                            <use xlink:href="#j188ftco6a"/>
                        </mask>
                        <path fill="#2B63F5" d="M14.497 6.074c-4.61 0-8.405 3.718-8.473 8.177-.073 4.706 3.587 8.71 8.459 8.67 4.777-.039 8.344-3.688 8.409-8.377.065-4.678-3.776-8.47-8.395-8.47M0 14.472C0 6.477 6.506-.01 14.58.05c7.902.059 14.372 6.37 14.334 14.507-.038 8.088-6.42 14.384-14.437 14.398C6.353 28.968.027 22.469 0 14.472" mask="url(#ccam9fzqgb)"/>
                    </g>
                    <path fill="#FFF" d="M17.154 14.568c0-.64-.02-1.28.007-1.919.02-.514-.166-.768-.702-.764-1.347.01-2.695.01-4.042 0-.465-.002-.664.213-.663.664.005 1.37.002 2.74.006 4.111.001.407.174.628.623.623 1.37-.013 2.74-.009 4.11-.002.455.003.671-.195.664-.658-.011-.685-.003-1.37-.003-2.055m-2.656-8.406c4.618 0 8.459 3.793 8.394 8.47-.065 4.69-3.632 8.339-8.41 8.377-4.871.04-8.53-3.963-8.458-8.67.068-4.458 3.863-8.177 8.474-8.177" transform="translate(-891.000000, -322.000000) translate(874.000000, 312.000000) translate(17.000000, 10.000000)"/>
                    <path fill="#2B63F5" d="M17.154 14.568c0 .685-.008 1.37.003 2.055.007.463-.209.66-.663.658-1.37-.007-2.741-.011-4.111.002-.449.005-.622-.216-.623-.623-.004-1.37 0-2.74-.006-4.11-.001-.452.198-.667.663-.664 1.347.009 2.695.01 4.042-.001.536-.004.723.25.702.764-.027.639-.007 1.28-.007 1.919" transform="translate(-891.000000, -322.000000) translate(874.000000, 312.000000) translate(17.000000, 10.000000)"/>
                </g>
            </g>
        </g>
    </g>
</svg>
