<svg xmlns="http://www.w3.org/2000/svg" width="30" height="30" viewBox="0 0 30 30">
    <path fill="#BDCBD5" fill-rule="evenodd" d="M16.61 16.784c-.49 0-.893-.438-.893-.971 0-.534.394-.972.893-.972s.893.438.893.972c0 .533-.394.97-.893.97zm-3.194 0c-.49 0-.892-.438-.892-.971 0-.534.394-.972.892-.972.499 0 .902.438.893.972 0 .533-.394.97-.893.97zm5.486-4.288c-1.26-.945-2.458-.919-2.458-.919l-.123.14c1.488.455 2.179 1.112 2.179 1.112-.91-.499-1.802-.744-2.634-.84-.63-.07-1.233-.053-1.767.017l-.149.018c-.306.026-1.05.14-1.986.551l-.517.254s.727-.692 2.302-1.147l-.088-.105s-1.198-.026-2.458.92c0 0-1.26 2.283-1.26 5.1 0 0 .735 1.27 2.668 1.33l.586-.726c-1.11-.332-1.53-1.032-1.53-1.032l.244.148.035.027.035.02.009.003.035.02c.219.123.438.22.639.298.359.14.787.28 1.286.376.656.123 1.426.166 2.266.009.412-.07.831-.192 1.269-.376.306-.114.648-.28 1.006-.517 0 0-.437.718-1.584 1.042l.578.708c1.961-.108 2.678-1.33 2.678-1.33 0-2.817-1.26-5.1-1.26-5.1zM22.657 25l-1.881-1.663-1.059-.98-1.12-1.04.464 1.618H9.138c-.99 0-1.794-.805-1.794-1.802V9.303c0-.998.805-1.803 1.793-1.803h11.726c.988 0 1.793.805 1.793 1.803V25zM15 0C6.718 0 0 6.715 0 15c0 8.284 6.718 15 15 15 8.284 0 15-6.716 15-15 0-8.285-6.716-15-15-15z"/>
</svg>
