<svg xmlns="http://www.w3.org/2000/svg" width="387" height="322" viewBox="0 0 387 322">
    <defs>
        <linearGradient id="14b9n1ie9a" x1="50.968%" x2="41.008%" y1="79.399%" y2="-12.429%">
            <stop offset=".058%" stop-color="#FFF"/>
            <stop offset="100%" stop-color="#1E313F"/>
        </linearGradient>
        <linearGradient id="wo4ibfbfxb" x1="48.217%" x2="58.076%" y1="17.731%" y2="112.387%">
            <stop offset=".058%" stop-color="#FFF"/>
            <stop offset="99.67%" stop-color="#4E5A64"/>
        </linearGradient>
    </defs>
    <g fill="none">
        <g stroke="#FFF" transform="translate(139.174 102.549)">
            <ellipse cx="54.571" cy="164.2" fill="#1A82FF" opacity=".1" rx="54.204" ry="53.838"/>
            <ellipse cx="55.059" cy="159.683" fill="#1881FE" opacity=".182" rx="54.571" ry="54.204"/>
            <ellipse cx="57.623" cy="147.597" fill="#1581FD" opacity=".264" rx="54.937" ry="54.571"/>
            <ellipse cx="63.727" cy="130.139" fill="#1380FC" opacity=".345" rx="55.425" ry="54.937"/>
            <ellipse cx="75.203" cy="109.385" fill="#117FFB" opacity=".427" rx="55.791" ry="55.303"/>
            <ellipse cx="93.026" cy="88.021" fill="#0E7EFA" opacity=".509" rx="56.158" ry="55.669"/>
            <ellipse cx="112.438" cy="74.226" fill="#0C7EF9" opacity=".591" rx="56.524" ry="56.036"/>
            <ellipse cx="133.558" cy="65.68" fill="#097DF8" opacity=".673" rx="56.89" ry="56.402"/>
            <ellipse cx="154.19" cy="61.041" fill="#077CF7" opacity=".754" rx="57.256" ry="56.768"/>
            <ellipse cx="171.891" cy="59.21" fill="#057BF6" opacity=".836" rx="57.623" ry="57.134"/>
            <ellipse cx="184.222" cy="58.966" fill="#027BF5" opacity=".918" rx="57.989" ry="57.501"/>
            <ellipse cx="188.861" cy="59.088" fill="#007AF4" rx="58.355" ry="57.989"/>
        </g>
        <g stroke="#FFF" transform="translate(0 102.549)">
            <ellipse cx="193.744" cy="164.2" fill="#1A82FF" opacity=".1" rx="54.204" ry="53.838"/>
            <ellipse cx="193.378" cy="159.683" fill="#1881FE" opacity=".182" rx="54.571" ry="54.204"/>
            <ellipse cx="190.814" cy="147.597" fill="#1581FD" opacity=".264" rx="54.937" ry="54.571"/>
            <ellipse cx="184.71" cy="130.139" fill="#1380FC" opacity=".345" rx="55.425" ry="54.937"/>
            <ellipse cx="173.234" cy="109.385" fill="#117FFB" opacity=".427" rx="55.791" ry="55.303"/>
            <ellipse cx="155.41" cy="88.021" fill="#0E7EFA" opacity=".509" rx="56.158" ry="55.669"/>
            <ellipse cx="135.999" cy="74.226" fill="#0C7EF9" opacity=".591" rx="56.524" ry="56.036"/>
            <ellipse cx="114.879" cy="65.68" fill="#097DF8" opacity=".673" rx="56.89" ry="56.402"/>
            <ellipse cx="94.247" cy="61.041" fill="#077CF7" opacity=".754" rx="57.256" ry="56.768"/>
            <ellipse cx="76.545" cy="59.21" fill="#057BF6" opacity=".836" rx="57.623" ry="57.134"/>
            <ellipse cx="64.215" cy="58.966" fill="#027BF5" opacity=".918" rx="57.989" ry="57.501"/>
            <ellipse cx="59.454" cy="59.088" fill="#007AF4" rx="58.355" ry="57.989"/>
        </g>
        <g transform="translate(2 104)">
            <circle cx="57.406" cy="57.596" r="57.215" fill="#1E313F" transform="rotate(-.192 57.406 57.596)"/>
            <path fill="#FFF" d="M93.188 93.093c19.626-19.769 19.531-51.655-.238-71.281-19.768-19.626-51.655-19.531-71.28.238l71.518 71.043z" opacity=".2"/>
            <g>
                <path fill="url(#14b9n1ie9a)" d="M7.275 55.774c-.539-.592-1.024-1.293-1.509-1.94-.216-.269-.377-.538-.593-.862-.054-.054-.107-.108-.107-.215l-.485-.809c-.054-.107-.108-.161-.162-.27-.162-.269-.323-.538-.431-.807l-.162-.324c-.162-.27-.27-.539-.431-.808l-.162-.323c-.107-.27-.27-.54-.377-.809l-.162-.323c-.107-.27-.215-.593-.377-.862 0-.054-.054-.108-.054-.162-.27-.647-.485-1.347-.7-2.048 0-.054-.054-.107-.054-.161-.054-.27-.162-.485-.216-.755-.054-.215-.107-.377-.161-.593-.054-.215-.108-.485-.162-.7l-.162-.647c-.054-.215-.107-.43-.107-.646-.054-.216-.108-.485-.108-.701-.054-.216-.054-.431-.108-.647-.054-.27-.054-.539-.108-.754 0-.216-.054-.431-.054-.647-.054-.27-.054-.539-.107-.862 0-.216-.054-.377-.054-.593 0-.323-.054-.646-.054-.97v-.485c0-.485-.054-.97-.054-1.455 0-.485 0-.97.054-1.4v-.432c0-.323.054-.647.054-.97 0-.162 0-.323.054-.485 0-.323.053-.647.107-.916 0-.162.054-.323.054-.485.054-.377.108-.754.162-1.078 0-.108 0-.161.054-.27.054-.43.161-.861.215-1.346 0-.162.054-.27.108-.432.054-.323.108-.592.216-.916.054-.161.054-.323.107-.485.054-.269.162-.538.216-.808l.162-.485c.107-.27.161-.593.27-.862.053-.108.107-.27.107-.377.162-.378.27-.809.431-1.186.054-.108.108-.27.162-.377l.323-.808c.054-.162.162-.324.216-.485.107-.216.215-.485.323-.701.054-.162.162-.323.215-.485.108-.216.216-.485.378-.7.054-.162.161-.27.215-.432.216-.377.377-.7.593-1.024-.431 1.617-.647 3.342-.647 5.228 0 6.358 2.695 11.208 8.03 14.496.27 5.712 1.94 10.238 4.796 13.148l-9.754 6.251z" transform="translate(29.633 22.98)"/>
                <path fill="url(#wo4ibfbfxb)" d="M38.26 21.501c1.671 2.48 2.695 5.659 3.072 9.43 1.348.648 2.587 1.402 3.61 2.21 3.935 3.072 5.982 7.599 5.982 13.31 0 .701-.053 1.402-.107 2.048v-.053c.215-.485.377-.916.539-1.401.053-.108.107-.27.161-.378.108-.323.216-.7.324-1.024l.161-.485.162-.646c.054-.27.162-.54.215-.809l.162-.646c.054-.216.108-.485.162-.7.054-.162.054-.324.108-.486.053-.377.161-.754.215-1.078 0-.161.054-.269.054-.43.054-.378.108-.809.162-1.186 0-.108 0-.162.054-.27.053-.377.053-.754.107-1.131v-.27c.054-.43.054-.862.054-1.293v-.27-1.4c0-.486 0-1.024-.054-1.51v-.484c0-.324-.054-.647-.054-1.024 0-.216-.053-.378-.053-.593 0-.27-.054-.593-.108-.862 0-.216-.054-.431-.054-.593-.054-.27-.054-.539-.108-.808-.054-.216-.054-.432-.108-.647-.054-.27-.107-.539-.161-.755-.054-.215-.108-.43-.108-.646-.054-.27-.108-.485-.162-.755l-.161-.646c-.054-.216-.108-.485-.216-.7l-.162-.647c-.054-.216-.161-.432-.215-.701-.054-.216-.162-.431-.216-.647-.054-.215-.161-.43-.215-.646-.054-.216-.162-.431-.216-.647-.108-.216-.162-.431-.27-.647-.107-.215-.161-.43-.269-.646-.108-.216-.161-.378-.27-.593-.107-.216-.215-.431-.269-.593-.107-.215-.215-.377-.323-.593-.108-.215-.216-.377-.323-.592-.108-.162-.216-.378-.324-.54-.107-.215-.215-.377-.323-.592-.108-.162-.216-.323-.323-.539-.378-.539-.7-1.078-1.132-1.617-.27-.377-.539-.7-.862-1.077L38.26 21.5z" transform="translate(29.633 22.98)"/>
                <path fill="#FFF" d="M32.387 29.261c-.593-.107-1.132-.215-1.67-.323-7.222-1.455-12.503-2.479-12.503-7.544 0-3.126 3.072-5.605 8.622-5.605 4.904 0 8.838 1.994 11.425 5.766.215.324.43.647.592.97-.215-.323-.377-.646-.592-.97l8.19-8.245c-3.125-3.718-7.113-6.305-11.64-7.706-.592-.161-1.239-.323-1.885-.485h-.054c-.377-.053-.755-.161-1.132-.215-.108-2.695-2.263-4.796-4.958-4.796-2.694 0-4.85 2.155-4.957 4.796-.485.108-.97.162-1.455.27h-.054c-5.12 1.185-9.538 3.88-12.987 7.92-1.455 2.426-2.156 5.336-2.156 8.73 0 11.533 8.676 15.197 17.19 17.245 1.563.377 3.126.647 4.635.916 5.335.97 9.916 1.778 9.916 6.575 0 2.963-3.288 6.682-10.132 6.682-4.095 0-7.436-1.348-9.861-3.934l.054.054L7.22 55.72c1.347 1.562 2.802 2.91 4.365 4.095.539.377 1.078.754 1.617 1.078.539.323 1.131.646 1.67.916h.054c.539.27 1.132.539 1.724.808.054 0 .054 0 .108.054l1.779.647c.053 0 .053 0 .107.054.27.107.54.161.809.27h.107c.324.107.593.16.917.215.053 0 .107 0 .107.054l.809.161c.054 0 .107 0 .161.054.054 0 .162 0 .216.054 0 2.748 2.21 4.958 4.958 4.958s4.957-2.21 4.957-4.958c.324-.054.647-.108.97-.216h.108c.755-.161 1.455-.377 2.156-.592.377-.108.7-.216 1.077-.378 3.934-1.455 7.437-3.88 10.24-7.22 1.077-1.24 1.993-2.587 2.855-4.042.431-1.563.647-3.341.647-5.173.162-12.34-9.215-15.736-17.352-17.299z" transform="translate(29.633 22.98)"/>
            </g>
        </g>
        <g stroke="#FFF" transform="translate(134.29)">
            <ellipse cx="58.721" cy="266.749" fill="#1A82FF" opacity=".1" rx="54.204" ry="53.838"/>
            <ellipse cx="58.721" cy="247.826" fill="#1881FE" opacity=".182" rx="54.571" ry="54.204"/>
            <ellipse cx="58.721" cy="228.904" fill="#1581FD" opacity=".264" rx="54.937" ry="54.571"/>
            <ellipse cx="58.721" cy="209.981" fill="#1380FC" opacity=".345" rx="55.425" ry="54.937"/>
            <ellipse cx="58.721" cy="191.058" fill="#117FFB" opacity=".427" rx="55.791" ry="55.303"/>
            <ellipse cx="58.721" cy="172.136" fill="#0E7EFA" opacity=".509" rx="56.158" ry="55.669"/>
            <ellipse cx="58.721" cy="153.213" fill="#0C7EF9" opacity=".591" rx="56.524" ry="56.036"/>
            <ellipse cx="58.721" cy="134.29" fill="#097DF8" opacity=".673" rx="56.89" ry="56.402"/>
            <ellipse cx="58.721" cy="115.49" fill="#077CF7" opacity=".754" rx="57.256" ry="56.768"/>
            <ellipse cx="58.721" cy="96.567" fill="#057BF6" opacity=".836" rx="57.623" ry="57.134"/>
            <ellipse cx="58.721" cy="77.644" fill="#027BF5" opacity=".918" rx="57.989" ry="57.501"/>
            <ellipse cx="58.721" cy="58.721" fill="#007AF4" rx="58.355" ry="57.989"/>
        </g>
        <g transform="translate(135.5 1)">
            <circle cx="57.406" cy="57.596" r="57.215" fill="#1E313F" transform="rotate(-.192 57.406 57.596)"/>
            <path fill="#FFF" d="M93.188 93.093c19.626-19.769 19.531-51.655-.238-71.281-19.768-19.626-51.655-19.531-71.28.238l71.518 71.043z" opacity=".2"/>
            <g>
                <path fill="url(#14b9n1ie9a)" d="M7.275 55.774c-.539-.592-1.024-1.293-1.509-1.94-.216-.269-.377-.538-.593-.862-.054-.054-.107-.108-.107-.215l-.485-.809c-.054-.107-.108-.161-.162-.27-.162-.269-.323-.538-.431-.807l-.162-.324c-.162-.27-.27-.539-.431-.808l-.162-.323c-.107-.27-.27-.54-.377-.809l-.162-.323c-.107-.27-.215-.593-.377-.862 0-.054-.054-.108-.054-.162-.27-.647-.485-1.347-.7-2.048 0-.054-.054-.107-.054-.161-.054-.27-.162-.485-.216-.755-.054-.215-.107-.377-.161-.593-.054-.215-.108-.485-.162-.7l-.162-.647c-.054-.215-.107-.43-.107-.646-.054-.216-.108-.485-.108-.701-.054-.216-.054-.431-.108-.647-.054-.27-.054-.539-.108-.754 0-.216-.054-.431-.054-.647-.054-.27-.054-.539-.107-.862 0-.216-.054-.377-.054-.593 0-.323-.054-.646-.054-.97v-.485c0-.485-.054-.97-.054-1.455 0-.485 0-.97.054-1.4v-.432c0-.323.054-.647.054-.97 0-.162 0-.323.054-.485 0-.323.053-.647.107-.916 0-.162.054-.323.054-.485.054-.377.108-.754.162-1.078 0-.108 0-.161.054-.27.054-.43.161-.861.215-1.346 0-.162.054-.27.108-.432.054-.323.108-.592.216-.916.054-.161.054-.323.107-.485.054-.269.162-.538.216-.808l.162-.485c.107-.27.161-.593.27-.862.053-.108.107-.27.107-.377.162-.378.27-.809.431-1.186.054-.108.108-.27.162-.377l.323-.808c.054-.162.162-.324.216-.485.107-.216.215-.485.323-.701.054-.162.162-.323.215-.485.108-.216.216-.485.378-.7.054-.162.161-.27.215-.432.216-.377.377-.7.593-1.024-.431 1.617-.647 3.342-.647 5.228 0 6.358 2.695 11.208 8.03 14.496.27 5.712 1.94 10.238 4.796 13.148l-9.754 6.251z" transform="translate(29.633 22.98)"/>
                <path fill="url(#wo4ibfbfxb)" d="M38.26 21.501c1.671 2.48 2.695 5.659 3.072 9.43 1.348.648 2.587 1.402 3.61 2.21 3.935 3.072 5.982 7.599 5.982 13.31 0 .701-.053 1.402-.107 2.048v-.053c.215-.485.377-.916.539-1.401.053-.108.107-.27.161-.378.108-.323.216-.7.324-1.024l.161-.485.162-.646c.054-.27.162-.54.215-.809l.162-.646c.054-.216.108-.485.162-.7.054-.162.054-.324.108-.486.053-.377.161-.754.215-1.078 0-.161.054-.269.054-.43.054-.378.108-.809.162-1.186 0-.108 0-.162.054-.27.053-.377.053-.754.107-1.131v-.27c.054-.43.054-.862.054-1.293v-.27-1.4c0-.486 0-1.024-.054-1.51v-.484c0-.324-.054-.647-.054-1.024 0-.216-.053-.378-.053-.593 0-.27-.054-.593-.108-.862 0-.216-.054-.431-.054-.593-.054-.27-.054-.539-.108-.808-.054-.216-.054-.432-.108-.647-.054-.27-.107-.539-.161-.755-.054-.215-.108-.43-.108-.646-.054-.27-.108-.485-.162-.755l-.161-.646c-.054-.216-.108-.485-.216-.7l-.162-.647c-.054-.216-.161-.432-.215-.701-.054-.216-.162-.431-.216-.647-.054-.215-.161-.43-.215-.646-.054-.216-.162-.431-.216-.647-.108-.216-.162-.431-.27-.647-.107-.215-.161-.43-.269-.646-.108-.216-.161-.378-.27-.593-.107-.216-.215-.431-.269-.593-.107-.215-.215-.377-.323-.593-.108-.215-.216-.377-.323-.592-.108-.162-.216-.378-.324-.54-.107-.215-.215-.377-.323-.592-.108-.162-.216-.323-.323-.539-.378-.539-.7-1.078-1.132-1.617-.27-.377-.539-.7-.862-1.077L38.26 21.5z" transform="translate(29.633 22.98)"/>
                <path fill="#FFF" d="M32.387 29.261c-.593-.107-1.132-.215-1.67-.323-7.222-1.455-12.503-2.479-12.503-7.544 0-3.126 3.072-5.605 8.622-5.605 4.904 0 8.838 1.994 11.425 5.766.215.324.43.647.592.97-.215-.323-.377-.646-.592-.97l8.19-8.245c-3.125-3.718-7.113-6.305-11.64-7.706-.592-.161-1.239-.323-1.885-.485h-.054c-.377-.053-.755-.161-1.132-.215-.108-2.695-2.263-4.796-4.958-4.796-2.694 0-4.85 2.155-4.957 4.796-.485.108-.97.162-1.455.27h-.054c-5.12 1.185-9.538 3.88-12.987 7.92-1.455 2.426-2.156 5.336-2.156 8.73 0 11.533 8.676 15.197 17.19 17.245 1.563.377 3.126.647 4.635.916 5.335.97 9.916 1.778 9.916 6.575 0 2.963-3.288 6.682-10.132 6.682-4.095 0-7.436-1.348-9.861-3.934l.054.054L7.22 55.72c1.347 1.562 2.802 2.91 4.365 4.095.539.377 1.078.754 1.617 1.078.539.323 1.131.646 1.67.916h.054c.539.27 1.132.539 1.724.808.054 0 .054 0 .108.054l1.779.647c.053 0 .053 0 .107.054.27.107.54.161.809.27h.107c.324.107.593.16.917.215.053 0 .107 0 .107.054l.809.161c.054 0 .107 0 .161.054.054 0 .162 0 .216.054 0 2.748 2.21 4.958 4.958 4.958s4.957-2.21 4.957-4.958c.324-.054.647-.108.97-.216h.108c.755-.161 1.455-.377 2.156-.592.377-.108.7-.216 1.077-.378 3.934-1.455 7.437-3.88 10.24-7.22 1.077-1.24 1.993-2.587 2.855-4.042.431-1.563.647-3.341.647-5.173.162-12.34-9.215-15.736-17.352-17.299z" transform="translate(29.633 22.98)"/>
            </g>
        </g>
        <g transform="translate(271 104)">
            <circle cx="57.406" cy="57.596" r="57.215" fill="#1E313F" transform="rotate(-.192 57.406 57.596)"/>
            <path fill="#FFF" d="M93.188 93.093c19.626-19.769 19.531-51.655-.238-71.281-19.768-19.626-51.655-19.531-71.28.238l71.518 71.043z" opacity=".2"/>
            <g>
                <path fill="url(#14b9n1ie9a)" d="M7.275 55.774c-.539-.592-1.024-1.293-1.509-1.94-.216-.269-.377-.538-.593-.862-.054-.054-.107-.108-.107-.215l-.485-.809c-.054-.107-.108-.161-.162-.27-.162-.269-.323-.538-.431-.807l-.162-.324c-.162-.27-.27-.539-.431-.808l-.162-.323c-.107-.27-.27-.54-.377-.809l-.162-.323c-.107-.27-.215-.593-.377-.862 0-.054-.054-.108-.054-.162-.27-.647-.485-1.347-.7-2.048 0-.054-.054-.107-.054-.161-.054-.27-.162-.485-.216-.755-.054-.215-.107-.377-.161-.593-.054-.215-.108-.485-.162-.7l-.162-.647c-.054-.215-.107-.43-.107-.646-.054-.216-.108-.485-.108-.701-.054-.216-.054-.431-.108-.647-.054-.27-.054-.539-.108-.754 0-.216-.054-.431-.054-.647-.054-.27-.054-.539-.107-.862 0-.216-.054-.377-.054-.593 0-.323-.054-.646-.054-.97v-.485c0-.485-.054-.97-.054-1.455 0-.485 0-.97.054-1.4v-.432c0-.323.054-.647.054-.97 0-.162 0-.323.054-.485 0-.323.053-.647.107-.916 0-.162.054-.323.054-.485.054-.377.108-.754.162-1.078 0-.108 0-.161.054-.27.054-.43.161-.861.215-1.346 0-.162.054-.27.108-.432.054-.323.108-.592.216-.916.054-.161.054-.323.107-.485.054-.269.162-.538.216-.808l.162-.485c.107-.27.161-.593.27-.862.053-.108.107-.27.107-.377.162-.378.27-.809.431-1.186.054-.108.108-.27.162-.377l.323-.808c.054-.162.162-.324.216-.485.107-.216.215-.485.323-.701.054-.162.162-.323.215-.485.108-.216.216-.485.378-.7.054-.162.161-.27.215-.432.216-.377.377-.7.593-1.024-.431 1.617-.647 3.342-.647 5.228 0 6.358 2.695 11.208 8.03 14.496.27 5.712 1.94 10.238 4.796 13.148l-9.754 6.251z" transform="translate(29.633 22.98)"/>
                <path fill="url(#wo4ibfbfxb)" d="M38.26 21.501c1.671 2.48 2.695 5.659 3.072 9.43 1.348.648 2.587 1.402 3.61 2.21 3.935 3.072 5.982 7.599 5.982 13.31 0 .701-.053 1.402-.107 2.048v-.053c.215-.485.377-.916.539-1.401.053-.108.107-.27.161-.378.108-.323.216-.7.324-1.024l.161-.485.162-.646c.054-.27.162-.54.215-.809l.162-.646c.054-.216.108-.485.162-.7.054-.162.054-.324.108-.486.053-.377.161-.754.215-1.078 0-.161.054-.269.054-.43.054-.378.108-.809.162-1.186 0-.108 0-.162.054-.27.053-.377.053-.754.107-1.131v-.27c.054-.43.054-.862.054-1.293v-.27-1.4c0-.486 0-1.024-.054-1.51v-.484c0-.324-.054-.647-.054-1.024 0-.216-.053-.378-.053-.593 0-.27-.054-.593-.108-.862 0-.216-.054-.431-.054-.593-.054-.27-.054-.539-.108-.808-.054-.216-.054-.432-.108-.647-.054-.27-.107-.539-.161-.755-.054-.215-.108-.43-.108-.646-.054-.27-.108-.485-.162-.755l-.161-.646c-.054-.216-.108-.485-.216-.7l-.162-.647c-.054-.216-.161-.432-.215-.701-.054-.216-.162-.431-.216-.647-.054-.215-.161-.43-.215-.646-.054-.216-.162-.431-.216-.647-.108-.216-.162-.431-.27-.647-.107-.215-.161-.43-.269-.646-.108-.216-.161-.378-.27-.593-.107-.216-.215-.431-.269-.593-.107-.215-.215-.377-.323-.593-.108-.215-.216-.377-.323-.592-.108-.162-.216-.378-.324-.54-.107-.215-.215-.377-.323-.592-.108-.162-.216-.323-.323-.539-.378-.539-.7-1.078-1.132-1.617-.27-.377-.539-.7-.862-1.077L38.26 21.5z" transform="translate(29.633 22.98)"/>
                <path fill="#FFF" d="M32.387 29.261c-.593-.107-1.132-.215-1.67-.323-7.222-1.455-12.503-2.479-12.503-7.544 0-3.126 3.072-5.605 8.622-5.605 4.904 0 8.838 1.994 11.425 5.766.215.324.43.647.592.97-.215-.323-.377-.646-.592-.97l8.19-8.245c-3.125-3.718-7.113-6.305-11.64-7.706-.592-.161-1.239-.323-1.885-.485h-.054c-.377-.053-.755-.161-1.132-.215-.108-2.695-2.263-4.796-4.958-4.796-2.694 0-4.85 2.155-4.957 4.796-.485.108-.97.162-1.455.27h-.054c-5.12 1.185-9.538 3.88-12.987 7.92-1.455 2.426-2.156 5.336-2.156 8.73 0 11.533 8.676 15.197 17.19 17.245 1.563.377 3.126.647 4.635.916 5.335.97 9.916 1.778 9.916 6.575 0 2.963-3.288 6.682-10.132 6.682-4.095 0-7.436-1.348-9.861-3.934l.054.054L7.22 55.72c1.347 1.562 2.802 2.91 4.365 4.095.539.377 1.078.754 1.617 1.078.539.323 1.131.646 1.67.916h.054c.539.27 1.132.539 1.724.808.054 0 .054 0 .108.054l1.779.647c.053 0 .053 0 .107.054.27.107.54.161.809.27h.107c.324.107.593.16.917.215.053 0 .107 0 .107.054l.809.161c.054 0 .107 0 .161.054.054 0 .162 0 .216.054 0 2.748 2.21 4.958 4.958 4.958s4.957-2.21 4.957-4.958c.324-.054.647-.108.97-.216h.108c.755-.161 1.455-.377 2.156-.592.377-.108.7-.216 1.077-.378 3.934-1.455 7.437-3.88 10.24-7.22 1.077-1.24 1.993-2.587 2.855-4.042.431-1.563.647-3.341.647-5.173.162-12.34-9.215-15.736-17.352-17.299z" transform="translate(29.633 22.98)"/>
            </g>
        </g>
    </g>
</svg>
