<svg width="25" height="25" viewBox="0 0 25 25" fill="none" xmlns="http://www.w3.org/2000/svg">
<path d="M12.5 25C19.4036 25 25 19.4036 25 12.5C25 5.59644 19.4036 0 12.5 0C5.59644 0 0 5.59644 0 12.5C0 19.4036 5.59644 25 12.5 25Z" fill="#EFEFEF"/>
<g clip-path="url(#clip0_3315_15179)">
<path d="M12.4985 4.16669L12.3848 4.54638V15.5643L12.4985 15.6758L17.7053 12.6527L12.4985 4.16669Z" fill="#343434"/>
<path d="M12.4978 4.16669L7.29102 12.6527L12.4978 15.6758V10.3281V4.16669Z" fill="#8C8C8C"/>
<path d="M12.4977 16.6441L12.4336 16.7209V20.6457L12.4977 20.8296L17.7076 13.6226L12.4977 16.6441Z" fill="#3C3C3B"/>
<path d="M12.4978 20.8296V16.6441L7.29102 13.6226L12.4978 20.8296Z" fill="#8C8C8C"/>
<path d="M12.498 15.6758L17.7048 12.6527L12.498 10.3281V15.6758Z" fill="#141414"/>
<path d="M7.29102 12.6527L12.4977 15.6758V10.3281L7.29102 12.6527Z" fill="#393939"/>
</g>
<defs>
<clipPath id="clip0_3315_15179">
<rect width="10.4167" height="16.6667" fill="white" transform="translate(7.29102 4.16669)"/>
</clipPath>
</defs>
</svg>
