<svg width="8" height="8" viewBox="0 0 8 8" fill="none" xmlns="http://www.w3.org/2000/svg">
<path d="M7.26463 0H3.1248C2.70925 0 2.38949 0.335384 2.38949 0.734583C2.38949 1.13378 2.72521 1.46917 3.1248 1.46917H5.47443L0.215739 6.73859C-0.0719132 7.02596 -0.0719132 7.48909 0.215739 7.77645C0.359569 7.92014 0.551458 8 0.743208 8C0.934957 8 1.12685 7.92014 1.27068 7.77645L6.52937 2.52299V4.87029C6.52937 5.28542 6.86509 5.60487 7.26468 5.60487C7.68024 5.60487 8 5.26948 8 4.87029L7.99989 0.734583C7.99989 0.319445 7.68024 0.000113994 7.26469 0.000113994L7.26463 0Z" fill="#FAFBFB"/>
</svg>
