<svg width="16" height="16" viewBox="0 0 16 16" fill="none" xmlns="http://www.w3.org/2000/svg">
<path d="M11.7558 0H4.24421C1.90316 0 0 1.90319 0 4.24421V11.7558C0 14.0968 1.90319 16 4.24421 16H11.7558C14.0968 16 16 14.0968 16 11.7558L15.9999 4.24421C15.9999 1.90316 14.0967 0 11.7557 0H11.7558ZM14.4338 11.7558C14.4338 13.2379 13.2211 14.4506 11.739 14.4506H4.24424C2.76211 14.4506 1.54944 13.238 1.54944 11.7558V4.24421C1.54944 2.76208 2.76208 1.54941 4.24424 1.54941H11.7558C13.238 1.54941 14.4506 2.76204 14.4506 4.24421L14.4505 11.7558H14.4338Z" fill="url(#paint0_linear_126_331)"/>
<path d="M11.3515 3.87402H6.98936C6.5515 3.87402 6.21457 4.22777 6.21457 4.64882C6.21457 5.06987 6.56831 5.42362 6.98936 5.42362H9.46515L3.9241 10.9815C3.621 11.2846 3.621 11.7731 3.9241 12.0762C4.07565 12.2277 4.27785 12.312 4.47989 12.312C4.68194 12.312 4.88413 12.2277 5.03568 12.0762L10.5767 6.53514V9.01093C10.5767 9.44879 10.9305 9.78572 11.3515 9.78572C11.7894 9.78572 12.1263 9.43198 12.1263 9.01093L12.1262 4.64882C12.1262 4.21096 11.7894 3.87414 11.3515 3.87414L11.3515 3.87402Z" fill="url(#paint1_linear_126_331)"/>
<defs>
<linearGradient id="paint0_linear_126_331" x1="-4.63905" y1="8" x2="23.1953" y2="8" gradientUnits="userSpaceOnUse">
<stop stop-color="#8C66FC"/>
<stop offset="1" stop-color="#0274F1"/>
</linearGradient>
<linearGradient id="paint1_linear_126_331" x1="1.25271" y1="8.093" x2="15.9171" y2="8.093" gradientUnits="userSpaceOnUse">
<stop stop-color="#8C66FC"/>
<stop offset="1" stop-color="#0274F1"/>
</linearGradient>
</defs>
</svg>
