<?xml version="1.0" encoding="UTF-8"?>
<svg width="82px" height="66px" viewBox="0 0 82 66" version="1.1" xmlns="http://www.w3.org/2000/svg" xmlns:xlink="http://www.w3.org/1999/xlink">
    <!-- Generator: Sketch 61.2 (89653) - https://sketch.com -->
    <title></title>
    <desc>Created with Sketch.</desc>
    <g id="Page-1" stroke="none" stroke-width="1" fill="none" fill-rule="evenodd">
        <g id="ousd-swap-top-metrics-rework-V2" transform="translate(-880.000000, -12.000000)" fill="#FFFFFF" fill-rule="nonzero">
            <g id="Group-13" transform="translate(250.000000, 12.000000)">
                <g id="Group-9-Copy" transform="translate(630.000000, 0.000000)">
                    <path d="M73.9182692,66 C76.1522436,66 78.0576923,65.1766467 79.6346154,63.5299401 C81.2115385,61.8832335 82,59.9401198 82,57.7005988 L82,57.7005988 L82,16.5988024 C82,14.3592814 81.2115385,12.4161677 79.6346154,10.7694611 C78.0576923,9.12275449 76.1522436,8.2994012 73.9182692,8.2994012 L73.9182692,8.2994012 L41,8.2994012 L32.7211538,0 L8.08173077,0 C5.84775641,0 3.94230769,0.823353293 2.36538462,2.47005988 C0.788461538,4.11676647 0,6.05988024 0,8.2994012 L0,8.2994012 L0,57.7005988 C0,59.9401198 0.788461538,61.8832335 2.36538462,63.5299401 C3.94230769,65.1766467 5.84775641,66 8.08173077,66 L8.08173077,66 L73.9182692,66 Z M74,58 L8,58 L8,17 L74,17 L74,58 Z" id=""></path>
                </g>
            </g>
        </g>
    </g>
</svg>