<svg xmlns="http://www.w3.org/2000/svg" width="35" height="42" viewBox="0 0 35 42">
    <g fill="none" fill-rule="evenodd">
        <g fill="#FFF" fill-rule="nonzero">
            <g>
                <g>
                    <path d="M93.254 84.921c.836 1.54-1.064 2.002-1.939 2.08-1.368.115-1.634-.655-1.368-1.656.076-.347.266-.693.532-.924.266-.231.608-.385.989-.424.342-.038.722.039 1.026.193.304.192.57.423.76.731zm5.322-2.81c-.988 7.7 12.316 6.083 12.088 12.205 1.33-1.733 1.863-6.469-1.977-8.894-3.497-2.156-7.982-.963-10.111-3.311zm7.678-2.888c-.076-.077-.19-.154-.266-.23.076.076.152.153.266.23zm3.08 5.583c-.115-.231-.267-.462-.419-.655-.456-.616-1.102-1.078-1.824-1.27-.494-.116-.989-.193-1.483-.231-.494-.039-1.026-.077-1.558-.077-1.065-.077-2.129-.154-3.193-.462-.266-.077-.533-.154-.76-.27-.115-.038-.267-.115-.38-.154-.115-.038-.267-.115-.38-.192-.495-.27-.951-.616-1.37-1.001-.798-.77-1.444-1.617-2.09-2.464-.608-.847-1.254-1.656-1.939-2.426-.684-.77-1.482-1.386-2.356-1.887-.913-.462-1.901-.77-2.927-.847 1.064-.115 2.128 0 3.155.385 1.026.385 1.938 1.001 2.737 1.771.532.501.988 1.001 1.444 1.579 3.345-.655 6.044-.077 8.135 1.078l.038.039c.646.346 1.292.808 1.862 1.309.076.077.19.154.266.23.457.424.875.848 1.217 1.348l.038.039c1.178 1.54 1.786 3.157 1.786 4.158zM88.806 73.833c.836.115 1.71.462 2.28 1.116.57.655.76 1.502.913 2.31.114.617.228 1.271.494 1.887.114.308.304.54.418.809.114.23.342.423.418.693 0 .038.038.077 0 .115 0 .039 0 .077-.038.116-.304.346-1.102-.039-1.406-.193-.533-.27-.989-.616-1.369-1.078-1.216-1.386-1.824-3.35-1.786-5.12 0-.232.038-.424.076-.655zm14.216 15.439c-1.824 5.236 6.5 8.74 3.384 14.053 3.193-1.348 4.713-5.429 3.383-8.663-1.14-2.81-4.6-3.85-6.767-5.39zM92 96.125c.494-.385 1.064-.693 1.634-.924.57-.23 1.217-.423 1.825-.539 1.254-.23 2.47-.308 3.497-.731.494-.193.988-.5 1.368-.886.38-.385.685-.808.875-1.347.19-.54.266-1.117.228-1.694-.038-.617-.19-1.194-.418-1.772.456.501.798 1.078.988 1.733.19.655.19 1.348.076 2.002-.152.693-.494 1.348-.988 1.848s-1.065.847-1.71 1.078c-.609.231-1.255.347-1.94.385-.646.039-1.254.077-1.824.116-1.255.077-2.47.308-3.611.731zm11.784 9.164l-.57.462c-.19.154-.419.27-.647.346-.456.231-.988.347-1.482.347-1.407-.039-2.395-1.078-2.965-2.272-.38-.808-.684-1.694-1.14-2.464-.685-1.117-1.825-2.002-3.156-1.848-.532.077-1.064.308-1.368.808-.798 1.271.342 3.042 1.824 2.773.115-.039.229-.039.38-.116.115-.038.229-.115.305-.192.19-.154.342-.386.456-.655.114-.27.114-.539.076-.847-.076-.308-.228-.54-.456-.732.266.116.494.385.608.655.114.308.152.616.076.962-.076.347-.19.655-.418.886-.114.116-.266.231-.38.347l-.456.23c-.343.116-.685.155-1.027.116-.494-.077-.95-.27-1.33-.577-.456-.347-.799-.848-1.179-1.233-.456-.5-1.026-.924-1.634-1.193-.418-.193-.874-.308-1.33-.424l-.685-.115c-.114 0-.608-.116-.684-.077.722-.655 1.482-1.27 2.319-1.771.836-.5 1.748-.924 2.699-1.194.988-.27 2.014-.346 3.04-.23.533.076 1.027.192 1.521.384.494.193.988.5 1.407.886.418.385.722.847.988 1.386.228.5.38 1 .456 1.501.304 1.54.19 3.966 2.205 4.313.114.038.228.038.304.038h.342c.228 0 .456-.038.684-.115.342-.039.76-.193 1.217-.385zm-11.632-1.694l-.038-.039.038.039zm-1.787-21.946c-.076.27-.19.539-.38.77-.342.423-.76.77-1.254.962-.457.193-.913.308-1.407.385-.114 0-.228.039-.304.039-.304 0-.608.115-.836.308-.228.192-.418.462-.494.77-.038.154-.076.308-.076.462-.038.385-.038.808-.114 1.309-.114.847-.343 1.655-.723 2.425-.494 1.002-1.026 1.849-.874 3.004.076.77.456 1.27.988 1.81.913.962 2.965 1.385 2.51 3.734-.267 1.424-2.586 2.887-5.779 3.388.304-.039-.418-1.31-.456-1.386-.342-.54-.722-1.078-.988-1.656-.532-1.155-.798-2.502-.57-3.773.228-1.347 1.216-2.348 2.014-3.388.95-1.232 1.977-2.81 2.205-4.39.038-.384.076-.846.19-1.347.076-.539.228-1.04.494-1.501.152-.308.38-.578.646-.847.152-.116.229-.308.267-.462.038-.193 0-.385-.076-.54l-5.132-9.394 7.374 9.28c.076.115.19.192.304.269.114.077.266.077.38.115.153 0 .267-.038.38-.077.115-.038.229-.154.305-.23.076-.116.152-.27.152-.386 0-.154-.038-.308-.114-.423-.494-.616-.989-1.27-1.483-1.887l-1.862-2.348-3.726-4.66-5.093-6.506 5.55 6.083 3.953 4.466 1.976 2.234c.647.77 1.33 1.463 1.977 2.271l.114.116.038.192c0 .27-.038.54-.076.809zm1.673 21.907c-.342-.27-.685-.616-.95-.963.304.309.608.655.95.963z" transform="translate(-250 -7) translate(173 -58)"/>
                </g>
            </g>
        </g>
    </g>
</svg>
