<svg xmlns="http://www.w3.org/2000/svg" width="30" height="30" viewBox="0 0 30 30">
    <path fill-rule="evenodd" d="M22.952 29.915c6.012.693 7.637-2.95 6.872-7.042l-6.872.001v7.04zm-11.45-.007h6.97v-7.023h-6.97v7.023zM29.97 18.445v-1.098V5.269c0-3.34-1.899-5.256-5.24-5.264-4.091-.01-8.182-.003-12.272 0-.312 0-.623.027-.963.042v18.398H29.97zM0 26.105c1.288 3.84 4.151 4.183 7.065 3.723v-7.036H0v3.312zm0-18.9c2.101-.023 4.203-.066 6.304-.058.624.003.86-.178.845-.826-.037-1.586-.011-3.172-.011-4.759V.074C5.966.074 4.948-.05 3.97.1 1.809.432.647 1.919 0 3.893v3.312zm0 4.287c2.134-.013 4.27-.042 6.403-.015.246.003.694.32.698.5.05 2.127.032 4.257.032 6.529H0v-7.014z"/>
</svg>
