<svg width="12" height="12" viewBox="0 0 12 12" fill="none" xmlns="http://www.w3.org/2000/svg">
<path d="M10.3541 0.666672H4.83438C4.28031 0.666672 3.85396 1.11385 3.85396 1.64612C3.85396 2.17838 4.30158 2.62556 4.83438 2.62556H7.96722L0.955621 9.65147C0.572085 10.0346 0.572085 10.6521 0.955621 11.0353C1.14739 11.2269 1.40325 11.3333 1.65891 11.3333C1.91458 11.3333 2.17043 11.2269 2.3622 11.0353L9.3738 4.03067V7.16039C9.3738 7.7139 9.82142 8.13983 10.3542 8.13983C10.9083 8.13983 11.3346 7.69265 11.3346 7.16039L11.3345 1.64612C11.3345 1.0926 10.9083 0.666824 10.3542 0.666824L10.3541 0.666672Z" fill="url(#paint0_linear_387_541)"/>
<defs>
<linearGradient id="paint0_linear_387_541" x1="-2.42473" y1="6.00001" x2="16.1315" y2="6.00001" gradientUnits="userSpaceOnUse">
<stop stop-color="#8C66FC"/>
<stop offset="1" stop-color="#0274F1"/>
</linearGradient>
</defs>
</svg>
