<svg xmlns="http://www.w3.org/2000/svg" width="4" height="13" viewBox="0 0 4 13">
    <path fill="#8293A4" d="M2 3.712c.408 0 .762-.15 1.062-.45.3-.3.45-.654.45-1.062 0-.408-.15-.762-.45-1.062-.3-.3-.654-.45-1.062-.45-.408 0-.762.15-1.062.45-.3.3-.45.654-.45 1.062 0 .408.15.762.45 1.062.3.3.654.45 1.062.45zm0 4.5c.408 0 .762-.15 1.062-.45.3-.3.45-.654.45-1.062 0-.408-.15-.762-.45-1.062-.3-.3-.654-.45-1.062-.45-.408 0-.762.15-1.062.45-.3.3-.45.654-.45 1.062 0 .408.15.762.45 1.062.3.3.654.45 1.062.45zm0 4.5c.408 0 .762-.15 1.062-.45.3-.3.45-.654.45-1.062 0-.408-.15-.762-.45-1.062-.3-.3-.654-.45-1.062-.45-.408 0-.762.15-1.062.45-.3.3-.45.654-.45 1.062 0 .408.15.762.45 1.062.3.3.654.45 1.062.45z"/>
</svg>
