<svg xmlns="http://www.w3.org/2000/svg" width="18" height="18" viewBox="0 0 18 18">
    <g fill="none" fill-rule="evenodd">
        <g>
            <g>
                <path fill="#1A82FF" stroke="#FFF" d="M8 0c4.418 0 8 3.582 8 8s-3.582 8-8 8-8-3.582-8-8 3.582-8 8-8z" transform="translate(-720 -690) translate(721 691)"/>
                <path fill="#FFF" d="M10.255 7.036c.06.294.09.616.09.964 0 1.874-.88 2.993-2.352 2.993-.614 0-1.132-.197-1.523-.572l5.126-5.132c-.137-.244-.294-.471-.47-.68-.074-.087-.152-.169-.232-.248h.001l-.032-.031-.07-.07-.002.001c-.744-.695-1.7-1.061-2.798-1.061-1.267 0-2.348.487-3.126 1.41C4.136 5.477 3.733 6.68 3.733 8c0 .876.179 1.701.513 2.41l1.487-1.488c-.051-.282-.078-.59-.078-.922 0-.863.176-1.56.521-2.073.406-.602 1.034-.92 1.817-.92.61 0 1.118.193 1.504.551L4.382 10.68c.14.256.303.493.485.71.037.044.075.085.113.127.045.049.09.095.135.14l.017.017.044.044.001-.002c.745.71 1.709 1.084 2.816 1.084 1.269 0 2.352-.487 3.133-1.41.735-.868 1.14-2.072 1.14-3.39 0-.89-.185-1.728-.531-2.445l-1.48 1.48z" transform="translate(-720 -690) translate(721 691)"/>
            </g>
        </g>
    </g>
</svg>
