<svg width="112" height="113" viewBox="0 0 112 113" fill="none" xmlns="http://www.w3.org/2000/svg">
<mask id="mask0_126_321" style="mask-type:alpha" maskUnits="userSpaceOnUse" x="0" y="0" width="112" height="113">
<path fill-rule="evenodd" clip-rule="evenodd" d="M0 0.5H112V112.5H0V0.5Z" fill="white"/>
</mask>
<g mask="url(#mask0_126_321)">
<path fill-rule="evenodd" clip-rule="evenodd" d="M55.8124 0.500321C86.7401 0.396765 111.896 25.3846 112 56.3123C112.103 87.2401 87.1154 112.396 56.1877 112.5C25.2599 112.603 0.104014 87.6154 0.000320709 56.6876C-0.103235 25.7599 24.8846 0.603876 55.8124 0.500321Z" fill="#1E313F"/>
</g>
<path opacity="0.1" fill-rule="evenodd" clip-rule="evenodd" d="M90.9996 91.2655C110.198 71.9297 110.102 40.698 90.7658 21.4997C71.43 2.30138 40.1983 2.39764 21 21.7335L90.9996 91.2655Z" fill="white"/>
<path fill-rule="evenodd" clip-rule="evenodd" d="M86.2687 39.8178L79.9014 33.3954L76.4358 36.916C76.422 36.9023 76.4083 36.8885 76.3945 36.8748L73.5753 39.7215L56.2337 57.297L45.2591 46.1714C42.99 48.5368 41.491 51.6448 41.1609 55.0829L56.2337 70.3618L73.2866 53.0751C73.5065 54.1753 73.6165 55.3167 73.6165 56.4857C73.6165 66.1948 65.7089 74.1025 55.9997 74.1025C46.2906 74.1025 38.3829 66.1948 38.3829 56.4857C38.3829 46.7765 46.2906 38.8689 55.9997 38.8689C59.9879 38.8689 63.6736 40.2028 66.6303 42.4445L74.1805 34.7844C69.257 30.6587 62.9172 28.1558 55.9997 28.1558C40.3908 28.1558 27.6836 40.863 27.6836 56.4719C27.6836 72.0946 40.3908 84.7881 55.9997 84.7881C71.6087 84.7881 84.3159 72.0809 84.3159 56.4719C84.3159 52.1812 83.3532 48.1242 81.6479 44.4798L86.2687 39.8178Z" fill="white"/>
</svg>
