<svg width="583" height="77" viewBox="0 0 583 77" fill="none" xmlns="http://www.w3.org/2000/svg">
<path d="M113.58 74.9278L99.2649 50.3126C98.9368 50.3126 98.7317 50.3126 98.4445 50.3126H87.5336V74.9278H73.2592V2.80813H98.4445C116.124 2.80813 126.706 12.383 126.706 26.8891C126.706 36.7927 121.866 43.9841 113.129 47.6004L129.578 74.8867H113.58V74.9278ZM87.5746 37.5324H100.331C108.248 37.5324 111.94 32.3957 111.94 26.9302C111.94 21.2592 108.125 16.2047 100.331 16.2047H87.5746V37.5324ZM136.141 74.9278V2.80813H150.415V74.8867H136.141V74.9278ZM216.619 67.4076C212.722 71.8457 204.19 76.366 194.838 76.366C174.165 76.366 157.511 60.6271 157.511 38.8885C157.511 17.1499 174.165 1.41094 194.838 1.41094C209.113 1.53422 221.049 8.93111 227.53 20.4785L212.927 24.3002C209.031 18.958 201.934 15.5472 194.838 15.5472C181.384 15.5472 172.442 25.2453 172.442 38.9296C172.442 53.2302 182.328 62.3941 195.659 62.3941C208.005 62.3941 214.486 55.6137 216.742 50.0249V46.9429H196.807V35.2722H228.966V74.9278H216.619C216.619 68.9692 216.742 67.5309 216.742 67.4076H216.619ZM239.015 74.9278V2.80813H253.29V74.8867H239.015V74.9278ZM327 2.80813V74.8867H313.546L293.078 47.0662C286.597 38.1899 278.68 26.8891 278.598 26.8891H278.475C278.393 26.8891 278.598 37.2858 278.598 51.5865V74.8456H264.324V2.80813H277.778L298.656 30.9163C303.578 37.4091 312.643 50.2715 312.726 50.2715H312.849C312.972 50.2715 312.726 38.5186 312.726 26.396V2.80813H327ZM63.0455 19.5744L51.3963 31.245C51.8475 33.5463 52.0936 36.0941 52.0936 38.8474C52.0936 53.6001 45.1614 62.4352 33.5532 62.4352C28.713 62.4352 24.6522 60.8737 21.5758 57.9149L61.938 17.4786C60.8715 15.5472 59.641 13.7802 58.2464 12.1364C57.6721 11.4378 57.0568 10.8214 56.4415 10.1639C56.3595 10.0817 56.2775 9.99954 56.1954 9.91736C55.9903 9.75298 55.8263 9.54751 55.6212 9.38314C49.7145 3.87657 42.2081 1 33.5532 1C23.5857 1 15.0538 4.82172 8.94205 12.0953C3.15843 18.958 0 28.4507 0 38.8474C0 45.7512 1.39463 52.244 4.01982 57.8327L15.7511 46.0799C15.3409 43.8608 15.1359 41.4363 15.1359 38.8063C15.1359 32.0258 16.5305 26.5193 19.2377 22.451C22.4372 17.7252 27.4004 15.2185 33.5532 15.2185C38.3524 15.2185 42.3722 16.7389 45.4075 19.5744L5.12732 59.9285C6.23482 61.9421 7.5064 63.8324 8.94205 65.5173C9.22918 65.846 9.51631 66.1748 9.84446 66.5035C10.1726 66.8734 10.5418 67.2432 10.9109 67.6131C10.952 67.6542 10.993 67.6953 11.034 67.7363C11.157 67.8596 11.2391 67.9829 11.3621 68.0651C17.2278 73.6539 24.8162 76.6126 33.5532 76.6126C43.5617 76.6126 52.0936 72.7909 58.2464 65.5173C64.03 58.6546 67.2294 49.203 67.2294 38.8063C67.2294 31.8204 65.7528 25.2043 63.0455 19.5744Z" fill="#0074F0"/>
<path d="M400.042 2.89782H354.737V75.0001H400.042V64.7824H366.208V42.8047H395.801V32.8762H366.208V13.0191H400.042V2.89782Z" fill="white"/>
<path d="M432.799 66.0355C428.365 66.0355 424.605 64.0112 424.605 57.5529L424.702 34.9004H437.329V25.5503H424.798L424.894 8.77782H414.002L413.906 25.5503H404.748V34.9004H413.906L413.809 59.7699C413.713 70.9515 420.46 75.7712 430.196 75.7712C433.666 75.7712 435.594 75.482 437.425 75.1928V65.5535C436.269 65.7463 434.823 66.0355 432.799 66.0355Z" fill="white"/>
<path d="M458.06 0.102417H447.264V75.0001H458.06V46.7568C458.06 39.9129 462.687 34.7076 469.531 34.7076C476.086 34.7076 480.327 39.2381 480.327 46.6604V75.0001H491.22V45.2145C491.22 32.3942 483.219 24.6827 471.941 24.6827C465.001 24.6827 460.374 27.6709 458.06 31.1411V0.102417Z" fill="white"/>
<path d="M548.072 49.0702C548.072 34.0329 539.107 24.6827 524.937 24.6827C510.575 24.6827 500.261 34.2257 500.261 50.3234C500.261 66.3246 510.671 75.964 525.226 75.964C536.697 75.964 545.662 68.9273 547.59 60.1555L536.697 59.5771C535.348 64.0112 531.203 66.6138 524.937 66.6138C517.419 66.6138 512.31 61.8906 511.731 54.3719H548.072V49.0702ZM524.841 33.9365C532.841 33.9365 536.89 38.7561 537.179 45.8893H511.828C512.31 38.1778 517.611 33.9365 524.841 33.9365Z" fill="white"/>
<path d="M581.594 24.9719C573.69 24.9719 569.352 28.6348 567.521 32.4906V25.5503H557.014V75.0001H567.81V48.1063C567.81 40.8768 573.112 35.4788 581.594 35.4788V24.9719Z" fill="white"/>
</svg>
