<svg xmlns="http://www.w3.org/2000/svg" width="204" height="21" viewBox="0 0 204 21">
    <g fill="none" fill-rule="evenodd">
        <g fill-rule="nonzero">
            <g>
                <path fill="#687F89" d="M98.45 20.466V.556h7.038c6.096 0 10.523 4.223 10.523 10.046 0 5.812-4.314 9.864-10.5 9.864h-7.06zm3.94-3.575h2.826c3.144 0 6.822-1.646 6.822-6.277 0-4.462-3.428-6.46-6.822-6.46h-2.827v12.737zm47.766 3.575V16.88h-8.071V.556h-3.94v19.91h12.01zm14.064 0V16.88h-8.07V.556h-3.94v19.91h12.01zm17.447 0l-1.26-3.484h-9.501l-1.26 3.484h-4.132L173.2.556h4.983l7.708 19.91h-4.223zM175.219 5.29c-.102.102-.102.102-.794 1.918l-.5 1.328-1.77 4.95h6.992l-1.76-4.904c-.272-.738-.522-1.385-.715-1.896-.488-1.294-.488-1.294-.59-1.396l-.159-.16h-.545l-.159.16zm23.441 15.176l-3.928-6.935h-3.121v6.935h-3.94V.556h7.436c4.904 0 7.821 2.452 7.821 6.561 0 2.645-1.283 4.586-3.61 5.46l-.624.239 4.643 7.65h-4.677zm-7.06-9.852h3.825c2.18 0 3.428-1.181 3.428-3.247 0-2.123-1.26-3.337-3.462-3.337h-3.792v6.584zM133.627 3.2C131.948 1.215 129.61.16 126.874.16c-2.736 0-5.074 1.056-6.754 3.042-1.578 1.873-2.452 4.473-2.452 7.31 0 2.838.874 5.438 2.463 7.31 1.692 1.987 3.996 3.043 6.743 3.043 2.736 0 5.051-1.056 6.743-3.042 1.589-1.873 2.463-4.473 2.463-7.31 0-2.838-.874-5.438-2.452-7.31zm-6.754 13.77c-3.178 0-5.051-2.419-5.051-6.46 0-1.861.374-3.36 1.123-4.472.875-1.294 2.237-1.987 3.928-1.987 1.691 0 3.054.682 3.928 1.987.749 1.101 1.123 2.61 1.123 4.472 0 4.041-1.861 6.46-5.05 6.46z" transform="translate(-250 -35) translate(250 35)"/>
                <path fill="#FFF" d="M31.466 20.478l-3.95-6.8h-3.247v6.8h-3.95V.556h6.97c4.892 0 7.82 2.645 7.82 6.652 0 2.736-1.339 4.722-3.757 5.721l4.552 7.537h-4.438v.012zm-7.197-10.33h3.53c2.191 0 3.213-1.419 3.213-2.929 0-1.566-1.056-2.962-3.213-2.962h-3.53v5.891zm13.44 10.33V.556h3.95v19.91h-3.95v.012zM59.981 18.4c-1.079 1.225-3.44 2.474-6.028 2.474-5.721 0-10.33-4.347-10.33-10.352S48.232.17 53.953.17c3.95.034 7.253 2.078 9.047 5.267l-4.041 1.056c-1.078-1.476-3.042-2.418-5.006-2.418-3.723 0-6.198 2.68-6.198 6.46 0 3.95 2.736 6.48 6.425 6.48 3.417 0 5.21-1.872 5.835-3.416v-.851h-5.529V9.535h8.9V20.49h-3.417c0-1.646.034-2.043.034-2.077h-.022V18.4zm6.197 2.077V.556h3.95v19.91h-3.95v.012zM90.538.556v19.91h-3.723l-5.664-7.684c-1.794-2.452-3.985-5.574-4.007-5.574h-.034c-.023 0 .034 2.872.034 6.822v6.425h-3.95V.556h3.723l5.778 7.765c1.362 1.793 3.87 5.346 3.893 5.346h.034c.034 0-.034-3.246-.034-6.595V.556h3.95zm-73.057 4.62L14.257 8.4c.125.636.193 1.34.193 2.1 0 4.075-1.918 6.516-5.13 6.516-1.34 0-2.464-.432-3.315-1.249l11.17-11.17c-.296-.533-.636-1.021-1.022-1.475-.159-.193-.33-.364-.5-.545l-.068-.068c-.056-.046-.102-.103-.159-.148C13.803.851 11.715.045 9.331.045 6.572.045 4.21 1.101 2.52 3.11.93 4.995.045 7.617.045 10.49c0 1.907.386 3.7 1.113 5.244l3.246-3.247c-.113-.612-.17-1.282-.17-2.009 0-1.873.386-3.394 1.135-4.518.886-1.305 2.26-1.997 3.962-1.997 1.328 0 2.44.42 3.28 1.203L1.464 16.312c.307.556.659 1.078 1.056 1.544.08.09.159.181.25.272.09.102.193.204.295.307l.034.034c.034.034.057.068.09.09 1.624 1.544 3.724 2.362 6.142 2.362 2.77 0 5.13-1.056 6.833-3.065 1.6-1.896 2.486-4.507 2.486-7.379-.011-1.907-.42-3.734-1.169-5.3z" transform="translate(-250 -35) translate(250 35)"/>
                <g fill="#97A9B1" opacity=".6">
                    <path d="M79.755.443H74.77l-3.802 9.853h3.87l.67-1.862.5-1.328c.68-1.816.68-1.816.794-1.918l.16-.16h.544l.159.16c.102.102.102.102.59 1.396.193.51.432 1.169.715 1.895l.659 1.828h3.95L79.755.443zM96.68.443h-7.436v9.853h3.94V3.905h3.79c2.203 0 3.463 1.214 3.463 3.337 0 1.567-.727 2.634-2.032 3.054h5.233c.567-.908.874-2.02.874-3.292-.011-4.11-2.929-6.561-7.833-6.561zM53.794.443H57.733V10.296H53.794zM7.072.443H.034v9.853h3.939V4.03h2.826c3.35 0 6.72 1.94 6.823 6.266h3.973C17.492 4.575 13.099.443 7.072.443zM35.212 3.088C33.532 1.1 31.194.045 28.458.045c-2.736 0-5.074 1.056-6.754 3.043-1.567 1.85-2.43 4.404-2.452 7.208h4.154c.012-1.817.386-3.28 1.124-4.37.874-1.295 2.236-1.987 3.928-1.987 1.691 0 3.053.681 3.927 1.986.738 1.09 1.113 2.554 1.124 4.37h4.155c-.023-2.803-.886-5.357-2.452-7.207zM39.73.443H43.669V10.296H39.73z" transform="translate(-250 -35) translate(250 35) translate(98.416 .114)"/>
                </g>
            </g>
        </g>
    </g>
</svg>
