<svg xmlns="http://www.w3.org/2000/svg" xmlns:xlink="http://www.w3.org/1999/xlink" width="61" height="61" viewBox="0 0 61 61">
    <defs>
        <linearGradient id="2phywa1sya" x1="50.898%" x2="41.036%" y1="79.568%" y2="-11.87%">
            <stop offset=".058%" stop-color="#FFF"/>
            <stop offset="100%" stop-color="#1E313F"/>
        </linearGradient>
        <linearGradient id="xixmhf167b" x1="48.094%" x2="58.005%" y1="17.958%" y2="112.287%">
            <stop offset=".058%" stop-color="#FFF"/>
            <stop offset="99.67%" stop-color="#4E5A64"/>
        </linearGradient>
        <path id="j312joi17c" d="M0 0L11.358 0 11.358 11.359 0 11.359z"/>
    </defs>
    <g fill="none" fill-rule="evenodd">
        <g>
            <g>
                <g>
                    <g fill-rule="nonzero">
                        <g transform="translate(-453 -443) translate(250 175) translate(204 269)">
                            <circle cx="29.803" cy="29.901" r="29.581" fill="#000" stroke="#FFF" transform="rotate(-.192 29.803 29.901)"/>
                            <path fill="#FFF" d="M48.303 48.278C58.45 38.058 58.4 21.572 48.18 11.425c-10.22-10.147-26.707-10.098-36.854.122l36.977 36.731z" opacity=".2"/>
                        </g>
                        <g>
                            <path fill="#FAFBFC" d="M16.363 15.945c-.295-.049-.565-.123-.835-.172-3.637-.737-6.265-1.253-6.265-3.783 0-1.573 1.547-2.826 4.324-2.826 2.481 0 4.447 1.008 5.724 2.9l.197.049 3.955-4.054-.024-.148c-1.573-1.867-3.563-3.17-5.848-3.857-.319-.098-.614-.172-.933-.246h-.025c-.123-.024-.22-.049-.344-.074V.147h-5.405v3.587c-.172.025-.344.074-.516.099h-.024c-2.556.614-4.791 1.94-6.536 3.98-.737 1.228-1.105 2.703-1.105 4.398 0 5.798 4.373 7.64 8.648 8.673.786.196 1.572.344 2.334.466 2.678.492 4.987.91 4.987 3.317 0 1.499-1.646 3.366-5.085 3.366-2.04 0-3.71-.688-4.939-1.94-.073-.074-.172-.148-.245-.222l-4.669 3.243v.172c.664.786 1.4 1.474 2.187 2.064.27.197.54.369.81.54h.025c.27.173.566.32.836.467 0 0 .024 0 .024.025.295.147.565.27.86.393.025 0 .025 0 .05.025.294.122.59.22.884.319.024 0 .05 0 .05.025.146.049.27.073.417.122h.049c.147.05.295.074.467.123.024 0 .049 0 .073.025.123.024.27.049.393.074v3.587h5.406v-3.587c.098-.025.196-.025.294-.05h.05c.368-.073.737-.172 1.105-.294.172-.05.369-.123.54-.172 1.99-.737 3.735-1.966 5.16-3.637.54-.638 1.008-1.302 1.425-2.039.221-.786.32-1.67.32-2.604.024-6.24-4.693-7.936-8.796-8.747z" transform="translate(-453 -443) translate(250 175) translate(204 269) translate(16.216 11.302)"/>
                            <path fill="url(#2phywa1sya)" d="M3.76 29.262c-.271-.32-.517-.64-.738-.983-.098-.148-.197-.295-.295-.418-.024-.024-.049-.073-.074-.098-.073-.123-.172-.27-.245-.418l-.074-.147c-.074-.123-.147-.27-.221-.393l-.074-.148c-.073-.122-.147-.27-.196-.417-.025-.05-.05-.123-.074-.172-.074-.148-.123-.27-.197-.418-.024-.05-.049-.098-.073-.172-.05-.147-.123-.295-.172-.442 0-.025-.025-.074-.025-.098-.123-.344-.246-.688-.344-1.032 0-.025-.024-.05-.024-.099-.025-.122-.074-.245-.099-.368l-.073-.295c-.025-.123-.05-.221-.074-.344-.025-.098-.05-.221-.074-.32-.024-.122-.049-.22-.073-.343l-.074-.369c-.025-.098-.025-.221-.05-.32-.024-.122-.048-.245-.048-.392-.025-.099-.025-.197-.05-.32-.024-.147-.024-.27-.049-.417 0-.099-.024-.197-.024-.295 0-.172-.025-.32-.025-.492 0-.073 0-.147-.024-.245 0-.246-.025-.492-.025-.737 0-.246 0-.467.025-.713v-.221c0-.172.024-.32.024-.491 0-.074.025-.172.025-.246.024-.148.024-.32.049-.467 0-.074.024-.147.024-.221.025-.197.05-.369.074-.54 0-.05 0-.099.025-.123.024-.222.073-.443.123-.664.024-.073.024-.147.049-.196.024-.148.073-.295.098-.443.025-.073.05-.172.05-.245.024-.148.073-.27.097-.418.025-.074.05-.172.074-.246.05-.147.098-.294.123-.442.024-.074.049-.123.074-.196l.22-.59c.025-.074.05-.123.074-.197.05-.147.099-.27.172-.417.025-.074.074-.148.099-.246.049-.123.098-.221.172-.344.049-.074.073-.172.123-.246.049-.122.122-.22.172-.344.049-.073.073-.147.122-.22l.295-.517c-.22.811-.32 1.696-.32 2.63 0 3.193 1.352 5.626 4.03 7.272.148 2.874.983 5.135 2.408 6.584l-4.914 3.219z" transform="translate(-453 -443) translate(250 175) translate(204 269) translate(16.216 11.302)"/>
                            <path fill="url(#xixmhf167b)" d="M19.336 12.063c.835 1.253 1.376 2.826 1.572 4.718.688.319 1.278.688 1.818 1.105 1.99 1.548 2.998 3.808 2.998 6.683 0 .344-.025.688-.05 1.032v-.025c.099-.22.197-.466.27-.712.025-.074.05-.123.075-.197.049-.172.122-.344.172-.516.024-.073.049-.172.073-.245.025-.099.074-.221.099-.32.049-.147.073-.27.122-.417.025-.099.05-.222.074-.32l.074-.368c.024-.074.024-.172.049-.246.024-.172.074-.369.098-.54 0-.074.025-.148.025-.222l.073-.59c0-.049 0-.073.025-.122.025-.197.05-.369.05-.565 0-.05 0-.099.024-.148.024-.22.024-.442.049-.663v-.147c0-.222.024-.467.024-.688 0-.246 0-.492-.024-.762 0-.074 0-.147-.025-.246 0-.172-.024-.344-.024-.491 0-.098-.025-.197-.025-.295-.024-.147-.024-.295-.049-.442 0-.098-.025-.197-.05-.32-.024-.147-.024-.27-.048-.417-.025-.099-.025-.221-.05-.32-.024-.123-.049-.27-.073-.393-.025-.098-.05-.22-.074-.32l-.073-.368c-.025-.098-.05-.22-.074-.32-.025-.122-.074-.245-.098-.368-.025-.098-.05-.22-.099-.319-.024-.123-.073-.221-.098-.344-.025-.098-.074-.221-.098-.32-.05-.122-.074-.22-.123-.319-.05-.098-.074-.22-.123-.32-.05-.097-.074-.22-.123-.319-.049-.098-.098-.22-.123-.319l-.147-.295c-.05-.098-.098-.196-.148-.32l-.147-.294c-.05-.098-.098-.197-.172-.295-.05-.098-.098-.196-.172-.27-.049-.098-.123-.197-.172-.295-.049-.098-.123-.172-.172-.27-.172-.27-.368-.54-.565-.811-.147-.197-.295-.369-.442-.54l-4.103 4.225z" transform="translate(-453 -443) translate(250 175) translate(204 269) translate(16.216 11.302)"/>
                        </g>
                    </g>
                    <g transform="translate(-453 -443) translate(250 175) translate(204 269) translate(40.939 .853)"/>
                </g>
            </g>
        </g>
    </g>
</svg>
