<svg xmlns="http://www.w3.org/2000/svg" xmlns:xlink="http://www.w3.org/1999/xlink" width="140" height="140" viewBox="0 0 140 140">
    <defs>
        <linearGradient id="4hqdw92s0a" x1="50.898%" x2="41.036%" y1="79.568%" y2="-11.87%">
            <stop offset=".058%" stop-color="#FFF"/>
            <stop offset="100%" stop-color="#1E313F"/>
        </linearGradient>
        <linearGradient id="bb99mclszb" x1="48.094%" x2="58.005%" y1="17.958%" y2="112.287%">
            <stop offset=".058%" stop-color="#FFF"/>
            <stop offset="99.67%" stop-color="#4E5A64"/>
        </linearGradient>
        <path id="62fm63n7ic" d="M0 0L26.635 0 26.635 26.635 0 26.635z"/>
    </defs>
    <g fill="none" fill-rule="evenodd">
        <g fill-rule="nonzero">
            <circle cx="69.887" cy="70.117" r="69.367" fill="#1E313F" transform="rotate(-.192 69.887 70.117)"/>
            <path fill="#FFF" d="M113.267 113.21c23.795-23.967 23.68-62.626-.288-86.42-23.967-23.794-62.625-23.679-86.42.288l86.708 86.132z" opacity=".2"/>
            <g>
                <path fill="#FAFBFC" d="M38.37 37.39c-.691-.114-1.325-.287-1.958-.402-8.527-1.729-14.692-2.939-14.692-8.873 0-3.687 3.63-6.625 10.14-6.625 5.819 0 10.428 2.362 13.424 6.798l.46.115 9.277-9.506-.058-.346c-3.687-4.378-8.354-7.432-13.712-9.045-.749-.23-1.44-.403-2.19-.576h-.057c-.288-.058-.518-.115-.806-.173V.346H25.523v8.411c-.404.058-.807.173-1.21.23h-.058c-5.992 1.441-11.234 4.552-15.325 9.334-1.728 2.88-2.593 6.337-2.593 10.313 0 13.596 10.256 17.917 20.28 20.337 1.844.461 3.688.807 5.474 1.095 6.28 1.152 11.695 2.132 11.695 7.778 0 3.514-3.86 7.893-11.926 7.893-4.782 0-8.7-1.614-11.58-4.552-.173-.173-.403-.345-.576-.518L8.757 68.272v.403c1.556 1.844 3.284 3.457 5.128 4.84.634.46 1.267.864 1.901 1.267h.058c.633.403 1.325.749 1.958 1.095 0 0 .058 0 .058.057.691.346 1.325.634 2.017.922.057 0 .057 0 .115.058.691.288 1.382.518 2.074.749.057 0 .115 0 .115.057.346.115.634.173.98.288h.115c.345.115.691.173 1.094.288.058 0 .116 0 .173.058.288.058.634.115.922.173v8.411H38.14v-8.411c.23-.058.46-.058.691-.115h.116c.864-.173 1.728-.404 2.592-.692.403-.115.864-.288 1.268-.403 4.666-1.729 8.757-4.61 12.098-8.527 1.268-1.498 2.362-3.053 3.342-4.782.518-1.843.75-3.917.75-6.107.056-14.634-11.005-18.609-20.627-20.51z" transform="translate(38.025 26.502)"/>
                <path fill="url(#4hqdw92s0a)" d="M8.815 68.617c-.634-.749-1.21-1.498-1.729-2.304-.23-.346-.46-.692-.69-.98-.059-.057-.116-.173-.174-.23-.173-.288-.403-.634-.576-.98l-.173-.345c-.173-.288-.345-.634-.518-.922l-.173-.346c-.173-.288-.346-.633-.461-.98-.058-.114-.115-.287-.173-.402-.173-.346-.288-.634-.46-.98-.058-.115-.116-.23-.174-.403-.115-.346-.288-.692-.403-1.037 0-.058-.058-.173-.058-.23-.288-.807-.576-1.614-.806-2.42 0-.058-.058-.116-.058-.23-.057-.289-.173-.577-.23-.865l-.173-.691c-.058-.288-.115-.519-.173-.807-.057-.23-.115-.518-.173-.749-.057-.288-.115-.518-.173-.807l-.172-.864c-.058-.23-.058-.518-.116-.749-.057-.288-.115-.576-.115-.922-.057-.23-.057-.46-.115-.748-.058-.346-.058-.634-.115-.98 0-.23-.058-.46-.058-.691 0-.404-.057-.75-.057-1.153 0-.172 0-.345-.058-.576 0-.576-.058-1.152-.058-1.728 0-.576 0-1.095.058-1.67v-.52c0-.403.058-.748.058-1.152 0-.172.057-.403.057-.576.058-.345.058-.749.115-1.094 0-.173.058-.346.058-.519.058-.46.115-.864.173-1.267 0-.116 0-.23.057-.288.058-.519.173-1.038.288-1.556.058-.173.058-.346.116-.46.057-.347.173-.692.23-1.038.058-.173.115-.403.115-.576.058-.346.173-.634.23-.98.058-.172.116-.403.174-.576.115-.345.23-.691.288-1.037.057-.173.115-.288.173-.46l.518-1.383c.058-.173.115-.288.173-.461.115-.346.23-.634.403-.98.058-.172.173-.345.23-.576.116-.288.231-.518.404-.806.115-.173.173-.404.288-.576.115-.289.288-.519.403-.807.116-.173.173-.346.288-.519l.692-1.21c-.519 1.902-.75 3.976-.75 6.165 0 7.49 3.17 13.194 9.45 17.054.345 6.74 2.304 12.04 5.645 15.44L8.815 68.617z" transform="translate(38.025 26.502)"/>
                <path fill="url(#bb99mclszb)" d="M45.342 28.288c1.958 2.938 3.226 6.626 3.687 11.062 1.613.749 2.996 1.613 4.263 2.592 4.667 3.63 7.029 8.93 7.029 15.671 0 .807-.058 1.613-.115 2.42v-.058c.23-.518.46-1.094.634-1.67.057-.173.115-.289.172-.461.116-.404.288-.807.404-1.21.057-.173.115-.404.172-.576.058-.23.173-.519.23-.75.116-.345.174-.633.289-.979.058-.23.115-.518.173-.749l.173-.864c.057-.173.057-.403.115-.576.058-.403.173-.864.23-1.268 0-.172.058-.345.058-.518l.173-1.383c0-.115 0-.173.057-.288.058-.46.116-.864.116-1.325 0-.115 0-.23.057-.346.058-.518.058-1.037.115-1.555v-.346c0-.518.058-1.095.058-1.613 0-.576 0-1.152-.058-1.786 0-.173 0-.346-.057-.576 0-.403-.058-.807-.058-1.152 0-.23-.057-.461-.057-.692-.058-.345-.058-.691-.116-1.037 0-.23-.057-.46-.115-.749-.057-.346-.057-.634-.115-.98-.058-.23-.058-.518-.115-.748-.058-.288-.115-.634-.173-.922-.058-.23-.115-.519-.173-.749l-.173-.864c-.057-.23-.115-.519-.173-.75-.057-.287-.172-.575-.23-.863-.058-.23-.115-.519-.23-.75-.058-.287-.173-.518-.231-.806-.058-.23-.173-.518-.23-.749-.116-.288-.173-.518-.288-.749-.116-.23-.173-.518-.289-.749-.115-.23-.172-.518-.288-.749-.115-.23-.23-.518-.288-.749l-.345-.691c-.116-.23-.23-.461-.346-.75l-.346-.69c-.115-.23-.23-.461-.403-.692-.115-.23-.23-.46-.403-.634-.116-.23-.288-.46-.404-.69-.115-.231-.288-.404-.403-.635-.403-.633-.864-1.267-1.325-1.9-.346-.462-.691-.865-1.037-1.268l-9.621 9.91z" transform="translate(38.025 26.502)"/>
            </g>
        </g>
        <g transform="translate(96 2)">
            <mask id="wdmjya8bsd" fill="#fff">
                <use xlink:href="#62fm63n7ic"/>
            </mask>
            <path fill="#FFF" d="M26.635 13.317c-9.718 0-13.317 3.168-13.317 13.319 0-10.15-3.6-13.319-13.318-13.319 9.718 0 13.318-3.167 13.318-13.317 0 10.15 3.6 13.317 13.317 13.317" mask="url(#wdmjya8bsd)"/>
        </g>
    </g>
</svg>
