<svg xmlns="http://www.w3.org/2000/svg" width="31" height="30" viewBox="0 0 31 30">
    <path fill="#BDCBD5" fill-rule="evenodd" d="M18.41 15.015c-.636 0-1.153.515-1.153 1.149 0 .632.518 1.147 1.153 1.147s1.152-.515 1.152-1.147c0-.634-.516-1.149-1.152-1.149m6.09-.176c0-1.064-.869-1.929-1.938-1.929-.521 0-.994.209-1.342.544-1.32-.869-3.107-1.421-5.083-1.493l1.082-3.405 2.928.687-.004.042c0 .87.712 1.578 1.585 1.578.874 0 1.584-.708 1.584-1.578 0-.87-.71-1.578-1.584-1.578-.67 0-1.242.42-1.473 1.006l-3.156-.74c-.138-.034-.28.046-.322.18l-1.206 3.798c-2.07.025-3.944.583-5.322 1.476-.347-.318-.806-.518-1.313-.518C7.869 12.91 7 13.775 7 14.839c0 .707.388 1.32.96 1.656-.038.205-.063.414-.063.625 0 2.851 3.507 5.171 7.817 5.171 4.31 0 7.816-2.32 7.816-5.171 0-.2-.022-.396-.055-.59.607-.326 1.025-.958 1.025-1.691m6.25.161c0 8.284-6.716 15-15 15-8.284 0-15-6.716-15-15 0-8.284 6.716-15 15-15 8.284 0 15 6.716 15 15m-16.503 1.163c0-.634-.517-1.15-1.152-1.15-.637 0-1.154.516-1.154 1.15 0 .632.517 1.147 1.154 1.147.635.001 1.152-.514 1.152-1.147m4.3 3.022c.107.105.107.276 0 .383-.58.577-1.492.858-2.789.858l-.01-.002-.01.002c-1.294 0-2.207-.281-2.788-.86-.106-.105-.106-.276 0-.381.105-.105.277-.105.383 0 .474.471 1.26.701 2.405.701l.01.003.01-.003c1.144 0 1.93-.23 2.405-.701.107-.105.28-.105.384 0"/>
</svg>
