<svg width="24" height="24" viewBox="0 0 24 24" fill="none" xmlns="http://www.w3.org/2000/svg">
<g clip-path="url(#clip0_545_2277)">
<path d="M12 24C10.3803 24 8.80886 23.6825 7.32886 23.0568C5.89967 22.4523 4.61695 21.587 3.51457 20.4854C2.41304 19.3839 1.54773 18.1003 0.943202 16.6711C0.317505 15.1911 0 13.6197 0 12C0 10.3803 0.317505 8.80886 0.943202 7.32886C1.54773 5.89967 2.41304 4.61695 3.51457 3.51457C4.61695 2.41304 5.89967 1.54773 7.32886 0.943202C8.80886 0.317505 10.3803 0 12 0C13.6197 0 15.1911 0.317505 16.6711 0.943202C18.1003 1.54773 19.3831 2.41304 20.4854 3.51457C21.587 4.6161 22.4523 5.89967 23.0568 7.32886C23.6825 8.80886 24 10.3803 24 12C24 13.6197 23.6825 15.1911 23.0568 16.6711C22.4523 18.1003 21.587 19.3831 20.4854 20.4854C19.3839 21.587 18.1003 22.4523 16.6711 23.0568C15.1911 23.6833 13.6197 24 12 24Z" fill="white"/>
<path d="M12 23.3643C18.2763 23.3643 23.3642 18.2764 23.3642 12.0001C23.3642 5.72389 18.2763 0.635986 12 0.635986C5.72376 0.635986 0.635864 5.72389 0.635864 12.0001C0.635864 18.2764 5.72376 23.3643 12 23.3643Z" fill="black"/>
<path d="M12.2794 7.4794C13.7975 7.61487 14.9922 8.87219 15.0294 10.4165L17.3587 11.3843L16.1445 9.40475L18.726 6.82323L17.1834 5.28057L14.9719 7.49295L12.2803 3.10376V7.4794H12.2794Z" fill="white"/>
<path d="M14.9896 10.9915C14.7661 12.336 13.6553 13.3799 12.2794 13.5036V15.1021L17.4052 11.9956L14.9896 10.9915Z" fill="white"/>
<path d="M9.02392 10.9915L6.60834 11.9948L11.7341 15.1012V13.5027C10.3583 13.3799 9.24744 12.336 9.02392 10.9915Z" fill="white"/>
<path d="M17.3476 13.6248L12.2794 16.6965V20.7648L14.3648 17.826L16.5416 20.0028L18.0843 18.4601L15.6458 16.0217L17.3476 13.6248Z" fill="white"/>
<path d="M11.7342 16.6965L6.66593 13.6248L8.36776 16.0217L5.92932 18.4601L7.47197 20.0028L9.64879 17.8268L11.7342 20.764V16.6965Z" fill="white"/>
<path d="M6.65493 11.3851L8.98414 10.4174C9.0214 8.87304 10.2161 7.61572 11.7342 7.48025V3.10376L9.04256 7.49295L6.83019 5.28058L5.28754 6.82407L7.86907 9.4056L6.65493 11.3851Z" fill="white"/>
<path d="M12.1135 10.144C11.3658 9.91456 11.3658 9.78756 11.3658 9.68511C11.3658 9.54287 11.5809 9.34644 11.9848 9.34644C12.2235 9.34644 12.6249 9.40571 12.6249 9.80534H13.3522C13.3522 9.09582 12.8027 8.61914 11.9848 8.61914C11.1102 8.61914 10.6385 9.16864 10.6385 9.68511C10.6385 10.3912 11.2583 10.6419 11.895 10.8383C12.6426 11.0677 12.6469 11.1964 12.6469 11.2989C12.6469 11.4411 12.4318 11.6376 12.028 11.6376C11.7883 11.6376 11.3879 11.5783 11.3879 11.1787H10.6606C10.6606 11.8882 11.2101 12.3649 12.028 12.3649C12.9026 12.3649 13.3742 11.8154 13.3742 11.2989C13.375 10.5919 12.751 10.3396 12.1135 10.144Z" fill="white"/>
</g>
<defs>
<clipPath id="clip0_545_2277">
<rect width="24" height="24" rx="12" fill="white"/>
</clipPath>
</defs>
</svg>
