<svg width="14" height="25" viewBox="0 0 14 25" fill="none" xmlns="http://www.w3.org/2000/svg">
<path fill-rule="evenodd" clip-rule="evenodd" d="M7.48151 25C7.75431 25 8.01659 24.8937 8.209 24.7036L13.6985 19.3087C14.1005 18.9135 14.1005 18.2728 13.6985 17.8776C13.2965 17.4825 12.6446 17.4825 12.2426 17.8776L8.51055 21.546L8.51055 1.01144C8.51055 0.452561 8.05014 -1.65171e-06 7.48156 -1.62728e-06C6.91298 -1.60285e-06 6.45256 0.452561 6.45256 1.01144L6.45256 21.546L2.72054 17.8776C2.31852 17.4825 1.66665 17.4825 1.26463 17.8776C0.862606 18.2728 0.862606 18.9135 1.26463 19.3087L6.75411 24.7036C6.94651 24.8937 7.2087 25 7.48151 25Z" fill="url(#paint0_linear_600_9253)"/>
<defs>
<linearGradient id="paint0_linear_600_9253" x1="7.48156" y1="32.2485" x2="7.48155" y2="-11.2426" gradientUnits="userSpaceOnUse">
<stop stop-color="#8C66FC"/>
<stop offset="1" stop-color="#0274F1"/>
</linearGradient>
</defs>
</svg>
