<svg width="33" height="32" viewBox="0 0 33 32" fill="none" xmlns="http://www.w3.org/2000/svg">
<rect x="0.75" width="32" height="32" rx="16" fill="white"/>
<g clip-path="url(#clip0_306_1400)">
<path d="M9.12276 14.2974L8.92204 14.5956C6.6138 18.1743 7.11559 22.8465 10.2267 25.8287C11.9328 27.6181 14.3414 28.5127 16.75 28.5127C16.75 28.5127 16.75 28.5127 9.12276 14.2974Z" fill="#00A3FF"/>
<path opacity="0.6" d="M16.75 18.572L9.12276 14.198C16.75 28.5128 16.75 28.5128 16.75 28.5128C16.75 25.4311 16.75 21.8524 16.75 18.572Z" fill="#00A3FF"/>
<path opacity="0.6" d="M24.3772 14.2974L24.578 14.5956C26.8862 18.1743 26.3844 22.8465 23.2733 25.8287C21.4668 27.6181 19.1586 28.5127 16.75 28.5127C16.75 28.5127 16.75 28.5127 24.3772 14.2974Z" fill="#00A3FF"/>
<path opacity="0.2" d="M16.75 18.572L24.3772 14.198C16.75 28.5128 16.75 28.5128 16.75 28.5128C16.75 25.4311 16.75 21.8524 16.75 18.572Z" fill="#00A3FF"/>
<path opacity="0.2" d="M16.75 8.92932V16.3849L23.3737 12.7068L16.75 8.92932Z" fill="#00A3FF"/>
<path opacity="0.6" d="M16.75 8.92932L10.1263 12.7068L16.75 16.3849V8.92932Z" fill="#00A3FF"/>
<path d="M16.75 2.66663L10.1263 12.7069L16.75 8.92935V2.66663Z" fill="#00A3FF"/>
<path opacity="0.6" d="M16.75 8.92935L23.3737 12.7069L16.75 2.66663V8.92935Z" fill="#00A3FF"/>
</g>
<defs>
<clipPath id="clip0_306_1400">
<rect width="18.6667" height="25.8462" fill="white" transform="translate(7.41666 2.66663)"/>
</clipPath>
</defs>
</svg>
