<svg xmlns="http://www.w3.org/2000/svg" width="30" height="30" viewBox="0 0 30 30">
    <g fill="none" fill-rule="evenodd">
        <circle cx="15" cy="15" r="15" fill="#2775CA"/>
        <path fill="#FAFBFC" d="M17.684 24.212c-.21-.053-.315-.21-.315-.421v-.737c0-.264.105-.421.315-.527 2.158-.79 3.895-2.473 4.685-4.684 1.526-4.053-.58-8.632-4.685-10.106-.158-.105-.315-.316-.315-.526v-.737c0-.106 0-.158.052-.21.053-.211.263-.317.474-.211 2.895.947 5.21 3.21 6.158 6.21 1.58 5-1.158 10.317-6.158 11.896-.053.053-.158.053-.21.053zM15.842 21c-.052.263-.21.421-.421.421h-.79c-.263-.053-.42-.21-.42-.421v-1.263c-1.737-.264-2.58-1.211-2.79-2.527v-.052c0-.211.158-.369.368-.369h.895c.158 0 .316.105.368.316.158.79.632 1.368 2 1.368 1 0 1.738-.578 1.738-1.42 0-.843-.474-1.159-1.948-1.422-2.21-.263-3.263-.947-3.263-2.684 0-1.316 1-2.369 2.579-2.58v-1.21c.052-.263.21-.421.421-.421h.79c.263.053.42.21.42.421v1.263c1.211.106 2.159 1 2.37 2.158v.053c0 .21-.159.368-.37.368h-.841c-.158 0-.316-.105-.369-.263-.263-.79-.79-1.105-1.737-1.105-1.053 0-1.579.473-1.579 1.21s.316 1.158 1.895 1.37c2.21.262 3.316.894 3.316 2.736 0 1.421-1.053 2.526-2.632 2.79V21zm-3.21 2.684c0 .106 0 .158-.053.21-.053.211-.263.317-.474.211-2.947-.947-5.21-3.21-6.158-6.158-1.58-5 1.158-10.316 6.158-11.895.053-.053.158-.053.21-.053.211.053.316.21.316.421v.737c0 .263-.105.421-.315.526-2.158.79-3.895 2.474-4.685 4.685-1.526 4.053.58 8.632 4.685 10.106.158.105.315.315.315.473v.737z"/>
    </g>
</svg>
