<svg xmlns="http://www.w3.org/2000/svg" width="96" height="95" viewBox="0 0 96 95">
    <g fill="none" fill-rule="evenodd">
        <path fill="#53ae94" d="M51.248 49.59v-.006c-.297.019-1.824.11-5.224.11-2.718 0-4.63-.077-5.304-.112v.009c-10.46-.464-18.267-2.285-18.267-4.465 0-2.179 7.808-3.997 18.267-4.462v7.113c.685.046 2.645.162 5.349.162 3.248 0 4.88-.136 5.18-.162v-7.113c10.44.465 18.229 2.288 18.229 4.46s-7.793 3.996-18.228 4.46m-.006-9.658v-6.37H65.81v-9.705H26.147v9.706h14.568v6.364c-11.84.544-20.742 2.888-20.742 5.697s8.907 5.154 20.742 5.701v20.403h10.533V51.318c11.818-.546 20.702-2.89 20.702-5.696 0-2.806-8.884-5.149-20.702-5.694" transform="translate(1.811 1.637)"/>
        <path stroke="#53ae94" stroke-width="3" d="M0 45.907C0 20.553 20.553 0 45.907 0 71.26 0 91.813 20.553 91.813 45.907c0 25.353-20.553 45.906-45.906 45.906C20.553 91.813 0 71.26 0 45.907z" transform="translate(1.811 1.637)"/>
    </g>
</svg>
