<svg xmlns="http://www.w3.org/2000/svg" width="31" height="30" viewBox="0 0 31 30">
    <path fill="#BDCBD5" fill-rule="evenodd" d="M15.434 12.353c-.466 0-.844-.378-.844-.844 0-.465.378-.843.844-.843.466 0 .844.378.844.843 0 .466-.378.844-.844.844zm-4.216 0c-.467 0-.844-.378-.844-.844 0-.465.377-.843.844-.843.465 0 .842.378.842.843 0 .466-.377.844-.842.844zm9.768 4.11c-.389 0-.702-.314-.702-.702 0-.388.313-.702.702-.702.388 0 .703.314.703.702 0 .388-.315.703-.703.703zm-3.515 0c-.387 0-.702-.314-.702-.702 0-.388.315-.702.702-.702.389 0 .704.314.704.702 0 .388-.315.703-.704.703zm5.208 4.023c-.089.064-.148.17-.148.287l.019.112.237.886.028.13c0 .095-.078.174-.175.174l-.101-.032-1.154-.667c-.089-.05-.179-.08-.28-.08l-.155.023c-.54.155-1.12.24-1.721.24-2.912 0-5.272-1.966-5.272-4.393 0-2.425 2.36-4.392 5.272-4.392 2.911 0 5.271 1.967 5.271 4.392 0 1.324-.71 2.515-1.821 3.32zm-9.354-2.02c-.721 0-1.419-.102-2.064-.288l-.186-.028c-.121 0-.232.038-.336.098l-1.385.797-.121.041c-.117 0-.212-.095-.212-.21l.034-.155.285-1.063.022-.134c0-.144-.07-.268-.177-.344C7.853 16.214 7 14.784 7 13.196c0-2.91 2.832-5.27 6.325-5.27 3.156 0 5.771 1.924 6.248 4.443l-.344-.009c-3.186 0-5.769 2.153-5.769 4.806 0 .45.075.882.212 1.293l-.347.007zM15.75 0c-8.282 0-15 6.715-15 15 0 8.284 6.718 15 15 15 8.284 0 15-6.716 15-15 0-8.285-6.716-15-15-15z"/>
</svg>
