<svg xmlns="http://www.w3.org/2000/svg" width="31" height="30" viewBox="0 0 31 30">
    <path fill="#BDCBD5" fill-rule="evenodd" d="M21.077 18.682c0-.32-.067-.555-.386-.555-.325 0-.393.229-.393.555v.482h.78v-.482zm.909.01v1.207h-1.689v.894c0 .358.03.665.386.665.372 0 .393-.25.393-.665v-.329h.91v.355c0 .914-.393 1.47-1.323 1.47-.845 0-1.273-.615-1.273-1.47v-2.128c0-.824.543-1.395 1.34-1.395.846.001 1.256.537 1.256 1.396zm1.105.319c-.015-3.258-.255-4.503-2.309-4.644-1.899-.13-8.07-.129-9.965 0-2.052.141-2.292 1.38-2.31 4.644.018 3.256.255 4.501 2.31 4.643 1.895.128 8.066.128 9.965 0 2.053-.142 2.294-1.38 2.309-4.643zM10.442 6.25l1.241 4.013v2.74h1.044v-2.74l1.215-4.013h-1.061l-.669 2.698-.719-2.698h-1.05zm3.451 3.067v2.443c0 .88.46 1.335 1.357 1.335.747 0 1.33-.499 1.33-1.335V9.318c0-.78-.58-1.339-1.33-1.339-.814 0-1.357.542-1.357 1.34zm3.474 2.868c0 .492.15.891.65.891.279 0 .666-.148 1.068-.623v.55h.926V8.022h-.926v3.781c-.113.14-.364.373-.544.373-.199 0-.248-.134-.248-.337V8.022h-.926v4.164zM30.8 15c0 8.283-6.717 15-15 15-8.284 0-15-6.717-15-15 0-8.285 6.716-15 15-15 8.283 0 15 6.715 15 15zm-12.983 3.598c0-.16-.031-.282-.095-.365-.107-.142-.305-.156-.459-.078l-.18.145v2.957l.208.166c.142.074.352.08.45-.048.05-.067.077-.175.077-.327V18.6zm.908-.053v2.63c0 .588-.22 1.042-.805 1.042-.325 0-.594-.117-.84-.425v.365h-.89v-6.43h.89v2.069c.2-.241.47-.443.786-.443.645.002.859.547.859 1.192zm-5.902-2.817H9.775v.934h1.028v5.496h.994v-5.496h1.026v-.934zm2.427-3.538c.25 0 .388-.202.388-.473V9.402c0-.279-.122-.476-.405-.476-.26 0-.386.201-.386.476v2.316c-.001.264.146.473.403.473zm-.803 5.225h.883v4.743h-.883v-.523c-.162.193-.332.341-.505.442-.477.273-1.129.266-1.129-.697v-3.965h.882v3.636c0 .192.046.32.235.32.172 0 .41-.219.518-.355v-3.601z"/>
</svg>
