<svg width="121" height="32" viewBox="0 0 121 32" fill="none" xmlns="http://www.w3.org/2000/svg">
<g clip-path="url(#clip0_121_15639)">
<path d="M16 32C13.8404 32 11.7451 31.5767 9.77182 30.7424C7.86622 29.9364 6.15593 28.7826 4.68609 27.3139C3.21739 25.8452 2.06364 24.1338 1.2576 22.2282C0.42334 20.2549 0 18.1596 0 16C0 13.8404 0.42334 11.7451 1.2576 9.77182C2.06364 7.86622 3.21739 6.15593 4.68609 4.68609C6.15593 3.21739 7.86622 2.06364 9.77182 1.2576C11.7451 0.42334 13.8404 0 16 0C18.1596 0 20.2549 0.42334 22.2282 1.2576C24.1338 2.06364 25.8441 3.21739 27.3139 4.68609C28.7826 6.1548 29.9364 7.86622 30.7424 9.77182C31.5767 11.7451 32 13.8404 32 16C32 18.1596 31.5767 20.2549 30.7424 22.2282C29.9364 24.1338 28.7826 25.8441 27.3139 27.3139C25.8452 28.7826 24.1338 29.9364 22.2282 30.7424C20.2549 31.5778 18.1596 32 16 32Z" fill="white"/>
<path d="M16 31.1522C24.3684 31.1522 31.1522 24.3683 31.1522 16C31.1522 7.63165 24.3684 0.847778 16 0.847778C7.63171 0.847778 0.847839 7.63165 0.847839 16C0.847839 24.3683 7.63171 31.1522 16 31.1522Z" fill="black"/>
<path d="M23.9814 16C23.9814 14.3766 23.4937 12.8662 22.6583 11.6041L25.1363 9.1261L22.9078 6.89764L20.4366 9.36881C19.1677 8.51649 17.6414 8.01864 16.0011 8.01864C14.3778 8.01864 12.8673 8.50633 11.6052 9.34172L9.1261 6.86377L6.89764 9.09223L9.36881 11.5634C8.51649 12.8323 8.01864 14.3586 8.01864 15.9989C8.01864 17.6223 8.50633 19.1327 9.34172 20.3949L6.86377 22.8739L9.09223 25.1024L11.5634 22.6312C12.8323 23.4835 14.3586 23.9814 15.9989 23.9814C17.6223 23.9814 19.1327 23.4937 20.3949 22.6583L22.8739 25.1374L25.1024 22.9089L22.6312 20.4377C23.4835 19.1666 23.9814 17.6403 23.9814 16ZM11.1717 16C11.1717 13.3369 13.3381 11.1705 16.0011 11.1705C18.6642 11.1705 20.8306 13.3369 20.8306 16C20.8306 18.6631 18.6642 20.8295 16.0011 20.8295C13.3381 20.8295 11.1717 18.6631 11.1717 16Z" fill="white"/>
</g>
<path d="M55.1357 4.98608H41V27.0143H45.5647V17.7671H53.3688V13.762H45.5647V8.9912H55.1357V4.98608Z" fill="white"/>
<path d="M75.8101 27.0143L71.1277 18.3561C73.3069 17.2959 74.6616 15.1167 74.6616 12.0539C74.6616 7.51873 71.7461 4.98608 67.5643 4.98608H58.1405V27.0143H62.7051V19.0924H66.3863L70.6859 27.0143H75.8101ZM62.6757 15.0578V8.9912H67.0048C68.7717 8.9912 70.038 10.0514 70.038 12.0539C70.038 13.9976 68.7717 15.0578 67.0048 15.0578H62.6757Z" fill="white"/>
<path d="M90.0982 4.98608H86.2697L76.8165 27.0143H81.7934L83.6193 22.7735H92.7781L94.5745 27.0143H99.5809L90.0982 4.98608ZM88.2134 12.0245L91.1878 19.0629H85.239L88.2134 12.0245Z" fill="white"/>
<path d="M120.143 4.98608H114.901L110.365 12.7902L105.801 4.98608H100.559L106.979 15.8235L100.176 27.0143H105.447L110.365 18.8273L115.254 27.0143H120.525L113.723 15.8235L120.143 4.98608Z" fill="white"/>
<defs>
<clipPath id="clip0_121_15639">
<rect width="32" height="32" fill="white"/>
</clipPath>
</defs>
</svg>
