<svg width="143" height="32" viewBox="0 0 143 32" fill="none" xmlns="http://www.w3.org/2000/svg">
<g clip-path="url(#clip0_121_15619)">
<path d="M43.4752 6.55041H47.0752V22H55.9248V25.4496H43.4752V6.55041ZM71.6624 6.55041H75.2624V25.4496H71.6624V6.55041ZM92.496 6.55041H98.496C99.7344 6.55041 100.915 6.80961 102.035 7.32961C103.155 7.83041 104.146 8.51041 105.005 9.36961C105.867 10.2328 106.559 11.2505 107.045 12.3696C107.546 13.5104 107.795 14.72 107.795 16C107.795 17.28 107.546 18.4896 107.045 19.6304C106.559 20.7495 105.867 21.7672 105.005 22.6304C104.145 23.4899 103.139 24.1904 102.035 24.6992C100.915 25.2 99.7344 25.4512 98.496 25.4512H92.496V6.55041ZM98.496 22C99.2352 22 99.9456 21.84 100.624 21.52C101.325 21.2 101.936 20.7696 102.454 20.2304C102.995 19.6896 103.414 19.0592 103.715 18.3408C104.035 17.6 104.195 16.8208 104.195 16C104.195 15.1808 104.035 14.4096 103.715 13.6896C103.429 12.971 103 12.3178 102.454 11.7696C101.932 11.2279 101.311 10.7903 100.626 10.48C99.9604 10.1633 99.2328 9.99934 98.496 10H96.096V22H98.496ZM132.093 25.6C130.876 25.6048 129.671 25.3597 128.552 24.88C127.464 24.3876 126.477 23.6957 125.643 22.84C124.811 21.9423 124.141 20.9073 123.662 19.7808C123.175 18.5805 122.931 17.2954 122.944 16C122.944 14.6592 123.184 13.4096 123.664 12.2496C124.133 11.1181 124.804 10.0814 125.645 9.19041C126.468 8.32224 127.457 7.62848 128.554 7.15041C129.667 6.65178 130.873 6.39597 132.093 6.40001C133.303 6.39377 134.501 6.64977 135.603 7.15041C136.723 7.63041 137.693 8.31041 138.512 9.19041C139.366 10.071 140.039 11.1103 140.493 12.2496C140.992 13.4096 141.243 14.6592 141.243 16C141.243 17.36 140.992 18.6192 140.491 19.7808C140.028 20.915 139.357 21.9525 138.512 22.84C137.686 23.7045 136.697 24.3977 135.603 24.88C134.502 25.36 133.331 25.6 132.093 25.6ZM132.093 22.1504C132.832 22.1504 133.542 22 134.222 21.7008C134.893 21.4074 135.496 20.9781 135.992 20.44C136.502 19.8647 136.909 19.2046 137.192 18.4896C137.493 17.7296 137.643 16.9008 137.643 16C137.643 15.0992 137.493 14.28 137.192 13.5408C136.917 12.8209 136.51 12.1588 135.992 11.5888C135.501 11.0402 134.901 10.6015 134.229 10.3015C133.557 10.0015 132.829 9.84698 132.093 9.84801C131.349 9.84618 130.613 9.99987 129.933 10.2992C129.268 10.6026 128.675 11.0425 128.192 11.5904C127.674 12.1599 127.267 12.8215 126.992 13.5408C126.685 14.3238 126.533 15.159 126.544 16C126.544 16.9008 126.693 17.7296 126.992 18.4896C127.293 19.2304 127.693 19.88 128.192 20.44C128.693 20.9808 129.272 21.4 129.933 21.6992C130.613 22.0001 131.349 22.1538 132.093 22.1504Z" fill="white"/>
<path fill-rule="evenodd" clip-rule="evenodd" d="M11.208 0L19.1264 12.3968L11.208 17.0112L3.2912 12.3968L11.208 0ZM5.7152 11.8096L11.208 3.208L16.7024 11.8096L11.208 15.0128L5.7152 11.8096Z" fill="#00A3FF"/>
<path d="M11.1968 19.736L2.0128 14.384L1.7616 14.776C0.680284 16.4685 0.0740314 18.4206 0.0063599 20.4279C-0.0613116 22.4352 0.412088 24.4237 1.37696 26.1851C2.34184 27.9466 3.76267 29.4161 5.49061 30.4398C7.21855 31.4635 9.19 32.0036 11.1984 32.0036C13.2068 32.0036 15.1782 31.4635 16.9062 30.4398C18.6341 29.4161 20.055 27.9466 21.0198 26.1851C21.9847 24.4237 22.4581 22.4352 22.3904 20.4279C22.3228 18.4206 21.7165 16.4685 20.6352 14.776L20.384 14.384L11.1968 19.7376V19.736Z" fill="#00A3FF"/>
</g>
<defs>
<clipPath id="clip0_121_15619">
<rect width="142.4" height="32" fill="white"/>
</clipPath>
</defs>
</svg>
