<svg width="96" height="96" viewBox="0 0 96 96" fill="none" xmlns="http://www.w3.org/2000/svg">
<rect width="96" height="96" rx="48" fill="#141519"/>
<path fill-rule="evenodd" clip-rule="evenodd" d="M67.2389 43.2845V64.2058H67.2383C67.2383 65.7747 65.9395 67.0587 64.3521 67.0587H31.6475C30.0605 67.0587 28.7617 65.7747 28.7617 64.2058V43.2845C28.7617 41.7156 30.0605 40.4316 31.6475 40.4316H37.4189V31.8728C37.4189 26.0998 42.1616 21.4116 48.0003 21.4116C53.8396 21.4116 58.5817 26.1004 58.5817 31.8728V40.4316H64.3532C65.9401 40.4316 67.2389 41.7156 67.2389 43.2845ZM39.3431 53.7448C39.3431 58.4617 43.2293 62.3037 48.0003 62.3037C52.7714 62.3037 56.6575 58.4617 56.6575 53.7448C56.6575 49.028 52.7714 45.186 48.0003 45.186C43.2293 45.186 39.3431 49.028 39.3431 53.7448ZM39.3431 31.873V40.4318H56.6575V31.873C56.6575 27.1561 52.7714 23.3141 48.0003 23.3141C43.2293 23.3141 39.3431 27.1561 39.3431 31.873ZM47.423 49.9412C47.423 49.4183 47.8557 48.9904 48.3847 48.9904C48.9137 48.9904 49.3465 49.4183 49.3465 49.9412V53.745C49.3465 54.268 48.9137 54.6959 48.3847 54.6959H45.499C44.97 54.6959 44.5372 54.268 44.5372 53.745C44.5372 53.222 44.97 52.7942 45.499 52.7942H47.423V49.9412Z" fill="url(#paint0_linear_3200_36647)"/>
<defs>
<linearGradient id="paint0_linear_3200_36647" x1="17.6056" y1="44.2352" x2="84.5422" y2="44.2352" gradientUnits="userSpaceOnUse">
<stop stop-color="#B361E6"/>
<stop offset="1" stop-color="#6A36FC"/>
</linearGradient>
</defs>
</svg>
