<svg width="33" height="32" viewBox="0 0 33 32" fill="none" xmlns="http://www.w3.org/2000/svg">
<path d="M16.3034 31.9466C25.1105 31.9171 32.2261 24.7537 32.1966 15.9466C32.167 7.13958 25.0036 0.0239843 16.1966 0.0534967C7.38952 0.0830091 0.273925 7.24645 0.303437 16.0535C0.332949 24.8605 7.49639 31.9761 16.3034 31.9466Z" fill="#0074F0"/>
<path opacity="0.2" d="M26.2176 25.9039C31.6852 20.3997 31.6578 11.4999 26.1537 6.03226C20.6495 0.564609 11.7497 0.591993 6.28207 6.09616L26.2176 25.9039Z" fill="white"/>
<path d="M15.5988 9.70186C15.8129 9.67998 16.0302 9.66877 16.25 9.66877C19.7454 9.66877 22.5789 12.5023 22.5789 15.9977C22.5789 18.7233 20.8559 21.0466 18.4396 21.9376L16.2922 24.9576C21.2212 24.9349 25.21 20.9321 25.21 15.9977C25.21 11.3642 21.6929 7.55217 17.1828 7.08563L15.5988 9.70186Z" fill="white"/>
<path d="M16.0467 7.03992C11.1921 7.148 7.29001 11.1171 7.29001 15.9977C7.29001 20.5636 10.7053 24.3319 15.1206 24.8872L16.9702 22.286C16.7338 22.3128 16.4935 22.3265 16.25 22.3265C12.7547 22.3265 9.92112 19.493 9.92112 15.9977C9.92112 13.1967 11.7407 10.8207 14.2623 9.98721L16.0467 7.03992Z" fill="white"/>
<path d="M18.4396 21.9376C20.8559 21.0466 22.579 18.7234 22.579 15.9977H25.2101C25.2101 20.9321 21.2213 24.9349 16.2922 24.9576L18.4396 21.9376Z" fill="url(#paint0_linear_121_15842)"/>
<path d="M16.0467 7.03992C11.1921 7.148 7.29001 11.1171 7.29001 15.9977C7.29001 15.9977 9.92112 16.0355 9.92112 15.9977C9.92112 13.1967 11.7407 10.8207 14.2623 9.98721L16.0467 7.03992Z" fill="url(#paint1_linear_121_15842)"/>
<path d="M16.2338 23.3223L20.7327 16.9868L16.2338 19.6418L11.7374 16.9868L16.2338 23.3223Z" fill="white"/>
<path opacity="0.1" d="M16.2339 23.3223L20.7327 16.9868L16.2339 19.6418V23.3223Z" fill="#0074F0"/>
<path d="M16.2202 18.8011L20.7414 16.1412L16.2202 8.67346L11.6989 16.1412L16.2202 18.8011Z" fill="url(#paint2_linear_121_15842)"/>
<path d="M16.2202 18.8011L20.7414 16.1412L16.2202 8.67346L11.6989 16.1412L16.2202 18.8011Z" fill="white"/>
<path opacity="0.1" d="M16.2201 18.8008L11.6989 16.1412L16.2201 8.67346L16.2201 18.8008Z" fill="#0074F0"/>
<path opacity="0.1" d="M16.2201 18.801V14.0215L11.6989 16.1411L16.2201 18.801Z" fill="#0074F0"/>
<path opacity="0.1" d="M16.2202 18.801V14.0215L20.7415 16.1411L16.2202 18.801Z" fill="#0074F0"/>
<defs>
<linearGradient id="paint0_linear_121_15842" x1="10.3509" y1="27.2243" x2="20.2187" y2="20.7604" gradientUnits="userSpaceOnUse">
<stop stop-color="#1A82FF" stop-opacity="0.5"/>
<stop offset="1" stop-color="white"/>
</linearGradient>
<linearGradient id="paint1_linear_121_15842" x1="21.0856" y1="2.91561" x2="11.644" y2="9.73743" gradientUnits="userSpaceOnUse">
<stop stop-color="#1A82FF" stop-opacity="0.5"/>
<stop offset="1" stop-color="white"/>
</linearGradient>
<linearGradient id="paint2_linear_121_15842" x1="6.60131" y1="11.3777" x2="14.5222" y2="16.2115" gradientUnits="userSpaceOnUse">
<stop stop-color="#1C313F"/>
<stop offset="1" stop-color="white"/>
</linearGradient>
</defs>
</svg>
