<svg width="33" height="32" viewBox="0 0 33 32" fill="none" xmlns="http://www.w3.org/2000/svg">
<g clip-path="url(#clip0_306_1416)">
<path d="M16.75 32C14.5904 32 12.4951 31.5767 10.5218 30.7424C8.61622 29.9364 6.90593 28.7826 5.43609 27.3139C3.96739 25.8452 2.81364 24.1338 2.0076 22.2282C1.17334 20.2549 0.75 18.1596 0.75 16C0.75 13.8404 1.17334 11.7451 2.0076 9.77182C2.81364 7.86622 3.96739 6.15593 5.43609 4.68609C6.90593 3.21739 8.61622 2.06364 10.5218 1.2576C12.4951 0.42334 14.5904 0 16.75 0C18.9096 0 21.0049 0.42334 22.9782 1.2576C24.8838 2.06364 26.5941 3.21739 28.0639 4.68609C29.5326 6.1548 30.6864 7.86622 31.4924 9.77182C32.3267 11.7451 32.75 13.8404 32.75 16C32.75 18.1596 32.3267 20.2549 31.4924 22.2282C30.6864 24.1338 29.5326 25.8441 28.0639 27.3139C26.5952 28.7826 24.8838 29.9364 22.9782 30.7424C21.0049 31.5778 18.9096 32 16.75 32Z" fill="white"/>
<path d="M16.75 31.1522C25.1183 31.1522 31.9022 24.3683 31.9022 16C31.9022 7.63165 25.1183 0.847778 16.75 0.847778C8.38168 0.847778 1.59781 7.63165 1.59781 16C1.59781 24.3683 8.38168 31.1522 16.75 31.1522Z" fill="black"/>
<path d="M17.1225 13.1541V20.1352L23.9569 15.9933L17.1225 13.1541Z" fill="white"/>
<path d="M17.1225 12.366L23.8948 15.1804L22.276 12.541L25.718 9.09897L23.6612 7.04097L20.7125 9.9908L17.1225 4.13855V12.366Z" fill="white"/>
<path d="M16.3955 20.1352V13.1541L9.56113 15.9933L16.3955 20.1352Z" fill="white"/>
<path d="M9.6232 15.1804L16.3955 12.366V4.13855L12.8067 9.9908L9.85689 7.04097L7.80002 9.09897L11.2421 12.5399L9.6232 15.1804Z" fill="white"/>
<path d="M23.8802 18.1664L17.1225 22.2621V27.6865L19.903 23.768L22.8054 26.6704L24.8623 24.6136L21.6111 21.3623L23.8802 18.1664Z" fill="white"/>
<path d="M16.3955 22.2621L9.63788 18.1664L11.907 21.3623L8.65573 24.6136L10.7126 26.6704L13.615 23.7691L16.3955 27.6853V22.2621Z" fill="white"/>
</g>
<defs>
<clipPath id="clip0_306_1416">
<rect width="32" height="32" fill="white" transform="translate(0.75)"/>
</clipPath>
</defs>
</svg>
