<svg width="20" height="20" viewBox="0 0 20 20" fill="none" xmlns="http://www.w3.org/2000/svg">
<path fill-rule="evenodd" clip-rule="evenodd" d="M10 18C14.4183 18 18 14.4183 18 10C18 5.58172 14.4183 2 10 2C5.58172 2 2 5.58172 2 10C2 14.4183 5.58172 18 10 18ZM10 20C15.5228 20 20 15.5228 20 10C20 4.47715 15.5228 0 10 0C4.47715 0 0 4.47715 0 10C0 15.5228 4.47715 20 10 20Z" fill="#A3A4A8"/>
<path fill-rule="evenodd" clip-rule="evenodd" d="M10.0009 11.596L6.57952 7.99639C6.33612 7.74032 5.93161 7.73529 5.68512 7.99476C5.43681 8.256 5.43927 8.67543 5.68667 8.93588L9.55458 13.0052C9.67847 13.1356 9.83983 13.2003 10.0012 13.2C10.1622 13.1982 10.3246 13.1346 10.4476 13.0052L14.3155 8.93588C14.5589 8.6798 14.5636 8.25409 14.317 7.99476C14.0687 7.73352 13.67 7.7361 13.4226 7.99639L10.0009 11.596Z" fill="#A3A4A8"/>
</svg>
