<svg width="18" height="13" viewBox="0 0 18 13" fill="none" xmlns="http://www.w3.org/2000/svg">
<path fill-rule="evenodd" clip-rule="evenodd" d="M9.27052 3.02046C11.7576 3.02057 14.1496 3.92557 15.9521 5.54843C16.0879 5.67372 16.3048 5.67214 16.4385 5.54489L17.736 4.30482C17.8037 4.24028 17.8414 4.15285 17.8409 4.06189C17.8403 3.97092 17.8015 3.88392 17.733 3.82013C13.002 -0.473572 5.53829 -0.473572 0.807275 3.82013C0.738743 3.88387 0.699859 3.97085 0.699227 4.06181C0.698595 4.15278 0.736267 4.24023 0.803908 4.30482L2.10177 5.54489C2.23537 5.67234 2.45249 5.67392 2.58814 5.54843C4.39088 3.92547 6.78317 3.02046 9.27052 3.02046ZM9.26874 7.16258C10.6261 7.1625 11.9349 7.66476 12.9411 8.57178C13.0771 8.7005 13.2915 8.69771 13.4242 8.56549L14.7114 7.27061C14.7792 7.20269 14.8168 7.11055 14.8159 7.01481C14.8149 6.91906 14.7754 6.82771 14.7062 6.76117C11.6424 3.92386 6.89767 3.92386 3.83384 6.76117C3.76463 6.82771 3.72514 6.91911 3.72423 7.01488C3.72333 7.11066 3.76107 7.20279 3.82901 7.27061L5.11592 8.56549C5.24857 8.69771 5.46293 8.7005 5.59902 8.57178C6.60447 7.66536 7.91231 7.16314 9.26874 7.16258ZM11.7908 9.9044C11.7927 10.0078 11.7557 10.1075 11.6884 10.1799L9.51172 12.5892C9.44791 12.66 9.36092 12.6999 9.27015 12.6999C9.17938 12.6999 9.09239 12.66 9.02858 12.5892L6.85155 10.1799C6.7843 10.1074 6.7473 10.0077 6.7493 9.90431C6.75129 9.80091 6.7921 9.703 6.86208 9.63369C8.25218 8.34413 10.2881 8.34413 11.6782 9.63369C11.7481 9.70306 11.7889 9.801 11.7908 9.9044Z" fill="black"/>
</svg>
