<?xml version="1.0" encoding="UTF-8" standalone="no"?>
<!DOCTYPE svg PUBLIC "-//W3C//DTD SVG 1.1//EN"
 "http://www.w3.org/Graphics/SVG/1.1/DTD/svg11.dtd">
<!-- Generated by graphviz version 5.0.0 (20220707.1540)
 -->
<!-- Title: UmlClassDiagram Pages: 1 -->
<svg width="1581pt" height="589pt"
 viewBox="0.00 0.00 1581.46 589.40" xmlns="http://www.w3.org/2000/svg" xmlns:xlink="http://www.w3.org/1999/xlink">
<g id="graph0" class="graph" transform="scale(1 1) rotate(0) translate(4 585.4)">
<title>UmlClassDiagram</title>
<polygon fill="white" stroke="transparent" points="-4,4 -4,-585.4 1577.46,-585.4 1577.46,4 -4,4"/>
<!-- 7 -->
<g id="node1" class="node">
<title>7</title>
<polygon fill="#f2f2f2" stroke="black" points="789.62,-435.5 789.62,-477.1 1024.48,-477.1 1024.48,-435.5 789.62,-435.5"/>
<text text-anchor="middle" x="907.05" y="-460.5" font-family="Times,serif" font-size="14.00">Governable</text>
<text text-anchor="middle" x="907.05" y="-443.7" font-family="Times,serif" font-size="14.00">../contracts/governance/Governable.sol</text>
</g>
<!-- 40 -->
<g id="node2" class="node">
<title>40</title>
<polygon fill="#f2f2f2" stroke="black" points="1076.45,-174.5 1076.45,-232.9 1271.66,-232.9 1271.66,-174.5 1076.45,-174.5"/>
<text text-anchor="middle" x="1174.05" y="-216.3" font-family="Times,serif" font-size="14.00">&lt;&lt;Interface&gt;&gt;</text>
<text text-anchor="middle" x="1174.05" y="-199.5" font-family="Times,serif" font-size="14.00">IVault</text>
<text text-anchor="middle" x="1174.05" y="-182.7" font-family="Times,serif" font-size="14.00">../contracts/interfaces/IVault.sol</text>
</g>
<!-- 180 -->
<g id="node12" class="node">
<title>180</title>
<polygon fill="#f2f2f2" stroke="black" points="1070.6,-269.9 1070.6,-311.5 1277.5,-311.5 1277.5,-269.9 1070.6,-269.9"/>
<text text-anchor="middle" x="1174.05" y="-294.9" font-family="Times,serif" font-size="14.00">VaultStorage</text>
<text text-anchor="middle" x="1174.05" y="-278.1" font-family="Times,serif" font-size="14.00">../contracts/vault/VaultStorage.sol</text>
</g>
<!-- 40&#45;&gt;180 -->
<g id="edge1" class="edge">
<title>40&#45;&gt;180</title>
<path fill="none" stroke="black" stroke-dasharray="5,2" d="M1174.05,-233C1174.05,-241.59 1174.05,-251.04 1174.05,-259.73"/>
<polygon fill="black" stroke="black" points="1170.55,-259.84 1174.05,-269.84 1177.55,-259.84 1170.55,-259.84"/>
</g>
<!-- 124 -->
<g id="node3" class="node">
<title>124</title>
<polygon fill="#f2f2f2" stroke="black" points="764,-0.5 764,-42.1 998.1,-42.1 998.1,-0.5 764,-0.5"/>
<text text-anchor="middle" x="881.05" y="-25.5" font-family="Times,serif" font-size="14.00">AaveStrategy</text>
<text text-anchor="middle" x="881.05" y="-8.7" font-family="Times,serif" font-size="14.00">../contracts/strategies/AaveStrategy.sol</text>
</g>
<!-- 137 -->
<g id="node4" class="node">
<title>137</title>
<polygon fill="#f2f2f2" stroke="black" points="0,-79.1 0,-137.5 192.11,-137.5 192.11,-79.1 0,-79.1"/>
<text text-anchor="middle" x="96.05" y="-120.9" font-family="Times,serif" font-size="14.00">&lt;&lt;Interface&gt;&gt;</text>
<text text-anchor="middle" x="96.05" y="-104.1" font-family="Times,serif" font-size="14.00">IAaveLendingPool</text>
<text text-anchor="middle" x="96.05" y="-87.3" font-family="Times,serif" font-size="14.00">../contracts/strategies/IAave.sol</text>
</g>
<!-- 124&#45;&gt;137 -->
<g id="edge5" class="edge">
<title>124&#45;&gt;137</title>
<path fill="none" stroke="black" stroke-dasharray="5,2" d="M763.8,-25.46C629.8,-30.55 404.02,-43.65 202.2,-78.52"/>
<polygon fill="black" stroke="black" points="201.56,-75.08 192.31,-80.25 202.76,-81.98 201.56,-75.08"/>
</g>
<!-- 138 -->
<g id="node5" class="node">
<title>138</title>
<polygon fill="#f2f2f2" stroke="black" points="209.68,-79.1 209.68,-137.5 408.43,-137.5 408.43,-79.1 209.68,-79.1"/>
<text text-anchor="middle" x="309.05" y="-120.9" font-family="Times,serif" font-size="14.00">&lt;&lt;Interface&gt;&gt;</text>
<text text-anchor="middle" x="309.05" y="-104.1" font-family="Times,serif" font-size="14.00">ILendingPoolAddressesProvider</text>
<text text-anchor="middle" x="309.05" y="-87.3" font-family="Times,serif" font-size="14.00">../contracts/strategies/IAave.sol</text>
</g>
<!-- 124&#45;&gt;138 -->
<g id="edge6" class="edge">
<title>124&#45;&gt;138</title>
<path fill="none" stroke="black" stroke-dasharray="5,2" d="M763.55,-32.01C671.82,-40.65 541.1,-55.28 418.61,-78.39"/>
<polygon fill="black" stroke="black" points="417.85,-74.97 408.68,-80.29 419.16,-81.85 417.85,-74.97"/>
</g>
<!-- 139 -->
<g id="node6" class="node">
<title>139</title>
<polygon fill="#f2f2f2" stroke="black" points="426.46,-79.1 426.46,-137.5 733.65,-137.5 733.65,-79.1 426.46,-79.1"/>
<text text-anchor="middle" x="580.05" y="-120.9" font-family="Times,serif" font-size="14.00">&lt;&lt;Interface&gt;&gt;</text>
<text text-anchor="middle" x="580.05" y="-104.1" font-family="Times,serif" font-size="14.00">IAaveIncentivesController</text>
<text text-anchor="middle" x="580.05" y="-87.3" font-family="Times,serif" font-size="14.00">../contracts/strategies/IAaveIncentivesController.sol</text>
</g>
<!-- 124&#45;&gt;139 -->
<g id="edge3" class="edge">
<title>124&#45;&gt;139</title>
<path fill="none" stroke="black" d="M810.86,-42.12C774.84,-52.29 730.13,-64.92 689.69,-76.34"/>
<polygon fill="black" stroke="black" points="688.72,-72.98 680.05,-79.06 690.62,-79.71 688.72,-72.98"/>
</g>
<!-- 140 -->
<g id="node7" class="node">
<title>140</title>
<polygon fill="#f2f2f2" stroke="black" points="751.57,-79.1 751.57,-137.5 1010.54,-137.5 1010.54,-79.1 751.57,-79.1"/>
<text text-anchor="middle" x="881.05" y="-120.9" font-family="Times,serif" font-size="14.00">&lt;&lt;Interface&gt;&gt;</text>
<text text-anchor="middle" x="881.05" y="-104.1" font-family="Times,serif" font-size="14.00">IAaveStakedToken</text>
<text text-anchor="middle" x="881.05" y="-87.3" font-family="Times,serif" font-size="14.00">../contracts/strategies/IAaveStakeToken.sol</text>
</g>
<!-- 124&#45;&gt;140 -->
<g id="edge4" class="edge">
<title>124&#45;&gt;140</title>
<path fill="none" stroke="black" d="M881.05,-42.44C881.05,-50.36 881.05,-59.73 881.05,-68.84"/>
<polygon fill="black" stroke="black" points="877.55,-68.94 881.05,-78.94 884.55,-68.94 877.55,-68.94"/>
</g>
<!-- 168 -->
<g id="node10" class="node">
<title>168</title>
<polygon fill="#f2f2f2" stroke="black" points="1029.01,-79.1 1029.01,-137.5 1319.1,-137.5 1319.1,-79.1 1029.01,-79.1"/>
<text text-anchor="middle" x="1174.05" y="-120.9" font-family="Times,serif" font-size="14.00">&lt;&lt;Abstract&gt;&gt;</text>
<text text-anchor="middle" x="1174.05" y="-104.1" font-family="Times,serif" font-size="14.00">InitializableAbstractStrategy</text>
<text text-anchor="middle" x="1174.05" y="-87.3" font-family="Times,serif" font-size="14.00">../contracts/utils/InitializableAbstractStrategy.sol</text>
</g>
<!-- 124&#45;&gt;168 -->
<g id="edge2" class="edge">
<title>124&#45;&gt;168</title>
<path fill="none" stroke="black" d="M949.38,-42.12C978.75,-50.64 1014.05,-60.88 1047.87,-70.7"/>
<polygon fill="none" stroke="black" points="1044.98,-80.79 1076.72,-79.06 1050.83,-60.62 1044.98,-80.79"/>
</g>
<!-- 159 -->
<g id="node8" class="node">
<title>159</title>
<polygon fill="#f2f2f2" stroke="black" points="1097.92,-348.5 1097.92,-390.1 1272.18,-390.1 1272.18,-348.5 1097.92,-348.5"/>
<text text-anchor="middle" x="1185.05" y="-373.5" font-family="Times,serif" font-size="14.00">OUSD</text>
<text text-anchor="middle" x="1185.05" y="-356.7" font-family="Times,serif" font-size="14.00">../contracts/token/OUSD.sol</text>
</g>
<!-- 159&#45;&gt;7 -->
<g id="edge9" class="edge">
<title>159&#45;&gt;7</title>
<path fill="none" stroke="black" d="M1120.23,-390.12C1084.68,-400.99 1039.99,-414.65 1000.72,-426.66"/>
<polygon fill="none" stroke="black" points="997.6,-416.63 971.98,-435.45 1003.74,-436.72 997.6,-416.63"/>
</g>
<!-- 167 -->
<g id="node9" class="node">
<title>167</title>
<polygon fill="#f2f2f2" stroke="black" points="1345.05,-427.1 1345.05,-485.5 1541.06,-485.5 1541.06,-427.1 1345.05,-427.1"/>
<text text-anchor="middle" x="1443.05" y="-468.9" font-family="Times,serif" font-size="14.00">&lt;&lt;Abstract&gt;&gt;</text>
<text text-anchor="middle" x="1443.05" y="-452.1" font-family="Times,serif" font-size="14.00">Initializable</text>
<text text-anchor="middle" x="1443.05" y="-435.3" font-family="Times,serif" font-size="14.00">../contracts/utils/Initializable.sol</text>
</g>
<!-- 159&#45;&gt;167 -->
<g id="edge7" class="edge">
<title>159&#45;&gt;167</title>
<path fill="none" stroke="black" d="M1245.22,-390.12C1270.1,-398.32 1299.82,-408.11 1328.57,-417.58"/>
<polygon fill="none" stroke="black" points="1325.57,-427.65 1357.35,-427.06 1332.14,-407.7 1325.57,-427.65"/>
</g>
<!-- 170 -->
<g id="node11" class="node">
<title>170</title>
<polygon fill="#f2f2f2" stroke="black" points="1042.72,-427.1 1042.72,-485.5 1327.38,-485.5 1327.38,-427.1 1042.72,-427.1"/>
<text text-anchor="middle" x="1185.05" y="-468.9" font-family="Times,serif" font-size="14.00">&lt;&lt;Abstract&gt;&gt;</text>
<text text-anchor="middle" x="1185.05" y="-452.1" font-family="Times,serif" font-size="14.00">InitializableERC20Detailed</text>
<text text-anchor="middle" x="1185.05" y="-435.3" font-family="Times,serif" font-size="14.00">../contracts/utils/InitializableERC20Detailed.sol</text>
</g>
<!-- 159&#45;&gt;170 -->
<g id="edge8" class="edge">
<title>159&#45;&gt;170</title>
<path fill="none" stroke="black" d="M1185.05,-390.44C1185.05,-392.49 1185.05,-394.63 1185.05,-396.83"/>
<polygon fill="none" stroke="black" points="1174.55,-396.94 1185.05,-426.94 1195.55,-396.94 1174.55,-396.94"/>
</g>
<!-- 168&#45;&gt;7 -->
<g id="edge11" class="edge">
<title>168&#45;&gt;7</title>
<path fill="none" stroke="black" d="M1115.18,-137.65C1098.34,-147.58 1080.83,-159.85 1067.05,-174 999.43,-243.45 950.29,-347.05 925.43,-407.23"/>
<polygon fill="none" stroke="black" points="915.57,-403.6 914.28,-435.36 935.09,-411.34 915.57,-403.6"/>
</g>
<!-- 168&#45;&gt;40 -->
<g id="edge14" class="edge">
<title>168&#45;&gt;40</title>
<path fill="none" stroke="black" stroke-dasharray="5,2" d="M1174.05,-137.58C1174.05,-145.91 1174.05,-155.18 1174.05,-164.05"/>
<polygon fill="black" stroke="black" points="1170.55,-164.2 1174.05,-174.2 1177.55,-164.2 1170.55,-164.2"/>
</g>
<!-- 168&#45;&gt;167 -->
<g id="edge10" class="edge">
<title>168&#45;&gt;167</title>
<path fill="none" stroke="black" d="M1232.61,-137.53C1249.53,-147.49 1267.16,-159.81 1281.05,-174 1345.99,-240.34 1394.44,-337.78 1420.72,-398.82"/>
<polygon fill="none" stroke="black" points="1411.09,-403 1432.27,-426.7 1430.49,-394.96 1411.09,-403"/>
</g>
<!-- 168&#45;&gt;168 -->
<g id="edge12" class="edge">
<title>168&#45;&gt;168</title>
<path fill="none" stroke="black" stroke-dasharray="5,2" d="M1319.27,-96.21C1330.31,-98.89 1337.1,-102.92 1337.1,-108.3 1337.1,-111.83 1334.17,-114.78 1329.04,-117.15"/>
<polygon fill="black" stroke="black" points="1327.65,-113.92 1319.27,-120.39 1329.86,-120.56 1327.65,-113.92"/>
</g>
<!-- 357 -->
<g id="node13" class="node">
<title>357</title>
<polygon fill="#f2f2f2" stroke="black" points="983,-522.5 983,-580.9 1387.11,-580.9 1387.11,-522.5 983,-522.5"/>
<text text-anchor="middle" x="1185.05" y="-564.3" font-family="Times,serif" font-size="14.00">&lt;&lt;Interface&gt;&gt;</text>
<text text-anchor="middle" x="1185.05" y="-547.5" font-family="Times,serif" font-size="14.00">IERC20</text>
<text text-anchor="middle" x="1185.05" y="-530.7" font-family="Times,serif" font-size="14.00">../node_modules/@openzeppelin/contracts/token/ERC20/IERC20.sol</text>
</g>
<!-- 168&#45;&gt;357 -->
<g id="edge13" class="edge">
<title>168&#45;&gt;357</title>
<path fill="none" stroke="black" stroke-dasharray="5,2" d="M1319.17,-118.04C1431.85,-133.62 1569.05,-175.96 1569.05,-289.7 1569.05,-289.7 1569.05,-289.7 1569.05,-370.3 1569.05,-422.41 1586.67,-448.92 1550.05,-486 1527,-509.35 1464.38,-524.37 1397.39,-533.98"/>
<polygon fill="black" stroke="black" points="1396.9,-530.51 1387.48,-535.36 1397.86,-537.45 1396.9,-530.51"/>
</g>
<!-- 170&#45;&gt;357 -->
<g id="edge15" class="edge">
<title>170&#45;&gt;357</title>
<path fill="none" stroke="black" stroke-dasharray="5,2" d="M1185.05,-485.58C1185.05,-487.66 1185.05,-489.8 1185.05,-491.98"/>
<polygon fill="none" stroke="black" points="1174.55,-492.2 1185.05,-522.2 1195.55,-492.2 1174.55,-492.2"/>
</g>
<!-- 180&#45;&gt;7 -->
<g id="edge17" class="edge">
<title>180&#45;&gt;7</title>
<path fill="none" stroke="black" d="M1141.58,-311.6C1097.91,-338.36 1019.51,-386.4 965.45,-419.52"/>
<polygon fill="none" stroke="black" points="959.81,-410.66 939.72,-435.29 970.78,-428.57 959.81,-410.66"/>
</g>
<!-- 180&#45;&gt;159 -->
<g id="edge18" class="edge">
<title>180&#45;&gt;159</title>
<path fill="none" stroke="black" d="M1176.94,-311.83C1178.11,-319.92 1179.47,-329.42 1180.75,-338.3"/>
<polygon fill="black" stroke="black" points="1177.3,-338.91 1182.18,-348.31 1184.23,-337.91 1177.3,-338.91"/>
</g>
<!-- 180&#45;&gt;167 -->
<g id="edge16" class="edge">
<title>180&#45;&gt;167</title>
<path fill="none" stroke="black" d="M1214.21,-311.62C1234.51,-321.99 1259.38,-335.16 1281.05,-348 1313.61,-367.28 1348.74,-390.26 1377.93,-410"/>
<polygon fill="none" stroke="black" points="1372.14,-418.76 1402.83,-427.02 1383.99,-401.43 1372.14,-418.76"/>
</g>
</g>
</svg>
