<?xml version="1.0" encoding="UTF-8" standalone="no"?>
<!DOCTYPE svg PUBLIC "-//W3C//DTD SVG 1.1//EN"
 "http://www.w3.org/Graphics/SVG/1.1/DTD/svg11.dtd">
<!-- Generated by graphviz version 5.0.0 (20220707.1540)
 -->
<!-- Title: UmlClassDiagram Pages: 1 -->
<svg width="1916pt" height="241pt"
 viewBox="0.00 0.00 1916.11 241.40" xmlns="http://www.w3.org/2000/svg" xmlns:xlink="http://www.w3.org/1999/xlink">
<g id="graph0" class="graph" transform="scale(1 1) rotate(0) translate(4 237.4)">
<title>UmlClassDiagram</title>
<polygon fill="white" stroke="transparent" points="-4,4 -4,-237.4 1912.11,-237.4 1912.11,4 -4,4"/>
<!-- 7 -->
<g id="node1" class="node">
<title>7</title>
<polygon fill="#f2f2f2" stroke="black" points="823.62,-182.9 823.62,-224.5 1058.48,-224.5 1058.48,-182.9 823.62,-182.9"/>
<text text-anchor="middle" x="941.05" y="-207.9" font-family="Times,serif" font-size="14.00">Governable</text>
<text text-anchor="middle" x="941.05" y="-191.1" font-family="Times,serif" font-size="14.00">../contracts/governance/Governable.sol</text>
</g>
<!-- 35 -->
<g id="node2" class="node">
<title>35</title>
<polygon fill="#f2f2f2" stroke="black" points="1076.45,-174.5 1076.45,-232.9 1271.66,-232.9 1271.66,-174.5 1076.45,-174.5"/>
<text text-anchor="middle" x="1174.05" y="-216.3" font-family="Times,serif" font-size="14.00">&lt;&lt;Interface&gt;&gt;</text>
<text text-anchor="middle" x="1174.05" y="-199.5" font-family="Times,serif" font-size="14.00">IVault</text>
<text text-anchor="middle" x="1174.05" y="-182.7" font-family="Times,serif" font-size="14.00">../contracts/interfaces/IVault.sol</text>
</g>
<!-- 109 -->
<g id="node3" class="node">
<title>109</title>
<polygon fill="#f2f2f2" stroke="black" points="764,-0.5 764,-42.1 998.1,-42.1 998.1,-0.5 764,-0.5"/>
<text text-anchor="middle" x="881.05" y="-25.5" font-family="Times,serif" font-size="14.00">AaveStrategy</text>
<text text-anchor="middle" x="881.05" y="-8.7" font-family="Times,serif" font-size="14.00">../contracts/strategies/AaveStrategy.sol</text>
</g>
<!-- 121 -->
<g id="node4" class="node">
<title>121</title>
<polygon fill="#f2f2f2" stroke="black" points="0,-79.1 0,-137.5 192.11,-137.5 192.11,-79.1 0,-79.1"/>
<text text-anchor="middle" x="96.05" y="-120.9" font-family="Times,serif" font-size="14.00">&lt;&lt;Interface&gt;&gt;</text>
<text text-anchor="middle" x="96.05" y="-104.1" font-family="Times,serif" font-size="14.00">IAaveLendingPool</text>
<text text-anchor="middle" x="96.05" y="-87.3" font-family="Times,serif" font-size="14.00">../contracts/strategies/IAave.sol</text>
</g>
<!-- 109&#45;&gt;121 -->
<g id="edge4" class="edge">
<title>109&#45;&gt;121</title>
<path fill="none" stroke="black" stroke-dasharray="5,2" d="M763.8,-25.46C629.8,-30.55 404.02,-43.65 202.2,-78.52"/>
<polygon fill="black" stroke="black" points="201.56,-75.08 192.31,-80.25 202.76,-81.98 201.56,-75.08"/>
</g>
<!-- 122 -->
<g id="node5" class="node">
<title>122</title>
<polygon fill="#f2f2f2" stroke="black" points="209.68,-79.1 209.68,-137.5 408.43,-137.5 408.43,-79.1 209.68,-79.1"/>
<text text-anchor="middle" x="309.05" y="-120.9" font-family="Times,serif" font-size="14.00">&lt;&lt;Interface&gt;&gt;</text>
<text text-anchor="middle" x="309.05" y="-104.1" font-family="Times,serif" font-size="14.00">ILendingPoolAddressesProvider</text>
<text text-anchor="middle" x="309.05" y="-87.3" font-family="Times,serif" font-size="14.00">../contracts/strategies/IAave.sol</text>
</g>
<!-- 109&#45;&gt;122 -->
<g id="edge5" class="edge">
<title>109&#45;&gt;122</title>
<path fill="none" stroke="black" stroke-dasharray="5,2" d="M763.55,-32.01C671.82,-40.65 541.1,-55.28 418.61,-78.39"/>
<polygon fill="black" stroke="black" points="417.85,-74.97 408.68,-80.29 419.16,-81.85 417.85,-74.97"/>
</g>
<!-- 123 -->
<g id="node6" class="node">
<title>123</title>
<polygon fill="#f2f2f2" stroke="black" points="426.46,-79.1 426.46,-137.5 733.65,-137.5 733.65,-79.1 426.46,-79.1"/>
<text text-anchor="middle" x="580.05" y="-120.9" font-family="Times,serif" font-size="14.00">&lt;&lt;Interface&gt;&gt;</text>
<text text-anchor="middle" x="580.05" y="-104.1" font-family="Times,serif" font-size="14.00">IAaveIncentivesController</text>
<text text-anchor="middle" x="580.05" y="-87.3" font-family="Times,serif" font-size="14.00">../contracts/strategies/IAaveIncentivesController.sol</text>
</g>
<!-- 109&#45;&gt;123 -->
<g id="edge2" class="edge">
<title>109&#45;&gt;123</title>
<path fill="none" stroke="black" d="M810.86,-42.12C774.84,-52.29 730.13,-64.92 689.69,-76.34"/>
<polygon fill="black" stroke="black" points="688.72,-72.98 680.05,-79.06 690.62,-79.71 688.72,-72.98"/>
</g>
<!-- 124 -->
<g id="node7" class="node">
<title>124</title>
<polygon fill="#f2f2f2" stroke="black" points="751.57,-79.1 751.57,-137.5 1010.54,-137.5 1010.54,-79.1 751.57,-79.1"/>
<text text-anchor="middle" x="881.05" y="-120.9" font-family="Times,serif" font-size="14.00">&lt;&lt;Interface&gt;&gt;</text>
<text text-anchor="middle" x="881.05" y="-104.1" font-family="Times,serif" font-size="14.00">IAaveStakedToken</text>
<text text-anchor="middle" x="881.05" y="-87.3" font-family="Times,serif" font-size="14.00">../contracts/strategies/IAaveStakeToken.sol</text>
</g>
<!-- 109&#45;&gt;124 -->
<g id="edge3" class="edge">
<title>109&#45;&gt;124</title>
<path fill="none" stroke="black" d="M881.05,-42.44C881.05,-50.36 881.05,-59.73 881.05,-68.84"/>
<polygon fill="black" stroke="black" points="877.55,-68.94 881.05,-78.94 884.55,-68.94 877.55,-68.94"/>
</g>
<!-- 150 -->
<g id="node9" class="node">
<title>150</title>
<polygon fill="#f2f2f2" stroke="black" points="1029.01,-79.1 1029.01,-137.5 1319.1,-137.5 1319.1,-79.1 1029.01,-79.1"/>
<text text-anchor="middle" x="1174.05" y="-120.9" font-family="Times,serif" font-size="14.00">&lt;&lt;Abstract&gt;&gt;</text>
<text text-anchor="middle" x="1174.05" y="-104.1" font-family="Times,serif" font-size="14.00">InitializableAbstractStrategy</text>
<text text-anchor="middle" x="1174.05" y="-87.3" font-family="Times,serif" font-size="14.00">../contracts/utils/InitializableAbstractStrategy.sol</text>
</g>
<!-- 109&#45;&gt;150 -->
<g id="edge1" class="edge">
<title>109&#45;&gt;150</title>
<path fill="none" stroke="black" d="M949.38,-42.12C978.75,-50.64 1014.05,-60.88 1047.87,-70.7"/>
<polygon fill="none" stroke="black" points="1044.98,-80.79 1076.72,-79.06 1050.83,-60.62 1044.98,-80.79"/>
</g>
<!-- 149 -->
<g id="node8" class="node">
<title>149</title>
<polygon fill="#f2f2f2" stroke="black" points="1290.05,-174.5 1290.05,-232.9 1486.06,-232.9 1486.06,-174.5 1290.05,-174.5"/>
<text text-anchor="middle" x="1388.05" y="-216.3" font-family="Times,serif" font-size="14.00">&lt;&lt;Abstract&gt;&gt;</text>
<text text-anchor="middle" x="1388.05" y="-199.5" font-family="Times,serif" font-size="14.00">Initializable</text>
<text text-anchor="middle" x="1388.05" y="-182.7" font-family="Times,serif" font-size="14.00">../contracts/utils/Initializable.sol</text>
</g>
<!-- 150&#45;&gt;7 -->
<g id="edge7" class="edge">
<title>150&#45;&gt;7</title>
<path fill="none" stroke="black" d="M1103.51,-137.58C1076.76,-148.3 1046.15,-160.57 1018.77,-171.55"/>
<polygon fill="none" stroke="black" points="1014.6,-161.91 990.66,-182.81 1022.42,-181.4 1014.6,-161.91"/>
</g>
<!-- 150&#45;&gt;35 -->
<g id="edge10" class="edge">
<title>150&#45;&gt;35</title>
<path fill="none" stroke="black" stroke-dasharray="5,2" d="M1174.05,-137.58C1174.05,-145.91 1174.05,-155.18 1174.05,-164.05"/>
<polygon fill="black" stroke="black" points="1170.55,-164.2 1174.05,-174.2 1177.55,-164.2 1170.55,-164.2"/>
</g>
<!-- 150&#45;&gt;149 -->
<g id="edge6" class="edge">
<title>150&#45;&gt;149</title>
<path fill="none" stroke="black" d="M1238.84,-137.58C1256.67,-145.36 1276.37,-153.95 1295.44,-162.28"/>
<polygon fill="none" stroke="black" points="1291.42,-171.98 1323.12,-174.36 1299.82,-152.73 1291.42,-171.98"/>
</g>
<!-- 150&#45;&gt;150 -->
<g id="edge8" class="edge">
<title>150&#45;&gt;150</title>
<path fill="none" stroke="black" stroke-dasharray="5,2" d="M1319.27,-96.21C1330.31,-98.89 1337.1,-102.93 1337.1,-108.3 1337.1,-111.83 1334.17,-114.78 1329.04,-117.15"/>
<polygon fill="black" stroke="black" points="1327.65,-113.92 1319.27,-120.39 1329.86,-120.56 1327.65,-113.92"/>
</g>
<!-- 436 -->
<g id="node10" class="node">
<title>436</title>
<polygon fill="#f2f2f2" stroke="black" points="1504,-174.5 1504,-232.9 1908.11,-232.9 1908.11,-174.5 1504,-174.5"/>
<text text-anchor="middle" x="1706.05" y="-216.3" font-family="Times,serif" font-size="14.00">&lt;&lt;Interface&gt;&gt;</text>
<text text-anchor="middle" x="1706.05" y="-199.5" font-family="Times,serif" font-size="14.00">IERC20</text>
<text text-anchor="middle" x="1706.05" y="-182.7" font-family="Times,serif" font-size="14.00">../node_modules/@openzeppelin/contracts/token/ERC20/IERC20.sol</text>
</g>
<!-- 150&#45;&gt;436 -->
<g id="edge9" class="edge">
<title>150&#45;&gt;436</title>
<path fill="none" stroke="black" stroke-dasharray="5,2" d="M1319.43,-134.82C1386.13,-146.53 1465.68,-160.5 1535.24,-172.71"/>
<polygon fill="black" stroke="black" points="1534.97,-176.22 1545.42,-174.5 1536.18,-169.32 1534.97,-176.22"/>
</g>
</g>
</svg>
