<?xml version="1.0" encoding="UTF-8" standalone="no"?>
<!DOCTYPE svg PUBLIC "-//W3C//DTD SVG 1.1//EN"
 "http://www.w3.org/Graphics/SVG/1.1/DTD/svg11.dtd">
<!-- Generated by graphviz version 5.0.0 (20220707.1540)
 -->
<!-- Title: StorageDiagram Pages: 1 -->
<svg width="1469pt" height="381pt"
 viewBox="0.00 0.00 1469.02 381.00" xmlns="http://www.w3.org/2000/svg" xmlns:xlink="http://www.w3.org/1999/xlink">
<g id="graph0" class="graph" transform="scale(1 1) rotate(0) translate(4 377)">
<title>StorageDiagram</title>
<polygon fill="white" stroke="transparent" points="-4,4 -4,-377 1465.02,-377 1465.02,4 -4,4"/>
<!-- 3 -->
<g id="node1" class="node">
<title>3</title>
<polygon fill="#f2f2f2" stroke="black" points="0,-0.5 0,-372.5 854.53,-372.5 854.53,-0.5 0,-0.5"/>
<text text-anchor="middle" x="427.27" y="-355.9" font-family="Courier New" font-size="14.00">AaveStrategy &lt;&lt;Contract&gt;&gt;</text>
<polyline fill="none" stroke="black" points="0,-347.7 854.53,-347.7 "/>
<text text-anchor="middle" x="33.2" y="-331.1" font-family="Courier New" font-size="14.00">slot</text>
<polyline fill="none" stroke="black" points="0,-322.9 66.41,-322.9 "/>
<text text-anchor="middle" x="33.2" y="-306.3" font-family="Courier New" font-size="14.00">0</text>
<polyline fill="none" stroke="black" points="0,-298.1 66.41,-298.1 "/>
<text text-anchor="middle" x="33.2" y="-281.5" font-family="Courier New" font-size="14.00">1&#45;50</text>
<polyline fill="none" stroke="black" points="0,-273.3 66.41,-273.3 "/>
<text text-anchor="middle" x="33.2" y="-256.7" font-family="Courier New" font-size="14.00">51</text>
<polyline fill="none" stroke="black" points="0,-248.5 66.41,-248.5 "/>
<text text-anchor="middle" x="33.2" y="-231.9" font-family="Courier New" font-size="14.00">52</text>
<polyline fill="none" stroke="black" points="0,-223.7 66.41,-223.7 "/>
<text text-anchor="middle" x="33.2" y="-207.1" font-family="Courier New" font-size="14.00">53</text>
<polyline fill="none" stroke="black" points="0,-198.9 66.41,-198.9 "/>
<text text-anchor="middle" x="33.2" y="-182.3" font-family="Courier New" font-size="14.00">54</text>
<polyline fill="none" stroke="black" points="0,-174.1 66.41,-174.1 "/>
<text text-anchor="middle" x="33.2" y="-157.5" font-family="Courier New" font-size="14.00">55</text>
<polyline fill="none" stroke="black" points="0,-149.3 66.41,-149.3 "/>
<text text-anchor="middle" x="33.2" y="-132.7" font-family="Courier New" font-size="14.00">56</text>
<polyline fill="none" stroke="black" points="0,-124.5 66.41,-124.5 "/>
<text text-anchor="middle" x="33.2" y="-107.9" font-family="Courier New" font-size="14.00">57</text>
<polyline fill="none" stroke="black" points="0,-99.7 66.41,-99.7 "/>
<text text-anchor="middle" x="33.2" y="-83.1" font-family="Courier New" font-size="14.00">58</text>
<polyline fill="none" stroke="black" points="0,-74.9 66.41,-74.9 "/>
<text text-anchor="middle" x="33.2" y="-58.3" font-family="Courier New" font-size="14.00">59&#45;156</text>
<polyline fill="none" stroke="black" points="0,-50.1 66.41,-50.1 "/>
<text text-anchor="middle" x="33.2" y="-33.5" font-family="Courier New" font-size="14.00">157</text>
<polyline fill="none" stroke="black" points="0,-25.3 66.41,-25.3 "/>
<text text-anchor="middle" x="33.2" y="-8.7" font-family="Courier New" font-size="14.00">158</text>
<polyline fill="none" stroke="black" points="66.41,-0.5 66.41,-347.7 "/>
<text text-anchor="middle" x="460.47" y="-331.1" font-family="Courier New" font-size="14.00">type: &lt;inherited contract&gt;.variable (bytes)</text>
<polyline fill="none" stroke="black" points="66.41,-322.9 854.53,-322.9 "/>
<text text-anchor="middle" x="143.12" y="-306.3" font-family="Courier New" font-size="14.00">unallocated (30)</text>
<polyline fill="none" stroke="black" points="219.83,-298.1 219.83,-322.9 "/>
<text text-anchor="middle" x="380.55" y="-306.3" font-family="Courier New" font-size="14.00">bool: Initializable.initializing (1)</text>
<polyline fill="none" stroke="black" points="541.28,-298.1 541.28,-322.9 "/>
<text text-anchor="middle" x="697.8" y="-306.3" font-family="Courier New" font-size="14.00">bool: Initializable.initialized (1)</text>
<polyline fill="none" stroke="black" points="66.41,-298.1 854.53,-298.1 "/>
<text text-anchor="middle" x="460.04" y="-281.5" font-family="Courier New" font-size="14.00">uint256[50]: Initializable.______gap (1600)</text>
<polyline fill="none" stroke="black" points="66.41,-273.3 854.53,-273.3 "/>
<text text-anchor="middle" x="147.62" y="-256.7" font-family="Courier New" font-size="14.00">unallocated (12)</text>
<polyline fill="none" stroke="black" points="228.83,-248.5 228.83,-273.3 "/>
<text text-anchor="middle" x="541.58" y="-256.7" font-family="Courier New" font-size="14.00">address: InitializableAbstractStrategy._deprecated_platformAddress (20)</text>
<polyline fill="none" stroke="black" points="66.41,-248.5 854.53,-248.5 "/>
<text text-anchor="middle" x="154.12" y="-231.9" font-family="Courier New" font-size="14.00">unallocated (12)</text>
<polyline fill="none" stroke="black" points="241.83,-223.7 241.83,-248.5 "/>
<text text-anchor="middle" x="547.98" y="-231.9" font-family="Courier New" font-size="14.00">address: InitializableAbstractStrategy._deprecated_vaultAddress (20)</text>
<polyline fill="none" stroke="black" points="66.41,-223.7 854.53,-223.7 "/>
<text text-anchor="middle" x="460.46" y="-207.1" font-family="Courier New" font-size="14.00">mapping(address=&gt;address): InitializableAbstractStrategy.assetToPToken (32)</text>
<polyline fill="none" stroke="black" points="66.41,-198.9 854.53,-198.9 "/>
<text text-anchor="middle" x="460.05" y="-182.3" font-family="Courier New" font-size="14.00">address[]: InitializableAbstractStrategy.assetsMapped (32)</text>
<polyline fill="none" stroke="black" points="66.41,-174.1 854.53,-174.1 "/>
<text text-anchor="middle" x="141.62" y="-157.5" font-family="Courier New" font-size="14.00">unallocated (12)</text>
<polyline fill="none" stroke="black" points="216.83,-149.3 216.83,-174.1 "/>
<text text-anchor="middle" x="535.68" y="-157.5" font-family="Courier New" font-size="14.00">address: InitializableAbstractStrategy._deprecated_rewardTokenAddress (20)</text>
<polyline fill="none" stroke="black" points="66.41,-149.3 854.53,-149.3 "/>
<text text-anchor="middle" x="460.36" y="-132.7" font-family="Courier New" font-size="14.00">uint256: InitializableAbstractStrategy._deprecated_rewardLiquidationThreshold (32)</text>
<polyline fill="none" stroke="black" points="66.41,-124.5 854.53,-124.5 "/>
<text text-anchor="middle" x="170.62" y="-107.9" font-family="Courier New" font-size="14.00">unallocated (12)</text>
<polyline fill="none" stroke="black" points="274.83,-99.7 274.83,-124.5 "/>
<text text-anchor="middle" x="564.37" y="-107.9" font-family="Courier New" font-size="14.00">address: InitializableAbstractStrategy.harvesterAddress (20)</text>
<polyline fill="none" stroke="black" points="66.41,-99.7 854.53,-99.7 "/>
<text text-anchor="middle" x="460.15" y="-83.1" font-family="Courier New" font-size="14.00">address[]: InitializableAbstractStrategy.rewardTokenAddresses (32)</text>
<polyline fill="none" stroke="black" points="66.41,-74.9 854.53,-74.9 "/>
<text text-anchor="middle" x="460.05" y="-58.3" font-family="Courier New" font-size="14.00">int256[98]: InitializableAbstractStrategy._reserved (3136)</text>
<polyline fill="none" stroke="black" points="66.41,-50.1 854.53,-50.1 "/>
<text text-anchor="middle" x="187.62" y="-33.5" font-family="Courier New" font-size="14.00">unallocated (12)</text>
<polyline fill="none" stroke="black" points="308.83,-25.3 308.83,-50.1 "/>
<text text-anchor="middle" x="581.27" y="-33.5" font-family="Courier New" font-size="14.00">IAaveIncentivesController: incentivesController (20)</text>
<polyline fill="none" stroke="black" points="66.41,-25.3 854.53,-25.3 "/>
<text text-anchor="middle" x="233.62" y="-8.7" font-family="Courier New" font-size="14.00">unallocated (12)</text>
<polyline fill="none" stroke="black" points="400.83,-0.5 400.83,-25.3 "/>
<text text-anchor="middle" x="627.35" y="-8.7" font-family="Courier New" font-size="14.00">IAaveStakedToken: stkAave (20)</text>
</g>
<!-- 1 -->
<g id="node2" class="node">
<title>1</title>
<polygon fill="#f2f2f2" stroke="black" points="890.53,-146.9 890.53,-238.1 1461.02,-238.1 1461.02,-146.9 890.53,-146.9"/>
<text text-anchor="middle" x="1175.78" y="-221.5" font-family="Courier New" font-size="14.00">address[]: assetsMapped &lt;&lt;Array&gt;&gt;</text>
<text text-anchor="middle" x="1175.78" y="-204.7" font-family="Courier New" font-size="14.00">0x4a11f94e20a93c79f6ec743a1954ec4fc2c08429ae2122118bf234b2185c81b8</text>
<polyline fill="none" stroke="black" points="890.53,-196.5 1461.02,-196.5 "/>
<text text-anchor="middle" x="982.74" y="-179.9" font-family="Courier New" font-size="14.00">offset</text>
<polyline fill="none" stroke="black" points="890.53,-171.7 1074.94,-171.7 "/>
<text text-anchor="middle" x="982.74" y="-155.1" font-family="Courier New" font-size="14.00">0</text>
<polyline fill="none" stroke="black" points="1074.94,-146.9 1074.94,-196.5 "/>
<text text-anchor="middle" x="1267.56" y="-179.9" font-family="Courier New" font-size="14.00">type: variable (bytes)</text>
<polyline fill="none" stroke="black" points="1074.94,-171.7 1460.18,-171.7 "/>
<text text-anchor="middle" x="1179.65" y="-155.1" font-family="Courier New" font-size="14.00">unallocated (12)</text>
<polyline fill="none" stroke="black" points="1284.36,-146.9 1284.36,-171.7 "/>
<text text-anchor="middle" x="1372.27" y="-155.1" font-family="Courier New" font-size="14.00">address (20)</text>
</g>
<!-- 3&#45;&gt;1 -->
<g id="edge1" class="edge">
<title>3:8&#45;&gt;1</title>
<path fill="none" stroke="black" d="M854.27,-186.5C862.77,-186.5 871.39,-186.52 880.1,-186.56"/>
<polygon fill="black" stroke="black" points="880.34,-190.06 890.36,-186.62 880.38,-183.06 880.34,-190.06"/>
</g>
<!-- 2 -->
<g id="node3" class="node">
<title>2</title>
<polygon fill="#f2f2f2" stroke="black" points="890.53,-36.9 890.53,-128.1 1461.02,-128.1 1461.02,-36.9 890.53,-36.9"/>
<text text-anchor="middle" x="1175.78" y="-111.5" font-family="Courier New" font-size="14.00">address[]: rewardTokenAddresses &lt;&lt;Array&gt;&gt;</text>
<text text-anchor="middle" x="1175.78" y="-94.7" font-family="Courier New" font-size="14.00">0xa2999d817b6757290b50e8ecf3fa939673403dd35c97de392fdb343b4015ce9e</text>
<polyline fill="none" stroke="black" points="890.53,-86.5 1461.02,-86.5 "/>
<text text-anchor="middle" x="982.74" y="-69.9" font-family="Courier New" font-size="14.00">offset</text>
<polyline fill="none" stroke="black" points="890.53,-61.7 1074.94,-61.7 "/>
<text text-anchor="middle" x="982.74" y="-45.1" font-family="Courier New" font-size="14.00">0</text>
<polyline fill="none" stroke="black" points="1074.94,-36.9 1074.94,-86.5 "/>
<text text-anchor="middle" x="1267.56" y="-69.9" font-family="Courier New" font-size="14.00">type: variable (bytes)</text>
<polyline fill="none" stroke="black" points="1074.94,-61.7 1460.18,-61.7 "/>
<text text-anchor="middle" x="1179.65" y="-45.1" font-family="Courier New" font-size="14.00">unallocated (12)</text>
<polyline fill="none" stroke="black" points="1284.36,-36.9 1284.36,-61.7 "/>
<text text-anchor="middle" x="1372.27" y="-45.1" font-family="Courier New" font-size="14.00">address (20)</text>
</g>
<!-- 3&#45;&gt;2 -->
<g id="edge2" class="edge">
<title>3:13&#45;&gt;2</title>
<path fill="none" stroke="black" d="M854.53,-87.5C862.92,-87.5 871.44,-87.48 880.04,-87.45"/>
<polygon fill="black" stroke="black" points="880.18,-90.95 890.16,-87.4 880.15,-83.95 880.18,-90.95"/>
</g>
</g>
</svg>
