<?xml version="1.0" encoding="UTF-8" standalone="no"?>
<!DOCTYPE svg PUBLIC "-//W3C//DTD SVG 1.1//EN"
 "http://www.w3.org/Graphics/SVG/1.1/DTD/svg11.dtd">
<!-- Generated by graphviz version 5.0.0 (20220707.1540)
 -->
<!-- Title: StorageDiagram Pages: 1 -->
<svg width="1469pt" height="595pt"
 viewBox="0.00 0.00 1469.02 594.60" xmlns="http://www.w3.org/2000/svg" xmlns:xlink="http://www.w3.org/1999/xlink">
<g id="graph0" class="graph" transform="scale(1 1) rotate(0) translate(4 590.6)">
<title>StorageDiagram</title>
<polygon fill="white" stroke="transparent" points="-4,4 -4,-590.6 1465.02,-590.6 1465.02,4 -4,4"/>
<!-- 5 -->
<g id="node1" class="node">
<title>5</title>
<polygon fill="#f2f2f2" stroke="black" points="0,-156.3 0,-528.3 854.53,-528.3 854.53,-156.3 0,-156.3"/>
<text text-anchor="middle" x="427.27" y="-511.7" font-family="Courier New" font-size="14.00">AaveStrategy &lt;&lt;Contract&gt;&gt;</text>
<polyline fill="none" stroke="black" points="0,-503.5 854.53,-503.5 "/>
<text text-anchor="middle" x="33.2" y="-486.9" font-family="Courier New" font-size="14.00">slot</text>
<polyline fill="none" stroke="black" points="0,-478.7 66.41,-478.7 "/>
<text text-anchor="middle" x="33.2" y="-462.1" font-family="Courier New" font-size="14.00">0</text>
<polyline fill="none" stroke="black" points="0,-453.9 66.41,-453.9 "/>
<text text-anchor="middle" x="33.2" y="-437.3" font-family="Courier New" font-size="14.00">1&#45;50</text>
<polyline fill="none" stroke="black" points="0,-429.1 66.41,-429.1 "/>
<text text-anchor="middle" x="33.2" y="-412.5" font-family="Courier New" font-size="14.00">51</text>
<polyline fill="none" stroke="black" points="0,-404.3 66.41,-404.3 "/>
<text text-anchor="middle" x="33.2" y="-387.7" font-family="Courier New" font-size="14.00">52</text>
<polyline fill="none" stroke="black" points="0,-379.5 66.41,-379.5 "/>
<text text-anchor="middle" x="33.2" y="-362.9" font-family="Courier New" font-size="14.00">53</text>
<polyline fill="none" stroke="black" points="0,-354.7 66.41,-354.7 "/>
<text text-anchor="middle" x="33.2" y="-338.1" font-family="Courier New" font-size="14.00">54</text>
<polyline fill="none" stroke="black" points="0,-329.9 66.41,-329.9 "/>
<text text-anchor="middle" x="33.2" y="-313.3" font-family="Courier New" font-size="14.00">55</text>
<polyline fill="none" stroke="black" points="0,-305.1 66.41,-305.1 "/>
<text text-anchor="middle" x="33.2" y="-288.5" font-family="Courier New" font-size="14.00">56</text>
<polyline fill="none" stroke="black" points="0,-280.3 66.41,-280.3 "/>
<text text-anchor="middle" x="33.2" y="-263.7" font-family="Courier New" font-size="14.00">57</text>
<polyline fill="none" stroke="black" points="0,-255.5 66.41,-255.5 "/>
<text text-anchor="middle" x="33.2" y="-238.9" font-family="Courier New" font-size="14.00">58</text>
<polyline fill="none" stroke="black" points="0,-230.7 66.41,-230.7 "/>
<text text-anchor="middle" x="33.2" y="-214.1" font-family="Courier New" font-size="14.00">59&#45;156</text>
<polyline fill="none" stroke="black" points="0,-205.9 66.41,-205.9 "/>
<text text-anchor="middle" x="33.2" y="-189.3" font-family="Courier New" font-size="14.00">157</text>
<polyline fill="none" stroke="black" points="0,-181.1 66.41,-181.1 "/>
<text text-anchor="middle" x="33.2" y="-164.5" font-family="Courier New" font-size="14.00">158</text>
<polyline fill="none" stroke="black" points="66.41,-156.3 66.41,-503.5 "/>
<text text-anchor="middle" x="460.47" y="-486.9" font-family="Courier New" font-size="14.00">type: &lt;inherited contract&gt;.variable (bytes)</text>
<polyline fill="none" stroke="black" points="66.41,-478.7 854.53,-478.7 "/>
<text text-anchor="middle" x="143.12" y="-462.1" font-family="Courier New" font-size="14.00">unallocated (30)</text>
<polyline fill="none" stroke="black" points="219.83,-453.9 219.83,-478.7 "/>
<text text-anchor="middle" x="380.55" y="-462.1" font-family="Courier New" font-size="14.00">bool: Initializable.initializing (1)</text>
<polyline fill="none" stroke="black" points="541.28,-453.9 541.28,-478.7 "/>
<text text-anchor="middle" x="697.8" y="-462.1" font-family="Courier New" font-size="14.00">bool: Initializable.initialized (1)</text>
<polyline fill="none" stroke="black" points="66.41,-453.9 854.53,-453.9 "/>
<text text-anchor="middle" x="460.04" y="-437.3" font-family="Courier New" font-size="14.00">uint256[50]: Initializable.______gap (1600)</text>
<polyline fill="none" stroke="black" points="66.41,-429.1 854.53,-429.1 "/>
<text text-anchor="middle" x="147.62" y="-412.5" font-family="Courier New" font-size="14.00">unallocated (12)</text>
<polyline fill="none" stroke="black" points="228.83,-404.3 228.83,-429.1 "/>
<text text-anchor="middle" x="541.58" y="-412.5" font-family="Courier New" font-size="14.00">address: InitializableAbstractStrategy._deprecated_platformAddress (20)</text>
<polyline fill="none" stroke="black" points="66.41,-404.3 854.53,-404.3 "/>
<text text-anchor="middle" x="154.12" y="-387.7" font-family="Courier New" font-size="14.00">unallocated (12)</text>
<polyline fill="none" stroke="black" points="241.83,-379.5 241.83,-404.3 "/>
<text text-anchor="middle" x="547.98" y="-387.7" font-family="Courier New" font-size="14.00">address: InitializableAbstractStrategy._deprecated_vaultAddress (20)</text>
<polyline fill="none" stroke="black" points="66.41,-379.5 854.53,-379.5 "/>
<text text-anchor="middle" x="460.46" y="-362.9" font-family="Courier New" font-size="14.00">mapping(address=&gt;address): InitializableAbstractStrategy.assetToPToken (32)</text>
<polyline fill="none" stroke="black" points="66.41,-354.7 854.53,-354.7 "/>
<text text-anchor="middle" x="460.05" y="-338.1" font-family="Courier New" font-size="14.00">address[]: InitializableAbstractStrategy.assetsMapped (32)</text>
<polyline fill="none" stroke="black" points="66.41,-329.9 854.53,-329.9 "/>
<text text-anchor="middle" x="141.62" y="-313.3" font-family="Courier New" font-size="14.00">unallocated (12)</text>
<polyline fill="none" stroke="black" points="216.83,-305.1 216.83,-329.9 "/>
<text text-anchor="middle" x="535.68" y="-313.3" font-family="Courier New" font-size="14.00">address: InitializableAbstractStrategy._deprecated_rewardTokenAddress (20)</text>
<polyline fill="none" stroke="black" points="66.41,-305.1 854.53,-305.1 "/>
<text text-anchor="middle" x="460.36" y="-288.5" font-family="Courier New" font-size="14.00">uint256: InitializableAbstractStrategy._deprecated_rewardLiquidationThreshold (32)</text>
<polyline fill="none" stroke="black" points="66.41,-280.3 854.53,-280.3 "/>
<text text-anchor="middle" x="170.62" y="-263.7" font-family="Courier New" font-size="14.00">unallocated (12)</text>
<polyline fill="none" stroke="black" points="274.83,-255.5 274.83,-280.3 "/>
<text text-anchor="middle" x="564.37" y="-263.7" font-family="Courier New" font-size="14.00">address: InitializableAbstractStrategy.harvesterAddress (20)</text>
<polyline fill="none" stroke="black" points="66.41,-255.5 854.53,-255.5 "/>
<text text-anchor="middle" x="460.15" y="-238.9" font-family="Courier New" font-size="14.00">address[]: InitializableAbstractStrategy.rewardTokenAddresses (32)</text>
<polyline fill="none" stroke="black" points="66.41,-230.7 854.53,-230.7 "/>
<text text-anchor="middle" x="460.05" y="-214.1" font-family="Courier New" font-size="14.00">int256[98]: InitializableAbstractStrategy._reserved (3136)</text>
<polyline fill="none" stroke="black" points="66.41,-205.9 854.53,-205.9 "/>
<text text-anchor="middle" x="187.62" y="-189.3" font-family="Courier New" font-size="14.00">unallocated (12)</text>
<polyline fill="none" stroke="black" points="308.83,-181.1 308.83,-205.9 "/>
<text text-anchor="middle" x="581.27" y="-189.3" font-family="Courier New" font-size="14.00">IAaveIncentivesController: incentivesController (20)</text>
<polyline fill="none" stroke="black" points="66.41,-181.1 854.53,-181.1 "/>
<text text-anchor="middle" x="233.62" y="-164.5" font-family="Courier New" font-size="14.00">unallocated (12)</text>
<polyline fill="none" stroke="black" points="400.83,-156.3 400.83,-181.1 "/>
<text text-anchor="middle" x="627.35" y="-164.5" font-family="Courier New" font-size="14.00">IAaveStakedToken: stkAave (20)</text>
</g>
<!-- 1 -->
<g id="node2" class="node">
<title>1</title>
<polygon fill="#f2f2f2" stroke="black" points="1033.35,-412.5 1033.35,-586.1 1318.2,-586.1 1318.2,-412.5 1033.35,-412.5"/>
<text text-anchor="middle" x="1175.78" y="-569.5" font-family="Courier New" font-size="14.00">uint256[50]: ______gap &lt;&lt;Array&gt;&gt;</text>
<polyline fill="none" stroke="black" points="1033.35,-561.3 1318.2,-561.3 "/>
<text text-anchor="middle" x="1066.66" y="-544.7" font-family="Courier New" font-size="14.00">slot</text>
<polyline fill="none" stroke="black" points="1033.35,-536.5 1099.96,-536.5 "/>
<text text-anchor="middle" x="1066.66" y="-519.9" font-family="Courier New" font-size="14.00">1</text>
<polyline fill="none" stroke="black" points="1033.35,-511.7 1099.96,-511.7 "/>
<text text-anchor="middle" x="1066.66" y="-495.1" font-family="Courier New" font-size="14.00">2</text>
<polyline fill="none" stroke="black" points="1033.35,-486.9 1099.96,-486.9 "/>
<text text-anchor="middle" x="1066.66" y="-470.3" font-family="Courier New" font-size="14.00">3&#45;48</text>
<polyline fill="none" stroke="black" points="1033.35,-462.1 1099.96,-462.1 "/>
<text text-anchor="middle" x="1066.66" y="-445.5" font-family="Courier New" font-size="14.00">49</text>
<polyline fill="none" stroke="black" points="1033.35,-437.3 1099.96,-437.3 "/>
<text text-anchor="middle" x="1066.66" y="-420.7" font-family="Courier New" font-size="14.00">50</text>
<polyline fill="none" stroke="black" points="1099.96,-412.5 1099.96,-561.3 "/>
<text text-anchor="middle" x="1208.88" y="-544.7" font-family="Courier New" font-size="14.00">type: variable (bytes)</text>
<polyline fill="none" stroke="black" points="1099.96,-536.5 1317.79,-536.5 "/>
<text text-anchor="middle" x="1208.87" y="-519.9" font-family="Courier New" font-size="14.00">uint256 (32)</text>
<polyline fill="none" stroke="black" points="1099.96,-511.7 1317.79,-511.7 "/>
<text text-anchor="middle" x="1208.87" y="-495.1" font-family="Courier New" font-size="14.00">uint256 (32)</text>
<polyline fill="none" stroke="black" points="1099.96,-486.9 1317.79,-486.9 "/>
<text text-anchor="middle" x="1208.67" y="-470.3" font-family="Courier New" font-size="14.00">&#45;&#45;&#45;&#45; (1472)</text>
<polyline fill="none" stroke="black" points="1099.96,-462.1 1317.79,-462.1 "/>
<text text-anchor="middle" x="1208.87" y="-445.5" font-family="Courier New" font-size="14.00">uint256 (32)</text>
<polyline fill="none" stroke="black" points="1099.96,-437.3 1317.79,-437.3 "/>
<text text-anchor="middle" x="1208.87" y="-420.7" font-family="Courier New" font-size="14.00">uint256 (32)</text>
</g>
<!-- 5&#45;&gt;1 -->
<g id="edge1" class="edge">
<title>5:8&#45;&gt;1</title>
<path fill="none" stroke="black" d="M854.27,-441.3C909.9,-441.3 970.1,-449.87 1023.15,-460.41"/>
<polygon fill="black" stroke="black" points="1022.47,-463.85 1032.97,-462.4 1023.87,-456.99 1022.47,-463.85"/>
</g>
<!-- 2 -->
<g id="node3" class="node">
<title>2</title>
<polygon fill="#f2f2f2" stroke="black" points="890.53,-302.7 890.53,-393.9 1461.02,-393.9 1461.02,-302.7 890.53,-302.7"/>
<text text-anchor="middle" x="1175.78" y="-377.3" font-family="Courier New" font-size="14.00">address[]: assetsMapped &lt;&lt;Array&gt;&gt;</text>
<text text-anchor="middle" x="1175.78" y="-360.5" font-family="Courier New" font-size="14.00">0x4a11f94e20a93c79f6ec743a1954ec4fc2c08429ae2122118bf234b2185c81b8</text>
<polyline fill="none" stroke="black" points="890.53,-352.3 1461.02,-352.3 "/>
<text text-anchor="middle" x="982.74" y="-335.7" font-family="Courier New" font-size="14.00">offset</text>
<polyline fill="none" stroke="black" points="890.53,-327.5 1074.94,-327.5 "/>
<text text-anchor="middle" x="982.74" y="-310.9" font-family="Courier New" font-size="14.00">0</text>
<polyline fill="none" stroke="black" points="1074.94,-302.7 1074.94,-352.3 "/>
<text text-anchor="middle" x="1267.56" y="-335.7" font-family="Courier New" font-size="14.00">type: variable (bytes)</text>
<polyline fill="none" stroke="black" points="1074.94,-327.5 1460.18,-327.5 "/>
<text text-anchor="middle" x="1179.65" y="-310.9" font-family="Courier New" font-size="14.00">unallocated (12)</text>
<polyline fill="none" stroke="black" points="1284.36,-302.7 1284.36,-327.5 "/>
<text text-anchor="middle" x="1372.27" y="-310.9" font-family="Courier New" font-size="14.00">address (20)</text>
</g>
<!-- 5&#45;&gt;2 -->
<g id="edge2" class="edge">
<title>5:13&#45;&gt;2</title>
<path fill="none" stroke="black" d="M854.27,-342.3C862.77,-342.3 871.39,-342.32 880.1,-342.36"/>
<polygon fill="black" stroke="black" points="880.34,-345.86 890.36,-342.42 880.38,-338.86 880.34,-345.86"/>
</g>
<!-- 3 -->
<g id="node4" class="node">
<title>3</title>
<polygon fill="#f2f2f2" stroke="black" points="890.53,-192.7 890.53,-283.9 1461.02,-283.9 1461.02,-192.7 890.53,-192.7"/>
<text text-anchor="middle" x="1175.78" y="-267.3" font-family="Courier New" font-size="14.00">address[]: rewardTokenAddresses &lt;&lt;Array&gt;&gt;</text>
<text text-anchor="middle" x="1175.78" y="-250.5" font-family="Courier New" font-size="14.00">0xa2999d817b6757290b50e8ecf3fa939673403dd35c97de392fdb343b4015ce9e</text>
<polyline fill="none" stroke="black" points="890.53,-242.3 1461.02,-242.3 "/>
<text text-anchor="middle" x="982.74" y="-225.7" font-family="Courier New" font-size="14.00">offset</text>
<polyline fill="none" stroke="black" points="890.53,-217.5 1074.94,-217.5 "/>
<text text-anchor="middle" x="982.74" y="-200.9" font-family="Courier New" font-size="14.00">0</text>
<polyline fill="none" stroke="black" points="1074.94,-192.7 1074.94,-242.3 "/>
<text text-anchor="middle" x="1267.56" y="-225.7" font-family="Courier New" font-size="14.00">type: variable (bytes)</text>
<polyline fill="none" stroke="black" points="1074.94,-217.5 1460.18,-217.5 "/>
<text text-anchor="middle" x="1179.65" y="-200.9" font-family="Courier New" font-size="14.00">unallocated (12)</text>
<polyline fill="none" stroke="black" points="1284.36,-192.7 1284.36,-217.5 "/>
<text text-anchor="middle" x="1372.27" y="-200.9" font-family="Courier New" font-size="14.00">address (20)</text>
</g>
<!-- 5&#45;&gt;3 -->
<g id="edge3" class="edge">
<title>5:18&#45;&gt;3</title>
<path fill="none" stroke="black" d="M854.53,-243.3C862.92,-243.3 871.44,-243.28 880.04,-243.25"/>
<polygon fill="black" stroke="black" points="880.18,-246.75 890.16,-243.2 880.15,-239.75 880.18,-246.75"/>
</g>
<!-- 4 -->
<g id="node5" class="node">
<title>4</title>
<polygon fill="#f2f2f2" stroke="black" points="1037.56,-0.5 1037.56,-174.1 1314,-174.1 1314,-0.5 1037.56,-0.5"/>
<text text-anchor="middle" x="1175.78" y="-157.5" font-family="Courier New" font-size="14.00">int256[98]: _reserved &lt;&lt;Array&gt;&gt;</text>
<polyline fill="none" stroke="black" points="1037.56,-149.3 1314,-149.3 "/>
<text text-anchor="middle" x="1072.76" y="-132.7" font-family="Courier New" font-size="14.00">slot</text>
<polyline fill="none" stroke="black" points="1037.56,-124.5 1107.96,-124.5 "/>
<text text-anchor="middle" x="1072.76" y="-107.9" font-family="Courier New" font-size="14.00">59</text>
<polyline fill="none" stroke="black" points="1037.56,-99.7 1107.96,-99.7 "/>
<text text-anchor="middle" x="1072.76" y="-83.1" font-family="Courier New" font-size="14.00">60</text>
<polyline fill="none" stroke="black" points="1037.56,-74.9 1107.96,-74.9 "/>
<text text-anchor="middle" x="1072.76" y="-58.3" font-family="Courier New" font-size="14.00">61&#45;154</text>
<polyline fill="none" stroke="black" points="1037.56,-50.1 1107.96,-50.1 "/>
<text text-anchor="middle" x="1072.76" y="-33.5" font-family="Courier New" font-size="14.00">155</text>
<polyline fill="none" stroke="black" points="1037.56,-25.3 1107.96,-25.3 "/>
<text text-anchor="middle" x="1072.76" y="-8.7" font-family="Courier New" font-size="14.00">156</text>
<polyline fill="none" stroke="black" points="1107.96,-0.5 1107.96,-149.3 "/>
<text text-anchor="middle" x="1210.88" y="-132.7" font-family="Courier New" font-size="14.00">type: variable (bytes)</text>
<polyline fill="none" stroke="black" points="1107.96,-124.5 1313.79,-124.5 "/>
<text text-anchor="middle" x="1210.67" y="-107.9" font-family="Courier New" font-size="14.00">int256 (32)</text>
<polyline fill="none" stroke="black" points="1107.96,-99.7 1313.79,-99.7 "/>
<text text-anchor="middle" x="1210.67" y="-83.1" font-family="Courier New" font-size="14.00">int256 (32)</text>
<polyline fill="none" stroke="black" points="1107.96,-74.9 1313.79,-74.9 "/>
<text text-anchor="middle" x="1210.67" y="-58.3" font-family="Courier New" font-size="14.00">&#45;&#45;&#45;&#45; (3008)</text>
<polyline fill="none" stroke="black" points="1107.96,-50.1 1313.79,-50.1 "/>
<text text-anchor="middle" x="1210.67" y="-33.5" font-family="Courier New" font-size="14.00">int256 (32)</text>
<polyline fill="none" stroke="black" points="1107.96,-25.3 1313.79,-25.3 "/>
<text text-anchor="middle" x="1210.67" y="-8.7" font-family="Courier New" font-size="14.00">int256 (32)</text>
</g>
<!-- 5&#45;&gt;4 -->
<g id="edge4" class="edge">
<title>5:24&#45;&gt;4</title>
<path fill="none" stroke="black" d="M854.27,-218.3C876.67,-218.3 871.4,-194.94 890.53,-183.3 932.38,-157.83 981.85,-138.12 1027.69,-123.37"/>
<polygon fill="black" stroke="black" points="1028.94,-126.65 1037.42,-120.3 1026.83,-119.97 1028.94,-126.65"/>
</g>
</g>
</svg>
