<?xml version="1.0" encoding="UTF-8" standalone="no"?>
<!DOCTYPE svg PUBLIC "-//W3C//DTD SVG 1.1//EN"
 "http://www.w3.org/Graphics/SVG/1.1/DTD/svg11.dtd">
<!-- Generated by graphviz version 5.0.0 (20220707.1540)
 -->
<!-- Title: UmlClassDiagram Pages: 1 -->
<svg width="792pt" height="241pt"
 viewBox="0.00 0.00 792.39 241.40" xmlns="http://www.w3.org/2000/svg" xmlns:xlink="http://www.w3.org/1999/xlink">
<g id="graph0" class="graph" transform="scale(1 1) rotate(0) translate(4 237.4)">
<title>UmlClassDiagram</title>
<polygon fill="white" stroke="transparent" points="-4,4 -4,-237.4 788.39,-237.4 788.39,4 -4,4"/>
<!-- 27 -->
<g id="node1" class="node">
<title>27</title>
<polygon fill="#f2f2f2" stroke="black" points="264.94,-174.5 264.94,-232.9 499.8,-232.9 499.8,-174.5 264.94,-174.5"/>
<text text-anchor="middle" x="382.37" y="-216.3" font-family="Times,serif" font-size="14.00">&lt;&lt;Abstract&gt;&gt;</text>
<text text-anchor="middle" x="382.37" y="-199.5" font-family="Times,serif" font-size="14.00">Governable</text>
<text text-anchor="middle" x="382.37" y="-182.7" font-family="Times,serif" font-size="14.00">../contracts/governance/Governable.sol</text>
</g>
<!-- 793 -->
<g id="node2" class="node">
<title>793</title>
<polygon fill="#f2f2f2" stroke="black" points="191.85,-79.1 191.85,-137.5 572.89,-137.5 572.89,-79.1 191.85,-79.1"/>
<text text-anchor="middle" x="382.37" y="-120.9" font-family="Times,serif" font-size="14.00">&lt;&lt;Abstract&gt;&gt;</text>
<text text-anchor="middle" x="382.37" y="-104.1" font-family="Times,serif" font-size="14.00">AbstractAdapter</text>
<text text-anchor="middle" x="382.37" y="-87.3" font-family="Times,serif" font-size="14.00">../contracts/strategies/crosschainV3/adapters/AbstractAdapter.sol</text>
</g>
<!-- 793&#45;&gt;27 -->
<g id="edge1" class="edge">
<title>793&#45;&gt;27</title>
<path fill="none" stroke="black" d="M382.37,-137.58C382.37,-139.66 382.37,-141.8 382.37,-143.98"/>
<polygon fill="none" stroke="black" points="371.87,-144.2 382.37,-174.2 392.87,-144.2 371.87,-144.2"/>
</g>
<!-- 795 -->
<g id="node3" class="node">
<title>795</title>
<polygon fill="#f2f2f2" stroke="black" points="0,-0.5 0,-42.1 364.74,-42.1 364.74,-0.5 0,-0.5"/>
<text text-anchor="middle" x="182.37" y="-25.5" font-family="Times,serif" font-size="14.00">CCIPAdapter</text>
<text text-anchor="middle" x="182.37" y="-8.7" font-family="Times,serif" font-size="14.00">../contracts/strategies/crosschainV3/adapters/CCIPAdapter.sol</text>
</g>
<!-- 795&#45;&gt;793 -->
<g id="edge2" class="edge">
<title>795&#45;&gt;793</title>
<path fill="none" stroke="black" d="M229.01,-42.12C246.68,-49.63 267.5,-58.48 288.01,-67.2"/>
<polygon fill="none" stroke="black" points="284.21,-76.99 315.93,-79.06 292.43,-57.66 284.21,-76.99"/>
</g>
<!-- 797 -->
<g id="node4" class="node">
<title>797</title>
<polygon fill="#f2f2f2" stroke="black" points="382.35,-0.5 382.35,-42.1 784.39,-42.1 784.39,-0.5 382.35,-0.5"/>
<text text-anchor="middle" x="583.37" y="-25.5" font-family="Times,serif" font-size="14.00">SuperbridgeAdapter</text>
<text text-anchor="middle" x="583.37" y="-8.7" font-family="Times,serif" font-size="14.00">../contracts/strategies/crosschainV3/adapters/SuperbridgeAdapter.sol</text>
</g>
<!-- 797&#45;&gt;793 -->
<g id="edge3" class="edge">
<title>797&#45;&gt;793</title>
<path fill="none" stroke="black" d="M536.5,-42.12C518.63,-49.68 497.57,-58.58 476.85,-67.34"/>
<polygon fill="none" stroke="black" points="472.69,-57.71 449.14,-79.06 480.86,-77.05 472.69,-57.71"/>
</g>
</g>
</svg>
