<?xml version="1.0" encoding="UTF-8" standalone="no"?>
<!DOCTYPE svg PUBLIC "-//W3C//DTD SVG 1.1//EN"
 "http://www.w3.org/Graphics/SVG/1.1/DTD/svg11.dtd">
<!-- Generated by graphviz version 5.0.0 (20220707.1540)
 -->
<!-- Title: UmlClassDiagram Pages: 1 -->
<svg width="760pt" height="241pt"
 viewBox="0.00 0.00 759.69 241.40" xmlns="http://www.w3.org/2000/svg" xmlns:xlink="http://www.w3.org/1999/xlink">
<g id="graph0" class="graph" transform="scale(1 1) rotate(0) translate(4 237.4)">
<title>UmlClassDiagram</title>
<polygon fill="white" stroke="transparent" points="-4,4 -4,-237.4 755.69,-237.4 755.69,4 -4,4"/>
<!-- 40 -->
<g id="node1" class="node">
<title>40</title>
<polygon fill="#f2f2f2" stroke="black" points="256.94,-174.5 256.94,-232.9 491.8,-232.9 491.8,-174.5 256.94,-174.5"/>
<text text-anchor="middle" x="374.37" y="-216.3" font-family="Times,serif" font-size="14.00">&lt;&lt;Abstract&gt;&gt;</text>
<text text-anchor="middle" x="374.37" y="-199.5" font-family="Times,serif" font-size="14.00">Governable</text>
<text text-anchor="middle" x="374.37" y="-182.7" font-family="Times,serif" font-size="14.00">../contracts/governance/Governable.sol</text>
</g>
<!-- 449 -->
<g id="node2" class="node">
<title>449</title>
<polygon fill="#f2f2f2" stroke="black" points="183.85,-79.1 183.85,-137.5 564.89,-137.5 564.89,-79.1 183.85,-79.1"/>
<text text-anchor="middle" x="374.37" y="-120.9" font-family="Times,serif" font-size="14.00">&lt;&lt;Abstract&gt;&gt;</text>
<text text-anchor="middle" x="374.37" y="-104.1" font-family="Times,serif" font-size="14.00">AbstractAdapter</text>
<text text-anchor="middle" x="374.37" y="-87.3" font-family="Times,serif" font-size="14.00">../contracts/strategies/crosschainV3/adapters/AbstractAdapter.sol</text>
</g>
<!-- 449&#45;&gt;40 -->
<g id="edge1" class="edge">
<title>449&#45;&gt;40</title>
<path fill="none" stroke="black" d="M374.37,-137.58C374.37,-139.66 374.37,-141.8 374.37,-143.98"/>
<polygon fill="none" stroke="black" points="363.87,-144.2 374.37,-174.2 384.87,-144.2 363.87,-144.2"/>
</g>
<!-- 451 -->
<g id="node3" class="node">
<title>451</title>
<polygon fill="#f2f2f2" stroke="black" points="0,-0.5 0,-42.1 364.74,-42.1 364.74,-0.5 0,-0.5"/>
<text text-anchor="middle" x="182.37" y="-25.5" font-family="Times,serif" font-size="14.00">CCIPAdapter</text>
<text text-anchor="middle" x="182.37" y="-8.7" font-family="Times,serif" font-size="14.00">../contracts/strategies/crosschainV3/adapters/CCIPAdapter.sol</text>
</g>
<!-- 451&#45;&gt;449 -->
<g id="edge2" class="edge">
<title>451&#45;&gt;449</title>
<path fill="none" stroke="black" d="M227.39,-42.23C243.99,-49.58 263.47,-58.2 282.71,-66.72"/>
<polygon fill="none" stroke="black" points="278.69,-76.42 310.37,-78.97 287.19,-57.22 278.69,-76.42"/>
</g>
<!-- 452 -->
<g id="node4" class="node">
<title>452</title>
<polygon fill="#f2f2f2" stroke="black" points="383.06,-0.5 383.06,-42.1 751.69,-42.1 751.69,-0.5 383.06,-0.5"/>
<text text-anchor="middle" x="567.37" y="-25.5" font-family="Times,serif" font-size="14.00">CCTPAdapter</text>
<text text-anchor="middle" x="567.37" y="-8.7" font-family="Times,serif" font-size="14.00">../contracts/strategies/crosschainV3/adapters/CCTPAdapter.sol</text>
</g>
<!-- 452&#45;&gt;449 -->
<g id="edge3" class="edge">
<title>452&#45;&gt;449</title>
<path fill="none" stroke="black" d="M522.12,-42.23C505.33,-49.62 485.62,-58.3 466.17,-66.87"/>
<polygon fill="none" stroke="black" points="461.93,-57.27 438.7,-78.97 470.39,-76.48 461.93,-57.27"/>
</g>
</g>
</svg>
