<?xml version="1.0" encoding="UTF-8" standalone="no"?>
<!DOCTYPE svg PUBLIC "-//W3C//DTD SVG 1.1//EN"
 "http://www.w3.org/Graphics/SVG/1.1/DTD/svg11.dtd">
<!-- Generated by graphviz version 5.0.0 (20220707.1540)
 -->
<!-- Title: UmlClassDiagram Pages: 1 -->
<svg width="1419pt" height="432pt"
 viewBox="0.00 0.00 1418.70 432.20" xmlns="http://www.w3.org/2000/svg" xmlns:xlink="http://www.w3.org/1999/xlink">
<g id="graph0" class="graph" transform="scale(1 1) rotate(0) translate(4 428.2)">
<title>UmlClassDiagram</title>
<polygon fill="white" stroke="transparent" points="-4,4 -4,-428.2 1414.7,-428.2 1414.7,4 -4,4"/>
<!-- 18 -->
<g id="node1" class="node">
<title>18</title>
<polygon fill="#f2f2f2" stroke="black" points="285.78,-373.7 285.78,-415.3 520.64,-415.3 520.64,-373.7 285.78,-373.7"/>
<text text-anchor="middle" x="403.21" y="-398.7" font-family="Times,serif" font-size="14.00">Governable</text>
<text text-anchor="middle" x="403.21" y="-381.9" font-family="Times,serif" font-size="14.00">../contracts/governance/Governable.sol</text>
</g>
<!-- 235 -->
<g id="node2" class="node">
<title>235</title>
<polygon fill="#f2f2f2" stroke="black" points="0,-0.5 0,-42.1 334.41,-42.1 334.41,-0.5 0,-0.5"/>
<text text-anchor="middle" x="167.21" y="-25.5" font-family="Times,serif" font-size="14.00">BalancerEthAMOStrategy</text>
<text text-anchor="middle" x="167.21" y="-8.7" font-family="Times,serif" font-size="14.00">../contracts/strategies/amo/BalancerEthAMOStrategy.sol</text>
</g>
<!-- 238 -->
<g id="node4" class="node">
<title>238</title>
<polygon fill="#f2f2f2" stroke="black" points="170.11,-79.1 170.11,-137.5 512.3,-137.5 512.3,-79.1 170.11,-79.1"/>
<text text-anchor="middle" x="341.21" y="-120.9" font-family="Times,serif" font-size="14.00">&lt;&lt;Abstract&gt;&gt;</text>
<text text-anchor="middle" x="341.21" y="-104.1" font-family="Times,serif" font-size="14.00">BaseBalancerAMOStrategy</text>
<text text-anchor="middle" x="341.21" y="-87.3" font-family="Times,serif" font-size="14.00">../contracts/strategies/amo/BaseBalancerAMOStrategy.sol</text>
</g>
<!-- 235&#45;&gt;238 -->
<g id="edge1" class="edge">
<title>235&#45;&gt;238</title>
<path fill="none" stroke="black" d="M208,-42.23C222.44,-49.28 239.27,-57.5 256.01,-65.68"/>
<polygon fill="none" stroke="black" points="251.64,-75.23 283.21,-78.97 260.86,-56.36 251.64,-75.23"/>
</g>
<!-- 236 -->
<g id="node3" class="node">
<title>236</title>
<polygon fill="#f2f2f2" stroke="black" points="372.99,-174.5 372.99,-232.9 665.42,-232.9 665.42,-174.5 372.99,-174.5"/>
<text text-anchor="middle" x="519.21" y="-216.3" font-family="Times,serif" font-size="14.00">&lt;&lt;Abstract&gt;&gt;</text>
<text text-anchor="middle" x="519.21" y="-199.5" font-family="Times,serif" font-size="14.00">BaseAMOStrategy</text>
<text text-anchor="middle" x="519.21" y="-182.7" font-family="Times,serif" font-size="14.00">../contracts/strategies/amo/BaseAMOStrategy.sol</text>
</g>
<!-- 177 -->
<g id="node10" class="node">
<title>177</title>
<polygon fill="#f2f2f2" stroke="black" points="374.16,-269.9 374.16,-328.3 664.25,-328.3 664.25,-269.9 374.16,-269.9"/>
<text text-anchor="middle" x="519.21" y="-311.7" font-family="Times,serif" font-size="14.00">&lt;&lt;Abstract&gt;&gt;</text>
<text text-anchor="middle" x="519.21" y="-294.9" font-family="Times,serif" font-size="14.00">InitializableAbstractStrategy</text>
<text text-anchor="middle" x="519.21" y="-278.1" font-family="Times,serif" font-size="14.00">../contracts/utils/InitializableAbstractStrategy.sol</text>
</g>
<!-- 236&#45;&gt;177 -->
<g id="edge2" class="edge">
<title>236&#45;&gt;177</title>
<path fill="none" stroke="black" d="M519.21,-232.98C519.21,-235.06 519.21,-237.2 519.21,-239.38"/>
<polygon fill="none" stroke="black" points="508.71,-239.6 519.21,-269.6 529.71,-239.6 508.71,-239.6"/>
</g>
<!-- 238&#45;&gt;236 -->
<g id="edge3" class="edge">
<title>238&#45;&gt;236</title>
<path fill="none" stroke="black" d="M395.09,-137.58C408.8,-144.77 423.83,-152.65 438.55,-160.38"/>
<polygon fill="none" stroke="black" points="433.75,-169.72 465.19,-174.36 443.51,-151.12 433.75,-169.72"/>
</g>
<!-- 240 -->
<g id="node5" class="node">
<title>240</title>
<polygon fill="#f2f2f2" stroke="black" points="617.21,-79.1 617.21,-137.5 953.2,-137.5 953.2,-79.1 617.21,-79.1"/>
<text text-anchor="middle" x="785.21" y="-120.9" font-family="Times,serif" font-size="14.00">&lt;&lt;Abstract&gt;&gt;</text>
<text text-anchor="middle" x="785.21" y="-104.1" font-family="Times,serif" font-size="14.00">BaseConvexAMOStrategy</text>
<text text-anchor="middle" x="785.21" y="-87.3" font-family="Times,serif" font-size="14.00">../contracts/strategies/amo/BaseConvexAMOStrategy.sol</text>
</g>
<!-- 240&#45;&gt;236 -->
<g id="edge4" class="edge">
<title>240&#45;&gt;236</title>
<path fill="none" stroke="black" d="M704.67,-137.58C680.7,-146 654.01,-155.37 628.52,-164.32"/>
<polygon fill="none" stroke="black" points="624.75,-154.51 599.92,-174.36 631.71,-174.33 624.75,-154.51"/>
</g>
<!-- 242 -->
<g id="node6" class="node">
<title>242</title>
<polygon fill="#f2f2f2" stroke="black" points="352.05,-0.5 352.05,-42.1 676.36,-42.1 676.36,-0.5 352.05,-0.5"/>
<text text-anchor="middle" x="514.21" y="-25.5" font-family="Times,serif" font-size="14.00">ConvexEthMetaStrategy</text>
<text text-anchor="middle" x="514.21" y="-8.7" font-family="Times,serif" font-size="14.00">../contracts/strategies/amo/ConvexEthMetaStrategy.sol</text>
</g>
<!-- 242&#45;&gt;240 -->
<g id="edge5" class="edge">
<title>242&#45;&gt;240</title>
<path fill="none" stroke="black" d="M577.4,-42.12C603.95,-50.45 635.74,-60.42 666.37,-70.03"/>
<polygon fill="none" stroke="black" points="663.41,-80.1 695.18,-79.06 669.7,-60.07 663.41,-80.1"/>
</g>
<!-- 243 -->
<g id="node7" class="node">
<title>243</title>
<polygon fill="#f2f2f2" stroke="black" points="694.49,-0.5 694.49,-42.1 1049.92,-42.1 1049.92,-0.5 694.49,-0.5"/>
<text text-anchor="middle" x="872.21" y="-25.5" font-family="Times,serif" font-size="14.00">ConvexFrxETHAMOStrategy</text>
<text text-anchor="middle" x="872.21" y="-8.7" font-family="Times,serif" font-size="14.00">../contracts/strategies/amo/ConvexFrxETHAMOStrategy.sol</text>
</g>
<!-- 243&#45;&gt;240 -->
<g id="edge6" class="edge">
<title>243&#45;&gt;240</title>
<path fill="none" stroke="black" d="M851.59,-42.44C846.71,-47.21 841.29,-52.5 835.71,-57.95"/>
<polygon fill="none" stroke="black" points="828.35,-50.46 814.23,-78.94 843.03,-65.48 828.35,-50.46"/>
</g>
<!-- 244 -->
<g id="node8" class="node">
<title>244</title>
<polygon fill="#f2f2f2" stroke="black" points="1067.71,-0.5 1067.71,-42.1 1410.7,-42.1 1410.7,-0.5 1067.71,-0.5"/>
<text text-anchor="middle" x="1239.21" y="-25.5" font-family="Times,serif" font-size="14.00">ConvexOUSDMetaStrategy</text>
<text text-anchor="middle" x="1239.21" y="-8.7" font-family="Times,serif" font-size="14.00">../contracts/strategies/amo/ConvexOUSDMetaStrategy.sol</text>
</g>
<!-- 244&#45;&gt;240 -->
<g id="edge7" class="edge">
<title>244&#45;&gt;240</title>
<path fill="none" stroke="black" d="M1133.34,-42.12C1083.47,-51.46 1022.58,-62.86 965.74,-73.5"/>
<polygon fill="none" stroke="black" points="963.58,-63.22 936.03,-79.06 967.45,-83.86 963.58,-63.22"/>
</g>
<!-- 176 -->
<g id="node9" class="node">
<title>176</title>
<polygon fill="#f2f2f2" stroke="black" points="538.2,-365.3 538.2,-423.7 734.21,-423.7 734.21,-365.3 538.2,-365.3"/>
<text text-anchor="middle" x="636.21" y="-407.1" font-family="Times,serif" font-size="14.00">&lt;&lt;Abstract&gt;&gt;</text>
<text text-anchor="middle" x="636.21" y="-390.3" font-family="Times,serif" font-size="14.00">Initializable</text>
<text text-anchor="middle" x="636.21" y="-373.5" font-family="Times,serif" font-size="14.00">../contracts/utils/Initializable.sol</text>
</g>
<!-- 177&#45;&gt;18 -->
<g id="edge9" class="edge">
<title>177&#45;&gt;18</title>
<path fill="none" stroke="black" d="M484.09,-328.38C473.88,-336.59 462.56,-345.71 451.69,-354.46"/>
<polygon fill="none" stroke="black" points="444.69,-346.62 427.9,-373.61 457.86,-362.98 444.69,-346.62"/>
</g>
<!-- 177&#45;&gt;176 -->
<g id="edge8" class="edge">
<title>177&#45;&gt;176</title>
<path fill="none" stroke="black" d="M554.63,-328.38C561.66,-333.99 569.23,-340.04 576.82,-346.09"/>
<polygon fill="none" stroke="black" points="570.5,-354.49 600.5,-365 583.61,-338.07 570.5,-354.49"/>
</g>
<!-- 177&#45;&gt;177 -->
<g id="edge10" class="edge">
<title>177&#45;&gt;177</title>
<path fill="none" stroke="black" stroke-dasharray="5,2" d="M664.42,-285.88C675.46,-288.82 682.25,-293.22 682.25,-299.1 682.25,-302.96 679.33,-306.18 674.2,-308.77"/>
<polygon fill="black" stroke="black" points="672.62,-305.62 664.42,-312.32 675.01,-312.2 672.62,-305.62"/>
</g>
</g>
</svg>
