<?xml version="1.0" encoding="UTF-8" standalone="no"?>
<!DOCTYPE svg PUBLIC "-//W3C//DTD SVG 1.1//EN"
 "http://www.w3.org/Graphics/SVG/1.1/DTD/svg11.dtd">
<!-- Generated by graphviz version 5.0.0 (20220707.1540)
 -->
<!-- Title: UmlClassDiagram Pages: 1 -->
<svg width="1067pt" height="432pt"
 viewBox="0.00 0.00 1066.65 432.20" xmlns="http://www.w3.org/2000/svg" xmlns:xlink="http://www.w3.org/1999/xlink">
<g id="graph0" class="graph" transform="scale(1 1) rotate(0) translate(4 428.2)">
<title>UmlClassDiagram</title>
<polygon fill="white" stroke="transparent" points="-4,4 -4,-428.2 1062.65,-428.2 1062.65,4 -4,4"/>
<!-- 7 -->
<g id="node1" class="node">
<title>7</title>
<polygon fill="#f2f2f2" stroke="black" points="286.73,-373.7 286.73,-415.3 521.59,-415.3 521.59,-373.7 286.73,-373.7"/>
<text text-anchor="middle" x="404.16" y="-398.7" font-family="Times,serif" font-size="14.00">Governable</text>
<text text-anchor="middle" x="404.16" y="-381.9" font-family="Times,serif" font-size="14.00">../contracts/governance/Governable.sol</text>
</g>
<!-- 215 -->
<g id="node2" class="node">
<title>215</title>
<polygon fill="#f2f2f2" stroke="black" points="373.94,-174.5 373.94,-232.9 666.38,-232.9 666.38,-174.5 373.94,-174.5"/>
<text text-anchor="middle" x="520.16" y="-216.3" font-family="Times,serif" font-size="14.00">&lt;&lt;Abstract&gt;&gt;</text>
<text text-anchor="middle" x="520.16" y="-199.5" font-family="Times,serif" font-size="14.00">BaseAMOStrategy</text>
<text text-anchor="middle" x="520.16" y="-182.7" font-family="Times,serif" font-size="14.00">../contracts/strategies/amo/BaseAMOStrategy.sol</text>
</g>
<!-- 165 -->
<g id="node8" class="node">
<title>165</title>
<polygon fill="#f2f2f2" stroke="black" points="375.11,-269.9 375.11,-328.3 665.2,-328.3 665.2,-269.9 375.11,-269.9"/>
<text text-anchor="middle" x="520.16" y="-311.7" font-family="Times,serif" font-size="14.00">&lt;&lt;Abstract&gt;&gt;</text>
<text text-anchor="middle" x="520.16" y="-294.9" font-family="Times,serif" font-size="14.00">InitializableAbstractStrategy</text>
<text text-anchor="middle" x="520.16" y="-278.1" font-family="Times,serif" font-size="14.00">../contracts/utils/InitializableAbstractStrategy.sol</text>
</g>
<!-- 215&#45;&gt;165 -->
<g id="edge1" class="edge">
<title>215&#45;&gt;165</title>
<path fill="none" stroke="black" d="M520.16,-232.98C520.16,-235.06 520.16,-237.2 520.16,-239.38"/>
<polygon fill="none" stroke="black" points="509.66,-239.6 520.16,-269.6 530.66,-239.6 509.66,-239.6"/>
</g>
<!-- 217 -->
<g id="node3" class="node">
<title>217</title>
<polygon fill="#f2f2f2" stroke="black" points="352.16,-79.1 352.16,-137.5 688.15,-137.5 688.15,-79.1 352.16,-79.1"/>
<text text-anchor="middle" x="520.16" y="-120.9" font-family="Times,serif" font-size="14.00">&lt;&lt;Abstract&gt;&gt;</text>
<text text-anchor="middle" x="520.16" y="-104.1" font-family="Times,serif" font-size="14.00">BaseConvexAMOStrategy</text>
<text text-anchor="middle" x="520.16" y="-87.3" font-family="Times,serif" font-size="14.00">../contracts/strategies/amo/BaseConvexAMOStrategy.sol</text>
</g>
<!-- 217&#45;&gt;215 -->
<g id="edge2" class="edge">
<title>217&#45;&gt;215</title>
<path fill="none" stroke="black" d="M520.16,-137.58C520.16,-139.66 520.16,-141.8 520.16,-143.98"/>
<polygon fill="none" stroke="black" points="509.66,-144.2 520.16,-174.2 530.66,-144.2 509.66,-144.2"/>
</g>
<!-- 219 -->
<g id="node4" class="node">
<title>219</title>
<polygon fill="#f2f2f2" stroke="black" points="0,-0.5 0,-42.1 324.31,-42.1 324.31,-0.5 0,-0.5"/>
<text text-anchor="middle" x="162.16" y="-25.5" font-family="Times,serif" font-size="14.00">ConvexEthMetaStrategy</text>
<text text-anchor="middle" x="162.16" y="-8.7" font-family="Times,serif" font-size="14.00">../contracts/strategies/amo/ConvexEthMetaStrategy.sol</text>
</g>
<!-- 219&#45;&gt;217 -->
<g id="edge3" class="edge">
<title>219&#45;&gt;217</title>
<path fill="none" stroke="black" d="M245.64,-42.12C283.24,-51.05 328.8,-61.87 371.91,-72.1"/>
<polygon fill="none" stroke="black" points="369.61,-82.35 401.23,-79.06 374.47,-61.92 369.61,-82.35"/>
</g>
<!-- 220 -->
<g id="node5" class="node">
<title>220</title>
<polygon fill="#f2f2f2" stroke="black" points="342.44,-0.5 342.44,-42.1 697.88,-42.1 697.88,-0.5 342.44,-0.5"/>
<text text-anchor="middle" x="520.16" y="-25.5" font-family="Times,serif" font-size="14.00">ConvexFrxETHAMOStrategy</text>
<text text-anchor="middle" x="520.16" y="-8.7" font-family="Times,serif" font-size="14.00">../contracts/strategies/amo/ConvexFrxETHAMOStrategy.sol</text>
</g>
<!-- 220&#45;&gt;217 -->
<g id="edge4" class="edge">
<title>220&#45;&gt;217</title>
<path fill="none" stroke="black" d="M520.16,-42.44C520.16,-44.49 520.16,-46.63 520.16,-48.83"/>
<polygon fill="none" stroke="black" points="509.66,-48.94 520.16,-78.94 530.66,-48.94 509.66,-48.94"/>
</g>
<!-- 221 -->
<g id="node6" class="node">
<title>221</title>
<polygon fill="#f2f2f2" stroke="black" points="715.66,-0.5 715.66,-42.1 1058.65,-42.1 1058.65,-0.5 715.66,-0.5"/>
<text text-anchor="middle" x="887.16" y="-25.5" font-family="Times,serif" font-size="14.00">ConvexOUSDMetaStrategy</text>
<text text-anchor="middle" x="887.16" y="-8.7" font-family="Times,serif" font-size="14.00">../contracts/strategies/amo/ConvexOUSDMetaStrategy.sol</text>
</g>
<!-- 221&#45;&gt;217 -->
<g id="edge5" class="edge">
<title>221&#45;&gt;217</title>
<path fill="none" stroke="black" d="M801.58,-42.12C762.84,-51.09 715.87,-61.97 671.5,-72.25"/>
<polygon fill="none" stroke="black" points="668.93,-62.06 642.08,-79.06 673.67,-82.52 668.93,-62.06"/>
</g>
<!-- 164 -->
<g id="node7" class="node">
<title>164</title>
<polygon fill="#f2f2f2" stroke="black" points="539.15,-365.3 539.15,-423.7 735.16,-423.7 735.16,-365.3 539.15,-365.3"/>
<text text-anchor="middle" x="637.16" y="-407.1" font-family="Times,serif" font-size="14.00">&lt;&lt;Abstract&gt;&gt;</text>
<text text-anchor="middle" x="637.16" y="-390.3" font-family="Times,serif" font-size="14.00">Initializable</text>
<text text-anchor="middle" x="637.16" y="-373.5" font-family="Times,serif" font-size="14.00">../contracts/utils/Initializable.sol</text>
</g>
<!-- 165&#45;&gt;7 -->
<g id="edge7" class="edge">
<title>165&#45;&gt;7</title>
<path fill="none" stroke="black" d="M485.04,-328.38C474.84,-336.59 463.51,-345.71 452.64,-354.46"/>
<polygon fill="none" stroke="black" points="445.64,-346.62 428.86,-373.61 458.81,-362.98 445.64,-346.62"/>
</g>
<!-- 165&#45;&gt;164 -->
<g id="edge6" class="edge">
<title>165&#45;&gt;164</title>
<path fill="none" stroke="black" d="M555.58,-328.38C562.62,-333.99 570.18,-340.04 577.77,-346.09"/>
<polygon fill="none" stroke="black" points="571.46,-354.49 601.45,-365 584.56,-338.07 571.46,-354.49"/>
</g>
<!-- 165&#45;&gt;165 -->
<g id="edge8" class="edge">
<title>165&#45;&gt;165</title>
<path fill="none" stroke="black" stroke-dasharray="5,2" d="M665.37,-285.88C676.41,-288.82 683.2,-293.22 683.2,-299.1 683.2,-302.96 680.28,-306.18 675.15,-308.77"/>
<polygon fill="black" stroke="black" points="673.58,-305.62 665.37,-312.32 675.96,-312.2 673.58,-305.62"/>
</g>
</g>
</svg>
