<?xml version="1.0" encoding="UTF-8" standalone="no"?>
<!DOCTYPE svg PUBLIC "-//W3C//DTD SVG 1.1//EN"
 "http://www.w3.org/Graphics/SVG/1.1/DTD/svg11.dtd">
<!-- Generated by graphviz version 5.0.0 (20220707.1540)
 -->
<!-- Title: UmlClassDiagram Pages: 1 -->
<svg width="272pt" height="208pt"
 viewBox="0.00 0.00 271.62 207.80" xmlns="http://www.w3.org/2000/svg" xmlns:xlink="http://www.w3.org/1999/xlink">
<g id="graph0" class="graph" transform="scale(1 1) rotate(0) translate(4 203.8)">
<title>UmlClassDiagram</title>
<polygon fill="white" stroke="transparent" points="-4,4 -4,-203.8 267.62,-203.8 267.62,4 -4,4"/>
<!-- 20 -->
<g id="node1" class="node">
<title>20</title>
<polygon fill="#f2f2f2" stroke="black" points="14.38,-157.7 14.38,-199.3 249.24,-199.3 249.24,-157.7 14.38,-157.7"/>
<text text-anchor="middle" x="131.81" y="-182.7" font-family="Times,serif" font-size="14.00">Governable</text>
<text text-anchor="middle" x="131.81" y="-165.9" font-family="Times,serif" font-size="14.00">../contracts/governance/Governable.sol</text>
</g>
<!-- 25 -->
<g id="node2" class="node">
<title>25</title>
<polygon fill="#f2f2f2" stroke="black" points="10.5,-79.1 10.5,-120.7 253.13,-120.7 253.13,-79.1 10.5,-79.1"/>
<text text-anchor="middle" x="131.81" y="-104.1" font-family="Times,serif" font-size="14.00">Strategizable</text>
<text text-anchor="middle" x="131.81" y="-87.3" font-family="Times,serif" font-size="14.00">../contracts/governance/Strategizable.sol</text>
</g>
<!-- 25&#45;&gt;20 -->
<g id="edge1" class="edge">
<title>25&#45;&gt;20</title>
<path fill="none" stroke="black" d="M131.81,-121.03C131.81,-123.05 131.81,-125.16 131.81,-127.33"/>
<polygon fill="none" stroke="black" points="121.31,-127.51 131.81,-157.51 142.31,-127.51 121.31,-127.51"/>
</g>
<!-- 119 -->
<g id="node3" class="node">
<title>119</title>
<polygon fill="#f2f2f2" stroke="black" points="0,-0.5 0,-42.1 263.62,-42.1 263.62,-0.5 0,-0.5"/>
<text text-anchor="middle" x="131.81" y="-25.5" font-family="Times,serif" font-size="14.00">AuraWETHPriceFeed</text>
<text text-anchor="middle" x="131.81" y="-8.7" font-family="Times,serif" font-size="14.00">../contracts/oracle/AuraWETHPriceFeed.sol</text>
</g>
<!-- 119&#45;&gt;25 -->
<g id="edge2" class="edge">
<title>119&#45;&gt;25</title>
<path fill="none" stroke="black" d="M131.81,-42.43C131.81,-44.45 131.81,-46.56 131.81,-48.73"/>
<polygon fill="none" stroke="black" points="121.31,-48.91 131.81,-78.91 142.31,-48.91 121.31,-48.91"/>
</g>
</g>
</svg>
