<?xml version="1.0" encoding="UTF-8" standalone="no"?>
<!DOCTYPE svg PUBLIC "-//W3C//DTD SVG 1.1//EN"
 "http://www.w3.org/Graphics/SVG/1.1/DTD/svg11.dtd">
<!-- Generated by graphviz version 5.0.0 (20220707.1540)
 -->
<!-- Title: UmlClassDiagram Pages: 1 -->
<svg width="965pt" height="225pt"
 viewBox="0.00 0.00 965.33 224.60" xmlns="http://www.w3.org/2000/svg" xmlns:xlink="http://www.w3.org/1999/xlink">
<g id="graph0" class="graph" transform="scale(1 1) rotate(0) translate(4 220.6)">
<title>UmlClassDiagram</title>
<polygon fill="white" stroke="transparent" points="-4,4 -4,-220.6 961.33,-220.6 961.33,4 -4,4"/>
<!-- 20 -->
<g id="node1" class="node">
<title>20</title>
<polygon fill="#f2f2f2" stroke="black" points="3.89,-174.5 3.89,-216.1 238.75,-216.1 238.75,-174.5 3.89,-174.5"/>
<text text-anchor="middle" x="121.32" y="-199.5" font-family="Times,serif" font-size="14.00">Governable</text>
<text text-anchor="middle" x="121.32" y="-182.7" font-family="Times,serif" font-size="14.00">../contracts/governance/Governable.sol</text>
</g>
<!-- 25 -->
<g id="node2" class="node">
<title>25</title>
<polygon fill="#f2f2f2" stroke="black" points="0,-87.5 0,-129.1 242.63,-129.1 242.63,-87.5 0,-87.5"/>
<text text-anchor="middle" x="121.32" y="-112.5" font-family="Times,serif" font-size="14.00">Strategizable</text>
<text text-anchor="middle" x="121.32" y="-95.7" font-family="Times,serif" font-size="14.00">../contracts/governance/Strategizable.sol</text>
</g>
<!-- 25&#45;&gt;20 -->
<g id="edge1" class="edge">
<title>25&#45;&gt;20</title>
<path fill="none" stroke="black" d="M121.32,-129.44C121.32,-134 121.32,-139.03 121.32,-144.21"/>
<polygon fill="none" stroke="black" points="110.82,-144.3 121.32,-174.3 131.82,-144.3 110.82,-144.3"/>
</g>
<!-- 227 -->
<g id="node3" class="node">
<title>227</title>
<polygon fill="#f2f2f2" stroke="black" points="260.91,-79.1 260.91,-137.5 593.72,-137.5 593.72,-79.1 260.91,-79.1"/>
<text text-anchor="middle" x="427.32" y="-120.9" font-family="Times,serif" font-size="14.00">&lt;&lt;Interface&gt;&gt;</text>
<text text-anchor="middle" x="427.32" y="-104.1" font-family="Times,serif" font-size="14.00">IOracleWeightedPool</text>
<text text-anchor="middle" x="427.32" y="-87.3" font-family="Times,serif" font-size="14.00">../contracts/interfaces/balancer/IOracleWeightedPool.sol</text>
</g>
<!-- 229 -->
<g id="node4" class="node">
<title>229</title>
<polygon fill="#f2f2f2" stroke="black" points="611.3,-79.1 611.3,-137.5 957.33,-137.5 957.33,-79.1 611.3,-79.1"/>
<text text-anchor="middle" x="784.32" y="-120.9" font-family="Times,serif" font-size="14.00">&lt;&lt;Interface&gt;&gt;</text>
<text text-anchor="middle" x="784.32" y="-104.1" font-family="Times,serif" font-size="14.00">AggregatorV3Interface</text>
<text text-anchor="middle" x="784.32" y="-87.3" font-family="Times,serif" font-size="14.00">../contracts/interfaces/chainlink/AggregatorV3Interface.sol</text>
</g>
<!-- 115 -->
<g id="node5" class="node">
<title>115</title>
<polygon fill="#f2f2f2" stroke="black" points="295.5,-0.5 295.5,-42.1 559.13,-42.1 559.13,-0.5 295.5,-0.5"/>
<text text-anchor="middle" x="427.32" y="-25.5" font-family="Times,serif" font-size="14.00">AuraWETHPriceFeed</text>
<text text-anchor="middle" x="427.32" y="-8.7" font-family="Times,serif" font-size="14.00">../contracts/oracle/AuraWETHPriceFeed.sol</text>
</g>
<!-- 115&#45;&gt;25 -->
<g id="edge3" class="edge">
<title>115&#45;&gt;25</title>
<path fill="none" stroke="black" d="M355.96,-42.12C316.07,-53.2 265.71,-67.19 221.88,-79.37"/>
<polygon fill="none" stroke="black" points="218.88,-69.3 192.79,-87.45 224.5,-89.53 218.88,-69.3"/>
</g>
<!-- 115&#45;&gt;227 -->
<g id="edge4" class="edge">
<title>115&#45;&gt;227</title>
<path fill="none" stroke="black" d="M427.32,-42.44C427.32,-50.36 427.32,-59.73 427.32,-68.84"/>
<polygon fill="black" stroke="black" points="423.82,-68.94 427.32,-78.94 430.82,-68.94 423.82,-68.94"/>
</g>
<!-- 115&#45;&gt;229 -->
<g id="edge2" class="edge">
<title>115&#45;&gt;229</title>
<path fill="none" stroke="black" stroke-dasharray="5,2" d="M510.57,-42.12C548.06,-51.05 593.49,-61.87 636.48,-72.1"/>
<polygon fill="none" stroke="black" points="634.1,-82.33 665.72,-79.06 638.97,-61.9 634.1,-82.33"/>
</g>
</g>
</svg>
