<?xml version="1.0" encoding="UTF-8" standalone="no"?>
<!DOCTYPE svg PUBLIC "-//W3C//DTD SVG 1.1//EN"
 "http://www.w3.org/Graphics/SVG/1.1/DTD/svg11.dtd">
<!-- Generated by graphviz version 5.0.0 (20220707.1540)
 -->
<!-- Title: UmlClassDiagram Pages: 1 -->
<svg width="456pt" height="511pt"
 viewBox="0.00 0.00 456.44 510.80" xmlns="http://www.w3.org/2000/svg" xmlns:xlink="http://www.w3.org/1999/xlink">
<g id="graph0" class="graph" transform="scale(1 1) rotate(0) translate(4 506.8)">
<title>UmlClassDiagram</title>
<polygon fill="white" stroke="transparent" points="-4,4 -4,-506.8 452.44,-506.8 452.44,4 -4,4"/>
<!-- 18 -->
<g id="node1" class="node">
<title>18</title>
<polygon fill="#f2f2f2" stroke="black" points="0,-452.3 0,-493.9 234.86,-493.9 234.86,-452.3 0,-452.3"/>
<text text-anchor="middle" x="117.43" y="-477.3" font-family="Times,serif" font-size="14.00">Governable</text>
<text text-anchor="middle" x="117.43" y="-460.5" font-family="Times,serif" font-size="14.00">../contracts/governance/Governable.sol</text>
</g>
<!-- 247 -->
<g id="node2" class="node">
<title>247</title>
<polygon fill="#f2f2f2" stroke="black" points="32.79,-0.5 32.79,-42.1 434.07,-42.1 434.07,-0.5 32.79,-0.5"/>
<text text-anchor="middle" x="233.43" y="-25.5" font-family="Times,serif" font-size="14.00">BalancerComposablePoolStrategy</text>
<text text-anchor="middle" x="233.43" y="-8.7" font-family="Times,serif" font-size="14.00">../contracts/strategies/balancer/BalancerComposablePoolStrategy.sol</text>
</g>
<!-- 248 -->
<g id="node3" class="node">
<title>248</title>
<polygon fill="#f2f2f2" stroke="black" points="53.41,-79.1 53.41,-120.7 413.45,-120.7 413.45,-79.1 53.41,-79.1"/>
<text text-anchor="middle" x="233.43" y="-104.1" font-family="Times,serif" font-size="14.00">BalancerMetaPoolStrategy</text>
<text text-anchor="middle" x="233.43" y="-87.3" font-family="Times,serif" font-size="14.00">../contracts/strategies/balancer/BalancerMetaPoolStrategy.sol</text>
</g>
<!-- 247&#45;&gt;248 -->
<g id="edge1" class="edge">
<title>247&#45;&gt;248</title>
<path fill="none" stroke="black" d="M233.43,-42.43C233.43,-44.45 233.43,-46.56 233.43,-48.73"/>
<polygon fill="none" stroke="black" points="222.93,-48.91 233.43,-78.91 243.93,-48.91 222.93,-48.91"/>
</g>
<!-- 250 -->
<g id="node4" class="node">
<title>250</title>
<polygon fill="#f2f2f2" stroke="black" points="77.9,-157.7 77.9,-216.1 388.96,-216.1 388.96,-157.7 77.9,-157.7"/>
<text text-anchor="middle" x="233.43" y="-199.5" font-family="Times,serif" font-size="14.00">&lt;&lt;Abstract&gt;&gt;</text>
<text text-anchor="middle" x="233.43" y="-182.7" font-family="Times,serif" font-size="14.00">BaseAuraStrategy</text>
<text text-anchor="middle" x="233.43" y="-165.9" font-family="Times,serif" font-size="14.00">../contracts/strategies/balancer/BaseAuraStrategy.sol</text>
</g>
<!-- 248&#45;&gt;250 -->
<g id="edge2" class="edge">
<title>248&#45;&gt;250</title>
<path fill="none" stroke="black" d="M233.43,-121.04C233.43,-123.09 233.43,-125.23 233.43,-127.43"/>
<polygon fill="none" stroke="black" points="222.93,-127.54 233.43,-157.54 243.93,-127.54 222.93,-127.54"/>
</g>
<!-- 251 -->
<g id="node5" class="node">
<title>251</title>
<polygon fill="#f2f2f2" stroke="black" points="67.02,-253.1 67.02,-311.5 399.84,-311.5 399.84,-253.1 67.02,-253.1"/>
<text text-anchor="middle" x="233.43" y="-294.9" font-family="Times,serif" font-size="14.00">&lt;&lt;Abstract&gt;&gt;</text>
<text text-anchor="middle" x="233.43" y="-278.1" font-family="Times,serif" font-size="14.00">BaseBalancerStrategy</text>
<text text-anchor="middle" x="233.43" y="-261.3" font-family="Times,serif" font-size="14.00">../contracts/strategies/balancer/BaseBalancerStrategy.sol</text>
</g>
<!-- 250&#45;&gt;251 -->
<g id="edge3" class="edge">
<title>250&#45;&gt;251</title>
<path fill="none" stroke="black" d="M233.43,-216.18C233.43,-218.26 233.43,-220.4 233.43,-222.58"/>
<polygon fill="none" stroke="black" points="222.93,-222.8 233.43,-252.8 243.93,-222.8 222.93,-222.8"/>
</g>
<!-- 187 -->
<g id="node7" class="node">
<title>187</title>
<polygon fill="#f2f2f2" stroke="black" points="88.38,-348.5 88.38,-406.9 378.48,-406.9 378.48,-348.5 88.38,-348.5"/>
<text text-anchor="middle" x="233.43" y="-390.3" font-family="Times,serif" font-size="14.00">&lt;&lt;Abstract&gt;&gt;</text>
<text text-anchor="middle" x="233.43" y="-373.5" font-family="Times,serif" font-size="14.00">InitializableAbstractStrategy</text>
<text text-anchor="middle" x="233.43" y="-356.7" font-family="Times,serif" font-size="14.00">../contracts/utils/InitializableAbstractStrategy.sol</text>
</g>
<!-- 251&#45;&gt;187 -->
<g id="edge4" class="edge">
<title>251&#45;&gt;187</title>
<path fill="none" stroke="black" d="M233.43,-311.58C233.43,-313.66 233.43,-315.8 233.43,-317.98"/>
<polygon fill="none" stroke="black" points="222.93,-318.2 233.43,-348.2 243.93,-318.2 222.93,-318.2"/>
</g>
<!-- 186 -->
<g id="node6" class="node">
<title>186</title>
<polygon fill="#f2f2f2" stroke="black" points="252.42,-443.9 252.42,-502.3 448.44,-502.3 448.44,-443.9 252.42,-443.9"/>
<text text-anchor="middle" x="350.43" y="-485.7" font-family="Times,serif" font-size="14.00">&lt;&lt;Abstract&gt;&gt;</text>
<text text-anchor="middle" x="350.43" y="-468.9" font-family="Times,serif" font-size="14.00">Initializable</text>
<text text-anchor="middle" x="350.43" y="-452.1" font-family="Times,serif" font-size="14.00">../contracts/utils/Initializable.sol</text>
</g>
<!-- 187&#45;&gt;18 -->
<g id="edge6" class="edge">
<title>187&#45;&gt;18</title>
<path fill="none" stroke="black" d="M198.31,-406.98C188.11,-415.19 176.78,-424.31 165.91,-433.06"/>
<polygon fill="none" stroke="black" points="158.91,-425.22 142.13,-452.21 172.08,-441.58 158.91,-425.22"/>
</g>
<!-- 187&#45;&gt;186 -->
<g id="edge5" class="edge">
<title>187&#45;&gt;186</title>
<path fill="none" stroke="black" d="M268.85,-406.98C275.89,-412.59 283.46,-418.64 291.04,-424.69"/>
<polygon fill="none" stroke="black" points="284.73,-433.09 314.72,-443.6 297.83,-416.67 284.73,-433.09"/>
</g>
</g>
</svg>
