<?xml version="1.0" encoding="UTF-8" standalone="no"?>
<!DOCTYPE svg PUBLIC "-//W3C//DTD SVG 1.1//EN"
 "http://www.w3.org/Graphics/SVG/1.1/DTD/svg11.dtd">
<!-- Generated by graphviz version 5.0.0 (20220707.1540)
 -->
<!-- Title: UmlClassDiagram Pages: 1 -->
<svg width="1474pt" height="797pt"
 viewBox="0.00 0.00 1474.30 797.00" xmlns="http://www.w3.org/2000/svg" xmlns:xlink="http://www.w3.org/1999/xlink">
<g id="graph0" class="graph" transform="scale(1 1) rotate(0) translate(4 793)">
<title>UmlClassDiagram</title>
<polygon fill="white" stroke="transparent" points="-4,4 -4,-793 1470.3,-793 1470.3,4 -4,4"/>
<!-- 7 -->
<g id="node1" class="node">
<title>7</title>
<polygon fill="#f2f2f2" stroke="black" points="635.03,-643.1 635.03,-684.7 869.88,-684.7 869.88,-643.1 635.03,-643.1"/>
<text text-anchor="middle" x="752.46" y="-668.1" font-family="Times,serif" font-size="14.00">Governable</text>
<text text-anchor="middle" x="752.46" y="-651.3" font-family="Times,serif" font-size="14.00">../contracts/governance/Governable.sol</text>
</g>
<!-- 40 -->
<g id="node2" class="node">
<title>40</title>
<polygon fill="#f2f2f2" stroke="black" points="845.85,-365.3 845.85,-423.7 1041.06,-423.7 1041.06,-365.3 845.85,-365.3"/>
<text text-anchor="middle" x="943.46" y="-407.1" font-family="Times,serif" font-size="14.00">&lt;&lt;Interface&gt;&gt;</text>
<text text-anchor="middle" x="943.46" y="-390.3" font-family="Times,serif" font-size="14.00">IVault</text>
<text text-anchor="middle" x="943.46" y="-373.5" font-family="Times,serif" font-size="14.00">../contracts/interfaces/IVault.sol</text>
</g>
<!-- 177 -->
<g id="node13" class="node">
<title>177</title>
<polygon fill="#f2f2f2" stroke="black" points="884,-460.7 884,-502.3 1090.91,-502.3 1090.91,-460.7 884,-460.7"/>
<text text-anchor="middle" x="987.46" y="-485.7" font-family="Times,serif" font-size="14.00">VaultStorage</text>
<text text-anchor="middle" x="987.46" y="-468.9" font-family="Times,serif" font-size="14.00">../contracts/vault/VaultStorage.sol</text>
</g>
<!-- 40&#45;&gt;177 -->
<g id="edge1" class="edge">
<title>40&#45;&gt;177</title>
<path fill="none" stroke="black" stroke-dasharray="5,2" d="M958.11,-423.8C962.75,-432.76 967.88,-442.68 972.53,-451.67"/>
<polygon fill="black" stroke="black" points="969.47,-453.37 977.17,-460.64 975.69,-450.15 969.47,-453.37"/>
</g>
<!-- 184 -->
<g id="node3" class="node">
<title>184</title>
<polygon fill="#f2f2f2" stroke="black" points="869.33,-174.5 869.33,-232.9 1165.58,-232.9 1165.58,-174.5 869.33,-174.5"/>
<text text-anchor="middle" x="1017.46" y="-216.3" font-family="Times,serif" font-size="14.00">&lt;&lt;Interface&gt;&gt;</text>
<text text-anchor="middle" x="1017.46" y="-199.5" font-family="Times,serif" font-size="14.00">IBalancerVault</text>
<text text-anchor="middle" x="1017.46" y="-182.7" font-family="Times,serif" font-size="14.00">../contracts/interfaces/balancer/IBalancerVault.sol</text>
</g>
<!-- 191 -->
<g id="node4" class="node">
<title>191</title>
<polygon fill="#f2f2f2" stroke="black" points="213.82,-174.5 213.82,-232.9 503.09,-232.9 503.09,-174.5 213.82,-174.5"/>
<text text-anchor="middle" x="358.46" y="-216.3" font-family="Times,serif" font-size="14.00">&lt;&lt;Interface&gt;&gt;</text>
<text text-anchor="middle" x="358.46" y="-199.5" font-family="Times,serif" font-size="14.00">IRateProvider</text>
<text text-anchor="middle" x="358.46" y="-182.7" font-family="Times,serif" font-size="14.00">../contracts/interfaces/balancer/IRateProvider.sol</text>
</g>
<!-- 146 -->
<g id="node5" class="node">
<title>146</title>
<polygon fill="#f2f2f2" stroke="black" points="1184.01,-174.5 1184.01,-232.9 1432.9,-232.9 1432.9,-174.5 1184.01,-174.5"/>
<text text-anchor="middle" x="1308.46" y="-216.3" font-family="Times,serif" font-size="14.00">&lt;&lt;Interface&gt;&gt;</text>
<text text-anchor="middle" x="1308.46" y="-199.5" font-family="Times,serif" font-size="14.00">IRewardStaking</text>
<text text-anchor="middle" x="1308.46" y="-182.7" font-family="Times,serif" font-size="14.00">../contracts/strategies/IRewardStaking.sol</text>
</g>
<!-- 223 -->
<g id="node6" class="node">
<title>223</title>
<polygon fill="#f2f2f2" stroke="black" points="538.25,-0.5 538.25,-42.1 872.66,-42.1 872.66,-0.5 538.25,-0.5"/>
<text text-anchor="middle" x="705.46" y="-25.5" font-family="Times,serif" font-size="14.00">BalancerEthAMOStrategy</text>
<text text-anchor="middle" x="705.46" y="-8.7" font-family="Times,serif" font-size="14.00">../contracts/strategies/amo/BalancerEthAMOStrategy.sol</text>
</g>
<!-- 223&#45;&gt;191 -->
<g id="edge4" class="edge">
<title>223&#45;&gt;191</title>
<path fill="none" stroke="black" stroke-dasharray="5,2" d="M621.63,-42.19C590.51,-51.19 555.51,-63.29 525.46,-78.6 478.13,-102.71 430.07,-140.06 397.74,-167.49"/>
<polygon fill="black" stroke="black" points="395.18,-165.07 389.87,-174.24 399.74,-170.39 395.18,-165.07"/>
</g>
<!-- 226 -->
<g id="node8" class="node">
<title>226</title>
<polygon fill="#f2f2f2" stroke="black" points="534.36,-79.1 534.36,-137.5 876.55,-137.5 876.55,-79.1 534.36,-79.1"/>
<text text-anchor="middle" x="705.46" y="-120.9" font-family="Times,serif" font-size="14.00">&lt;&lt;Abstract&gt;&gt;</text>
<text text-anchor="middle" x="705.46" y="-104.1" font-family="Times,serif" font-size="14.00">BaseBalancerAMOStrategy</text>
<text text-anchor="middle" x="705.46" y="-87.3" font-family="Times,serif" font-size="14.00">../contracts/strategies/amo/BaseBalancerAMOStrategy.sol</text>
</g>
<!-- 223&#45;&gt;226 -->
<g id="edge2" class="edge">
<title>223&#45;&gt;226</title>
<path fill="none" stroke="black" d="M705.46,-42.44C705.46,-44.49 705.46,-46.63 705.46,-48.83"/>
<polygon fill="none" stroke="black" points="694.96,-48.94 705.46,-78.94 715.96,-48.94 694.96,-48.94"/>
</g>
<!-- 233 -->
<g id="node14" class="node">
<title>233</title>
<polygon fill="#f2f2f2" stroke="black" points="102.4,-539.3 102.4,-597.7 364.51,-597.7 364.51,-539.3 102.4,-539.3"/>
<text text-anchor="middle" x="233.46" y="-581.1" font-family="Times,serif" font-size="14.00">&lt;&lt;Interface&gt;&gt;</text>
<text text-anchor="middle" x="233.46" y="-564.3" font-family="Times,serif" font-size="14.00">IERC4626</text>
<text text-anchor="middle" x="233.46" y="-547.5" font-family="Times,serif" font-size="14.00">../lib/openzeppelin/interfaces/IERC4626.sol</text>
</g>
<!-- 223&#45;&gt;233 -->
<g id="edge3" class="edge">
<title>223&#45;&gt;233</title>
<path fill="none" stroke="black" stroke-dasharray="5,2" d="M569.17,-42.14C415.1,-68.5 185.46,-121.42 185.46,-202.7 185.46,-202.7 185.46,-202.7 185.46,-395.5 185.46,-443.05 202.68,-495.35 216.49,-529.65"/>
<polygon fill="black" stroke="black" points="213.41,-531.36 220.47,-539.26 219.88,-528.68 213.41,-531.36"/>
</g>
<!-- 224 -->
<g id="node7" class="node">
<title>224</title>
<polygon fill="#f2f2f2" stroke="black" points="559.24,-174.5 559.24,-232.9 851.67,-232.9 851.67,-174.5 559.24,-174.5"/>
<text text-anchor="middle" x="705.46" y="-216.3" font-family="Times,serif" font-size="14.00">&lt;&lt;Abstract&gt;&gt;</text>
<text text-anchor="middle" x="705.46" y="-199.5" font-family="Times,serif" font-size="14.00">BaseAMOStrategy</text>
<text text-anchor="middle" x="705.46" y="-182.7" font-family="Times,serif" font-size="14.00">../contracts/strategies/amo/BaseAMOStrategy.sol</text>
</g>
<!-- 224&#45;&gt;40 -->
<g id="edge7" class="edge">
<title>224&#45;&gt;40</title>
<path fill="none" stroke="black" stroke-dasharray="5,2" d="M843.42,-232.94C879.77,-243.04 912.27,-255.44 924.46,-269.4 944.64,-292.52 948.37,-327.75 947.64,-354.78"/>
<polygon fill="black" stroke="black" points="944.13,-354.9 947.14,-365.06 951.12,-355.24 944.13,-354.9"/>
</g>
<!-- 165 -->
<g id="node11" class="node">
<title>165</title>
<polygon fill="#f2f2f2" stroke="black" points="607.41,-269.9 607.41,-328.3 897.5,-328.3 897.5,-269.9 607.41,-269.9"/>
<text text-anchor="middle" x="752.46" y="-311.7" font-family="Times,serif" font-size="14.00">&lt;&lt;Abstract&gt;&gt;</text>
<text text-anchor="middle" x="752.46" y="-294.9" font-family="Times,serif" font-size="14.00">InitializableAbstractStrategy</text>
<text text-anchor="middle" x="752.46" y="-278.1" font-family="Times,serif" font-size="14.00">../contracts/utils/InitializableAbstractStrategy.sol</text>
</g>
<!-- 224&#45;&gt;165 -->
<g id="edge5" class="edge">
<title>224&#45;&gt;165</title>
<path fill="none" stroke="black" d="M719.68,-232.98C721.23,-236.06 722.85,-239.27 724.49,-242.53"/>
<polygon fill="none" stroke="black" points="715.25,-247.52 738.11,-269.6 734.01,-238.08 715.25,-247.52"/>
</g>
<!-- 357 -->
<g id="node15" class="node">
<title>357</title>
<polygon fill="#f2f2f2" stroke="black" points="223.4,-730.1 223.4,-788.5 627.51,-788.5 627.51,-730.1 223.4,-730.1"/>
<text text-anchor="middle" x="425.46" y="-771.9" font-family="Times,serif" font-size="14.00">&lt;&lt;Interface&gt;&gt;</text>
<text text-anchor="middle" x="425.46" y="-755.1" font-family="Times,serif" font-size="14.00">IERC20</text>
<text text-anchor="middle" x="425.46" y="-738.3" font-family="Times,serif" font-size="14.00">../node_modules/@openzeppelin/contracts/token/ERC20/IERC20.sol</text>
</g>
<!-- 224&#45;&gt;357 -->
<g id="edge6" class="edge">
<title>224&#45;&gt;357</title>
<path fill="none" stroke="black" d="M640.25,-232.92C624.56,-242.47 609.24,-254.56 598.46,-269.4 565.17,-315.23 569.46,-336.86 569.46,-393.5 569.46,-393.5 569.46,-393.5 569.46,-569.5 569.46,-625.3 582.99,-648.27 550.46,-693.6 541.46,-706.14 529.29,-716.43 516.06,-724.82"/>
<polygon fill="black" stroke="black" points="514.05,-721.94 507.24,-730.06 517.62,-727.96 514.05,-721.94"/>
</g>
<!-- 226&#45;&gt;184 -->
<g id="edge9" class="edge">
<title>226&#45;&gt;184</title>
<path fill="none" stroke="black" d="M799.91,-137.58C835.72,-148.3 876.68,-160.56 913.33,-171.53"/>
<polygon fill="black" stroke="black" points="912.47,-174.92 923.05,-174.44 914.47,-168.22 912.47,-174.92"/>
</g>
<!-- 226&#45;&gt;191 -->
<g id="edge11" class="edge">
<title>226&#45;&gt;191</title>
<path fill="none" stroke="black" stroke-dasharray="5,2" d="M600.4,-137.58C560.24,-148.39 514.24,-160.77 473.22,-171.81"/>
<polygon fill="black" stroke="black" points="472.2,-168.46 463.45,-174.44 474.02,-175.22 472.2,-168.46"/>
</g>
<!-- 226&#45;&gt;146 -->
<g id="edge13" class="edge">
<title>226&#45;&gt;146</title>
<path fill="none" stroke="black" stroke-dasharray="5,2" d="M876.63,-129.83C962.9,-140.93 1069.31,-155.76 1173.61,-173.9"/>
<polygon fill="black" stroke="black" points="1173.24,-177.39 1183.69,-175.66 1174.44,-170.49 1173.24,-177.39"/>
</g>
<!-- 226&#45;&gt;224 -->
<g id="edge8" class="edge">
<title>226&#45;&gt;224</title>
<path fill="none" stroke="black" d="M705.46,-137.58C705.46,-139.66 705.46,-141.8 705.46,-143.98"/>
<polygon fill="none" stroke="black" points="694.96,-144.2 705.46,-174.2 715.96,-144.2 694.96,-144.2"/>
</g>
<!-- 226&#45;&gt;233 -->
<g id="edge12" class="edge">
<title>226&#45;&gt;233</title>
<path fill="none" stroke="black" stroke-dasharray="5,2" d="M596.82,-137.66C579.09,-146.67 562.58,-158.49 550.46,-174 516.08,-217.96 531.46,-242.3 531.46,-298.1 531.46,-298.1 531.46,-298.1 531.46,-395.5 531.46,-474.7 451.53,-518 374.46,-541.34"/>
<polygon fill="black" stroke="black" points="373.21,-538.06 364.6,-544.22 375.18,-544.77 373.21,-538.06"/>
</g>
<!-- 226&#45;&gt;357 -->
<g id="edge10" class="edge">
<title>226&#45;&gt;357</title>
<path fill="none" stroke="black" stroke-dasharray="5,2" d="M876.85,-113.4C1081.42,-119.96 1401.13,-136.19 1441.46,-174 1482.16,-212.17 1460.46,-242.3 1460.46,-298.1 1460.46,-298.1 1460.46,-298.1 1460.46,-569.5 1460.46,-631.76 1447.62,-659.61 1395.46,-693.6 1333.68,-733.85 904.24,-749.3 637.88,-755.05"/>
<polygon fill="black" stroke="black" points="637.61,-751.55 627.69,-755.27 637.76,-758.55 637.61,-751.55"/>
</g>
<!-- 157 -->
<g id="node9" class="node">
<title>157</title>
<polygon fill="#f2f2f2" stroke="black" points="943.33,-547.7 943.33,-589.3 1117.58,-589.3 1117.58,-547.7 943.33,-547.7"/>
<text text-anchor="middle" x="1030.46" y="-572.7" font-family="Times,serif" font-size="14.00">OUSD</text>
<text text-anchor="middle" x="1030.46" y="-555.9" font-family="Times,serif" font-size="14.00">../contracts/token/OUSD.sol</text>
</g>
<!-- 157&#45;&gt;7 -->
<g id="edge16" class="edge">
<title>157&#45;&gt;7</title>
<path fill="none" stroke="black" d="M971.5,-589.31C933.39,-602.11 883.1,-619.01 840.32,-633.38"/>
<polygon fill="none" stroke="black" points="836.9,-623.45 811.81,-642.96 843.59,-643.36 836.9,-623.45"/>
</g>
<!-- 164 -->
<g id="node10" class="node">
<title>164</title>
<polygon fill="#f2f2f2" stroke="black" points="1190.45,-634.7 1190.45,-693.1 1386.46,-693.1 1386.46,-634.7 1190.45,-634.7"/>
<text text-anchor="middle" x="1288.46" y="-676.5" font-family="Times,serif" font-size="14.00">&lt;&lt;Abstract&gt;&gt;</text>
<text text-anchor="middle" x="1288.46" y="-659.7" font-family="Times,serif" font-size="14.00">Initializable</text>
<text text-anchor="middle" x="1288.46" y="-642.9" font-family="Times,serif" font-size="14.00">../contracts/utils/Initializable.sol</text>
</g>
<!-- 157&#45;&gt;164 -->
<g id="edge14" class="edge">
<title>157&#45;&gt;164</title>
<path fill="none" stroke="black" d="M1085.17,-589.31C1113.38,-599.52 1148.79,-612.34 1182.12,-624.4"/>
<polygon fill="none" stroke="black" points="1178.54,-634.28 1210.32,-634.62 1185.69,-614.53 1178.54,-634.28"/>
</g>
<!-- 167 -->
<g id="node12" class="node">
<title>167</title>
<polygon fill="#f2f2f2" stroke="black" points="888.13,-634.7 888.13,-693.1 1172.78,-693.1 1172.78,-634.7 888.13,-634.7"/>
<text text-anchor="middle" x="1030.46" y="-676.5" font-family="Times,serif" font-size="14.00">&lt;&lt;Abstract&gt;&gt;</text>
<text text-anchor="middle" x="1030.46" y="-659.7" font-family="Times,serif" font-size="14.00">InitializableERC20Detailed</text>
<text text-anchor="middle" x="1030.46" y="-642.9" font-family="Times,serif" font-size="14.00">../contracts/utils/InitializableERC20Detailed.sol</text>
</g>
<!-- 157&#45;&gt;167 -->
<g id="edge15" class="edge">
<title>157&#45;&gt;167</title>
<path fill="none" stroke="black" d="M1030.46,-589.31C1030.46,-593.94 1030.46,-599.11 1030.46,-604.49"/>
<polygon fill="none" stroke="black" points="1019.96,-604.62 1030.46,-634.62 1040.96,-604.62 1019.96,-604.62"/>
</g>
<!-- 165&#45;&gt;7 -->
<g id="edge18" class="edge">
<title>165&#45;&gt;7</title>
<path fill="none" stroke="black" d="M752.46,-328.57C752.46,-389.99 752.46,-535.62 752.46,-612.83"/>
<polygon fill="none" stroke="black" points="741.96,-612.94 752.46,-642.94 762.96,-612.94 741.96,-612.94"/>
</g>
<!-- 165&#45;&gt;40 -->
<g id="edge21" class="edge">
<title>165&#45;&gt;40</title>
<path fill="none" stroke="black" stroke-dasharray="5,2" d="M810.28,-328.38C831.13,-338.57 854.83,-350.16 876.4,-360.71"/>
<polygon fill="black" stroke="black" points="874.98,-363.91 885.5,-365.16 878.05,-357.62 874.98,-363.91"/>
</g>
<!-- 165&#45;&gt;164 -->
<g id="edge17" class="edge">
<title>165&#45;&gt;164</title>
<path fill="none" stroke="black" d="M897.55,-311.46C948.78,-320.51 1004.91,-336.54 1050.46,-364.8 1147.73,-425.16 1222.15,-539.93 1260.23,-608.1"/>
<polygon fill="none" stroke="black" points="1251.02,-613.15 1274.5,-634.58 1269.51,-603.19 1251.02,-613.15"/>
</g>
<!-- 165&#45;&gt;165 -->
<g id="edge19" class="edge">
<title>165&#45;&gt;165</title>
<path fill="none" stroke="black" stroke-dasharray="5,2" d="M897.67,-285.88C908.71,-288.82 915.5,-293.22 915.5,-299.1 915.5,-302.96 912.58,-306.18 907.44,-308.77"/>
<polygon fill="black" stroke="black" points="905.87,-305.62 897.67,-312.32 908.26,-312.2 905.87,-305.62"/>
</g>
<!-- 165&#45;&gt;357 -->
<g id="edge20" class="edge">
<title>165&#45;&gt;357</title>
<path fill="none" stroke="black" stroke-dasharray="5,2" d="M708.56,-328.58C665.88,-360.12 607.46,-415.2 607.46,-480.5 607.46,-480.5 607.46,-480.5 607.46,-569.5 607.46,-625.68 619.07,-650.15 583.46,-693.6 572.77,-706.63 559.05,-717.07 544.15,-725.41"/>
<polygon fill="black" stroke="black" points="542.48,-722.34 535.26,-730.09 545.74,-728.53 542.48,-722.34"/>
</g>
<!-- 167&#45;&gt;357 -->
<g id="edge22" class="edge">
<title>167&#45;&gt;357</title>
<path fill="none" stroke="black" stroke-dasharray="5,2" d="M888.09,-691.98C884.85,-692.53 881.63,-693.07 878.46,-693.6 806.79,-705.48 728.53,-717.12 657.52,-727.19"/>
<polygon fill="none" stroke="black" points="655.82,-716.83 627.58,-731.4 658.75,-737.62 655.82,-716.83"/>
</g>
<!-- 177&#45;&gt;7 -->
<g id="edge24" class="edge">
<title>177&#45;&gt;7</title>
<path fill="none" stroke="black" d="M961.41,-502.5C923.11,-531.9 850.87,-587.35 802.2,-624.71"/>
<polygon fill="none" stroke="black" points="795.66,-616.49 778.26,-643.09 808.45,-633.15 795.66,-616.49"/>
</g>
<!-- 177&#45;&gt;157 -->
<g id="edge25" class="edge">
<title>177&#45;&gt;157</title>
<path fill="none" stroke="black" d="M997.65,-502.64C1003.05,-513.34 1009.8,-526.67 1015.76,-538.46"/>
<polygon fill="black" stroke="black" points="1012.7,-540.16 1020.34,-547.5 1018.95,-537 1012.7,-540.16"/>
</g>
<!-- 177&#45;&gt;164 -->
<g id="edge23" class="edge">
<title>177&#45;&gt;164</title>
<path fill="none" stroke="black" d="M1046.57,-502.42C1071.9,-511.97 1101.36,-524.46 1126.46,-538.8 1164.42,-560.5 1203.44,-590.13 1233.67,-614.99"/>
<polygon fill="none" stroke="black" points="1227.07,-623.16 1256.78,-634.48 1240.61,-607.11 1227.07,-623.16"/>
</g>
<!-- 233&#45;&gt;357 -->
<g id="edge26" class="edge">
<title>233&#45;&gt;357</title>
<path fill="none" stroke="black" stroke-dasharray="5,2" d="M102.12,-594.09C61.7,-604.5 24.59,-618 12.46,-634.2 -3.37,-655.33 -4.71,-673.54 12.46,-693.6 37.61,-723.01 113.48,-739.14 193.45,-747.96"/>
<polygon fill="none" stroke="black" points="192.42,-758.41 223.31,-750.91 194.49,-737.51 192.42,-758.41"/>
</g>
<!-- 728 -->
<g id="node16" class="node">
<title>728</title>
<polygon fill="#f2f2f2" stroke="black" points="21.86,-634.7 21.86,-693.1 541.05,-693.1 541.05,-634.7 21.86,-634.7"/>
<text text-anchor="middle" x="281.46" y="-676.5" font-family="Times,serif" font-size="14.00">&lt;&lt;Interface&gt;&gt;</text>
<text text-anchor="middle" x="281.46" y="-659.7" font-family="Times,serif" font-size="14.00">IERC20Metadata</text>
<text text-anchor="middle" x="281.46" y="-642.9" font-family="Times,serif" font-size="14.00">../node_modules/@openzeppelin/contracts/token/ERC20/extensions/IERC20Metadata.sol</text>
</g>
<!-- 233&#45;&gt;728 -->
<g id="edge27" class="edge">
<title>233&#45;&gt;728</title>
<path fill="none" stroke="black" stroke-dasharray="5,2" d="M247.99,-597.78C249.62,-600.95 251.32,-604.25 253.05,-607.62"/>
<polygon fill="none" stroke="black" points="243.76,-612.51 266.81,-634.4 262.43,-602.92 243.76,-612.51"/>
</g>
<!-- 728&#45;&gt;357 -->
<g id="edge28" class="edge">
<title>728&#45;&gt;357</title>
<path fill="none" stroke="black" stroke-dasharray="5,2" d="M325.05,-693.18C334.83,-699.52 345.44,-706.4 355.98,-713.24"/>
<polygon fill="none" stroke="black" points="350.63,-722.28 381.51,-729.8 362.06,-704.66 350.63,-722.28"/>
</g>
</g>
</svg>
