<?xml version="1.0" encoding="UTF-8" standalone="no"?>
<!DOCTYPE svg PUBLIC "-//W3C//DTD SVG 1.1//EN"
 "http://www.w3.org/Graphics/SVG/1.1/DTD/svg11.dtd">
<!-- Generated by graphviz version 5.0.0 (20220707.1540)
 -->
<!-- Title: UmlClassDiagram Pages: 1 -->
<svg width="1864pt" height="797pt"
 viewBox="0.00 0.00 1864.23 797.00" xmlns="http://www.w3.org/2000/svg" xmlns:xlink="http://www.w3.org/1999/xlink">
<g id="graph0" class="graph" transform="scale(1 1) rotate(0) translate(4 793)">
<title>UmlClassDiagram</title>
<polygon fill="white" stroke="transparent" points="-4,4 -4,-793 1860.23,-793 1860.23,4 -4,4"/>
<!-- 7 -->
<g id="node1" class="node">
<title>7</title>
<polygon fill="#f2f2f2" stroke="black" points="529.21,-643.1 529.21,-684.7 764.07,-684.7 764.07,-643.1 529.21,-643.1"/>
<text text-anchor="middle" x="646.64" y="-668.1" font-family="Times,serif" font-size="14.00">Governable</text>
<text text-anchor="middle" x="646.64" y="-651.3" font-family="Times,serif" font-size="14.00">../contracts/governance/Governable.sol</text>
</g>
<!-- 35 -->
<g id="node2" class="node">
<title>35</title>
<polygon fill="#f2f2f2" stroke="black" points="985.93,-269.9 985.93,-328.3 1187.34,-328.3 1187.34,-269.9 985.93,-269.9"/>
<text text-anchor="middle" x="1086.64" y="-311.7" font-family="Times,serif" font-size="14.00">&lt;&lt;Interface&gt;&gt;</text>
<text text-anchor="middle" x="1086.64" y="-294.9" font-family="Times,serif" font-size="14.00">IOracle</text>
<text text-anchor="middle" x="1086.64" y="-278.1" font-family="Times,serif" font-size="14.00">../contracts/interfaces/IOracle.sol</text>
</g>
<!-- 42 -->
<g id="node3" class="node">
<title>42</title>
<polygon fill="#f2f2f2" stroke="black" points="981.03,-365.3 981.03,-423.7 1176.24,-423.7 1176.24,-365.3 981.03,-365.3"/>
<text text-anchor="middle" x="1078.64" y="-407.1" font-family="Times,serif" font-size="14.00">&lt;&lt;Interface&gt;&gt;</text>
<text text-anchor="middle" x="1078.64" y="-390.3" font-family="Times,serif" font-size="14.00">IVault</text>
<text text-anchor="middle" x="1078.64" y="-373.5" font-family="Times,serif" font-size="14.00">../contracts/interfaces/IVault.sol</text>
</g>
<!-- 184 -->
<g id="node16" class="node">
<title>184</title>
<polygon fill="#f2f2f2" stroke="black" points="696.19,-460.7 696.19,-502.3 903.09,-502.3 903.09,-460.7 696.19,-460.7"/>
<text text-anchor="middle" x="799.64" y="-485.7" font-family="Times,serif" font-size="14.00">VaultStorage</text>
<text text-anchor="middle" x="799.64" y="-468.9" font-family="Times,serif" font-size="14.00">../contracts/vault/VaultStorage.sol</text>
</g>
<!-- 42&#45;&gt;184 -->
<g id="edge1" class="edge">
<title>42&#45;&gt;184</title>
<path fill="none" stroke="black" stroke-dasharray="5,2" d="M985.73,-423.8C949.66,-434.79 908.9,-447.21 874.74,-457.62"/>
<polygon fill="black" stroke="black" points="873.37,-454.38 864.82,-460.64 875.41,-461.07 873.37,-454.38"/>
</g>
<!-- 44 -->
<g id="node4" class="node">
<title>44</title>
<polygon fill="#f2f2f2" stroke="black" points="1205.7,-269.9 1205.7,-328.3 1419.57,-328.3 1419.57,-269.9 1205.7,-269.9"/>
<text text-anchor="middle" x="1312.64" y="-311.7" font-family="Times,serif" font-size="14.00">&lt;&lt;Interface&gt;&gt;</text>
<text text-anchor="middle" x="1312.64" y="-294.9" font-family="Times,serif" font-size="14.00">IWstETH</text>
<text text-anchor="middle" x="1312.64" y="-278.1" font-family="Times,serif" font-size="14.00">../contracts/interfaces/IWstETH.sol</text>
</g>
<!-- 191 -->
<g id="node5" class="node">
<title>191</title>
<polygon fill="#f2f2f2" stroke="black" points="307.51,-269.9 307.51,-328.3 603.76,-328.3 603.76,-269.9 307.51,-269.9"/>
<text text-anchor="middle" x="455.64" y="-311.7" font-family="Times,serif" font-size="14.00">&lt;&lt;Interface&gt;&gt;</text>
<text text-anchor="middle" x="455.64" y="-294.9" font-family="Times,serif" font-size="14.00">IBalancerVault</text>
<text text-anchor="middle" x="455.64" y="-278.1" font-family="Times,serif" font-size="14.00">../contracts/interfaces/balancer/IBalancerVault.sol</text>
</g>
<!-- 198 -->
<g id="node6" class="node">
<title>198</title>
<polygon fill="#f2f2f2" stroke="black" points="108.22,-79.1 108.22,-137.5 413.06,-137.5 413.06,-79.1 108.22,-79.1"/>
<text text-anchor="middle" x="260.64" y="-120.9" font-family="Times,serif" font-size="14.00">&lt;&lt;Interface&gt;&gt;</text>
<text text-anchor="middle" x="260.64" y="-104.1" font-family="Times,serif" font-size="14.00">IMetaStablePool</text>
<text text-anchor="middle" x="260.64" y="-87.3" font-family="Times,serif" font-size="14.00">../contracts/interfaces/balancer/IMetaStablePool.sol</text>
</g>
<!-- 199 -->
<g id="node7" class="node">
<title>199</title>
<polygon fill="#f2f2f2" stroke="black" points="0,-269.9 0,-328.3 289.27,-328.3 289.27,-269.9 0,-269.9"/>
<text text-anchor="middle" x="144.64" y="-311.7" font-family="Times,serif" font-size="14.00">&lt;&lt;Interface&gt;&gt;</text>
<text text-anchor="middle" x="144.64" y="-294.9" font-family="Times,serif" font-size="14.00">IRateProvider</text>
<text text-anchor="middle" x="144.64" y="-278.1" font-family="Times,serif" font-size="14.00">../contracts/interfaces/balancer/IRateProvider.sol</text>
</g>
<!-- 198&#45;&gt;199 -->
<g id="edge2" class="edge">
<title>198&#45;&gt;199</title>
<path fill="none" stroke="black" stroke-dasharray="5,2" d="M243.27,-137.57C223.11,-170.38 189.79,-224.61 167.53,-260.84"/>
<polygon fill="black" stroke="black" points="164.37,-259.29 162.12,-269.64 170.34,-262.95 164.37,-259.29"/>
</g>
<!-- 152 -->
<g id="node8" class="node">
<title>152</title>
<polygon fill="#f2f2f2" stroke="black" points="951.19,-174.5 951.19,-232.9 1200.08,-232.9 1200.08,-174.5 951.19,-174.5"/>
<text text-anchor="middle" x="1075.64" y="-216.3" font-family="Times,serif" font-size="14.00">&lt;&lt;Interface&gt;&gt;</text>
<text text-anchor="middle" x="1075.64" y="-199.5" font-family="Times,serif" font-size="14.00">IRewardStaking</text>
<text text-anchor="middle" x="1075.64" y="-182.7" font-family="Times,serif" font-size="14.00">../contracts/strategies/IRewardStaking.sol</text>
</g>
<!-- 231 -->
<g id="node9" class="node">
<title>231</title>
<polygon fill="#f2f2f2" stroke="black" points="488.61,-0.5 488.61,-42.1 848.66,-42.1 848.66,-0.5 488.61,-0.5"/>
<text text-anchor="middle" x="668.64" y="-25.5" font-family="Times,serif" font-size="14.00">BalancerMetaPoolStrategy</text>
<text text-anchor="middle" x="668.64" y="-8.7" font-family="Times,serif" font-size="14.00">../contracts/strategies/balancer/BalancerMetaPoolStrategy.sol</text>
</g>
<!-- 231&#45;&gt;191 -->
<g id="edge4" class="edge">
<title>231&#45;&gt;191</title>
<path fill="none" stroke="black" stroke-dasharray="5,2" d="M641.31,-42.35C628.5,-52.45 613.48,-65.35 601.64,-78.6 549.56,-136.86 502,-215.04 476.1,-260.66"/>
<polygon fill="black" stroke="black" points="472.92,-259.18 471.06,-269.61 479.02,-262.61 472.92,-259.18"/>
</g>
<!-- 231&#45;&gt;198 -->
<g id="edge5" class="edge">
<title>231&#45;&gt;198</title>
<path fill="none" stroke="black" stroke-dasharray="5,2" d="M573.49,-42.12C523.74,-52.49 461.76,-65.4 406.12,-76.99"/>
<polygon fill="black" stroke="black" points="405.25,-73.6 396.18,-79.06 406.68,-80.45 405.25,-73.6"/>
</g>
<!-- 231&#45;&gt;199 -->
<g id="edge6" class="edge">
<title>231&#45;&gt;199</title>
<path fill="none" stroke="black" stroke-dasharray="5,2" d="M626.55,-42.21C604.44,-52.8 576.95,-66.17 552.64,-78.6 427.66,-142.51 283.46,-221.3 204.33,-264.97"/>
<polygon fill="black" stroke="black" points="202.54,-261.96 195.48,-269.86 205.93,-268.09 202.54,-261.96"/>
</g>
<!-- 232 -->
<g id="node10" class="node">
<title>232</title>
<polygon fill="#f2f2f2" stroke="black" points="611.11,-79.1 611.11,-137.5 922.17,-137.5 922.17,-79.1 611.11,-79.1"/>
<text text-anchor="middle" x="766.64" y="-120.9" font-family="Times,serif" font-size="14.00">&lt;&lt;Abstract&gt;&gt;</text>
<text text-anchor="middle" x="766.64" y="-104.1" font-family="Times,serif" font-size="14.00">BaseAuraStrategy</text>
<text text-anchor="middle" x="766.64" y="-87.3" font-family="Times,serif" font-size="14.00">../contracts/strategies/balancer/BaseAuraStrategy.sol</text>
</g>
<!-- 231&#45;&gt;232 -->
<g id="edge3" class="edge">
<title>231&#45;&gt;232</title>
<path fill="none" stroke="black" d="M691.86,-42.44C697.75,-47.55 704.34,-53.26 711.09,-59.12"/>
<polygon fill="none" stroke="black" points="704.4,-67.21 733.94,-78.94 718.15,-51.35 704.4,-67.21"/>
</g>
<!-- 232&#45;&gt;152 -->
<g id="edge9" class="edge">
<title>232&#45;&gt;152</title>
<path fill="none" stroke="black" stroke-dasharray="5,2" d="M860.19,-137.58C895.65,-148.3 936.22,-160.56 972.52,-171.53"/>
<polygon fill="black" stroke="black" points="971.55,-174.9 982.14,-174.44 973.58,-168.2 971.55,-174.9"/>
</g>
<!-- 233 -->
<g id="node11" class="node">
<title>233</title>
<polygon fill="#f2f2f2" stroke="black" points="600.23,-174.5 600.23,-232.9 933.05,-232.9 933.05,-174.5 600.23,-174.5"/>
<text text-anchor="middle" x="766.64" y="-216.3" font-family="Times,serif" font-size="14.00">&lt;&lt;Abstract&gt;&gt;</text>
<text text-anchor="middle" x="766.64" y="-199.5" font-family="Times,serif" font-size="14.00">BaseBalancerStrategy</text>
<text text-anchor="middle" x="766.64" y="-182.7" font-family="Times,serif" font-size="14.00">../contracts/strategies/balancer/BaseBalancerStrategy.sol</text>
</g>
<!-- 232&#45;&gt;233 -->
<g id="edge7" class="edge">
<title>232&#45;&gt;233</title>
<path fill="none" stroke="black" d="M766.64,-137.58C766.64,-139.66 766.64,-141.8 766.64,-143.98"/>
<polygon fill="none" stroke="black" points="756.14,-144.2 766.64,-174.2 777.14,-144.2 756.14,-144.2"/>
</g>
<!-- 236 -->
<g id="node17" class="node">
<title>236</title>
<polygon fill="#f2f2f2" stroke="black" points="1316.58,-539.3 1316.58,-597.7 1578.69,-597.7 1578.69,-539.3 1316.58,-539.3"/>
<text text-anchor="middle" x="1447.64" y="-581.1" font-family="Times,serif" font-size="14.00">&lt;&lt;Interface&gt;&gt;</text>
<text text-anchor="middle" x="1447.64" y="-564.3" font-family="Times,serif" font-size="14.00">IERC4626</text>
<text text-anchor="middle" x="1447.64" y="-547.5" font-family="Times,serif" font-size="14.00">../lib/openzeppelin/interfaces/IERC4626.sol</text>
</g>
<!-- 232&#45;&gt;236 -->
<g id="edge8" class="edge">
<title>232&#45;&gt;236</title>
<path fill="none" stroke="black" stroke-dasharray="5,2" d="M922.44,-121.25C1123.47,-141.04 1447.64,-189.75 1447.64,-298.1 1447.64,-298.1 1447.64,-298.1 1447.64,-395.5 1447.64,-441.37 1447.64,-494.12 1447.64,-528.98"/>
<polygon fill="black" stroke="black" points="1444.14,-529.19 1447.64,-539.19 1451.14,-529.19 1444.14,-529.19"/>
</g>
<!-- 233&#45;&gt;35 -->
<g id="edge14" class="edge">
<title>233&#45;&gt;35</title>
<path fill="none" stroke="black" stroke-dasharray="5,2" d="M863.52,-232.98C900.24,-243.7 942.26,-255.96 979.85,-266.93"/>
<polygon fill="black" stroke="black" points="979.23,-270.4 989.81,-269.84 981.19,-263.68 979.23,-270.4"/>
</g>
<!-- 233&#45;&gt;42 -->
<g id="edge13" class="edge">
<title>233&#45;&gt;42</title>
<path fill="none" stroke="black" stroke-dasharray="5,2" d="M874.21,-233.05C896.98,-242.24 919.79,-254.14 938.64,-269.4 962.99,-289.12 954.43,-306.68 976.64,-328.8 988.2,-340.32 1002.16,-350.82 1016,-359.85"/>
<polygon fill="black" stroke="black" points="1014.25,-362.88 1024.57,-365.28 1018,-356.97 1014.25,-362.88"/>
</g>
<!-- 233&#45;&gt;44 -->
<g id="edge15" class="edge">
<title>233&#45;&gt;44</title>
<path fill="none" stroke="black" stroke-dasharray="5,2" d="M933.37,-231.98C936.49,-232.46 939.58,-232.93 942.64,-233.4 1052.16,-250.09 1082.98,-247.83 1195.54,-269.26"/>
<polygon fill="black" stroke="black" points="1195.11,-272.74 1205.6,-271.2 1196.44,-265.87 1195.11,-272.74"/>
</g>
<!-- 233&#45;&gt;191 -->
<g id="edge11" class="edge">
<title>233&#45;&gt;191</title>
<path fill="none" stroke="black" d="M672.48,-232.98C636.79,-243.7 595.96,-255.96 559.42,-266.93"/>
<polygon fill="black" stroke="black" points="558.31,-263.61 549.74,-269.84 560.32,-270.31 558.31,-263.61"/>
</g>
<!-- 233&#45;&gt;199 -->
<g id="edge12" class="edge">
<title>233&#45;&gt;199</title>
<path fill="none" stroke="black" stroke-dasharray="5,2" d="M600.12,-225.79C513.32,-237.26 405.2,-252.27 299.2,-269.33"/>
<polygon fill="black" stroke="black" points="298.6,-265.89 289.28,-270.94 299.71,-272.8 298.6,-265.89"/>
</g>
<!-- 172 -->
<g id="node14" class="node">
<title>172</title>
<polygon fill="#f2f2f2" stroke="black" points="621.59,-269.9 621.59,-328.3 911.68,-328.3 911.68,-269.9 621.59,-269.9"/>
<text text-anchor="middle" x="766.64" y="-311.7" font-family="Times,serif" font-size="14.00">&lt;&lt;Abstract&gt;&gt;</text>
<text text-anchor="middle" x="766.64" y="-294.9" font-family="Times,serif" font-size="14.00">InitializableAbstractStrategy</text>
<text text-anchor="middle" x="766.64" y="-278.1" font-family="Times,serif" font-size="14.00">../contracts/utils/InitializableAbstractStrategy.sol</text>
</g>
<!-- 233&#45;&gt;172 -->
<g id="edge10" class="edge">
<title>233&#45;&gt;172</title>
<path fill="none" stroke="black" d="M766.64,-232.98C766.64,-235.06 766.64,-237.2 766.64,-239.38"/>
<polygon fill="none" stroke="black" points="756.14,-239.6 766.64,-269.6 777.14,-239.6 756.14,-239.6"/>
</g>
<!-- 163 -->
<g id="node12" class="node">
<title>163</title>
<polygon fill="#f2f2f2" stroke="black" points="712.51,-547.7 712.51,-589.3 886.77,-589.3 886.77,-547.7 712.51,-547.7"/>
<text text-anchor="middle" x="799.64" y="-572.7" font-family="Times,serif" font-size="14.00">OUSD</text>
<text text-anchor="middle" x="799.64" y="-555.9" font-family="Times,serif" font-size="14.00">../contracts/token/OUSD.sol</text>
</g>
<!-- 163&#45;&gt;7 -->
<g id="edge18" class="edge">
<title>163&#45;&gt;7</title>
<path fill="none" stroke="black" d="M767.19,-589.31C749.2,-600.29 726.27,-614.29 705.26,-627.12"/>
<polygon fill="none" stroke="black" points="699.44,-618.37 679.3,-642.96 710.38,-636.29 699.44,-618.37"/>
</g>
<!-- 171 -->
<g id="node13" class="node">
<title>171</title>
<polygon fill="#f2f2f2" stroke="black" points="1084.63,-634.7 1084.63,-693.1 1280.64,-693.1 1280.64,-634.7 1084.63,-634.7"/>
<text text-anchor="middle" x="1182.64" y="-676.5" font-family="Times,serif" font-size="14.00">&lt;&lt;Abstract&gt;&gt;</text>
<text text-anchor="middle" x="1182.64" y="-659.7" font-family="Times,serif" font-size="14.00">Initializable</text>
<text text-anchor="middle" x="1182.64" y="-642.9" font-family="Times,serif" font-size="14.00">../contracts/utils/Initializable.sol</text>
</g>
<!-- 163&#45;&gt;171 -->
<g id="edge16" class="edge">
<title>163&#45;&gt;171</title>
<path fill="none" stroke="black" d="M866.82,-589.34C878.07,-592.45 889.66,-595.51 900.64,-598.2 968.13,-614.71 992.33,-615.88 1055,-629.6"/>
<polygon fill="none" stroke="black" points="1052.86,-639.88 1084.45,-636.32 1057.54,-619.41 1052.86,-639.88"/>
</g>
<!-- 174 -->
<g id="node15" class="node">
<title>174</title>
<polygon fill="#f2f2f2" stroke="black" points="782.31,-634.7 782.31,-693.1 1066.97,-693.1 1066.97,-634.7 782.31,-634.7"/>
<text text-anchor="middle" x="924.64" y="-676.5" font-family="Times,serif" font-size="14.00">&lt;&lt;Abstract&gt;&gt;</text>
<text text-anchor="middle" x="924.64" y="-659.7" font-family="Times,serif" font-size="14.00">InitializableERC20Detailed</text>
<text text-anchor="middle" x="924.64" y="-642.9" font-family="Times,serif" font-size="14.00">../contracts/utils/InitializableERC20Detailed.sol</text>
</g>
<!-- 163&#45;&gt;174 -->
<g id="edge17" class="edge">
<title>163&#45;&gt;174</title>
<path fill="none" stroke="black" d="M826.15,-589.31C836.89,-597.33 849.78,-606.97 862.65,-616.58"/>
<polygon fill="none" stroke="black" points="856.47,-625.07 886.78,-634.62 869.04,-608.25 856.47,-625.07"/>
</g>
<!-- 172&#45;&gt;7 -->
<g id="edge20" class="edge">
<title>172&#45;&gt;7</title>
<path fill="none" stroke="black" d="M750.72,-328.3C733.46,-359.74 705.92,-412.44 687.64,-460.2 674.67,-494.08 673.28,-503.34 665.64,-538.8 660.42,-562.99 656.09,-590.14 652.89,-612.86"/>
<polygon fill="none" stroke="black" points="642.43,-611.88 648.93,-642.99 663.25,-614.62 642.43,-611.88"/>
</g>
<!-- 172&#45;&gt;42 -->
<g id="edge23" class="edge">
<title>172&#45;&gt;42</title>
<path fill="none" stroke="black" stroke-dasharray="5,2" d="M861.09,-328.38C896.9,-339.1 937.87,-351.36 974.52,-362.33"/>
<polygon fill="black" stroke="black" points="973.65,-365.72 984.23,-365.24 975.66,-359.02 973.65,-365.72"/>
</g>
<!-- 172&#45;&gt;171 -->
<g id="edge19" class="edge">
<title>172&#45;&gt;171</title>
<path fill="none" stroke="black" d="M799.28,-328.57C870.29,-390.49 1039.44,-538.02 1127.39,-614.72"/>
<polygon fill="none" stroke="black" points="1120.63,-622.76 1150.15,-634.56 1134.44,-606.93 1120.63,-622.76"/>
</g>
<!-- 172&#45;&gt;172 -->
<g id="edge21" class="edge">
<title>172&#45;&gt;172</title>
<path fill="none" stroke="black" stroke-dasharray="5,2" d="M911.85,-285.88C922.89,-288.82 929.68,-293.22 929.68,-299.1 929.68,-302.96 926.76,-306.18 921.63,-308.77"/>
<polygon fill="black" stroke="black" points="920.06,-305.62 911.85,-312.32 922.44,-312.2 920.06,-305.62"/>
</g>
<!-- 360 -->
<g id="node18" class="node">
<title>360</title>
<polygon fill="#f2f2f2" stroke="black" points="1106.58,-730.1 1106.58,-788.5 1510.69,-788.5 1510.69,-730.1 1106.58,-730.1"/>
<text text-anchor="middle" x="1308.64" y="-771.9" font-family="Times,serif" font-size="14.00">&lt;&lt;Interface&gt;&gt;</text>
<text text-anchor="middle" x="1308.64" y="-755.1" font-family="Times,serif" font-size="14.00">IERC20</text>
<text text-anchor="middle" x="1308.64" y="-738.3" font-family="Times,serif" font-size="14.00">../node_modules/@openzeppelin/contracts/token/ERC20/IERC20.sol</text>
</g>
<!-- 172&#45;&gt;360 -->
<g id="edge22" class="edge">
<title>172&#45;&gt;360</title>
<path fill="none" stroke="black" stroke-dasharray="5,2" d="M656.17,-328.41C583.46,-354.44 501.64,-401.33 501.64,-480.5 501.64,-480.5 501.64,-480.5 501.64,-569.5 501.64,-625.3 479.82,-655.55 520.64,-693.6 562.04,-732.2 877.3,-747.92 1096.27,-754.22"/>
<polygon fill="black" stroke="black" points="1096.2,-757.72 1106.3,-754.5 1096.4,-750.72 1096.2,-757.72"/>
</g>
<!-- 174&#45;&gt;360 -->
<g id="edge24" class="edge">
<title>174&#45;&gt;360</title>
<path fill="none" stroke="black" stroke-dasharray="5,2" d="M1040.63,-693.11C1079.27,-702.51 1122.8,-713.1 1163.37,-722.97"/>
<polygon fill="none" stroke="black" points="1161,-733.2 1192.63,-730.08 1165.96,-712.79 1161,-733.2"/>
</g>
<!-- 184&#45;&gt;7 -->
<g id="edge26" class="edge">
<title>184&#45;&gt;7</title>
<path fill="none" stroke="black" d="M753.05,-502.45C735.84,-511.58 717.25,-523.76 703.64,-538.8 684.28,-560.19 670.45,-589.28 661.26,-613.93"/>
<polygon fill="none" stroke="black" points="651.18,-610.95 651.78,-642.73 671.13,-617.51 651.18,-610.95"/>
</g>
<!-- 184&#45;&gt;163 -->
<g id="edge27" class="edge">
<title>184&#45;&gt;163</title>
<path fill="none" stroke="black" d="M799.64,-502.64C799.64,-513.02 799.64,-525.88 799.64,-537.4"/>
<polygon fill="black" stroke="black" points="796.14,-537.5 799.64,-547.5 803.14,-537.5 796.14,-537.5"/>
</g>
<!-- 184&#45;&gt;171 -->
<g id="edge25" class="edge">
<title>184&#45;&gt;171</title>
<path fill="none" stroke="black" d="M841.86,-502.35C859.6,-511.88 879.76,-524.38 895.64,-538.8 919.76,-560.71 911.75,-579.78 938.64,-598.2 982.46,-628.22 1006.55,-621.71 1054.81,-630.04"/>
<polygon fill="none" stroke="black" points="1052.84,-640.36 1084.39,-636.53 1057.34,-619.85 1052.84,-640.36"/>
</g>
<!-- 236&#45;&gt;360 -->
<g id="edge28" class="edge">
<title>236&#45;&gt;360</title>
<path fill="none" stroke="black" stroke-dasharray="5,2" d="M1370.01,-597.78C1353.77,-607.06 1338.34,-619.02 1327.64,-634.2 1314.3,-653.11 1308.76,-677.68 1306.84,-699.96"/>
<polygon fill="none" stroke="black" points="1296.34,-699.8 1306.13,-730.04 1317.34,-700.29 1296.34,-699.8"/>
</g>
<!-- 731 -->
<g id="node19" class="node">
<title>731</title>
<polygon fill="#f2f2f2" stroke="black" points="1337.04,-634.7 1337.04,-693.1 1856.23,-693.1 1856.23,-634.7 1337.04,-634.7"/>
<text text-anchor="middle" x="1596.64" y="-676.5" font-family="Times,serif" font-size="14.00">&lt;&lt;Interface&gt;&gt;</text>
<text text-anchor="middle" x="1596.64" y="-659.7" font-family="Times,serif" font-size="14.00">IERC20Metadata</text>
<text text-anchor="middle" x="1596.64" y="-642.9" font-family="Times,serif" font-size="14.00">../node_modules/@openzeppelin/contracts/token/ERC20/extensions/IERC20Metadata.sol</text>
</g>
<!-- 236&#45;&gt;731 -->
<g id="edge29" class="edge">
<title>236&#45;&gt;731</title>
<path fill="none" stroke="black" stroke-dasharray="5,2" d="M1492.75,-597.78C1503.2,-604.33 1514.58,-611.46 1525.84,-618.52"/>
<polygon fill="none" stroke="black" points="1520.43,-627.52 1551.42,-634.56 1531.58,-609.73 1520.43,-627.52"/>
</g>
<!-- 731&#45;&gt;360 -->
<g id="edge30" class="edge">
<title>731&#45;&gt;360</title>
<path fill="none" stroke="black" stroke-dasharray="5,2" d="M1509.45,-693.18C1482.78,-701.82 1453.02,-711.47 1424.75,-720.64"/>
<polygon fill="none" stroke="black" points="1421.33,-710.72 1396.03,-729.96 1427.8,-730.69 1421.33,-710.72"/>
</g>
</g>
</svg>
