<?xml version="1.0" encoding="UTF-8" standalone="no"?>
<!DOCTYPE svg PUBLIC "-//W3C//DTD SVG 1.1//EN"
 "http://www.w3.org/Graphics/SVG/1.1/DTD/svg11.dtd">
<!-- Generated by graphviz version 5.0.0 (20220707.1540)
 -->
<!-- Title: UmlClassDiagram Pages: 1 -->
<svg width="1674pt" height="797pt"
 viewBox="0.00 0.00 1674.13 797.00" xmlns="http://www.w3.org/2000/svg" xmlns:xlink="http://www.w3.org/1999/xlink">
<g id="graph0" class="graph" transform="scale(1 1) rotate(0) translate(4 793)">
<title>UmlClassDiagram</title>
<polygon fill="white" stroke="transparent" points="-4,4 -4,-793 1670.13,-793 1670.13,4 -4,4"/>
<!-- 7 -->
<g id="node1" class="node">
<title>7</title>
<polygon fill="#f2f2f2" stroke="black" points="839.7,-643.1 839.7,-684.7 1074.56,-684.7 1074.56,-643.1 839.7,-643.1"/>
<text text-anchor="middle" x="957.13" y="-668.1" font-family="Times,serif" font-size="14.00">Governable</text>
<text text-anchor="middle" x="957.13" y="-651.3" font-family="Times,serif" font-size="14.00">../contracts/governance/Governable.sol</text>
</g>
<!-- 35 -->
<g id="node2" class="node">
<title>35</title>
<polygon fill="#f2f2f2" stroke="black" points="986.42,-269.9 986.42,-328.3 1187.83,-328.3 1187.83,-269.9 986.42,-269.9"/>
<text text-anchor="middle" x="1087.13" y="-311.7" font-family="Times,serif" font-size="14.00">&lt;&lt;Interface&gt;&gt;</text>
<text text-anchor="middle" x="1087.13" y="-294.9" font-family="Times,serif" font-size="14.00">IOracle</text>
<text text-anchor="middle" x="1087.13" y="-278.1" font-family="Times,serif" font-size="14.00">../contracts/interfaces/IOracle.sol</text>
</g>
<!-- 37 -->
<g id="node3" class="node">
<title>37</title>
<polygon fill="#f2f2f2" stroke="black" points="1205.8,-269.9 1205.8,-328.3 1406.46,-328.3 1406.46,-269.9 1205.8,-269.9"/>
<text text-anchor="middle" x="1306.13" y="-311.7" font-family="Times,serif" font-size="14.00">&lt;&lt;Interface&gt;&gt;</text>
<text text-anchor="middle" x="1306.13" y="-294.9" font-family="Times,serif" font-size="14.00">IRETH</text>
<text text-anchor="middle" x="1306.13" y="-278.1" font-family="Times,serif" font-size="14.00">../contracts/interfaces/IRETH.sol</text>
</g>
<!-- 42 -->
<g id="node4" class="node">
<title>42</title>
<polygon fill="#f2f2f2" stroke="black" points="860.52,-365.3 860.52,-423.7 1055.73,-423.7 1055.73,-365.3 860.52,-365.3"/>
<text text-anchor="middle" x="958.13" y="-407.1" font-family="Times,serif" font-size="14.00">&lt;&lt;Interface&gt;&gt;</text>
<text text-anchor="middle" x="958.13" y="-390.3" font-family="Times,serif" font-size="14.00">IVault</text>
<text text-anchor="middle" x="958.13" y="-373.5" font-family="Times,serif" font-size="14.00">../contracts/interfaces/IVault.sol</text>
</g>
<!-- 182 -->
<g id="node16" class="node">
<title>182</title>
<polygon fill="#f2f2f2" stroke="black" points="597.68,-460.7 597.68,-502.3 804.58,-502.3 804.58,-460.7 597.68,-460.7"/>
<text text-anchor="middle" x="701.13" y="-485.7" font-family="Times,serif" font-size="14.00">VaultStorage</text>
<text text-anchor="middle" x="701.13" y="-468.9" font-family="Times,serif" font-size="14.00">../contracts/vault/VaultStorage.sol</text>
</g>
<!-- 42&#45;&gt;182 -->
<g id="edge1" class="edge">
<title>42&#45;&gt;182</title>
<path fill="none" stroke="black" stroke-dasharray="5,2" d="M872.55,-423.8C839.47,-434.75 802.1,-447.11 770.71,-457.49"/>
<polygon fill="black" stroke="black" points="769.57,-454.18 761.17,-460.64 771.77,-460.82 769.57,-454.18"/>
</g>
<!-- 44 -->
<g id="node5" class="node">
<title>44</title>
<polygon fill="#f2f2f2" stroke="black" points="1424.19,-269.9 1424.19,-328.3 1638.06,-328.3 1638.06,-269.9 1424.19,-269.9"/>
<text text-anchor="middle" x="1531.13" y="-311.7" font-family="Times,serif" font-size="14.00">&lt;&lt;Interface&gt;&gt;</text>
<text text-anchor="middle" x="1531.13" y="-294.9" font-family="Times,serif" font-size="14.00">IWstETH</text>
<text text-anchor="middle" x="1531.13" y="-278.1" font-family="Times,serif" font-size="14.00">../contracts/interfaces/IWstETH.sol</text>
</g>
<!-- 189 -->
<g id="node6" class="node">
<title>189</title>
<polygon fill="#f2f2f2" stroke="black" points="0,-269.9 0,-328.3 296.25,-328.3 296.25,-269.9 0,-269.9"/>
<text text-anchor="middle" x="148.13" y="-311.7" font-family="Times,serif" font-size="14.00">&lt;&lt;Interface&gt;&gt;</text>
<text text-anchor="middle" x="148.13" y="-294.9" font-family="Times,serif" font-size="14.00">IBalancerVault</text>
<text text-anchor="middle" x="148.13" y="-278.1" font-family="Times,serif" font-size="14.00">../contracts/interfaces/balancer/IBalancerVault.sol</text>
</g>
<!-- 197 -->
<g id="node7" class="node">
<title>197</title>
<polygon fill="#f2f2f2" stroke="black" points="640.49,-269.9 640.49,-328.3 929.76,-328.3 929.76,-269.9 640.49,-269.9"/>
<text text-anchor="middle" x="785.13" y="-311.7" font-family="Times,serif" font-size="14.00">&lt;&lt;Interface&gt;&gt;</text>
<text text-anchor="middle" x="785.13" y="-294.9" font-family="Times,serif" font-size="14.00">IRateProvider</text>
<text text-anchor="middle" x="785.13" y="-278.1" font-family="Times,serif" font-size="14.00">../contracts/interfaces/balancer/IRateProvider.sol</text>
</g>
<!-- 150 -->
<g id="node8" class="node">
<title>150</title>
<polygon fill="#f2f2f2" stroke="black" points="969.68,-174.5 969.68,-232.9 1218.57,-232.9 1218.57,-174.5 969.68,-174.5"/>
<text text-anchor="middle" x="1094.13" y="-216.3" font-family="Times,serif" font-size="14.00">&lt;&lt;Interface&gt;&gt;</text>
<text text-anchor="middle" x="1094.13" y="-199.5" font-family="Times,serif" font-size="14.00">IRewardStaking</text>
<text text-anchor="middle" x="1094.13" y="-182.7" font-family="Times,serif" font-size="14.00">../contracts/strategies/IRewardStaking.sol</text>
</g>
<!-- 229 -->
<g id="node9" class="node">
<title>229</title>
<polygon fill="#f2f2f2" stroke="black" points="605.1,-0.5 605.1,-42.1 965.15,-42.1 965.15,-0.5 605.1,-0.5"/>
<text text-anchor="middle" x="785.13" y="-25.5" font-family="Times,serif" font-size="14.00">BalancerMetaPoolStrategy</text>
<text text-anchor="middle" x="785.13" y="-8.7" font-family="Times,serif" font-size="14.00">../contracts/strategies/balancer/BalancerMetaPoolStrategy.sol</text>
</g>
<!-- 229&#45;&gt;189 -->
<g id="edge3" class="edge">
<title>229&#45;&gt;189</title>
<path fill="none" stroke="black" stroke-dasharray="5,2" d="M721.87,-42.13C690.91,-52.28 653.27,-65.28 620.13,-78.6 471.77,-138.21 303.03,-220.27 212.94,-265.27"/>
<polygon fill="black" stroke="black" points="211.32,-262.17 203.94,-269.78 214.45,-268.43 211.32,-262.17"/>
</g>
<!-- 230 -->
<g id="node10" class="node">
<title>230</title>
<polygon fill="#f2f2f2" stroke="black" points="629.6,-79.1 629.6,-137.5 940.66,-137.5 940.66,-79.1 629.6,-79.1"/>
<text text-anchor="middle" x="785.13" y="-120.9" font-family="Times,serif" font-size="14.00">&lt;&lt;Abstract&gt;&gt;</text>
<text text-anchor="middle" x="785.13" y="-104.1" font-family="Times,serif" font-size="14.00">BaseAuraStrategy</text>
<text text-anchor="middle" x="785.13" y="-87.3" font-family="Times,serif" font-size="14.00">../contracts/strategies/balancer/BaseAuraStrategy.sol</text>
</g>
<!-- 229&#45;&gt;230 -->
<g id="edge2" class="edge">
<title>229&#45;&gt;230</title>
<path fill="none" stroke="black" d="M785.13,-42.44C785.13,-44.49 785.13,-46.63 785.13,-48.83"/>
<polygon fill="none" stroke="black" points="774.63,-48.94 785.13,-78.94 795.63,-48.94 774.63,-48.94"/>
</g>
<!-- 230&#45;&gt;150 -->
<g id="edge6" class="edge">
<title>230&#45;&gt;150</title>
<path fill="none" stroke="black" stroke-dasharray="5,2" d="M878.68,-137.58C914.14,-148.3 954.71,-160.56 991.01,-171.53"/>
<polygon fill="black" stroke="black" points="990.04,-174.9 1000.63,-174.44 992.07,-168.2 990.04,-174.9"/>
</g>
<!-- 231 -->
<g id="node11" class="node">
<title>231</title>
<polygon fill="#f2f2f2" stroke="black" points="618.72,-174.5 618.72,-232.9 951.54,-232.9 951.54,-174.5 618.72,-174.5"/>
<text text-anchor="middle" x="785.13" y="-216.3" font-family="Times,serif" font-size="14.00">&lt;&lt;Abstract&gt;&gt;</text>
<text text-anchor="middle" x="785.13" y="-199.5" font-family="Times,serif" font-size="14.00">BaseBalancerStrategy</text>
<text text-anchor="middle" x="785.13" y="-182.7" font-family="Times,serif" font-size="14.00">../contracts/strategies/balancer/BaseBalancerStrategy.sol</text>
</g>
<!-- 230&#45;&gt;231 -->
<g id="edge4" class="edge">
<title>230&#45;&gt;231</title>
<path fill="none" stroke="black" d="M785.13,-137.58C785.13,-139.66 785.13,-141.8 785.13,-143.98"/>
<polygon fill="none" stroke="black" points="774.63,-144.2 785.13,-174.2 795.63,-144.2 774.63,-144.2"/>
</g>
<!-- 234 -->
<g id="node17" class="node">
<title>234</title>
<polygon fill="#f2f2f2" stroke="black" points="1259.07,-539.3 1259.07,-597.7 1521.18,-597.7 1521.18,-539.3 1259.07,-539.3"/>
<text text-anchor="middle" x="1390.13" y="-581.1" font-family="Times,serif" font-size="14.00">&lt;&lt;Interface&gt;&gt;</text>
<text text-anchor="middle" x="1390.13" y="-564.3" font-family="Times,serif" font-size="14.00">IERC4626</text>
<text text-anchor="middle" x="1390.13" y="-547.5" font-family="Times,serif" font-size="14.00">../lib/openzeppelin/interfaces/IERC4626.sol</text>
</g>
<!-- 230&#45;&gt;234 -->
<g id="edge5" class="edge">
<title>230&#45;&gt;234</title>
<path fill="none" stroke="black" stroke-dasharray="5,2" d="M940.86,-111.13C1193.84,-118.36 1666.13,-151.5 1666.13,-298.1 1666.13,-298.1 1666.13,-298.1 1666.13,-395.5 1666.13,-467.89 1596.89,-510.92 1527.77,-535.83"/>
<polygon fill="black" stroke="black" points="1526.32,-532.63 1518.03,-539.23 1528.62,-539.24 1526.32,-532.63"/>
</g>
<!-- 231&#45;&gt;35 -->
<g id="edge11" class="edge">
<title>231&#45;&gt;35</title>
<path fill="none" stroke="black" stroke-dasharray="5,2" d="M876.56,-232.98C911.07,-243.65 950.53,-255.85 985.89,-266.79"/>
<polygon fill="black" stroke="black" points="985.16,-270.23 995.75,-269.84 987.23,-263.54 985.16,-270.23"/>
</g>
<!-- 231&#45;&gt;37 -->
<g id="edge12" class="edge">
<title>231&#45;&gt;37</title>
<path fill="none" stroke="black" stroke-dasharray="5,2" d="M951.87,-231.94C954.98,-232.43 958.07,-232.92 961.13,-233.4 1062.76,-249.44 1091.51,-247.97 1195.58,-269.15"/>
<polygon fill="black" stroke="black" points="1195.05,-272.62 1205.55,-271.2 1196.46,-265.76 1195.05,-272.62"/>
</g>
<!-- 231&#45;&gt;42 -->
<g id="edge10" class="edge">
<title>231&#45;&gt;42</title>
<path fill="none" stroke="black" stroke-dasharray="5,2" d="M892.68,-232.97C910.45,-242 927,-253.85 939.13,-269.4 957.89,-293.45 961.81,-328.28 961.52,-354.93"/>
<polygon fill="black" stroke="black" points="958.02,-354.96 961.2,-365.06 965.01,-355.18 958.02,-354.96"/>
</g>
<!-- 231&#45;&gt;44 -->
<g id="edge13" class="edge">
<title>231&#45;&gt;44</title>
<path fill="none" stroke="black" stroke-dasharray="5,2" d="M951.83,-232.24C954.95,-232.64 958.05,-233.03 961.13,-233.4 1158.83,-257.32 1213.57,-237.64 1414.15,-269.35"/>
<polygon fill="black" stroke="black" points="1413.7,-272.82 1424.13,-270.95 1414.81,-265.91 1413.7,-272.82"/>
</g>
<!-- 231&#45;&gt;189 -->
<g id="edge8" class="edge">
<title>231&#45;&gt;189</title>
<path fill="none" stroke="black" d="M618.52,-225.21C528.75,-236.73 415.87,-251.98 306.34,-269.23"/>
<polygon fill="black" stroke="black" points="305.76,-265.78 296.43,-270.8 306.85,-272.69 305.76,-265.78"/>
</g>
<!-- 231&#45;&gt;197 -->
<g id="edge9" class="edge">
<title>231&#45;&gt;197</title>
<path fill="none" stroke="black" stroke-dasharray="5,2" d="M785.13,-232.98C785.13,-241.31 785.13,-250.58 785.13,-259.45"/>
<polygon fill="black" stroke="black" points="781.63,-259.6 785.13,-269.6 788.63,-259.6 781.63,-259.6"/>
</g>
<!-- 170 -->
<g id="node14" class="node">
<title>170</title>
<polygon fill="#f2f2f2" stroke="black" points="314.08,-269.9 314.08,-328.3 604.17,-328.3 604.17,-269.9 314.08,-269.9"/>
<text text-anchor="middle" x="459.13" y="-311.7" font-family="Times,serif" font-size="14.00">&lt;&lt;Abstract&gt;&gt;</text>
<text text-anchor="middle" x="459.13" y="-294.9" font-family="Times,serif" font-size="14.00">InitializableAbstractStrategy</text>
<text text-anchor="middle" x="459.13" y="-278.1" font-family="Times,serif" font-size="14.00">../contracts/utils/InitializableAbstractStrategy.sol</text>
</g>
<!-- 231&#45;&gt;170 -->
<g id="edge7" class="edge">
<title>231&#45;&gt;170</title>
<path fill="none" stroke="black" d="M686.43,-232.98C655.06,-241.96 619.92,-252.03 586.81,-261.52"/>
<polygon fill="none" stroke="black" points="583.72,-251.48 557.77,-269.84 589.5,-271.67 583.72,-251.48"/>
</g>
<!-- 161 -->
<g id="node12" class="node">
<title>161</title>
<polygon fill="#f2f2f2" stroke="black" points="592,-547.7 592,-589.3 766.26,-589.3 766.26,-547.7 592,-547.7"/>
<text text-anchor="middle" x="679.13" y="-572.7" font-family="Times,serif" font-size="14.00">OUSD</text>
<text text-anchor="middle" x="679.13" y="-555.9" font-family="Times,serif" font-size="14.00">../contracts/token/OUSD.sol</text>
</g>
<!-- 161&#45;&gt;7 -->
<g id="edge16" class="edge">
<title>161&#45;&gt;7</title>
<path fill="none" stroke="black" d="M738.08,-589.31C776.19,-602.11 826.48,-619.01 869.26,-633.38"/>
<polygon fill="none" stroke="black" points="865.99,-643.36 897.78,-642.96 872.68,-623.45 865.99,-643.36"/>
</g>
<!-- 169 -->
<g id="node13" class="node">
<title>169</title>
<polygon fill="#f2f2f2" stroke="black" points="323.12,-634.7 323.12,-693.1 519.13,-693.1 519.13,-634.7 323.12,-634.7"/>
<text text-anchor="middle" x="421.13" y="-676.5" font-family="Times,serif" font-size="14.00">&lt;&lt;Abstract&gt;&gt;</text>
<text text-anchor="middle" x="421.13" y="-659.7" font-family="Times,serif" font-size="14.00">Initializable</text>
<text text-anchor="middle" x="421.13" y="-642.9" font-family="Times,serif" font-size="14.00">../contracts/utils/Initializable.sol</text>
</g>
<!-- 161&#45;&gt;169 -->
<g id="edge14" class="edge">
<title>161&#45;&gt;169</title>
<path fill="none" stroke="black" d="M624.41,-589.31C596.2,-599.52 560.79,-612.34 527.47,-624.4"/>
<polygon fill="none" stroke="black" points="523.89,-614.53 499.26,-634.62 531.04,-634.28 523.89,-614.53"/>
</g>
<!-- 172 -->
<g id="node15" class="node">
<title>172</title>
<polygon fill="#f2f2f2" stroke="black" points="536.8,-634.7 536.8,-693.1 821.46,-693.1 821.46,-634.7 536.8,-634.7"/>
<text text-anchor="middle" x="679.13" y="-676.5" font-family="Times,serif" font-size="14.00">&lt;&lt;Abstract&gt;&gt;</text>
<text text-anchor="middle" x="679.13" y="-659.7" font-family="Times,serif" font-size="14.00">InitializableERC20Detailed</text>
<text text-anchor="middle" x="679.13" y="-642.9" font-family="Times,serif" font-size="14.00">../contracts/utils/InitializableERC20Detailed.sol</text>
</g>
<!-- 161&#45;&gt;172 -->
<g id="edge15" class="edge">
<title>161&#45;&gt;172</title>
<path fill="none" stroke="black" d="M679.13,-589.31C679.13,-593.94 679.13,-599.11 679.13,-604.49"/>
<polygon fill="none" stroke="black" points="668.63,-604.62 679.13,-634.62 689.63,-604.62 668.63,-604.62"/>
</g>
<!-- 170&#45;&gt;7 -->
<g id="edge18" class="edge">
<title>170&#45;&gt;7</title>
<path fill="none" stroke="black" d="M555.77,-328.31C631.58,-353.88 736.72,-397.27 813.13,-460.2 866.05,-503.78 908.73,-571.3 933.51,-616.29"/>
<polygon fill="none" stroke="black" points="924.29,-621.32 947.56,-642.97 942.87,-611.54 924.29,-621.32"/>
</g>
<!-- 170&#45;&gt;42 -->
<g id="edge21" class="edge">
<title>170&#45;&gt;42</title>
<path fill="none" stroke="black" stroke-dasharray="5,2" d="M604.35,-324.34C713.51,-342.57 844.57,-364.47 846.13,-364.8 847.6,-365.11 849.08,-365.43 850.57,-365.75"/>
<polygon fill="black" stroke="black" points="849.99,-369.21 860.51,-367.96 851.51,-362.37 849.99,-369.21"/>
</g>
<!-- 170&#45;&gt;169 -->
<g id="edge17" class="edge">
<title>170&#45;&gt;169</title>
<path fill="none" stroke="black" d="M456.14,-328.57C449.94,-387.84 435.51,-525.55 427.24,-604.5"/>
<polygon fill="none" stroke="black" points="416.78,-603.63 424.09,-634.56 437.66,-605.82 416.78,-603.63"/>
</g>
<!-- 170&#45;&gt;170 -->
<g id="edge19" class="edge">
<title>170&#45;&gt;170</title>
<path fill="none" stroke="black" stroke-dasharray="5,2" d="M604.34,-285.88C615.38,-288.82 622.17,-293.22 622.17,-299.1 622.17,-302.96 619.25,-306.18 614.12,-308.77"/>
<polygon fill="black" stroke="black" points="612.54,-305.62 604.34,-312.32 614.93,-312.2 612.54,-305.62"/>
</g>
<!-- 358 -->
<g id="node18" class="node">
<title>358</title>
<polygon fill="#f2f2f2" stroke="black" points="900.07,-730.1 900.07,-788.5 1304.18,-788.5 1304.18,-730.1 900.07,-730.1"/>
<text text-anchor="middle" x="1102.13" y="-771.9" font-family="Times,serif" font-size="14.00">&lt;&lt;Interface&gt;&gt;</text>
<text text-anchor="middle" x="1102.13" y="-755.1" font-family="Times,serif" font-size="14.00">IERC20</text>
<text text-anchor="middle" x="1102.13" y="-738.3" font-family="Times,serif" font-size="14.00">../node_modules/@openzeppelin/contracts/token/ERC20/IERC20.sol</text>
</g>
<!-- 170&#45;&gt;358 -->
<g id="edge20" class="edge">
<title>170&#45;&gt;358</title>
<path fill="none" stroke="black" stroke-dasharray="5,2" d="M407.69,-328.32C359.59,-358.9 295.13,-412.57 295.13,-480.5 295.13,-480.5 295.13,-480.5 295.13,-569.5 295.13,-625.3 273.31,-655.55 314.13,-693.6 355.53,-732.2 670.79,-747.92 889.76,-754.22"/>
<polygon fill="black" stroke="black" points="889.69,-757.72 899.79,-754.5 889.89,-750.72 889.69,-757.72"/>
</g>
<!-- 172&#45;&gt;358 -->
<g id="edge22" class="edge">
<title>172&#45;&gt;358</title>
<path fill="none" stroke="black" stroke-dasharray="5,2" d="M806.9,-693.11C850.39,-702.72 899.52,-713.56 945.04,-723.61"/>
<polygon fill="none" stroke="black" points="942.78,-733.87 974.33,-730.08 947.3,-713.36 942.78,-733.87"/>
</g>
<!-- 182&#45;&gt;7 -->
<g id="edge24" class="edge">
<title>182&#45;&gt;7</title>
<path fill="none" stroke="black" d="M731.21,-502.32C745.34,-512.37 761.93,-525.29 775.13,-538.8 797.9,-562.12 792.99,-577.46 818.13,-598.2 833.58,-610.95 851.96,-621.8 870.21,-630.75"/>
<polygon fill="none" stroke="black" points="866.2,-640.46 897.87,-643.09 874.75,-621.28 866.2,-640.46"/>
</g>
<!-- 182&#45;&gt;161 -->
<g id="edge25" class="edge">
<title>182&#45;&gt;161</title>
<path fill="none" stroke="black" d="M695.91,-502.64C693.2,-513.12 689.83,-526.14 686.83,-537.75"/>
<polygon fill="black" stroke="black" points="683.42,-536.94 684.3,-547.5 690.2,-538.7 683.42,-536.94"/>
</g>
<!-- 182&#45;&gt;169 -->
<g id="edge23" class="edge">
<title>182&#45;&gt;169</title>
<path fill="none" stroke="black" d="M653.71,-502.39C631.69,-512.31 605.48,-525.11 583.13,-538.8 546.07,-561.49 507.33,-590.93 477.03,-615.44"/>
<polygon fill="none" stroke="black" points="470.25,-607.42 453.79,-634.61 483.61,-623.62 470.25,-607.42"/>
</g>
<!-- 234&#45;&gt;358 -->
<g id="edge26" class="edge">
<title>234&#45;&gt;358</title>
<path fill="none" stroke="black" stroke-dasharray="5,2" d="M1258.81,-587.05C1200.45,-597.57 1140.55,-613.07 1121.13,-634.2 1105.09,-651.65 1099.24,-676.67 1097.83,-699.68"/>
<polygon fill="none" stroke="black" points="1087.33,-699.99 1098.18,-729.87 1108.33,-699.75 1087.33,-699.99"/>
</g>
<!-- 729 -->
<g id="node19" class="node">
<title>729</title>
<polygon fill="#f2f2f2" stroke="black" points="1130.53,-634.7 1130.53,-693.1 1649.72,-693.1 1649.72,-634.7 1130.53,-634.7"/>
<text text-anchor="middle" x="1390.13" y="-676.5" font-family="Times,serif" font-size="14.00">&lt;&lt;Interface&gt;&gt;</text>
<text text-anchor="middle" x="1390.13" y="-659.7" font-family="Times,serif" font-size="14.00">IERC20Metadata</text>
<text text-anchor="middle" x="1390.13" y="-642.9" font-family="Times,serif" font-size="14.00">../node_modules/@openzeppelin/contracts/token/ERC20/extensions/IERC20Metadata.sol</text>
</g>
<!-- 234&#45;&gt;729 -->
<g id="edge27" class="edge">
<title>234&#45;&gt;729</title>
<path fill="none" stroke="black" stroke-dasharray="5,2" d="M1390.13,-597.78C1390.13,-599.86 1390.13,-602 1390.13,-604.18"/>
<polygon fill="none" stroke="black" points="1379.63,-604.4 1390.13,-634.4 1400.63,-604.4 1379.63,-604.4"/>
</g>
<!-- 729&#45;&gt;358 -->
<g id="edge28" class="edge">
<title>729&#45;&gt;358</title>
<path fill="none" stroke="black" stroke-dasharray="5,2" d="M1302.94,-693.18C1276.27,-701.82 1246.51,-711.47 1218.24,-720.64"/>
<polygon fill="none" stroke="black" points="1214.82,-710.72 1189.52,-729.96 1221.29,-730.69 1214.82,-710.72"/>
</g>
</g>
</svg>
