<?xml version="1.0" encoding="UTF-8" standalone="no"?>
<!DOCTYPE svg PUBLIC "-//W3C//DTD SVG 1.1//EN"
 "http://www.w3.org/Graphics/SVG/1.1/DTD/svg11.dtd">
<!-- Generated by graphviz version 5.0.0 (20220707.1540)
 -->
<!-- Title: StorageDiagram Pages: 1 -->
<svg width="1477pt" height="1090pt"
 viewBox="0.00 0.00 1477.42 1089.60" xmlns="http://www.w3.org/2000/svg" xmlns:xlink="http://www.w3.org/1999/xlink">
<g id="graph0" class="graph" transform="scale(1 1) rotate(0) translate(4 1085.6)">
<title>StorageDiagram</title>
<polygon fill="white" stroke="transparent" points="-4,4 -4,-1085.6 1473.42,-1085.6 1473.42,4 -4,4"/>
<!-- 8 -->
<g id="node1" class="node">
<title>8</title>
<polygon fill="#f2f2f2" stroke="black" points="0,-446.1 0,-892.5 862.93,-892.5 862.93,-446.1 0,-446.1"/>
<text text-anchor="middle" x="431.47" y="-875.9" font-family="Courier New" font-size="14.00">BalancerMetaPoolStrategy &lt;&lt;Contract&gt;&gt;</text>
<polyline fill="none" stroke="black" points="0,-867.7 862.93,-867.7 "/>
<text text-anchor="middle" x="37.4" y="-851.1" font-family="Courier New" font-size="14.00">slot</text>
<polyline fill="none" stroke="black" points="0,-842.9 74.81,-842.9 "/>
<text text-anchor="middle" x="37.4" y="-826.3" font-family="Courier New" font-size="14.00">0</text>
<polyline fill="none" stroke="black" points="0,-818.1 74.81,-818.1 "/>
<text text-anchor="middle" x="37.4" y="-801.5" font-family="Courier New" font-size="14.00">1&#45;50</text>
<polyline fill="none" stroke="black" points="0,-793.3 74.81,-793.3 "/>
<text text-anchor="middle" x="37.4" y="-776.7" font-family="Courier New" font-size="14.00">51</text>
<polyline fill="none" stroke="black" points="0,-768.5 74.81,-768.5 "/>
<text text-anchor="middle" x="37.4" y="-751.9" font-family="Courier New" font-size="14.00">52</text>
<polyline fill="none" stroke="black" points="0,-743.7 74.81,-743.7 "/>
<text text-anchor="middle" x="37.4" y="-727.1" font-family="Courier New" font-size="14.00">53</text>
<polyline fill="none" stroke="black" points="0,-718.9 74.81,-718.9 "/>
<text text-anchor="middle" x="37.4" y="-702.3" font-family="Courier New" font-size="14.00">54</text>
<polyline fill="none" stroke="black" points="0,-694.1 74.81,-694.1 "/>
<text text-anchor="middle" x="37.4" y="-677.5" font-family="Courier New" font-size="14.00">55</text>
<polyline fill="none" stroke="black" points="0,-669.3 74.81,-669.3 "/>
<text text-anchor="middle" x="37.4" y="-652.7" font-family="Courier New" font-size="14.00">56</text>
<polyline fill="none" stroke="black" points="0,-644.5 74.81,-644.5 "/>
<text text-anchor="middle" x="37.4" y="-627.9" font-family="Courier New" font-size="14.00">57</text>
<polyline fill="none" stroke="black" points="0,-619.7 74.81,-619.7 "/>
<text text-anchor="middle" x="37.4" y="-603.1" font-family="Courier New" font-size="14.00">58</text>
<polyline fill="none" stroke="black" points="0,-594.9 74.81,-594.9 "/>
<text text-anchor="middle" x="37.4" y="-578.3" font-family="Courier New" font-size="14.00">59&#45;156</text>
<polyline fill="none" stroke="black" points="0,-570.1 74.81,-570.1 "/>
<text text-anchor="middle" x="37.4" y="-553.5" font-family="Courier New" font-size="14.00">157</text>
<polyline fill="none" stroke="black" points="0,-545.3 74.81,-545.3 "/>
<text text-anchor="middle" x="37.4" y="-528.7" font-family="Courier New" font-size="14.00">158</text>
<polyline fill="none" stroke="black" points="0,-520.5 74.81,-520.5 "/>
<text text-anchor="middle" x="37.4" y="-503.9" font-family="Courier New" font-size="14.00">159</text>
<polyline fill="none" stroke="black" points="0,-495.7 74.81,-495.7 "/>
<text text-anchor="middle" x="37.4" y="-479.1" font-family="Courier New" font-size="14.00">160&#45;209</text>
<polyline fill="none" stroke="black" points="0,-470.9 74.81,-470.9 "/>
<text text-anchor="middle" x="37.4" y="-454.3" font-family="Courier New" font-size="14.00">210&#45;259</text>
<polyline fill="none" stroke="black" points="74.81,-446.1 74.81,-867.7 "/>
<text text-anchor="middle" x="468.87" y="-851.1" font-family="Courier New" font-size="14.00">type: &lt;inherited contract&gt;.variable (bytes)</text>
<polyline fill="none" stroke="black" points="74.81,-842.9 862.93,-842.9 "/>
<text text-anchor="middle" x="151.52" y="-826.3" font-family="Courier New" font-size="14.00">unallocated (30)</text>
<polyline fill="none" stroke="black" points="228.23,-818.1 228.23,-842.9 "/>
<text text-anchor="middle" x="388.96" y="-826.3" font-family="Courier New" font-size="14.00">bool: Initializable.initializing (1)</text>
<polyline fill="none" stroke="black" points="549.68,-818.1 549.68,-842.9 "/>
<text text-anchor="middle" x="706.2" y="-826.3" font-family="Courier New" font-size="14.00">bool: Initializable.initialized (1)</text>
<polyline fill="none" stroke="black" points="74.81,-818.1 862.93,-818.1 "/>
<text text-anchor="middle" x="468.44" y="-801.5" font-family="Courier New" font-size="14.00">uint256[50]: Initializable.______gap (1600)</text>
<polyline fill="none" stroke="black" points="74.81,-793.3 862.93,-793.3 "/>
<text text-anchor="middle" x="181.52" y="-776.7" font-family="Courier New" font-size="14.00">unallocated (12)</text>
<polyline fill="none" stroke="black" points="288.23,-768.5 288.23,-793.3 "/>
<text text-anchor="middle" x="575.57" y="-776.7" font-family="Courier New" font-size="14.00">address: InitializableAbstractStrategy.platformAddress (20)</text>
<polyline fill="none" stroke="black" points="74.81,-768.5 862.93,-768.5 "/>
<text text-anchor="middle" x="187.52" y="-751.9" font-family="Courier New" font-size="14.00">unallocated (12)</text>
<polyline fill="none" stroke="black" points="300.23,-743.7 300.23,-768.5 "/>
<text text-anchor="middle" x="581.47" y="-751.9" font-family="Courier New" font-size="14.00">address: InitializableAbstractStrategy.vaultAddress (20)</text>
<polyline fill="none" stroke="black" points="74.81,-743.7 862.93,-743.7 "/>
<text text-anchor="middle" x="468.86" y="-727.1" font-family="Courier New" font-size="14.00">mapping(address=&gt;address): InitializableAbstractStrategy.assetToPToken (32)</text>
<polyline fill="none" stroke="black" points="74.81,-718.9 862.93,-718.9 "/>
<text text-anchor="middle" x="468.45" y="-702.3" font-family="Courier New" font-size="14.00">address[]: InitializableAbstractStrategy.assetsMapped (32)</text>
<polyline fill="none" stroke="black" points="74.81,-694.1 862.93,-694.1 "/>
<text text-anchor="middle" x="150.02" y="-677.5" font-family="Courier New" font-size="14.00">unallocated (12)</text>
<polyline fill="none" stroke="black" points="225.23,-669.3 225.23,-694.1 "/>
<text text-anchor="middle" x="544.08" y="-677.5" font-family="Courier New" font-size="14.00">address: InitializableAbstractStrategy._deprecated_rewardTokenAddress (20)</text>
<polyline fill="none" stroke="black" points="74.81,-669.3 862.93,-669.3 "/>
<text text-anchor="middle" x="468.77" y="-652.7" font-family="Courier New" font-size="14.00">uint256: InitializableAbstractStrategy._deprecated_rewardLiquidationThreshold (32)</text>
<polyline fill="none" stroke="black" points="74.81,-644.5 862.93,-644.5 "/>
<text text-anchor="middle" x="179.02" y="-627.9" font-family="Courier New" font-size="14.00">unallocated (12)</text>
<polyline fill="none" stroke="black" points="283.23,-619.7 283.23,-644.5 "/>
<text text-anchor="middle" x="572.77" y="-627.9" font-family="Courier New" font-size="14.00">address: InitializableAbstractStrategy.harvesterAddress (20)</text>
<polyline fill="none" stroke="black" points="74.81,-619.7 862.93,-619.7 "/>
<text text-anchor="middle" x="468.55" y="-603.1" font-family="Courier New" font-size="14.00">address[]: InitializableAbstractStrategy.rewardTokenAddresses (32)</text>
<polyline fill="none" stroke="black" points="74.81,-594.9 862.93,-594.9 "/>
<text text-anchor="middle" x="468.45" y="-578.3" font-family="Courier New" font-size="14.00">int256[98]: InitializableAbstractStrategy._reserved (3136)</text>
<polyline fill="none" stroke="black" points="74.81,-570.1 862.93,-570.1 "/>
<text text-anchor="middle" x="468.45" y="-553.5" font-family="Courier New" font-size="14.00">address[]: BaseBalancerStrategy.poolAssetsMapped (32)</text>
<polyline fill="none" stroke="black" points="74.81,-545.3 862.93,-545.3 "/>
<text text-anchor="middle" x="468.55" y="-528.7" font-family="Courier New" font-size="14.00">uint256: BaseBalancerStrategy.maxWithdrawalSlippage (32)</text>
<polyline fill="none" stroke="black" points="74.81,-520.5 862.93,-520.5 "/>
<text text-anchor="middle" x="468.45" y="-503.9" font-family="Courier New" font-size="14.00">uint256: BaseBalancerStrategy.maxDepositSlippage (32)</text>
<polyline fill="none" stroke="black" points="74.81,-495.7 862.93,-495.7 "/>
<text text-anchor="middle" x="468.84" y="-479.1" font-family="Courier New" font-size="14.00">int256[50]: BaseBalancerStrategy.__reserved (1600)</text>
<polyline fill="none" stroke="black" points="74.81,-470.9 862.93,-470.9 "/>
<text text-anchor="middle" x="468.44" y="-454.3" font-family="Courier New" font-size="14.00">int256[50]: BaseAuraStrategy.__reserved_2 (1600)</text>
</g>
<!-- 1 -->
<g id="node2" class="node">
<title>1</title>
<polygon fill="#f2f2f2" stroke="black" points="1041.76,-907.5 1041.76,-1081.1 1326.6,-1081.1 1326.6,-907.5 1041.76,-907.5"/>
<text text-anchor="middle" x="1184.18" y="-1064.5" font-family="Courier New" font-size="14.00">uint256[50]: ______gap &lt;&lt;Array&gt;&gt;</text>
<polyline fill="none" stroke="black" points="1041.76,-1056.3 1326.6,-1056.3 "/>
<text text-anchor="middle" x="1075.06" y="-1039.7" font-family="Courier New" font-size="14.00">slot</text>
<polyline fill="none" stroke="black" points="1041.76,-1031.5 1108.36,-1031.5 "/>
<text text-anchor="middle" x="1075.06" y="-1014.9" font-family="Courier New" font-size="14.00">1</text>
<polyline fill="none" stroke="black" points="1041.76,-1006.7 1108.36,-1006.7 "/>
<text text-anchor="middle" x="1075.06" y="-990.1" font-family="Courier New" font-size="14.00">2</text>
<polyline fill="none" stroke="black" points="1041.76,-981.9 1108.36,-981.9 "/>
<text text-anchor="middle" x="1075.06" y="-965.3" font-family="Courier New" font-size="14.00">3&#45;48</text>
<polyline fill="none" stroke="black" points="1041.76,-957.1 1108.36,-957.1 "/>
<text text-anchor="middle" x="1075.06" y="-940.5" font-family="Courier New" font-size="14.00">49</text>
<polyline fill="none" stroke="black" points="1041.76,-932.3 1108.36,-932.3 "/>
<text text-anchor="middle" x="1075.06" y="-915.7" font-family="Courier New" font-size="14.00">50</text>
<polyline fill="none" stroke="black" points="1108.36,-907.5 1108.36,-1056.3 "/>
<text text-anchor="middle" x="1217.28" y="-1039.7" font-family="Courier New" font-size="14.00">type: variable (bytes)</text>
<polyline fill="none" stroke="black" points="1108.36,-1031.5 1326.19,-1031.5 "/>
<text text-anchor="middle" x="1217.27" y="-1014.9" font-family="Courier New" font-size="14.00">uint256 (32)</text>
<polyline fill="none" stroke="black" points="1108.36,-1006.7 1326.19,-1006.7 "/>
<text text-anchor="middle" x="1217.27" y="-990.1" font-family="Courier New" font-size="14.00">uint256 (32)</text>
<polyline fill="none" stroke="black" points="1108.36,-981.9 1326.19,-981.9 "/>
<text text-anchor="middle" x="1217.07" y="-965.3" font-family="Courier New" font-size="14.00">&#45;&#45;&#45;&#45; (1472)</text>
<polyline fill="none" stroke="black" points="1108.36,-957.1 1326.19,-957.1 "/>
<text text-anchor="middle" x="1217.27" y="-940.5" font-family="Courier New" font-size="14.00">uint256 (32)</text>
<polyline fill="none" stroke="black" points="1108.36,-932.3 1326.19,-932.3 "/>
<text text-anchor="middle" x="1217.27" y="-915.7" font-family="Courier New" font-size="14.00">uint256 (32)</text>
</g>
<!-- 8&#45;&gt;1 -->
<g id="edge1" class="edge">
<title>8:8&#45;&gt;1</title>
<path fill="none" stroke="black" d="M862.93,-805.3C907.25,-805.3 866.92,-867.65 898.93,-898.3 935.19,-933.01 984.42,-955.19 1031.73,-969.36"/>
<polygon fill="black" stroke="black" points="1030.9,-972.76 1041.48,-972.17 1032.84,-966.03 1030.9,-972.76"/>
</g>
<!-- 2 -->
<g id="node3" class="node">
<title>2</title>
<polygon fill="#f2f2f2" stroke="black" points="898.93,-797.7 898.93,-888.9 1469.42,-888.9 1469.42,-797.7 898.93,-797.7"/>
<text text-anchor="middle" x="1184.18" y="-872.3" font-family="Courier New" font-size="14.00">address[]: assetsMapped &lt;&lt;Array&gt;&gt;</text>
<text text-anchor="middle" x="1184.18" y="-855.5" font-family="Courier New" font-size="14.00">0x4a11f94e20a93c79f6ec743a1954ec4fc2c08429ae2122118bf234b2185c81b8</text>
<polyline fill="none" stroke="black" points="898.93,-847.3 1469.42,-847.3 "/>
<text text-anchor="middle" x="991.14" y="-830.7" font-family="Courier New" font-size="14.00">offset</text>
<polyline fill="none" stroke="black" points="898.93,-822.5 1083.34,-822.5 "/>
<text text-anchor="middle" x="991.14" y="-805.9" font-family="Courier New" font-size="14.00">0</text>
<polyline fill="none" stroke="black" points="1083.34,-797.7 1083.34,-847.3 "/>
<text text-anchor="middle" x="1275.96" y="-830.7" font-family="Courier New" font-size="14.00">type: variable (bytes)</text>
<polyline fill="none" stroke="black" points="1083.34,-822.5 1468.58,-822.5 "/>
<text text-anchor="middle" x="1188.05" y="-805.9" font-family="Courier New" font-size="14.00">unallocated (12)</text>
<polyline fill="none" stroke="black" points="1292.76,-797.7 1292.76,-822.5 "/>
<text text-anchor="middle" x="1380.67" y="-805.9" font-family="Courier New" font-size="14.00">address (20)</text>
</g>
<!-- 8&#45;&gt;2 -->
<g id="edge2" class="edge">
<title>8:13&#45;&gt;2</title>
<path fill="none" stroke="black" d="M862.93,-706.3C902.73,-706.3 867.84,-763.46 898.93,-788.3 900.35,-789.43 901.78,-790.54 903.23,-791.63"/>
<polygon fill="black" stroke="black" points="901.53,-794.72 911.7,-797.66 905.58,-789.01 901.53,-794.72"/>
</g>
<!-- 3 -->
<g id="node4" class="node">
<title>3</title>
<polygon fill="#f2f2f2" stroke="black" points="898.93,-687.7 898.93,-778.9 1469.42,-778.9 1469.42,-687.7 898.93,-687.7"/>
<text text-anchor="middle" x="1184.18" y="-762.3" font-family="Courier New" font-size="14.00">address[]: rewardTokenAddresses &lt;&lt;Array&gt;&gt;</text>
<text text-anchor="middle" x="1184.18" y="-745.5" font-family="Courier New" font-size="14.00">0xa2999d817b6757290b50e8ecf3fa939673403dd35c97de392fdb343b4015ce9e</text>
<polyline fill="none" stroke="black" points="898.93,-737.3 1469.42,-737.3 "/>
<text text-anchor="middle" x="991.14" y="-720.7" font-family="Courier New" font-size="14.00">offset</text>
<polyline fill="none" stroke="black" points="898.93,-712.5 1083.34,-712.5 "/>
<text text-anchor="middle" x="991.14" y="-695.9" font-family="Courier New" font-size="14.00">0</text>
<polyline fill="none" stroke="black" points="1083.34,-687.7 1083.34,-737.3 "/>
<text text-anchor="middle" x="1275.96" y="-720.7" font-family="Courier New" font-size="14.00">type: variable (bytes)</text>
<polyline fill="none" stroke="black" points="1083.34,-712.5 1468.58,-712.5 "/>
<text text-anchor="middle" x="1188.05" y="-695.9" font-family="Courier New" font-size="14.00">unallocated (12)</text>
<polyline fill="none" stroke="black" points="1292.76,-687.7 1292.76,-712.5 "/>
<text text-anchor="middle" x="1380.67" y="-695.9" font-family="Courier New" font-size="14.00">address (20)</text>
</g>
<!-- 8&#45;&gt;3 -->
<g id="edge3" class="edge">
<title>8:18&#45;&gt;3</title>
<path fill="none" stroke="black" d="M862.93,-607.3C898.31,-607.3 870.69,-656.99 898.93,-678.3 900.55,-679.52 902.19,-680.72 903.84,-681.89"/>
<polygon fill="black" stroke="black" points="902.02,-684.88 912.27,-687.54 905.92,-679.06 902.02,-684.88"/>
</g>
<!-- 4 -->
<g id="node5" class="node">
<title>4</title>
<polygon fill="#f2f2f2" stroke="black" points="1045.96,-495.5 1045.96,-669.1 1322.4,-669.1 1322.4,-495.5 1045.96,-495.5"/>
<text text-anchor="middle" x="1184.18" y="-652.5" font-family="Courier New" font-size="14.00">int256[98]: _reserved &lt;&lt;Array&gt;&gt;</text>
<polyline fill="none" stroke="black" points="1045.96,-644.3 1322.4,-644.3 "/>
<text text-anchor="middle" x="1081.16" y="-627.7" font-family="Courier New" font-size="14.00">slot</text>
<polyline fill="none" stroke="black" points="1045.96,-619.5 1116.36,-619.5 "/>
<text text-anchor="middle" x="1081.16" y="-602.9" font-family="Courier New" font-size="14.00">59</text>
<polyline fill="none" stroke="black" points="1045.96,-594.7 1116.36,-594.7 "/>
<text text-anchor="middle" x="1081.16" y="-578.1" font-family="Courier New" font-size="14.00">60</text>
<polyline fill="none" stroke="black" points="1045.96,-569.9 1116.36,-569.9 "/>
<text text-anchor="middle" x="1081.16" y="-553.3" font-family="Courier New" font-size="14.00">61&#45;154</text>
<polyline fill="none" stroke="black" points="1045.96,-545.1 1116.36,-545.1 "/>
<text text-anchor="middle" x="1081.16" y="-528.5" font-family="Courier New" font-size="14.00">155</text>
<polyline fill="none" stroke="black" points="1045.96,-520.3 1116.36,-520.3 "/>
<text text-anchor="middle" x="1081.16" y="-503.7" font-family="Courier New" font-size="14.00">156</text>
<polyline fill="none" stroke="black" points="1116.36,-495.5 1116.36,-644.3 "/>
<text text-anchor="middle" x="1219.28" y="-627.7" font-family="Courier New" font-size="14.00">type: variable (bytes)</text>
<polyline fill="none" stroke="black" points="1116.36,-619.5 1322.19,-619.5 "/>
<text text-anchor="middle" x="1219.07" y="-602.9" font-family="Courier New" font-size="14.00">int256 (32)</text>
<polyline fill="none" stroke="black" points="1116.36,-594.7 1322.19,-594.7 "/>
<text text-anchor="middle" x="1219.07" y="-578.1" font-family="Courier New" font-size="14.00">int256 (32)</text>
<polyline fill="none" stroke="black" points="1116.36,-569.9 1322.19,-569.9 "/>
<text text-anchor="middle" x="1219.07" y="-553.3" font-family="Courier New" font-size="14.00">&#45;&#45;&#45;&#45; (3008)</text>
<polyline fill="none" stroke="black" points="1116.36,-545.1 1322.19,-545.1 "/>
<text text-anchor="middle" x="1219.07" y="-528.5" font-family="Courier New" font-size="14.00">int256 (32)</text>
<polyline fill="none" stroke="black" points="1116.36,-520.3 1322.19,-520.3 "/>
<text text-anchor="middle" x="1219.07" y="-503.7" font-family="Courier New" font-size="14.00">int256 (32)</text>
</g>
<!-- 8&#45;&gt;4 -->
<g id="edge4" class="edge">
<title>8:24&#45;&gt;4</title>
<path fill="none" stroke="black" d="M862.93,-582.3C919.33,-582.3 981.31,-582.3 1035.6,-582.3"/>
<polygon fill="black" stroke="black" points="1035.65,-585.8 1045.65,-582.3 1035.65,-578.8 1035.65,-585.8"/>
</g>
<!-- 5 -->
<g id="node6" class="node">
<title>5</title>
<polygon fill="#f2f2f2" stroke="black" points="898.93,-385.7 898.93,-476.9 1469.42,-476.9 1469.42,-385.7 898.93,-385.7"/>
<text text-anchor="middle" x="1184.18" y="-460.3" font-family="Courier New" font-size="14.00">address[]: poolAssetsMapped &lt;&lt;Array&gt;&gt;</text>
<text text-anchor="middle" x="1184.18" y="-443.5" font-family="Courier New" font-size="14.00">0xd26e832454299e9fabb89e0e5fffdc046d4e14431bc1bf607ffb2e8a1ddecf7b</text>
<polyline fill="none" stroke="black" points="898.93,-435.3 1469.42,-435.3 "/>
<text text-anchor="middle" x="991.14" y="-418.7" font-family="Courier New" font-size="14.00">offset</text>
<polyline fill="none" stroke="black" points="898.93,-410.5 1083.34,-410.5 "/>
<text text-anchor="middle" x="991.14" y="-393.9" font-family="Courier New" font-size="14.00">0</text>
<polyline fill="none" stroke="black" points="1083.34,-385.7 1083.34,-435.3 "/>
<text text-anchor="middle" x="1275.96" y="-418.7" font-family="Courier New" font-size="14.00">type: variable (bytes)</text>
<polyline fill="none" stroke="black" points="1083.34,-410.5 1468.58,-410.5 "/>
<text text-anchor="middle" x="1188.05" y="-393.9" font-family="Courier New" font-size="14.00">unallocated (12)</text>
<polyline fill="none" stroke="black" points="1292.76,-385.7 1292.76,-410.5 "/>
<text text-anchor="middle" x="1380.67" y="-393.9" font-family="Courier New" font-size="14.00">address (20)</text>
</g>
<!-- 8&#45;&gt;5 -->
<g id="edge5" class="edge">
<title>8:26&#45;&gt;5</title>
<path fill="none" stroke="black" d="M862.93,-557.3C898.31,-557.3 870.69,-507.61 898.93,-486.3 900.55,-485.08 902.19,-483.88 903.84,-482.71"/>
<polygon fill="black" stroke="black" points="905.92,-485.54 912.27,-477.06 902.02,-479.72 905.92,-485.54"/>
</g>
<!-- 6 -->
<g id="node7" class="node">
<title>6</title>
<polygon fill="#f2f2f2" stroke="black" points="1041.76,-193.5 1041.76,-367.1 1326.6,-367.1 1326.6,-193.5 1041.76,-193.5"/>
<text text-anchor="middle" x="1184.18" y="-350.5" font-family="Courier New" font-size="14.00">int256[50]: __reserved &lt;&lt;Array&gt;&gt;</text>
<polyline fill="none" stroke="black" points="1041.76,-342.3 1326.6,-342.3 "/>
<text text-anchor="middle" x="1081.16" y="-325.7" font-family="Courier New" font-size="14.00">slot</text>
<polyline fill="none" stroke="black" points="1041.76,-317.5 1120.57,-317.5 "/>
<text text-anchor="middle" x="1081.16" y="-300.9" font-family="Courier New" font-size="14.00">160</text>
<polyline fill="none" stroke="black" points="1041.76,-292.7 1120.57,-292.7 "/>
<text text-anchor="middle" x="1081.16" y="-276.1" font-family="Courier New" font-size="14.00">161</text>
<polyline fill="none" stroke="black" points="1041.76,-267.9 1120.57,-267.9 "/>
<text text-anchor="middle" x="1081.16" y="-251.3" font-family="Courier New" font-size="14.00">162&#45;207</text>
<polyline fill="none" stroke="black" points="1041.76,-243.1 1120.57,-243.1 "/>
<text text-anchor="middle" x="1081.16" y="-226.5" font-family="Courier New" font-size="14.00">208</text>
<polyline fill="none" stroke="black" points="1041.76,-218.3 1120.57,-218.3 "/>
<text text-anchor="middle" x="1081.16" y="-201.7" font-family="Courier New" font-size="14.00">209</text>
<polyline fill="none" stroke="black" points="1120.57,-193.5 1120.57,-342.3 "/>
<text text-anchor="middle" x="1223.48" y="-325.7" font-family="Courier New" font-size="14.00">type: variable (bytes)</text>
<polyline fill="none" stroke="black" points="1120.57,-317.5 1326.4,-317.5 "/>
<text text-anchor="middle" x="1223.27" y="-300.9" font-family="Courier New" font-size="14.00">int256 (32)</text>
<polyline fill="none" stroke="black" points="1120.57,-292.7 1326.4,-292.7 "/>
<text text-anchor="middle" x="1223.27" y="-276.1" font-family="Courier New" font-size="14.00">int256 (32)</text>
<polyline fill="none" stroke="black" points="1120.57,-267.9 1326.4,-267.9 "/>
<text text-anchor="middle" x="1223.27" y="-251.3" font-family="Courier New" font-size="14.00">&#45;&#45;&#45;&#45; (1472)</text>
<polyline fill="none" stroke="black" points="1120.57,-243.1 1326.4,-243.1 "/>
<text text-anchor="middle" x="1223.27" y="-226.5" font-family="Courier New" font-size="14.00">int256 (32)</text>
<polyline fill="none" stroke="black" points="1120.57,-218.3 1326.4,-218.3 "/>
<text text-anchor="middle" x="1223.27" y="-201.7" font-family="Courier New" font-size="14.00">int256 (32)</text>
</g>
<!-- 8&#45;&gt;6 -->
<g id="edge6" class="edge">
<title>8:34&#45;&gt;6</title>
<path fill="none" stroke="black" d="M862.93,-483.3C913.11,-483.3 863.47,-411.8 898.93,-376.3 934.66,-340.53 984.16,-318.08 1031.85,-304"/>
<polygon fill="black" stroke="black" points="1033.01,-307.31 1041.67,-301.21 1031.1,-300.58 1033.01,-307.31"/>
</g>
<!-- 7 -->
<g id="node8" class="node">
<title>7</title>
<polygon fill="#f2f2f2" stroke="black" points="1033.35,-0.5 1033.35,-174.1 1335,-174.1 1335,-0.5 1033.35,-0.5"/>
<text text-anchor="middle" x="1184.18" y="-157.5" font-family="Courier New" font-size="14.00">int256[50]: __reserved_2 &lt;&lt;Array&gt;&gt;</text>
<polyline fill="none" stroke="black" points="1033.35,-149.3 1335,-149.3 "/>
<text text-anchor="middle" x="1077.26" y="-132.7" font-family="Courier New" font-size="14.00">slot</text>
<polyline fill="none" stroke="black" points="1033.35,-124.5 1121.16,-124.5 "/>
<text text-anchor="middle" x="1077.26" y="-107.9" font-family="Courier New" font-size="14.00">210</text>
<polyline fill="none" stroke="black" points="1033.35,-99.7 1121.16,-99.7 "/>
<text text-anchor="middle" x="1077.26" y="-83.1" font-family="Courier New" font-size="14.00">211</text>
<polyline fill="none" stroke="black" points="1033.35,-74.9 1121.16,-74.9 "/>
<text text-anchor="middle" x="1077.26" y="-58.3" font-family="Courier New" font-size="14.00">212&#45;257</text>
<polyline fill="none" stroke="black" points="1033.35,-50.1 1121.16,-50.1 "/>
<text text-anchor="middle" x="1077.26" y="-33.5" font-family="Courier New" font-size="14.00">258</text>
<polyline fill="none" stroke="black" points="1033.35,-25.3 1121.16,-25.3 "/>
<text text-anchor="middle" x="1077.26" y="-8.7" font-family="Courier New" font-size="14.00">259</text>
<polyline fill="none" stroke="black" points="1121.16,-0.5 1121.16,-149.3 "/>
<text text-anchor="middle" x="1228.08" y="-132.7" font-family="Courier New" font-size="14.00">type: variable (bytes)</text>
<polyline fill="none" stroke="black" points="1121.16,-124.5 1334.99,-124.5 "/>
<text text-anchor="middle" x="1227.87" y="-107.9" font-family="Courier New" font-size="14.00">int256 (32)</text>
<polyline fill="none" stroke="black" points="1121.16,-99.7 1334.99,-99.7 "/>
<text text-anchor="middle" x="1227.87" y="-83.1" font-family="Courier New" font-size="14.00">int256 (32)</text>
<polyline fill="none" stroke="black" points="1121.16,-74.9 1334.99,-74.9 "/>
<text text-anchor="middle" x="1227.87" y="-58.3" font-family="Courier New" font-size="14.00">&#45;&#45;&#45;&#45; (1472)</text>
<polyline fill="none" stroke="black" points="1121.16,-50.1 1334.99,-50.1 "/>
<text text-anchor="middle" x="1227.87" y="-33.5" font-family="Courier New" font-size="14.00">int256 (32)</text>
<polyline fill="none" stroke="black" points="1121.16,-25.3 1334.99,-25.3 "/>
<text text-anchor="middle" x="1227.87" y="-8.7" font-family="Courier New" font-size="14.00">int256 (32)</text>
</g>
<!-- 8&#45;&gt;7 -->
<g id="edge7" class="edge">
<title>8:40&#45;&gt;7</title>
<path fill="none" stroke="black" d="M862.93,-458.3C924.34,-458.3 860.02,-231.81 898.93,-184.3 930.08,-146.28 976.82,-123.11 1023.45,-109"/>
<polygon fill="black" stroke="black" points="1024.45,-112.36 1033.08,-106.21 1022.51,-105.63 1024.45,-112.36"/>
</g>
</g>
</svg>
