<?xml version="1.0" encoding="UTF-8" standalone="no"?>
<!DOCTYPE svg PUBLIC "-//W3C//DTD SVG 1.1//EN"
 "http://www.w3.org/Graphics/SVG/1.1/DTD/svg11.dtd">
<!-- Generated by graphviz version 5.0.0 (20220707.1540)
 -->
<!-- Title: StorageDiagram Pages: 1 -->
<svg width="1477pt" height="554pt"
 viewBox="0.00 0.00 1477.42 554.00" xmlns="http://www.w3.org/2000/svg" xmlns:xlink="http://www.w3.org/1999/xlink">
<g id="graph0" class="graph" transform="scale(1 1) rotate(0) translate(4 550)">
<title>StorageDiagram</title>
<polygon fill="white" stroke="transparent" points="-4,4 -4,-550 1473.42,-550 1473.42,4 -4,4"/>
<!-- 5 -->
<g id="node1" class="node">
<title>5</title>
<polygon fill="#f2f2f2" stroke="black" points="0,-24.7 0,-545.5 862.93,-545.5 862.93,-24.7 0,-24.7"/>
<text text-anchor="middle" x="431.47" y="-528.9" font-family="Courier New" font-size="14.00">BalancerComposablePoolStrategy &lt;&lt;Contract&gt;&gt;</text>
<polyline fill="none" stroke="black" points="0,-520.7 862.93,-520.7 "/>
<text text-anchor="middle" x="37.4" y="-504.1" font-family="Courier New" font-size="14.00">slot</text>
<polyline fill="none" stroke="black" points="0,-495.9 74.81,-495.9 "/>
<text text-anchor="middle" x="37.4" y="-479.3" font-family="Courier New" font-size="14.00">0</text>
<polyline fill="none" stroke="black" points="0,-471.1 74.81,-471.1 "/>
<text text-anchor="middle" x="37.4" y="-454.5" font-family="Courier New" font-size="14.00">1&#45;50</text>
<polyline fill="none" stroke="black" points="0,-446.3 74.81,-446.3 "/>
<text text-anchor="middle" x="37.4" y="-429.7" font-family="Courier New" font-size="14.00">51</text>
<polyline fill="none" stroke="black" points="0,-421.5 74.81,-421.5 "/>
<text text-anchor="middle" x="37.4" y="-404.9" font-family="Courier New" font-size="14.00">52</text>
<polyline fill="none" stroke="black" points="0,-396.7 74.81,-396.7 "/>
<text text-anchor="middle" x="37.4" y="-380.1" font-family="Courier New" font-size="14.00">53</text>
<polyline fill="none" stroke="black" points="0,-371.9 74.81,-371.9 "/>
<text text-anchor="middle" x="37.4" y="-355.3" font-family="Courier New" font-size="14.00">54</text>
<polyline fill="none" stroke="black" points="0,-347.1 74.81,-347.1 "/>
<text text-anchor="middle" x="37.4" y="-330.5" font-family="Courier New" font-size="14.00">55</text>
<polyline fill="none" stroke="black" points="0,-322.3 74.81,-322.3 "/>
<text text-anchor="middle" x="37.4" y="-305.7" font-family="Courier New" font-size="14.00">56</text>
<polyline fill="none" stroke="black" points="0,-297.5 74.81,-297.5 "/>
<text text-anchor="middle" x="37.4" y="-280.9" font-family="Courier New" font-size="14.00">57</text>
<polyline fill="none" stroke="black" points="0,-272.7 74.81,-272.7 "/>
<text text-anchor="middle" x="37.4" y="-256.1" font-family="Courier New" font-size="14.00">58</text>
<polyline fill="none" stroke="black" points="0,-247.9 74.81,-247.9 "/>
<text text-anchor="middle" x="37.4" y="-231.3" font-family="Courier New" font-size="14.00">59&#45;156</text>
<polyline fill="none" stroke="black" points="0,-223.1 74.81,-223.1 "/>
<text text-anchor="middle" x="37.4" y="-206.5" font-family="Courier New" font-size="14.00">157</text>
<polyline fill="none" stroke="black" points="0,-198.3 74.81,-198.3 "/>
<text text-anchor="middle" x="37.4" y="-181.7" font-family="Courier New" font-size="14.00">158</text>
<polyline fill="none" stroke="black" points="0,-173.5 74.81,-173.5 "/>
<text text-anchor="middle" x="37.4" y="-156.9" font-family="Courier New" font-size="14.00">159</text>
<polyline fill="none" stroke="black" points="0,-148.7 74.81,-148.7 "/>
<text text-anchor="middle" x="37.4" y="-132.1" font-family="Courier New" font-size="14.00">160</text>
<polyline fill="none" stroke="black" points="0,-123.9 74.81,-123.9 "/>
<text text-anchor="middle" x="37.4" y="-107.3" font-family="Courier New" font-size="14.00">161</text>
<polyline fill="none" stroke="black" points="0,-99.1 74.81,-99.1 "/>
<text text-anchor="middle" x="37.4" y="-82.5" font-family="Courier New" font-size="14.00">162&#45;206</text>
<polyline fill="none" stroke="black" points="0,-74.3 74.81,-74.3 "/>
<text text-anchor="middle" x="37.4" y="-57.7" font-family="Courier New" font-size="14.00">207&#45;256</text>
<polyline fill="none" stroke="black" points="0,-49.5 74.81,-49.5 "/>
<text text-anchor="middle" x="37.4" y="-32.9" font-family="Courier New" font-size="14.00">257&#45;306</text>
<polyline fill="none" stroke="black" points="74.81,-24.7 74.81,-520.7 "/>
<text text-anchor="middle" x="468.87" y="-504.1" font-family="Courier New" font-size="14.00">type: &lt;inherited contract&gt;.variable (bytes)</text>
<polyline fill="none" stroke="black" points="74.81,-495.9 862.93,-495.9 "/>
<text text-anchor="middle" x="151.52" y="-479.3" font-family="Courier New" font-size="14.00">unallocated (30)</text>
<polyline fill="none" stroke="black" points="228.23,-471.1 228.23,-495.9 "/>
<text text-anchor="middle" x="388.96" y="-479.3" font-family="Courier New" font-size="14.00">bool: Initializable.initializing (1)</text>
<polyline fill="none" stroke="black" points="549.68,-471.1 549.68,-495.9 "/>
<text text-anchor="middle" x="706.2" y="-479.3" font-family="Courier New" font-size="14.00">bool: Initializable.initialized (1)</text>
<polyline fill="none" stroke="black" points="74.81,-471.1 862.93,-471.1 "/>
<text text-anchor="middle" x="468.44" y="-454.5" font-family="Courier New" font-size="14.00">uint256[50]: Initializable.______gap (1600)</text>
<polyline fill="none" stroke="black" points="74.81,-446.3 862.93,-446.3 "/>
<text text-anchor="middle" x="156.02" y="-429.7" font-family="Courier New" font-size="14.00">unallocated (12)</text>
<polyline fill="none" stroke="black" points="237.23,-421.5 237.23,-446.3 "/>
<text text-anchor="middle" x="549.98" y="-429.7" font-family="Courier New" font-size="14.00">address: InitializableAbstractStrategy._deprecated_platformAddress (20)</text>
<polyline fill="none" stroke="black" points="74.81,-421.5 862.93,-421.5 "/>
<text text-anchor="middle" x="162.52" y="-404.9" font-family="Courier New" font-size="14.00">unallocated (12)</text>
<polyline fill="none" stroke="black" points="250.23,-396.7 250.23,-421.5 "/>
<text text-anchor="middle" x="556.38" y="-404.9" font-family="Courier New" font-size="14.00">address: InitializableAbstractStrategy._deprecated_vaultAddress (20)</text>
<polyline fill="none" stroke="black" points="74.81,-396.7 862.93,-396.7 "/>
<text text-anchor="middle" x="468.86" y="-380.1" font-family="Courier New" font-size="14.00">mapping(address=&gt;address): InitializableAbstractStrategy.assetToPToken (32)</text>
<polyline fill="none" stroke="black" points="74.81,-371.9 862.93,-371.9 "/>
<text text-anchor="middle" x="468.45" y="-355.3" font-family="Courier New" font-size="14.00">address[]: InitializableAbstractStrategy.assetsMapped (32)</text>
<polyline fill="none" stroke="black" points="74.81,-347.1 862.93,-347.1 "/>
<text text-anchor="middle" x="150.02" y="-330.5" font-family="Courier New" font-size="14.00">unallocated (12)</text>
<polyline fill="none" stroke="black" points="225.23,-322.3 225.23,-347.1 "/>
<text text-anchor="middle" x="544.08" y="-330.5" font-family="Courier New" font-size="14.00">address: InitializableAbstractStrategy._deprecated_rewardTokenAddress (20)</text>
<polyline fill="none" stroke="black" points="74.81,-322.3 862.93,-322.3 "/>
<text text-anchor="middle" x="468.77" y="-305.7" font-family="Courier New" font-size="14.00">uint256: InitializableAbstractStrategy._deprecated_rewardLiquidationThreshold (32)</text>
<polyline fill="none" stroke="black" points="74.81,-297.5 862.93,-297.5 "/>
<text text-anchor="middle" x="179.02" y="-280.9" font-family="Courier New" font-size="14.00">unallocated (12)</text>
<polyline fill="none" stroke="black" points="283.23,-272.7 283.23,-297.5 "/>
<text text-anchor="middle" x="572.77" y="-280.9" font-family="Courier New" font-size="14.00">address: InitializableAbstractStrategy.harvesterAddress (20)</text>
<polyline fill="none" stroke="black" points="74.81,-272.7 862.93,-272.7 "/>
<text text-anchor="middle" x="468.55" y="-256.1" font-family="Courier New" font-size="14.00">address[]: InitializableAbstractStrategy.rewardTokenAddresses (32)</text>
<polyline fill="none" stroke="black" points="74.81,-247.9 862.93,-247.9 "/>
<text text-anchor="middle" x="468.45" y="-231.3" font-family="Courier New" font-size="14.00">int256[98]: InitializableAbstractStrategy._reserved (3136)</text>
<polyline fill="none" stroke="black" points="74.81,-223.1 862.93,-223.1 "/>
<text text-anchor="middle" x="468.75" y="-206.5" font-family="Courier New" font-size="14.00">uint256: BaseBalancerStrategy.maxWithdrawalDeviation (32)</text>
<polyline fill="none" stroke="black" points="74.81,-198.3 862.93,-198.3 "/>
<text text-anchor="middle" x="468.65" y="-181.7" font-family="Courier New" font-size="14.00">uint256: BaseBalancerStrategy.maxDepositDeviation (32)</text>
<polyline fill="none" stroke="black" points="74.81,-173.5 862.93,-173.5 "/>
<text text-anchor="middle" x="468.85" y="-156.9" font-family="Courier New" font-size="14.00">IRateProvider[]: BaseBalancerStrategy.poolRateProvidersCache (32)</text>
<polyline fill="none" stroke="black" points="74.81,-148.7 862.93,-148.7 "/>
<text text-anchor="middle" x="468.74" y="-132.1" font-family="Courier New" font-size="14.00">address[]: BaseBalancerStrategy.poolAssets (32)</text>
<polyline fill="none" stroke="black" points="74.81,-123.9 862.93,-123.9 "/>
<text text-anchor="middle" x="468.76" y="-107.3" font-family="Courier New" font-size="14.00">mapping(address=&gt;uint256): BaseBalancerStrategy.poolAssetIndex (32)</text>
<polyline fill="none" stroke="black" points="74.81,-99.1 862.93,-99.1 "/>
<text text-anchor="middle" x="468.84" y="-82.5" font-family="Courier New" font-size="14.00">int256[45]: BaseBalancerStrategy.__reserved (1440)</text>
<polyline fill="none" stroke="black" points="74.81,-74.3 862.93,-74.3 "/>
<text text-anchor="middle" x="468.45" y="-57.7" font-family="Courier New" font-size="14.00">int256[50]: BaseAuraStrategy.__reserved_baseAuraStrategy (1600)</text>
<polyline fill="none" stroke="black" points="74.81,-49.5 862.93,-49.5 "/>
<text text-anchor="middle" x="468.85" y="-32.9" font-family="Courier New" font-size="14.00">int256[50]: BalancerMetaPoolStrategy.___reserved (1600)</text>
</g>
<!-- 1 -->
<g id="node2" class="node">
<title>1</title>
<polygon fill="#f2f2f2" stroke="black" points="898.93,-330.5 898.93,-421.7 1469.42,-421.7 1469.42,-330.5 898.93,-330.5"/>
<text text-anchor="middle" x="1184.18" y="-405.1" font-family="Courier New" font-size="14.00">address[]: assetsMapped &lt;&lt;Array&gt;&gt;</text>
<text text-anchor="middle" x="1184.18" y="-388.3" font-family="Courier New" font-size="14.00">0x4a11f94e20a93c79f6ec743a1954ec4fc2c08429ae2122118bf234b2185c81b8</text>
<polyline fill="none" stroke="black" points="898.93,-380.1 1469.42,-380.1 "/>
<text text-anchor="middle" x="991.14" y="-363.5" font-family="Courier New" font-size="14.00">offset</text>
<polyline fill="none" stroke="black" points="898.93,-355.3 1083.34,-355.3 "/>
<text text-anchor="middle" x="991.14" y="-338.7" font-family="Courier New" font-size="14.00">0</text>
<polyline fill="none" stroke="black" points="1083.34,-330.5 1083.34,-380.1 "/>
<text text-anchor="middle" x="1275.96" y="-363.5" font-family="Courier New" font-size="14.00">type: variable (bytes)</text>
<polyline fill="none" stroke="black" points="1083.34,-355.3 1468.58,-355.3 "/>
<text text-anchor="middle" x="1188.05" y="-338.7" font-family="Courier New" font-size="14.00">unallocated (12)</text>
<polyline fill="none" stroke="black" points="1292.76,-330.5 1292.76,-355.3 "/>
<text text-anchor="middle" x="1380.67" y="-338.7" font-family="Courier New" font-size="14.00">address (20)</text>
</g>
<!-- 5&#45;&gt;1 -->
<g id="edge1" class="edge">
<title>5:8&#45;&gt;1</title>
<path fill="none" stroke="black" d="M862.93,-359.1C871.34,-359.1 879.86,-359.16 888.47,-359.27"/>
<polygon fill="black" stroke="black" points="888.55,-362.77 898.6,-359.42 888.66,-355.77 888.55,-362.77"/>
</g>
<!-- 2 -->
<g id="node3" class="node">
<title>2</title>
<polygon fill="#f2f2f2" stroke="black" points="898.93,-220.5 898.93,-311.7 1469.42,-311.7 1469.42,-220.5 898.93,-220.5"/>
<text text-anchor="middle" x="1184.18" y="-295.1" font-family="Courier New" font-size="14.00">address[]: rewardTokenAddresses &lt;&lt;Array&gt;&gt;</text>
<text text-anchor="middle" x="1184.18" y="-278.3" font-family="Courier New" font-size="14.00">0xa2999d817b6757290b50e8ecf3fa939673403dd35c97de392fdb343b4015ce9e</text>
<polyline fill="none" stroke="black" points="898.93,-270.1 1469.42,-270.1 "/>
<text text-anchor="middle" x="991.14" y="-253.5" font-family="Courier New" font-size="14.00">offset</text>
<polyline fill="none" stroke="black" points="898.93,-245.3 1083.34,-245.3 "/>
<text text-anchor="middle" x="991.14" y="-228.7" font-family="Courier New" font-size="14.00">0</text>
<polyline fill="none" stroke="black" points="1083.34,-220.5 1083.34,-270.1 "/>
<text text-anchor="middle" x="1275.96" y="-253.5" font-family="Courier New" font-size="14.00">type: variable (bytes)</text>
<polyline fill="none" stroke="black" points="1083.34,-245.3 1468.58,-245.3 "/>
<text text-anchor="middle" x="1188.05" y="-228.7" font-family="Courier New" font-size="14.00">unallocated (12)</text>
<polyline fill="none" stroke="black" points="1292.76,-220.5 1292.76,-245.3 "/>
<text text-anchor="middle" x="1380.67" y="-228.7" font-family="Courier New" font-size="14.00">address (20)</text>
</g>
<!-- 5&#45;&gt;2 -->
<g id="edge2" class="edge">
<title>5:13&#45;&gt;2</title>
<path fill="none" stroke="black" d="M862.93,-260.1C871.33,-260.1 879.84,-260.12 888.44,-260.16"/>
<polygon fill="black" stroke="black" points="888.55,-263.66 898.57,-260.21 888.58,-256.66 888.55,-263.66"/>
</g>
<!-- 3 -->
<g id="node4" class="node">
<title>3</title>
<polygon fill="#f2f2f2" stroke="black" points="898.93,-110.5 898.93,-201.7 1469.42,-201.7 1469.42,-110.5 898.93,-110.5"/>
<text text-anchor="middle" x="1184.18" y="-185.1" font-family="Courier New" font-size="14.00">IRateProvider[]: poolRateProvidersCache &lt;&lt;Array&gt;&gt;</text>
<text text-anchor="middle" x="1184.18" y="-168.3" font-family="Courier New" font-size="14.00">0x0bc14066c33013fe88f66e314e4cf150b0b2d4d6451a1a51dbbd1c27cd11de28</text>
<polyline fill="none" stroke="black" points="898.93,-160.1 1469.42,-160.1 "/>
<text text-anchor="middle" x="978.64" y="-143.5" font-family="Courier New" font-size="14.00">offset</text>
<polyline fill="none" stroke="black" points="898.93,-135.3 1058.34,-135.3 "/>
<text text-anchor="middle" x="978.64" y="-118.7" font-family="Courier New" font-size="14.00">0</text>
<polyline fill="none" stroke="black" points="1058.34,-110.5 1058.34,-160.1 "/>
<text text-anchor="middle" x="1263.66" y="-143.5" font-family="Courier New" font-size="14.00">type: variable (bytes)</text>
<polyline fill="none" stroke="black" points="1058.34,-135.3 1468.99,-135.3 "/>
<text text-anchor="middle" x="1156.55" y="-118.7" font-family="Courier New" font-size="14.00">unallocated (12)</text>
<polyline fill="none" stroke="black" points="1254.76,-110.5 1254.76,-135.3 "/>
<text text-anchor="middle" x="1361.88" y="-118.7" font-family="Courier New" font-size="14.00">IRateProvider (20)</text>
</g>
<!-- 5&#45;&gt;3 -->
<g id="edge3" class="edge">
<title>5:18&#45;&gt;3</title>
<path fill="none" stroke="black" d="M862.93,-161.1C871.33,-161.1 879.84,-161.08 888.44,-161.05"/>
<polygon fill="black" stroke="black" points="888.58,-164.55 898.56,-161 888.55,-157.55 888.58,-164.55"/>
</g>
<!-- 4 -->
<g id="node5" class="node">
<title>4</title>
<polygon fill="#f2f2f2" stroke="black" points="898.93,-0.5 898.93,-91.7 1469.42,-91.7 1469.42,-0.5 898.93,-0.5"/>
<text text-anchor="middle" x="1184.18" y="-75.1" font-family="Courier New" font-size="14.00">address[]: poolAssets &lt;&lt;Array&gt;&gt;</text>
<text text-anchor="middle" x="1184.18" y="-58.3" font-family="Courier New" font-size="14.00">0x78fdc8d422c49ced035a9edf18d00d3c6a8d81df210f3e5e448e045e77b41e88</text>
<polyline fill="none" stroke="black" points="898.93,-50.1 1469.42,-50.1 "/>
<text text-anchor="middle" x="991.14" y="-33.5" font-family="Courier New" font-size="14.00">offset</text>
<polyline fill="none" stroke="black" points="898.93,-25.3 1083.34,-25.3 "/>
<text text-anchor="middle" x="991.14" y="-8.7" font-family="Courier New" font-size="14.00">0</text>
<polyline fill="none" stroke="black" points="1083.34,-0.5 1083.34,-50.1 "/>
<text text-anchor="middle" x="1275.96" y="-33.5" font-family="Courier New" font-size="14.00">type: variable (bytes)</text>
<polyline fill="none" stroke="black" points="1083.34,-25.3 1468.58,-25.3 "/>
<text text-anchor="middle" x="1188.05" y="-8.7" font-family="Courier New" font-size="14.00">unallocated (12)</text>
<polyline fill="none" stroke="black" points="1292.76,-0.5 1292.76,-25.3 "/>
<text text-anchor="middle" x="1380.67" y="-8.7" font-family="Courier New" font-size="14.00">address (20)</text>
</g>
<!-- 5&#45;&gt;4 -->
<g id="edge4" class="edge">
<title>5:20&#45;&gt;4</title>
<path fill="none" stroke="black" d="M862.93,-136.1C885.25,-136.1 879.15,-111.43 898.93,-101.1 902.31,-99.34 905.73,-97.63 909.19,-95.98"/>
<polygon fill="black" stroke="black" points="910.83,-99.08 918.46,-91.74 907.91,-92.72 910.83,-99.08"/>
</g>
</g>
</svg>
