<?xml version="1.0" encoding="UTF-8" standalone="no"?>
<!DOCTYPE svg PUBLIC "-//W3C//DTD SVG 1.1//EN"
 "http://www.w3.org/Graphics/SVG/1.1/DTD/svg11.dtd">
<!-- Generated by graphviz version 5.0.0 (20220707.1540)
 -->
<!-- Title: UmlClassDiagram Pages: 1 -->
<svg width="1739pt" height="797pt"
 viewBox="0.00 0.00 1738.89 797.00" xmlns="http://www.w3.org/2000/svg" xmlns:xlink="http://www.w3.org/1999/xlink">
<g id="graph0" class="graph" transform="scale(1 1) rotate(0) translate(4 793)">
<title>UmlClassDiagram</title>
<polygon fill="white" stroke="transparent" points="-4,4 -4,-793 1734.89,-793 1734.89,4 -4,4"/>
<!-- 7 -->
<g id="node1" class="node">
<title>7</title>
<polygon fill="#f2f2f2" stroke="black" points="596.83,-643.1 596.83,-684.7 831.68,-684.7 831.68,-643.1 596.83,-643.1"/>
<text text-anchor="middle" x="714.25" y="-668.1" font-family="Times,serif" font-size="14.00">Governable</text>
<text text-anchor="middle" x="714.25" y="-651.3" font-family="Times,serif" font-size="14.00">../contracts/governance/Governable.sol</text>
</g>
<!-- 41 -->
<g id="node2" class="node">
<title>41</title>
<polygon fill="#f2f2f2" stroke="black" points="782.65,-365.3 782.65,-423.7 977.86,-423.7 977.86,-365.3 782.65,-365.3"/>
<text text-anchor="middle" x="880.25" y="-407.1" font-family="Times,serif" font-size="14.00">&lt;&lt;Interface&gt;&gt;</text>
<text text-anchor="middle" x="880.25" y="-390.3" font-family="Times,serif" font-size="14.00">IVault</text>
<text text-anchor="middle" x="880.25" y="-373.5" font-family="Times,serif" font-size="14.00">../contracts/interfaces/IVault.sol</text>
</g>
<!-- 186 -->
<g id="node15" class="node">
<title>186</title>
<polygon fill="#f2f2f2" stroke="black" points="815.8,-460.7 815.8,-502.3 1022.71,-502.3 1022.71,-460.7 815.8,-460.7"/>
<text text-anchor="middle" x="919.25" y="-485.7" font-family="Times,serif" font-size="14.00">VaultStorage</text>
<text text-anchor="middle" x="919.25" y="-468.9" font-family="Times,serif" font-size="14.00">../contracts/vault/VaultStorage.sol</text>
</g>
<!-- 41&#45;&gt;186 -->
<g id="edge1" class="edge">
<title>41&#45;&gt;186</title>
<path fill="none" stroke="black" stroke-dasharray="5,2" d="M893.24,-423.8C897.31,-432.67 901.8,-442.47 905.9,-451.39"/>
<polygon fill="black" stroke="black" points="902.79,-453.01 910.14,-460.64 909.15,-450.09 902.79,-453.01"/>
</g>
<!-- 43 -->
<g id="node3" class="node">
<title>43</title>
<polygon fill="#f2f2f2" stroke="black" points="895.32,-269.9 895.32,-328.3 1109.19,-328.3 1109.19,-269.9 895.32,-269.9"/>
<text text-anchor="middle" x="1002.25" y="-311.7" font-family="Times,serif" font-size="14.00">&lt;&lt;Interface&gt;&gt;</text>
<text text-anchor="middle" x="1002.25" y="-294.9" font-family="Times,serif" font-size="14.00">IWstETH</text>
<text text-anchor="middle" x="1002.25" y="-278.1" font-family="Times,serif" font-size="14.00">../contracts/interfaces/IWstETH.sol</text>
</g>
<!-- 193 -->
<g id="node4" class="node">
<title>193</title>
<polygon fill="#f2f2f2" stroke="black" points="1127.13,-269.9 1127.13,-328.3 1423.38,-328.3 1423.38,-269.9 1127.13,-269.9"/>
<text text-anchor="middle" x="1275.25" y="-311.7" font-family="Times,serif" font-size="14.00">&lt;&lt;Interface&gt;&gt;</text>
<text text-anchor="middle" x="1275.25" y="-294.9" font-family="Times,serif" font-size="14.00">IBalancerVault</text>
<text text-anchor="middle" x="1275.25" y="-278.1" font-family="Times,serif" font-size="14.00">../contracts/interfaces/balancer/IBalancerVault.sol</text>
</g>
<!-- 200 -->
<g id="node5" class="node">
<title>200</title>
<polygon fill="#f2f2f2" stroke="black" points="1277.84,-79.1 1277.84,-137.5 1582.67,-137.5 1582.67,-79.1 1277.84,-79.1"/>
<text text-anchor="middle" x="1430.25" y="-120.9" font-family="Times,serif" font-size="14.00">&lt;&lt;Interface&gt;&gt;</text>
<text text-anchor="middle" x="1430.25" y="-104.1" font-family="Times,serif" font-size="14.00">IMetaStablePool</text>
<text text-anchor="middle" x="1430.25" y="-87.3" font-family="Times,serif" font-size="14.00">../contracts/interfaces/balancer/IMetaStablePool.sol</text>
</g>
<!-- 201 -->
<g id="node6" class="node">
<title>201</title>
<polygon fill="#f2f2f2" stroke="black" points="1441.62,-269.9 1441.62,-328.3 1730.89,-328.3 1730.89,-269.9 1441.62,-269.9"/>
<text text-anchor="middle" x="1586.25" y="-311.7" font-family="Times,serif" font-size="14.00">&lt;&lt;Interface&gt;&gt;</text>
<text text-anchor="middle" x="1586.25" y="-294.9" font-family="Times,serif" font-size="14.00">IRateProvider</text>
<text text-anchor="middle" x="1586.25" y="-278.1" font-family="Times,serif" font-size="14.00">../contracts/interfaces/balancer/IRateProvider.sol</text>
</g>
<!-- 200&#45;&gt;201 -->
<g id="edge2" class="edge">
<title>200&#45;&gt;201</title>
<path fill="none" stroke="black" stroke-dasharray="5,2" d="M1453.61,-137.57C1480.95,-170.66 1526.29,-225.53 1556.23,-261.76"/>
<polygon fill="black" stroke="black" points="1553.67,-264.16 1562.74,-269.64 1559.07,-259.7 1553.67,-264.16"/>
</g>
<!-- 154 -->
<g id="node7" class="node">
<title>154</title>
<polygon fill="#f2f2f2" stroke="black" points="973.81,-174.5 973.81,-232.9 1222.7,-232.9 1222.7,-174.5 973.81,-174.5"/>
<text text-anchor="middle" x="1098.25" y="-216.3" font-family="Times,serif" font-size="14.00">&lt;&lt;Interface&gt;&gt;</text>
<text text-anchor="middle" x="1098.25" y="-199.5" font-family="Times,serif" font-size="14.00">IRewardStaking</text>
<text text-anchor="middle" x="1098.25" y="-182.7" font-family="Times,serif" font-size="14.00">../contracts/strategies/IRewardStaking.sol</text>
</g>
<!-- 233 -->
<g id="node8" class="node">
<title>233</title>
<polygon fill="#f2f2f2" stroke="black" points="840.23,-0.5 840.23,-42.1 1200.28,-42.1 1200.28,-0.5 840.23,-0.5"/>
<text text-anchor="middle" x="1020.25" y="-25.5" font-family="Times,serif" font-size="14.00">BalancerMetaPoolStrategy</text>
<text text-anchor="middle" x="1020.25" y="-8.7" font-family="Times,serif" font-size="14.00">../contracts/strategies/balancer/BalancerMetaPoolStrategy.sol</text>
</g>
<!-- 233&#45;&gt;193 -->
<g id="edge4" class="edge">
<title>233&#45;&gt;193</title>
<path fill="none" stroke="black" stroke-dasharray="5,2" d="M1061.78,-42.27C1109.09,-67 1185.74,-113.39 1231.25,-174 1250.28,-199.34 1261.6,-233.61 1267.98,-259.73"/>
<polygon fill="black" stroke="black" points="1264.62,-260.69 1270.27,-269.65 1271.44,-259.12 1264.62,-260.69"/>
</g>
<!-- 233&#45;&gt;200 -->
<g id="edge5" class="edge">
<title>233&#45;&gt;200</title>
<path fill="none" stroke="black" stroke-dasharray="5,2" d="M1115.86,-42.12C1165.87,-52.49 1228.15,-65.4 1284.05,-76.99"/>
<polygon fill="black" stroke="black" points="1283.55,-80.46 1294.05,-79.06 1284.97,-73.61 1283.55,-80.46"/>
</g>
<!-- 233&#45;&gt;201 -->
<g id="edge6" class="edge">
<title>233&#45;&gt;201</title>
<path fill="none" stroke="black" stroke-dasharray="5,2" d="M1200.49,-28.13C1357.85,-35.13 1565.1,-49.74 1591.25,-78.6 1635.8,-127.75 1617.47,-211.5 1601.17,-260.1"/>
<polygon fill="black" stroke="black" points="1597.84,-259.03 1597.85,-269.62 1604.45,-261.33 1597.84,-259.03"/>
</g>
<!-- 234 -->
<g id="node9" class="node">
<title>234</title>
<polygon fill="#f2f2f2" stroke="black" points="772.73,-79.1 772.73,-137.5 1083.78,-137.5 1083.78,-79.1 772.73,-79.1"/>
<text text-anchor="middle" x="928.25" y="-120.9" font-family="Times,serif" font-size="14.00">&lt;&lt;Abstract&gt;&gt;</text>
<text text-anchor="middle" x="928.25" y="-104.1" font-family="Times,serif" font-size="14.00">BaseAuraStrategy</text>
<text text-anchor="middle" x="928.25" y="-87.3" font-family="Times,serif" font-size="14.00">../contracts/strategies/balancer/BaseAuraStrategy.sol</text>
</g>
<!-- 233&#45;&gt;234 -->
<g id="edge3" class="edge">
<title>233&#45;&gt;234</title>
<path fill="none" stroke="black" d="M998.45,-42.44C993.11,-47.38 987.15,-52.88 981.03,-58.54"/>
<polygon fill="none" stroke="black" points="973.86,-50.87 958.95,-78.94 988.11,-66.29 973.86,-50.87"/>
</g>
<!-- 234&#45;&gt;154 -->
<g id="edge9" class="edge">
<title>234&#45;&gt;154</title>
<path fill="none" stroke="black" stroke-dasharray="5,2" d="M979.72,-137.58C998.03,-147.63 1018.81,-159.05 1037.8,-169.48"/>
<polygon fill="black" stroke="black" points="1036.22,-172.61 1046.67,-174.36 1039.59,-166.48 1036.22,-172.61"/>
</g>
<!-- 235 -->
<g id="node10" class="node">
<title>235</title>
<polygon fill="#f2f2f2" stroke="black" points="622.85,-174.5 622.85,-232.9 955.66,-232.9 955.66,-174.5 622.85,-174.5"/>
<text text-anchor="middle" x="789.25" y="-216.3" font-family="Times,serif" font-size="14.00">&lt;&lt;Abstract&gt;&gt;</text>
<text text-anchor="middle" x="789.25" y="-199.5" font-family="Times,serif" font-size="14.00">BaseBalancerStrategy</text>
<text text-anchor="middle" x="789.25" y="-182.7" font-family="Times,serif" font-size="14.00">../contracts/strategies/balancer/BaseBalancerStrategy.sol</text>
</g>
<!-- 234&#45;&gt;235 -->
<g id="edge7" class="edge">
<title>234&#45;&gt;235</title>
<path fill="none" stroke="black" d="M886.17,-137.58C876.87,-143.83 866.78,-150.6 856.76,-157.34"/>
<polygon fill="none" stroke="black" points="850.72,-148.75 831.67,-174.2 862.43,-166.18 850.72,-148.75"/>
</g>
<!-- 238 -->
<g id="node16" class="node">
<title>238</title>
<polygon fill="#f2f2f2" stroke="black" points="150.2,-539.3 150.2,-597.7 412.31,-597.7 412.31,-539.3 150.2,-539.3"/>
<text text-anchor="middle" x="281.25" y="-581.1" font-family="Times,serif" font-size="14.00">&lt;&lt;Interface&gt;&gt;</text>
<text text-anchor="middle" x="281.25" y="-564.3" font-family="Times,serif" font-size="14.00">IERC4626</text>
<text text-anchor="middle" x="281.25" y="-547.5" font-family="Times,serif" font-size="14.00">../lib/openzeppelin/interfaces/IERC4626.sol</text>
</g>
<!-- 234&#45;&gt;238 -->
<g id="edge8" class="edge">
<title>234&#45;&gt;238</title>
<path fill="none" stroke="black" stroke-dasharray="5,2" d="M772.7,-134.65C618.85,-164.24 406.25,-219.38 406.25,-298.1 406.25,-298.1 406.25,-298.1 406.25,-395.5 406.25,-451.1 362.99,-500.81 327.37,-532.32"/>
<polygon fill="black" stroke="black" points="324.73,-529.97 319.44,-539.15 329.3,-535.27 324.73,-529.97"/>
</g>
<!-- 235&#45;&gt;43 -->
<g id="edge13" class="edge">
<title>235&#45;&gt;43</title>
<path fill="none" stroke="black" stroke-dasharray="5,2" d="M853.74,-232.98C877.3,-243.31 904.13,-255.07 928.44,-265.73"/>
<polygon fill="black" stroke="black" points="927.06,-268.95 937.62,-269.76 929.87,-262.54 927.06,-268.95"/>
</g>
<!-- 235&#45;&gt;193 -->
<g id="edge11" class="edge">
<title>235&#45;&gt;193</title>
<path fill="none" stroke="black" d="M936.06,-232.91C993.65,-243.98 1059.83,-256.7 1118.35,-267.95"/>
<polygon fill="black" stroke="black" points="1117.95,-271.43 1128.43,-269.88 1119.27,-264.56 1117.95,-271.43"/>
</g>
<!-- 235&#45;&gt;201 -->
<g id="edge12" class="edge">
<title>235&#45;&gt;201</title>
<path fill="none" stroke="black" stroke-dasharray="5,2" d="M955.95,-232.25C959.08,-232.65 962.18,-233.03 965.25,-233.4 1168.72,-257.79 1224.13,-242.78 1431.25,-269.33"/>
<polygon fill="black" stroke="black" points="1430.87,-272.81 1441.23,-270.62 1431.77,-265.87 1430.87,-272.81"/>
</g>
<!-- 174 -->
<g id="node13" class="node">
<title>174</title>
<polygon fill="#f2f2f2" stroke="black" points="569.21,-269.9 569.21,-328.3 859.3,-328.3 859.3,-269.9 569.21,-269.9"/>
<text text-anchor="middle" x="714.25" y="-311.7" font-family="Times,serif" font-size="14.00">&lt;&lt;Abstract&gt;&gt;</text>
<text text-anchor="middle" x="714.25" y="-294.9" font-family="Times,serif" font-size="14.00">InitializableAbstractStrategy</text>
<text text-anchor="middle" x="714.25" y="-278.1" font-family="Times,serif" font-size="14.00">../contracts/utils/InitializableAbstractStrategy.sol</text>
</g>
<!-- 235&#45;&gt;174 -->
<g id="edge10" class="edge">
<title>235&#45;&gt;174</title>
<path fill="none" stroke="black" d="M766.55,-232.98C763.2,-237.14 759.67,-241.55 756.08,-246.01"/>
<polygon fill="none" stroke="black" points="747.74,-239.63 737.14,-269.6 764.11,-252.78 747.74,-239.63"/>
</g>
<!-- 165 -->
<g id="node11" class="node">
<title>165</title>
<polygon fill="#f2f2f2" stroke="black" points="905.13,-547.7 905.13,-589.3 1079.38,-589.3 1079.38,-547.7 905.13,-547.7"/>
<text text-anchor="middle" x="992.25" y="-572.7" font-family="Times,serif" font-size="14.00">OUSD</text>
<text text-anchor="middle" x="992.25" y="-555.9" font-family="Times,serif" font-size="14.00">../contracts/token/OUSD.sol</text>
</g>
<!-- 165&#45;&gt;7 -->
<g id="edge16" class="edge">
<title>165&#45;&gt;7</title>
<path fill="none" stroke="black" d="M933.3,-589.31C895.19,-602.11 844.9,-619.01 802.12,-633.38"/>
<polygon fill="none" stroke="black" points="798.7,-623.45 773.61,-642.96 805.39,-643.36 798.7,-623.45"/>
</g>
<!-- 173 -->
<g id="node12" class="node">
<title>173</title>
<polygon fill="#f2f2f2" stroke="black" points="1152.25,-634.7 1152.25,-693.1 1348.26,-693.1 1348.26,-634.7 1152.25,-634.7"/>
<text text-anchor="middle" x="1250.25" y="-676.5" font-family="Times,serif" font-size="14.00">&lt;&lt;Abstract&gt;&gt;</text>
<text text-anchor="middle" x="1250.25" y="-659.7" font-family="Times,serif" font-size="14.00">Initializable</text>
<text text-anchor="middle" x="1250.25" y="-642.9" font-family="Times,serif" font-size="14.00">../contracts/utils/Initializable.sol</text>
</g>
<!-- 165&#45;&gt;173 -->
<g id="edge14" class="edge">
<title>165&#45;&gt;173</title>
<path fill="none" stroke="black" d="M1046.97,-589.31C1075.18,-599.52 1110.59,-612.34 1143.92,-624.4"/>
<polygon fill="none" stroke="black" points="1140.34,-634.28 1172.12,-634.62 1147.49,-614.53 1140.34,-634.28"/>
</g>
<!-- 176 -->
<g id="node14" class="node">
<title>176</title>
<polygon fill="#f2f2f2" stroke="black" points="849.93,-634.7 849.93,-693.1 1134.58,-693.1 1134.58,-634.7 849.93,-634.7"/>
<text text-anchor="middle" x="992.25" y="-676.5" font-family="Times,serif" font-size="14.00">&lt;&lt;Abstract&gt;&gt;</text>
<text text-anchor="middle" x="992.25" y="-659.7" font-family="Times,serif" font-size="14.00">InitializableERC20Detailed</text>
<text text-anchor="middle" x="992.25" y="-642.9" font-family="Times,serif" font-size="14.00">../contracts/utils/InitializableERC20Detailed.sol</text>
</g>
<!-- 165&#45;&gt;176 -->
<g id="edge15" class="edge">
<title>165&#45;&gt;176</title>
<path fill="none" stroke="black" d="M992.25,-589.31C992.25,-593.94 992.25,-599.11 992.25,-604.49"/>
<polygon fill="none" stroke="black" points="981.75,-604.62 992.25,-634.62 1002.75,-604.62 981.75,-604.62"/>
</g>
<!-- 174&#45;&gt;7 -->
<g id="edge18" class="edge">
<title>174&#45;&gt;7</title>
<path fill="none" stroke="black" d="M714.25,-328.57C714.25,-389.99 714.25,-535.62 714.25,-612.83"/>
<polygon fill="none" stroke="black" points="703.75,-612.94 714.25,-642.94 724.75,-612.94 703.75,-612.94"/>
</g>
<!-- 174&#45;&gt;41 -->
<g id="edge21" class="edge">
<title>174&#45;&gt;41</title>
<path fill="none" stroke="black" stroke-dasharray="5,2" d="M764.51,-328.38C782.31,-338.39 802.49,-349.75 820.97,-360.14"/>
<polygon fill="black" stroke="black" points="819.45,-363.31 829.88,-365.16 822.88,-357.2 819.45,-363.31"/>
</g>
<!-- 174&#45;&gt;173 -->
<g id="edge17" class="edge">
<title>174&#45;&gt;173</title>
<path fill="none" stroke="black" d="M859.39,-326.52C912.21,-337.81 964.53,-351.44 987.25,-364.8 1090.56,-425.54 1174.72,-541.03 1218.18,-609.05"/>
<polygon fill="none" stroke="black" points="1209.28,-614.63 1234.01,-634.59 1227.13,-603.56 1209.28,-614.63"/>
</g>
<!-- 174&#45;&gt;174 -->
<g id="edge19" class="edge">
<title>174&#45;&gt;174</title>
<path fill="none" stroke="black" stroke-dasharray="5,2" d="M859.47,-285.88C870.51,-288.82 877.3,-293.22 877.3,-299.1 877.3,-302.96 874.38,-306.18 869.24,-308.77"/>
<polygon fill="black" stroke="black" points="867.67,-305.62 859.47,-312.32 870.06,-312.2 867.67,-305.62"/>
</g>
<!-- 362 -->
<g id="node17" class="node">
<title>362</title>
<polygon fill="#f2f2f2" stroke="black" points="79.2,-730.1 79.2,-788.5 483.31,-788.5 483.31,-730.1 79.2,-730.1"/>
<text text-anchor="middle" x="281.25" y="-771.9" font-family="Times,serif" font-size="14.00">&lt;&lt;Interface&gt;&gt;</text>
<text text-anchor="middle" x="281.25" y="-755.1" font-family="Times,serif" font-size="14.00">IERC20</text>
<text text-anchor="middle" x="281.25" y="-738.3" font-family="Times,serif" font-size="14.00">../node_modules/@openzeppelin/contracts/token/ERC20/IERC20.sol</text>
</g>
<!-- 174&#45;&gt;362 -->
<g id="edge20" class="edge">
<title>174&#45;&gt;362</title>
<path fill="none" stroke="black" stroke-dasharray="5,2" d="M670.36,-328.58C627.68,-360.12 569.25,-415.2 569.25,-480.5 569.25,-480.5 569.25,-480.5 569.25,-569.5 569.25,-625.3 588.02,-652.52 550.25,-693.6 537.78,-707.18 508.58,-718.43 473.83,-727.53"/>
<polygon fill="black" stroke="black" points="472.72,-724.2 463.89,-730.04 474.44,-730.99 472.72,-724.2"/>
</g>
<!-- 176&#45;&gt;362 -->
<g id="edge22" class="edge">
<title>176&#45;&gt;362</title>
<path fill="none" stroke="black" stroke-dasharray="5,2" d="M849.91,-692.1C846.66,-692.61 843.44,-693.12 840.25,-693.6 733.24,-709.88 614.14,-724.18 513.47,-735.18"/>
<polygon fill="none" stroke="black" points="512.24,-724.75 483.54,-738.41 514.49,-745.63 512.24,-724.75"/>
</g>
<!-- 186&#45;&gt;7 -->
<g id="edge24" class="edge">
<title>186&#45;&gt;7</title>
<path fill="none" stroke="black" d="M896.53,-502.5C863.58,-531.49 801.85,-585.82 759.42,-623.15"/>
<polygon fill="none" stroke="black" points="752.35,-615.39 736.77,-643.09 766.22,-631.15 752.35,-615.39"/>
</g>
<!-- 186&#45;&gt;165 -->
<g id="edge25" class="edge">
<title>186&#45;&gt;165</title>
<path fill="none" stroke="black" d="M936.55,-502.64C946.1,-513.76 958.1,-527.73 968.51,-539.85"/>
<polygon fill="black" stroke="black" points="965.91,-542.19 975.08,-547.5 971.22,-537.63 965.91,-542.19"/>
</g>
<!-- 186&#45;&gt;173 -->
<g id="edge23" class="edge">
<title>186&#45;&gt;173</title>
<path fill="none" stroke="black" d="M996.77,-502.41C1026.3,-511.5 1059.7,-523.66 1088.25,-538.8 1127.26,-559.48 1166.67,-589.44 1196.86,-614.73"/>
<polygon fill="none" stroke="black" points="1190.27,-622.91 1219.83,-634.58 1204,-607.02 1190.27,-622.91"/>
</g>
<!-- 238&#45;&gt;362 -->
<g id="edge26" class="edge">
<title>238&#45;&gt;362</title>
<path fill="none" stroke="black" stroke-dasharray="5,2" d="M150,-585.59C90.82,-595.8 30.17,-611.47 12.25,-634.2 -4.08,-654.94 -4.08,-672.86 12.25,-693.6 20.88,-704.54 39.39,-713.84 62.89,-721.69"/>
<polygon fill="none" stroke="black" points="60.11,-731.82 91.85,-730.09 65.96,-711.65 60.11,-731.82"/>
</g>
<!-- 733 -->
<g id="node18" class="node">
<title>733</title>
<polygon fill="#f2f2f2" stroke="black" points="21.66,-634.7 21.66,-693.1 540.85,-693.1 540.85,-634.7 21.66,-634.7"/>
<text text-anchor="middle" x="281.25" y="-676.5" font-family="Times,serif" font-size="14.00">&lt;&lt;Interface&gt;&gt;</text>
<text text-anchor="middle" x="281.25" y="-659.7" font-family="Times,serif" font-size="14.00">IERC20Metadata</text>
<text text-anchor="middle" x="281.25" y="-642.9" font-family="Times,serif" font-size="14.00">../node_modules/@openzeppelin/contracts/token/ERC20/extensions/IERC20Metadata.sol</text>
</g>
<!-- 238&#45;&gt;733 -->
<g id="edge27" class="edge">
<title>238&#45;&gt;733</title>
<path fill="none" stroke="black" stroke-dasharray="5,2" d="M281.25,-597.78C281.25,-599.86 281.25,-602 281.25,-604.18"/>
<polygon fill="none" stroke="black" points="270.75,-604.4 281.25,-634.4 291.75,-604.4 270.75,-604.4"/>
</g>
<!-- 733&#45;&gt;362 -->
<g id="edge28" class="edge">
<title>733&#45;&gt;362</title>
<path fill="none" stroke="black" stroke-dasharray="5,2" d="M281.25,-693.18C281.25,-695.26 281.25,-697.4 281.25,-699.58"/>
<polygon fill="none" stroke="black" points="270.75,-699.8 281.25,-729.8 291.75,-699.8 270.75,-699.8"/>
</g>
</g>
</svg>
