<?xml version="1.0" encoding="UTF-8" standalone="no"?>
<!DOCTYPE svg PUBLIC "-//W3C//DTD SVG 1.1//EN"
 "http://www.w3.org/Graphics/SVG/1.1/DTD/svg11.dtd">
<!-- Generated by graphviz version 5.0.0 (20220707.1540)
 -->
<!-- Title: StorageDiagram Pages: 1 -->
<svg width="1477pt" height="981pt"
 viewBox="0.00 0.00 1477.42 980.60" xmlns="http://www.w3.org/2000/svg" xmlns:xlink="http://www.w3.org/1999/xlink">
<g id="graph0" class="graph" transform="scale(1 1) rotate(0) translate(4 976.6)">
<title>StorageDiagram</title>
<polygon fill="white" stroke="transparent" points="-4,4 -4,-976.6 1473.42,-976.6 1473.42,4 -4,4"/>
<!-- 7 -->
<g id="node1" class="node">
<title>7</title>
<polygon fill="#f2f2f2" stroke="black" points="0,-424.5 0,-846.1 862.93,-846.1 862.93,-424.5 0,-424.5"/>
<text text-anchor="middle" x="431.47" y="-829.5" font-family="Courier New" font-size="14.00">BalancerMetaPoolStrategy &lt;&lt;Contract&gt;&gt;</text>
<polyline fill="none" stroke="black" points="0,-821.3 862.93,-821.3 "/>
<text text-anchor="middle" x="37.4" y="-804.7" font-family="Courier New" font-size="14.00">slot</text>
<polyline fill="none" stroke="black" points="0,-796.5 74.81,-796.5 "/>
<text text-anchor="middle" x="37.4" y="-779.9" font-family="Courier New" font-size="14.00">0</text>
<polyline fill="none" stroke="black" points="0,-771.7 74.81,-771.7 "/>
<text text-anchor="middle" x="37.4" y="-755.1" font-family="Courier New" font-size="14.00">1&#45;50</text>
<polyline fill="none" stroke="black" points="0,-746.9 74.81,-746.9 "/>
<text text-anchor="middle" x="37.4" y="-730.3" font-family="Courier New" font-size="14.00">51</text>
<polyline fill="none" stroke="black" points="0,-722.1 74.81,-722.1 "/>
<text text-anchor="middle" x="37.4" y="-705.5" font-family="Courier New" font-size="14.00">52</text>
<polyline fill="none" stroke="black" points="0,-697.3 74.81,-697.3 "/>
<text text-anchor="middle" x="37.4" y="-680.7" font-family="Courier New" font-size="14.00">53</text>
<polyline fill="none" stroke="black" points="0,-672.5 74.81,-672.5 "/>
<text text-anchor="middle" x="37.4" y="-655.9" font-family="Courier New" font-size="14.00">54</text>
<polyline fill="none" stroke="black" points="0,-647.7 74.81,-647.7 "/>
<text text-anchor="middle" x="37.4" y="-631.1" font-family="Courier New" font-size="14.00">55</text>
<polyline fill="none" stroke="black" points="0,-622.9 74.81,-622.9 "/>
<text text-anchor="middle" x="37.4" y="-606.3" font-family="Courier New" font-size="14.00">56</text>
<polyline fill="none" stroke="black" points="0,-598.1 74.81,-598.1 "/>
<text text-anchor="middle" x="37.4" y="-581.5" font-family="Courier New" font-size="14.00">57</text>
<polyline fill="none" stroke="black" points="0,-573.3 74.81,-573.3 "/>
<text text-anchor="middle" x="37.4" y="-556.7" font-family="Courier New" font-size="14.00">58</text>
<polyline fill="none" stroke="black" points="0,-548.5 74.81,-548.5 "/>
<text text-anchor="middle" x="37.4" y="-531.9" font-family="Courier New" font-size="14.00">59&#45;156</text>
<polyline fill="none" stroke="black" points="0,-523.7 74.81,-523.7 "/>
<text text-anchor="middle" x="37.4" y="-507.1" font-family="Courier New" font-size="14.00">157</text>
<polyline fill="none" stroke="black" points="0,-498.9 74.81,-498.9 "/>
<text text-anchor="middle" x="37.4" y="-482.3" font-family="Courier New" font-size="14.00">158</text>
<polyline fill="none" stroke="black" points="0,-474.1 74.81,-474.1 "/>
<text text-anchor="middle" x="37.4" y="-457.5" font-family="Courier New" font-size="14.00">159&#45;208</text>
<polyline fill="none" stroke="black" points="0,-449.3 74.81,-449.3 "/>
<text text-anchor="middle" x="37.4" y="-432.7" font-family="Courier New" font-size="14.00">209&#45;258</text>
<polyline fill="none" stroke="black" points="74.81,-424.5 74.81,-821.3 "/>
<text text-anchor="middle" x="468.87" y="-804.7" font-family="Courier New" font-size="14.00">type: &lt;inherited contract&gt;.variable (bytes)</text>
<polyline fill="none" stroke="black" points="74.81,-796.5 862.93,-796.5 "/>
<text text-anchor="middle" x="151.52" y="-779.9" font-family="Courier New" font-size="14.00">unallocated (30)</text>
<polyline fill="none" stroke="black" points="228.23,-771.7 228.23,-796.5 "/>
<text text-anchor="middle" x="388.96" y="-779.9" font-family="Courier New" font-size="14.00">bool: Initializable.initializing (1)</text>
<polyline fill="none" stroke="black" points="549.68,-771.7 549.68,-796.5 "/>
<text text-anchor="middle" x="706.2" y="-779.9" font-family="Courier New" font-size="14.00">bool: Initializable.initialized (1)</text>
<polyline fill="none" stroke="black" points="74.81,-771.7 862.93,-771.7 "/>
<text text-anchor="middle" x="468.44" y="-755.1" font-family="Courier New" font-size="14.00">uint256[50]: Initializable.______gap (1600)</text>
<polyline fill="none" stroke="black" points="74.81,-746.9 862.93,-746.9 "/>
<text text-anchor="middle" x="156.02" y="-730.3" font-family="Courier New" font-size="14.00">unallocated (12)</text>
<polyline fill="none" stroke="black" points="237.23,-722.1 237.23,-746.9 "/>
<text text-anchor="middle" x="549.98" y="-730.3" font-family="Courier New" font-size="14.00">address: InitializableAbstractStrategy._deprecated_platformAddress (20)</text>
<polyline fill="none" stroke="black" points="74.81,-722.1 862.93,-722.1 "/>
<text text-anchor="middle" x="162.52" y="-705.5" font-family="Courier New" font-size="14.00">unallocated (12)</text>
<polyline fill="none" stroke="black" points="250.23,-697.3 250.23,-722.1 "/>
<text text-anchor="middle" x="556.38" y="-705.5" font-family="Courier New" font-size="14.00">address: InitializableAbstractStrategy._deprecated_vaultAddress (20)</text>
<polyline fill="none" stroke="black" points="74.81,-697.3 862.93,-697.3 "/>
<text text-anchor="middle" x="468.86" y="-680.7" font-family="Courier New" font-size="14.00">mapping(address=&gt;address): InitializableAbstractStrategy.assetToPToken (32)</text>
<polyline fill="none" stroke="black" points="74.81,-672.5 862.93,-672.5 "/>
<text text-anchor="middle" x="468.45" y="-655.9" font-family="Courier New" font-size="14.00">address[]: InitializableAbstractStrategy.assetsMapped (32)</text>
<polyline fill="none" stroke="black" points="74.81,-647.7 862.93,-647.7 "/>
<text text-anchor="middle" x="150.02" y="-631.1" font-family="Courier New" font-size="14.00">unallocated (12)</text>
<polyline fill="none" stroke="black" points="225.23,-622.9 225.23,-647.7 "/>
<text text-anchor="middle" x="544.08" y="-631.1" font-family="Courier New" font-size="14.00">address: InitializableAbstractStrategy._deprecated_rewardTokenAddress (20)</text>
<polyline fill="none" stroke="black" points="74.81,-622.9 862.93,-622.9 "/>
<text text-anchor="middle" x="468.77" y="-606.3" font-family="Courier New" font-size="14.00">uint256: InitializableAbstractStrategy._deprecated_rewardLiquidationThreshold (32)</text>
<polyline fill="none" stroke="black" points="74.81,-598.1 862.93,-598.1 "/>
<text text-anchor="middle" x="179.02" y="-581.5" font-family="Courier New" font-size="14.00">unallocated (12)</text>
<polyline fill="none" stroke="black" points="283.23,-573.3 283.23,-598.1 "/>
<text text-anchor="middle" x="572.77" y="-581.5" font-family="Courier New" font-size="14.00">address: InitializableAbstractStrategy.harvesterAddress (20)</text>
<polyline fill="none" stroke="black" points="74.81,-573.3 862.93,-573.3 "/>
<text text-anchor="middle" x="468.55" y="-556.7" font-family="Courier New" font-size="14.00">address[]: InitializableAbstractStrategy.rewardTokenAddresses (32)</text>
<polyline fill="none" stroke="black" points="74.81,-548.5 862.93,-548.5 "/>
<text text-anchor="middle" x="468.45" y="-531.9" font-family="Courier New" font-size="14.00">int256[98]: InitializableAbstractStrategy._reserved (3136)</text>
<polyline fill="none" stroke="black" points="74.81,-523.7 862.93,-523.7 "/>
<text text-anchor="middle" x="468.55" y="-507.1" font-family="Courier New" font-size="14.00">uint256: BaseBalancerStrategy.maxWithdrawalSlippage (32)</text>
<polyline fill="none" stroke="black" points="74.81,-498.9 862.93,-498.9 "/>
<text text-anchor="middle" x="468.45" y="-482.3" font-family="Courier New" font-size="14.00">uint256: BaseBalancerStrategy.maxDepositSlippage (32)</text>
<polyline fill="none" stroke="black" points="74.81,-474.1 862.93,-474.1 "/>
<text text-anchor="middle" x="468.84" y="-457.5" font-family="Courier New" font-size="14.00">int256[50]: BaseBalancerStrategy.__reserved (1600)</text>
<polyline fill="none" stroke="black" points="74.81,-449.3 862.93,-449.3 "/>
<text text-anchor="middle" x="468.44" y="-432.7" font-family="Courier New" font-size="14.00">int256[50]: BaseAuraStrategy.__reserved_2 (1600)</text>
</g>
<!-- 1 -->
<g id="node2" class="node">
<title>1</title>
<polygon fill="#f2f2f2" stroke="black" points="1041.76,-798.5 1041.76,-972.1 1326.6,-972.1 1326.6,-798.5 1041.76,-798.5"/>
<text text-anchor="middle" x="1184.18" y="-955.5" font-family="Courier New" font-size="14.00">uint256[50]: ______gap &lt;&lt;Array&gt;&gt;</text>
<polyline fill="none" stroke="black" points="1041.76,-947.3 1326.6,-947.3 "/>
<text text-anchor="middle" x="1075.06" y="-930.7" font-family="Courier New" font-size="14.00">slot</text>
<polyline fill="none" stroke="black" points="1041.76,-922.5 1108.36,-922.5 "/>
<text text-anchor="middle" x="1075.06" y="-905.9" font-family="Courier New" font-size="14.00">1</text>
<polyline fill="none" stroke="black" points="1041.76,-897.7 1108.36,-897.7 "/>
<text text-anchor="middle" x="1075.06" y="-881.1" font-family="Courier New" font-size="14.00">2</text>
<polyline fill="none" stroke="black" points="1041.76,-872.9 1108.36,-872.9 "/>
<text text-anchor="middle" x="1075.06" y="-856.3" font-family="Courier New" font-size="14.00">3&#45;48</text>
<polyline fill="none" stroke="black" points="1041.76,-848.1 1108.36,-848.1 "/>
<text text-anchor="middle" x="1075.06" y="-831.5" font-family="Courier New" font-size="14.00">49</text>
<polyline fill="none" stroke="black" points="1041.76,-823.3 1108.36,-823.3 "/>
<text text-anchor="middle" x="1075.06" y="-806.7" font-family="Courier New" font-size="14.00">50</text>
<polyline fill="none" stroke="black" points="1108.36,-798.5 1108.36,-947.3 "/>
<text text-anchor="middle" x="1217.28" y="-930.7" font-family="Courier New" font-size="14.00">type: variable (bytes)</text>
<polyline fill="none" stroke="black" points="1108.36,-922.5 1326.19,-922.5 "/>
<text text-anchor="middle" x="1217.27" y="-905.9" font-family="Courier New" font-size="14.00">uint256 (32)</text>
<polyline fill="none" stroke="black" points="1108.36,-897.7 1326.19,-897.7 "/>
<text text-anchor="middle" x="1217.27" y="-881.1" font-family="Courier New" font-size="14.00">uint256 (32)</text>
<polyline fill="none" stroke="black" points="1108.36,-872.9 1326.19,-872.9 "/>
<text text-anchor="middle" x="1217.07" y="-856.3" font-family="Courier New" font-size="14.00">&#45;&#45;&#45;&#45; (1472)</text>
<polyline fill="none" stroke="black" points="1108.36,-848.1 1326.19,-848.1 "/>
<text text-anchor="middle" x="1217.27" y="-831.5" font-family="Courier New" font-size="14.00">uint256 (32)</text>
<polyline fill="none" stroke="black" points="1108.36,-823.3 1326.19,-823.3 "/>
<text text-anchor="middle" x="1217.27" y="-806.7" font-family="Courier New" font-size="14.00">uint256 (32)</text>
</g>
<!-- 7&#45;&gt;1 -->
<g id="edge1" class="edge">
<title>7:8&#45;&gt;1</title>
<path fill="none" stroke="black" d="M862.93,-759.3C883.76,-759.3 880.76,-779.13 898.93,-789.3 940.01,-812.29 987.5,-831.01 1031.77,-845.61"/>
<polygon fill="black" stroke="black" points="1030.87,-849 1041.46,-848.76 1033.03,-842.34 1030.87,-849"/>
</g>
<!-- 2 -->
<g id="node3" class="node">
<title>2</title>
<polygon fill="#f2f2f2" stroke="black" points="898.93,-688.7 898.93,-779.9 1469.42,-779.9 1469.42,-688.7 898.93,-688.7"/>
<text text-anchor="middle" x="1184.18" y="-763.3" font-family="Courier New" font-size="14.00">address[]: assetsMapped &lt;&lt;Array&gt;&gt;</text>
<text text-anchor="middle" x="1184.18" y="-746.5" font-family="Courier New" font-size="14.00">0x4a11f94e20a93c79f6ec743a1954ec4fc2c08429ae2122118bf234b2185c81b8</text>
<polyline fill="none" stroke="black" points="898.93,-738.3 1469.42,-738.3 "/>
<text text-anchor="middle" x="991.14" y="-721.7" font-family="Courier New" font-size="14.00">offset</text>
<polyline fill="none" stroke="black" points="898.93,-713.5 1083.34,-713.5 "/>
<text text-anchor="middle" x="991.14" y="-696.9" font-family="Courier New" font-size="14.00">0</text>
<polyline fill="none" stroke="black" points="1083.34,-688.7 1083.34,-738.3 "/>
<text text-anchor="middle" x="1275.96" y="-721.7" font-family="Courier New" font-size="14.00">type: variable (bytes)</text>
<polyline fill="none" stroke="black" points="1083.34,-713.5 1468.58,-713.5 "/>
<text text-anchor="middle" x="1188.05" y="-696.9" font-family="Courier New" font-size="14.00">unallocated (12)</text>
<polyline fill="none" stroke="black" points="1292.76,-688.7 1292.76,-713.5 "/>
<text text-anchor="middle" x="1380.67" y="-696.9" font-family="Courier New" font-size="14.00">address (20)</text>
</g>
<!-- 7&#45;&gt;2 -->
<g id="edge2" class="edge">
<title>7:13&#45;&gt;2</title>
<path fill="none" stroke="black" d="M862.93,-660.3C881.02,-660.3 881.87,-673.29 898.93,-679.3 905.22,-681.51 911.63,-683.65 918.11,-685.7"/>
<polygon fill="black" stroke="black" points="917.08,-689.04 927.67,-688.65 919.15,-682.36 917.08,-689.04"/>
</g>
<!-- 3 -->
<g id="node4" class="node">
<title>3</title>
<polygon fill="#f2f2f2" stroke="black" points="898.93,-578.7 898.93,-669.9 1469.42,-669.9 1469.42,-578.7 898.93,-578.7"/>
<text text-anchor="middle" x="1184.18" y="-653.3" font-family="Courier New" font-size="14.00">address[]: rewardTokenAddresses &lt;&lt;Array&gt;&gt;</text>
<text text-anchor="middle" x="1184.18" y="-636.5" font-family="Courier New" font-size="14.00">0xa2999d817b6757290b50e8ecf3fa939673403dd35c97de392fdb343b4015ce9e</text>
<polyline fill="none" stroke="black" points="898.93,-628.3 1469.42,-628.3 "/>
<text text-anchor="middle" x="991.14" y="-611.7" font-family="Courier New" font-size="14.00">offset</text>
<polyline fill="none" stroke="black" points="898.93,-603.5 1083.34,-603.5 "/>
<text text-anchor="middle" x="991.14" y="-586.9" font-family="Courier New" font-size="14.00">0</text>
<polyline fill="none" stroke="black" points="1083.34,-578.7 1083.34,-628.3 "/>
<text text-anchor="middle" x="1275.96" y="-611.7" font-family="Courier New" font-size="14.00">type: variable (bytes)</text>
<polyline fill="none" stroke="black" points="1083.34,-603.5 1468.58,-603.5 "/>
<text text-anchor="middle" x="1188.05" y="-586.9" font-family="Courier New" font-size="14.00">unallocated (12)</text>
<polyline fill="none" stroke="black" points="1292.76,-578.7 1292.76,-603.5 "/>
<text text-anchor="middle" x="1380.67" y="-586.9" font-family="Courier New" font-size="14.00">address (20)</text>
</g>
<!-- 7&#45;&gt;3 -->
<g id="edge3" class="edge">
<title>7:18&#45;&gt;3</title>
<path fill="none" stroke="black" d="M862.93,-561.3C879.32,-561.3 882.89,-565.97 898.93,-569.3 910.56,-571.72 922.47,-574.16 934.5,-576.59"/>
<polygon fill="black" stroke="black" points="934.14,-580.09 944.63,-578.64 935.52,-573.23 934.14,-580.09"/>
</g>
<!-- 4 -->
<g id="node5" class="node">
<title>4</title>
<polygon fill="#f2f2f2" stroke="black" points="1045.96,-386.5 1045.96,-560.1 1322.4,-560.1 1322.4,-386.5 1045.96,-386.5"/>
<text text-anchor="middle" x="1184.18" y="-543.5" font-family="Courier New" font-size="14.00">int256[98]: _reserved &lt;&lt;Array&gt;&gt;</text>
<polyline fill="none" stroke="black" points="1045.96,-535.3 1322.4,-535.3 "/>
<text text-anchor="middle" x="1081.16" y="-518.7" font-family="Courier New" font-size="14.00">slot</text>
<polyline fill="none" stroke="black" points="1045.96,-510.5 1116.36,-510.5 "/>
<text text-anchor="middle" x="1081.16" y="-493.9" font-family="Courier New" font-size="14.00">59</text>
<polyline fill="none" stroke="black" points="1045.96,-485.7 1116.36,-485.7 "/>
<text text-anchor="middle" x="1081.16" y="-469.1" font-family="Courier New" font-size="14.00">60</text>
<polyline fill="none" stroke="black" points="1045.96,-460.9 1116.36,-460.9 "/>
<text text-anchor="middle" x="1081.16" y="-444.3" font-family="Courier New" font-size="14.00">61&#45;154</text>
<polyline fill="none" stroke="black" points="1045.96,-436.1 1116.36,-436.1 "/>
<text text-anchor="middle" x="1081.16" y="-419.5" font-family="Courier New" font-size="14.00">155</text>
<polyline fill="none" stroke="black" points="1045.96,-411.3 1116.36,-411.3 "/>
<text text-anchor="middle" x="1081.16" y="-394.7" font-family="Courier New" font-size="14.00">156</text>
<polyline fill="none" stroke="black" points="1116.36,-386.5 1116.36,-535.3 "/>
<text text-anchor="middle" x="1219.28" y="-518.7" font-family="Courier New" font-size="14.00">type: variable (bytes)</text>
<polyline fill="none" stroke="black" points="1116.36,-510.5 1322.19,-510.5 "/>
<text text-anchor="middle" x="1219.07" y="-493.9" font-family="Courier New" font-size="14.00">int256 (32)</text>
<polyline fill="none" stroke="black" points="1116.36,-485.7 1322.19,-485.7 "/>
<text text-anchor="middle" x="1219.07" y="-469.1" font-family="Courier New" font-size="14.00">int256 (32)</text>
<polyline fill="none" stroke="black" points="1116.36,-460.9 1322.19,-460.9 "/>
<text text-anchor="middle" x="1219.07" y="-444.3" font-family="Courier New" font-size="14.00">&#45;&#45;&#45;&#45; (3008)</text>
<polyline fill="none" stroke="black" points="1116.36,-436.1 1322.19,-436.1 "/>
<text text-anchor="middle" x="1219.07" y="-419.5" font-family="Courier New" font-size="14.00">int256 (32)</text>
<polyline fill="none" stroke="black" points="1116.36,-411.3 1322.19,-411.3 "/>
<text text-anchor="middle" x="1219.07" y="-394.7" font-family="Courier New" font-size="14.00">int256 (32)</text>
</g>
<!-- 7&#45;&gt;4 -->
<g id="edge4" class="edge">
<title>7:24&#45;&gt;4</title>
<path fill="none" stroke="black" d="M862.93,-536.3C920.01,-536.3 981.75,-526.55 1035.65,-514.71"/>
<polygon fill="black" stroke="black" points="1036.63,-518.08 1045.62,-512.48 1035.1,-511.25 1036.63,-518.08"/>
</g>
<!-- 5 -->
<g id="node6" class="node">
<title>5</title>
<polygon fill="#f2f2f2" stroke="black" points="1041.76,-193.5 1041.76,-367.1 1326.6,-367.1 1326.6,-193.5 1041.76,-193.5"/>
<text text-anchor="middle" x="1184.18" y="-350.5" font-family="Courier New" font-size="14.00">int256[50]: __reserved &lt;&lt;Array&gt;&gt;</text>
<polyline fill="none" stroke="black" points="1041.76,-342.3 1326.6,-342.3 "/>
<text text-anchor="middle" x="1081.16" y="-325.7" font-family="Courier New" font-size="14.00">slot</text>
<polyline fill="none" stroke="black" points="1041.76,-317.5 1120.57,-317.5 "/>
<text text-anchor="middle" x="1081.16" y="-300.9" font-family="Courier New" font-size="14.00">159</text>
<polyline fill="none" stroke="black" points="1041.76,-292.7 1120.57,-292.7 "/>
<text text-anchor="middle" x="1081.16" y="-276.1" font-family="Courier New" font-size="14.00">160</text>
<polyline fill="none" stroke="black" points="1041.76,-267.9 1120.57,-267.9 "/>
<text text-anchor="middle" x="1081.16" y="-251.3" font-family="Courier New" font-size="14.00">161&#45;206</text>
<polyline fill="none" stroke="black" points="1041.76,-243.1 1120.57,-243.1 "/>
<text text-anchor="middle" x="1081.16" y="-226.5" font-family="Courier New" font-size="14.00">207</text>
<polyline fill="none" stroke="black" points="1041.76,-218.3 1120.57,-218.3 "/>
<text text-anchor="middle" x="1081.16" y="-201.7" font-family="Courier New" font-size="14.00">208</text>
<polyline fill="none" stroke="black" points="1120.57,-193.5 1120.57,-342.3 "/>
<text text-anchor="middle" x="1223.48" y="-325.7" font-family="Courier New" font-size="14.00">type: variable (bytes)</text>
<polyline fill="none" stroke="black" points="1120.57,-317.5 1326.4,-317.5 "/>
<text text-anchor="middle" x="1223.27" y="-300.9" font-family="Courier New" font-size="14.00">int256 (32)</text>
<polyline fill="none" stroke="black" points="1120.57,-292.7 1326.4,-292.7 "/>
<text text-anchor="middle" x="1223.27" y="-276.1" font-family="Courier New" font-size="14.00">int256 (32)</text>
<polyline fill="none" stroke="black" points="1120.57,-267.9 1326.4,-267.9 "/>
<text text-anchor="middle" x="1223.27" y="-251.3" font-family="Courier New" font-size="14.00">&#45;&#45;&#45;&#45; (1472)</text>
<polyline fill="none" stroke="black" points="1120.57,-243.1 1326.4,-243.1 "/>
<text text-anchor="middle" x="1223.27" y="-226.5" font-family="Courier New" font-size="14.00">int256 (32)</text>
<polyline fill="none" stroke="black" points="1120.57,-218.3 1326.4,-218.3 "/>
<text text-anchor="middle" x="1223.27" y="-201.7" font-family="Courier New" font-size="14.00">int256 (32)</text>
</g>
<!-- 7&#45;&gt;5 -->
<g id="edge5" class="edge">
<title>7:32&#45;&gt;5</title>
<path fill="none" stroke="black" d="M862.93,-461.3C903.55,-461.3 869.14,-404.91 898.93,-377.3 935.61,-343.31 984.69,-321.18 1031.74,-306.78"/>
<polygon fill="black" stroke="black" points="1032.83,-310.11 1041.43,-303.92 1030.85,-303.4 1032.83,-310.11"/>
</g>
<!-- 6 -->
<g id="node7" class="node">
<title>6</title>
<polygon fill="#f2f2f2" stroke="black" points="1033.35,-0.5 1033.35,-174.1 1335,-174.1 1335,-0.5 1033.35,-0.5"/>
<text text-anchor="middle" x="1184.18" y="-157.5" font-family="Courier New" font-size="14.00">int256[50]: __reserved_2 &lt;&lt;Array&gt;&gt;</text>
<polyline fill="none" stroke="black" points="1033.35,-149.3 1335,-149.3 "/>
<text text-anchor="middle" x="1077.26" y="-132.7" font-family="Courier New" font-size="14.00">slot</text>
<polyline fill="none" stroke="black" points="1033.35,-124.5 1121.16,-124.5 "/>
<text text-anchor="middle" x="1077.26" y="-107.9" font-family="Courier New" font-size="14.00">209</text>
<polyline fill="none" stroke="black" points="1033.35,-99.7 1121.16,-99.7 "/>
<text text-anchor="middle" x="1077.26" y="-83.1" font-family="Courier New" font-size="14.00">210</text>
<polyline fill="none" stroke="black" points="1033.35,-74.9 1121.16,-74.9 "/>
<text text-anchor="middle" x="1077.26" y="-58.3" font-family="Courier New" font-size="14.00">211&#45;256</text>
<polyline fill="none" stroke="black" points="1033.35,-50.1 1121.16,-50.1 "/>
<text text-anchor="middle" x="1077.26" y="-33.5" font-family="Courier New" font-size="14.00">257</text>
<polyline fill="none" stroke="black" points="1033.35,-25.3 1121.16,-25.3 "/>
<text text-anchor="middle" x="1077.26" y="-8.7" font-family="Courier New" font-size="14.00">258</text>
<polyline fill="none" stroke="black" points="1121.16,-0.5 1121.16,-149.3 "/>
<text text-anchor="middle" x="1228.08" y="-132.7" font-family="Courier New" font-size="14.00">type: variable (bytes)</text>
<polyline fill="none" stroke="black" points="1121.16,-124.5 1334.99,-124.5 "/>
<text text-anchor="middle" x="1227.87" y="-107.9" font-family="Courier New" font-size="14.00">int256 (32)</text>
<polyline fill="none" stroke="black" points="1121.16,-99.7 1334.99,-99.7 "/>
<text text-anchor="middle" x="1227.87" y="-83.1" font-family="Courier New" font-size="14.00">int256 (32)</text>
<polyline fill="none" stroke="black" points="1121.16,-74.9 1334.99,-74.9 "/>
<text text-anchor="middle" x="1227.87" y="-58.3" font-family="Courier New" font-size="14.00">&#45;&#45;&#45;&#45; (1472)</text>
<polyline fill="none" stroke="black" points="1121.16,-50.1 1334.99,-50.1 "/>
<text text-anchor="middle" x="1227.87" y="-33.5" font-family="Courier New" font-size="14.00">int256 (32)</text>
<polyline fill="none" stroke="black" points="1121.16,-25.3 1334.99,-25.3 "/>
<text text-anchor="middle" x="1227.87" y="-8.7" font-family="Courier New" font-size="14.00">int256 (32)</text>
</g>
<!-- 7&#45;&gt;6 -->
<g id="edge6" class="edge">
<title>7:38&#45;&gt;6</title>
<path fill="none" stroke="black" d="M862.93,-437.3C919.72,-437.3 862.71,-228.04 898.93,-184.3 930.28,-146.45 977.08,-123.32 1023.7,-109.2"/>
<polygon fill="black" stroke="black" points="1024.69,-112.56 1033.32,-106.41 1022.74,-105.83 1024.69,-112.56"/>
</g>
</g>
</svg>
