<?xml version="1.0" encoding="UTF-8" standalone="no"?>
<!DOCTYPE svg PUBLIC "-//W3C//DTD SVG 1.1//EN"
 "http://www.w3.org/Graphics/SVG/1.1/DTD/svg11.dtd">
<!-- Generated by graphviz version 5.0.0 (20220707.1540)
 -->
<!-- Title: StorageDiagram Pages: 1 -->
<svg width="1561pt" height="455pt"
 viewBox="0.00 0.00 1561.44 455.40" xmlns="http://www.w3.org/2000/svg" xmlns:xlink="http://www.w3.org/1999/xlink">
<g id="graph0" class="graph" transform="scale(1 1) rotate(0) translate(4 451.4)">
<title>StorageDiagram</title>
<polygon fill="white" stroke="transparent" points="-4,4 -4,-451.4 1557.44,-451.4 1557.44,4 -4,4"/>
<!-- 3 -->
<g id="node1" class="node">
<title>3</title>
<polygon fill="#f2f2f2" stroke="black" points="0,-0.5 0,-446.9 946.95,-446.9 946.95,-0.5 0,-0.5"/>
<text text-anchor="middle" x="473.47" y="-430.3" font-family="Courier New" font-size="14.00">BridgedWOETHMigrationStrategy &lt;&lt;Contract&gt;&gt;</text>
<polyline fill="none" stroke="black" points="0,-422.1 946.95,-422.1 "/>
<text text-anchor="middle" x="37.4" y="-405.5" font-family="Courier New" font-size="14.00">slot</text>
<polyline fill="none" stroke="black" points="0,-397.3 74.81,-397.3 "/>
<text text-anchor="middle" x="37.4" y="-380.7" font-family="Courier New" font-size="14.00">0</text>
<polyline fill="none" stroke="black" points="0,-372.5 74.81,-372.5 "/>
<text text-anchor="middle" x="37.4" y="-355.9" font-family="Courier New" font-size="14.00">1&#45;50</text>
<polyline fill="none" stroke="black" points="0,-347.7 74.81,-347.7 "/>
<text text-anchor="middle" x="37.4" y="-331.1" font-family="Courier New" font-size="14.00">51</text>
<polyline fill="none" stroke="black" points="0,-322.9 74.81,-322.9 "/>
<text text-anchor="middle" x="37.4" y="-306.3" font-family="Courier New" font-size="14.00">52</text>
<polyline fill="none" stroke="black" points="0,-298.1 74.81,-298.1 "/>
<text text-anchor="middle" x="37.4" y="-281.5" font-family="Courier New" font-size="14.00">53</text>
<polyline fill="none" stroke="black" points="0,-273.3 74.81,-273.3 "/>
<text text-anchor="middle" x="37.4" y="-256.7" font-family="Courier New" font-size="14.00">54</text>
<polyline fill="none" stroke="black" points="0,-248.5 74.81,-248.5 "/>
<text text-anchor="middle" x="37.4" y="-231.9" font-family="Courier New" font-size="14.00">55</text>
<polyline fill="none" stroke="black" points="0,-223.7 74.81,-223.7 "/>
<text text-anchor="middle" x="37.4" y="-207.1" font-family="Courier New" font-size="14.00">56</text>
<polyline fill="none" stroke="black" points="0,-198.9 74.81,-198.9 "/>
<text text-anchor="middle" x="37.4" y="-182.3" font-family="Courier New" font-size="14.00">57</text>
<polyline fill="none" stroke="black" points="0,-174.1 74.81,-174.1 "/>
<text text-anchor="middle" x="37.4" y="-157.5" font-family="Courier New" font-size="14.00">58</text>
<polyline fill="none" stroke="black" points="0,-149.3 74.81,-149.3 "/>
<text text-anchor="middle" x="37.4" y="-132.7" font-family="Courier New" font-size="14.00">59&#45;156</text>
<polyline fill="none" stroke="black" points="0,-124.5 74.81,-124.5 "/>
<text text-anchor="middle" x="37.4" y="-107.9" font-family="Courier New" font-size="14.00">157</text>
<polyline fill="none" stroke="black" points="0,-99.7 74.81,-99.7 "/>
<text text-anchor="middle" x="37.4" y="-83.1" font-family="Courier New" font-size="14.00">158</text>
<polyline fill="none" stroke="black" points="0,-74.9 74.81,-74.9 "/>
<text text-anchor="middle" x="37.4" y="-58.3" font-family="Courier New" font-size="14.00">159</text>
<polyline fill="none" stroke="black" points="0,-50.1 74.81,-50.1 "/>
<text text-anchor="middle" x="37.4" y="-33.5" font-family="Courier New" font-size="14.00">160</text>
<polyline fill="none" stroke="black" points="0,-25.3 74.81,-25.3 "/>
<text text-anchor="middle" x="37.4" y="-8.7" font-family="Courier New" font-size="14.00">161&#45;207</text>
<polyline fill="none" stroke="black" points="74.81,-0.5 74.81,-422.1 "/>
<text text-anchor="middle" x="510.88" y="-405.5" font-family="Courier New" font-size="14.00">type: &lt;inherited contract&gt;.variable (bytes)</text>
<polyline fill="none" stroke="black" points="74.81,-397.3 946.95,-397.3 "/>
<text text-anchor="middle" x="165.52" y="-380.7" font-family="Courier New" font-size="14.00">unallocated (30)</text>
<polyline fill="none" stroke="black" points="256.23,-372.5 256.23,-397.3 "/>
<text text-anchor="middle" x="430.96" y="-380.7" font-family="Courier New" font-size="14.00">bool: Initializable.initializing (1)</text>
<polyline fill="none" stroke="black" points="605.68,-372.5 605.68,-397.3 "/>
<text text-anchor="middle" x="776.2" y="-380.7" font-family="Courier New" font-size="14.00">bool: Initializable.initialized (1)</text>
<polyline fill="none" stroke="black" points="74.81,-372.5 946.95,-372.5 "/>
<text text-anchor="middle" x="510.44" y="-355.9" font-family="Courier New" font-size="14.00">uint256[50]: Initializable.______gap (1600)</text>
<polyline fill="none" stroke="black" points="74.81,-347.7 946.95,-347.7 "/>
<text text-anchor="middle" x="177.02" y="-331.1" font-family="Courier New" font-size="14.00">unallocated (12)</text>
<polyline fill="none" stroke="black" points="279.23,-322.9 279.23,-347.7 "/>
<text text-anchor="middle" x="612.98" y="-331.1" font-family="Courier New" font-size="14.00">address: InitializableAbstractStrategy._deprecated_platformAddress (20)</text>
<polyline fill="none" stroke="black" points="74.81,-322.9 946.95,-322.9 "/>
<text text-anchor="middle" x="183.52" y="-306.3" font-family="Courier New" font-size="14.00">unallocated (12)</text>
<polyline fill="none" stroke="black" points="292.23,-298.1 292.23,-322.9 "/>
<text text-anchor="middle" x="619.38" y="-306.3" font-family="Courier New" font-size="14.00">address: InitializableAbstractStrategy._deprecated_vaultAddress (20)</text>
<polyline fill="none" stroke="black" points="74.81,-298.1 946.95,-298.1 "/>
<text text-anchor="middle" x="510.86" y="-281.5" font-family="Courier New" font-size="14.00">mapping(address=&gt;address): InitializableAbstractStrategy.assetToPToken (32)</text>
<polyline fill="none" stroke="black" points="74.81,-273.3 946.95,-273.3 "/>
<text text-anchor="middle" x="510.45" y="-256.7" font-family="Courier New" font-size="14.00">address[]: InitializableAbstractStrategy.assetsMapped (32)</text>
<polyline fill="none" stroke="black" points="74.81,-248.5 946.95,-248.5 "/>
<text text-anchor="middle" x="171.02" y="-231.9" font-family="Courier New" font-size="14.00">unallocated (12)</text>
<polyline fill="none" stroke="black" points="267.23,-223.7 267.23,-248.5 "/>
<text text-anchor="middle" x="607.08" y="-231.9" font-family="Courier New" font-size="14.00">address: InitializableAbstractStrategy._deprecated_rewardTokenAddress (20)</text>
<polyline fill="none" stroke="black" points="74.81,-223.7 946.95,-223.7 "/>
<text text-anchor="middle" x="510.77" y="-207.1" font-family="Courier New" font-size="14.00">uint256: InitializableAbstractStrategy._deprecated_rewardLiquidationThreshold (32)</text>
<polyline fill="none" stroke="black" points="74.81,-198.9 946.95,-198.9 "/>
<text text-anchor="middle" x="200.02" y="-182.3" font-family="Courier New" font-size="14.00">unallocated (12)</text>
<polyline fill="none" stroke="black" points="325.23,-174.1 325.23,-198.9 "/>
<text text-anchor="middle" x="635.77" y="-182.3" font-family="Courier New" font-size="14.00">address: InitializableAbstractStrategy.harvesterAddress (20)</text>
<polyline fill="none" stroke="black" points="74.81,-174.1 946.95,-174.1 "/>
<text text-anchor="middle" x="510.55" y="-157.5" font-family="Courier New" font-size="14.00">address[]: InitializableAbstractStrategy.rewardTokenAddresses (32)</text>
<polyline fill="none" stroke="black" points="74.81,-149.3 946.95,-149.3 "/>
<text text-anchor="middle" x="510.45" y="-132.7" font-family="Courier New" font-size="14.00">int256[98]: InitializableAbstractStrategy._reserved (3136)</text>
<polyline fill="none" stroke="black" points="74.81,-124.5 946.95,-124.5 "/>
<text text-anchor="middle" x="292.84" y="-107.9" font-family="Courier New" font-size="14.00">uint128: BridgedWOETHStrategy.maxPriceDiffBps (16)</text>
<polyline fill="none" stroke="black" points="510.88,-99.7 510.88,-124.5 "/>
<text text-anchor="middle" x="728.91" y="-107.9" font-family="Courier New" font-size="14.00">uint128: BridgedWOETHStrategy.lastOraclePrice (16)</text>
<polyline fill="none" stroke="black" points="74.81,-99.7 946.95,-99.7 "/>
<text text-anchor="middle" x="510.53" y="-83.1" font-family="Courier New" font-size="14.00">uint256: totalBridged (32)</text>
<polyline fill="none" stroke="black" points="74.81,-74.9 946.95,-74.9 "/>
<text text-anchor="middle" x="510.53" y="-58.3" font-family="Courier New" font-size="14.00">uint256: maxPerBridge (32)</text>
<polyline fill="none" stroke="black" points="74.81,-50.1 946.95,-50.1 "/>
<text text-anchor="middle" x="280.02" y="-33.5" font-family="Courier New" font-size="14.00">unallocated (12)</text>
<polyline fill="none" stroke="black" points="485.23,-25.3 485.23,-50.1 "/>
<text text-anchor="middle" x="715.65" y="-33.5" font-family="Courier New" font-size="14.00">address: operator (20)</text>
<polyline fill="none" stroke="black" points="74.81,-25.3 946.95,-25.3 "/>
<text text-anchor="middle" x="510.83" y="-8.7" font-family="Courier New" font-size="14.00">uint256[47]: __gap (1504)</text>
</g>
<!-- 1 -->
<g id="node2" class="node">
<title>1</title>
<polygon fill="#f2f2f2" stroke="black" points="982.95,-221.1 982.95,-312.3 1553.44,-312.3 1553.44,-221.1 982.95,-221.1"/>
<text text-anchor="middle" x="1268.19" y="-295.7" font-family="Courier New" font-size="14.00">address[]: assetsMapped &lt;&lt;Array&gt;&gt;</text>
<text text-anchor="middle" x="1268.19" y="-278.9" font-family="Courier New" font-size="14.00">0x4a11f94e20a93c79f6ec743a1954ec4fc2c08429ae2122118bf234b2185c81b8</text>
<polyline fill="none" stroke="black" points="982.95,-270.7 1553.44,-270.7 "/>
<text text-anchor="middle" x="1075.15" y="-254.1" font-family="Courier New" font-size="14.00">offset</text>
<polyline fill="none" stroke="black" points="982.95,-245.9 1167.35,-245.9 "/>
<text text-anchor="middle" x="1075.15" y="-229.3" font-family="Courier New" font-size="14.00">0</text>
<polyline fill="none" stroke="black" points="1167.35,-221.1 1167.35,-270.7 "/>
<text text-anchor="middle" x="1359.97" y="-254.1" font-family="Courier New" font-size="14.00">type: variable (bytes)</text>
<polyline fill="none" stroke="black" points="1167.35,-245.9 1552.59,-245.9 "/>
<text text-anchor="middle" x="1272.07" y="-229.3" font-family="Courier New" font-size="14.00">unallocated (12)</text>
<polyline fill="none" stroke="black" points="1376.78,-221.1 1376.78,-245.9 "/>
<text text-anchor="middle" x="1464.68" y="-229.3" font-family="Courier New" font-size="14.00">address (20)</text>
</g>
<!-- 3&#45;&gt;1 -->
<g id="edge1" class="edge">
<title>3:8&#45;&gt;1</title>
<path fill="none" stroke="black" d="M946.95,-260.7C955.34,-260.7 963.86,-260.72 972.45,-260.76"/>
<polygon fill="black" stroke="black" points="972.56,-264.26 982.58,-260.81 972.6,-257.26 972.56,-264.26"/>
</g>
<!-- 2 -->
<g id="node3" class="node">
<title>2</title>
<polygon fill="#f2f2f2" stroke="black" points="982.95,-111.1 982.95,-202.3 1553.44,-202.3 1553.44,-111.1 982.95,-111.1"/>
<text text-anchor="middle" x="1268.19" y="-185.7" font-family="Courier New" font-size="14.00">address[]: rewardTokenAddresses &lt;&lt;Array&gt;&gt;</text>
<text text-anchor="middle" x="1268.19" y="-168.9" font-family="Courier New" font-size="14.00">0xa2999d817b6757290b50e8ecf3fa939673403dd35c97de392fdb343b4015ce9e</text>
<polyline fill="none" stroke="black" points="982.95,-160.7 1553.44,-160.7 "/>
<text text-anchor="middle" x="1075.15" y="-144.1" font-family="Courier New" font-size="14.00">offset</text>
<polyline fill="none" stroke="black" points="982.95,-135.9 1167.35,-135.9 "/>
<text text-anchor="middle" x="1075.15" y="-119.3" font-family="Courier New" font-size="14.00">0</text>
<polyline fill="none" stroke="black" points="1167.35,-111.1 1167.35,-160.7 "/>
<text text-anchor="middle" x="1359.97" y="-144.1" font-family="Courier New" font-size="14.00">type: variable (bytes)</text>
<polyline fill="none" stroke="black" points="1167.35,-135.9 1552.59,-135.9 "/>
<text text-anchor="middle" x="1272.07" y="-119.3" font-family="Courier New" font-size="14.00">unallocated (12)</text>
<polyline fill="none" stroke="black" points="1376.78,-111.1 1376.78,-135.9 "/>
<text text-anchor="middle" x="1464.68" y="-119.3" font-family="Courier New" font-size="14.00">address (20)</text>
</g>
<!-- 3&#45;&gt;2 -->
<g id="edge2" class="edge">
<title>3:13&#45;&gt;2</title>
<path fill="none" stroke="black" d="M946.95,-161.7C955.34,-161.7 963.86,-161.68 972.45,-161.65"/>
<polygon fill="black" stroke="black" points="972.59,-165.15 982.58,-161.6 972.56,-158.15 972.59,-165.15"/>
</g>
</g>
</svg>
