<?xml version="1.0" encoding="UTF-8" standalone="no"?>
<!DOCTYPE svg PUBLIC "-//W3C//DTD SVG 1.1//EN"
 "http://www.w3.org/Graphics/SVG/1.1/DTD/svg11.dtd">
<!-- Generated by graphviz version 5.0.0 (20220707.1540)
 -->
<!-- Title: UmlClassDiagram Pages: 1 -->
<svg width="1208pt" height="468pt"
 viewBox="0.00 0.00 1208.44 468.40" xmlns="http://www.w3.org/2000/svg" xmlns:xlink="http://www.w3.org/1999/xlink">
<g id="graph0" class="graph" transform="scale(1 1) rotate(0) translate(4 464.4)">
<title>UmlClassDiagram</title>
<polygon fill="white" stroke="transparent" points="-4,4 -4,-464.4 1204.44,-464.4 1204.44,4 -4,4"/>
<!-- 82 -->
<g id="node1" class="node">
<title>82</title>
<polygon fill="#f2f2f2" stroke="black" points="0,-121.5 0,-163.1 97.31,-163.1 97.31,-121.5 0,-121.5"/>
<text text-anchor="middle" x="48.66" y="-146.5" font-family="Times,serif" font-size="14.00">&lt;&lt;Interface&gt;&gt;</text>
<text text-anchor="middle" x="48.66" y="-129.7" font-family="Times,serif" font-size="14.00">IOracle</text>
</g>
<!-- 87 -->
<g id="node2" class="node">
<title>87</title>
<polygon fill="#f2f2f2" stroke="black" points="115,-121.5 115,-163.1 212.31,-163.1 212.31,-121.5 115,-121.5"/>
<text text-anchor="middle" x="163.66" y="-146.5" font-family="Times,serif" font-size="14.00">&lt;&lt;Interface&gt;&gt;</text>
<text text-anchor="middle" x="163.66" y="-129.7" font-family="Times,serif" font-size="14.00">IStrategy</text>
</g>
<!-- 90 -->
<g id="node3" class="node">
<title>90</title>
<polygon fill="#f2f2f2" stroke="black" points="230,-121.5 230,-163.1 327.31,-163.1 327.31,-121.5 230,-121.5"/>
<text text-anchor="middle" x="278.66" y="-146.5" font-family="Times,serif" font-size="14.00">&lt;&lt;Interface&gt;&gt;</text>
<text text-anchor="middle" x="278.66" y="-129.7" font-family="Times,serif" font-size="14.00">IVault</text>
</g>
<!-- 276 -->
<g id="node9" class="node">
<title>276</title>
<polygon fill="#f2f2f2" stroke="black" points="318.15,-248.1 318.15,-289.7 413.16,-289.7 413.16,-248.1 318.15,-248.1"/>
<text text-anchor="middle" x="365.66" y="-273.1" font-family="Times,serif" font-size="14.00">&lt;&lt;Abstract&gt;&gt;</text>
<text text-anchor="middle" x="365.66" y="-256.3" font-family="Times,serif" font-size="14.00">VaultStorage</text>
</g>
<!-- 90&#45;&gt;276 -->
<g id="edge1" class="edge">
<title>90&#45;&gt;276</title>
<path fill="none" stroke="black" stroke-dasharray="5,2" d="M292.63,-163.32C307.03,-183.94 329.59,-216.25 345.83,-239.51"/>
<polygon fill="black" stroke="black" points="343.12,-241.74 351.71,-247.93 348.86,-237.73 343.12,-241.74"/>
</g>
<!-- 91 -->
<g id="node4" class="node">
<title>91</title>
<polygon fill="#f2f2f2" stroke="black" points="345,-121.5 345,-163.1 442.31,-163.1 442.31,-121.5 345,-121.5"/>
<text text-anchor="middle" x="393.66" y="-146.5" font-family="Times,serif" font-size="14.00">&lt;&lt;Interface&gt;&gt;</text>
<text text-anchor="middle" x="393.66" y="-129.7" font-family="Times,serif" font-size="14.00">IWETH9</text>
</g>
<!-- 216 -->
<g id="node5" class="node">
<title>216</title>
<polygon fill="#f2f2f2" stroke="black" points="561.51,-0.5 561.51,-36.5 775.8,-36.5 775.8,-0.5 561.51,-0.5"/>
<text text-anchor="middle" x="668.66" y="-14.4" font-family="Times,serif" font-size="14.00">BridgedWOETHMigrationStrategy</text>
</g>
<!-- 216&#45;&gt;82 -->
<g id="edge8" class="edge">
<title>216&#45;&gt;82</title>
<path fill="none" stroke="black" d="M561.39,-20.3C436.47,-22.42 238.33,-29.8 168.67,-55 133.27,-67.81 99.03,-94.28 76.25,-114.54"/>
<polygon fill="black" stroke="black" points="73.73,-112.1 68.68,-121.42 78.44,-117.28 73.73,-112.1"/>
<text text-anchor="start" x="169.66" y="-76" font-family="Times,serif" font-size="10.00">price</text>
</g>
<!-- 216&#45;&gt;87 -->
<g id="edge13" class="edge">
<title>216&#45;&gt;87</title>
<path fill="none" stroke="black" stroke-dasharray="5,2" d="M561.22,-20.22C455.58,-22.42 302.61,-30 249.14,-55 221.89,-67.74 198.47,-93.07 183.07,-113.01"/>
<polygon fill="black" stroke="black" points="180.16,-111.06 176.98,-121.17 185.76,-115.25 180.16,-111.06"/>
<text text-anchor="start" x="249.66" y="-76" font-family="Times,serif" font-size="10.00">checkBalance</text>
</g>
<!-- 216&#45;&gt;90 -->
<g id="edge3" class="edge">
<title>216&#45;&gt;90</title>
<path fill="none" stroke="black" stroke-dasharray="5,2" d="M561.47,-24.73C488.71,-29.66 399.83,-38.8 366.1,-55 338.68,-68.17 314.67,-93.45 298.78,-113.26"/>
<polygon fill="black" stroke="black" points="295.86,-111.32 292.49,-121.37 301.39,-115.62 295.86,-111.32"/>
<text text-anchor="start" x="366.66" y="-94" font-family="Times,serif" font-size="10.00">burnForStrategy</text>
<text text-anchor="start" x="366.66" y="-82" font-family="Times,serif" font-size="10.00">checkBalance</text>
<text text-anchor="start" x="366.66" y="-70" font-family="Times,serif" font-size="10.00">mintForStrategy</text>
<text text-anchor="start" x="366.66" y="-58" font-family="Times,serif" font-size="10.00">strategistAddr</text>
</g>
<!-- 216&#45;&gt;91 -->
<g id="edge7" class="edge">
<title>216&#45;&gt;91</title>
<path fill="none" stroke="black" d="M561.2,-34.87C541.13,-39.83 520.73,-46.38 502.45,-55 471.32,-69.68 441.07,-94.82 420.41,-114.2"/>
<polygon fill="black" stroke="black" points="417.79,-111.86 412.98,-121.3 422.62,-116.92 417.79,-111.86"/>
<text text-anchor="start" x="502.66" y="-88" font-family="Times,serif" font-size="10.00">balanceOf</text>
<text text-anchor="start" x="502.66" y="-76" font-family="Times,serif" font-size="10.00">transfer</text>
<text text-anchor="start" x="502.66" y="-64" font-family="Times,serif" font-size="10.00">transferFrom</text>
</g>
<!-- 456 -->
<g id="node6" class="node">
<title>456</title>
<polygon fill="#f2f2f2" stroke="black" points="850.6,-121.5 850.6,-163.1 988.71,-163.1 988.71,-121.5 850.6,-121.5"/>
<text text-anchor="middle" x="919.66" y="-146.5" font-family="Times,serif" font-size="14.00">&lt;&lt;Library&gt;&gt;</text>
<text text-anchor="middle" x="919.66" y="-129.7" font-family="Times,serif" font-size="14.00">CCIPMessageBuilder</text>
</g>
<!-- 216&#45;&gt;456 -->
<g id="edge11" class="edge">
<title>216&#45;&gt;456</title>
<path fill="none" stroke="black" stroke-dasharray="5,2" d="M776.06,-32.23C796.99,-37.43 818.15,-44.73 836.66,-55 862.15,-69.14 884.62,-93.69 899.73,-113"/>
<polygon fill="black" stroke="black" points="897.1,-115.33 905.94,-121.18 902.68,-111.1 897.1,-115.33"/>
<text text-anchor="start" x="889.66" y="-76" font-family="Times,serif" font-size="10.00">build</text>
</g>
<!-- 458 -->
<g id="node7" class="node">
<title>458</title>
<polygon fill="#f2f2f2" stroke="black" points="567.85,-121.5 567.85,-163.1 679.47,-163.1 679.47,-121.5 567.85,-121.5"/>
<text text-anchor="middle" x="623.66" y="-146.5" font-family="Times,serif" font-size="14.00">&lt;&lt;Library&gt;&gt;</text>
<text text-anchor="middle" x="623.66" y="-129.7" font-family="Times,serif" font-size="14.00">NativeFeeHelper</text>
</g>
<!-- 216&#45;&gt;458 -->
<g id="edge12" class="edge">
<title>216&#45;&gt;458</title>
<path fill="none" stroke="black" stroke-dasharray="5,2" d="M662.3,-36.69C655.1,-56.2 643.22,-88.36 634.53,-111.88"/>
<polygon fill="black" stroke="black" points="631.2,-110.77 631.02,-121.36 637.77,-113.2 631.2,-110.77"/>
<text text-anchor="start" x="655.66" y="-76" font-family="Times,serif" font-size="10.00">consume</text>
</g>
<!-- 267 -->
<g id="node8" class="node">
<title>267</title>
<polygon fill="#f2f2f2" stroke="black" points="459.88,-121.5 459.88,-163.1 549.44,-163.1 549.44,-121.5 459.88,-121.5"/>
<text text-anchor="middle" x="504.66" y="-146.5" font-family="Times,serif" font-size="14.00">&lt;&lt;Library&gt;&gt;</text>
<text text-anchor="middle" x="504.66" y="-129.7" font-family="Times,serif" font-size="14.00">StableMath</text>
</g>
<!-- 216&#45;&gt;267 -->
<g id="edge5" class="edge">
<title>216&#45;&gt;267</title>
<path fill="none" stroke="black" stroke-dasharray="5,2" d="M645.51,-36.69C617.95,-57.16 571.65,-91.55 539.7,-115.28"/>
<polygon fill="black" stroke="black" points="537.44,-112.59 531.5,-121.36 541.61,-118.21 537.44,-112.59"/>
</g>
<!-- 1666 -->
<g id="node10" class="node">
<title>1666</title>
<polygon fill="#f2f2f2" stroke="black" points="697,-121.5 697,-163.1 794.31,-163.1 794.31,-121.5 697,-121.5"/>
<text text-anchor="middle" x="745.66" y="-146.5" font-family="Times,serif" font-size="14.00">&lt;&lt;Interface&gt;&gt;</text>
<text text-anchor="middle" x="745.66" y="-129.7" font-family="Times,serif" font-size="14.00">IRouterClient</text>
</g>
<!-- 216&#45;&gt;1666 -->
<g id="edge9" class="edge">
<title>216&#45;&gt;1666</title>
<path fill="none" stroke="black" d="M680.53,-36.73C684.44,-42.5 688.79,-49 692.66,-55 704.87,-73.95 718.15,-95.58 728.36,-112.44"/>
<polygon fill="black" stroke="black" points="725.53,-114.51 733.69,-121.27 731.52,-110.9 725.53,-114.51"/>
<text text-anchor="start" x="722.66" y="-76" font-family="Times,serif" font-size="10.00">getFee</text>
</g>
<!-- 1668 -->
<g id="node11" class="node">
<title>1668</title>
<polygon fill="#f2f2f2" stroke="black" points="777.88,-248.1 777.88,-289.7 867.44,-289.7 867.44,-248.1 777.88,-248.1"/>
<text text-anchor="middle" x="822.66" y="-273.1" font-family="Times,serif" font-size="14.00">&lt;&lt;Library&gt;&gt;</text>
<text text-anchor="middle" x="822.66" y="-256.3" font-family="Times,serif" font-size="14.00">Client</text>
</g>
<!-- 216&#45;&gt;1668 -->
<g id="edge10" class="edge">
<title>216&#45;&gt;1668</title>
<path fill="none" stroke="black" stroke-dasharray="5,2" d="M721.82,-36.63C732.95,-41.57 744.17,-47.66 753.66,-55 782.75,-77.54 789.72,-86.94 803.66,-121 819.34,-159.32 822.81,-207.55 823.23,-238.06"/>
<polygon fill="black" stroke="black" points="819.73,-238.09 823.26,-248.07 826.73,-238.06 819.73,-238.09"/>
</g>
<!-- 1324 -->
<g id="node12" class="node">
<title>1324</title>
<polygon fill="#f2f2f2" stroke="black" points="1025,-418.3 1025,-459.9 1122.31,-459.9 1122.31,-418.3 1025,-418.3"/>
<text text-anchor="middle" x="1073.66" y="-443.3" font-family="Times,serif" font-size="14.00">&lt;&lt;Interface&gt;&gt;</text>
<text text-anchor="middle" x="1073.66" y="-426.5" font-family="Times,serif" font-size="14.00">IERC20</text>
</g>
<!-- 216&#45;&gt;1324 -->
<g id="edge4" class="edge">
<title>216&#45;&gt;1324</title>
<path fill="none" stroke="black" d="M775.9,-26.64C846.19,-32.41 931.07,-41.76 964.66,-55 1025.11,-78.82 1082.66,-76.33 1082.66,-141.3 1082.66,-141.3 1082.66,-141.3 1082.66,-349.5 1082.66,-369.09 1080.45,-390.99 1078.23,-408.12"/>
<polygon fill="black" stroke="black" points="1074.75,-407.72 1076.86,-418.1 1081.68,-408.67 1074.75,-407.72"/>
<text text-anchor="start" x="1082.66" y="-277.9" font-family="Times,serif" font-size="10.00">balanceOf</text>
<text text-anchor="start" x="1082.66" y="-265.9" font-family="Times,serif" font-size="10.00">transfer</text>
<text text-anchor="start" x="1082.66" y="-253.9" font-family="Times,serif" font-size="10.00">transferFrom</text>
</g>
<!-- 1606 -->
<g id="node13" class="node">
<title>1606</title>
<polygon fill="#f2f2f2" stroke="black" points="936.88,-327.7 936.88,-369.3 1026.44,-369.3 1026.44,-327.7 936.88,-327.7"/>
<text text-anchor="middle" x="981.66" y="-352.7" font-family="Times,serif" font-size="14.00">&lt;&lt;Library&gt;&gt;</text>
<text text-anchor="middle" x="981.66" y="-335.9" font-family="Times,serif" font-size="14.00">SafeERC20</text>
</g>
<!-- 216&#45;&gt;1606 -->
<g id="edge2" class="edge">
<title>216&#45;&gt;1606</title>
<path fill="none" stroke="black" stroke-dasharray="5,2" d="M775.82,-22.7C820.23,-27.11 871.38,-36.31 914.66,-55 957.93,-73.68 977.18,-78.55 997.66,-121 1028.8,-185.56 1007.63,-272.68 992.75,-317.74"/>
<polygon fill="black" stroke="black" points="989.34,-316.88 989.41,-327.47 995.97,-319.15 989.34,-316.88"/>
<text text-anchor="start" x="1013.66" y="-208.6" font-family="Times,serif" font-size="10.00">safeApprove</text>
<text text-anchor="start" x="1013.66" y="-196.6" font-family="Times,serif" font-size="10.00">safeTransfer</text>
</g>
<!-- 1349 -->
<g id="node15" class="node">
<title>1349</title>
<polygon fill="#f2f2f2" stroke="black" points="1110.88,-121.5 1110.88,-163.1 1200.44,-163.1 1200.44,-121.5 1110.88,-121.5"/>
<text text-anchor="middle" x="1155.66" y="-146.5" font-family="Times,serif" font-size="14.00">&lt;&lt;Library&gt;&gt;</text>
<text text-anchor="middle" x="1155.66" y="-129.7" font-family="Times,serif" font-size="14.00">SafeCast</text>
</g>
<!-- 216&#45;&gt;1349 -->
<g id="edge6" class="edge">
<title>216&#45;&gt;1349</title>
<path fill="none" stroke="black" stroke-dasharray="5,2" d="M776.01,-23.62C893.72,-28.88 1069.59,-39.25 1096.66,-55 1118.63,-67.79 1134.22,-92.42 1143.84,-112.1"/>
<polygon fill="black" stroke="black" points="1140.71,-113.68 1148.08,-121.3 1147.07,-110.75 1140.71,-113.68"/>
<text text-anchor="start" x="1138.66" y="-76" font-family="Times,serif" font-size="10.00">toUint128</text>
</g>
<!-- 456&#45;&gt;1668 -->
<g id="edge14" class="edge">
<title>456&#45;&gt;1668</title>
<path fill="none" stroke="black" stroke-dasharray="5,2" d="M904.07,-163.32C887.95,-184.03 862.64,-216.54 844.52,-239.81"/>
<polygon fill="black" stroke="black" points="841.58,-237.89 838.2,-247.93 847.11,-242.19 841.58,-237.89"/>
<text text-anchor="start" x="887.66" y="-220.6" font-family="Times,serif" font-size="10.00">EVM2AnyMessage</text>
<text text-anchor="start" x="887.66" y="-208.6" font-family="Times,serif" font-size="10.00">EVMExtraArgsV1</text>
<text text-anchor="start" x="887.66" y="-196.6" font-family="Times,serif" font-size="10.00">EVMTokenAmount</text>
<text text-anchor="start" x="887.66" y="-184.6" font-family="Times,serif" font-size="10.00">_argsToBytes</text>
</g>
<!-- 1350 -->
<g id="node16" class="node">
<title>1350</title>
<polygon fill="#f2f2f2" stroke="black" points="459.88,-248.1 459.88,-289.7 549.44,-289.7 549.44,-248.1 459.88,-248.1"/>
<text text-anchor="middle" x="504.66" y="-273.1" font-family="Times,serif" font-size="14.00">&lt;&lt;Library&gt;&gt;</text>
<text text-anchor="middle" x="504.66" y="-256.3" font-family="Times,serif" font-size="14.00">SafeMath</text>
</g>
<!-- 267&#45;&gt;1350 -->
<g id="edge15" class="edge">
<title>267&#45;&gt;1350</title>
<path fill="none" stroke="black" stroke-dasharray="5,2" d="M504.66,-163.32C504.66,-183.39 504.66,-214.55 504.66,-237.64"/>
<polygon fill="black" stroke="black" points="501.16,-237.93 504.66,-247.93 508.16,-237.93 501.16,-237.93"/>
<text text-anchor="start" x="504.66" y="-220.6" font-family="Times,serif" font-size="10.00">add</text>
<text text-anchor="start" x="504.66" y="-208.6" font-family="Times,serif" font-size="10.00">div</text>
<text text-anchor="start" x="504.66" y="-196.6" font-family="Times,serif" font-size="10.00">mul</text>
<text text-anchor="start" x="504.66" y="-184.6" font-family="Times,serif" font-size="10.00">sub</text>
</g>
<!-- 276&#45;&gt;1606 -->
<g id="edge16" class="edge">
<title>276&#45;&gt;1606</title>
<path fill="none" stroke="black" stroke-dasharray="5,2" d="M413.54,-282.46C425.59,-285.31 438.55,-288.11 450.66,-290.2 623.01,-319.96 829.66,-336.97 926.49,-343.87"/>
<polygon fill="black" stroke="black" points="926.41,-347.37 936.63,-344.58 926.9,-340.39 926.41,-347.37"/>
</g>
<!-- 1666&#45;&gt;1668 -->
<g id="edge17" class="edge">
<title>1666&#45;&gt;1668</title>
<path fill="none" stroke="black" stroke-dasharray="5,2" d="M758.03,-163.32C770.71,-183.85 790.56,-215.97 804.92,-239.2"/>
<polygon fill="black" stroke="black" points="802.08,-241.26 810.32,-247.93 808.04,-237.58 802.08,-241.26"/>
</g>
<!-- 1606&#45;&gt;1324 -->
<g id="edge19" class="edge">
<title>1606&#45;&gt;1324</title>
<path fill="none" stroke="black" stroke-dasharray="5,2" d="M999.2,-369.63C1007.67,-379.06 1018.15,-390.28 1028.12,-399.8 1032.14,-403.63 1036.48,-407.55 1040.82,-411.33"/>
<polygon fill="black" stroke="black" points="1038.71,-414.14 1048.59,-417.98 1043.26,-408.82 1038.71,-414.14"/>
<text text-anchor="start" x="1027.66" y="-390.8" font-family="Times,serif" font-size="10.00">allowance</text>
</g>
<!-- 1057 -->
<g id="node14" class="node">
<title>1057</title>
<polygon fill="#f2f2f2" stroke="black" points="908.88,-418.3 908.88,-459.9 998.44,-459.9 998.44,-418.3 908.88,-418.3"/>
<text text-anchor="middle" x="953.66" y="-443.3" font-family="Times,serif" font-size="14.00">&lt;&lt;Library&gt;&gt;</text>
<text text-anchor="middle" x="953.66" y="-426.5" font-family="Times,serif" font-size="14.00">Address</text>
</g>
<!-- 1606&#45;&gt;1057 -->
<g id="edge18" class="edge">
<title>1606&#45;&gt;1057</title>
<path fill="none" stroke="black" stroke-dasharray="5,2" d="M964.36,-369.34C960.43,-374.95 956.8,-381.31 954.67,-387.8 952.59,-394.12 951.66,-401.13 951.38,-407.86"/>
<polygon fill="black" stroke="black" points="947.88,-408.07 951.4,-418.06 954.88,-408.06 947.88,-408.07"/>
<text text-anchor="start" x="954.66" y="-390.8" font-family="Times,serif" font-size="10.00">functionCall</text>
</g>
</g>
</svg>
