<?xml version="1.0" encoding="UTF-8" standalone="no"?>
<!DOCTYPE svg PUBLIC "-//W3C//DTD SVG 1.1//EN"
 "http://www.w3.org/Graphics/SVG/1.1/DTD/svg11.dtd">
<!-- Generated by graphviz version 5.0.0 (20220707.1540)
 -->
<!-- Title: UmlClassDiagram Pages: 1 -->
<svg width="506pt" height="320pt"
 viewBox="0.00 0.00 505.95 320.00" xmlns="http://www.w3.org/2000/svg" xmlns:xlink="http://www.w3.org/1999/xlink">
<g id="graph0" class="graph" transform="scale(1 1) rotate(0) translate(4 316)">
<title>UmlClassDiagram</title>
<polygon fill="white" stroke="transparent" points="-4,4 -4,-316 501.95,-316 501.95,4 -4,4"/>
<!-- 0 -->
<g id="node1" class="node">
<title>0</title>
<polygon fill="#f2f2f2" stroke="black" points="134.06,-79.1 134.06,-137.5 363.5,-137.5 363.5,-79.1 134.06,-79.1"/>
<text text-anchor="middle" x="248.78" y="-120.9" font-family="Times,serif" font-size="14.00">&lt;&lt;Abstract&gt;&gt;</text>
<text text-anchor="middle" x="248.78" y="-104.1" font-family="Times,serif" font-size="14.00">BaseBuyback</text>
<text text-anchor="middle" x="248.78" y="-87.3" font-family="Times,serif" font-size="14.00">../contracts/buyback/BaseBuyback.sol</text>
</g>
<!-- 25 -->
<g id="node5" class="node">
<title>25</title>
<polygon fill="#f2f2f2" stroke="black" points="9.46,-182.9 9.46,-224.5 252.09,-224.5 252.09,-182.9 9.46,-182.9"/>
<text text-anchor="middle" x="130.78" y="-207.9" font-family="Times,serif" font-size="14.00">Strategizable</text>
<text text-anchor="middle" x="130.78" y="-191.1" font-family="Times,serif" font-size="14.00">../contracts/governance/Strategizable.sol</text>
</g>
<!-- 0&#45;&gt;25 -->
<g id="edge2" class="edge">
<title>0&#45;&gt;25</title>
<path fill="none" stroke="black" d="M213.05,-137.58C202.53,-145.91 190.83,-155.17 179.64,-164.03"/>
<polygon fill="none" stroke="black" points="172.91,-155.96 155.9,-182.81 185.94,-172.43 172.91,-155.96"/>
</g>
<!-- 194 -->
<g id="node6" class="node">
<title>194</title>
<polygon fill="#f2f2f2" stroke="black" points="269.77,-174.5 269.77,-232.9 465.78,-232.9 465.78,-174.5 269.77,-174.5"/>
<text text-anchor="middle" x="367.78" y="-216.3" font-family="Times,serif" font-size="14.00">&lt;&lt;Abstract&gt;&gt;</text>
<text text-anchor="middle" x="367.78" y="-199.5" font-family="Times,serif" font-size="14.00">Initializable</text>
<text text-anchor="middle" x="367.78" y="-182.7" font-family="Times,serif" font-size="14.00">../contracts/utils/Initializable.sol</text>
</g>
<!-- 0&#45;&gt;194 -->
<g id="edge1" class="edge">
<title>0&#45;&gt;194</title>
<path fill="none" stroke="black" d="M284.8,-137.58C292.08,-143.28 299.91,-149.43 307.75,-155.59"/>
<polygon fill="none" stroke="black" points="301.38,-163.93 331.46,-174.2 314.35,-147.42 301.38,-163.93"/>
</g>
<!-- 1 -->
<g id="node2" class="node">
<title>1</title>
<polygon fill="#f2f2f2" stroke="black" points="0,-0.5 0,-42.1 239.56,-42.1 239.56,-0.5 0,-0.5"/>
<text text-anchor="middle" x="119.78" y="-25.5" font-family="Times,serif" font-size="14.00">OETHBuyback</text>
<text text-anchor="middle" x="119.78" y="-8.7" font-family="Times,serif" font-size="14.00">../contracts/buyback/OETHBuyback.sol</text>
</g>
<!-- 1&#45;&gt;0 -->
<g id="edge3" class="edge">
<title>1&#45;&gt;0</title>
<path fill="none" stroke="black" d="M150.02,-42.23C159.19,-48.27 169.66,-55.17 180.28,-62.17"/>
<polygon fill="none" stroke="black" points="174.7,-71.07 205.53,-78.81 186.26,-53.53 174.7,-71.07"/>
</g>
<!-- 2 -->
<g id="node3" class="node">
<title>2</title>
<polygon fill="#f2f2f2" stroke="black" points="257.6,-0.5 257.6,-42.1 497.95,-42.1 497.95,-0.5 257.6,-0.5"/>
<text text-anchor="middle" x="377.78" y="-25.5" font-family="Times,serif" font-size="14.00">OUSDBuyback</text>
<text text-anchor="middle" x="377.78" y="-8.7" font-family="Times,serif" font-size="14.00">../contracts/buyback/OUSDBuyback.sol</text>
</g>
<!-- 2&#45;&gt;0 -->
<g id="edge4" class="edge">
<title>2&#45;&gt;0</title>
<path fill="none" stroke="black" d="M347.53,-42.23C338.36,-48.27 327.89,-55.17 317.27,-62.17"/>
<polygon fill="none" stroke="black" points="311.3,-53.53 292.02,-78.81 322.85,-71.07 311.3,-53.53"/>
</g>
<!-- 20 -->
<g id="node4" class="node">
<title>20</title>
<polygon fill="#f2f2f2" stroke="black" points="13.35,-269.9 13.35,-311.5 248.21,-311.5 248.21,-269.9 13.35,-269.9"/>
<text text-anchor="middle" x="130.78" y="-294.9" font-family="Times,serif" font-size="14.00">Governable</text>
<text text-anchor="middle" x="130.78" y="-278.1" font-family="Times,serif" font-size="14.00">../contracts/governance/Governable.sol</text>
</g>
<!-- 25&#45;&gt;20 -->
<g id="edge5" class="edge">
<title>25&#45;&gt;20</title>
<path fill="none" stroke="black" d="M130.78,-224.84C130.78,-229.4 130.78,-234.43 130.78,-239.61"/>
<polygon fill="none" stroke="black" points="120.28,-239.7 130.78,-269.7 141.28,-239.7 120.28,-239.7"/>
</g>
</g>
</svg>
