<?xml version="1.0" encoding="UTF-8" standalone="no"?>
<!DOCTYPE svg PUBLIC "-//W3C//DTD SVG 1.1//EN"
 "http://www.w3.org/Graphics/SVG/1.1/DTD/svg11.dtd">
<!-- Generated by graphviz version 5.0.0 (20220707.1540)
 -->
<!-- Title: UmlClassDiagram Pages: 1 -->
<svg width="610pt" height="286pt"
 viewBox="0.00 0.00 610.04 286.20" xmlns="http://www.w3.org/2000/svg" xmlns:xlink="http://www.w3.org/1999/xlink">
<g id="graph0" class="graph" transform="scale(1 1) rotate(0) translate(4 282.2)">
<title>UmlClassDiagram</title>
<polygon fill="white" stroke="transparent" points="-4,4 -4,-282.2 606.04,-282.2 606.04,4 -4,4"/>
<!-- 321 -->
<g id="node1" class="node">
<title>321</title>
<polygon fill="#f2f2f2" stroke="black" points="0,-109.5 0,-151.1 108.51,-151.1 108.51,-109.5 0,-109.5"/>
<text text-anchor="middle" x="54.26" y="-134.5" font-family="Times,serif" font-size="14.00">&lt;&lt;Interface&gt;&gt;</text>
<text text-anchor="middle" x="54.26" y="-117.7" font-family="Times,serif" font-size="14.00">IBridgeReceiver</text>
</g>
<!-- 451 -->
<g id="node2" class="node">
<title>451</title>
<polygon fill="#f2f2f2" stroke="black" points="340.15,-0.5 340.15,-36.5 432.36,-36.5 432.36,-0.5 340.15,-0.5"/>
<text text-anchor="middle" x="386.26" y="-14.4" font-family="Times,serif" font-size="14.00">CCIPAdapter</text>
</g>
<!-- 451&#45;&gt;321 -->
<g id="edge3" class="edge">
<title>451&#45;&gt;321</title>
<path fill="none" stroke="black" stroke-dasharray="5,2" d="M340.14,-24.14C300.86,-29.02 243.32,-38.36 195.4,-55 159.56,-67.45 121.65,-87.85 94.16,-104.13"/>
<polygon fill="black" stroke="black" points="92.02,-101.33 85.25,-109.48 95.63,-107.33 92.02,-101.33"/>
<text text-anchor="start" x="196.26" y="-70" font-family="Times,serif" font-size="10.00">receiveMessage</text>
</g>
<!-- 456 -->
<g id="node3" class="node">
<title>456</title>
<polygon fill="#f2f2f2" stroke="black" points="126.2,-109.5 126.2,-151.1 264.31,-151.1 264.31,-109.5 126.2,-109.5"/>
<text text-anchor="middle" x="195.26" y="-134.5" font-family="Times,serif" font-size="14.00">&lt;&lt;Library&gt;&gt;</text>
<text text-anchor="middle" x="195.26" y="-117.7" font-family="Times,serif" font-size="14.00">CCIPMessageBuilder</text>
</g>
<!-- 451&#45;&gt;456 -->
<g id="edge6" class="edge">
<title>451&#45;&gt;456</title>
<path fill="none" stroke="black" stroke-dasharray="5,2" d="M356.41,-36.66C324.78,-54.84 274.53,-83.73 238.55,-104.41"/>
<polygon fill="black" stroke="black" points="236.66,-101.46 229.73,-109.48 240.15,-107.53 236.66,-101.46"/>
<text text-anchor="start" x="325.26" y="-70" font-family="Times,serif" font-size="10.00">build</text>
</g>
<!-- 1666 -->
<g id="node4" class="node">
<title>1666</title>
<polygon fill="#f2f2f2" stroke="black" points="282.6,-109.5 282.6,-151.1 379.91,-151.1 379.91,-109.5 282.6,-109.5"/>
<text text-anchor="middle" x="331.26" y="-134.5" font-family="Times,serif" font-size="14.00">&lt;&lt;Interface&gt;&gt;</text>
<text text-anchor="middle" x="331.26" y="-117.7" font-family="Times,serif" font-size="14.00">IRouterClient</text>
</g>
<!-- 451&#45;&gt;1666 -->
<g id="edge5" class="edge">
<title>451&#45;&gt;1666</title>
<path fill="none" stroke="black" d="M377.05,-36.78C374,-42.56 370.62,-49.04 367.6,-55 360.05,-69.88 351.87,-86.56 345.18,-100.34"/>
<polygon fill="black" stroke="black" points="342.02,-98.83 340.82,-109.36 348.33,-101.88 342.02,-98.83"/>
<text text-anchor="start" x="368.26" y="-70" font-family="Times,serif" font-size="10.00">getFee</text>
</g>
<!-- 1668 -->
<g id="node5" class="node">
<title>1668</title>
<polygon fill="#f2f2f2" stroke="black" points="286.47,-236.1 286.47,-277.7 376.04,-277.7 376.04,-236.1 286.47,-236.1"/>
<text text-anchor="middle" x="331.26" y="-261.1" font-family="Times,serif" font-size="14.00">&lt;&lt;Library&gt;&gt;</text>
<text text-anchor="middle" x="331.26" y="-244.3" font-family="Times,serif" font-size="14.00">Client</text>
</g>
<!-- 451&#45;&gt;1668 -->
<g id="edge4" class="edge">
<title>451&#45;&gt;1668</title>
<path fill="none" stroke="black" stroke-dasharray="5,2" d="M390.94,-36.7C392.29,-42.47 393.58,-48.97 394.26,-55 399.01,-97.73 401.75,-110.47 389.26,-151.6 380.91,-179.06 364.62,-207.33 351.42,-227.51"/>
<polygon fill="black" stroke="black" points="348.46,-225.64 345.8,-235.9 354.27,-229.54 348.46,-225.64"/>
</g>
<!-- 1324 -->
<g id="node6" class="node">
<title>1324</title>
<polygon fill="#f2f2f2" stroke="black" points="397.6,-236.1 397.6,-277.7 494.91,-277.7 494.91,-236.1 397.6,-236.1"/>
<text text-anchor="middle" x="446.26" y="-261.1" font-family="Times,serif" font-size="14.00">&lt;&lt;Interface&gt;&gt;</text>
<text text-anchor="middle" x="446.26" y="-244.3" font-family="Times,serif" font-size="14.00">IERC20</text>
</g>
<!-- 451&#45;&gt;1324 -->
<g id="edge2" class="edge">
<title>451&#45;&gt;1324</title>
<path fill="none" stroke="black" stroke-dasharray="5,2" d="M400.01,-36.73C403.86,-42.29 407.68,-48.66 410.26,-55 433.65,-112.59 441.89,-185.58 444.75,-225.83"/>
<polygon fill="black" stroke="black" points="441.28,-226.29 445.41,-236.04 448.26,-225.83 441.28,-226.29"/>
</g>
<!-- 1606 -->
<g id="node7" class="node">
<title>1606</title>
<polygon fill="#f2f2f2" stroke="black" points="474.47,-109.5 474.47,-151.1 564.04,-151.1 564.04,-109.5 474.47,-109.5"/>
<text text-anchor="middle" x="519.26" y="-134.5" font-family="Times,serif" font-size="14.00">&lt;&lt;Library&gt;&gt;</text>
<text text-anchor="middle" x="519.26" y="-117.7" font-family="Times,serif" font-size="14.00">SafeERC20</text>
</g>
<!-- 451&#45;&gt;1606 -->
<g id="edge1" class="edge">
<title>451&#45;&gt;1606</title>
<path fill="none" stroke="black" stroke-dasharray="5,2" d="M430.46,-36.68C440.78,-41.76 451.35,-47.89 460.26,-55 476.29,-67.8 490.69,-85.73 501.25,-100.77"/>
<polygon fill="black" stroke="black" points="498.49,-102.93 507,-109.23 504.27,-99 498.49,-102.93"/>
<text text-anchor="start" x="494.26" y="-82" font-family="Times,serif" font-size="10.00">safeApprove</text>
<text text-anchor="start" x="494.26" y="-70" font-family="Times,serif" font-size="10.00">safeTransfer</text>
<text text-anchor="start" x="494.26" y="-58" font-family="Times,serif" font-size="10.00">safeTransferFrom</text>
</g>
<!-- 456&#45;&gt;1668 -->
<g id="edge7" class="edge">
<title>456&#45;&gt;1668</title>
<path fill="none" stroke="black" stroke-dasharray="5,2" d="M202.91,-151.12C211.19,-170.3 226.03,-199.12 246.71,-217.6 255.44,-225.41 266.04,-231.87 276.73,-237.12"/>
<polygon fill="black" stroke="black" points="275.56,-240.43 286.1,-241.42 278.48,-234.07 275.56,-240.43"/>
<text text-anchor="start" x="247.26" y="-208.6" font-family="Times,serif" font-size="10.00">EVM2AnyMessage</text>
<text text-anchor="start" x="247.26" y="-196.6" font-family="Times,serif" font-size="10.00">EVMExtraArgsV1</text>
<text text-anchor="start" x="247.26" y="-184.6" font-family="Times,serif" font-size="10.00">EVMTokenAmount</text>
<text text-anchor="start" x="247.26" y="-172.6" font-family="Times,serif" font-size="10.00">_argsToBytes</text>
</g>
<!-- 1666&#45;&gt;1668 -->
<g id="edge8" class="edge">
<title>1666&#45;&gt;1668</title>
<path fill="none" stroke="black" stroke-dasharray="5,2" d="M331.26,-151.32C331.26,-171.39 331.26,-202.55 331.26,-225.64"/>
<polygon fill="black" stroke="black" points="327.76,-225.93 331.26,-235.93 334.76,-225.93 327.76,-225.93"/>
</g>
<!-- 1606&#45;&gt;1324 -->
<g id="edge10" class="edge">
<title>1606&#45;&gt;1324</title>
<path fill="none" stroke="black" stroke-dasharray="5,2" d="M500.64,-151.19C495.78,-156.9 490.78,-163.29 486.72,-169.6 475.2,-187.52 465.04,-209.24 457.77,-226.41"/>
<polygon fill="black" stroke="black" points="454.43,-225.35 453.85,-235.93 460.9,-228.02 454.43,-225.35"/>
<text text-anchor="start" x="487.26" y="-190.6" font-family="Times,serif" font-size="10.00">allowance</text>
</g>
<!-- 1057 -->
<g id="node8" class="node">
<title>1057</title>
<polygon fill="#f2f2f2" stroke="black" points="512.47,-236.1 512.47,-277.7 602.04,-277.7 602.04,-236.1 512.47,-236.1"/>
<text text-anchor="middle" x="557.26" y="-261.1" font-family="Times,serif" font-size="14.00">&lt;&lt;Library&gt;&gt;</text>
<text text-anchor="middle" x="557.26" y="-244.3" font-family="Times,serif" font-size="14.00">Address</text>
</g>
<!-- 1606&#45;&gt;1057 -->
<g id="edge9" class="edge">
<title>1606&#45;&gt;1057</title>
<path fill="none" stroke="black" stroke-dasharray="5,2" d="M525.53,-151.17C527.38,-157.09 529.41,-163.61 531.26,-169.6 537.04,-188.43 543.42,-209.61 548.42,-226.27"/>
<polygon fill="black" stroke="black" points="545.11,-227.42 551.33,-236 551.81,-225.42 545.11,-227.42"/>
<text text-anchor="start" x="546.26" y="-190.6" font-family="Times,serif" font-size="10.00">functionCall</text>
</g>
</g>
</svg>
