<?xml version="1.0" encoding="UTF-8" standalone="no"?>
<!DOCTYPE svg PUBLIC "-//W3C//DTD SVG 1.1//EN"
 "http://www.w3.org/Graphics/SVG/1.1/DTD/svg11.dtd">
<!-- Generated by graphviz version 5.0.0 (20220707.1540)
 -->
<!-- Title: UmlClassDiagram Pages: 1 -->
<svg width="827pt" height="286pt"
 viewBox="0.00 0.00 827.04 286.20" xmlns="http://www.w3.org/2000/svg" xmlns:xlink="http://www.w3.org/1999/xlink">
<g id="graph0" class="graph" transform="scale(1 1) rotate(0) translate(4 282.2)">
<title>UmlClassDiagram</title>
<polygon fill="white" stroke="transparent" points="-4,4 -4,-282.2 823.04,-282.2 823.04,4 -4,4"/>
<!-- 316 -->
<g id="node1" class="node">
<title>316</title>
<polygon fill="#f2f2f2" stroke="black" points="0,-109.5 0,-151.1 152.09,-151.1 152.09,-109.5 0,-109.5"/>
<text text-anchor="middle" x="76.04" y="-134.5" font-family="Times,serif" font-size="14.00">&lt;&lt;Interface&gt;&gt;</text>
<text text-anchor="middle" x="76.04" y="-117.7" font-family="Times,serif" font-size="14.00">ICCTPTokenMessenger</text>
</g>
<!-- 317 -->
<g id="node2" class="node">
<title>317</title>
<polygon fill="#f2f2f2" stroke="black" points="170.06,-109.5 170.06,-151.1 340.03,-151.1 340.03,-109.5 170.06,-109.5"/>
<text text-anchor="middle" x="255.04" y="-134.5" font-family="Times,serif" font-size="14.00">&lt;&lt;Interface&gt;&gt;</text>
<text text-anchor="middle" x="255.04" y="-117.7" font-family="Times,serif" font-size="14.00">ICCTPMessageTransmitter</text>
</g>
<!-- 321 -->
<g id="node3" class="node">
<title>321</title>
<polygon fill="#f2f2f2" stroke="black" points="357.79,-109.5 357.79,-151.1 466.3,-151.1 466.3,-109.5 357.79,-109.5"/>
<text text-anchor="middle" x="412.04" y="-134.5" font-family="Times,serif" font-size="14.00">&lt;&lt;Interface&gt;&gt;</text>
<text text-anchor="middle" x="412.04" y="-117.7" font-family="Times,serif" font-size="14.00">IBridgeReceiver</text>
</g>
<!-- 452 -->
<g id="node4" class="node">
<title>452</title>
<polygon fill="#f2f2f2" stroke="black" points="419.99,-0.5 419.99,-36.5 516.1,-36.5 516.1,-0.5 419.99,-0.5"/>
<text text-anchor="middle" x="468.04" y="-14.4" font-family="Times,serif" font-size="14.00">CCTPAdapter</text>
</g>
<!-- 452&#45;&gt;316 -->
<g id="edge4" class="edge">
<title>452&#45;&gt;316</title>
<path fill="none" stroke="black" d="M419.86,-19.45C363.76,-20.8 269.1,-27.49 193.05,-55 162.15,-66.18 130.92,-86.57 108.51,-103.17"/>
<polygon fill="black" stroke="black" points="106.24,-100.5 100.37,-109.32 110.46,-106.08 106.24,-100.5"/>
<text text-anchor="start" x="194.04" y="-70" font-family="Times,serif" font-size="10.00">depositForBurnWithHook</text>
</g>
<!-- 452&#45;&gt;317 -->
<g id="edge5" class="edge">
<title>452&#45;&gt;317</title>
<path fill="none" stroke="black" d="M419.89,-31.06C399.63,-36.86 376.17,-44.84 356.19,-55 330.7,-67.96 304.76,-87.16 285.53,-102.8"/>
<polygon fill="black" stroke="black" points="283.2,-100.18 277.72,-109.25 287.66,-105.58 283.2,-100.18"/>
<text text-anchor="start" x="357.04" y="-76" font-family="Times,serif" font-size="10.00">receiveMessage</text>
<text text-anchor="start" x="357.04" y="-64" font-family="Times,serif" font-size="10.00">sendMessage</text>
</g>
<!-- 452&#45;&gt;321 -->
<g id="edge3" class="edge">
<title>452&#45;&gt;321</title>
<path fill="none" stroke="black" stroke-dasharray="5,2" d="M452.13,-36.72C447.54,-42.27 442.8,-48.65 439.19,-55 431.28,-68.93 424.94,-85.6 420.38,-99.62"/>
<polygon fill="black" stroke="black" points="417.01,-98.69 417.39,-109.27 423.69,-100.76 417.01,-98.69"/>
<text text-anchor="start" x="440.04" y="-70" font-family="Times,serif" font-size="10.00">receiveMessage</text>
</g>
<!-- 457 -->
<g id="node5" class="node">
<title>457</title>
<polygon fill="#f2f2f2" stroke="black" points="484,-109.5 484,-151.1 622.09,-151.1 622.09,-109.5 484,-109.5"/>
<text text-anchor="middle" x="553.04" y="-134.5" font-family="Times,serif" font-size="14.00">&lt;&lt;Library&gt;&gt;</text>
<text text-anchor="middle" x="553.04" y="-117.7" font-family="Times,serif" font-size="14.00">CCTPMessageHelper</text>
</g>
<!-- 452&#45;&gt;457 -->
<g id="edge6" class="edge">
<title>452&#45;&gt;457</title>
<path fill="none" stroke="black" stroke-dasharray="5,2" d="M486.17,-36.59C491.81,-42.24 497.9,-48.7 503.04,-55 514.75,-69.32 526.37,-86.37 535.46,-100.53"/>
<polygon fill="black" stroke="black" points="532.74,-102.77 541.04,-109.35 538.66,-99.03 532.74,-102.77"/>
<text text-anchor="start" x="529.04" y="-76" font-family="Times,serif" font-size="10.00">decodeBurnBody</text>
<text text-anchor="start" x="529.04" y="-64" font-family="Times,serif" font-size="10.00">decodeMessageHeader</text>
</g>
<!-- 1324 -->
<g id="node7" class="node">
<title>1324</title>
<polygon fill="#f2f2f2" stroke="black" points="612.39,-236.1 612.39,-277.7 709.7,-277.7 709.7,-236.1 612.39,-236.1"/>
<text text-anchor="middle" x="661.04" y="-261.1" font-family="Times,serif" font-size="14.00">&lt;&lt;Interface&gt;&gt;</text>
<text text-anchor="middle" x="661.04" y="-244.3" font-family="Times,serif" font-size="14.00">IERC20</text>
</g>
<!-- 452&#45;&gt;1324 -->
<g id="edge2" class="edge">
<title>452&#45;&gt;1324</title>
<path fill="none" stroke="black" stroke-dasharray="5,2" d="M516.27,-24.56C556.73,-29.82 610.22,-39.5 625.04,-55 669.27,-101.26 669.01,-182.24 665.02,-225.93"/>
<polygon fill="black" stroke="black" points="661.54,-225.62 663.98,-235.93 668.5,-226.35 661.54,-225.62"/>
<text text-anchor="start" x="665.04" y="-127.3" font-family="Times,serif" font-size="10.00">balanceOf</text>
</g>
<!-- 1606 -->
<g id="node8" class="node">
<title>1606</title>
<polygon fill="#f2f2f2" stroke="black" points="717.26,-109.5 717.26,-151.1 806.83,-151.1 806.83,-109.5 717.26,-109.5"/>
<text text-anchor="middle" x="762.04" y="-134.5" font-family="Times,serif" font-size="14.00">&lt;&lt;Library&gt;&gt;</text>
<text text-anchor="middle" x="762.04" y="-117.7" font-family="Times,serif" font-size="14.00">SafeERC20</text>
</g>
<!-- 452&#45;&gt;1606 -->
<g id="edge1" class="edge">
<title>452&#45;&gt;1606</title>
<path fill="none" stroke="black" stroke-dasharray="5,2" d="M516.28,-20.95C558.97,-23.82 622.08,-32.01 672.04,-55 696.47,-66.24 719.75,-85.78 736.51,-102.01"/>
<polygon fill="black" stroke="black" points="734.18,-104.62 743.74,-109.19 739.11,-99.66 734.18,-104.62"/>
<text text-anchor="start" x="725.04" y="-82" font-family="Times,serif" font-size="10.00">safeApprove</text>
<text text-anchor="start" x="725.04" y="-70" font-family="Times,serif" font-size="10.00">safeTransfer</text>
<text text-anchor="start" x="725.04" y="-58" font-family="Times,serif" font-size="10.00">safeTransferFrom</text>
</g>
<!-- 259 -->
<g id="node6" class="node">
<title>259</title>
<polygon fill="#f2f2f2" stroke="black" points="505.26,-236.1 505.26,-277.7 594.83,-277.7 594.83,-236.1 505.26,-236.1"/>
<text text-anchor="middle" x="550.04" y="-261.1" font-family="Times,serif" font-size="14.00">&lt;&lt;Library&gt;&gt;</text>
<text text-anchor="middle" x="550.04" y="-244.3" font-family="Times,serif" font-size="14.00">BytesHelper</text>
</g>
<!-- 457&#45;&gt;259 -->
<g id="edge7" class="edge">
<title>457&#45;&gt;259</title>
<path fill="none" stroke="black" stroke-dasharray="5,2" d="M552.56,-151.32C552.08,-171.39 551.33,-202.55 550.77,-225.64"/>
<polygon fill="black" stroke="black" points="547.27,-225.85 550.53,-235.93 554.27,-226.02 547.27,-225.85"/>
<text text-anchor="start" x="553.04" y="-208.6" font-family="Times,serif" font-size="10.00">extractAddress</text>
<text text-anchor="start" x="553.04" y="-196.6" font-family="Times,serif" font-size="10.00">extractSlice</text>
<text text-anchor="start" x="553.04" y="-184.6" font-family="Times,serif" font-size="10.00">extractUint256</text>
<text text-anchor="start" x="553.04" y="-172.6" font-family="Times,serif" font-size="10.00">extractUint32</text>
</g>
<!-- 1606&#45;&gt;1324 -->
<g id="edge9" class="edge">
<title>1606&#45;&gt;1324</title>
<path fill="none" stroke="black" stroke-dasharray="5,2" d="M739.36,-151.2C733.32,-156.91 726.96,-163.3 721.51,-169.6 705.83,-187.76 690.35,-209.96 678.97,-227.29"/>
<polygon fill="black" stroke="black" points="675.92,-225.57 673.42,-235.87 681.8,-229.38 675.92,-225.57"/>
<text text-anchor="start" x="722.04" y="-190.6" font-family="Times,serif" font-size="10.00">allowance</text>
</g>
<!-- 1057 -->
<g id="node9" class="node">
<title>1057</title>
<polygon fill="#f2f2f2" stroke="black" points="727.26,-236.1 727.26,-277.7 816.83,-277.7 816.83,-236.1 727.26,-236.1"/>
<text text-anchor="middle" x="772.04" y="-261.1" font-family="Times,serif" font-size="14.00">&lt;&lt;Library&gt;&gt;</text>
<text text-anchor="middle" x="772.04" y="-244.3" font-family="Times,serif" font-size="14.00">Address</text>
</g>
<!-- 1606&#45;&gt;1057 -->
<g id="edge8" class="edge">
<title>1606&#45;&gt;1057</title>
<path fill="none" stroke="black" stroke-dasharray="5,2" d="M763.65,-151.32C765.27,-171.48 767.79,-202.83 769.64,-225.96"/>
<polygon fill="black" stroke="black" points="766.15,-226.24 770.44,-235.93 773.13,-225.68 766.15,-226.24"/>
<text text-anchor="start" x="769.04" y="-190.6" font-family="Times,serif" font-size="10.00">functionCall</text>
</g>
</g>
</svg>
