<?xml version="1.0" encoding="UTF-8" standalone="no"?>
<!DOCTYPE svg PUBLIC "-//W3C//DTD SVG 1.1//EN"
 "http://www.w3.org/Graphics/SVG/1.1/DTD/svg11.dtd">
<!-- Generated by graphviz version 5.0.0 (20220707.1540)
 -->
<!-- Title: StorageDiagram Pages: 1 -->
<svg width="1441pt" height="291pt"
 viewBox="0.00 0.00 1441.41 290.80" xmlns="http://www.w3.org/2000/svg" xmlns:xlink="http://www.w3.org/1999/xlink">
<g id="graph0" class="graph" transform="scale(1 1) rotate(0) translate(4 286.8)">
<title>StorageDiagram</title>
<polygon fill="white" stroke="transparent" points="-4,4 -4,-286.8 1437.41,-286.8 1437.41,4 -4,4"/>
<!-- 3 -->
<g id="node1" class="node">
<title>3</title>
<polygon fill="#f2f2f2" stroke="black" points="0,-34.3 0,-282.3 586.49,-282.3 586.49,-34.3 0,-34.3"/>
<text text-anchor="middle" x="293.25" y="-265.7" font-family="Courier New" font-size="14.00">CCTPAdapter &lt;&lt;Contract&gt;&gt;</text>
<polyline fill="none" stroke="black" points="0,-257.5 586.49,-257.5 "/>
<text text-anchor="middle" x="24.8" y="-240.9" font-family="Courier New" font-size="14.00">slot</text>
<polyline fill="none" stroke="black" points="0,-232.7 49.61,-232.7 "/>
<text text-anchor="middle" x="24.8" y="-216.1" font-family="Courier New" font-size="14.00">0</text>
<polyline fill="none" stroke="black" points="0,-207.9 49.61,-207.9 "/>
<text text-anchor="middle" x="24.8" y="-191.3" font-family="Courier New" font-size="14.00">1</text>
<polyline fill="none" stroke="black" points="0,-183.1 49.61,-183.1 "/>
<text text-anchor="middle" x="24.8" y="-166.5" font-family="Courier New" font-size="14.00">2</text>
<polyline fill="none" stroke="black" points="0,-158.3 49.61,-158.3 "/>
<text text-anchor="middle" x="24.8" y="-141.7" font-family="Courier New" font-size="14.00">3</text>
<polyline fill="none" stroke="black" points="0,-133.5 49.61,-133.5 "/>
<text text-anchor="middle" x="24.8" y="-116.9" font-family="Courier New" font-size="14.00">4&#45;53</text>
<polyline fill="none" stroke="black" points="0,-108.7 49.61,-108.7 "/>
<text text-anchor="middle" x="24.8" y="-92.1" font-family="Courier New" font-size="14.00">54</text>
<polyline fill="none" stroke="black" points="0,-83.9 49.61,-83.9 "/>
<text text-anchor="middle" x="24.8" y="-67.3" font-family="Courier New" font-size="14.00">55</text>
<polyline fill="none" stroke="black" points="0,-59.1 49.61,-59.1 "/>
<text text-anchor="middle" x="24.8" y="-42.5" font-family="Courier New" font-size="14.00">56</text>
<polyline fill="none" stroke="black" points="49.61,-34.3 49.61,-257.5 "/>
<text text-anchor="middle" x="318.05" y="-240.9" font-family="Courier New" font-size="14.00">type: &lt;inherited contract&gt;.variable (bytes)</text>
<polyline fill="none" stroke="black" points="49.61,-232.7 586.49,-232.7 "/>
<text text-anchor="middle" x="317.64" y="-216.1" font-family="Courier New" font-size="14.00">mapping(address=&gt;bool): AbstractAdapter.authorised (32)</text>
<polyline fill="none" stroke="black" points="49.61,-207.9 586.49,-207.9 "/>
<text text-anchor="middle" x="318.05" y="-191.3" font-family="Courier New" font-size="14.00">mapping(address=&gt;ChainConfig): AbstractAdapter.laneConfig (32)</text>
<polyline fill="none" stroke="black" points="49.61,-183.1 586.49,-183.1 "/>
<text text-anchor="middle" x="317.84" y="-166.5" font-family="Courier New" font-size="14.00">mapping(address=&gt;bool): AbstractAdapter.strategists (32)</text>
<polyline fill="none" stroke="black" points="49.61,-158.3 586.49,-158.3 "/>
<text text-anchor="middle" x="317.74" y="-141.7" font-family="Courier New" font-size="14.00">uint256: AbstractAdapter._maxTransferAmount (32)</text>
<polyline fill="none" stroke="black" points="49.61,-133.5 586.49,-133.5 "/>
<text text-anchor="middle" x="317.83" y="-116.9" font-family="Courier New" font-size="14.00">uint256[50]: AbstractAdapter.__gap (1600)</text>
<polyline fill="none" stroke="black" points="49.61,-108.7 586.49,-108.7 "/>
<text text-anchor="middle" x="149.82" y="-92.1" font-family="Courier New" font-size="14.00">unallocated (28)</text>
<polyline fill="none" stroke="black" points="250.03,-83.9 250.03,-108.7 "/>
<text text-anchor="middle" x="417.95" y="-92.1" font-family="Courier New" font-size="14.00">uint32: minFinalityThreshold (4)</text>
<polyline fill="none" stroke="black" points="49.61,-83.9 586.49,-83.9 "/>
<text text-anchor="middle" x="318.03" y="-67.3" font-family="Courier New" font-size="14.00">uint256: _minTransferAmount (32)</text>
<polyline fill="none" stroke="black" points="49.61,-59.1 586.49,-59.1 "/>
<text text-anchor="middle" x="170.82" y="-42.5" font-family="Courier New" font-size="14.00">unallocated (12)</text>
<polyline fill="none" stroke="black" points="292.03,-34.3 292.03,-59.1 "/>
<text text-anchor="middle" x="438.94" y="-42.5" font-family="Courier New" font-size="14.00">address: operator (20)</text>
</g>
<!-- 1 -->
<g id="node2" class="node">
<title>1</title>
<polygon fill="#f2f2f2" stroke="black" points="622.49,-193.1 622.49,-267.5 1433.41,-267.5 1433.41,-193.1 622.49,-193.1"/>
<text text-anchor="middle" x="1027.95" y="-250.9" font-family="Courier New" font-size="14.00">ChainConfig &lt;&lt;Struct&gt;&gt;</text>
<polyline fill="none" stroke="black" points="622.49,-242.7 1433.41,-242.7 "/>
<text text-anchor="middle" x="655.69" y="-226.1" font-family="Courier New" font-size="14.00">offset</text>
<polyline fill="none" stroke="black" points="622.49,-217.9 688.9,-217.9 "/>
<text text-anchor="middle" x="655.69" y="-201.3" font-family="Courier New" font-size="14.00">0</text>
<polyline fill="none" stroke="black" points="688.9,-193.1 688.9,-242.7 "/>
<text text-anchor="middle" x="1061.15" y="-226.1" font-family="Courier New" font-size="14.00">type: variable (bytes)</text>
<polyline fill="none" stroke="black" points="688.9,-217.9 1433.41,-217.9 "/>
<text text-anchor="middle" x="764.11" y="-201.3" font-family="Courier New" font-size="14.00">unallocated (19)</text>
<polyline fill="none" stroke="black" points="839.32,-193.1 839.32,-217.9 "/>
<text text-anchor="middle" x="948.14" y="-201.3" font-family="Courier New" font-size="14.00">uint32: destGasLimit (4)</text>
<polyline fill="none" stroke="black" points="1056.95,-193.1 1056.95,-217.9 "/>
<text text-anchor="middle" x="1169.97" y="-201.3" font-family="Courier New" font-size="14.00">uint64: chainSelector (8)</text>
<polyline fill="none" stroke="black" points="1282.99,-193.1 1282.99,-217.9 "/>
<text text-anchor="middle" x="1358.2" y="-201.3" font-family="Courier New" font-size="14.00">bool: paused (1)</text>
</g>
<!-- 3&#45;&gt;1 -->
<g id="edge1" class="edge">
<title>3:5&#45;&gt;1</title>
<path fill="none" stroke="black" d="M586.49,-195.3C594.97,-195.3 603.53,-195.37 612.16,-195.49"/>
<polygon fill="black" stroke="black" points="612.27,-198.99 622.33,-195.66 612.39,-191.99 612.27,-198.99"/>
</g>
<!-- 2 -->
<g id="node3" class="node">
<title>2</title>
<polygon fill="#f2f2f2" stroke="black" points="902.33,-0.5 902.33,-174.1 1153.57,-174.1 1153.57,-0.5 902.33,-0.5"/>
<text text-anchor="middle" x="1027.95" y="-157.5" font-family="Courier New" font-size="14.00">uint256[50]: __gap &lt;&lt;Array&gt;&gt;</text>
<polyline fill="none" stroke="black" points="902.33,-149.3 1153.57,-149.3 "/>
<text text-anchor="middle" x="927.13" y="-132.7" font-family="Courier New" font-size="14.00">slot</text>
<polyline fill="none" stroke="black" points="902.33,-124.5 951.94,-124.5 "/>
<text text-anchor="middle" x="927.13" y="-107.9" font-family="Courier New" font-size="14.00">4</text>
<polyline fill="none" stroke="black" points="902.33,-99.7 951.94,-99.7 "/>
<text text-anchor="middle" x="927.13" y="-83.1" font-family="Courier New" font-size="14.00">5</text>
<polyline fill="none" stroke="black" points="902.33,-74.9 951.94,-74.9 "/>
<text text-anchor="middle" x="927.13" y="-58.3" font-family="Courier New" font-size="14.00">6&#45;51</text>
<polyline fill="none" stroke="black" points="902.33,-50.1 951.94,-50.1 "/>
<text text-anchor="middle" x="927.13" y="-33.5" font-family="Courier New" font-size="14.00">52</text>
<polyline fill="none" stroke="black" points="902.33,-25.3 951.94,-25.3 "/>
<text text-anchor="middle" x="927.13" y="-8.7" font-family="Courier New" font-size="14.00">53</text>
<polyline fill="none" stroke="black" points="951.94,-0.5 951.94,-149.3 "/>
<text text-anchor="middle" x="1052.35" y="-132.7" font-family="Courier New" font-size="14.00">type: variable (bytes)</text>
<polyline fill="none" stroke="black" points="951.94,-124.5 1152.77,-124.5 "/>
<text text-anchor="middle" x="1052.34" y="-107.9" font-family="Courier New" font-size="14.00">uint256 (32)</text>
<polyline fill="none" stroke="black" points="951.94,-99.7 1152.77,-99.7 "/>
<text text-anchor="middle" x="1052.34" y="-83.1" font-family="Courier New" font-size="14.00">uint256 (32)</text>
<polyline fill="none" stroke="black" points="951.94,-74.9 1152.77,-74.9 "/>
<text text-anchor="middle" x="1052.14" y="-58.3" font-family="Courier New" font-size="14.00">&#45;&#45;&#45;&#45; (1472)</text>
<polyline fill="none" stroke="black" points="951.94,-50.1 1152.77,-50.1 "/>
<text text-anchor="middle" x="1052.34" y="-33.5" font-family="Courier New" font-size="14.00">uint256 (32)</text>
<polyline fill="none" stroke="black" points="951.94,-25.3 1152.77,-25.3 "/>
<text text-anchor="middle" x="1052.34" y="-8.7" font-family="Courier New" font-size="14.00">uint256 (32)</text>
</g>
<!-- 3&#45;&gt;2 -->
<g id="edge2" class="edge">
<title>3:13&#45;&gt;2</title>
<path fill="none" stroke="black" d="M586.49,-121.3C689.22,-121.3 805.03,-111.99 892.11,-103.12"/>
<polygon fill="black" stroke="black" points="892.73,-106.57 902.32,-102.06 892.01,-99.61 892.73,-106.57"/>
</g>
</g>
</svg>
