<?xml version="1.0" encoding="UTF-8" standalone="no"?>
<!DOCTYPE svg PUBLIC "-//W3C//DTD SVG 1.1//EN"
 "http://www.w3.org/Graphics/SVG/1.1/DTD/svg11.dtd">
<!-- Generated by graphviz version 5.0.0 (20220707.1540)
 -->
<!-- Title: StorageDiagram Pages: 1 -->
<svg width="2488pt" height="766pt"
 viewBox="0.00 0.00 2488.37 765.80" xmlns="http://www.w3.org/2000/svg" xmlns:xlink="http://www.w3.org/1999/xlink">
<g id="graph0" class="graph" transform="scale(1 1) rotate(0) translate(4 761.8)">
<title>StorageDiagram</title>
<polygon fill="white" stroke="transparent" points="-4,4 -4,-761.8 2484.37,-761.8 2484.37,4 -4,4"/>
<!-- 8 -->
<g id="node1" class="node">
<title>8</title>
<polygon fill="#f2f2f2" stroke="black" points="0,-0.5 0,-570.9 1432.62,-570.9 1432.62,-0.5 0,-0.5"/>
<text text-anchor="middle" x="716.31" y="-554.3" font-family="Courier New" font-size="14.00">CompoundingStakingSSVStrategy &lt;&lt;Contract&gt;&gt;</text>
<polyline fill="none" stroke="black" points="0,-546.1 1432.62,-546.1 "/>
<text text-anchor="middle" x="37.4" y="-529.5" font-family="Courier New" font-size="14.00">slot</text>
<polyline fill="none" stroke="black" points="0,-521.3 74.81,-521.3 "/>
<text text-anchor="middle" x="37.4" y="-504.7" font-family="Courier New" font-size="14.00">0</text>
<polyline fill="none" stroke="black" points="0,-496.5 74.81,-496.5 "/>
<text text-anchor="middle" x="37.4" y="-479.9" font-family="Courier New" font-size="14.00">1</text>
<polyline fill="none" stroke="black" points="0,-471.7 74.81,-471.7 "/>
<text text-anchor="middle" x="37.4" y="-455.1" font-family="Courier New" font-size="14.00">2</text>
<polyline fill="none" stroke="black" points="0,-446.9 74.81,-446.9 "/>
<text text-anchor="middle" x="37.4" y="-430.3" font-family="Courier New" font-size="14.00">3</text>
<polyline fill="none" stroke="black" points="0,-422.1 74.81,-422.1 "/>
<text text-anchor="middle" x="37.4" y="-405.5" font-family="Courier New" font-size="14.00">4</text>
<polyline fill="none" stroke="black" points="0,-397.3 74.81,-397.3 "/>
<text text-anchor="middle" x="37.4" y="-380.7" font-family="Courier New" font-size="14.00">5&#45;6</text>
<polyline fill="none" stroke="black" points="0,-372.5 74.81,-372.5 "/>
<text text-anchor="middle" x="37.4" y="-355.9" font-family="Courier New" font-size="14.00">7</text>
<polyline fill="none" stroke="black" points="0,-347.7 74.81,-347.7 "/>
<text text-anchor="middle" x="37.4" y="-331.1" font-family="Courier New" font-size="14.00">8</text>
<polyline fill="none" stroke="black" points="0,-322.9 74.81,-322.9 "/>
<text text-anchor="middle" x="37.4" y="-306.3" font-family="Courier New" font-size="14.00">9&#45;49</text>
<polyline fill="none" stroke="black" points="0,-298.1 74.81,-298.1 "/>
<text text-anchor="middle" x="37.4" y="-281.5" font-family="Courier New" font-size="14.00">50</text>
<polyline fill="none" stroke="black" points="0,-273.3 74.81,-273.3 "/>
<text text-anchor="middle" x="37.4" y="-256.7" font-family="Courier New" font-size="14.00">51&#45;100</text>
<polyline fill="none" stroke="black" points="0,-248.5 74.81,-248.5 "/>
<text text-anchor="middle" x="37.4" y="-231.9" font-family="Courier New" font-size="14.00">101</text>
<polyline fill="none" stroke="black" points="0,-223.7 74.81,-223.7 "/>
<text text-anchor="middle" x="37.4" y="-207.1" font-family="Courier New" font-size="14.00">102</text>
<polyline fill="none" stroke="black" points="0,-198.9 74.81,-198.9 "/>
<text text-anchor="middle" x="37.4" y="-182.3" font-family="Courier New" font-size="14.00">103</text>
<polyline fill="none" stroke="black" points="0,-174.1 74.81,-174.1 "/>
<text text-anchor="middle" x="37.4" y="-157.5" font-family="Courier New" font-size="14.00">104</text>
<polyline fill="none" stroke="black" points="0,-149.3 74.81,-149.3 "/>
<text text-anchor="middle" x="37.4" y="-132.7" font-family="Courier New" font-size="14.00">105</text>
<polyline fill="none" stroke="black" points="0,-124.5 74.81,-124.5 "/>
<text text-anchor="middle" x="37.4" y="-107.9" font-family="Courier New" font-size="14.00">106</text>
<polyline fill="none" stroke="black" points="0,-99.7 74.81,-99.7 "/>
<text text-anchor="middle" x="37.4" y="-83.1" font-family="Courier New" font-size="14.00">107</text>
<polyline fill="none" stroke="black" points="0,-74.9 74.81,-74.9 "/>
<text text-anchor="middle" x="37.4" y="-58.3" font-family="Courier New" font-size="14.00">108</text>
<polyline fill="none" stroke="black" points="0,-50.1 74.81,-50.1 "/>
<text text-anchor="middle" x="37.4" y="-33.5" font-family="Courier New" font-size="14.00">109&#45;206</text>
<polyline fill="none" stroke="black" points="0,-25.3 74.81,-25.3 "/>
<text text-anchor="middle" x="37.4" y="-8.7" font-family="Courier New" font-size="14.00">207&#45;256</text>
<polyline fill="none" stroke="black" points="74.81,-0.5 74.81,-546.1 "/>
<text text-anchor="middle" x="753.71" y="-529.5" font-family="Courier New" font-size="14.00">type: &lt;inherited contract&gt;.variable (bytes)</text>
<polyline fill="none" stroke="black" points="74.81,-521.3 1432.62,-521.3 "/>
<text text-anchor="middle" x="150.02" y="-504.7" font-family="Courier New" font-size="14.00">unallocated (10)</text>
<polyline fill="none" stroke="black" points="225.23,-496.5 225.23,-521.3 "/>
<text text-anchor="middle" x="443.27" y="-504.7" font-family="Courier New" font-size="14.00">bool: CompoundingValidatorManager.firstDeposit (1)</text>
<polyline fill="none" stroke="black" points="661.3,-496.5 661.3,-521.3 "/>
<text text-anchor="middle" x="929.74" y="-504.7" font-family="Courier New" font-size="14.00">address: CompoundingValidatorManager.validatorRegistrator (20)</text>
<polyline fill="none" stroke="black" points="1198.18,-496.5 1198.18,-521.3 "/>
<text text-anchor="middle" x="1315.4" y="-504.7" font-family="Courier New" font-size="14.00">bool: Pausable._paused (1)</text>
<polyline fill="none" stroke="black" points="74.81,-496.5 1432.62,-496.5 "/>
<text text-anchor="middle" x="753.26" y="-479.9" font-family="Courier New" font-size="14.00">mapping(bytes32=&gt;DepositData): CompoundingValidatorManager.deposits (32)</text>
<polyline fill="none" stroke="black" points="74.81,-471.7 1432.62,-471.7 "/>
<text text-anchor="middle" x="753.35" y="-455.1" font-family="Courier New" font-size="14.00">bytes32[]: CompoundingValidatorManager.depositList (32)</text>
<polyline fill="none" stroke="black" points="74.81,-446.9 1432.62,-446.9 "/>
<text text-anchor="middle" x="753.25" y="-430.3" font-family="Courier New" font-size="14.00">bytes32[]: CompoundingValidatorManager.verifiedValidators (32)</text>
<polyline fill="none" stroke="black" points="74.81,-422.1 1432.62,-422.1 "/>
<text text-anchor="middle" x="753.36" y="-405.5" font-family="Courier New" font-size="14.00">mapping(bytes32=&gt;ValidatorData): CompoundingValidatorManager.validator (32)</text>
<polyline fill="none" stroke="black" points="74.81,-397.3 1432.62,-397.3 "/>
<text text-anchor="middle" x="753.25" y="-380.7" font-family="Courier New" font-size="14.00">Balances: CompoundingValidatorManager.snappedBalance (64)</text>
<polyline fill="none" stroke="black" points="74.81,-372.5 1432.62,-372.5 "/>
<text text-anchor="middle" x="753.65" y="-355.9" font-family="Courier New" font-size="14.00">uint256: CompoundingValidatorManager.lastVerifiedEthBalance (32)</text>
<polyline fill="none" stroke="black" points="74.81,-347.7 1432.62,-347.7 "/>
<text text-anchor="middle" x="753.26" y="-331.1" font-family="Courier New" font-size="14.00">uint256: CompoundingValidatorManager.depositedWethAccountedFor (32)</text>
<polyline fill="none" stroke="black" points="74.81,-322.9 1432.62,-322.9 "/>
<text text-anchor="middle" x="753.45" y="-306.3" font-family="Courier New" font-size="14.00">uint256[41]: CompoundingValidatorManager.__gap (1312)</text>
<polyline fill="none" stroke="black" points="74.81,-298.1 1432.62,-298.1 "/>
<text text-anchor="middle" x="246.02" y="-281.5" font-family="Courier New" font-size="14.00">unallocated (30)</text>
<polyline fill="none" stroke="black" points="417.23,-273.3 417.23,-298.1 "/>
<text text-anchor="middle" x="672.96" y="-281.5" font-family="Courier New" font-size="14.00">bool: Initializable.initializing (1)</text>
<polyline fill="none" stroke="black" points="928.68,-273.3 928.68,-298.1 "/>
<text text-anchor="middle" x="1180.2" y="-281.5" font-family="Courier New" font-size="14.00">bool: Initializable.initialized (1)</text>
<polyline fill="none" stroke="black" points="74.81,-273.3 1432.62,-273.3 "/>
<text text-anchor="middle" x="753.44" y="-256.7" font-family="Courier New" font-size="14.00">uint256[50]: Initializable.______gap (1600)</text>
<polyline fill="none" stroke="black" points="74.81,-248.5 1432.62,-248.5 "/>
<text text-anchor="middle" x="298.52" y="-231.9" font-family="Courier New" font-size="14.00">unallocated (12)</text>
<polyline fill="none" stroke="black" points="522.23,-223.7 522.23,-248.5 "/>
<text text-anchor="middle" x="976.98" y="-231.9" font-family="Courier New" font-size="14.00">address: InitializableAbstractStrategy._deprecated_platformAddress (20)</text>
<polyline fill="none" stroke="black" points="74.81,-223.7 1432.62,-223.7 "/>
<text text-anchor="middle" x="305.02" y="-207.1" font-family="Courier New" font-size="14.00">unallocated (12)</text>
<polyline fill="none" stroke="black" points="535.23,-198.9 535.23,-223.7 "/>
<text text-anchor="middle" x="983.88" y="-207.1" font-family="Courier New" font-size="14.00">address: InitializableAbstractStrategy._deprecated_vaultAddress (20)</text>
<polyline fill="none" stroke="black" points="74.81,-198.9 1432.62,-198.9 "/>
<text text-anchor="middle" x="753.36" y="-182.3" font-family="Courier New" font-size="14.00">mapping(address=&gt;address): InitializableAbstractStrategy.assetToPToken (32)</text>
<polyline fill="none" stroke="black" points="74.81,-174.1 1432.62,-174.1 "/>
<text text-anchor="middle" x="753.45" y="-157.5" font-family="Courier New" font-size="14.00">address[]: InitializableAbstractStrategy.assetsMapped (32)</text>
<polyline fill="none" stroke="black" points="74.81,-149.3 1432.62,-149.3 "/>
<text text-anchor="middle" x="292.02" y="-132.7" font-family="Courier New" font-size="14.00">unallocated (12)</text>
<polyline fill="none" stroke="black" points="509.23,-124.5 509.23,-149.3 "/>
<text text-anchor="middle" x="970.58" y="-132.7" font-family="Courier New" font-size="14.00">address: InitializableAbstractStrategy._deprecated_rewardTokenAddress (20)</text>
<polyline fill="none" stroke="black" points="74.81,-124.5 1432.62,-124.5 "/>
<text text-anchor="middle" x="753.27" y="-107.9" font-family="Courier New" font-size="14.00">uint256: InitializableAbstractStrategy._deprecated_rewardLiquidationThreshold (32)</text>
<polyline fill="none" stroke="black" points="74.81,-99.7 1432.62,-99.7 "/>
<text text-anchor="middle" x="321.52" y="-83.1" font-family="Courier New" font-size="14.00">unallocated (12)</text>
<polyline fill="none" stroke="black" points="568.23,-74.9 568.23,-99.7 "/>
<text text-anchor="middle" x="1000.27" y="-83.1" font-family="Courier New" font-size="14.00">address: InitializableAbstractStrategy.harvesterAddress (20)</text>
<polyline fill="none" stroke="black" points="74.81,-74.9 1432.62,-74.9 "/>
<text text-anchor="middle" x="753.55" y="-58.3" font-family="Courier New" font-size="14.00">address[]: InitializableAbstractStrategy.rewardTokenAddresses (32)</text>
<polyline fill="none" stroke="black" points="74.81,-50.1 1432.62,-50.1 "/>
<text text-anchor="middle" x="753.45" y="-33.5" font-family="Courier New" font-size="14.00">int256[98]: InitializableAbstractStrategy._reserved (3136)</text>
<polyline fill="none" stroke="black" points="74.81,-25.3 1432.62,-25.3 "/>
<text text-anchor="middle" x="753.33" y="-8.7" font-family="Courier New" font-size="14.00">uint256[50]: __gap (1600)</text>
</g>
<!-- 1 -->
<g id="node2" class="node">
<title>1</title>
<polygon fill="#f2f2f2" stroke="black" points="1468.62,-658.1 1468.62,-757.3 2480.37,-757.3 2480.37,-658.1 1468.62,-658.1"/>
<text text-anchor="middle" x="1974.49" y="-740.7" font-family="Courier New" font-size="14.00">DepositData &lt;&lt;Struct&gt;&gt;</text>
<polyline fill="none" stroke="black" points="1468.62,-732.5 2480.37,-732.5 "/>
<text text-anchor="middle" x="1501.82" y="-715.9" font-family="Courier New" font-size="14.00">offset</text>
<polyline fill="none" stroke="black" points="1468.62,-707.7 1535.03,-707.7 "/>
<text text-anchor="middle" x="1501.82" y="-691.1" font-family="Courier New" font-size="14.00">0</text>
<polyline fill="none" stroke="black" points="1468.62,-682.9 1535.03,-682.9 "/>
<text text-anchor="middle" x="1501.82" y="-666.3" font-family="Courier New" font-size="14.00">1</text>
<polyline fill="none" stroke="black" points="1535.03,-658.1 1535.03,-732.5 "/>
<text text-anchor="middle" x="2007.7" y="-715.9" font-family="Courier New" font-size="14.00">type: variable (bytes)</text>
<polyline fill="none" stroke="black" points="1535.03,-707.7 2480.37,-707.7 "/>
<text text-anchor="middle" x="2007.34" y="-691.1" font-family="Courier New" font-size="14.00">bytes32: pubKeyHash (32)</text>
<polyline fill="none" stroke="black" points="1535.03,-682.9 2480.37,-682.9 "/>
<text text-anchor="middle" x="1610.24" y="-666.3" font-family="Courier New" font-size="14.00">unallocated (11)</text>
<polyline fill="none" stroke="black" points="1685.45,-658.1 1685.45,-682.9 "/>
<text text-anchor="middle" x="1798.47" y="-666.3" font-family="Courier New" font-size="14.00">DepositStatus: status (1)</text>
<polyline fill="none" stroke="black" points="1911.48,-658.1 1911.48,-682.9 "/>
<text text-anchor="middle" x="2020.3" y="-666.3" font-family="Courier New" font-size="14.00">uint32: depositIndex (4)</text>
<polyline fill="none" stroke="black" points="2129.12,-658.1 2129.12,-682.9 "/>
<text text-anchor="middle" x="2204.33" y="-666.3" font-family="Courier New" font-size="14.00">uint64: slot (8)</text>
<polyline fill="none" stroke="black" points="2279.54,-658.1 2279.54,-682.9 "/>
<text text-anchor="middle" x="2379.95" y="-666.3" font-family="Courier New" font-size="14.00">uint64: amountGwei (8)</text>
</g>
<!-- 8&#45;&gt;1 -->
<g id="edge1" class="edge">
<title>8:9&#45;&gt;1</title>
<path fill="none" stroke="black" d="M1432.31,-483.7C1507.4,-483.7 1412.93,-598.33 1468.62,-648.7 1469.61,-649.59 1470.6,-650.48 1471.61,-651.36"/>
<polygon fill="black" stroke="black" points="1469.49,-654.16 1479.39,-657.93 1474,-648.8 1469.49,-654.16"/>
</g>
<!-- 2 -->
<g id="node3" class="node">
<title>2</title>
<polygon fill="#f2f2f2" stroke="black" points="1689.25,-548.1 1689.25,-639.3 2259.74,-639.3 2259.74,-548.1 1689.25,-548.1"/>
<text text-anchor="middle" x="1974.49" y="-622.7" font-family="Courier New" font-size="14.00">bytes32[]: depositList &lt;&lt;Array&gt;&gt;</text>
<text text-anchor="middle" x="1974.49" y="-605.9" font-family="Courier New" font-size="14.00">0x405787fa12a823e0f2b7631cc41b3ba8828b3321ca811111fa75cd3aa3bb5ace</text>
<polyline fill="none" stroke="black" points="1689.25,-597.7 2259.74,-597.7 "/>
<text text-anchor="middle" x="1797.95" y="-581.1" font-family="Courier New" font-size="14.00">offset</text>
<polyline fill="none" stroke="black" points="1689.25,-572.9 1906.66,-572.9 "/>
<text text-anchor="middle" x="1797.95" y="-556.3" font-family="Courier New" font-size="14.00">0</text>
<polyline fill="none" stroke="black" points="1906.66,-548.1 1906.66,-597.7 "/>
<text text-anchor="middle" x="2083.07" y="-581.1" font-family="Courier New" font-size="14.00">type: variable (bytes)</text>
<polyline fill="none" stroke="black" points="1906.66,-572.9 2259.49,-572.9 "/>
<text text-anchor="middle" x="2083.07" y="-556.3" font-family="Courier New" font-size="14.00">bytes32 (32)</text>
</g>
<!-- 8&#45;&gt;2 -->
<g id="edge2" class="edge">
<title>8:11&#45;&gt;2</title>
<path fill="none" stroke="black" d="M1432.62,-459.7C1471.2,-459.7 1437.35,-516.1 1468.62,-538.7 1529.14,-582.45 1604.88,-603.27 1679.14,-611.54"/>
<polygon fill="black" stroke="black" points="1678.83,-615.03 1689.14,-612.58 1679.55,-608.06 1678.83,-615.03"/>
</g>
<!-- 3 -->
<g id="node4" class="node">
<title>3</title>
<polygon fill="#f2f2f2" stroke="black" points="1689.25,-438.1 1689.25,-529.3 2259.74,-529.3 2259.74,-438.1 1689.25,-438.1"/>
<text text-anchor="middle" x="1974.49" y="-512.7" font-family="Courier New" font-size="14.00">bytes32[]: verifiedValidators &lt;&lt;Array&gt;&gt;</text>
<text text-anchor="middle" x="1974.49" y="-495.9" font-family="Courier New" font-size="14.00">0xc2575a0e9e593c00f959f8c92f12db2869c3395a3b0502d05e2516446f71f85b</text>
<polyline fill="none" stroke="black" points="1689.25,-487.7 2259.74,-487.7 "/>
<text text-anchor="middle" x="1797.95" y="-471.1" font-family="Courier New" font-size="14.00">offset</text>
<polyline fill="none" stroke="black" points="1689.25,-462.9 1906.66,-462.9 "/>
<text text-anchor="middle" x="1797.95" y="-446.3" font-family="Courier New" font-size="14.00">0</text>
<polyline fill="none" stroke="black" points="1906.66,-438.1 1906.66,-487.7 "/>
<text text-anchor="middle" x="2083.07" y="-471.1" font-family="Courier New" font-size="14.00">type: variable (bytes)</text>
<polyline fill="none" stroke="black" points="1906.66,-462.9 2259.49,-462.9 "/>
<text text-anchor="middle" x="2083.07" y="-446.3" font-family="Courier New" font-size="14.00">bytes32 (32)</text>
</g>
<!-- 8&#45;&gt;3 -->
<g id="edge3" class="edge">
<title>8:13&#45;&gt;3</title>
<path fill="none" stroke="black" d="M1432.31,-434.7C1512.49,-434.7 1599.08,-440.1 1678.99,-447.32"/>
<polygon fill="black" stroke="black" points="1678.92,-450.83 1689.2,-448.25 1679.56,-443.85 1678.92,-450.83"/>
</g>
<!-- 4 -->
<g id="node5" class="node">
<title>4</title>
<polygon fill="#f2f2f2" stroke="black" points="1673.65,-344.5 1673.65,-418.9 2275.34,-418.9 2275.34,-344.5 1673.65,-344.5"/>
<text text-anchor="middle" x="1974.49" y="-402.3" font-family="Courier New" font-size="14.00">ValidatorData &lt;&lt;Struct&gt;&gt;</text>
<polyline fill="none" stroke="black" points="1673.65,-394.1 2275.34,-394.1 "/>
<text text-anchor="middle" x="1706.85" y="-377.5" font-family="Courier New" font-size="14.00">offset</text>
<polyline fill="none" stroke="black" points="1673.65,-369.3 1740.06,-369.3 "/>
<text text-anchor="middle" x="1706.85" y="-352.7" font-family="Courier New" font-size="14.00">0</text>
<polyline fill="none" stroke="black" points="1740.06,-344.5 1740.06,-394.1 "/>
<text text-anchor="middle" x="2007.7" y="-377.5" font-family="Courier New" font-size="14.00">type: variable (bytes)</text>
<polyline fill="none" stroke="black" points="1740.06,-369.3 2275.34,-369.3 "/>
<text text-anchor="middle" x="1815.27" y="-352.7" font-family="Courier New" font-size="14.00">unallocated (26)</text>
<polyline fill="none" stroke="black" points="1890.48,-344.5 1890.48,-369.3 "/>
<text text-anchor="middle" x="1969.89" y="-352.7" font-family="Courier New" font-size="14.00">uint40: index (5)</text>
<polyline fill="none" stroke="black" points="2049.3,-344.5 2049.3,-369.3 "/>
<text text-anchor="middle" x="2162.32" y="-352.7" font-family="Courier New" font-size="14.00">ValidatorState: state (1)</text>
</g>
<!-- 8&#45;&gt;4 -->
<g id="edge4" class="edge">
<title>8:16&#45;&gt;4</title>
<path fill="none" stroke="black" d="M1432.62,-409.7C1507.42,-409.7 1587.97,-407 1663.46,-403.27"/>
<polygon fill="black" stroke="black" points="1663.78,-406.76 1673.6,-402.76 1663.43,-399.77 1663.78,-406.76"/>
</g>
<!-- 5 -->
<g id="node6" class="node">
<title>5</title>
<polygon fill="#f2f2f2" stroke="black" points="1673.65,-226.1 1673.65,-325.3 2275.34,-325.3 2275.34,-226.1 1673.65,-226.1"/>
<text text-anchor="middle" x="1974.49" y="-308.7" font-family="Courier New" font-size="14.00">Balances &lt;&lt;Struct&gt;&gt;</text>
<polyline fill="none" stroke="black" points="1673.65,-300.5 2275.34,-300.5 "/>
<text text-anchor="middle" x="1698.45" y="-283.9" font-family="Courier New" font-size="14.00">slot</text>
<polyline fill="none" stroke="black" points="1673.65,-275.7 1723.26,-275.7 "/>
<text text-anchor="middle" x="1698.45" y="-259.1" font-family="Courier New" font-size="14.00">5</text>
<polyline fill="none" stroke="black" points="1673.65,-250.9 1723.26,-250.9 "/>
<text text-anchor="middle" x="1698.45" y="-234.3" font-family="Courier New" font-size="14.00">6</text>
<polyline fill="none" stroke="black" points="1723.26,-226.1 1723.26,-300.5 "/>
<text text-anchor="middle" x="1999.3" y="-283.9" font-family="Courier New" font-size="14.00">type: variable (bytes)</text>
<polyline fill="none" stroke="black" points="1723.26,-275.7 2275.34,-275.7 "/>
<text text-anchor="middle" x="1998.87" y="-259.1" font-family="Courier New" font-size="14.00">bytes32: blockRoot (32)</text>
<polyline fill="none" stroke="black" points="1723.26,-250.9 2275.34,-250.9 "/>
<text text-anchor="middle" x="1794.27" y="-234.3" font-family="Courier New" font-size="14.00">unallocated (8)</text>
<polyline fill="none" stroke="black" points="1865.28,-226.1 1865.28,-250.9 "/>
<text text-anchor="middle" x="1974.09" y="-234.3" font-family="Courier New" font-size="14.00">uint128: ethBalance (16)</text>
<polyline fill="none" stroke="black" points="2082.91,-226.1 2082.91,-250.9 "/>
<text text-anchor="middle" x="2179.12" y="-234.3" font-family="Courier New" font-size="14.00">uint64: timestamp (8)</text>
</g>
<!-- 8&#45;&gt;5 -->
<g id="edge5" class="edge">
<title>8:20&#45;&gt;5</title>
<path fill="none" stroke="black" d="M1432.31,-384.7C1459.77,-384.7 1444.92,-348.57 1468.62,-334.7 1527.06,-300.5 1595.82,-281.5 1663.46,-271.66"/>
<polygon fill="black" stroke="black" points="1664.01,-275.12 1673.43,-270.27 1663.05,-268.18 1664.01,-275.12"/>
</g>
<!-- 6 -->
<g id="node7" class="node">
<title>6</title>
<polygon fill="#f2f2f2" stroke="black" points="1689.25,-116.1 1689.25,-207.3 2259.74,-207.3 2259.74,-116.1 1689.25,-116.1"/>
<text text-anchor="middle" x="1974.49" y="-190.7" font-family="Courier New" font-size="14.00">address[]: assetsMapped &lt;&lt;Array&gt;&gt;</text>
<text text-anchor="middle" x="1974.49" y="-173.9" font-family="Courier New" font-size="14.00">0xa2153420d844928b4421650203c77babc8b33d7f2e7b450e2966db0c22097753</text>
<polyline fill="none" stroke="black" points="1689.25,-165.7 2259.74,-165.7 "/>
<text text-anchor="middle" x="1781.45" y="-149.1" font-family="Courier New" font-size="14.00">offset</text>
<polyline fill="none" stroke="black" points="1689.25,-140.9 1873.66,-140.9 "/>
<text text-anchor="middle" x="1781.45" y="-124.3" font-family="Courier New" font-size="14.00">0</text>
<polyline fill="none" stroke="black" points="1873.66,-116.1 1873.66,-165.7 "/>
<text text-anchor="middle" x="2066.28" y="-149.1" font-family="Courier New" font-size="14.00">type: variable (bytes)</text>
<polyline fill="none" stroke="black" points="1873.66,-140.9 2258.9,-140.9 "/>
<text text-anchor="middle" x="1978.37" y="-124.3" font-family="Courier New" font-size="14.00">unallocated (12)</text>
<polyline fill="none" stroke="black" points="2083.08,-116.1 2083.08,-140.9 "/>
<text text-anchor="middle" x="2170.99" y="-124.3" font-family="Courier New" font-size="14.00">address (20)</text>
</g>
<!-- 8&#45;&gt;6 -->
<g id="edge6" class="edge">
<title>8:31&#45;&gt;6</title>
<path fill="none" stroke="black" d="M1432.62,-161.7C1512.43,-161.7 1598.86,-161.7 1678.72,-161.7"/>
<polygon fill="black" stroke="black" points="1678.93,-165.2 1688.93,-161.7 1678.93,-158.2 1678.93,-165.2"/>
</g>
<!-- 7 -->
<g id="node8" class="node">
<title>7</title>
<polygon fill="#f2f2f2" stroke="black" points="1689.25,-6.1 1689.25,-97.3 2259.74,-97.3 2259.74,-6.1 1689.25,-6.1"/>
<text text-anchor="middle" x="1974.49" y="-80.7" font-family="Courier New" font-size="14.00">address[]: rewardTokenAddresses &lt;&lt;Array&gt;&gt;</text>
<text text-anchor="middle" x="1974.49" y="-63.9" font-family="Courier New" font-size="14.00">0x2b4a51ab505fc96a0952efda2ba61bcd3078d4c02c39a186ec16f21883fbe016</text>
<polyline fill="none" stroke="black" points="1689.25,-55.7 2259.74,-55.7 "/>
<text text-anchor="middle" x="1781.45" y="-39.1" font-family="Courier New" font-size="14.00">offset</text>
<polyline fill="none" stroke="black" points="1689.25,-30.9 1873.66,-30.9 "/>
<text text-anchor="middle" x="1781.45" y="-14.3" font-family="Courier New" font-size="14.00">0</text>
<polyline fill="none" stroke="black" points="1873.66,-6.1 1873.66,-55.7 "/>
<text text-anchor="middle" x="2066.28" y="-39.1" font-family="Courier New" font-size="14.00">type: variable (bytes)</text>
<polyline fill="none" stroke="black" points="1873.66,-30.9 2258.9,-30.9 "/>
<text text-anchor="middle" x="1978.37" y="-14.3" font-family="Courier New" font-size="14.00">unallocated (12)</text>
<polyline fill="none" stroke="black" points="2083.08,-6.1 2083.08,-30.9 "/>
<text text-anchor="middle" x="2170.99" y="-14.3" font-family="Courier New" font-size="14.00">address (20)</text>
</g>
<!-- 8&#45;&gt;7 -->
<g id="edge7" class="edge">
<title>8:36&#45;&gt;7</title>
<path fill="none" stroke="black" d="M1432.62,-62.7C1512.44,-62.7 1598.88,-61.49 1678.74,-59.87"/>
<polygon fill="black" stroke="black" points="1679.02,-63.36 1688.95,-59.66 1678.88,-56.36 1679.02,-63.36"/>
</g>
</g>
</svg>
