<?xml version="1.0" encoding="UTF-8" standalone="no"?>
<!DOCTYPE svg PUBLIC "-//W3C//DTD SVG 1.1//EN"
 "http://www.w3.org/Graphics/SVG/1.1/DTD/svg11.dtd">
<!-- Generated by graphviz version 5.0.0 (20220707.1540)
 -->
<!-- Title: UmlClassDiagram Pages: 1 -->
<svg width="843pt" height="685pt"
 viewBox="0.00 0.00 842.67 684.80" xmlns="http://www.w3.org/2000/svg" xmlns:xlink="http://www.w3.org/1999/xlink">
<g id="graph0" class="graph" transform="scale(1 1) rotate(0) translate(4 680.8)">
<title>UmlClassDiagram</title>
<polygon fill="white" stroke="transparent" points="-4,4 -4,-680.8 838.67,-680.8 838.67,4 -4,4"/>
<!-- 7 -->
<g id="node1" class="node">
<title>7</title>
<polygon fill="#f2f2f2" stroke="black" points="50.84,-530.9 50.84,-572.5 285.7,-572.5 285.7,-530.9 50.84,-530.9"/>
<text text-anchor="middle" x="168.27" y="-555.9" font-family="Times,serif" font-size="14.00">Governable</text>
<text text-anchor="middle" x="168.27" y="-539.1" font-family="Times,serif" font-size="14.00">../contracts/governance/Governable.sol</text>
</g>
<!-- 22 -->
<g id="node2" class="node">
<title>22</title>
<polygon fill="#f2f2f2" stroke="black" points="0,-79.1 0,-137.5 232.54,-137.5 232.54,-79.1 0,-79.1"/>
<text text-anchor="middle" x="116.27" y="-120.9" font-family="Times,serif" font-size="14.00">&lt;&lt;Interface&gt;&gt;</text>
<text text-anchor="middle" x="116.27" y="-104.1" font-family="Times,serif" font-size="14.00">IComptroller</text>
<text text-anchor="middle" x="116.27" y="-87.3" font-family="Times,serif" font-size="14.00">../contracts/interfaces/IComptroller.sol</text>
</g>
<!-- 40 -->
<g id="node3" class="node">
<title>40</title>
<polygon fill="#f2f2f2" stroke="black" points="337.67,-269.9 337.67,-328.3 532.88,-328.3 532.88,-269.9 337.67,-269.9"/>
<text text-anchor="middle" x="435.27" y="-311.7" font-family="Times,serif" font-size="14.00">&lt;&lt;Interface&gt;&gt;</text>
<text text-anchor="middle" x="435.27" y="-294.9" font-family="Times,serif" font-size="14.00">IVault</text>
<text text-anchor="middle" x="435.27" y="-278.1" font-family="Times,serif" font-size="14.00">../contracts/interfaces/IVault.sol</text>
</g>
<!-- 180 -->
<g id="node11" class="node">
<title>180</title>
<polygon fill="#f2f2f2" stroke="black" points="331.82,-365.3 331.82,-406.9 538.72,-406.9 538.72,-365.3 331.82,-365.3"/>
<text text-anchor="middle" x="435.27" y="-390.3" font-family="Times,serif" font-size="14.00">VaultStorage</text>
<text text-anchor="middle" x="435.27" y="-373.5" font-family="Times,serif" font-size="14.00">../contracts/vault/VaultStorage.sol</text>
</g>
<!-- 40&#45;&gt;180 -->
<g id="edge1" class="edge">
<title>40&#45;&gt;180</title>
<path fill="none" stroke="black" stroke-dasharray="5,2" d="M435.27,-328.4C435.27,-336.99 435.27,-346.44 435.27,-355.13"/>
<polygon fill="black" stroke="black" points="431.77,-355.24 435.27,-365.24 438.77,-355.24 431.77,-355.24"/>
</g>
<!-- 125 -->
<g id="node4" class="node">
<title>125</title>
<polygon fill="#f2f2f2" stroke="black" points="288.27,-79.1 288.27,-137.5 582.27,-137.5 582.27,-79.1 288.27,-79.1"/>
<text text-anchor="middle" x="435.27" y="-120.9" font-family="Times,serif" font-size="14.00">&lt;&lt;Abstract&gt;&gt;</text>
<text text-anchor="middle" x="435.27" y="-104.1" font-family="Times,serif" font-size="14.00">BaseCompoundStrategy</text>
<text text-anchor="middle" x="435.27" y="-87.3" font-family="Times,serif" font-size="14.00">../contracts/strategies/BaseCompoundStrategy.sol</text>
</g>
<!-- 142 -->
<g id="node6" class="node">
<title>142</title>
<polygon fill="#f2f2f2" stroke="black" points="47.87,-174.5 47.87,-232.9 272.67,-232.9 272.67,-174.5 47.87,-174.5"/>
<text text-anchor="middle" x="160.27" y="-216.3" font-family="Times,serif" font-size="14.00">&lt;&lt;Interface&gt;&gt;</text>
<text text-anchor="middle" x="160.27" y="-199.5" font-family="Times,serif" font-size="14.00">ICERC20</text>
<text text-anchor="middle" x="160.27" y="-182.7" font-family="Times,serif" font-size="14.00">../contracts/strategies/ICompound.sol</text>
</g>
<!-- 125&#45;&gt;142 -->
<g id="edge3" class="edge">
<title>125&#45;&gt;142</title>
<path fill="none" stroke="black" stroke-dasharray="5,2" d="M352.02,-137.58C320.93,-148.14 285.43,-160.19 253.5,-171.03"/>
<polygon fill="black" stroke="black" points="252.06,-167.83 243.72,-174.36 254.31,-174.46 252.06,-167.83"/>
</g>
<!-- 168 -->
<g id="node9" class="node">
<title>168</title>
<polygon fill="#f2f2f2" stroke="black" points="290.22,-174.5 290.22,-232.9 580.32,-232.9 580.32,-174.5 290.22,-174.5"/>
<text text-anchor="middle" x="435.27" y="-216.3" font-family="Times,serif" font-size="14.00">&lt;&lt;Abstract&gt;&gt;</text>
<text text-anchor="middle" x="435.27" y="-199.5" font-family="Times,serif" font-size="14.00">InitializableAbstractStrategy</text>
<text text-anchor="middle" x="435.27" y="-182.7" font-family="Times,serif" font-size="14.00">../contracts/utils/InitializableAbstractStrategy.sol</text>
</g>
<!-- 125&#45;&gt;168 -->
<g id="edge2" class="edge">
<title>125&#45;&gt;168</title>
<path fill="none" stroke="black" d="M435.27,-137.58C435.27,-139.66 435.27,-141.8 435.27,-143.98"/>
<polygon fill="none" stroke="black" points="424.77,-144.2 435.27,-174.2 445.77,-144.2 424.77,-144.2"/>
</g>
<!-- 129 -->
<g id="node5" class="node">
<title>129</title>
<polygon fill="#f2f2f2" stroke="black" points="301.88,-0.5 301.88,-42.1 568.67,-42.1 568.67,-0.5 301.88,-0.5"/>
<text text-anchor="middle" x="435.27" y="-25.5" font-family="Times,serif" font-size="14.00">CompoundStrategy</text>
<text text-anchor="middle" x="435.27" y="-8.7" font-family="Times,serif" font-size="14.00">../contracts/strategies/CompoundStrategy.sol</text>
</g>
<!-- 129&#45;&gt;22 -->
<g id="edge6" class="edge">
<title>129&#45;&gt;22</title>
<path fill="none" stroke="black" stroke-dasharray="5,2" d="M360.88,-42.12C322.54,-52.34 274.92,-65.03 231.92,-76.49"/>
<polygon fill="black" stroke="black" points="231.01,-73.11 222.24,-79.06 232.81,-79.87 231.01,-73.11"/>
</g>
<!-- 129&#45;&gt;125 -->
<g id="edge4" class="edge">
<title>129&#45;&gt;125</title>
<path fill="none" stroke="black" d="M435.27,-42.44C435.27,-44.49 435.27,-46.63 435.27,-48.83"/>
<polygon fill="none" stroke="black" points="424.77,-48.94 435.27,-78.94 445.77,-48.94 424.77,-48.94"/>
</g>
<!-- 129&#45;&gt;142 -->
<g id="edge5" class="edge">
<title>129&#45;&gt;142</title>
<path fill="none" stroke="black" stroke-dasharray="5,2" d="M349.1,-42.22C324.81,-50.67 299.52,-62.43 279.27,-78.6 254.78,-98.16 262.24,-114.71 241.27,-138 231.68,-148.66 220.21,-158.95 208.97,-168.06"/>
<polygon fill="black" stroke="black" points="206.52,-165.54 200.85,-174.49 210.86,-171.03 206.52,-165.54"/>
</g>
<!-- 159 -->
<g id="node7" class="node">
<title>159</title>
<polygon fill="#f2f2f2" stroke="black" points="359.14,-443.9 359.14,-485.5 533.4,-485.5 533.4,-443.9 359.14,-443.9"/>
<text text-anchor="middle" x="446.27" y="-468.9" font-family="Times,serif" font-size="14.00">OUSD</text>
<text text-anchor="middle" x="446.27" y="-452.1" font-family="Times,serif" font-size="14.00">../contracts/token/OUSD.sol</text>
</g>
<!-- 159&#45;&gt;7 -->
<g id="edge9" class="edge">
<title>159&#45;&gt;7</title>
<path fill="none" stroke="black" d="M381.44,-485.52C345.9,-496.39 301.21,-510.05 261.93,-522.06"/>
<polygon fill="none" stroke="black" points="258.82,-512.03 233.2,-530.85 264.96,-532.12 258.82,-512.03"/>
</g>
<!-- 167 -->
<g id="node8" class="node">
<title>167</title>
<polygon fill="#f2f2f2" stroke="black" points="606.27,-522.5 606.27,-580.9 802.28,-580.9 802.28,-522.5 606.27,-522.5"/>
<text text-anchor="middle" x="704.27" y="-564.3" font-family="Times,serif" font-size="14.00">&lt;&lt;Abstract&gt;&gt;</text>
<text text-anchor="middle" x="704.27" y="-547.5" font-family="Times,serif" font-size="14.00">Initializable</text>
<text text-anchor="middle" x="704.27" y="-530.7" font-family="Times,serif" font-size="14.00">../contracts/utils/Initializable.sol</text>
</g>
<!-- 159&#45;&gt;167 -->
<g id="edge7" class="edge">
<title>159&#45;&gt;167</title>
<path fill="none" stroke="black" d="M506.43,-485.52C531.32,-493.72 561.04,-503.51 589.78,-512.98"/>
<polygon fill="none" stroke="black" points="586.78,-523.05 618.56,-522.46 593.35,-503.1 586.78,-523.05"/>
</g>
<!-- 170 -->
<g id="node10" class="node">
<title>170</title>
<polygon fill="#f2f2f2" stroke="black" points="303.94,-522.5 303.94,-580.9 588.6,-580.9 588.6,-522.5 303.94,-522.5"/>
<text text-anchor="middle" x="446.27" y="-564.3" font-family="Times,serif" font-size="14.00">&lt;&lt;Abstract&gt;&gt;</text>
<text text-anchor="middle" x="446.27" y="-547.5" font-family="Times,serif" font-size="14.00">InitializableERC20Detailed</text>
<text text-anchor="middle" x="446.27" y="-530.7" font-family="Times,serif" font-size="14.00">../contracts/utils/InitializableERC20Detailed.sol</text>
</g>
<!-- 159&#45;&gt;170 -->
<g id="edge8" class="edge">
<title>159&#45;&gt;170</title>
<path fill="none" stroke="black" d="M446.27,-485.84C446.27,-487.89 446.27,-490.03 446.27,-492.23"/>
<polygon fill="none" stroke="black" points="435.77,-492.34 446.27,-522.34 456.77,-492.34 435.77,-492.34"/>
</g>
<!-- 168&#45;&gt;7 -->
<g id="edge11" class="edge">
<title>168&#45;&gt;7</title>
<path fill="none" stroke="black" d="M376.39,-233.05C359.56,-242.98 342.05,-255.25 328.27,-269.4 260.65,-338.85 211.51,-442.45 186.64,-502.63"/>
<polygon fill="none" stroke="black" points="176.79,-499 175.5,-530.76 196.31,-506.74 176.79,-499"/>
</g>
<!-- 168&#45;&gt;40 -->
<g id="edge14" class="edge">
<title>168&#45;&gt;40</title>
<path fill="none" stroke="black" stroke-dasharray="5,2" d="M435.27,-232.98C435.27,-241.31 435.27,-250.58 435.27,-259.45"/>
<polygon fill="black" stroke="black" points="431.77,-259.6 435.27,-269.6 438.77,-259.6 431.77,-259.6"/>
</g>
<!-- 168&#45;&gt;167 -->
<g id="edge10" class="edge">
<title>168&#45;&gt;167</title>
<path fill="none" stroke="black" d="M493.82,-232.93C510.74,-242.89 528.38,-255.21 542.27,-269.4 607.21,-335.74 655.65,-433.18 681.94,-494.22"/>
<polygon fill="none" stroke="black" points="672.31,-498.4 693.49,-522.1 691.71,-490.36 672.31,-498.4"/>
</g>
<!-- 168&#45;&gt;168 -->
<g id="edge12" class="edge">
<title>168&#45;&gt;168</title>
<path fill="none" stroke="black" stroke-dasharray="5,2" d="M580.48,-190.48C591.52,-193.42 598.32,-197.82 598.32,-203.7 598.32,-207.56 595.39,-210.78 590.26,-213.37"/>
<polygon fill="black" stroke="black" points="588.69,-210.22 580.48,-216.92 591.08,-216.8 588.69,-210.22"/>
</g>
<!-- 357 -->
<g id="node12" class="node">
<title>357</title>
<polygon fill="#f2f2f2" stroke="black" points="244.22,-617.9 244.22,-676.3 648.33,-676.3 648.33,-617.9 244.22,-617.9"/>
<text text-anchor="middle" x="446.27" y="-659.7" font-family="Times,serif" font-size="14.00">&lt;&lt;Interface&gt;&gt;</text>
<text text-anchor="middle" x="446.27" y="-642.9" font-family="Times,serif" font-size="14.00">IERC20</text>
<text text-anchor="middle" x="446.27" y="-626.1" font-family="Times,serif" font-size="14.00">../node_modules/@openzeppelin/contracts/token/ERC20/IERC20.sol</text>
</g>
<!-- 168&#45;&gt;357 -->
<g id="edge13" class="edge">
<title>168&#45;&gt;357</title>
<path fill="none" stroke="black" stroke-dasharray="5,2" d="M580.39,-213.44C693.07,-229.02 830.27,-271.36 830.27,-385.1 830.27,-385.1 830.27,-385.1 830.27,-465.7 830.27,-517.81 847.88,-544.32 811.27,-581.4 788.21,-604.75 725.6,-619.77 658.61,-629.38"/>
<polygon fill="black" stroke="black" points="658.12,-625.91 648.7,-630.76 659.08,-632.85 658.12,-625.91"/>
</g>
<!-- 170&#45;&gt;357 -->
<g id="edge15" class="edge">
<title>170&#45;&gt;357</title>
<path fill="none" stroke="black" stroke-dasharray="5,2" d="M446.27,-580.98C446.27,-583.06 446.27,-585.2 446.27,-587.38"/>
<polygon fill="none" stroke="black" points="435.77,-587.6 446.27,-617.6 456.77,-587.6 435.77,-587.6"/>
</g>
<!-- 180&#45;&gt;7 -->
<g id="edge17" class="edge">
<title>180&#45;&gt;7</title>
<path fill="none" stroke="black" d="M402.8,-407C359.13,-433.76 280.72,-481.8 226.67,-514.92"/>
<polygon fill="none" stroke="black" points="221.03,-506.06 200.93,-530.69 232,-523.97 221.03,-506.06"/>
</g>
<!-- 180&#45;&gt;159 -->
<g id="edge18" class="edge">
<title>180&#45;&gt;159</title>
<path fill="none" stroke="black" d="M438.16,-407.23C439.32,-415.32 440.69,-424.82 441.96,-433.7"/>
<polygon fill="black" stroke="black" points="438.51,-434.31 443.4,-443.71 445.44,-433.31 438.51,-434.31"/>
</g>
<!-- 180&#45;&gt;167 -->
<g id="edge16" class="edge">
<title>180&#45;&gt;167</title>
<path fill="none" stroke="black" d="M475.43,-407.02C495.73,-417.39 520.6,-430.56 542.27,-443.4 574.83,-462.68 609.95,-485.66 639.15,-505.4"/>
<polygon fill="none" stroke="black" points="633.36,-514.16 664.05,-522.42 645.21,-496.83 633.36,-514.16"/>
</g>
</g>
</svg>
