<?xml version="1.0" encoding="UTF-8" standalone="no"?>
<!DOCTYPE svg PUBLIC "-//W3C//DTD SVG 1.1//EN"
 "http://www.w3.org/Graphics/SVG/1.1/DTD/svg11.dtd">
<!-- Generated by graphviz version 5.0.0 (20220707.1540)
 -->
<!-- Title: UmlClassDiagram Pages: 1 -->
<svg width="1166pt" height="337pt"
 viewBox="0.00 0.00 1165.83 336.80" xmlns="http://www.w3.org/2000/svg" xmlns:xlink="http://www.w3.org/1999/xlink">
<g id="graph0" class="graph" transform="scale(1 1) rotate(0) translate(4 332.8)">
<title>UmlClassDiagram</title>
<polygon fill="white" stroke="transparent" points="-4,4 -4,-332.8 1161.83,-332.8 1161.83,4 -4,4"/>
<!-- 40 -->
<g id="node1" class="node">
<title>40</title>
<polygon fill="#f2f2f2" stroke="black" points="709.39,-174.5 709.39,-232.9 944.25,-232.9 944.25,-174.5 709.39,-174.5"/>
<text text-anchor="middle" x="826.82" y="-216.3" font-family="Times,serif" font-size="14.00">&lt;&lt;Abstract&gt;&gt;</text>
<text text-anchor="middle" x="826.82" y="-199.5" font-family="Times,serif" font-size="14.00">Governable</text>
<text text-anchor="middle" x="826.82" y="-182.7" font-family="Times,serif" font-size="14.00">../contracts/governance/Governable.sol</text>
</g>
<!-- 366 -->
<g id="node2" class="node">
<title>366</title>
<polygon fill="#f2f2f2" stroke="black" points="536.26,-0.5 536.26,-42.1 973.39,-42.1 973.39,-0.5 536.26,-0.5"/>
<text text-anchor="middle" x="754.82" y="-25.5" font-family="Times,serif" font-size="14.00">CompoundingStakingSSVStrategy</text>
<text text-anchor="middle" x="754.82" y="-8.7" font-family="Times,serif" font-size="14.00">../contracts/strategies/NativeStaking/CompoundingStakingSSVStrategy.sol</text>
</g>
<!-- 370 -->
<g id="node3" class="node">
<title>370</title>
<polygon fill="#f2f2f2" stroke="black" points="355.51,-79.1 355.51,-137.5 780.14,-137.5 780.14,-79.1 355.51,-79.1"/>
<text text-anchor="middle" x="567.82" y="-120.9" font-family="Times,serif" font-size="14.00">&lt;&lt;Abstract&gt;&gt;</text>
<text text-anchor="middle" x="567.82" y="-104.1" font-family="Times,serif" font-size="14.00">CompoundingValidatorManager</text>
<text text-anchor="middle" x="567.82" y="-87.3" font-family="Times,serif" font-size="14.00">../contracts/strategies/NativeStaking/CompoundingValidatorManager.sol</text>
</g>
<!-- 366&#45;&gt;370 -->
<g id="edge1" class="edge">
<title>366&#45;&gt;370</title>
<path fill="none" stroke="black" d="M710.98,-42.23C694.99,-49.5 676.28,-58 657.75,-66.42"/>
<polygon fill="none" stroke="black" points="653.12,-56.99 630.15,-78.97 661.81,-76.11 653.12,-56.99"/>
</g>
<!-- 243 -->
<g id="node5" class="node">
<title>243</title>
<polygon fill="#f2f2f2" stroke="black" points="797.77,-79.1 797.77,-137.5 1087.87,-137.5 1087.87,-79.1 797.77,-79.1"/>
<text text-anchor="middle" x="942.82" y="-120.9" font-family="Times,serif" font-size="14.00">&lt;&lt;Abstract&gt;&gt;</text>
<text text-anchor="middle" x="942.82" y="-104.1" font-family="Times,serif" font-size="14.00">InitializableAbstractStrategy</text>
<text text-anchor="middle" x="942.82" y="-87.3" font-family="Times,serif" font-size="14.00">../contracts/utils/InitializableAbstractStrategy.sol</text>
</g>
<!-- 366&#45;&gt;243 -->
<g id="edge2" class="edge">
<title>366&#45;&gt;243</title>
<path fill="none" stroke="black" d="M798.9,-42.23C815.07,-49.54 834.01,-58.1 852.74,-66.57"/>
<polygon fill="none" stroke="black" points="848.49,-76.18 880.16,-78.97 857.15,-57.04 848.49,-76.18"/>
</g>
<!-- 370&#45;&gt;40 -->
<g id="edge3" class="edge">
<title>370&#45;&gt;40</title>
<path fill="none" stroke="black" d="M646.23,-137.58C669.45,-145.95 695.29,-155.27 719.98,-164.17"/>
<polygon fill="none" stroke="black" points="716.45,-174.06 748.23,-174.36 723.57,-154.3 716.45,-174.06"/>
</g>
<!-- 791 -->
<g id="node6" class="node">
<title>791</title>
<polygon fill="#f2f2f2" stroke="black" points="0,-174.5 0,-232.9 691.64,-232.9 691.64,-174.5 0,-174.5"/>
<text text-anchor="middle" x="345.82" y="-216.3" font-family="Times,serif" font-size="14.00">&lt;&lt;Abstract&gt;&gt;</text>
<text text-anchor="middle" x="345.82" y="-199.5" font-family="Times,serif" font-size="14.00">Pausable</text>
<text text-anchor="middle" x="345.82" y="-182.7" font-family="Times,serif" font-size="14.00">../node_modules/.pnpm/@openzeppelin+contracts@4.4.2/node_modules/@openzeppelin/contracts/security/Pausable.sol</text>
</g>
<!-- 370&#45;&gt;791 -->
<g id="edge4" class="edge">
<title>370&#45;&gt;791</title>
<path fill="none" stroke="black" d="M500.61,-137.58C481.79,-145.5 460.97,-154.26 440.86,-162.72"/>
<polygon fill="none" stroke="black" points="436.77,-153.05 413.19,-174.36 444.91,-172.4 436.77,-153.05"/>
</g>
<!-- 242 -->
<g id="node4" class="node">
<title>242</title>
<polygon fill="#f2f2f2" stroke="black" points="961.82,-174.5 961.82,-232.9 1157.83,-232.9 1157.83,-174.5 961.82,-174.5"/>
<text text-anchor="middle" x="1059.82" y="-216.3" font-family="Times,serif" font-size="14.00">&lt;&lt;Abstract&gt;&gt;</text>
<text text-anchor="middle" x="1059.82" y="-199.5" font-family="Times,serif" font-size="14.00">Initializable</text>
<text text-anchor="middle" x="1059.82" y="-182.7" font-family="Times,serif" font-size="14.00">../contracts/utils/Initializable.sol</text>
</g>
<!-- 243&#45;&gt;40 -->
<g id="edge6" class="edge">
<title>243&#45;&gt;40</title>
<path fill="none" stroke="black" d="M907.7,-137.58C900.73,-143.19 893.22,-149.24 885.7,-155.29"/>
<polygon fill="none" stroke="black" points="879,-147.2 862.22,-174.2 892.17,-163.56 879,-147.2"/>
</g>
<!-- 243&#45;&gt;242 -->
<g id="edge5" class="edge">
<title>243&#45;&gt;242</title>
<path fill="none" stroke="black" d="M978.24,-137.58C985.28,-143.19 992.85,-149.24 1000.43,-155.29"/>
<polygon fill="none" stroke="black" points="994.12,-163.69 1024.12,-174.2 1007.22,-147.27 994.12,-163.69"/>
</g>
<!-- 796 -->
<g id="node7" class="node">
<title>796</title>
<polygon fill="#f2f2f2" stroke="black" points="12.82,-269.9 12.82,-328.3 678.83,-328.3 678.83,-269.9 12.82,-269.9"/>
<text text-anchor="middle" x="345.82" y="-311.7" font-family="Times,serif" font-size="14.00">&lt;&lt;Abstract&gt;&gt;</text>
<text text-anchor="middle" x="345.82" y="-294.9" font-family="Times,serif" font-size="14.00">Context</text>
<text text-anchor="middle" x="345.82" y="-278.1" font-family="Times,serif" font-size="14.00">../node_modules/.pnpm/@openzeppelin+contracts@4.4.2/node_modules/@openzeppelin/contracts/utils/Context.sol</text>
</g>
<!-- 791&#45;&gt;796 -->
<g id="edge7" class="edge">
<title>791&#45;&gt;796</title>
<path fill="none" stroke="black" d="M345.82,-232.98C345.82,-235.06 345.82,-237.2 345.82,-239.38"/>
<polygon fill="none" stroke="black" points="335.32,-239.6 345.82,-269.6 356.32,-239.6 335.32,-239.6"/>
</g>
</g>
</svg>
