<?xml version="1.0" encoding="UTF-8" standalone="no"?>
<!DOCTYPE svg PUBLIC "-//W3C//DTD SVG 1.1//EN"
 "http://www.w3.org/Graphics/SVG/1.1/DTD/svg11.dtd">
<!-- Generated by graphviz version 5.0.0 (20220707.1540)
 -->
<!-- Title: UmlClassDiagram Pages: 1 -->
<svg width="1177pt" height="337pt"
 viewBox="0.00 0.00 1177.33 336.80" xmlns="http://www.w3.org/2000/svg" xmlns:xlink="http://www.w3.org/1999/xlink">
<g id="graph0" class="graph" transform="scale(1 1) rotate(0) translate(4 332.8)">
<title>UmlClassDiagram</title>
<polygon fill="white" stroke="transparent" points="-4,4 -4,-332.8 1173.33,-332.8 1173.33,4 -4,4"/>
<!-- 7 -->
<g id="node1" class="node">
<title>7</title>
<polygon fill="#f2f2f2" stroke="black" points="84.84,-278.3 84.84,-319.9 319.7,-319.9 319.7,-278.3 84.84,-278.3"/>
<text text-anchor="middle" x="202.27" y="-303.3" font-family="Times,serif" font-size="14.00">Governable</text>
<text text-anchor="middle" x="202.27" y="-286.5" font-family="Times,serif" font-size="14.00">../contracts/governance/Governable.sol</text>
</g>
<!-- 22 -->
<g id="node2" class="node">
<title>22</title>
<polygon fill="#f2f2f2" stroke="black" points="0,-79.1 0,-137.5 232.54,-137.5 232.54,-79.1 0,-79.1"/>
<text text-anchor="middle" x="116.27" y="-120.9" font-family="Times,serif" font-size="14.00">&lt;&lt;Interface&gt;&gt;</text>
<text text-anchor="middle" x="116.27" y="-104.1" font-family="Times,serif" font-size="14.00">IComptroller</text>
<text text-anchor="middle" x="116.27" y="-87.3" font-family="Times,serif" font-size="14.00">../contracts/interfaces/IComptroller.sol</text>
</g>
<!-- 35 -->
<g id="node3" class="node">
<title>35</title>
<polygon fill="#f2f2f2" stroke="black" points="337.67,-269.9 337.67,-328.3 532.88,-328.3 532.88,-269.9 337.67,-269.9"/>
<text text-anchor="middle" x="435.27" y="-311.7" font-family="Times,serif" font-size="14.00">&lt;&lt;Interface&gt;&gt;</text>
<text text-anchor="middle" x="435.27" y="-294.9" font-family="Times,serif" font-size="14.00">IVault</text>
<text text-anchor="middle" x="435.27" y="-278.1" font-family="Times,serif" font-size="14.00">../contracts/interfaces/IVault.sol</text>
</g>
<!-- 110 -->
<g id="node4" class="node">
<title>110</title>
<polygon fill="#f2f2f2" stroke="black" points="288.27,-79.1 288.27,-137.5 582.27,-137.5 582.27,-79.1 288.27,-79.1"/>
<text text-anchor="middle" x="435.27" y="-120.9" font-family="Times,serif" font-size="14.00">&lt;&lt;Abstract&gt;&gt;</text>
<text text-anchor="middle" x="435.27" y="-104.1" font-family="Times,serif" font-size="14.00">BaseCompoundStrategy</text>
<text text-anchor="middle" x="435.27" y="-87.3" font-family="Times,serif" font-size="14.00">../contracts/strategies/BaseCompoundStrategy.sol</text>
</g>
<!-- 126 -->
<g id="node6" class="node">
<title>126</title>
<polygon fill="#f2f2f2" stroke="black" points="47.87,-174.5 47.87,-232.9 272.67,-232.9 272.67,-174.5 47.87,-174.5"/>
<text text-anchor="middle" x="160.27" y="-216.3" font-family="Times,serif" font-size="14.00">&lt;&lt;Interface&gt;&gt;</text>
<text text-anchor="middle" x="160.27" y="-199.5" font-family="Times,serif" font-size="14.00">ICERC20</text>
<text text-anchor="middle" x="160.27" y="-182.7" font-family="Times,serif" font-size="14.00">../contracts/strategies/ICompound.sol</text>
</g>
<!-- 110&#45;&gt;126 -->
<g id="edge2" class="edge">
<title>110&#45;&gt;126</title>
<path fill="none" stroke="black" stroke-dasharray="5,2" d="M352.02,-137.58C320.93,-148.14 285.43,-160.19 253.5,-171.03"/>
<polygon fill="black" stroke="black" points="252.06,-167.83 243.72,-174.36 254.31,-174.46 252.06,-167.83"/>
</g>
<!-- 150 -->
<g id="node8" class="node">
<title>150</title>
<polygon fill="#f2f2f2" stroke="black" points="290.22,-174.5 290.22,-232.9 580.32,-232.9 580.32,-174.5 290.22,-174.5"/>
<text text-anchor="middle" x="435.27" y="-216.3" font-family="Times,serif" font-size="14.00">&lt;&lt;Abstract&gt;&gt;</text>
<text text-anchor="middle" x="435.27" y="-199.5" font-family="Times,serif" font-size="14.00">InitializableAbstractStrategy</text>
<text text-anchor="middle" x="435.27" y="-182.7" font-family="Times,serif" font-size="14.00">../contracts/utils/InitializableAbstractStrategy.sol</text>
</g>
<!-- 110&#45;&gt;150 -->
<g id="edge1" class="edge">
<title>110&#45;&gt;150</title>
<path fill="none" stroke="black" d="M435.27,-137.58C435.27,-139.66 435.27,-141.8 435.27,-143.98"/>
<polygon fill="none" stroke="black" points="424.77,-144.2 435.27,-174.2 445.77,-144.2 424.77,-144.2"/>
</g>
<!-- 114 -->
<g id="node5" class="node">
<title>114</title>
<polygon fill="#f2f2f2" stroke="black" points="301.88,-0.5 301.88,-42.1 568.67,-42.1 568.67,-0.5 301.88,-0.5"/>
<text text-anchor="middle" x="435.27" y="-25.5" font-family="Times,serif" font-size="14.00">CompoundStrategy</text>
<text text-anchor="middle" x="435.27" y="-8.7" font-family="Times,serif" font-size="14.00">../contracts/strategies/CompoundStrategy.sol</text>
</g>
<!-- 114&#45;&gt;22 -->
<g id="edge5" class="edge">
<title>114&#45;&gt;22</title>
<path fill="none" stroke="black" stroke-dasharray="5,2" d="M360.88,-42.12C322.54,-52.34 274.92,-65.03 231.92,-76.49"/>
<polygon fill="black" stroke="black" points="231.01,-73.11 222.24,-79.06 232.81,-79.87 231.01,-73.11"/>
</g>
<!-- 114&#45;&gt;110 -->
<g id="edge3" class="edge">
<title>114&#45;&gt;110</title>
<path fill="none" stroke="black" d="M435.27,-42.44C435.27,-44.49 435.27,-46.63 435.27,-48.83"/>
<polygon fill="none" stroke="black" points="424.77,-48.94 435.27,-78.94 445.77,-48.94 424.77,-48.94"/>
</g>
<!-- 114&#45;&gt;126 -->
<g id="edge4" class="edge">
<title>114&#45;&gt;126</title>
<path fill="none" stroke="black" stroke-dasharray="5,2" d="M349.1,-42.22C324.81,-50.67 299.52,-62.43 279.27,-78.6 254.78,-98.16 262.24,-114.71 241.27,-138 231.68,-148.66 220.21,-158.95 208.97,-168.06"/>
<polygon fill="black" stroke="black" points="206.52,-165.54 200.85,-174.49 210.86,-171.03 206.52,-165.54"/>
</g>
<!-- 149 -->
<g id="node7" class="node">
<title>149</title>
<polygon fill="#f2f2f2" stroke="black" points="551.27,-269.9 551.27,-328.3 747.28,-328.3 747.28,-269.9 551.27,-269.9"/>
<text text-anchor="middle" x="649.27" y="-311.7" font-family="Times,serif" font-size="14.00">&lt;&lt;Abstract&gt;&gt;</text>
<text text-anchor="middle" x="649.27" y="-294.9" font-family="Times,serif" font-size="14.00">Initializable</text>
<text text-anchor="middle" x="649.27" y="-278.1" font-family="Times,serif" font-size="14.00">../contracts/utils/Initializable.sol</text>
</g>
<!-- 150&#45;&gt;7 -->
<g id="edge7" class="edge">
<title>150&#45;&gt;7</title>
<path fill="none" stroke="black" d="M364.73,-232.98C337.98,-243.7 307.37,-255.97 279.99,-266.95"/>
<polygon fill="none" stroke="black" points="275.82,-257.31 251.88,-278.21 283.63,-276.8 275.82,-257.31"/>
</g>
<!-- 150&#45;&gt;35 -->
<g id="edge10" class="edge">
<title>150&#45;&gt;35</title>
<path fill="none" stroke="black" stroke-dasharray="5,2" d="M435.27,-232.98C435.27,-241.31 435.27,-250.58 435.27,-259.45"/>
<polygon fill="black" stroke="black" points="431.77,-259.6 435.27,-269.6 438.77,-259.6 431.77,-259.6"/>
</g>
<!-- 150&#45;&gt;149 -->
<g id="edge6" class="edge">
<title>150&#45;&gt;149</title>
<path fill="none" stroke="black" d="M500.06,-232.98C517.89,-240.76 537.58,-249.35 556.66,-257.68"/>
<polygon fill="none" stroke="black" points="552.64,-267.38 584.33,-269.76 561.04,-248.13 552.64,-267.38"/>
</g>
<!-- 150&#45;&gt;150 -->
<g id="edge8" class="edge">
<title>150&#45;&gt;150</title>
<path fill="none" stroke="black" stroke-dasharray="5,2" d="M580.48,-190.48C591.52,-193.42 598.32,-197.82 598.32,-203.7 598.32,-207.56 595.39,-210.78 590.26,-213.37"/>
<polygon fill="black" stroke="black" points="588.69,-210.22 580.48,-216.92 591.08,-216.8 588.69,-210.22"/>
</g>
<!-- 436 -->
<g id="node9" class="node">
<title>436</title>
<polygon fill="#f2f2f2" stroke="black" points="765.22,-269.9 765.22,-328.3 1169.33,-328.3 1169.33,-269.9 765.22,-269.9"/>
<text text-anchor="middle" x="967.27" y="-311.7" font-family="Times,serif" font-size="14.00">&lt;&lt;Interface&gt;&gt;</text>
<text text-anchor="middle" x="967.27" y="-294.9" font-family="Times,serif" font-size="14.00">IERC20</text>
<text text-anchor="middle" x="967.27" y="-278.1" font-family="Times,serif" font-size="14.00">../node_modules/@openzeppelin/contracts/token/ERC20/IERC20.sol</text>
</g>
<!-- 150&#45;&gt;436 -->
<g id="edge9" class="edge">
<title>150&#45;&gt;436</title>
<path fill="none" stroke="black" stroke-dasharray="5,2" d="M580.64,-230.22C647.35,-241.93 726.9,-255.9 796.45,-268.11"/>
<polygon fill="black" stroke="black" points="796.18,-271.62 806.64,-269.9 797.39,-264.72 796.18,-271.62"/>
</g>
</g>
</svg>
