<?xml version="1.0" encoding="UTF-8" standalone="no"?>
<!DOCTYPE svg PUBLIC "-//W3C//DTD SVG 1.1//EN"
 "http://www.w3.org/Graphics/SVG/1.1/DTD/svg11.dtd">
<!-- Generated by graphviz version 5.0.0 (20220707.1540)
 -->
<!-- Title: StorageDiagram Pages: 1 -->
<svg width="1469pt" height="595pt"
 viewBox="0.00 0.00 1469.02 594.60" xmlns="http://www.w3.org/2000/svg" xmlns:xlink="http://www.w3.org/1999/xlink">
<g id="graph0" class="graph" transform="scale(1 1) rotate(0) translate(4 590.6)">
<title>StorageDiagram</title>
<polygon fill="white" stroke="transparent" points="-4,4 -4,-590.6 1465.02,-590.6 1465.02,4 -4,4"/>
<!-- 5 -->
<g id="node1" class="node">
<title>5</title>
<polygon fill="#f2f2f2" stroke="black" points="0,-7.9 0,-528.7 854.53,-528.7 854.53,-7.9 0,-7.9"/>
<text text-anchor="middle" x="427.27" y="-512.1" font-family="Courier New" font-size="14.00">ConvexEthMetaStrategy &lt;&lt;Contract&gt;&gt;</text>
<polyline fill="none" stroke="black" points="0,-503.9 854.53,-503.9 "/>
<text text-anchor="middle" x="33.2" y="-487.3" font-family="Courier New" font-size="14.00">slot</text>
<polyline fill="none" stroke="black" points="0,-479.1 66.41,-479.1 "/>
<text text-anchor="middle" x="33.2" y="-462.5" font-family="Courier New" font-size="14.00">0</text>
<polyline fill="none" stroke="black" points="0,-454.3 66.41,-454.3 "/>
<text text-anchor="middle" x="33.2" y="-437.7" font-family="Courier New" font-size="14.00">1&#45;50</text>
<polyline fill="none" stroke="black" points="0,-429.5 66.41,-429.5 "/>
<text text-anchor="middle" x="33.2" y="-412.9" font-family="Courier New" font-size="14.00">51</text>
<polyline fill="none" stroke="black" points="0,-404.7 66.41,-404.7 "/>
<text text-anchor="middle" x="33.2" y="-388.1" font-family="Courier New" font-size="14.00">52</text>
<polyline fill="none" stroke="black" points="0,-379.9 66.41,-379.9 "/>
<text text-anchor="middle" x="33.2" y="-363.3" font-family="Courier New" font-size="14.00">53</text>
<polyline fill="none" stroke="black" points="0,-355.1 66.41,-355.1 "/>
<text text-anchor="middle" x="33.2" y="-338.5" font-family="Courier New" font-size="14.00">54</text>
<polyline fill="none" stroke="black" points="0,-330.3 66.41,-330.3 "/>
<text text-anchor="middle" x="33.2" y="-313.7" font-family="Courier New" font-size="14.00">55</text>
<polyline fill="none" stroke="black" points="0,-305.5 66.41,-305.5 "/>
<text text-anchor="middle" x="33.2" y="-288.9" font-family="Courier New" font-size="14.00">56</text>
<polyline fill="none" stroke="black" points="0,-280.7 66.41,-280.7 "/>
<text text-anchor="middle" x="33.2" y="-264.1" font-family="Courier New" font-size="14.00">57</text>
<polyline fill="none" stroke="black" points="0,-255.9 66.41,-255.9 "/>
<text text-anchor="middle" x="33.2" y="-239.3" font-family="Courier New" font-size="14.00">58</text>
<polyline fill="none" stroke="black" points="0,-231.1 66.41,-231.1 "/>
<text text-anchor="middle" x="33.2" y="-214.5" font-family="Courier New" font-size="14.00">59&#45;156</text>
<polyline fill="none" stroke="black" points="0,-206.3 66.41,-206.3 "/>
<text text-anchor="middle" x="33.2" y="-189.7" font-family="Courier New" font-size="14.00">157</text>
<polyline fill="none" stroke="black" points="0,-181.5 66.41,-181.5 "/>
<text text-anchor="middle" x="33.2" y="-164.9" font-family="Courier New" font-size="14.00">158</text>
<polyline fill="none" stroke="black" points="0,-156.7 66.41,-156.7 "/>
<text text-anchor="middle" x="33.2" y="-140.1" font-family="Courier New" font-size="14.00">159</text>
<polyline fill="none" stroke="black" points="0,-131.9 66.41,-131.9 "/>
<text text-anchor="middle" x="33.2" y="-115.3" font-family="Courier New" font-size="14.00">160</text>
<polyline fill="none" stroke="black" points="0,-107.1 66.41,-107.1 "/>
<text text-anchor="middle" x="33.2" y="-90.5" font-family="Courier New" font-size="14.00">161</text>
<polyline fill="none" stroke="black" points="0,-82.3 66.41,-82.3 "/>
<text text-anchor="middle" x="33.2" y="-65.7" font-family="Courier New" font-size="14.00">162</text>
<polyline fill="none" stroke="black" points="0,-57.5 66.41,-57.5 "/>
<text text-anchor="middle" x="33.2" y="-40.9" font-family="Courier New" font-size="14.00">163</text>
<polyline fill="none" stroke="black" points="0,-32.7 66.41,-32.7 "/>
<text text-anchor="middle" x="33.2" y="-16.1" font-family="Courier New" font-size="14.00">164</text>
<polyline fill="none" stroke="black" points="66.41,-7.9 66.41,-503.9 "/>
<text text-anchor="middle" x="460.47" y="-487.3" font-family="Courier New" font-size="14.00">type: &lt;inherited contract&gt;.variable (bytes)</text>
<polyline fill="none" stroke="black" points="66.41,-479.1 854.53,-479.1 "/>
<text text-anchor="middle" x="143.12" y="-462.5" font-family="Courier New" font-size="14.00">unallocated (30)</text>
<polyline fill="none" stroke="black" points="219.83,-454.3 219.83,-479.1 "/>
<text text-anchor="middle" x="380.55" y="-462.5" font-family="Courier New" font-size="14.00">bool: Initializable.initializing (1)</text>
<polyline fill="none" stroke="black" points="541.28,-454.3 541.28,-479.1 "/>
<text text-anchor="middle" x="697.8" y="-462.5" font-family="Courier New" font-size="14.00">bool: Initializable.initialized (1)</text>
<polyline fill="none" stroke="black" points="66.41,-454.3 854.53,-454.3 "/>
<text text-anchor="middle" x="460.04" y="-437.7" font-family="Courier New" font-size="14.00">uint256[50]: Initializable.______gap (1600)</text>
<polyline fill="none" stroke="black" points="66.41,-429.5 854.53,-429.5 "/>
<text text-anchor="middle" x="147.62" y="-412.9" font-family="Courier New" font-size="14.00">unallocated (12)</text>
<polyline fill="none" stroke="black" points="228.83,-404.7 228.83,-429.5 "/>
<text text-anchor="middle" x="541.58" y="-412.9" font-family="Courier New" font-size="14.00">address: InitializableAbstractStrategy._deprecated_platformAddress (20)</text>
<polyline fill="none" stroke="black" points="66.41,-404.7 854.53,-404.7 "/>
<text text-anchor="middle" x="154.12" y="-388.1" font-family="Courier New" font-size="14.00">unallocated (12)</text>
<polyline fill="none" stroke="black" points="241.83,-379.9 241.83,-404.7 "/>
<text text-anchor="middle" x="547.98" y="-388.1" font-family="Courier New" font-size="14.00">address: InitializableAbstractStrategy._deprecated_vaultAddress (20)</text>
<polyline fill="none" stroke="black" points="66.41,-379.9 854.53,-379.9 "/>
<text text-anchor="middle" x="460.46" y="-363.3" font-family="Courier New" font-size="14.00">mapping(address=&gt;address): InitializableAbstractStrategy.assetToPToken (32)</text>
<polyline fill="none" stroke="black" points="66.41,-355.1 854.53,-355.1 "/>
<text text-anchor="middle" x="460.05" y="-338.5" font-family="Courier New" font-size="14.00">address[]: InitializableAbstractStrategy.assetsMapped (32)</text>
<polyline fill="none" stroke="black" points="66.41,-330.3 854.53,-330.3 "/>
<text text-anchor="middle" x="141.62" y="-313.7" font-family="Courier New" font-size="14.00">unallocated (12)</text>
<polyline fill="none" stroke="black" points="216.83,-305.5 216.83,-330.3 "/>
<text text-anchor="middle" x="535.68" y="-313.7" font-family="Courier New" font-size="14.00">address: InitializableAbstractStrategy._deprecated_rewardTokenAddress (20)</text>
<polyline fill="none" stroke="black" points="66.41,-305.5 854.53,-305.5 "/>
<text text-anchor="middle" x="460.36" y="-288.9" font-family="Courier New" font-size="14.00">uint256: InitializableAbstractStrategy._deprecated_rewardLiquidationThreshold (32)</text>
<polyline fill="none" stroke="black" points="66.41,-280.7 854.53,-280.7 "/>
<text text-anchor="middle" x="170.62" y="-264.1" font-family="Courier New" font-size="14.00">unallocated (12)</text>
<polyline fill="none" stroke="black" points="274.83,-255.9 274.83,-280.7 "/>
<text text-anchor="middle" x="564.37" y="-264.1" font-family="Courier New" font-size="14.00">address: InitializableAbstractStrategy.harvesterAddress (20)</text>
<polyline fill="none" stroke="black" points="66.41,-255.9 854.53,-255.9 "/>
<text text-anchor="middle" x="460.15" y="-239.3" font-family="Courier New" font-size="14.00">address[]: InitializableAbstractStrategy.rewardTokenAddresses (32)</text>
<polyline fill="none" stroke="black" points="66.41,-231.1 854.53,-231.1 "/>
<text text-anchor="middle" x="460.05" y="-214.5" font-family="Courier New" font-size="14.00">int256[98]: InitializableAbstractStrategy._reserved (3136)</text>
<polyline fill="none" stroke="black" points="66.41,-206.3 854.53,-206.3 "/>
<text text-anchor="middle" x="202.12" y="-189.7" font-family="Courier New" font-size="14.00">unallocated (12)</text>
<polyline fill="none" stroke="black" points="337.83,-181.5 337.83,-206.3 "/>
<text text-anchor="middle" x="595.86" y="-189.7" font-family="Courier New" font-size="14.00">address: _deprecated_cvxDepositorAddress (20)</text>
<polyline fill="none" stroke="black" points="66.41,-181.5 854.53,-181.5 "/>
<text text-anchor="middle" x="210.62" y="-164.9" font-family="Courier New" font-size="14.00">unallocated (12)</text>
<polyline fill="none" stroke="black" points="354.83,-156.7 354.83,-181.5 "/>
<text text-anchor="middle" x="604.56" y="-164.9" font-family="Courier New" font-size="14.00">address: _deprecated_cvxRewardStaker (20)</text>
<polyline fill="none" stroke="black" points="66.41,-156.7 854.53,-156.7 "/>
<text text-anchor="middle" x="460.14" y="-140.1" font-family="Courier New" font-size="14.00">uint256: _deprecated_cvxDepositorPTokenId (32)</text>
<polyline fill="none" stroke="black" points="66.41,-131.9 854.53,-131.9 "/>
<text text-anchor="middle" x="223.12" y="-115.3" font-family="Courier New" font-size="14.00">unallocated (12)</text>
<polyline fill="none" stroke="black" points="379.83,-107.1 379.83,-131.9 "/>
<text text-anchor="middle" x="616.85" y="-115.3" font-family="Courier New" font-size="14.00">address: _deprecated_curvePool (20)</text>
<polyline fill="none" stroke="black" points="66.41,-107.1 854.53,-107.1 "/>
<text text-anchor="middle" x="227.62" y="-90.5" font-family="Courier New" font-size="14.00">unallocated (12)</text>
<polyline fill="none" stroke="black" points="388.83,-82.3 388.83,-107.1 "/>
<text text-anchor="middle" x="621.45" y="-90.5" font-family="Courier New" font-size="14.00">address: _deprecated_lpToken (20)</text>
<polyline fill="none" stroke="black" points="66.41,-82.3 854.53,-82.3 "/>
<text text-anchor="middle" x="233.62" y="-65.7" font-family="Courier New" font-size="14.00">unallocated (12)</text>
<polyline fill="none" stroke="black" points="400.83,-57.5 400.83,-82.3 "/>
<text text-anchor="middle" x="627.35" y="-65.7" font-family="Courier New" font-size="14.00">address: _deprecated_oeth (20)</text>
<polyline fill="none" stroke="black" points="66.41,-57.5 854.53,-57.5 "/>
<text text-anchor="middle" x="233.62" y="-40.9" font-family="Courier New" font-size="14.00">unallocated (12)</text>
<polyline fill="none" stroke="black" points="400.83,-32.7 400.83,-57.5 "/>
<text text-anchor="middle" x="627.35" y="-40.9" font-family="Courier New" font-size="14.00">address: _deprecated_weth (20)</text>
<polyline fill="none" stroke="black" points="66.41,-32.7 854.53,-32.7 "/>
<text text-anchor="middle" x="261.03" y="-16.1" font-family="Courier New" font-size="14.00">uint128: _deprecated_ethCoinIndex (16)</text>
<polyline fill="none" stroke="black" points="455.66,-7.9 455.66,-32.7 "/>
<text text-anchor="middle" x="654.99" y="-16.1" font-family="Courier New" font-size="14.00">uint128: _deprecated_oethCoinIndex (16)</text>
</g>
<!-- 1 -->
<g id="node2" class="node">
<title>1</title>
<polygon fill="#f2f2f2" stroke="black" points="1033.35,-412.5 1033.35,-586.1 1318.2,-586.1 1318.2,-412.5 1033.35,-412.5"/>
<text text-anchor="middle" x="1175.78" y="-569.5" font-family="Courier New" font-size="14.00">uint256[50]: ______gap &lt;&lt;Array&gt;&gt;</text>
<polyline fill="none" stroke="black" points="1033.35,-561.3 1318.2,-561.3 "/>
<text text-anchor="middle" x="1066.66" y="-544.7" font-family="Courier New" font-size="14.00">slot</text>
<polyline fill="none" stroke="black" points="1033.35,-536.5 1099.96,-536.5 "/>
<text text-anchor="middle" x="1066.66" y="-519.9" font-family="Courier New" font-size="14.00">1</text>
<polyline fill="none" stroke="black" points="1033.35,-511.7 1099.96,-511.7 "/>
<text text-anchor="middle" x="1066.66" y="-495.1" font-family="Courier New" font-size="14.00">2</text>
<polyline fill="none" stroke="black" points="1033.35,-486.9 1099.96,-486.9 "/>
<text text-anchor="middle" x="1066.66" y="-470.3" font-family="Courier New" font-size="14.00">3&#45;48</text>
<polyline fill="none" stroke="black" points="1033.35,-462.1 1099.96,-462.1 "/>
<text text-anchor="middle" x="1066.66" y="-445.5" font-family="Courier New" font-size="14.00">49</text>
<polyline fill="none" stroke="black" points="1033.35,-437.3 1099.96,-437.3 "/>
<text text-anchor="middle" x="1066.66" y="-420.7" font-family="Courier New" font-size="14.00">50</text>
<polyline fill="none" stroke="black" points="1099.96,-412.5 1099.96,-561.3 "/>
<text text-anchor="middle" x="1208.88" y="-544.7" font-family="Courier New" font-size="14.00">type: variable (bytes)</text>
<polyline fill="none" stroke="black" points="1099.96,-536.5 1317.79,-536.5 "/>
<text text-anchor="middle" x="1208.87" y="-519.9" font-family="Courier New" font-size="14.00">uint256 (32)</text>
<polyline fill="none" stroke="black" points="1099.96,-511.7 1317.79,-511.7 "/>
<text text-anchor="middle" x="1208.87" y="-495.1" font-family="Courier New" font-size="14.00">uint256 (32)</text>
<polyline fill="none" stroke="black" points="1099.96,-486.9 1317.79,-486.9 "/>
<text text-anchor="middle" x="1208.67" y="-470.3" font-family="Courier New" font-size="14.00">&#45;&#45;&#45;&#45; (1472)</text>
<polyline fill="none" stroke="black" points="1099.96,-462.1 1317.79,-462.1 "/>
<text text-anchor="middle" x="1208.87" y="-445.5" font-family="Courier New" font-size="14.00">uint256 (32)</text>
<polyline fill="none" stroke="black" points="1099.96,-437.3 1317.79,-437.3 "/>
<text text-anchor="middle" x="1208.87" y="-420.7" font-family="Courier New" font-size="14.00">uint256 (32)</text>
</g>
<!-- 5&#45;&gt;1 -->
<g id="edge1" class="edge">
<title>5:8&#45;&gt;1</title>
<path fill="none" stroke="black" d="M854.27,-442.3C910,-442.3 970.35,-450.76 1023.5,-461.16"/>
<polygon fill="black" stroke="black" points="1022.84,-464.6 1033.33,-463.12 1024.21,-457.73 1022.84,-464.6"/>
</g>
<!-- 2 -->
<g id="node3" class="node">
<title>2</title>
<polygon fill="#f2f2f2" stroke="black" points="890.53,-302.7 890.53,-393.9 1461.02,-393.9 1461.02,-302.7 890.53,-302.7"/>
<text text-anchor="middle" x="1175.78" y="-377.3" font-family="Courier New" font-size="14.00">address[]: assetsMapped &lt;&lt;Array&gt;&gt;</text>
<text text-anchor="middle" x="1175.78" y="-360.5" font-family="Courier New" font-size="14.00">0x4a11f94e20a93c79f6ec743a1954ec4fc2c08429ae2122118bf234b2185c81b8</text>
<polyline fill="none" stroke="black" points="890.53,-352.3 1461.02,-352.3 "/>
<text text-anchor="middle" x="982.74" y="-335.7" font-family="Courier New" font-size="14.00">offset</text>
<polyline fill="none" stroke="black" points="890.53,-327.5 1074.94,-327.5 "/>
<text text-anchor="middle" x="982.74" y="-310.9" font-family="Courier New" font-size="14.00">0</text>
<polyline fill="none" stroke="black" points="1074.94,-302.7 1074.94,-352.3 "/>
<text text-anchor="middle" x="1267.56" y="-335.7" font-family="Courier New" font-size="14.00">type: variable (bytes)</text>
<polyline fill="none" stroke="black" points="1074.94,-327.5 1460.18,-327.5 "/>
<text text-anchor="middle" x="1179.65" y="-310.9" font-family="Courier New" font-size="14.00">unallocated (12)</text>
<polyline fill="none" stroke="black" points="1284.36,-302.7 1284.36,-327.5 "/>
<text text-anchor="middle" x="1372.27" y="-310.9" font-family="Courier New" font-size="14.00">address (20)</text>
</g>
<!-- 5&#45;&gt;2 -->
<g id="edge2" class="edge">
<title>5:13&#45;&gt;2</title>
<path fill="none" stroke="black" d="M854.27,-342.3C862.77,-342.3 871.39,-342.32 880.1,-342.36"/>
<polygon fill="black" stroke="black" points="880.34,-345.86 890.36,-342.42 880.38,-338.86 880.34,-345.86"/>
</g>
<!-- 3 -->
<g id="node4" class="node">
<title>3</title>
<polygon fill="#f2f2f2" stroke="black" points="890.53,-192.7 890.53,-283.9 1461.02,-283.9 1461.02,-192.7 890.53,-192.7"/>
<text text-anchor="middle" x="1175.78" y="-267.3" font-family="Courier New" font-size="14.00">address[]: rewardTokenAddresses &lt;&lt;Array&gt;&gt;</text>
<text text-anchor="middle" x="1175.78" y="-250.5" font-family="Courier New" font-size="14.00">0xa2999d817b6757290b50e8ecf3fa939673403dd35c97de392fdb343b4015ce9e</text>
<polyline fill="none" stroke="black" points="890.53,-242.3 1461.02,-242.3 "/>
<text text-anchor="middle" x="982.74" y="-225.7" font-family="Courier New" font-size="14.00">offset</text>
<polyline fill="none" stroke="black" points="890.53,-217.5 1074.94,-217.5 "/>
<text text-anchor="middle" x="982.74" y="-200.9" font-family="Courier New" font-size="14.00">0</text>
<polyline fill="none" stroke="black" points="1074.94,-192.7 1074.94,-242.3 "/>
<text text-anchor="middle" x="1267.56" y="-225.7" font-family="Courier New" font-size="14.00">type: variable (bytes)</text>
<polyline fill="none" stroke="black" points="1074.94,-217.5 1460.18,-217.5 "/>
<text text-anchor="middle" x="1179.65" y="-200.9" font-family="Courier New" font-size="14.00">unallocated (12)</text>
<polyline fill="none" stroke="black" points="1284.36,-192.7 1284.36,-217.5 "/>
<text text-anchor="middle" x="1372.27" y="-200.9" font-family="Courier New" font-size="14.00">address (20)</text>
</g>
<!-- 5&#45;&gt;3 -->
<g id="edge3" class="edge">
<title>5:18&#45;&gt;3</title>
<path fill="none" stroke="black" d="M854.53,-243.3C862.92,-243.3 871.44,-243.28 880.04,-243.25"/>
<polygon fill="black" stroke="black" points="880.18,-246.75 890.16,-243.2 880.15,-239.75 880.18,-246.75"/>
</g>
<!-- 4 -->
<g id="node5" class="node">
<title>4</title>
<polygon fill="#f2f2f2" stroke="black" points="1037.56,-0.5 1037.56,-174.1 1314,-174.1 1314,-0.5 1037.56,-0.5"/>
<text text-anchor="middle" x="1175.78" y="-157.5" font-family="Courier New" font-size="14.00">int256[98]: _reserved &lt;&lt;Array&gt;&gt;</text>
<polyline fill="none" stroke="black" points="1037.56,-149.3 1314,-149.3 "/>
<text text-anchor="middle" x="1072.76" y="-132.7" font-family="Courier New" font-size="14.00">slot</text>
<polyline fill="none" stroke="black" points="1037.56,-124.5 1107.96,-124.5 "/>
<text text-anchor="middle" x="1072.76" y="-107.9" font-family="Courier New" font-size="14.00">59</text>
<polyline fill="none" stroke="black" points="1037.56,-99.7 1107.96,-99.7 "/>
<text text-anchor="middle" x="1072.76" y="-83.1" font-family="Courier New" font-size="14.00">60</text>
<polyline fill="none" stroke="black" points="1037.56,-74.9 1107.96,-74.9 "/>
<text text-anchor="middle" x="1072.76" y="-58.3" font-family="Courier New" font-size="14.00">61&#45;154</text>
<polyline fill="none" stroke="black" points="1037.56,-50.1 1107.96,-50.1 "/>
<text text-anchor="middle" x="1072.76" y="-33.5" font-family="Courier New" font-size="14.00">155</text>
<polyline fill="none" stroke="black" points="1037.56,-25.3 1107.96,-25.3 "/>
<text text-anchor="middle" x="1072.76" y="-8.7" font-family="Courier New" font-size="14.00">156</text>
<polyline fill="none" stroke="black" points="1107.96,-0.5 1107.96,-149.3 "/>
<text text-anchor="middle" x="1210.88" y="-132.7" font-family="Courier New" font-size="14.00">type: variable (bytes)</text>
<polyline fill="none" stroke="black" points="1107.96,-124.5 1313.79,-124.5 "/>
<text text-anchor="middle" x="1210.67" y="-107.9" font-family="Courier New" font-size="14.00">int256 (32)</text>
<polyline fill="none" stroke="black" points="1107.96,-99.7 1313.79,-99.7 "/>
<text text-anchor="middle" x="1210.67" y="-83.1" font-family="Courier New" font-size="14.00">int256 (32)</text>
<polyline fill="none" stroke="black" points="1107.96,-74.9 1313.79,-74.9 "/>
<text text-anchor="middle" x="1210.67" y="-58.3" font-family="Courier New" font-size="14.00">&#45;&#45;&#45;&#45; (3008)</text>
<polyline fill="none" stroke="black" points="1107.96,-50.1 1313.79,-50.1 "/>
<text text-anchor="middle" x="1210.67" y="-33.5" font-family="Courier New" font-size="14.00">int256 (32)</text>
<polyline fill="none" stroke="black" points="1107.96,-25.3 1313.79,-25.3 "/>
<text text-anchor="middle" x="1210.67" y="-8.7" font-family="Courier New" font-size="14.00">int256 (32)</text>
</g>
<!-- 5&#45;&gt;4 -->
<g id="edge4" class="edge">
<title>5:24&#45;&gt;4</title>
<path fill="none" stroke="black" d="M854.27,-218.3C876.67,-218.3 871.4,-194.94 890.53,-183.3 932.38,-157.83 981.85,-138.12 1027.69,-123.37"/>
<polygon fill="black" stroke="black" points="1028.94,-126.65 1037.42,-120.3 1026.83,-119.97 1028.94,-126.65"/>
</g>
</g>
</svg>
