<?xml version="1.0" encoding="UTF-8" standalone="no"?>
<!DOCTYPE svg PUBLIC "-//W3C//DTD SVG 1.1//EN"
 "http://www.w3.org/Graphics/SVG/1.1/DTD/svg11.dtd">
<!-- Generated by graphviz version 5.0.0 (20220707.1540)
 -->
<!-- Title: UmlClassDiagram Pages: 1 -->
<svg width="1263pt" height="780pt"
 viewBox="0.00 0.00 1263.12 780.20" xmlns="http://www.w3.org/2000/svg" xmlns:xlink="http://www.w3.org/1999/xlink">
<g id="graph0" class="graph" transform="scale(1 1) rotate(0) translate(4 776.2)">
<title>UmlClassDiagram</title>
<polygon fill="white" stroke="transparent" points="-4,4 -4,-776.2 1259.12,-776.2 1259.12,4 -4,4"/>
<!-- 7 -->
<g id="node1" class="node">
<title>7</title>
<polygon fill="#f2f2f2" stroke="black" points="953.96,-626.3 953.96,-667.9 1188.82,-667.9 1188.82,-626.3 953.96,-626.3"/>
<text text-anchor="middle" x="1071.39" y="-651.3" font-family="Times,serif" font-size="14.00">Governable</text>
<text text-anchor="middle" x="1071.39" y="-634.5" font-family="Times,serif" font-size="14.00">../contracts/governance/Governable.sol</text>
</g>
<!-- 40 -->
<g id="node2" class="node">
<title>40</title>
<polygon fill="#f2f2f2" stroke="black" points="427.79,-365.3 427.79,-423.7 623,-423.7 623,-365.3 427.79,-365.3"/>
<text text-anchor="middle" x="525.39" y="-407.1" font-family="Times,serif" font-size="14.00">&lt;&lt;Interface&gt;&gt;</text>
<text text-anchor="middle" x="525.39" y="-390.3" font-family="Times,serif" font-size="14.00">IVault</text>
<text text-anchor="middle" x="525.39" y="-373.5" font-family="Times,serif" font-size="14.00">../contracts/interfaces/IVault.sol</text>
</g>
<!-- 177 -->
<g id="node14" class="node">
<title>177</title>
<polygon fill="#f2f2f2" stroke="black" points="689.94,-460.7 689.94,-502.3 896.84,-502.3 896.84,-460.7 689.94,-460.7"/>
<text text-anchor="middle" x="793.39" y="-485.7" font-family="Times,serif" font-size="14.00">VaultStorage</text>
<text text-anchor="middle" x="793.39" y="-468.9" font-family="Times,serif" font-size="14.00">../contracts/vault/VaultStorage.sol</text>
</g>
<!-- 40&#45;&gt;177 -->
<g id="edge1" class="edge">
<title>40&#45;&gt;177</title>
<path fill="none" stroke="black" stroke-dasharray="5,2" d="M614.63,-423.8C649.13,-434.75 688.1,-447.11 720.83,-457.49"/>
<polygon fill="black" stroke="black" points="720.18,-460.95 730.77,-460.64 722.3,-454.28 720.18,-460.95"/>
</g>
<!-- 141 -->
<g id="node3" class="node">
<title>141</title>
<polygon fill="#f2f2f2" stroke="black" points="862.83,-174.5 862.83,-232.9 1117.95,-232.9 1117.95,-174.5 862.83,-174.5"/>
<text text-anchor="middle" x="990.39" y="-216.3" font-family="Times,serif" font-size="14.00">&lt;&lt;Interface&gt;&gt;</text>
<text text-anchor="middle" x="990.39" y="-199.5" font-family="Times,serif" font-size="14.00">IConvexDeposits</text>
<text text-anchor="middle" x="990.39" y="-182.7" font-family="Times,serif" font-size="14.00">../contracts/strategies/IConvexDeposits.sol</text>
</g>
<!-- 142 -->
<g id="node4" class="node">
<title>142</title>
<polygon fill="#f2f2f2" stroke="black" points="0,-174.5 0,-232.9 266.78,-232.9 266.78,-174.5 0,-174.5"/>
<text text-anchor="middle" x="133.39" y="-216.3" font-family="Times,serif" font-size="14.00">&lt;&lt;Interface&gt;&gt;</text>
<text text-anchor="middle" x="133.39" y="-199.5" font-family="Times,serif" font-size="14.00">ICurveETHPoolV1</text>
<text text-anchor="middle" x="133.39" y="-182.7" font-family="Times,serif" font-size="14.00">../contracts/strategies/ICurveETHPoolV1.sol</text>
</g>
<!-- 145 -->
<g id="node5" class="node">
<title>145</title>
<polygon fill="#f2f2f2" stroke="black" points="290.16,-79.1 290.16,-137.5 512.62,-137.5 512.62,-79.1 290.16,-79.1"/>
<text text-anchor="middle" x="401.39" y="-120.9" font-family="Times,serif" font-size="14.00">&lt;&lt;Interface&gt;&gt;</text>
<text text-anchor="middle" x="401.39" y="-104.1" font-family="Times,serif" font-size="14.00">ICurvePool</text>
<text text-anchor="middle" x="401.39" y="-87.3" font-family="Times,serif" font-size="14.00">../contracts/strategies/ICurvePool.sol</text>
</g>
<!-- 146 -->
<g id="node6" class="node">
<title>146</title>
<polygon fill="#f2f2f2" stroke="black" points="284.95,-174.5 284.95,-232.9 533.83,-232.9 533.83,-174.5 284.95,-174.5"/>
<text text-anchor="middle" x="409.39" y="-216.3" font-family="Times,serif" font-size="14.00">&lt;&lt;Interface&gt;&gt;</text>
<text text-anchor="middle" x="409.39" y="-199.5" font-family="Times,serif" font-size="14.00">IRewardStaking</text>
<text text-anchor="middle" x="409.39" y="-182.7" font-family="Times,serif" font-size="14.00">../contracts/strategies/IRewardStaking.sol</text>
</g>
<!-- 224 -->
<g id="node7" class="node">
<title>224</title>
<polygon fill="#f2f2f2" stroke="black" points="552.17,-174.5 552.17,-232.9 844.61,-232.9 844.61,-174.5 552.17,-174.5"/>
<text text-anchor="middle" x="698.39" y="-216.3" font-family="Times,serif" font-size="14.00">&lt;&lt;Abstract&gt;&gt;</text>
<text text-anchor="middle" x="698.39" y="-199.5" font-family="Times,serif" font-size="14.00">BaseAMOStrategy</text>
<text text-anchor="middle" x="698.39" y="-182.7" font-family="Times,serif" font-size="14.00">../contracts/strategies/amo/BaseAMOStrategy.sol</text>
</g>
<!-- 224&#45;&gt;40 -->
<g id="edge4" class="edge">
<title>224&#45;&gt;40</title>
<path fill="none" stroke="black" stroke-dasharray="5,2" d="M590.84,-232.97C573.07,-242 556.52,-253.85 544.39,-269.4 525.63,-293.45 521.7,-328.28 522,-354.93"/>
<polygon fill="black" stroke="black" points="518.5,-355.18 522.31,-365.06 525.5,-354.96 518.5,-355.18"/>
</g>
<!-- 165 -->
<g id="node12" class="node">
<title>165</title>
<polygon fill="#f2f2f2" stroke="black" points="553.34,-269.9 553.34,-328.3 843.44,-328.3 843.44,-269.9 553.34,-269.9"/>
<text text-anchor="middle" x="698.39" y="-311.7" font-family="Times,serif" font-size="14.00">&lt;&lt;Abstract&gt;&gt;</text>
<text text-anchor="middle" x="698.39" y="-294.9" font-family="Times,serif" font-size="14.00">InitializableAbstractStrategy</text>
<text text-anchor="middle" x="698.39" y="-278.1" font-family="Times,serif" font-size="14.00">../contracts/utils/InitializableAbstractStrategy.sol</text>
</g>
<!-- 224&#45;&gt;165 -->
<g id="edge2" class="edge">
<title>224&#45;&gt;165</title>
<path fill="none" stroke="black" d="M698.39,-232.98C698.39,-235.06 698.39,-237.2 698.39,-239.38"/>
<polygon fill="none" stroke="black" points="687.89,-239.6 698.39,-269.6 708.89,-239.6 687.89,-239.6"/>
</g>
<!-- 357 -->
<g id="node15" class="node">
<title>357</title>
<polygon fill="#f2f2f2" stroke="black" points="591.34,-713.3 591.34,-771.7 995.45,-771.7 995.45,-713.3 591.34,-713.3"/>
<text text-anchor="middle" x="793.39" y="-755.1" font-family="Times,serif" font-size="14.00">&lt;&lt;Interface&gt;&gt;</text>
<text text-anchor="middle" x="793.39" y="-738.3" font-family="Times,serif" font-size="14.00">IERC20</text>
<text text-anchor="middle" x="793.39" y="-721.5" font-family="Times,serif" font-size="14.00">../node_modules/@openzeppelin/contracts/token/ERC20/IERC20.sol</text>
</g>
<!-- 224&#45;&gt;357 -->
<g id="edge3" class="edge">
<title>224&#45;&gt;357</title>
<path fill="none" stroke="black" d="M569.85,-232.92C488.81,-259.14 399.39,-307.55 399.39,-393.5 399.39,-393.5 399.39,-393.5 399.39,-561.1 399.39,-614.11 389.61,-640.65 428.39,-676.8 452.23,-699.03 514.36,-713.79 580.74,-723.52"/>
<polygon fill="black" stroke="black" points="580.6,-727.04 590.99,-724.98 581.58,-720.11 580.6,-727.04"/>
</g>
<!-- 228 -->
<g id="node8" class="node">
<title>228</title>
<polygon fill="#f2f2f2" stroke="black" points="530.4,-79.1 530.4,-137.5 866.39,-137.5 866.39,-79.1 530.4,-79.1"/>
<text text-anchor="middle" x="698.39" y="-120.9" font-family="Times,serif" font-size="14.00">&lt;&lt;Abstract&gt;&gt;</text>
<text text-anchor="middle" x="698.39" y="-104.1" font-family="Times,serif" font-size="14.00">BaseConvexAMOStrategy</text>
<text text-anchor="middle" x="698.39" y="-87.3" font-family="Times,serif" font-size="14.00">../contracts/strategies/amo/BaseConvexAMOStrategy.sol</text>
</g>
<!-- 228&#45;&gt;141 -->
<g id="edge8" class="edge">
<title>228&#45;&gt;141</title>
<path fill="none" stroke="black" stroke-dasharray="5,2" d="M786.79,-137.58C820.17,-148.25 858.32,-160.45 892.51,-171.39"/>
<polygon fill="black" stroke="black" points="891.45,-174.73 902.04,-174.44 893.58,-168.06 891.45,-174.73"/>
</g>
<!-- 228&#45;&gt;142 -->
<g id="edge7" class="edge">
<title>228&#45;&gt;142</title>
<path fill="none" stroke="black" d="M530.23,-136.63C527.26,-137.09 524.31,-137.55 521.39,-138 415.81,-154.32 386.52,-155.13 277.07,-173.92"/>
<polygon fill="black" stroke="black" points="276.2,-170.52 266.94,-175.67 277.39,-177.41 276.2,-170.52"/>
</g>
<!-- 228&#45;&gt;146 -->
<g id="edge6" class="edge">
<title>228&#45;&gt;146</title>
<path fill="none" stroke="black" d="M610.9,-137.58C578.09,-148.18 540.6,-160.29 506.94,-171.18"/>
<polygon fill="black" stroke="black" points="505.53,-167.95 497.09,-174.36 507.68,-174.61 505.53,-167.95"/>
</g>
<!-- 228&#45;&gt;224 -->
<g id="edge5" class="edge">
<title>228&#45;&gt;224</title>
<path fill="none" stroke="black" d="M698.39,-137.58C698.39,-139.66 698.39,-141.8 698.39,-143.98"/>
<polygon fill="none" stroke="black" points="687.89,-144.2 698.39,-174.2 708.89,-144.2 687.89,-144.2"/>
</g>
<!-- 232 -->
<g id="node9" class="node">
<title>232</title>
<polygon fill="#f2f2f2" stroke="black" points="526.9,-0.5 526.9,-42.1 869.89,-42.1 869.89,-0.5 526.9,-0.5"/>
<text text-anchor="middle" x="698.39" y="-25.5" font-family="Times,serif" font-size="14.00">ConvexOUSDMetaStrategy</text>
<text text-anchor="middle" x="698.39" y="-8.7" font-family="Times,serif" font-size="14.00">../contracts/strategies/amo/ConvexOUSDMetaStrategy.sol</text>
</g>
<!-- 232&#45;&gt;145 -->
<g id="edge10" class="edge">
<title>232&#45;&gt;145</title>
<path fill="none" stroke="black" d="M629.13,-42.12C593.66,-52.27 549.66,-64.87 509.82,-76.27"/>
<polygon fill="black" stroke="black" points="508.71,-72.95 500.06,-79.06 510.63,-79.68 508.71,-72.95"/>
</g>
<!-- 232&#45;&gt;228 -->
<g id="edge9" class="edge">
<title>232&#45;&gt;228</title>
<path fill="none" stroke="black" d="M698.39,-42.44C698.39,-44.49 698.39,-46.63 698.39,-48.83"/>
<polygon fill="none" stroke="black" points="687.89,-48.94 698.39,-78.94 708.89,-48.94 687.89,-48.94"/>
</g>
<!-- 232&#45;&gt;357 -->
<g id="edge11" class="edge">
<title>232&#45;&gt;357</title>
<path fill="none" stroke="black" stroke-dasharray="5,2" d="M855.12,-42.11C1019.55,-67.39 1254.39,-118.28 1254.39,-202.7 1254.39,-202.7 1254.39,-202.7 1254.39,-561.1 1254.39,-614.45 1262.31,-641.41 1222.39,-676.8 1189.36,-706.09 1096.61,-722.12 1005.78,-730.89"/>
<polygon fill="black" stroke="black" points="1005.2,-727.43 995.57,-731.85 1005.86,-734.4 1005.2,-727.43"/>
</g>
<!-- 157 -->
<g id="node10" class="node">
<title>157</title>
<polygon fill="#f2f2f2" stroke="black" points="717.26,-539.3 717.26,-580.9 891.52,-580.9 891.52,-539.3 717.26,-539.3"/>
<text text-anchor="middle" x="804.39" y="-564.3" font-family="Times,serif" font-size="14.00">OUSD</text>
<text text-anchor="middle" x="804.39" y="-547.5" font-family="Times,serif" font-size="14.00">../contracts/token/OUSD.sol</text>
</g>
<!-- 157&#45;&gt;7 -->
<g id="edge14" class="edge">
<title>157&#45;&gt;7</title>
<path fill="none" stroke="black" d="M866.65,-580.92C900.46,-591.68 942.88,-605.19 980.32,-617.11"/>
<polygon fill="none" stroke="black" points="977.26,-627.15 1009.03,-626.25 983.63,-607.14 977.26,-627.15"/>
</g>
<!-- 164 -->
<g id="node11" class="node">
<title>164</title>
<polygon fill="#f2f2f2" stroke="black" points="437.39,-617.9 437.39,-676.3 633.4,-676.3 633.4,-617.9 437.39,-617.9"/>
<text text-anchor="middle" x="535.39" y="-659.7" font-family="Times,serif" font-size="14.00">&lt;&lt;Abstract&gt;&gt;</text>
<text text-anchor="middle" x="535.39" y="-642.9" font-family="Times,serif" font-size="14.00">Initializable</text>
<text text-anchor="middle" x="535.39" y="-626.1" font-family="Times,serif" font-size="14.00">../contracts/utils/Initializable.sol</text>
</g>
<!-- 157&#45;&gt;164 -->
<g id="edge12" class="edge">
<title>157&#45;&gt;164</title>
<path fill="none" stroke="black" d="M741.66,-580.92C715.44,-589.21 684.08,-599.12 653.82,-608.68"/>
<polygon fill="none" stroke="black" points="650.2,-598.81 624.75,-617.86 656.52,-618.84 650.2,-598.81"/>
</g>
<!-- 167 -->
<g id="node13" class="node">
<title>167</title>
<polygon fill="#f2f2f2" stroke="black" points="651.06,-617.9 651.06,-676.3 935.72,-676.3 935.72,-617.9 651.06,-617.9"/>
<text text-anchor="middle" x="793.39" y="-659.7" font-family="Times,serif" font-size="14.00">&lt;&lt;Abstract&gt;&gt;</text>
<text text-anchor="middle" x="793.39" y="-642.9" font-family="Times,serif" font-size="14.00">InitializableERC20Detailed</text>
<text text-anchor="middle" x="793.39" y="-626.1" font-family="Times,serif" font-size="14.00">../contracts/utils/InitializableERC20Detailed.sol</text>
</g>
<!-- 157&#45;&gt;167 -->
<g id="edge13" class="edge">
<title>157&#45;&gt;167</title>
<path fill="none" stroke="black" d="M801.78,-581.24C801.51,-583.37 801.22,-585.61 800.92,-587.91"/>
<polygon fill="none" stroke="black" points="790.5,-586.64 797.06,-617.74 811.33,-589.33 790.5,-586.64"/>
</g>
<!-- 165&#45;&gt;7 -->
<g id="edge16" class="edge">
<title>165&#45;&gt;7</title>
<path fill="none" stroke="black" d="M739.44,-328.43C782.53,-358.93 851.38,-409.87 905.39,-460.2 954.12,-505.61 1004.27,-563.62 1036.51,-602.66"/>
<polygon fill="none" stroke="black" points="1028.44,-609.39 1055.53,-626.02 1044.73,-596.13 1028.44,-609.39"/>
</g>
<!-- 165&#45;&gt;40 -->
<g id="edge19" class="edge">
<title>165&#45;&gt;40</title>
<path fill="none" stroke="black" stroke-dasharray="5,2" d="M646.02,-328.38C627.39,-338.43 606.24,-349.85 586.91,-360.28"/>
<polygon fill="black" stroke="black" points="585.02,-357.33 577.89,-365.16 588.35,-363.49 585.02,-357.33"/>
</g>
<!-- 165&#45;&gt;164 -->
<g id="edge15" class="edge">
<title>165&#45;&gt;164</title>
<path fill="none" stroke="black" d="M685.05,-328.41C658.12,-385.58 596.83,-515.69 561.6,-590.46"/>
<polygon fill="none" stroke="black" points="551.97,-586.27 548.69,-617.88 570.97,-595.22 551.97,-586.27"/>
</g>
<!-- 165&#45;&gt;165 -->
<g id="edge17" class="edge">
<title>165&#45;&gt;165</title>
<path fill="none" stroke="black" stroke-dasharray="5,2" d="M843.61,-285.88C854.64,-288.82 861.44,-293.22 861.44,-299.1 861.44,-302.96 858.51,-306.18 853.38,-308.77"/>
<polygon fill="black" stroke="black" points="851.81,-305.62 843.61,-312.32 854.2,-312.2 851.81,-305.62"/>
</g>
<!-- 165&#45;&gt;357 -->
<g id="edge18" class="edge">
<title>165&#45;&gt;357</title>
<path fill="none" stroke="black" stroke-dasharray="5,2" d="M843.72,-321.7C996.94,-348.68 1216.39,-401.16 1216.39,-480.5 1216.39,-480.5 1216.39,-480.5 1216.39,-561.1 1216.39,-613.21 1234.31,-640.03 1197.39,-676.8 1169.13,-704.95 1087.91,-720.85 1005.64,-729.84"/>
<polygon fill="black" stroke="black" points="1005.18,-726.37 995.6,-730.9 1005.91,-733.33 1005.18,-726.37"/>
</g>
<!-- 167&#45;&gt;357 -->
<g id="edge20" class="edge">
<title>167&#45;&gt;357</title>
<path fill="none" stroke="black" stroke-dasharray="5,2" d="M793.39,-676.38C793.39,-678.46 793.39,-680.6 793.39,-682.78"/>
<polygon fill="none" stroke="black" points="782.89,-683 793.39,-713 803.89,-683 782.89,-683"/>
</g>
<!-- 177&#45;&gt;7 -->
<g id="edge22" class="edge">
<title>177&#45;&gt;7</title>
<path fill="none" stroke="black" d="M832.91,-502.38C853.27,-512.86 878.38,-526.13 900.39,-538.8 939.66,-561.41 982.89,-588.55 1016.05,-609.88"/>
<polygon fill="none" stroke="black" points="1010.35,-618.7 1041.24,-626.2 1021.77,-601.08 1010.35,-618.7"/>
</g>
<!-- 177&#45;&gt;157 -->
<g id="edge23" class="edge">
<title>177&#45;&gt;157</title>
<path fill="none" stroke="black" d="M796.28,-502.63C797.44,-510.72 798.81,-520.22 800.08,-529.1"/>
<polygon fill="black" stroke="black" points="796.63,-529.71 801.52,-539.11 803.56,-528.71 796.63,-529.71"/>
</g>
<!-- 177&#45;&gt;164 -->
<g id="edge21" class="edge">
<title>177&#45;&gt;164</title>
<path fill="none" stroke="black" d="M760.05,-502.45C743.92,-512.63 724.59,-525.62 708.39,-538.8 687.52,-555.78 687.27,-565.74 665.39,-581.4 654.04,-589.53 641.52,-597.16 628.86,-604.14"/>
<polygon fill="none" stroke="black" points="624.05,-594.81 602.2,-617.9 633.67,-613.48 624.05,-594.81"/>
</g>
</g>
</svg>
