<?xml version="1.0" encoding="UTF-8" standalone="no"?>
<!DOCTYPE svg PUBLIC "-//W3C//DTD SVG 1.1//EN"
 "http://www.w3.org/Graphics/SVG/1.1/DTD/svg11.dtd">
<!-- Generated by graphviz version 5.0.0 (20220707.1540)
 -->
<!-- Title: StorageDiagram Pages: 1 -->
<svg width="1503pt" height="703pt"
 viewBox="0.00 0.00 1502.63 703.40" xmlns="http://www.w3.org/2000/svg" xmlns:xlink="http://www.w3.org/1999/xlink">
<g id="graph0" class="graph" transform="scale(1 1) rotate(0) translate(4 699.4)">
<title>StorageDiagram</title>
<polygon fill="white" stroke="transparent" points="-4,4 -4,-699.4 1498.63,-699.4 1498.63,4 -4,4"/>
<!-- 5 -->
<g id="node1" class="node">
<title>5</title>
<polygon fill="#f2f2f2" stroke="black" points="0,-0.5 0,-694.9 888.14,-694.9 888.14,-0.5 0,-0.5"/>
<text text-anchor="middle" x="444.07" y="-678.3" font-family="Courier New" font-size="14.00">ConvexOUSDMetaStrategy &lt;&lt;Contract&gt;&gt;</text>
<polyline fill="none" stroke="black" points="0,-670.1 888.14,-670.1 "/>
<text text-anchor="middle" x="50.01" y="-653.5" font-family="Courier New" font-size="14.00">slot</text>
<polyline fill="none" stroke="black" points="0,-645.3 100.01,-645.3 "/>
<text text-anchor="middle" x="50.01" y="-628.7" font-family="Courier New" font-size="14.00">0</text>
<polyline fill="none" stroke="black" points="0,-620.5 100.01,-620.5 "/>
<text text-anchor="middle" x="50.01" y="-603.9" font-family="Courier New" font-size="14.00">1&#45;50</text>
<polyline fill="none" stroke="black" points="0,-595.7 100.01,-595.7 "/>
<text text-anchor="middle" x="50.01" y="-579.1" font-family="Courier New" font-size="14.00">51</text>
<polyline fill="none" stroke="black" points="0,-570.9 100.01,-570.9 "/>
<text text-anchor="middle" x="50.01" y="-554.3" font-family="Courier New" font-size="14.00">52</text>
<polyline fill="none" stroke="black" points="0,-546.1 100.01,-546.1 "/>
<text text-anchor="middle" x="50.01" y="-529.5" font-family="Courier New" font-size="14.00">53</text>
<polyline fill="none" stroke="black" points="0,-521.3 100.01,-521.3 "/>
<text text-anchor="middle" x="50.01" y="-504.7" font-family="Courier New" font-size="14.00">54</text>
<polyline fill="none" stroke="black" points="0,-496.5 100.01,-496.5 "/>
<text text-anchor="middle" x="50.01" y="-479.9" font-family="Courier New" font-size="14.00">55</text>
<polyline fill="none" stroke="black" points="0,-471.7 100.01,-471.7 "/>
<text text-anchor="middle" x="50.01" y="-455.1" font-family="Courier New" font-size="14.00">56</text>
<polyline fill="none" stroke="black" points="0,-446.9 100.01,-446.9 "/>
<text text-anchor="middle" x="50.01" y="-430.3" font-family="Courier New" font-size="14.00">57</text>
<polyline fill="none" stroke="black" points="0,-422.1 100.01,-422.1 "/>
<text text-anchor="middle" x="50.01" y="-405.5" font-family="Courier New" font-size="14.00">58</text>
<polyline fill="none" stroke="black" points="0,-397.3 100.01,-397.3 "/>
<text text-anchor="middle" x="50.01" y="-380.7" font-family="Courier New" font-size="14.00">59&#45;156</text>
<polyline fill="none" stroke="black" points="0,-372.5 100.01,-372.5 "/>
<text text-anchor="middle" x="50.01" y="-355.9" font-family="Courier New" font-size="14.00">157</text>
<polyline fill="none" stroke="black" points="0,-347.7 100.01,-347.7 "/>
<text text-anchor="middle" x="50.01" y="-331.1" font-family="Courier New" font-size="14.00">158&#45;206</text>
<polyline fill="none" stroke="black" points="0,-322.9 100.01,-322.9 "/>
<text text-anchor="middle" x="50.01" y="-306.3" font-family="Courier New" font-size="14.00">207</text>
<polyline fill="none" stroke="black" points="0,-298.1 100.01,-298.1 "/>
<text text-anchor="middle" x="50.01" y="-281.5" font-family="Courier New" font-size="14.00">208</text>
<polyline fill="none" stroke="black" points="0,-273.3 100.01,-273.3 "/>
<text text-anchor="middle" x="50.01" y="-256.7" font-family="Courier New" font-size="14.00">209</text>
<polyline fill="none" stroke="black" points="0,-248.5 100.01,-248.5 "/>
<text text-anchor="middle" x="50.01" y="-231.9" font-family="Courier New" font-size="14.00">210</text>
<polyline fill="none" stroke="black" points="0,-223.7 100.01,-223.7 "/>
<text text-anchor="middle" x="50.01" y="-207.1" font-family="Courier New" font-size="14.00">211</text>
<polyline fill="none" stroke="black" points="0,-198.9 100.01,-198.9 "/>
<text text-anchor="middle" x="50.01" y="-182.3" font-family="Courier New" font-size="14.00">212</text>
<polyline fill="none" stroke="black" points="0,-174.1 100.01,-174.1 "/>
<text text-anchor="middle" x="50.01" y="-157.5" font-family="Courier New" font-size="14.00">213</text>
<polyline fill="none" stroke="black" points="0,-149.3 100.01,-149.3 "/>
<text text-anchor="middle" x="50.01" y="-132.7" font-family="Courier New" font-size="14.00">214</text>
<polyline fill="none" stroke="black" points="0,-124.5 100.01,-124.5 "/>
<text text-anchor="middle" x="50.01" y="-107.9" font-family="Courier New" font-size="14.00">215</text>
<polyline fill="none" stroke="black" points="0,-99.7 100.01,-99.7 "/>
<text text-anchor="middle" x="50.01" y="-83.1" font-family="Courier New" font-size="14.00">0x360..bbc</text>
<polyline fill="none" stroke="black" points="0,-74.9 100.01,-74.9 "/>
<text text-anchor="middle" x="50.01" y="-58.3" font-family="Courier New" font-size="14.00">0x44c..1db</text>
<polyline fill="none" stroke="black" points="0,-50.1 100.01,-50.1 "/>
<text text-anchor="middle" x="50.01" y="-33.5" font-family="Courier New" font-size="14.00">0x53b..535</text>
<polyline fill="none" stroke="black" points="0,-25.3 100.01,-25.3 "/>
<text text-anchor="middle" x="50.01" y="-8.7" font-family="Courier New" font-size="14.00">0x7be..a4a</text>
<polyline fill="none" stroke="black" points="100.01,-0.5 100.01,-670.1 "/>
<text text-anchor="middle" x="494.08" y="-653.5" font-family="Courier New" font-size="14.00">type: &lt;inherited contract&gt;.variable (bytes)</text>
<polyline fill="none" stroke="black" points="100.01,-645.3 888.14,-645.3 "/>
<text text-anchor="middle" x="176.72" y="-628.7" font-family="Courier New" font-size="14.00">unallocated (30)</text>
<polyline fill="none" stroke="black" points="253.44,-620.5 253.44,-645.3 "/>
<text text-anchor="middle" x="414.16" y="-628.7" font-family="Courier New" font-size="14.00">bool: Initializable.initializing (1)</text>
<polyline fill="none" stroke="black" points="574.88,-620.5 574.88,-645.3 "/>
<text text-anchor="middle" x="731.41" y="-628.7" font-family="Courier New" font-size="14.00">bool: Initializable.initialized (1)</text>
<polyline fill="none" stroke="black" points="100.01,-620.5 888.14,-620.5 "/>
<text text-anchor="middle" x="493.64" y="-603.9" font-family="Courier New" font-size="14.00">uint256[50]: Initializable.______gap (1600)</text>
<polyline fill="none" stroke="black" points="100.01,-595.7 888.14,-595.7 "/>
<text text-anchor="middle" x="181.22" y="-579.1" font-family="Courier New" font-size="14.00">unallocated (12)</text>
<polyline fill="none" stroke="black" points="262.44,-570.9 262.44,-595.7 "/>
<text text-anchor="middle" x="575.18" y="-579.1" font-family="Courier New" font-size="14.00">address: InitializableAbstractStrategy._deprecated_platformAddress (20)</text>
<polyline fill="none" stroke="black" points="100.01,-570.9 888.14,-570.9 "/>
<text text-anchor="middle" x="187.72" y="-554.3" font-family="Courier New" font-size="14.00">unallocated (12)</text>
<polyline fill="none" stroke="black" points="275.44,-546.1 275.44,-570.9 "/>
<text text-anchor="middle" x="581.58" y="-554.3" font-family="Courier New" font-size="14.00">address: InitializableAbstractStrategy._deprecated_vaultAddress (20)</text>
<polyline fill="none" stroke="black" points="100.01,-546.1 888.14,-546.1 "/>
<text text-anchor="middle" x="494.06" y="-529.5" font-family="Courier New" font-size="14.00">mapping(address=&gt;address): InitializableAbstractStrategy.assetToPToken (32)</text>
<polyline fill="none" stroke="black" points="100.01,-521.3 888.14,-521.3 "/>
<text text-anchor="middle" x="493.65" y="-504.7" font-family="Courier New" font-size="14.00">address[]: InitializableAbstractStrategy.assetsMapped (32)</text>
<polyline fill="none" stroke="black" points="100.01,-496.5 888.14,-496.5 "/>
<text text-anchor="middle" x="175.22" y="-479.9" font-family="Courier New" font-size="14.00">unallocated (12)</text>
<polyline fill="none" stroke="black" points="250.44,-471.7 250.44,-496.5 "/>
<text text-anchor="middle" x="569.29" y="-479.9" font-family="Courier New" font-size="14.00">address: InitializableAbstractStrategy._deprecated_rewardTokenAddress (20)</text>
<polyline fill="none" stroke="black" points="100.01,-471.7 888.14,-471.7 "/>
<text text-anchor="middle" x="493.97" y="-455.1" font-family="Courier New" font-size="14.00">uint256: InitializableAbstractStrategy._deprecated_rewardLiquidationThreshold (32)</text>
<polyline fill="none" stroke="black" points="100.01,-446.9 888.14,-446.9 "/>
<text text-anchor="middle" x="204.22" y="-430.3" font-family="Courier New" font-size="14.00">unallocated (12)</text>
<polyline fill="none" stroke="black" points="308.44,-422.1 308.44,-446.9 "/>
<text text-anchor="middle" x="597.98" y="-430.3" font-family="Courier New" font-size="14.00">address: InitializableAbstractStrategy.harvesterAddress (20)</text>
<polyline fill="none" stroke="black" points="100.01,-422.1 888.14,-422.1 "/>
<text text-anchor="middle" x="493.76" y="-405.5" font-family="Courier New" font-size="14.00">address[]: InitializableAbstractStrategy.rewardTokenAddresses (32)</text>
<polyline fill="none" stroke="black" points="100.01,-397.3 888.14,-397.3 "/>
<text text-anchor="middle" x="493.65" y="-380.7" font-family="Courier New" font-size="14.00">int256[98]: InitializableAbstractStrategy._reserved (3136)</text>
<polyline fill="none" stroke="black" points="100.01,-372.5 888.14,-372.5 "/>
<text text-anchor="middle" x="244.22" y="-355.9" font-family="Courier New" font-size="14.00">unallocated (12)</text>
<polyline fill="none" stroke="black" points="388.44,-347.7 388.44,-372.5 "/>
<text text-anchor="middle" x="638.16" y="-355.9" font-family="Courier New" font-size="14.00">address: _deprecated_pTokenAddresses (20)</text>
<polyline fill="none" stroke="black" points="100.01,-347.7 888.14,-347.7 "/>
<text text-anchor="middle" x="493.83" y="-331.1" font-family="Courier New" font-size="14.00">int256[49]: __reserved (1568)</text>
<polyline fill="none" stroke="black" points="100.01,-322.9 888.14,-322.9 "/>
<text text-anchor="middle" x="235.72" y="-306.3" font-family="Courier New" font-size="14.00">unallocated (12)</text>
<polyline fill="none" stroke="black" points="371.44,-298.1 371.44,-322.9 "/>
<text text-anchor="middle" x="629.47" y="-306.3" font-family="Courier New" font-size="14.00">address: _deprecated_cvxDepositorAddress (20)</text>
<polyline fill="none" stroke="black" points="100.01,-298.1 888.14,-298.1 "/>
<text text-anchor="middle" x="229.72" y="-281.5" font-family="Courier New" font-size="14.00">unallocated (12)</text>
<polyline fill="none" stroke="black" points="359.44,-273.3 359.44,-298.1 "/>
<text text-anchor="middle" x="623.57" y="-281.5" font-family="Courier New" font-size="14.00">address: _deprecated_cvxRewardStakerAddress (20)</text>
<polyline fill="none" stroke="black" points="100.01,-273.3 888.14,-273.3 "/>
<text text-anchor="middle" x="493.75" y="-256.7" font-family="Courier New" font-size="14.00">uint256: _deprecated_cvxDepositorPTokenId (32)</text>
<polyline fill="none" stroke="black" points="100.01,-248.5 888.14,-248.5 "/>
<text text-anchor="middle" x="259.22" y="-231.9" font-family="Courier New" font-size="14.00">unallocated (12)</text>
<polyline fill="none" stroke="black" points="418.44,-223.7 418.44,-248.5 "/>
<text text-anchor="middle" x="653.26" y="-231.9" font-family="Courier New" font-size="14.00">address: _deprecated_metapool (20)</text>
<polyline fill="none" stroke="black" points="100.01,-223.7 888.14,-223.7 "/>
<text text-anchor="middle" x="240.22" y="-207.1" font-family="Courier New" font-size="14.00">unallocated (12)</text>
<polyline fill="none" stroke="black" points="380.44,-198.9 380.44,-223.7 "/>
<text text-anchor="middle" x="634.06" y="-207.1" font-family="Courier New" font-size="14.00">address: _deprecated_metapoolMainToken (20)</text>
<polyline fill="none" stroke="black" points="100.01,-198.9 888.14,-198.9 "/>
<text text-anchor="middle" x="244.22" y="-182.3" font-family="Courier New" font-size="14.00">unallocated (12)</text>
<polyline fill="none" stroke="black" points="388.44,-174.1 388.44,-198.9 "/>
<text text-anchor="middle" x="638.16" y="-182.3" font-family="Courier New" font-size="14.00">address: _deprecated_metapoolLPToken (20)</text>
<polyline fill="none" stroke="black" points="100.01,-174.1 888.14,-174.1 "/>
<text text-anchor="middle" x="493.94" y="-157.5" font-family="Courier New" font-size="14.00">address[]: _deprecated_metapoolAssets (32)</text>
<polyline fill="none" stroke="black" points="100.01,-149.3 888.14,-149.3 "/>
<text text-anchor="middle" x="493.95" y="-132.7" font-family="Courier New" font-size="14.00">uint256: _deprecated_maxWithdrawalSlippage (32)</text>
<polyline fill="none" stroke="black" points="100.01,-124.5 888.14,-124.5 "/>
<text text-anchor="middle" x="298.84" y="-107.9" font-family="Courier New" font-size="14.00">uint128: _deprecated_mainCoinIndex (16)</text>
<polyline fill="none" stroke="black" points="497.67,-99.7 497.67,-124.5 "/>
<text text-anchor="middle" x="692.79" y="-107.9" font-family="Courier New" font-size="14.00">uint128: _deprecated_crvCoinIndex (16)</text>
<polyline fill="none" stroke="black" points="100.01,-99.7 888.14,-99.7 "/>
<text text-anchor="middle" x="305.22" y="-83.1" font-family="Courier New" font-size="14.00">unallocated (12)</text>
<polyline fill="none" stroke="black" points="510.44,-74.9 510.44,-99.7 "/>
<text text-anchor="middle" x="698.84" y="-83.1" font-family="Courier New" font-size="14.00">address (20)</text>
<polyline fill="none" stroke="black" points="100.01,-74.9 888.14,-74.9 "/>
<text text-anchor="middle" x="256.72" y="-58.3" font-family="Courier New" font-size="14.00">unallocated (12)</text>
<polyline fill="none" stroke="black" points="413.44,-50.1 413.44,-74.9 "/>
<text text-anchor="middle" x="650.46" y="-58.3" font-family="Courier New" font-size="14.00">address: OUSD.pending.governor (20)</text>
<polyline fill="none" stroke="black" points="100.01,-50.1 888.14,-50.1 "/>
<text text-anchor="middle" x="269.72" y="-33.5" font-family="Courier New" font-size="14.00">unallocated (31)</text>
<polyline fill="none" stroke="black" points="439.44,-25.3 439.44,-50.1 "/>
<text text-anchor="middle" x="663.76" y="-33.5" font-family="Courier New" font-size="14.00">bool: OUSD.reentry.status (1)</text>
<polyline fill="none" stroke="black" points="100.01,-25.3 888.14,-25.3 "/>
<text text-anchor="middle" x="273.72" y="-8.7" font-family="Courier New" font-size="14.00">unallocated (12)</text>
<polyline fill="none" stroke="black" points="447.44,-0.5 447.44,-25.3 "/>
<text text-anchor="middle" x="667.35" y="-8.7" font-family="Courier New" font-size="14.00">address: OUSD.governor (20)</text>
</g>
<!-- 1 -->
<g id="node2" class="node">
<title>1</title>
<polygon fill="#f2f2f2" stroke="black" points="924.14,-501.1 924.14,-592.3 1494.63,-592.3 1494.63,-501.1 924.14,-501.1"/>
<text text-anchor="middle" x="1209.38" y="-575.7" font-family="Courier New" font-size="14.00">address[]: assetsMapped &lt;&lt;Array&gt;&gt;</text>
<text text-anchor="middle" x="1209.38" y="-558.9" font-family="Courier New" font-size="14.00">0x4a11f94e20a93c79f6ec743a1954ec4fc2c08429ae2122118bf234b2185c81b8</text>
<polyline fill="none" stroke="black" points="924.14,-550.7 1494.63,-550.7 "/>
<text text-anchor="middle" x="1016.34" y="-534.1" font-family="Courier New" font-size="14.00">offset</text>
<polyline fill="none" stroke="black" points="924.14,-525.9 1108.54,-525.9 "/>
<text text-anchor="middle" x="1016.34" y="-509.3" font-family="Courier New" font-size="14.00">0</text>
<polyline fill="none" stroke="black" points="1108.54,-501.1 1108.54,-550.7 "/>
<text text-anchor="middle" x="1301.16" y="-534.1" font-family="Courier New" font-size="14.00">type: variable (bytes)</text>
<polyline fill="none" stroke="black" points="1108.54,-525.9 1493.78,-525.9 "/>
<text text-anchor="middle" x="1213.26" y="-509.3" font-family="Courier New" font-size="14.00">unallocated (12)</text>
<polyline fill="none" stroke="black" points="1317.97,-501.1 1317.97,-525.9 "/>
<text text-anchor="middle" x="1405.88" y="-509.3" font-family="Courier New" font-size="14.00">address (20)</text>
</g>
<!-- 5&#45;&gt;1 -->
<g id="edge1" class="edge">
<title>5:8&#45;&gt;1</title>
<path fill="none" stroke="black" d="M888.07,-508.7C896.52,-508.7 905.09,-508.83 913.73,-509.08"/>
<polygon fill="black" stroke="black" points="913.8,-512.58 923.91,-509.43 914.03,-505.59 913.8,-512.58"/>
</g>
<!-- 2 -->
<g id="node3" class="node">
<title>2</title>
<polygon fill="#f2f2f2" stroke="black" points="924.14,-391.1 924.14,-482.3 1494.63,-482.3 1494.63,-391.1 924.14,-391.1"/>
<text text-anchor="middle" x="1209.38" y="-465.7" font-family="Courier New" font-size="14.00">address[]: rewardTokenAddresses &lt;&lt;Array&gt;&gt;</text>
<text text-anchor="middle" x="1209.38" y="-448.9" font-family="Courier New" font-size="14.00">0xa2999d817b6757290b50e8ecf3fa939673403dd35c97de392fdb343b4015ce9e</text>
<polyline fill="none" stroke="black" points="924.14,-440.7 1494.63,-440.7 "/>
<text text-anchor="middle" x="1016.34" y="-424.1" font-family="Courier New" font-size="14.00">offset</text>
<polyline fill="none" stroke="black" points="924.14,-415.9 1108.54,-415.9 "/>
<text text-anchor="middle" x="1016.34" y="-399.3" font-family="Courier New" font-size="14.00">0</text>
<polyline fill="none" stroke="black" points="1108.54,-391.1 1108.54,-440.7 "/>
<text text-anchor="middle" x="1301.16" y="-424.1" font-family="Courier New" font-size="14.00">type: variable (bytes)</text>
<polyline fill="none" stroke="black" points="1108.54,-415.9 1493.78,-415.9 "/>
<text text-anchor="middle" x="1213.26" y="-399.3" font-family="Courier New" font-size="14.00">unallocated (12)</text>
<polyline fill="none" stroke="black" points="1317.97,-391.1 1317.97,-415.9 "/>
<text text-anchor="middle" x="1405.88" y="-399.3" font-family="Courier New" font-size="14.00">address (20)</text>
</g>
<!-- 5&#45;&gt;2 -->
<g id="edge2" class="edge">
<title>5:13&#45;&gt;2</title>
<path fill="none" stroke="black" d="M888.07,-409.7C896.49,-409.7 905.04,-409.79 913.66,-409.97"/>
<polygon fill="black" stroke="black" points="913.73,-413.47 923.81,-410.22 913.9,-406.48 913.73,-413.47"/>
</g>
<!-- 3 -->
<g id="node4" class="node">
<title>3</title>
<polygon fill="#f2f2f2" stroke="black" points="1066.96,-198.9 1066.96,-372.5 1351.8,-372.5 1351.8,-198.9 1066.96,-198.9"/>
<text text-anchor="middle" x="1209.38" y="-355.9" font-family="Courier New" font-size="14.00">int256[49]: __reserved &lt;&lt;Array&gt;&gt;</text>
<polyline fill="none" stroke="black" points="1066.96,-347.7 1351.8,-347.7 "/>
<text text-anchor="middle" x="1106.36" y="-331.1" font-family="Courier New" font-size="14.00">slot</text>
<polyline fill="none" stroke="black" points="1066.96,-322.9 1145.77,-322.9 "/>
<text text-anchor="middle" x="1106.36" y="-306.3" font-family="Courier New" font-size="14.00">158</text>
<polyline fill="none" stroke="black" points="1066.96,-298.1 1145.77,-298.1 "/>
<text text-anchor="middle" x="1106.36" y="-281.5" font-family="Courier New" font-size="14.00">159</text>
<polyline fill="none" stroke="black" points="1066.96,-273.3 1145.77,-273.3 "/>
<text text-anchor="middle" x="1106.36" y="-256.7" font-family="Courier New" font-size="14.00">160&#45;204</text>
<polyline fill="none" stroke="black" points="1066.96,-248.5 1145.77,-248.5 "/>
<text text-anchor="middle" x="1106.36" y="-231.9" font-family="Courier New" font-size="14.00">205</text>
<polyline fill="none" stroke="black" points="1066.96,-223.7 1145.77,-223.7 "/>
<text text-anchor="middle" x="1106.36" y="-207.1" font-family="Courier New" font-size="14.00">206</text>
<polyline fill="none" stroke="black" points="1145.77,-198.9 1145.77,-347.7 "/>
<text text-anchor="middle" x="1248.68" y="-331.1" font-family="Courier New" font-size="14.00">type: variable (bytes)</text>
<polyline fill="none" stroke="black" points="1145.77,-322.9 1351.6,-322.9 "/>
<text text-anchor="middle" x="1248.48" y="-306.3" font-family="Courier New" font-size="14.00">int256 (32)</text>
<polyline fill="none" stroke="black" points="1145.77,-298.1 1351.6,-298.1 "/>
<text text-anchor="middle" x="1248.48" y="-281.5" font-family="Courier New" font-size="14.00">int256 (32)</text>
<polyline fill="none" stroke="black" points="1145.77,-273.3 1351.6,-273.3 "/>
<text text-anchor="middle" x="1248.48" y="-256.7" font-family="Courier New" font-size="14.00">&#45;&#45;&#45;&#45; (1440)</text>
<polyline fill="none" stroke="black" points="1145.77,-248.5 1351.6,-248.5 "/>
<text text-anchor="middle" x="1248.48" y="-231.9" font-family="Courier New" font-size="14.00">int256 (32)</text>
<polyline fill="none" stroke="black" points="1145.77,-223.7 1351.6,-223.7 "/>
<text text-anchor="middle" x="1248.48" y="-207.1" font-family="Courier New" font-size="14.00">int256 (32)</text>
</g>
<!-- 5&#45;&gt;3 -->
<g id="edge3" class="edge">
<title>5:21&#45;&gt;3</title>
<path fill="none" stroke="black" d="M888.14,-335.7C943.51,-335.7 1003.64,-328.31 1056.68,-319.22"/>
<polygon fill="black" stroke="black" points="1057.59,-322.61 1066.84,-317.44 1056.39,-315.71 1057.59,-322.61"/>
</g>
<!-- 4 -->
<g id="node5" class="node">
<title>4</title>
<polygon fill="#f2f2f2" stroke="black" points="924.14,-89.1 924.14,-180.3 1494.63,-180.3 1494.63,-89.1 924.14,-89.1"/>
<text text-anchor="middle" x="1209.38" y="-163.7" font-family="Courier New" font-size="14.00">address[]: _deprecated_metapoolAssets &lt;&lt;Array&gt;&gt;</text>
<text text-anchor="middle" x="1209.38" y="-146.9" font-family="Courier New" font-size="14.00">0x51858de9989bf7441865ebdadbf7382c8838edbf830f5d86a9a51ac773676dd6</text>
<polyline fill="none" stroke="black" points="924.14,-138.7 1494.63,-138.7 "/>
<text text-anchor="middle" x="1016.34" y="-122.1" font-family="Courier New" font-size="14.00">offset</text>
<polyline fill="none" stroke="black" points="924.14,-113.9 1108.54,-113.9 "/>
<text text-anchor="middle" x="1016.34" y="-97.3" font-family="Courier New" font-size="14.00">0</text>
<polyline fill="none" stroke="black" points="1108.54,-89.1 1108.54,-138.7 "/>
<text text-anchor="middle" x="1301.16" y="-122.1" font-family="Courier New" font-size="14.00">type: variable (bytes)</text>
<polyline fill="none" stroke="black" points="1108.54,-113.9 1493.78,-113.9 "/>
<text text-anchor="middle" x="1213.26" y="-97.3" font-family="Courier New" font-size="14.00">unallocated (12)</text>
<polyline fill="none" stroke="black" points="1317.97,-89.1 1317.97,-113.9 "/>
<text text-anchor="middle" x="1405.88" y="-97.3" font-family="Courier New" font-size="14.00">address (20)</text>
</g>
<!-- 5&#45;&gt;4 -->
<g id="edge4" class="edge">
<title>5:29&#45;&gt;4</title>
<path fill="none" stroke="black" d="M888.14,-161.7C896.56,-161.7 905.1,-161.61 913.72,-161.43"/>
<polygon fill="black" stroke="black" points="913.96,-164.92 923.87,-161.18 913.79,-157.93 913.96,-164.92"/>
</g>
</g>
</svg>
