<?xml version="1.0" encoding="UTF-8" standalone="no"?>
<!DOCTYPE svg PUBLIC "-//W3C//DTD SVG 1.1//EN"
 "http://www.w3.org/Graphics/SVG/1.1/DTD/svg11.dtd">
<!-- Generated by graphviz version 5.0.0 (20220707.1540)
 -->
<!-- Title: UmlClassDiagram Pages: 1 -->
<svg width="1110pt" height="432pt"
 viewBox="0.00 0.00 1109.99 432.20" xmlns="http://www.w3.org/2000/svg" xmlns:xlink="http://www.w3.org/1999/xlink">
<g id="graph0" class="graph" transform="scale(1 1) rotate(0) translate(4 428.2)">
<title>UmlClassDiagram</title>
<polygon fill="white" stroke="transparent" points="-4,4 -4,-428.2 1105.99,-428.2 1105.99,4 -4,4"/>
<!-- 20 -->
<g id="node1" class="node">
<title>20</title>
<polygon fill="#f2f2f2" stroke="black" points="503.67,-373.7 503.67,-415.3 738.53,-415.3 738.53,-373.7 503.67,-373.7"/>
<text text-anchor="middle" x="621.1" y="-398.7" font-family="Times,serif" font-size="14.00">Governable</text>
<text text-anchor="middle" x="621.1" y="-381.9" font-family="Times,serif" font-size="14.00">../contracts/governance/Governable.sol</text>
</g>
<!-- 160 -->
<g id="node2" class="node">
<title>160</title>
<polygon fill="#f2f2f2" stroke="black" points="604.1,-174.5 604.1,-232.9 870.09,-232.9 870.09,-174.5 604.1,-174.5"/>
<text text-anchor="middle" x="737.1" y="-216.3" font-family="Times,serif" font-size="14.00">&lt;&lt;Abstract&gt;&gt;</text>
<text text-anchor="middle" x="737.1" y="-199.5" font-family="Times,serif" font-size="14.00">BaseCurveStrategy</text>
<text text-anchor="middle" x="737.1" y="-182.7" font-family="Times,serif" font-size="14.00">../contracts/strategies/BaseCurveStrategy.sol</text>
</g>
<!-- 202 -->
<g id="node10" class="node">
<title>202</title>
<polygon fill="#f2f2f2" stroke="black" points="592.05,-269.9 592.05,-328.3 882.15,-328.3 882.15,-269.9 592.05,-269.9"/>
<text text-anchor="middle" x="737.1" y="-311.7" font-family="Times,serif" font-size="14.00">&lt;&lt;Abstract&gt;&gt;</text>
<text text-anchor="middle" x="737.1" y="-294.9" font-family="Times,serif" font-size="14.00">InitializableAbstractStrategy</text>
<text text-anchor="middle" x="737.1" y="-278.1" font-family="Times,serif" font-size="14.00">../contracts/utils/InitializableAbstractStrategy.sol</text>
</g>
<!-- 160&#45;&gt;202 -->
<g id="edge1" class="edge">
<title>160&#45;&gt;202</title>
<path fill="none" stroke="black" d="M737.1,-232.98C737.1,-235.06 737.1,-237.2 737.1,-239.38"/>
<polygon fill="none" stroke="black" points="726.6,-239.6 737.1,-269.6 747.6,-239.6 726.6,-239.6"/>
</g>
<!-- 167 -->
<g id="node3" class="node">
<title>167</title>
<polygon fill="#f2f2f2" stroke="black" points="360.04,-79.1 360.04,-137.5 608.16,-137.5 608.16,-79.1 360.04,-79.1"/>
<text text-anchor="middle" x="484.1" y="-120.9" font-family="Times,serif" font-size="14.00">&lt;&lt;Abstract&gt;&gt;</text>
<text text-anchor="middle" x="484.1" y="-104.1" font-family="Times,serif" font-size="14.00">ConvexStrategy</text>
<text text-anchor="middle" x="484.1" y="-87.3" font-family="Times,serif" font-size="14.00">../contracts/strategies/ConvexStrategy.sol</text>
</g>
<!-- 167&#45;&gt;160 -->
<g id="edge2" class="edge">
<title>167&#45;&gt;160</title>
<path fill="none" stroke="black" d="M560.69,-137.58C583.13,-145.86 608.06,-155.06 631.95,-163.88"/>
<polygon fill="none" stroke="black" points="628.55,-173.82 660.33,-174.36 635.82,-154.12 628.55,-173.82"/>
</g>
<!-- 169 -->
<g id="node4" class="node">
<title>169</title>
<polygon fill="#f2f2f2" stroke="black" points="113.88,-0.5 113.88,-42.1 420.31,-42.1 420.31,-0.5 113.88,-0.5"/>
<text text-anchor="middle" x="267.1" y="-25.5" font-family="Times,serif" font-size="14.00">ConvexThreePoolStrategy</text>
<text text-anchor="middle" x="267.1" y="-8.7" font-family="Times,serif" font-size="14.00">../contracts/strategies/ConvexThreePoolStrategy.sol</text>
</g>
<!-- 169&#45;&gt;167 -->
<g id="edge4" class="edge">
<title>169&#45;&gt;167</title>
<path fill="none" stroke="black" d="M317.7,-42.12C337.54,-49.89 361.02,-59.09 384,-68.09"/>
<polygon fill="none" stroke="black" points="380.25,-77.9 412.01,-79.06 387.91,-58.34 380.25,-77.9"/>
</g>
<!-- 267 -->
<g id="node7" class="node">
<title>267</title>
<polygon fill="#f2f2f2" stroke="black" points="0,-87.5 0,-129.1 342.2,-129.1 342.2,-87.5 0,-87.5"/>
<text text-anchor="middle" x="171.1" y="-112.5" font-family="Times,serif" font-size="14.00">CurveThreeCoinFunctions</text>
<text text-anchor="middle" x="171.1" y="-95.7" font-family="Times,serif" font-size="14.00">../contracts/strategies/curve/CurveThreeCoinFunctions.sol</text>
</g>
<!-- 169&#45;&gt;267 -->
<g id="edge3" class="edge">
<title>169&#45;&gt;267</title>
<path fill="none" stroke="black" d="M244.35,-42.44C235.98,-49.85 226.18,-58.53 216.52,-67.09"/>
<polygon fill="none" stroke="black" points="209.19,-59.55 193.69,-87.3 223.11,-75.27 209.19,-59.55"/>
</g>
<!-- 170 -->
<g id="node5" class="node">
<title>170</title>
<polygon fill="#f2f2f2" stroke="black" points="486.37,-0.5 486.37,-42.1 785.82,-42.1 785.82,-0.5 486.37,-0.5"/>
<text text-anchor="middle" x="636.1" y="-25.5" font-family="Times,serif" font-size="14.00">ConvexTwoPoolStrategy</text>
<text text-anchor="middle" x="636.1" y="-8.7" font-family="Times,serif" font-size="14.00">../contracts/strategies/ConvexTwoPoolStrategy.sol</text>
</g>
<!-- 170&#45;&gt;167 -->
<g id="edge6" class="edge">
<title>170&#45;&gt;167</title>
<path fill="none" stroke="black" d="M600.46,-42.23C588.61,-48.85 574.92,-56.51 561.18,-64.19"/>
<polygon fill="none" stroke="black" points="555.82,-55.16 534.76,-78.97 566.07,-73.49 555.82,-55.16"/>
</g>
<!-- 268 -->
<g id="node8" class="node">
<title>268</title>
<polygon fill="#f2f2f2" stroke="black" points="626.49,-87.5 626.49,-129.1 961.71,-129.1 961.71,-87.5 626.49,-87.5"/>
<text text-anchor="middle" x="794.1" y="-112.5" font-family="Times,serif" font-size="14.00">CurveTwoCoinFunctions</text>
<text text-anchor="middle" x="794.1" y="-95.7" font-family="Times,serif" font-size="14.00">../contracts/strategies/curve/CurveTwoCoinFunctions.sol</text>
</g>
<!-- 170&#45;&gt;268 -->
<g id="edge5" class="edge">
<title>170&#45;&gt;268</title>
<path fill="none" stroke="black" d="M673.14,-42.23C690.28,-51.45 711.12,-62.66 730.65,-73.17"/>
<polygon fill="none" stroke="black" points="725.89,-82.53 757.29,-87.5 735.84,-64.04 725.89,-82.53"/>
</g>
<!-- 172 -->
<g id="node6" class="node">
<title>172</title>
<polygon fill="#f2f2f2" stroke="black" points="828.21,-0.5 828.21,-42.1 1101.99,-42.1 1101.99,-0.5 828.21,-0.5"/>
<text text-anchor="middle" x="965.1" y="-25.5" font-family="Times,serif" font-size="14.00">FraxConvexStrategy</text>
<text text-anchor="middle" x="965.1" y="-8.7" font-family="Times,serif" font-size="14.00">../contracts/strategies/FraxConvexStrategy.sol</text>
</g>
<!-- 172&#45;&gt;160 -->
<g id="edge8" class="edge">
<title>172&#45;&gt;160</title>
<path fill="none" stroke="black" d="M973.23,-42.17C982.02,-67.21 992.17,-110.31 971.1,-138 960.61,-151.79 932.73,-163.39 899.7,-172.79"/>
<polygon fill="none" stroke="black" points="896.8,-162.7 870.35,-180.33 902.02,-183.04 896.8,-162.7"/>
</g>
<!-- 172&#45;&gt;268 -->
<g id="edge7" class="edge">
<title>172&#45;&gt;268</title>
<path fill="none" stroke="black" d="M925.01,-42.23C905.93,-51.71 882.59,-63.31 860.94,-74.08"/>
<polygon fill="none" stroke="black" points="856.13,-64.74 833.94,-87.5 865.48,-83.55 856.13,-64.74"/>
</g>
<!-- 201 -->
<g id="node9" class="node">
<title>201</title>
<polygon fill="#f2f2f2" stroke="black" points="756.09,-365.3 756.09,-423.7 952.1,-423.7 952.1,-365.3 756.09,-365.3"/>
<text text-anchor="middle" x="854.1" y="-407.1" font-family="Times,serif" font-size="14.00">&lt;&lt;Abstract&gt;&gt;</text>
<text text-anchor="middle" x="854.1" y="-390.3" font-family="Times,serif" font-size="14.00">Initializable</text>
<text text-anchor="middle" x="854.1" y="-373.5" font-family="Times,serif" font-size="14.00">../contracts/utils/Initializable.sol</text>
</g>
<!-- 202&#45;&gt;20 -->
<g id="edge10" class="edge">
<title>202&#45;&gt;20</title>
<path fill="none" stroke="black" d="M701.98,-328.38C691.78,-336.59 680.45,-345.71 669.58,-354.46"/>
<polygon fill="none" stroke="black" points="662.58,-346.62 645.8,-373.61 675.75,-362.98 662.58,-346.62"/>
</g>
<!-- 202&#45;&gt;201 -->
<g id="edge9" class="edge">
<title>202&#45;&gt;201</title>
<path fill="none" stroke="black" d="M772.52,-328.38C779.56,-333.99 787.12,-340.04 794.71,-346.09"/>
<polygon fill="none" stroke="black" points="788.4,-354.49 818.39,-365 801.5,-338.07 788.4,-354.49"/>
</g>
</g>
</svg>
