<?xml version="1.0" encoding="UTF-8" standalone="no"?>
<!DOCTYPE svg PUBLIC "-//W3C//DTD SVG 1.1//EN"
 "http://www.w3.org/Graphics/SVG/1.1/DTD/svg11.dtd">
<!-- Generated by graphviz version 5.0.0 (20220707.1540)
 -->
<!-- Title: StorageDiagram Pages: 1 -->
<svg width="1503pt" height="629pt"
 viewBox="0.00 0.00 1502.63 629.00" xmlns="http://www.w3.org/2000/svg" xmlns:xlink="http://www.w3.org/1999/xlink">
<g id="graph0" class="graph" transform="scale(1 1) rotate(0) translate(4 625)">
<title>StorageDiagram</title>
<polygon fill="white" stroke="transparent" points="-4,4 -4,-625 1498.63,-625 1498.63,4 -4,4"/>
<!-- 3 -->
<g id="node1" class="node">
<title>3</title>
<polygon fill="#f2f2f2" stroke="black" points="0,-0.5 0,-620.5 888.14,-620.5 888.14,-0.5 0,-0.5"/>
<text text-anchor="middle" x="444.07" y="-603.9" font-family="Courier New" font-size="14.00">ConvexEthMetaStrategy &lt;&lt;Contract&gt;&gt;</text>
<polyline fill="none" stroke="black" points="0,-595.7 888.14,-595.7 "/>
<text text-anchor="middle" x="50.01" y="-579.1" font-family="Courier New" font-size="14.00">slot</text>
<polyline fill="none" stroke="black" points="0,-570.9 100.01,-570.9 "/>
<text text-anchor="middle" x="50.01" y="-554.3" font-family="Courier New" font-size="14.00">0</text>
<polyline fill="none" stroke="black" points="0,-546.1 100.01,-546.1 "/>
<text text-anchor="middle" x="50.01" y="-529.5" font-family="Courier New" font-size="14.00">1&#45;50</text>
<polyline fill="none" stroke="black" points="0,-521.3 100.01,-521.3 "/>
<text text-anchor="middle" x="50.01" y="-504.7" font-family="Courier New" font-size="14.00">51</text>
<polyline fill="none" stroke="black" points="0,-496.5 100.01,-496.5 "/>
<text text-anchor="middle" x="50.01" y="-479.9" font-family="Courier New" font-size="14.00">52</text>
<polyline fill="none" stroke="black" points="0,-471.7 100.01,-471.7 "/>
<text text-anchor="middle" x="50.01" y="-455.1" font-family="Courier New" font-size="14.00">53</text>
<polyline fill="none" stroke="black" points="0,-446.9 100.01,-446.9 "/>
<text text-anchor="middle" x="50.01" y="-430.3" font-family="Courier New" font-size="14.00">54</text>
<polyline fill="none" stroke="black" points="0,-422.1 100.01,-422.1 "/>
<text text-anchor="middle" x="50.01" y="-405.5" font-family="Courier New" font-size="14.00">55</text>
<polyline fill="none" stroke="black" points="0,-397.3 100.01,-397.3 "/>
<text text-anchor="middle" x="50.01" y="-380.7" font-family="Courier New" font-size="14.00">56</text>
<polyline fill="none" stroke="black" points="0,-372.5 100.01,-372.5 "/>
<text text-anchor="middle" x="50.01" y="-355.9" font-family="Courier New" font-size="14.00">57</text>
<polyline fill="none" stroke="black" points="0,-347.7 100.01,-347.7 "/>
<text text-anchor="middle" x="50.01" y="-331.1" font-family="Courier New" font-size="14.00">58</text>
<polyline fill="none" stroke="black" points="0,-322.9 100.01,-322.9 "/>
<text text-anchor="middle" x="50.01" y="-306.3" font-family="Courier New" font-size="14.00">59&#45;156</text>
<polyline fill="none" stroke="black" points="0,-298.1 100.01,-298.1 "/>
<text text-anchor="middle" x="50.01" y="-281.5" font-family="Courier New" font-size="14.00">157</text>
<polyline fill="none" stroke="black" points="0,-273.3 100.01,-273.3 "/>
<text text-anchor="middle" x="50.01" y="-256.7" font-family="Courier New" font-size="14.00">158</text>
<polyline fill="none" stroke="black" points="0,-248.5 100.01,-248.5 "/>
<text text-anchor="middle" x="50.01" y="-231.9" font-family="Courier New" font-size="14.00">159</text>
<polyline fill="none" stroke="black" points="0,-223.7 100.01,-223.7 "/>
<text text-anchor="middle" x="50.01" y="-207.1" font-family="Courier New" font-size="14.00">160</text>
<polyline fill="none" stroke="black" points="0,-198.9 100.01,-198.9 "/>
<text text-anchor="middle" x="50.01" y="-182.3" font-family="Courier New" font-size="14.00">161</text>
<polyline fill="none" stroke="black" points="0,-174.1 100.01,-174.1 "/>
<text text-anchor="middle" x="50.01" y="-157.5" font-family="Courier New" font-size="14.00">162</text>
<polyline fill="none" stroke="black" points="0,-149.3 100.01,-149.3 "/>
<text text-anchor="middle" x="50.01" y="-132.7" font-family="Courier New" font-size="14.00">163</text>
<polyline fill="none" stroke="black" points="0,-124.5 100.01,-124.5 "/>
<text text-anchor="middle" x="50.01" y="-107.9" font-family="Courier New" font-size="14.00">164</text>
<polyline fill="none" stroke="black" points="0,-99.7 100.01,-99.7 "/>
<text text-anchor="middle" x="50.01" y="-83.1" font-family="Courier New" font-size="14.00">0x360..bbc</text>
<polyline fill="none" stroke="black" points="0,-74.9 100.01,-74.9 "/>
<text text-anchor="middle" x="50.01" y="-58.3" font-family="Courier New" font-size="14.00">0x44c..1db</text>
<polyline fill="none" stroke="black" points="0,-50.1 100.01,-50.1 "/>
<text text-anchor="middle" x="50.01" y="-33.5" font-family="Courier New" font-size="14.00">0x53b..535</text>
<polyline fill="none" stroke="black" points="0,-25.3 100.01,-25.3 "/>
<text text-anchor="middle" x="50.01" y="-8.7" font-family="Courier New" font-size="14.00">0x7be..a4a</text>
<polyline fill="none" stroke="black" points="100.01,-0.5 100.01,-595.7 "/>
<text text-anchor="middle" x="494.08" y="-579.1" font-family="Courier New" font-size="14.00">type: &lt;inherited contract&gt;.variable (bytes)</text>
<polyline fill="none" stroke="black" points="100.01,-570.9 888.14,-570.9 "/>
<text text-anchor="middle" x="176.72" y="-554.3" font-family="Courier New" font-size="14.00">unallocated (30)</text>
<polyline fill="none" stroke="black" points="253.44,-546.1 253.44,-570.9 "/>
<text text-anchor="middle" x="414.16" y="-554.3" font-family="Courier New" font-size="14.00">bool: Initializable.initializing (1)</text>
<polyline fill="none" stroke="black" points="574.88,-546.1 574.88,-570.9 "/>
<text text-anchor="middle" x="731.41" y="-554.3" font-family="Courier New" font-size="14.00">bool: Initializable.initialized (1)</text>
<polyline fill="none" stroke="black" points="100.01,-546.1 888.14,-546.1 "/>
<text text-anchor="middle" x="493.64" y="-529.5" font-family="Courier New" font-size="14.00">uint256[50]: Initializable.______gap (1600)</text>
<polyline fill="none" stroke="black" points="100.01,-521.3 888.14,-521.3 "/>
<text text-anchor="middle" x="181.22" y="-504.7" font-family="Courier New" font-size="14.00">unallocated (12)</text>
<polyline fill="none" stroke="black" points="262.44,-496.5 262.44,-521.3 "/>
<text text-anchor="middle" x="575.18" y="-504.7" font-family="Courier New" font-size="14.00">address: InitializableAbstractStrategy._deprecated_platformAddress (20)</text>
<polyline fill="none" stroke="black" points="100.01,-496.5 888.14,-496.5 "/>
<text text-anchor="middle" x="187.72" y="-479.9" font-family="Courier New" font-size="14.00">unallocated (12)</text>
<polyline fill="none" stroke="black" points="275.44,-471.7 275.44,-496.5 "/>
<text text-anchor="middle" x="581.58" y="-479.9" font-family="Courier New" font-size="14.00">address: InitializableAbstractStrategy._deprecated_vaultAddress (20)</text>
<polyline fill="none" stroke="black" points="100.01,-471.7 888.14,-471.7 "/>
<text text-anchor="middle" x="494.06" y="-455.1" font-family="Courier New" font-size="14.00">mapping(address=&gt;address): InitializableAbstractStrategy.assetToPToken (32)</text>
<polyline fill="none" stroke="black" points="100.01,-446.9 888.14,-446.9 "/>
<text text-anchor="middle" x="493.65" y="-430.3" font-family="Courier New" font-size="14.00">address[]: InitializableAbstractStrategy.assetsMapped (32)</text>
<polyline fill="none" stroke="black" points="100.01,-422.1 888.14,-422.1 "/>
<text text-anchor="middle" x="175.22" y="-405.5" font-family="Courier New" font-size="14.00">unallocated (12)</text>
<polyline fill="none" stroke="black" points="250.44,-397.3 250.44,-422.1 "/>
<text text-anchor="middle" x="569.29" y="-405.5" font-family="Courier New" font-size="14.00">address: InitializableAbstractStrategy._deprecated_rewardTokenAddress (20)</text>
<polyline fill="none" stroke="black" points="100.01,-397.3 888.14,-397.3 "/>
<text text-anchor="middle" x="493.97" y="-380.7" font-family="Courier New" font-size="14.00">uint256: InitializableAbstractStrategy._deprecated_rewardLiquidationThreshold (32)</text>
<polyline fill="none" stroke="black" points="100.01,-372.5 888.14,-372.5 "/>
<text text-anchor="middle" x="204.22" y="-355.9" font-family="Courier New" font-size="14.00">unallocated (12)</text>
<polyline fill="none" stroke="black" points="308.44,-347.7 308.44,-372.5 "/>
<text text-anchor="middle" x="597.98" y="-355.9" font-family="Courier New" font-size="14.00">address: InitializableAbstractStrategy.harvesterAddress (20)</text>
<polyline fill="none" stroke="black" points="100.01,-347.7 888.14,-347.7 "/>
<text text-anchor="middle" x="493.76" y="-331.1" font-family="Courier New" font-size="14.00">address[]: InitializableAbstractStrategy.rewardTokenAddresses (32)</text>
<polyline fill="none" stroke="black" points="100.01,-322.9 888.14,-322.9 "/>
<text text-anchor="middle" x="493.65" y="-306.3" font-family="Courier New" font-size="14.00">int256[98]: InitializableAbstractStrategy._reserved (3136)</text>
<polyline fill="none" stroke="black" points="100.01,-298.1 888.14,-298.1 "/>
<text text-anchor="middle" x="235.72" y="-281.5" font-family="Courier New" font-size="14.00">unallocated (12)</text>
<polyline fill="none" stroke="black" points="371.44,-273.3 371.44,-298.1 "/>
<text text-anchor="middle" x="629.47" y="-281.5" font-family="Courier New" font-size="14.00">address: _deprecated_cvxDepositorAddress (20)</text>
<polyline fill="none" stroke="black" points="100.01,-273.3 888.14,-273.3 "/>
<text text-anchor="middle" x="244.22" y="-256.7" font-family="Courier New" font-size="14.00">unallocated (12)</text>
<polyline fill="none" stroke="black" points="388.44,-248.5 388.44,-273.3 "/>
<text text-anchor="middle" x="638.16" y="-256.7" font-family="Courier New" font-size="14.00">address: _deprecated_cvxRewardStaker (20)</text>
<polyline fill="none" stroke="black" points="100.01,-248.5 888.14,-248.5 "/>
<text text-anchor="middle" x="493.75" y="-231.9" font-family="Courier New" font-size="14.00">uint256: _deprecated_cvxDepositorPTokenId (32)</text>
<polyline fill="none" stroke="black" points="100.01,-223.7 888.14,-223.7 "/>
<text text-anchor="middle" x="256.72" y="-207.1" font-family="Courier New" font-size="14.00">unallocated (12)</text>
<polyline fill="none" stroke="black" points="413.44,-198.9 413.44,-223.7 "/>
<text text-anchor="middle" x="650.46" y="-207.1" font-family="Courier New" font-size="14.00">address: _deprecated_curvePool (20)</text>
<polyline fill="none" stroke="black" points="100.01,-198.9 888.14,-198.9 "/>
<text text-anchor="middle" x="261.22" y="-182.3" font-family="Courier New" font-size="14.00">unallocated (12)</text>
<polyline fill="none" stroke="black" points="422.44,-174.1 422.44,-198.9 "/>
<text text-anchor="middle" x="655.06" y="-182.3" font-family="Courier New" font-size="14.00">address: _deprecated_lpToken (20)</text>
<polyline fill="none" stroke="black" points="100.01,-174.1 888.14,-174.1 "/>
<text text-anchor="middle" x="267.22" y="-157.5" font-family="Courier New" font-size="14.00">unallocated (12)</text>
<polyline fill="none" stroke="black" points="434.44,-149.3 434.44,-174.1 "/>
<text text-anchor="middle" x="660.96" y="-157.5" font-family="Courier New" font-size="14.00">address: _deprecated_oeth (20)</text>
<polyline fill="none" stroke="black" points="100.01,-149.3 888.14,-149.3 "/>
<text text-anchor="middle" x="267.22" y="-132.7" font-family="Courier New" font-size="14.00">unallocated (12)</text>
<polyline fill="none" stroke="black" points="434.44,-124.5 434.44,-149.3 "/>
<text text-anchor="middle" x="660.96" y="-132.7" font-family="Courier New" font-size="14.00">address: _deprecated_weth (20)</text>
<polyline fill="none" stroke="black" points="100.01,-124.5 888.14,-124.5 "/>
<text text-anchor="middle" x="294.64" y="-107.9" font-family="Courier New" font-size="14.00">uint128: _deprecated_ethCoinIndex (16)</text>
<polyline fill="none" stroke="black" points="489.27,-99.7 489.27,-124.5 "/>
<text text-anchor="middle" x="688.59" y="-107.9" font-family="Courier New" font-size="14.00">uint128: _deprecated_oethCoinIndex (16)</text>
<polyline fill="none" stroke="black" points="100.01,-99.7 888.14,-99.7 "/>
<text text-anchor="middle" x="305.22" y="-83.1" font-family="Courier New" font-size="14.00">unallocated (12)</text>
<polyline fill="none" stroke="black" points="510.44,-74.9 510.44,-99.7 "/>
<text text-anchor="middle" x="698.84" y="-83.1" font-family="Courier New" font-size="14.00">address (20)</text>
<polyline fill="none" stroke="black" points="100.01,-74.9 888.14,-74.9 "/>
<text text-anchor="middle" x="256.72" y="-58.3" font-family="Courier New" font-size="14.00">unallocated (12)</text>
<polyline fill="none" stroke="black" points="413.44,-50.1 413.44,-74.9 "/>
<text text-anchor="middle" x="650.46" y="-58.3" font-family="Courier New" font-size="14.00">address: OUSD.pending.governor (20)</text>
<polyline fill="none" stroke="black" points="100.01,-50.1 888.14,-50.1 "/>
<text text-anchor="middle" x="269.72" y="-33.5" font-family="Courier New" font-size="14.00">unallocated (31)</text>
<polyline fill="none" stroke="black" points="439.44,-25.3 439.44,-50.1 "/>
<text text-anchor="middle" x="663.76" y="-33.5" font-family="Courier New" font-size="14.00">bool: OUSD.reentry.status (1)</text>
<polyline fill="none" stroke="black" points="100.01,-25.3 888.14,-25.3 "/>
<text text-anchor="middle" x="273.72" y="-8.7" font-family="Courier New" font-size="14.00">unallocated (12)</text>
<polyline fill="none" stroke="black" points="447.44,-0.5 447.44,-25.3 "/>
<text text-anchor="middle" x="667.35" y="-8.7" font-family="Courier New" font-size="14.00">address: OUSD.governor (20)</text>
</g>
<!-- 1 -->
<g id="node2" class="node">
<title>1</title>
<polygon fill="#f2f2f2" stroke="black" points="924.14,-393.9 924.14,-485.1 1494.63,-485.1 1494.63,-393.9 924.14,-393.9"/>
<text text-anchor="middle" x="1209.38" y="-468.5" font-family="Courier New" font-size="14.00">address[]: assetsMapped &lt;&lt;Array&gt;&gt;</text>
<text text-anchor="middle" x="1209.38" y="-451.7" font-family="Courier New" font-size="14.00">0x4a11f94e20a93c79f6ec743a1954ec4fc2c08429ae2122118bf234b2185c81b8</text>
<polyline fill="none" stroke="black" points="924.14,-443.5 1494.63,-443.5 "/>
<text text-anchor="middle" x="1016.34" y="-426.9" font-family="Courier New" font-size="14.00">offset</text>
<polyline fill="none" stroke="black" points="924.14,-418.7 1108.54,-418.7 "/>
<text text-anchor="middle" x="1016.34" y="-402.1" font-family="Courier New" font-size="14.00">0</text>
<polyline fill="none" stroke="black" points="1108.54,-393.9 1108.54,-443.5 "/>
<text text-anchor="middle" x="1301.16" y="-426.9" font-family="Courier New" font-size="14.00">type: variable (bytes)</text>
<polyline fill="none" stroke="black" points="1108.54,-418.7 1493.78,-418.7 "/>
<text text-anchor="middle" x="1213.26" y="-402.1" font-family="Courier New" font-size="14.00">unallocated (12)</text>
<polyline fill="none" stroke="black" points="1317.97,-393.9 1317.97,-418.7 "/>
<text text-anchor="middle" x="1405.88" y="-402.1" font-family="Courier New" font-size="14.00">address (20)</text>
</g>
<!-- 3&#45;&gt;1 -->
<g id="edge1" class="edge">
<title>3:8&#45;&gt;1</title>
<path fill="none" stroke="black" d="M888.07,-434.5C896.46,-434.5 904.98,-434.52 913.58,-434.55"/>
<polygon fill="black" stroke="black" points="913.69,-438.05 923.71,-434.6 913.72,-431.05 913.69,-438.05"/>
</g>
<!-- 2 -->
<g id="node3" class="node">
<title>2</title>
<polygon fill="#f2f2f2" stroke="black" points="924.14,-283.9 924.14,-375.1 1494.63,-375.1 1494.63,-283.9 924.14,-283.9"/>
<text text-anchor="middle" x="1209.38" y="-358.5" font-family="Courier New" font-size="14.00">address[]: rewardTokenAddresses &lt;&lt;Array&gt;&gt;</text>
<text text-anchor="middle" x="1209.38" y="-341.7" font-family="Courier New" font-size="14.00">0xa2999d817b6757290b50e8ecf3fa939673403dd35c97de392fdb343b4015ce9e</text>
<polyline fill="none" stroke="black" points="924.14,-333.5 1494.63,-333.5 "/>
<text text-anchor="middle" x="1016.34" y="-316.9" font-family="Courier New" font-size="14.00">offset</text>
<polyline fill="none" stroke="black" points="924.14,-308.7 1108.54,-308.7 "/>
<text text-anchor="middle" x="1016.34" y="-292.1" font-family="Courier New" font-size="14.00">0</text>
<polyline fill="none" stroke="black" points="1108.54,-283.9 1108.54,-333.5 "/>
<text text-anchor="middle" x="1301.16" y="-316.9" font-family="Courier New" font-size="14.00">type: variable (bytes)</text>
<polyline fill="none" stroke="black" points="1108.54,-308.7 1493.78,-308.7 "/>
<text text-anchor="middle" x="1213.26" y="-292.1" font-family="Courier New" font-size="14.00">unallocated (12)</text>
<polyline fill="none" stroke="black" points="1317.97,-283.9 1317.97,-308.7 "/>
<text text-anchor="middle" x="1405.88" y="-292.1" font-family="Courier New" font-size="14.00">address (20)</text>
</g>
<!-- 3&#45;&gt;2 -->
<g id="edge2" class="edge">
<title>3:13&#45;&gt;2</title>
<path fill="none" stroke="black" d="M888.07,-335.5C896.46,-335.5 904.98,-335.48 913.58,-335.44"/>
<polygon fill="black" stroke="black" points="913.73,-338.94 923.71,-335.39 913.69,-331.94 913.73,-338.94"/>
</g>
</g>
</svg>
