<?xml version="1.0" encoding="UTF-8" standalone="no"?>
<!DOCTYPE svg PUBLIC "-//W3C//DTD SVG 1.1//EN"
 "http://www.w3.org/Graphics/SVG/1.1/DTD/svg11.dtd">
<!-- Generated by graphviz version 5.0.0 (20220707.1540)
 -->
<!-- Title: UmlClassDiagram Pages: 1 -->
<svg width="1286pt" height="685pt"
 viewBox="0.00 0.00 1285.87 684.80" xmlns="http://www.w3.org/2000/svg" xmlns:xlink="http://www.w3.org/1999/xlink">
<g id="graph0" class="graph" transform="scale(1 1) rotate(0) translate(4 680.8)">
<title>UmlClassDiagram</title>
<polygon fill="white" stroke="transparent" points="-4,4 -4,-680.8 1281.87,-680.8 1281.87,4 -4,4"/>
<!-- 7 -->
<g id="node1" class="node">
<title>7</title>
<polygon fill="#f2f2f2" stroke="black" points="0,-530.9 0,-572.5 234.86,-572.5 234.86,-530.9 0,-530.9"/>
<text text-anchor="middle" x="117.43" y="-555.9" font-family="Times,serif" font-size="14.00">Governable</text>
<text text-anchor="middle" x="117.43" y="-539.1" font-family="Times,serif" font-size="14.00">../contracts/governance/Governable.sol</text>
</g>
<!-- 40 -->
<g id="node2" class="node">
<title>40</title>
<polygon fill="#f2f2f2" stroke="black" points="18.82,-269.9 18.82,-328.3 214.04,-328.3 214.04,-269.9 18.82,-269.9"/>
<text text-anchor="middle" x="116.43" y="-311.7" font-family="Times,serif" font-size="14.00">&lt;&lt;Interface&gt;&gt;</text>
<text text-anchor="middle" x="116.43" y="-294.9" font-family="Times,serif" font-size="14.00">IVault</text>
<text text-anchor="middle" x="116.43" y="-278.1" font-family="Times,serif" font-size="14.00">../contracts/interfaces/IVault.sol</text>
</g>
<!-- 177 -->
<g id="node13" class="node">
<title>177</title>
<polygon fill="#f2f2f2" stroke="black" points="280.98,-365.3 280.98,-406.9 487.88,-406.9 487.88,-365.3 280.98,-365.3"/>
<text text-anchor="middle" x="384.43" y="-390.3" font-family="Times,serif" font-size="14.00">VaultStorage</text>
<text text-anchor="middle" x="384.43" y="-373.5" font-family="Times,serif" font-size="14.00">../contracts/vault/VaultStorage.sol</text>
</g>
<!-- 40&#45;&gt;177 -->
<g id="edge1" class="edge">
<title>40&#45;&gt;177</title>
<path fill="none" stroke="black" stroke-dasharray="5,2" d="M205.67,-328.4C240.17,-339.35 279.14,-351.71 311.87,-362.09"/>
<polygon fill="black" stroke="black" points="311.22,-365.55 321.81,-365.24 313.34,-358.88 311.22,-365.55"/>
</g>
<!-- 41 -->
<g id="node3" class="node">
<title>41</title>
<polygon fill="#f2f2f2" stroke="black" points="475.66,-79.1 475.66,-137.5 687.2,-137.5 687.2,-79.1 475.66,-79.1"/>
<text text-anchor="middle" x="581.43" y="-120.9" font-family="Times,serif" font-size="14.00">&lt;&lt;Interface&gt;&gt;</text>
<text text-anchor="middle" x="581.43" y="-104.1" font-family="Times,serif" font-size="14.00">IWETH9</text>
<text text-anchor="middle" x="581.43" y="-87.3" font-family="Times,serif" font-size="14.00">../contracts/interfaces/IWETH9.sol</text>
</g>
<!-- 141 -->
<g id="node4" class="node">
<title>141</title>
<polygon fill="#f2f2f2" stroke="black" points="470.87,-174.5 470.87,-232.9 725.99,-232.9 725.99,-174.5 470.87,-174.5"/>
<text text-anchor="middle" x="598.43" y="-216.3" font-family="Times,serif" font-size="14.00">&lt;&lt;Interface&gt;&gt;</text>
<text text-anchor="middle" x="598.43" y="-199.5" font-family="Times,serif" font-size="14.00">IConvexDeposits</text>
<text text-anchor="middle" x="598.43" y="-182.7" font-family="Times,serif" font-size="14.00">../contracts/strategies/IConvexDeposits.sol</text>
</g>
<!-- 142 -->
<g id="node5" class="node">
<title>142</title>
<polygon fill="#f2f2f2" stroke="black" points="744.04,-174.5 744.04,-232.9 1010.82,-232.9 1010.82,-174.5 744.04,-174.5"/>
<text text-anchor="middle" x="877.43" y="-216.3" font-family="Times,serif" font-size="14.00">&lt;&lt;Interface&gt;&gt;</text>
<text text-anchor="middle" x="877.43" y="-199.5" font-family="Times,serif" font-size="14.00">ICurveETHPoolV1</text>
<text text-anchor="middle" x="877.43" y="-182.7" font-family="Times,serif" font-size="14.00">../contracts/strategies/ICurveETHPoolV1.sol</text>
</g>
<!-- 146 -->
<g id="node6" class="node">
<title>146</title>
<polygon fill="#f2f2f2" stroke="black" points="1028.99,-174.5 1028.99,-232.9 1277.87,-232.9 1277.87,-174.5 1028.99,-174.5"/>
<text text-anchor="middle" x="1153.43" y="-216.3" font-family="Times,serif" font-size="14.00">&lt;&lt;Interface&gt;&gt;</text>
<text text-anchor="middle" x="1153.43" y="-199.5" font-family="Times,serif" font-size="14.00">IRewardStaking</text>
<text text-anchor="middle" x="1153.43" y="-182.7" font-family="Times,serif" font-size="14.00">../contracts/strategies/IRewardStaking.sol</text>
</g>
<!-- 215 -->
<g id="node7" class="node">
<title>215</title>
<polygon fill="#f2f2f2" stroke="black" points="121.43,-79.1 121.43,-137.5 457.42,-137.5 457.42,-79.1 121.43,-79.1"/>
<text text-anchor="middle" x="289.43" y="-120.9" font-family="Times,serif" font-size="14.00">&lt;&lt;Abstract&gt;&gt;</text>
<text text-anchor="middle" x="289.43" y="-104.1" font-family="Times,serif" font-size="14.00">BaseConvexAMOStrategy</text>
<text text-anchor="middle" x="289.43" y="-87.3" font-family="Times,serif" font-size="14.00">../contracts/strategies/amo/BaseConvexAMOStrategy.sol</text>
</g>
<!-- 215&#45;&gt;40 -->
<g id="edge5" class="edge">
<title>215&#45;&gt;40</title>
<path fill="none" stroke="black" stroke-dasharray="5,2" d="M181.88,-137.57C164.11,-146.6 147.56,-158.45 135.43,-174 116.67,-198.05 112.74,-232.88 113.04,-259.53"/>
<polygon fill="black" stroke="black" points="109.54,-259.78 113.35,-269.66 116.54,-259.56 109.54,-259.78"/>
</g>
<!-- 215&#45;&gt;141 -->
<g id="edge6" class="edge">
<title>215&#45;&gt;141</title>
<path fill="none" stroke="black" stroke-dasharray="5,2" d="M382.98,-137.58C418.44,-148.3 459.01,-160.56 495.31,-171.53"/>
<polygon fill="black" stroke="black" points="494.35,-174.9 504.93,-174.44 496.37,-168.2 494.35,-174.9"/>
</g>
<!-- 215&#45;&gt;142 -->
<g id="edge4" class="edge">
<title>215&#45;&gt;142</title>
<path fill="none" stroke="black" d="M457.58,-136.68C460.55,-137.13 463.5,-137.57 466.43,-138 582.61,-155.19 614.79,-154.11 733.83,-173.77"/>
<polygon fill="black" stroke="black" points="733.25,-177.22 743.69,-175.41 734.4,-170.32 733.25,-177.22"/>
</g>
<!-- 215&#45;&gt;146 -->
<g id="edge3" class="edge">
<title>215&#45;&gt;146</title>
<path fill="none" stroke="black" d="M457.54,-136.96C460.53,-137.32 463.49,-137.67 466.43,-138 707.93,-165.38 773.75,-140.79 1018.79,-174"/>
<polygon fill="black" stroke="black" points="1018.33,-177.47 1028.71,-175.36 1019.28,-170.54 1018.33,-177.47"/>
</g>
<!-- 165 -->
<g id="node11" class="node">
<title>165</title>
<polygon fill="#f2f2f2" stroke="black" points="144.38,-174.5 144.38,-232.9 434.48,-232.9 434.48,-174.5 144.38,-174.5"/>
<text text-anchor="middle" x="289.43" y="-216.3" font-family="Times,serif" font-size="14.00">&lt;&lt;Abstract&gt;&gt;</text>
<text text-anchor="middle" x="289.43" y="-199.5" font-family="Times,serif" font-size="14.00">InitializableAbstractStrategy</text>
<text text-anchor="middle" x="289.43" y="-182.7" font-family="Times,serif" font-size="14.00">../contracts/utils/InitializableAbstractStrategy.sol</text>
</g>
<!-- 215&#45;&gt;165 -->
<g id="edge2" class="edge">
<title>215&#45;&gt;165</title>
<path fill="none" stroke="black" d="M289.43,-137.58C289.43,-139.66 289.43,-141.8 289.43,-143.98"/>
<polygon fill="none" stroke="black" points="278.93,-144.2 289.43,-174.2 299.93,-144.2 278.93,-144.2"/>
</g>
<!-- 217 -->
<g id="node8" class="node">
<title>217</title>
<polygon fill="#f2f2f2" stroke="black" points="127.27,-0.5 127.27,-42.1 451.59,-42.1 451.59,-0.5 127.27,-0.5"/>
<text text-anchor="middle" x="289.43" y="-25.5" font-family="Times,serif" font-size="14.00">ConvexEthMetaStrategy</text>
<text text-anchor="middle" x="289.43" y="-8.7" font-family="Times,serif" font-size="14.00">../contracts/strategies/amo/ConvexEthMetaStrategy.sol</text>
</g>
<!-- 217&#45;&gt;41 -->
<g id="edge8" class="edge">
<title>217&#45;&gt;41</title>
<path fill="none" stroke="black" stroke-dasharray="5,2" d="M357.52,-42.12C392.32,-52.25 435.47,-64.81 474.58,-76.2"/>
<polygon fill="black" stroke="black" points="473.85,-79.63 484.43,-79.06 475.8,-72.91 473.85,-79.63"/>
</g>
<!-- 217&#45;&gt;215 -->
<g id="edge7" class="edge">
<title>217&#45;&gt;215</title>
<path fill="none" stroke="black" d="M289.43,-42.44C289.43,-44.49 289.43,-46.63 289.43,-48.83"/>
<polygon fill="none" stroke="black" points="278.93,-48.94 289.43,-78.94 299.93,-48.94 278.93,-48.94"/>
</g>
<!-- 157 -->
<g id="node9" class="node">
<title>157</title>
<polygon fill="#f2f2f2" stroke="black" points="308.3,-443.9 308.3,-485.5 482.56,-485.5 482.56,-443.9 308.3,-443.9"/>
<text text-anchor="middle" x="395.43" y="-468.9" font-family="Times,serif" font-size="14.00">OUSD</text>
<text text-anchor="middle" x="395.43" y="-452.1" font-family="Times,serif" font-size="14.00">../contracts/token/OUSD.sol</text>
</g>
<!-- 157&#45;&gt;7 -->
<g id="edge11" class="edge">
<title>157&#45;&gt;7</title>
<path fill="none" stroke="black" d="M330.6,-485.52C295.06,-496.39 250.37,-510.05 211.09,-522.06"/>
<polygon fill="none" stroke="black" points="207.98,-512.03 182.36,-530.85 214.12,-532.12 207.98,-512.03"/>
</g>
<!-- 164 -->
<g id="node10" class="node">
<title>164</title>
<polygon fill="#f2f2f2" stroke="black" points="555.42,-522.5 555.42,-580.9 751.44,-580.9 751.44,-522.5 555.42,-522.5"/>
<text text-anchor="middle" x="653.43" y="-564.3" font-family="Times,serif" font-size="14.00">&lt;&lt;Abstract&gt;&gt;</text>
<text text-anchor="middle" x="653.43" y="-547.5" font-family="Times,serif" font-size="14.00">Initializable</text>
<text text-anchor="middle" x="653.43" y="-530.7" font-family="Times,serif" font-size="14.00">../contracts/utils/Initializable.sol</text>
</g>
<!-- 157&#45;&gt;164 -->
<g id="edge9" class="edge">
<title>157&#45;&gt;164</title>
<path fill="none" stroke="black" d="M455.59,-485.52C480.48,-493.72 510.2,-503.51 538.94,-512.98"/>
<polygon fill="none" stroke="black" points="535.94,-523.05 567.72,-522.46 542.51,-503.1 535.94,-523.05"/>
</g>
<!-- 167 -->
<g id="node12" class="node">
<title>167</title>
<polygon fill="#f2f2f2" stroke="black" points="253.1,-522.5 253.1,-580.9 537.76,-580.9 537.76,-522.5 253.1,-522.5"/>
<text text-anchor="middle" x="395.43" y="-564.3" font-family="Times,serif" font-size="14.00">&lt;&lt;Abstract&gt;&gt;</text>
<text text-anchor="middle" x="395.43" y="-547.5" font-family="Times,serif" font-size="14.00">InitializableERC20Detailed</text>
<text text-anchor="middle" x="395.43" y="-530.7" font-family="Times,serif" font-size="14.00">../contracts/utils/InitializableERC20Detailed.sol</text>
</g>
<!-- 157&#45;&gt;167 -->
<g id="edge10" class="edge">
<title>157&#45;&gt;167</title>
<path fill="none" stroke="black" d="M395.43,-485.84C395.43,-487.89 395.43,-490.03 395.43,-492.23"/>
<polygon fill="none" stroke="black" points="384.93,-492.34 395.43,-522.34 405.93,-492.34 384.93,-492.34"/>
</g>
<!-- 165&#45;&gt;7 -->
<g id="edge13" class="edge">
<title>165&#45;&gt;7</title>
<path fill="none" stroke="black" d="M275.35,-233.01C245.86,-292.34 177.33,-430.2 141.01,-503.28"/>
<polygon fill="none" stroke="black" points="131.37,-499.06 127.42,-530.6 150.18,-508.41 131.37,-499.06"/>
</g>
<!-- 165&#45;&gt;40 -->
<g id="edge16" class="edge">
<title>165&#45;&gt;40</title>
<path fill="none" stroke="black" stroke-dasharray="5,2" d="M237.05,-232.98C218.42,-243.03 197.28,-254.45 177.95,-264.88"/>
<polygon fill="black" stroke="black" points="176.06,-261.93 168.93,-269.76 179.39,-268.09 176.06,-261.93"/>
</g>
<!-- 165&#45;&gt;164 -->
<g id="edge12" class="edge">
<title>165&#45;&gt;164</title>
<path fill="none" stroke="black" d="M331.16,-233.01C374.5,-263.3 443.28,-313.89 496.43,-364.8 540.03,-406.57 583.89,-459.65 614.12,-498.39"/>
<polygon fill="none" stroke="black" points="605.91,-504.93 632.5,-522.33 622.56,-492.14 605.91,-504.93"/>
</g>
<!-- 165&#45;&gt;165 -->
<g id="edge14" class="edge">
<title>165&#45;&gt;165</title>
<path fill="none" stroke="black" stroke-dasharray="5,2" d="M434.64,-190.48C445.68,-193.42 452.48,-197.82 452.48,-203.7 452.48,-207.56 449.55,-210.78 444.42,-213.37"/>
<polygon fill="black" stroke="black" points="442.85,-210.22 434.64,-216.92 445.24,-216.8 442.85,-210.22"/>
</g>
<!-- 344 -->
<g id="node14" class="node">
<title>344</title>
<polygon fill="#f2f2f2" stroke="black" points="193.37,-617.9 193.37,-676.3 597.48,-676.3 597.48,-617.9 193.37,-617.9"/>
<text text-anchor="middle" x="395.43" y="-659.7" font-family="Times,serif" font-size="14.00">&lt;&lt;Interface&gt;&gt;</text>
<text text-anchor="middle" x="395.43" y="-642.9" font-family="Times,serif" font-size="14.00">IERC20</text>
<text text-anchor="middle" x="395.43" y="-626.1" font-family="Times,serif" font-size="14.00">../node_modules/@openzeppelin/contracts/token/ERC20/IERC20.sol</text>
</g>
<!-- 165&#45;&gt;344 -->
<g id="edge15" class="edge">
<title>165&#45;&gt;344</title>
<path fill="none" stroke="black" stroke-dasharray="5,2" d="M434.79,-229.25C579.25,-257.88 779.43,-310.94 779.43,-385.1 779.43,-385.1 779.43,-385.1 779.43,-465.7 779.43,-517.81 797.04,-544.32 760.43,-581.4 737.37,-604.75 674.76,-619.77 607.77,-629.38"/>
<polygon fill="black" stroke="black" points="607.28,-625.91 597.85,-630.76 608.24,-632.85 607.28,-625.91"/>
</g>
<!-- 167&#45;&gt;344 -->
<g id="edge17" class="edge">
<title>167&#45;&gt;344</title>
<path fill="none" stroke="black" stroke-dasharray="5,2" d="M395.43,-580.98C395.43,-583.06 395.43,-585.2 395.43,-587.38"/>
<polygon fill="none" stroke="black" points="384.93,-587.6 395.43,-617.6 405.93,-587.6 384.93,-587.6"/>
</g>
<!-- 177&#45;&gt;7 -->
<g id="edge19" class="edge">
<title>177&#45;&gt;7</title>
<path fill="none" stroke="black" d="M351.08,-407.05C334.96,-417.23 315.63,-430.22 299.43,-443.4 278.56,-460.38 278.51,-470.63 256.43,-486 238.82,-498.26 218.51,-509.22 198.96,-518.47"/>
<polygon fill="none" stroke="black" points="194.4,-509.01 171.24,-530.77 202.92,-528.2 194.4,-509.01"/>
</g>
<!-- 177&#45;&gt;157 -->
<g id="edge20" class="edge">
<title>177&#45;&gt;157</title>
<path fill="none" stroke="black" d="M387.32,-407.23C388.48,-415.32 389.85,-424.82 391.12,-433.7"/>
<polygon fill="black" stroke="black" points="387.67,-434.31 392.56,-443.71 394.6,-433.31 387.67,-434.31"/>
</g>
<!-- 177&#45;&gt;164 -->
<g id="edge18" class="edge">
<title>177&#45;&gt;164</title>
<path fill="none" stroke="black" d="M424.59,-407.02C444.89,-417.39 469.76,-430.56 491.43,-443.4 523.99,-462.68 559.11,-485.66 588.31,-505.4"/>
<polygon fill="none" stroke="black" points="582.52,-514.16 613.21,-522.42 594.36,-496.83 582.52,-514.16"/>
</g>
</g>
</svg>
