<?xml version="1.0" encoding="UTF-8" standalone="no"?>
<!DOCTYPE svg PUBLIC "-//W3C//DTD SVG 1.1//EN"
 "http://www.w3.org/Graphics/SVG/1.1/DTD/svg11.dtd">
<!-- Generated by graphviz version 5.0.0 (20220707.1540)
 -->
<!-- Title: UmlClassDiagram Pages: 1 -->
<svg width="1473pt" height="589pt"
 viewBox="0.00 0.00 1473.05 589.40" xmlns="http://www.w3.org/2000/svg" xmlns:xlink="http://www.w3.org/1999/xlink">
<g id="graph0" class="graph" transform="scale(1 1) rotate(0) translate(4 585.4)">
<title>UmlClassDiagram</title>
<polygon fill="white" stroke="transparent" points="-4,4 -4,-585.4 1469.05,-585.4 1469.05,4 -4,4"/>
<!-- 7 -->
<g id="node1" class="node">
<title>7</title>
<polygon fill="#f2f2f2" stroke="black" points="66.18,-435.5 66.18,-477.1 301.04,-477.1 301.04,-435.5 66.18,-435.5"/>
<text text-anchor="middle" x="183.61" y="-460.5" font-family="Times,serif" font-size="14.00">Governable</text>
<text text-anchor="middle" x="183.61" y="-443.7" font-family="Times,serif" font-size="14.00">../contracts/governance/Governable.sol</text>
</g>
<!-- 40 -->
<g id="node2" class="node">
<title>40</title>
<polygon fill="#f2f2f2" stroke="black" points="0,-174.5 0,-232.9 195.21,-232.9 195.21,-174.5 0,-174.5"/>
<text text-anchor="middle" x="97.61" y="-216.3" font-family="Times,serif" font-size="14.00">&lt;&lt;Interface&gt;&gt;</text>
<text text-anchor="middle" x="97.61" y="-199.5" font-family="Times,serif" font-size="14.00">IVault</text>
<text text-anchor="middle" x="97.61" y="-182.7" font-family="Times,serif" font-size="14.00">../contracts/interfaces/IVault.sol</text>
</g>
<!-- 180 -->
<g id="node12" class="node">
<title>180</title>
<polygon fill="#f2f2f2" stroke="black" points="251.16,-269.9 251.16,-311.5 458.06,-311.5 458.06,-269.9 251.16,-269.9"/>
<text text-anchor="middle" x="354.61" y="-294.9" font-family="Times,serif" font-size="14.00">VaultStorage</text>
<text text-anchor="middle" x="354.61" y="-278.1" font-family="Times,serif" font-size="14.00">../contracts/vault/VaultStorage.sol</text>
</g>
<!-- 40&#45;&gt;180 -->
<g id="edge1" class="edge">
<title>40&#45;&gt;180</title>
<path fill="none" stroke="black" stroke-dasharray="5,2" d="M183.18,-233C216.27,-243.95 253.64,-256.31 285.02,-266.69"/>
<polygon fill="black" stroke="black" points="283.96,-270.02 294.56,-269.84 286.16,-263.38 283.96,-270.02"/>
</g>
<!-- 41 -->
<g id="node3" class="node">
<title>41</title>
<polygon fill="#f2f2f2" stroke="black" points="428.84,-79.1 428.84,-137.5 640.37,-137.5 640.37,-79.1 428.84,-79.1"/>
<text text-anchor="middle" x="534.61" y="-120.9" font-family="Times,serif" font-size="14.00">&lt;&lt;Interface&gt;&gt;</text>
<text text-anchor="middle" x="534.61" y="-104.1" font-family="Times,serif" font-size="14.00">IWETH9</text>
<text text-anchor="middle" x="534.61" y="-87.3" font-family="Times,serif" font-size="14.00">../contracts/interfaces/IWETH9.sol</text>
</g>
<!-- 130 -->
<g id="node4" class="node">
<title>130</title>
<polygon fill="#f2f2f2" stroke="black" points="242.44,-0.5 242.44,-42.1 538.77,-42.1 538.77,-0.5 242.44,-0.5"/>
<text text-anchor="middle" x="390.61" y="-25.5" font-family="Times,serif" font-size="14.00">ConvexEthMetaStrategy</text>
<text text-anchor="middle" x="390.61" y="-8.7" font-family="Times,serif" font-size="14.00">../contracts/strategies/ConvexEthMetaStrategy.sol</text>
</g>
<!-- 130&#45;&gt;40 -->
<g id="edge6" class="edge">
<title>130&#45;&gt;40</title>
<path fill="none" stroke="black" stroke-dasharray="5,2" d="M242.36,-32.9C178.27,-40.87 113.4,-54.7 93.61,-78.6 74.16,-102.08 77.42,-137.49 84.23,-164.49"/>
<polygon fill="black" stroke="black" points="80.93,-165.68 86.98,-174.38 87.68,-163.81 80.93,-165.68"/>
</g>
<!-- 130&#45;&gt;41 -->
<g id="edge5" class="edge">
<title>130&#45;&gt;41</title>
<path fill="none" stroke="black" d="M424.37,-42.23C440.3,-51.63 459.75,-63.11 477.85,-73.8"/>
<polygon fill="black" stroke="black" points="476.22,-76.9 486.61,-78.97 479.77,-70.87 476.22,-76.9"/>
</g>
<!-- 143 -->
<g id="node5" class="node">
<title>143</title>
<polygon fill="#f2f2f2" stroke="black" points="658.04,-79.1 658.04,-137.5 913.17,-137.5 913.17,-79.1 658.04,-79.1"/>
<text text-anchor="middle" x="785.61" y="-120.9" font-family="Times,serif" font-size="14.00">&lt;&lt;Interface&gt;&gt;</text>
<text text-anchor="middle" x="785.61" y="-104.1" font-family="Times,serif" font-size="14.00">IConvexDeposits</text>
<text text-anchor="middle" x="785.61" y="-87.3" font-family="Times,serif" font-size="14.00">../contracts/strategies/IConvexDeposits.sol</text>
</g>
<!-- 130&#45;&gt;143 -->
<g id="edge7" class="edge">
<title>130&#45;&gt;143</title>
<path fill="none" stroke="black" stroke-dasharray="5,2" d="M482.72,-42.12C531.76,-52.67 593.05,-65.86 647.65,-77.61"/>
<polygon fill="black" stroke="black" points="647.25,-81.11 657.76,-79.79 648.72,-74.26 647.25,-81.11"/>
</g>
<!-- 144 -->
<g id="node6" class="node">
<title>144</title>
<polygon fill="#f2f2f2" stroke="black" points="931.21,-79.1 931.21,-137.5 1198,-137.5 1198,-79.1 931.21,-79.1"/>
<text text-anchor="middle" x="1064.61" y="-120.9" font-family="Times,serif" font-size="14.00">&lt;&lt;Interface&gt;&gt;</text>
<text text-anchor="middle" x="1064.61" y="-104.1" font-family="Times,serif" font-size="14.00">ICurveETHPoolV1</text>
<text text-anchor="middle" x="1064.61" y="-87.3" font-family="Times,serif" font-size="14.00">../contracts/strategies/ICurveETHPoolV1.sol</text>
</g>
<!-- 130&#45;&gt;144 -->
<g id="edge4" class="edge">
<title>130&#45;&gt;144</title>
<path fill="none" stroke="black" d="M539,-34.24C643.37,-43.53 786.44,-58.06 920.81,-78.37"/>
<polygon fill="black" stroke="black" points="920.47,-81.86 930.88,-79.91 921.53,-74.94 920.47,-81.86"/>
</g>
<!-- 148 -->
<g id="node7" class="node">
<title>148</title>
<polygon fill="#f2f2f2" stroke="black" points="1216.16,-79.1 1216.16,-137.5 1465.05,-137.5 1465.05,-79.1 1216.16,-79.1"/>
<text text-anchor="middle" x="1340.61" y="-120.9" font-family="Times,serif" font-size="14.00">&lt;&lt;Interface&gt;&gt;</text>
<text text-anchor="middle" x="1340.61" y="-104.1" font-family="Times,serif" font-size="14.00">IRewardStaking</text>
<text text-anchor="middle" x="1340.61" y="-87.3" font-family="Times,serif" font-size="14.00">../contracts/strategies/IRewardStaking.sol</text>
</g>
<!-- 130&#45;&gt;148 -->
<g id="edge3" class="edge">
<title>130&#45;&gt;148</title>
<path fill="none" stroke="black" d="M539.05,-26.21C700.84,-31.92 967.36,-45.56 1205.98,-78.6"/>
<polygon fill="black" stroke="black" points="1205.5,-82.06 1215.89,-79.98 1206.47,-75.13 1205.5,-82.06"/>
</g>
<!-- 168 -->
<g id="node10" class="node">
<title>168</title>
<polygon fill="#f2f2f2" stroke="black" points="102.56,-79.1 102.56,-137.5 392.65,-137.5 392.65,-79.1 102.56,-79.1"/>
<text text-anchor="middle" x="247.61" y="-120.9" font-family="Times,serif" font-size="14.00">&lt;&lt;Abstract&gt;&gt;</text>
<text text-anchor="middle" x="247.61" y="-104.1" font-family="Times,serif" font-size="14.00">InitializableAbstractStrategy</text>
<text text-anchor="middle" x="247.61" y="-87.3" font-family="Times,serif" font-size="14.00">../contracts/utils/InitializableAbstractStrategy.sol</text>
</g>
<!-- 130&#45;&gt;168 -->
<g id="edge2" class="edge">
<title>130&#45;&gt;168</title>
<path fill="none" stroke="black" d="M357.08,-42.23C346.22,-48.68 333.72,-56.12 321.13,-63.6"/>
<polygon fill="none" stroke="black" points="315.69,-54.61 295.27,-78.97 326.42,-72.66 315.69,-54.61"/>
</g>
<!-- 159 -->
<g id="node8" class="node">
<title>159</title>
<polygon fill="#f2f2f2" stroke="black" points="374.48,-348.5 374.48,-390.1 548.73,-390.1 548.73,-348.5 374.48,-348.5"/>
<text text-anchor="middle" x="461.61" y="-373.5" font-family="Times,serif" font-size="14.00">OUSD</text>
<text text-anchor="middle" x="461.61" y="-356.7" font-family="Times,serif" font-size="14.00">../contracts/token/OUSD.sol</text>
</g>
<!-- 159&#45;&gt;7 -->
<g id="edge10" class="edge">
<title>159&#45;&gt;7</title>
<path fill="none" stroke="black" d="M396.78,-390.12C361.23,-400.99 316.54,-414.65 277.27,-426.66"/>
<polygon fill="none" stroke="black" points="274.15,-416.63 248.54,-435.45 280.3,-436.72 274.15,-416.63"/>
</g>
<!-- 167 -->
<g id="node9" class="node">
<title>167</title>
<polygon fill="#f2f2f2" stroke="black" points="621.6,-427.1 621.6,-485.5 817.61,-485.5 817.61,-427.1 621.6,-427.1"/>
<text text-anchor="middle" x="719.61" y="-468.9" font-family="Times,serif" font-size="14.00">&lt;&lt;Abstract&gt;&gt;</text>
<text text-anchor="middle" x="719.61" y="-452.1" font-family="Times,serif" font-size="14.00">Initializable</text>
<text text-anchor="middle" x="719.61" y="-435.3" font-family="Times,serif" font-size="14.00">../contracts/utils/Initializable.sol</text>
</g>
<!-- 159&#45;&gt;167 -->
<g id="edge8" class="edge">
<title>159&#45;&gt;167</title>
<path fill="none" stroke="black" d="M521.77,-390.12C546.65,-398.32 576.37,-408.11 605.12,-417.58"/>
<polygon fill="none" stroke="black" points="602.12,-427.65 633.9,-427.06 608.69,-407.7 602.12,-427.65"/>
</g>
<!-- 170 -->
<g id="node11" class="node">
<title>170</title>
<polygon fill="#f2f2f2" stroke="black" points="319.28,-427.1 319.28,-485.5 603.94,-485.5 603.94,-427.1 319.28,-427.1"/>
<text text-anchor="middle" x="461.61" y="-468.9" font-family="Times,serif" font-size="14.00">&lt;&lt;Abstract&gt;&gt;</text>
<text text-anchor="middle" x="461.61" y="-452.1" font-family="Times,serif" font-size="14.00">InitializableERC20Detailed</text>
<text text-anchor="middle" x="461.61" y="-435.3" font-family="Times,serif" font-size="14.00">../contracts/utils/InitializableERC20Detailed.sol</text>
</g>
<!-- 159&#45;&gt;170 -->
<g id="edge9" class="edge">
<title>159&#45;&gt;170</title>
<path fill="none" stroke="black" d="M461.61,-390.44C461.61,-392.49 461.61,-394.63 461.61,-396.83"/>
<polygon fill="none" stroke="black" points="451.11,-396.94 461.61,-426.94 472.11,-396.94 451.11,-396.94"/>
</g>
<!-- 168&#45;&gt;7 -->
<g id="edge12" class="edge">
<title>168&#45;&gt;7</title>
<path fill="none" stroke="black" d="M242.37,-137.61C231.52,-196.27 206.46,-331.73 192.84,-405.4"/>
<polygon fill="none" stroke="black" points="182.46,-403.79 187.32,-435.2 203.1,-407.61 182.46,-403.79"/>
</g>
<!-- 168&#45;&gt;40 -->
<g id="edge15" class="edge">
<title>168&#45;&gt;40</title>
<path fill="none" stroke="black" stroke-dasharray="5,2" d="M202.19,-137.58C186.26,-147.5 168.2,-158.74 151.63,-169.06"/>
<polygon fill="black" stroke="black" points="149.76,-166.1 143.12,-174.36 153.46,-172.04 149.76,-166.1"/>
</g>
<!-- 168&#45;&gt;167 -->
<g id="edge11" class="edge">
<title>168&#45;&gt;167</title>
<path fill="none" stroke="black" d="M296.28,-137.54C367.51,-179.73 503.13,-263.35 608.61,-348 630.45,-365.53 652.96,-386.63 671.95,-405.47"/>
<polygon fill="none" stroke="black" points="664.55,-412.92 693.08,-426.92 679.51,-398.18 664.55,-412.92"/>
</g>
<!-- 168&#45;&gt;168 -->
<g id="edge13" class="edge">
<title>168&#45;&gt;168</title>
<path fill="none" stroke="black" stroke-dasharray="5,2" d="M392.82,-96.21C403.86,-98.89 410.65,-102.92 410.65,-108.3 410.65,-111.83 407.73,-114.78 402.6,-117.15"/>
<polygon fill="black" stroke="black" points="401.21,-113.92 392.82,-120.39 403.41,-120.56 401.21,-113.92"/>
</g>
<!-- 357 -->
<g id="node13" class="node">
<title>357</title>
<polygon fill="#f2f2f2" stroke="black" points="259.55,-522.5 259.55,-580.9 663.66,-580.9 663.66,-522.5 259.55,-522.5"/>
<text text-anchor="middle" x="461.61" y="-564.3" font-family="Times,serif" font-size="14.00">&lt;&lt;Interface&gt;&gt;</text>
<text text-anchor="middle" x="461.61" y="-547.5" font-family="Times,serif" font-size="14.00">IERC20</text>
<text text-anchor="middle" x="461.61" y="-530.7" font-family="Times,serif" font-size="14.00">../node_modules/@openzeppelin/contracts/token/ERC20/IERC20.sol</text>
</g>
<!-- 168&#45;&gt;357 -->
<g id="edge14" class="edge">
<title>168&#45;&gt;357</title>
<path fill="none" stroke="black" stroke-dasharray="5,2" d="M388.19,-137.56C564.96,-175.09 845.61,-242.16 845.61,-289.7 845.61,-289.7 845.61,-289.7 845.61,-370.3 845.61,-422.41 863.22,-448.92 826.61,-486 803.55,-509.35 740.94,-524.37 673.94,-533.98"/>
<polygon fill="black" stroke="black" points="673.45,-530.51 664.03,-535.36 674.42,-537.45 673.45,-530.51"/>
</g>
<!-- 170&#45;&gt;357 -->
<g id="edge16" class="edge">
<title>170&#45;&gt;357</title>
<path fill="none" stroke="black" stroke-dasharray="5,2" d="M461.61,-485.58C461.61,-487.66 461.61,-489.8 461.61,-491.98"/>
<polygon fill="none" stroke="black" points="451.11,-492.2 461.61,-522.2 472.11,-492.2 451.11,-492.2"/>
</g>
<!-- 180&#45;&gt;7 -->
<g id="edge18" class="edge">
<title>180&#45;&gt;7</title>
<path fill="none" stroke="black" d="M333.64,-311.76C307.03,-337.22 260.48,-381.75 226.27,-414.48"/>
<polygon fill="none" stroke="black" points="218.9,-407.01 204.48,-435.33 233.41,-422.18 218.9,-407.01"/>
</g>
<!-- 180&#45;&gt;159 -->
<g id="edge19" class="edge">
<title>180&#45;&gt;159</title>
<path fill="none" stroke="black" d="M382.44,-311.63C395.57,-321.02 411.4,-332.36 425.44,-342.41"/>
<polygon fill="black" stroke="black" points="423.74,-345.5 433.91,-348.47 427.82,-339.81 423.74,-345.5"/>
</g>
<!-- 180&#45;&gt;167 -->
<g id="edge17" class="edge">
<title>180&#45;&gt;167</title>
<path fill="none" stroke="black" d="M449.76,-311.51C484.54,-320.44 523.66,-332.52 557.61,-348 593.51,-364.37 630.42,-388.18 659.93,-409.22"/>
<polygon fill="none" stroke="black" points="653.83,-417.77 684.22,-427.09 666.28,-400.85 653.83,-417.77"/>
</g>
</g>
</svg>
