<?xml version="1.0" encoding="UTF-8" standalone="no"?>
<!DOCTYPE svg PUBLIC "-//W3C//DTD SVG 1.1//EN"
 "http://www.w3.org/Graphics/SVG/1.1/DTD/svg11.dtd">
<!-- Generated by graphviz version 5.0.0 (20220707.1540)
 -->
<!-- Title: StorageDiagram Pages: 1 -->
<svg width="1477pt" height="615pt"
 viewBox="0.00 0.00 1477.42 615.20" xmlns="http://www.w3.org/2000/svg" xmlns:xlink="http://www.w3.org/1999/xlink">
<g id="graph0" class="graph" transform="scale(1 1) rotate(0) translate(4 611.2)">
<title>StorageDiagram</title>
<polygon fill="white" stroke="transparent" points="-4,4 -4,-611.2 1473.42,-611.2 1473.42,4 -4,4"/>
<!-- 5 -->
<g id="node1" class="node">
<title>5</title>
<polygon fill="#f2f2f2" stroke="black" points="0,-11.5 0,-606.7 862.93,-606.7 862.93,-11.5 0,-11.5"/>
<text text-anchor="middle" x="431.47" y="-590.1" font-family="Courier New" font-size="14.00">ConvexOUSDMetaStrategy &lt;&lt;Contract&gt;&gt;</text>
<polyline fill="none" stroke="black" points="0,-581.9 862.93,-581.9 "/>
<text text-anchor="middle" x="37.4" y="-565.3" font-family="Courier New" font-size="14.00">slot</text>
<polyline fill="none" stroke="black" points="0,-557.1 74.81,-557.1 "/>
<text text-anchor="middle" x="37.4" y="-540.5" font-family="Courier New" font-size="14.00">0</text>
<polyline fill="none" stroke="black" points="0,-532.3 74.81,-532.3 "/>
<text text-anchor="middle" x="37.4" y="-515.7" font-family="Courier New" font-size="14.00">1&#45;50</text>
<polyline fill="none" stroke="black" points="0,-507.5 74.81,-507.5 "/>
<text text-anchor="middle" x="37.4" y="-490.9" font-family="Courier New" font-size="14.00">51</text>
<polyline fill="none" stroke="black" points="0,-482.7 74.81,-482.7 "/>
<text text-anchor="middle" x="37.4" y="-466.1" font-family="Courier New" font-size="14.00">52</text>
<polyline fill="none" stroke="black" points="0,-457.9 74.81,-457.9 "/>
<text text-anchor="middle" x="37.4" y="-441.3" font-family="Courier New" font-size="14.00">53</text>
<polyline fill="none" stroke="black" points="0,-433.1 74.81,-433.1 "/>
<text text-anchor="middle" x="37.4" y="-416.5" font-family="Courier New" font-size="14.00">54</text>
<polyline fill="none" stroke="black" points="0,-408.3 74.81,-408.3 "/>
<text text-anchor="middle" x="37.4" y="-391.7" font-family="Courier New" font-size="14.00">55</text>
<polyline fill="none" stroke="black" points="0,-383.5 74.81,-383.5 "/>
<text text-anchor="middle" x="37.4" y="-366.9" font-family="Courier New" font-size="14.00">56</text>
<polyline fill="none" stroke="black" points="0,-358.7 74.81,-358.7 "/>
<text text-anchor="middle" x="37.4" y="-342.1" font-family="Courier New" font-size="14.00">57</text>
<polyline fill="none" stroke="black" points="0,-333.9 74.81,-333.9 "/>
<text text-anchor="middle" x="37.4" y="-317.3" font-family="Courier New" font-size="14.00">58</text>
<polyline fill="none" stroke="black" points="0,-309.1 74.81,-309.1 "/>
<text text-anchor="middle" x="37.4" y="-292.5" font-family="Courier New" font-size="14.00">59&#45;156</text>
<polyline fill="none" stroke="black" points="0,-284.3 74.81,-284.3 "/>
<text text-anchor="middle" x="37.4" y="-267.7" font-family="Courier New" font-size="14.00">157</text>
<polyline fill="none" stroke="black" points="0,-259.5 74.81,-259.5 "/>
<text text-anchor="middle" x="37.4" y="-242.9" font-family="Courier New" font-size="14.00">158&#45;206</text>
<polyline fill="none" stroke="black" points="0,-234.7 74.81,-234.7 "/>
<text text-anchor="middle" x="37.4" y="-218.1" font-family="Courier New" font-size="14.00">207</text>
<polyline fill="none" stroke="black" points="0,-209.9 74.81,-209.9 "/>
<text text-anchor="middle" x="37.4" y="-193.3" font-family="Courier New" font-size="14.00">208</text>
<polyline fill="none" stroke="black" points="0,-185.1 74.81,-185.1 "/>
<text text-anchor="middle" x="37.4" y="-168.5" font-family="Courier New" font-size="14.00">209</text>
<polyline fill="none" stroke="black" points="0,-160.3 74.81,-160.3 "/>
<text text-anchor="middle" x="37.4" y="-143.7" font-family="Courier New" font-size="14.00">210</text>
<polyline fill="none" stroke="black" points="0,-135.5 74.81,-135.5 "/>
<text text-anchor="middle" x="37.4" y="-118.9" font-family="Courier New" font-size="14.00">211</text>
<polyline fill="none" stroke="black" points="0,-110.7 74.81,-110.7 "/>
<text text-anchor="middle" x="37.4" y="-94.1" font-family="Courier New" font-size="14.00">212</text>
<polyline fill="none" stroke="black" points="0,-85.9 74.81,-85.9 "/>
<text text-anchor="middle" x="37.4" y="-69.3" font-family="Courier New" font-size="14.00">213</text>
<polyline fill="none" stroke="black" points="0,-61.1 74.81,-61.1 "/>
<text text-anchor="middle" x="37.4" y="-44.5" font-family="Courier New" font-size="14.00">214</text>
<polyline fill="none" stroke="black" points="0,-36.3 74.81,-36.3 "/>
<text text-anchor="middle" x="37.4" y="-19.7" font-family="Courier New" font-size="14.00">215</text>
<polyline fill="none" stroke="black" points="74.81,-11.5 74.81,-581.9 "/>
<text text-anchor="middle" x="468.87" y="-565.3" font-family="Courier New" font-size="14.00">type: &lt;inherited contract&gt;.variable (bytes)</text>
<polyline fill="none" stroke="black" points="74.81,-557.1 862.93,-557.1 "/>
<text text-anchor="middle" x="151.52" y="-540.5" font-family="Courier New" font-size="14.00">unallocated (30)</text>
<polyline fill="none" stroke="black" points="228.23,-532.3 228.23,-557.1 "/>
<text text-anchor="middle" x="388.96" y="-540.5" font-family="Courier New" font-size="14.00">bool: Initializable.initializing (1)</text>
<polyline fill="none" stroke="black" points="549.68,-532.3 549.68,-557.1 "/>
<text text-anchor="middle" x="706.2" y="-540.5" font-family="Courier New" font-size="14.00">bool: Initializable.initialized (1)</text>
<polyline fill="none" stroke="black" points="74.81,-532.3 862.93,-532.3 "/>
<text text-anchor="middle" x="468.44" y="-515.7" font-family="Courier New" font-size="14.00">uint256[50]: Initializable.______gap (1600)</text>
<polyline fill="none" stroke="black" points="74.81,-507.5 862.93,-507.5 "/>
<text text-anchor="middle" x="156.02" y="-490.9" font-family="Courier New" font-size="14.00">unallocated (12)</text>
<polyline fill="none" stroke="black" points="237.23,-482.7 237.23,-507.5 "/>
<text text-anchor="middle" x="549.98" y="-490.9" font-family="Courier New" font-size="14.00">address: InitializableAbstractStrategy._deprecated_platformAddress (20)</text>
<polyline fill="none" stroke="black" points="74.81,-482.7 862.93,-482.7 "/>
<text text-anchor="middle" x="162.52" y="-466.1" font-family="Courier New" font-size="14.00">unallocated (12)</text>
<polyline fill="none" stroke="black" points="250.23,-457.9 250.23,-482.7 "/>
<text text-anchor="middle" x="556.38" y="-466.1" font-family="Courier New" font-size="14.00">address: InitializableAbstractStrategy._deprecated_vaultAddress (20)</text>
<polyline fill="none" stroke="black" points="74.81,-457.9 862.93,-457.9 "/>
<text text-anchor="middle" x="468.86" y="-441.3" font-family="Courier New" font-size="14.00">mapping(address=&gt;address): InitializableAbstractStrategy.assetToPToken (32)</text>
<polyline fill="none" stroke="black" points="74.81,-433.1 862.93,-433.1 "/>
<text text-anchor="middle" x="468.45" y="-416.5" font-family="Courier New" font-size="14.00">address[]: InitializableAbstractStrategy.assetsMapped (32)</text>
<polyline fill="none" stroke="black" points="74.81,-408.3 862.93,-408.3 "/>
<text text-anchor="middle" x="150.02" y="-391.7" font-family="Courier New" font-size="14.00">unallocated (12)</text>
<polyline fill="none" stroke="black" points="225.23,-383.5 225.23,-408.3 "/>
<text text-anchor="middle" x="544.08" y="-391.7" font-family="Courier New" font-size="14.00">address: InitializableAbstractStrategy._deprecated_rewardTokenAddress (20)</text>
<polyline fill="none" stroke="black" points="74.81,-383.5 862.93,-383.5 "/>
<text text-anchor="middle" x="468.77" y="-366.9" font-family="Courier New" font-size="14.00">uint256: InitializableAbstractStrategy._deprecated_rewardLiquidationThreshold (32)</text>
<polyline fill="none" stroke="black" points="74.81,-358.7 862.93,-358.7 "/>
<text text-anchor="middle" x="179.02" y="-342.1" font-family="Courier New" font-size="14.00">unallocated (12)</text>
<polyline fill="none" stroke="black" points="283.23,-333.9 283.23,-358.7 "/>
<text text-anchor="middle" x="572.77" y="-342.1" font-family="Courier New" font-size="14.00">address: InitializableAbstractStrategy.harvesterAddress (20)</text>
<polyline fill="none" stroke="black" points="74.81,-333.9 862.93,-333.9 "/>
<text text-anchor="middle" x="468.55" y="-317.3" font-family="Courier New" font-size="14.00">address[]: InitializableAbstractStrategy.rewardTokenAddresses (32)</text>
<polyline fill="none" stroke="black" points="74.81,-309.1 862.93,-309.1 "/>
<text text-anchor="middle" x="468.45" y="-292.5" font-family="Courier New" font-size="14.00">int256[98]: InitializableAbstractStrategy._reserved (3136)</text>
<polyline fill="none" stroke="black" points="74.81,-284.3 862.93,-284.3 "/>
<text text-anchor="middle" x="219.02" y="-267.7" font-family="Courier New" font-size="14.00">unallocated (12)</text>
<polyline fill="none" stroke="black" points="363.23,-259.5 363.23,-284.3 "/>
<text text-anchor="middle" x="612.96" y="-267.7" font-family="Courier New" font-size="14.00">address: _deprecated_pTokenAddresses (20)</text>
<polyline fill="none" stroke="black" points="74.81,-259.5 862.93,-259.5 "/>
<text text-anchor="middle" x="468.63" y="-242.9" font-family="Courier New" font-size="14.00">int256[49]: __reserved (1568)</text>
<polyline fill="none" stroke="black" points="74.81,-234.7 862.93,-234.7 "/>
<text text-anchor="middle" x="210.52" y="-218.1" font-family="Courier New" font-size="14.00">unallocated (12)</text>
<polyline fill="none" stroke="black" points="346.23,-209.9 346.23,-234.7 "/>
<text text-anchor="middle" x="604.26" y="-218.1" font-family="Courier New" font-size="14.00">address: _deprecated_cvxDepositorAddress (20)</text>
<polyline fill="none" stroke="black" points="74.81,-209.9 862.93,-209.9 "/>
<text text-anchor="middle" x="204.52" y="-193.3" font-family="Courier New" font-size="14.00">unallocated (12)</text>
<polyline fill="none" stroke="black" points="334.23,-185.1 334.23,-209.9 "/>
<text text-anchor="middle" x="598.36" y="-193.3" font-family="Courier New" font-size="14.00">address: _deprecated_cvxRewardStakerAddress (20)</text>
<polyline fill="none" stroke="black" points="74.81,-185.1 862.93,-185.1 "/>
<text text-anchor="middle" x="468.54" y="-168.5" font-family="Courier New" font-size="14.00">uint256: _deprecated_cvxDepositorPTokenId (32)</text>
<polyline fill="none" stroke="black" points="74.81,-160.3 862.93,-160.3 "/>
<text text-anchor="middle" x="234.02" y="-143.7" font-family="Courier New" font-size="14.00">unallocated (12)</text>
<polyline fill="none" stroke="black" points="393.23,-135.5 393.23,-160.3 "/>
<text text-anchor="middle" x="628.05" y="-143.7" font-family="Courier New" font-size="14.00">address: _deprecated_metapool (20)</text>
<polyline fill="none" stroke="black" points="74.81,-135.5 862.93,-135.5 "/>
<text text-anchor="middle" x="215.02" y="-118.9" font-family="Courier New" font-size="14.00">unallocated (12)</text>
<polyline fill="none" stroke="black" points="355.23,-110.7 355.23,-135.5 "/>
<text text-anchor="middle" x="608.86" y="-118.9" font-family="Courier New" font-size="14.00">address: _deprecated_metapoolMainToken (20)</text>
<polyline fill="none" stroke="black" points="74.81,-110.7 862.93,-110.7 "/>
<text text-anchor="middle" x="219.02" y="-94.1" font-family="Courier New" font-size="14.00">unallocated (12)</text>
<polyline fill="none" stroke="black" points="363.23,-85.9 363.23,-110.7 "/>
<text text-anchor="middle" x="612.96" y="-94.1" font-family="Courier New" font-size="14.00">address: _deprecated_metapoolLPToken (20)</text>
<polyline fill="none" stroke="black" points="74.81,-85.9 862.93,-85.9 "/>
<text text-anchor="middle" x="468.74" y="-69.3" font-family="Courier New" font-size="14.00">address[]: _deprecated_metapoolAssets (32)</text>
<polyline fill="none" stroke="black" points="74.81,-61.1 862.93,-61.1 "/>
<text text-anchor="middle" x="468.74" y="-44.5" font-family="Courier New" font-size="14.00">uint256: _deprecated_maxWithdrawalSlippage (32)</text>
<polyline fill="none" stroke="black" points="74.81,-36.3 862.93,-36.3 "/>
<text text-anchor="middle" x="273.64" y="-19.7" font-family="Courier New" font-size="14.00">uint128: _deprecated_mainCoinIndex (16)</text>
<polyline fill="none" stroke="black" points="472.46,-11.5 472.46,-36.3 "/>
<text text-anchor="middle" x="667.59" y="-19.7" font-family="Courier New" font-size="14.00">uint128: _deprecated_crvCoinIndex (16)</text>
</g>
<!-- 1 -->
<g id="node2" class="node">
<title>1</title>
<polygon fill="#f2f2f2" stroke="black" points="898.93,-412.5 898.93,-503.7 1469.42,-503.7 1469.42,-412.5 898.93,-412.5"/>
<text text-anchor="middle" x="1184.18" y="-487.1" font-family="Courier New" font-size="14.00">address[]: assetsMapped &lt;&lt;Array&gt;&gt;</text>
<text text-anchor="middle" x="1184.18" y="-470.3" font-family="Courier New" font-size="14.00">0x4a11f94e20a93c79f6ec743a1954ec4fc2c08429ae2122118bf234b2185c81b8</text>
<polyline fill="none" stroke="black" points="898.93,-462.1 1469.42,-462.1 "/>
<text text-anchor="middle" x="991.14" y="-445.5" font-family="Courier New" font-size="14.00">offset</text>
<polyline fill="none" stroke="black" points="898.93,-437.3 1083.34,-437.3 "/>
<text text-anchor="middle" x="991.14" y="-420.7" font-family="Courier New" font-size="14.00">0</text>
<polyline fill="none" stroke="black" points="1083.34,-412.5 1083.34,-462.1 "/>
<text text-anchor="middle" x="1275.96" y="-445.5" font-family="Courier New" font-size="14.00">type: variable (bytes)</text>
<polyline fill="none" stroke="black" points="1083.34,-437.3 1468.58,-437.3 "/>
<text text-anchor="middle" x="1188.05" y="-420.7" font-family="Courier New" font-size="14.00">unallocated (12)</text>
<polyline fill="none" stroke="black" points="1292.76,-412.5 1292.76,-437.3 "/>
<text text-anchor="middle" x="1380.67" y="-420.7" font-family="Courier New" font-size="14.00">address (20)</text>
</g>
<!-- 5&#45;&gt;1 -->
<g id="edge1" class="edge">
<title>5:8&#45;&gt;1</title>
<path fill="none" stroke="black" d="M862.93,-421.1C871.38,-421.1 879.95,-421.23 888.58,-421.47"/>
<polygon fill="black" stroke="black" points="888.65,-424.97 898.76,-421.81 888.88,-417.98 888.65,-424.97"/>
</g>
<!-- 2 -->
<g id="node3" class="node">
<title>2</title>
<polygon fill="#f2f2f2" stroke="black" points="898.93,-302.5 898.93,-393.7 1469.42,-393.7 1469.42,-302.5 898.93,-302.5"/>
<text text-anchor="middle" x="1184.18" y="-377.1" font-family="Courier New" font-size="14.00">address[]: rewardTokenAddresses &lt;&lt;Array&gt;&gt;</text>
<text text-anchor="middle" x="1184.18" y="-360.3" font-family="Courier New" font-size="14.00">0xa2999d817b6757290b50e8ecf3fa939673403dd35c97de392fdb343b4015ce9e</text>
<polyline fill="none" stroke="black" points="898.93,-352.1 1469.42,-352.1 "/>
<text text-anchor="middle" x="991.14" y="-335.5" font-family="Courier New" font-size="14.00">offset</text>
<polyline fill="none" stroke="black" points="898.93,-327.3 1083.34,-327.3 "/>
<text text-anchor="middle" x="991.14" y="-310.7" font-family="Courier New" font-size="14.00">0</text>
<polyline fill="none" stroke="black" points="1083.34,-302.5 1083.34,-352.1 "/>
<text text-anchor="middle" x="1275.96" y="-335.5" font-family="Courier New" font-size="14.00">type: variable (bytes)</text>
<polyline fill="none" stroke="black" points="1083.34,-327.3 1468.58,-327.3 "/>
<text text-anchor="middle" x="1188.05" y="-310.7" font-family="Courier New" font-size="14.00">unallocated (12)</text>
<polyline fill="none" stroke="black" points="1292.76,-302.5 1292.76,-327.3 "/>
<text text-anchor="middle" x="1380.67" y="-310.7" font-family="Courier New" font-size="14.00">address (20)</text>
</g>
<!-- 5&#45;&gt;2 -->
<g id="edge2" class="edge">
<title>5:13&#45;&gt;2</title>
<path fill="none" stroke="black" d="M862.93,-321.1C871.35,-321.1 879.9,-321.19 888.51,-321.37"/>
<polygon fill="black" stroke="black" points="888.58,-324.87 898.66,-321.62 888.75,-317.88 888.58,-324.87"/>
</g>
<!-- 3 -->
<g id="node4" class="node">
<title>3</title>
<polygon fill="#f2f2f2" stroke="black" points="1041.76,-110.3 1041.76,-283.9 1326.6,-283.9 1326.6,-110.3 1041.76,-110.3"/>
<text text-anchor="middle" x="1184.18" y="-267.3" font-family="Courier New" font-size="14.00">int256[49]: __reserved &lt;&lt;Array&gt;&gt;</text>
<polyline fill="none" stroke="black" points="1041.76,-259.1 1326.6,-259.1 "/>
<text text-anchor="middle" x="1081.16" y="-242.5" font-family="Courier New" font-size="14.00">slot</text>
<polyline fill="none" stroke="black" points="1041.76,-234.3 1120.57,-234.3 "/>
<text text-anchor="middle" x="1081.16" y="-217.7" font-family="Courier New" font-size="14.00">158</text>
<polyline fill="none" stroke="black" points="1041.76,-209.5 1120.57,-209.5 "/>
<text text-anchor="middle" x="1081.16" y="-192.9" font-family="Courier New" font-size="14.00">159</text>
<polyline fill="none" stroke="black" points="1041.76,-184.7 1120.57,-184.7 "/>
<text text-anchor="middle" x="1081.16" y="-168.1" font-family="Courier New" font-size="14.00">160&#45;204</text>
<polyline fill="none" stroke="black" points="1041.76,-159.9 1120.57,-159.9 "/>
<text text-anchor="middle" x="1081.16" y="-143.3" font-family="Courier New" font-size="14.00">205</text>
<polyline fill="none" stroke="black" points="1041.76,-135.1 1120.57,-135.1 "/>
<text text-anchor="middle" x="1081.16" y="-118.5" font-family="Courier New" font-size="14.00">206</text>
<polyline fill="none" stroke="black" points="1120.57,-110.3 1120.57,-259.1 "/>
<text text-anchor="middle" x="1223.48" y="-242.5" font-family="Courier New" font-size="14.00">type: variable (bytes)</text>
<polyline fill="none" stroke="black" points="1120.57,-234.3 1326.4,-234.3 "/>
<text text-anchor="middle" x="1223.27" y="-217.7" font-family="Courier New" font-size="14.00">int256 (32)</text>
<polyline fill="none" stroke="black" points="1120.57,-209.5 1326.4,-209.5 "/>
<text text-anchor="middle" x="1223.27" y="-192.9" font-family="Courier New" font-size="14.00">int256 (32)</text>
<polyline fill="none" stroke="black" points="1120.57,-184.7 1326.4,-184.7 "/>
<text text-anchor="middle" x="1223.27" y="-168.1" font-family="Courier New" font-size="14.00">&#45;&#45;&#45;&#45; (1440)</text>
<polyline fill="none" stroke="black" points="1120.57,-159.9 1326.4,-159.9 "/>
<text text-anchor="middle" x="1223.27" y="-143.3" font-family="Courier New" font-size="14.00">int256 (32)</text>
<polyline fill="none" stroke="black" points="1120.57,-135.1 1326.4,-135.1 "/>
<text text-anchor="middle" x="1223.27" y="-118.5" font-family="Courier New" font-size="14.00">int256 (32)</text>
</g>
<!-- 5&#45;&gt;3 -->
<g id="edge3" class="edge">
<title>5:21&#45;&gt;3</title>
<path fill="none" stroke="black" d="M862.93,-247.1C918.31,-247.1 978.43,-239.71 1031.47,-230.62"/>
<polygon fill="black" stroke="black" points="1032.39,-234.01 1041.63,-228.84 1031.18,-227.11 1032.39,-234.01"/>
</g>
<!-- 4 -->
<g id="node5" class="node">
<title>4</title>
<polygon fill="#f2f2f2" stroke="black" points="898.93,-0.5 898.93,-91.7 1469.42,-91.7 1469.42,-0.5 898.93,-0.5"/>
<text text-anchor="middle" x="1184.18" y="-75.1" font-family="Courier New" font-size="14.00">address[]: _deprecated_metapoolAssets &lt;&lt;Array&gt;&gt;</text>
<text text-anchor="middle" x="1184.18" y="-58.3" font-family="Courier New" font-size="14.00">0x51858de9989bf7441865ebdadbf7382c8838edbf830f5d86a9a51ac773676dd6</text>
<polyline fill="none" stroke="black" points="898.93,-50.1 1469.42,-50.1 "/>
<text text-anchor="middle" x="991.14" y="-33.5" font-family="Courier New" font-size="14.00">offset</text>
<polyline fill="none" stroke="black" points="898.93,-25.3 1083.34,-25.3 "/>
<text text-anchor="middle" x="991.14" y="-8.7" font-family="Courier New" font-size="14.00">0</text>
<polyline fill="none" stroke="black" points="1083.34,-0.5 1083.34,-50.1 "/>
<text text-anchor="middle" x="1275.96" y="-33.5" font-family="Courier New" font-size="14.00">type: variable (bytes)</text>
<polyline fill="none" stroke="black" points="1083.34,-25.3 1468.58,-25.3 "/>
<text text-anchor="middle" x="1188.05" y="-8.7" font-family="Courier New" font-size="14.00">unallocated (12)</text>
<polyline fill="none" stroke="black" points="1292.76,-0.5 1292.76,-25.3 "/>
<text text-anchor="middle" x="1380.67" y="-8.7" font-family="Courier New" font-size="14.00">address (20)</text>
</g>
<!-- 5&#45;&gt;4 -->
<g id="edge4" class="edge">
<title>5:29&#45;&gt;4</title>
<path fill="none" stroke="black" d="M862.93,-73.1C871.35,-73.1 879.9,-73.01 888.51,-72.83"/>
<polygon fill="black" stroke="black" points="888.75,-76.32 898.66,-72.58 888.58,-69.33 888.75,-76.32"/>
</g>
</g>
</svg>
