<?xml version="1.0" encoding="UTF-8" standalone="no"?>
<!DOCTYPE svg PUBLIC "-//W3C//DTD SVG 1.1//EN"
 "http://www.w3.org/Graphics/SVG/1.1/DTD/svg11.dtd">
<!-- Generated by graphviz version 5.0.0 (20220707.1540)
 -->
<!-- Title: StorageDiagram Pages: 1 -->
<svg width="1553pt" height="629pt"
 viewBox="0.00 0.00 1553.04 629.00" xmlns="http://www.w3.org/2000/svg" xmlns:xlink="http://www.w3.org/1999/xlink">
<g id="graph0" class="graph" transform="scale(1 1) rotate(0) translate(4 625)">
<title>StorageDiagram</title>
<polygon fill="white" stroke="transparent" points="-4,4 -4,-625 1549.04,-625 1549.04,4 -4,4"/>
<!-- 4 -->
<g id="node1" class="node">
<title>4</title>
<polygon fill="#f2f2f2" stroke="black" points="0,-0.5 0,-620.5 938.54,-620.5 938.54,-0.5 0,-0.5"/>
<text text-anchor="middle" x="469.27" y="-603.9" font-family="Courier New" font-size="14.00">ConvexOUSDMetaStrategy &lt;&lt;Contract&gt;&gt;</text>
<polyline fill="none" stroke="black" points="0,-595.7 938.54,-595.7 "/>
<text text-anchor="middle" x="37.4" y="-579.1" font-family="Courier New" font-size="14.00">slot</text>
<polyline fill="none" stroke="black" points="0,-570.9 74.81,-570.9 "/>
<text text-anchor="middle" x="37.4" y="-554.3" font-family="Courier New" font-size="14.00">0</text>
<polyline fill="none" stroke="black" points="0,-546.1 74.81,-546.1 "/>
<text text-anchor="middle" x="37.4" y="-529.5" font-family="Courier New" font-size="14.00">1&#45;50</text>
<polyline fill="none" stroke="black" points="0,-521.3 74.81,-521.3 "/>
<text text-anchor="middle" x="37.4" y="-504.7" font-family="Courier New" font-size="14.00">51</text>
<polyline fill="none" stroke="black" points="0,-496.5 74.81,-496.5 "/>
<text text-anchor="middle" x="37.4" y="-479.9" font-family="Courier New" font-size="14.00">52</text>
<polyline fill="none" stroke="black" points="0,-471.7 74.81,-471.7 "/>
<text text-anchor="middle" x="37.4" y="-455.1" font-family="Courier New" font-size="14.00">53</text>
<polyline fill="none" stroke="black" points="0,-446.9 74.81,-446.9 "/>
<text text-anchor="middle" x="37.4" y="-430.3" font-family="Courier New" font-size="14.00">54</text>
<polyline fill="none" stroke="black" points="0,-422.1 74.81,-422.1 "/>
<text text-anchor="middle" x="37.4" y="-405.5" font-family="Courier New" font-size="14.00">55</text>
<polyline fill="none" stroke="black" points="0,-397.3 74.81,-397.3 "/>
<text text-anchor="middle" x="37.4" y="-380.7" font-family="Courier New" font-size="14.00">56</text>
<polyline fill="none" stroke="black" points="0,-372.5 74.81,-372.5 "/>
<text text-anchor="middle" x="37.4" y="-355.9" font-family="Courier New" font-size="14.00">57</text>
<polyline fill="none" stroke="black" points="0,-347.7 74.81,-347.7 "/>
<text text-anchor="middle" x="37.4" y="-331.1" font-family="Courier New" font-size="14.00">58</text>
<polyline fill="none" stroke="black" points="0,-322.9 74.81,-322.9 "/>
<text text-anchor="middle" x="37.4" y="-306.3" font-family="Courier New" font-size="14.00">59&#45;156</text>
<polyline fill="none" stroke="black" points="0,-298.1 74.81,-298.1 "/>
<text text-anchor="middle" x="37.4" y="-281.5" font-family="Courier New" font-size="14.00">157</text>
<polyline fill="none" stroke="black" points="0,-273.3 74.81,-273.3 "/>
<text text-anchor="middle" x="37.4" y="-256.7" font-family="Courier New" font-size="14.00">158&#45;206</text>
<polyline fill="none" stroke="black" points="0,-248.5 74.81,-248.5 "/>
<text text-anchor="middle" x="37.4" y="-231.9" font-family="Courier New" font-size="14.00">207</text>
<polyline fill="none" stroke="black" points="0,-223.7 74.81,-223.7 "/>
<text text-anchor="middle" x="37.4" y="-207.1" font-family="Courier New" font-size="14.00">208</text>
<polyline fill="none" stroke="black" points="0,-198.9 74.81,-198.9 "/>
<text text-anchor="middle" x="37.4" y="-182.3" font-family="Courier New" font-size="14.00">209</text>
<polyline fill="none" stroke="black" points="0,-174.1 74.81,-174.1 "/>
<text text-anchor="middle" x="37.4" y="-157.5" font-family="Courier New" font-size="14.00">210</text>
<polyline fill="none" stroke="black" points="0,-149.3 74.81,-149.3 "/>
<text text-anchor="middle" x="37.4" y="-132.7" font-family="Courier New" font-size="14.00">211</text>
<polyline fill="none" stroke="black" points="0,-124.5 74.81,-124.5 "/>
<text text-anchor="middle" x="37.4" y="-107.9" font-family="Courier New" font-size="14.00">212</text>
<polyline fill="none" stroke="black" points="0,-99.7 74.81,-99.7 "/>
<text text-anchor="middle" x="37.4" y="-83.1" font-family="Courier New" font-size="14.00">213</text>
<polyline fill="none" stroke="black" points="0,-74.9 74.81,-74.9 "/>
<text text-anchor="middle" x="37.4" y="-58.3" font-family="Courier New" font-size="14.00">214</text>
<polyline fill="none" stroke="black" points="0,-50.1 74.81,-50.1 "/>
<text text-anchor="middle" x="37.4" y="-33.5" font-family="Courier New" font-size="14.00">215</text>
<polyline fill="none" stroke="black" points="0,-25.3 74.81,-25.3 "/>
<text text-anchor="middle" x="37.4" y="-8.7" font-family="Courier New" font-size="14.00">216&#45;256</text>
<polyline fill="none" stroke="black" points="74.81,-0.5 74.81,-595.7 "/>
<text text-anchor="middle" x="506.68" y="-579.1" font-family="Courier New" font-size="14.00">type: &lt;inherited contract&gt;.variable (bytes)</text>
<polyline fill="none" stroke="black" points="74.81,-570.9 938.54,-570.9 "/>
<text text-anchor="middle" x="164.02" y="-554.3" font-family="Courier New" font-size="14.00">unallocated (30)</text>
<polyline fill="none" stroke="black" points="253.23,-546.1 253.23,-570.9 "/>
<text text-anchor="middle" x="426.46" y="-554.3" font-family="Courier New" font-size="14.00">bool: Initializable.initializing (1)</text>
<polyline fill="none" stroke="black" points="599.68,-546.1 599.68,-570.9 "/>
<text text-anchor="middle" x="768.7" y="-554.3" font-family="Courier New" font-size="14.00">bool: Initializable.initialized (1)</text>
<polyline fill="none" stroke="black" points="74.81,-546.1 938.54,-546.1 "/>
<text text-anchor="middle" x="506.44" y="-529.5" font-family="Courier New" font-size="14.00">uint256[50]: Initializable.______gap (1600)</text>
<polyline fill="none" stroke="black" points="74.81,-521.3 938.54,-521.3 "/>
<text text-anchor="middle" x="175.02" y="-504.7" font-family="Courier New" font-size="14.00">unallocated (12)</text>
<polyline fill="none" stroke="black" points="275.23,-496.5 275.23,-521.3 "/>
<text text-anchor="middle" x="606.48" y="-504.7" font-family="Courier New" font-size="14.00">address: InitializableAbstractStrategy._deprecated_platformAddress (20)</text>
<polyline fill="none" stroke="black" points="74.81,-496.5 938.54,-496.5 "/>
<text text-anchor="middle" x="181.52" y="-479.9" font-family="Courier New" font-size="14.00">unallocated (12)</text>
<polyline fill="none" stroke="black" points="288.23,-471.7 288.23,-496.5 "/>
<text text-anchor="middle" x="613.38" y="-479.9" font-family="Courier New" font-size="14.00">address: InitializableAbstractStrategy._deprecated_vaultAddress (20)</text>
<polyline fill="none" stroke="black" points="74.81,-471.7 938.54,-471.7 "/>
<text text-anchor="middle" x="506.36" y="-455.1" font-family="Courier New" font-size="14.00">mapping(address=&gt;address): InitializableAbstractStrategy.assetToPToken (32)</text>
<polyline fill="none" stroke="black" points="74.81,-446.9 938.54,-446.9 "/>
<text text-anchor="middle" x="506.45" y="-430.3" font-family="Courier New" font-size="14.00">address[]: InitializableAbstractStrategy.assetsMapped (32)</text>
<polyline fill="none" stroke="black" points="74.81,-422.1 938.54,-422.1 "/>
<text text-anchor="middle" x="168.52" y="-405.5" font-family="Courier New" font-size="14.00">unallocated (12)</text>
<polyline fill="none" stroke="black" points="262.23,-397.3 262.23,-422.1 "/>
<text text-anchor="middle" x="600.08" y="-405.5" font-family="Courier New" font-size="14.00">address: InitializableAbstractStrategy._deprecated_rewardTokenAddress (20)</text>
<polyline fill="none" stroke="black" points="74.81,-397.3 938.54,-397.3 "/>
<text text-anchor="middle" x="506.27" y="-380.7" font-family="Courier New" font-size="14.00">uint256: InitializableAbstractStrategy._deprecated_rewardLiquidationThreshold (32)</text>
<polyline fill="none" stroke="black" points="74.81,-372.5 938.54,-372.5 "/>
<text text-anchor="middle" x="198.02" y="-355.9" font-family="Courier New" font-size="14.00">unallocated (12)</text>
<polyline fill="none" stroke="black" points="321.23,-347.7 321.23,-372.5 "/>
<text text-anchor="middle" x="629.77" y="-355.9" font-family="Courier New" font-size="14.00">address: InitializableAbstractStrategy.harvesterAddress (20)</text>
<polyline fill="none" stroke="black" points="74.81,-347.7 938.54,-347.7 "/>
<text text-anchor="middle" x="506.55" y="-331.1" font-family="Courier New" font-size="14.00">address[]: InitializableAbstractStrategy.rewardTokenAddresses (32)</text>
<polyline fill="none" stroke="black" points="74.81,-322.9 938.54,-322.9 "/>
<text text-anchor="middle" x="506.45" y="-306.3" font-family="Courier New" font-size="14.00">int256[98]: InitializableAbstractStrategy._reserved (3136)</text>
<polyline fill="none" stroke="black" points="74.81,-298.1 938.54,-298.1 "/>
<text text-anchor="middle" x="206.52" y="-281.5" font-family="Courier New" font-size="14.00">unallocated (12)</text>
<polyline fill="none" stroke="black" points="338.23,-273.3 338.23,-298.1 "/>
<text text-anchor="middle" x="637.97" y="-281.5" font-family="Courier New" font-size="14.00">address: BaseCurveStrategy.deprecated_pTokenAddress (20)</text>
<polyline fill="none" stroke="black" points="74.81,-273.3 938.54,-273.3 "/>
<text text-anchor="middle" x="506.24" y="-256.7" font-family="Courier New" font-size="14.00">int256[49]: BaseCurveStrategy.__reserved (1568)</text>
<polyline fill="none" stroke="black" points="74.81,-248.5 938.54,-248.5 "/>
<text text-anchor="middle" x="206.52" y="-231.9" font-family="Courier New" font-size="14.00">unallocated (12)</text>
<polyline fill="none" stroke="black" points="338.23,-223.7 338.23,-248.5 "/>
<text text-anchor="middle" x="637.97" y="-231.9" font-family="Courier New" font-size="14.00">address: BaseConvexMetaStrategy.cvxDepositorAddress (20)</text>
<polyline fill="none" stroke="black" points="74.81,-223.7 938.54,-223.7 "/>
<text text-anchor="middle" x="200.02" y="-207.1" font-family="Courier New" font-size="14.00">unallocated (12)</text>
<polyline fill="none" stroke="black" points="325.23,-198.9 325.23,-223.7 "/>
<text text-anchor="middle" x="631.57" y="-207.1" font-family="Courier New" font-size="14.00">address: BaseConvexMetaStrategy.cvxRewardStakerAddress (20)</text>
<polyline fill="none" stroke="black" points="74.81,-198.9 938.54,-198.9 "/>
<text text-anchor="middle" x="506.25" y="-182.3" font-family="Courier New" font-size="14.00">uint256: BaseConvexMetaStrategy.cvxDepositorPTokenId (32)</text>
<polyline fill="none" stroke="black" points="74.81,-174.1 938.54,-174.1 "/>
<text text-anchor="middle" x="215.02" y="-157.5" font-family="Courier New" font-size="14.00">unallocated (12)</text>
<polyline fill="none" stroke="black" points="355.23,-149.3 355.23,-174.1 "/>
<text text-anchor="middle" x="646.67" y="-157.5" font-family="Courier New" font-size="14.00">ICurveMetaPool: BaseConvexMetaStrategy.metapool (20)</text>
<polyline fill="none" stroke="black" points="74.81,-149.3 938.54,-149.3 "/>
<text text-anchor="middle" x="213.02" y="-132.7" font-family="Courier New" font-size="14.00">unallocated (12)</text>
<polyline fill="none" stroke="black" points="351.23,-124.5 351.23,-149.3 "/>
<text text-anchor="middle" x="644.87" y="-132.7" font-family="Courier New" font-size="14.00">IERC20: BaseConvexMetaStrategy.metapoolMainToken (20)</text>
<polyline fill="none" stroke="black" points="74.81,-124.5 938.54,-124.5 "/>
<text text-anchor="middle" x="217.02" y="-107.9" font-family="Courier New" font-size="14.00">unallocated (12)</text>
<polyline fill="none" stroke="black" points="359.23,-99.7 359.23,-124.5 "/>
<text text-anchor="middle" x="648.47" y="-107.9" font-family="Courier New" font-size="14.00">IERC20: BaseConvexMetaStrategy.metapoolLPToken (20)</text>
<polyline fill="none" stroke="black" points="74.81,-99.7 938.54,-99.7 "/>
<text text-anchor="middle" x="506.45" y="-83.1" font-family="Courier New" font-size="14.00">address[]: BaseConvexMetaStrategy.metapoolAssets (32)</text>
<polyline fill="none" stroke="black" points="74.81,-74.9 938.54,-74.9 "/>
<text text-anchor="middle" x="506.45" y="-58.3" font-family="Courier New" font-size="14.00">uint256: BaseConvexMetaStrategy.maxWithdrawalSlippage (32)</text>
<polyline fill="none" stroke="black" points="74.81,-50.1 938.54,-50.1 "/>
<text text-anchor="middle" x="292.84" y="-33.5" font-family="Courier New" font-size="14.00">uint128: BaseConvexMetaStrategy.mainCoinIndex (16)</text>
<polyline fill="none" stroke="black" points="510.88,-25.3 510.88,-50.1 "/>
<text text-anchor="middle" x="724.71" y="-33.5" font-family="Courier New" font-size="14.00">uint128: BaseConvexMetaStrategy.crvCoinIndex (16)</text>
<polyline fill="none" stroke="black" points="74.81,-25.3 938.54,-25.3 "/>
<text text-anchor="middle" x="506.45" y="-8.7" font-family="Courier New" font-size="14.00">int256[41]: BaseConvexMetaStrategy.___reserved (1312)</text>
</g>
<!-- 1 -->
<g id="node2" class="node">
<title>1</title>
<polygon fill="#f2f2f2" stroke="black" points="974.54,-393.9 974.54,-485.1 1545.04,-485.1 1545.04,-393.9 974.54,-393.9"/>
<text text-anchor="middle" x="1259.79" y="-468.5" font-family="Courier New" font-size="14.00">address[]: assetsMapped &lt;&lt;Array&gt;&gt;</text>
<text text-anchor="middle" x="1259.79" y="-451.7" font-family="Courier New" font-size="14.00">0x4a11f94e20a93c79f6ec743a1954ec4fc2c08429ae2122118bf234b2185c81b8</text>
<polyline fill="none" stroke="black" points="974.54,-443.5 1545.04,-443.5 "/>
<text text-anchor="middle" x="1066.75" y="-426.9" font-family="Courier New" font-size="14.00">offset</text>
<polyline fill="none" stroke="black" points="974.54,-418.7 1158.95,-418.7 "/>
<text text-anchor="middle" x="1066.75" y="-402.1" font-family="Courier New" font-size="14.00">0</text>
<polyline fill="none" stroke="black" points="1158.95,-393.9 1158.95,-443.5 "/>
<text text-anchor="middle" x="1351.57" y="-426.9" font-family="Courier New" font-size="14.00">type: variable (bytes)</text>
<polyline fill="none" stroke="black" points="1158.95,-418.7 1544.19,-418.7 "/>
<text text-anchor="middle" x="1263.66" y="-402.1" font-family="Courier New" font-size="14.00">unallocated (12)</text>
<polyline fill="none" stroke="black" points="1368.38,-393.9 1368.38,-418.7 "/>
<text text-anchor="middle" x="1456.28" y="-402.1" font-family="Courier New" font-size="14.00">address (20)</text>
</g>
<!-- 4&#45;&gt;1 -->
<g id="edge1" class="edge">
<title>4:8&#45;&gt;1</title>
<path fill="none" stroke="black" d="M938.54,-434.5C946.94,-434.5 955.45,-434.52 964.05,-434.55"/>
<polygon fill="black" stroke="black" points="964.16,-438.05 974.18,-434.6 964.19,-431.05 964.16,-438.05"/>
</g>
<!-- 2 -->
<g id="node3" class="node">
<title>2</title>
<polygon fill="#f2f2f2" stroke="black" points="974.54,-283.9 974.54,-375.1 1545.04,-375.1 1545.04,-283.9 974.54,-283.9"/>
<text text-anchor="middle" x="1259.79" y="-358.5" font-family="Courier New" font-size="14.00">address[]: rewardTokenAddresses &lt;&lt;Array&gt;&gt;</text>
<text text-anchor="middle" x="1259.79" y="-341.7" font-family="Courier New" font-size="14.00">0xa2999d817b6757290b50e8ecf3fa939673403dd35c97de392fdb343b4015ce9e</text>
<polyline fill="none" stroke="black" points="974.54,-333.5 1545.04,-333.5 "/>
<text text-anchor="middle" x="1066.75" y="-316.9" font-family="Courier New" font-size="14.00">offset</text>
<polyline fill="none" stroke="black" points="974.54,-308.7 1158.95,-308.7 "/>
<text text-anchor="middle" x="1066.75" y="-292.1" font-family="Courier New" font-size="14.00">0</text>
<polyline fill="none" stroke="black" points="1158.95,-283.9 1158.95,-333.5 "/>
<text text-anchor="middle" x="1351.57" y="-316.9" font-family="Courier New" font-size="14.00">type: variable (bytes)</text>
<polyline fill="none" stroke="black" points="1158.95,-308.7 1544.19,-308.7 "/>
<text text-anchor="middle" x="1263.66" y="-292.1" font-family="Courier New" font-size="14.00">unallocated (12)</text>
<polyline fill="none" stroke="black" points="1368.38,-283.9 1368.38,-308.7 "/>
<text text-anchor="middle" x="1456.28" y="-292.1" font-family="Courier New" font-size="14.00">address (20)</text>
</g>
<!-- 4&#45;&gt;2 -->
<g id="edge2" class="edge">
<title>4:13&#45;&gt;2</title>
<path fill="none" stroke="black" d="M938.54,-335.5C946.94,-335.5 955.46,-335.48 964.05,-335.44"/>
<polygon fill="black" stroke="black" points="964.2,-338.94 974.18,-335.39 964.16,-331.94 964.2,-338.94"/>
</g>
<!-- 3 -->
<g id="node4" class="node">
<title>3</title>
<polygon fill="#f2f2f2" stroke="black" points="974.54,-41.9 974.54,-133.1 1545.04,-133.1 1545.04,-41.9 974.54,-41.9"/>
<text text-anchor="middle" x="1259.79" y="-116.5" font-family="Courier New" font-size="14.00">address[]: metapoolAssets &lt;&lt;Array&gt;&gt;</text>
<text text-anchor="middle" x="1259.79" y="-99.7" font-family="Courier New" font-size="14.00">0x51858de9989bf7441865ebdadbf7382c8838edbf830f5d86a9a51ac773676dd6</text>
<polyline fill="none" stroke="black" points="974.54,-91.5 1545.04,-91.5 "/>
<text text-anchor="middle" x="1066.75" y="-74.9" font-family="Courier New" font-size="14.00">offset</text>
<polyline fill="none" stroke="black" points="974.54,-66.7 1158.95,-66.7 "/>
<text text-anchor="middle" x="1066.75" y="-50.1" font-family="Courier New" font-size="14.00">0</text>
<polyline fill="none" stroke="black" points="1158.95,-41.9 1158.95,-91.5 "/>
<text text-anchor="middle" x="1351.57" y="-74.9" font-family="Courier New" font-size="14.00">type: variable (bytes)</text>
<polyline fill="none" stroke="black" points="1158.95,-66.7 1544.19,-66.7 "/>
<text text-anchor="middle" x="1263.66" y="-50.1" font-family="Courier New" font-size="14.00">unallocated (12)</text>
<polyline fill="none" stroke="black" points="1368.38,-41.9 1368.38,-66.7 "/>
<text text-anchor="middle" x="1456.28" y="-50.1" font-family="Courier New" font-size="14.00">address (20)</text>
</g>
<!-- 4&#45;&gt;3 -->
<g id="edge3" class="edge">
<title>4:24&#45;&gt;3</title>
<path fill="none" stroke="black" d="M938.54,-87.5C946.94,-87.5 955.45,-87.5 964.05,-87.5"/>
<polygon fill="black" stroke="black" points="964.17,-91 974.17,-87.5 964.17,-84 964.17,-91"/>
</g>
</g>
</svg>
