<?xml version="1.0" encoding="UTF-8" standalone="no"?>
<!DOCTYPE svg PUBLIC "-//W3C//DTD SVG 1.1//EN"
 "http://www.w3.org/Graphics/SVG/1.1/DTD/svg11.dtd">
<!-- Generated by graphviz version 5.0.0 (20220707.1540)
 -->
<!-- Title: UmlClassDiagram Pages: 1 -->
<svg width="1309pt" height="432pt"
 viewBox="0.00 0.00 1309.22 432.20" xmlns="http://www.w3.org/2000/svg" xmlns:xlink="http://www.w3.org/1999/xlink">
<g id="graph0" class="graph" transform="scale(1 1) rotate(0) translate(4 428.2)">
<title>UmlClassDiagram</title>
<polygon fill="white" stroke="transparent" points="-4,4 -4,-428.2 1305.22,-428.2 1305.22,4 -4,4"/>
<!-- 20 -->
<g id="node1" class="node">
<title>20</title>
<polygon fill="#f2f2f2" stroke="black" points="230.18,-373.7 230.18,-415.3 465.04,-415.3 465.04,-373.7 230.18,-373.7"/>
<text text-anchor="middle" x="347.61" y="-398.7" font-family="Times,serif" font-size="14.00">Governable</text>
<text text-anchor="middle" x="347.61" y="-381.9" font-family="Times,serif" font-size="14.00">../contracts/governance/Governable.sol</text>
</g>
<!-- 157 -->
<g id="node2" class="node">
<title>157</title>
<polygon fill="#f2f2f2" stroke="black" points="330.61,-174.5 330.61,-232.9 596.6,-232.9 596.6,-174.5 330.61,-174.5"/>
<text text-anchor="middle" x="463.61" y="-216.3" font-family="Times,serif" font-size="14.00">&lt;&lt;Abstract&gt;&gt;</text>
<text text-anchor="middle" x="463.61" y="-199.5" font-family="Times,serif" font-size="14.00">BaseCurveStrategy</text>
<text text-anchor="middle" x="463.61" y="-182.7" font-family="Times,serif" font-size="14.00">../contracts/strategies/BaseCurveStrategy.sol</text>
</g>
<!-- 196 -->
<g id="node11" class="node">
<title>196</title>
<polygon fill="#f2f2f2" stroke="black" points="318.56,-269.9 318.56,-328.3 608.66,-328.3 608.66,-269.9 318.56,-269.9"/>
<text text-anchor="middle" x="463.61" y="-311.7" font-family="Times,serif" font-size="14.00">&lt;&lt;Abstract&gt;&gt;</text>
<text text-anchor="middle" x="463.61" y="-294.9" font-family="Times,serif" font-size="14.00">InitializableAbstractStrategy</text>
<text text-anchor="middle" x="463.61" y="-278.1" font-family="Times,serif" font-size="14.00">../contracts/utils/InitializableAbstractStrategy.sol</text>
</g>
<!-- 157&#45;&gt;196 -->
<g id="edge1" class="edge">
<title>157&#45;&gt;196</title>
<path fill="none" stroke="black" d="M463.61,-232.98C463.61,-235.06 463.61,-237.2 463.61,-239.38"/>
<polygon fill="none" stroke="black" points="453.11,-239.6 463.61,-269.6 474.11,-239.6 453.11,-239.6"/>
</g>
<!-- 160 -->
<g id="node3" class="node">
<title>160</title>
<polygon fill="#f2f2f2" stroke="black" points="167.11,-0.5 167.11,-42.1 454.11,-42.1 454.11,-0.5 167.11,-0.5"/>
<text text-anchor="middle" x="310.61" y="-25.5" font-family="Times,serif" font-size="14.00">ConvexCryptoStrategy</text>
<text text-anchor="middle" x="310.61" y="-8.7" font-family="Times,serif" font-size="14.00">../contracts/strategies/ConvexCryptoStrategy.sol</text>
</g>
<!-- 163 -->
<g id="node4" class="node">
<title>163</title>
<polygon fill="#f2f2f2" stroke="black" points="339.55,-79.1 339.55,-137.5 587.67,-137.5 587.67,-79.1 339.55,-79.1"/>
<text text-anchor="middle" x="463.61" y="-120.9" font-family="Times,serif" font-size="14.00">&lt;&lt;Abstract&gt;&gt;</text>
<text text-anchor="middle" x="463.61" y="-104.1" font-family="Times,serif" font-size="14.00">ConvexStrategy</text>
<text text-anchor="middle" x="463.61" y="-87.3" font-family="Times,serif" font-size="14.00">../contracts/strategies/ConvexStrategy.sol</text>
</g>
<!-- 160&#45;&gt;163 -->
<g id="edge3" class="edge">
<title>160&#45;&gt;163</title>
<path fill="none" stroke="black" d="M346.48,-42.23C358.48,-48.9 372.37,-56.61 386.28,-64.34"/>
<polygon fill="none" stroke="black" points="381.29,-73.58 412.61,-78.97 391.48,-55.22 381.29,-73.58"/>
</g>
<!-- 282 -->
<g id="node7" class="node">
<title>282</title>
<polygon fill="#f2f2f2" stroke="black" points="0,-87.5 0,-129.1 321.22,-129.1 321.22,-87.5 0,-87.5"/>
<text text-anchor="middle" x="160.61" y="-112.5" font-family="Times,serif" font-size="14.00">CurveCryptoFunctions</text>
<text text-anchor="middle" x="160.61" y="-95.7" font-family="Times,serif" font-size="14.00">../contracts/strategies/curve/CurveCryptoFunctions.sol</text>
</g>
<!-- 160&#45;&gt;282 -->
<g id="edge2" class="edge">
<title>160&#45;&gt;282</title>
<path fill="none" stroke="black" d="M275.44,-42.23C259.45,-51.29 240.07,-62.27 221.81,-72.62"/>
<polygon fill="none" stroke="black" points="216.48,-63.57 195.56,-87.5 226.83,-81.84 216.48,-63.57"/>
</g>
<!-- 163&#45;&gt;157 -->
<g id="edge4" class="edge">
<title>163&#45;&gt;157</title>
<path fill="none" stroke="black" d="M463.61,-137.58C463.61,-139.66 463.61,-141.8 463.61,-143.98"/>
<polygon fill="none" stroke="black" points="453.11,-144.2 463.61,-174.2 474.11,-144.2 453.11,-144.2"/>
</g>
<!-- 163&#45;&gt;196 -->
<g id="edge5" class="edge">
<title>163&#45;&gt;196</title>
<path fill="none" stroke="black" stroke-dasharray="5,2" d="M564.75,-137.66C580.95,-146.68 595.64,-158.51 605.61,-174 619.89,-196.2 619.89,-211.2 605.61,-233.4 597.51,-245.99 586.29,-256.16 573.68,-264.36"/>
<polygon fill="black" stroke="black" points="571.51,-261.58 564.75,-269.74 575.12,-267.58 571.51,-261.58"/>
</g>
<!-- 165 -->
<g id="node5" class="node">
<title>165</title>
<polygon fill="#f2f2f2" stroke="black" points="547.39,-0.5 547.39,-42.1 853.82,-42.1 853.82,-0.5 547.39,-0.5"/>
<text text-anchor="middle" x="700.61" y="-25.5" font-family="Times,serif" font-size="14.00">ConvexThreePoolStrategy</text>
<text text-anchor="middle" x="700.61" y="-8.7" font-family="Times,serif" font-size="14.00">../contracts/strategies/ConvexThreePoolStrategy.sol</text>
</g>
<!-- 165&#45;&gt;163 -->
<g id="edge7" class="edge">
<title>165&#45;&gt;163</title>
<path fill="none" stroke="black" d="M645.34,-42.12C623.08,-50.11 596.61,-59.6 570.85,-68.84"/>
<polygon fill="none" stroke="black" points="567.04,-59.05 542.34,-79.06 574.12,-78.82 567.04,-59.05"/>
</g>
<!-- 283 -->
<g id="node8" class="node">
<title>283</title>
<polygon fill="#f2f2f2" stroke="black" points="605.51,-87.5 605.51,-129.1 947.71,-129.1 947.71,-87.5 605.51,-87.5"/>
<text text-anchor="middle" x="776.61" y="-112.5" font-family="Times,serif" font-size="14.00">CurveThreeCoinFunctions</text>
<text text-anchor="middle" x="776.61" y="-95.7" font-family="Times,serif" font-size="14.00">../contracts/strategies/curve/CurveThreeCoinFunctions.sol</text>
</g>
<!-- 165&#45;&gt;283 -->
<g id="edge6" class="edge">
<title>165&#45;&gt;283</title>
<path fill="none" stroke="black" d="M718.62,-42.44C724.68,-49.22 731.68,-57.05 738.68,-64.88"/>
<polygon fill="none" stroke="black" points="730.9,-71.94 758.73,-87.3 746.56,-57.94 730.9,-71.94"/>
</g>
<!-- 166 -->
<g id="node6" class="node">
<title>166</title>
<polygon fill="#f2f2f2" stroke="black" points="927.88,-0.5 927.88,-42.1 1227.33,-42.1 1227.33,-0.5 927.88,-0.5"/>
<text text-anchor="middle" x="1077.61" y="-25.5" font-family="Times,serif" font-size="14.00">ConvexTwoPoolStrategy</text>
<text text-anchor="middle" x="1077.61" y="-8.7" font-family="Times,serif" font-size="14.00">../contracts/strategies/ConvexTwoPoolStrategy.sol</text>
</g>
<!-- 166&#45;&gt;163 -->
<g id="edge9" class="edge">
<title>166&#45;&gt;163</title>
<path fill="none" stroke="black" d="M927.86,-36.09C840.58,-44.97 727.68,-57.9 617.59,-75.28"/>
<polygon fill="none" stroke="black" points="615.72,-64.95 587.78,-80.11 619.08,-85.68 615.72,-64.95"/>
</g>
<!-- 284 -->
<g id="node9" class="node">
<title>284</title>
<polygon fill="#f2f2f2" stroke="black" points="966,-87.5 966,-129.1 1301.22,-129.1 1301.22,-87.5 966,-87.5"/>
<text text-anchor="middle" x="1133.61" y="-112.5" font-family="Times,serif" font-size="14.00">CurveTwoCoinFunctions</text>
<text text-anchor="middle" x="1133.61" y="-95.7" font-family="Times,serif" font-size="14.00">../contracts/strategies/curve/CurveTwoCoinFunctions.sol</text>
</g>
<!-- 166&#45;&gt;284 -->
<g id="edge8" class="edge">
<title>166&#45;&gt;284</title>
<path fill="none" stroke="black" d="M1090.88,-42.44C1094.79,-48.37 1099.23,-55.11 1103.73,-61.95"/>
<polygon fill="none" stroke="black" points="1095.16,-68.03 1120.43,-87.3 1112.7,-56.47 1095.16,-68.03"/>
</g>
<!-- 195 -->
<g id="node10" class="node">
<title>195</title>
<polygon fill="#f2f2f2" stroke="black" points="482.6,-365.3 482.6,-423.7 678.61,-423.7 678.61,-365.3 482.6,-365.3"/>
<text text-anchor="middle" x="580.61" y="-407.1" font-family="Times,serif" font-size="14.00">&lt;&lt;Abstract&gt;&gt;</text>
<text text-anchor="middle" x="580.61" y="-390.3" font-family="Times,serif" font-size="14.00">Initializable</text>
<text text-anchor="middle" x="580.61" y="-373.5" font-family="Times,serif" font-size="14.00">../contracts/utils/Initializable.sol</text>
</g>
<!-- 196&#45;&gt;20 -->
<g id="edge11" class="edge">
<title>196&#45;&gt;20</title>
<path fill="none" stroke="black" d="M428.49,-328.38C418.29,-336.59 406.96,-345.71 396.09,-354.46"/>
<polygon fill="none" stroke="black" points="389.09,-346.62 372.31,-373.61 402.26,-362.98 389.09,-346.62"/>
</g>
<!-- 196&#45;&gt;195 -->
<g id="edge10" class="edge">
<title>196&#45;&gt;195</title>
<path fill="none" stroke="black" d="M499.03,-328.38C506.07,-333.99 513.63,-340.04 521.22,-346.09"/>
<polygon fill="none" stroke="black" points="514.91,-354.49 544.9,-365 528.01,-338.07 514.91,-354.49"/>
</g>
</g>
</svg>
