<?xml version="1.0" encoding="UTF-8" standalone="no"?>
<!DOCTYPE svg PUBLIC "-//W3C//DTD SVG 1.1//EN"
 "http://www.w3.org/Graphics/SVG/1.1/DTD/svg11.dtd">
<!-- Generated by graphviz version 5.0.0 (20220707.1540)
 -->
<!-- Title: UmlClassDiagram Pages: 1 -->
<svg width="1277pt" height="780pt"
 viewBox="0.00 0.00 1276.92 780.20" xmlns="http://www.w3.org/2000/svg" xmlns:xlink="http://www.w3.org/1999/xlink">
<g id="graph0" class="graph" transform="scale(1 1) rotate(0) translate(4 776.2)">
<title>UmlClassDiagram</title>
<polygon fill="white" stroke="transparent" points="-4,4 -4,-776.2 1272.92,-776.2 1272.92,4 -4,4"/>
<!-- 7 -->
<g id="node1" class="node">
<title>7</title>
<polygon fill="#f2f2f2" stroke="black" points="32.05,-626.3 32.05,-667.9 266.91,-667.9 266.91,-626.3 32.05,-626.3"/>
<text text-anchor="middle" x="149.48" y="-651.3" font-family="Times,serif" font-size="14.00">Governable</text>
<text text-anchor="middle" x="149.48" y="-634.5" font-family="Times,serif" font-size="14.00">../contracts/governance/Governable.sol</text>
</g>
<!-- 40 -->
<g id="node2" class="node">
<title>40</title>
<polygon fill="#f2f2f2" stroke="black" points="50.87,-365.3 50.87,-423.7 246.09,-423.7 246.09,-365.3 50.87,-365.3"/>
<text text-anchor="middle" x="148.48" y="-407.1" font-family="Times,serif" font-size="14.00">&lt;&lt;Interface&gt;&gt;</text>
<text text-anchor="middle" x="148.48" y="-390.3" font-family="Times,serif" font-size="14.00">IVault</text>
<text text-anchor="middle" x="148.48" y="-373.5" font-family="Times,serif" font-size="14.00">../contracts/interfaces/IVault.sol</text>
</g>
<!-- 177 -->
<g id="node13" class="node">
<title>177</title>
<polygon fill="#f2f2f2" stroke="black" points="313.03,-460.7 313.03,-502.3 519.93,-502.3 519.93,-460.7 313.03,-460.7"/>
<text text-anchor="middle" x="416.48" y="-485.7" font-family="Times,serif" font-size="14.00">VaultStorage</text>
<text text-anchor="middle" x="416.48" y="-468.9" font-family="Times,serif" font-size="14.00">../contracts/vault/VaultStorage.sol</text>
</g>
<!-- 40&#45;&gt;177 -->
<g id="edge1" class="edge">
<title>40&#45;&gt;177</title>
<path fill="none" stroke="black" stroke-dasharray="5,2" d="M237.72,-423.8C272.22,-434.75 311.19,-447.11 343.92,-457.49"/>
<polygon fill="black" stroke="black" points="343.27,-460.95 353.86,-460.64 345.39,-454.28 343.27,-460.95"/>
</g>
<!-- 141 -->
<g id="node3" class="node">
<title>141</title>
<polygon fill="#f2f2f2" stroke="black" points="461.92,-174.5 461.92,-232.9 717.04,-232.9 717.04,-174.5 461.92,-174.5"/>
<text text-anchor="middle" x="589.48" y="-216.3" font-family="Times,serif" font-size="14.00">&lt;&lt;Interface&gt;&gt;</text>
<text text-anchor="middle" x="589.48" y="-199.5" font-family="Times,serif" font-size="14.00">IConvexDeposits</text>
<text text-anchor="middle" x="589.48" y="-182.7" font-family="Times,serif" font-size="14.00">../contracts/strategies/IConvexDeposits.sol</text>
</g>
<!-- 142 -->
<g id="node4" class="node">
<title>142</title>
<polygon fill="#f2f2f2" stroke="black" points="735.09,-174.5 735.09,-232.9 1001.87,-232.9 1001.87,-174.5 735.09,-174.5"/>
<text text-anchor="middle" x="868.48" y="-216.3" font-family="Times,serif" font-size="14.00">&lt;&lt;Interface&gt;&gt;</text>
<text text-anchor="middle" x="868.48" y="-199.5" font-family="Times,serif" font-size="14.00">ICurveETHPoolV1</text>
<text text-anchor="middle" x="868.48" y="-182.7" font-family="Times,serif" font-size="14.00">../contracts/strategies/ICurveETHPoolV1.sol</text>
</g>
<!-- 146 -->
<g id="node5" class="node">
<title>146</title>
<polygon fill="#f2f2f2" stroke="black" points="1020.04,-174.5 1020.04,-232.9 1268.92,-232.9 1268.92,-174.5 1020.04,-174.5"/>
<text text-anchor="middle" x="1144.48" y="-216.3" font-family="Times,serif" font-size="14.00">&lt;&lt;Interface&gt;&gt;</text>
<text text-anchor="middle" x="1144.48" y="-199.5" font-family="Times,serif" font-size="14.00">IRewardStaking</text>
<text text-anchor="middle" x="1144.48" y="-182.7" font-family="Times,serif" font-size="14.00">../contracts/strategies/IRewardStaking.sol</text>
</g>
<!-- 215 -->
<g id="node6" class="node">
<title>215</title>
<polygon fill="#f2f2f2" stroke="black" points="151.26,-174.5 151.26,-232.9 443.7,-232.9 443.7,-174.5 151.26,-174.5"/>
<text text-anchor="middle" x="297.48" y="-216.3" font-family="Times,serif" font-size="14.00">&lt;&lt;Abstract&gt;&gt;</text>
<text text-anchor="middle" x="297.48" y="-199.5" font-family="Times,serif" font-size="14.00">BaseAMOStrategy</text>
<text text-anchor="middle" x="297.48" y="-182.7" font-family="Times,serif" font-size="14.00">../contracts/strategies/amo/BaseAMOStrategy.sol</text>
</g>
<!-- 215&#45;&gt;40 -->
<g id="edge4" class="edge">
<title>215&#45;&gt;40</title>
<path fill="none" stroke="black" stroke-dasharray="5,2" d="M185.26,-233C168.74,-241.99 153.83,-253.82 143.48,-269.4 126.89,-294.37 129.79,-328.83 135.91,-355.1"/>
<polygon fill="black" stroke="black" points="132.6,-356.27 138.48,-365.08 139.38,-354.53 132.6,-356.27"/>
</g>
<!-- 165 -->
<g id="node11" class="node">
<title>165</title>
<polygon fill="#f2f2f2" stroke="black" points="152.43,-269.9 152.43,-328.3 442.53,-328.3 442.53,-269.9 152.43,-269.9"/>
<text text-anchor="middle" x="297.48" y="-311.7" font-family="Times,serif" font-size="14.00">&lt;&lt;Abstract&gt;&gt;</text>
<text text-anchor="middle" x="297.48" y="-294.9" font-family="Times,serif" font-size="14.00">InitializableAbstractStrategy</text>
<text text-anchor="middle" x="297.48" y="-278.1" font-family="Times,serif" font-size="14.00">../contracts/utils/InitializableAbstractStrategy.sol</text>
</g>
<!-- 215&#45;&gt;165 -->
<g id="edge2" class="edge">
<title>215&#45;&gt;165</title>
<path fill="none" stroke="black" d="M297.48,-232.98C297.48,-235.06 297.48,-237.2 297.48,-239.38"/>
<polygon fill="none" stroke="black" points="286.98,-239.6 297.48,-269.6 307.98,-239.6 286.98,-239.6"/>
</g>
<!-- 346 -->
<g id="node14" class="node">
<title>346</title>
<polygon fill="#f2f2f2" stroke="black" points="225.43,-713.3 225.43,-771.7 629.54,-771.7 629.54,-713.3 225.43,-713.3"/>
<text text-anchor="middle" x="427.48" y="-755.1" font-family="Times,serif" font-size="14.00">&lt;&lt;Interface&gt;&gt;</text>
<text text-anchor="middle" x="427.48" y="-738.3" font-family="Times,serif" font-size="14.00">IERC20</text>
<text text-anchor="middle" x="427.48" y="-721.5" font-family="Times,serif" font-size="14.00">../node_modules/@openzeppelin/contracts/token/ERC20/IERC20.sol</text>
</g>
<!-- 215&#45;&gt;346 -->
<g id="edge3" class="edge">
<title>215&#45;&gt;346</title>
<path fill="none" stroke="black" d="M173.65,-232.97C93.68,-259.39 4.48,-308.02 4.48,-393.5 4.48,-393.5 4.48,-393.5 4.48,-561.1 4.48,-613.21 -13.44,-640.03 23.48,-676.8 51.74,-704.95 132.96,-720.85 215.23,-729.84"/>
<polygon fill="black" stroke="black" points="214.96,-733.33 225.27,-730.9 215.69,-726.37 214.96,-733.33"/>
</g>
<!-- 217 -->
<g id="node7" class="node">
<title>217</title>
<polygon fill="#f2f2f2" stroke="black" points="275.49,-79.1 275.49,-137.5 611.48,-137.5 611.48,-79.1 275.49,-79.1"/>
<text text-anchor="middle" x="443.48" y="-120.9" font-family="Times,serif" font-size="14.00">&lt;&lt;Abstract&gt;&gt;</text>
<text text-anchor="middle" x="443.48" y="-104.1" font-family="Times,serif" font-size="14.00">BaseConvexAMOStrategy</text>
<text text-anchor="middle" x="443.48" y="-87.3" font-family="Times,serif" font-size="14.00">../contracts/strategies/amo/BaseConvexAMOStrategy.sol</text>
</g>
<!-- 217&#45;&gt;141 -->
<g id="edge8" class="edge">
<title>217&#45;&gt;141</title>
<path fill="none" stroke="black" stroke-dasharray="5,2" d="M487.68,-137.58C503.05,-147.41 520.44,-158.53 536.45,-168.77"/>
<polygon fill="black" stroke="black" points="534.87,-171.92 545.18,-174.36 538.64,-166.02 534.87,-171.92"/>
</g>
<!-- 217&#45;&gt;142 -->
<g id="edge7" class="edge">
<title>217&#45;&gt;142</title>
<path fill="none" stroke="black" d="M571.86,-137.51C621.8,-148.49 679.13,-161.09 730,-172.27"/>
<polygon fill="black" stroke="black" points="729.57,-175.76 740.08,-174.48 731.07,-168.92 729.57,-175.76"/>
</g>
<!-- 217&#45;&gt;146 -->
<g id="edge6" class="edge">
<title>217&#45;&gt;146</title>
<path fill="none" stroke="black" d="M611.54,-124.15C722.03,-134.94 869.9,-151.36 1009.68,-173.93"/>
<polygon fill="black" stroke="black" points="1009.3,-177.41 1019.73,-175.57 1010.42,-170.5 1009.3,-177.41"/>
</g>
<!-- 217&#45;&gt;215 -->
<g id="edge5" class="edge">
<title>217&#45;&gt;215</title>
<path fill="none" stroke="black" d="M399.28,-137.58C389.18,-144.04 378.2,-151.06 367.31,-158.03"/>
<polygon fill="none" stroke="black" points="361.4,-149.35 341.78,-174.36 372.71,-167.04 361.4,-149.35"/>
</g>
<!-- 220 -->
<g id="node8" class="node">
<title>220</title>
<polygon fill="#f2f2f2" stroke="black" points="265.76,-0.5 265.76,-42.1 621.2,-42.1 621.2,-0.5 265.76,-0.5"/>
<text text-anchor="middle" x="443.48" y="-25.5" font-family="Times,serif" font-size="14.00">ConvexFrxETHAMOStrategy</text>
<text text-anchor="middle" x="443.48" y="-8.7" font-family="Times,serif" font-size="14.00">../contracts/strategies/amo/ConvexFrxETHAMOStrategy.sol</text>
</g>
<!-- 220&#45;&gt;217 -->
<g id="edge9" class="edge">
<title>220&#45;&gt;217</title>
<path fill="none" stroke="black" d="M443.48,-42.44C443.48,-44.49 443.48,-46.63 443.48,-48.83"/>
<polygon fill="none" stroke="black" points="432.98,-48.94 443.48,-78.94 453.98,-48.94 432.98,-48.94"/>
</g>
<!-- 157 -->
<g id="node9" class="node">
<title>157</title>
<polygon fill="#f2f2f2" stroke="black" points="340.35,-539.3 340.35,-580.9 514.61,-580.9 514.61,-539.3 340.35,-539.3"/>
<text text-anchor="middle" x="427.48" y="-564.3" font-family="Times,serif" font-size="14.00">OUSD</text>
<text text-anchor="middle" x="427.48" y="-547.5" font-family="Times,serif" font-size="14.00">../contracts/token/OUSD.sol</text>
</g>
<!-- 157&#45;&gt;7 -->
<g id="edge12" class="edge">
<title>157&#45;&gt;7</title>
<path fill="none" stroke="black" d="M362.65,-580.92C327.11,-591.79 282.42,-605.45 243.14,-617.46"/>
<polygon fill="none" stroke="black" points="240.03,-607.43 214.41,-626.25 246.17,-627.52 240.03,-607.43"/>
</g>
<!-- 164 -->
<g id="node10" class="node">
<title>164</title>
<polygon fill="#f2f2f2" stroke="black" points="587.47,-617.9 587.47,-676.3 783.49,-676.3 783.49,-617.9 587.47,-617.9"/>
<text text-anchor="middle" x="685.48" y="-659.7" font-family="Times,serif" font-size="14.00">&lt;&lt;Abstract&gt;&gt;</text>
<text text-anchor="middle" x="685.48" y="-642.9" font-family="Times,serif" font-size="14.00">Initializable</text>
<text text-anchor="middle" x="685.48" y="-626.1" font-family="Times,serif" font-size="14.00">../contracts/utils/Initializable.sol</text>
</g>
<!-- 157&#45;&gt;164 -->
<g id="edge10" class="edge">
<title>157&#45;&gt;164</title>
<path fill="none" stroke="black" d="M487.64,-580.92C512.53,-589.12 542.25,-598.91 570.99,-608.38"/>
<polygon fill="none" stroke="black" points="567.99,-618.45 599.77,-617.86 574.56,-598.5 567.99,-618.45"/>
</g>
<!-- 167 -->
<g id="node12" class="node">
<title>167</title>
<polygon fill="#f2f2f2" stroke="black" points="285.15,-617.9 285.15,-676.3 569.81,-676.3 569.81,-617.9 285.15,-617.9"/>
<text text-anchor="middle" x="427.48" y="-659.7" font-family="Times,serif" font-size="14.00">&lt;&lt;Abstract&gt;&gt;</text>
<text text-anchor="middle" x="427.48" y="-642.9" font-family="Times,serif" font-size="14.00">InitializableERC20Detailed</text>
<text text-anchor="middle" x="427.48" y="-626.1" font-family="Times,serif" font-size="14.00">../contracts/utils/InitializableERC20Detailed.sol</text>
</g>
<!-- 157&#45;&gt;167 -->
<g id="edge11" class="edge">
<title>157&#45;&gt;167</title>
<path fill="none" stroke="black" d="M427.48,-581.24C427.48,-583.29 427.48,-585.43 427.48,-587.63"/>
<polygon fill="none" stroke="black" points="416.98,-587.74 427.48,-617.74 437.98,-587.74 416.98,-587.74"/>
</g>
<!-- 165&#45;&gt;7 -->
<g id="edge14" class="edge">
<title>165&#45;&gt;7</title>
<path fill="none" stroke="black" d="M288.92,-328.55C281.03,-353.93 268.58,-391.96 255.48,-424.2 230.34,-486.07 196.34,-555.19 173.7,-599.59"/>
<polygon fill="none" stroke="black" points="164.36,-594.79 159.94,-626.27 183.03,-604.42 164.36,-594.79"/>
</g>
<!-- 165&#45;&gt;40 -->
<g id="edge17" class="edge">
<title>165&#45;&gt;40</title>
<path fill="none" stroke="black" stroke-dasharray="5,2" d="M252.37,-328.38C236.69,-338.21 218.94,-349.33 202.6,-359.57"/>
<polygon fill="black" stroke="black" points="200.31,-356.88 193.69,-365.16 204.03,-362.81 200.31,-356.88"/>
</g>
<!-- 165&#45;&gt;164 -->
<g id="edge13" class="edge">
<title>165&#45;&gt;164</title>
<path fill="none" stroke="black" d="M345.74,-328.32C394.44,-357.97 470.53,-407.52 528.48,-460.2 573.29,-500.93 617.14,-554.33 647.06,-593.45"/>
<polygon fill="none" stroke="black" points="638.79,-599.92 665.18,-617.64 655.6,-587.33 638.79,-599.92"/>
</g>
<!-- 165&#45;&gt;165 -->
<g id="edge15" class="edge">
<title>165&#45;&gt;165</title>
<path fill="none" stroke="black" stroke-dasharray="5,2" d="M442.69,-285.88C453.73,-288.82 460.53,-293.22 460.53,-299.1 460.53,-302.96 457.6,-306.18 452.47,-308.77"/>
<polygon fill="black" stroke="black" points="450.9,-305.62 442.69,-312.32 453.29,-312.2 450.9,-305.62"/>
</g>
<!-- 165&#45;&gt;346 -->
<g id="edge16" class="edge">
<title>165&#45;&gt;346</title>
<path fill="none" stroke="black" stroke-dasharray="5,2" d="M442.71,-322.08C594.71,-349.3 811.48,-401.89 811.48,-480.5 811.48,-480.5 811.48,-480.5 811.48,-561.1 811.48,-613.21 829.09,-639.72 792.48,-676.8 769.42,-700.15 706.81,-715.17 639.82,-724.78"/>
<polygon fill="black" stroke="black" points="639.33,-721.31 629.9,-726.16 640.29,-728.25 639.33,-721.31"/>
</g>
<!-- 167&#45;&gt;346 -->
<g id="edge18" class="edge">
<title>167&#45;&gt;346</title>
<path fill="none" stroke="black" stroke-dasharray="5,2" d="M427.48,-676.38C427.48,-678.46 427.48,-680.6 427.48,-682.78"/>
<polygon fill="none" stroke="black" points="416.98,-683 427.48,-713 437.98,-683 416.98,-683"/>
</g>
<!-- 177&#45;&gt;7 -->
<g id="edge20" class="edge">
<title>177&#45;&gt;7</title>
<path fill="none" stroke="black" d="M383.14,-502.45C367.01,-512.63 347.68,-525.62 331.48,-538.8 310.61,-555.78 310.56,-566.03 288.48,-581.4 270.87,-593.66 250.56,-604.62 231.01,-613.87"/>
<polygon fill="none" stroke="black" points="226.45,-604.41 203.29,-626.17 234.97,-623.6 226.45,-604.41"/>
</g>
<!-- 177&#45;&gt;157 -->
<g id="edge21" class="edge">
<title>177&#45;&gt;157</title>
<path fill="none" stroke="black" d="M419.37,-502.63C420.53,-510.72 421.9,-520.22 423.17,-529.1"/>
<polygon fill="black" stroke="black" points="419.72,-529.71 424.61,-539.11 426.65,-528.71 419.72,-529.71"/>
</g>
<!-- 177&#45;&gt;164 -->
<g id="edge19" class="edge">
<title>177&#45;&gt;164</title>
<path fill="none" stroke="black" d="M456.64,-502.42C476.94,-512.79 501.81,-525.96 523.48,-538.8 556.04,-558.08 591.16,-581.06 620.36,-600.8"/>
<polygon fill="none" stroke="black" points="614.57,-609.56 645.26,-617.82 626.42,-592.23 614.57,-609.56"/>
</g>
</g>
</svg>
