<?xml version="1.0" encoding="UTF-8" standalone="no"?>
<!DOCTYPE svg PUBLIC "-//W3C//DTD SVG 1.1//EN"
 "http://www.w3.org/Graphics/SVG/1.1/DTD/svg11.dtd">
<!-- Generated by graphviz version 5.0.0 (20220707.1540)
 -->
<!-- Title: StorageDiagram Pages: 1 -->
<svg width="1469pt" height="530pt"
 viewBox="0.00 0.00 1469.02 529.80" xmlns="http://www.w3.org/2000/svg" xmlns:xlink="http://www.w3.org/1999/xlink">
<g id="graph0" class="graph" transform="scale(1 1) rotate(0) translate(4 525.8)">
<title>StorageDiagram</title>
<polygon fill="white" stroke="transparent" points="-4,4 -4,-525.8 1465.02,-525.8 1465.02,4 -4,4"/>
<!-- 3 -->
<g id="node1" class="node">
<title>3</title>
<polygon fill="#f2f2f2" stroke="black" points="0,-0.5 0,-521.3 854.53,-521.3 854.53,-0.5 0,-0.5"/>
<text text-anchor="middle" x="427.27" y="-504.7" font-family="Courier New" font-size="14.00">ConvexEthMetaStrategy &lt;&lt;Contract&gt;&gt;</text>
<polyline fill="none" stroke="black" points="0,-496.5 854.53,-496.5 "/>
<text text-anchor="middle" x="33.2" y="-479.9" font-family="Courier New" font-size="14.00">slot</text>
<polyline fill="none" stroke="black" points="0,-471.7 66.41,-471.7 "/>
<text text-anchor="middle" x="33.2" y="-455.1" font-family="Courier New" font-size="14.00">0</text>
<polyline fill="none" stroke="black" points="0,-446.9 66.41,-446.9 "/>
<text text-anchor="middle" x="33.2" y="-430.3" font-family="Courier New" font-size="14.00">1&#45;50</text>
<polyline fill="none" stroke="black" points="0,-422.1 66.41,-422.1 "/>
<text text-anchor="middle" x="33.2" y="-405.5" font-family="Courier New" font-size="14.00">51</text>
<polyline fill="none" stroke="black" points="0,-397.3 66.41,-397.3 "/>
<text text-anchor="middle" x="33.2" y="-380.7" font-family="Courier New" font-size="14.00">52</text>
<polyline fill="none" stroke="black" points="0,-372.5 66.41,-372.5 "/>
<text text-anchor="middle" x="33.2" y="-355.9" font-family="Courier New" font-size="14.00">53</text>
<polyline fill="none" stroke="black" points="0,-347.7 66.41,-347.7 "/>
<text text-anchor="middle" x="33.2" y="-331.1" font-family="Courier New" font-size="14.00">54</text>
<polyline fill="none" stroke="black" points="0,-322.9 66.41,-322.9 "/>
<text text-anchor="middle" x="33.2" y="-306.3" font-family="Courier New" font-size="14.00">55</text>
<polyline fill="none" stroke="black" points="0,-298.1 66.41,-298.1 "/>
<text text-anchor="middle" x="33.2" y="-281.5" font-family="Courier New" font-size="14.00">56</text>
<polyline fill="none" stroke="black" points="0,-273.3 66.41,-273.3 "/>
<text text-anchor="middle" x="33.2" y="-256.7" font-family="Courier New" font-size="14.00">57</text>
<polyline fill="none" stroke="black" points="0,-248.5 66.41,-248.5 "/>
<text text-anchor="middle" x="33.2" y="-231.9" font-family="Courier New" font-size="14.00">58</text>
<polyline fill="none" stroke="black" points="0,-223.7 66.41,-223.7 "/>
<text text-anchor="middle" x="33.2" y="-207.1" font-family="Courier New" font-size="14.00">59&#45;156</text>
<polyline fill="none" stroke="black" points="0,-198.9 66.41,-198.9 "/>
<text text-anchor="middle" x="33.2" y="-182.3" font-family="Courier New" font-size="14.00">157</text>
<polyline fill="none" stroke="black" points="0,-174.1 66.41,-174.1 "/>
<text text-anchor="middle" x="33.2" y="-157.5" font-family="Courier New" font-size="14.00">158</text>
<polyline fill="none" stroke="black" points="0,-149.3 66.41,-149.3 "/>
<text text-anchor="middle" x="33.2" y="-132.7" font-family="Courier New" font-size="14.00">159</text>
<polyline fill="none" stroke="black" points="0,-124.5 66.41,-124.5 "/>
<text text-anchor="middle" x="33.2" y="-107.9" font-family="Courier New" font-size="14.00">160</text>
<polyline fill="none" stroke="black" points="0,-99.7 66.41,-99.7 "/>
<text text-anchor="middle" x="33.2" y="-83.1" font-family="Courier New" font-size="14.00">161</text>
<polyline fill="none" stroke="black" points="0,-74.9 66.41,-74.9 "/>
<text text-anchor="middle" x="33.2" y="-58.3" font-family="Courier New" font-size="14.00">162</text>
<polyline fill="none" stroke="black" points="0,-50.1 66.41,-50.1 "/>
<text text-anchor="middle" x="33.2" y="-33.5" font-family="Courier New" font-size="14.00">163</text>
<polyline fill="none" stroke="black" points="0,-25.3 66.41,-25.3 "/>
<text text-anchor="middle" x="33.2" y="-8.7" font-family="Courier New" font-size="14.00">164</text>
<polyline fill="none" stroke="black" points="66.41,-0.5 66.41,-496.5 "/>
<text text-anchor="middle" x="460.47" y="-479.9" font-family="Courier New" font-size="14.00">type: &lt;inherited contract&gt;.variable (bytes)</text>
<polyline fill="none" stroke="black" points="66.41,-471.7 854.53,-471.7 "/>
<text text-anchor="middle" x="143.12" y="-455.1" font-family="Courier New" font-size="14.00">unallocated (30)</text>
<polyline fill="none" stroke="black" points="219.83,-446.9 219.83,-471.7 "/>
<text text-anchor="middle" x="380.55" y="-455.1" font-family="Courier New" font-size="14.00">bool: Initializable.initializing (1)</text>
<polyline fill="none" stroke="black" points="541.28,-446.9 541.28,-471.7 "/>
<text text-anchor="middle" x="697.8" y="-455.1" font-family="Courier New" font-size="14.00">bool: Initializable.initialized (1)</text>
<polyline fill="none" stroke="black" points="66.41,-446.9 854.53,-446.9 "/>
<text text-anchor="middle" x="460.04" y="-430.3" font-family="Courier New" font-size="14.00">uint256[50]: Initializable.______gap (1600)</text>
<polyline fill="none" stroke="black" points="66.41,-422.1 854.53,-422.1 "/>
<text text-anchor="middle" x="147.62" y="-405.5" font-family="Courier New" font-size="14.00">unallocated (12)</text>
<polyline fill="none" stroke="black" points="228.83,-397.3 228.83,-422.1 "/>
<text text-anchor="middle" x="541.58" y="-405.5" font-family="Courier New" font-size="14.00">address: InitializableAbstractStrategy._deprecated_platformAddress (20)</text>
<polyline fill="none" stroke="black" points="66.41,-397.3 854.53,-397.3 "/>
<text text-anchor="middle" x="154.12" y="-380.7" font-family="Courier New" font-size="14.00">unallocated (12)</text>
<polyline fill="none" stroke="black" points="241.83,-372.5 241.83,-397.3 "/>
<text text-anchor="middle" x="547.98" y="-380.7" font-family="Courier New" font-size="14.00">address: InitializableAbstractStrategy._deprecated_vaultAddress (20)</text>
<polyline fill="none" stroke="black" points="66.41,-372.5 854.53,-372.5 "/>
<text text-anchor="middle" x="460.46" y="-355.9" font-family="Courier New" font-size="14.00">mapping(address=&gt;address): InitializableAbstractStrategy.assetToPToken (32)</text>
<polyline fill="none" stroke="black" points="66.41,-347.7 854.53,-347.7 "/>
<text text-anchor="middle" x="460.05" y="-331.1" font-family="Courier New" font-size="14.00">address[]: InitializableAbstractStrategy.assetsMapped (32)</text>
<polyline fill="none" stroke="black" points="66.41,-322.9 854.53,-322.9 "/>
<text text-anchor="middle" x="141.62" y="-306.3" font-family="Courier New" font-size="14.00">unallocated (12)</text>
<polyline fill="none" stroke="black" points="216.83,-298.1 216.83,-322.9 "/>
<text text-anchor="middle" x="535.68" y="-306.3" font-family="Courier New" font-size="14.00">address: InitializableAbstractStrategy._deprecated_rewardTokenAddress (20)</text>
<polyline fill="none" stroke="black" points="66.41,-298.1 854.53,-298.1 "/>
<text text-anchor="middle" x="460.36" y="-281.5" font-family="Courier New" font-size="14.00">uint256: InitializableAbstractStrategy._deprecated_rewardLiquidationThreshold (32)</text>
<polyline fill="none" stroke="black" points="66.41,-273.3 854.53,-273.3 "/>
<text text-anchor="middle" x="170.62" y="-256.7" font-family="Courier New" font-size="14.00">unallocated (12)</text>
<polyline fill="none" stroke="black" points="274.83,-248.5 274.83,-273.3 "/>
<text text-anchor="middle" x="564.37" y="-256.7" font-family="Courier New" font-size="14.00">address: InitializableAbstractStrategy.harvesterAddress (20)</text>
<polyline fill="none" stroke="black" points="66.41,-248.5 854.53,-248.5 "/>
<text text-anchor="middle" x="460.15" y="-231.9" font-family="Courier New" font-size="14.00">address[]: InitializableAbstractStrategy.rewardTokenAddresses (32)</text>
<polyline fill="none" stroke="black" points="66.41,-223.7 854.53,-223.7 "/>
<text text-anchor="middle" x="460.05" y="-207.1" font-family="Courier New" font-size="14.00">int256[98]: InitializableAbstractStrategy._reserved (3136)</text>
<polyline fill="none" stroke="black" points="66.41,-198.9 854.53,-198.9 "/>
<text text-anchor="middle" x="202.12" y="-182.3" font-family="Courier New" font-size="14.00">unallocated (12)</text>
<polyline fill="none" stroke="black" points="337.83,-174.1 337.83,-198.9 "/>
<text text-anchor="middle" x="595.86" y="-182.3" font-family="Courier New" font-size="14.00">address: _deprecated_cvxDepositorAddress (20)</text>
<polyline fill="none" stroke="black" points="66.41,-174.1 854.53,-174.1 "/>
<text text-anchor="middle" x="210.62" y="-157.5" font-family="Courier New" font-size="14.00">unallocated (12)</text>
<polyline fill="none" stroke="black" points="354.83,-149.3 354.83,-174.1 "/>
<text text-anchor="middle" x="604.56" y="-157.5" font-family="Courier New" font-size="14.00">address: _deprecated_cvxRewardStaker (20)</text>
<polyline fill="none" stroke="black" points="66.41,-149.3 854.53,-149.3 "/>
<text text-anchor="middle" x="460.14" y="-132.7" font-family="Courier New" font-size="14.00">uint256: _deprecated_cvxDepositorPTokenId (32)</text>
<polyline fill="none" stroke="black" points="66.41,-124.5 854.53,-124.5 "/>
<text text-anchor="middle" x="223.12" y="-107.9" font-family="Courier New" font-size="14.00">unallocated (12)</text>
<polyline fill="none" stroke="black" points="379.83,-99.7 379.83,-124.5 "/>
<text text-anchor="middle" x="616.85" y="-107.9" font-family="Courier New" font-size="14.00">address: _deprecated_curvePool (20)</text>
<polyline fill="none" stroke="black" points="66.41,-99.7 854.53,-99.7 "/>
<text text-anchor="middle" x="227.62" y="-83.1" font-family="Courier New" font-size="14.00">unallocated (12)</text>
<polyline fill="none" stroke="black" points="388.83,-74.9 388.83,-99.7 "/>
<text text-anchor="middle" x="621.45" y="-83.1" font-family="Courier New" font-size="14.00">address: _deprecated_lpToken (20)</text>
<polyline fill="none" stroke="black" points="66.41,-74.9 854.53,-74.9 "/>
<text text-anchor="middle" x="233.62" y="-58.3" font-family="Courier New" font-size="14.00">unallocated (12)</text>
<polyline fill="none" stroke="black" points="400.83,-50.1 400.83,-74.9 "/>
<text text-anchor="middle" x="627.35" y="-58.3" font-family="Courier New" font-size="14.00">address: _deprecated_oeth (20)</text>
<polyline fill="none" stroke="black" points="66.41,-50.1 854.53,-50.1 "/>
<text text-anchor="middle" x="233.62" y="-33.5" font-family="Courier New" font-size="14.00">unallocated (12)</text>
<polyline fill="none" stroke="black" points="400.83,-25.3 400.83,-50.1 "/>
<text text-anchor="middle" x="627.35" y="-33.5" font-family="Courier New" font-size="14.00">address: _deprecated_weth (20)</text>
<polyline fill="none" stroke="black" points="66.41,-25.3 854.53,-25.3 "/>
<text text-anchor="middle" x="261.03" y="-8.7" font-family="Courier New" font-size="14.00">uint128: _deprecated_ethCoinIndex (16)</text>
<polyline fill="none" stroke="black" points="455.66,-0.5 455.66,-25.3 "/>
<text text-anchor="middle" x="654.99" y="-8.7" font-family="Courier New" font-size="14.00">uint128: _deprecated_oethCoinIndex (16)</text>
</g>
<!-- 1 -->
<g id="node2" class="node">
<title>1</title>
<polygon fill="#f2f2f2" stroke="black" points="890.53,-295.3 890.53,-386.5 1461.02,-386.5 1461.02,-295.3 890.53,-295.3"/>
<text text-anchor="middle" x="1175.78" y="-369.9" font-family="Courier New" font-size="14.00">address[]: assetsMapped &lt;&lt;Array&gt;&gt;</text>
<text text-anchor="middle" x="1175.78" y="-353.1" font-family="Courier New" font-size="14.00">0x4a11f94e20a93c79f6ec743a1954ec4fc2c08429ae2122118bf234b2185c81b8</text>
<polyline fill="none" stroke="black" points="890.53,-344.9 1461.02,-344.9 "/>
<text text-anchor="middle" x="982.74" y="-328.3" font-family="Courier New" font-size="14.00">offset</text>
<polyline fill="none" stroke="black" points="890.53,-320.1 1074.94,-320.1 "/>
<text text-anchor="middle" x="982.74" y="-303.5" font-family="Courier New" font-size="14.00">0</text>
<polyline fill="none" stroke="black" points="1074.94,-295.3 1074.94,-344.9 "/>
<text text-anchor="middle" x="1267.56" y="-328.3" font-family="Courier New" font-size="14.00">type: variable (bytes)</text>
<polyline fill="none" stroke="black" points="1074.94,-320.1 1460.18,-320.1 "/>
<text text-anchor="middle" x="1179.65" y="-303.5" font-family="Courier New" font-size="14.00">unallocated (12)</text>
<polyline fill="none" stroke="black" points="1284.36,-295.3 1284.36,-320.1 "/>
<text text-anchor="middle" x="1372.27" y="-303.5" font-family="Courier New" font-size="14.00">address (20)</text>
</g>
<!-- 3&#45;&gt;1 -->
<g id="edge1" class="edge">
<title>3:8&#45;&gt;1</title>
<path fill="none" stroke="black" d="M854.27,-334.9C862.77,-334.9 871.39,-334.92 880.1,-334.96"/>
<polygon fill="black" stroke="black" points="880.34,-338.46 890.36,-335.02 880.38,-331.46 880.34,-338.46"/>
</g>
<!-- 2 -->
<g id="node3" class="node">
<title>2</title>
<polygon fill="#f2f2f2" stroke="black" points="890.53,-185.3 890.53,-276.5 1461.02,-276.5 1461.02,-185.3 890.53,-185.3"/>
<text text-anchor="middle" x="1175.78" y="-259.9" font-family="Courier New" font-size="14.00">address[]: rewardTokenAddresses &lt;&lt;Array&gt;&gt;</text>
<text text-anchor="middle" x="1175.78" y="-243.1" font-family="Courier New" font-size="14.00">0xa2999d817b6757290b50e8ecf3fa939673403dd35c97de392fdb343b4015ce9e</text>
<polyline fill="none" stroke="black" points="890.53,-234.9 1461.02,-234.9 "/>
<text text-anchor="middle" x="982.74" y="-218.3" font-family="Courier New" font-size="14.00">offset</text>
<polyline fill="none" stroke="black" points="890.53,-210.1 1074.94,-210.1 "/>
<text text-anchor="middle" x="982.74" y="-193.5" font-family="Courier New" font-size="14.00">0</text>
<polyline fill="none" stroke="black" points="1074.94,-185.3 1074.94,-234.9 "/>
<text text-anchor="middle" x="1267.56" y="-218.3" font-family="Courier New" font-size="14.00">type: variable (bytes)</text>
<polyline fill="none" stroke="black" points="1074.94,-210.1 1460.18,-210.1 "/>
<text text-anchor="middle" x="1179.65" y="-193.5" font-family="Courier New" font-size="14.00">unallocated (12)</text>
<polyline fill="none" stroke="black" points="1284.36,-185.3 1284.36,-210.1 "/>
<text text-anchor="middle" x="1372.27" y="-193.5" font-family="Courier New" font-size="14.00">address (20)</text>
</g>
<!-- 3&#45;&gt;2 -->
<g id="edge2" class="edge">
<title>3:13&#45;&gt;2</title>
<path fill="none" stroke="black" d="M854.53,-235.9C862.92,-235.9 871.44,-235.88 880.04,-235.85"/>
<polygon fill="black" stroke="black" points="880.18,-239.35 890.16,-235.8 880.15,-232.35 880.18,-239.35"/>
</g>
</g>
</svg>
