<?xml version="1.0" encoding="UTF-8" standalone="no"?>
<!DOCTYPE svg PUBLIC "-//W3C//DTD SVG 1.1//EN"
 "http://www.w3.org/Graphics/SVG/1.1/DTD/svg11.dtd">
<!-- Generated by graphviz version 5.0.0 (20220707.1540)
 -->
<!-- Title: StorageDiagram Pages: 1 -->
<svg width="1503pt" height="431pt"
 viewBox="0.00 0.00 1502.63 430.60" xmlns="http://www.w3.org/2000/svg" xmlns:xlink="http://www.w3.org/1999/xlink">
<g id="graph0" class="graph" transform="scale(1 1) rotate(0) translate(4 426.6)">
<title>StorageDiagram</title>
<polygon fill="white" stroke="transparent" points="-4,4 -4,-426.6 1498.63,-426.6 1498.63,4 -4,4"/>
<!-- 3 -->
<g id="node1" class="node">
<title>3</title>
<polygon fill="#f2f2f2" stroke="black" points="0,-0.5 0,-422.1 888.14,-422.1 888.14,-0.5 0,-0.5"/>
<text text-anchor="middle" x="444.07" y="-405.5" font-family="Courier New" font-size="14.00">ConvexFrxETHAMOStrategy &lt;&lt;Contract&gt;&gt;</text>
<polyline fill="none" stroke="black" points="0,-397.3 888.14,-397.3 "/>
<text text-anchor="middle" x="50.01" y="-380.7" font-family="Courier New" font-size="14.00">slot</text>
<polyline fill="none" stroke="black" points="0,-372.5 100.01,-372.5 "/>
<text text-anchor="middle" x="50.01" y="-355.9" font-family="Courier New" font-size="14.00">0</text>
<polyline fill="none" stroke="black" points="0,-347.7 100.01,-347.7 "/>
<text text-anchor="middle" x="50.01" y="-331.1" font-family="Courier New" font-size="14.00">1&#45;50</text>
<polyline fill="none" stroke="black" points="0,-322.9 100.01,-322.9 "/>
<text text-anchor="middle" x="50.01" y="-306.3" font-family="Courier New" font-size="14.00">51</text>
<polyline fill="none" stroke="black" points="0,-298.1 100.01,-298.1 "/>
<text text-anchor="middle" x="50.01" y="-281.5" font-family="Courier New" font-size="14.00">52</text>
<polyline fill="none" stroke="black" points="0,-273.3 100.01,-273.3 "/>
<text text-anchor="middle" x="50.01" y="-256.7" font-family="Courier New" font-size="14.00">53</text>
<polyline fill="none" stroke="black" points="0,-248.5 100.01,-248.5 "/>
<text text-anchor="middle" x="50.01" y="-231.9" font-family="Courier New" font-size="14.00">54</text>
<polyline fill="none" stroke="black" points="0,-223.7 100.01,-223.7 "/>
<text text-anchor="middle" x="50.01" y="-207.1" font-family="Courier New" font-size="14.00">55</text>
<polyline fill="none" stroke="black" points="0,-198.9 100.01,-198.9 "/>
<text text-anchor="middle" x="50.01" y="-182.3" font-family="Courier New" font-size="14.00">56</text>
<polyline fill="none" stroke="black" points="0,-174.1 100.01,-174.1 "/>
<text text-anchor="middle" x="50.01" y="-157.5" font-family="Courier New" font-size="14.00">57</text>
<polyline fill="none" stroke="black" points="0,-149.3 100.01,-149.3 "/>
<text text-anchor="middle" x="50.01" y="-132.7" font-family="Courier New" font-size="14.00">58</text>
<polyline fill="none" stroke="black" points="0,-124.5 100.01,-124.5 "/>
<text text-anchor="middle" x="50.01" y="-107.9" font-family="Courier New" font-size="14.00">59&#45;156</text>
<polyline fill="none" stroke="black" points="0,-99.7 100.01,-99.7 "/>
<text text-anchor="middle" x="50.01" y="-83.1" font-family="Courier New" font-size="14.00">0x360..bbc</text>
<polyline fill="none" stroke="black" points="0,-74.9 100.01,-74.9 "/>
<text text-anchor="middle" x="50.01" y="-58.3" font-family="Courier New" font-size="14.00">0x44c..1db</text>
<polyline fill="none" stroke="black" points="0,-50.1 100.01,-50.1 "/>
<text text-anchor="middle" x="50.01" y="-33.5" font-family="Courier New" font-size="14.00">0x53b..535</text>
<polyline fill="none" stroke="black" points="0,-25.3 100.01,-25.3 "/>
<text text-anchor="middle" x="50.01" y="-8.7" font-family="Courier New" font-size="14.00">0x7be..a4a</text>
<polyline fill="none" stroke="black" points="100.01,-0.5 100.01,-397.3 "/>
<text text-anchor="middle" x="494.08" y="-380.7" font-family="Courier New" font-size="14.00">type: &lt;inherited contract&gt;.variable (bytes)</text>
<polyline fill="none" stroke="black" points="100.01,-372.5 888.14,-372.5 "/>
<text text-anchor="middle" x="176.72" y="-355.9" font-family="Courier New" font-size="14.00">unallocated (30)</text>
<polyline fill="none" stroke="black" points="253.44,-347.7 253.44,-372.5 "/>
<text text-anchor="middle" x="414.16" y="-355.9" font-family="Courier New" font-size="14.00">bool: Initializable.initializing (1)</text>
<polyline fill="none" stroke="black" points="574.88,-347.7 574.88,-372.5 "/>
<text text-anchor="middle" x="731.41" y="-355.9" font-family="Courier New" font-size="14.00">bool: Initializable.initialized (1)</text>
<polyline fill="none" stroke="black" points="100.01,-347.7 888.14,-347.7 "/>
<text text-anchor="middle" x="493.64" y="-331.1" font-family="Courier New" font-size="14.00">uint256[50]: Initializable.______gap (1600)</text>
<polyline fill="none" stroke="black" points="100.01,-322.9 888.14,-322.9 "/>
<text text-anchor="middle" x="181.22" y="-306.3" font-family="Courier New" font-size="14.00">unallocated (12)</text>
<polyline fill="none" stroke="black" points="262.44,-298.1 262.44,-322.9 "/>
<text text-anchor="middle" x="575.18" y="-306.3" font-family="Courier New" font-size="14.00">address: InitializableAbstractStrategy._deprecated_platformAddress (20)</text>
<polyline fill="none" stroke="black" points="100.01,-298.1 888.14,-298.1 "/>
<text text-anchor="middle" x="187.72" y="-281.5" font-family="Courier New" font-size="14.00">unallocated (12)</text>
<polyline fill="none" stroke="black" points="275.44,-273.3 275.44,-298.1 "/>
<text text-anchor="middle" x="581.58" y="-281.5" font-family="Courier New" font-size="14.00">address: InitializableAbstractStrategy._deprecated_vaultAddress (20)</text>
<polyline fill="none" stroke="black" points="100.01,-273.3 888.14,-273.3 "/>
<text text-anchor="middle" x="494.06" y="-256.7" font-family="Courier New" font-size="14.00">mapping(address=&gt;address): InitializableAbstractStrategy.assetToPToken (32)</text>
<polyline fill="none" stroke="black" points="100.01,-248.5 888.14,-248.5 "/>
<text text-anchor="middle" x="493.65" y="-231.9" font-family="Courier New" font-size="14.00">address[]: InitializableAbstractStrategy.assetsMapped (32)</text>
<polyline fill="none" stroke="black" points="100.01,-223.7 888.14,-223.7 "/>
<text text-anchor="middle" x="175.22" y="-207.1" font-family="Courier New" font-size="14.00">unallocated (12)</text>
<polyline fill="none" stroke="black" points="250.44,-198.9 250.44,-223.7 "/>
<text text-anchor="middle" x="569.29" y="-207.1" font-family="Courier New" font-size="14.00">address: InitializableAbstractStrategy._deprecated_rewardTokenAddress (20)</text>
<polyline fill="none" stroke="black" points="100.01,-198.9 888.14,-198.9 "/>
<text text-anchor="middle" x="493.97" y="-182.3" font-family="Courier New" font-size="14.00">uint256: InitializableAbstractStrategy._deprecated_rewardLiquidationThreshold (32)</text>
<polyline fill="none" stroke="black" points="100.01,-174.1 888.14,-174.1 "/>
<text text-anchor="middle" x="204.22" y="-157.5" font-family="Courier New" font-size="14.00">unallocated (12)</text>
<polyline fill="none" stroke="black" points="308.44,-149.3 308.44,-174.1 "/>
<text text-anchor="middle" x="597.98" y="-157.5" font-family="Courier New" font-size="14.00">address: InitializableAbstractStrategy.harvesterAddress (20)</text>
<polyline fill="none" stroke="black" points="100.01,-149.3 888.14,-149.3 "/>
<text text-anchor="middle" x="493.76" y="-132.7" font-family="Courier New" font-size="14.00">address[]: InitializableAbstractStrategy.rewardTokenAddresses (32)</text>
<polyline fill="none" stroke="black" points="100.01,-124.5 888.14,-124.5 "/>
<text text-anchor="middle" x="493.65" y="-107.9" font-family="Courier New" font-size="14.00">int256[98]: InitializableAbstractStrategy._reserved (3136)</text>
<polyline fill="none" stroke="black" points="100.01,-99.7 888.14,-99.7 "/>
<text text-anchor="middle" x="305.22" y="-83.1" font-family="Courier New" font-size="14.00">unallocated (12)</text>
<polyline fill="none" stroke="black" points="510.44,-74.9 510.44,-99.7 "/>
<text text-anchor="middle" x="698.84" y="-83.1" font-family="Courier New" font-size="14.00">address (20)</text>
<polyline fill="none" stroke="black" points="100.01,-74.9 888.14,-74.9 "/>
<text text-anchor="middle" x="256.72" y="-58.3" font-family="Courier New" font-size="14.00">unallocated (12)</text>
<polyline fill="none" stroke="black" points="413.44,-50.1 413.44,-74.9 "/>
<text text-anchor="middle" x="650.46" y="-58.3" font-family="Courier New" font-size="14.00">address: OUSD.pending.governor (20)</text>
<polyline fill="none" stroke="black" points="100.01,-50.1 888.14,-50.1 "/>
<text text-anchor="middle" x="269.72" y="-33.5" font-family="Courier New" font-size="14.00">unallocated (31)</text>
<polyline fill="none" stroke="black" points="439.44,-25.3 439.44,-50.1 "/>
<text text-anchor="middle" x="663.76" y="-33.5" font-family="Courier New" font-size="14.00">bool: OUSD.reentry.status (1)</text>
<polyline fill="none" stroke="black" points="100.01,-25.3 888.14,-25.3 "/>
<text text-anchor="middle" x="273.72" y="-8.7" font-family="Courier New" font-size="14.00">unallocated (12)</text>
<polyline fill="none" stroke="black" points="447.44,-0.5 447.44,-25.3 "/>
<text text-anchor="middle" x="667.35" y="-8.7" font-family="Courier New" font-size="14.00">address: OUSD.governor (20)</text>
</g>
<!-- 1 -->
<g id="node2" class="node">
<title>1</title>
<polygon fill="#f2f2f2" stroke="black" points="924.14,-196.7 924.14,-287.9 1494.63,-287.9 1494.63,-196.7 924.14,-196.7"/>
<text text-anchor="middle" x="1209.38" y="-271.3" font-family="Courier New" font-size="14.00">address[]: assetsMapped &lt;&lt;Array&gt;&gt;</text>
<text text-anchor="middle" x="1209.38" y="-254.5" font-family="Courier New" font-size="14.00">0x4a11f94e20a93c79f6ec743a1954ec4fc2c08429ae2122118bf234b2185c81b8</text>
<polyline fill="none" stroke="black" points="924.14,-246.3 1494.63,-246.3 "/>
<text text-anchor="middle" x="1016.34" y="-229.7" font-family="Courier New" font-size="14.00">offset</text>
<polyline fill="none" stroke="black" points="924.14,-221.5 1108.54,-221.5 "/>
<text text-anchor="middle" x="1016.34" y="-204.9" font-family="Courier New" font-size="14.00">0</text>
<polyline fill="none" stroke="black" points="1108.54,-196.7 1108.54,-246.3 "/>
<text text-anchor="middle" x="1301.16" y="-229.7" font-family="Courier New" font-size="14.00">type: variable (bytes)</text>
<polyline fill="none" stroke="black" points="1108.54,-221.5 1493.78,-221.5 "/>
<text text-anchor="middle" x="1213.26" y="-204.9" font-family="Courier New" font-size="14.00">unallocated (12)</text>
<polyline fill="none" stroke="black" points="1317.97,-196.7 1317.97,-221.5 "/>
<text text-anchor="middle" x="1405.88" y="-204.9" font-family="Courier New" font-size="14.00">address (20)</text>
</g>
<!-- 3&#45;&gt;1 -->
<g id="edge1" class="edge">
<title>3:8&#45;&gt;1</title>
<path fill="none" stroke="black" d="M888.07,-236.3C896.46,-236.3 904.98,-236.32 913.58,-236.36"/>
<polygon fill="black" stroke="black" points="913.69,-239.86 923.71,-236.41 913.73,-232.86 913.69,-239.86"/>
</g>
<!-- 2 -->
<g id="node3" class="node">
<title>2</title>
<polygon fill="#f2f2f2" stroke="black" points="924.14,-86.7 924.14,-177.9 1494.63,-177.9 1494.63,-86.7 924.14,-86.7"/>
<text text-anchor="middle" x="1209.38" y="-161.3" font-family="Courier New" font-size="14.00">address[]: rewardTokenAddresses &lt;&lt;Array&gt;&gt;</text>
<text text-anchor="middle" x="1209.38" y="-144.5" font-family="Courier New" font-size="14.00">0xa2999d817b6757290b50e8ecf3fa939673403dd35c97de392fdb343b4015ce9e</text>
<polyline fill="none" stroke="black" points="924.14,-136.3 1494.63,-136.3 "/>
<text text-anchor="middle" x="1016.34" y="-119.7" font-family="Courier New" font-size="14.00">offset</text>
<polyline fill="none" stroke="black" points="924.14,-111.5 1108.54,-111.5 "/>
<text text-anchor="middle" x="1016.34" y="-94.9" font-family="Courier New" font-size="14.00">0</text>
<polyline fill="none" stroke="black" points="1108.54,-86.7 1108.54,-136.3 "/>
<text text-anchor="middle" x="1301.16" y="-119.7" font-family="Courier New" font-size="14.00">type: variable (bytes)</text>
<polyline fill="none" stroke="black" points="1108.54,-111.5 1493.78,-111.5 "/>
<text text-anchor="middle" x="1213.26" y="-94.9" font-family="Courier New" font-size="14.00">unallocated (12)</text>
<polyline fill="none" stroke="black" points="1317.97,-86.7 1317.97,-111.5 "/>
<text text-anchor="middle" x="1405.88" y="-94.9" font-family="Courier New" font-size="14.00">address (20)</text>
</g>
<!-- 3&#45;&gt;2 -->
<g id="edge2" class="edge">
<title>3:13&#45;&gt;2</title>
<path fill="none" stroke="black" d="M888.07,-137.3C896.46,-137.3 904.98,-137.28 913.58,-137.25"/>
<polygon fill="black" stroke="black" points="913.72,-140.75 923.71,-137.2 913.69,-133.75 913.72,-140.75"/>
</g>
</g>
</svg>
