<?xml version="1.0" encoding="UTF-8" standalone="no"?>
<!DOCTYPE svg PUBLIC "-//W3C//DTD SVG 1.1//EN"
 "http://www.w3.org/Graphics/SVG/1.1/DTD/svg11.dtd">
<!-- Generated by graphviz version 5.0.0 (20220707.1540)
 -->
<!-- Title: UmlClassDiagram Pages: 1 -->
<svg width="1865pt" height="241pt"
 viewBox="0.00 0.00 1865.35 241.40" xmlns="http://www.w3.org/2000/svg" xmlns:xlink="http://www.w3.org/1999/xlink">
<g id="graph0" class="graph" transform="scale(1 1) rotate(0) translate(4 237.4)">
<title>UmlClassDiagram</title>
<polygon fill="white" stroke="transparent" points="-4,4 -4,-237.4 1861.35,-237.4 1861.35,4 -4,4"/>
<!-- 7 -->
<g id="node1" class="node">
<title>7</title>
<polygon fill="#f2f2f2" stroke="black" points="986.87,-182.9 986.87,-224.5 1221.73,-224.5 1221.73,-182.9 986.87,-182.9"/>
<text text-anchor="middle" x="1104.3" y="-207.9" font-family="Times,serif" font-size="14.00">Governable</text>
<text text-anchor="middle" x="1104.3" y="-191.1" font-family="Times,serif" font-size="14.00">../contracts/governance/Governable.sol</text>
</g>
<!-- 35 -->
<g id="node2" class="node">
<title>35</title>
<polygon fill="#f2f2f2" stroke="black" points="393.69,-174.5 393.69,-232.9 588.9,-232.9 588.9,-174.5 393.69,-174.5"/>
<text text-anchor="middle" x="491.3" y="-216.3" font-family="Times,serif" font-size="14.00">&lt;&lt;Interface&gt;&gt;</text>
<text text-anchor="middle" x="491.3" y="-199.5" font-family="Times,serif" font-size="14.00">IVault</text>
<text text-anchor="middle" x="491.3" y="-182.7" font-family="Times,serif" font-size="14.00">../contracts/interfaces/IVault.sol</text>
</g>
<!-- 36 -->
<g id="node3" class="node">
<title>36</title>
<polygon fill="#f2f2f2" stroke="black" points="22.53,-79.1 22.53,-137.5 234.06,-137.5 234.06,-79.1 22.53,-79.1"/>
<text text-anchor="middle" x="128.3" y="-120.9" font-family="Times,serif" font-size="14.00">&lt;&lt;Interface&gt;&gt;</text>
<text text-anchor="middle" x="128.3" y="-104.1" font-family="Times,serif" font-size="14.00">IWETH9</text>
<text text-anchor="middle" x="128.3" y="-87.3" font-family="Times,serif" font-size="14.00">../contracts/interfaces/IWETH9.sol</text>
</g>
<!-- 115 -->
<g id="node4" class="node">
<title>115</title>
<polygon fill="#f2f2f2" stroke="black" points="648.14,-0.5 648.14,-42.1 944.46,-42.1 944.46,-0.5 648.14,-0.5"/>
<text text-anchor="middle" x="796.3" y="-25.5" font-family="Times,serif" font-size="14.00">ConvexEthMetaStrategy</text>
<text text-anchor="middle" x="796.3" y="-8.7" font-family="Times,serif" font-size="14.00">../contracts/strategies/ConvexEthMetaStrategy.sol</text>
</g>
<!-- 115&#45;&gt;35 -->
<g id="edge5" class="edge">
<title>115&#45;&gt;35</title>
<path fill="none" stroke="black" stroke-dasharray="5,2" d="M647.99,-22.32C432.96,-23.91 55.52,-33.24 13.3,-78.6 -4.69,-97.93 -4.07,-118.12 13.3,-138 37.28,-165.45 249.69,-185.48 383.17,-195.5"/>
<polygon fill="black" stroke="black" points="383.21,-199.01 393.44,-196.26 383.72,-192.03 383.21,-199.01"/>
</g>
<!-- 115&#45;&gt;36 -->
<g id="edge4" class="edge">
<title>115&#45;&gt;36</title>
<path fill="none" stroke="black" d="M647.94,-31.49C538.54,-39.66 386.04,-53.94 244.26,-78.34"/>
<polygon fill="black" stroke="black" points="243.33,-74.95 234.07,-80.11 244.53,-81.85 243.33,-74.95"/>
</g>
<!-- 127 -->
<g id="node5" class="node">
<title>127</title>
<polygon fill="#f2f2f2" stroke="black" points="251.74,-79.1 251.74,-137.5 506.86,-137.5 506.86,-79.1 251.74,-79.1"/>
<text text-anchor="middle" x="379.3" y="-120.9" font-family="Times,serif" font-size="14.00">&lt;&lt;Interface&gt;&gt;</text>
<text text-anchor="middle" x="379.3" y="-104.1" font-family="Times,serif" font-size="14.00">IConvexDeposits</text>
<text text-anchor="middle" x="379.3" y="-87.3" font-family="Times,serif" font-size="14.00">../contracts/strategies/IConvexDeposits.sol</text>
</g>
<!-- 115&#45;&gt;127 -->
<g id="edge6" class="edge">
<title>115&#45;&gt;127</title>
<path fill="none" stroke="black" stroke-dasharray="5,2" d="M696.8,-42.1C645.9,-52.28 582.68,-65 517.04,-78.45"/>
<polygon fill="black" stroke="black" points="516,-75.09 506.91,-80.53 517.41,-81.95 516,-75.09"/>
</g>
<!-- 129 -->
<g id="node6" class="node">
<title>129</title>
<polygon fill="#f2f2f2" stroke="black" points="524.91,-79.1 524.91,-137.5 791.69,-137.5 791.69,-79.1 524.91,-79.1"/>
<text text-anchor="middle" x="658.3" y="-120.9" font-family="Times,serif" font-size="14.00">&lt;&lt;Interface&gt;&gt;</text>
<text text-anchor="middle" x="658.3" y="-104.1" font-family="Times,serif" font-size="14.00">ICurveETHPoolV1</text>
<text text-anchor="middle" x="658.3" y="-87.3" font-family="Times,serif" font-size="14.00">../contracts/strategies/ICurveETHPoolV1.sol</text>
</g>
<!-- 115&#45;&gt;129 -->
<g id="edge3" class="edge">
<title>115&#45;&gt;129</title>
<path fill="none" stroke="black" d="M763.94,-42.23C748.81,-51.55 730.37,-62.9 713.16,-73.51"/>
<polygon fill="black" stroke="black" points="710.98,-70.74 704.3,-78.97 714.65,-76.7 710.98,-70.74"/>
</g>
<!-- 133 -->
<g id="node7" class="node">
<title>133</title>
<polygon fill="#f2f2f2" stroke="black" points="809.85,-79.1 809.85,-137.5 1058.74,-137.5 1058.74,-79.1 809.85,-79.1"/>
<text text-anchor="middle" x="934.3" y="-120.9" font-family="Times,serif" font-size="14.00">&lt;&lt;Interface&gt;&gt;</text>
<text text-anchor="middle" x="934.3" y="-104.1" font-family="Times,serif" font-size="14.00">IRewardStaking</text>
<text text-anchor="middle" x="934.3" y="-87.3" font-family="Times,serif" font-size="14.00">../contracts/strategies/IRewardStaking.sol</text>
</g>
<!-- 115&#45;&gt;133 -->
<g id="edge2" class="edge">
<title>115&#45;&gt;133</title>
<path fill="none" stroke="black" d="M828.65,-42.23C843.78,-51.55 862.22,-62.9 879.43,-73.51"/>
<polygon fill="black" stroke="black" points="877.95,-76.7 888.3,-78.97 881.62,-70.74 877.95,-76.7"/>
</g>
<!-- 150 -->
<g id="node9" class="node">
<title>150</title>
<polygon fill="#f2f2f2" stroke="black" points="1076.25,-79.1 1076.25,-137.5 1366.34,-137.5 1366.34,-79.1 1076.25,-79.1"/>
<text text-anchor="middle" x="1221.3" y="-120.9" font-family="Times,serif" font-size="14.00">&lt;&lt;Abstract&gt;&gt;</text>
<text text-anchor="middle" x="1221.3" y="-104.1" font-family="Times,serif" font-size="14.00">InitializableAbstractStrategy</text>
<text text-anchor="middle" x="1221.3" y="-87.3" font-family="Times,serif" font-size="14.00">../contracts/utils/InitializableAbstractStrategy.sol</text>
</g>
<!-- 115&#45;&gt;150 -->
<g id="edge1" class="edge">
<title>115&#45;&gt;150</title>
<path fill="none" stroke="black" d="M895.4,-42.12C941.55,-51.35 997.78,-62.6 1050.46,-73.13"/>
<polygon fill="none" stroke="black" points="1048.63,-83.48 1080.11,-79.06 1052.75,-62.88 1048.63,-83.48"/>
</g>
<!-- 149 -->
<g id="node8" class="node">
<title>149</title>
<polygon fill="#f2f2f2" stroke="black" points="1239.29,-174.5 1239.29,-232.9 1435.3,-232.9 1435.3,-174.5 1239.29,-174.5"/>
<text text-anchor="middle" x="1337.3" y="-216.3" font-family="Times,serif" font-size="14.00">&lt;&lt;Abstract&gt;&gt;</text>
<text text-anchor="middle" x="1337.3" y="-199.5" font-family="Times,serif" font-size="14.00">Initializable</text>
<text text-anchor="middle" x="1337.3" y="-182.7" font-family="Times,serif" font-size="14.00">../contracts/utils/Initializable.sol</text>
</g>
<!-- 150&#45;&gt;7 -->
<g id="edge8" class="edge">
<title>150&#45;&gt;7</title>
<path fill="none" stroke="black" d="M1185.88,-137.58C1175.44,-145.91 1163.84,-155.17 1152.74,-164.03"/>
<polygon fill="none" stroke="black" points="1146.1,-155.89 1129.21,-182.81 1159.2,-172.3 1146.1,-155.89"/>
</g>
<!-- 150&#45;&gt;35 -->
<g id="edge11" class="edge">
<title>150&#45;&gt;35</title>
<path fill="none" stroke="black" stroke-dasharray="5,2" d="M1075.85,-136.7C1072.97,-137.14 1070.12,-137.58 1067.3,-138 904.75,-162.24 715.17,-181.89 599.2,-192.93"/>
<polygon fill="black" stroke="black" points="598.53,-189.48 588.91,-193.91 599.19,-196.45 598.53,-189.48"/>
</g>
<!-- 150&#45;&gt;149 -->
<g id="edge7" class="edge">
<title>150&#45;&gt;149</title>
<path fill="none" stroke="black" d="M1256.42,-137.58C1263.39,-143.19 1270.9,-149.24 1278.42,-155.29"/>
<polygon fill="none" stroke="black" points="1271.95,-163.56 1301.9,-174.2 1285.12,-147.2 1271.95,-163.56"/>
</g>
<!-- 150&#45;&gt;150 -->
<g id="edge9" class="edge">
<title>150&#45;&gt;150</title>
<path fill="none" stroke="black" stroke-dasharray="5,2" d="M1366.51,-96.21C1377.55,-98.89 1384.34,-102.93 1384.34,-108.3 1384.34,-111.83 1381.42,-114.78 1376.29,-117.15"/>
<polygon fill="black" stroke="black" points="1374.9,-113.92 1366.51,-120.39 1377.1,-120.56 1374.9,-113.92"/>
</g>
<!-- 436 -->
<g id="node10" class="node">
<title>436</title>
<polygon fill="#f2f2f2" stroke="black" points="1453.24,-174.5 1453.24,-232.9 1857.35,-232.9 1857.35,-174.5 1453.24,-174.5"/>
<text text-anchor="middle" x="1655.3" y="-216.3" font-family="Times,serif" font-size="14.00">&lt;&lt;Interface&gt;&gt;</text>
<text text-anchor="middle" x="1655.3" y="-199.5" font-family="Times,serif" font-size="14.00">IERC20</text>
<text text-anchor="middle" x="1655.3" y="-182.7" font-family="Times,serif" font-size="14.00">../node_modules/@openzeppelin/contracts/token/ERC20/IERC20.sol</text>
</g>
<!-- 150&#45;&gt;436 -->
<g id="edge10" class="edge">
<title>150&#45;&gt;436</title>
<path fill="none" stroke="black" stroke-dasharray="5,2" d="M1352.39,-137.51C1403.5,-148.51 1462.19,-161.14 1514.21,-172.34"/>
<polygon fill="black" stroke="black" points="1513.67,-175.8 1524.18,-174.48 1515.14,-168.96 1513.67,-175.8"/>
</g>
</g>
</svg>
