<?xml version="1.0" encoding="UTF-8" standalone="no"?>
<!DOCTYPE svg PUBLIC "-//W3C//DTD SVG 1.1//EN"
 "http://www.w3.org/Graphics/SVG/1.1/DTD/svg11.dtd">
<!-- Generated by graphviz version 5.0.0 (20220707.1540)
 -->
<!-- Title: UmlClassDiagram Pages: 1 -->
<svg width="1515pt" height="589pt"
 viewBox="0.00 0.00 1514.87 589.40" xmlns="http://www.w3.org/2000/svg" xmlns:xlink="http://www.w3.org/1999/xlink">
<g id="graph0" class="graph" transform="scale(1 1) rotate(0) translate(4 585.4)">
<title>UmlClassDiagram</title>
<polygon fill="white" stroke="transparent" points="-4,4 -4,-585.4 1510.87,-585.4 1510.87,4 -4,4"/>
<!-- 7 -->
<g id="node1" class="node">
<title>7</title>
<polygon fill="#f2f2f2" stroke="black" points="0,-435.5 0,-477.1 234.86,-477.1 234.86,-435.5 0,-435.5"/>
<text text-anchor="middle" x="117.43" y="-460.5" font-family="Times,serif" font-size="14.00">Governable</text>
<text text-anchor="middle" x="117.43" y="-443.7" font-family="Times,serif" font-size="14.00">../contracts/governance/Governable.sol</text>
</g>
<!-- 40 -->
<g id="node2" class="node">
<title>40</title>
<polygon fill="#f2f2f2" stroke="black" points="18.82,-174.5 18.82,-232.9 214.04,-232.9 214.04,-174.5 18.82,-174.5"/>
<text text-anchor="middle" x="116.43" y="-216.3" font-family="Times,serif" font-size="14.00">&lt;&lt;Interface&gt;&gt;</text>
<text text-anchor="middle" x="116.43" y="-199.5" font-family="Times,serif" font-size="14.00">IVault</text>
<text text-anchor="middle" x="116.43" y="-182.7" font-family="Times,serif" font-size="14.00">../contracts/interfaces/IVault.sol</text>
</g>
<!-- 180 -->
<g id="node12" class="node">
<title>180</title>
<polygon fill="#f2f2f2" stroke="black" points="280.98,-269.9 280.98,-311.5 487.88,-311.5 487.88,-269.9 280.98,-269.9"/>
<text text-anchor="middle" x="384.43" y="-294.9" font-family="Times,serif" font-size="14.00">VaultStorage</text>
<text text-anchor="middle" x="384.43" y="-278.1" font-family="Times,serif" font-size="14.00">../contracts/vault/VaultStorage.sol</text>
</g>
<!-- 40&#45;&gt;180 -->
<g id="edge1" class="edge">
<title>40&#45;&gt;180</title>
<path fill="none" stroke="black" stroke-dasharray="5,2" d="M205.67,-233C240.17,-243.95 279.14,-256.31 311.87,-266.69"/>
<polygon fill="black" stroke="black" points="311.22,-270.15 321.81,-269.84 313.34,-263.48 311.22,-270.15"/>
</g>
<!-- 41 -->
<g id="node3" class="node">
<title>41</title>
<polygon fill="#f2f2f2" stroke="black" points="470.66,-79.1 470.66,-137.5 682.2,-137.5 682.2,-79.1 470.66,-79.1"/>
<text text-anchor="middle" x="576.43" y="-120.9" font-family="Times,serif" font-size="14.00">&lt;&lt;Interface&gt;&gt;</text>
<text text-anchor="middle" x="576.43" y="-104.1" font-family="Times,serif" font-size="14.00">IWETH9</text>
<text text-anchor="middle" x="576.43" y="-87.3" font-family="Times,serif" font-size="14.00">../contracts/interfaces/IWETH9.sol</text>
</g>
<!-- 130 -->
<g id="node4" class="node">
<title>130</title>
<polygon fill="#f2f2f2" stroke="black" points="284.27,-0.5 284.27,-42.1 580.59,-42.1 580.59,-0.5 284.27,-0.5"/>
<text text-anchor="middle" x="432.43" y="-25.5" font-family="Times,serif" font-size="14.00">ConvexEthMetaStrategy</text>
<text text-anchor="middle" x="432.43" y="-8.7" font-family="Times,serif" font-size="14.00">../contracts/strategies/ConvexEthMetaStrategy.sol</text>
</g>
<!-- 130&#45;&gt;40 -->
<g id="edge6" class="edge">
<title>130&#45;&gt;40</title>
<path fill="none" stroke="black" stroke-dasharray="5,2" d="M284.1,-34.48C220.89,-42.79 156.8,-56.46 135.43,-78.6 113.89,-100.92 110.42,-136.78 111.6,-164.22"/>
<polygon fill="black" stroke="black" points="108.11,-164.53 112.25,-174.28 115.1,-164.08 108.11,-164.53"/>
</g>
<!-- 130&#45;&gt;41 -->
<g id="edge5" class="edge">
<title>130&#45;&gt;41</title>
<path fill="none" stroke="black" d="M466.19,-42.23C482.12,-51.63 501.57,-63.11 519.67,-73.8"/>
<polygon fill="black" stroke="black" points="518.04,-76.9 528.43,-78.97 521.6,-70.87 518.04,-76.9"/>
</g>
<!-- 144 -->
<g id="node5" class="node">
<title>144</title>
<polygon fill="#f2f2f2" stroke="black" points="699.87,-79.1 699.87,-137.5 954.99,-137.5 954.99,-79.1 699.87,-79.1"/>
<text text-anchor="middle" x="827.43" y="-120.9" font-family="Times,serif" font-size="14.00">&lt;&lt;Interface&gt;&gt;</text>
<text text-anchor="middle" x="827.43" y="-104.1" font-family="Times,serif" font-size="14.00">IConvexDeposits</text>
<text text-anchor="middle" x="827.43" y="-87.3" font-family="Times,serif" font-size="14.00">../contracts/strategies/IConvexDeposits.sol</text>
</g>
<!-- 130&#45;&gt;144 -->
<g id="edge7" class="edge">
<title>130&#45;&gt;144</title>
<path fill="none" stroke="black" stroke-dasharray="5,2" d="M524.54,-42.12C573.58,-52.67 634.88,-65.86 689.48,-77.61"/>
<polygon fill="black" stroke="black" points="689.08,-81.11 699.59,-79.79 690.55,-74.26 689.08,-81.11"/>
</g>
<!-- 145 -->
<g id="node6" class="node">
<title>145</title>
<polygon fill="#f2f2f2" stroke="black" points="973.04,-79.1 973.04,-137.5 1239.82,-137.5 1239.82,-79.1 973.04,-79.1"/>
<text text-anchor="middle" x="1106.43" y="-120.9" font-family="Times,serif" font-size="14.00">&lt;&lt;Interface&gt;&gt;</text>
<text text-anchor="middle" x="1106.43" y="-104.1" font-family="Times,serif" font-size="14.00">ICurveETHPoolV1</text>
<text text-anchor="middle" x="1106.43" y="-87.3" font-family="Times,serif" font-size="14.00">../contracts/strategies/ICurveETHPoolV1.sol</text>
</g>
<!-- 130&#45;&gt;145 -->
<g id="edge4" class="edge">
<title>130&#45;&gt;145</title>
<path fill="none" stroke="black" d="M580.83,-34.24C685.19,-43.53 828.27,-58.06 962.64,-78.37"/>
<polygon fill="black" stroke="black" points="962.29,-81.86 972.71,-79.91 963.35,-74.94 962.29,-81.86"/>
</g>
<!-- 149 -->
<g id="node7" class="node">
<title>149</title>
<polygon fill="#f2f2f2" stroke="black" points="1257.99,-79.1 1257.99,-137.5 1506.87,-137.5 1506.87,-79.1 1257.99,-79.1"/>
<text text-anchor="middle" x="1382.43" y="-120.9" font-family="Times,serif" font-size="14.00">&lt;&lt;Interface&gt;&gt;</text>
<text text-anchor="middle" x="1382.43" y="-104.1" font-family="Times,serif" font-size="14.00">IRewardStaking</text>
<text text-anchor="middle" x="1382.43" y="-87.3" font-family="Times,serif" font-size="14.00">../contracts/strategies/IRewardStaking.sol</text>
</g>
<!-- 130&#45;&gt;149 -->
<g id="edge3" class="edge">
<title>130&#45;&gt;149</title>
<path fill="none" stroke="black" d="M580.87,-26.21C742.67,-31.92 1009.18,-45.56 1247.8,-78.6"/>
<polygon fill="black" stroke="black" points="1247.32,-82.06 1257.71,-79.98 1248.29,-75.13 1247.32,-82.06"/>
</g>
<!-- 168 -->
<g id="node10" class="node">
<title>168</title>
<polygon fill="#f2f2f2" stroke="black" points="144.38,-79.1 144.38,-137.5 434.48,-137.5 434.48,-79.1 144.38,-79.1"/>
<text text-anchor="middle" x="289.43" y="-120.9" font-family="Times,serif" font-size="14.00">&lt;&lt;Abstract&gt;&gt;</text>
<text text-anchor="middle" x="289.43" y="-104.1" font-family="Times,serif" font-size="14.00">InitializableAbstractStrategy</text>
<text text-anchor="middle" x="289.43" y="-87.3" font-family="Times,serif" font-size="14.00">../contracts/utils/InitializableAbstractStrategy.sol</text>
</g>
<!-- 130&#45;&gt;168 -->
<g id="edge2" class="edge">
<title>130&#45;&gt;168</title>
<path fill="none" stroke="black" d="M398.9,-42.23C388.04,-48.68 375.54,-56.12 362.95,-63.6"/>
<polygon fill="none" stroke="black" points="357.52,-54.61 337.1,-78.97 368.25,-72.66 357.52,-54.61"/>
</g>
<!-- 160 -->
<g id="node8" class="node">
<title>160</title>
<polygon fill="#f2f2f2" stroke="black" points="308.3,-348.5 308.3,-390.1 482.56,-390.1 482.56,-348.5 308.3,-348.5"/>
<text text-anchor="middle" x="395.43" y="-373.5" font-family="Times,serif" font-size="14.00">OUSD</text>
<text text-anchor="middle" x="395.43" y="-356.7" font-family="Times,serif" font-size="14.00">../contracts/token/OUSD.sol</text>
</g>
<!-- 160&#45;&gt;7 -->
<g id="edge10" class="edge">
<title>160&#45;&gt;7</title>
<path fill="none" stroke="black" d="M330.6,-390.12C295.06,-400.99 250.37,-414.65 211.09,-426.66"/>
<polygon fill="none" stroke="black" points="207.98,-416.63 182.36,-435.45 214.12,-436.72 207.98,-416.63"/>
</g>
<!-- 167 -->
<g id="node9" class="node">
<title>167</title>
<polygon fill="#f2f2f2" stroke="black" points="555.42,-427.1 555.42,-485.5 751.44,-485.5 751.44,-427.1 555.42,-427.1"/>
<text text-anchor="middle" x="653.43" y="-468.9" font-family="Times,serif" font-size="14.00">&lt;&lt;Abstract&gt;&gt;</text>
<text text-anchor="middle" x="653.43" y="-452.1" font-family="Times,serif" font-size="14.00">Initializable</text>
<text text-anchor="middle" x="653.43" y="-435.3" font-family="Times,serif" font-size="14.00">../contracts/utils/Initializable.sol</text>
</g>
<!-- 160&#45;&gt;167 -->
<g id="edge8" class="edge">
<title>160&#45;&gt;167</title>
<path fill="none" stroke="black" d="M455.59,-390.12C480.48,-398.32 510.2,-408.11 538.94,-417.58"/>
<polygon fill="none" stroke="black" points="535.94,-427.65 567.72,-427.06 542.51,-407.7 535.94,-427.65"/>
</g>
<!-- 170 -->
<g id="node11" class="node">
<title>170</title>
<polygon fill="#f2f2f2" stroke="black" points="253.1,-427.1 253.1,-485.5 537.76,-485.5 537.76,-427.1 253.1,-427.1"/>
<text text-anchor="middle" x="395.43" y="-468.9" font-family="Times,serif" font-size="14.00">&lt;&lt;Abstract&gt;&gt;</text>
<text text-anchor="middle" x="395.43" y="-452.1" font-family="Times,serif" font-size="14.00">InitializableERC20Detailed</text>
<text text-anchor="middle" x="395.43" y="-435.3" font-family="Times,serif" font-size="14.00">../contracts/utils/InitializableERC20Detailed.sol</text>
</g>
<!-- 160&#45;&gt;170 -->
<g id="edge9" class="edge">
<title>160&#45;&gt;170</title>
<path fill="none" stroke="black" d="M395.43,-390.44C395.43,-392.49 395.43,-394.63 395.43,-396.83"/>
<polygon fill="none" stroke="black" points="384.93,-396.94 395.43,-426.94 405.93,-396.94 384.93,-396.94"/>
</g>
<!-- 168&#45;&gt;7 -->
<g id="edge12" class="edge">
<title>168&#45;&gt;7</title>
<path fill="none" stroke="black" d="M275.35,-137.61C245.86,-196.94 177.33,-334.8 141.01,-407.88"/>
<polygon fill="none" stroke="black" points="131.37,-403.66 127.42,-435.2 150.18,-413.01 131.37,-403.66"/>
</g>
<!-- 168&#45;&gt;40 -->
<g id="edge15" class="edge">
<title>168&#45;&gt;40</title>
<path fill="none" stroke="black" stroke-dasharray="5,2" d="M237.05,-137.58C218.42,-147.63 197.28,-159.05 177.95,-169.48"/>
<polygon fill="black" stroke="black" points="176.06,-166.53 168.93,-174.36 179.39,-172.69 176.06,-166.53"/>
</g>
<!-- 168&#45;&gt;167 -->
<g id="edge11" class="edge">
<title>168&#45;&gt;167</title>
<path fill="none" stroke="black" d="M331.16,-137.61C374.5,-167.9 443.28,-218.49 496.43,-269.4 540.03,-311.17 583.89,-364.25 614.12,-402.99"/>
<polygon fill="none" stroke="black" points="605.91,-409.53 632.5,-426.93 622.56,-396.74 605.91,-409.53"/>
</g>
<!-- 168&#45;&gt;168 -->
<g id="edge13" class="edge">
<title>168&#45;&gt;168</title>
<path fill="none" stroke="black" stroke-dasharray="5,2" d="M434.64,-96.21C445.68,-98.89 452.48,-102.92 452.48,-108.3 452.48,-111.83 449.55,-114.78 444.42,-117.15"/>
<polygon fill="black" stroke="black" points="443.03,-113.92 434.64,-120.39 445.24,-120.56 443.03,-113.92"/>
</g>
<!-- 342 -->
<g id="node13" class="node">
<title>342</title>
<polygon fill="#f2f2f2" stroke="black" points="193.37,-522.5 193.37,-580.9 597.48,-580.9 597.48,-522.5 193.37,-522.5"/>
<text text-anchor="middle" x="395.43" y="-564.3" font-family="Times,serif" font-size="14.00">&lt;&lt;Interface&gt;&gt;</text>
<text text-anchor="middle" x="395.43" y="-547.5" font-family="Times,serif" font-size="14.00">IERC20</text>
<text text-anchor="middle" x="395.43" y="-530.7" font-family="Times,serif" font-size="14.00">../node_modules/@openzeppelin/contracts/token/ERC20/IERC20.sol</text>
</g>
<!-- 168&#45;&gt;342 -->
<g id="edge14" class="edge">
<title>168&#45;&gt;342</title>
<path fill="none" stroke="black" stroke-dasharray="5,2" d="M434.79,-133.85C579.25,-162.48 779.43,-215.54 779.43,-289.7 779.43,-289.7 779.43,-289.7 779.43,-370.3 779.43,-422.41 797.04,-448.92 760.43,-486 737.37,-509.35 674.76,-524.37 607.77,-533.98"/>
<polygon fill="black" stroke="black" points="607.28,-530.51 597.85,-535.36 608.24,-537.45 607.28,-530.51"/>
</g>
<!-- 170&#45;&gt;342 -->
<g id="edge16" class="edge">
<title>170&#45;&gt;342</title>
<path fill="none" stroke="black" stroke-dasharray="5,2" d="M395.43,-485.58C395.43,-487.66 395.43,-489.8 395.43,-491.98"/>
<polygon fill="none" stroke="black" points="384.93,-492.2 395.43,-522.2 405.93,-492.2 384.93,-492.2"/>
</g>
<!-- 180&#45;&gt;7 -->
<g id="edge18" class="edge">
<title>180&#45;&gt;7</title>
<path fill="none" stroke="black" d="M351.08,-311.65C334.96,-321.83 315.63,-334.82 299.43,-348 278.56,-364.98 278.51,-375.23 256.43,-390.6 238.82,-402.86 218.51,-413.82 198.96,-423.07"/>
<polygon fill="none" stroke="black" points="194.4,-413.61 171.24,-435.37 202.92,-432.8 194.4,-413.61"/>
</g>
<!-- 180&#45;&gt;160 -->
<g id="edge19" class="edge">
<title>180&#45;&gt;160</title>
<path fill="none" stroke="black" d="M387.32,-311.83C388.48,-319.92 389.85,-329.42 391.12,-338.3"/>
<polygon fill="black" stroke="black" points="387.67,-338.91 392.56,-348.31 394.6,-337.91 387.67,-338.91"/>
</g>
<!-- 180&#45;&gt;167 -->
<g id="edge17" class="edge">
<title>180&#45;&gt;167</title>
<path fill="none" stroke="black" d="M424.59,-311.62C444.89,-321.99 469.76,-335.16 491.43,-348 523.99,-367.28 559.11,-390.26 588.31,-410"/>
<polygon fill="none" stroke="black" points="582.52,-418.76 613.21,-427.02 594.36,-401.43 582.52,-418.76"/>
</g>
</g>
</svg>
