<?xml version="1.0" encoding="UTF-8" standalone="no"?>
<!DOCTYPE svg PUBLIC "-//W3C//DTD SVG 1.1//EN"
 "http://www.w3.org/Graphics/SVG/1.1/DTD/svg11.dtd">
<!-- Generated by graphviz version 5.0.0 (20220707.1540)
 -->
<!-- Title: UmlClassDiagram Pages: 1 -->
<svg width="754pt" height="432pt"
 viewBox="0.00 0.00 753.53 432.20" xmlns="http://www.w3.org/2000/svg" xmlns:xlink="http://www.w3.org/1999/xlink">
<g id="graph0" class="graph" transform="scale(1 1) rotate(0) translate(4 428.2)">
<title>UmlClassDiagram</title>
<polygon fill="white" stroke="transparent" points="-4,4 -4,-428.2 749.53,-428.2 749.53,4 -4,4"/>
<!-- 18 -->
<g id="node1" class="node">
<title>18</title>
<polygon fill="#f2f2f2" stroke="black" points="0,-373.7 0,-415.3 234.86,-415.3 234.86,-373.7 0,-373.7"/>
<text text-anchor="middle" x="117.43" y="-398.7" font-family="Times,serif" font-size="14.00">Governable</text>
<text text-anchor="middle" x="117.43" y="-381.9" font-family="Times,serif" font-size="14.00">../contracts/governance/Governable.sol</text>
</g>
<!-- 145 -->
<g id="node2" class="node">
<title>145</title>
<polygon fill="#f2f2f2" stroke="black" points="81.38,-79.1 81.38,-137.5 385.48,-137.5 385.48,-79.1 81.38,-79.1"/>
<text text-anchor="middle" x="233.43" y="-120.9" font-family="Times,serif" font-size="14.00">&lt;&lt;Abstract&gt;&gt;</text>
<text text-anchor="middle" x="233.43" y="-104.1" font-family="Times,serif" font-size="14.00">BaseConvexMetaStrategy</text>
<text text-anchor="middle" x="233.43" y="-87.3" font-family="Times,serif" font-size="14.00">../contracts/strategies/BaseConvexMetaStrategy.sol</text>
</g>
<!-- 148 -->
<g id="node3" class="node">
<title>148</title>
<polygon fill="#f2f2f2" stroke="black" points="100.43,-174.5 100.43,-232.9 366.42,-232.9 366.42,-174.5 100.43,-174.5"/>
<text text-anchor="middle" x="233.43" y="-216.3" font-family="Times,serif" font-size="14.00">&lt;&lt;Abstract&gt;&gt;</text>
<text text-anchor="middle" x="233.43" y="-199.5" font-family="Times,serif" font-size="14.00">BaseCurveStrategy</text>
<text text-anchor="middle" x="233.43" y="-182.7" font-family="Times,serif" font-size="14.00">../contracts/strategies/BaseCurveStrategy.sol</text>
</g>
<!-- 145&#45;&gt;148 -->
<g id="edge1" class="edge">
<title>145&#45;&gt;148</title>
<path fill="none" stroke="black" d="M233.43,-137.58C233.43,-139.66 233.43,-141.8 233.43,-143.98"/>
<polygon fill="none" stroke="black" points="222.93,-144.2 233.43,-174.2 243.93,-144.2 222.93,-144.2"/>
</g>
<!-- 188 -->
<g id="node7" class="node">
<title>188</title>
<polygon fill="#f2f2f2" stroke="black" points="88.38,-269.9 88.38,-328.3 378.48,-328.3 378.48,-269.9 88.38,-269.9"/>
<text text-anchor="middle" x="233.43" y="-311.7" font-family="Times,serif" font-size="14.00">&lt;&lt;Abstract&gt;&gt;</text>
<text text-anchor="middle" x="233.43" y="-294.9" font-family="Times,serif" font-size="14.00">InitializableAbstractStrategy</text>
<text text-anchor="middle" x="233.43" y="-278.1" font-family="Times,serif" font-size="14.00">../contracts/utils/InitializableAbstractStrategy.sol</text>
</g>
<!-- 148&#45;&gt;188 -->
<g id="edge2" class="edge">
<title>148&#45;&gt;188</title>
<path fill="none" stroke="black" d="M233.43,-232.98C233.43,-235.06 233.43,-237.2 233.43,-239.38"/>
<polygon fill="none" stroke="black" points="222.93,-239.6 233.43,-269.6 243.93,-239.6 222.93,-239.6"/>
</g>
<!-- 154 -->
<g id="node4" class="node">
<title>154</title>
<polygon fill="#f2f2f2" stroke="black" points="245.93,-0.5 245.93,-42.1 560.93,-42.1 560.93,-0.5 245.93,-0.5"/>
<text text-anchor="middle" x="403.43" y="-25.5" font-family="Times,serif" font-size="14.00">ConvexOUSDMetaStrategy</text>
<text text-anchor="middle" x="403.43" y="-8.7" font-family="Times,serif" font-size="14.00">../contracts/strategies/ConvexOUSDMetaStrategy.sol</text>
</g>
<!-- 154&#45;&gt;145 -->
<g id="edge4" class="edge">
<title>154&#45;&gt;145</title>
<path fill="none" stroke="black" d="M363.57,-42.23C349.55,-49.24 333.22,-57.4 316.97,-65.53"/>
<polygon fill="none" stroke="black" points="312.23,-56.16 290.1,-78.97 321.62,-74.94 312.23,-56.16"/>
</g>
<!-- 253 -->
<g id="node5" class="node">
<title>253</title>
<polygon fill="#f2f2f2" stroke="black" points="403.33,-87.5 403.33,-129.1 745.53,-129.1 745.53,-87.5 403.33,-87.5"/>
<text text-anchor="middle" x="574.43" y="-112.5" font-family="Times,serif" font-size="14.00">CurveThreeCoinFunctions</text>
<text text-anchor="middle" x="574.43" y="-95.7" font-family="Times,serif" font-size="14.00">../contracts/strategies/curve/CurveThreeCoinFunctions.sol</text>
</g>
<!-- 154&#45;&gt;253 -->
<g id="edge3" class="edge">
<title>154&#45;&gt;253</title>
<path fill="none" stroke="black" d="M443.52,-42.23C462.6,-51.71 485.94,-63.31 507.59,-74.08"/>
<polygon fill="none" stroke="black" points="503.05,-83.55 534.59,-87.5 512.4,-64.74 503.05,-83.55"/>
</g>
<!-- 187 -->
<g id="node6" class="node">
<title>187</title>
<polygon fill="#f2f2f2" stroke="black" points="252.42,-365.3 252.42,-423.7 448.44,-423.7 448.44,-365.3 252.42,-365.3"/>
<text text-anchor="middle" x="350.43" y="-407.1" font-family="Times,serif" font-size="14.00">&lt;&lt;Abstract&gt;&gt;</text>
<text text-anchor="middle" x="350.43" y="-390.3" font-family="Times,serif" font-size="14.00">Initializable</text>
<text text-anchor="middle" x="350.43" y="-373.5" font-family="Times,serif" font-size="14.00">../contracts/utils/Initializable.sol</text>
</g>
<!-- 188&#45;&gt;18 -->
<g id="edge6" class="edge">
<title>188&#45;&gt;18</title>
<path fill="none" stroke="black" d="M198.31,-328.38C188.11,-336.59 176.78,-345.71 165.91,-354.46"/>
<polygon fill="none" stroke="black" points="158.91,-346.62 142.13,-373.61 172.08,-362.98 158.91,-346.62"/>
</g>
<!-- 188&#45;&gt;187 -->
<g id="edge5" class="edge">
<title>188&#45;&gt;187</title>
<path fill="none" stroke="black" d="M268.85,-328.38C275.89,-333.99 283.46,-340.04 291.04,-346.09"/>
<polygon fill="none" stroke="black" points="284.73,-354.49 314.72,-365 297.83,-338.07 284.73,-354.49"/>
</g>
</g>
</svg>
