<?xml version="1.0" encoding="UTF-8" standalone="no"?>
<!DOCTYPE svg PUBLIC "-//W3C//DTD SVG 1.1//EN"
 "http://www.w3.org/Graphics/SVG/1.1/DTD/svg11.dtd">
<!-- Generated by graphviz version 5.0.0 (20220707.1540)
 -->
<!-- Title: StorageDiagram Pages: 1 -->
<svg width="1729pt" height="530pt"
 viewBox="0.00 0.00 1729.46 529.80" xmlns="http://www.w3.org/2000/svg" xmlns:xlink="http://www.w3.org/1999/xlink">
<g id="graph0" class="graph" transform="scale(1 1) rotate(0) translate(4 525.8)">
<title>StorageDiagram</title>
<polygon fill="white" stroke="transparent" points="-4,4 -4,-525.8 1725.46,-525.8 1725.46,4 -4,4"/>
<!-- 3 -->
<g id="node1" class="node">
<title>3</title>
<polygon fill="#f2f2f2" stroke="black" points="0,-0.5 0,-521.3 1114.97,-521.3 1114.97,-0.5 0,-0.5"/>
<text text-anchor="middle" x="557.49" y="-504.7" font-family="Courier New" font-size="14.00">ConvexFrxETHAMOStrategy &lt;&lt;Contract&gt;&gt;</text>
<polyline fill="none" stroke="black" points="0,-496.5 1114.97,-496.5 "/>
<text text-anchor="middle" x="33.2" y="-479.9" font-family="Courier New" font-size="14.00">slot</text>
<polyline fill="none" stroke="black" points="0,-471.7 66.41,-471.7 "/>
<text text-anchor="middle" x="33.2" y="-455.1" font-family="Courier New" font-size="14.00">0</text>
<polyline fill="none" stroke="black" points="0,-446.9 66.41,-446.9 "/>
<text text-anchor="middle" x="33.2" y="-430.3" font-family="Courier New" font-size="14.00">1&#45;50</text>
<polyline fill="none" stroke="black" points="0,-422.1 66.41,-422.1 "/>
<text text-anchor="middle" x="33.2" y="-405.5" font-family="Courier New" font-size="14.00">51</text>
<polyline fill="none" stroke="black" points="0,-397.3 66.41,-397.3 "/>
<text text-anchor="middle" x="33.2" y="-380.7" font-family="Courier New" font-size="14.00">52</text>
<polyline fill="none" stroke="black" points="0,-372.5 66.41,-372.5 "/>
<text text-anchor="middle" x="33.2" y="-355.9" font-family="Courier New" font-size="14.00">53</text>
<polyline fill="none" stroke="black" points="0,-347.7 66.41,-347.7 "/>
<text text-anchor="middle" x="33.2" y="-331.1" font-family="Courier New" font-size="14.00">54</text>
<polyline fill="none" stroke="black" points="0,-322.9 66.41,-322.9 "/>
<text text-anchor="middle" x="33.2" y="-306.3" font-family="Courier New" font-size="14.00">55</text>
<polyline fill="none" stroke="black" points="0,-298.1 66.41,-298.1 "/>
<text text-anchor="middle" x="33.2" y="-281.5" font-family="Courier New" font-size="14.00">56</text>
<polyline fill="none" stroke="black" points="0,-273.3 66.41,-273.3 "/>
<text text-anchor="middle" x="33.2" y="-256.7" font-family="Courier New" font-size="14.00">57</text>
<polyline fill="none" stroke="black" points="0,-248.5 66.41,-248.5 "/>
<text text-anchor="middle" x="33.2" y="-231.9" font-family="Courier New" font-size="14.00">58</text>
<polyline fill="none" stroke="black" points="0,-223.7 66.41,-223.7 "/>
<text text-anchor="middle" x="33.2" y="-207.1" font-family="Courier New" font-size="14.00">59&#45;156</text>
<polyline fill="none" stroke="black" points="0,-198.9 66.41,-198.9 "/>
<text text-anchor="middle" x="33.2" y="-182.3" font-family="Courier New" font-size="14.00">157</text>
<polyline fill="none" stroke="black" points="0,-174.1 66.41,-174.1 "/>
<text text-anchor="middle" x="33.2" y="-157.5" font-family="Courier New" font-size="14.00">158</text>
<polyline fill="none" stroke="black" points="0,-149.3 66.41,-149.3 "/>
<text text-anchor="middle" x="33.2" y="-132.7" font-family="Courier New" font-size="14.00">159</text>
<polyline fill="none" stroke="black" points="0,-124.5 66.41,-124.5 "/>
<text text-anchor="middle" x="33.2" y="-107.9" font-family="Courier New" font-size="14.00">160</text>
<polyline fill="none" stroke="black" points="0,-99.7 66.41,-99.7 "/>
<text text-anchor="middle" x="33.2" y="-83.1" font-family="Courier New" font-size="14.00">161</text>
<polyline fill="none" stroke="black" points="0,-74.9 66.41,-74.9 "/>
<text text-anchor="middle" x="33.2" y="-58.3" font-family="Courier New" font-size="14.00">162</text>
<polyline fill="none" stroke="black" points="0,-50.1 66.41,-50.1 "/>
<text text-anchor="middle" x="33.2" y="-33.5" font-family="Courier New" font-size="14.00">163</text>
<polyline fill="none" stroke="black" points="0,-25.3 66.41,-25.3 "/>
<text text-anchor="middle" x="33.2" y="-8.7" font-family="Courier New" font-size="14.00">164</text>
<polyline fill="none" stroke="black" points="66.41,-0.5 66.41,-496.5 "/>
<text text-anchor="middle" x="590.69" y="-479.9" font-family="Courier New" font-size="14.00">type: &lt;inherited contract&gt;.variable (bytes)</text>
<polyline fill="none" stroke="black" points="66.41,-471.7 1114.97,-471.7 "/>
<text text-anchor="middle" x="186.12" y="-455.1" font-family="Courier New" font-size="14.00">unallocated (30)</text>
<polyline fill="none" stroke="black" points="305.83,-446.9 305.83,-471.7 "/>
<text text-anchor="middle" x="510.05" y="-455.1" font-family="Courier New" font-size="14.00">bool: Initializable.initializing (1)</text>
<polyline fill="none" stroke="black" points="714.28,-446.9 714.28,-471.7 "/>
<text text-anchor="middle" x="914.3" y="-455.1" font-family="Courier New" font-size="14.00">bool: Initializable.initialized (1)</text>
<polyline fill="none" stroke="black" points="66.41,-446.9 1114.97,-446.9 "/>
<text text-anchor="middle" x="590.54" y="-430.3" font-family="Courier New" font-size="14.00">uint256[50]: Initializable.______gap (1600)</text>
<polyline fill="none" stroke="black" points="66.41,-422.1 1114.97,-422.1 "/>
<text text-anchor="middle" x="212.62" y="-405.5" font-family="Courier New" font-size="14.00">unallocated (12)</text>
<polyline fill="none" stroke="black" points="358.83,-397.3 358.83,-422.1 "/>
<text text-anchor="middle" x="736.58" y="-405.5" font-family="Courier New" font-size="14.00">address: InitializableAbstractStrategy._deprecated_platformAddress (20)</text>
<polyline fill="none" stroke="black" points="66.41,-397.3 1114.97,-397.3 "/>
<text text-anchor="middle" x="219.12" y="-380.7" font-family="Courier New" font-size="14.00">unallocated (12)</text>
<polyline fill="none" stroke="black" points="371.83,-372.5 371.83,-397.3 "/>
<text text-anchor="middle" x="742.98" y="-380.7" font-family="Courier New" font-size="14.00">address: InitializableAbstractStrategy._deprecated_vaultAddress (20)</text>
<polyline fill="none" stroke="black" points="66.41,-372.5 1114.97,-372.5 "/>
<text text-anchor="middle" x="590.46" y="-355.9" font-family="Courier New" font-size="14.00">mapping(address=&gt;address): InitializableAbstractStrategy.assetToPToken (32)</text>
<polyline fill="none" stroke="black" points="66.41,-347.7 1114.97,-347.7 "/>
<text text-anchor="middle" x="590.55" y="-331.1" font-family="Courier New" font-size="14.00">address[]: InitializableAbstractStrategy.assetsMapped (32)</text>
<polyline fill="none" stroke="black" points="66.41,-322.9 1114.97,-322.9 "/>
<text text-anchor="middle" x="206.62" y="-306.3" font-family="Courier New" font-size="14.00">unallocated (12)</text>
<polyline fill="none" stroke="black" points="346.83,-298.1 346.83,-322.9 "/>
<text text-anchor="middle" x="730.68" y="-306.3" font-family="Courier New" font-size="14.00">address: InitializableAbstractStrategy._deprecated_rewardTokenAddress (20)</text>
<polyline fill="none" stroke="black" points="66.41,-298.1 1114.97,-298.1 "/>
<text text-anchor="middle" x="590.36" y="-281.5" font-family="Courier New" font-size="14.00">uint256: InitializableAbstractStrategy._deprecated_rewardLiquidationThreshold (32)</text>
<polyline fill="none" stroke="black" points="66.41,-273.3 1114.97,-273.3 "/>
<text text-anchor="middle" x="236.12" y="-256.7" font-family="Courier New" font-size="14.00">unallocated (12)</text>
<polyline fill="none" stroke="black" points="405.83,-248.5 405.83,-273.3 "/>
<text text-anchor="middle" x="760.37" y="-256.7" font-family="Courier New" font-size="14.00">address: InitializableAbstractStrategy.harvesterAddress (20)</text>
<polyline fill="none" stroke="black" points="66.41,-248.5 1114.97,-248.5 "/>
<text text-anchor="middle" x="590.65" y="-231.9" font-family="Courier New" font-size="14.00">address[]: InitializableAbstractStrategy.rewardTokenAddresses (32)</text>
<polyline fill="none" stroke="black" points="66.41,-223.7 1114.97,-223.7 "/>
<text text-anchor="middle" x="590.55" y="-207.1" font-family="Courier New" font-size="14.00">int256[98]: InitializableAbstractStrategy._reserved (3136)</text>
<polyline fill="none" stroke="black" points="66.41,-198.9 1114.97,-198.9 "/>
<text text-anchor="middle" x="221.12" y="-182.3" font-family="Courier New" font-size="14.00">unallocated (12)</text>
<polyline fill="none" stroke="black" points="375.83,-174.1 375.83,-198.9 "/>
<text text-anchor="middle" x="745.28" y="-182.3" font-family="Courier New" font-size="14.00">address: BaseConvexAMOStrategy._deprecated_cvxDepositorAddress (20)</text>
<polyline fill="none" stroke="black" points="66.41,-174.1 1114.97,-174.1 "/>
<text text-anchor="middle" x="229.62" y="-157.5" font-family="Courier New" font-size="14.00">unallocated (12)</text>
<polyline fill="none" stroke="black" points="392.83,-149.3 392.83,-174.1 "/>
<text text-anchor="middle" x="753.47" y="-157.5" font-family="Courier New" font-size="14.00">address: BaseConvexAMOStrategy._deprecated_cvxRewardStaker (20)</text>
<polyline fill="none" stroke="black" points="66.41,-149.3 1114.97,-149.3 "/>
<text text-anchor="middle" x="590.55" y="-132.7" font-family="Courier New" font-size="14.00">uint256: BaseConvexAMOStrategy._deprecated_cvxDepositorPTokenId (32)</text>
<polyline fill="none" stroke="black" points="66.41,-124.5 1114.97,-124.5 "/>
<text text-anchor="middle" x="242.12" y="-107.9" font-family="Courier New" font-size="14.00">unallocated (12)</text>
<polyline fill="none" stroke="black" points="417.83,-99.7 417.83,-124.5 "/>
<text text-anchor="middle" x="766.27" y="-107.9" font-family="Courier New" font-size="14.00">address: BaseConvexAMOStrategy._deprecated_curvePool (20)</text>
<polyline fill="none" stroke="black" points="66.41,-99.7 1114.97,-99.7 "/>
<text text-anchor="middle" x="246.62" y="-83.1" font-family="Courier New" font-size="14.00">unallocated (12)</text>
<polyline fill="none" stroke="black" points="426.83,-74.9 426.83,-99.7 "/>
<text text-anchor="middle" x="770.87" y="-83.1" font-family="Courier New" font-size="14.00">address: BaseConvexAMOStrategy._deprecated_lpToken (20)</text>
<polyline fill="none" stroke="black" points="66.41,-74.9 1114.97,-74.9 "/>
<text text-anchor="middle" x="252.62" y="-58.3" font-family="Courier New" font-size="14.00">unallocated (12)</text>
<polyline fill="none" stroke="black" points="438.83,-50.1 438.83,-74.9 "/>
<text text-anchor="middle" x="776.77" y="-58.3" font-family="Courier New" font-size="14.00">address: BaseConvexAMOStrategy._deprecated_oeth (20)</text>
<polyline fill="none" stroke="black" points="66.41,-50.1 1114.97,-50.1 "/>
<text text-anchor="middle" x="252.62" y="-33.5" font-family="Courier New" font-size="14.00">unallocated (12)</text>
<polyline fill="none" stroke="black" points="438.83,-25.3 438.83,-50.1 "/>
<text text-anchor="middle" x="776.77" y="-33.5" font-family="Courier New" font-size="14.00">address: BaseConvexAMOStrategy._deprecated_weth (20)</text>
<polyline fill="none" stroke="black" points="66.41,-25.3 1114.97,-25.3 "/>
<text text-anchor="middle" x="326.45" y="-8.7" font-family="Courier New" font-size="14.00">uint128: BaseConvexAMOStrategy._deprecated_ethCoinIndex (16)</text>
<polyline fill="none" stroke="black" points="586.49,-0.5 586.49,-25.3 "/>
<text text-anchor="middle" x="850.73" y="-8.7" font-family="Courier New" font-size="14.00">uint128: BaseConvexAMOStrategy._deprecated_oethCoinIndex (16)</text>
</g>
<!-- 1 -->
<g id="node2" class="node">
<title>1</title>
<polygon fill="#f2f2f2" stroke="black" points="1150.97,-295.3 1150.97,-386.5 1721.46,-386.5 1721.46,-295.3 1150.97,-295.3"/>
<text text-anchor="middle" x="1436.22" y="-369.9" font-family="Courier New" font-size="14.00">address[]: assetsMapped &lt;&lt;Array&gt;&gt;</text>
<text text-anchor="middle" x="1436.22" y="-353.1" font-family="Courier New" font-size="14.00">0x4a11f94e20a93c79f6ec743a1954ec4fc2c08429ae2122118bf234b2185c81b8</text>
<polyline fill="none" stroke="black" points="1150.97,-344.9 1721.46,-344.9 "/>
<text text-anchor="middle" x="1243.18" y="-328.3" font-family="Courier New" font-size="14.00">offset</text>
<polyline fill="none" stroke="black" points="1150.97,-320.1 1335.38,-320.1 "/>
<text text-anchor="middle" x="1243.18" y="-303.5" font-family="Courier New" font-size="14.00">0</text>
<polyline fill="none" stroke="black" points="1335.38,-295.3 1335.38,-344.9 "/>
<text text-anchor="middle" x="1528" y="-328.3" font-family="Courier New" font-size="14.00">type: variable (bytes)</text>
<polyline fill="none" stroke="black" points="1335.38,-320.1 1720.62,-320.1 "/>
<text text-anchor="middle" x="1440.09" y="-303.5" font-family="Courier New" font-size="14.00">unallocated (12)</text>
<polyline fill="none" stroke="black" points="1544.8,-295.3 1544.8,-320.1 "/>
<text text-anchor="middle" x="1632.71" y="-303.5" font-family="Courier New" font-size="14.00">address (20)</text>
</g>
<!-- 3&#45;&gt;1 -->
<g id="edge1" class="edge">
<title>3:8&#45;&gt;1</title>
<path fill="none" stroke="black" d="M1114.97,-334.9C1123.37,-334.9 1131.88,-334.92 1140.48,-334.96"/>
<polygon fill="black" stroke="black" points="1140.59,-338.46 1150.61,-335.01 1140.63,-331.46 1140.59,-338.46"/>
</g>
<!-- 2 -->
<g id="node3" class="node">
<title>2</title>
<polygon fill="#f2f2f2" stroke="black" points="1150.97,-185.3 1150.97,-276.5 1721.46,-276.5 1721.46,-185.3 1150.97,-185.3"/>
<text text-anchor="middle" x="1436.22" y="-259.9" font-family="Courier New" font-size="14.00">address[]: rewardTokenAddresses &lt;&lt;Array&gt;&gt;</text>
<text text-anchor="middle" x="1436.22" y="-243.1" font-family="Courier New" font-size="14.00">0xa2999d817b6757290b50e8ecf3fa939673403dd35c97de392fdb343b4015ce9e</text>
<polyline fill="none" stroke="black" points="1150.97,-234.9 1721.46,-234.9 "/>
<text text-anchor="middle" x="1243.18" y="-218.3" font-family="Courier New" font-size="14.00">offset</text>
<polyline fill="none" stroke="black" points="1150.97,-210.1 1335.38,-210.1 "/>
<text text-anchor="middle" x="1243.18" y="-193.5" font-family="Courier New" font-size="14.00">0</text>
<polyline fill="none" stroke="black" points="1335.38,-185.3 1335.38,-234.9 "/>
<text text-anchor="middle" x="1528" y="-218.3" font-family="Courier New" font-size="14.00">type: variable (bytes)</text>
<polyline fill="none" stroke="black" points="1335.38,-210.1 1720.62,-210.1 "/>
<text text-anchor="middle" x="1440.09" y="-193.5" font-family="Courier New" font-size="14.00">unallocated (12)</text>
<polyline fill="none" stroke="black" points="1544.8,-185.3 1544.8,-210.1 "/>
<text text-anchor="middle" x="1632.71" y="-193.5" font-family="Courier New" font-size="14.00">address (20)</text>
</g>
<!-- 3&#45;&gt;2 -->
<g id="edge2" class="edge">
<title>3:13&#45;&gt;2</title>
<path fill="none" stroke="black" d="M1114.97,-235.9C1123.37,-235.9 1131.88,-235.88 1140.48,-235.85"/>
<polygon fill="black" stroke="black" points="1140.62,-239.35 1150.6,-235.8 1140.59,-232.35 1140.62,-239.35"/>
</g>
</g>
</svg>
