<?xml version="1.0" encoding="UTF-8" standalone="no"?>
<!DOCTYPE svg PUBLIC "-//W3C//DTD SVG 1.1//EN"
 "http://www.w3.org/Graphics/SVG/1.1/DTD/svg11.dtd">
<!-- Generated by graphviz version 5.0.0 (20220707.1540)
 -->
<!-- Title: UmlClassDiagram Pages: 1 -->
<svg width="456pt" height="432pt"
 viewBox="0.00 0.00 456.44 432.20" xmlns="http://www.w3.org/2000/svg" xmlns:xlink="http://www.w3.org/1999/xlink">
<g id="graph0" class="graph" transform="scale(1 1) rotate(0) translate(4 428.2)">
<title>UmlClassDiagram</title>
<polygon fill="white" stroke="transparent" points="-4,4 -4,-428.2 452.44,-428.2 452.44,4 -4,4"/>
<!-- 18 -->
<g id="node1" class="node">
<title>18</title>
<polygon fill="#f2f2f2" stroke="black" points="0,-373.7 0,-415.3 234.86,-415.3 234.86,-373.7 0,-373.7"/>
<text text-anchor="middle" x="117.43" y="-398.7" font-family="Times,serif" font-size="14.00">Governable</text>
<text text-anchor="middle" x="117.43" y="-381.9" font-family="Times,serif" font-size="14.00">../contracts/governance/Governable.sol</text>
</g>
<!-- 156 -->
<g id="node2" class="node">
<title>156</title>
<polygon fill="#f2f2f2" stroke="black" points="85.27,-0.5 85.27,-42.1 381.59,-42.1 381.59,-0.5 85.27,-0.5"/>
<text text-anchor="middle" x="233.43" y="-25.5" font-family="Times,serif" font-size="14.00">ConvexEthMetaStrategy</text>
<text text-anchor="middle" x="233.43" y="-8.7" font-family="Times,serif" font-size="14.00">../contracts/strategies/ConvexEthMetaStrategy.sol</text>
</g>
<!-- 183 -->
<g id="node6" class="node">
<title>183</title>
<polygon fill="#f2f2f2" stroke="black" points="88.38,-269.9 88.38,-328.3 378.48,-328.3 378.48,-269.9 88.38,-269.9"/>
<text text-anchor="middle" x="233.43" y="-311.7" font-family="Times,serif" font-size="14.00">&lt;&lt;Abstract&gt;&gt;</text>
<text text-anchor="middle" x="233.43" y="-294.9" font-family="Times,serif" font-size="14.00">InitializableAbstractStrategy</text>
<text text-anchor="middle" x="233.43" y="-278.1" font-family="Times,serif" font-size="14.00">../contracts/utils/InitializableAbstractStrategy.sol</text>
</g>
<!-- 156&#45;&gt;195 -->
<g id="edge1" class="edge">
<title>156&#45;&gt;195</title>
<path fill="none" stroke="black" d="M233.43,-42.44C233.43,-44.49 233.43,-46.63 233.43,-48.83"/>
<polygon fill="none" stroke="black" points="222.93,-48.94 233.43,-78.94 243.93,-48.94 222.93,-48.94"/>
</g>
<!-- 182 -->
<g id="node5" class="node">
<title>182</title>
<polygon fill="#f2f2f2" stroke="black" points="252.42,-365.3 252.42,-423.7 448.44,-423.7 448.44,-365.3 252.42,-365.3"/>
<text text-anchor="middle" x="350.43" y="-407.1" font-family="Times,serif" font-size="14.00">&lt;&lt;Abstract&gt;&gt;</text>
<text text-anchor="middle" x="350.43" y="-390.3" font-family="Times,serif" font-size="14.00">Initializable</text>
<text text-anchor="middle" x="350.43" y="-373.5" font-family="Times,serif" font-size="14.00">../contracts/utils/Initializable.sol</text>
</g>
<!-- 183&#45;&gt;18 -->
<g id="edge5" class="edge">
<title>183&#45;&gt;18</title>
<path fill="none" stroke="black" d="M198.31,-328.38C188.11,-336.59 176.78,-345.71 165.91,-354.46"/>
<polygon fill="none" stroke="black" points="158.91,-346.62 142.13,-373.61 172.08,-362.98 158.91,-346.62"/>
</g>
<!-- 183&#45;&gt;182 -->
<g id="edge4" class="edge">
<title>183&#45;&gt;182</title>
<path fill="none" stroke="black" d="M268.85,-328.38C275.89,-333.99 283.46,-340.04 291.04,-346.09"/>
<polygon fill="none" stroke="black" points="284.73,-354.49 314.72,-365 297.83,-338.07 284.73,-354.49"/>
</g>
</g>
</svg>
