<?xml version="1.0" encoding="UTF-8" standalone="no"?>
<!DOCTYPE svg PUBLIC "-//W3C//DTD SVG 1.1//EN"
 "http://www.w3.org/Graphics/SVG/1.1/DTD/svg11.dtd">
<!-- Generated by graphviz version 5.0.0 (20220707.1540)
 -->
<!-- Title: UmlClassDiagram Pages: 1 -->
<svg width="1207pt" height="685pt"
 viewBox="0.00 0.00 1206.56 684.80" xmlns="http://www.w3.org/2000/svg" xmlns:xlink="http://www.w3.org/1999/xlink">
<g id="graph0" class="graph" transform="scale(1 1) rotate(0) translate(4 680.8)">
<title>UmlClassDiagram</title>
<polygon fill="white" stroke="transparent" points="-4,4 -4,-680.8 1202.56,-680.8 1202.56,4 -4,4"/>
<!-- 7 -->
<g id="node1" class="node">
<title>7</title>
<polygon fill="#f2f2f2" stroke="black" points="297.57,-530.9 297.57,-572.5 532.43,-572.5 532.43,-530.9 297.57,-530.9"/>
<text text-anchor="middle" x="415" y="-555.9" font-family="Times,serif" font-size="14.00">Governable</text>
<text text-anchor="middle" x="415" y="-539.1" font-family="Times,serif" font-size="14.00">../contracts/governance/Governable.sol</text>
</g>
<!-- 40 -->
<g id="node2" class="node">
<title>40</title>
<polygon fill="#f2f2f2" stroke="black" points="354.39,-269.9 354.39,-328.3 549.61,-328.3 549.61,-269.9 354.39,-269.9"/>
<text text-anchor="middle" x="452" y="-311.7" font-family="Times,serif" font-size="14.00">&lt;&lt;Interface&gt;&gt;</text>
<text text-anchor="middle" x="452" y="-294.9" font-family="Times,serif" font-size="14.00">IVault</text>
<text text-anchor="middle" x="452" y="-278.1" font-family="Times,serif" font-size="14.00">../contracts/interfaces/IVault.sol</text>
</g>
<!-- 177 -->
<g id="node13" class="node">
<title>177</title>
<polygon fill="#f2f2f2" stroke="black" points="343.55,-365.3 343.55,-406.9 550.45,-406.9 550.45,-365.3 343.55,-365.3"/>
<text text-anchor="middle" x="447" y="-390.3" font-family="Times,serif" font-size="14.00">VaultStorage</text>
<text text-anchor="middle" x="447" y="-373.5" font-family="Times,serif" font-size="14.00">../contracts/vault/VaultStorage.sol</text>
</g>
<!-- 40&#45;&gt;177 -->
<g id="edge1" class="edge">
<title>40&#45;&gt;177</title>
<path fill="none" stroke="black" stroke-dasharray="5,2" d="M450.34,-328.4C449.83,-336.99 449.27,-346.44 448.76,-355.13"/>
<polygon fill="black" stroke="black" points="445.26,-355.05 448.17,-365.24 452.25,-355.46 445.26,-355.05"/>
</g>
<!-- 141 -->
<g id="node3" class="node">
<title>141</title>
<polygon fill="#f2f2f2" stroke="black" points="943.44,-174.5 943.44,-232.9 1198.56,-232.9 1198.56,-174.5 943.44,-174.5"/>
<text text-anchor="middle" x="1071" y="-216.3" font-family="Times,serif" font-size="14.00">&lt;&lt;Interface&gt;&gt;</text>
<text text-anchor="middle" x="1071" y="-199.5" font-family="Times,serif" font-size="14.00">IConvexDeposits</text>
<text text-anchor="middle" x="1071" y="-182.7" font-family="Times,serif" font-size="14.00">../contracts/strategies/IConvexDeposits.sol</text>
</g>
<!-- 142 -->
<g id="node4" class="node">
<title>142</title>
<polygon fill="#f2f2f2" stroke="black" points="27.61,-174.5 27.61,-232.9 294.39,-232.9 294.39,-174.5 27.61,-174.5"/>
<text text-anchor="middle" x="161" y="-216.3" font-family="Times,serif" font-size="14.00">&lt;&lt;Interface&gt;&gt;</text>
<text text-anchor="middle" x="161" y="-199.5" font-family="Times,serif" font-size="14.00">ICurveETHPoolV1</text>
<text text-anchor="middle" x="161" y="-182.7" font-family="Times,serif" font-size="14.00">../contracts/strategies/ICurveETHPoolV1.sol</text>
</g>
<!-- 145 -->
<g id="node5" class="node">
<title>145</title>
<polygon fill="#f2f2f2" stroke="black" points="266.77,-79.1 266.77,-137.5 489.23,-137.5 489.23,-79.1 266.77,-79.1"/>
<text text-anchor="middle" x="378" y="-120.9" font-family="Times,serif" font-size="14.00">&lt;&lt;Interface&gt;&gt;</text>
<text text-anchor="middle" x="378" y="-104.1" font-family="Times,serif" font-size="14.00">ICurvePool</text>
<text text-anchor="middle" x="378" y="-87.3" font-family="Times,serif" font-size="14.00">../contracts/strategies/ICurvePool.sol</text>
</g>
<!-- 146 -->
<g id="node6" class="node">
<title>146</title>
<polygon fill="#f2f2f2" stroke="black" points="312.56,-174.5 312.56,-232.9 561.44,-232.9 561.44,-174.5 312.56,-174.5"/>
<text text-anchor="middle" x="437" y="-216.3" font-family="Times,serif" font-size="14.00">&lt;&lt;Interface&gt;&gt;</text>
<text text-anchor="middle" x="437" y="-199.5" font-family="Times,serif" font-size="14.00">IRewardStaking</text>
<text text-anchor="middle" x="437" y="-182.7" font-family="Times,serif" font-size="14.00">../contracts/strategies/IRewardStaking.sol</text>
</g>
<!-- 215 -->
<g id="node7" class="node">
<title>215</title>
<polygon fill="#f2f2f2" stroke="black" points="507,-79.1 507,-137.5 843,-137.5 843,-79.1 507,-79.1"/>
<text text-anchor="middle" x="675" y="-120.9" font-family="Times,serif" font-size="14.00">&lt;&lt;Abstract&gt;&gt;</text>
<text text-anchor="middle" x="675" y="-104.1" font-family="Times,serif" font-size="14.00">BaseConvexAMOStrategy</text>
<text text-anchor="middle" x="675" y="-87.3" font-family="Times,serif" font-size="14.00">../contracts/strategies/amo/BaseConvexAMOStrategy.sol</text>
</g>
<!-- 215&#45;&gt;40 -->
<g id="edge5" class="edge">
<title>215&#45;&gt;40</title>
<path fill="none" stroke="black" stroke-dasharray="5,2" d="M642.78,-137.52C631.21,-148.37 618.45,-161.24 608,-174 588.15,-198.25 592.9,-212 570,-233.4 557.16,-245.4 541.67,-255.94 526.21,-264.83"/>
<polygon fill="black" stroke="black" points="524.17,-261.96 517.12,-269.88 527.56,-268.08 524.17,-261.96"/>
</g>
<!-- 215&#45;&gt;141 -->
<g id="edge6" class="edge">
<title>215&#45;&gt;141</title>
<path fill="none" stroke="black" stroke-dasharray="5,2" d="M794.62,-137.51C840.96,-148.44 894.13,-160.98 941.38,-172.13"/>
<polygon fill="black" stroke="black" points="940.83,-175.59 951.37,-174.48 942.44,-168.78 940.83,-175.59"/>
</g>
<!-- 215&#45;&gt;142 -->
<g id="edge4" class="edge">
<title>215&#45;&gt;142</title>
<path fill="none" stroke="black" d="M507.7,-137.55C446.75,-148.07 377.08,-160.37 304.79,-173.87"/>
<polygon fill="black" stroke="black" points="303.75,-170.5 294.57,-175.78 305.04,-177.38 303.75,-170.5"/>
</g>
<!-- 215&#45;&gt;146 -->
<g id="edge3" class="edge">
<title>215&#45;&gt;146</title>
<path fill="none" stroke="black" d="M602.95,-137.58C576.39,-148 546.12,-159.88 518.76,-170.61"/>
<polygon fill="black" stroke="black" points="517.25,-167.45 509.22,-174.36 519.81,-173.96 517.25,-167.45"/>
</g>
<!-- 165 -->
<g id="node11" class="node">
<title>165</title>
<polygon fill="#f2f2f2" stroke="black" points="616.95,-174.5 616.95,-232.9 907.05,-232.9 907.05,-174.5 616.95,-174.5"/>
<text text-anchor="middle" x="762" y="-216.3" font-family="Times,serif" font-size="14.00">&lt;&lt;Abstract&gt;&gt;</text>
<text text-anchor="middle" x="762" y="-199.5" font-family="Times,serif" font-size="14.00">InitializableAbstractStrategy</text>
<text text-anchor="middle" x="762" y="-182.7" font-family="Times,serif" font-size="14.00">../contracts/utils/InitializableAbstractStrategy.sol</text>
</g>
<!-- 215&#45;&gt;165 -->
<g id="edge2" class="edge">
<title>215&#45;&gt;165</title>
<path fill="none" stroke="black" d="M701.34,-137.58C705.64,-142.2 710.21,-147.1 714.84,-152.07"/>
<polygon fill="none" stroke="black" points="707.32,-159.4 735.45,-174.2 722.69,-145.09 707.32,-159.4"/>
</g>
<!-- 219 -->
<g id="node8" class="node">
<title>219</title>
<polygon fill="#f2f2f2" stroke="black" points="503.5,-0.5 503.5,-42.1 846.5,-42.1 846.5,-0.5 503.5,-0.5"/>
<text text-anchor="middle" x="675" y="-25.5" font-family="Times,serif" font-size="14.00">ConvexOUSDMetaStrategy</text>
<text text-anchor="middle" x="675" y="-8.7" font-family="Times,serif" font-size="14.00">../contracts/strategies/amo/ConvexOUSDMetaStrategy.sol</text>
</g>
<!-- 219&#45;&gt;145 -->
<g id="edge8" class="edge">
<title>219&#45;&gt;145</title>
<path fill="none" stroke="black" d="M605.74,-42.12C570.27,-52.27 526.27,-64.87 486.43,-76.27"/>
<polygon fill="black" stroke="black" points="485.32,-72.95 476.66,-79.06 487.24,-79.68 485.32,-72.95"/>
</g>
<!-- 219&#45;&gt;215 -->
<g id="edge7" class="edge">
<title>219&#45;&gt;215</title>
<path fill="none" stroke="black" d="M675,-42.44C675,-44.49 675,-46.63 675,-48.83"/>
<polygon fill="none" stroke="black" points="664.5,-48.94 675,-78.94 685.5,-48.94 664.5,-48.94"/>
</g>
<!-- 344 -->
<g id="node14" class="node">
<title>344</title>
<polygon fill="#f2f2f2" stroke="black" points="490.94,-617.9 490.94,-676.3 895.06,-676.3 895.06,-617.9 490.94,-617.9"/>
<text text-anchor="middle" x="693" y="-659.7" font-family="Times,serif" font-size="14.00">&lt;&lt;Interface&gt;&gt;</text>
<text text-anchor="middle" x="693" y="-642.9" font-family="Times,serif" font-size="14.00">IERC20</text>
<text text-anchor="middle" x="693" y="-626.1" font-family="Times,serif" font-size="14.00">../node_modules/@openzeppelin/contracts/token/ERC20/IERC20.sol</text>
</g>
<!-- 219&#45;&gt;344 -->
<g id="edge9" class="edge">
<title>219&#45;&gt;344</title>
<path fill="none" stroke="black" stroke-dasharray="5,2" d="M503.36,-34.25C303.38,-53 0,-98.61 0,-202.7 0,-202.7 0,-202.7 0,-465.7 0,-566.26 276.72,-611.76 480.44,-631.64"/>
<polygon fill="black" stroke="black" points="480.4,-635.15 490.69,-632.63 481.07,-628.19 480.4,-635.15"/>
</g>
<!-- 157 -->
<g id="node9" class="node">
<title>157</title>
<polygon fill="#f2f2f2" stroke="black" points="605.87,-443.9 605.87,-485.5 780.13,-485.5 780.13,-443.9 605.87,-443.9"/>
<text text-anchor="middle" x="693" y="-468.9" font-family="Times,serif" font-size="14.00">OUSD</text>
<text text-anchor="middle" x="693" y="-452.1" font-family="Times,serif" font-size="14.00">../contracts/token/OUSD.sol</text>
</g>
<!-- 157&#45;&gt;7 -->
<g id="edge12" class="edge">
<title>157&#45;&gt;7</title>
<path fill="none" stroke="black" d="M628.17,-485.52C592.63,-496.39 547.94,-510.05 508.66,-522.06"/>
<polygon fill="none" stroke="black" points="505.55,-512.03 479.93,-530.85 511.69,-532.12 505.55,-512.03"/>
</g>
<!-- 164 -->
<g id="node10" class="node">
<title>164</title>
<polygon fill="#f2f2f2" stroke="black" points="852.99,-522.5 852.99,-580.9 1049.01,-580.9 1049.01,-522.5 852.99,-522.5"/>
<text text-anchor="middle" x="951" y="-564.3" font-family="Times,serif" font-size="14.00">&lt;&lt;Abstract&gt;&gt;</text>
<text text-anchor="middle" x="951" y="-547.5" font-family="Times,serif" font-size="14.00">Initializable</text>
<text text-anchor="middle" x="951" y="-530.7" font-family="Times,serif" font-size="14.00">../contracts/utils/Initializable.sol</text>
</g>
<!-- 157&#45;&gt;164 -->
<g id="edge10" class="edge">
<title>157&#45;&gt;164</title>
<path fill="none" stroke="black" d="M753.16,-485.52C778.05,-493.72 807.77,-503.51 836.51,-512.98"/>
<polygon fill="none" stroke="black" points="833.51,-523.05 865.29,-522.46 840.08,-503.1 833.51,-523.05"/>
</g>
<!-- 167 -->
<g id="node12" class="node">
<title>167</title>
<polygon fill="#f2f2f2" stroke="black" points="550.67,-522.5 550.67,-580.9 835.33,-580.9 835.33,-522.5 550.67,-522.5"/>
<text text-anchor="middle" x="693" y="-564.3" font-family="Times,serif" font-size="14.00">&lt;&lt;Abstract&gt;&gt;</text>
<text text-anchor="middle" x="693" y="-547.5" font-family="Times,serif" font-size="14.00">InitializableERC20Detailed</text>
<text text-anchor="middle" x="693" y="-530.7" font-family="Times,serif" font-size="14.00">../contracts/utils/InitializableERC20Detailed.sol</text>
</g>
<!-- 157&#45;&gt;167 -->
<g id="edge11" class="edge">
<title>157&#45;&gt;167</title>
<path fill="none" stroke="black" d="M693,-485.84C693,-487.89 693,-490.03 693,-492.23"/>
<polygon fill="none" stroke="black" points="682.5,-492.34 693,-522.34 703.5,-492.34 682.5,-492.34"/>
</g>
<!-- 165&#45;&gt;7 -->
<g id="edge14" class="edge">
<title>165&#45;&gt;7</title>
<path fill="none" stroke="black" d="M733.77,-232.92C694.58,-272.09 621.43,-345.16 559,-407.4 524.46,-441.83 485.22,-480.88 456.43,-509.51"/>
<polygon fill="none" stroke="black" points="448.91,-502.18 435.04,-530.77 463.72,-517.07 448.91,-502.18"/>
</g>
<!-- 165&#45;&gt;40 -->
<g id="edge17" class="edge">
<title>165&#45;&gt;40</title>
<path fill="none" stroke="black" stroke-dasharray="5,2" d="M668.15,-232.98C632.57,-243.7 591.87,-255.96 555.45,-266.93"/>
<polygon fill="black" stroke="black" points="554.36,-263.6 545.8,-269.84 556.38,-270.31 554.36,-263.6"/>
</g>
<!-- 165&#45;&gt;164 -->
<g id="edge13" class="edge">
<title>165&#45;&gt;164</title>
<path fill="none" stroke="black" d="M777.47,-233.01C808.83,-290.44 880.4,-421.45 921.15,-496.05"/>
<polygon fill="none" stroke="black" points="911.99,-501.18 935.58,-522.48 930.42,-491.12 911.99,-501.18"/>
</g>
<!-- 165&#45;&gt;165 -->
<g id="edge15" class="edge">
<title>165&#45;&gt;165</title>
<path fill="none" stroke="black" stroke-dasharray="5,2" d="M907.21,-190.48C918.25,-193.42 925.05,-197.82 925.05,-203.7 925.05,-207.56 922.12,-210.78 916.99,-213.37"/>
<polygon fill="black" stroke="black" points="915.42,-210.22 907.21,-216.92 917.81,-216.8 915.42,-210.22"/>
</g>
<!-- 165&#45;&gt;344 -->
<g id="edge16" class="edge">
<title>165&#45;&gt;344</title>
<path fill="none" stroke="black" stroke-dasharray="5,2" d="M907.05,-230.62C989.73,-254.68 1077,-300.18 1077,-385.1 1077,-385.1 1077,-385.1 1077,-465.7 1077,-517.81 1094.61,-544.32 1058,-581.4 1034.94,-604.75 972.33,-619.77 905.34,-629.38"/>
<polygon fill="black" stroke="black" points="904.85,-625.91 895.42,-630.76 905.81,-632.85 904.85,-625.91"/>
</g>
<!-- 167&#45;&gt;344 -->
<g id="edge18" class="edge">
<title>167&#45;&gt;344</title>
<path fill="none" stroke="black" stroke-dasharray="5,2" d="M693,-580.98C693,-583.06 693,-585.2 693,-587.38"/>
<polygon fill="none" stroke="black" points="682.5,-587.6 693,-617.6 703.5,-587.6 682.5,-587.6"/>
</g>
<!-- 177&#45;&gt;7 -->
<g id="edge20" class="edge">
<title>177&#45;&gt;7</title>
<path fill="none" stroke="black" d="M443.08,-407.16C438.53,-430.41 430.87,-469.55 424.7,-501.1"/>
<polygon fill="none" stroke="black" points="414.36,-499.27 418.91,-530.73 434.97,-503.31 414.36,-499.27"/>
</g>
<!-- 177&#45;&gt;157 -->
<g id="edge21" class="edge">
<title>177&#45;&gt;157</title>
<path fill="none" stroke="black" d="M510.67,-406.93C543.98,-417.3 584.93,-430.05 619.58,-440.84"/>
<polygon fill="black" stroke="black" points="618.58,-444.19 629.17,-443.82 620.66,-437.51 618.58,-444.19"/>
</g>
<!-- 177&#45;&gt;164 -->
<g id="edge19" class="edge">
<title>177&#45;&gt;164</title>
<path fill="none" stroke="black" d="M550.63,-392.79C620.05,-399.32 712.4,-413.33 789,-443.4 826.33,-458.06 863.93,-482.24 893.5,-503.95"/>
<polygon fill="none" stroke="black" points="887.47,-512.56 917.67,-522.45 900.24,-495.88 887.47,-512.56"/>
</g>
</g>
</svg>
