<?xml version="1.0" encoding="UTF-8" standalone="no"?>
<!DOCTYPE svg PUBLIC "-//W3C//DTD SVG 1.1//EN"
 "http://www.w3.org/Graphics/SVG/1.1/DTD/svg11.dtd">
<!-- Generated by graphviz version 5.0.0 (20220707.1540)
 -->
<!-- Title: UmlClassDiagram Pages: 1 -->
<svg width="878pt" height="146pt"
 viewBox="0.00 0.00 878.48 146.00" xmlns="http://www.w3.org/2000/svg" xmlns:xlink="http://www.w3.org/1999/xlink">
<g id="graph0" class="graph" transform="scale(1 1) rotate(0) translate(4 142)">
<title>UmlClassDiagram</title>
<polygon fill="white" stroke="transparent" points="-4,4 -4,-142 874.48,-142 874.48,4 -4,4"/>
<!-- 7 -->
<g id="node1" class="node">
<title>7</title>
<polygon fill="#f2f2f2" stroke="black" points="0,-87.5 0,-129.1 234.86,-129.1 234.86,-87.5 0,-87.5"/>
<text text-anchor="middle" x="117.43" y="-112.5" font-family="Times,serif" font-size="14.00">Governable</text>
<text text-anchor="middle" x="117.43" y="-95.7" font-family="Times,serif" font-size="14.00">../contracts/governance/Governable.sol</text>
</g>
<!-- 15 -->
<g id="node2" class="node">
<title>15</title>
<polygon fill="#f2f2f2" stroke="black" points="22.93,-0.5 22.93,-42.1 211.93,-42.1 211.93,-0.5 22.93,-0.5"/>
<text text-anchor="middle" x="117.43" y="-25.5" font-family="Times,serif" font-size="14.00">Dripper</text>
<text text-anchor="middle" x="117.43" y="-8.7" font-family="Times,serif" font-size="14.00">../contracts/harvest/Dripper.sol</text>
</g>
<!-- 15&#45;&gt;7 -->
<g id="edge1" class="edge">
<title>15&#45;&gt;7</title>
<path fill="none" stroke="black" d="M117.43,-42.44C117.43,-47 117.43,-52.03 117.43,-57.21"/>
<polygon fill="none" stroke="black" points="106.93,-57.3 117.43,-87.3 127.93,-57.3 106.93,-57.3"/>
</g>
<!-- 35 -->
<g id="node3" class="node">
<title>35</title>
<polygon fill="#f2f2f2" stroke="black" points="252.82,-79.1 252.82,-137.5 448.04,-137.5 448.04,-79.1 252.82,-79.1"/>
<text text-anchor="middle" x="350.43" y="-120.9" font-family="Times,serif" font-size="14.00">&lt;&lt;Interface&gt;&gt;</text>
<text text-anchor="middle" x="350.43" y="-104.1" font-family="Times,serif" font-size="14.00">IVault</text>
<text text-anchor="middle" x="350.43" y="-87.3" font-family="Times,serif" font-size="14.00">../contracts/interfaces/IVault.sol</text>
</g>
<!-- 15&#45;&gt;35 -->
<g id="edge3" class="edge">
<title>15&#45;&gt;35</title>
<path fill="none" stroke="black" stroke-dasharray="5,2" d="M171.76,-42.12C199.06,-52.08 232.8,-64.39 263.58,-75.62"/>
<polygon fill="black" stroke="black" points="262.43,-78.92 273.03,-79.06 264.83,-72.35 262.43,-78.92"/>
</g>
<!-- 436 -->
<g id="node4" class="node">
<title>436</title>
<polygon fill="#f2f2f2" stroke="black" points="466.37,-79.1 466.37,-137.5 870.48,-137.5 870.48,-79.1 466.37,-79.1"/>
<text text-anchor="middle" x="668.43" y="-120.9" font-family="Times,serif" font-size="14.00">&lt;&lt;Interface&gt;&gt;</text>
<text text-anchor="middle" x="668.43" y="-104.1" font-family="Times,serif" font-size="14.00">IERC20</text>
<text text-anchor="middle" x="668.43" y="-87.3" font-family="Times,serif" font-size="14.00">../node_modules/@openzeppelin/contracts/token/ERC20/IERC20.sol</text>
</g>
<!-- 15&#45;&gt;436 -->
<g id="edge2" class="edge">
<title>15&#45;&gt;436</title>
<path fill="none" stroke="black" stroke-dasharray="5,2" d="M212.15,-36.91C284.37,-48.05 386.25,-63.77 475.43,-77.53"/>
<polygon fill="black" stroke="black" points="474.99,-81 485.41,-79.07 476.06,-74.08 474.99,-81"/>
</g>
</g>
</svg>
