<?xml version="1.0" encoding="UTF-8" standalone="no"?>
<!DOCTYPE svg PUBLIC "-//W3C//DTD SVG 1.1//EN"
 "http://www.w3.org/Graphics/SVG/1.1/DTD/svg11.dtd">
<!-- Generated by graphviz version 5.0.0 (20220707.1540)
 -->
<!-- Title: UmlClassDiagram Pages: 1 -->
<svg width="792pt" height="494pt"
 viewBox="0.00 0.00 791.83 494.00" xmlns="http://www.w3.org/2000/svg" xmlns:xlink="http://www.w3.org/1999/xlink">
<g id="graph0" class="graph" transform="scale(1 1) rotate(0) translate(4 490)">
<title>UmlClassDiagram</title>
<polygon fill="white" stroke="transparent" points="-4,4 -4,-490 787.83,-490 787.83,4 -4,4"/>
<!-- 20 -->
<g id="node1" class="node">
<title>20</title>
<polygon fill="#f2f2f2" stroke="black" points="0,-340.1 0,-381.7 234.86,-381.7 234.86,-340.1 0,-340.1"/>
<text text-anchor="middle" x="117.43" y="-365.1" font-family="Times,serif" font-size="14.00">Governable</text>
<text text-anchor="middle" x="117.43" y="-348.3" font-family="Times,serif" font-size="14.00">../contracts/governance/Governable.sol</text>
</g>
<!-- 30 -->
<g id="node2" class="node">
<title>30</title>
<polygon fill="#f2f2f2" stroke="black" points="22.93,-0.5 22.93,-42.1 211.93,-42.1 211.93,-0.5 22.93,-0.5"/>
<text text-anchor="middle" x="117.43" y="-25.5" font-family="Times,serif" font-size="14.00">Dripper</text>
<text text-anchor="middle" x="117.43" y="-8.7" font-family="Times,serif" font-size="14.00">../contracts/harvest/Dripper.sol</text>
</g>
<!-- 30&#45;&gt;20 -->
<g id="edge1" class="edge">
<title>30&#45;&gt;20</title>
<path fill="none" stroke="black" d="M117.43,-42.41C117.43,-94.36 117.43,-234.27 117.43,-309.84"/>
<polygon fill="none" stroke="black" points="106.93,-309.9 117.43,-339.9 127.93,-309.9 106.93,-309.9"/>
</g>
<!-- 55 -->
<g id="node3" class="node">
<title>55</title>
<polygon fill="#f2f2f2" stroke="black" points="183.82,-79.1 183.82,-137.5 379.04,-137.5 379.04,-79.1 183.82,-79.1"/>
<text text-anchor="middle" x="281.43" y="-120.9" font-family="Times,serif" font-size="14.00">&lt;&lt;Interface&gt;&gt;</text>
<text text-anchor="middle" x="281.43" y="-104.1" font-family="Times,serif" font-size="14.00">IVault</text>
<text text-anchor="middle" x="281.43" y="-87.3" font-family="Times,serif" font-size="14.00">../contracts/interfaces/IVault.sol</text>
</g>
<!-- 30&#45;&gt;55 -->
<g id="edge3" class="edge">
<title>30&#45;&gt;55</title>
<path fill="none" stroke="black" stroke-dasharray="5,2" d="M155.88,-42.23C174.27,-51.76 196.78,-63.43 217.63,-74.23"/>
<polygon fill="black" stroke="black" points="216.28,-77.47 226.76,-78.97 219.5,-71.26 216.28,-77.47"/>
</g>
<!-- 392 -->
<g id="node8" class="node">
<title>392</title>
<polygon fill="#f2f2f2" stroke="black" points="193.37,-427.1 193.37,-485.5 597.48,-485.5 597.48,-427.1 193.37,-427.1"/>
<text text-anchor="middle" x="395.43" y="-468.9" font-family="Times,serif" font-size="14.00">&lt;&lt;Interface&gt;&gt;</text>
<text text-anchor="middle" x="395.43" y="-452.1" font-family="Times,serif" font-size="14.00">IERC20</text>
<text text-anchor="middle" x="395.43" y="-435.3" font-family="Times,serif" font-size="14.00">../node_modules/@openzeppelin/contracts/token/ERC20/IERC20.sol</text>
</g>
<!-- 30&#45;&gt;392 -->
<g id="edge2" class="edge">
<title>30&#45;&gt;392</title>
<path fill="none" stroke="black" stroke-dasharray="5,2" d="M212.28,-27.22C395.33,-39.33 779.43,-78.52 779.43,-194.3 779.43,-194.3 779.43,-194.3 779.43,-274.9 779.43,-327.01 797.04,-353.52 760.43,-390.6 737.37,-413.95 674.76,-428.97 607.77,-438.58"/>
<polygon fill="black" stroke="black" points="607.28,-435.11 597.85,-439.96 608.24,-442.05 607.28,-435.11"/>
</g>
<!-- 207 -->
<g id="node7" class="node">
<title>207</title>
<polygon fill="#f2f2f2" stroke="black" points="253.98,-174.5 253.98,-216.1 460.88,-216.1 460.88,-174.5 253.98,-174.5"/>
<text text-anchor="middle" x="357.43" y="-199.5" font-family="Times,serif" font-size="14.00">VaultStorage</text>
<text text-anchor="middle" x="357.43" y="-182.7" font-family="Times,serif" font-size="14.00">../contracts/vault/VaultStorage.sol</text>
</g>
<!-- 55&#45;&gt;207 -->
<g id="edge4" class="edge">
<title>55&#45;&gt;207</title>
<path fill="none" stroke="black" stroke-dasharray="5,2" d="M306.74,-137.6C315.17,-147.04 324.55,-157.52 332.92,-166.89"/>
<polygon fill="black" stroke="black" points="330.4,-169.32 339.67,-174.44 335.62,-164.65 330.4,-169.32"/>
</g>
<!-- 186 -->
<g id="node4" class="node">
<title>186</title>
<polygon fill="#f2f2f2" stroke="black" points="308.3,-253.1 308.3,-294.7 482.56,-294.7 482.56,-253.1 308.3,-253.1"/>
<text text-anchor="middle" x="395.43" y="-278.1" font-family="Times,serif" font-size="14.00">OUSD</text>
<text text-anchor="middle" x="395.43" y="-261.3" font-family="Times,serif" font-size="14.00">../contracts/token/OUSD.sol</text>
</g>
<!-- 186&#45;&gt;20 -->
<g id="edge7" class="edge">
<title>186&#45;&gt;20</title>
<path fill="none" stroke="black" d="M330.6,-294.72C295.06,-305.59 250.37,-319.25 211.09,-331.26"/>
<polygon fill="none" stroke="black" points="207.98,-321.23 182.36,-340.05 214.12,-341.32 207.98,-321.23"/>
</g>
<!-- 194 -->
<g id="node5" class="node">
<title>194</title>
<polygon fill="#f2f2f2" stroke="black" points="555.42,-331.7 555.42,-390.1 751.44,-390.1 751.44,-331.7 555.42,-331.7"/>
<text text-anchor="middle" x="653.43" y="-373.5" font-family="Times,serif" font-size="14.00">&lt;&lt;Abstract&gt;&gt;</text>
<text text-anchor="middle" x="653.43" y="-356.7" font-family="Times,serif" font-size="14.00">Initializable</text>
<text text-anchor="middle" x="653.43" y="-339.9" font-family="Times,serif" font-size="14.00">../contracts/utils/Initializable.sol</text>
</g>
<!-- 186&#45;&gt;194 -->
<g id="edge5" class="edge">
<title>186&#45;&gt;194</title>
<path fill="none" stroke="black" d="M455.59,-294.72C480.48,-302.92 510.2,-312.71 538.94,-322.18"/>
<polygon fill="none" stroke="black" points="535.94,-332.25 567.72,-331.66 542.51,-312.3 535.94,-332.25"/>
</g>
<!-- 197 -->
<g id="node6" class="node">
<title>197</title>
<polygon fill="#f2f2f2" stroke="black" points="253.1,-331.7 253.1,-390.1 537.76,-390.1 537.76,-331.7 253.1,-331.7"/>
<text text-anchor="middle" x="395.43" y="-373.5" font-family="Times,serif" font-size="14.00">&lt;&lt;Abstract&gt;&gt;</text>
<text text-anchor="middle" x="395.43" y="-356.7" font-family="Times,serif" font-size="14.00">InitializableERC20Detailed</text>
<text text-anchor="middle" x="395.43" y="-339.9" font-family="Times,serif" font-size="14.00">../contracts/utils/InitializableERC20Detailed.sol</text>
</g>
<!-- 186&#45;&gt;197 -->
<g id="edge6" class="edge">
<title>186&#45;&gt;197</title>
<path fill="none" stroke="black" d="M395.43,-295.04C395.43,-297.09 395.43,-299.23 395.43,-301.43"/>
<polygon fill="none" stroke="black" points="384.93,-301.54 395.43,-331.54 405.93,-301.54 384.93,-301.54"/>
</g>
<!-- 197&#45;&gt;392 -->
<g id="edge8" class="edge">
<title>197&#45;&gt;392</title>
<path fill="none" stroke="black" stroke-dasharray="5,2" d="M395.43,-390.18C395.43,-392.26 395.43,-394.4 395.43,-396.58"/>
<polygon fill="none" stroke="black" points="384.93,-396.8 395.43,-426.8 405.93,-396.8 384.93,-396.8"/>
</g>
<!-- 207&#45;&gt;20 -->
<g id="edge10" class="edge">
<title>207&#45;&gt;20</title>
<path fill="none" stroke="black" d="M328,-216.36C289.21,-242.8 220.23,-289.82 171.82,-322.82"/>
<polygon fill="none" stroke="black" points="165.6,-314.36 146.72,-339.93 177.43,-331.71 165.6,-314.36"/>
</g>
<!-- 207&#45;&gt;186 -->
<g id="edge11" class="edge">
<title>207&#45;&gt;186</title>
<path fill="none" stroke="black" d="M367.41,-216.43C371.56,-224.78 376.45,-234.64 380.98,-243.76"/>
<polygon fill="black" stroke="black" points="377.93,-245.51 385.51,-252.91 384.2,-242.39 377.93,-245.51"/>
</g>
<!-- 207&#45;&gt;194 -->
<g id="edge9" class="edge">
<title>207&#45;&gt;194</title>
<path fill="none" stroke="black" d="M410.99,-216.13C435.95,-226.04 465.73,-238.85 491.43,-252.6 525.25,-270.7 560.98,-293.88 590.26,-314.07"/>
<polygon fill="none" stroke="black" points="584.51,-322.86 615.09,-331.53 596.59,-305.69 584.51,-322.86"/>
</g>
</g>
</svg>
