<?xml version="1.0" encoding="UTF-8" standalone="no"?>
<!DOCTYPE svg PUBLIC "-//W3C//DTD SVG 1.1//EN"
 "http://www.w3.org/Graphics/SVG/1.1/DTD/svg11.dtd">
<!-- Generated by graphviz version 5.0.0 (20220707.1540)
 -->
<!-- Title: StorageDiagram Pages: 1 -->
<svg width="1064pt" height="207pt"
 viewBox="0.00 0.00 1064.15 207.40" xmlns="http://www.w3.org/2000/svg" xmlns:xlink="http://www.w3.org/1999/xlink">
<g id="graph0" class="graph" transform="scale(1 1) rotate(0) translate(4 203.4)">
<title>StorageDiagram</title>
<polygon fill="white" stroke="transparent" points="-4,4 -4,-203.4 1060.15,-203.4 1060.15,4 -4,4"/>
<!-- 2 -->
<g id="node1" class="node">
<title>2</title>
<polygon fill="#f2f2f2" stroke="black" points="0,-0.5 0,-198.9 560.48,-198.9 560.48,-0.5 0,-0.5"/>
<text text-anchor="middle" x="280.24" y="-182.3" font-family="Courier New" font-size="14.00">Dripper &lt;&lt;Contract&gt;&gt;</text>
<polyline fill="none" stroke="black" points="0,-174.1 560.48,-174.1 "/>
<text text-anchor="middle" x="50.01" y="-157.5" font-family="Courier New" font-size="14.00">slot</text>
<polyline fill="none" stroke="black" points="0,-149.3 100.01,-149.3 "/>
<text text-anchor="middle" x="50.01" y="-132.7" font-family="Courier New" font-size="14.00">0</text>
<polyline fill="none" stroke="black" points="0,-124.5 100.01,-124.5 "/>
<text text-anchor="middle" x="50.01" y="-107.9" font-family="Courier New" font-size="14.00">1</text>
<polyline fill="none" stroke="black" points="0,-99.7 100.01,-99.7 "/>
<text text-anchor="middle" x="50.01" y="-83.1" font-family="Courier New" font-size="14.00">0x360..bbc</text>
<polyline fill="none" stroke="black" points="0,-74.9 100.01,-74.9 "/>
<text text-anchor="middle" x="50.01" y="-58.3" font-family="Courier New" font-size="14.00">0x44c..1db</text>
<polyline fill="none" stroke="black" points="0,-50.1 100.01,-50.1 "/>
<text text-anchor="middle" x="50.01" y="-33.5" font-family="Courier New" font-size="14.00">0x53b..535</text>
<polyline fill="none" stroke="black" points="0,-25.3 100.01,-25.3 "/>
<text text-anchor="middle" x="50.01" y="-8.7" font-family="Courier New" font-size="14.00">0x7be..a4a</text>
<polyline fill="none" stroke="black" points="100.01,-0.5 100.01,-174.1 "/>
<text text-anchor="middle" x="330.25" y="-157.5" font-family="Courier New" font-size="14.00">type: &lt;inherited contract&gt;.variable (bytes)</text>
<polyline fill="none" stroke="black" points="100.01,-149.3 560.48,-149.3 "/>
<text text-anchor="middle" x="330.23" y="-132.7" font-family="Courier New" font-size="14.00">uint256: dripDuration (32)</text>
<polyline fill="none" stroke="black" points="100.01,-124.5 560.48,-124.5 "/>
<text text-anchor="middle" x="330.02" y="-107.9" font-family="Courier New" font-size="14.00">Drip: drip (32)</text>
<polyline fill="none" stroke="black" points="100.01,-99.7 560.48,-99.7 "/>
<text text-anchor="middle" x="223.22" y="-83.1" font-family="Courier New" font-size="14.00">unallocated (12)</text>
<polyline fill="none" stroke="black" points="346.44,-74.9 346.44,-99.7 "/>
<text text-anchor="middle" x="453.34" y="-83.1" font-family="Courier New" font-size="14.00">address (20)</text>
<polyline fill="none" stroke="black" points="100.01,-74.9 560.48,-74.9 "/>
<text text-anchor="middle" x="175.22" y="-58.3" font-family="Courier New" font-size="14.00">unallocated (12)</text>
<polyline fill="none" stroke="black" points="250.44,-50.1 250.44,-74.9 "/>
<text text-anchor="middle" x="405.46" y="-58.3" font-family="Courier New" font-size="14.00">address: OUSD.pending.governor (20)</text>
<polyline fill="none" stroke="black" points="100.01,-50.1 560.48,-50.1 "/>
<text text-anchor="middle" x="187.72" y="-33.5" font-family="Courier New" font-size="14.00">unallocated (31)</text>
<polyline fill="none" stroke="black" points="275.44,-25.3 275.44,-50.1 "/>
<text text-anchor="middle" x="417.76" y="-33.5" font-family="Courier New" font-size="14.00">bool: OUSD.reentry.status (1)</text>
<polyline fill="none" stroke="black" points="100.01,-25.3 560.48,-25.3 "/>
<text text-anchor="middle" x="191.72" y="-8.7" font-family="Courier New" font-size="14.00">unallocated (12)</text>
<polyline fill="none" stroke="black" points="283.44,-0.5 283.44,-25.3 "/>
<text text-anchor="middle" x="421.85" y="-8.7" font-family="Courier New" font-size="14.00">address: OUSD.governor (20)</text>
</g>
<!-- 1 -->
<g id="node2" class="node">
<title>1</title>
<polygon fill="#f2f2f2" stroke="black" points="596.48,-74.5 596.48,-148.9 1056.15,-148.9 1056.15,-74.5 596.48,-74.5"/>
<text text-anchor="middle" x="826.32" y="-132.3" font-family="Courier New" font-size="14.00">Drip &lt;&lt;Struct&gt;&gt;</text>
<polyline fill="none" stroke="black" points="596.48,-124.1 1056.15,-124.1 "/>
<text text-anchor="middle" x="621.29" y="-107.5" font-family="Courier New" font-size="14.00">slot</text>
<polyline fill="none" stroke="black" points="596.48,-99.3 646.09,-99.3 "/>
<text text-anchor="middle" x="621.29" y="-82.7" font-family="Courier New" font-size="14.00">1</text>
<polyline fill="none" stroke="black" points="646.09,-74.5 646.09,-124.1 "/>
<text text-anchor="middle" x="851.12" y="-107.5" font-family="Courier New" font-size="14.00">type: variable (bytes)</text>
<polyline fill="none" stroke="black" points="646.09,-99.3 1056.15,-99.3 "/>
<text text-anchor="middle" x="746.5" y="-82.7" font-family="Courier New" font-size="14.00">uint192: perBlock (24)</text>
<polyline fill="none" stroke="black" points="846.92,-74.5 846.92,-99.3 "/>
<text text-anchor="middle" x="951.53" y="-82.7" font-family="Courier New" font-size="14.00">uint64: lastCollect (8)</text>
</g>
<!-- 2&#45;&gt;1 -->
<g id="edge1" class="edge">
<title>2:4&#45;&gt;1</title>
<path fill="none" stroke="black" d="M560.48,-111.7C568.91,-111.7 577.49,-111.7 586.15,-111.7"/>
<polygon fill="black" stroke="black" points="586.36,-115.2 596.36,-111.7 586.36,-108.2 586.36,-115.2"/>
</g>
</g>
</svg>
