<?xml version="1.0" encoding="UTF-8" standalone="no"?>
<!DOCTYPE svg PUBLIC "-//W3C//DTD SVG 1.1//EN"
 "http://www.w3.org/Graphics/SVG/1.1/DTD/svg11.dtd">
<!-- Generated by graphviz version 5.0.0 (20220707.1540)
 -->
<!-- Title: UmlClassDiagram Pages: 1 -->
<svg width="343pt" height="129pt"
 viewBox="0.00 0.00 343.19 129.20" xmlns="http://www.w3.org/2000/svg" xmlns:xlink="http://www.w3.org/1999/xlink">
<g id="graph0" class="graph" transform="scale(1 1) rotate(0) translate(4 125.2)">
<title>UmlClassDiagram</title>
<polygon fill="white" stroke="transparent" points="-4,4 -4,-125.2 339.19,-125.2 339.19,4 -4,4"/>
<!-- 20 -->
<g id="node1" class="node">
<title>20</title>
<polygon fill="#f2f2f2" stroke="black" points="50.17,-79.1 50.17,-120.7 285.02,-120.7 285.02,-79.1 50.17,-79.1"/>
<text text-anchor="middle" x="167.6" y="-104.1" font-family="Times,serif" font-size="14.00">Governable</text>
<text text-anchor="middle" x="167.6" y="-87.3" font-family="Times,serif" font-size="14.00">../contracts/governance/Governable.sol</text>
</g>
<!-- 282 -->
<g id="node2" class="node">
<title>282</title>
<polygon fill="#f2f2f2" stroke="black" points="0,-0.5 0,-42.1 335.19,-42.1 335.19,-0.5 0,-0.5"/>
<text text-anchor="middle" x="167.6" y="-25.5" font-family="Times,serif" font-size="14.00">FeeAccumulator</text>
<text text-anchor="middle" x="167.6" y="-8.7" font-family="Times,serif" font-size="14.00">../contracts/strategies/NativeStaking/FeeAccumulator.sol</text>
</g>
<!-- 282&#45;&gt;20 -->
<g id="edge1" class="edge">
<title>282&#45;&gt;20</title>
<path fill="none" stroke="black" d="M167.6,-42.43C167.6,-44.45 167.6,-46.56 167.6,-48.73"/>
<polygon fill="none" stroke="black" points="157.1,-48.91 167.6,-78.91 178.1,-48.91 157.1,-48.91"/>
</g>
</g>
</svg>
