<?xml version="1.0" encoding="UTF-8" standalone="no"?>
<!DOCTYPE svg PUBLIC "-//W3C//DTD SVG 1.1//EN"
 "http://www.w3.org/Graphics/SVG/1.1/DTD/svg11.dtd">
<!-- Generated by graphviz version 5.0.0 (20220707.1540)
 -->
<!-- Title: UmlClassDiagram Pages: 1 -->
<svg width="818pt" height="337pt"
 viewBox="0.00 0.00 818.48 336.80" xmlns="http://www.w3.org/2000/svg" xmlns:xlink="http://www.w3.org/1999/xlink">
<g id="graph0" class="graph" transform="scale(1 1) rotate(0) translate(4 332.8)">
<title>UmlClassDiagram</title>
<polygon fill="white" stroke="transparent" points="-4,4 -4,-332.8 814.48,-332.8 814.48,4 -4,4"/>
<!-- 19 -->
<g id="node1" class="node">
<title>19</title>
<polygon fill="#f2f2f2" stroke="black" points="89.03,-0.5 89.03,-42.1 271.83,-42.1 271.83,-0.5 89.03,-0.5"/>
<text text-anchor="middle" x="180.43" y="-25.5" font-family="Times,serif" font-size="14.00">Flipper</text>
<text text-anchor="middle" x="180.43" y="-8.7" font-family="Times,serif" font-size="14.00">../contracts/flipper/Flipper.sol</text>
</g>
<!-- 20 -->
<g id="node2" class="node">
<title>20</title>
<polygon fill="#f2f2f2" stroke="black" points="0,-182.9 0,-224.5 234.86,-224.5 234.86,-182.9 0,-182.9"/>
<text text-anchor="middle" x="117.43" y="-207.9" font-family="Times,serif" font-size="14.00">Governable</text>
<text text-anchor="middle" x="117.43" y="-191.1" font-family="Times,serif" font-size="14.00">../contracts/governance/Governable.sol</text>
</g>
<!-- 19&#45;&gt;20 -->
<g id="edge1" class="edge">
<title>19&#45;&gt;20</title>
<path fill="none" stroke="black" d="M160.69,-42.28C151.87,-52.37 142.18,-65.28 136.43,-78.6 126.44,-101.72 121.6,-129.26 119.29,-152.51"/>
<polygon fill="none" stroke="black" points="108.81,-151.91 117.42,-182.5 129.77,-153.21 108.81,-151.91"/>
</g>
<!-- 58 -->
<g id="node3" class="node">
<title>58</title>
<polygon fill="#f2f2f2" stroke="black" points="145.44,-79.1 145.44,-137.5 341.42,-137.5 341.42,-79.1 145.44,-79.1"/>
<text text-anchor="middle" x="243.43" y="-120.9" font-family="Times,serif" font-size="14.00">&lt;&lt;Interface&gt;&gt;</text>
<text text-anchor="middle" x="243.43" y="-104.1" font-family="Times,serif" font-size="14.00">Tether</text>
<text text-anchor="middle" x="243.43" y="-87.3" font-family="Times,serif" font-size="14.00">../contracts/interfaces/Tether.sol</text>
</g>
<!-- 19&#45;&gt;58 -->
<g id="edge4" class="edge">
<title>19&#45;&gt;58</title>
<path fill="none" stroke="black" d="M195.36,-42.44C201.67,-50.96 209.22,-61.15 216.45,-70.9"/>
<polygon fill="black" stroke="black" points="213.64,-72.99 222.41,-78.94 219.27,-68.82 213.64,-72.99"/>
</g>
<!-- 186 -->
<g id="node4" class="node">
<title>186</title>
<polygon fill="#f2f2f2" stroke="black" points="359.3,-87.5 359.3,-129.1 533.56,-129.1 533.56,-87.5 359.3,-87.5"/>
<text text-anchor="middle" x="446.43" y="-112.5" font-family="Times,serif" font-size="14.00">OUSD</text>
<text text-anchor="middle" x="446.43" y="-95.7" font-family="Times,serif" font-size="14.00">../contracts/token/OUSD.sol</text>
</g>
<!-- 19&#45;&gt;186 -->
<g id="edge3" class="edge">
<title>19&#45;&gt;186</title>
<path fill="none" stroke="black" d="M242.46,-42.12C281.97,-54.75 333.3,-71.15 374.58,-84.34"/>
<polygon fill="black" stroke="black" points="373.71,-87.74 384.3,-87.45 375.84,-81.07 373.71,-87.74"/>
</g>
<!-- 392 -->
<g id="node7" class="node">
<title>392</title>
<polygon fill="#f2f2f2" stroke="black" points="406.37,-269.9 406.37,-328.3 810.48,-328.3 810.48,-269.9 406.37,-269.9"/>
<text text-anchor="middle" x="608.43" y="-311.7" font-family="Times,serif" font-size="14.00">&lt;&lt;Interface&gt;&gt;</text>
<text text-anchor="middle" x="608.43" y="-294.9" font-family="Times,serif" font-size="14.00">IERC20</text>
<text text-anchor="middle" x="608.43" y="-278.1" font-family="Times,serif" font-size="14.00">../node_modules/@openzeppelin/contracts/token/ERC20/IERC20.sol</text>
</g>
<!-- 19&#45;&gt;392 -->
<g id="edge2" class="edge">
<title>19&#45;&gt;392</title>
<path fill="none" stroke="black" d="M272.07,-31.65C421.48,-49.14 706.29,-92.59 759.43,-174 773.86,-196.11 773.96,-211.36 759.43,-233.4 750.99,-246.19 739.45,-256.47 726.47,-264.71"/>
<polygon fill="black" stroke="black" points="724.59,-261.76 717.75,-269.85 728.14,-267.79 724.59,-261.76"/>
</g>
<!-- 186&#45;&gt;20 -->
<g id="edge7" class="edge">
<title>186&#45;&gt;20</title>
<path fill="none" stroke="black" d="M380.64,-129.16C370.53,-132.15 360.21,-135.18 350.43,-138 307.55,-150.36 260.1,-163.61 219.28,-174.89"/>
<polygon fill="none" stroke="black" points="216.35,-164.8 190.21,-182.89 221.92,-185.05 216.35,-164.8"/>
</g>
<!-- 194 -->
<g id="node5" class="node">
<title>194</title>
<polygon fill="#f2f2f2" stroke="black" points="252.42,-174.5 252.42,-232.9 448.44,-232.9 448.44,-174.5 252.42,-174.5"/>
<text text-anchor="middle" x="350.43" y="-216.3" font-family="Times,serif" font-size="14.00">&lt;&lt;Abstract&gt;&gt;</text>
<text text-anchor="middle" x="350.43" y="-199.5" font-family="Times,serif" font-size="14.00">Initializable</text>
<text text-anchor="middle" x="350.43" y="-182.7" font-family="Times,serif" font-size="14.00">../contracts/utils/Initializable.sol</text>
</g>
<!-- 186&#45;&gt;194 -->
<g id="edge5" class="edge">
<title>186&#45;&gt;194</title>
<path fill="none" stroke="black" d="M426.07,-129.11C418.67,-136.31 409.93,-144.81 401.07,-153.43"/>
<polygon fill="none" stroke="black" points="393.68,-145.97 379.5,-174.42 408.33,-161.02 393.68,-145.97"/>
</g>
<!-- 197 -->
<g id="node6" class="node">
<title>197</title>
<polygon fill="#f2f2f2" stroke="black" points="466.1,-174.5 466.1,-232.9 750.76,-232.9 750.76,-174.5 466.1,-174.5"/>
<text text-anchor="middle" x="608.43" y="-216.3" font-family="Times,serif" font-size="14.00">&lt;&lt;Abstract&gt;&gt;</text>
<text text-anchor="middle" x="608.43" y="-199.5" font-family="Times,serif" font-size="14.00">InitializableERC20Detailed</text>
<text text-anchor="middle" x="608.43" y="-182.7" font-family="Times,serif" font-size="14.00">../contracts/utils/InitializableERC20Detailed.sol</text>
</g>
<!-- 186&#45;&gt;197 -->
<g id="edge6" class="edge">
<title>186&#45;&gt;197</title>
<path fill="none" stroke="black" d="M480.79,-129.11C496.14,-137.96 514.88,-148.76 533.22,-159.34"/>
<polygon fill="none" stroke="black" points="528.14,-168.53 559.37,-174.42 538.63,-150.33 528.14,-168.53"/>
</g>
<!-- 197&#45;&gt;392 -->
<g id="edge8" class="edge">
<title>197&#45;&gt;392</title>
<path fill="none" stroke="black" stroke-dasharray="5,2" d="M608.43,-232.98C608.43,-235.06 608.43,-237.2 608.43,-239.38"/>
<polygon fill="none" stroke="black" points="597.93,-239.6 608.43,-269.6 618.93,-239.6 597.93,-239.6"/>
</g>
</g>
</svg>
