<?xml version="1.0" encoding="UTF-8" standalone="no"?>
<!DOCTYPE svg PUBLIC "-//W3C//DTD SVG 1.1//EN"
 "http://www.w3.org/Graphics/SVG/1.1/DTD/svg11.dtd">
<!-- Generated by graphviz version 5.0.0 (20220707.1540)
 -->
<!-- Title: UmlClassDiagram Pages: 1 -->
<svg width="843pt" height="763pt"
 viewBox="0.00 0.00 842.67 763.40" xmlns="http://www.w3.org/2000/svg" xmlns:xlink="http://www.w3.org/1999/xlink">
<g id="graph0" class="graph" transform="scale(1 1) rotate(0) translate(4 759.4)">
<title>UmlClassDiagram</title>
<polygon fill="white" stroke="transparent" points="-4,4 -4,-759.4 838.67,-759.4 838.67,4 -4,4"/>
<!-- 7 -->
<g id="node1" class="node">
<title>7</title>
<polygon fill="#f2f2f2" stroke="black" points="50.84,-609.5 50.84,-651.1 285.7,-651.1 285.7,-609.5 50.84,-609.5"/>
<text text-anchor="middle" x="168.27" y="-634.5" font-family="Times,serif" font-size="14.00">Governable</text>
<text text-anchor="middle" x="168.27" y="-617.7" font-family="Times,serif" font-size="14.00">../contracts/governance/Governable.sol</text>
</g>
<!-- 22 -->
<g id="node2" class="node">
<title>22</title>
<polygon fill="#f2f2f2" stroke="black" points="0,-157.7 0,-216.1 232.54,-216.1 232.54,-157.7 0,-157.7"/>
<text text-anchor="middle" x="116.27" y="-199.5" font-family="Times,serif" font-size="14.00">&lt;&lt;Interface&gt;&gt;</text>
<text text-anchor="middle" x="116.27" y="-182.7" font-family="Times,serif" font-size="14.00">IComptroller</text>
<text text-anchor="middle" x="116.27" y="-165.9" font-family="Times,serif" font-size="14.00">../contracts/interfaces/IComptroller.sol</text>
</g>
<!-- 40 -->
<g id="node3" class="node">
<title>40</title>
<polygon fill="#f2f2f2" stroke="black" points="337.67,-348.5 337.67,-406.9 532.88,-406.9 532.88,-348.5 337.67,-348.5"/>
<text text-anchor="middle" x="435.27" y="-390.3" font-family="Times,serif" font-size="14.00">&lt;&lt;Interface&gt;&gt;</text>
<text text-anchor="middle" x="435.27" y="-373.5" font-family="Times,serif" font-size="14.00">IVault</text>
<text text-anchor="middle" x="435.27" y="-356.7" font-family="Times,serif" font-size="14.00">../contracts/interfaces/IVault.sol</text>
</g>
<!-- 179 -->
<g id="node12" class="node">
<title>179</title>
<polygon fill="#f2f2f2" stroke="black" points="331.82,-443.9 331.82,-485.5 538.72,-485.5 538.72,-443.9 331.82,-443.9"/>
<text text-anchor="middle" x="435.27" y="-468.9" font-family="Times,serif" font-size="14.00">VaultStorage</text>
<text text-anchor="middle" x="435.27" y="-452.1" font-family="Times,serif" font-size="14.00">../contracts/vault/VaultStorage.sol</text>
</g>
<!-- 40&#45;&gt;179 -->
<g id="edge1" class="edge">
<title>40&#45;&gt;179</title>
<path fill="none" stroke="black" stroke-dasharray="5,2" d="M435.27,-407C435.27,-415.59 435.27,-425.04 435.27,-433.73"/>
<polygon fill="black" stroke="black" points="431.77,-433.84 435.27,-443.84 438.77,-433.84 431.77,-433.84"/>
</g>
<!-- 124 -->
<g id="node4" class="node">
<title>124</title>
<polygon fill="#f2f2f2" stroke="black" points="288.27,-157.7 288.27,-216.1 582.27,-216.1 582.27,-157.7 288.27,-157.7"/>
<text text-anchor="middle" x="435.27" y="-199.5" font-family="Times,serif" font-size="14.00">&lt;&lt;Abstract&gt;&gt;</text>
<text text-anchor="middle" x="435.27" y="-182.7" font-family="Times,serif" font-size="14.00">BaseCompoundStrategy</text>
<text text-anchor="middle" x="435.27" y="-165.9" font-family="Times,serif" font-size="14.00">../contracts/strategies/BaseCompoundStrategy.sol</text>
</g>
<!-- 142 -->
<g id="node7" class="node">
<title>142</title>
<polygon fill="#f2f2f2" stroke="black" points="47.87,-253.1 47.87,-311.5 272.67,-311.5 272.67,-253.1 47.87,-253.1"/>
<text text-anchor="middle" x="160.27" y="-294.9" font-family="Times,serif" font-size="14.00">&lt;&lt;Interface&gt;&gt;</text>
<text text-anchor="middle" x="160.27" y="-278.1" font-family="Times,serif" font-size="14.00">ICERC20</text>
<text text-anchor="middle" x="160.27" y="-261.3" font-family="Times,serif" font-size="14.00">../contracts/strategies/ICompound.sol</text>
</g>
<!-- 124&#45;&gt;142 -->
<g id="edge3" class="edge">
<title>124&#45;&gt;142</title>
<path fill="none" stroke="black" stroke-dasharray="5,2" d="M352.02,-216.18C320.93,-226.74 285.43,-238.79 253.5,-249.63"/>
<polygon fill="black" stroke="black" points="252.06,-246.43 243.72,-252.96 254.31,-253.06 252.06,-246.43"/>
</g>
<!-- 167 -->
<g id="node10" class="node">
<title>167</title>
<polygon fill="#f2f2f2" stroke="black" points="290.22,-253.1 290.22,-311.5 580.32,-311.5 580.32,-253.1 290.22,-253.1"/>
<text text-anchor="middle" x="435.27" y="-294.9" font-family="Times,serif" font-size="14.00">&lt;&lt;Abstract&gt;&gt;</text>
<text text-anchor="middle" x="435.27" y="-278.1" font-family="Times,serif" font-size="14.00">InitializableAbstractStrategy</text>
<text text-anchor="middle" x="435.27" y="-261.3" font-family="Times,serif" font-size="14.00">../contracts/utils/InitializableAbstractStrategy.sol</text>
</g>
<!-- 124&#45;&gt;167 -->
<g id="edge2" class="edge">
<title>124&#45;&gt;167</title>
<path fill="none" stroke="black" d="M435.27,-216.18C435.27,-218.26 435.27,-220.4 435.27,-222.58"/>
<polygon fill="none" stroke="black" points="424.77,-222.8 435.27,-252.8 445.77,-222.8 424.77,-222.8"/>
</g>
<!-- 128 -->
<g id="node5" class="node">
<title>128</title>
<polygon fill="#f2f2f2" stroke="black" points="301.88,-79.1 301.88,-120.7 568.67,-120.7 568.67,-79.1 301.88,-79.1"/>
<text text-anchor="middle" x="435.27" y="-104.1" font-family="Times,serif" font-size="14.00">CompoundStrategy</text>
<text text-anchor="middle" x="435.27" y="-87.3" font-family="Times,serif" font-size="14.00">../contracts/strategies/CompoundStrategy.sol</text>
</g>
<!-- 128&#45;&gt;22 -->
<g id="edge6" class="edge">
<title>128&#45;&gt;22</title>
<path fill="none" stroke="black" stroke-dasharray="5,2" d="M360.88,-120.72C322.54,-130.94 274.92,-143.63 231.92,-155.09"/>
<polygon fill="black" stroke="black" points="231.01,-151.71 222.24,-157.66 232.81,-158.47 231.01,-151.71"/>
</g>
<!-- 128&#45;&gt;124 -->
<g id="edge4" class="edge">
<title>128&#45;&gt;124</title>
<path fill="none" stroke="black" d="M435.27,-121.04C435.27,-123.09 435.27,-125.23 435.27,-127.43"/>
<polygon fill="none" stroke="black" points="424.77,-127.54 435.27,-157.54 445.77,-127.54 424.77,-127.54"/>
</g>
<!-- 128&#45;&gt;142 -->
<g id="edge5" class="edge">
<title>128&#45;&gt;142</title>
<path fill="none" stroke="black" stroke-dasharray="5,2" d="M349.1,-120.82C324.81,-129.27 299.52,-141.03 279.27,-157.2 254.78,-176.76 262.24,-193.31 241.27,-216.6 231.68,-227.26 220.21,-237.55 208.97,-246.66"/>
<polygon fill="black" stroke="black" points="206.52,-244.14 200.85,-253.09 210.86,-249.63 206.52,-244.14"/>
</g>
<!-- 134 -->
<g id="node6" class="node">
<title>134</title>
<polygon fill="#f2f2f2" stroke="black" points="320.15,-0.5 320.15,-42.1 550.39,-42.1 550.39,-0.5 320.15,-0.5"/>
<text text-anchor="middle" x="435.27" y="-25.5" font-family="Times,serif" font-size="14.00">FluxStrategy</text>
<text text-anchor="middle" x="435.27" y="-8.7" font-family="Times,serif" font-size="14.00">../contracts/strategies/FluxStrategy.sol</text>
</g>
<!-- 134&#45;&gt;128 -->
<g id="edge7" class="edge">
<title>134&#45;&gt;128</title>
<path fill="none" stroke="black" d="M435.27,-42.43C435.27,-44.45 435.27,-46.56 435.27,-48.73"/>
<polygon fill="none" stroke="black" points="424.77,-48.91 435.27,-78.91 445.77,-48.91 424.77,-48.91"/>
</g>
<!-- 159 -->
<g id="node8" class="node">
<title>159</title>
<polygon fill="#f2f2f2" stroke="black" points="359.14,-522.5 359.14,-564.1 533.4,-564.1 533.4,-522.5 359.14,-522.5"/>
<text text-anchor="middle" x="446.27" y="-547.5" font-family="Times,serif" font-size="14.00">OUSD</text>
<text text-anchor="middle" x="446.27" y="-530.7" font-family="Times,serif" font-size="14.00">../contracts/token/OUSD.sol</text>
</g>
<!-- 159&#45;&gt;7 -->
<g id="edge10" class="edge">
<title>159&#45;&gt;7</title>
<path fill="none" stroke="black" d="M381.44,-564.12C345.9,-574.99 301.21,-588.65 261.93,-600.66"/>
<polygon fill="none" stroke="black" points="258.82,-590.63 233.2,-609.45 264.96,-610.72 258.82,-590.63"/>
</g>
<!-- 166 -->
<g id="node9" class="node">
<title>166</title>
<polygon fill="#f2f2f2" stroke="black" points="606.27,-601.1 606.27,-659.5 802.28,-659.5 802.28,-601.1 606.27,-601.1"/>
<text text-anchor="middle" x="704.27" y="-642.9" font-family="Times,serif" font-size="14.00">&lt;&lt;Abstract&gt;&gt;</text>
<text text-anchor="middle" x="704.27" y="-626.1" font-family="Times,serif" font-size="14.00">Initializable</text>
<text text-anchor="middle" x="704.27" y="-609.3" font-family="Times,serif" font-size="14.00">../contracts/utils/Initializable.sol</text>
</g>
<!-- 159&#45;&gt;166 -->
<g id="edge8" class="edge">
<title>159&#45;&gt;166</title>
<path fill="none" stroke="black" d="M506.43,-564.12C531.32,-572.32 561.04,-582.11 589.78,-591.58"/>
<polygon fill="none" stroke="black" points="586.78,-601.65 618.56,-601.06 593.35,-581.7 586.78,-601.65"/>
</g>
<!-- 169 -->
<g id="node11" class="node">
<title>169</title>
<polygon fill="#f2f2f2" stroke="black" points="303.94,-601.1 303.94,-659.5 588.6,-659.5 588.6,-601.1 303.94,-601.1"/>
<text text-anchor="middle" x="446.27" y="-642.9" font-family="Times,serif" font-size="14.00">&lt;&lt;Abstract&gt;&gt;</text>
<text text-anchor="middle" x="446.27" y="-626.1" font-family="Times,serif" font-size="14.00">InitializableERC20Detailed</text>
<text text-anchor="middle" x="446.27" y="-609.3" font-family="Times,serif" font-size="14.00">../contracts/utils/InitializableERC20Detailed.sol</text>
</g>
<!-- 159&#45;&gt;169 -->
<g id="edge9" class="edge">
<title>159&#45;&gt;169</title>
<path fill="none" stroke="black" d="M446.27,-564.44C446.27,-566.49 446.27,-568.63 446.27,-570.83"/>
<polygon fill="none" stroke="black" points="435.77,-570.94 446.27,-600.94 456.77,-570.94 435.77,-570.94"/>
</g>
<!-- 167&#45;&gt;7 -->
<g id="edge12" class="edge">
<title>167&#45;&gt;7</title>
<path fill="none" stroke="black" d="M376.39,-311.65C359.56,-321.58 342.05,-333.85 328.27,-348 260.65,-417.45 211.51,-521.05 186.64,-581.23"/>
<polygon fill="none" stroke="black" points="176.79,-577.6 175.5,-609.36 196.31,-585.34 176.79,-577.6"/>
</g>
<!-- 167&#45;&gt;40 -->
<g id="edge15" class="edge">
<title>167&#45;&gt;40</title>
<path fill="none" stroke="black" stroke-dasharray="5,2" d="M435.27,-311.58C435.27,-319.91 435.27,-329.18 435.27,-338.05"/>
<polygon fill="black" stroke="black" points="431.77,-338.2 435.27,-348.2 438.77,-338.2 431.77,-338.2"/>
</g>
<!-- 167&#45;&gt;166 -->
<g id="edge11" class="edge">
<title>167&#45;&gt;166</title>
<path fill="none" stroke="black" d="M493.82,-311.53C510.74,-321.49 528.38,-333.81 542.27,-348 607.21,-414.34 655.65,-511.78 681.94,-572.82"/>
<polygon fill="none" stroke="black" points="672.31,-577 693.49,-600.7 691.71,-568.96 672.31,-577"/>
</g>
<!-- 167&#45;&gt;167 -->
<g id="edge13" class="edge">
<title>167&#45;&gt;167</title>
<path fill="none" stroke="black" stroke-dasharray="5,2" d="M580.48,-269.08C591.52,-272.02 598.32,-276.42 598.32,-282.3 598.32,-286.16 595.39,-289.38 590.26,-291.97"/>
<polygon fill="black" stroke="black" points="588.69,-288.82 580.48,-295.52 591.08,-295.4 588.69,-288.82"/>
</g>
<!-- 341 -->
<g id="node13" class="node">
<title>341</title>
<polygon fill="#f2f2f2" stroke="black" points="244.22,-696.5 244.22,-754.9 648.33,-754.9 648.33,-696.5 244.22,-696.5"/>
<text text-anchor="middle" x="446.27" y="-738.3" font-family="Times,serif" font-size="14.00">&lt;&lt;Interface&gt;&gt;</text>
<text text-anchor="middle" x="446.27" y="-721.5" font-family="Times,serif" font-size="14.00">IERC20</text>
<text text-anchor="middle" x="446.27" y="-704.7" font-family="Times,serif" font-size="14.00">../node_modules/@openzeppelin/contracts/token/ERC20/IERC20.sol</text>
</g>
<!-- 167&#45;&gt;341 -->
<g id="edge14" class="edge">
<title>167&#45;&gt;341</title>
<path fill="none" stroke="black" stroke-dasharray="5,2" d="M580.39,-292.04C693.07,-307.62 830.27,-349.96 830.27,-463.7 830.27,-463.7 830.27,-463.7 830.27,-544.3 830.27,-596.41 847.88,-622.92 811.27,-660 788.21,-683.35 725.6,-698.37 658.61,-707.98"/>
<polygon fill="black" stroke="black" points="658.12,-704.51 648.7,-709.36 659.08,-711.45 658.12,-704.51"/>
</g>
<!-- 169&#45;&gt;341 -->
<g id="edge16" class="edge">
<title>169&#45;&gt;341</title>
<path fill="none" stroke="black" stroke-dasharray="5,2" d="M446.27,-659.58C446.27,-661.66 446.27,-663.8 446.27,-665.98"/>
<polygon fill="none" stroke="black" points="435.77,-666.2 446.27,-696.2 456.77,-666.2 435.77,-666.2"/>
</g>
<!-- 179&#45;&gt;7 -->
<g id="edge18" class="edge">
<title>179&#45;&gt;7</title>
<path fill="none" stroke="black" d="M402.8,-485.6C359.13,-512.36 280.72,-560.4 226.67,-593.52"/>
<polygon fill="none" stroke="black" points="221.03,-584.66 200.93,-609.29 232,-602.57 221.03,-584.66"/>
</g>
<!-- 179&#45;&gt;159 -->
<g id="edge19" class="edge">
<title>179&#45;&gt;159</title>
<path fill="none" stroke="black" d="M438.16,-485.83C439.32,-493.92 440.69,-503.42 441.96,-512.3"/>
<polygon fill="black" stroke="black" points="438.51,-512.91 443.4,-522.31 445.44,-511.91 438.51,-512.91"/>
</g>
<!-- 179&#45;&gt;166 -->
<g id="edge17" class="edge">
<title>179&#45;&gt;166</title>
<path fill="none" stroke="black" d="M475.43,-485.62C495.73,-495.99 520.6,-509.16 542.27,-522 574.83,-541.28 609.95,-564.26 639.15,-584"/>
<polygon fill="none" stroke="black" points="633.36,-592.76 664.05,-601.02 645.21,-575.43 633.36,-592.76"/>
</g>
</g>
</svg>
