<?xml version="1.0" encoding="UTF-8" standalone="no"?>
<!DOCTYPE svg PUBLIC "-//W3C//DTD SVG 1.1//EN"
 "http://www.w3.org/Graphics/SVG/1.1/DTD/svg11.dtd">
<!-- Generated by graphviz version 5.0.0 (20220707.1540)
 -->
<!-- Title: UmlClassDiagram Pages: 1 -->
<svg width="456pt" height="320pt"
 viewBox="0.00 0.00 456.44 320.00" xmlns="http://www.w3.org/2000/svg" xmlns:xlink="http://www.w3.org/1999/xlink">
<g id="graph0" class="graph" transform="scale(1 1) rotate(0) translate(4 316)">
<title>UmlClassDiagram</title>
<polygon fill="white" stroke="transparent" points="-4,4 -4,-316 452.44,-316 452.44,4 -4,4"/>
<!-- 18 -->
<g id="node1" class="node">
<title>18</title>
<polygon fill="#f2f2f2" stroke="black" points="0,-261.5 0,-303.1 234.86,-303.1 234.86,-261.5 0,-261.5"/>
<text text-anchor="middle" x="117.43" y="-286.5" font-family="Times,serif" font-size="14.00">Governable</text>
<text text-anchor="middle" x="117.43" y="-269.7" font-family="Times,serif" font-size="14.00">../contracts/governance/Governable.sol</text>
</g>
<!-- 160 -->
<g id="node2" class="node">
<title>160</title>
<polygon fill="#f2f2f2" stroke="black" points="104.71,-0.5 104.71,-42.1 362.15,-42.1 362.15,-0.5 104.71,-0.5"/>
<text text-anchor="middle" x="233.43" y="-25.5" font-family="Times,serif" font-size="14.00">FraxETHStrategy</text>
<text text-anchor="middle" x="233.43" y="-8.7" font-family="Times,serif" font-size="14.00">../contracts/strategies/FraxETHStrategy.sol</text>
</g>
<!-- 161 -->
<g id="node3" class="node">
<title>161</title>
<polygon fill="#f2f2f2" stroke="black" points="83.34,-79.1 83.34,-120.7 383.52,-120.7 383.52,-79.1 83.34,-79.1"/>
<text text-anchor="middle" x="233.43" y="-104.1" font-family="Times,serif" font-size="14.00">Generalized4626Strategy</text>
<text text-anchor="middle" x="233.43" y="-87.3" font-family="Times,serif" font-size="14.00">../contracts/strategies/Generalized4626Strategy.sol</text>
</g>
<!-- 160&#45;&gt;161 -->
<g id="edge1" class="edge">
<title>160&#45;&gt;161</title>
<path fill="none" stroke="black" d="M233.43,-42.43C233.43,-44.45 233.43,-46.56 233.43,-48.73"/>
<polygon fill="none" stroke="black" points="222.93,-48.91 233.43,-78.91 243.93,-48.91 222.93,-48.91"/>
</g>
<!-- 188 -->
<g id="node5" class="node">
<title>188</title>
<polygon fill="#f2f2f2" stroke="black" points="88.38,-157.7 88.38,-216.1 378.48,-216.1 378.48,-157.7 88.38,-157.7"/>
<text text-anchor="middle" x="233.43" y="-199.5" font-family="Times,serif" font-size="14.00">&lt;&lt;Abstract&gt;&gt;</text>
<text text-anchor="middle" x="233.43" y="-182.7" font-family="Times,serif" font-size="14.00">InitializableAbstractStrategy</text>
<text text-anchor="middle" x="233.43" y="-165.9" font-family="Times,serif" font-size="14.00">../contracts/utils/InitializableAbstractStrategy.sol</text>
</g>
<!-- 161&#45;&gt;188 -->
<g id="edge2" class="edge">
<title>161&#45;&gt;188</title>
<path fill="none" stroke="black" d="M233.43,-121.04C233.43,-123.09 233.43,-125.23 233.43,-127.43"/>
<polygon fill="none" stroke="black" points="222.93,-127.54 233.43,-157.54 243.93,-127.54 222.93,-127.54"/>
</g>
<!-- 187 -->
<g id="node4" class="node">
<title>187</title>
<polygon fill="#f2f2f2" stroke="black" points="252.42,-253.1 252.42,-311.5 448.44,-311.5 448.44,-253.1 252.42,-253.1"/>
<text text-anchor="middle" x="350.43" y="-294.9" font-family="Times,serif" font-size="14.00">&lt;&lt;Abstract&gt;&gt;</text>
<text text-anchor="middle" x="350.43" y="-278.1" font-family="Times,serif" font-size="14.00">Initializable</text>
<text text-anchor="middle" x="350.43" y="-261.3" font-family="Times,serif" font-size="14.00">../contracts/utils/Initializable.sol</text>
</g>
<!-- 188&#45;&gt;18 -->
<g id="edge4" class="edge">
<title>188&#45;&gt;18</title>
<path fill="none" stroke="black" d="M198.31,-216.18C188.11,-224.39 176.78,-233.51 165.91,-242.26"/>
<polygon fill="none" stroke="black" points="158.91,-234.42 142.13,-261.41 172.08,-250.78 158.91,-234.42"/>
</g>
<!-- 188&#45;&gt;187 -->
<g id="edge3" class="edge">
<title>188&#45;&gt;187</title>
<path fill="none" stroke="black" d="M268.85,-216.18C275.89,-221.79 283.46,-227.84 291.04,-233.89"/>
<polygon fill="none" stroke="black" points="284.73,-242.29 314.72,-252.8 297.83,-225.87 284.73,-242.29"/>
</g>
</g>
</svg>
