<?xml version="1.0" encoding="UTF-8" standalone="no"?>
<!DOCTYPE svg PUBLIC "-//W3C//DTD SVG 1.1//EN"
 "http://www.w3.org/Graphics/SVG/1.1/DTD/svg11.dtd">
<!-- Generated by graphviz version 5.0.0 (20220707.1540)
 -->
<!-- Title: StorageDiagram Pages: 1 -->
<svg width="1477pt" height="788pt"
 viewBox="0.00 0.00 1477.42 787.60" xmlns="http://www.w3.org/2000/svg" xmlns:xlink="http://www.w3.org/1999/xlink">
<g id="graph0" class="graph" transform="scale(1 1) rotate(0) translate(4 783.6)">
<title>StorageDiagram</title>
<polygon fill="white" stroke="transparent" points="-4,4 -4,-783.6 1473.42,-783.6 1473.42,4 -4,4"/>
<!-- 6 -->
<g id="node1" class="node">
<title>6</title>
<polygon fill="#f2f2f2" stroke="black" points="0,-319.9 0,-716.7 862.93,-716.7 862.93,-319.9 0,-319.9"/>
<text text-anchor="middle" x="431.47" y="-700.1" font-family="Courier New" font-size="14.00">FraxETHStrategy &lt;&lt;Contract&gt;&gt;</text>
<polyline fill="none" stroke="black" points="0,-691.9 862.93,-691.9 "/>
<text text-anchor="middle" x="37.4" y="-675.3" font-family="Courier New" font-size="14.00">slot</text>
<polyline fill="none" stroke="black" points="0,-667.1 74.81,-667.1 "/>
<text text-anchor="middle" x="37.4" y="-650.5" font-family="Courier New" font-size="14.00">0</text>
<polyline fill="none" stroke="black" points="0,-642.3 74.81,-642.3 "/>
<text text-anchor="middle" x="37.4" y="-625.7" font-family="Courier New" font-size="14.00">1&#45;50</text>
<polyline fill="none" stroke="black" points="0,-617.5 74.81,-617.5 "/>
<text text-anchor="middle" x="37.4" y="-600.9" font-family="Courier New" font-size="14.00">51</text>
<polyline fill="none" stroke="black" points="0,-592.7 74.81,-592.7 "/>
<text text-anchor="middle" x="37.4" y="-576.1" font-family="Courier New" font-size="14.00">52</text>
<polyline fill="none" stroke="black" points="0,-567.9 74.81,-567.9 "/>
<text text-anchor="middle" x="37.4" y="-551.3" font-family="Courier New" font-size="14.00">53</text>
<polyline fill="none" stroke="black" points="0,-543.1 74.81,-543.1 "/>
<text text-anchor="middle" x="37.4" y="-526.5" font-family="Courier New" font-size="14.00">54</text>
<polyline fill="none" stroke="black" points="0,-518.3 74.81,-518.3 "/>
<text text-anchor="middle" x="37.4" y="-501.7" font-family="Courier New" font-size="14.00">55</text>
<polyline fill="none" stroke="black" points="0,-493.5 74.81,-493.5 "/>
<text text-anchor="middle" x="37.4" y="-476.9" font-family="Courier New" font-size="14.00">56</text>
<polyline fill="none" stroke="black" points="0,-468.7 74.81,-468.7 "/>
<text text-anchor="middle" x="37.4" y="-452.1" font-family="Courier New" font-size="14.00">57</text>
<polyline fill="none" stroke="black" points="0,-443.9 74.81,-443.9 "/>
<text text-anchor="middle" x="37.4" y="-427.3" font-family="Courier New" font-size="14.00">58</text>
<polyline fill="none" stroke="black" points="0,-419.1 74.81,-419.1 "/>
<text text-anchor="middle" x="37.4" y="-402.5" font-family="Courier New" font-size="14.00">59&#45;156</text>
<polyline fill="none" stroke="black" points="0,-394.3 74.81,-394.3 "/>
<text text-anchor="middle" x="37.4" y="-377.7" font-family="Courier New" font-size="14.00">157</text>
<polyline fill="none" stroke="black" points="0,-369.5 74.81,-369.5 "/>
<text text-anchor="middle" x="37.4" y="-352.9" font-family="Courier New" font-size="14.00">158</text>
<polyline fill="none" stroke="black" points="0,-344.7 74.81,-344.7 "/>
<text text-anchor="middle" x="37.4" y="-328.1" font-family="Courier New" font-size="14.00">159&#45;208</text>
<polyline fill="none" stroke="black" points="74.81,-319.9 74.81,-691.9 "/>
<text text-anchor="middle" x="468.87" y="-675.3" font-family="Courier New" font-size="14.00">type: &lt;inherited contract&gt;.variable (bytes)</text>
<polyline fill="none" stroke="black" points="74.81,-667.1 862.93,-667.1 "/>
<text text-anchor="middle" x="151.52" y="-650.5" font-family="Courier New" font-size="14.00">unallocated (30)</text>
<polyline fill="none" stroke="black" points="228.23,-642.3 228.23,-667.1 "/>
<text text-anchor="middle" x="388.96" y="-650.5" font-family="Courier New" font-size="14.00">bool: Initializable.initializing (1)</text>
<polyline fill="none" stroke="black" points="549.68,-642.3 549.68,-667.1 "/>
<text text-anchor="middle" x="706.2" y="-650.5" font-family="Courier New" font-size="14.00">bool: Initializable.initialized (1)</text>
<polyline fill="none" stroke="black" points="74.81,-642.3 862.93,-642.3 "/>
<text text-anchor="middle" x="468.44" y="-625.7" font-family="Courier New" font-size="14.00">uint256[50]: Initializable.______gap (1600)</text>
<polyline fill="none" stroke="black" points="74.81,-617.5 862.93,-617.5 "/>
<text text-anchor="middle" x="156.02" y="-600.9" font-family="Courier New" font-size="14.00">unallocated (12)</text>
<polyline fill="none" stroke="black" points="237.23,-592.7 237.23,-617.5 "/>
<text text-anchor="middle" x="549.98" y="-600.9" font-family="Courier New" font-size="14.00">address: InitializableAbstractStrategy._deprecated_platformAddress (20)</text>
<polyline fill="none" stroke="black" points="74.81,-592.7 862.93,-592.7 "/>
<text text-anchor="middle" x="162.52" y="-576.1" font-family="Courier New" font-size="14.00">unallocated (12)</text>
<polyline fill="none" stroke="black" points="250.23,-567.9 250.23,-592.7 "/>
<text text-anchor="middle" x="556.38" y="-576.1" font-family="Courier New" font-size="14.00">address: InitializableAbstractStrategy._deprecated_vaultAddress (20)</text>
<polyline fill="none" stroke="black" points="74.81,-567.9 862.93,-567.9 "/>
<text text-anchor="middle" x="468.86" y="-551.3" font-family="Courier New" font-size="14.00">mapping(address=&gt;address): InitializableAbstractStrategy.assetToPToken (32)</text>
<polyline fill="none" stroke="black" points="74.81,-543.1 862.93,-543.1 "/>
<text text-anchor="middle" x="468.45" y="-526.5" font-family="Courier New" font-size="14.00">address[]: InitializableAbstractStrategy.assetsMapped (32)</text>
<polyline fill="none" stroke="black" points="74.81,-518.3 862.93,-518.3 "/>
<text text-anchor="middle" x="150.02" y="-501.7" font-family="Courier New" font-size="14.00">unallocated (12)</text>
<polyline fill="none" stroke="black" points="225.23,-493.5 225.23,-518.3 "/>
<text text-anchor="middle" x="544.08" y="-501.7" font-family="Courier New" font-size="14.00">address: InitializableAbstractStrategy._deprecated_rewardTokenAddress (20)</text>
<polyline fill="none" stroke="black" points="74.81,-493.5 862.93,-493.5 "/>
<text text-anchor="middle" x="468.77" y="-476.9" font-family="Courier New" font-size="14.00">uint256: InitializableAbstractStrategy._deprecated_rewardLiquidationThreshold (32)</text>
<polyline fill="none" stroke="black" points="74.81,-468.7 862.93,-468.7 "/>
<text text-anchor="middle" x="179.02" y="-452.1" font-family="Courier New" font-size="14.00">unallocated (12)</text>
<polyline fill="none" stroke="black" points="283.23,-443.9 283.23,-468.7 "/>
<text text-anchor="middle" x="572.77" y="-452.1" font-family="Courier New" font-size="14.00">address: InitializableAbstractStrategy.harvesterAddress (20)</text>
<polyline fill="none" stroke="black" points="74.81,-443.9 862.93,-443.9 "/>
<text text-anchor="middle" x="468.55" y="-427.3" font-family="Courier New" font-size="14.00">address[]: InitializableAbstractStrategy.rewardTokenAddresses (32)</text>
<polyline fill="none" stroke="black" points="74.81,-419.1 862.93,-419.1 "/>
<text text-anchor="middle" x="468.45" y="-402.5" font-family="Courier New" font-size="14.00">int256[98]: InitializableAbstractStrategy._reserved (3136)</text>
<polyline fill="none" stroke="black" points="74.81,-394.3 862.93,-394.3 "/>
<text text-anchor="middle" x="181.52" y="-377.7" font-family="Courier New" font-size="14.00">unallocated (12)</text>
<polyline fill="none" stroke="black" points="288.23,-369.5 288.23,-394.3 "/>
<text text-anchor="middle" x="575.57" y="-377.7" font-family="Courier New" font-size="14.00">address: Generalized4626Strategy._deprecate_shareToken (20)</text>
<polyline fill="none" stroke="black" points="74.81,-369.5 862.93,-369.5 "/>
<text text-anchor="middle" x="181.52" y="-352.9" font-family="Courier New" font-size="14.00">unallocated (12)</text>
<polyline fill="none" stroke="black" points="288.23,-344.7 288.23,-369.5 "/>
<text text-anchor="middle" x="575.57" y="-352.9" font-family="Courier New" font-size="14.00">address: Generalized4626Strategy._deprecate_assetToken (20)</text>
<polyline fill="none" stroke="black" points="74.81,-344.7 862.93,-344.7 "/>
<text text-anchor="middle" x="468.64" y="-328.1" font-family="Courier New" font-size="14.00">uint256[50]: Generalized4626Strategy.__gap (1600)</text>
</g>
<!-- 1 -->
<g id="node2" class="node">
<title>1</title>
<polygon fill="#f2f2f2" stroke="black" points="1041.76,-605.5 1041.76,-779.1 1326.6,-779.1 1326.6,-605.5 1041.76,-605.5"/>
<text text-anchor="middle" x="1184.18" y="-762.5" font-family="Courier New" font-size="14.00">uint256[50]: ______gap &lt;&lt;Array&gt;&gt;</text>
<polyline fill="none" stroke="black" points="1041.76,-754.3 1326.6,-754.3 "/>
<text text-anchor="middle" x="1075.06" y="-737.7" font-family="Courier New" font-size="14.00">slot</text>
<polyline fill="none" stroke="black" points="1041.76,-729.5 1108.36,-729.5 "/>
<text text-anchor="middle" x="1075.06" y="-712.9" font-family="Courier New" font-size="14.00">1</text>
<polyline fill="none" stroke="black" points="1041.76,-704.7 1108.36,-704.7 "/>
<text text-anchor="middle" x="1075.06" y="-688.1" font-family="Courier New" font-size="14.00">2</text>
<polyline fill="none" stroke="black" points="1041.76,-679.9 1108.36,-679.9 "/>
<text text-anchor="middle" x="1075.06" y="-663.3" font-family="Courier New" font-size="14.00">3&#45;48</text>
<polyline fill="none" stroke="black" points="1041.76,-655.1 1108.36,-655.1 "/>
<text text-anchor="middle" x="1075.06" y="-638.5" font-family="Courier New" font-size="14.00">49</text>
<polyline fill="none" stroke="black" points="1041.76,-630.3 1108.36,-630.3 "/>
<text text-anchor="middle" x="1075.06" y="-613.7" font-family="Courier New" font-size="14.00">50</text>
<polyline fill="none" stroke="black" points="1108.36,-605.5 1108.36,-754.3 "/>
<text text-anchor="middle" x="1217.28" y="-737.7" font-family="Courier New" font-size="14.00">type: variable (bytes)</text>
<polyline fill="none" stroke="black" points="1108.36,-729.5 1326.19,-729.5 "/>
<text text-anchor="middle" x="1217.27" y="-712.9" font-family="Courier New" font-size="14.00">uint256 (32)</text>
<polyline fill="none" stroke="black" points="1108.36,-704.7 1326.19,-704.7 "/>
<text text-anchor="middle" x="1217.27" y="-688.1" font-family="Courier New" font-size="14.00">uint256 (32)</text>
<polyline fill="none" stroke="black" points="1108.36,-679.9 1326.19,-679.9 "/>
<text text-anchor="middle" x="1217.07" y="-663.3" font-family="Courier New" font-size="14.00">&#45;&#45;&#45;&#45; (1472)</text>
<polyline fill="none" stroke="black" points="1108.36,-655.1 1326.19,-655.1 "/>
<text text-anchor="middle" x="1217.27" y="-638.5" font-family="Courier New" font-size="14.00">uint256 (32)</text>
<polyline fill="none" stroke="black" points="1108.36,-630.3 1326.19,-630.3 "/>
<text text-anchor="middle" x="1217.27" y="-613.7" font-family="Courier New" font-size="14.00">uint256 (32)</text>
</g>
<!-- 6&#45;&gt;1 -->
<g id="edge1" class="edge">
<title>6:8&#45;&gt;1</title>
<path fill="none" stroke="black" d="M862.93,-630.3C918.64,-630.3 978.83,-639.46 1031.82,-650.73"/>
<polygon fill="black" stroke="black" points="1031.12,-654.16 1041.63,-652.86 1032.6,-647.32 1031.12,-654.16"/>
</g>
<!-- 2 -->
<g id="node3" class="node">
<title>2</title>
<polygon fill="#f2f2f2" stroke="black" points="898.93,-495.7 898.93,-586.9 1469.42,-586.9 1469.42,-495.7 898.93,-495.7"/>
<text text-anchor="middle" x="1184.18" y="-570.3" font-family="Courier New" font-size="14.00">address[]: assetsMapped &lt;&lt;Array&gt;&gt;</text>
<text text-anchor="middle" x="1184.18" y="-553.5" font-family="Courier New" font-size="14.00">0x4a11f94e20a93c79f6ec743a1954ec4fc2c08429ae2122118bf234b2185c81b8</text>
<polyline fill="none" stroke="black" points="898.93,-545.3 1469.42,-545.3 "/>
<text text-anchor="middle" x="991.14" y="-528.7" font-family="Courier New" font-size="14.00">offset</text>
<polyline fill="none" stroke="black" points="898.93,-520.5 1083.34,-520.5 "/>
<text text-anchor="middle" x="991.14" y="-503.9" font-family="Courier New" font-size="14.00">0</text>
<polyline fill="none" stroke="black" points="1083.34,-495.7 1083.34,-545.3 "/>
<text text-anchor="middle" x="1275.96" y="-528.7" font-family="Courier New" font-size="14.00">type: variable (bytes)</text>
<polyline fill="none" stroke="black" points="1083.34,-520.5 1468.58,-520.5 "/>
<text text-anchor="middle" x="1188.05" y="-503.9" font-family="Courier New" font-size="14.00">unallocated (12)</text>
<polyline fill="none" stroke="black" points="1292.76,-495.7 1292.76,-520.5 "/>
<text text-anchor="middle" x="1380.67" y="-503.9" font-family="Courier New" font-size="14.00">address (20)</text>
</g>
<!-- 6&#45;&gt;2 -->
<g id="edge2" class="edge">
<title>6:13&#45;&gt;2</title>
<path fill="none" stroke="black" d="M862.93,-530.3C871.33,-530.3 879.85,-530.34 888.45,-530.41"/>
<polygon fill="black" stroke="black" points="888.54,-533.91 898.58,-530.51 888.61,-526.91 888.54,-533.91"/>
</g>
<!-- 3 -->
<g id="node4" class="node">
<title>3</title>
<polygon fill="#f2f2f2" stroke="black" points="898.93,-385.7 898.93,-476.9 1469.42,-476.9 1469.42,-385.7 898.93,-385.7"/>
<text text-anchor="middle" x="1184.18" y="-460.3" font-family="Courier New" font-size="14.00">address[]: rewardTokenAddresses &lt;&lt;Array&gt;&gt;</text>
<text text-anchor="middle" x="1184.18" y="-443.5" font-family="Courier New" font-size="14.00">0xa2999d817b6757290b50e8ecf3fa939673403dd35c97de392fdb343b4015ce9e</text>
<polyline fill="none" stroke="black" points="898.93,-435.3 1469.42,-435.3 "/>
<text text-anchor="middle" x="991.14" y="-418.7" font-family="Courier New" font-size="14.00">offset</text>
<polyline fill="none" stroke="black" points="898.93,-410.5 1083.34,-410.5 "/>
<text text-anchor="middle" x="991.14" y="-393.9" font-family="Courier New" font-size="14.00">0</text>
<polyline fill="none" stroke="black" points="1083.34,-385.7 1083.34,-435.3 "/>
<text text-anchor="middle" x="1275.96" y="-418.7" font-family="Courier New" font-size="14.00">type: variable (bytes)</text>
<polyline fill="none" stroke="black" points="1083.34,-410.5 1468.58,-410.5 "/>
<text text-anchor="middle" x="1188.05" y="-393.9" font-family="Courier New" font-size="14.00">unallocated (12)</text>
<polyline fill="none" stroke="black" points="1292.76,-385.7 1292.76,-410.5 "/>
<text text-anchor="middle" x="1380.67" y="-393.9" font-family="Courier New" font-size="14.00">address (20)</text>
</g>
<!-- 6&#45;&gt;3 -->
<g id="edge3" class="edge">
<title>6:18&#45;&gt;3</title>
<path fill="none" stroke="black" d="M862.93,-431.3C871.32,-431.3 879.84,-431.3 888.44,-431.3"/>
<polygon fill="black" stroke="black" points="888.56,-434.8 898.56,-431.3 888.56,-427.8 888.56,-434.8"/>
</g>
<!-- 4 -->
<g id="node5" class="node">
<title>4</title>
<polygon fill="#f2f2f2" stroke="black" points="1045.96,-193.5 1045.96,-367.1 1322.4,-367.1 1322.4,-193.5 1045.96,-193.5"/>
<text text-anchor="middle" x="1184.18" y="-350.5" font-family="Courier New" font-size="14.00">int256[98]: _reserved &lt;&lt;Array&gt;&gt;</text>
<polyline fill="none" stroke="black" points="1045.96,-342.3 1322.4,-342.3 "/>
<text text-anchor="middle" x="1081.16" y="-325.7" font-family="Courier New" font-size="14.00">slot</text>
<polyline fill="none" stroke="black" points="1045.96,-317.5 1116.36,-317.5 "/>
<text text-anchor="middle" x="1081.16" y="-300.9" font-family="Courier New" font-size="14.00">59</text>
<polyline fill="none" stroke="black" points="1045.96,-292.7 1116.36,-292.7 "/>
<text text-anchor="middle" x="1081.16" y="-276.1" font-family="Courier New" font-size="14.00">60</text>
<polyline fill="none" stroke="black" points="1045.96,-267.9 1116.36,-267.9 "/>
<text text-anchor="middle" x="1081.16" y="-251.3" font-family="Courier New" font-size="14.00">61&#45;154</text>
<polyline fill="none" stroke="black" points="1045.96,-243.1 1116.36,-243.1 "/>
<text text-anchor="middle" x="1081.16" y="-226.5" font-family="Courier New" font-size="14.00">155</text>
<polyline fill="none" stroke="black" points="1045.96,-218.3 1116.36,-218.3 "/>
<text text-anchor="middle" x="1081.16" y="-201.7" font-family="Courier New" font-size="14.00">156</text>
<polyline fill="none" stroke="black" points="1116.36,-193.5 1116.36,-342.3 "/>
<text text-anchor="middle" x="1219.28" y="-325.7" font-family="Courier New" font-size="14.00">type: variable (bytes)</text>
<polyline fill="none" stroke="black" points="1116.36,-317.5 1322.19,-317.5 "/>
<text text-anchor="middle" x="1219.07" y="-300.9" font-family="Courier New" font-size="14.00">int256 (32)</text>
<polyline fill="none" stroke="black" points="1116.36,-292.7 1322.19,-292.7 "/>
<text text-anchor="middle" x="1219.07" y="-276.1" font-family="Courier New" font-size="14.00">int256 (32)</text>
<polyline fill="none" stroke="black" points="1116.36,-267.9 1322.19,-267.9 "/>
<text text-anchor="middle" x="1219.07" y="-251.3" font-family="Courier New" font-size="14.00">&#45;&#45;&#45;&#45; (3008)</text>
<polyline fill="none" stroke="black" points="1116.36,-243.1 1322.19,-243.1 "/>
<text text-anchor="middle" x="1219.07" y="-226.5" font-family="Courier New" font-size="14.00">int256 (32)</text>
<polyline fill="none" stroke="black" points="1116.36,-218.3 1322.19,-218.3 "/>
<text text-anchor="middle" x="1219.07" y="-201.7" font-family="Courier New" font-size="14.00">int256 (32)</text>
</g>
<!-- 6&#45;&gt;4 -->
<g id="edge4" class="edge">
<title>6:24&#45;&gt;4</title>
<path fill="none" stroke="black" d="M862.93,-406.3C883.76,-406.3 880.76,-386.47 898.93,-376.3 941.37,-352.55 990.65,-333.36 1036.15,-318.55"/>
<polygon fill="black" stroke="black" points="1037.35,-321.85 1045.8,-315.46 1035.21,-315.18 1037.35,-321.85"/>
</g>
<!-- 5 -->
<g id="node6" class="node">
<title>5</title>
<polygon fill="#f2f2f2" stroke="black" points="1046.36,-0.5 1046.36,-174.1 1322,-174.1 1322,-0.5 1046.36,-0.5"/>
<text text-anchor="middle" x="1184.18" y="-157.5" font-family="Courier New" font-size="14.00">uint256[50]: __gap &lt;&lt;Array&gt;&gt;</text>
<polyline fill="none" stroke="black" points="1046.36,-149.3 1322,-149.3 "/>
<text text-anchor="middle" x="1083.76" y="-132.7" font-family="Courier New" font-size="14.00">slot</text>
<polyline fill="none" stroke="black" points="1046.36,-124.5 1121.17,-124.5 "/>
<text text-anchor="middle" x="1083.76" y="-107.9" font-family="Courier New" font-size="14.00">159</text>
<polyline fill="none" stroke="black" points="1046.36,-99.7 1121.17,-99.7 "/>
<text text-anchor="middle" x="1083.76" y="-83.1" font-family="Courier New" font-size="14.00">160</text>
<polyline fill="none" stroke="black" points="1046.36,-74.9 1121.17,-74.9 "/>
<text text-anchor="middle" x="1083.76" y="-58.3" font-family="Courier New" font-size="14.00">161&#45;206</text>
<polyline fill="none" stroke="black" points="1046.36,-50.1 1121.17,-50.1 "/>
<text text-anchor="middle" x="1083.76" y="-33.5" font-family="Courier New" font-size="14.00">207</text>
<polyline fill="none" stroke="black" points="1046.36,-25.3 1121.17,-25.3 "/>
<text text-anchor="middle" x="1083.76" y="-8.7" font-family="Courier New" font-size="14.00">208</text>
<polyline fill="none" stroke="black" points="1121.17,-0.5 1121.17,-149.3 "/>
<text text-anchor="middle" x="1221.58" y="-132.7" font-family="Courier New" font-size="14.00">type: variable (bytes)</text>
<polyline fill="none" stroke="black" points="1121.17,-124.5 1322,-124.5 "/>
<text text-anchor="middle" x="1221.58" y="-107.9" font-family="Courier New" font-size="14.00">uint256 (32)</text>
<polyline fill="none" stroke="black" points="1121.17,-99.7 1322,-99.7 "/>
<text text-anchor="middle" x="1221.58" y="-83.1" font-family="Courier New" font-size="14.00">uint256 (32)</text>
<polyline fill="none" stroke="black" points="1121.17,-74.9 1322,-74.9 "/>
<text text-anchor="middle" x="1221.38" y="-58.3" font-family="Courier New" font-size="14.00">&#45;&#45;&#45;&#45; (1472)</text>
<polyline fill="none" stroke="black" points="1121.17,-50.1 1322,-50.1 "/>
<text text-anchor="middle" x="1221.58" y="-33.5" font-family="Courier New" font-size="14.00">uint256 (32)</text>
<polyline fill="none" stroke="black" points="1121.17,-25.3 1322,-25.3 "/>
<text text-anchor="middle" x="1221.58" y="-8.7" font-family="Courier New" font-size="14.00">uint256 (32)</text>
</g>
<!-- 6&#45;&gt;5 -->
<g id="edge5" class="edge">
<title>6:32&#45;&gt;5</title>
<path fill="none" stroke="black" d="M862.93,-332.3C930.63,-332.3 853.27,-234.28 898.93,-184.3 934.54,-145.32 986.45,-122 1036.19,-108.05"/>
<polygon fill="black" stroke="black" points="1037.35,-111.36 1046.1,-105.39 1035.54,-104.61 1037.35,-111.36"/>
</g>
</g>
</svg>
