<?xml version="1.0" encoding="UTF-8" standalone="no"?>
<!DOCTYPE svg PUBLIC "-//W3C//DTD SVG 1.1//EN"
 "http://www.w3.org/Graphics/SVG/1.1/DTD/svg11.dtd">
<!-- Generated by graphviz version 5.0.0 (20220707.1540)
 -->
<!-- Title: UmlClassDiagram Pages: 1 -->
<svg width="1284pt" height="337pt"
 viewBox="0.00 0.00 1284.02 336.80" xmlns="http://www.w3.org/2000/svg" xmlns:xlink="http://www.w3.org/1999/xlink">
<g id="graph0" class="graph" transform="scale(1 1) rotate(0) translate(4 332.8)">
<title>UmlClassDiagram</title>
<polygon fill="white" stroke="transparent" points="-4,4 -4,-332.8 1280.02,-332.8 1280.02,4 -4,4"/>
<!-- 7 -->
<g id="node1" class="node">
<title>7</title>
<polygon fill="#f2f2f2" stroke="black" points="0,-182.9 0,-224.5 234.86,-224.5 234.86,-182.9 0,-182.9"/>
<text text-anchor="middle" x="117.43" y="-207.9" font-family="Times,serif" font-size="14.00">Governable</text>
<text text-anchor="middle" x="117.43" y="-191.1" font-family="Times,serif" font-size="14.00">../contracts/governance/Governable.sol</text>
</g>
<!-- 35 -->
<g id="node2" class="node">
<title>35</title>
<polygon fill="#f2f2f2" stroke="black" points="252.82,-174.5 252.82,-232.9 448.04,-232.9 448.04,-174.5 252.82,-174.5"/>
<text text-anchor="middle" x="350.43" y="-216.3" font-family="Times,serif" font-size="14.00">&lt;&lt;Interface&gt;&gt;</text>
<text text-anchor="middle" x="350.43" y="-199.5" font-family="Times,serif" font-size="14.00">IVault</text>
<text text-anchor="middle" x="350.43" y="-182.7" font-family="Times,serif" font-size="14.00">../contracts/interfaces/IVault.sol</text>
</g>
<!-- 120 -->
<g id="node3" class="node">
<title>120</title>
<polygon fill="#f2f2f2" stroke="black" points="233.34,-0.5 233.34,-42.1 533.52,-42.1 533.52,-0.5 233.34,-0.5"/>
<text text-anchor="middle" x="383.43" y="-25.5" font-family="Times,serif" font-size="14.00">Generalized4626Strategy</text>
<text text-anchor="middle" x="383.43" y="-8.7" font-family="Times,serif" font-size="14.00">../contracts/strategies/Generalized4626Strategy.sol</text>
</g>
<!-- 150 -->
<g id="node5" class="node">
<title>150</title>
<polygon fill="#f2f2f2" stroke="black" points="238.38,-79.1 238.38,-137.5 528.48,-137.5 528.48,-79.1 238.38,-79.1"/>
<text text-anchor="middle" x="383.43" y="-120.9" font-family="Times,serif" font-size="14.00">&lt;&lt;Abstract&gt;&gt;</text>
<text text-anchor="middle" x="383.43" y="-104.1" font-family="Times,serif" font-size="14.00">InitializableAbstractStrategy</text>
<text text-anchor="middle" x="383.43" y="-87.3" font-family="Times,serif" font-size="14.00">../contracts/utils/InitializableAbstractStrategy.sol</text>
</g>
<!-- 120&#45;&gt;150 -->
<g id="edge1" class="edge">
<title>120&#45;&gt;150</title>
<path fill="none" stroke="black" d="M383.43,-42.44C383.43,-44.49 383.43,-46.63 383.43,-48.83"/>
<polygon fill="none" stroke="black" points="372.93,-48.94 383.43,-78.94 393.93,-48.94 372.93,-48.94"/>
</g>
<!-- 198 -->
<g id="node6" class="node">
<title>198</title>
<polygon fill="#f2f2f2" stroke="black" points="597.38,-79.1 597.38,-137.5 859.48,-137.5 859.48,-79.1 597.38,-79.1"/>
<text text-anchor="middle" x="728.43" y="-120.9" font-family="Times,serif" font-size="14.00">&lt;&lt;Interface&gt;&gt;</text>
<text text-anchor="middle" x="728.43" y="-104.1" font-family="Times,serif" font-size="14.00">IERC4626</text>
<text text-anchor="middle" x="728.43" y="-87.3" font-family="Times,serif" font-size="14.00">../lib/openzeppelin/interfaces/IERC4626.sol</text>
</g>
<!-- 120&#45;&gt;198 -->
<g id="edge2" class="edge">
<title>120&#45;&gt;198</title>
<path fill="none" stroke="black" stroke-dasharray="5,2" d="M463.88,-42.12C505.52,-52.38 557.28,-65.13 603.94,-76.63"/>
<polygon fill="black" stroke="black" points="603.27,-80.07 613.82,-79.06 604.95,-73.27 603.27,-80.07"/>
</g>
<!-- 149 -->
<g id="node4" class="node">
<title>149</title>
<polygon fill="#f2f2f2" stroke="black" points="466.42,-174.5 466.42,-232.9 662.44,-232.9 662.44,-174.5 466.42,-174.5"/>
<text text-anchor="middle" x="564.43" y="-216.3" font-family="Times,serif" font-size="14.00">&lt;&lt;Abstract&gt;&gt;</text>
<text text-anchor="middle" x="564.43" y="-199.5" font-family="Times,serif" font-size="14.00">Initializable</text>
<text text-anchor="middle" x="564.43" y="-182.7" font-family="Times,serif" font-size="14.00">../contracts/utils/Initializable.sol</text>
</g>
<!-- 150&#45;&gt;7 -->
<g id="edge4" class="edge">
<title>150&#45;&gt;7</title>
<path fill="none" stroke="black" d="M302.9,-137.58C271.22,-148.7 234.81,-161.49 202.68,-172.77"/>
<polygon fill="none" stroke="black" points="198.89,-162.97 174.07,-182.81 205.85,-182.78 198.89,-162.97"/>
</g>
<!-- 150&#45;&gt;35 -->
<g id="edge7" class="edge">
<title>150&#45;&gt;35</title>
<path fill="none" stroke="black" stroke-dasharray="5,2" d="M373.44,-137.58C370.43,-146.09 367.08,-155.58 363.88,-164.63"/>
<polygon fill="black" stroke="black" points="360.53,-163.6 360.5,-174.2 367.13,-165.93 360.53,-163.6"/>
</g>
<!-- 150&#45;&gt;149 -->
<g id="edge3" class="edge">
<title>150&#45;&gt;149</title>
<path fill="none" stroke="black" d="M438.23,-137.58C452.25,-144.81 467.64,-152.75 482.69,-160.52"/>
<polygon fill="none" stroke="black" points="478.03,-169.93 509.51,-174.36 487.66,-151.27 478.03,-169.93"/>
</g>
<!-- 150&#45;&gt;150 -->
<g id="edge5" class="edge">
<title>150&#45;&gt;150</title>
<path fill="none" stroke="black" stroke-dasharray="5,2" d="M528.64,-96.21C539.68,-98.89 546.48,-102.93 546.48,-108.3 546.48,-111.83 543.55,-114.78 538.42,-117.15"/>
<polygon fill="black" stroke="black" points="537.03,-113.92 528.64,-120.39 539.24,-120.56 537.03,-113.92"/>
</g>
<!-- 436 -->
<g id="node7" class="node">
<title>436</title>
<polygon fill="#f2f2f2" stroke="black" points="526.37,-269.9 526.37,-328.3 930.48,-328.3 930.48,-269.9 526.37,-269.9"/>
<text text-anchor="middle" x="728.43" y="-311.7" font-family="Times,serif" font-size="14.00">&lt;&lt;Interface&gt;&gt;</text>
<text text-anchor="middle" x="728.43" y="-294.9" font-family="Times,serif" font-size="14.00">IERC20</text>
<text text-anchor="middle" x="728.43" y="-278.1" font-family="Times,serif" font-size="14.00">../node_modules/@openzeppelin/contracts/token/ERC20/IERC20.sol</text>
</g>
<!-- 150&#45;&gt;436 -->
<g id="edge6" class="edge">
<title>150&#45;&gt;436</title>
<path fill="none" stroke="black" stroke-dasharray="5,2" d="M528.84,-129.76C588.35,-140.58 648.58,-155.5 671.43,-174 697.93,-195.46 712.65,-231.98 720.46,-259.86"/>
<polygon fill="black" stroke="black" points="717.11,-260.91 723.03,-269.7 723.88,-259.14 717.11,-260.91"/>
</g>
<!-- 198&#45;&gt;436 -->
<g id="edge8" class="edge">
<title>198&#45;&gt;436</title>
<path fill="none" stroke="black" stroke-dasharray="5,2" d="M728.43,-137.57C728.43,-164.4 728.43,-205.56 728.43,-239.48"/>
<polygon fill="none" stroke="black" points="717.93,-239.64 728.43,-269.64 738.93,-239.64 717.93,-239.64"/>
</g>
<!-- 787 -->
<g id="node8" class="node">
<title>787</title>
<polygon fill="#f2f2f2" stroke="black" points="756.84,-174.5 756.84,-232.9 1276.02,-232.9 1276.02,-174.5 756.84,-174.5"/>
<text text-anchor="middle" x="1016.43" y="-216.3" font-family="Times,serif" font-size="14.00">&lt;&lt;Interface&gt;&gt;</text>
<text text-anchor="middle" x="1016.43" y="-199.5" font-family="Times,serif" font-size="14.00">IERC20Metadata</text>
<text text-anchor="middle" x="1016.43" y="-182.7" font-family="Times,serif" font-size="14.00">../node_modules/@openzeppelin/contracts/token/ERC20/extensions/IERC20Metadata.sol</text>
</g>
<!-- 198&#45;&gt;787 -->
<g id="edge9" class="edge">
<title>198&#45;&gt;787</title>
<path fill="none" stroke="black" stroke-dasharray="5,2" d="M815.62,-137.58C842.28,-146.22 872.04,-155.87 900.31,-165.04"/>
<polygon fill="none" stroke="black" points="897.26,-175.09 929.04,-174.36 903.74,-155.12 897.26,-175.09"/>
</g>
<!-- 787&#45;&gt;436 -->
<g id="edge10" class="edge">
<title>787&#45;&gt;436</title>
<path fill="none" stroke="black" stroke-dasharray="5,2" d="M929.24,-232.98C902.57,-241.62 872.82,-251.27 844.55,-260.44"/>
<polygon fill="none" stroke="black" points="841.12,-250.52 815.82,-269.76 847.6,-270.49 841.12,-250.52"/>
</g>
</g>
</svg>
