<?xml version="1.0" encoding="UTF-8" standalone="no"?>
<!DOCTYPE svg PUBLIC "-//W3C//DTD SVG 1.1//EN"
 "http://www.w3.org/Graphics/SVG/1.1/DTD/svg11.dtd">
<!-- Generated by graphviz version 5.0.0 (20220707.1540)
 -->
<!-- Title: UmlClassDiagram Pages: 1 -->
<svg width="1373pt" height="606pt"
 viewBox="0.00 0.00 1373.02 606.20" xmlns="http://www.w3.org/2000/svg" xmlns:xlink="http://www.w3.org/1999/xlink">
<g id="graph0" class="graph" transform="scale(1 1) rotate(0) translate(4 602.2)">
<title>UmlClassDiagram</title>
<polygon fill="white" stroke="transparent" points="-4,4 -4,-602.2 1369.02,-602.2 1369.02,4 -4,4"/>
<!-- 7 -->
<g id="node1" class="node">
<title>7</title>
<polygon fill="#f2f2f2" stroke="black" points="0,-452.3 0,-493.9 234.86,-493.9 234.86,-452.3 0,-452.3"/>
<text text-anchor="middle" x="117.43" y="-477.3" font-family="Times,serif" font-size="14.00">Governable</text>
<text text-anchor="middle" x="117.43" y="-460.5" font-family="Times,serif" font-size="14.00">../contracts/governance/Governable.sol</text>
</g>
<!-- 40 -->
<g id="node2" class="node">
<title>40</title>
<polygon fill="#f2f2f2" stroke="black" points="358.82,-174.5 358.82,-232.9 554.04,-232.9 554.04,-174.5 358.82,-174.5"/>
<text text-anchor="middle" x="456.43" y="-216.3" font-family="Times,serif" font-size="14.00">&lt;&lt;Interface&gt;&gt;</text>
<text text-anchor="middle" x="456.43" y="-199.5" font-family="Times,serif" font-size="14.00">IVault</text>
<text text-anchor="middle" x="456.43" y="-182.7" font-family="Times,serif" font-size="14.00">../contracts/interfaces/IVault.sol</text>
</g>
<!-- 178 -->
<g id="node8" class="node">
<title>178</title>
<polygon fill="#f2f2f2" stroke="black" points="291.98,-269.9 291.98,-311.5 498.88,-311.5 498.88,-269.9 291.98,-269.9"/>
<text text-anchor="middle" x="395.43" y="-294.9" font-family="Times,serif" font-size="14.00">VaultStorage</text>
<text text-anchor="middle" x="395.43" y="-278.1" font-family="Times,serif" font-size="14.00">../contracts/vault/VaultStorage.sol</text>
</g>
<!-- 40&#45;&gt;178 -->
<g id="edge1" class="edge">
<title>40&#45;&gt;178</title>
<path fill="none" stroke="black" stroke-dasharray="5,2" d="M436.12,-233C429.55,-242.15 422.27,-252.29 415.71,-261.44"/>
<polygon fill="black" stroke="black" points="412.67,-259.67 409.68,-269.84 418.36,-263.76 412.67,-259.67"/>
</g>
<!-- 135 -->
<g id="node3" class="node">
<title>135</title>
<polygon fill="#f2f2f2" stroke="black" points="367.34,-0.5 367.34,-42.1 667.52,-42.1 667.52,-0.5 367.34,-0.5"/>
<text text-anchor="middle" x="517.43" y="-25.5" font-family="Times,serif" font-size="14.00">Generalized4626Strategy</text>
<text text-anchor="middle" x="517.43" y="-8.7" font-family="Times,serif" font-size="14.00">../contracts/strategies/Generalized4626Strategy.sol</text>
</g>
<!-- 166 -->
<g id="node6" class="node">
<title>166</title>
<polygon fill="#f2f2f2" stroke="black" points="372.38,-79.1 372.38,-137.5 662.48,-137.5 662.48,-79.1 372.38,-79.1"/>
<text text-anchor="middle" x="517.43" y="-120.9" font-family="Times,serif" font-size="14.00">&lt;&lt;Abstract&gt;&gt;</text>
<text text-anchor="middle" x="517.43" y="-104.1" font-family="Times,serif" font-size="14.00">InitializableAbstractStrategy</text>
<text text-anchor="middle" x="517.43" y="-87.3" font-family="Times,serif" font-size="14.00">../contracts/utils/InitializableAbstractStrategy.sol</text>
</g>
<!-- 135&#45;&gt;166 -->
<g id="edge2" class="edge">
<title>135&#45;&gt;166</title>
<path fill="none" stroke="black" d="M517.43,-42.44C517.43,-44.49 517.43,-46.63 517.43,-48.83"/>
<polygon fill="none" stroke="black" points="506.93,-48.94 517.43,-78.94 527.93,-48.94 506.93,-48.94"/>
</g>
<!-- 216 -->
<g id="node9" class="node">
<title>216</title>
<polygon fill="#f2f2f2" stroke="black" points="807.38,-348.5 807.38,-406.9 1069.48,-406.9 1069.48,-348.5 807.38,-348.5"/>
<text text-anchor="middle" x="938.43" y="-390.3" font-family="Times,serif" font-size="14.00">&lt;&lt;Interface&gt;&gt;</text>
<text text-anchor="middle" x="938.43" y="-373.5" font-family="Times,serif" font-size="14.00">IERC4626</text>
<text text-anchor="middle" x="938.43" y="-356.7" font-family="Times,serif" font-size="14.00">../lib/openzeppelin/interfaces/IERC4626.sol</text>
</g>
<!-- 135&#45;&gt;216 -->
<g id="edge3" class="edge">
<title>135&#45;&gt;216</title>
<path fill="none" stroke="black" stroke-dasharray="5,2" d="M601.86,-42.13C630.77,-50.92 662.58,-62.89 689.43,-78.6 799.27,-142.86 882.48,-274.38 918.63,-339.07"/>
<polygon fill="black" stroke="black" points="915.73,-341.05 923.62,-348.11 921.86,-337.66 915.73,-341.05"/>
</g>
<!-- 158 -->
<g id="node4" class="node">
<title>158</title>
<polygon fill="#f2f2f2" stroke="black" points="308.3,-356.9 308.3,-398.5 482.56,-398.5 482.56,-356.9 308.3,-356.9"/>
<text text-anchor="middle" x="395.43" y="-381.9" font-family="Times,serif" font-size="14.00">OUSD</text>
<text text-anchor="middle" x="395.43" y="-365.1" font-family="Times,serif" font-size="14.00">../contracts/token/OUSD.sol</text>
</g>
<!-- 158&#45;&gt;7 -->
<g id="edge6" class="edge">
<title>158&#45;&gt;7</title>
<path fill="none" stroke="black" d="M336.47,-398.51C298.36,-411.31 248.07,-428.21 205.3,-442.58"/>
<polygon fill="none" stroke="black" points="201.87,-432.65 176.78,-452.16 208.56,-452.56 201.87,-432.65"/>
</g>
<!-- 165 -->
<g id="node5" class="node">
<title>165</title>
<polygon fill="#f2f2f2" stroke="black" points="555.42,-443.9 555.42,-502.3 751.44,-502.3 751.44,-443.9 555.42,-443.9"/>
<text text-anchor="middle" x="653.43" y="-485.7" font-family="Times,serif" font-size="14.00">&lt;&lt;Abstract&gt;&gt;</text>
<text text-anchor="middle" x="653.43" y="-468.9" font-family="Times,serif" font-size="14.00">Initializable</text>
<text text-anchor="middle" x="653.43" y="-452.1" font-family="Times,serif" font-size="14.00">../contracts/utils/Initializable.sol</text>
</g>
<!-- 158&#45;&gt;165 -->
<g id="edge4" class="edge">
<title>158&#45;&gt;165</title>
<path fill="none" stroke="black" d="M450.14,-398.51C478.36,-408.72 513.77,-421.54 547.09,-433.6"/>
<polygon fill="none" stroke="black" points="543.52,-443.48 575.3,-443.82 550.66,-423.73 543.52,-443.48"/>
</g>
<!-- 168 -->
<g id="node7" class="node">
<title>168</title>
<polygon fill="#f2f2f2" stroke="black" points="253.1,-443.9 253.1,-502.3 537.76,-502.3 537.76,-443.9 253.1,-443.9"/>
<text text-anchor="middle" x="395.43" y="-485.7" font-family="Times,serif" font-size="14.00">&lt;&lt;Abstract&gt;&gt;</text>
<text text-anchor="middle" x="395.43" y="-468.9" font-family="Times,serif" font-size="14.00">InitializableERC20Detailed</text>
<text text-anchor="middle" x="395.43" y="-452.1" font-family="Times,serif" font-size="14.00">../contracts/utils/InitializableERC20Detailed.sol</text>
</g>
<!-- 158&#45;&gt;168 -->
<g id="edge5" class="edge">
<title>158&#45;&gt;168</title>
<path fill="none" stroke="black" d="M395.43,-398.51C395.43,-403.14 395.43,-408.31 395.43,-413.69"/>
<polygon fill="none" stroke="black" points="384.93,-413.82 395.43,-443.82 405.93,-413.82 384.93,-413.82"/>
</g>
<!-- 166&#45;&gt;7 -->
<g id="edge8" class="edge">
<title>166&#45;&gt;7</title>
<path fill="none" stroke="black" d="M418.31,-137.52C394.47,-146.92 369.98,-158.95 349.43,-174 255.12,-243.08 179.65,-360.51 142.52,-425.45"/>
<polygon fill="none" stroke="black" points="133.19,-420.62 127.84,-451.95 151.56,-430.79 133.19,-420.62"/>
</g>
<!-- 166&#45;&gt;40 -->
<g id="edge11" class="edge">
<title>166&#45;&gt;40</title>
<path fill="none" stroke="black" stroke-dasharray="5,2" d="M498.96,-137.58C493.16,-146.46 486.67,-156.39 480.54,-165.78"/>
<polygon fill="black" stroke="black" points="477.58,-163.91 475.04,-174.2 483.44,-167.74 477.58,-163.91"/>
</g>
<!-- 166&#45;&gt;165 -->
<g id="edge7" class="edge">
<title>166&#45;&gt;165</title>
<path fill="none" stroke="black" d="M540.63,-137.67C548.68,-148.54 557.24,-161.38 563.43,-174 602.26,-253.24 628.16,-352.61 641.83,-414.24"/>
<polygon fill="none" stroke="black" points="631.62,-416.67 648.1,-443.85 652.16,-412.32 631.62,-416.67"/>
</g>
<!-- 166&#45;&gt;166 -->
<g id="edge9" class="edge">
<title>166&#45;&gt;166</title>
<path fill="none" stroke="black" stroke-dasharray="5,2" d="M662.64,-96.21C673.68,-98.89 680.48,-102.92 680.48,-108.3 680.48,-111.83 677.55,-114.78 672.42,-117.15"/>
<polygon fill="black" stroke="black" points="671.03,-113.92 662.64,-120.39 673.24,-120.56 671.03,-113.92"/>
</g>
<!-- 340 -->
<g id="node10" class="node">
<title>340</title>
<polygon fill="#f2f2f2" stroke="black" points="615.37,-539.3 615.37,-597.7 1019.48,-597.7 1019.48,-539.3 615.37,-539.3"/>
<text text-anchor="middle" x="817.43" y="-581.1" font-family="Times,serif" font-size="14.00">&lt;&lt;Interface&gt;&gt;</text>
<text text-anchor="middle" x="817.43" y="-564.3" font-family="Times,serif" font-size="14.00">IERC20</text>
<text text-anchor="middle" x="817.43" y="-547.5" font-family="Times,serif" font-size="14.00">../node_modules/@openzeppelin/contracts/token/ERC20/IERC20.sol</text>
</g>
<!-- 166&#45;&gt;340 -->
<g id="edge10" class="edge">
<title>166&#45;&gt;340</title>
<path fill="none" stroke="black" stroke-dasharray="5,2" d="M625.51,-137.56C697.68,-163.69 779.43,-210.73 779.43,-289.7 779.43,-289.7 779.43,-289.7 779.43,-378.7 779.43,-431.8 794.05,-491.67 805.16,-529.48"/>
<polygon fill="black" stroke="black" points="801.81,-530.5 808.04,-539.07 808.51,-528.49 801.81,-530.5"/>
</g>
<!-- 168&#45;&gt;340 -->
<g id="edge12" class="edge">
<title>168&#45;&gt;340</title>
<path fill="none" stroke="black" stroke-dasharray="5,2" d="M522.9,-502.31C566.19,-511.89 615.07,-522.71 660.39,-532.74"/>
<polygon fill="none" stroke="black" points="658.38,-543.05 689.94,-539.28 662.92,-522.55 658.38,-543.05"/>
</g>
<!-- 178&#45;&gt;7 -->
<g id="edge14" class="edge">
<title>178&#45;&gt;7</title>
<path fill="none" stroke="black" d="M359.98,-311.72C341.71,-322.23 319.18,-335.49 299.43,-348 255.14,-376.04 206.11,-409.63 170.1,-434.79"/>
<polygon fill="none" stroke="black" points="163.91,-426.31 145.4,-452.15 175.99,-443.49 163.91,-426.31"/>
</g>
<!-- 178&#45;&gt;158 -->
<g id="edge15" class="edge">
<title>178&#45;&gt;158</title>
<path fill="none" stroke="black" d="M395.43,-311.84C395.43,-322.22 395.43,-335.08 395.43,-346.6"/>
<polygon fill="black" stroke="black" points="391.93,-346.7 395.43,-356.7 398.93,-346.7 391.93,-346.7"/>
</g>
<!-- 178&#45;&gt;165 -->
<g id="edge13" class="edge">
<title>178&#45;&gt;165</title>
<path fill="none" stroke="black" d="M431.63,-311.53C449.89,-321.88 472.19,-335.06 491.43,-348 526.85,-371.82 564.82,-400.71 595.08,-424.62"/>
<polygon fill="none" stroke="black" points="588.97,-433.17 618.96,-443.7 602.08,-416.77 588.97,-433.17"/>
</g>
<!-- 216&#45;&gt;340 -->
<g id="edge16" class="edge">
<title>216&#45;&gt;340</title>
<path fill="none" stroke="black" stroke-dasharray="5,2" d="M875.48,-406.93C860.53,-416.47 846.12,-428.57 836.43,-443.4 823.89,-462.6 818.45,-486.97 816.39,-509.03"/>
<polygon fill="none" stroke="black" points="805.88,-508.95 815.36,-539.28 826.87,-509.66 805.88,-508.95"/>
</g>
<!-- 711 -->
<g id="node11" class="node">
<title>711</title>
<polygon fill="#f2f2f2" stroke="black" points="845.84,-443.9 845.84,-502.3 1365.02,-502.3 1365.02,-443.9 845.84,-443.9"/>
<text text-anchor="middle" x="1105.43" y="-485.7" font-family="Times,serif" font-size="14.00">&lt;&lt;Interface&gt;&gt;</text>
<text text-anchor="middle" x="1105.43" y="-468.9" font-family="Times,serif" font-size="14.00">IERC20Metadata</text>
<text text-anchor="middle" x="1105.43" y="-452.1" font-family="Times,serif" font-size="14.00">../node_modules/@openzeppelin/contracts/token/ERC20/extensions/IERC20Metadata.sol</text>
</g>
<!-- 216&#45;&gt;711 -->
<g id="edge17" class="edge">
<title>216&#45;&gt;711</title>
<path fill="none" stroke="black" stroke-dasharray="5,2" d="M988.99,-406.98C1001.44,-413.94 1015.05,-421.55 1028.44,-429.04"/>
<polygon fill="none" stroke="black" points="1023.45,-438.28 1054.75,-443.76 1033.7,-419.95 1023.45,-438.28"/>
</g>
<!-- 711&#45;&gt;340 -->
<g id="edge18" class="edge">
<title>711&#45;&gt;340</title>
<path fill="none" stroke="black" stroke-dasharray="5,2" d="M1018.24,-502.38C991.57,-511.02 961.82,-520.67 933.55,-529.84"/>
<polygon fill="none" stroke="black" points="930.12,-519.92 904.82,-539.16 936.6,-539.89 930.12,-519.92"/>
</g>
</g>
</svg>
