<?xml version="1.0" encoding="UTF-8" standalone="no"?>
<!DOCTYPE svg PUBLIC "-//W3C//DTD SVG 1.1//EN"
 "http://www.w3.org/Graphics/SVG/1.1/DTD/svg11.dtd">
<!-- Generated by graphviz version 5.0.0 (20220707.1540)
 -->
<!-- Title: StorageDiagram Pages: 1 -->
<svg width="1477pt" height="406pt"
 viewBox="0.00 0.00 1477.42 405.80" xmlns="http://www.w3.org/2000/svg" xmlns:xlink="http://www.w3.org/1999/xlink">
<g id="graph0" class="graph" transform="scale(1 1) rotate(0) translate(4 401.8)">
<title>StorageDiagram</title>
<polygon fill="white" stroke="transparent" points="-4,4 -4,-401.8 1473.42,-401.8 1473.42,4 -4,4"/>
<!-- 3 -->
<g id="node1" class="node">
<title>3</title>
<polygon fill="#f2f2f2" stroke="black" points="0,-0.5 0,-397.3 862.93,-397.3 862.93,-0.5 0,-0.5"/>
<text text-anchor="middle" x="431.47" y="-380.7" font-family="Courier New" font-size="14.00">Generalized4626Strategy &lt;&lt;Contract&gt;&gt;</text>
<polyline fill="none" stroke="black" points="0,-372.5 862.93,-372.5 "/>
<text text-anchor="middle" x="37.4" y="-355.9" font-family="Courier New" font-size="14.00">slot</text>
<polyline fill="none" stroke="black" points="0,-347.7 74.81,-347.7 "/>
<text text-anchor="middle" x="37.4" y="-331.1" font-family="Courier New" font-size="14.00">0</text>
<polyline fill="none" stroke="black" points="0,-322.9 74.81,-322.9 "/>
<text text-anchor="middle" x="37.4" y="-306.3" font-family="Courier New" font-size="14.00">1&#45;50</text>
<polyline fill="none" stroke="black" points="0,-298.1 74.81,-298.1 "/>
<text text-anchor="middle" x="37.4" y="-281.5" font-family="Courier New" font-size="14.00">51</text>
<polyline fill="none" stroke="black" points="0,-273.3 74.81,-273.3 "/>
<text text-anchor="middle" x="37.4" y="-256.7" font-family="Courier New" font-size="14.00">52</text>
<polyline fill="none" stroke="black" points="0,-248.5 74.81,-248.5 "/>
<text text-anchor="middle" x="37.4" y="-231.9" font-family="Courier New" font-size="14.00">53</text>
<polyline fill="none" stroke="black" points="0,-223.7 74.81,-223.7 "/>
<text text-anchor="middle" x="37.4" y="-207.1" font-family="Courier New" font-size="14.00">54</text>
<polyline fill="none" stroke="black" points="0,-198.9 74.81,-198.9 "/>
<text text-anchor="middle" x="37.4" y="-182.3" font-family="Courier New" font-size="14.00">55</text>
<polyline fill="none" stroke="black" points="0,-174.1 74.81,-174.1 "/>
<text text-anchor="middle" x="37.4" y="-157.5" font-family="Courier New" font-size="14.00">56</text>
<polyline fill="none" stroke="black" points="0,-149.3 74.81,-149.3 "/>
<text text-anchor="middle" x="37.4" y="-132.7" font-family="Courier New" font-size="14.00">57</text>
<polyline fill="none" stroke="black" points="0,-124.5 74.81,-124.5 "/>
<text text-anchor="middle" x="37.4" y="-107.9" font-family="Courier New" font-size="14.00">58</text>
<polyline fill="none" stroke="black" points="0,-99.7 74.81,-99.7 "/>
<text text-anchor="middle" x="37.4" y="-83.1" font-family="Courier New" font-size="14.00">59&#45;156</text>
<polyline fill="none" stroke="black" points="0,-74.9 74.81,-74.9 "/>
<text text-anchor="middle" x="37.4" y="-58.3" font-family="Courier New" font-size="14.00">157</text>
<polyline fill="none" stroke="black" points="0,-50.1 74.81,-50.1 "/>
<text text-anchor="middle" x="37.4" y="-33.5" font-family="Courier New" font-size="14.00">158</text>
<polyline fill="none" stroke="black" points="0,-25.3 74.81,-25.3 "/>
<text text-anchor="middle" x="37.4" y="-8.7" font-family="Courier New" font-size="14.00">159&#45;208</text>
<polyline fill="none" stroke="black" points="74.81,-0.5 74.81,-372.5 "/>
<text text-anchor="middle" x="468.87" y="-355.9" font-family="Courier New" font-size="14.00">type: &lt;inherited contract&gt;.variable (bytes)</text>
<polyline fill="none" stroke="black" points="74.81,-347.7 862.93,-347.7 "/>
<text text-anchor="middle" x="151.52" y="-331.1" font-family="Courier New" font-size="14.00">unallocated (30)</text>
<polyline fill="none" stroke="black" points="228.23,-322.9 228.23,-347.7 "/>
<text text-anchor="middle" x="388.96" y="-331.1" font-family="Courier New" font-size="14.00">bool: Initializable.initializing (1)</text>
<polyline fill="none" stroke="black" points="549.68,-322.9 549.68,-347.7 "/>
<text text-anchor="middle" x="706.2" y="-331.1" font-family="Courier New" font-size="14.00">bool: Initializable.initialized (1)</text>
<polyline fill="none" stroke="black" points="74.81,-322.9 862.93,-322.9 "/>
<text text-anchor="middle" x="468.44" y="-306.3" font-family="Courier New" font-size="14.00">uint256[50]: Initializable.______gap (1600)</text>
<polyline fill="none" stroke="black" points="74.81,-298.1 862.93,-298.1 "/>
<text text-anchor="middle" x="156.02" y="-281.5" font-family="Courier New" font-size="14.00">unallocated (12)</text>
<polyline fill="none" stroke="black" points="237.23,-273.3 237.23,-298.1 "/>
<text text-anchor="middle" x="549.98" y="-281.5" font-family="Courier New" font-size="14.00">address: InitializableAbstractStrategy._deprecated_platformAddress (20)</text>
<polyline fill="none" stroke="black" points="74.81,-273.3 862.93,-273.3 "/>
<text text-anchor="middle" x="162.52" y="-256.7" font-family="Courier New" font-size="14.00">unallocated (12)</text>
<polyline fill="none" stroke="black" points="250.23,-248.5 250.23,-273.3 "/>
<text text-anchor="middle" x="556.38" y="-256.7" font-family="Courier New" font-size="14.00">address: InitializableAbstractStrategy._deprecated_vaultAddress (20)</text>
<polyline fill="none" stroke="black" points="74.81,-248.5 862.93,-248.5 "/>
<text text-anchor="middle" x="468.86" y="-231.9" font-family="Courier New" font-size="14.00">mapping(address=&gt;address): InitializableAbstractStrategy.assetToPToken (32)</text>
<polyline fill="none" stroke="black" points="74.81,-223.7 862.93,-223.7 "/>
<text text-anchor="middle" x="468.45" y="-207.1" font-family="Courier New" font-size="14.00">address[]: InitializableAbstractStrategy.assetsMapped (32)</text>
<polyline fill="none" stroke="black" points="74.81,-198.9 862.93,-198.9 "/>
<text text-anchor="middle" x="150.02" y="-182.3" font-family="Courier New" font-size="14.00">unallocated (12)</text>
<polyline fill="none" stroke="black" points="225.23,-174.1 225.23,-198.9 "/>
<text text-anchor="middle" x="544.08" y="-182.3" font-family="Courier New" font-size="14.00">address: InitializableAbstractStrategy._deprecated_rewardTokenAddress (20)</text>
<polyline fill="none" stroke="black" points="74.81,-174.1 862.93,-174.1 "/>
<text text-anchor="middle" x="468.77" y="-157.5" font-family="Courier New" font-size="14.00">uint256: InitializableAbstractStrategy._deprecated_rewardLiquidationThreshold (32)</text>
<polyline fill="none" stroke="black" points="74.81,-149.3 862.93,-149.3 "/>
<text text-anchor="middle" x="179.02" y="-132.7" font-family="Courier New" font-size="14.00">unallocated (12)</text>
<polyline fill="none" stroke="black" points="283.23,-124.5 283.23,-149.3 "/>
<text text-anchor="middle" x="572.77" y="-132.7" font-family="Courier New" font-size="14.00">address: InitializableAbstractStrategy.harvesterAddress (20)</text>
<polyline fill="none" stroke="black" points="74.81,-124.5 862.93,-124.5 "/>
<text text-anchor="middle" x="468.55" y="-107.9" font-family="Courier New" font-size="14.00">address[]: InitializableAbstractStrategy.rewardTokenAddresses (32)</text>
<polyline fill="none" stroke="black" points="74.81,-99.7 862.93,-99.7 "/>
<text text-anchor="middle" x="468.45" y="-83.1" font-family="Courier New" font-size="14.00">int256[98]: InitializableAbstractStrategy._reserved (3136)</text>
<polyline fill="none" stroke="black" points="74.81,-74.9 862.93,-74.9 "/>
<text text-anchor="middle" x="231.52" y="-58.3" font-family="Courier New" font-size="14.00">unallocated (12)</text>
<polyline fill="none" stroke="black" points="388.23,-50.1 388.23,-74.9 "/>
<text text-anchor="middle" x="625.26" y="-58.3" font-family="Courier New" font-size="14.00">address: _deprecate_shareToken (20)</text>
<polyline fill="none" stroke="black" points="74.81,-50.1 862.93,-50.1 "/>
<text text-anchor="middle" x="231.52" y="-33.5" font-family="Courier New" font-size="14.00">unallocated (12)</text>
<polyline fill="none" stroke="black" points="388.23,-25.3 388.23,-50.1 "/>
<text text-anchor="middle" x="625.26" y="-33.5" font-family="Courier New" font-size="14.00">address: _deprecate_assetToken (20)</text>
<polyline fill="none" stroke="black" points="74.81,-25.3 862.93,-25.3 "/>
<text text-anchor="middle" x="468.83" y="-8.7" font-family="Courier New" font-size="14.00">uint256[50]: __gap (1600)</text>
</g>
<!-- 1 -->
<g id="node2" class="node">
<title>1</title>
<polygon fill="#f2f2f2" stroke="black" points="898.93,-171.3 898.93,-262.5 1469.42,-262.5 1469.42,-171.3 898.93,-171.3"/>
<text text-anchor="middle" x="1184.18" y="-245.9" font-family="Courier New" font-size="14.00">address[]: assetsMapped &lt;&lt;Array&gt;&gt;</text>
<text text-anchor="middle" x="1184.18" y="-229.1" font-family="Courier New" font-size="14.00">0x4a11f94e20a93c79f6ec743a1954ec4fc2c08429ae2122118bf234b2185c81b8</text>
<polyline fill="none" stroke="black" points="898.93,-220.9 1469.42,-220.9 "/>
<text text-anchor="middle" x="991.14" y="-204.3" font-family="Courier New" font-size="14.00">offset</text>
<polyline fill="none" stroke="black" points="898.93,-196.1 1083.34,-196.1 "/>
<text text-anchor="middle" x="991.14" y="-179.5" font-family="Courier New" font-size="14.00">0</text>
<polyline fill="none" stroke="black" points="1083.34,-171.3 1083.34,-220.9 "/>
<text text-anchor="middle" x="1275.96" y="-204.3" font-family="Courier New" font-size="14.00">type: variable (bytes)</text>
<polyline fill="none" stroke="black" points="1083.34,-196.1 1468.58,-196.1 "/>
<text text-anchor="middle" x="1188.05" y="-179.5" font-family="Courier New" font-size="14.00">unallocated (12)</text>
<polyline fill="none" stroke="black" points="1292.76,-171.3 1292.76,-196.1 "/>
<text text-anchor="middle" x="1380.67" y="-179.5" font-family="Courier New" font-size="14.00">address (20)</text>
</g>
<!-- 3&#45;&gt;1 -->
<g id="edge1" class="edge">
<title>3:8&#45;&gt;1</title>
<path fill="none" stroke="black" d="M862.93,-210.9C871.33,-210.9 879.84,-210.92 888.44,-210.96"/>
<polygon fill="black" stroke="black" points="888.55,-214.46 898.57,-211.01 888.58,-207.46 888.55,-214.46"/>
</g>
<!-- 2 -->
<g id="node3" class="node">
<title>2</title>
<polygon fill="#f2f2f2" stroke="black" points="898.93,-61.3 898.93,-152.5 1469.42,-152.5 1469.42,-61.3 898.93,-61.3"/>
<text text-anchor="middle" x="1184.18" y="-135.9" font-family="Courier New" font-size="14.00">address[]: rewardTokenAddresses &lt;&lt;Array&gt;&gt;</text>
<text text-anchor="middle" x="1184.18" y="-119.1" font-family="Courier New" font-size="14.00">0xa2999d817b6757290b50e8ecf3fa939673403dd35c97de392fdb343b4015ce9e</text>
<polyline fill="none" stroke="black" points="898.93,-110.9 1469.42,-110.9 "/>
<text text-anchor="middle" x="991.14" y="-94.3" font-family="Courier New" font-size="14.00">offset</text>
<polyline fill="none" stroke="black" points="898.93,-86.1 1083.34,-86.1 "/>
<text text-anchor="middle" x="991.14" y="-69.5" font-family="Courier New" font-size="14.00">0</text>
<polyline fill="none" stroke="black" points="1083.34,-61.3 1083.34,-110.9 "/>
<text text-anchor="middle" x="1275.96" y="-94.3" font-family="Courier New" font-size="14.00">type: variable (bytes)</text>
<polyline fill="none" stroke="black" points="1083.34,-86.1 1468.58,-86.1 "/>
<text text-anchor="middle" x="1188.05" y="-69.5" font-family="Courier New" font-size="14.00">unallocated (12)</text>
<polyline fill="none" stroke="black" points="1292.76,-61.3 1292.76,-86.1 "/>
<text text-anchor="middle" x="1380.67" y="-69.5" font-family="Courier New" font-size="14.00">address (20)</text>
</g>
<!-- 3&#45;&gt;2 -->
<g id="edge2" class="edge">
<title>3:13&#45;&gt;2</title>
<path fill="none" stroke="black" d="M862.93,-111.9C871.33,-111.9 879.84,-111.88 888.44,-111.85"/>
<polygon fill="black" stroke="black" points="888.58,-115.35 898.56,-111.8 888.55,-108.35 888.58,-115.35"/>
</g>
</g>
</svg>
