<?xml version="1.0" encoding="UTF-8" standalone="no"?>
<!DOCTYPE svg PUBLIC "-//W3C//DTD SVG 1.1//EN"
 "http://www.w3.org/Graphics/SVG/1.1/DTD/svg11.dtd">
<!-- Generated by graphviz version 5.0.0 (20220707.1540)
 -->
<!-- Title: StorageDiagram Pages: 1 -->
<svg width="1367pt" height="375pt"
 viewBox="0.00 0.00 1367.39 375.40" xmlns="http://www.w3.org/2000/svg" xmlns:xlink="http://www.w3.org/1999/xlink">
<g id="graph0" class="graph" transform="scale(1 1) rotate(0) translate(4 371.4)">
<title>StorageDiagram</title>
<polygon fill="white" stroke="transparent" points="-4,4 -4,-371.4 1363.39,-371.4 1363.39,4 -4,4"/>
<!-- 5 -->
<g id="node1" class="node">
<title>5</title>
<polygon fill="#f2f2f2" stroke="black" points="0,-168.5 0,-366.9 536.08,-366.9 536.08,-168.5 0,-168.5"/>
<text text-anchor="middle" x="268.04" y="-350.3" font-family="Courier New" font-size="14.00">Governor &lt;&lt;Contract&gt;&gt;</text>
<polyline fill="none" stroke="black" points="0,-342.1 536.08,-342.1 "/>
<text text-anchor="middle" x="24.8" y="-325.5" font-family="Courier New" font-size="14.00">slot</text>
<polyline fill="none" stroke="black" points="0,-317.3 49.61,-317.3 "/>
<text text-anchor="middle" x="24.8" y="-300.7" font-family="Courier New" font-size="14.00">0</text>
<polyline fill="none" stroke="black" points="0,-292.5 49.61,-292.5 "/>
<text text-anchor="middle" x="24.8" y="-275.9" font-family="Courier New" font-size="14.00">1</text>
<polyline fill="none" stroke="black" points="0,-267.7 49.61,-267.7 "/>
<text text-anchor="middle" x="24.8" y="-251.1" font-family="Courier New" font-size="14.00">2</text>
<polyline fill="none" stroke="black" points="0,-242.9 49.61,-242.9 "/>
<text text-anchor="middle" x="24.8" y="-226.3" font-family="Courier New" font-size="14.00">3</text>
<polyline fill="none" stroke="black" points="0,-218.1 49.61,-218.1 "/>
<text text-anchor="middle" x="24.8" y="-201.5" font-family="Courier New" font-size="14.00">4</text>
<polyline fill="none" stroke="black" points="0,-193.3 49.61,-193.3 "/>
<text text-anchor="middle" x="24.8" y="-176.7" font-family="Courier New" font-size="14.00">5</text>
<polyline fill="none" stroke="black" points="49.61,-168.5 49.61,-342.1 "/>
<text text-anchor="middle" x="292.84" y="-325.5" font-family="Courier New" font-size="14.00">type: &lt;inherited contract&gt;.variable (bytes)</text>
<polyline fill="none" stroke="black" points="49.61,-317.3 536.08,-317.3 "/>
<text text-anchor="middle" x="145.82" y="-300.7" font-family="Courier New" font-size="14.00">unallocated (12)</text>
<polyline fill="none" stroke="black" points="242.03,-292.5 242.03,-317.3 "/>
<text text-anchor="middle" x="388.65" y="-300.7" font-family="Courier New" font-size="14.00">address: Timelock.admin (20)</text>
<polyline fill="none" stroke="black" points="49.61,-292.5 536.08,-292.5 "/>
<text text-anchor="middle" x="131.32" y="-275.9" font-family="Courier New" font-size="14.00">unallocated (12)</text>
<polyline fill="none" stroke="black" points="213.03,-267.7 213.03,-292.5 "/>
<text text-anchor="middle" x="374.55" y="-275.9" font-family="Courier New" font-size="14.00">address: Timelock.pendingAdmin (20)</text>
<polyline fill="none" stroke="black" points="49.61,-267.7 536.08,-267.7 "/>
<text text-anchor="middle" x="292.72" y="-251.1" font-family="Courier New" font-size="14.00">uint256: Timelock.delay (32)</text>
<polyline fill="none" stroke="black" points="49.61,-242.9 536.08,-242.9 "/>
<text text-anchor="middle" x="292.84" y="-226.3" font-family="Courier New" font-size="14.00">mapping(bytes32=&gt;bool): Timelock.queuedTransactions (32)</text>
<polyline fill="none" stroke="black" points="49.61,-218.1 536.08,-218.1 "/>
<text text-anchor="middle" x="292.52" y="-201.5" font-family="Courier New" font-size="14.00">uint256: proposalCount (32)</text>
<polyline fill="none" stroke="black" points="49.61,-193.3 536.08,-193.3 "/>
<text text-anchor="middle" x="292.53" y="-176.7" font-family="Courier New" font-size="14.00">mapping(uint256=&gt;Proposal): proposals (32)</text>
</g>
<!-- 4 -->
<g id="node5" class="node">
<title>4</title>
<polygon fill="#f2f2f2" stroke="black" points="572.08,-69.1 572.08,-292.3 989.74,-292.3 989.74,-69.1 572.08,-69.1"/>
<text text-anchor="middle" x="780.91" y="-275.7" font-family="Courier New" font-size="14.00">Proposal &lt;&lt;Struct&gt;&gt;</text>
<polyline fill="none" stroke="black" points="572.08,-267.5 989.74,-267.5 "/>
<text text-anchor="middle" x="605.29" y="-250.9" font-family="Courier New" font-size="14.00">offset</text>
<polyline fill="none" stroke="black" points="572.08,-242.7 638.49,-242.7 "/>
<text text-anchor="middle" x="605.29" y="-226.1" font-family="Courier New" font-size="14.00">0</text>
<polyline fill="none" stroke="black" points="572.08,-217.9 638.49,-217.9 "/>
<text text-anchor="middle" x="605.29" y="-201.3" font-family="Courier New" font-size="14.00">1</text>
<polyline fill="none" stroke="black" points="572.08,-193.1 638.49,-193.1 "/>
<text text-anchor="middle" x="605.29" y="-176.5" font-family="Courier New" font-size="14.00">2</text>
<polyline fill="none" stroke="black" points="572.08,-168.3 638.49,-168.3 "/>
<text text-anchor="middle" x="605.29" y="-151.7" font-family="Courier New" font-size="14.00">3</text>
<polyline fill="none" stroke="black" points="572.08,-143.5 638.49,-143.5 "/>
<text text-anchor="middle" x="605.29" y="-126.9" font-family="Courier New" font-size="14.00">4</text>
<polyline fill="none" stroke="black" points="572.08,-118.7 638.49,-118.7 "/>
<text text-anchor="middle" x="605.29" y="-102.1" font-family="Courier New" font-size="14.00">5</text>
<polyline fill="none" stroke="black" points="572.08,-93.9 638.49,-93.9 "/>
<text text-anchor="middle" x="605.29" y="-77.3" font-family="Courier New" font-size="14.00">6</text>
<polyline fill="none" stroke="black" points="638.49,-69.1 638.49,-267.5 "/>
<text text-anchor="middle" x="814.12" y="-250.9" font-family="Courier New" font-size="14.00">type: variable (bytes)</text>
<polyline fill="none" stroke="black" points="638.49,-242.7 989.74,-242.7 "/>
<text text-anchor="middle" x="813.7" y="-226.1" font-family="Courier New" font-size="14.00">uint256: id (32)</text>
<polyline fill="none" stroke="black" points="638.49,-217.9 989.74,-217.9 "/>
<text text-anchor="middle" x="713.7" y="-201.3" font-family="Courier New" font-size="14.00">unallocated (12)</text>
<polyline fill="none" stroke="black" points="788.91,-193.1 788.91,-217.9 "/>
<text text-anchor="middle" x="889.33" y="-201.3" font-family="Courier New" font-size="14.00">address: proposer (20)</text>
<polyline fill="none" stroke="black" points="638.49,-193.1 989.74,-193.1 "/>
<text text-anchor="middle" x="813.9" y="-176.5" font-family="Courier New" font-size="14.00">uint256: eta (32)</text>
<polyline fill="none" stroke="black" points="638.49,-168.3 989.74,-168.3 "/>
<text text-anchor="middle" x="814.11" y="-151.7" font-family="Courier New" font-size="14.00">address[]: targets (32)</text>
<polyline fill="none" stroke="black" points="638.49,-143.5 989.74,-143.5 "/>
<text text-anchor="middle" x="814.01" y="-126.9" font-family="Courier New" font-size="14.00">string[]: signatures (32)</text>
<polyline fill="none" stroke="black" points="638.49,-118.7 989.74,-118.7 "/>
<text text-anchor="middle" x="814.11" y="-102.1" font-family="Courier New" font-size="14.00">bytes[]: calldatas (32)</text>
<polyline fill="none" stroke="black" points="638.49,-93.9 989.74,-93.9 "/>
<text text-anchor="middle" x="721.7" y="-77.3" font-family="Courier New" font-size="14.00">unallocated (31)</text>
<polyline fill="none" stroke="black" points="804.91,-69.1 804.91,-93.9 "/>
<text text-anchor="middle" x="897.02" y="-77.3" font-family="Courier New" font-size="14.00">bool: executed (1)</text>
</g>
<!-- 5&#45;&gt;4 -->
<g id="edge1" class="edge">
<title>5:16&#45;&gt;4</title>
<path fill="none" stroke="black" d="M536.04,-180.7C544.49,-180.7 553.09,-180.7 561.79,-180.7"/>
<polygon fill="black" stroke="black" points="562.04,-184.2 572.04,-180.7 562.04,-177.2 562.04,-184.2"/>
</g>
<!-- 1 -->
<g id="node2" class="node">
<title>1</title>
<polygon fill="#f2f2f2" stroke="black" points="1025.74,-186.5 1025.74,-260.9 1359.39,-260.9 1359.39,-186.5 1025.74,-186.5"/>
<text text-anchor="middle" x="1192.57" y="-244.3" font-family="Courier New" font-size="14.00">address[]: targets &lt;&lt;Array&gt;&gt;</text>
<polyline fill="none" stroke="black" points="1025.74,-236.1 1359.39,-236.1 "/>
<text text-anchor="middle" x="1058.95" y="-219.5" font-family="Courier New" font-size="14.00">offset</text>
<polyline fill="none" stroke="black" points="1025.74,-211.3 1092.15,-211.3 "/>
<text text-anchor="middle" x="1058.95" y="-194.7" font-family="Courier New" font-size="14.00">0</text>
<polyline fill="none" stroke="black" points="1092.15,-186.5 1092.15,-236.1 "/>
<text text-anchor="middle" x="1225.77" y="-219.5" font-family="Courier New" font-size="14.00">type: variable (bytes)</text>
<polyline fill="none" stroke="black" points="1092.15,-211.3 1359.39,-211.3 "/>
<text text-anchor="middle" x="1167.36" y="-194.7" font-family="Courier New" font-size="14.00">unallocated (12)</text>
<polyline fill="none" stroke="black" points="1242.57,-186.5 1242.57,-211.3 "/>
<text text-anchor="middle" x="1300.98" y="-194.7" font-family="Courier New" font-size="14.00">address (20)</text>
</g>
<!-- 2 -->
<g id="node3" class="node">
<title>2</title>
<polygon fill="#f2f2f2" stroke="black" points="1058.54,-93.5 1058.54,-167.9 1326.59,-167.9 1326.59,-93.5 1058.54,-93.5"/>
<text text-anchor="middle" x="1192.57" y="-151.3" font-family="Courier New" font-size="14.00">string[]: signatures &lt;&lt;Array&gt;&gt;</text>
<polyline fill="none" stroke="black" points="1058.54,-143.1 1326.59,-143.1 "/>
<text text-anchor="middle" x="1091.75" y="-126.5" font-family="Courier New" font-size="14.00">offset</text>
<polyline fill="none" stroke="black" points="1058.54,-118.3 1124.95,-118.3 "/>
<text text-anchor="middle" x="1091.75" y="-101.7" font-family="Courier New" font-size="14.00">0</text>
<polyline fill="none" stroke="black" points="1124.95,-93.5 1124.95,-143.1 "/>
<text text-anchor="middle" x="1225.37" y="-126.5" font-family="Courier New" font-size="14.00">type: variable (bytes)</text>
<polyline fill="none" stroke="black" points="1124.95,-118.3 1325.78,-118.3 "/>
<text text-anchor="middle" x="1225.16" y="-101.7" font-family="Courier New" font-size="14.00">string (32)</text>
</g>
<!-- 3 -->
<g id="node4" class="node">
<title>3</title>
<polygon fill="#f2f2f2" stroke="black" points="1058.95,-0.5 1058.95,-74.9 1326.18,-74.9 1326.18,-0.5 1058.95,-0.5"/>
<text text-anchor="middle" x="1192.57" y="-58.3" font-family="Courier New" font-size="14.00">bytes[]: calldatas &lt;&lt;Array&gt;&gt;</text>
<polyline fill="none" stroke="black" points="1058.95,-50.1 1326.18,-50.1 "/>
<text text-anchor="middle" x="1092.15" y="-33.5" font-family="Courier New" font-size="14.00">offset</text>
<polyline fill="none" stroke="black" points="1058.95,-25.3 1125.35,-25.3 "/>
<text text-anchor="middle" x="1092.15" y="-8.7" font-family="Courier New" font-size="14.00">0</text>
<polyline fill="none" stroke="black" points="1125.35,-0.5 1125.35,-50.1 "/>
<text text-anchor="middle" x="1225.77" y="-33.5" font-family="Courier New" font-size="14.00">type: variable (bytes)</text>
<polyline fill="none" stroke="black" points="1125.35,-25.3 1326.18,-25.3 "/>
<text text-anchor="middle" x="1225.36" y="-8.7" font-family="Courier New" font-size="14.00">bytes (32)</text>
</g>
<!-- 4&#45;&gt;1 -->
<g id="edge2" class="edge">
<title>4:10&#45;&gt;1</title>
<path fill="none" stroke="black" d="M989.74,-155.7C1008.49,-155.7 1008.54,-170.23 1025.74,-177.7 1029.67,-179.41 1033.68,-181.07 1037.75,-182.68"/>
<polygon fill="black" stroke="black" points="1036.76,-186.04 1047.35,-186.36 1039.26,-179.51 1036.76,-186.04"/>
</g>
<!-- 4&#45;&gt;2 -->
<g id="edge3" class="edge">
<title>4:12&#45;&gt;2</title>
<path fill="none" stroke="black" d="M989.74,-130.7C1008.61,-130.7 1028.48,-130.7 1048.08,-130.7"/>
<polygon fill="black" stroke="black" points="1048.31,-134.2 1058.31,-130.7 1048.31,-127.2 1048.31,-134.2"/>
</g>
<!-- 4&#45;&gt;3 -->
<g id="edge4" class="edge">
<title>4:14&#45;&gt;3</title>
<path fill="none" stroke="black" d="M989.74,-106.7C1008.73,-106.7 1008.4,-91.43 1025.74,-83.7 1033.29,-80.33 1041.15,-77.16 1049.15,-74.17"/>
<polygon fill="black" stroke="black" points="1050.4,-77.44 1058.61,-70.75 1048.02,-70.86 1050.4,-77.44"/>
</g>
</g>
</svg>
