<?xml version="1.0" encoding="UTF-8" standalone="no"?>
<!DOCTYPE svg PUBLIC "-//W3C//DTD SVG 1.1//EN"
 "http://www.w3.org/Graphics/SVG/1.1/DTD/svg11.dtd">
<!-- Generated by graphviz version 5.0.0 (20220707.1540)
 -->
<!-- Title: UmlClassDiagram Pages: 1 -->
<svg width="243pt" height="225pt"
 viewBox="0.00 0.00 242.86 224.60" xmlns="http://www.w3.org/2000/svg" xmlns:xlink="http://www.w3.org/1999/xlink">
<g id="graph0" class="graph" transform="scale(1 1) rotate(0) translate(4 220.6)">
<title>UmlClassDiagram</title>
<polygon fill="white" stroke="transparent" points="-4,4 -4,-220.6 238.86,-220.6 238.86,4 -4,4"/>
<!-- 18 -->
<g id="node1" class="node">
<title>18</title>
<polygon fill="#f2f2f2" stroke="black" points="0,-174.5 0,-216.1 234.86,-216.1 234.86,-174.5 0,-174.5"/>
<text text-anchor="middle" x="117.43" y="-199.5" font-family="Times,serif" font-size="14.00">Governable</text>
<text text-anchor="middle" x="117.43" y="-182.7" font-family="Times,serif" font-size="14.00">../contracts/governance/Governable.sol</text>
</g>
<!-- 24 -->
<g id="node2" class="node">
<title>24</title>
<polygon fill="#f2f2f2" stroke="black" points="3.88,-79.1 3.88,-137.5 230.98,-137.5 230.98,-79.1 3.88,-79.1"/>
<text text-anchor="middle" x="117.43" y="-120.9" font-family="Times,serif" font-size="14.00">&lt;&lt;Abstract&gt;&gt;</text>
<text text-anchor="middle" x="117.43" y="-104.1" font-family="Times,serif" font-size="14.00">BaseHarvester</text>
<text text-anchor="middle" x="117.43" y="-87.3" font-family="Times,serif" font-size="14.00">../contracts/harvest/BaseHarvester.sol</text>
</g>
<!-- 24&#45;&gt;18 -->
<g id="edge1" class="edge">
<title>24&#45;&gt;18</title>
<path fill="none" stroke="black" d="M117.43,-137.6C117.43,-139.77 117.43,-142 117.43,-144.25"/>
<polygon fill="none" stroke="black" points="106.93,-144.44 117.43,-174.44 127.93,-144.44 106.93,-144.44"/>
</g>
<!-- 28 -->
<g id="node3" class="node">
<title>28</title>
<polygon fill="#f2f2f2" stroke="black" points="17.49,-0.5 17.49,-42.1 217.37,-42.1 217.37,-0.5 17.49,-0.5"/>
<text text-anchor="middle" x="117.43" y="-25.5" font-family="Times,serif" font-size="14.00">Harvester</text>
<text text-anchor="middle" x="117.43" y="-8.7" font-family="Times,serif" font-size="14.00">../contracts/harvest/Harvester.sol</text>
</g>
<!-- 28&#45;&gt;24 -->
<g id="edge2" class="edge">
<title>28&#45;&gt;24</title>
<path fill="none" stroke="black" d="M117.43,-42.44C117.43,-44.49 117.43,-46.63 117.43,-48.83"/>
<polygon fill="none" stroke="black" points="106.93,-48.94 117.43,-78.94 127.93,-48.94 106.93,-48.94"/>
</g>
</g>
</svg>
