<?xml version="1.0" encoding="UTF-8" standalone="no"?>
<!DOCTYPE svg PUBLIC "-//W3C//DTD SVG 1.1//EN"
 "http://www.w3.org/Graphics/SVG/1.1/DTD/svg11.dtd">
<!-- Generated by graphviz version 5.0.0 (20220707.1540)
 -->
<!-- Title: UmlClassDiagram Pages: 1 -->
<svg width="1327pt" height="241pt"
 viewBox="0.00 0.00 1326.76 241.40" xmlns="http://www.w3.org/2000/svg" xmlns:xlink="http://www.w3.org/1999/xlink">
<g id="graph0" class="graph" transform="scale(1 1) rotate(0) translate(4 237.4)">
<title>UmlClassDiagram</title>
<polygon fill="white" stroke="transparent" points="-4,4 -4,-237.4 1322.76,-237.4 1322.76,4 -4,4"/>
<!-- 7 -->
<g id="node1" class="node">
<title>7</title>
<polygon fill="#f2f2f2" stroke="black" points="448.28,-182.9 448.28,-224.5 683.14,-224.5 683.14,-182.9 448.28,-182.9"/>
<text text-anchor="middle" x="565.71" y="-207.9" font-family="Times,serif" font-size="14.00">Governable</text>
<text text-anchor="middle" x="565.71" y="-191.1" font-family="Times,serif" font-size="14.00">../contracts/governance/Governable.sol</text>
</g>
<!-- 13 -->
<g id="node2" class="node">
<title>13</title>
<polygon fill="#f2f2f2" stroke="black" points="452.16,-79.1 452.16,-137.5 679.25,-137.5 679.25,-79.1 452.16,-79.1"/>
<text text-anchor="middle" x="565.71" y="-120.9" font-family="Times,serif" font-size="14.00">&lt;&lt;Abstract&gt;&gt;</text>
<text text-anchor="middle" x="565.71" y="-104.1" font-family="Times,serif" font-size="14.00">BaseHarvester</text>
<text text-anchor="middle" x="565.71" y="-87.3" font-family="Times,serif" font-size="14.00">../contracts/harvest/BaseHarvester.sol</text>
</g>
<!-- 13&#45;&gt;7 -->
<g id="edge1" class="edge">
<title>13&#45;&gt;7</title>
<path fill="none" stroke="black" d="M565.71,-137.58C565.71,-142.37 565.71,-147.47 565.71,-152.62"/>
<polygon fill="none" stroke="black" points="555.21,-152.81 565.71,-182.81 576.21,-152.81 555.21,-152.81"/>
</g>
<!-- 30 -->
<g id="node4" class="node">
<title>30</title>
<polygon fill="#f2f2f2" stroke="black" points="0,-174.5 0,-232.9 201.41,-232.9 201.41,-174.5 0,-174.5"/>
<text text-anchor="middle" x="100.71" y="-216.3" font-family="Times,serif" font-size="14.00">&lt;&lt;Interface&gt;&gt;</text>
<text text-anchor="middle" x="100.71" y="-199.5" font-family="Times,serif" font-size="14.00">IOracle</text>
<text text-anchor="middle" x="100.71" y="-182.7" font-family="Times,serif" font-size="14.00">../contracts/interfaces/IOracle.sol</text>
</g>
<!-- 13&#45;&gt;30 -->
<g id="edge4" class="edge">
<title>13&#45;&gt;30</title>
<path fill="none" stroke="black" stroke-dasharray="5,2" d="M452.16,-127.76C384.86,-139.24 297.73,-155.01 211.59,-173.86"/>
<polygon fill="black" stroke="black" points="210.65,-170.48 201.64,-176.05 212.15,-177.32 210.65,-170.48"/>
</g>
<!-- 33 -->
<g id="node5" class="node">
<title>33</title>
<polygon fill="#f2f2f2" stroke="black" points="219.32,-174.5 219.32,-232.9 430.09,-232.9 430.09,-174.5 219.32,-174.5"/>
<text text-anchor="middle" x="324.71" y="-216.3" font-family="Times,serif" font-size="14.00">&lt;&lt;Interface&gt;&gt;</text>
<text text-anchor="middle" x="324.71" y="-199.5" font-family="Times,serif" font-size="14.00">IStrategy</text>
<text text-anchor="middle" x="324.71" y="-182.7" font-family="Times,serif" font-size="14.00">../contracts/interfaces/IStrategy.sol</text>
</g>
<!-- 13&#45;&gt;33 -->
<g id="edge5" class="edge">
<title>13&#45;&gt;33</title>
<path fill="none" stroke="black" stroke-dasharray="5,2" d="M492.74,-137.58C465.85,-148 435.2,-159.88 407.5,-170.61"/>
<polygon fill="black" stroke="black" points="405.89,-167.48 397.84,-174.36 408.42,-174.01 405.89,-167.48"/>
</g>
<!-- 35 -->
<g id="node6" class="node">
<title>35</title>
<polygon fill="#f2f2f2" stroke="black" points="701.1,-174.5 701.1,-232.9 896.31,-232.9 896.31,-174.5 701.1,-174.5"/>
<text text-anchor="middle" x="798.71" y="-216.3" font-family="Times,serif" font-size="14.00">&lt;&lt;Interface&gt;&gt;</text>
<text text-anchor="middle" x="798.71" y="-199.5" font-family="Times,serif" font-size="14.00">IVault</text>
<text text-anchor="middle" x="798.71" y="-182.7" font-family="Times,serif" font-size="14.00">../contracts/interfaces/IVault.sol</text>
</g>
<!-- 13&#45;&gt;35 -->
<g id="edge3" class="edge">
<title>13&#45;&gt;35</title>
<path fill="none" stroke="black" stroke-dasharray="5,2" d="M636.25,-137.58C662.25,-148 691.88,-159.88 718.66,-170.61"/>
<polygon fill="black" stroke="black" points="717.42,-173.89 728,-174.36 720.02,-167.39 717.42,-173.89"/>
</g>
<!-- 436 -->
<g id="node8" class="node">
<title>436</title>
<polygon fill="#f2f2f2" stroke="black" points="914.65,-174.5 914.65,-232.9 1318.76,-232.9 1318.76,-174.5 914.65,-174.5"/>
<text text-anchor="middle" x="1116.71" y="-216.3" font-family="Times,serif" font-size="14.00">&lt;&lt;Interface&gt;&gt;</text>
<text text-anchor="middle" x="1116.71" y="-199.5" font-family="Times,serif" font-size="14.00">IERC20</text>
<text text-anchor="middle" x="1116.71" y="-182.7" font-family="Times,serif" font-size="14.00">../node_modules/@openzeppelin/contracts/token/ERC20/IERC20.sol</text>
</g>
<!-- 13&#45;&gt;436 -->
<g id="edge2" class="edge">
<title>13&#45;&gt;436</title>
<path fill="none" stroke="black" stroke-dasharray="5,2" d="M679.58,-129.77C695.4,-132.57 711.46,-135.38 726.71,-138 794.26,-149.62 868.46,-162.03 933.84,-172.83"/>
<polygon fill="black" stroke="black" points="933.4,-176.3 943.84,-174.48 934.55,-169.4 933.4,-176.3"/>
</g>
<!-- 17 -->
<g id="node3" class="node">
<title>17</title>
<polygon fill="#f2f2f2" stroke="black" points="465.77,-0.5 465.77,-42.1 665.65,-42.1 665.65,-0.5 465.77,-0.5"/>
<text text-anchor="middle" x="565.71" y="-25.5" font-family="Times,serif" font-size="14.00">Harvester</text>
<text text-anchor="middle" x="565.71" y="-8.7" font-family="Times,serif" font-size="14.00">../contracts/harvest/Harvester.sol</text>
</g>
<!-- 17&#45;&gt;13 -->
<g id="edge6" class="edge">
<title>17&#45;&gt;13</title>
<path fill="none" stroke="black" d="M565.71,-42.44C565.71,-44.49 565.71,-46.63 565.71,-48.83"/>
<polygon fill="none" stroke="black" points="555.21,-48.94 565.71,-78.94 576.21,-48.94 555.21,-48.94"/>
</g>
<!-- 17&#45;&gt;30 -->
<g id="edge9" class="edge">
<title>17&#45;&gt;30</title>
<path fill="none" stroke="black" stroke-dasharray="5,2" d="M514.61,-42.12C434.58,-73.17 278.92,-133.56 182.97,-170.78"/>
<polygon fill="black" stroke="black" points="181.65,-167.54 173.59,-174.42 184.18,-174.07 181.65,-167.54"/>
</g>
<!-- 17&#45;&gt;35 -->
<g id="edge7" class="edge">
<title>17&#45;&gt;35</title>
<path fill="none" stroke="black" stroke-dasharray="5,2" d="M626.69,-42.11C647.88,-51 670.8,-63.04 688.71,-78.6 712.36,-99.16 706.42,-114.11 726.71,-138 735.46,-148.31 745.83,-158.53 755.93,-167.7"/>
<polygon fill="black" stroke="black" points="753.77,-170.47 763.57,-174.5 758.42,-165.24 753.77,-170.47"/>
</g>
<!-- 182 -->
<g id="node7" class="node">
<title>182</title>
<polygon fill="#f2f2f2" stroke="black" points="735.88,-79.1 735.88,-137.5 1069.53,-137.5 1069.53,-79.1 735.88,-79.1"/>
<text text-anchor="middle" x="902.71" y="-120.9" font-family="Times,serif" font-size="14.00">&lt;&lt;Interface&gt;&gt;</text>
<text text-anchor="middle" x="902.71" y="-104.1" font-family="Times,serif" font-size="14.00">IUniswapV2Router</text>
<text text-anchor="middle" x="902.71" y="-87.3" font-family="Times,serif" font-size="14.00">../contracts/interfaces/uniswap/IUniswapV2Router02.sol</text>
</g>
<!-- 17&#45;&gt;182 -->
<g id="edge10" class="edge">
<title>17&#45;&gt;182</title>
<path fill="none" stroke="black" stroke-dasharray="5,2" d="M644.29,-42.12C684.88,-52.36 735.31,-65.08 780.82,-76.56"/>
<polygon fill="black" stroke="black" points="780.2,-80.01 790.75,-79.06 781.91,-73.22 780.2,-80.01"/>
</g>
<!-- 17&#45;&gt;436 -->
<g id="edge8" class="edge">
<title>17&#45;&gt;436</title>
<path fill="none" stroke="black" stroke-dasharray="5,2" d="M665.7,-27.41C805.98,-35.45 1047.6,-52.85 1078.71,-78.6 1103.72,-99.3 1112.61,-136.02 1115.61,-164.16"/>
<polygon fill="black" stroke="black" points="1112.15,-164.81 1116.49,-174.47 1119.12,-164.21 1112.15,-164.81"/>
</g>
</g>
</svg>
