<?xml version="1.0" encoding="UTF-8" standalone="no"?>
<!DOCTYPE svg PUBLIC "-//W3C//DTD SVG 1.1//EN"
 "http://www.w3.org/Graphics/SVG/1.1/DTD/svg11.dtd">
<!-- Generated by graphviz version 5.0.0 (20220707.1540)
 -->
<!-- Title: StorageDiagram Pages: 1 -->
<svg width="2029pt" height="133pt"
 viewBox="0.00 0.00 2028.70 133.00" xmlns="http://www.w3.org/2000/svg" xmlns:xlink="http://www.w3.org/1999/xlink">
<g id="graph0" class="graph" transform="scale(1 1) rotate(0) translate(4 129)">
<title>StorageDiagram</title>
<polygon fill="white" stroke="transparent" points="-4,4 -4,-129 2024.7,-129 2024.7,4 -4,4"/>
<!-- 2 -->
<g id="node1" class="node">
<title>2</title>
<polygon fill="#f2f2f2" stroke="black" points="0,-0.5 0,-124.5 687.31,-124.5 687.31,-0.5 0,-0.5"/>
<text text-anchor="middle" x="343.65" y="-107.9" font-family="Courier New" font-size="14.00">Harvester &lt;&lt;Contract&gt;&gt;</text>
<polyline fill="none" stroke="black" points="0,-99.7 687.31,-99.7 "/>
<text text-anchor="middle" x="24.8" y="-83.1" font-family="Courier New" font-size="14.00">slot</text>
<polyline fill="none" stroke="black" points="0,-74.9 49.61,-74.9 "/>
<text text-anchor="middle" x="24.8" y="-58.3" font-family="Courier New" font-size="14.00">0</text>
<polyline fill="none" stroke="black" points="0,-50.1 49.61,-50.1 "/>
<text text-anchor="middle" x="24.8" y="-33.5" font-family="Courier New" font-size="14.00">1</text>
<polyline fill="none" stroke="black" points="0,-25.3 49.61,-25.3 "/>
<text text-anchor="middle" x="24.8" y="-8.7" font-family="Courier New" font-size="14.00">2</text>
<polyline fill="none" stroke="black" points="49.61,-0.5 49.61,-99.7 "/>
<text text-anchor="middle" x="368.46" y="-83.1" font-family="Courier New" font-size="14.00">type: &lt;inherited contract&gt;.variable (bytes)</text>
<polyline fill="none" stroke="black" points="49.61,-74.9 687.31,-74.9 "/>
<text text-anchor="middle" x="368.46" y="-58.3" font-family="Courier New" font-size="14.00">mapping(address=&gt;RewardTokenConfig): BaseHarvester.rewardTokenConfigs (32)</text>
<polyline fill="none" stroke="black" points="49.61,-50.1 687.31,-50.1 "/>
<text text-anchor="middle" x="368.05" y="-33.5" font-family="Courier New" font-size="14.00">mapping(address=&gt;bool): BaseHarvester.supportedStrategies (32)</text>
<polyline fill="none" stroke="black" points="49.61,-25.3 687.31,-25.3 "/>
<text text-anchor="middle" x="139.32" y="-8.7" font-family="Courier New" font-size="14.00">unallocated (12)</text>
<polyline fill="none" stroke="black" points="229.03,-0.5 229.03,-25.3 "/>
<text text-anchor="middle" x="457.86" y="-8.7" font-family="Courier New" font-size="14.00">address: BaseHarvester.rewardProceedsAddress (20)</text>
</g>
<!-- 1 -->
<g id="node2" class="node">
<title>1</title>
<polygon fill="#f2f2f2" stroke="black" points="723.31,-12.9 723.31,-112.1 2020.7,-112.1 2020.7,-12.9 723.31,-12.9"/>
<text text-anchor="middle" x="1372" y="-95.5" font-family="Courier New" font-size="14.00">RewardTokenConfig &lt;&lt;Struct&gt;&gt;</text>
<polyline fill="none" stroke="black" points="723.31,-87.3 2020.7,-87.3 "/>
<text text-anchor="middle" x="756.51" y="-70.7" font-family="Courier New" font-size="14.00">offset</text>
<polyline fill="none" stroke="black" points="723.31,-62.5 789.71,-62.5 "/>
<text text-anchor="middle" x="756.51" y="-45.9" font-family="Courier New" font-size="14.00">0</text>
<polyline fill="none" stroke="black" points="723.31,-37.7 789.71,-37.7 "/>
<text text-anchor="middle" x="756.51" y="-21.1" font-family="Courier New" font-size="14.00">1</text>
<polyline fill="none" stroke="black" points="789.71,-12.9 789.71,-87.3 "/>
<text text-anchor="middle" x="1405.21" y="-70.7" font-family="Courier New" font-size="14.00">type: variable (bytes)</text>
<polyline fill="none" stroke="black" points="789.71,-62.5 2020.7,-62.5 "/>
<text text-anchor="middle" x="860.73" y="-45.9" font-family="Courier New" font-size="14.00">unallocated (7)</text>
<polyline fill="none" stroke="black" points="931.74,-37.7 931.74,-62.5 "/>
<text text-anchor="middle" x="1053.15" y="-45.9" font-family="Courier New" font-size="14.00">bool: doSwapRewardToken (1)</text>
<polyline fill="none" stroke="black" points="1174.57,-37.7 1174.57,-62.5 "/>
<text text-anchor="middle" x="1338" y="-45.9" font-family="Courier New" font-size="14.00">address: uniswapV2CompatibleAddr (20)</text>
<polyline fill="none" stroke="black" points="1501.42,-37.7 1501.42,-62.5 "/>
<text text-anchor="middle" x="1627.04" y="-45.9" font-family="Courier New" font-size="14.00">uint16: harvestRewardBps (2)</text>
<polyline fill="none" stroke="black" points="1752.66,-37.7 1752.66,-62.5 "/>
<text text-anchor="middle" x="1886.68" y="-45.9" font-family="Courier New" font-size="14.00">uint16: allowedSlippageBps (2)</text>
<polyline fill="none" stroke="black" points="789.71,-37.7 2020.7,-37.7 "/>
<text text-anchor="middle" x="1404.74" y="-21.1" font-family="Courier New" font-size="14.00">uint256: liquidationLimit (32)</text>
</g>
<!-- 2&#45;&gt;1 -->
<g id="edge1" class="edge">
<title>2:6&#45;&gt;1</title>
<path fill="none" stroke="black" d="M687.31,-62.5C695.84,-62.5 704.43,-62.5 713.07,-62.5"/>
<polygon fill="black" stroke="black" points="713.24,-66 723.24,-62.5 713.24,-59 713.24,-66"/>
</g>
</g>
</svg>
