<?xml version="1.0" encoding="UTF-8" standalone="no"?>
<!DOCTYPE svg PUBLIC "-//W3C//DTD SVG 1.1//EN"
 "http://www.w3.org/Graphics/SVG/1.1/DTD/svg11.dtd">
<!-- Generated by graphviz version 5.0.0 (20220707.1540)
 -->
<!-- Title: UmlClassDiagram Pages: 1 -->
<svg width="2075pt" height="589pt"
 viewBox="0.00 0.00 2074.55 589.40" xmlns="http://www.w3.org/2000/svg" xmlns:xlink="http://www.w3.org/1999/xlink">
<g id="graph0" class="graph" transform="scale(1 1) rotate(0) translate(4 585.4)">
<title>UmlClassDiagram</title>
<polygon fill="white" stroke="transparent" points="-4,4 -4,-585.4 2070.55,-585.4 2070.55,4 -4,4"/>
<!-- 20 -->
<g id="node1" class="node">
<title>20</title>
<polygon fill="#f2f2f2" stroke="black" points="0,-435.5 0,-477.1 234.86,-477.1 234.86,-435.5 0,-435.5"/>
<text text-anchor="middle" x="117.43" y="-460.5" font-family="Times,serif" font-size="14.00">Governable</text>
<text text-anchor="middle" x="117.43" y="-443.7" font-family="Times,serif" font-size="14.00">../contracts/governance/Governable.sol</text>
</g>
<!-- 26 -->
<g id="node2" class="node">
<title>26</title>
<polygon fill="#f2f2f2" stroke="black" points="577.88,-79.1 577.88,-137.5 804.98,-137.5 804.98,-79.1 577.88,-79.1"/>
<text text-anchor="middle" x="691.43" y="-120.9" font-family="Times,serif" font-size="14.00">&lt;&lt;Abstract&gt;&gt;</text>
<text text-anchor="middle" x="691.43" y="-104.1" font-family="Times,serif" font-size="14.00">BaseHarvester</text>
<text text-anchor="middle" x="691.43" y="-87.3" font-family="Times,serif" font-size="14.00">../contracts/harvest/BaseHarvester.sol</text>
</g>
<!-- 26&#45;&gt;20 -->
<g id="edge1" class="edge">
<title>26&#45;&gt;20</title>
<path fill="none" stroke="black" d="M577.84,-114.88C424.34,-123.57 166.29,-142.65 136.43,-174 77.76,-235.6 89.99,-343.2 103.9,-405.96"/>
<polygon fill="none" stroke="black" points="93.77,-408.74 111.26,-435.28 114.14,-403.63 93.77,-408.74"/>
</g>
<!-- 48 -->
<g id="node4" class="node">
<title>48</title>
<polygon fill="#f2f2f2" stroke="black" points="145.72,-174.5 145.72,-232.9 347.14,-232.9 347.14,-174.5 145.72,-174.5"/>
<text text-anchor="middle" x="246.43" y="-216.3" font-family="Times,serif" font-size="14.00">&lt;&lt;Interface&gt;&gt;</text>
<text text-anchor="middle" x="246.43" y="-199.5" font-family="Times,serif" font-size="14.00">IOracle</text>
<text text-anchor="middle" x="246.43" y="-182.7" font-family="Times,serif" font-size="14.00">../contracts/interfaces/IOracle.sol</text>
</g>
<!-- 26&#45;&gt;48 -->
<g id="edge2" class="edge">
<title>26&#45;&gt;48</title>
<path fill="none" stroke="black" stroke-dasharray="5,2" d="M577.85,-129.36C515.48,-140.82 436.57,-156.05 357.51,-173.8"/>
<polygon fill="black" stroke="black" points="356.35,-170.48 347.37,-176.09 357.89,-177.3 356.35,-170.48"/>
</g>
<!-- 52 -->
<g id="node5" class="node">
<title>52</title>
<polygon fill="#f2f2f2" stroke="black" points="365.05,-174.5 365.05,-232.9 575.81,-232.9 575.81,-174.5 365.05,-174.5"/>
<text text-anchor="middle" x="470.43" y="-216.3" font-family="Times,serif" font-size="14.00">&lt;&lt;Interface&gt;&gt;</text>
<text text-anchor="middle" x="470.43" y="-199.5" font-family="Times,serif" font-size="14.00">IStrategy</text>
<text text-anchor="middle" x="470.43" y="-182.7" font-family="Times,serif" font-size="14.00">../contracts/interfaces/IStrategy.sol</text>
</g>
<!-- 26&#45;&gt;52 -->
<g id="edge7" class="edge">
<title>26&#45;&gt;52</title>
<path fill="none" stroke="black" stroke-dasharray="5,2" d="M624.52,-137.58C600.08,-147.91 572.24,-159.67 547.02,-170.33"/>
<polygon fill="black" stroke="black" points="545.34,-167.24 537.49,-174.36 548.06,-173.69 545.34,-167.24"/>
</g>
<!-- 55 -->
<g id="node6" class="node">
<title>55</title>
<polygon fill="#f2f2f2" stroke="black" points="593.82,-174.5 593.82,-232.9 789.04,-232.9 789.04,-174.5 593.82,-174.5"/>
<text text-anchor="middle" x="691.43" y="-216.3" font-family="Times,serif" font-size="14.00">&lt;&lt;Interface&gt;&gt;</text>
<text text-anchor="middle" x="691.43" y="-199.5" font-family="Times,serif" font-size="14.00">IVault</text>
<text text-anchor="middle" x="691.43" y="-182.7" font-family="Times,serif" font-size="14.00">../contracts/interfaces/IVault.sol</text>
</g>
<!-- 26&#45;&gt;55 -->
<g id="edge3" class="edge">
<title>26&#45;&gt;55</title>
<path fill="none" stroke="black" stroke-dasharray="5,2" d="M691.43,-137.58C691.43,-145.91 691.43,-155.18 691.43,-164.05"/>
<polygon fill="black" stroke="black" points="687.93,-164.2 691.43,-174.2 694.93,-164.2 687.93,-164.2"/>
</g>
<!-- 214 -->
<g id="node7" class="node">
<title>214</title>
<polygon fill="#f2f2f2" stroke="black" points="807.3,-174.5 807.3,-232.9 1103.56,-232.9 1103.56,-174.5 807.3,-174.5"/>
<text text-anchor="middle" x="955.43" y="-216.3" font-family="Times,serif" font-size="14.00">&lt;&lt;Interface&gt;&gt;</text>
<text text-anchor="middle" x="955.43" y="-199.5" font-family="Times,serif" font-size="14.00">IBalancerVault</text>
<text text-anchor="middle" x="955.43" y="-182.7" font-family="Times,serif" font-size="14.00">../contracts/interfaces/balancer/IBalancerVault.sol</text>
</g>
<!-- 26&#45;&gt;214 -->
<g id="edge5" class="edge">
<title>26&#45;&gt;214</title>
<path fill="none" stroke="black" stroke-dasharray="5,2" d="M771.35,-137.58C801.07,-148.09 834.98,-160.09 865.53,-170.89"/>
<polygon fill="black" stroke="black" points="864.73,-174.32 875.32,-174.36 867.06,-167.72 864.73,-174.32"/>
</g>
<!-- 245 -->
<g id="node8" class="node">
<title>245</title>
<polygon fill="#f2f2f2" stroke="black" points="1121.61,-174.5 1121.61,-232.9 1455.25,-232.9 1455.25,-174.5 1121.61,-174.5"/>
<text text-anchor="middle" x="1288.43" y="-216.3" font-family="Times,serif" font-size="14.00">&lt;&lt;Interface&gt;&gt;</text>
<text text-anchor="middle" x="1288.43" y="-199.5" font-family="Times,serif" font-size="14.00">IUniswapV2Router</text>
<text text-anchor="middle" x="1288.43" y="-182.7" font-family="Times,serif" font-size="14.00">../contracts/interfaces/uniswap/IUniswapV2Router02.sol</text>
</g>
<!-- 26&#45;&gt;245 -->
<g id="edge8" class="edge">
<title>26&#45;&gt;245</title>
<path fill="none" stroke="black" stroke-dasharray="5,2" d="M805.38,-126.52C887.63,-139.02 1001.62,-156.49 1111.3,-173.83"/>
<polygon fill="black" stroke="black" points="1110.79,-177.29 1121.22,-175.4 1111.89,-170.38 1110.79,-177.29"/>
</g>
<!-- 246 -->
<g id="node9" class="node">
<title>246</title>
<polygon fill="#f2f2f2" stroke="black" points="1473.61,-174.5 1473.61,-232.9 1793.25,-232.9 1793.25,-174.5 1473.61,-174.5"/>
<text text-anchor="middle" x="1633.43" y="-216.3" font-family="Times,serif" font-size="14.00">&lt;&lt;Interface&gt;&gt;</text>
<text text-anchor="middle" x="1633.43" y="-199.5" font-family="Times,serif" font-size="14.00">IUniswapV3Router</text>
<text text-anchor="middle" x="1633.43" y="-182.7" font-family="Times,serif" font-size="14.00">../contracts/interfaces/uniswap/IUniswapV3Router.sol</text>
</g>
<!-- 26&#45;&gt;246 -->
<g id="edge9" class="edge">
<title>26&#45;&gt;246</title>
<path fill="none" stroke="black" stroke-dasharray="5,2" d="M805.05,-115.79C953.97,-124.97 1223.46,-143.93 1463.4,-173.91"/>
<polygon fill="black" stroke="black" points="1463,-177.39 1473.36,-175.16 1463.88,-170.44 1463,-177.39"/>
</g>
<!-- 174 -->
<g id="node10" class="node">
<title>174</title>
<polygon fill="#f2f2f2" stroke="black" points="1811.2,-174.5 1811.2,-232.9 2033.66,-232.9 2033.66,-174.5 1811.2,-174.5"/>
<text text-anchor="middle" x="1922.43" y="-216.3" font-family="Times,serif" font-size="14.00">&lt;&lt;Interface&gt;&gt;</text>
<text text-anchor="middle" x="1922.43" y="-199.5" font-family="Times,serif" font-size="14.00">ICurvePool</text>
<text text-anchor="middle" x="1922.43" y="-182.7" font-family="Times,serif" font-size="14.00">../contracts/strategies/ICurvePool.sol</text>
</g>
<!-- 26&#45;&gt;174 -->
<g id="edge6" class="edge">
<title>26&#45;&gt;174</title>
<path fill="none" stroke="black" stroke-dasharray="5,2" d="M805.26,-109.32C1005.38,-110.81 1433.12,-120.5 1801.05,-173.9"/>
<polygon fill="black" stroke="black" points="1800.7,-177.38 1811.1,-175.37 1801.71,-170.45 1800.7,-177.38"/>
</g>
<!-- 392 -->
<g id="node15" class="node">
<title>392</title>
<polygon fill="#f2f2f2" stroke="black" points="193.37,-522.5 193.37,-580.9 597.48,-580.9 597.48,-522.5 193.37,-522.5"/>
<text text-anchor="middle" x="395.43" y="-564.3" font-family="Times,serif" font-size="14.00">&lt;&lt;Interface&gt;&gt;</text>
<text text-anchor="middle" x="395.43" y="-547.5" font-family="Times,serif" font-size="14.00">IERC20</text>
<text text-anchor="middle" x="395.43" y="-530.7" font-family="Times,serif" font-size="14.00">../node_modules/@openzeppelin/contracts/token/ERC20/IERC20.sol</text>
</g>
<!-- 26&#45;&gt;392 -->
<g id="edge4" class="edge">
<title>26&#45;&gt;392</title>
<path fill="none" stroke="black" stroke-dasharray="5,2" d="M804.98,-110.89C1122.02,-115.83 1996.55,-133.11 2042.43,-174 2081.33,-208.67 2061.43,-237.59 2061.43,-289.7 2061.43,-289.7 2061.43,-289.7 2061.43,-370.3 2061.43,-514.89 1056.79,-543.7 607.81,-549.36"/>
<polygon fill="black" stroke="black" points="607.59,-545.86 597.63,-549.49 607.68,-552.86 607.59,-545.86"/>
</g>
<!-- 32 -->
<g id="node3" class="node">
<title>32</title>
<polygon fill="#f2f2f2" stroke="black" points="591.49,-0.5 591.49,-42.1 791.37,-42.1 791.37,-0.5 591.49,-0.5"/>
<text text-anchor="middle" x="691.43" y="-25.5" font-family="Times,serif" font-size="14.00">Harvester</text>
<text text-anchor="middle" x="691.43" y="-8.7" font-family="Times,serif" font-size="14.00">../contracts/harvest/Harvester.sol</text>
</g>
<!-- 32&#45;&gt;26 -->
<g id="edge10" class="edge">
<title>32&#45;&gt;26</title>
<path fill="none" stroke="black" d="M691.43,-42.44C691.43,-44.49 691.43,-46.63 691.43,-48.83"/>
<polygon fill="none" stroke="black" points="680.93,-48.94 691.43,-78.94 701.93,-48.94 680.93,-48.94"/>
</g>
<!-- 207 -->
<g id="node14" class="node">
<title>207</title>
<polygon fill="#f2f2f2" stroke="black" points="384.98,-269.9 384.98,-311.5 591.88,-311.5 591.88,-269.9 384.98,-269.9"/>
<text text-anchor="middle" x="488.43" y="-294.9" font-family="Times,serif" font-size="14.00">VaultStorage</text>
<text text-anchor="middle" x="488.43" y="-278.1" font-family="Times,serif" font-size="14.00">../contracts/vault/VaultStorage.sol</text>
</g>
<!-- 55&#45;&gt;207 -->
<g id="edge11" class="edge">
<title>55&#45;&gt;207</title>
<path fill="none" stroke="black" stroke-dasharray="5,2" d="M623.83,-233C598.38,-243.66 569.71,-255.67 545.33,-265.88"/>
<polygon fill="black" stroke="black" points="543.73,-262.75 535.86,-269.84 546.44,-269.21 543.73,-262.75"/>
</g>
<!-- 186 -->
<g id="node11" class="node">
<title>186</title>
<polygon fill="#f2f2f2" stroke="black" points="308.3,-348.5 308.3,-390.1 482.56,-390.1 482.56,-348.5 308.3,-348.5"/>
<text text-anchor="middle" x="395.43" y="-373.5" font-family="Times,serif" font-size="14.00">OUSD</text>
<text text-anchor="middle" x="395.43" y="-356.7" font-family="Times,serif" font-size="14.00">../contracts/token/OUSD.sol</text>
</g>
<!-- 186&#45;&gt;20 -->
<g id="edge14" class="edge">
<title>186&#45;&gt;20</title>
<path fill="none" stroke="black" d="M330.6,-390.12C295.06,-400.99 250.37,-414.65 211.09,-426.66"/>
<polygon fill="none" stroke="black" points="207.98,-416.63 182.36,-435.45 214.12,-436.72 207.98,-416.63"/>
</g>
<!-- 194 -->
<g id="node12" class="node">
<title>194</title>
<polygon fill="#f2f2f2" stroke="black" points="555.42,-427.1 555.42,-485.5 751.44,-485.5 751.44,-427.1 555.42,-427.1"/>
<text text-anchor="middle" x="653.43" y="-468.9" font-family="Times,serif" font-size="14.00">&lt;&lt;Abstract&gt;&gt;</text>
<text text-anchor="middle" x="653.43" y="-452.1" font-family="Times,serif" font-size="14.00">Initializable</text>
<text text-anchor="middle" x="653.43" y="-435.3" font-family="Times,serif" font-size="14.00">../contracts/utils/Initializable.sol</text>
</g>
<!-- 186&#45;&gt;194 -->
<g id="edge12" class="edge">
<title>186&#45;&gt;194</title>
<path fill="none" stroke="black" d="M455.59,-390.12C480.48,-398.32 510.2,-408.11 538.94,-417.58"/>
<polygon fill="none" stroke="black" points="535.94,-427.65 567.72,-427.06 542.51,-407.7 535.94,-427.65"/>
</g>
<!-- 197 -->
<g id="node13" class="node">
<title>197</title>
<polygon fill="#f2f2f2" stroke="black" points="253.1,-427.1 253.1,-485.5 537.76,-485.5 537.76,-427.1 253.1,-427.1"/>
<text text-anchor="middle" x="395.43" y="-468.9" font-family="Times,serif" font-size="14.00">&lt;&lt;Abstract&gt;&gt;</text>
<text text-anchor="middle" x="395.43" y="-452.1" font-family="Times,serif" font-size="14.00">InitializableERC20Detailed</text>
<text text-anchor="middle" x="395.43" y="-435.3" font-family="Times,serif" font-size="14.00">../contracts/utils/InitializableERC20Detailed.sol</text>
</g>
<!-- 186&#45;&gt;197 -->
<g id="edge13" class="edge">
<title>186&#45;&gt;197</title>
<path fill="none" stroke="black" d="M395.43,-390.44C395.43,-392.49 395.43,-394.63 395.43,-396.83"/>
<polygon fill="none" stroke="black" points="384.93,-396.94 395.43,-426.94 405.93,-396.94 384.93,-396.94"/>
</g>
<!-- 197&#45;&gt;392 -->
<g id="edge15" class="edge">
<title>197&#45;&gt;392</title>
<path fill="none" stroke="black" stroke-dasharray="5,2" d="M395.43,-485.58C395.43,-487.66 395.43,-489.8 395.43,-491.98"/>
<polygon fill="none" stroke="black" points="384.93,-492.2 395.43,-522.2 405.93,-492.2 384.93,-492.2"/>
</g>
<!-- 207&#45;&gt;20 -->
<g id="edge17" class="edge">
<title>207&#45;&gt;20</title>
<path fill="none" stroke="black" d="M405.95,-311.58C372.26,-320.89 333.33,-333.22 299.43,-348 254.35,-367.65 206.57,-396.15 171.28,-418.84"/>
<polygon fill="none" stroke="black" points="165.5,-410.08 146.2,-435.34 177.04,-427.62 165.5,-410.08"/>
</g>
<!-- 207&#45;&gt;186 -->
<g id="edge18" class="edge">
<title>207&#45;&gt;186</title>
<path fill="none" stroke="black" d="M464,-311.83C452.89,-320.97 439.6,-331.92 427.68,-341.73"/>
<polygon fill="black" stroke="black" points="425.19,-339.25 419.7,-348.31 429.65,-344.65 425.19,-339.25"/>
</g>
<!-- 207&#45;&gt;194 -->
<g id="edge16" class="edge">
<title>207&#45;&gt;194</title>
<path fill="none" stroke="black" d="M508.66,-311.76C532.07,-334.97 571.46,-374.02 603.25,-405.54"/>
<polygon fill="none" stroke="black" points="596.02,-413.16 624.71,-426.83 610.8,-398.25 596.02,-413.16"/>
</g>
</g>
</svg>
