<?xml version="1.0" encoding="UTF-8" standalone="no"?>
<!DOCTYPE svg PUBLIC "-//W3C//DTD SVG 1.1//EN"
 "http://www.w3.org/Graphics/SVG/1.1/DTD/svg11.dtd">
<!-- Generated by graphviz version 5.0.0 (20220707.1540)
 -->
<!-- Title: StorageDiagram Pages: 1 -->
<svg width="2272pt" height="257pt"
 viewBox="0.00 0.00 2271.54 256.80" xmlns="http://www.w3.org/2000/svg" xmlns:xlink="http://www.w3.org/1999/xlink">
<g id="graph0" class="graph" transform="scale(1 1) rotate(0) translate(4 252.8)">
<title>StorageDiagram</title>
<polygon fill="white" stroke="transparent" points="-4,4 -4,-252.8 2267.54,-252.8 2267.54,4 -4,4"/>
<!-- 3 -->
<g id="node1" class="node">
<title>3</title>
<polygon fill="#f2f2f2" stroke="black" points="0,-25.1 0,-248.3 720.91,-248.3 720.91,-25.1 0,-25.1"/>
<text text-anchor="middle" x="360.46" y="-231.7" font-family="Courier New" font-size="14.00">Harvester &lt;&lt;Contract&gt;&gt;</text>
<polyline fill="none" stroke="black" points="0,-223.5 720.91,-223.5 "/>
<text text-anchor="middle" x="24.8" y="-206.9" font-family="Courier New" font-size="14.00">slot</text>
<polyline fill="none" stroke="black" points="0,-198.7 49.61,-198.7 "/>
<text text-anchor="middle" x="24.8" y="-182.1" font-family="Courier New" font-size="14.00">0</text>
<polyline fill="none" stroke="black" points="0,-173.9 49.61,-173.9 "/>
<text text-anchor="middle" x="24.8" y="-157.3" font-family="Courier New" font-size="14.00">1</text>
<polyline fill="none" stroke="black" points="0,-149.1 49.61,-149.1 "/>
<text text-anchor="middle" x="24.8" y="-132.5" font-family="Courier New" font-size="14.00">2</text>
<polyline fill="none" stroke="black" points="0,-124.3 49.61,-124.3 "/>
<text text-anchor="middle" x="24.8" y="-107.7" font-family="Courier New" font-size="14.00">3</text>
<polyline fill="none" stroke="black" points="0,-99.5 49.61,-99.5 "/>
<text text-anchor="middle" x="24.8" y="-82.9" font-family="Courier New" font-size="14.00">4</text>
<polyline fill="none" stroke="black" points="0,-74.7 49.61,-74.7 "/>
<text text-anchor="middle" x="24.8" y="-58.1" font-family="Courier New" font-size="14.00">5</text>
<polyline fill="none" stroke="black" points="0,-49.9 49.61,-49.9 "/>
<text text-anchor="middle" x="24.8" y="-33.3" font-family="Courier New" font-size="14.00">6</text>
<polyline fill="none" stroke="black" points="49.61,-25.1 49.61,-223.5 "/>
<text text-anchor="middle" x="385.26" y="-206.9" font-family="Courier New" font-size="14.00">type: &lt;inherited contract&gt;.variable (bytes)</text>
<polyline fill="none" stroke="black" points="49.61,-198.7 720.91,-198.7 "/>
<text text-anchor="middle" x="385.26" y="-182.1" font-family="Courier New" font-size="14.00">mapping(address=&gt;RewardTokenConfig): AbstractHarvester.rewardTokenConfigs (32)</text>
<polyline fill="none" stroke="black" points="49.61,-173.9 720.91,-173.9 "/>
<text text-anchor="middle" x="384.85" y="-157.3" font-family="Courier New" font-size="14.00">mapping(address=&gt;bool): AbstractHarvester.supportedStrategies (32)</text>
<polyline fill="none" stroke="black" points="49.61,-149.1 720.91,-149.1 "/>
<text text-anchor="middle" x="139.32" y="-132.5" font-family="Courier New" font-size="14.00">unallocated (12)</text>
<polyline fill="none" stroke="black" points="229.03,-124.3 229.03,-149.1 "/>
<text text-anchor="middle" x="474.66" y="-132.5" font-family="Courier New" font-size="14.00">address: AbstractHarvester.rewardProceedsAddress (20)</text>
<polyline fill="none" stroke="black" points="49.61,-124.3 720.91,-124.3 "/>
<text text-anchor="middle" x="385.15" y="-107.7" font-family="Courier New" font-size="14.00">mapping(address=&gt;address[]): AbstractHarvester.uniswapV2Path (32)</text>
<polyline fill="none" stroke="black" points="49.61,-99.5 720.91,-99.5 "/>
<text text-anchor="middle" x="384.85" y="-82.9" font-family="Courier New" font-size="14.00">mapping(address=&gt;bytes): AbstractHarvester.uniswapV3Path (32)</text>
<polyline fill="none" stroke="black" points="49.61,-74.7 720.91,-74.7 "/>
<text text-anchor="middle" x="384.95" y="-58.1" font-family="Courier New" font-size="14.00">mapping(address=&gt;bytes32): AbstractHarvester.balancerPoolId (32)</text>
<polyline fill="none" stroke="black" points="49.61,-49.9 720.91,-49.9 "/>
<text text-anchor="middle" x="385.16" y="-33.3" font-family="Courier New" font-size="14.00">mapping(address=&gt;CurvePoolIndices): AbstractHarvester.curvePoolIndices (32)</text>
</g>
<!-- 1 -->
<g id="node2" class="node">
<title>1</title>
<polygon fill="#f2f2f2" stroke="black" points="756.91,-137.1 756.91,-236.3 2263.54,-236.3 2263.54,-137.1 756.91,-137.1"/>
<text text-anchor="middle" x="1510.23" y="-219.7" font-family="Courier New" font-size="14.00">RewardTokenConfig &lt;&lt;Struct&gt;&gt;</text>
<polyline fill="none" stroke="black" points="756.91,-211.5 2263.54,-211.5 "/>
<text text-anchor="middle" x="790.12" y="-194.9" font-family="Courier New" font-size="14.00">offset</text>
<polyline fill="none" stroke="black" points="756.91,-186.7 823.32,-186.7 "/>
<text text-anchor="middle" x="790.12" y="-170.1" font-family="Courier New" font-size="14.00">0</text>
<polyline fill="none" stroke="black" points="756.91,-161.9 823.32,-161.9 "/>
<text text-anchor="middle" x="790.12" y="-145.3" font-family="Courier New" font-size="14.00">1</text>
<polyline fill="none" stroke="black" points="823.32,-137.1 823.32,-211.5 "/>
<text text-anchor="middle" x="1543.43" y="-194.9" font-family="Courier New" font-size="14.00">type: variable (bytes)</text>
<polyline fill="none" stroke="black" points="823.32,-186.7 2263.54,-186.7 "/>
<text text-anchor="middle" x="894.33" y="-170.1" font-family="Courier New" font-size="14.00">unallocated (6)</text>
<polyline fill="none" stroke="black" points="965.34,-161.9 965.34,-186.7 "/>
<text text-anchor="middle" x="1099.36" y="-170.1" font-family="Courier New" font-size="14.00">SwapPlatform: swapPlatform (1)</text>
<polyline fill="none" stroke="black" points="1233.38,-161.9 1233.38,-186.7 "/>
<text text-anchor="middle" x="1354.8" y="-170.1" font-family="Courier New" font-size="14.00">bool: doSwapRewardToken (1)</text>
<polyline fill="none" stroke="black" points="1476.22,-161.9 1476.22,-186.7 "/>
<text text-anchor="middle" x="1610.24" y="-170.1" font-family="Courier New" font-size="14.00">address: swapPlatformAddr (20)</text>
<polyline fill="none" stroke="black" points="1744.26,-161.9 1744.26,-186.7 "/>
<text text-anchor="middle" x="1869.88" y="-170.1" font-family="Courier New" font-size="14.00">uint16: harvestRewardBps (2)</text>
<polyline fill="none" stroke="black" points="1995.5,-161.9 1995.5,-186.7 "/>
<text text-anchor="middle" x="2129.52" y="-170.1" font-family="Courier New" font-size="14.00">uint16: allowedSlippageBps (2)</text>
<polyline fill="none" stroke="black" points="823.32,-161.9 2263.54,-161.9 "/>
<text text-anchor="middle" x="1543.34" y="-145.3" font-family="Courier New" font-size="14.00">uint256: liquidationLimit (32)</text>
</g>
<!-- 3&#45;&gt;1 -->
<g id="edge1" class="edge">
<title>3:7&#45;&gt;1</title>
<path fill="none" stroke="black" d="M720.91,-186.7C729.46,-186.7 738.06,-186.7 746.7,-186.7"/>
<polygon fill="black" stroke="black" points="746.86,-190.2 756.86,-186.7 746.86,-183.2 746.86,-190.2"/>
</g>
<!-- 2 -->
<g id="node3" class="node">
<title>2</title>
<polygon fill="#f2f2f2" stroke="black" points="1217.38,-0.5 1217.38,-74.9 1803.07,-74.9 1803.07,-0.5 1217.38,-0.5"/>
<text text-anchor="middle" x="1510.23" y="-58.3" font-family="Courier New" font-size="14.00">CurvePoolIndices &lt;&lt;Struct&gt;&gt;</text>
<polyline fill="none" stroke="black" points="1217.38,-50.1 1803.07,-50.1 "/>
<text text-anchor="middle" x="1250.59" y="-33.5" font-family="Courier New" font-size="14.00">offset</text>
<polyline fill="none" stroke="black" points="1217.38,-25.3 1283.79,-25.3 "/>
<text text-anchor="middle" x="1250.59" y="-8.7" font-family="Courier New" font-size="14.00">0</text>
<polyline fill="none" stroke="black" points="1283.79,-0.5 1283.79,-50.1 "/>
<text text-anchor="middle" x="1543.43" y="-33.5" font-family="Courier New" font-size="14.00">type: variable (bytes)</text>
<polyline fill="none" stroke="black" points="1283.79,-25.3 1803.07,-25.3 "/>
<text text-anchor="middle" x="1409.41" y="-8.7" font-family="Courier New" font-size="14.00">uint128: baseTokenIndex (16)</text>
<polyline fill="none" stroke="black" points="1535.03,-0.5 1535.03,-25.3 "/>
<text text-anchor="middle" x="1669.05" y="-8.7" font-family="Courier New" font-size="14.00">uint128: rewardTokenIndex (16)</text>
</g>
<!-- 3&#45;&gt;2 -->
<g id="edge2" class="edge">
<title>3:15&#45;&gt;2</title>
<path fill="none" stroke="black" d="M720.91,-37.7C881.46,-37.7 1060.39,-37.7 1207.15,-37.7"/>
<polygon fill="black" stroke="black" points="1207.22,-41.2 1217.22,-37.7 1207.22,-34.2 1207.22,-41.2"/>
</g>
</g>
</svg>
