<?xml version="1.0" encoding="UTF-8" standalone="no"?>
<!DOCTYPE svg PUBLIC "-//W3C//DTD SVG 1.1//EN"
 "http://www.w3.org/Graphics/SVG/1.1/DTD/svg11.dtd">
<!-- Generated by graphviz version 5.0.0 (20220707.1540)
 -->
<!-- Title: UmlClassDiagram Pages: 1 -->
<svg width="255pt" height="225pt"
 viewBox="0.00 0.00 255.31 224.60" xmlns="http://www.w3.org/2000/svg" xmlns:xlink="http://www.w3.org/1999/xlink">
<g id="graph0" class="graph" transform="scale(1 1) rotate(0) translate(4 220.6)">
<title>UmlClassDiagram</title>
<polygon fill="white" stroke="transparent" points="-4,4 -4,-220.6 251.31,-220.6 251.31,4 -4,4"/>
<!-- 21 -->
<g id="node1" class="node">
<title>21</title>
<polygon fill="#f2f2f2" stroke="black" points="6.22,-174.5 6.22,-216.1 241.08,-216.1 241.08,-174.5 6.22,-174.5"/>
<text text-anchor="middle" x="123.65" y="-199.5" font-family="Times,serif" font-size="14.00">Governable</text>
<text text-anchor="middle" x="123.65" y="-182.7" font-family="Times,serif" font-size="14.00">../contracts/governance/Governable.sol</text>
</g>
<!-- 27 -->
<g id="node2" class="node">
<title>27</title>
<polygon fill="#f2f2f2" stroke="black" points="0,-79.1 0,-137.5 247.31,-137.5 247.31,-79.1 0,-79.1"/>
<text text-anchor="middle" x="123.65" y="-120.9" font-family="Times,serif" font-size="14.00">&lt;&lt;Abstract&gt;&gt;</text>
<text text-anchor="middle" x="123.65" y="-104.1" font-family="Times,serif" font-size="14.00">AbstractHarvester</text>
<text text-anchor="middle" x="123.65" y="-87.3" font-family="Times,serif" font-size="14.00">../contracts/harvest/AbstractHarvester.sol</text>
</g>
<!-- 27&#45;&gt;21 -->
<g id="edge1" class="edge">
<title>27&#45;&gt;21</title>
<path fill="none" stroke="black" d="M123.65,-137.6C123.65,-139.77 123.65,-142 123.65,-144.25"/>
<polygon fill="none" stroke="black" points="113.15,-144.44 123.65,-174.44 134.15,-144.44 113.15,-144.44"/>
</g>
<!-- 34 -->
<g id="node3" class="node">
<title>34</title>
<polygon fill="#f2f2f2" stroke="black" points="23.71,-0.5 23.71,-42.1 223.59,-42.1 223.59,-0.5 23.71,-0.5"/>
<text text-anchor="middle" x="123.65" y="-25.5" font-family="Times,serif" font-size="14.00">Harvester</text>
<text text-anchor="middle" x="123.65" y="-8.7" font-family="Times,serif" font-size="14.00">../contracts/harvest/Harvester.sol</text>
</g>
<!-- 34&#45;&gt;27 -->
<g id="edge2" class="edge">
<title>34&#45;&gt;27</title>
<path fill="none" stroke="black" d="M123.65,-42.44C123.65,-44.49 123.65,-46.63 123.65,-48.83"/>
<polygon fill="none" stroke="black" points="113.15,-48.94 123.65,-78.94 134.15,-48.94 113.15,-48.94"/>
</g>
</g>
</svg>
