<?xml version="1.0" encoding="UTF-8" standalone="no"?>
<!DOCTYPE svg PUBLIC "-//W3C//DTD SVG 1.1//EN"
 "http://www.w3.org/Graphics/SVG/1.1/DTD/svg11.dtd">
<!-- Generated by graphviz version 5.0.0 (20220707.1540)
 -->
<!-- Title: StorageDiagram Pages: 1 -->
<svg width="756pt" height="183pt"
 viewBox="0.00 0.00 755.71 182.60" xmlns="http://www.w3.org/2000/svg" xmlns:xlink="http://www.w3.org/1999/xlink">
<g id="graph0" class="graph" transform="scale(1 1) rotate(0) translate(4 178.6)">
<title>StorageDiagram</title>
<polygon fill="white" stroke="transparent" points="-4,4 -4,-178.6 751.71,-178.6 751.71,4 -4,4"/>
<!-- 2 -->
<g id="node1" class="node">
<title>2</title>
<polygon fill="#f2f2f2" stroke="black" points="0,-0.9 0,-149.7 426.86,-149.7 426.86,-0.9 0,-0.9"/>
<text text-anchor="middle" x="213.43" y="-133.1" font-family="Courier New" font-size="14.00">InitializableERC20Detailed &lt;&lt;Contract&gt;&gt;</text>
<polyline fill="none" stroke="black" points="0,-124.9 426.86,-124.9 "/>
<text text-anchor="middle" x="24.8" y="-108.3" font-family="Courier New" font-size="14.00">slot</text>
<polyline fill="none" stroke="black" points="0,-100.1 49.61,-100.1 "/>
<text text-anchor="middle" x="24.8" y="-83.5" font-family="Courier New" font-size="14.00">0&#45;99</text>
<polyline fill="none" stroke="black" points="0,-75.3 49.61,-75.3 "/>
<text text-anchor="middle" x="24.8" y="-58.7" font-family="Courier New" font-size="14.00">100</text>
<polyline fill="none" stroke="black" points="0,-50.5 49.61,-50.5 "/>
<text text-anchor="middle" x="24.8" y="-33.9" font-family="Courier New" font-size="14.00">101</text>
<polyline fill="none" stroke="black" points="0,-25.7 49.61,-25.7 "/>
<text text-anchor="middle" x="24.8" y="-9.1" font-family="Courier New" font-size="14.00">102</text>
<polyline fill="none" stroke="black" points="49.61,-0.9 49.61,-124.9 "/>
<text text-anchor="middle" x="238.23" y="-108.3" font-family="Courier New" font-size="14.00">type: &lt;inherited contract&gt;.variable (bytes)</text>
<polyline fill="none" stroke="black" points="49.61,-100.1 426.86,-100.1 "/>
<text text-anchor="middle" x="237.93" y="-83.5" font-family="Courier New" font-size="14.00">uint256[100]: _____gap (3200)</text>
<polyline fill="none" stroke="black" points="49.61,-75.3 426.86,-75.3 "/>
<text text-anchor="middle" x="238.22" y="-58.7" font-family="Courier New" font-size="14.00">string: _name (32)</text>
<polyline fill="none" stroke="black" points="49.61,-50.5 426.86,-50.5 "/>
<text text-anchor="middle" x="238.12" y="-33.9" font-family="Courier New" font-size="14.00">string: _symbol (32)</text>
<polyline fill="none" stroke="black" points="49.61,-25.7 426.86,-25.7 "/>
<text text-anchor="middle" x="135.32" y="-9.1" font-family="Courier New" font-size="14.00">unallocated (31)</text>
<polyline fill="none" stroke="black" points="221.03,-0.9 221.03,-25.7 "/>
<text text-anchor="middle" x="323.54" y="-9.1" font-family="Courier New" font-size="14.00">uint8: _decimals (1)</text>
</g>
<!-- 1 -->
<g id="node2" class="node">
<title>1</title>
<polygon fill="#f2f2f2" stroke="black" points="462.86,-0.5 462.86,-174.1 747.71,-174.1 747.71,-0.5 462.86,-0.5"/>
<text text-anchor="middle" x="605.29" y="-157.5" font-family="Courier New" font-size="14.00">uint256[100]: _____gap &lt;&lt;Array&gt;&gt;</text>
<polyline fill="none" stroke="black" points="462.86,-149.3 747.71,-149.3 "/>
<text text-anchor="middle" x="496.17" y="-132.7" font-family="Courier New" font-size="14.00">slot</text>
<polyline fill="none" stroke="black" points="462.86,-124.5 529.47,-124.5 "/>
<text text-anchor="middle" x="496.17" y="-107.9" font-family="Courier New" font-size="14.00">0</text>
<polyline fill="none" stroke="black" points="462.86,-99.7 529.47,-99.7 "/>
<text text-anchor="middle" x="496.17" y="-83.1" font-family="Courier New" font-size="14.00">1</text>
<polyline fill="none" stroke="black" points="462.86,-74.9 529.47,-74.9 "/>
<text text-anchor="middle" x="496.17" y="-58.3" font-family="Courier New" font-size="14.00">2&#45;97</text>
<polyline fill="none" stroke="black" points="462.86,-50.1 529.47,-50.1 "/>
<text text-anchor="middle" x="496.17" y="-33.5" font-family="Courier New" font-size="14.00">98</text>
<polyline fill="none" stroke="black" points="462.86,-25.3 529.47,-25.3 "/>
<text text-anchor="middle" x="496.17" y="-8.7" font-family="Courier New" font-size="14.00">99</text>
<polyline fill="none" stroke="black" points="529.47,-0.5 529.47,-149.3 "/>
<text text-anchor="middle" x="638.38" y="-132.7" font-family="Courier New" font-size="14.00">type: variable (bytes)</text>
<polyline fill="none" stroke="black" points="529.47,-124.5 747.3,-124.5 "/>
<text text-anchor="middle" x="638.38" y="-107.9" font-family="Courier New" font-size="14.00">uint256 (32)</text>
<polyline fill="none" stroke="black" points="529.47,-99.7 747.3,-99.7 "/>
<text text-anchor="middle" x="638.38" y="-83.1" font-family="Courier New" font-size="14.00">uint256 (32)</text>
<polyline fill="none" stroke="black" points="529.47,-74.9 747.3,-74.9 "/>
<text text-anchor="middle" x="638.18" y="-58.3" font-family="Courier New" font-size="14.00">&#45;&#45;&#45;&#45; (3072)</text>
<polyline fill="none" stroke="black" points="529.47,-50.1 747.3,-50.1 "/>
<text text-anchor="middle" x="638.38" y="-33.5" font-family="Courier New" font-size="14.00">uint256 (32)</text>
<polyline fill="none" stroke="black" points="529.47,-25.3 747.3,-25.3 "/>
<text text-anchor="middle" x="638.38" y="-8.7" font-family="Courier New" font-size="14.00">uint256 (32)</text>
</g>
<!-- 2&#45;&gt;1 -->
<g id="edge1" class="edge">
<title>2:6&#45;&gt;1</title>
<path fill="none" stroke="black" d="M426.86,-87.3C435.17,-87.3 443.69,-87.3 452.29,-87.3"/>
<polygon fill="black" stroke="black" points="452.41,-90.8 462.41,-87.3 452.41,-83.8 452.41,-90.8"/>
</g>
</g>
</svg>
