<?xml version="1.0" encoding="UTF-8" standalone="no"?>
<!DOCTYPE svg PUBLIC "-//W3C//DTD SVG 1.1//EN"
 "http://www.w3.org/Graphics/SVG/1.1/DTD/svg11.dtd">
<!-- Generated by graphviz version 5.0.0 (20220707.1540)
 -->
<!-- Title: UmlClassDiagram Pages: 1 -->
<svg width="792pt" height="511pt"
 viewBox="0.00 0.00 791.83 510.80" xmlns="http://www.w3.org/2000/svg" xmlns:xlink="http://www.w3.org/1999/xlink">
<g id="graph0" class="graph" transform="scale(1 1) rotate(0) translate(4 506.8)">
<title>UmlClassDiagram</title>
<polygon fill="white" stroke="transparent" points="-4,4 -4,-506.8 787.83,-506.8 787.83,4 -4,4"/>
<!-- 7 -->
<g id="node1" class="node">
<title>7</title>
<polygon fill="#f2f2f2" stroke="black" points="0,-356.9 0,-398.5 234.86,-398.5 234.86,-356.9 0,-356.9"/>
<text text-anchor="middle" x="117.43" y="-381.9" font-family="Times,serif" font-size="14.00">Governable</text>
<text text-anchor="middle" x="117.43" y="-365.1" font-family="Times,serif" font-size="14.00">../contracts/governance/Governable.sol</text>
</g>
<!-- 40 -->
<g id="node2" class="node">
<title>40</title>
<polygon fill="#f2f2f2" stroke="black" points="198.82,-95.9 198.82,-154.3 394.04,-154.3 394.04,-95.9 198.82,-95.9"/>
<text text-anchor="middle" x="296.43" y="-137.7" font-family="Times,serif" font-size="14.00">&lt;&lt;Interface&gt;&gt;</text>
<text text-anchor="middle" x="296.43" y="-120.9" font-family="Times,serif" font-size="14.00">IVault</text>
<text text-anchor="middle" x="296.43" y="-104.1" font-family="Times,serif" font-size="14.00">../contracts/interfaces/IVault.sol</text>
</g>
<!-- 178 -->
<g id="node7" class="node">
<title>178</title>
<polygon fill="#f2f2f2" stroke="black" points="192.98,-191.3 192.98,-232.9 399.88,-232.9 399.88,-191.3 192.98,-191.3"/>
<text text-anchor="middle" x="296.43" y="-216.3" font-family="Times,serif" font-size="14.00">VaultStorage</text>
<text text-anchor="middle" x="296.43" y="-199.5" font-family="Times,serif" font-size="14.00">../contracts/vault/VaultStorage.sol</text>
</g>
<!-- 40&#45;&gt;178 -->
<g id="edge1" class="edge">
<title>40&#45;&gt;178</title>
<path fill="none" stroke="black" stroke-dasharray="5,2" d="M296.43,-154.4C296.43,-162.99 296.43,-172.44 296.43,-181.13"/>
<polygon fill="black" stroke="black" points="292.93,-181.24 296.43,-191.24 299.93,-181.24 292.93,-181.24"/>
</g>
<!-- 158 -->
<g id="node3" class="node">
<title>158</title>
<polygon fill="#f2f2f2" stroke="black" points="308.3,-269.9 308.3,-311.5 482.56,-311.5 482.56,-269.9 308.3,-269.9"/>
<text text-anchor="middle" x="395.43" y="-294.9" font-family="Times,serif" font-size="14.00">OUSD</text>
<text text-anchor="middle" x="395.43" y="-278.1" font-family="Times,serif" font-size="14.00">../contracts/token/OUSD.sol</text>
</g>
<!-- 158&#45;&gt;7 -->
<g id="edge4" class="edge">
<title>158&#45;&gt;7</title>
<path fill="none" stroke="black" d="M330.6,-311.52C295.06,-322.39 250.37,-336.05 211.09,-348.06"/>
<polygon fill="none" stroke="black" points="207.98,-338.03 182.36,-356.85 214.12,-358.12 207.98,-338.03"/>
</g>
<!-- 165 -->
<g id="node4" class="node">
<title>165</title>
<polygon fill="#f2f2f2" stroke="black" points="555.42,-348.5 555.42,-406.9 751.44,-406.9 751.44,-348.5 555.42,-348.5"/>
<text text-anchor="middle" x="653.43" y="-390.3" font-family="Times,serif" font-size="14.00">&lt;&lt;Abstract&gt;&gt;</text>
<text text-anchor="middle" x="653.43" y="-373.5" font-family="Times,serif" font-size="14.00">Initializable</text>
<text text-anchor="middle" x="653.43" y="-356.7" font-family="Times,serif" font-size="14.00">../contracts/utils/Initializable.sol</text>
</g>
<!-- 158&#45;&gt;165 -->
<g id="edge2" class="edge">
<title>158&#45;&gt;165</title>
<path fill="none" stroke="black" d="M455.59,-311.52C480.48,-319.72 510.2,-329.51 538.94,-338.98"/>
<polygon fill="none" stroke="black" points="535.94,-349.05 567.72,-348.46 542.51,-329.1 535.94,-349.05"/>
</g>
<!-- 168 -->
<g id="node6" class="node">
<title>168</title>
<polygon fill="#f2f2f2" stroke="black" points="253.1,-348.5 253.1,-406.9 537.76,-406.9 537.76,-348.5 253.1,-348.5"/>
<text text-anchor="middle" x="395.43" y="-390.3" font-family="Times,serif" font-size="14.00">&lt;&lt;Abstract&gt;&gt;</text>
<text text-anchor="middle" x="395.43" y="-373.5" font-family="Times,serif" font-size="14.00">InitializableERC20Detailed</text>
<text text-anchor="middle" x="395.43" y="-356.7" font-family="Times,serif" font-size="14.00">../contracts/utils/InitializableERC20Detailed.sol</text>
</g>
<!-- 158&#45;&gt;168 -->
<g id="edge3" class="edge">
<title>158&#45;&gt;168</title>
<path fill="none" stroke="black" d="M395.43,-311.84C395.43,-313.89 395.43,-316.03 395.43,-318.23"/>
<polygon fill="none" stroke="black" points="384.93,-318.34 395.43,-348.34 405.93,-318.34 384.93,-318.34"/>
</g>
<!-- 166 -->
<g id="node5" class="node">
<title>166</title>
<polygon fill="#f2f2f2" stroke="black" points="151.38,-0.5 151.38,-58.9 441.48,-58.9 441.48,-0.5 151.38,-0.5"/>
<text text-anchor="middle" x="296.43" y="-42.3" font-family="Times,serif" font-size="14.00">&lt;&lt;Abstract&gt;&gt;</text>
<text text-anchor="middle" x="296.43" y="-25.5" font-family="Times,serif" font-size="14.00">InitializableAbstractStrategy</text>
<text text-anchor="middle" x="296.43" y="-8.7" font-family="Times,serif" font-size="14.00">../contracts/utils/InitializableAbstractStrategy.sol</text>
</g>
<!-- 166&#45;&gt;7 -->
<g id="edge6" class="edge">
<title>166&#45;&gt;7</title>
<path fill="none" stroke="black" d="M231.71,-58.91C215.92,-68.48 200.43,-80.59 189.43,-95.4 138.18,-164.42 123.26,-266.31 119.01,-326.65"/>
<polygon fill="none" stroke="black" points="108.51,-326.34 117.55,-356.82 129.49,-327.36 108.51,-326.34"/>
</g>
<!-- 166&#45;&gt;40 -->
<g id="edge9" class="edge">
<title>166&#45;&gt;40</title>
<path fill="none" stroke="black" stroke-dasharray="5,2" d="M296.43,-58.98C296.43,-67.31 296.43,-76.58 296.43,-85.45"/>
<polygon fill="black" stroke="black" points="292.93,-85.6 296.43,-95.6 299.93,-85.6 292.93,-85.6"/>
</g>
<!-- 166&#45;&gt;165 -->
<g id="edge5" class="edge">
<title>166&#45;&gt;165</title>
<path fill="none" stroke="black" d="M350.25,-58.98C367.96,-69.38 387.24,-81.93 403.43,-95.4 487.46,-165.32 568.43,-264 614.46,-323.98"/>
<polygon fill="none" stroke="black" points="606.3,-330.6 632.76,-348.21 623.06,-317.95 606.3,-330.6"/>
</g>
<!-- 166&#45;&gt;166 -->
<g id="edge7" class="edge">
<title>166&#45;&gt;166</title>
<path fill="none" stroke="black" stroke-dasharray="5,2" d="M441.64,-16.48C452.68,-19.42 459.48,-23.82 459.48,-29.7 459.48,-33.56 456.55,-36.78 451.42,-39.37"/>
<polygon fill="black" stroke="black" points="449.85,-36.22 441.64,-42.92 452.24,-42.8 449.85,-36.22"/>
</g>
<!-- 340 -->
<g id="node8" class="node">
<title>340</title>
<polygon fill="#f2f2f2" stroke="black" points="193.37,-443.9 193.37,-502.3 597.48,-502.3 597.48,-443.9 193.37,-443.9"/>
<text text-anchor="middle" x="395.43" y="-485.7" font-family="Times,serif" font-size="14.00">&lt;&lt;Interface&gt;&gt;</text>
<text text-anchor="middle" x="395.43" y="-468.9" font-family="Times,serif" font-size="14.00">IERC20</text>
<text text-anchor="middle" x="395.43" y="-452.1" font-family="Times,serif" font-size="14.00">../node_modules/@openzeppelin/contracts/token/ERC20/IERC20.sol</text>
</g>
<!-- 166&#45;&gt;340 -->
<g id="edge8" class="edge">
<title>166&#45;&gt;340</title>
<path fill="none" stroke="black" stroke-dasharray="5,2" d="M441.67,-56.01C583.92,-85.04 779.43,-138.2 779.43,-211.1 779.43,-211.1 779.43,-211.1 779.43,-291.7 779.43,-343.81 797.04,-370.32 760.43,-407.4 737.37,-430.75 674.76,-445.77 607.77,-455.38"/>
<polygon fill="black" stroke="black" points="607.28,-451.91 597.85,-456.76 608.24,-458.85 607.28,-451.91"/>
</g>
<!-- 168&#45;&gt;340 -->
<g id="edge10" class="edge">
<title>168&#45;&gt;340</title>
<path fill="none" stroke="black" stroke-dasharray="5,2" d="M395.43,-406.98C395.43,-409.06 395.43,-411.2 395.43,-413.38"/>
<polygon fill="none" stroke="black" points="384.93,-413.6 395.43,-443.6 405.93,-413.6 384.93,-413.6"/>
</g>
<!-- 178&#45;&gt;7 -->
<g id="edge12" class="edge">
<title>178&#45;&gt;7</title>
<path fill="none" stroke="black" d="M274.48,-233.16C246.49,-258.74 197.43,-303.58 161.57,-336.36"/>
<polygon fill="none" stroke="black" points="154.34,-328.74 139.28,-356.73 168.51,-344.24 154.34,-328.74"/>
</g>
<!-- 178&#45;&gt;158 -->
<g id="edge13" class="edge">
<title>178&#45;&gt;158</title>
<path fill="none" stroke="black" d="M322.18,-233.03C334.21,-242.33 348.7,-253.54 361.6,-263.52"/>
<polygon fill="black" stroke="black" points="359.76,-266.52 369.81,-269.87 364.04,-260.99 359.76,-266.52"/>
</g>
<!-- 178&#45;&gt;165 -->
<g id="edge11" class="edge">
<title>178&#45;&gt;165</title>
<path fill="none" stroke="black" d="M386.34,-232.94C420.12,-241.96 458.33,-254.1 491.43,-269.4 527.13,-285.9 563.91,-309.63 593.39,-330.58"/>
<polygon fill="none" stroke="black" points="587.27,-339.11 617.68,-348.38 599.69,-322.18 587.27,-339.11"/>
</g>
</g>
</svg>
