<?xml version="1.0" encoding="UTF-8" standalone="no"?>
<!DOCTYPE svg PUBLIC "-//W3C//DTD SVG 1.1//EN"
 "http://www.w3.org/Graphics/SVG/1.1/DTD/svg11.dtd">
<!-- Generated by graphviz version 5.0.0 (20220707.1540)
 -->
<!-- Title: StorageDiagram Pages: 1 -->
<svg width="1493pt" height="406pt"
 viewBox="0.00 0.00 1493.42 405.80" xmlns="http://www.w3.org/2000/svg" xmlns:xlink="http://www.w3.org/1999/xlink">
<g id="graph0" class="graph" transform="scale(1 1) rotate(0) translate(4 401.8)">
<title>StorageDiagram</title>
<polygon fill="white" stroke="transparent" points="-4,4 -4,-401.8 1489.42,-401.8 1489.42,4 -4,4"/>
<!-- 3 -->
<g id="node1" class="node">
<title>3</title>
<polygon fill="#f2f2f2" stroke="black" points="0,-0.5 0,-397.3 878.93,-397.3 878.93,-0.5 0,-0.5"/>
<text text-anchor="middle" x="439.47" y="-380.7" font-family="Courier New" font-size="14.00">InitializableAbstractStrategy &lt;&lt;Contract&gt;&gt;</text>
<polyline fill="none" stroke="black" points="0,-372.5 878.93,-372.5 "/>
<text text-anchor="middle" x="50.01" y="-355.9" font-family="Courier New" font-size="14.00">slot</text>
<polyline fill="none" stroke="black" points="0,-347.7 100.01,-347.7 "/>
<text text-anchor="middle" x="50.01" y="-331.1" font-family="Courier New" font-size="14.00">0</text>
<polyline fill="none" stroke="black" points="0,-322.9 100.01,-322.9 "/>
<text text-anchor="middle" x="50.01" y="-306.3" font-family="Courier New" font-size="14.00">1&#45;50</text>
<polyline fill="none" stroke="black" points="0,-298.1 100.01,-298.1 "/>
<text text-anchor="middle" x="50.01" y="-281.5" font-family="Courier New" font-size="14.00">51</text>
<polyline fill="none" stroke="black" points="0,-273.3 100.01,-273.3 "/>
<text text-anchor="middle" x="50.01" y="-256.7" font-family="Courier New" font-size="14.00">52</text>
<polyline fill="none" stroke="black" points="0,-248.5 100.01,-248.5 "/>
<text text-anchor="middle" x="50.01" y="-231.9" font-family="Courier New" font-size="14.00">53</text>
<polyline fill="none" stroke="black" points="0,-223.7 100.01,-223.7 "/>
<text text-anchor="middle" x="50.01" y="-207.1" font-family="Courier New" font-size="14.00">54</text>
<polyline fill="none" stroke="black" points="0,-198.9 100.01,-198.9 "/>
<text text-anchor="middle" x="50.01" y="-182.3" font-family="Courier New" font-size="14.00">55</text>
<polyline fill="none" stroke="black" points="0,-174.1 100.01,-174.1 "/>
<text text-anchor="middle" x="50.01" y="-157.5" font-family="Courier New" font-size="14.00">56</text>
<polyline fill="none" stroke="black" points="0,-149.3 100.01,-149.3 "/>
<text text-anchor="middle" x="50.01" y="-132.7" font-family="Courier New" font-size="14.00">57</text>
<polyline fill="none" stroke="black" points="0,-124.5 100.01,-124.5 "/>
<text text-anchor="middle" x="50.01" y="-107.9" font-family="Courier New" font-size="14.00">58</text>
<polyline fill="none" stroke="black" points="0,-99.7 100.01,-99.7 "/>
<text text-anchor="middle" x="50.01" y="-83.1" font-family="Courier New" font-size="14.00">59&#45;156</text>
<polyline fill="none" stroke="black" points="0,-74.9 100.01,-74.9 "/>
<text text-anchor="middle" x="50.01" y="-58.3" font-family="Courier New" font-size="14.00">0x44c..1db</text>
<polyline fill="none" stroke="black" points="0,-50.1 100.01,-50.1 "/>
<text text-anchor="middle" x="50.01" y="-33.5" font-family="Courier New" font-size="14.00">0x53b..535</text>
<polyline fill="none" stroke="black" points="0,-25.3 100.01,-25.3 "/>
<text text-anchor="middle" x="50.01" y="-8.7" font-family="Courier New" font-size="14.00">0x7be..a4a</text>
<polyline fill="none" stroke="black" points="100.01,-0.5 100.01,-372.5 "/>
<text text-anchor="middle" x="489.47" y="-355.9" font-family="Courier New" font-size="14.00">type: &lt;inherited contract&gt;.variable (bytes)</text>
<polyline fill="none" stroke="black" points="100.01,-347.7 878.93,-347.7 "/>
<text text-anchor="middle" x="175.22" y="-331.1" font-family="Courier New" font-size="14.00">unallocated (30)</text>
<polyline fill="none" stroke="black" points="250.44,-322.9 250.44,-347.7 "/>
<text text-anchor="middle" x="409.66" y="-331.1" font-family="Courier New" font-size="14.00">bool: Initializable.initializing (1)</text>
<polyline fill="none" stroke="black" points="568.88,-322.9 568.88,-347.7 "/>
<text text-anchor="middle" x="723.91" y="-331.1" font-family="Courier New" font-size="14.00">bool: Initializable.initialized (1)</text>
<polyline fill="none" stroke="black" points="100.01,-322.9 878.93,-322.9 "/>
<text text-anchor="middle" x="489.14" y="-306.3" font-family="Courier New" font-size="14.00">uint256[50]: Initializable.______gap (1600)</text>
<polyline fill="none" stroke="black" points="100.01,-298.1 878.93,-298.1 "/>
<text text-anchor="middle" x="242.22" y="-281.5" font-family="Courier New" font-size="14.00">unallocated (12)</text>
<polyline fill="none" stroke="black" points="384.44,-273.3 384.44,-298.1 "/>
<text text-anchor="middle" x="631.66" y="-281.5" font-family="Courier New" font-size="14.00">address: _deprecated_platformAddress (20)</text>
<polyline fill="none" stroke="black" points="100.01,-273.3 878.93,-273.3 "/>
<text text-anchor="middle" x="248.22" y="-256.7" font-family="Courier New" font-size="14.00">unallocated (12)</text>
<polyline fill="none" stroke="black" points="396.44,-248.5 396.44,-273.3 "/>
<text text-anchor="middle" x="637.56" y="-256.7" font-family="Courier New" font-size="14.00">address: _deprecated_vaultAddress (20)</text>
<polyline fill="none" stroke="black" points="100.01,-248.5 878.93,-248.5 "/>
<text text-anchor="middle" x="489.04" y="-231.9" font-family="Courier New" font-size="14.00">mapping(address=&gt;address): assetToPToken (32)</text>
<polyline fill="none" stroke="black" points="100.01,-223.7 878.93,-223.7 "/>
<text text-anchor="middle" x="489.13" y="-207.1" font-family="Courier New" font-size="14.00">address[]: assetsMapped (32)</text>
<polyline fill="none" stroke="black" points="100.01,-198.9 878.93,-198.9 "/>
<text text-anchor="middle" x="235.72" y="-182.3" font-family="Courier New" font-size="14.00">unallocated (12)</text>
<polyline fill="none" stroke="black" points="371.44,-174.1 371.44,-198.9 "/>
<text text-anchor="middle" x="624.77" y="-182.3" font-family="Courier New" font-size="14.00">address: _deprecated_rewardTokenAddress (20)</text>
<polyline fill="none" stroke="black" points="100.01,-174.1 878.93,-174.1 "/>
<text text-anchor="middle" x="489.45" y="-157.5" font-family="Courier New" font-size="14.00">uint256: _deprecated_rewardLiquidationThreshold (32)</text>
<polyline fill="none" stroke="black" points="100.01,-149.3 878.93,-149.3 "/>
<text text-anchor="middle" x="265.22" y="-132.7" font-family="Courier New" font-size="14.00">unallocated (12)</text>
<polyline fill="none" stroke="black" points="430.44,-124.5 430.44,-149.3 "/>
<text text-anchor="middle" x="654.46" y="-132.7" font-family="Courier New" font-size="14.00">address: harvesterAddress (20)</text>
<polyline fill="none" stroke="black" points="100.01,-124.5 878.93,-124.5 "/>
<text text-anchor="middle" x="489.24" y="-107.9" font-family="Courier New" font-size="14.00">address[]: rewardTokenAddresses (32)</text>
<polyline fill="none" stroke="black" points="100.01,-99.7 878.93,-99.7 "/>
<text text-anchor="middle" x="489.13" y="-83.1" font-family="Courier New" font-size="14.00">int256[98]: _reserved (3136)</text>
<polyline fill="none" stroke="black" points="100.01,-74.9 878.93,-74.9 "/>
<text text-anchor="middle" x="254.72" y="-58.3" font-family="Courier New" font-size="14.00">unallocated (12)</text>
<polyline fill="none" stroke="black" points="409.44,-50.1 409.44,-74.9 "/>
<text text-anchor="middle" x="643.96" y="-58.3" font-family="Courier New" font-size="14.00">address: OUSD.pending.governor (20)</text>
<polyline fill="none" stroke="black" points="100.01,-50.1 878.93,-50.1 "/>
<text text-anchor="middle" x="267.22" y="-33.5" font-family="Courier New" font-size="14.00">unallocated (31)</text>
<polyline fill="none" stroke="black" points="434.44,-25.3 434.44,-50.1 "/>
<text text-anchor="middle" x="656.26" y="-33.5" font-family="Courier New" font-size="14.00">bool: OUSD.reentry.status (1)</text>
<polyline fill="none" stroke="black" points="100.01,-25.3 878.93,-25.3 "/>
<text text-anchor="middle" x="271.22" y="-8.7" font-family="Courier New" font-size="14.00">unallocated (12)</text>
<polyline fill="none" stroke="black" points="442.44,-0.5 442.44,-25.3 "/>
<text text-anchor="middle" x="660.35" y="-8.7" font-family="Courier New" font-size="14.00">address: OUSD.governor (20)</text>
</g>
<!-- 1 -->
<g id="node2" class="node">
<title>1</title>
<polygon fill="#f2f2f2" stroke="black" points="914.93,-171.3 914.93,-262.5 1485.42,-262.5 1485.42,-171.3 914.93,-171.3"/>
<text text-anchor="middle" x="1200.18" y="-245.9" font-family="Courier New" font-size="14.00">address[]: assetsMapped &lt;&lt;Array&gt;&gt;</text>
<text text-anchor="middle" x="1200.18" y="-229.1" font-family="Courier New" font-size="14.00">0x4a11f94e20a93c79f6ec743a1954ec4fc2c08429ae2122118bf234b2185c81b8</text>
<polyline fill="none" stroke="black" points="914.93,-220.9 1485.42,-220.9 "/>
<text text-anchor="middle" x="1007.14" y="-204.3" font-family="Courier New" font-size="14.00">offset</text>
<polyline fill="none" stroke="black" points="914.93,-196.1 1099.34,-196.1 "/>
<text text-anchor="middle" x="1007.14" y="-179.5" font-family="Courier New" font-size="14.00">0</text>
<polyline fill="none" stroke="black" points="1099.34,-171.3 1099.34,-220.9 "/>
<text text-anchor="middle" x="1291.96" y="-204.3" font-family="Courier New" font-size="14.00">type: variable (bytes)</text>
<polyline fill="none" stroke="black" points="1099.34,-196.1 1484.58,-196.1 "/>
<text text-anchor="middle" x="1204.05" y="-179.5" font-family="Courier New" font-size="14.00">unallocated (12)</text>
<polyline fill="none" stroke="black" points="1308.76,-171.3 1308.76,-196.1 "/>
<text text-anchor="middle" x="1396.67" y="-179.5" font-family="Courier New" font-size="14.00">address (20)</text>
</g>
<!-- 3&#45;&gt;1 -->
<g id="edge1" class="edge">
<title>3:8&#45;&gt;1</title>
<path fill="none" stroke="black" d="M878.93,-210.9C887.33,-210.9 895.84,-210.92 904.44,-210.96"/>
<polygon fill="black" stroke="black" points="904.55,-214.46 914.57,-211.01 904.58,-207.46 904.55,-214.46"/>
</g>
<!-- 2 -->
<g id="node3" class="node">
<title>2</title>
<polygon fill="#f2f2f2" stroke="black" points="914.93,-61.3 914.93,-152.5 1485.42,-152.5 1485.42,-61.3 914.93,-61.3"/>
<text text-anchor="middle" x="1200.18" y="-135.9" font-family="Courier New" font-size="14.00">address[]: rewardTokenAddresses &lt;&lt;Array&gt;&gt;</text>
<text text-anchor="middle" x="1200.18" y="-119.1" font-family="Courier New" font-size="14.00">0xa2999d817b6757290b50e8ecf3fa939673403dd35c97de392fdb343b4015ce9e</text>
<polyline fill="none" stroke="black" points="914.93,-110.9 1485.42,-110.9 "/>
<text text-anchor="middle" x="1007.14" y="-94.3" font-family="Courier New" font-size="14.00">offset</text>
<polyline fill="none" stroke="black" points="914.93,-86.1 1099.34,-86.1 "/>
<text text-anchor="middle" x="1007.14" y="-69.5" font-family="Courier New" font-size="14.00">0</text>
<polyline fill="none" stroke="black" points="1099.34,-61.3 1099.34,-110.9 "/>
<text text-anchor="middle" x="1291.96" y="-94.3" font-family="Courier New" font-size="14.00">type: variable (bytes)</text>
<polyline fill="none" stroke="black" points="1099.34,-86.1 1484.58,-86.1 "/>
<text text-anchor="middle" x="1204.05" y="-69.5" font-family="Courier New" font-size="14.00">unallocated (12)</text>
<polyline fill="none" stroke="black" points="1308.76,-61.3 1308.76,-86.1 "/>
<text text-anchor="middle" x="1396.67" y="-69.5" font-family="Courier New" font-size="14.00">address (20)</text>
</g>
<!-- 3&#45;&gt;2 -->
<g id="edge2" class="edge">
<title>3:13&#45;&gt;2</title>
<path fill="none" stroke="black" d="M878.93,-111.9C887.33,-111.9 895.84,-111.88 904.44,-111.85"/>
<polygon fill="black" stroke="black" points="904.58,-115.35 914.56,-111.8 904.55,-108.35 904.58,-115.35"/>
</g>
</g>
</svg>
