<?xml version="1.0" encoding="UTF-8" standalone="no"?>
<!DOCTYPE svg PUBLIC "-//W3C//DTD SVG 1.1//EN"
 "http://www.w3.org/Graphics/SVG/1.1/DTD/svg11.dtd">
<!-- Generated by graphviz version 5.0.0 (20220707.1540)
 -->
<!-- Title: StorageDiagram Pages: 1 -->
<svg width="1460pt" height="595pt"
 viewBox="0.00 0.00 1459.82 594.60" xmlns="http://www.w3.org/2000/svg" xmlns:xlink="http://www.w3.org/1999/xlink">
<g id="graph0" class="graph" transform="scale(1 1) rotate(0) translate(4 590.6)">
<title>StorageDiagram</title>
<polygon fill="white" stroke="transparent" points="-4,4 -4,-590.6 1455.82,-590.6 1455.82,4 -4,4"/>
<!-- 5 -->
<g id="node1" class="node">
<title>5</title>
<polygon fill="#f2f2f2" stroke="black" points="0,-206.1 0,-528.5 845.33,-528.5 845.33,-206.1 0,-206.1"/>
<text text-anchor="middle" x="422.66" y="-511.9" font-family="Courier New" font-size="14.00">InitializableAbstractStrategy &lt;&lt;Contract&gt;&gt;</text>
<polyline fill="none" stroke="black" points="0,-503.7 845.33,-503.7 "/>
<text text-anchor="middle" x="33.2" y="-487.1" font-family="Courier New" font-size="14.00">slot</text>
<polyline fill="none" stroke="black" points="0,-478.9 66.41,-478.9 "/>
<text text-anchor="middle" x="33.2" y="-462.3" font-family="Courier New" font-size="14.00">0</text>
<polyline fill="none" stroke="black" points="0,-454.1 66.41,-454.1 "/>
<text text-anchor="middle" x="33.2" y="-437.5" font-family="Courier New" font-size="14.00">1&#45;50</text>
<polyline fill="none" stroke="black" points="0,-429.3 66.41,-429.3 "/>
<text text-anchor="middle" x="33.2" y="-412.7" font-family="Courier New" font-size="14.00">51</text>
<polyline fill="none" stroke="black" points="0,-404.5 66.41,-404.5 "/>
<text text-anchor="middle" x="33.2" y="-387.9" font-family="Courier New" font-size="14.00">52</text>
<polyline fill="none" stroke="black" points="0,-379.7 66.41,-379.7 "/>
<text text-anchor="middle" x="33.2" y="-363.1" font-family="Courier New" font-size="14.00">53</text>
<polyline fill="none" stroke="black" points="0,-354.9 66.41,-354.9 "/>
<text text-anchor="middle" x="33.2" y="-338.3" font-family="Courier New" font-size="14.00">54</text>
<polyline fill="none" stroke="black" points="0,-330.1 66.41,-330.1 "/>
<text text-anchor="middle" x="33.2" y="-313.5" font-family="Courier New" font-size="14.00">55</text>
<polyline fill="none" stroke="black" points="0,-305.3 66.41,-305.3 "/>
<text text-anchor="middle" x="33.2" y="-288.7" font-family="Courier New" font-size="14.00">56</text>
<polyline fill="none" stroke="black" points="0,-280.5 66.41,-280.5 "/>
<text text-anchor="middle" x="33.2" y="-263.9" font-family="Courier New" font-size="14.00">57</text>
<polyline fill="none" stroke="black" points="0,-255.7 66.41,-255.7 "/>
<text text-anchor="middle" x="33.2" y="-239.1" font-family="Courier New" font-size="14.00">58</text>
<polyline fill="none" stroke="black" points="0,-230.9 66.41,-230.9 "/>
<text text-anchor="middle" x="33.2" y="-214.3" font-family="Courier New" font-size="14.00">59&#45;156</text>
<polyline fill="none" stroke="black" points="66.41,-206.1 66.41,-503.7 "/>
<text text-anchor="middle" x="455.87" y="-487.1" font-family="Courier New" font-size="14.00">type: &lt;inherited contract&gt;.variable (bytes)</text>
<polyline fill="none" stroke="black" points="66.41,-478.9 845.33,-478.9 "/>
<text text-anchor="middle" x="141.62" y="-462.3" font-family="Courier New" font-size="14.00">unallocated (30)</text>
<polyline fill="none" stroke="black" points="216.83,-454.1 216.83,-478.9 "/>
<text text-anchor="middle" x="376.05" y="-462.3" font-family="Courier New" font-size="14.00">bool: Initializable.initializing (1)</text>
<polyline fill="none" stroke="black" points="535.28,-454.1 535.28,-478.9 "/>
<text text-anchor="middle" x="690.3" y="-462.3" font-family="Courier New" font-size="14.00">bool: Initializable.initialized (1)</text>
<polyline fill="none" stroke="black" points="66.41,-454.1 845.33,-454.1 "/>
<text text-anchor="middle" x="455.54" y="-437.5" font-family="Courier New" font-size="14.00">uint256[50]: Initializable.______gap (1600)</text>
<polyline fill="none" stroke="black" points="66.41,-429.3 845.33,-429.3 "/>
<text text-anchor="middle" x="208.62" y="-412.7" font-family="Courier New" font-size="14.00">unallocated (12)</text>
<polyline fill="none" stroke="black" points="350.83,-404.5 350.83,-429.3 "/>
<text text-anchor="middle" x="598.06" y="-412.7" font-family="Courier New" font-size="14.00">address: _deprecated_platformAddress (20)</text>
<polyline fill="none" stroke="black" points="66.41,-404.5 845.33,-404.5 "/>
<text text-anchor="middle" x="214.62" y="-387.9" font-family="Courier New" font-size="14.00">unallocated (12)</text>
<polyline fill="none" stroke="black" points="362.83,-379.7 362.83,-404.5 "/>
<text text-anchor="middle" x="603.96" y="-387.9" font-family="Courier New" font-size="14.00">address: _deprecated_vaultAddress (20)</text>
<polyline fill="none" stroke="black" points="66.41,-379.7 845.33,-379.7 "/>
<text text-anchor="middle" x="455.44" y="-363.1" font-family="Courier New" font-size="14.00">mapping(address=&gt;address): assetToPToken (32)</text>
<polyline fill="none" stroke="black" points="66.41,-354.9 845.33,-354.9 "/>
<text text-anchor="middle" x="455.53" y="-338.3" font-family="Courier New" font-size="14.00">address[]: assetsMapped (32)</text>
<polyline fill="none" stroke="black" points="66.41,-330.1 845.33,-330.1 "/>
<text text-anchor="middle" x="202.12" y="-313.5" font-family="Courier New" font-size="14.00">unallocated (12)</text>
<polyline fill="none" stroke="black" points="337.83,-305.3 337.83,-330.1 "/>
<text text-anchor="middle" x="591.16" y="-313.5" font-family="Courier New" font-size="14.00">address: _deprecated_rewardTokenAddress (20)</text>
<polyline fill="none" stroke="black" points="66.41,-305.3 845.33,-305.3 "/>
<text text-anchor="middle" x="455.84" y="-288.7" font-family="Courier New" font-size="14.00">uint256: _deprecated_rewardLiquidationThreshold (32)</text>
<polyline fill="none" stroke="black" points="66.41,-280.5 845.33,-280.5 "/>
<text text-anchor="middle" x="231.62" y="-263.9" font-family="Courier New" font-size="14.00">unallocated (12)</text>
<polyline fill="none" stroke="black" points="396.83,-255.7 396.83,-280.5 "/>
<text text-anchor="middle" x="620.85" y="-263.9" font-family="Courier New" font-size="14.00">address: harvesterAddress (20)</text>
<polyline fill="none" stroke="black" points="66.41,-255.7 845.33,-255.7 "/>
<text text-anchor="middle" x="455.63" y="-239.1" font-family="Courier New" font-size="14.00">address[]: rewardTokenAddresses (32)</text>
<polyline fill="none" stroke="black" points="66.41,-230.9 845.33,-230.9 "/>
<text text-anchor="middle" x="455.53" y="-214.3" font-family="Courier New" font-size="14.00">int256[98]: _reserved (3136)</text>
</g>
<!-- 1 -->
<g id="node2" class="node">
<title>1</title>
<polygon fill="#f2f2f2" stroke="black" points="1024.15,-412.5 1024.15,-586.1 1308.99,-586.1 1308.99,-412.5 1024.15,-412.5"/>
<text text-anchor="middle" x="1166.57" y="-569.5" font-family="Courier New" font-size="14.00">uint256[50]: ______gap &lt;&lt;Array&gt;&gt;</text>
<polyline fill="none" stroke="black" points="1024.15,-561.3 1308.99,-561.3 "/>
<text text-anchor="middle" x="1057.45" y="-544.7" font-family="Courier New" font-size="14.00">slot</text>
<polyline fill="none" stroke="black" points="1024.15,-536.5 1090.76,-536.5 "/>
<text text-anchor="middle" x="1057.45" y="-519.9" font-family="Courier New" font-size="14.00">1</text>
<polyline fill="none" stroke="black" points="1024.15,-511.7 1090.76,-511.7 "/>
<text text-anchor="middle" x="1057.45" y="-495.1" font-family="Courier New" font-size="14.00">2</text>
<polyline fill="none" stroke="black" points="1024.15,-486.9 1090.76,-486.9 "/>
<text text-anchor="middle" x="1057.45" y="-470.3" font-family="Courier New" font-size="14.00">3&#45;48</text>
<polyline fill="none" stroke="black" points="1024.15,-462.1 1090.76,-462.1 "/>
<text text-anchor="middle" x="1057.45" y="-445.5" font-family="Courier New" font-size="14.00">49</text>
<polyline fill="none" stroke="black" points="1024.15,-437.3 1090.76,-437.3 "/>
<text text-anchor="middle" x="1057.45" y="-420.7" font-family="Courier New" font-size="14.00">50</text>
<polyline fill="none" stroke="black" points="1090.76,-412.5 1090.76,-561.3 "/>
<text text-anchor="middle" x="1199.67" y="-544.7" font-family="Courier New" font-size="14.00">type: variable (bytes)</text>
<polyline fill="none" stroke="black" points="1090.76,-536.5 1308.59,-536.5 "/>
<text text-anchor="middle" x="1199.66" y="-519.9" font-family="Courier New" font-size="14.00">uint256 (32)</text>
<polyline fill="none" stroke="black" points="1090.76,-511.7 1308.59,-511.7 "/>
<text text-anchor="middle" x="1199.66" y="-495.1" font-family="Courier New" font-size="14.00">uint256 (32)</text>
<polyline fill="none" stroke="black" points="1090.76,-486.9 1308.59,-486.9 "/>
<text text-anchor="middle" x="1199.46" y="-470.3" font-family="Courier New" font-size="14.00">&#45;&#45;&#45;&#45; (1472)</text>
<polyline fill="none" stroke="black" points="1090.76,-462.1 1308.59,-462.1 "/>
<text text-anchor="middle" x="1199.66" y="-445.5" font-family="Courier New" font-size="14.00">uint256 (32)</text>
<polyline fill="none" stroke="black" points="1090.76,-437.3 1308.59,-437.3 "/>
<text text-anchor="middle" x="1199.66" y="-420.7" font-family="Courier New" font-size="14.00">uint256 (32)</text>
</g>
<!-- 5&#45;&gt;1 -->
<g id="edge1" class="edge">
<title>5:8&#45;&gt;1</title>
<path fill="none" stroke="black" d="M845.33,-441.3C900.91,-441.3 961.07,-449.87 1014.07,-460.41"/>
<polygon fill="black" stroke="black" points="1013.39,-463.84 1023.89,-462.4 1014.78,-456.98 1013.39,-463.84"/>
</g>
<!-- 2 -->
<g id="node3" class="node">
<title>2</title>
<polygon fill="#f2f2f2" stroke="black" points="881.33,-302.7 881.33,-393.9 1451.82,-393.9 1451.82,-302.7 881.33,-302.7"/>
<text text-anchor="middle" x="1166.57" y="-377.3" font-family="Courier New" font-size="14.00">address[]: assetsMapped &lt;&lt;Array&gt;&gt;</text>
<text text-anchor="middle" x="1166.57" y="-360.5" font-family="Courier New" font-size="14.00">0x4a11f94e20a93c79f6ec743a1954ec4fc2c08429ae2122118bf234b2185c81b8</text>
<polyline fill="none" stroke="black" points="881.33,-352.3 1451.82,-352.3 "/>
<text text-anchor="middle" x="973.53" y="-335.7" font-family="Courier New" font-size="14.00">offset</text>
<polyline fill="none" stroke="black" points="881.33,-327.5 1065.74,-327.5 "/>
<text text-anchor="middle" x="973.53" y="-310.9" font-family="Courier New" font-size="14.00">0</text>
<polyline fill="none" stroke="black" points="1065.74,-302.7 1065.74,-352.3 "/>
<text text-anchor="middle" x="1258.35" y="-335.7" font-family="Courier New" font-size="14.00">type: variable (bytes)</text>
<polyline fill="none" stroke="black" points="1065.74,-327.5 1450.97,-327.5 "/>
<text text-anchor="middle" x="1170.45" y="-310.9" font-family="Courier New" font-size="14.00">unallocated (12)</text>
<polyline fill="none" stroke="black" points="1275.16,-302.7 1275.16,-327.5 "/>
<text text-anchor="middle" x="1363.07" y="-310.9" font-family="Courier New" font-size="14.00">address (20)</text>
</g>
<!-- 5&#45;&gt;2 -->
<g id="edge2" class="edge">
<title>5:13&#45;&gt;2</title>
<path fill="none" stroke="black" d="M845.33,-342.3C853.72,-342.3 862.24,-342.32 870.83,-342.36"/>
<polygon fill="black" stroke="black" points="870.94,-345.86 880.96,-342.41 870.98,-338.86 870.94,-345.86"/>
</g>
<!-- 3 -->
<g id="node4" class="node">
<title>3</title>
<polygon fill="#f2f2f2" stroke="black" points="881.33,-192.7 881.33,-283.9 1451.82,-283.9 1451.82,-192.7 881.33,-192.7"/>
<text text-anchor="middle" x="1166.57" y="-267.3" font-family="Courier New" font-size="14.00">address[]: rewardTokenAddresses &lt;&lt;Array&gt;&gt;</text>
<text text-anchor="middle" x="1166.57" y="-250.5" font-family="Courier New" font-size="14.00">0xa2999d817b6757290b50e8ecf3fa939673403dd35c97de392fdb343b4015ce9e</text>
<polyline fill="none" stroke="black" points="881.33,-242.3 1451.82,-242.3 "/>
<text text-anchor="middle" x="973.53" y="-225.7" font-family="Courier New" font-size="14.00">offset</text>
<polyline fill="none" stroke="black" points="881.33,-217.5 1065.74,-217.5 "/>
<text text-anchor="middle" x="973.53" y="-200.9" font-family="Courier New" font-size="14.00">0</text>
<polyline fill="none" stroke="black" points="1065.74,-192.7 1065.74,-242.3 "/>
<text text-anchor="middle" x="1258.35" y="-225.7" font-family="Courier New" font-size="14.00">type: variable (bytes)</text>
<polyline fill="none" stroke="black" points="1065.74,-217.5 1450.97,-217.5 "/>
<text text-anchor="middle" x="1170.45" y="-200.9" font-family="Courier New" font-size="14.00">unallocated (12)</text>
<polyline fill="none" stroke="black" points="1275.16,-192.7 1275.16,-217.5 "/>
<text text-anchor="middle" x="1363.07" y="-200.9" font-family="Courier New" font-size="14.00">address (20)</text>
</g>
<!-- 5&#45;&gt;3 -->
<g id="edge3" class="edge">
<title>5:18&#45;&gt;3</title>
<path fill="none" stroke="black" d="M845.33,-243.3C853.72,-243.3 862.24,-243.28 870.83,-243.25"/>
<polygon fill="black" stroke="black" points="870.97,-246.75 880.96,-243.2 870.94,-239.75 870.97,-246.75"/>
</g>
<!-- 4 -->
<g id="node5" class="node">
<title>4</title>
<polygon fill="#f2f2f2" stroke="black" points="1028.35,-0.5 1028.35,-174.1 1304.79,-174.1 1304.79,-0.5 1028.35,-0.5"/>
<text text-anchor="middle" x="1166.57" y="-157.5" font-family="Courier New" font-size="14.00">int256[98]: _reserved &lt;&lt;Array&gt;&gt;</text>
<polyline fill="none" stroke="black" points="1028.35,-149.3 1304.79,-149.3 "/>
<text text-anchor="middle" x="1063.56" y="-132.7" font-family="Courier New" font-size="14.00">slot</text>
<polyline fill="none" stroke="black" points="1028.35,-124.5 1098.76,-124.5 "/>
<text text-anchor="middle" x="1063.56" y="-107.9" font-family="Courier New" font-size="14.00">59</text>
<polyline fill="none" stroke="black" points="1028.35,-99.7 1098.76,-99.7 "/>
<text text-anchor="middle" x="1063.56" y="-83.1" font-family="Courier New" font-size="14.00">60</text>
<polyline fill="none" stroke="black" points="1028.35,-74.9 1098.76,-74.9 "/>
<text text-anchor="middle" x="1063.56" y="-58.3" font-family="Courier New" font-size="14.00">61&#45;154</text>
<polyline fill="none" stroke="black" points="1028.35,-50.1 1098.76,-50.1 "/>
<text text-anchor="middle" x="1063.56" y="-33.5" font-family="Courier New" font-size="14.00">155</text>
<polyline fill="none" stroke="black" points="1028.35,-25.3 1098.76,-25.3 "/>
<text text-anchor="middle" x="1063.56" y="-8.7" font-family="Courier New" font-size="14.00">156</text>
<polyline fill="none" stroke="black" points="1098.76,-0.5 1098.76,-149.3 "/>
<text text-anchor="middle" x="1201.67" y="-132.7" font-family="Courier New" font-size="14.00">type: variable (bytes)</text>
<polyline fill="none" stroke="black" points="1098.76,-124.5 1304.59,-124.5 "/>
<text text-anchor="middle" x="1201.47" y="-107.9" font-family="Courier New" font-size="14.00">int256 (32)</text>
<polyline fill="none" stroke="black" points="1098.76,-99.7 1304.59,-99.7 "/>
<text text-anchor="middle" x="1201.47" y="-83.1" font-family="Courier New" font-size="14.00">int256 (32)</text>
<polyline fill="none" stroke="black" points="1098.76,-74.9 1304.59,-74.9 "/>
<text text-anchor="middle" x="1201.47" y="-58.3" font-family="Courier New" font-size="14.00">&#45;&#45;&#45;&#45; (3008)</text>
<polyline fill="none" stroke="black" points="1098.76,-50.1 1304.59,-50.1 "/>
<text text-anchor="middle" x="1201.47" y="-33.5" font-family="Courier New" font-size="14.00">int256 (32)</text>
<polyline fill="none" stroke="black" points="1098.76,-25.3 1304.59,-25.3 "/>
<text text-anchor="middle" x="1201.47" y="-8.7" font-family="Courier New" font-size="14.00">int256 (32)</text>
</g>
<!-- 5&#45;&gt;4 -->
<g id="edge4" class="edge">
<title>5:24&#45;&gt;4</title>
<path fill="none" stroke="black" d="M845.33,-218.3C867.64,-218.3 862.29,-194.94 881.33,-183.3 923.13,-157.75 972.59,-138.02 1018.43,-123.28"/>
<polygon fill="black" stroke="black" points="1019.67,-126.56 1028.16,-120.21 1017.57,-119.88 1019.67,-126.56"/>
</g>
</g>
</svg>
