<?xml version="1.0" encoding="UTF-8" standalone="no"?>
<!DOCTYPE svg PUBLIC "-//W3C//DTD SVG 1.1//EN"
 "http://www.w3.org/Graphics/SVG/1.1/DTD/svg11.dtd">
<!-- Generated by graphviz version 5.0.0 (20220707.1540)
 -->
<!-- Title: UmlClassDiagram Pages: 1 -->
<svg width="792pt" height="511pt"
 viewBox="0.00 0.00 791.83 510.80" xmlns="http://www.w3.org/2000/svg" xmlns:xlink="http://www.w3.org/1999/xlink">
<g id="graph0" class="graph" transform="scale(1 1) rotate(0) translate(4 506.8)">
<title>UmlClassDiagram</title>
<polygon fill="white" stroke="transparent" points="-4,4 -4,-506.8 787.83,-506.8 787.83,4 -4,4"/>
<!-- 20 -->
<g id="node1" class="node">
<title>20</title>
<polygon fill="#f2f2f2" stroke="black" points="0,-356.9 0,-398.5 234.86,-398.5 234.86,-356.9 0,-356.9"/>
<text text-anchor="middle" x="117.43" y="-381.9" font-family="Times,serif" font-size="14.00">Governable</text>
<text text-anchor="middle" x="117.43" y="-365.1" font-family="Times,serif" font-size="14.00">../contracts/governance/Governable.sol</text>
</g>
<!-- 55 -->
<g id="node2" class="node">
<title>55</title>
<polygon fill="#f2f2f2" stroke="black" points="375.82,-95.9 375.82,-154.3 571.04,-154.3 571.04,-95.9 375.82,-95.9"/>
<text text-anchor="middle" x="473.43" y="-137.7" font-family="Times,serif" font-size="14.00">&lt;&lt;Interface&gt;&gt;</text>
<text text-anchor="middle" x="473.43" y="-120.9" font-family="Times,serif" font-size="14.00">IVault</text>
<text text-anchor="middle" x="473.43" y="-104.1" font-family="Times,serif" font-size="14.00">../contracts/interfaces/IVault.sol</text>
</g>
<!-- 207 -->
<g id="node7" class="node">
<title>207</title>
<polygon fill="#f2f2f2" stroke="black" points="317.98,-191.3 317.98,-232.9 524.88,-232.9 524.88,-191.3 317.98,-191.3"/>
<text text-anchor="middle" x="421.43" y="-216.3" font-family="Times,serif" font-size="14.00">VaultStorage</text>
<text text-anchor="middle" x="421.43" y="-199.5" font-family="Times,serif" font-size="14.00">../contracts/vault/VaultStorage.sol</text>
</g>
<!-- 55&#45;&gt;207 -->
<g id="edge1" class="edge">
<title>55&#45;&gt;207</title>
<path fill="none" stroke="black" stroke-dasharray="5,2" d="M456.11,-154.4C450.57,-163.46 444.44,-173.49 438.89,-182.56"/>
<polygon fill="black" stroke="black" points="435.81,-180.88 433.58,-191.24 441.78,-184.54 435.81,-180.88"/>
</g>
<!-- 186 -->
<g id="node3" class="node">
<title>186</title>
<polygon fill="#f2f2f2" stroke="black" points="308.3,-269.9 308.3,-311.5 482.56,-311.5 482.56,-269.9 308.3,-269.9"/>
<text text-anchor="middle" x="395.43" y="-294.9" font-family="Times,serif" font-size="14.00">OUSD</text>
<text text-anchor="middle" x="395.43" y="-278.1" font-family="Times,serif" font-size="14.00">../contracts/token/OUSD.sol</text>
</g>
<!-- 186&#45;&gt;20 -->
<g id="edge4" class="edge">
<title>186&#45;&gt;20</title>
<path fill="none" stroke="black" d="M330.6,-311.52C295.06,-322.39 250.37,-336.05 211.09,-348.06"/>
<polygon fill="none" stroke="black" points="207.98,-338.03 182.36,-356.85 214.12,-358.12 207.98,-338.03"/>
</g>
<!-- 194 -->
<g id="node4" class="node">
<title>194</title>
<polygon fill="#f2f2f2" stroke="black" points="555.42,-348.5 555.42,-406.9 751.44,-406.9 751.44,-348.5 555.42,-348.5"/>
<text text-anchor="middle" x="653.43" y="-390.3" font-family="Times,serif" font-size="14.00">&lt;&lt;Abstract&gt;&gt;</text>
<text text-anchor="middle" x="653.43" y="-373.5" font-family="Times,serif" font-size="14.00">Initializable</text>
<text text-anchor="middle" x="653.43" y="-356.7" font-family="Times,serif" font-size="14.00">../contracts/utils/Initializable.sol</text>
</g>
<!-- 186&#45;&gt;194 -->
<g id="edge2" class="edge">
<title>186&#45;&gt;194</title>
<path fill="none" stroke="black" d="M455.59,-311.52C480.48,-319.72 510.2,-329.51 538.94,-338.98"/>
<polygon fill="none" stroke="black" points="535.94,-349.05 567.72,-348.46 542.51,-329.1 535.94,-349.05"/>
</g>
<!-- 197 -->
<g id="node6" class="node">
<title>197</title>
<polygon fill="#f2f2f2" stroke="black" points="253.1,-348.5 253.1,-406.9 537.76,-406.9 537.76,-348.5 253.1,-348.5"/>
<text text-anchor="middle" x="395.43" y="-390.3" font-family="Times,serif" font-size="14.00">&lt;&lt;Abstract&gt;&gt;</text>
<text text-anchor="middle" x="395.43" y="-373.5" font-family="Times,serif" font-size="14.00">InitializableERC20Detailed</text>
<text text-anchor="middle" x="395.43" y="-356.7" font-family="Times,serif" font-size="14.00">../contracts/utils/InitializableERC20Detailed.sol</text>
</g>
<!-- 186&#45;&gt;197 -->
<g id="edge3" class="edge">
<title>186&#45;&gt;197</title>
<path fill="none" stroke="black" d="M395.43,-311.84C395.43,-313.89 395.43,-316.03 395.43,-318.23"/>
<polygon fill="none" stroke="black" points="384.93,-318.34 395.43,-348.34 405.93,-318.34 384.93,-318.34"/>
</g>
<!-- 195 -->
<g id="node5" class="node">
<title>195</title>
<polygon fill="#f2f2f2" stroke="black" points="404.38,-0.5 404.38,-58.9 694.48,-58.9 694.48,-0.5 404.38,-0.5"/>
<text text-anchor="middle" x="549.43" y="-42.3" font-family="Times,serif" font-size="14.00">&lt;&lt;Abstract&gt;&gt;</text>
<text text-anchor="middle" x="549.43" y="-25.5" font-family="Times,serif" font-size="14.00">InitializableAbstractStrategy</text>
<text text-anchor="middle" x="549.43" y="-8.7" font-family="Times,serif" font-size="14.00">../contracts/utils/InitializableAbstractStrategy.sol</text>
</g>
<!-- 195&#45;&gt;20 -->
<g id="edge6" class="edge">
<title>195&#45;&gt;20</title>
<path fill="none" stroke="black" d="M440.57,-59.03C415.04,-68.37 388.78,-80.33 366.43,-95.4 270.71,-159.91 188.34,-269.66 146.6,-331.27"/>
<polygon fill="none" stroke="black" points="137.68,-325.73 129.94,-356.55 155.22,-337.28 137.68,-325.73"/>
</g>
<!-- 195&#45;&gt;55 -->
<g id="edge8" class="edge">
<title>195&#45;&gt;55</title>
<path fill="none" stroke="black" stroke-dasharray="5,2" d="M526.42,-58.98C519.05,-68.04 510.78,-78.2 503.01,-87.75"/>
<polygon fill="black" stroke="black" points="500.22,-85.63 496.62,-95.6 505.65,-90.05 500.22,-85.63"/>
</g>
<!-- 195&#45;&gt;194 -->
<g id="edge5" class="edge">
<title>195&#45;&gt;194</title>
<path fill="none" stroke="black" d="M564.54,-59.17C570.03,-70.27 575.98,-83.23 580.43,-95.4 608,-170.84 629.51,-261.24 641.84,-318.82"/>
<polygon fill="none" stroke="black" points="631.56,-320.96 647.94,-348.2 652.12,-316.7 631.56,-320.96"/>
</g>
<!-- 392 -->
<g id="node8" class="node">
<title>392</title>
<polygon fill="#f2f2f2" stroke="black" points="193.37,-443.9 193.37,-502.3 597.48,-502.3 597.48,-443.9 193.37,-443.9"/>
<text text-anchor="middle" x="395.43" y="-485.7" font-family="Times,serif" font-size="14.00">&lt;&lt;Interface&gt;&gt;</text>
<text text-anchor="middle" x="395.43" y="-468.9" font-family="Times,serif" font-size="14.00">IERC20</text>
<text text-anchor="middle" x="395.43" y="-452.1" font-family="Times,serif" font-size="14.00">../node_modules/@openzeppelin/contracts/token/ERC20/IERC20.sol</text>
</g>
<!-- 195&#45;&gt;392 -->
<g id="edge7" class="edge">
<title>195&#45;&gt;392</title>
<path fill="none" stroke="black" stroke-dasharray="5,2" d="M635.73,-59C700.99,-86.45 779.43,-135.23 779.43,-211.1 779.43,-211.1 779.43,-211.1 779.43,-291.7 779.43,-343.81 797.04,-370.32 760.43,-407.4 737.37,-430.75 674.76,-445.77 607.77,-455.38"/>
<polygon fill="black" stroke="black" points="607.28,-451.91 597.85,-456.76 608.24,-458.85 607.28,-451.91"/>
</g>
<!-- 197&#45;&gt;392 -->
<g id="edge9" class="edge">
<title>197&#45;&gt;392</title>
<path fill="none" stroke="black" stroke-dasharray="5,2" d="M395.43,-406.98C395.43,-409.06 395.43,-411.2 395.43,-413.38"/>
<polygon fill="none" stroke="black" points="384.93,-413.6 395.43,-443.6 405.93,-413.6 384.93,-413.6"/>
</g>
<!-- 207&#45;&gt;20 -->
<g id="edge11" class="edge">
<title>207&#45;&gt;20</title>
<path fill="none" stroke="black" d="M375.42,-233.02C352.35,-243.34 324.12,-256.46 299.43,-269.4 256.87,-291.69 210.22,-319.26 174.8,-340.88"/>
<polygon fill="none" stroke="black" points="169.13,-332.04 149.1,-356.72 180.15,-349.91 169.13,-332.04"/>
</g>
<!-- 207&#45;&gt;186 -->
<g id="edge12" class="edge">
<title>207&#45;&gt;186</title>
<path fill="none" stroke="black" d="M414.6,-233.23C411.82,-241.41 408.56,-251.03 405.52,-259.99"/>
<polygon fill="black" stroke="black" points="402.12,-259.11 402.22,-269.71 408.74,-261.36 402.12,-259.11"/>
</g>
<!-- 207&#45;&gt;194 -->
<g id="edge10" class="edge">
<title>207&#45;&gt;194</title>
<path fill="none" stroke="black" d="M449.88,-233.16C484.14,-257.32 542.78,-298.67 588.35,-330.8"/>
<polygon fill="none" stroke="black" points="582.48,-339.52 613.05,-348.23 594.59,-322.36 582.48,-339.52"/>
</g>
</g>
</svg>
