<?xml version="1.0" encoding="UTF-8" standalone="no"?>
<!DOCTYPE svg PUBLIC "-//W3C//DTD SVG 1.1//EN"
 "http://www.w3.org/Graphics/SVG/1.1/DTD/svg11.dtd">
<!-- Generated by graphviz version 5.0.0 (20220707.1540)
 -->
<!-- Title: UmlClassDiagram Pages: 1 -->
<svg width="412pt" height="163pt"
 viewBox="0.00 0.00 412.11 162.80" xmlns="http://www.w3.org/2000/svg" xmlns:xlink="http://www.w3.org/1999/xlink">
<g id="graph0" class="graph" transform="scale(1 1) rotate(0) translate(4 158.8)">
<title>UmlClassDiagram</title>
<polygon fill="white" stroke="transparent" points="-4,4 -4,-158.8 408.11,-158.8 408.11,4 -4,4"/>
<!-- 197 -->
<g id="node1" class="node">
<title>197</title>
<polygon fill="#f2f2f2" stroke="black" points="59.73,-0.5 59.73,-58.9 344.38,-58.9 344.38,-0.5 59.73,-0.5"/>
<text text-anchor="middle" x="202.06" y="-42.3" font-family="Times,serif" font-size="14.00">&lt;&lt;Abstract&gt;&gt;</text>
<text text-anchor="middle" x="202.06" y="-25.5" font-family="Times,serif" font-size="14.00">InitializableERC20Detailed</text>
<text text-anchor="middle" x="202.06" y="-8.7" font-family="Times,serif" font-size="14.00">../contracts/utils/InitializableERC20Detailed.sol</text>
</g>
<!-- 392 -->
<g id="node2" class="node">
<title>392</title>
<polygon fill="#f2f2f2" stroke="black" points="0,-95.9 0,-154.3 404.11,-154.3 404.11,-95.9 0,-95.9"/>
<text text-anchor="middle" x="202.06" y="-137.7" font-family="Times,serif" font-size="14.00">&lt;&lt;Interface&gt;&gt;</text>
<text text-anchor="middle" x="202.06" y="-120.9" font-family="Times,serif" font-size="14.00">IERC20</text>
<text text-anchor="middle" x="202.06" y="-104.1" font-family="Times,serif" font-size="14.00">../node_modules/@openzeppelin/contracts/token/ERC20/IERC20.sol</text>
</g>
<!-- 197&#45;&gt;392 -->
<g id="edge1" class="edge">
<title>197&#45;&gt;392</title>
<path fill="none" stroke="black" stroke-dasharray="5,2" d="M202.06,-58.98C202.06,-61.06 202.06,-63.2 202.06,-65.38"/>
<polygon fill="none" stroke="black" points="191.56,-65.6 202.06,-95.6 212.56,-65.6 191.56,-65.6"/>
</g>
</g>
</svg>
