<?xml version="1.0" encoding="UTF-8" standalone="no"?>
<!DOCTYPE svg PUBLIC "-//W3C//DTD SVG 1.1//EN"
 "http://www.w3.org/Graphics/SVG/1.1/DTD/svg11.dtd">
<!-- Generated by graphviz version 5.0.0 (20220707.1540)
 -->
<!-- Title: StorageDiagram Pages: 1 -->
<svg width="435pt" height="158pt"
 viewBox="0.00 0.00 434.86 157.80" xmlns="http://www.w3.org/2000/svg" xmlns:xlink="http://www.w3.org/1999/xlink">
<g id="graph0" class="graph" transform="scale(1 1) rotate(0) translate(4 153.8)">
<title>StorageDiagram</title>
<polygon fill="white" stroke="transparent" points="-4,4 -4,-153.8 430.86,-153.8 430.86,4 -4,4"/>
<!-- 1 -->
<g id="node1" class="node">
<title>1</title>
<polygon fill="#f2f2f2" stroke="black" points="0,-0.5 0,-149.3 426.86,-149.3 426.86,-0.5 0,-0.5"/>
<text text-anchor="middle" x="213.43" y="-132.7" font-family="Courier New" font-size="14.00">InitializableERC20Detailed &lt;&lt;Contract&gt;&gt;</text>
<polyline fill="none" stroke="black" points="0,-124.5 426.86,-124.5 "/>
<text text-anchor="middle" x="24.8" y="-107.9" font-family="Courier New" font-size="14.00">slot</text>
<polyline fill="none" stroke="black" points="0,-99.7 49.61,-99.7 "/>
<text text-anchor="middle" x="24.8" y="-83.1" font-family="Courier New" font-size="14.00">0&#45;99</text>
<polyline fill="none" stroke="black" points="0,-74.9 49.61,-74.9 "/>
<text text-anchor="middle" x="24.8" y="-58.3" font-family="Courier New" font-size="14.00">100</text>
<polyline fill="none" stroke="black" points="0,-50.1 49.61,-50.1 "/>
<text text-anchor="middle" x="24.8" y="-33.5" font-family="Courier New" font-size="14.00">101</text>
<polyline fill="none" stroke="black" points="0,-25.3 49.61,-25.3 "/>
<text text-anchor="middle" x="24.8" y="-8.7" font-family="Courier New" font-size="14.00">102</text>
<polyline fill="none" stroke="black" points="49.61,-0.5 49.61,-124.5 "/>
<text text-anchor="middle" x="238.23" y="-107.9" font-family="Courier New" font-size="14.00">type: &lt;inherited contract&gt;.variable (bytes)</text>
<polyline fill="none" stroke="black" points="49.61,-99.7 426.86,-99.7 "/>
<text text-anchor="middle" x="237.93" y="-83.1" font-family="Courier New" font-size="14.00">uint256[100]: _____gap (3200)</text>
<polyline fill="none" stroke="black" points="49.61,-74.9 426.86,-74.9 "/>
<text text-anchor="middle" x="238.22" y="-58.3" font-family="Courier New" font-size="14.00">string: _name (32)</text>
<polyline fill="none" stroke="black" points="49.61,-50.1 426.86,-50.1 "/>
<text text-anchor="middle" x="238.12" y="-33.5" font-family="Courier New" font-size="14.00">string: _symbol (32)</text>
<polyline fill="none" stroke="black" points="49.61,-25.3 426.86,-25.3 "/>
<text text-anchor="middle" x="135.32" y="-8.7" font-family="Courier New" font-size="14.00">unallocated (31)</text>
<polyline fill="none" stroke="black" points="221.03,-0.5 221.03,-25.3 "/>
<text text-anchor="middle" x="323.54" y="-8.7" font-family="Courier New" font-size="14.00">uint8: _decimals (1)</text>
</g>
</g>
</svg>
