<?xml version="1.0" encoding="UTF-8" standalone="no"?>
<!DOCTYPE svg PUBLIC "-//W3C//DTD SVG 1.1//EN"
 "http://www.w3.org/Graphics/SVG/1.1/DTD/svg11.dtd">
<!-- Generated by graphviz version 5.0.0 (20220707.1540)
 -->
<!-- Title: UmlClassDiagram Pages: 1 -->
<svg width="761pt" height="540pt"
 viewBox="0.00 0.00 760.74 540.40" xmlns="http://www.w3.org/2000/svg" xmlns:xlink="http://www.w3.org/1999/xlink">
<g id="graph0" class="graph" transform="scale(1 1) rotate(0) translate(4 536.4)">
<title>UmlClassDiagram</title>
<polygon fill="white" stroke="transparent" points="-4,4 -4,-536.4 756.74,-536.4 756.74,4 -4,4"/>
<!-- 58 -->
<g id="node1" class="node">
<title>58</title>
<polygon fill="#f2f2f2" stroke="black" points="0,-193.5 0,-235.1 97.31,-235.1 97.31,-193.5 0,-193.5"/>
<text text-anchor="middle" x="48.66" y="-218.5" font-family="Times,serif" font-size="14.00">&lt;&lt;Interface&gt;&gt;</text>
<text text-anchor="middle" x="48.66" y="-201.7" font-family="Times,serif" font-size="14.00">IBasicToken</text>
</g>
<!-- 90 -->
<g id="node2" class="node">
<title>90</title>
<polygon fill="#f2f2f2" stroke="black" points="115,-193.5 115,-235.1 212.31,-235.1 212.31,-193.5 115,-193.5"/>
<text text-anchor="middle" x="163.66" y="-218.5" font-family="Times,serif" font-size="14.00">&lt;&lt;Interface&gt;&gt;</text>
<text text-anchor="middle" x="163.66" y="-201.7" font-family="Times,serif" font-size="14.00">IVault</text>
</g>
<!-- 276 -->
<g id="node7" class="node">
<title>276</title>
<polygon fill="#f2f2f2" stroke="black" points="325.15,-320.1 325.15,-361.7 420.16,-361.7 420.16,-320.1 325.15,-320.1"/>
<text text-anchor="middle" x="372.66" y="-345.1" font-family="Times,serif" font-size="14.00">&lt;&lt;Abstract&gt;&gt;</text>
<text text-anchor="middle" x="372.66" y="-328.3" font-family="Times,serif" font-size="14.00">VaultStorage</text>
</g>
<!-- 90&#45;&gt;276 -->
<g id="edge1" class="edge">
<title>90&#45;&gt;276</title>
<path fill="none" stroke="black" stroke-dasharray="5,2" d="M197.24,-235.32C233.34,-256.85 290.84,-291.12 330.09,-314.52"/>
<polygon fill="black" stroke="black" points="328.78,-317.82 339.16,-319.93 332.36,-311.8 328.78,-317.82"/>
</g>
<!-- 320 -->
<g id="node3" class="node">
<title>320</title>
<polygon fill="#f2f2f2" stroke="black" points="230.73,-193.5 230.73,-235.1 334.58,-235.1 334.58,-193.5 230.73,-193.5"/>
<text text-anchor="middle" x="282.66" y="-218.5" font-family="Times,serif" font-size="14.00">&lt;&lt;Interface&gt;&gt;</text>
<text text-anchor="middle" x="282.66" y="-201.7" font-family="Times,serif" font-size="14.00">IBridgeAdapter</text>
</g>
<!-- 439 -->
<g id="node4" class="node">
<title>439</title>
<polygon fill="#f2f2f2" stroke="black" points="352.39,-193.5 352.39,-235.1 488.93,-235.1 488.93,-193.5 352.39,-193.5"/>
<text text-anchor="middle" x="420.66" y="-218.5" font-family="Times,serif" font-size="14.00">&lt;&lt;Library&gt;&gt;</text>
<text text-anchor="middle" x="420.66" y="-201.7" font-family="Times,serif" font-size="14.00">CrossChainV3Helper</text>
</g>
<!-- 441 -->
<g id="node5" class="node">
<title>441</title>
<polygon fill="#f2f2f2" stroke="black" points="313.35,-0.5 313.35,-36.5 473.97,-36.5 473.97,-0.5 313.35,-0.5"/>
<text text-anchor="middle" x="393.66" y="-14.4" font-family="Times,serif" font-size="14.00">MasterWOTokenStrategy</text>
</g>
<!-- 441&#45;&gt;58 -->
<g id="edge8" class="edge">
<title>441&#45;&gt;58</title>
<path fill="none" stroke="black" stroke-dasharray="5,2" d="M313.05,-21.76C244.79,-25.15 153.47,-33.67 124.11,-55 81.75,-85.79 62.25,-146.68 54.01,-183.31"/>
<polygon fill="black" stroke="black" points="50.52,-182.89 51.89,-193.4 57.37,-184.33 50.52,-182.89"/>
<text text-anchor="start" x="124.66" y="-112" font-family="Times,serif" font-size="10.00">decimals</text>
</g>
<!-- 441&#45;&gt;90 -->
<g id="edge5" class="edge">
<title>441&#45;&gt;90</title>
<path fill="none" stroke="black" stroke-dasharray="5,2" d="M313.1,-26.1C269.32,-31.31 220.94,-40.24 205.1,-55 169.7,-88.01 163.06,-147.2 162.58,-183.1"/>
<polygon fill="black" stroke="black" points="159.08,-183.44 162.61,-193.44 166.08,-183.43 159.08,-183.44"/>
<text text-anchor="start" x="205.66" y="-124" font-family="Times,serif" font-size="10.00">burnForStrategy</text>
<text text-anchor="start" x="205.66" y="-112" font-family="Times,serif" font-size="10.00">mintForStrategy</text>
<text text-anchor="start" x="205.66" y="-100" font-family="Times,serif" font-size="10.00">strategistAddr</text>
</g>
<!-- 441&#45;&gt;320 -->
<g id="edge3" class="edge">
<title>441&#45;&gt;320</title>
<path fill="none" stroke="black" stroke-dasharray="5,2" d="M319.71,-36.74C311.28,-41.43 303.64,-47.4 297.79,-55 269.42,-91.89 271.85,-148.83 276.82,-183.42"/>
<polygon fill="black" stroke="black" points="273.38,-184.07 278.41,-193.39 280.29,-182.97 273.38,-184.07"/>
<text text-anchor="start" x="298.66" y="-124" font-family="Times,serif" font-size="10.00">maxTransferAmount</text>
<text text-anchor="start" x="298.66" y="-112" font-family="Times,serif" font-size="10.00">minTransferAmount</text>
<text text-anchor="start" x="298.66" y="-100" font-family="Times,serif" font-size="10.00">quoteFee</text>
</g>
<!-- 441&#45;&gt;439 -->
<g id="edge2" class="edge">
<title>441&#45;&gt;439</title>
<path fill="none" stroke="black" stroke-dasharray="5,2" d="M390.66,-36.79C386.28,-66.02 380.17,-126.76 395.05,-175 396.04,-178.21 397.39,-181.4 398.96,-184.48"/>
<polygon fill="black" stroke="black" points="396.1,-186.52 404.19,-193.36 402.13,-182.97 396.1,-186.52"/>
<text text-anchor="start" x="395.66" y="-166" font-family="Times,serif" font-size="10.00">BridgeUserPayload</text>
<text text-anchor="start" x="395.66" y="-154" font-family="Times,serif" font-size="10.00">decodeBalanceCheckResponsePayload</text>
<text text-anchor="start" x="395.66" y="-142" font-family="Times,serif" font-size="10.00">decodeBridgeUserPayload</text>
<text text-anchor="start" x="395.66" y="-130" font-family="Times,serif" font-size="10.00">decodeUint256</text>
<text text-anchor="start" x="395.66" y="-118" font-family="Times,serif" font-size="10.00">decodeWithdrawClaimAckPayload</text>
<text text-anchor="start" x="395.66" y="-106" font-family="Times,serif" font-size="10.00">decodeWithdrawRequestAckPayload</text>
<text text-anchor="start" x="395.66" y="-94" font-family="Times,serif" font-size="10.00">encodeBridgeUserPayload</text>
<text text-anchor="start" x="395.66" y="-82" font-family="Times,serif" font-size="10.00">encodeUint256</text>
<text text-anchor="start" x="395.66" y="-70" font-family="Times,serif" font-size="10.00">packPayload</text>
<text text-anchor="start" x="395.66" y="-58" font-family="Times,serif" font-size="10.00">unpackPayload</text>
</g>
<!-- 267 -->
<g id="node6" class="node">
<title>267</title>
<polygon fill="#f2f2f2" stroke="black" points="506.88,-193.5 506.88,-235.1 596.44,-235.1 596.44,-193.5 506.88,-193.5"/>
<text text-anchor="middle" x="551.66" y="-218.5" font-family="Times,serif" font-size="14.00">&lt;&lt;Library&gt;&gt;</text>
<text text-anchor="middle" x="551.66" y="-201.7" font-family="Times,serif" font-size="14.00">StableMath</text>
</g>
<!-- 441&#45;&gt;267 -->
<g id="edge7" class="edge">
<title>441&#45;&gt;267</title>
<path fill="none" stroke="black" stroke-dasharray="5,2" d="M474.16,-28.25C507.78,-33.71 541.42,-42.21 551.66,-55 580.68,-91.27 571.38,-148.65 561.71,-183.45"/>
<polygon fill="black" stroke="black" points="558.22,-182.9 558.74,-193.48 564.93,-184.89 558.22,-182.9"/>
<text text-anchor="start" x="570.66" y="-112" font-family="Times,serif" font-size="10.00">scaleBy</text>
</g>
<!-- 1324 -->
<g id="node8" class="node">
<title>1324</title>
<polygon fill="#f2f2f2" stroke="black" points="654,-490.3 654,-531.9 751.31,-531.9 751.31,-490.3 654,-490.3"/>
<text text-anchor="middle" x="702.66" y="-515.3" font-family="Times,serif" font-size="14.00">&lt;&lt;Interface&gt;&gt;</text>
<text text-anchor="middle" x="702.66" y="-498.5" font-family="Times,serif" font-size="14.00">IERC20</text>
</g>
<!-- 441&#45;&gt;1324 -->
<g id="edge6" class="edge">
<title>441&#45;&gt;1324</title>
<path fill="none" stroke="black" stroke-dasharray="5,2" d="M474.03,-23.64C533,-28.11 606.93,-37.14 631.66,-55 695.56,-101.15 711.66,-134.47 711.66,-213.3 711.66,-213.3 711.66,-213.3 711.66,-421.5 711.66,-441.09 709.45,-462.99 707.23,-480.12"/>
<polygon fill="black" stroke="black" points="703.75,-479.72 705.86,-490.1 710.68,-480.67 703.75,-479.72"/>
<text text-anchor="start" x="711.66" y="-337.9" font-family="Times,serif" font-size="10.00">balanceOf</text>
</g>
<!-- 1606 -->
<g id="node9" class="node">
<title>1606</title>
<polygon fill="#f2f2f2" stroke="black" points="558.88,-399.7 558.88,-441.3 648.44,-441.3 648.44,-399.7 558.88,-399.7"/>
<text text-anchor="middle" x="603.66" y="-424.7" font-family="Times,serif" font-size="14.00">&lt;&lt;Library&gt;&gt;</text>
<text text-anchor="middle" x="603.66" y="-407.9" font-family="Times,serif" font-size="14.00">SafeERC20</text>
</g>
<!-- 441&#45;&gt;1606 -->
<g id="edge4" class="edge">
<title>441&#45;&gt;1606</title>
<path fill="none" stroke="black" stroke-dasharray="5,2" d="M474.21,-22.39C527.14,-26.17 589.63,-34.9 606.66,-55 648.85,-104.81 621.09,-311.04 608.72,-389.25"/>
<polygon fill="black" stroke="black" points="605.22,-388.97 607.09,-399.4 612.13,-390.09 605.22,-388.97"/>
<text text-anchor="start" x="624.66" y="-286.6" font-family="Times,serif" font-size="10.00">safeApprove</text>
<text text-anchor="start" x="624.66" y="-274.6" font-family="Times,serif" font-size="10.00">safeTransfer</text>
<text text-anchor="start" x="624.66" y="-262.6" font-family="Times,serif" font-size="10.00">safeTransferFrom</text>
</g>
<!-- 1350 -->
<g id="node11" class="node">
<title>1350</title>
<polygon fill="#f2f2f2" stroke="black" points="506.88,-320.1 506.88,-361.7 596.44,-361.7 596.44,-320.1 506.88,-320.1"/>
<text text-anchor="middle" x="551.66" y="-345.1" font-family="Times,serif" font-size="14.00">&lt;&lt;Library&gt;&gt;</text>
<text text-anchor="middle" x="551.66" y="-328.3" font-family="Times,serif" font-size="14.00">SafeMath</text>
</g>
<!-- 267&#45;&gt;1350 -->
<g id="edge9" class="edge">
<title>267&#45;&gt;1350</title>
<path fill="none" stroke="black" stroke-dasharray="5,2" d="M551.66,-235.32C551.66,-255.39 551.66,-286.55 551.66,-309.64"/>
<polygon fill="black" stroke="black" points="548.16,-309.93 551.66,-319.93 555.16,-309.93 548.16,-309.93"/>
<text text-anchor="start" x="551.66" y="-292.6" font-family="Times,serif" font-size="10.00">add</text>
<text text-anchor="start" x="551.66" y="-280.6" font-family="Times,serif" font-size="10.00">div</text>
<text text-anchor="start" x="551.66" y="-268.6" font-family="Times,serif" font-size="10.00">mul</text>
<text text-anchor="start" x="551.66" y="-256.6" font-family="Times,serif" font-size="10.00">sub</text>
</g>
<!-- 276&#45;&gt;1606 -->
<g id="edge10" class="edge">
<title>276&#45;&gt;1606</title>
<path fill="none" stroke="black" stroke-dasharray="5,2" d="M420.24,-357.88C457.62,-370.44 509.72,-387.94 548.84,-401.09"/>
<polygon fill="black" stroke="black" points="547.9,-404.46 558.49,-404.33 550.13,-397.83 547.9,-404.46"/>
</g>
<!-- 1606&#45;&gt;1324 -->
<g id="edge12" class="edge">
<title>1606&#45;&gt;1324</title>
<path fill="none" stroke="black" stroke-dasharray="5,2" d="M624.23,-441.36C634.07,-450.72 646.08,-461.97 657.12,-471.8 661.37,-475.58 665.89,-479.5 670.38,-483.33"/>
<polygon fill="black" stroke="black" points="668.45,-486.28 678.34,-490.07 672.97,-480.94 668.45,-486.28"/>
<text text-anchor="start" x="656.66" y="-462.8" font-family="Times,serif" font-size="10.00">allowance</text>
</g>
<!-- 1057 -->
<g id="node10" class="node">
<title>1057</title>
<polygon fill="#f2f2f2" stroke="black" points="537.88,-490.3 537.88,-531.9 627.44,-531.9 627.44,-490.3 537.88,-490.3"/>
<text text-anchor="middle" x="582.66" y="-515.3" font-family="Times,serif" font-size="14.00">&lt;&lt;Library&gt;&gt;</text>
<text text-anchor="middle" x="582.66" y="-498.5" font-family="Times,serif" font-size="14.00">Address</text>
</g>
<!-- 1606&#45;&gt;1057 -->
<g id="edge11" class="edge">
<title>1606&#45;&gt;1057</title>
<path fill="none" stroke="black" stroke-dasharray="5,2" d="M591.03,-441.47C588.05,-447.18 585.27,-453.55 583.67,-459.8 582.02,-466.24 581.26,-473.3 581.01,-480.04"/>
<polygon fill="black" stroke="black" points="577.51,-480.22 580.98,-490.23 584.51,-480.24 577.51,-480.22"/>
<text text-anchor="start" x="583.66" y="-462.8" font-family="Times,serif" font-size="10.00">functionCall</text>
</g>
</g>
</svg>
