<?xml version="1.0" encoding="UTF-8" standalone="no"?>
<!DOCTYPE svg PUBLIC "-//W3C//DTD SVG 1.1//EN"
 "http://www.w3.org/Graphics/SVG/1.1/DTD/svg11.dtd">
<!-- Generated by graphviz version 5.0.0 (20220707.1540)
 -->
<!-- Title: StorageDiagram Pages: 1 -->
<svg width="1754pt" height="981pt"
 viewBox="0.00 0.00 1753.87 980.60" xmlns="http://www.w3.org/2000/svg" xmlns:xlink="http://www.w3.org/1999/xlink">
<g id="graph0" class="graph" transform="scale(1 1) rotate(0) translate(4 976.6)">
<title>StorageDiagram</title>
<polygon fill="white" stroke="transparent" points="-4,4 -4,-976.6 1749.87,-976.6 1749.87,4 -4,4"/>
<!-- 7 -->
<g id="node1" class="node">
<title>7</title>
<polygon fill="#f2f2f2" stroke="black" points="0,-274.7 0,-869.9 1139.38,-869.9 1139.38,-274.7 0,-274.7"/>
<text text-anchor="middle" x="569.69" y="-853.3" font-family="Courier New" font-size="14.00">MasterWOTokenStrategy &lt;&lt;Contract&gt;&gt;</text>
<polyline fill="none" stroke="black" points="0,-845.1 1139.38,-845.1 "/>
<text text-anchor="middle" x="37.4" y="-828.5" font-family="Courier New" font-size="14.00">slot</text>
<polyline fill="none" stroke="black" points="0,-820.3 74.81,-820.3 "/>
<text text-anchor="middle" x="37.4" y="-803.7" font-family="Courier New" font-size="14.00">0</text>
<polyline fill="none" stroke="black" points="0,-795.5 74.81,-795.5 "/>
<text text-anchor="middle" x="37.4" y="-778.9" font-family="Courier New" font-size="14.00">1</text>
<polyline fill="none" stroke="black" points="0,-770.7 74.81,-770.7 "/>
<text text-anchor="middle" x="37.4" y="-754.1" font-family="Courier New" font-size="14.00">2</text>
<polyline fill="none" stroke="black" points="0,-745.9 74.81,-745.9 "/>
<text text-anchor="middle" x="37.4" y="-729.3" font-family="Courier New" font-size="14.00">3</text>
<polyline fill="none" stroke="black" points="0,-721.1 74.81,-721.1 "/>
<text text-anchor="middle" x="37.4" y="-704.5" font-family="Courier New" font-size="14.00">4</text>
<polyline fill="none" stroke="black" points="0,-696.3 74.81,-696.3 "/>
<text text-anchor="middle" x="37.4" y="-679.7" font-family="Courier New" font-size="14.00">5&#45;54</text>
<polyline fill="none" stroke="black" points="0,-671.5 74.81,-671.5 "/>
<text text-anchor="middle" x="37.4" y="-654.9" font-family="Courier New" font-size="14.00">55</text>
<polyline fill="none" stroke="black" points="0,-646.7 74.81,-646.7 "/>
<text text-anchor="middle" x="37.4" y="-630.1" font-family="Courier New" font-size="14.00">56&#45;105</text>
<polyline fill="none" stroke="black" points="0,-621.9 74.81,-621.9 "/>
<text text-anchor="middle" x="37.4" y="-605.3" font-family="Courier New" font-size="14.00">106</text>
<polyline fill="none" stroke="black" points="0,-597.1 74.81,-597.1 "/>
<text text-anchor="middle" x="37.4" y="-580.5" font-family="Courier New" font-size="14.00">107</text>
<polyline fill="none" stroke="black" points="0,-572.3 74.81,-572.3 "/>
<text text-anchor="middle" x="37.4" y="-555.7" font-family="Courier New" font-size="14.00">108</text>
<polyline fill="none" stroke="black" points="0,-547.5 74.81,-547.5 "/>
<text text-anchor="middle" x="37.4" y="-530.9" font-family="Courier New" font-size="14.00">109</text>
<polyline fill="none" stroke="black" points="0,-522.7 74.81,-522.7 "/>
<text text-anchor="middle" x="37.4" y="-506.1" font-family="Courier New" font-size="14.00">110</text>
<polyline fill="none" stroke="black" points="0,-497.9 74.81,-497.9 "/>
<text text-anchor="middle" x="37.4" y="-481.3" font-family="Courier New" font-size="14.00">111</text>
<polyline fill="none" stroke="black" points="0,-473.1 74.81,-473.1 "/>
<text text-anchor="middle" x="37.4" y="-456.5" font-family="Courier New" font-size="14.00">112</text>
<polyline fill="none" stroke="black" points="0,-448.3 74.81,-448.3 "/>
<text text-anchor="middle" x="37.4" y="-431.7" font-family="Courier New" font-size="14.00">113</text>
<polyline fill="none" stroke="black" points="0,-423.5 74.81,-423.5 "/>
<text text-anchor="middle" x="37.4" y="-406.9" font-family="Courier New" font-size="14.00">114&#45;211</text>
<polyline fill="none" stroke="black" points="0,-398.7 74.81,-398.7 "/>
<text text-anchor="middle" x="37.4" y="-382.1" font-family="Courier New" font-size="14.00">212&#45;261</text>
<polyline fill="none" stroke="black" points="0,-373.9 74.81,-373.9 "/>
<text text-anchor="middle" x="37.4" y="-357.3" font-family="Courier New" font-size="14.00">262</text>
<polyline fill="none" stroke="black" points="0,-349.1 74.81,-349.1 "/>
<text text-anchor="middle" x="37.4" y="-332.5" font-family="Courier New" font-size="14.00">263</text>
<polyline fill="none" stroke="black" points="0,-324.3 74.81,-324.3 "/>
<text text-anchor="middle" x="37.4" y="-307.7" font-family="Courier New" font-size="14.00">264</text>
<polyline fill="none" stroke="black" points="0,-299.5 74.81,-299.5 "/>
<text text-anchor="middle" x="37.4" y="-282.9" font-family="Courier New" font-size="14.00">265&#45;306</text>
<polyline fill="none" stroke="black" points="74.81,-274.7 74.81,-845.1 "/>
<text text-anchor="middle" x="607.09" y="-828.5" font-family="Courier New" font-size="14.00">type: &lt;inherited contract&gt;.variable (bytes)</text>
<polyline fill="none" stroke="black" points="74.81,-820.3 1139.38,-820.3 "/>
<text text-anchor="middle" x="252.52" y="-803.7" font-family="Courier New" font-size="14.00">unallocated (12)</text>
<polyline fill="none" stroke="black" points="430.23,-795.5 430.23,-820.3 "/>
<text text-anchor="middle" x="784.37" y="-803.7" font-family="Courier New" font-size="14.00">address: AbstractCrossChainV3Strategy.outboundAdapter (20)</text>
<polyline fill="none" stroke="black" points="74.81,-795.5 1139.38,-795.5 "/>
<text text-anchor="middle" x="254.52" y="-778.9" font-family="Courier New" font-size="14.00">unallocated (12)</text>
<polyline fill="none" stroke="black" points="434.23,-770.7 434.23,-795.5 "/>
<text text-anchor="middle" x="786.67" y="-778.9" font-family="Courier New" font-size="14.00">address: AbstractCrossChainV3Strategy.inboundAdapter (20)</text>
<polyline fill="none" stroke="black" points="74.81,-770.7 1139.38,-770.7 "/>
<text text-anchor="middle" x="145.82" y="-754.1" font-family="Courier New" font-size="14.00">unallocated (4)</text>
<polyline fill="none" stroke="black" points="216.83,-745.9 216.83,-770.7 "/>
<text text-anchor="middle" x="455.87" y="-754.1" font-family="Courier New" font-size="14.00">uint64: AbstractCrossChainV3Strategy.lastYieldNonce (8)</text>
<polyline fill="none" stroke="black" points="694.91,-745.9 694.91,-770.7 "/>
<text text-anchor="middle" x="917.14" y="-754.1" font-family="Courier New" font-size="14.00">address: AbstractCrossChainV3Strategy.operator (20)</text>
<polyline fill="none" stroke="black" points="74.81,-745.9 1139.38,-745.9 "/>
<text text-anchor="middle" x="607.06" y="-729.3" font-family="Courier New" font-size="14.00">mapping(uint64=&gt;bool): AbstractCrossChainV3Strategy.nonceProcessed (32)</text>
<polyline fill="none" stroke="black" points="74.81,-721.1 1139.38,-721.1 "/>
<text text-anchor="middle" x="606.96" y="-704.5" font-family="Courier New" font-size="14.00">uint256: AbstractCrossChainV3Strategy.lastBalanceCheckTimestamp (32)</text>
<polyline fill="none" stroke="black" points="74.81,-696.3 1139.38,-696.3 "/>
<text text-anchor="middle" x="606.65" y="-679.7" font-family="Courier New" font-size="14.00">uint256[50]: AbstractCrossChainV3Strategy.__gap (1600)</text>
<polyline fill="none" stroke="black" points="74.81,-671.5 1139.38,-671.5 "/>
<text text-anchor="middle" x="197.52" y="-654.9" font-family="Courier New" font-size="14.00">unallocated (30)</text>
<polyline fill="none" stroke="black" points="320.23,-646.7 320.23,-671.5 "/>
<text text-anchor="middle" x="526.96" y="-654.9" font-family="Courier New" font-size="14.00">bool: Initializable.initializing (1)</text>
<polyline fill="none" stroke="black" points="733.68,-646.7 733.68,-671.5 "/>
<text text-anchor="middle" x="936.2" y="-654.9" font-family="Courier New" font-size="14.00">bool: Initializable.initialized (1)</text>
<polyline fill="none" stroke="black" points="74.81,-646.7 1139.38,-646.7 "/>
<text text-anchor="middle" x="606.64" y="-630.1" font-family="Courier New" font-size="14.00">uint256[50]: Initializable.__gap (1600)</text>
<polyline fill="none" stroke="black" points="74.81,-621.9 1139.38,-621.9 "/>
<text text-anchor="middle" x="225.02" y="-605.3" font-family="Courier New" font-size="14.00">unallocated (12)</text>
<polyline fill="none" stroke="black" points="375.23,-597.1 375.23,-621.9 "/>
<text text-anchor="middle" x="756.98" y="-605.3" font-family="Courier New" font-size="14.00">address: InitializableAbstractStrategy._deprecated_platformAddress (20)</text>
<polyline fill="none" stroke="black" points="74.81,-597.1 1139.38,-597.1 "/>
<text text-anchor="middle" x="231.52" y="-580.5" font-family="Courier New" font-size="14.00">unallocated (12)</text>
<polyline fill="none" stroke="black" points="388.23,-572.3 388.23,-597.1 "/>
<text text-anchor="middle" x="763.38" y="-580.5" font-family="Courier New" font-size="14.00">address: InitializableAbstractStrategy._deprecated_vaultAddress (20)</text>
<polyline fill="none" stroke="black" points="74.81,-572.3 1139.38,-572.3 "/>
<text text-anchor="middle" x="606.86" y="-555.7" font-family="Courier New" font-size="14.00">mapping(address=&gt;address): InitializableAbstractStrategy.assetToPToken (32)</text>
<polyline fill="none" stroke="black" points="74.81,-547.5 1139.38,-547.5 "/>
<text text-anchor="middle" x="606.95" y="-530.9" font-family="Courier New" font-size="14.00">address[]: InitializableAbstractStrategy.assetsMapped (32)</text>
<polyline fill="none" stroke="black" points="74.81,-522.7 1139.38,-522.7 "/>
<text text-anchor="middle" x="219.02" y="-506.1" font-family="Courier New" font-size="14.00">unallocated (12)</text>
<polyline fill="none" stroke="black" points="363.23,-497.9 363.23,-522.7 "/>
<text text-anchor="middle" x="751.08" y="-506.1" font-family="Courier New" font-size="14.00">address: InitializableAbstractStrategy._deprecated_rewardTokenAddress (20)</text>
<polyline fill="none" stroke="black" points="74.81,-497.9 1139.38,-497.9 "/>
<text text-anchor="middle" x="606.77" y="-481.3" font-family="Courier New" font-size="14.00">uint256: InitializableAbstractStrategy._deprecated_rewardLiquidationThreshold (32)</text>
<polyline fill="none" stroke="black" points="74.81,-473.1 1139.38,-473.1 "/>
<text text-anchor="middle" x="248.52" y="-456.5" font-family="Courier New" font-size="14.00">unallocated (12)</text>
<polyline fill="none" stroke="black" points="422.23,-448.3 422.23,-473.1 "/>
<text text-anchor="middle" x="780.77" y="-456.5" font-family="Courier New" font-size="14.00">address: InitializableAbstractStrategy.harvesterAddress (20)</text>
<polyline fill="none" stroke="black" points="74.81,-448.3 1139.38,-448.3 "/>
<text text-anchor="middle" x="607.05" y="-431.7" font-family="Courier New" font-size="14.00">address[]: InitializableAbstractStrategy.rewardTokenAddresses (32)</text>
<polyline fill="none" stroke="black" points="74.81,-423.5 1139.38,-423.5 "/>
<text text-anchor="middle" x="606.95" y="-406.9" font-family="Courier New" font-size="14.00">int256[98]: InitializableAbstractStrategy._reserved (3136)</text>
<polyline fill="none" stroke="black" points="74.81,-398.7 1139.38,-398.7 "/>
<text text-anchor="middle" x="606.64" y="-382.1" font-family="Courier New" font-size="14.00">uint256[50]: AbstractWOTokenStrategy.__gap (1600)</text>
<polyline fill="none" stroke="black" points="74.81,-373.9 1139.38,-373.9 "/>
<text text-anchor="middle" x="606.83" y="-357.3" font-family="Courier New" font-size="14.00">uint256: remoteStrategyBalance (32)</text>
<polyline fill="none" stroke="black" points="74.81,-349.1 1139.38,-349.1 "/>
<text text-anchor="middle" x="606.63" y="-332.5" font-family="Courier New" font-size="14.00">uint256: pendingDepositAmount (32)</text>
<polyline fill="none" stroke="black" points="74.81,-324.3 1139.38,-324.3 "/>
<text text-anchor="middle" x="606.73" y="-307.7" font-family="Courier New" font-size="14.00">uint256: pendingWithdrawalAmount (32)</text>
<polyline fill="none" stroke="black" points="74.81,-299.5 1139.38,-299.5 "/>
<text text-anchor="middle" x="606.83" y="-282.9" font-family="Courier New" font-size="14.00">uint256[42]: __gap (1344)</text>
</g>
<!-- 1 -->
<g id="node2" class="node">
<title>1</title>
<polygon fill="#f2f2f2" stroke="black" points="1335,-798.5 1335,-972.1 1586.24,-972.1 1586.24,-798.5 1335,-798.5"/>
<text text-anchor="middle" x="1460.62" y="-955.5" font-family="Courier New" font-size="14.00">uint256[50]: __gap &lt;&lt;Array&gt;&gt;</text>
<polyline fill="none" stroke="black" points="1335,-947.3 1586.24,-947.3 "/>
<text text-anchor="middle" x="1359.8" y="-930.7" font-family="Courier New" font-size="14.00">slot</text>
<polyline fill="none" stroke="black" points="1335,-922.5 1384.61,-922.5 "/>
<text text-anchor="middle" x="1359.8" y="-905.9" font-family="Courier New" font-size="14.00">5</text>
<polyline fill="none" stroke="black" points="1335,-897.7 1384.61,-897.7 "/>
<text text-anchor="middle" x="1359.8" y="-881.1" font-family="Courier New" font-size="14.00">6</text>
<polyline fill="none" stroke="black" points="1335,-872.9 1384.61,-872.9 "/>
<text text-anchor="middle" x="1359.8" y="-856.3" font-family="Courier New" font-size="14.00">7&#45;52</text>
<polyline fill="none" stroke="black" points="1335,-848.1 1384.61,-848.1 "/>
<text text-anchor="middle" x="1359.8" y="-831.5" font-family="Courier New" font-size="14.00">53</text>
<polyline fill="none" stroke="black" points="1335,-823.3 1384.61,-823.3 "/>
<text text-anchor="middle" x="1359.8" y="-806.7" font-family="Courier New" font-size="14.00">54</text>
<polyline fill="none" stroke="black" points="1384.61,-798.5 1384.61,-947.3 "/>
<text text-anchor="middle" x="1485.02" y="-930.7" font-family="Courier New" font-size="14.00">type: variable (bytes)</text>
<polyline fill="none" stroke="black" points="1384.61,-922.5 1585.44,-922.5 "/>
<text text-anchor="middle" x="1485.01" y="-905.9" font-family="Courier New" font-size="14.00">uint256 (32)</text>
<polyline fill="none" stroke="black" points="1384.61,-897.7 1585.44,-897.7 "/>
<text text-anchor="middle" x="1485.01" y="-881.1" font-family="Courier New" font-size="14.00">uint256 (32)</text>
<polyline fill="none" stroke="black" points="1384.61,-872.9 1585.44,-872.9 "/>
<text text-anchor="middle" x="1484.81" y="-856.3" font-family="Courier New" font-size="14.00">&#45;&#45;&#45;&#45; (1472)</text>
<polyline fill="none" stroke="black" points="1384.61,-848.1 1585.44,-848.1 "/>
<text text-anchor="middle" x="1485.01" y="-831.5" font-family="Courier New" font-size="14.00">uint256 (32)</text>
<polyline fill="none" stroke="black" points="1384.61,-823.3 1585.44,-823.3 "/>
<text text-anchor="middle" x="1485.01" y="-806.7" font-family="Courier New" font-size="14.00">uint256 (32)</text>
</g>
<!-- 7&#45;&gt;1 -->
<g id="edge1" class="edge">
<title>7:12&#45;&gt;1</title>
<path fill="none" stroke="black" d="M1139.38,-684.3C1188.29,-684.3 1140.71,-753.79 1175.38,-788.3 1215.47,-828.22 1272.63,-851.72 1325.2,-865.56"/>
<polygon fill="black" stroke="black" points="1324.4,-868.96 1334.95,-868.03 1326.12,-862.18 1324.4,-868.96"/>
</g>
<!-- 2 -->
<g id="node3" class="node">
<title>2</title>
<polygon fill="#f2f2f2" stroke="black" points="1327,-605.5 1327,-779.1 1594.24,-779.1 1594.24,-605.5 1327,-605.5"/>
<text text-anchor="middle" x="1460.62" y="-762.5" font-family="Courier New" font-size="14.00">uint256[50]: __gap &lt;&lt;Array&gt;&gt;</text>
<polyline fill="none" stroke="black" points="1327,-754.3 1594.24,-754.3 "/>
<text text-anchor="middle" x="1360.21" y="-737.7" font-family="Courier New" font-size="14.00">slot</text>
<polyline fill="none" stroke="black" points="1327,-729.5 1393.41,-729.5 "/>
<text text-anchor="middle" x="1360.21" y="-712.9" font-family="Courier New" font-size="14.00">56</text>
<polyline fill="none" stroke="black" points="1327,-704.7 1393.41,-704.7 "/>
<text text-anchor="middle" x="1360.21" y="-688.1" font-family="Courier New" font-size="14.00">57</text>
<polyline fill="none" stroke="black" points="1327,-679.9 1393.41,-679.9 "/>
<text text-anchor="middle" x="1360.21" y="-663.3" font-family="Courier New" font-size="14.00">58&#45;103</text>
<polyline fill="none" stroke="black" points="1327,-655.1 1393.41,-655.1 "/>
<text text-anchor="middle" x="1360.21" y="-638.5" font-family="Courier New" font-size="14.00">104</text>
<polyline fill="none" stroke="black" points="1327,-630.3 1393.41,-630.3 "/>
<text text-anchor="middle" x="1360.21" y="-613.7" font-family="Courier New" font-size="14.00">105</text>
<polyline fill="none" stroke="black" points="1393.41,-605.5 1393.41,-754.3 "/>
<text text-anchor="middle" x="1493.82" y="-737.7" font-family="Courier New" font-size="14.00">type: variable (bytes)</text>
<polyline fill="none" stroke="black" points="1393.41,-729.5 1594.24,-729.5 "/>
<text text-anchor="middle" x="1493.82" y="-712.9" font-family="Courier New" font-size="14.00">uint256 (32)</text>
<polyline fill="none" stroke="black" points="1393.41,-704.7 1594.24,-704.7 "/>
<text text-anchor="middle" x="1493.82" y="-688.1" font-family="Courier New" font-size="14.00">uint256 (32)</text>
<polyline fill="none" stroke="black" points="1393.41,-679.9 1594.24,-679.9 "/>
<text text-anchor="middle" x="1493.62" y="-663.3" font-family="Courier New" font-size="14.00">&#45;&#45;&#45;&#45; (1472)</text>
<polyline fill="none" stroke="black" points="1393.41,-655.1 1594.24,-655.1 "/>
<text text-anchor="middle" x="1493.82" y="-638.5" font-family="Courier New" font-size="14.00">uint256 (32)</text>
<polyline fill="none" stroke="black" points="1393.41,-630.3 1594.24,-630.3 "/>
<text text-anchor="middle" x="1493.82" y="-613.7" font-family="Courier New" font-size="14.00">uint256 (32)</text>
</g>
<!-- 7&#45;&gt;2 -->
<g id="edge2" class="edge">
<title>7:20&#45;&gt;2</title>
<path fill="none" stroke="black" d="M1139.38,-634.3C1198.14,-634.3 1262.02,-643.87 1317.15,-655.24"/>
<polygon fill="black" stroke="black" points="1316.48,-658.68 1326.98,-657.31 1317.91,-651.83 1316.48,-658.68"/>
</g>
<!-- 3 -->
<g id="node4" class="node">
<title>3</title>
<polygon fill="#f2f2f2" stroke="black" points="1175.38,-495.7 1175.38,-586.9 1745.87,-586.9 1745.87,-495.7 1175.38,-495.7"/>
<text text-anchor="middle" x="1460.62" y="-570.3" font-family="Courier New" font-size="14.00">address[]: assetsMapped &lt;&lt;Array&gt;&gt;</text>
<text text-anchor="middle" x="1460.62" y="-553.5" font-family="Courier New" font-size="14.00">0x5006b838207c6a9ae9b84d68f467dd4bb5c305fbfb6b04eab8faaabeec1e18d8</text>
<polyline fill="none" stroke="black" points="1175.38,-545.3 1745.87,-545.3 "/>
<text text-anchor="middle" x="1267.58" y="-528.7" font-family="Courier New" font-size="14.00">offset</text>
<polyline fill="none" stroke="black" points="1175.38,-520.5 1359.78,-520.5 "/>
<text text-anchor="middle" x="1267.58" y="-503.9" font-family="Courier New" font-size="14.00">0</text>
<polyline fill="none" stroke="black" points="1359.78,-495.7 1359.78,-545.3 "/>
<text text-anchor="middle" x="1552.4" y="-528.7" font-family="Courier New" font-size="14.00">type: variable (bytes)</text>
<polyline fill="none" stroke="black" points="1359.78,-520.5 1745.02,-520.5 "/>
<text text-anchor="middle" x="1464.49" y="-503.9" font-family="Courier New" font-size="14.00">unallocated (12)</text>
<polyline fill="none" stroke="black" points="1569.21,-495.7 1569.21,-520.5 "/>
<text text-anchor="middle" x="1657.11" y="-503.9" font-family="Courier New" font-size="14.00">address (20)</text>
</g>
<!-- 7&#45;&gt;3 -->
<g id="edge3" class="edge">
<title>7:25&#45;&gt;3</title>
<path fill="none" stroke="black" d="M1139.38,-535.3C1147.77,-535.3 1156.29,-535.32 1164.88,-535.36"/>
<polygon fill="black" stroke="black" points="1164.99,-538.86 1175.01,-535.41 1165.03,-531.86 1164.99,-538.86"/>
</g>
<!-- 4 -->
<g id="node5" class="node">
<title>4</title>
<polygon fill="#f2f2f2" stroke="black" points="1175.38,-385.7 1175.38,-476.9 1745.87,-476.9 1745.87,-385.7 1175.38,-385.7"/>
<text text-anchor="middle" x="1460.62" y="-460.3" font-family="Courier New" font-size="14.00">address[]: rewardTokenAddresses &lt;&lt;Array&gt;&gt;</text>
<text text-anchor="middle" x="1460.62" y="-443.5" font-family="Courier New" font-size="14.00">0xa1fcd19bfe8c32a61095b6bfbb2664842857e148fcbb5188386c8cd40348d5b6</text>
<polyline fill="none" stroke="black" points="1175.38,-435.3 1745.87,-435.3 "/>
<text text-anchor="middle" x="1267.58" y="-418.7" font-family="Courier New" font-size="14.00">offset</text>
<polyline fill="none" stroke="black" points="1175.38,-410.5 1359.78,-410.5 "/>
<text text-anchor="middle" x="1267.58" y="-393.9" font-family="Courier New" font-size="14.00">0</text>
<polyline fill="none" stroke="black" points="1359.78,-385.7 1359.78,-435.3 "/>
<text text-anchor="middle" x="1552.4" y="-418.7" font-family="Courier New" font-size="14.00">type: variable (bytes)</text>
<polyline fill="none" stroke="black" points="1359.78,-410.5 1745.02,-410.5 "/>
<text text-anchor="middle" x="1464.49" y="-393.9" font-family="Courier New" font-size="14.00">unallocated (12)</text>
<polyline fill="none" stroke="black" points="1569.21,-385.7 1569.21,-410.5 "/>
<text text-anchor="middle" x="1657.11" y="-393.9" font-family="Courier New" font-size="14.00">address (20)</text>
</g>
<!-- 7&#45;&gt;4 -->
<g id="edge4" class="edge">
<title>7:30&#45;&gt;4</title>
<path fill="none" stroke="black" d="M1139.38,-436.3C1147.77,-436.3 1156.28,-436.28 1164.88,-436.25"/>
<polygon fill="black" stroke="black" points="1165.02,-439.75 1175.01,-436.2 1164.99,-432.75 1165.02,-439.75"/>
</g>
<!-- 5 -->
<g id="node6" class="node">
<title>5</title>
<polygon fill="#f2f2f2" stroke="black" points="1322.8,-193.5 1322.8,-367.1 1598.44,-367.1 1598.44,-193.5 1322.8,-193.5"/>
<text text-anchor="middle" x="1460.62" y="-350.5" font-family="Courier New" font-size="14.00">uint256[50]: __gap &lt;&lt;Array&gt;&gt;</text>
<polyline fill="none" stroke="black" points="1322.8,-342.3 1598.44,-342.3 "/>
<text text-anchor="middle" x="1360.21" y="-325.7" font-family="Courier New" font-size="14.00">slot</text>
<polyline fill="none" stroke="black" points="1322.8,-317.5 1397.61,-317.5 "/>
<text text-anchor="middle" x="1360.21" y="-300.9" font-family="Courier New" font-size="14.00">212</text>
<polyline fill="none" stroke="black" points="1322.8,-292.7 1397.61,-292.7 "/>
<text text-anchor="middle" x="1360.21" y="-276.1" font-family="Courier New" font-size="14.00">213</text>
<polyline fill="none" stroke="black" points="1322.8,-267.9 1397.61,-267.9 "/>
<text text-anchor="middle" x="1360.21" y="-251.3" font-family="Courier New" font-size="14.00">214&#45;259</text>
<polyline fill="none" stroke="black" points="1322.8,-243.1 1397.61,-243.1 "/>
<text text-anchor="middle" x="1360.21" y="-226.5" font-family="Courier New" font-size="14.00">260</text>
<polyline fill="none" stroke="black" points="1322.8,-218.3 1397.61,-218.3 "/>
<text text-anchor="middle" x="1360.21" y="-201.7" font-family="Courier New" font-size="14.00">261</text>
<polyline fill="none" stroke="black" points="1397.61,-193.5 1397.61,-342.3 "/>
<text text-anchor="middle" x="1498.02" y="-325.7" font-family="Courier New" font-size="14.00">type: variable (bytes)</text>
<polyline fill="none" stroke="black" points="1397.61,-317.5 1598.44,-317.5 "/>
<text text-anchor="middle" x="1498.02" y="-300.9" font-family="Courier New" font-size="14.00">uint256 (32)</text>
<polyline fill="none" stroke="black" points="1397.61,-292.7 1598.44,-292.7 "/>
<text text-anchor="middle" x="1498.02" y="-276.1" font-family="Courier New" font-size="14.00">uint256 (32)</text>
<polyline fill="none" stroke="black" points="1397.61,-267.9 1598.44,-267.9 "/>
<text text-anchor="middle" x="1497.82" y="-251.3" font-family="Courier New" font-size="14.00">&#45;&#45;&#45;&#45; (1472)</text>
<polyline fill="none" stroke="black" points="1397.61,-243.1 1598.44,-243.1 "/>
<text text-anchor="middle" x="1498.02" y="-226.5" font-family="Courier New" font-size="14.00">uint256 (32)</text>
<polyline fill="none" stroke="black" points="1397.61,-218.3 1598.44,-218.3 "/>
<text text-anchor="middle" x="1498.02" y="-201.7" font-family="Courier New" font-size="14.00">uint256 (32)</text>
</g>
<!-- 7&#45;&gt;5 -->
<g id="edge5" class="edge">
<title>7:37&#45;&gt;5</title>
<path fill="none" stroke="black" d="M1139.38,-386.3C1144.25,-386.3 1230.61,-357.65 1312.41,-330.14"/>
<polygon fill="black" stroke="black" points="1314,-333.3 1322.36,-326.79 1311.77,-326.67 1314,-333.3"/>
</g>
<!-- 6 -->
<g id="node7" class="node">
<title>6</title>
<polygon fill="#f2f2f2" stroke="black" points="1322.8,-0.5 1322.8,-174.1 1598.44,-174.1 1598.44,-0.5 1322.8,-0.5"/>
<text text-anchor="middle" x="1460.62" y="-157.5" font-family="Courier New" font-size="14.00">uint256[42]: __gap &lt;&lt;Array&gt;&gt;</text>
<polyline fill="none" stroke="black" points="1322.8,-149.3 1598.44,-149.3 "/>
<text text-anchor="middle" x="1360.21" y="-132.7" font-family="Courier New" font-size="14.00">slot</text>
<polyline fill="none" stroke="black" points="1322.8,-124.5 1397.61,-124.5 "/>
<text text-anchor="middle" x="1360.21" y="-107.9" font-family="Courier New" font-size="14.00">265</text>
<polyline fill="none" stroke="black" points="1322.8,-99.7 1397.61,-99.7 "/>
<text text-anchor="middle" x="1360.21" y="-83.1" font-family="Courier New" font-size="14.00">266</text>
<polyline fill="none" stroke="black" points="1322.8,-74.9 1397.61,-74.9 "/>
<text text-anchor="middle" x="1360.21" y="-58.3" font-family="Courier New" font-size="14.00">267&#45;304</text>
<polyline fill="none" stroke="black" points="1322.8,-50.1 1397.61,-50.1 "/>
<text text-anchor="middle" x="1360.21" y="-33.5" font-family="Courier New" font-size="14.00">305</text>
<polyline fill="none" stroke="black" points="1322.8,-25.3 1397.61,-25.3 "/>
<text text-anchor="middle" x="1360.21" y="-8.7" font-family="Courier New" font-size="14.00">306</text>
<polyline fill="none" stroke="black" points="1397.61,-0.5 1397.61,-149.3 "/>
<text text-anchor="middle" x="1498.02" y="-132.7" font-family="Courier New" font-size="14.00">type: variable (bytes)</text>
<polyline fill="none" stroke="black" points="1397.61,-124.5 1598.44,-124.5 "/>
<text text-anchor="middle" x="1498.02" y="-107.9" font-family="Courier New" font-size="14.00">uint256 (32)</text>
<polyline fill="none" stroke="black" points="1397.61,-99.7 1598.44,-99.7 "/>
<text text-anchor="middle" x="1498.02" y="-83.1" font-family="Courier New" font-size="14.00">uint256 (32)</text>
<polyline fill="none" stroke="black" points="1397.61,-74.9 1598.44,-74.9 "/>
<text text-anchor="middle" x="1497.82" y="-58.3" font-family="Courier New" font-size="14.00">&#45;&#45;&#45;&#45; (1216)</text>
<polyline fill="none" stroke="black" points="1397.61,-50.1 1598.44,-50.1 "/>
<text text-anchor="middle" x="1498.02" y="-33.5" font-family="Courier New" font-size="14.00">uint256 (32)</text>
<polyline fill="none" stroke="black" points="1397.61,-25.3 1598.44,-25.3 "/>
<text text-anchor="middle" x="1498.02" y="-8.7" font-family="Courier New" font-size="14.00">uint256 (32)</text>
</g>
<!-- 7&#45;&gt;6 -->
<g id="edge6" class="edge">
<title>7:46&#45;&gt;6</title>
<path fill="none" stroke="black" d="M1139.38,-287.3C1187.87,-287.3 1140.96,-218.46 1175.38,-184.3 1212.41,-147.54 1263.93,-124.69 1312.95,-110.5"/>
<polygon fill="black" stroke="black" points="1314.02,-113.84 1322.71,-107.78 1312.14,-107.1 1314.02,-113.84"/>
</g>
</g>
</svg>
