<?xml version="1.0" encoding="UTF-8" standalone="no"?>
<!DOCTYPE svg PUBLIC "-//W3C//DTD SVG 1.1//EN"
 "http://www.w3.org/Graphics/SVG/1.1/DTD/svg11.dtd">
<!-- Generated by graphviz version 5.0.0 (20220707.1540)
 -->
<!-- Title: StorageDiagram Pages: 1 -->
<svg width="1754pt" height="873pt"
 viewBox="0.00 0.00 1753.87 873.40" xmlns="http://www.w3.org/2000/svg" xmlns:xlink="http://www.w3.org/1999/xlink">
<g id="graph0" class="graph" transform="scale(1 1) rotate(0) translate(4 869.4)">
<title>StorageDiagram</title>
<polygon fill="white" stroke="transparent" points="-4,4 -4,-869.4 1749.87,-869.4 1749.87,4 -4,4"/>
<!-- 6 -->
<g id="node1" class="node">
<title>6</title>
<polygon fill="#f2f2f2" stroke="black" points="0,-145.7 0,-864.9 1139.38,-864.9 1139.38,-145.7 0,-145.7"/>
<text text-anchor="middle" x="569.69" y="-848.3" font-family="Courier New" font-size="14.00">MasterWOTokenStrategy &lt;&lt;Contract&gt;&gt;</text>
<polyline fill="none" stroke="black" points="0,-840.1 1139.38,-840.1 "/>
<text text-anchor="middle" x="37.4" y="-823.5" font-family="Courier New" font-size="14.00">slot</text>
<polyline fill="none" stroke="black" points="0,-815.3 74.81,-815.3 "/>
<text text-anchor="middle" x="37.4" y="-798.7" font-family="Courier New" font-size="14.00">0</text>
<polyline fill="none" stroke="black" points="0,-790.5 74.81,-790.5 "/>
<text text-anchor="middle" x="37.4" y="-773.9" font-family="Courier New" font-size="14.00">1</text>
<polyline fill="none" stroke="black" points="0,-765.7 74.81,-765.7 "/>
<text text-anchor="middle" x="37.4" y="-749.1" font-family="Courier New" font-size="14.00">2</text>
<polyline fill="none" stroke="black" points="0,-740.9 74.81,-740.9 "/>
<text text-anchor="middle" x="37.4" y="-724.3" font-family="Courier New" font-size="14.00">3</text>
<polyline fill="none" stroke="black" points="0,-716.1 74.81,-716.1 "/>
<text text-anchor="middle" x="37.4" y="-699.5" font-family="Courier New" font-size="14.00">4</text>
<polyline fill="none" stroke="black" points="0,-691.3 74.81,-691.3 "/>
<text text-anchor="middle" x="37.4" y="-674.7" font-family="Courier New" font-size="14.00">5&#45;54</text>
<polyline fill="none" stroke="black" points="0,-666.5 74.81,-666.5 "/>
<text text-anchor="middle" x="37.4" y="-649.9" font-family="Courier New" font-size="14.00">55</text>
<polyline fill="none" stroke="black" points="0,-641.7 74.81,-641.7 "/>
<text text-anchor="middle" x="37.4" y="-625.1" font-family="Courier New" font-size="14.00">56&#45;105</text>
<polyline fill="none" stroke="black" points="0,-616.9 74.81,-616.9 "/>
<text text-anchor="middle" x="37.4" y="-600.3" font-family="Courier New" font-size="14.00">106</text>
<polyline fill="none" stroke="black" points="0,-592.1 74.81,-592.1 "/>
<text text-anchor="middle" x="37.4" y="-575.5" font-family="Courier New" font-size="14.00">107</text>
<polyline fill="none" stroke="black" points="0,-567.3 74.81,-567.3 "/>
<text text-anchor="middle" x="37.4" y="-550.7" font-family="Courier New" font-size="14.00">108</text>
<polyline fill="none" stroke="black" points="0,-542.5 74.81,-542.5 "/>
<text text-anchor="middle" x="37.4" y="-525.9" font-family="Courier New" font-size="14.00">109</text>
<polyline fill="none" stroke="black" points="0,-517.7 74.81,-517.7 "/>
<text text-anchor="middle" x="37.4" y="-501.1" font-family="Courier New" font-size="14.00">110</text>
<polyline fill="none" stroke="black" points="0,-492.9 74.81,-492.9 "/>
<text text-anchor="middle" x="37.4" y="-476.3" font-family="Courier New" font-size="14.00">111</text>
<polyline fill="none" stroke="black" points="0,-468.1 74.81,-468.1 "/>
<text text-anchor="middle" x="37.4" y="-451.5" font-family="Courier New" font-size="14.00">112</text>
<polyline fill="none" stroke="black" points="0,-443.3 74.81,-443.3 "/>
<text text-anchor="middle" x="37.4" y="-426.7" font-family="Courier New" font-size="14.00">113</text>
<polyline fill="none" stroke="black" points="0,-418.5 74.81,-418.5 "/>
<text text-anchor="middle" x="37.4" y="-401.9" font-family="Courier New" font-size="14.00">114&#45;211</text>
<polyline fill="none" stroke="black" points="0,-393.7 74.81,-393.7 "/>
<text text-anchor="middle" x="37.4" y="-377.1" font-family="Courier New" font-size="14.00">212</text>
<polyline fill="none" stroke="black" points="0,-368.9 74.81,-368.9 "/>
<text text-anchor="middle" x="37.4" y="-352.3" font-family="Courier New" font-size="14.00">213</text>
<polyline fill="none" stroke="black" points="0,-344.1 74.81,-344.1 "/>
<text text-anchor="middle" x="37.4" y="-327.5" font-family="Courier New" font-size="14.00">214</text>
<polyline fill="none" stroke="black" points="0,-319.3 74.81,-319.3 "/>
<text text-anchor="middle" x="37.4" y="-302.7" font-family="Courier New" font-size="14.00">215</text>
<polyline fill="none" stroke="black" points="0,-294.5 74.81,-294.5 "/>
<text text-anchor="middle" x="37.4" y="-277.9" font-family="Courier New" font-size="14.00">216&#45;265</text>
<polyline fill="none" stroke="black" points="0,-269.7 74.81,-269.7 "/>
<text text-anchor="middle" x="37.4" y="-253.1" font-family="Courier New" font-size="14.00">266</text>
<polyline fill="none" stroke="black" points="0,-244.9 74.81,-244.9 "/>
<text text-anchor="middle" x="37.4" y="-228.3" font-family="Courier New" font-size="14.00">267</text>
<polyline fill="none" stroke="black" points="0,-220.1 74.81,-220.1 "/>
<text text-anchor="middle" x="37.4" y="-203.5" font-family="Courier New" font-size="14.00">268</text>
<polyline fill="none" stroke="black" points="0,-195.3 74.81,-195.3 "/>
<text text-anchor="middle" x="37.4" y="-178.7" font-family="Courier New" font-size="14.00">269</text>
<polyline fill="none" stroke="black" points="0,-170.5 74.81,-170.5 "/>
<text text-anchor="middle" x="37.4" y="-153.9" font-family="Courier New" font-size="14.00">270&#45;310</text>
<polyline fill="none" stroke="black" points="74.81,-145.7 74.81,-840.1 "/>
<text text-anchor="middle" x="607.09" y="-823.5" font-family="Courier New" font-size="14.00">type: &lt;inherited contract&gt;.variable (bytes)</text>
<polyline fill="none" stroke="black" points="74.81,-815.3 1139.38,-815.3 "/>
<text text-anchor="middle" x="252.52" y="-798.7" font-family="Courier New" font-size="14.00">unallocated (12)</text>
<polyline fill="none" stroke="black" points="430.23,-790.5 430.23,-815.3 "/>
<text text-anchor="middle" x="784.37" y="-798.7" font-family="Courier New" font-size="14.00">address: AbstractCrossChainV3Strategy.outboundAdapter (20)</text>
<polyline fill="none" stroke="black" points="74.81,-790.5 1139.38,-790.5 "/>
<text text-anchor="middle" x="254.52" y="-773.9" font-family="Courier New" font-size="14.00">unallocated (12)</text>
<polyline fill="none" stroke="black" points="434.23,-765.7 434.23,-790.5 "/>
<text text-anchor="middle" x="786.67" y="-773.9" font-family="Courier New" font-size="14.00">address: AbstractCrossChainV3Strategy.inboundAdapter (20)</text>
<polyline fill="none" stroke="black" points="74.81,-765.7 1139.38,-765.7 "/>
<text text-anchor="middle" x="145.82" y="-749.1" font-family="Courier New" font-size="14.00">unallocated (4)</text>
<polyline fill="none" stroke="black" points="216.83,-740.9 216.83,-765.7 "/>
<text text-anchor="middle" x="455.87" y="-749.1" font-family="Courier New" font-size="14.00">uint64: AbstractCrossChainV3Strategy.lastYieldNonce (8)</text>
<polyline fill="none" stroke="black" points="694.91,-740.9 694.91,-765.7 "/>
<text text-anchor="middle" x="917.14" y="-749.1" font-family="Courier New" font-size="14.00">address: AbstractCrossChainV3Strategy.operator (20)</text>
<polyline fill="none" stroke="black" points="74.81,-740.9 1139.38,-740.9 "/>
<text text-anchor="middle" x="607.06" y="-724.3" font-family="Courier New" font-size="14.00">mapping(uint64=&gt;bool): AbstractCrossChainV3Strategy.nonceProcessed (32)</text>
<polyline fill="none" stroke="black" points="74.81,-716.1 1139.38,-716.1 "/>
<text text-anchor="middle" x="606.96" y="-699.5" font-family="Courier New" font-size="14.00">uint256: AbstractCrossChainV3Strategy.lastBalanceCheckTimestamp (32)</text>
<polyline fill="none" stroke="black" points="74.81,-691.3 1139.38,-691.3 "/>
<text text-anchor="middle" x="606.65" y="-674.7" font-family="Courier New" font-size="14.00">uint256[50]: AbstractCrossChainV3Strategy.__gap (1600)</text>
<polyline fill="none" stroke="black" points="74.81,-666.5 1139.38,-666.5 "/>
<text text-anchor="middle" x="197.52" y="-649.9" font-family="Courier New" font-size="14.00">unallocated (30)</text>
<polyline fill="none" stroke="black" points="320.23,-641.7 320.23,-666.5 "/>
<text text-anchor="middle" x="526.96" y="-649.9" font-family="Courier New" font-size="14.00">bool: Initializable.initializing (1)</text>
<polyline fill="none" stroke="black" points="733.68,-641.7 733.68,-666.5 "/>
<text text-anchor="middle" x="936.2" y="-649.9" font-family="Courier New" font-size="14.00">bool: Initializable.initialized (1)</text>
<polyline fill="none" stroke="black" points="74.81,-641.7 1139.38,-641.7 "/>
<text text-anchor="middle" x="606.94" y="-625.1" font-family="Courier New" font-size="14.00">uint256[50]: Initializable.______gap (1600)</text>
<polyline fill="none" stroke="black" points="74.81,-616.9 1139.38,-616.9 "/>
<text text-anchor="middle" x="225.02" y="-600.3" font-family="Courier New" font-size="14.00">unallocated (12)</text>
<polyline fill="none" stroke="black" points="375.23,-592.1 375.23,-616.9 "/>
<text text-anchor="middle" x="756.98" y="-600.3" font-family="Courier New" font-size="14.00">address: InitializableAbstractStrategy._deprecated_platformAddress (20)</text>
<polyline fill="none" stroke="black" points="74.81,-592.1 1139.38,-592.1 "/>
<text text-anchor="middle" x="231.52" y="-575.5" font-family="Courier New" font-size="14.00">unallocated (12)</text>
<polyline fill="none" stroke="black" points="388.23,-567.3 388.23,-592.1 "/>
<text text-anchor="middle" x="763.38" y="-575.5" font-family="Courier New" font-size="14.00">address: InitializableAbstractStrategy._deprecated_vaultAddress (20)</text>
<polyline fill="none" stroke="black" points="74.81,-567.3 1139.38,-567.3 "/>
<text text-anchor="middle" x="606.86" y="-550.7" font-family="Courier New" font-size="14.00">mapping(address=&gt;address): InitializableAbstractStrategy.assetToPToken (32)</text>
<polyline fill="none" stroke="black" points="74.81,-542.5 1139.38,-542.5 "/>
<text text-anchor="middle" x="606.95" y="-525.9" font-family="Courier New" font-size="14.00">address[]: InitializableAbstractStrategy.assetsMapped (32)</text>
<polyline fill="none" stroke="black" points="74.81,-517.7 1139.38,-517.7 "/>
<text text-anchor="middle" x="219.02" y="-501.1" font-family="Courier New" font-size="14.00">unallocated (12)</text>
<polyline fill="none" stroke="black" points="363.23,-492.9 363.23,-517.7 "/>
<text text-anchor="middle" x="751.08" y="-501.1" font-family="Courier New" font-size="14.00">address: InitializableAbstractStrategy._deprecated_rewardTokenAddress (20)</text>
<polyline fill="none" stroke="black" points="74.81,-492.9 1139.38,-492.9 "/>
<text text-anchor="middle" x="606.77" y="-476.3" font-family="Courier New" font-size="14.00">uint256: InitializableAbstractStrategy._deprecated_rewardLiquidationThreshold (32)</text>
<polyline fill="none" stroke="black" points="74.81,-468.1 1139.38,-468.1 "/>
<text text-anchor="middle" x="248.52" y="-451.5" font-family="Courier New" font-size="14.00">unallocated (12)</text>
<polyline fill="none" stroke="black" points="422.23,-443.3 422.23,-468.1 "/>
<text text-anchor="middle" x="780.77" y="-451.5" font-family="Courier New" font-size="14.00">address: InitializableAbstractStrategy.harvesterAddress (20)</text>
<polyline fill="none" stroke="black" points="74.81,-443.3 1139.38,-443.3 "/>
<text text-anchor="middle" x="607.05" y="-426.7" font-family="Courier New" font-size="14.00">address[]: InitializableAbstractStrategy.rewardTokenAddresses (32)</text>
<polyline fill="none" stroke="black" points="74.81,-418.5 1139.38,-418.5 "/>
<text text-anchor="middle" x="606.95" y="-401.9" font-family="Courier New" font-size="14.00">int256[98]: InitializableAbstractStrategy._reserved (3136)</text>
<polyline fill="none" stroke="black" points="74.81,-393.7 1139.38,-393.7 "/>
<text text-anchor="middle" x="606.95" y="-377.1" font-family="Courier New" font-size="14.00">int256: AbstractWOTokenStrategy.bridgeAdjustment (32)</text>
<polyline fill="none" stroke="black" points="74.81,-368.9 1139.38,-368.9 "/>
<text text-anchor="middle" x="606.86" y="-352.3" font-family="Courier New" font-size="14.00">mapping(bytes32=&gt;bool): AbstractWOTokenStrategy.consumedBridgeIds (32)</text>
<polyline fill="none" stroke="black" points="74.81,-344.1 1139.38,-344.1 "/>
<text text-anchor="middle" x="606.95" y="-327.5" font-family="Courier New" font-size="14.00">uint256: AbstractWOTokenStrategy.bridgeIdCounter (32)</text>
<polyline fill="none" stroke="black" points="74.81,-319.3 1139.38,-319.3 "/>
<text text-anchor="middle" x="606.84" y="-302.7" font-family="Courier New" font-size="14.00">uint256: AbstractWOTokenStrategy.bridgeFeeBps (32)</text>
<polyline fill="none" stroke="black" points="74.81,-294.5 1139.38,-294.5 "/>
<text text-anchor="middle" x="606.64" y="-277.9" font-family="Courier New" font-size="14.00">uint256[50]: AbstractWOTokenStrategy.__gap (1600)</text>
<polyline fill="none" stroke="black" points="74.81,-269.7 1139.38,-269.7 "/>
<text text-anchor="middle" x="606.83" y="-253.1" font-family="Courier New" font-size="14.00">uint256: remoteStrategyBalance (32)</text>
<polyline fill="none" stroke="black" points="74.81,-244.9 1139.38,-244.9 "/>
<text text-anchor="middle" x="606.63" y="-228.3" font-family="Courier New" font-size="14.00">uint256: pendingDepositAmount (32)</text>
<polyline fill="none" stroke="black" points="74.81,-220.1 1139.38,-220.1 "/>
<text text-anchor="middle" x="606.73" y="-203.5" font-family="Courier New" font-size="14.00">uint256: pendingWithdrawalAmount (32)</text>
<polyline fill="none" stroke="black" points="74.81,-195.3 1139.38,-195.3 "/>
<text text-anchor="middle" x="607.03" y="-178.7" font-family="Courier New" font-size="14.00">int256: settlementSnapshot (32)</text>
<polyline fill="none" stroke="black" points="74.81,-170.5 1139.38,-170.5 "/>
<text text-anchor="middle" x="606.83" y="-153.9" font-family="Courier New" font-size="14.00">uint256[41]: __gap (1312)</text>
</g>
<!-- 1 -->
<g id="node2" class="node">
<title>1</title>
<polygon fill="#f2f2f2" stroke="black" points="1335,-605.5 1335,-779.1 1586.24,-779.1 1586.24,-605.5 1335,-605.5"/>
<text text-anchor="middle" x="1460.62" y="-762.5" font-family="Courier New" font-size="14.00">uint256[50]: __gap &lt;&lt;Array&gt;&gt;</text>
<polyline fill="none" stroke="black" points="1335,-754.3 1586.24,-754.3 "/>
<text text-anchor="middle" x="1359.8" y="-737.7" font-family="Courier New" font-size="14.00">slot</text>
<polyline fill="none" stroke="black" points="1335,-729.5 1384.61,-729.5 "/>
<text text-anchor="middle" x="1359.8" y="-712.9" font-family="Courier New" font-size="14.00">5</text>
<polyline fill="none" stroke="black" points="1335,-704.7 1384.61,-704.7 "/>
<text text-anchor="middle" x="1359.8" y="-688.1" font-family="Courier New" font-size="14.00">6</text>
<polyline fill="none" stroke="black" points="1335,-679.9 1384.61,-679.9 "/>
<text text-anchor="middle" x="1359.8" y="-663.3" font-family="Courier New" font-size="14.00">7&#45;52</text>
<polyline fill="none" stroke="black" points="1335,-655.1 1384.61,-655.1 "/>
<text text-anchor="middle" x="1359.8" y="-638.5" font-family="Courier New" font-size="14.00">53</text>
<polyline fill="none" stroke="black" points="1335,-630.3 1384.61,-630.3 "/>
<text text-anchor="middle" x="1359.8" y="-613.7" font-family="Courier New" font-size="14.00">54</text>
<polyline fill="none" stroke="black" points="1384.61,-605.5 1384.61,-754.3 "/>
<text text-anchor="middle" x="1485.02" y="-737.7" font-family="Courier New" font-size="14.00">type: variable (bytes)</text>
<polyline fill="none" stroke="black" points="1384.61,-729.5 1585.44,-729.5 "/>
<text text-anchor="middle" x="1485.01" y="-712.9" font-family="Courier New" font-size="14.00">uint256 (32)</text>
<polyline fill="none" stroke="black" points="1384.61,-704.7 1585.44,-704.7 "/>
<text text-anchor="middle" x="1485.01" y="-688.1" font-family="Courier New" font-size="14.00">uint256 (32)</text>
<polyline fill="none" stroke="black" points="1384.61,-679.9 1585.44,-679.9 "/>
<text text-anchor="middle" x="1484.81" y="-663.3" font-family="Courier New" font-size="14.00">&#45;&#45;&#45;&#45; (1472)</text>
<polyline fill="none" stroke="black" points="1384.61,-655.1 1585.44,-655.1 "/>
<text text-anchor="middle" x="1485.01" y="-638.5" font-family="Courier New" font-size="14.00">uint256 (32)</text>
<polyline fill="none" stroke="black" points="1384.61,-630.3 1585.44,-630.3 "/>
<text text-anchor="middle" x="1485.01" y="-613.7" font-family="Courier New" font-size="14.00">uint256 (32)</text>
</g>
<!-- 6&#45;&gt;1 -->
<g id="edge1" class="edge">
<title>6:12&#45;&gt;1</title>
<path fill="none" stroke="black" d="M1139.38,-679.3C1200.27,-679.3 1267.62,-681.68 1324.78,-684.4"/>
<polygon fill="black" stroke="black" points="1324.8,-687.9 1334.96,-684.89 1325.14,-680.91 1324.8,-687.9"/>
</g>
<!-- 2 -->
<g id="node3" class="node">
<title>2</title>
<polygon fill="#f2f2f2" stroke="black" points="1175.38,-495.7 1175.38,-586.9 1745.87,-586.9 1745.87,-495.7 1175.38,-495.7"/>
<text text-anchor="middle" x="1460.62" y="-570.3" font-family="Courier New" font-size="14.00">address[]: assetsMapped &lt;&lt;Array&gt;&gt;</text>
<text text-anchor="middle" x="1460.62" y="-553.5" font-family="Courier New" font-size="14.00">0x5006b838207c6a9ae9b84d68f467dd4bb5c305fbfb6b04eab8faaabeec1e18d8</text>
<polyline fill="none" stroke="black" points="1175.38,-545.3 1745.87,-545.3 "/>
<text text-anchor="middle" x="1267.58" y="-528.7" font-family="Courier New" font-size="14.00">offset</text>
<polyline fill="none" stroke="black" points="1175.38,-520.5 1359.78,-520.5 "/>
<text text-anchor="middle" x="1267.58" y="-503.9" font-family="Courier New" font-size="14.00">0</text>
<polyline fill="none" stroke="black" points="1359.78,-495.7 1359.78,-545.3 "/>
<text text-anchor="middle" x="1552.4" y="-528.7" font-family="Courier New" font-size="14.00">type: variable (bytes)</text>
<polyline fill="none" stroke="black" points="1359.78,-520.5 1745.02,-520.5 "/>
<text text-anchor="middle" x="1464.49" y="-503.9" font-family="Courier New" font-size="14.00">unallocated (12)</text>
<polyline fill="none" stroke="black" points="1569.21,-495.7 1569.21,-520.5 "/>
<text text-anchor="middle" x="1657.11" y="-503.9" font-family="Courier New" font-size="14.00">address (20)</text>
</g>
<!-- 6&#45;&gt;2 -->
<g id="edge2" class="edge">
<title>6:20&#45;&gt;2</title>
<path fill="none" stroke="black" d="M1139.38,-530.3C1147.77,-530.3 1156.29,-530.34 1164.89,-530.41"/>
<polygon fill="black" stroke="black" points="1164.99,-533.91 1175.02,-530.51 1165.05,-526.91 1164.99,-533.91"/>
</g>
<!-- 3 -->
<g id="node4" class="node">
<title>3</title>
<polygon fill="#f2f2f2" stroke="black" points="1175.38,-385.7 1175.38,-476.9 1745.87,-476.9 1745.87,-385.7 1175.38,-385.7"/>
<text text-anchor="middle" x="1460.62" y="-460.3" font-family="Courier New" font-size="14.00">address[]: rewardTokenAddresses &lt;&lt;Array&gt;&gt;</text>
<text text-anchor="middle" x="1460.62" y="-443.5" font-family="Courier New" font-size="14.00">0xa1fcd19bfe8c32a61095b6bfbb2664842857e148fcbb5188386c8cd40348d5b6</text>
<polyline fill="none" stroke="black" points="1175.38,-435.3 1745.87,-435.3 "/>
<text text-anchor="middle" x="1267.58" y="-418.7" font-family="Courier New" font-size="14.00">offset</text>
<polyline fill="none" stroke="black" points="1175.38,-410.5 1359.78,-410.5 "/>
<text text-anchor="middle" x="1267.58" y="-393.9" font-family="Courier New" font-size="14.00">0</text>
<polyline fill="none" stroke="black" points="1359.78,-385.7 1359.78,-435.3 "/>
<text text-anchor="middle" x="1552.4" y="-418.7" font-family="Courier New" font-size="14.00">type: variable (bytes)</text>
<polyline fill="none" stroke="black" points="1359.78,-410.5 1745.02,-410.5 "/>
<text text-anchor="middle" x="1464.49" y="-393.9" font-family="Courier New" font-size="14.00">unallocated (12)</text>
<polyline fill="none" stroke="black" points="1569.21,-385.7 1569.21,-410.5 "/>
<text text-anchor="middle" x="1657.11" y="-393.9" font-family="Courier New" font-size="14.00">address (20)</text>
</g>
<!-- 6&#45;&gt;3 -->
<g id="edge3" class="edge">
<title>6:25&#45;&gt;3</title>
<path fill="none" stroke="black" d="M1139.38,-431.3C1147.77,-431.3 1156.28,-431.3 1164.88,-431.3"/>
<polygon fill="black" stroke="black" points="1165,-434.8 1175,-431.3 1165,-427.8 1165,-434.8"/>
</g>
<!-- 4 -->
<g id="node5" class="node">
<title>4</title>
<polygon fill="#f2f2f2" stroke="black" points="1322.8,-193.5 1322.8,-367.1 1598.44,-367.1 1598.44,-193.5 1322.8,-193.5"/>
<text text-anchor="middle" x="1460.62" y="-350.5" font-family="Courier New" font-size="14.00">uint256[50]: __gap &lt;&lt;Array&gt;&gt;</text>
<polyline fill="none" stroke="black" points="1322.8,-342.3 1598.44,-342.3 "/>
<text text-anchor="middle" x="1360.21" y="-325.7" font-family="Courier New" font-size="14.00">slot</text>
<polyline fill="none" stroke="black" points="1322.8,-317.5 1397.61,-317.5 "/>
<text text-anchor="middle" x="1360.21" y="-300.9" font-family="Courier New" font-size="14.00">216</text>
<polyline fill="none" stroke="black" points="1322.8,-292.7 1397.61,-292.7 "/>
<text text-anchor="middle" x="1360.21" y="-276.1" font-family="Courier New" font-size="14.00">217</text>
<polyline fill="none" stroke="black" points="1322.8,-267.9 1397.61,-267.9 "/>
<text text-anchor="middle" x="1360.21" y="-251.3" font-family="Courier New" font-size="14.00">218&#45;263</text>
<polyline fill="none" stroke="black" points="1322.8,-243.1 1397.61,-243.1 "/>
<text text-anchor="middle" x="1360.21" y="-226.5" font-family="Courier New" font-size="14.00">264</text>
<polyline fill="none" stroke="black" points="1322.8,-218.3 1397.61,-218.3 "/>
<text text-anchor="middle" x="1360.21" y="-201.7" font-family="Courier New" font-size="14.00">265</text>
<polyline fill="none" stroke="black" points="1397.61,-193.5 1397.61,-342.3 "/>
<text text-anchor="middle" x="1498.02" y="-325.7" font-family="Courier New" font-size="14.00">type: variable (bytes)</text>
<polyline fill="none" stroke="black" points="1397.61,-317.5 1598.44,-317.5 "/>
<text text-anchor="middle" x="1498.02" y="-300.9" font-family="Courier New" font-size="14.00">uint256 (32)</text>
<polyline fill="none" stroke="black" points="1397.61,-292.7 1598.44,-292.7 "/>
<text text-anchor="middle" x="1498.02" y="-276.1" font-family="Courier New" font-size="14.00">uint256 (32)</text>
<polyline fill="none" stroke="black" points="1397.61,-267.9 1598.44,-267.9 "/>
<text text-anchor="middle" x="1497.82" y="-251.3" font-family="Courier New" font-size="14.00">&#45;&#45;&#45;&#45; (1472)</text>
<polyline fill="none" stroke="black" points="1397.61,-243.1 1598.44,-243.1 "/>
<text text-anchor="middle" x="1498.02" y="-226.5" font-family="Courier New" font-size="14.00">uint256 (32)</text>
<polyline fill="none" stroke="black" points="1397.61,-218.3 1598.44,-218.3 "/>
<text text-anchor="middle" x="1498.02" y="-201.7" font-family="Courier New" font-size="14.00">uint256 (32)</text>
</g>
<!-- 6&#45;&gt;4 -->
<g id="edge4" class="edge">
<title>6:36&#45;&gt;4</title>
<path fill="none" stroke="black" d="M1139.38,-282.3C1195.9,-282.3 1258.04,-281.98 1312.42,-281.6"/>
<polygon fill="black" stroke="black" points="1312.51,-285.1 1322.48,-281.53 1312.46,-278.1 1312.51,-285.1"/>
</g>
<!-- 5 -->
<g id="node6" class="node">
<title>5</title>
<polygon fill="#f2f2f2" stroke="black" points="1322.8,-0.5 1322.8,-174.1 1598.44,-174.1 1598.44,-0.5 1322.8,-0.5"/>
<text text-anchor="middle" x="1460.62" y="-157.5" font-family="Courier New" font-size="14.00">uint256[41]: __gap &lt;&lt;Array&gt;&gt;</text>
<polyline fill="none" stroke="black" points="1322.8,-149.3 1598.44,-149.3 "/>
<text text-anchor="middle" x="1360.21" y="-132.7" font-family="Courier New" font-size="14.00">slot</text>
<polyline fill="none" stroke="black" points="1322.8,-124.5 1397.61,-124.5 "/>
<text text-anchor="middle" x="1360.21" y="-107.9" font-family="Courier New" font-size="14.00">270</text>
<polyline fill="none" stroke="black" points="1322.8,-99.7 1397.61,-99.7 "/>
<text text-anchor="middle" x="1360.21" y="-83.1" font-family="Courier New" font-size="14.00">271</text>
<polyline fill="none" stroke="black" points="1322.8,-74.9 1397.61,-74.9 "/>
<text text-anchor="middle" x="1360.21" y="-58.3" font-family="Courier New" font-size="14.00">272&#45;308</text>
<polyline fill="none" stroke="black" points="1322.8,-50.1 1397.61,-50.1 "/>
<text text-anchor="middle" x="1360.21" y="-33.5" font-family="Courier New" font-size="14.00">309</text>
<polyline fill="none" stroke="black" points="1322.8,-25.3 1397.61,-25.3 "/>
<text text-anchor="middle" x="1360.21" y="-8.7" font-family="Courier New" font-size="14.00">310</text>
<polyline fill="none" stroke="black" points="1397.61,-0.5 1397.61,-149.3 "/>
<text text-anchor="middle" x="1498.02" y="-132.7" font-family="Courier New" font-size="14.00">type: variable (bytes)</text>
<polyline fill="none" stroke="black" points="1397.61,-124.5 1598.44,-124.5 "/>
<text text-anchor="middle" x="1498.02" y="-107.9" font-family="Courier New" font-size="14.00">uint256 (32)</text>
<polyline fill="none" stroke="black" points="1397.61,-99.7 1598.44,-99.7 "/>
<text text-anchor="middle" x="1498.02" y="-83.1" font-family="Courier New" font-size="14.00">uint256 (32)</text>
<polyline fill="none" stroke="black" points="1397.61,-74.9 1598.44,-74.9 "/>
<text text-anchor="middle" x="1497.82" y="-58.3" font-family="Courier New" font-size="14.00">&#45;&#45;&#45;&#45; (1184)</text>
<polyline fill="none" stroke="black" points="1397.61,-50.1 1598.44,-50.1 "/>
<text text-anchor="middle" x="1498.02" y="-33.5" font-family="Courier New" font-size="14.00">uint256 (32)</text>
<polyline fill="none" stroke="black" points="1397.61,-25.3 1598.44,-25.3 "/>
<text text-anchor="middle" x="1498.02" y="-8.7" font-family="Courier New" font-size="14.00">uint256 (32)</text>
</g>
<!-- 6&#45;&gt;5 -->
<g id="edge5" class="edge">
<title>6:46&#45;&gt;5</title>
<path fill="none" stroke="black" d="M1139.38,-158.3C1196.87,-158.3 1258.83,-147.26 1312.79,-133.88"/>
<polygon fill="black" stroke="black" points="1313.93,-137.2 1322.77,-131.36 1312.21,-130.41 1313.93,-137.2"/>
</g>
</g>
</svg>
