<?xml version="1.0" encoding="UTF-8" standalone="no"?>
<!DOCTYPE svg PUBLIC "-//W3C//DTD SVG 1.1//EN"
 "http://www.w3.org/Graphics/SVG/1.1/DTD/svg11.dtd">
<!-- Generated by graphviz version 5.0.0 (20220707.1540)
 -->
<!-- Title: StorageDiagram Pages: 1 -->
<svg width="1411pt" height="277pt"
 viewBox="0.00 0.00 1411.00 276.80" xmlns="http://www.w3.org/2000/svg" xmlns:xlink="http://www.w3.org/1999/xlink">
<g id="graph0" class="graph" transform="scale(1 1) rotate(0) translate(4 272.8)">
<title>StorageDiagram</title>
<polygon fill="white" stroke="transparent" points="-4,4 -4,-272.8 1407,-272.8 1407,4 -4,4"/>
<!-- 5 -->
<g id="node1" class="node">
<title>5</title>
<polygon fill="#f2f2f2" stroke="black" points="0,-91.3 0,-240.1 426.86,-240.1 426.86,-91.3 0,-91.3"/>
<text text-anchor="middle" x="213.43" y="-223.5" font-family="Courier New" font-size="14.00">MixOracle &lt;&lt;Contract&gt;&gt;</text>
<polyline fill="none" stroke="black" points="0,-215.3 426.86,-215.3 "/>
<text text-anchor="middle" x="24.8" y="-198.7" font-family="Courier New" font-size="14.00">slot</text>
<polyline fill="none" stroke="black" points="0,-190.5 49.61,-190.5 "/>
<text text-anchor="middle" x="24.8" y="-173.9" font-family="Courier New" font-size="14.00">0</text>
<polyline fill="none" stroke="black" points="0,-165.7 49.61,-165.7 "/>
<text text-anchor="middle" x="24.8" y="-149.1" font-family="Courier New" font-size="14.00">1</text>
<polyline fill="none" stroke="black" points="0,-140.9 49.61,-140.9 "/>
<text text-anchor="middle" x="24.8" y="-124.3" font-family="Courier New" font-size="14.00">2</text>
<polyline fill="none" stroke="black" points="0,-116.1 49.61,-116.1 "/>
<text text-anchor="middle" x="24.8" y="-99.5" font-family="Courier New" font-size="14.00">3</text>
<polyline fill="none" stroke="black" points="49.61,-91.3 49.61,-215.3 "/>
<text text-anchor="middle" x="238.23" y="-198.7" font-family="Courier New" font-size="14.00">type: &lt;inherited contract&gt;.variable (bytes)</text>
<polyline fill="none" stroke="black" points="49.61,-190.5 426.86,-190.5 "/>
<text text-anchor="middle" x="237.93" y="-173.9" font-family="Courier New" font-size="14.00">address[]: ethUsdOracles (32)</text>
<polyline fill="none" stroke="black" points="49.61,-165.7 426.86,-165.7 "/>
<text text-anchor="middle" x="237.83" y="-149.1" font-family="Courier New" font-size="14.00">mapping(bytes32=&gt;MixConfig): configs (32)</text>
<polyline fill="none" stroke="black" points="49.61,-140.9 426.86,-140.9 "/>
<text text-anchor="middle" x="238.02" y="-124.3" font-family="Courier New" font-size="14.00">uint256: maxDrift (32)</text>
<polyline fill="none" stroke="black" points="49.61,-116.1 426.86,-116.1 "/>
<text text-anchor="middle" x="238.02" y="-99.5" font-family="Courier New" font-size="14.00">uint256: minDrift (32)</text>
</g>
<!-- 1 -->
<g id="node2" class="node">
<title>1</title>
<polygon fill="#f2f2f2" stroke="black" points="462.86,-177.1 462.86,-268.3 1033.35,-268.3 1033.35,-177.1 462.86,-177.1"/>
<text text-anchor="middle" x="748.11" y="-251.7" font-family="Courier New" font-size="14.00">address[]: ethUsdOracles &lt;&lt;Array&gt;&gt;</text>
<text text-anchor="middle" x="748.11" y="-234.9" font-family="Courier New" font-size="14.00">0x290decd9548b62a8d60345a988386fc84ba6bc95484008f6362f93160ef3e563</text>
<polyline fill="none" stroke="black" points="462.86,-226.7 1033.35,-226.7 "/>
<text text-anchor="middle" x="555.07" y="-210.1" font-family="Courier New" font-size="14.00">offset</text>
<polyline fill="none" stroke="black" points="462.86,-201.9 647.27,-201.9 "/>
<text text-anchor="middle" x="555.07" y="-185.3" font-family="Courier New" font-size="14.00">0</text>
<polyline fill="none" stroke="black" points="647.27,-177.1 647.27,-226.7 "/>
<text text-anchor="middle" x="839.89" y="-210.1" font-family="Courier New" font-size="14.00">type: variable (bytes)</text>
<polyline fill="none" stroke="black" points="647.27,-201.9 1032.51,-201.9 "/>
<text text-anchor="middle" x="751.98" y="-185.3" font-family="Courier New" font-size="14.00">unallocated (12)</text>
<polyline fill="none" stroke="black" points="856.69,-177.1 856.69,-201.9 "/>
<text text-anchor="middle" x="944.6" y="-185.3" font-family="Courier New" font-size="14.00">address (20)</text>
</g>
<!-- 5&#45;&gt;1 -->
<g id="edge1" class="edge">
<title>5:2&#45;&gt;1</title>
<path fill="none" stroke="black" d="M426.86,-177.7C435.34,-177.7 443.93,-177.86 452.59,-178.15"/>
<polygon fill="black" stroke="black" points="452.65,-181.66 462.78,-178.56 452.93,-174.66 452.65,-181.66"/>
</g>
<!-- 4 -->
<g id="node5" class="node">
<title>4</title>
<polygon fill="#f2f2f2" stroke="black" points="597.69,-59.1 597.69,-158.3 898.53,-158.3 898.53,-59.1 597.69,-59.1"/>
<text text-anchor="middle" x="748.11" y="-141.7" font-family="Courier New" font-size="14.00">MixConfig &lt;&lt;Struct&gt;&gt;</text>
<polyline fill="none" stroke="black" points="597.69,-133.5 898.53,-133.5 "/>
<text text-anchor="middle" x="630.89" y="-116.9" font-family="Courier New" font-size="14.00">offset</text>
<polyline fill="none" stroke="black" points="597.69,-108.7 664.1,-108.7 "/>
<text text-anchor="middle" x="630.89" y="-92.1" font-family="Courier New" font-size="14.00">0</text>
<polyline fill="none" stroke="black" points="597.69,-83.9 664.1,-83.9 "/>
<text text-anchor="middle" x="630.89" y="-67.3" font-family="Courier New" font-size="14.00">1</text>
<polyline fill="none" stroke="black" points="664.1,-59.1 664.1,-133.5 "/>
<text text-anchor="middle" x="781.31" y="-116.9" font-family="Courier New" font-size="14.00">type: variable (bytes)</text>
<polyline fill="none" stroke="black" points="664.1,-108.7 898.53,-108.7 "/>
<text text-anchor="middle" x="781.31" y="-92.1" font-family="Courier New" font-size="14.00">address[]: usdOracles (32)</text>
<polyline fill="none" stroke="black" points="664.1,-83.9 898.53,-83.9 "/>
<text text-anchor="middle" x="781.31" y="-67.3" font-family="Courier New" font-size="14.00">address[]: ethOracles (32)</text>
</g>
<!-- 5&#45;&gt;4 -->
<g id="edge2" class="edge">
<title>5:7&#45;&gt;4</title>
<path fill="none" stroke="black" d="M426.86,-153.7C479.37,-153.7 536.25,-147.7 587.3,-140.07"/>
<polygon fill="black" stroke="black" points="588.07,-143.5 597.43,-138.53 587.01,-136.58 588.07,-143.5"/>
</g>
<!-- 2 -->
<g id="node3" class="node">
<title>2</title>
<polygon fill="#f2f2f2" stroke="black" points="1069.35,-93.5 1069.35,-167.9 1403,-167.9 1403,-93.5 1069.35,-93.5"/>
<text text-anchor="middle" x="1236.18" y="-151.3" font-family="Courier New" font-size="14.00">address[]: usdOracles &lt;&lt;Array&gt;&gt;</text>
<polyline fill="none" stroke="black" points="1069.35,-143.1 1403,-143.1 "/>
<text text-anchor="middle" x="1102.56" y="-126.5" font-family="Courier New" font-size="14.00">offset</text>
<polyline fill="none" stroke="black" points="1069.35,-118.3 1135.76,-118.3 "/>
<text text-anchor="middle" x="1102.56" y="-101.7" font-family="Courier New" font-size="14.00">0</text>
<polyline fill="none" stroke="black" points="1135.76,-93.5 1135.76,-143.1 "/>
<text text-anchor="middle" x="1269.38" y="-126.5" font-family="Courier New" font-size="14.00">type: variable (bytes)</text>
<polyline fill="none" stroke="black" points="1135.76,-118.3 1403,-118.3 "/>
<text text-anchor="middle" x="1210.97" y="-101.7" font-family="Courier New" font-size="14.00">unallocated (12)</text>
<polyline fill="none" stroke="black" points="1286.18,-93.5 1286.18,-118.3 "/>
<text text-anchor="middle" x="1344.59" y="-101.7" font-family="Courier New" font-size="14.00">address (20)</text>
</g>
<!-- 3 -->
<g id="node4" class="node">
<title>3</title>
<polygon fill="#f2f2f2" stroke="black" points="1069.35,-0.5 1069.35,-74.9 1403,-74.9 1403,-0.5 1069.35,-0.5"/>
<text text-anchor="middle" x="1236.18" y="-58.3" font-family="Courier New" font-size="14.00">address[]: ethOracles &lt;&lt;Array&gt;&gt;</text>
<polyline fill="none" stroke="black" points="1069.35,-50.1 1403,-50.1 "/>
<text text-anchor="middle" x="1102.56" y="-33.5" font-family="Courier New" font-size="14.00">offset</text>
<polyline fill="none" stroke="black" points="1069.35,-25.3 1135.76,-25.3 "/>
<text text-anchor="middle" x="1102.56" y="-8.7" font-family="Courier New" font-size="14.00">0</text>
<polyline fill="none" stroke="black" points="1135.76,-0.5 1135.76,-50.1 "/>
<text text-anchor="middle" x="1269.38" y="-33.5" font-family="Courier New" font-size="14.00">type: variable (bytes)</text>
<polyline fill="none" stroke="black" points="1135.76,-25.3 1403,-25.3 "/>
<text text-anchor="middle" x="1210.97" y="-8.7" font-family="Courier New" font-size="14.00">unallocated (12)</text>
<polyline fill="none" stroke="black" points="1286.18,-0.5 1286.18,-25.3 "/>
<text text-anchor="middle" x="1344.59" y="-8.7" font-family="Courier New" font-size="14.00">address (20)</text>
</g>
<!-- 4&#45;&gt;2 -->
<g id="edge3" class="edge">
<title>4:4&#45;&gt;2</title>
<path fill="none" stroke="black" d="M899.11,-96.7C951.2,-96.7 1007.6,-100.79 1059.06,-106.14"/>
<polygon fill="black" stroke="black" points="1058.96,-109.65 1069.28,-107.22 1059.7,-102.69 1058.96,-109.65"/>
</g>
<!-- 4&#45;&gt;3 -->
<g id="edge4" class="edge">
<title>4:6&#45;&gt;3</title>
<path fill="none" stroke="black" d="M899.11,-71.7C951.2,-71.7 1007.6,-67.61 1059.06,-62.26"/>
<polygon fill="black" stroke="black" points="1059.7,-65.71 1069.28,-61.18 1058.96,-58.75 1059.7,-65.71"/>
</g>
</g>
</svg>
