<?xml version="1.0" encoding="UTF-8" standalone="no"?>
<!DOCTYPE svg PUBLIC "-//W3C//DTD SVG 1.1//EN"
 "http://www.w3.org/Graphics/SVG/1.1/DTD/svg11.dtd">
<!-- Generated by graphviz version 5.0.0 (20220707.1540)
 -->
<!-- Title: UmlClassDiagram Pages: 1 -->
<svg width="1021pt" height="146pt"
 viewBox="0.00 0.00 1020.52 146.00" xmlns="http://www.w3.org/2000/svg" xmlns:xlink="http://www.w3.org/1999/xlink">
<g id="graph0" class="graph" transform="scale(1 1) rotate(0) translate(4 142)">
<title>UmlClassDiagram</title>
<polygon fill="white" stroke="transparent" points="-4,4 -4,-142 1016.52,-142 1016.52,4 -4,4"/>
<!-- 7 -->
<g id="node1" class="node">
<title>7</title>
<polygon fill="#f2f2f2" stroke="black" points="0,-87.5 0,-129.1 234.86,-129.1 234.86,-87.5 0,-87.5"/>
<text text-anchor="middle" x="117.43" y="-112.5" font-family="Times,serif" font-size="14.00">Governable</text>
<text text-anchor="middle" x="117.43" y="-95.7" font-family="Times,serif" font-size="14.00">../contracts/governance/Governable.sol</text>
</g>
<!-- 23 -->
<g id="node2" class="node">
<title>23</title>
<polygon fill="#f2f2f2" stroke="black" points="252.72,-79.1 252.72,-137.5 496.14,-137.5 496.14,-79.1 252.72,-79.1"/>
<text text-anchor="middle" x="374.43" y="-120.9" font-family="Times,serif" font-size="14.00">&lt;&lt;Interface&gt;&gt;</text>
<text text-anchor="middle" x="374.43" y="-104.1" font-family="Times,serif" font-size="14.00">IEthUsdOracle</text>
<text text-anchor="middle" x="374.43" y="-87.3" font-family="Times,serif" font-size="14.00">../contracts/interfaces/IEthUsdOracle.sol</text>
</g>
<!-- 28 -->
<g id="node3" class="node">
<title>28</title>
<polygon fill="#f2f2f2" stroke="black" points="514.22,-79.1 514.22,-137.5 764.64,-137.5 764.64,-79.1 514.22,-79.1"/>
<text text-anchor="middle" x="639.43" y="-120.9" font-family="Times,serif" font-size="14.00">&lt;&lt;Interface&gt;&gt;</text>
<text text-anchor="middle" x="639.43" y="-104.1" font-family="Times,serif" font-size="14.00">IMinMaxOracle</text>
<text text-anchor="middle" x="639.43" y="-87.3" font-family="Times,serif" font-size="14.00">../contracts/interfaces/IMinMaxOracle.sol</text>
</g>
<!-- 31 -->
<g id="node4" class="node">
<title>31</title>
<polygon fill="#f2f2f2" stroke="black" points="782.34,-79.1 782.34,-137.5 1012.52,-137.5 1012.52,-79.1 782.34,-79.1"/>
<text text-anchor="middle" x="897.43" y="-120.9" font-family="Times,serif" font-size="14.00">&lt;&lt;Interface&gt;&gt;</text>
<text text-anchor="middle" x="897.43" y="-104.1" font-family="Times,serif" font-size="14.00">IPriceOracle</text>
<text text-anchor="middle" x="897.43" y="-87.3" font-family="Times,serif" font-size="14.00">../contracts/interfaces/IPriceOracle.sol</text>
</g>
<!-- 78 -->
<g id="node5" class="node">
<title>78</title>
<polygon fill="#f2f2f2" stroke="black" points="274.49,-0.5 274.49,-42.1 474.37,-42.1 474.37,-0.5 274.49,-0.5"/>
<text text-anchor="middle" x="374.43" y="-25.5" font-family="Times,serif" font-size="14.00">MixOracle</text>
<text text-anchor="middle" x="374.43" y="-8.7" font-family="Times,serif" font-size="14.00">../contracts/oracle/MixOracle.sol</text>
</g>
<!-- 78&#45;&gt;7 -->
<g id="edge2" class="edge">
<title>78&#45;&gt;7</title>
<path fill="none" stroke="black" d="M314.5,-42.12C282.29,-52.78 241.94,-66.12 206.16,-77.95"/>
<polygon fill="none" stroke="black" points="202.64,-68.06 177.46,-87.45 209.24,-88 202.64,-68.06"/>
</g>
<!-- 78&#45;&gt;23 -->
<g id="edge3" class="edge">
<title>78&#45;&gt;23</title>
<path fill="none" stroke="black" stroke-dasharray="5,2" d="M374.43,-42.44C374.43,-50.36 374.43,-59.73 374.43,-68.84"/>
<polygon fill="black" stroke="black" points="370.93,-68.94 374.43,-78.94 377.93,-68.94 370.93,-68.94"/>
</g>
<!-- 78&#45;&gt;28 -->
<g id="edge1" class="edge">
<title>78&#45;&gt;28</title>
<path fill="none" stroke="black" stroke-dasharray="5,2" d="M436.23,-42.12C462.05,-50.41 492.95,-60.32 522.76,-69.88"/>
<polygon fill="none" stroke="black" points="519.62,-79.9 551.4,-79.06 526.04,-59.9 519.62,-79.9"/>
</g>
<!-- 78&#45;&gt;31 -->
<g id="edge4" class="edge">
<title>78&#45;&gt;31</title>
<path fill="none" stroke="black" stroke-dasharray="5,2" d="M474.44,-33.95C552.92,-43.67 665.12,-58.82 772.3,-78.45"/>
<polygon fill="black" stroke="black" points="771.85,-81.92 782.32,-80.3 773.12,-75.04 771.85,-81.92"/>
</g>
</g>
</svg>
