<?xml version="1.0" encoding="UTF-8" standalone="no"?>
<!DOCTYPE svg PUBLIC "-//W3C//DTD SVG 1.1//EN"
 "http://www.w3.org/Graphics/SVG/1.1/DTD/svg11.dtd">
<!-- Generated by graphviz version 5.0.0 (20220707.1540)
 -->
<!-- Title: UmlClassDiagram Pages: 1 -->
<svg width="1780pt" height="337pt"
 viewBox="0.00 0.00 1780.34 336.80" xmlns="http://www.w3.org/2000/svg" xmlns:xlink="http://www.w3.org/1999/xlink">
<g id="graph0" class="graph" transform="scale(1 1) rotate(0) translate(4 332.8)">
<title>UmlClassDiagram</title>
<polygon fill="white" stroke="transparent" points="-4,4 -4,-332.8 1776.34,-332.8 1776.34,4 -4,4"/>
<!-- 7 -->
<g id="node1" class="node">
<title>7</title>
<polygon fill="#f2f2f2" stroke="black" points="687.86,-182.9 687.86,-224.5 922.72,-224.5 922.72,-182.9 687.86,-182.9"/>
<text text-anchor="middle" x="805.29" y="-207.9" font-family="Times,serif" font-size="14.00">Governable</text>
<text text-anchor="middle" x="805.29" y="-191.1" font-family="Times,serif" font-size="14.00">../contracts/governance/Governable.sol</text>
</g>
<!-- 22 -->
<g id="node2" class="node">
<title>22</title>
<polygon fill="#f2f2f2" stroke="black" points="151.02,-269.9 151.02,-328.3 383.56,-328.3 383.56,-269.9 151.02,-269.9"/>
<text text-anchor="middle" x="267.29" y="-311.7" font-family="Times,serif" font-size="14.00">&lt;&lt;Interface&gt;&gt;</text>
<text text-anchor="middle" x="267.29" y="-294.9" font-family="Times,serif" font-size="14.00">IComptroller</text>
<text text-anchor="middle" x="267.29" y="-278.1" font-family="Times,serif" font-size="14.00">../contracts/interfaces/IComptroller.sol</text>
</g>
<!-- 35 -->
<g id="node3" class="node">
<title>35</title>
<polygon fill="#f2f2f2" stroke="black" points="940.68,-174.5 940.68,-232.9 1135.89,-232.9 1135.89,-174.5 940.68,-174.5"/>
<text text-anchor="middle" x="1038.29" y="-216.3" font-family="Times,serif" font-size="14.00">&lt;&lt;Interface&gt;&gt;</text>
<text text-anchor="middle" x="1038.29" y="-199.5" font-family="Times,serif" font-size="14.00">IVault</text>
<text text-anchor="middle" x="1038.29" y="-182.7" font-family="Times,serif" font-size="14.00">../contracts/interfaces/IVault.sol</text>
</g>
<!-- 168 -->
<g id="node4" class="node">
<title>168</title>
<polygon fill="#f2f2f2" stroke="black" points="182.91,-79.1 182.91,-137.5 421.67,-137.5 421.67,-79.1 182.91,-79.1"/>
<text text-anchor="middle" x="302.29" y="-120.9" font-family="Times,serif" font-size="14.00">&lt;&lt;Interface&gt;&gt;</text>
<text text-anchor="middle" x="302.29" y="-104.1" font-family="Times,serif" font-size="14.00">ILens</text>
<text text-anchor="middle" x="302.29" y="-87.3" font-family="Times,serif" font-size="14.00">../contracts/interfaces/morpho/ILens.sol</text>
</g>
<!-- 168&#45;&gt;22 -->
<g id="edge2" class="edge">
<title>168&#45;&gt;22</title>
<path fill="none" stroke="black" stroke-dasharray="5,2" d="M182.59,-120.95C112.64,-130.51 33.94,-146.98 12.29,-174 -4.22,-194.6 -3.92,-212.56 12.29,-233.4 28.99,-254.87 85.34,-270.36 140.84,-280.8"/>
<polygon fill="black" stroke="black" points="140.35,-284.27 150.82,-282.62 141.61,-277.38 140.35,-284.27"/>
</g>
<!-- 169 -->
<g id="node5" class="node">
<title>169</title>
<polygon fill="#f2f2f2" stroke="black" points="412.96,-174.5 412.96,-232.9 669.62,-232.9 669.62,-174.5 412.96,-174.5"/>
<text text-anchor="middle" x="541.29" y="-216.3" font-family="Times,serif" font-size="14.00">&lt;&lt;Interface&gt;&gt;</text>
<text text-anchor="middle" x="541.29" y="-199.5" font-family="Times,serif" font-size="14.00">IMorpho</text>
<text text-anchor="middle" x="541.29" y="-182.7" font-family="Times,serif" font-size="14.00">../contracts/interfaces/morpho/IMorpho.sol</text>
</g>
<!-- 168&#45;&gt;169 -->
<g id="edge1" class="edge">
<title>168&#45;&gt;169</title>
<path fill="none" stroke="black" stroke-dasharray="5,2" d="M374.65,-137.58C401.31,-148 431.72,-159.88 459.18,-170.61"/>
<polygon fill="black" stroke="black" points="458.18,-173.98 468.77,-174.36 460.73,-167.46 458.18,-173.98"/>
</g>
<!-- 296 -->
<g id="node6" class="node">
<title>296</title>
<polygon fill="#f2f2f2" stroke="black" points="21.25,-174.5 21.25,-232.9 395.33,-232.9 395.33,-174.5 21.25,-174.5"/>
<text text-anchor="middle" x="208.29" y="-216.3" font-family="Times,serif" font-size="14.00">&lt;&lt;Interface&gt;&gt;</text>
<text text-anchor="middle" x="208.29" y="-199.5" font-family="Times,serif" font-size="14.00">ICompoundOracle</text>
<text text-anchor="middle" x="208.29" y="-182.7" font-family="Times,serif" font-size="14.00">../contracts/interfaces/morpho/compound/ICompoundOracle.sol</text>
</g>
<!-- 168&#45;&gt;296 -->
<g id="edge3" class="edge">
<title>168&#45;&gt;296</title>
<path fill="none" stroke="black" stroke-dasharray="5,2" d="M273.83,-137.58C264.53,-146.82 254.08,-157.21 244.29,-166.93"/>
<polygon fill="black" stroke="black" points="241.6,-164.67 236.97,-174.2 246.54,-169.63 241.6,-164.67"/>
</g>
<!-- 169&#45;&gt;22 -->
<g id="edge4" class="edge">
<title>169&#45;&gt;22</title>
<path fill="none" stroke="black" stroke-dasharray="5,2" d="M458.34,-232.98C427.36,-243.54 392,-255.59 360.18,-266.43"/>
<polygon fill="black" stroke="black" points="358.77,-263.22 350.43,-269.76 361.03,-269.84 358.77,-263.22"/>
</g>
<!-- 134 -->
<g id="node7" class="node">
<title>134</title>
<polygon fill="#f2f2f2" stroke="black" points="665.68,-0.5 665.68,-42.1 944.89,-42.1 944.89,-0.5 665.68,-0.5"/>
<text text-anchor="middle" x="805.29" y="-25.5" font-family="Times,serif" font-size="14.00">MorphoAaveStrategy</text>
<text text-anchor="middle" x="805.29" y="-8.7" font-family="Times,serif" font-size="14.00">../contracts/strategies/MorphoAaveStrategy.sol</text>
</g>
<!-- 134&#45;&gt;168 -->
<g id="edge7" class="edge">
<title>134&#45;&gt;168</title>
<path fill="none" stroke="black" stroke-dasharray="5,2" d="M687.99,-42.12C611.3,-55.08 511.05,-72.02 431.98,-85.38"/>
<polygon fill="black" stroke="black" points="431.23,-81.96 421.96,-87.08 432.4,-88.86 431.23,-81.96"/>
</g>
<!-- 134&#45;&gt;169 -->
<g id="edge6" class="edge">
<title>134&#45;&gt;169</title>
<path fill="none" stroke="black" stroke-dasharray="5,2" d="M728.06,-42.22C702.32,-50.96 674.34,-62.89 651.29,-78.6 616.79,-102.1 586.08,-138.8 565.94,-166.2"/>
<polygon fill="black" stroke="black" points="563.05,-164.22 560.03,-174.38 568.72,-168.32 563.05,-164.22"/>
</g>
<!-- 150 -->
<g id="node9" class="node">
<title>150</title>
<polygon fill="#f2f2f2" stroke="black" points="660.24,-79.1 660.24,-137.5 950.34,-137.5 950.34,-79.1 660.24,-79.1"/>
<text text-anchor="middle" x="805.29" y="-120.9" font-family="Times,serif" font-size="14.00">&lt;&lt;Abstract&gt;&gt;</text>
<text text-anchor="middle" x="805.29" y="-104.1" font-family="Times,serif" font-size="14.00">InitializableAbstractStrategy</text>
<text text-anchor="middle" x="805.29" y="-87.3" font-family="Times,serif" font-size="14.00">../contracts/utils/InitializableAbstractStrategy.sol</text>
</g>
<!-- 134&#45;&gt;150 -->
<g id="edge5" class="edge">
<title>134&#45;&gt;150</title>
<path fill="none" stroke="black" d="M805.29,-42.44C805.29,-44.49 805.29,-46.63 805.29,-48.83"/>
<polygon fill="none" stroke="black" points="794.79,-48.94 805.29,-78.94 815.79,-48.94 794.79,-48.94"/>
</g>
<!-- 149 -->
<g id="node8" class="node">
<title>149</title>
<polygon fill="#f2f2f2" stroke="black" points="1154.28,-174.5 1154.28,-232.9 1350.29,-232.9 1350.29,-174.5 1154.28,-174.5"/>
<text text-anchor="middle" x="1252.29" y="-216.3" font-family="Times,serif" font-size="14.00">&lt;&lt;Abstract&gt;&gt;</text>
<text text-anchor="middle" x="1252.29" y="-199.5" font-family="Times,serif" font-size="14.00">Initializable</text>
<text text-anchor="middle" x="1252.29" y="-182.7" font-family="Times,serif" font-size="14.00">../contracts/utils/Initializable.sol</text>
</g>
<!-- 150&#45;&gt;7 -->
<g id="edge9" class="edge">
<title>150&#45;&gt;7</title>
<path fill="none" stroke="black" d="M805.29,-137.58C805.29,-142.37 805.29,-147.47 805.29,-152.62"/>
<polygon fill="none" stroke="black" points="794.79,-152.81 805.29,-182.81 815.79,-152.81 794.79,-152.81"/>
</g>
<!-- 150&#45;&gt;35 -->
<g id="edge12" class="edge">
<title>150&#45;&gt;35</title>
<path fill="none" stroke="black" stroke-dasharray="5,2" d="M875.83,-137.58C901.83,-148 931.47,-159.88 958.24,-170.61"/>
<polygon fill="black" stroke="black" points="957,-173.89 967.59,-174.36 959.61,-167.39 957,-173.89"/>
</g>
<!-- 150&#45;&gt;149 -->
<g id="edge8" class="edge">
<title>150&#45;&gt;149</title>
<path fill="none" stroke="black" d="M950.54,-134.5C1002.72,-144.09 1062.58,-155.72 1124.54,-169.41"/>
<polygon fill="none" stroke="black" points="1122.54,-179.72 1154.11,-176.06 1127.15,-159.23 1122.54,-179.72"/>
</g>
<!-- 150&#45;&gt;150 -->
<g id="edge10" class="edge">
<title>150&#45;&gt;150</title>
<path fill="none" stroke="black" stroke-dasharray="5,2" d="M950.5,-96.21C961.54,-98.89 968.34,-102.93 968.34,-108.3 968.34,-111.83 965.41,-114.78 960.28,-117.15"/>
<polygon fill="black" stroke="black" points="958.89,-113.92 950.5,-120.39 961.1,-120.56 958.89,-113.92"/>
</g>
<!-- 436 -->
<g id="node10" class="node">
<title>436</title>
<polygon fill="#f2f2f2" stroke="black" points="1368.23,-174.5 1368.23,-232.9 1772.34,-232.9 1772.34,-174.5 1368.23,-174.5"/>
<text text-anchor="middle" x="1570.29" y="-216.3" font-family="Times,serif" font-size="14.00">&lt;&lt;Interface&gt;&gt;</text>
<text text-anchor="middle" x="1570.29" y="-199.5" font-family="Times,serif" font-size="14.00">IERC20</text>
<text text-anchor="middle" x="1570.29" y="-182.7" font-family="Times,serif" font-size="14.00">../node_modules/@openzeppelin/contracts/token/ERC20/IERC20.sol</text>
</g>
<!-- 150&#45;&gt;436 -->
<g id="edge11" class="edge">
<title>150&#45;&gt;436</title>
<path fill="none" stroke="black" stroke-dasharray="5,2" d="M950.6,-125.51C1059.89,-137.88 1213.62,-155.66 1358.2,-173.87"/>
<polygon fill="black" stroke="black" points="1357.8,-177.35 1368.16,-175.13 1358.67,-170.4 1357.8,-177.35"/>
</g>
</g>
</svg>
