<?xml version="1.0" encoding="UTF-8" standalone="no"?>
<!DOCTYPE svg PUBLIC "-//W3C//DTD SVG 1.1//EN"
 "http://www.w3.org/Graphics/SVG/1.1/DTD/svg11.dtd">
<!-- Generated by graphviz version 5.0.0 (20220707.1540)
 -->
<!-- Title: UmlClassDiagram Pages: 1 -->
<svg width="456pt" height="337pt"
 viewBox="0.00 0.00 456.44 336.80" xmlns="http://www.w3.org/2000/svg" xmlns:xlink="http://www.w3.org/1999/xlink">
<g id="graph0" class="graph" transform="scale(1 1) rotate(0) translate(4 332.8)">
<title>UmlClassDiagram</title>
<polygon fill="white" stroke="transparent" points="-4,4 -4,-332.8 452.44,-332.8 452.44,4 -4,4"/>
<!-- 20 -->
<g id="node1" class="node">
<title>20</title>
<polygon fill="#f2f2f2" stroke="black" points="0,-278.3 0,-319.9 234.86,-319.9 234.86,-278.3 0,-278.3"/>
<text text-anchor="middle" x="117.43" y="-303.3" font-family="Times,serif" font-size="14.00">Governable</text>
<text text-anchor="middle" x="117.43" y="-286.5" font-family="Times,serif" font-size="14.00">../contracts/governance/Governable.sol</text>
</g>
<!-- 151 -->
<g id="node2" class="node">
<title>151</title>
<polygon fill="#f2f2f2" stroke="black" points="86.43,-79.1 86.43,-137.5 380.43,-137.5 380.43,-79.1 86.43,-79.1"/>
<text text-anchor="middle" x="233.43" y="-120.9" font-family="Times,serif" font-size="14.00">&lt;&lt;Abstract&gt;&gt;</text>
<text text-anchor="middle" x="233.43" y="-104.1" font-family="Times,serif" font-size="14.00">BaseCompoundStrategy</text>
<text text-anchor="middle" x="233.43" y="-87.3" font-family="Times,serif" font-size="14.00">../contracts/strategies/BaseCompoundStrategy.sol</text>
</g>
<!-- 195 -->
<g id="node5" class="node">
<title>195</title>
<polygon fill="#f2f2f2" stroke="black" points="88.38,-174.5 88.38,-232.9 378.48,-232.9 378.48,-174.5 88.38,-174.5"/>
<text text-anchor="middle" x="233.43" y="-216.3" font-family="Times,serif" font-size="14.00">&lt;&lt;Abstract&gt;&gt;</text>
<text text-anchor="middle" x="233.43" y="-199.5" font-family="Times,serif" font-size="14.00">InitializableAbstractStrategy</text>
<text text-anchor="middle" x="233.43" y="-182.7" font-family="Times,serif" font-size="14.00">../contracts/utils/InitializableAbstractStrategy.sol</text>
</g>
<!-- 151&#45;&gt;195 -->
<g id="edge1" class="edge">
<title>151&#45;&gt;195</title>
<path fill="none" stroke="black" d="M233.43,-137.58C233.43,-139.66 233.43,-141.8 233.43,-143.98"/>
<polygon fill="none" stroke="black" points="222.93,-144.2 233.43,-174.2 243.93,-144.2 222.93,-144.2"/>
</g>
<!-- 177 -->
<g id="node3" class="node">
<title>177</title>
<polygon fill="#f2f2f2" stroke="black" points="77.48,-0.5 77.48,-42.1 389.38,-42.1 389.38,-0.5 77.48,-0.5"/>
<text text-anchor="middle" x="233.43" y="-25.5" font-family="Times,serif" font-size="14.00">MorphoCompoundStrategy</text>
<text text-anchor="middle" x="233.43" y="-8.7" font-family="Times,serif" font-size="14.00">../contracts/strategies/MorphoCompoundStrategy.sol</text>
</g>
<!-- 177&#45;&gt;151 -->
<g id="edge2" class="edge">
<title>177&#45;&gt;151</title>
<path fill="none" stroke="black" d="M233.43,-42.44C233.43,-44.49 233.43,-46.63 233.43,-48.83"/>
<polygon fill="none" stroke="black" points="222.93,-48.94 233.43,-78.94 243.93,-48.94 222.93,-48.94"/>
</g>
<!-- 194 -->
<g id="node4" class="node">
<title>194</title>
<polygon fill="#f2f2f2" stroke="black" points="252.42,-269.9 252.42,-328.3 448.44,-328.3 448.44,-269.9 252.42,-269.9"/>
<text text-anchor="middle" x="350.43" y="-311.7" font-family="Times,serif" font-size="14.00">&lt;&lt;Abstract&gt;&gt;</text>
<text text-anchor="middle" x="350.43" y="-294.9" font-family="Times,serif" font-size="14.00">Initializable</text>
<text text-anchor="middle" x="350.43" y="-278.1" font-family="Times,serif" font-size="14.00">../contracts/utils/Initializable.sol</text>
</g>
<!-- 195&#45;&gt;20 -->
<g id="edge4" class="edge">
<title>195&#45;&gt;20</title>
<path fill="none" stroke="black" d="M198.31,-232.98C188.11,-241.19 176.78,-250.31 165.91,-259.06"/>
<polygon fill="none" stroke="black" points="158.91,-251.22 142.13,-278.21 172.08,-267.58 158.91,-251.22"/>
</g>
<!-- 195&#45;&gt;194 -->
<g id="edge3" class="edge">
<title>195&#45;&gt;194</title>
<path fill="none" stroke="black" d="M268.85,-232.98C275.89,-238.59 283.46,-244.64 291.04,-250.69"/>
<polygon fill="none" stroke="black" points="284.73,-259.09 314.72,-269.6 297.83,-242.67 284.73,-259.09"/>
</g>
</g>
</svg>
