<?xml version="1.0" encoding="UTF-8" standalone="no"?>
<!DOCTYPE svg PUBLIC "-//W3C//DTD SVG 1.1//EN"
 "http://www.w3.org/Graphics/SVG/1.1/DTD/svg11.dtd">
<!-- Generated by graphviz version 5.0.0 (20220707.1540)
 -->
<!-- Title: UmlClassDiagram Pages: 1 -->
<svg width="456pt" height="241pt"
 viewBox="0.00 0.00 456.44 241.40" xmlns="http://www.w3.org/2000/svg" xmlns:xlink="http://www.w3.org/1999/xlink">
<g id="graph0" class="graph" transform="scale(1 1) rotate(0) translate(4 237.4)">
<title>UmlClassDiagram</title>
<polygon fill="white" stroke="transparent" points="-4,4 -4,-237.4 452.44,-237.4 452.44,4 -4,4"/>
<!-- 20 -->
<g id="node1" class="node">
<title>20</title>
<polygon fill="#f2f2f2" stroke="black" points="0,-182.9 0,-224.5 234.86,-224.5 234.86,-182.9 0,-182.9"/>
<text text-anchor="middle" x="117.43" y="-207.9" font-family="Times,serif" font-size="14.00">Governable</text>
<text text-anchor="middle" x="117.43" y="-191.1" font-family="Times,serif" font-size="14.00">../contracts/governance/Governable.sol</text>
</g>
<!-- 176 -->
<g id="node2" class="node">
<title>176</title>
<polygon fill="#f2f2f2" stroke="black" points="93.82,-0.5 93.82,-42.1 373.04,-42.1 373.04,-0.5 93.82,-0.5"/>
<text text-anchor="middle" x="233.43" y="-25.5" font-family="Times,serif" font-size="14.00">MorphoAaveStrategy</text>
<text text-anchor="middle" x="233.43" y="-8.7" font-family="Times,serif" font-size="14.00">../contracts/strategies/MorphoAaveStrategy.sol</text>
</g>
<!-- 195 -->
<g id="node4" class="node">
<title>195</title>
<polygon fill="#f2f2f2" stroke="black" points="88.38,-79.1 88.38,-137.5 378.48,-137.5 378.48,-79.1 88.38,-79.1"/>
<text text-anchor="middle" x="233.43" y="-120.9" font-family="Times,serif" font-size="14.00">&lt;&lt;Abstract&gt;&gt;</text>
<text text-anchor="middle" x="233.43" y="-104.1" font-family="Times,serif" font-size="14.00">InitializableAbstractStrategy</text>
<text text-anchor="middle" x="233.43" y="-87.3" font-family="Times,serif" font-size="14.00">../contracts/utils/InitializableAbstractStrategy.sol</text>
</g>
<!-- 176&#45;&gt;195 -->
<g id="edge1" class="edge">
<title>176&#45;&gt;195</title>
<path fill="none" stroke="black" d="M233.43,-42.44C233.43,-44.49 233.43,-46.63 233.43,-48.83"/>
<polygon fill="none" stroke="black" points="222.93,-48.94 233.43,-78.94 243.93,-48.94 222.93,-48.94"/>
</g>
<!-- 194 -->
<g id="node3" class="node">
<title>194</title>
<polygon fill="#f2f2f2" stroke="black" points="252.42,-174.5 252.42,-232.9 448.44,-232.9 448.44,-174.5 252.42,-174.5"/>
<text text-anchor="middle" x="350.43" y="-216.3" font-family="Times,serif" font-size="14.00">&lt;&lt;Abstract&gt;&gt;</text>
<text text-anchor="middle" x="350.43" y="-199.5" font-family="Times,serif" font-size="14.00">Initializable</text>
<text text-anchor="middle" x="350.43" y="-182.7" font-family="Times,serif" font-size="14.00">../contracts/utils/Initializable.sol</text>
</g>
<!-- 195&#45;&gt;20 -->
<g id="edge3" class="edge">
<title>195&#45;&gt;20</title>
<path fill="none" stroke="black" d="M198.31,-137.58C188.11,-145.79 176.78,-154.91 165.91,-163.66"/>
<polygon fill="none" stroke="black" points="158.91,-155.82 142.13,-182.81 172.08,-172.18 158.91,-155.82"/>
</g>
<!-- 195&#45;&gt;194 -->
<g id="edge2" class="edge">
<title>195&#45;&gt;194</title>
<path fill="none" stroke="black" d="M268.85,-137.58C275.89,-143.19 283.46,-149.24 291.04,-155.29"/>
<polygon fill="none" stroke="black" points="284.73,-163.69 314.72,-174.2 297.83,-147.27 284.73,-163.69"/>
</g>
</g>
</svg>
