<?xml version="1.0" encoding="UTF-8" standalone="no"?>
<!DOCTYPE svg PUBLIC "-//W3C//DTD SVG 1.1//EN"
 "http://www.w3.org/Graphics/SVG/1.1/DTD/svg11.dtd">
<!-- Generated by graphviz version 5.0.0 (20220707.1540)
 -->
<!-- Title: UmlClassDiagram Pages: 1 -->
<svg width="1818pt" height="337pt"
 viewBox="0.00 0.00 1817.62 336.80" xmlns="http://www.w3.org/2000/svg" xmlns:xlink="http://www.w3.org/1999/xlink">
<g id="graph0" class="graph" transform="scale(1 1) rotate(0) translate(4 332.8)">
<title>UmlClassDiagram</title>
<polygon fill="white" stroke="transparent" points="-4,4 -4,-332.8 1813.62,-332.8 1813.62,4 -4,4"/>
<!-- 7 -->
<g id="node1" class="node">
<title>7</title>
<polygon fill="#f2f2f2" stroke="black" points="725.14,-278.3 725.14,-319.9 960,-319.9 960,-278.3 725.14,-278.3"/>
<text text-anchor="middle" x="842.57" y="-303.3" font-family="Times,serif" font-size="14.00">Governable</text>
<text text-anchor="middle" x="842.57" y="-286.5" font-family="Times,serif" font-size="14.00">../contracts/governance/Governable.sol</text>
</g>
<!-- 22 -->
<g id="node2" class="node">
<title>22</title>
<polygon fill="#f2f2f2" stroke="black" points="151.3,-269.9 151.3,-328.3 383.84,-328.3 383.84,-269.9 151.3,-269.9"/>
<text text-anchor="middle" x="267.57" y="-311.7" font-family="Times,serif" font-size="14.00">&lt;&lt;Interface&gt;&gt;</text>
<text text-anchor="middle" x="267.57" y="-294.9" font-family="Times,serif" font-size="14.00">IComptroller</text>
<text text-anchor="middle" x="267.57" y="-278.1" font-family="Times,serif" font-size="14.00">../contracts/interfaces/IComptroller.sol</text>
</g>
<!-- 35 -->
<g id="node3" class="node">
<title>35</title>
<polygon fill="#f2f2f2" stroke="black" points="977.96,-269.9 977.96,-328.3 1173.17,-328.3 1173.17,-269.9 977.96,-269.9"/>
<text text-anchor="middle" x="1075.57" y="-311.7" font-family="Times,serif" font-size="14.00">&lt;&lt;Interface&gt;&gt;</text>
<text text-anchor="middle" x="1075.57" y="-294.9" font-family="Times,serif" font-size="14.00">IVault</text>
<text text-anchor="middle" x="1075.57" y="-278.1" font-family="Times,serif" font-size="14.00">../contracts/interfaces/IVault.sol</text>
</g>
<!-- 168 -->
<g id="node4" class="node">
<title>168</title>
<polygon fill="#f2f2f2" stroke="black" points="302.19,-79.1 302.19,-137.5 540.95,-137.5 540.95,-79.1 302.19,-79.1"/>
<text text-anchor="middle" x="421.57" y="-120.9" font-family="Times,serif" font-size="14.00">&lt;&lt;Interface&gt;&gt;</text>
<text text-anchor="middle" x="421.57" y="-104.1" font-family="Times,serif" font-size="14.00">ILens</text>
<text text-anchor="middle" x="421.57" y="-87.3" font-family="Times,serif" font-size="14.00">../contracts/interfaces/morpho/ILens.sol</text>
</g>
<!-- 168&#45;&gt;22 -->
<g id="edge2" class="edge">
<title>168&#45;&gt;22</title>
<path fill="none" stroke="black" stroke-dasharray="5,2" d="M302.08,-111.58C194.98,-116.45 49.25,-131.06 12.57,-174 -4.58,-194.07 -3.64,-212.56 12.57,-233.4 29.27,-254.87 85.62,-270.36 141.12,-280.8"/>
<polygon fill="black" stroke="black" points="140.63,-284.27 151.1,-282.62 141.89,-277.38 140.63,-284.27"/>
</g>
<!-- 169 -->
<g id="node5" class="node">
<title>169</title>
<polygon fill="#f2f2f2" stroke="black" points="413.24,-174.5 413.24,-232.9 669.9,-232.9 669.9,-174.5 413.24,-174.5"/>
<text text-anchor="middle" x="541.57" y="-216.3" font-family="Times,serif" font-size="14.00">&lt;&lt;Interface&gt;&gt;</text>
<text text-anchor="middle" x="541.57" y="-199.5" font-family="Times,serif" font-size="14.00">IMorpho</text>
<text text-anchor="middle" x="541.57" y="-182.7" font-family="Times,serif" font-size="14.00">../contracts/interfaces/morpho/IMorpho.sol</text>
</g>
<!-- 168&#45;&gt;169 -->
<g id="edge1" class="edge">
<title>168&#45;&gt;169</title>
<path fill="none" stroke="black" stroke-dasharray="5,2" d="M457.9,-137.58C470.12,-147.09 483.9,-157.82 496.7,-167.78"/>
<polygon fill="black" stroke="black" points="494.91,-170.82 504.95,-174.2 499.21,-165.29 494.91,-170.82"/>
</g>
<!-- 296 -->
<g id="node6" class="node">
<title>296</title>
<polygon fill="#f2f2f2" stroke="black" points="21.53,-174.5 21.53,-232.9 395.6,-232.9 395.6,-174.5 21.53,-174.5"/>
<text text-anchor="middle" x="208.57" y="-216.3" font-family="Times,serif" font-size="14.00">&lt;&lt;Interface&gt;&gt;</text>
<text text-anchor="middle" x="208.57" y="-199.5" font-family="Times,serif" font-size="14.00">ICompoundOracle</text>
<text text-anchor="middle" x="208.57" y="-182.7" font-family="Times,serif" font-size="14.00">../contracts/interfaces/morpho/compound/ICompoundOracle.sol</text>
</g>
<!-- 168&#45;&gt;296 -->
<g id="edge3" class="edge">
<title>168&#45;&gt;296</title>
<path fill="none" stroke="black" stroke-dasharray="5,2" d="M357.08,-137.58C333.52,-147.91 306.69,-159.67 282.38,-170.33"/>
<polygon fill="black" stroke="black" points="280.95,-167.14 273.2,-174.36 283.76,-173.55 280.95,-167.14"/>
</g>
<!-- 169&#45;&gt;22 -->
<g id="edge4" class="edge">
<title>169&#45;&gt;22</title>
<path fill="none" stroke="black" stroke-dasharray="5,2" d="M458.62,-232.98C427.64,-243.54 392.27,-255.59 360.46,-266.43"/>
<polygon fill="black" stroke="black" points="359.05,-263.22 350.71,-269.76 361.31,-269.84 359.05,-263.22"/>
</g>
<!-- 110 -->
<g id="node7" class="node">
<title>110</title>
<polygon fill="#f2f2f2" stroke="black" points="773.57,-79.1 773.57,-137.5 1067.57,-137.5 1067.57,-79.1 773.57,-79.1"/>
<text text-anchor="middle" x="920.57" y="-120.9" font-family="Times,serif" font-size="14.00">&lt;&lt;Abstract&gt;&gt;</text>
<text text-anchor="middle" x="920.57" y="-104.1" font-family="Times,serif" font-size="14.00">BaseCompoundStrategy</text>
<text text-anchor="middle" x="920.57" y="-87.3" font-family="Times,serif" font-size="14.00">../contracts/strategies/BaseCompoundStrategy.sol</text>
</g>
<!-- 126 -->
<g id="node8" class="node">
<title>126</title>
<polygon fill="#f2f2f2" stroke="black" points="688.17,-174.5 688.17,-232.9 912.97,-232.9 912.97,-174.5 688.17,-174.5"/>
<text text-anchor="middle" x="800.57" y="-216.3" font-family="Times,serif" font-size="14.00">&lt;&lt;Interface&gt;&gt;</text>
<text text-anchor="middle" x="800.57" y="-199.5" font-family="Times,serif" font-size="14.00">ICERC20</text>
<text text-anchor="middle" x="800.57" y="-182.7" font-family="Times,serif" font-size="14.00">../contracts/strategies/ICompound.sol</text>
</g>
<!-- 110&#45;&gt;126 -->
<g id="edge6" class="edge">
<title>110&#45;&gt;126</title>
<path fill="none" stroke="black" stroke-dasharray="5,2" d="M884.24,-137.58C872.02,-147.09 858.23,-157.82 845.43,-167.78"/>
<polygon fill="black" stroke="black" points="842.93,-165.29 837.19,-174.2 847.23,-170.82 842.93,-165.29"/>
</g>
<!-- 150 -->
<g id="node11" class="node">
<title>150</title>
<polygon fill="#f2f2f2" stroke="black" points="930.52,-174.5 930.52,-232.9 1220.61,-232.9 1220.61,-174.5 930.52,-174.5"/>
<text text-anchor="middle" x="1075.57" y="-216.3" font-family="Times,serif" font-size="14.00">&lt;&lt;Abstract&gt;&gt;</text>
<text text-anchor="middle" x="1075.57" y="-199.5" font-family="Times,serif" font-size="14.00">InitializableAbstractStrategy</text>
<text text-anchor="middle" x="1075.57" y="-182.7" font-family="Times,serif" font-size="14.00">../contracts/utils/InitializableAbstractStrategy.sol</text>
</g>
<!-- 110&#45;&gt;150 -->
<g id="edge5" class="edge">
<title>110&#45;&gt;150</title>
<path fill="none" stroke="black" d="M967.49,-137.58C978.52,-144.22 990.53,-151.46 1002.41,-158.61"/>
<polygon fill="none" stroke="black" points="997.42,-167.87 1028.53,-174.36 1008.26,-149.88 997.42,-167.87"/>
</g>
<!-- 135 -->
<g id="node9" class="node">
<title>135</title>
<polygon fill="#f2f2f2" stroke="black" points="764.62,-0.5 764.62,-42.1 1076.52,-42.1 1076.52,-0.5 764.62,-0.5"/>
<text text-anchor="middle" x="920.57" y="-25.5" font-family="Times,serif" font-size="14.00">MorphoCompoundStrategy</text>
<text text-anchor="middle" x="920.57" y="-8.7" font-family="Times,serif" font-size="14.00">../contracts/strategies/MorphoCompoundStrategy.sol</text>
</g>
<!-- 135&#45;&gt;168 -->
<g id="edge9" class="edge">
<title>135&#45;&gt;168</title>
<path fill="none" stroke="black" stroke-dasharray="5,2" d="M804.2,-42.12C728.39,-55.04 629.39,-71.9 551.08,-85.24"/>
<polygon fill="black" stroke="black" points="550.42,-81.8 541.15,-86.93 551.6,-88.7 550.42,-81.8"/>
</g>
<!-- 135&#45;&gt;169 -->
<g id="edge8" class="edge">
<title>135&#45;&gt;169</title>
<path fill="none" stroke="black" stroke-dasharray="5,2" d="M858.53,-42.11C829.55,-52.02 794.84,-64.82 764.57,-78.6 705.21,-105.61 640.39,-142.59 596.01,-169.14"/>
<polygon fill="black" stroke="black" points="594.19,-166.15 587.42,-174.3 597.79,-172.15 594.19,-166.15"/>
</g>
<!-- 135&#45;&gt;110 -->
<g id="edge7" class="edge">
<title>135&#45;&gt;110</title>
<path fill="none" stroke="black" d="M920.57,-42.44C920.57,-44.49 920.57,-46.63 920.57,-48.83"/>
<polygon fill="none" stroke="black" points="910.07,-48.94 920.57,-78.94 931.07,-48.94 910.07,-48.94"/>
</g>
<!-- 149 -->
<g id="node10" class="node">
<title>149</title>
<polygon fill="#f2f2f2" stroke="black" points="1191.56,-269.9 1191.56,-328.3 1387.57,-328.3 1387.57,-269.9 1191.56,-269.9"/>
<text text-anchor="middle" x="1289.57" y="-311.7" font-family="Times,serif" font-size="14.00">&lt;&lt;Abstract&gt;&gt;</text>
<text text-anchor="middle" x="1289.57" y="-294.9" font-family="Times,serif" font-size="14.00">Initializable</text>
<text text-anchor="middle" x="1289.57" y="-278.1" font-family="Times,serif" font-size="14.00">../contracts/utils/Initializable.sol</text>
</g>
<!-- 150&#45;&gt;7 -->
<g id="edge11" class="edge">
<title>150&#45;&gt;7</title>
<path fill="none" stroke="black" d="M1005.03,-232.98C978.27,-243.7 947.67,-255.97 920.29,-266.95"/>
<polygon fill="none" stroke="black" points="916.12,-257.31 892.18,-278.21 923.93,-276.8 916.12,-257.31"/>
</g>
<!-- 150&#45;&gt;35 -->
<g id="edge14" class="edge">
<title>150&#45;&gt;35</title>
<path fill="none" stroke="black" stroke-dasharray="5,2" d="M1075.57,-232.98C1075.57,-241.31 1075.57,-250.58 1075.57,-259.45"/>
<polygon fill="black" stroke="black" points="1072.07,-259.6 1075.57,-269.6 1079.07,-259.6 1072.07,-259.6"/>
</g>
<!-- 150&#45;&gt;149 -->
<g id="edge10" class="edge">
<title>150&#45;&gt;149</title>
<path fill="none" stroke="black" d="M1140.36,-232.98C1158.19,-240.76 1177.88,-249.35 1196.95,-257.68"/>
<polygon fill="none" stroke="black" points="1192.94,-267.38 1224.63,-269.76 1201.34,-248.13 1192.94,-267.38"/>
</g>
<!-- 150&#45;&gt;150 -->
<g id="edge12" class="edge">
<title>150&#45;&gt;150</title>
<path fill="none" stroke="black" stroke-dasharray="5,2" d="M1220.78,-190.48C1231.82,-193.42 1238.61,-197.82 1238.61,-203.7 1238.61,-207.56 1235.69,-210.78 1230.56,-213.37"/>
<polygon fill="black" stroke="black" points="1228.99,-210.22 1220.78,-216.92 1231.38,-216.8 1228.99,-210.22"/>
</g>
<!-- 436 -->
<g id="node12" class="node">
<title>436</title>
<polygon fill="#f2f2f2" stroke="black" points="1405.51,-269.9 1405.51,-328.3 1809.62,-328.3 1809.62,-269.9 1405.51,-269.9"/>
<text text-anchor="middle" x="1607.57" y="-311.7" font-family="Times,serif" font-size="14.00">&lt;&lt;Interface&gt;&gt;</text>
<text text-anchor="middle" x="1607.57" y="-294.9" font-family="Times,serif" font-size="14.00">IERC20</text>
<text text-anchor="middle" x="1607.57" y="-278.1" font-family="Times,serif" font-size="14.00">../node_modules/@openzeppelin/contracts/token/ERC20/IERC20.sol</text>
</g>
<!-- 150&#45;&gt;436 -->
<g id="edge13" class="edge">
<title>150&#45;&gt;436</title>
<path fill="none" stroke="black" stroke-dasharray="5,2" d="M1220.94,-230.22C1287.65,-241.93 1367.2,-255.9 1436.75,-268.11"/>
<polygon fill="black" stroke="black" points="1436.48,-271.62 1446.94,-269.9 1437.69,-264.72 1436.48,-271.62"/>
</g>
</g>
</svg>
