<?xml version="1.0" encoding="UTF-8" standalone="no"?>
<!DOCTYPE svg PUBLIC "-//W3C//DTD SVG 1.1//EN"
 "http://www.w3.org/Graphics/SVG/1.1/DTD/svg11.dtd">
<!-- Generated by graphviz version 5.0.0 (20220707.1540)
 -->
<!-- Title: UmlClassDiagram Pages: 1 -->
<svg width="1514pt" height="685pt"
 viewBox="0.00 0.00 1513.97 684.80" xmlns="http://www.w3.org/2000/svg" xmlns:xlink="http://www.w3.org/1999/xlink">
<g id="graph0" class="graph" transform="scale(1 1) rotate(0) translate(4 680.8)">
<title>UmlClassDiagram</title>
<polygon fill="white" stroke="transparent" points="-4,4 -4,-680.8 1509.97,-680.8 1509.97,4 -4,4"/>
<!-- 7 -->
<g id="node1" class="node">
<title>7</title>
<polygon fill="#f2f2f2" stroke="black" points="722.14,-530.9 722.14,-572.5 957,-572.5 957,-530.9 722.14,-530.9"/>
<text text-anchor="middle" x="839.57" y="-555.9" font-family="Times,serif" font-size="14.00">Governable</text>
<text text-anchor="middle" x="839.57" y="-539.1" font-family="Times,serif" font-size="14.00">../contracts/governance/Governable.sol</text>
</g>
<!-- 22 -->
<g id="node2" class="node">
<title>22</title>
<polygon fill="#f2f2f2" stroke="black" points="151.3,-269.9 151.3,-328.3 383.84,-328.3 383.84,-269.9 151.3,-269.9"/>
<text text-anchor="middle" x="267.57" y="-311.7" font-family="Times,serif" font-size="14.00">&lt;&lt;Interface&gt;&gt;</text>
<text text-anchor="middle" x="267.57" y="-294.9" font-family="Times,serif" font-size="14.00">IComptroller</text>
<text text-anchor="middle" x="267.57" y="-278.1" font-family="Times,serif" font-size="14.00">../contracts/interfaces/IComptroller.sol</text>
</g>
<!-- 40 -->
<g id="node3" class="node">
<title>40</title>
<polygon fill="#f2f2f2" stroke="black" points="977.96,-269.9 977.96,-328.3 1173.17,-328.3 1173.17,-269.9 977.96,-269.9"/>
<text text-anchor="middle" x="1075.57" y="-311.7" font-family="Times,serif" font-size="14.00">&lt;&lt;Interface&gt;&gt;</text>
<text text-anchor="middle" x="1075.57" y="-294.9" font-family="Times,serif" font-size="14.00">IVault</text>
<text text-anchor="middle" x="1075.57" y="-278.1" font-family="Times,serif" font-size="14.00">../contracts/interfaces/IVault.sol</text>
</g>
<!-- 180 -->
<g id="node14" class="node">
<title>180</title>
<polygon fill="#f2f2f2" stroke="black" points="972.12,-365.3 972.12,-406.9 1179.02,-406.9 1179.02,-365.3 972.12,-365.3"/>
<text text-anchor="middle" x="1075.57" y="-390.3" font-family="Times,serif" font-size="14.00">VaultStorage</text>
<text text-anchor="middle" x="1075.57" y="-373.5" font-family="Times,serif" font-size="14.00">../contracts/vault/VaultStorage.sol</text>
</g>
<!-- 40&#45;&gt;180 -->
<g id="edge1" class="edge">
<title>40&#45;&gt;180</title>
<path fill="none" stroke="black" stroke-dasharray="5,2" d="M1075.57,-328.4C1075.57,-336.99 1075.57,-346.44 1075.57,-355.13"/>
<polygon fill="black" stroke="black" points="1072.07,-355.24 1075.57,-365.24 1079.07,-355.24 1072.07,-355.24"/>
</g>
<!-- 197 -->
<g id="node4" class="node">
<title>197</title>
<polygon fill="#f2f2f2" stroke="black" points="302.19,-79.1 302.19,-137.5 540.95,-137.5 540.95,-79.1 302.19,-79.1"/>
<text text-anchor="middle" x="421.57" y="-120.9" font-family="Times,serif" font-size="14.00">&lt;&lt;Interface&gt;&gt;</text>
<text text-anchor="middle" x="421.57" y="-104.1" font-family="Times,serif" font-size="14.00">ILens</text>
<text text-anchor="middle" x="421.57" y="-87.3" font-family="Times,serif" font-size="14.00">../contracts/interfaces/morpho/ILens.sol</text>
</g>
<!-- 197&#45;&gt;22 -->
<g id="edge3" class="edge">
<title>197&#45;&gt;22</title>
<path fill="none" stroke="black" stroke-dasharray="5,2" d="M302.08,-111.58C194.98,-116.45 49.25,-131.06 12.57,-174 -4.58,-194.07 -3.64,-212.56 12.57,-233.4 29.27,-254.87 85.62,-270.36 141.12,-280.8"/>
<polygon fill="black" stroke="black" points="140.63,-284.27 151.1,-282.62 141.89,-277.38 140.63,-284.27"/>
</g>
<!-- 198 -->
<g id="node5" class="node">
<title>198</title>
<polygon fill="#f2f2f2" stroke="black" points="413.24,-174.5 413.24,-232.9 669.9,-232.9 669.9,-174.5 413.24,-174.5"/>
<text text-anchor="middle" x="541.57" y="-216.3" font-family="Times,serif" font-size="14.00">&lt;&lt;Interface&gt;&gt;</text>
<text text-anchor="middle" x="541.57" y="-199.5" font-family="Times,serif" font-size="14.00">IMorpho</text>
<text text-anchor="middle" x="541.57" y="-182.7" font-family="Times,serif" font-size="14.00">../contracts/interfaces/morpho/IMorpho.sol</text>
</g>
<!-- 197&#45;&gt;198 -->
<g id="edge2" class="edge">
<title>197&#45;&gt;198</title>
<path fill="none" stroke="black" stroke-dasharray="5,2" d="M457.9,-137.58C470.12,-147.09 483.9,-157.82 496.7,-167.78"/>
<polygon fill="black" stroke="black" points="494.91,-170.82 504.95,-174.2 499.21,-165.29 494.91,-170.82"/>
</g>
<!-- 234 -->
<g id="node6" class="node">
<title>234</title>
<polygon fill="#f2f2f2" stroke="black" points="21.53,-174.5 21.53,-232.9 395.6,-232.9 395.6,-174.5 21.53,-174.5"/>
<text text-anchor="middle" x="208.57" y="-216.3" font-family="Times,serif" font-size="14.00">&lt;&lt;Interface&gt;&gt;</text>
<text text-anchor="middle" x="208.57" y="-199.5" font-family="Times,serif" font-size="14.00">ICompoundOracle</text>
<text text-anchor="middle" x="208.57" y="-182.7" font-family="Times,serif" font-size="14.00">../contracts/interfaces/morpho/compound/ICompoundOracle.sol</text>
</g>
<!-- 197&#45;&gt;234 -->
<g id="edge4" class="edge">
<title>197&#45;&gt;234</title>
<path fill="none" stroke="black" stroke-dasharray="5,2" d="M357.08,-137.58C333.52,-147.91 306.69,-159.67 282.38,-170.33"/>
<polygon fill="black" stroke="black" points="280.95,-167.14 273.2,-174.36 283.76,-173.55 280.95,-167.14"/>
</g>
<!-- 198&#45;&gt;22 -->
<g id="edge5" class="edge">
<title>198&#45;&gt;22</title>
<path fill="none" stroke="black" stroke-dasharray="5,2" d="M458.62,-232.98C427.64,-243.54 392.27,-255.59 360.46,-266.43"/>
<polygon fill="black" stroke="black" points="359.05,-263.22 350.71,-269.76 361.31,-269.84 359.05,-263.22"/>
</g>
<!-- 125 -->
<g id="node7" class="node">
<title>125</title>
<polygon fill="#f2f2f2" stroke="black" points="773.57,-79.1 773.57,-137.5 1067.57,-137.5 1067.57,-79.1 773.57,-79.1"/>
<text text-anchor="middle" x="920.57" y="-120.9" font-family="Times,serif" font-size="14.00">&lt;&lt;Abstract&gt;&gt;</text>
<text text-anchor="middle" x="920.57" y="-104.1" font-family="Times,serif" font-size="14.00">BaseCompoundStrategy</text>
<text text-anchor="middle" x="920.57" y="-87.3" font-family="Times,serif" font-size="14.00">../contracts/strategies/BaseCompoundStrategy.sol</text>
</g>
<!-- 142 -->
<g id="node8" class="node">
<title>142</title>
<polygon fill="#f2f2f2" stroke="black" points="688.17,-174.5 688.17,-232.9 912.97,-232.9 912.97,-174.5 688.17,-174.5"/>
<text text-anchor="middle" x="800.57" y="-216.3" font-family="Times,serif" font-size="14.00">&lt;&lt;Interface&gt;&gt;</text>
<text text-anchor="middle" x="800.57" y="-199.5" font-family="Times,serif" font-size="14.00">ICERC20</text>
<text text-anchor="middle" x="800.57" y="-182.7" font-family="Times,serif" font-size="14.00">../contracts/strategies/ICompound.sol</text>
</g>
<!-- 125&#45;&gt;142 -->
<g id="edge7" class="edge">
<title>125&#45;&gt;142</title>
<path fill="none" stroke="black" stroke-dasharray="5,2" d="M884.24,-137.58C872.02,-147.09 858.23,-157.82 845.43,-167.78"/>
<polygon fill="black" stroke="black" points="842.93,-165.29 837.19,-174.2 847.23,-170.82 842.93,-165.29"/>
</g>
<!-- 168 -->
<g id="node12" class="node">
<title>168</title>
<polygon fill="#f2f2f2" stroke="black" points="930.52,-174.5 930.52,-232.9 1220.61,-232.9 1220.61,-174.5 930.52,-174.5"/>
<text text-anchor="middle" x="1075.57" y="-216.3" font-family="Times,serif" font-size="14.00">&lt;&lt;Abstract&gt;&gt;</text>
<text text-anchor="middle" x="1075.57" y="-199.5" font-family="Times,serif" font-size="14.00">InitializableAbstractStrategy</text>
<text text-anchor="middle" x="1075.57" y="-182.7" font-family="Times,serif" font-size="14.00">../contracts/utils/InitializableAbstractStrategy.sol</text>
</g>
<!-- 125&#45;&gt;168 -->
<g id="edge6" class="edge">
<title>125&#45;&gt;168</title>
<path fill="none" stroke="black" d="M967.49,-137.58C978.52,-144.22 990.53,-151.46 1002.41,-158.61"/>
<polygon fill="none" stroke="black" points="997.42,-167.87 1028.53,-174.36 1008.26,-149.88 997.42,-167.87"/>
</g>
<!-- 150 -->
<g id="node9" class="node">
<title>150</title>
<polygon fill="#f2f2f2" stroke="black" points="764.62,-0.5 764.62,-42.1 1076.52,-42.1 1076.52,-0.5 764.62,-0.5"/>
<text text-anchor="middle" x="920.57" y="-25.5" font-family="Times,serif" font-size="14.00">MorphoCompoundStrategy</text>
<text text-anchor="middle" x="920.57" y="-8.7" font-family="Times,serif" font-size="14.00">../contracts/strategies/MorphoCompoundStrategy.sol</text>
</g>
<!-- 150&#45;&gt;197 -->
<g id="edge10" class="edge">
<title>150&#45;&gt;197</title>
<path fill="none" stroke="black" stroke-dasharray="5,2" d="M804.2,-42.12C728.39,-55.04 629.39,-71.9 551.08,-85.24"/>
<polygon fill="black" stroke="black" points="550.42,-81.8 541.15,-86.93 551.6,-88.7 550.42,-81.8"/>
</g>
<!-- 150&#45;&gt;198 -->
<g id="edge9" class="edge">
<title>150&#45;&gt;198</title>
<path fill="none" stroke="black" stroke-dasharray="5,2" d="M858.53,-42.11C829.55,-52.02 794.84,-64.82 764.57,-78.6 705.21,-105.61 640.39,-142.59 596.01,-169.14"/>
<polygon fill="black" stroke="black" points="594.19,-166.15 587.42,-174.3 597.79,-172.15 594.19,-166.15"/>
</g>
<!-- 150&#45;&gt;125 -->
<g id="edge8" class="edge">
<title>150&#45;&gt;125</title>
<path fill="none" stroke="black" d="M920.57,-42.44C920.57,-44.49 920.57,-46.63 920.57,-48.83"/>
<polygon fill="none" stroke="black" points="910.07,-48.94 920.57,-78.94 931.07,-48.94 910.07,-48.94"/>
</g>
<!-- 159 -->
<g id="node10" class="node">
<title>159</title>
<polygon fill="#f2f2f2" stroke="black" points="1030.44,-443.9 1030.44,-485.5 1204.7,-485.5 1204.7,-443.9 1030.44,-443.9"/>
<text text-anchor="middle" x="1117.57" y="-468.9" font-family="Times,serif" font-size="14.00">OUSD</text>
<text text-anchor="middle" x="1117.57" y="-452.1" font-family="Times,serif" font-size="14.00">../contracts/token/OUSD.sol</text>
</g>
<!-- 159&#45;&gt;7 -->
<g id="edge13" class="edge">
<title>159&#45;&gt;7</title>
<path fill="none" stroke="black" d="M1052.74,-485.52C1017.2,-496.39 972.5,-510.05 933.23,-522.06"/>
<polygon fill="none" stroke="black" points="930.12,-512.03 904.5,-530.85 936.26,-532.12 930.12,-512.03"/>
</g>
<!-- 167 -->
<g id="node11" class="node">
<title>167</title>
<polygon fill="#f2f2f2" stroke="black" points="1277.56,-522.5 1277.56,-580.9 1473.57,-580.9 1473.57,-522.5 1277.56,-522.5"/>
<text text-anchor="middle" x="1375.57" y="-564.3" font-family="Times,serif" font-size="14.00">&lt;&lt;Abstract&gt;&gt;</text>
<text text-anchor="middle" x="1375.57" y="-547.5" font-family="Times,serif" font-size="14.00">Initializable</text>
<text text-anchor="middle" x="1375.57" y="-530.7" font-family="Times,serif" font-size="14.00">../contracts/utils/Initializable.sol</text>
</g>
<!-- 159&#45;&gt;167 -->
<g id="edge11" class="edge">
<title>159&#45;&gt;167</title>
<path fill="none" stroke="black" d="M1177.73,-485.52C1202.62,-493.72 1232.33,-503.51 1261.08,-512.98"/>
<polygon fill="none" stroke="black" points="1258.08,-523.05 1289.86,-522.46 1264.65,-503.1 1258.08,-523.05"/>
</g>
<!-- 170 -->
<g id="node13" class="node">
<title>170</title>
<polygon fill="#f2f2f2" stroke="black" points="975.24,-522.5 975.24,-580.9 1259.9,-580.9 1259.9,-522.5 975.24,-522.5"/>
<text text-anchor="middle" x="1117.57" y="-564.3" font-family="Times,serif" font-size="14.00">&lt;&lt;Abstract&gt;&gt;</text>
<text text-anchor="middle" x="1117.57" y="-547.5" font-family="Times,serif" font-size="14.00">InitializableERC20Detailed</text>
<text text-anchor="middle" x="1117.57" y="-530.7" font-family="Times,serif" font-size="14.00">../contracts/utils/InitializableERC20Detailed.sol</text>
</g>
<!-- 159&#45;&gt;170 -->
<g id="edge12" class="edge">
<title>159&#45;&gt;170</title>
<path fill="none" stroke="black" d="M1117.57,-485.84C1117.57,-487.89 1117.57,-490.03 1117.57,-492.23"/>
<polygon fill="none" stroke="black" points="1107.07,-492.34 1117.57,-522.34 1128.07,-492.34 1107.07,-492.34"/>
</g>
<!-- 168&#45;&gt;7 -->
<g id="edge15" class="edge">
<title>168&#45;&gt;7</title>
<path fill="none" stroke="black" d="M1014.79,-232.97C998.28,-242.77 981.43,-254.98 968.57,-269.4 907.15,-338.25 870.08,-441.31 852.33,-501.7"/>
<polygon fill="none" stroke="black" points="842.18,-499.01 844.34,-530.72 862.43,-504.58 842.18,-499.01"/>
</g>
<!-- 168&#45;&gt;40 -->
<g id="edge18" class="edge">
<title>168&#45;&gt;40</title>
<path fill="none" stroke="black" stroke-dasharray="5,2" d="M1075.57,-232.98C1075.57,-241.31 1075.57,-250.58 1075.57,-259.45"/>
<polygon fill="black" stroke="black" points="1072.07,-259.6 1075.57,-269.6 1079.07,-259.6 1072.07,-259.6"/>
</g>
<!-- 168&#45;&gt;167 -->
<g id="edge14" class="edge">
<title>168&#45;&gt;167</title>
<path fill="none" stroke="black" d="M1132.33,-232.97C1149.56,-243.08 1167.81,-255.47 1182.57,-269.4 1254,-336.84 1313.88,-434.97 1347.2,-495.71"/>
<polygon fill="none" stroke="black" points="1337.97,-500.71 1361.36,-522.23 1356.49,-490.82 1337.97,-500.71"/>
</g>
<!-- 168&#45;&gt;168 -->
<g id="edge16" class="edge">
<title>168&#45;&gt;168</title>
<path fill="none" stroke="black" stroke-dasharray="5,2" d="M1220.78,-190.48C1231.82,-193.42 1238.61,-197.82 1238.61,-203.7 1238.61,-207.56 1235.69,-210.78 1230.56,-213.37"/>
<polygon fill="black" stroke="black" points="1228.99,-210.22 1220.78,-216.92 1231.38,-216.8 1228.99,-210.22"/>
</g>
<!-- 357 -->
<g id="node15" class="node">
<title>357</title>
<polygon fill="#f2f2f2" stroke="black" points="915.51,-617.9 915.51,-676.3 1319.62,-676.3 1319.62,-617.9 915.51,-617.9"/>
<text text-anchor="middle" x="1117.57" y="-659.7" font-family="Times,serif" font-size="14.00">&lt;&lt;Interface&gt;&gt;</text>
<text text-anchor="middle" x="1117.57" y="-642.9" font-family="Times,serif" font-size="14.00">IERC20</text>
<text text-anchor="middle" x="1117.57" y="-626.1" font-family="Times,serif" font-size="14.00">../node_modules/@openzeppelin/contracts/token/ERC20/IERC20.sol</text>
</g>
<!-- 168&#45;&gt;357 -->
<g id="edge17" class="edge">
<title>168&#45;&gt;357</title>
<path fill="none" stroke="black" stroke-dasharray="5,2" d="M1220.68,-208.51C1344.14,-220.42 1501.57,-260.11 1501.57,-385.1 1501.57,-385.1 1501.57,-385.1 1501.57,-465.7 1501.57,-517.81 1519.18,-544.32 1482.57,-581.4 1459.51,-604.75 1396.9,-619.77 1329.9,-629.38"/>
<polygon fill="black" stroke="black" points="1329.41,-625.91 1319.99,-630.76 1330.38,-632.85 1329.41,-625.91"/>
</g>
<!-- 170&#45;&gt;357 -->
<g id="edge19" class="edge">
<title>170&#45;&gt;357</title>
<path fill="none" stroke="black" stroke-dasharray="5,2" d="M1117.57,-580.98C1117.57,-583.06 1117.57,-585.2 1117.57,-587.38"/>
<polygon fill="none" stroke="black" points="1107.07,-587.6 1117.57,-617.6 1128.07,-587.6 1107.07,-587.6"/>
</g>
<!-- 180&#45;&gt;7 -->
<g id="edge21" class="edge">
<title>180&#45;&gt;7</title>
<path fill="none" stroke="black" d="M1046.63,-407.16C1008.49,-433.6 940.66,-480.62 893.05,-513.62"/>
<polygon fill="none" stroke="black" points="887.05,-505.01 868.37,-530.73 899.01,-522.27 887.05,-505.01"/>
</g>
<!-- 180&#45;&gt;159 -->
<g id="edge22" class="edge">
<title>180&#45;&gt;159</title>
<path fill="none" stroke="black" d="M1086.6,-407.23C1091.23,-415.67 1096.7,-425.65 1101.75,-434.85"/>
<polygon fill="black" stroke="black" points="1098.73,-436.62 1106.61,-443.71 1104.87,-433.26 1098.73,-436.62"/>
</g>
<!-- 180&#45;&gt;167 -->
<g id="edge20" class="edge">
<title>180&#45;&gt;167</title>
<path fill="none" stroke="black" d="M1131.44,-407C1157,-416.83 1187.37,-429.56 1213.57,-443.4 1247.59,-461.38 1283.46,-484.64 1312.78,-504.91"/>
<polygon fill="none" stroke="black" points="1307.05,-513.72 1337.61,-522.44 1319.16,-496.56 1307.05,-513.72"/>
</g>
</g>
</svg>
