<?xml version="1.0" encoding="UTF-8" standalone="no"?>
<!DOCTYPE svg PUBLIC "-//W3C//DTD SVG 1.1//EN"
 "http://www.w3.org/Graphics/SVG/1.1/DTD/svg11.dtd">
<!-- Generated by graphviz version 5.0.0 (20220707.1540)
 -->
<!-- Title: StorageDiagram Pages: 1 -->
<svg width="1477pt" height="356pt"
 viewBox="0.00 0.00 1477.42 356.20" xmlns="http://www.w3.org/2000/svg" xmlns:xlink="http://www.w3.org/1999/xlink">
<g id="graph0" class="graph" transform="scale(1 1) rotate(0) translate(4 352.2)">
<title>StorageDiagram</title>
<polygon fill="white" stroke="transparent" points="-4,4 -4,-352.2 1473.42,-352.2 1473.42,4 -4,4"/>
<!-- 3 -->
<g id="node1" class="node">
<title>3</title>
<polygon fill="#f2f2f2" stroke="black" points="0,-0.5 0,-347.7 862.93,-347.7 862.93,-0.5 0,-0.5"/>
<text text-anchor="middle" x="431.47" y="-331.1" font-family="Courier New" font-size="14.00">MorphoCompoundStrategy &lt;&lt;Contract&gt;&gt;</text>
<polyline fill="none" stroke="black" points="0,-322.9 862.93,-322.9 "/>
<text text-anchor="middle" x="37.4" y="-306.3" font-family="Courier New" font-size="14.00">slot</text>
<polyline fill="none" stroke="black" points="0,-298.1 74.81,-298.1 "/>
<text text-anchor="middle" x="37.4" y="-281.5" font-family="Courier New" font-size="14.00">0</text>
<polyline fill="none" stroke="black" points="0,-273.3 74.81,-273.3 "/>
<text text-anchor="middle" x="37.4" y="-256.7" font-family="Courier New" font-size="14.00">1&#45;50</text>
<polyline fill="none" stroke="black" points="0,-248.5 74.81,-248.5 "/>
<text text-anchor="middle" x="37.4" y="-231.9" font-family="Courier New" font-size="14.00">51</text>
<polyline fill="none" stroke="black" points="0,-223.7 74.81,-223.7 "/>
<text text-anchor="middle" x="37.4" y="-207.1" font-family="Courier New" font-size="14.00">52</text>
<polyline fill="none" stroke="black" points="0,-198.9 74.81,-198.9 "/>
<text text-anchor="middle" x="37.4" y="-182.3" font-family="Courier New" font-size="14.00">53</text>
<polyline fill="none" stroke="black" points="0,-174.1 74.81,-174.1 "/>
<text text-anchor="middle" x="37.4" y="-157.5" font-family="Courier New" font-size="14.00">54</text>
<polyline fill="none" stroke="black" points="0,-149.3 74.81,-149.3 "/>
<text text-anchor="middle" x="37.4" y="-132.7" font-family="Courier New" font-size="14.00">55</text>
<polyline fill="none" stroke="black" points="0,-124.5 74.81,-124.5 "/>
<text text-anchor="middle" x="37.4" y="-107.9" font-family="Courier New" font-size="14.00">56</text>
<polyline fill="none" stroke="black" points="0,-99.7 74.81,-99.7 "/>
<text text-anchor="middle" x="37.4" y="-83.1" font-family="Courier New" font-size="14.00">57</text>
<polyline fill="none" stroke="black" points="0,-74.9 74.81,-74.9 "/>
<text text-anchor="middle" x="37.4" y="-58.3" font-family="Courier New" font-size="14.00">58</text>
<polyline fill="none" stroke="black" points="0,-50.1 74.81,-50.1 "/>
<text text-anchor="middle" x="37.4" y="-33.5" font-family="Courier New" font-size="14.00">59&#45;156</text>
<polyline fill="none" stroke="black" points="0,-25.3 74.81,-25.3 "/>
<text text-anchor="middle" x="37.4" y="-8.7" font-family="Courier New" font-size="14.00">157&#45;206</text>
<polyline fill="none" stroke="black" points="74.81,-0.5 74.81,-322.9 "/>
<text text-anchor="middle" x="468.87" y="-306.3" font-family="Courier New" font-size="14.00">type: &lt;inherited contract&gt;.variable (bytes)</text>
<polyline fill="none" stroke="black" points="74.81,-298.1 862.93,-298.1 "/>
<text text-anchor="middle" x="151.52" y="-281.5" font-family="Courier New" font-size="14.00">unallocated (30)</text>
<polyline fill="none" stroke="black" points="228.23,-273.3 228.23,-298.1 "/>
<text text-anchor="middle" x="388.96" y="-281.5" font-family="Courier New" font-size="14.00">bool: Initializable.initializing (1)</text>
<polyline fill="none" stroke="black" points="549.68,-273.3 549.68,-298.1 "/>
<text text-anchor="middle" x="706.2" y="-281.5" font-family="Courier New" font-size="14.00">bool: Initializable.initialized (1)</text>
<polyline fill="none" stroke="black" points="74.81,-273.3 862.93,-273.3 "/>
<text text-anchor="middle" x="468.44" y="-256.7" font-family="Courier New" font-size="14.00">uint256[50]: Initializable.______gap (1600)</text>
<polyline fill="none" stroke="black" points="74.81,-248.5 862.93,-248.5 "/>
<text text-anchor="middle" x="156.02" y="-231.9" font-family="Courier New" font-size="14.00">unallocated (12)</text>
<polyline fill="none" stroke="black" points="237.23,-223.7 237.23,-248.5 "/>
<text text-anchor="middle" x="549.98" y="-231.9" font-family="Courier New" font-size="14.00">address: InitializableAbstractStrategy._deprecated_platformAddress (20)</text>
<polyline fill="none" stroke="black" points="74.81,-223.7 862.93,-223.7 "/>
<text text-anchor="middle" x="162.52" y="-207.1" font-family="Courier New" font-size="14.00">unallocated (12)</text>
<polyline fill="none" stroke="black" points="250.23,-198.9 250.23,-223.7 "/>
<text text-anchor="middle" x="556.38" y="-207.1" font-family="Courier New" font-size="14.00">address: InitializableAbstractStrategy._deprecated_vaultAddress (20)</text>
<polyline fill="none" stroke="black" points="74.81,-198.9 862.93,-198.9 "/>
<text text-anchor="middle" x="468.86" y="-182.3" font-family="Courier New" font-size="14.00">mapping(address=&gt;address): InitializableAbstractStrategy.assetToPToken (32)</text>
<polyline fill="none" stroke="black" points="74.81,-174.1 862.93,-174.1 "/>
<text text-anchor="middle" x="468.45" y="-157.5" font-family="Courier New" font-size="14.00">address[]: InitializableAbstractStrategy.assetsMapped (32)</text>
<polyline fill="none" stroke="black" points="74.81,-149.3 862.93,-149.3 "/>
<text text-anchor="middle" x="150.02" y="-132.7" font-family="Courier New" font-size="14.00">unallocated (12)</text>
<polyline fill="none" stroke="black" points="225.23,-124.5 225.23,-149.3 "/>
<text text-anchor="middle" x="544.08" y="-132.7" font-family="Courier New" font-size="14.00">address: InitializableAbstractStrategy._deprecated_rewardTokenAddress (20)</text>
<polyline fill="none" stroke="black" points="74.81,-124.5 862.93,-124.5 "/>
<text text-anchor="middle" x="468.77" y="-107.9" font-family="Courier New" font-size="14.00">uint256: InitializableAbstractStrategy._deprecated_rewardLiquidationThreshold (32)</text>
<polyline fill="none" stroke="black" points="74.81,-99.7 862.93,-99.7 "/>
<text text-anchor="middle" x="179.02" y="-83.1" font-family="Courier New" font-size="14.00">unallocated (12)</text>
<polyline fill="none" stroke="black" points="283.23,-74.9 283.23,-99.7 "/>
<text text-anchor="middle" x="572.77" y="-83.1" font-family="Courier New" font-size="14.00">address: InitializableAbstractStrategy.harvesterAddress (20)</text>
<polyline fill="none" stroke="black" points="74.81,-74.9 862.93,-74.9 "/>
<text text-anchor="middle" x="468.55" y="-58.3" font-family="Courier New" font-size="14.00">address[]: InitializableAbstractStrategy.rewardTokenAddresses (32)</text>
<polyline fill="none" stroke="black" points="74.81,-50.1 862.93,-50.1 "/>
<text text-anchor="middle" x="468.45" y="-33.5" font-family="Courier New" font-size="14.00">int256[98]: InitializableAbstractStrategy._reserved (3136)</text>
<polyline fill="none" stroke="black" points="74.81,-25.3 862.93,-25.3 "/>
<text text-anchor="middle" x="468.84" y="-8.7" font-family="Courier New" font-size="14.00">int256[50]: BaseCompoundStrategy.__reserved (1600)</text>
</g>
<!-- 1 -->
<g id="node2" class="node">
<title>1</title>
<polygon fill="#f2f2f2" stroke="black" points="898.93,-121.5 898.93,-212.7 1469.42,-212.7 1469.42,-121.5 898.93,-121.5"/>
<text text-anchor="middle" x="1184.18" y="-196.1" font-family="Courier New" font-size="14.00">address[]: assetsMapped &lt;&lt;Array&gt;&gt;</text>
<text text-anchor="middle" x="1184.18" y="-179.3" font-family="Courier New" font-size="14.00">0x4a11f94e20a93c79f6ec743a1954ec4fc2c08429ae2122118bf234b2185c81b8</text>
<polyline fill="none" stroke="black" points="898.93,-171.1 1469.42,-171.1 "/>
<text text-anchor="middle" x="991.14" y="-154.5" font-family="Courier New" font-size="14.00">offset</text>
<polyline fill="none" stroke="black" points="898.93,-146.3 1083.34,-146.3 "/>
<text text-anchor="middle" x="991.14" y="-129.7" font-family="Courier New" font-size="14.00">0</text>
<polyline fill="none" stroke="black" points="1083.34,-121.5 1083.34,-171.1 "/>
<text text-anchor="middle" x="1275.96" y="-154.5" font-family="Courier New" font-size="14.00">type: variable (bytes)</text>
<polyline fill="none" stroke="black" points="1083.34,-146.3 1468.58,-146.3 "/>
<text text-anchor="middle" x="1188.05" y="-129.7" font-family="Courier New" font-size="14.00">unallocated (12)</text>
<polyline fill="none" stroke="black" points="1292.76,-121.5 1292.76,-146.3 "/>
<text text-anchor="middle" x="1380.67" y="-129.7" font-family="Courier New" font-size="14.00">address (20)</text>
</g>
<!-- 3&#45;&gt;1 -->
<g id="edge1" class="edge">
<title>3:8&#45;&gt;1</title>
<path fill="none" stroke="black" d="M862.93,-162.1C871.33,-162.1 879.84,-162.12 888.44,-162.15"/>
<polygon fill="black" stroke="black" points="888.55,-165.65 898.56,-162.2 888.58,-158.65 888.55,-165.65"/>
</g>
<!-- 2 -->
<g id="node3" class="node">
<title>2</title>
<polygon fill="#f2f2f2" stroke="black" points="898.93,-11.5 898.93,-102.7 1469.42,-102.7 1469.42,-11.5 898.93,-11.5"/>
<text text-anchor="middle" x="1184.18" y="-86.1" font-family="Courier New" font-size="14.00">address[]: rewardTokenAddresses &lt;&lt;Array&gt;&gt;</text>
<text text-anchor="middle" x="1184.18" y="-69.3" font-family="Courier New" font-size="14.00">0xa2999d817b6757290b50e8ecf3fa939673403dd35c97de392fdb343b4015ce9e</text>
<polyline fill="none" stroke="black" points="898.93,-61.1 1469.42,-61.1 "/>
<text text-anchor="middle" x="991.14" y="-44.5" font-family="Courier New" font-size="14.00">offset</text>
<polyline fill="none" stroke="black" points="898.93,-36.3 1083.34,-36.3 "/>
<text text-anchor="middle" x="991.14" y="-19.7" font-family="Courier New" font-size="14.00">0</text>
<polyline fill="none" stroke="black" points="1083.34,-11.5 1083.34,-61.1 "/>
<text text-anchor="middle" x="1275.96" y="-44.5" font-family="Courier New" font-size="14.00">type: variable (bytes)</text>
<polyline fill="none" stroke="black" points="1083.34,-36.3 1468.58,-36.3 "/>
<text text-anchor="middle" x="1188.05" y="-19.7" font-family="Courier New" font-size="14.00">unallocated (12)</text>
<polyline fill="none" stroke="black" points="1292.76,-11.5 1292.76,-36.3 "/>
<text text-anchor="middle" x="1380.67" y="-19.7" font-family="Courier New" font-size="14.00">address (20)</text>
</g>
<!-- 3&#45;&gt;2 -->
<g id="edge2" class="edge">
<title>3:13&#45;&gt;2</title>
<path fill="none" stroke="black" d="M862.93,-62.1C871.33,-62.1 879.84,-62.08 888.44,-62.05"/>
<polygon fill="black" stroke="black" points="888.58,-65.55 898.56,-62 888.55,-58.55 888.58,-65.55"/>
</g>
</g>
</svg>
