<?xml version="1.0" encoding="UTF-8" standalone="no"?>
<!DOCTYPE svg PUBLIC "-//W3C//DTD SVG 1.1//EN"
 "http://www.w3.org/Graphics/SVG/1.1/DTD/svg11.dtd">
<!-- Generated by graphviz version 5.0.0 (20220707.1540)
 -->
<!-- Title: UmlClassDiagram Pages: 1 -->
<svg width="1332pt" height="606pt"
 viewBox="0.00 0.00 1331.69 606.20" xmlns="http://www.w3.org/2000/svg" xmlns:xlink="http://www.w3.org/1999/xlink">
<g id="graph0" class="graph" transform="scale(1 1) rotate(0) translate(4 602.2)">
<title>UmlClassDiagram</title>
<polygon fill="white" stroke="transparent" points="-4,4 -4,-602.2 1327.69,-602.2 1327.69,4 -4,4"/>
<!-- 7 -->
<g id="node1" class="node">
<title>7</title>
<polygon fill="#f2f2f2" stroke="black" points="539.86,-452.3 539.86,-493.9 774.72,-493.9 774.72,-452.3 539.86,-452.3"/>
<text text-anchor="middle" x="657.29" y="-477.3" font-family="Times,serif" font-size="14.00">Governable</text>
<text text-anchor="middle" x="657.29" y="-460.5" font-family="Times,serif" font-size="14.00">../contracts/governance/Governable.sol</text>
</g>
<!-- 22 -->
<g id="node2" class="node">
<title>22</title>
<polygon fill="#f2f2f2" stroke="black" points="151.01,-269.9 151.01,-328.3 383.56,-328.3 383.56,-269.9 151.01,-269.9"/>
<text text-anchor="middle" x="267.29" y="-311.7" font-family="Times,serif" font-size="14.00">&lt;&lt;Interface&gt;&gt;</text>
<text text-anchor="middle" x="267.29" y="-294.9" font-family="Times,serif" font-size="14.00">IComptroller</text>
<text text-anchor="middle" x="267.29" y="-278.1" font-family="Times,serif" font-size="14.00">../contracts/interfaces/IComptroller.sol</text>
</g>
<!-- 40 -->
<g id="node3" class="node">
<title>40</title>
<polygon fill="#f2f2f2" stroke="black" points="728.68,-174.5 728.68,-232.9 923.89,-232.9 923.89,-174.5 728.68,-174.5"/>
<text text-anchor="middle" x="826.29" y="-216.3" font-family="Times,serif" font-size="14.00">&lt;&lt;Interface&gt;&gt;</text>
<text text-anchor="middle" x="826.29" y="-199.5" font-family="Times,serif" font-size="14.00">IVault</text>
<text text-anchor="middle" x="826.29" y="-182.7" font-family="Times,serif" font-size="14.00">../contracts/interfaces/IVault.sol</text>
</g>
<!-- 180 -->
<g id="node12" class="node">
<title>180</title>
<polygon fill="#f2f2f2" stroke="black" points="724.84,-278.3 724.84,-319.9 931.74,-319.9 931.74,-278.3 724.84,-278.3"/>
<text text-anchor="middle" x="828.29" y="-303.3" font-family="Times,serif" font-size="14.00">VaultStorage</text>
<text text-anchor="middle" x="828.29" y="-286.5" font-family="Times,serif" font-size="14.00">../contracts/vault/VaultStorage.sol</text>
</g>
<!-- 40&#45;&gt;180 -->
<g id="edge1" class="edge">
<title>40&#45;&gt;180</title>
<path fill="none" stroke="black" stroke-dasharray="5,2" d="M826.89,-232.98C827.13,-244.04 827.4,-256.75 827.64,-267.99"/>
<polygon fill="black" stroke="black" points="824.15,-268.29 827.86,-278.21 831.14,-268.14 824.15,-268.29"/>
</g>
<!-- 197 -->
<g id="node4" class="node">
<title>197</title>
<polygon fill="#f2f2f2" stroke="black" points="181.9,-79.1 181.9,-137.5 420.67,-137.5 420.67,-79.1 181.9,-79.1"/>
<text text-anchor="middle" x="301.29" y="-120.9" font-family="Times,serif" font-size="14.00">&lt;&lt;Interface&gt;&gt;</text>
<text text-anchor="middle" x="301.29" y="-104.1" font-family="Times,serif" font-size="14.00">ILens</text>
<text text-anchor="middle" x="301.29" y="-87.3" font-family="Times,serif" font-size="14.00">../contracts/interfaces/morpho/ILens.sol</text>
</g>
<!-- 197&#45;&gt;22 -->
<g id="edge3" class="edge">
<title>197&#45;&gt;22</title>
<path fill="none" stroke="black" stroke-dasharray="5,2" d="M181.61,-121.06C111.99,-130.65 33.82,-147.11 12.29,-174 -4.22,-194.61 -3.92,-212.56 12.29,-233.4 28.99,-254.87 85.34,-270.36 140.84,-280.8"/>
<polygon fill="black" stroke="black" points="140.35,-284.27 150.81,-282.62 141.61,-277.38 140.35,-284.27"/>
</g>
<!-- 198 -->
<g id="node5" class="node">
<title>198</title>
<polygon fill="#f2f2f2" stroke="black" points="412.96,-174.5 412.96,-232.9 669.62,-232.9 669.62,-174.5 412.96,-174.5"/>
<text text-anchor="middle" x="541.29" y="-216.3" font-family="Times,serif" font-size="14.00">&lt;&lt;Interface&gt;&gt;</text>
<text text-anchor="middle" x="541.29" y="-199.5" font-family="Times,serif" font-size="14.00">IMorpho</text>
<text text-anchor="middle" x="541.29" y="-182.7" font-family="Times,serif" font-size="14.00">../contracts/interfaces/morpho/IMorpho.sol</text>
</g>
<!-- 197&#45;&gt;198 -->
<g id="edge2" class="edge">
<title>197&#45;&gt;198</title>
<path fill="none" stroke="black" stroke-dasharray="5,2" d="M373.95,-137.58C400.73,-148 431.25,-159.88 458.84,-170.61"/>
<polygon fill="black" stroke="black" points="457.87,-173.99 468.46,-174.36 460.41,-167.47 457.87,-173.99"/>
</g>
<!-- 234 -->
<g id="node6" class="node">
<title>234</title>
<polygon fill="#f2f2f2" stroke="black" points="21.25,-174.5 21.25,-232.9 395.32,-232.9 395.32,-174.5 21.25,-174.5"/>
<text text-anchor="middle" x="208.29" y="-216.3" font-family="Times,serif" font-size="14.00">&lt;&lt;Interface&gt;&gt;</text>
<text text-anchor="middle" x="208.29" y="-199.5" font-family="Times,serif" font-size="14.00">ICompoundOracle</text>
<text text-anchor="middle" x="208.29" y="-182.7" font-family="Times,serif" font-size="14.00">../contracts/interfaces/morpho/compound/ICompoundOracle.sol</text>
</g>
<!-- 197&#45;&gt;234 -->
<g id="edge4" class="edge">
<title>197&#45;&gt;234</title>
<path fill="none" stroke="black" stroke-dasharray="5,2" d="M273.13,-137.58C263.93,-146.82 253.58,-157.21 243.91,-166.93"/>
<polygon fill="black" stroke="black" points="241.24,-164.64 236.67,-174.2 246.2,-169.58 241.24,-164.64"/>
</g>
<!-- 198&#45;&gt;22 -->
<g id="edge5" class="edge">
<title>198&#45;&gt;22</title>
<path fill="none" stroke="black" stroke-dasharray="5,2" d="M458.33,-232.98C427.36,-243.54 391.99,-255.59 360.18,-266.43"/>
<polygon fill="black" stroke="black" points="358.76,-263.22 350.43,-269.76 361.02,-269.84 358.76,-263.22"/>
</g>
<!-- 149 -->
<g id="node7" class="node">
<title>149</title>
<polygon fill="#f2f2f2" stroke="black" points="574.68,-0.5 574.68,-42.1 853.89,-42.1 853.89,-0.5 574.68,-0.5"/>
<text text-anchor="middle" x="714.29" y="-25.5" font-family="Times,serif" font-size="14.00">MorphoAaveStrategy</text>
<text text-anchor="middle" x="714.29" y="-8.7" font-family="Times,serif" font-size="14.00">../contracts/strategies/MorphoAaveStrategy.sol</text>
</g>
<!-- 149&#45;&gt;197 -->
<g id="edge8" class="edge">
<title>149&#45;&gt;197</title>
<path fill="none" stroke="black" stroke-dasharray="5,2" d="M617.98,-42.12C562.32,-53.58 491.56,-68.14 431.05,-80.59"/>
<polygon fill="black" stroke="black" points="430.13,-77.21 421.04,-82.65 431.54,-84.06 430.13,-77.21"/>
</g>
<!-- 149&#45;&gt;198 -->
<g id="edge7" class="edge">
<title>149&#45;&gt;198</title>
<path fill="none" stroke="black" stroke-dasharray="5,2" d="M612.48,-42.16C592.63,-50.41 573.81,-62.08 560.29,-78.6 540.9,-102.27 537.06,-137.29 537.55,-164.1"/>
<polygon fill="black" stroke="black" points="534.06,-164.44 537.95,-174.3 541.05,-164.17 534.06,-164.44"/>
</g>
<!-- 168 -->
<g id="node10" class="node">
<title>168</title>
<polygon fill="#f2f2f2" stroke="black" points="569.24,-79.1 569.24,-137.5 859.33,-137.5 859.33,-79.1 569.24,-79.1"/>
<text text-anchor="middle" x="714.29" y="-120.9" font-family="Times,serif" font-size="14.00">&lt;&lt;Abstract&gt;&gt;</text>
<text text-anchor="middle" x="714.29" y="-104.1" font-family="Times,serif" font-size="14.00">InitializableAbstractStrategy</text>
<text text-anchor="middle" x="714.29" y="-87.3" font-family="Times,serif" font-size="14.00">../contracts/utils/InitializableAbstractStrategy.sol</text>
</g>
<!-- 149&#45;&gt;168 -->
<g id="edge6" class="edge">
<title>149&#45;&gt;168</title>
<path fill="none" stroke="black" d="M714.29,-42.44C714.29,-44.49 714.29,-46.63 714.29,-48.83"/>
<polygon fill="none" stroke="black" points="703.79,-48.94 714.29,-78.94 724.79,-48.94 703.79,-48.94"/>
</g>
<!-- 159 -->
<g id="node8" class="node">
<title>159</title>
<polygon fill="#f2f2f2" stroke="black" points="848.16,-365.3 848.16,-406.9 1022.42,-406.9 1022.42,-365.3 848.16,-365.3"/>
<text text-anchor="middle" x="935.29" y="-390.3" font-family="Times,serif" font-size="14.00">OUSD</text>
<text text-anchor="middle" x="935.29" y="-373.5" font-family="Times,serif" font-size="14.00">../contracts/token/OUSD.sol</text>
</g>
<!-- 159&#45;&gt;7 -->
<g id="edge11" class="edge">
<title>159&#45;&gt;7</title>
<path fill="none" stroke="black" d="M870.46,-406.92C834.91,-417.79 790.22,-431.45 750.95,-443.46"/>
<polygon fill="none" stroke="black" points="747.84,-433.43 722.22,-452.25 753.98,-453.52 747.84,-433.43"/>
</g>
<!-- 167 -->
<g id="node9" class="node">
<title>167</title>
<polygon fill="#f2f2f2" stroke="black" points="1095.28,-443.9 1095.28,-502.3 1291.29,-502.3 1291.29,-443.9 1095.28,-443.9"/>
<text text-anchor="middle" x="1193.29" y="-485.7" font-family="Times,serif" font-size="14.00">&lt;&lt;Abstract&gt;&gt;</text>
<text text-anchor="middle" x="1193.29" y="-468.9" font-family="Times,serif" font-size="14.00">Initializable</text>
<text text-anchor="middle" x="1193.29" y="-452.1" font-family="Times,serif" font-size="14.00">../contracts/utils/Initializable.sol</text>
</g>
<!-- 159&#45;&gt;167 -->
<g id="edge9" class="edge">
<title>159&#45;&gt;167</title>
<path fill="none" stroke="black" d="M995.45,-406.92C1020.33,-415.12 1050.05,-424.91 1078.8,-434.38"/>
<polygon fill="none" stroke="black" points="1075.8,-444.45 1107.58,-443.86 1082.37,-424.5 1075.8,-444.45"/>
</g>
<!-- 170 -->
<g id="node11" class="node">
<title>170</title>
<polygon fill="#f2f2f2" stroke="black" points="792.96,-443.9 792.96,-502.3 1077.62,-502.3 1077.62,-443.9 792.96,-443.9"/>
<text text-anchor="middle" x="935.29" y="-485.7" font-family="Times,serif" font-size="14.00">&lt;&lt;Abstract&gt;&gt;</text>
<text text-anchor="middle" x="935.29" y="-468.9" font-family="Times,serif" font-size="14.00">InitializableERC20Detailed</text>
<text text-anchor="middle" x="935.29" y="-452.1" font-family="Times,serif" font-size="14.00">../contracts/utils/InitializableERC20Detailed.sol</text>
</g>
<!-- 159&#45;&gt;170 -->
<g id="edge10" class="edge">
<title>159&#45;&gt;170</title>
<path fill="none" stroke="black" d="M935.29,-407.24C935.29,-409.29 935.29,-411.43 935.29,-413.63"/>
<polygon fill="none" stroke="black" points="924.79,-413.74 935.29,-443.74 945.79,-413.74 924.79,-413.74"/>
</g>
<!-- 168&#45;&gt;7 -->
<g id="edge13" class="edge">
<title>168&#45;&gt;7</title>
<path fill="none" stroke="black" d="M709.81,-137.77C700.15,-199.26 677.23,-345.14 665.11,-422.29"/>
<polygon fill="none" stroke="black" points="654.7,-420.88 660.42,-452.14 675.45,-424.14 654.7,-420.88"/>
</g>
<!-- 168&#45;&gt;40 -->
<g id="edge16" class="edge">
<title>168&#45;&gt;40</title>
<path fill="none" stroke="black" stroke-dasharray="5,2" d="M748.19,-137.58C759.6,-147.09 772.47,-157.82 784.41,-167.78"/>
<polygon fill="black" stroke="black" points="782.19,-170.48 792.11,-174.2 786.67,-165.1 782.19,-170.48"/>
</g>
<!-- 168&#45;&gt;167 -->
<g id="edge12" class="edge">
<title>168&#45;&gt;167</title>
<path fill="none" stroke="black" d="M853.54,-137.54C881.23,-146.64 909.18,-158.53 933.29,-174 1032.92,-237.92 1116.26,-350.91 1160.07,-417.92"/>
<polygon fill="none" stroke="black" points="1151.41,-423.86 1176.37,-443.54 1169.13,-412.59 1151.41,-423.86"/>
</g>
<!-- 168&#45;&gt;168 -->
<g id="edge14" class="edge">
<title>168&#45;&gt;168</title>
<path fill="none" stroke="black" stroke-dasharray="5,2" d="M859.5,-96.21C870.54,-98.89 877.33,-102.92 877.33,-108.3 877.33,-111.83 874.41,-114.78 869.28,-117.15"/>
<polygon fill="black" stroke="black" points="867.89,-113.92 859.5,-120.39 870.09,-120.56 867.89,-113.92"/>
</g>
<!-- 357 -->
<g id="node13" class="node">
<title>357</title>
<polygon fill="#f2f2f2" stroke="black" points="733.23,-539.3 733.23,-597.7 1137.34,-597.7 1137.34,-539.3 733.23,-539.3"/>
<text text-anchor="middle" x="935.29" y="-581.1" font-family="Times,serif" font-size="14.00">&lt;&lt;Interface&gt;&gt;</text>
<text text-anchor="middle" x="935.29" y="-564.3" font-family="Times,serif" font-size="14.00">IERC20</text>
<text text-anchor="middle" x="935.29" y="-547.5" font-family="Times,serif" font-size="14.00">../node_modules/@openzeppelin/contracts/token/ERC20/IERC20.sol</text>
</g>
<!-- 168&#45;&gt;357 -->
<g id="edge15" class="edge">
<title>168&#45;&gt;357</title>
<path fill="none" stroke="black" stroke-dasharray="5,2" d="M859.58,-125.38C1038.58,-149.33 1319.29,-202.17 1319.29,-298.1 1319.29,-298.1 1319.29,-298.1 1319.29,-387.1 1319.29,-439.21 1336.9,-465.72 1300.29,-502.8 1277.23,-526.15 1214.62,-541.17 1147.62,-550.78"/>
<polygon fill="black" stroke="black" points="1147.13,-547.31 1137.71,-552.16 1148.1,-554.25 1147.13,-547.31"/>
</g>
<!-- 170&#45;&gt;357 -->
<g id="edge17" class="edge">
<title>170&#45;&gt;357</title>
<path fill="none" stroke="black" stroke-dasharray="5,2" d="M935.29,-502.38C935.29,-504.46 935.29,-506.6 935.29,-508.78"/>
<polygon fill="none" stroke="black" points="924.79,-509 935.29,-539 945.79,-509 924.79,-509"/>
</g>
<!-- 180&#45;&gt;7 -->
<g id="edge19" class="edge">
<title>180&#45;&gt;7</title>
<path fill="none" stroke="black" d="M808.34,-320.17C781.5,-347.16 733.13,-395.81 698.35,-430.8"/>
<polygon fill="none" stroke="black" points="690.81,-423.48 677.11,-452.16 705.71,-438.29 690.81,-423.48"/>
</g>
<!-- 180&#45;&gt;159 -->
<g id="edge20" class="edge">
<title>180&#45;&gt;159</title>
<path fill="none" stroke="black" d="M853.37,-320.03C868,-331.65 886.61,-346.43 902.39,-358.97"/>
<polygon fill="black" stroke="black" points="900.35,-361.82 910.36,-365.3 904.7,-356.34 900.35,-361.82"/>
</g>
<!-- 180&#45;&gt;167 -->
<g id="edge18" class="edge">
<title>180&#45;&gt;167</title>
<path fill="none" stroke="black" d="M907.83,-319.93C946.11,-330.85 992.09,-346.02 1031.29,-364.8 1066.64,-381.74 1103.27,-405.4 1132.74,-426.2"/>
<polygon fill="none" stroke="black" points="1126.62,-434.73 1157.07,-443.86 1138.96,-417.74 1126.62,-434.73"/>
</g>
</g>
</svg>
