<?xml version="1.0" encoding="UTF-8" standalone="no"?>
<!DOCTYPE svg PUBLIC "-//W3C//DTD SVG 1.1//EN"
 "http://www.w3.org/Graphics/SVG/1.1/DTD/svg11.dtd">
<!-- Generated by graphviz version 5.0.0 (20220707.1540)
 -->
<!-- Title: UmlClassDiagram Pages: 1 -->
<svg width="980pt" height="432pt"
 viewBox="0.00 0.00 979.64 432.20" xmlns="http://www.w3.org/2000/svg" xmlns:xlink="http://www.w3.org/1999/xlink">
<g id="graph0" class="graph" transform="scale(1 1) rotate(0) translate(4 428.2)">
<title>UmlClassDiagram</title>
<polygon fill="white" stroke="transparent" points="-4,4 -4,-428.2 975.64,-428.2 975.64,4 -4,4"/>
<!-- 20 -->
<g id="node1" class="node">
<title>20</title>
<polygon fill="#f2f2f2" stroke="black" points="246.17,-278.3 246.17,-319.9 481.02,-319.9 481.02,-278.3 246.17,-278.3"/>
<text text-anchor="middle" x="363.6" y="-303.3" font-family="Times,serif" font-size="14.00">Governable</text>
<text text-anchor="middle" x="363.6" y="-286.5" font-family="Times,serif" font-size="14.00">../contracts/governance/Governable.sol</text>
</g>
<!-- 282 -->
<g id="node2" class="node">
<title>282</title>
<polygon fill="#f2f2f2" stroke="black" points="0,-182.9 0,-224.5 335.19,-224.5 335.19,-182.9 0,-182.9"/>
<text text-anchor="middle" x="167.6" y="-207.9" font-family="Times,serif" font-size="14.00">FeeAccumulator</text>
<text text-anchor="middle" x="167.6" y="-191.1" font-family="Times,serif" font-size="14.00">../contracts/strategies/NativeStaking/FeeAccumulator.sol</text>
</g>
<!-- 282&#45;&gt;20 -->
<g id="edge1" class="edge">
<title>282&#45;&gt;20</title>
<path fill="none" stroke="black" d="M209.16,-224.51C233.89,-236.29 265.9,-251.55 294.36,-265.11"/>
<polygon fill="none" stroke="black" points="290.15,-274.73 321.75,-278.16 299.19,-255.78 290.15,-274.73"/>
</g>
<!-- 284 -->
<g id="node3" class="node">
<title>284</title>
<polygon fill="#f2f2f2" stroke="black" points="243.43,-0.5 243.43,-42.1 637.76,-42.1 637.76,-0.5 243.43,-0.5"/>
<text text-anchor="middle" x="440.6" y="-25.5" font-family="Times,serif" font-size="14.00">NativeStakingSSVStrategy</text>
<text text-anchor="middle" x="440.6" y="-8.7" font-family="Times,serif" font-size="14.00">../contracts/strategies/NativeStaking/NativeStakingSSVStrategy.sol</text>
</g>
<!-- 284&#45;&gt;282 -->
<g id="edge4" class="edge">
<title>284&#45;&gt;282</title>
<path fill="none" stroke="black" stroke-dasharray="5,2" d="M365.29,-42.2C339.14,-51.04 310.43,-63.04 286.6,-78.6 246.5,-104.78 209.93,-146.87 188.21,-174.66"/>
<polygon fill="black" stroke="black" points="185.28,-172.73 181.96,-182.79 190.83,-177 185.28,-172.73"/>
</g>
<!-- 285 -->
<g id="node4" class="node">
<title>285</title>
<polygon fill="#f2f2f2" stroke="black" points="603.95,-79.1 603.95,-137.5 963.24,-137.5 963.24,-79.1 603.95,-79.1"/>
<text text-anchor="middle" x="783.6" y="-120.9" font-family="Times,serif" font-size="14.00">&lt;&lt;Abstract&gt;&gt;</text>
<text text-anchor="middle" x="783.6" y="-104.1" font-family="Times,serif" font-size="14.00">ValidatorAccountant</text>
<text text-anchor="middle" x="783.6" y="-87.3" font-family="Times,serif" font-size="14.00">../contracts/strategies/NativeStaking/ValidatorAccountant.sol</text>
</g>
<!-- 284&#45;&gt;285 -->
<g id="edge2" class="edge">
<title>284&#45;&gt;285</title>
<path fill="none" stroke="black" d="M520.58,-42.12C556.26,-50.96 599.42,-61.66 640.36,-71.81"/>
<polygon fill="none" stroke="black" points="638,-82.04 669.65,-79.06 643.06,-61.65 638,-82.04"/>
</g>
<!-- 213 -->
<g id="node7" class="node">
<title>213</title>
<polygon fill="#f2f2f2" stroke="black" points="295.55,-79.1 295.55,-137.5 585.64,-137.5 585.64,-79.1 295.55,-79.1"/>
<text text-anchor="middle" x="440.6" y="-120.9" font-family="Times,serif" font-size="14.00">&lt;&lt;Abstract&gt;&gt;</text>
<text text-anchor="middle" x="440.6" y="-104.1" font-family="Times,serif" font-size="14.00">InitializableAbstractStrategy</text>
<text text-anchor="middle" x="440.6" y="-87.3" font-family="Times,serif" font-size="14.00">../contracts/utils/InitializableAbstractStrategy.sol</text>
</g>
<!-- 284&#45;&gt;213 -->
<g id="edge3" class="edge">
<title>284&#45;&gt;213</title>
<path fill="none" stroke="black" d="M440.6,-42.44C440.6,-44.49 440.6,-46.63 440.6,-48.83"/>
<polygon fill="none" stroke="black" points="430.1,-48.94 440.6,-78.94 451.1,-48.94 430.1,-48.94"/>
</g>
<!-- 287 -->
<g id="node5" class="node">
<title>287</title>
<polygon fill="#f2f2f2" stroke="black" points="605.11,-174.5 605.11,-232.9 962.08,-232.9 962.08,-174.5 605.11,-174.5"/>
<text text-anchor="middle" x="783.6" y="-216.3" font-family="Times,serif" font-size="14.00">&lt;&lt;Abstract&gt;&gt;</text>
<text text-anchor="middle" x="783.6" y="-199.5" font-family="Times,serif" font-size="14.00">ValidatorRegistrator</text>
<text text-anchor="middle" x="783.6" y="-182.7" font-family="Times,serif" font-size="14.00">../contracts/strategies/NativeStaking/ValidatorRegistrator.sol</text>
</g>
<!-- 285&#45;&gt;287 -->
<g id="edge5" class="edge">
<title>285&#45;&gt;287</title>
<path fill="none" stroke="black" d="M783.6,-137.58C783.6,-139.66 783.6,-141.8 783.6,-143.98"/>
<polygon fill="none" stroke="black" points="773.1,-144.2 783.6,-174.2 794.1,-144.2 773.1,-144.2"/>
</g>
<!-- 287&#45;&gt;20 -->
<g id="edge6" class="edge">
<title>287&#45;&gt;20</title>
<path fill="none" stroke="black" d="M656.73,-232.91C601.33,-245.23 536.73,-259.6 482.3,-271.7"/>
<polygon fill="none" stroke="black" points="479.82,-261.5 452.81,-278.26 484.38,-282 479.82,-261.5"/>
</g>
<!-- 344 -->
<g id="node8" class="node">
<title>344</title>
<polygon fill="#f2f2f2" stroke="black" points="595.55,-269.9 595.55,-328.3 971.64,-328.3 971.64,-269.9 595.55,-269.9"/>
<text text-anchor="middle" x="783.6" y="-311.7" font-family="Times,serif" font-size="14.00">&lt;&lt;Abstract&gt;&gt;</text>
<text text-anchor="middle" x="783.6" y="-294.9" font-family="Times,serif" font-size="14.00">Pausable</text>
<text text-anchor="middle" x="783.6" y="-278.1" font-family="Times,serif" font-size="14.00">../node_modules/@openzeppelin/contracts/security/Pausable.sol</text>
</g>
<!-- 287&#45;&gt;344 -->
<g id="edge7" class="edge">
<title>287&#45;&gt;344</title>
<path fill="none" stroke="black" d="M783.6,-232.98C783.6,-235.06 783.6,-237.2 783.6,-239.38"/>
<polygon fill="none" stroke="black" points="773.1,-239.6 783.6,-269.6 794.1,-239.6 773.1,-239.6"/>
</g>
<!-- 212 -->
<g id="node6" class="node">
<title>212</title>
<polygon fill="#f2f2f2" stroke="black" points="391.59,-174.5 391.59,-232.9 587.6,-232.9 587.6,-174.5 391.59,-174.5"/>
<text text-anchor="middle" x="489.6" y="-216.3" font-family="Times,serif" font-size="14.00">&lt;&lt;Abstract&gt;&gt;</text>
<text text-anchor="middle" x="489.6" y="-199.5" font-family="Times,serif" font-size="14.00">Initializable</text>
<text text-anchor="middle" x="489.6" y="-182.7" font-family="Times,serif" font-size="14.00">../contracts/utils/Initializable.sol</text>
</g>
<!-- 213&#45;&gt;20 -->
<g id="edge9" class="edge">
<title>213&#45;&gt;20</title>
<path fill="none" stroke="black" d="M408.8,-137.54C398.89,-148.02 388.91,-160.63 382.6,-174 371.77,-196.91 366.86,-224.6 364.72,-248"/>
<polygon fill="none" stroke="black" points="354.23,-247.69 363.21,-278.18 375.2,-248.74 354.23,-247.69"/>
</g>
<!-- 213&#45;&gt;212 -->
<g id="edge8" class="edge">
<title>213&#45;&gt;212</title>
<path fill="none" stroke="black" d="M455.43,-137.58C457.09,-140.75 458.83,-144.05 460.59,-147.42"/>
<polygon fill="none" stroke="black" points="451.41,-152.51 474.64,-174.2 470,-142.75 451.41,-152.51"/>
</g>
<!-- 349 -->
<g id="node9" class="node">
<title>349</title>
<polygon fill="#f2f2f2" stroke="black" points="608.37,-365.3 608.37,-423.7 958.82,-423.7 958.82,-365.3 608.37,-365.3"/>
<text text-anchor="middle" x="783.6" y="-407.1" font-family="Times,serif" font-size="14.00">&lt;&lt;Abstract&gt;&gt;</text>
<text text-anchor="middle" x="783.6" y="-390.3" font-family="Times,serif" font-size="14.00">Context</text>
<text text-anchor="middle" x="783.6" y="-373.5" font-family="Times,serif" font-size="14.00">../node_modules/@openzeppelin/contracts/utils/Context.sol</text>
</g>
<!-- 344&#45;&gt;349 -->
<g id="edge10" class="edge">
<title>344&#45;&gt;349</title>
<path fill="none" stroke="black" d="M783.6,-328.38C783.6,-330.46 783.6,-332.6 783.6,-334.78"/>
<polygon fill="none" stroke="black" points="773.1,-335 783.6,-365 794.1,-335 773.1,-335"/>
</g>
</g>
</svg>
