<?xml version="1.0" encoding="UTF-8" standalone="no"?>
<!DOCTYPE svg PUBLIC "-//W3C//DTD SVG 1.1//EN"
 "http://www.w3.org/Graphics/SVG/1.1/DTD/svg11.dtd">
<!-- Generated by graphviz version 5.0.0 (20220707.1540)
 -->
<!-- Title: StorageDiagram Pages: 1 -->
<svg width="1552pt" height="604pt"
 viewBox="0.00 0.00 1552.23 604.20" xmlns="http://www.w3.org/2000/svg" xmlns:xlink="http://www.w3.org/1999/xlink">
<g id="graph0" class="graph" transform="scale(1 1) rotate(0) translate(4 600.2)">
<title>StorageDiagram</title>
<polygon fill="white" stroke="transparent" points="-4,4 -4,-600.2 1548.23,-600.2 1548.23,4 -4,4"/>
<!-- 3 -->
<g id="node1" class="node">
<title>3</title>
<polygon fill="#f2f2f2" stroke="black" points="0,-0.5 0,-595.7 937.74,-595.7 937.74,-0.5 0,-0.5"/>
<text text-anchor="middle" x="468.87" y="-579.1" font-family="Courier New" font-size="14.00">NativeStakingSSVStrategy &lt;&lt;Contract&gt;&gt;</text>
<polyline fill="none" stroke="black" points="0,-570.9 937.74,-570.9 "/>
<text text-anchor="middle" x="37.4" y="-554.3" font-family="Courier New" font-size="14.00">slot</text>
<polyline fill="none" stroke="black" points="0,-546.1 74.81,-546.1 "/>
<text text-anchor="middle" x="37.4" y="-529.5" font-family="Courier New" font-size="14.00">0</text>
<polyline fill="none" stroke="black" points="0,-521.3 74.81,-521.3 "/>
<text text-anchor="middle" x="37.4" y="-504.7" font-family="Courier New" font-size="14.00">1</text>
<polyline fill="none" stroke="black" points="0,-496.5 74.81,-496.5 "/>
<text text-anchor="middle" x="37.4" y="-479.9" font-family="Courier New" font-size="14.00">2</text>
<polyline fill="none" stroke="black" points="0,-471.7 74.81,-471.7 "/>
<text text-anchor="middle" x="37.4" y="-455.1" font-family="Courier New" font-size="14.00">3&#45;52</text>
<polyline fill="none" stroke="black" points="0,-446.9 74.81,-446.9 "/>
<text text-anchor="middle" x="37.4" y="-430.3" font-family="Courier New" font-size="14.00">53</text>
<polyline fill="none" stroke="black" points="0,-422.1 74.81,-422.1 "/>
<text text-anchor="middle" x="37.4" y="-405.5" font-family="Courier New" font-size="14.00">54</text>
<polyline fill="none" stroke="black" points="0,-397.3 74.81,-397.3 "/>
<text text-anchor="middle" x="37.4" y="-380.7" font-family="Courier New" font-size="14.00">55</text>
<polyline fill="none" stroke="black" points="0,-372.5 74.81,-372.5 "/>
<text text-anchor="middle" x="37.4" y="-355.9" font-family="Courier New" font-size="14.00">56</text>
<polyline fill="none" stroke="black" points="0,-347.7 74.81,-347.7 "/>
<text text-anchor="middle" x="37.4" y="-331.1" font-family="Courier New" font-size="14.00">57</text>
<polyline fill="none" stroke="black" points="0,-322.9 74.81,-322.9 "/>
<text text-anchor="middle" x="37.4" y="-306.3" font-family="Courier New" font-size="14.00">58&#45;107</text>
<polyline fill="none" stroke="black" points="0,-298.1 74.81,-298.1 "/>
<text text-anchor="middle" x="37.4" y="-281.5" font-family="Courier New" font-size="14.00">108</text>
<polyline fill="none" stroke="black" points="0,-273.3 74.81,-273.3 "/>
<text text-anchor="middle" x="37.4" y="-256.7" font-family="Courier New" font-size="14.00">109&#45;158</text>
<polyline fill="none" stroke="black" points="0,-248.5 74.81,-248.5 "/>
<text text-anchor="middle" x="37.4" y="-231.9" font-family="Courier New" font-size="14.00">159</text>
<polyline fill="none" stroke="black" points="0,-223.7 74.81,-223.7 "/>
<text text-anchor="middle" x="37.4" y="-207.1" font-family="Courier New" font-size="14.00">160</text>
<polyline fill="none" stroke="black" points="0,-198.9 74.81,-198.9 "/>
<text text-anchor="middle" x="37.4" y="-182.3" font-family="Courier New" font-size="14.00">161</text>
<polyline fill="none" stroke="black" points="0,-174.1 74.81,-174.1 "/>
<text text-anchor="middle" x="37.4" y="-157.5" font-family="Courier New" font-size="14.00">162</text>
<polyline fill="none" stroke="black" points="0,-149.3 74.81,-149.3 "/>
<text text-anchor="middle" x="37.4" y="-132.7" font-family="Courier New" font-size="14.00">163</text>
<polyline fill="none" stroke="black" points="0,-124.5 74.81,-124.5 "/>
<text text-anchor="middle" x="37.4" y="-107.9" font-family="Courier New" font-size="14.00">164</text>
<polyline fill="none" stroke="black" points="0,-99.7 74.81,-99.7 "/>
<text text-anchor="middle" x="37.4" y="-83.1" font-family="Courier New" font-size="14.00">165</text>
<polyline fill="none" stroke="black" points="0,-74.9 74.81,-74.9 "/>
<text text-anchor="middle" x="37.4" y="-58.3" font-family="Courier New" font-size="14.00">166</text>
<polyline fill="none" stroke="black" points="0,-50.1 74.81,-50.1 "/>
<text text-anchor="middle" x="37.4" y="-33.5" font-family="Courier New" font-size="14.00">167&#45;264</text>
<polyline fill="none" stroke="black" points="0,-25.3 74.81,-25.3 "/>
<text text-anchor="middle" x="37.4" y="-8.7" font-family="Courier New" font-size="14.00">265&#45;314</text>
<polyline fill="none" stroke="black" points="74.81,-0.5 74.81,-570.9 "/>
<text text-anchor="middle" x="506.28" y="-554.3" font-family="Courier New" font-size="14.00">type: &lt;inherited contract&gt;.variable (bytes)</text>
<polyline fill="none" stroke="black" points="74.81,-546.1 937.74,-546.1 "/>
<text text-anchor="middle" x="150.02" y="-529.5" font-family="Courier New" font-size="14.00">unallocated (11)</text>
<polyline fill="none" stroke="black" points="225.23,-521.3 225.23,-546.1 "/>
<text text-anchor="middle" x="464.27" y="-529.5" font-family="Courier New" font-size="14.00">address: ValidatorRegistrator.validatorRegistrator (20)</text>
<polyline fill="none" stroke="black" points="703.31,-521.3 703.31,-546.1 "/>
<text text-anchor="middle" x="820.52" y="-529.5" font-family="Courier New" font-size="14.00">bool: Pausable._paused (1)</text>
<polyline fill="none" stroke="black" points="74.81,-521.3 937.74,-521.3 "/>
<text text-anchor="middle" x="505.85" y="-504.7" font-family="Courier New" font-size="14.00">uint256: ValidatorRegistrator.activeDepositedValidators (32)</text>
<polyline fill="none" stroke="black" points="74.81,-496.5 937.74,-496.5 "/>
<text text-anchor="middle" x="506.26" y="-479.9" font-family="Courier New" font-size="14.00">mapping(bytes32=&gt;VALIDATOR_STATE): ValidatorRegistrator.validatorsStates (32)</text>
<polyline fill="none" stroke="black" points="74.81,-471.7 937.74,-471.7 "/>
<text text-anchor="middle" x="506.04" y="-455.1" font-family="Courier New" font-size="14.00">uint256[50]: ValidatorRegistrator.__gap (1600)</text>
<polyline fill="none" stroke="black" points="74.81,-446.9 937.74,-446.9 "/>
<text text-anchor="middle" x="505.85" y="-430.3" font-family="Courier New" font-size="14.00">uint256: ValidatorAccountant.beaconChainRewardWETH (32)</text>
<polyline fill="none" stroke="black" points="74.81,-422.1 937.74,-422.1 "/>
<text text-anchor="middle" x="506.04" y="-405.5" font-family="Courier New" font-size="14.00">uint256: ValidatorAccountant.fuseIntervalStart (32)</text>
<polyline fill="none" stroke="black" points="74.81,-397.3 937.74,-397.3 "/>
<text text-anchor="middle" x="506.14" y="-380.7" font-family="Courier New" font-size="14.00">uint256: ValidatorAccountant.fuseIntervalEnd (32)</text>
<polyline fill="none" stroke="black" points="74.81,-372.5 937.74,-372.5 "/>
<text text-anchor="middle" x="214.52" y="-355.9" font-family="Courier New" font-size="14.00">unallocated (12)</text>
<polyline fill="none" stroke="black" points="354.23,-347.7 354.23,-372.5 "/>
<text text-anchor="middle" x="645.67" y="-355.9" font-family="Courier New" font-size="14.00">address: ValidatorAccountant.accountingGovernor (20)</text>
<polyline fill="none" stroke="black" points="74.81,-347.7 937.74,-347.7 "/>
<text text-anchor="middle" x="231.52" y="-331.1" font-family="Courier New" font-size="14.00">unallocated (12)</text>
<polyline fill="none" stroke="black" points="388.23,-322.9 388.23,-347.7 "/>
<text text-anchor="middle" x="662.56" y="-331.1" font-family="Courier New" font-size="14.00">address: ValidatorAccountant.strategist (20)</text>
<polyline fill="none" stroke="black" points="74.81,-322.9 937.74,-322.9 "/>
<text text-anchor="middle" x="505.84" y="-306.3" font-family="Courier New" font-size="14.00">uint256[50]: ValidatorAccountant.__gap (1600)</text>
<polyline fill="none" stroke="black" points="74.81,-298.1 937.74,-298.1 "/>
<text text-anchor="middle" x="164.02" y="-281.5" font-family="Courier New" font-size="14.00">unallocated (30)</text>
<polyline fill="none" stroke="black" points="253.23,-273.3 253.23,-298.1 "/>
<text text-anchor="middle" x="426.46" y="-281.5" font-family="Courier New" font-size="14.00">bool: Initializable.initializing (1)</text>
<polyline fill="none" stroke="black" points="599.68,-273.3 599.68,-298.1 "/>
<text text-anchor="middle" x="768.7" y="-281.5" font-family="Courier New" font-size="14.00">bool: Initializable.initialized (1)</text>
<polyline fill="none" stroke="black" points="74.81,-273.3 937.74,-273.3 "/>
<text text-anchor="middle" x="505.94" y="-256.7" font-family="Courier New" font-size="14.00">uint256[50]: Initializable.______gap (1600)</text>
<polyline fill="none" stroke="black" points="74.81,-248.5 937.74,-248.5 "/>
<text text-anchor="middle" x="175.02" y="-231.9" font-family="Courier New" font-size="14.00">unallocated (12)</text>
<polyline fill="none" stroke="black" points="275.23,-223.7 275.23,-248.5 "/>
<text text-anchor="middle" x="606.48" y="-231.9" font-family="Courier New" font-size="14.00">address: InitializableAbstractStrategy._deprecated_platformAddress (20)</text>
<polyline fill="none" stroke="black" points="74.81,-223.7 937.74,-223.7 "/>
<text text-anchor="middle" x="181.02" y="-207.1" font-family="Courier New" font-size="14.00">unallocated (12)</text>
<polyline fill="none" stroke="black" points="287.23,-198.9 287.23,-223.7 "/>
<text text-anchor="middle" x="612.38" y="-207.1" font-family="Courier New" font-size="14.00">address: InitializableAbstractStrategy._deprecated_vaultAddress (20)</text>
<polyline fill="none" stroke="black" points="74.81,-198.9 937.74,-198.9 "/>
<text text-anchor="middle" x="505.86" y="-182.3" font-family="Courier New" font-size="14.00">mapping(address=&gt;address): InitializableAbstractStrategy.assetToPToken (32)</text>
<polyline fill="none" stroke="black" points="74.81,-174.1 937.74,-174.1 "/>
<text text-anchor="middle" x="505.95" y="-157.5" font-family="Courier New" font-size="14.00">address[]: InitializableAbstractStrategy.assetsMapped (32)</text>
<polyline fill="none" stroke="black" points="74.81,-149.3 937.74,-149.3 "/>
<text text-anchor="middle" x="168.52" y="-132.7" font-family="Courier New" font-size="14.00">unallocated (12)</text>
<polyline fill="none" stroke="black" points="262.23,-124.5 262.23,-149.3 "/>
<text text-anchor="middle" x="599.58" y="-132.7" font-family="Courier New" font-size="14.00">address: InitializableAbstractStrategy._deprecated_rewardTokenAddress (20)</text>
<polyline fill="none" stroke="black" points="74.81,-124.5 937.74,-124.5 "/>
<text text-anchor="middle" x="506.27" y="-107.9" font-family="Courier New" font-size="14.00">uint256: InitializableAbstractStrategy._deprecated_rewardLiquidationThreshold (32)</text>
<polyline fill="none" stroke="black" points="74.81,-99.7 937.74,-99.7 "/>
<text text-anchor="middle" x="198.02" y="-83.1" font-family="Courier New" font-size="14.00">unallocated (12)</text>
<polyline fill="none" stroke="black" points="321.23,-74.9 321.23,-99.7 "/>
<text text-anchor="middle" x="629.27" y="-83.1" font-family="Courier New" font-size="14.00">address: InitializableAbstractStrategy.harvesterAddress (20)</text>
<polyline fill="none" stroke="black" points="74.81,-74.9 937.74,-74.9 "/>
<text text-anchor="middle" x="506.05" y="-58.3" font-family="Courier New" font-size="14.00">address[]: InitializableAbstractStrategy.rewardTokenAddresses (32)</text>
<polyline fill="none" stroke="black" points="74.81,-50.1 937.74,-50.1 "/>
<text text-anchor="middle" x="505.95" y="-33.5" font-family="Courier New" font-size="14.00">int256[98]: InitializableAbstractStrategy._reserved (3136)</text>
<polyline fill="none" stroke="black" points="74.81,-25.3 937.74,-25.3 "/>
<text text-anchor="middle" x="505.83" y="-8.7" font-family="Courier New" font-size="14.00">uint256[50]: __gap (1600)</text>
</g>
<!-- 1 -->
<g id="node2" class="node">
<title>1</title>
<polygon fill="#f2f2f2" stroke="black" points="973.74,-121.5 973.74,-212.7 1544.23,-212.7 1544.23,-121.5 973.74,-121.5"/>
<text text-anchor="middle" x="1258.99" y="-196.1" font-family="Courier New" font-size="14.00">address[]: assetsMapped &lt;&lt;Array&gt;&gt;</text>
<text text-anchor="middle" x="1258.99" y="-179.3" font-family="Courier New" font-size="14.00">0xaaf4f58de99300cfadc4585755f376d5fa747d5bc561d5bd9d710de1f91bf42d</text>
<polyline fill="none" stroke="black" points="973.74,-171.1 1544.23,-171.1 "/>
<text text-anchor="middle" x="1065.95" y="-154.5" font-family="Courier New" font-size="14.00">offset</text>
<polyline fill="none" stroke="black" points="973.74,-146.3 1158.15,-146.3 "/>
<text text-anchor="middle" x="1065.95" y="-129.7" font-family="Courier New" font-size="14.00">0</text>
<polyline fill="none" stroke="black" points="1158.15,-121.5 1158.15,-171.1 "/>
<text text-anchor="middle" x="1350.77" y="-154.5" font-family="Courier New" font-size="14.00">type: variable (bytes)</text>
<polyline fill="none" stroke="black" points="1158.15,-146.3 1543.39,-146.3 "/>
<text text-anchor="middle" x="1262.86" y="-129.7" font-family="Courier New" font-size="14.00">unallocated (12)</text>
<polyline fill="none" stroke="black" points="1367.57,-121.5 1367.57,-146.3 "/>
<text text-anchor="middle" x="1455.48" y="-129.7" font-family="Courier New" font-size="14.00">address (20)</text>
</g>
<!-- 3&#45;&gt;1 -->
<g id="edge1" class="edge">
<title>3:19&#45;&gt;1</title>
<path fill="none" stroke="black" d="M937.74,-162.1C946.14,-162.1 954.65,-162.12 963.25,-162.15"/>
<polygon fill="black" stroke="black" points="963.36,-165.65 973.37,-162.2 963.39,-158.65 963.36,-165.65"/>
</g>
<!-- 2 -->
<g id="node3" class="node">
<title>2</title>
<polygon fill="#f2f2f2" stroke="black" points="973.74,-11.5 973.74,-102.7 1544.23,-102.7 1544.23,-11.5 973.74,-11.5"/>
<text text-anchor="middle" x="1258.99" y="-86.1" font-family="Courier New" font-size="14.00">address[]: rewardTokenAddresses &lt;&lt;Array&gt;&gt;</text>
<text text-anchor="middle" x="1258.99" y="-69.3" font-family="Courier New" font-size="14.00">0x2da56674729343acc9933752c8c469a244252915242eb6d4c02d11ddd69164a1</text>
<polyline fill="none" stroke="black" points="973.74,-61.1 1544.23,-61.1 "/>
<text text-anchor="middle" x="1065.95" y="-44.5" font-family="Courier New" font-size="14.00">offset</text>
<polyline fill="none" stroke="black" points="973.74,-36.3 1158.15,-36.3 "/>
<text text-anchor="middle" x="1065.95" y="-19.7" font-family="Courier New" font-size="14.00">0</text>
<polyline fill="none" stroke="black" points="1158.15,-11.5 1158.15,-61.1 "/>
<text text-anchor="middle" x="1350.77" y="-44.5" font-family="Courier New" font-size="14.00">type: variable (bytes)</text>
<polyline fill="none" stroke="black" points="1158.15,-36.3 1543.39,-36.3 "/>
<text text-anchor="middle" x="1262.86" y="-19.7" font-family="Courier New" font-size="14.00">unallocated (12)</text>
<polyline fill="none" stroke="black" points="1367.57,-11.5 1367.57,-36.3 "/>
<text text-anchor="middle" x="1455.48" y="-19.7" font-family="Courier New" font-size="14.00">address (20)</text>
</g>
<!-- 3&#45;&gt;2 -->
<g id="edge2" class="edge">
<title>3:24&#45;&gt;2</title>
<path fill="none" stroke="black" d="M937.74,-62.1C946.14,-62.1 954.65,-62.08 963.25,-62.05"/>
<polygon fill="black" stroke="black" points="963.39,-65.55 973.37,-62 963.36,-58.55 963.39,-65.55"/>
</g>
</g>
</svg>
