<?xml version="1.0" encoding="UTF-8" standalone="no"?>
<!DOCTYPE svg PUBLIC "-//W3C//DTD SVG 1.1//EN"
 "http://www.w3.org/Graphics/SVG/1.1/DTD/svg11.dtd">
<!-- Generated by graphviz version 5.0.0 (20220707.1540)
 -->
<!-- Title: StorageDiagram Pages: 1 -->
<svg width="2413pt" height="849pt"
 viewBox="0.00 0.00 2412.76 849.20" xmlns="http://www.w3.org/2000/svg" xmlns:xlink="http://www.w3.org/1999/xlink">
<g id="graph0" class="graph" transform="scale(1 1) rotate(0) translate(4 845.2)">
<title>StorageDiagram</title>
<polygon fill="white" stroke="transparent" points="-4,4 -4,-845.2 2408.76,-845.2 2408.76,4 -4,4"/>
<!-- 7 -->
<g id="node1" class="node">
<title>7</title>
<polygon fill="#f2f2f2" stroke="black" points="0,-0.5 0,-645.3 1180.58,-645.3 1180.58,-0.5 0,-0.5"/>
<text text-anchor="middle" x="590.29" y="-628.7" font-family="Courier New" font-size="14.00">OETHVaultCore &lt;&lt;Contract&gt;&gt;</text>
<polyline fill="none" stroke="black" points="0,-620.5 1180.58,-620.5 "/>
<text text-anchor="middle" x="24.8" y="-603.9" font-family="Courier New" font-size="14.00">slot</text>
<polyline fill="none" stroke="black" points="0,-595.7 49.61,-595.7 "/>
<text text-anchor="middle" x="24.8" y="-579.1" font-family="Courier New" font-size="14.00">0</text>
<polyline fill="none" stroke="black" points="0,-570.9 49.61,-570.9 "/>
<text text-anchor="middle" x="24.8" y="-554.3" font-family="Courier New" font-size="14.00">1&#45;50</text>
<polyline fill="none" stroke="black" points="0,-546.1 49.61,-546.1 "/>
<text text-anchor="middle" x="24.8" y="-529.5" font-family="Courier New" font-size="14.00">51</text>
<polyline fill="none" stroke="black" points="0,-521.3 49.61,-521.3 "/>
<text text-anchor="middle" x="24.8" y="-504.7" font-family="Courier New" font-size="14.00">52</text>
<polyline fill="none" stroke="black" points="0,-496.5 49.61,-496.5 "/>
<text text-anchor="middle" x="24.8" y="-479.9" font-family="Courier New" font-size="14.00">53</text>
<polyline fill="none" stroke="black" points="0,-471.7 49.61,-471.7 "/>
<text text-anchor="middle" x="24.8" y="-455.1" font-family="Courier New" font-size="14.00">54</text>
<polyline fill="none" stroke="black" points="0,-446.9 49.61,-446.9 "/>
<text text-anchor="middle" x="24.8" y="-430.3" font-family="Courier New" font-size="14.00">55</text>
<polyline fill="none" stroke="black" points="0,-422.1 49.61,-422.1 "/>
<text text-anchor="middle" x="24.8" y="-405.5" font-family="Courier New" font-size="14.00">56</text>
<polyline fill="none" stroke="black" points="0,-397.3 49.61,-397.3 "/>
<text text-anchor="middle" x="24.8" y="-380.7" font-family="Courier New" font-size="14.00">57</text>
<polyline fill="none" stroke="black" points="0,-372.5 49.61,-372.5 "/>
<text text-anchor="middle" x="24.8" y="-355.9" font-family="Courier New" font-size="14.00">58</text>
<polyline fill="none" stroke="black" points="0,-347.7 49.61,-347.7 "/>
<text text-anchor="middle" x="24.8" y="-331.1" font-family="Courier New" font-size="14.00">59</text>
<polyline fill="none" stroke="black" points="0,-322.9 49.61,-322.9 "/>
<text text-anchor="middle" x="24.8" y="-306.3" font-family="Courier New" font-size="14.00">60</text>
<polyline fill="none" stroke="black" points="0,-298.1 49.61,-298.1 "/>
<text text-anchor="middle" x="24.8" y="-281.5" font-family="Courier New" font-size="14.00">61</text>
<polyline fill="none" stroke="black" points="0,-273.3 49.61,-273.3 "/>
<text text-anchor="middle" x="24.8" y="-256.7" font-family="Courier New" font-size="14.00">62</text>
<polyline fill="none" stroke="black" points="0,-248.5 49.61,-248.5 "/>
<text text-anchor="middle" x="24.8" y="-231.9" font-family="Courier New" font-size="14.00">63</text>
<polyline fill="none" stroke="black" points="0,-223.7 49.61,-223.7 "/>
<text text-anchor="middle" x="24.8" y="-207.1" font-family="Courier New" font-size="14.00">64</text>
<polyline fill="none" stroke="black" points="0,-198.9 49.61,-198.9 "/>
<text text-anchor="middle" x="24.8" y="-182.3" font-family="Courier New" font-size="14.00">65</text>
<polyline fill="none" stroke="black" points="0,-174.1 49.61,-174.1 "/>
<text text-anchor="middle" x="24.8" y="-157.5" font-family="Courier New" font-size="14.00">66</text>
<polyline fill="none" stroke="black" points="0,-149.3 49.61,-149.3 "/>
<text text-anchor="middle" x="24.8" y="-132.7" font-family="Courier New" font-size="14.00">67</text>
<polyline fill="none" stroke="black" points="0,-124.5 49.61,-124.5 "/>
<text text-anchor="middle" x="24.8" y="-107.9" font-family="Courier New" font-size="14.00">68</text>
<polyline fill="none" stroke="black" points="0,-99.7 49.61,-99.7 "/>
<text text-anchor="middle" x="24.8" y="-83.1" font-family="Courier New" font-size="14.00">69</text>
<polyline fill="none" stroke="black" points="0,-74.9 49.61,-74.9 "/>
<text text-anchor="middle" x="24.8" y="-58.3" font-family="Courier New" font-size="14.00">70</text>
<polyline fill="none" stroke="black" points="0,-50.1 49.61,-50.1 "/>
<text text-anchor="middle" x="24.8" y="-33.5" font-family="Courier New" font-size="14.00">71</text>
<polyline fill="none" stroke="black" points="0,-25.3 49.61,-25.3 "/>
<text text-anchor="middle" x="24.8" y="-8.7" font-family="Courier New" font-size="14.00">72</text>
<polyline fill="none" stroke="black" points="49.61,-0.5 49.61,-620.5 "/>
<text text-anchor="middle" x="615.09" y="-603.9" font-family="Courier New" font-size="14.00">type: &lt;inherited contract&gt;.variable (bytes)</text>
<polyline fill="none" stroke="black" points="49.61,-595.7 1180.58,-595.7 "/>
<text text-anchor="middle" x="183.32" y="-579.1" font-family="Courier New" font-size="14.00">unallocated (30)</text>
<polyline fill="none" stroke="black" points="317.03,-570.9 317.03,-595.7 "/>
<text text-anchor="middle" x="534.75" y="-579.1" font-family="Courier New" font-size="14.00">bool: Initializable.initializing (1)</text>
<polyline fill="none" stroke="black" points="752.48,-570.9 752.48,-595.7 "/>
<text text-anchor="middle" x="966.5" y="-579.1" font-family="Courier New" font-size="14.00">bool: Initializable.initialized (1)</text>
<polyline fill="none" stroke="black" points="49.61,-570.9 1180.58,-570.9 "/>
<text text-anchor="middle" x="614.73" y="-554.3" font-family="Courier New" font-size="14.00">uint256[50]: Initializable.______gap (1600)</text>
<polyline fill="none" stroke="black" points="49.61,-546.1 1180.58,-546.1 "/>
<text text-anchor="middle" x="614.94" y="-529.5" font-family="Courier New" font-size="14.00">mapping(address=&gt;Asset): VaultStorage.assets (32)</text>
<polyline fill="none" stroke="black" points="49.61,-521.3 1180.58,-521.3 "/>
<text text-anchor="middle" x="614.73" y="-504.7" font-family="Courier New" font-size="14.00">address[]: VaultStorage.allAssets (32)</text>
<polyline fill="none" stroke="black" points="49.61,-496.5 1180.58,-496.5 "/>
<text text-anchor="middle" x="614.84" y="-479.9" font-family="Courier New" font-size="14.00">mapping(address=&gt;Strategy): VaultStorage.strategies (32)</text>
<polyline fill="none" stroke="black" points="49.61,-471.7 1180.58,-471.7 "/>
<text text-anchor="middle" x="615.03" y="-455.1" font-family="Courier New" font-size="14.00">address[]: VaultStorage.allStrategies (32)</text>
<polyline fill="none" stroke="black" points="49.61,-446.9 1180.58,-446.9 "/>
<text text-anchor="middle" x="124.82" y="-430.3" font-family="Courier New" font-size="14.00">unallocated (10)</text>
<polyline fill="none" stroke="black" points="200.03,-422.1 200.03,-446.9 "/>
<text text-anchor="middle" x="359.25" y="-430.3" font-family="Courier New" font-size="14.00">bool: VaultStorage.capitalPaused (1)</text>
<polyline fill="none" stroke="black" points="518.48,-422.1 518.48,-446.9 "/>
<text text-anchor="middle" x="673.5" y="-430.3" font-family="Courier New" font-size="14.00">bool: VaultStorage.rebasePaused (1)</text>
<polyline fill="none" stroke="black" points="828.52,-422.1 828.52,-446.9 "/>
<text text-anchor="middle" x="1004.55" y="-430.3" font-family="Courier New" font-size="14.00">address: VaultStorage.priceProvider (20)</text>
<polyline fill="none" stroke="black" points="49.61,-422.1 1180.58,-422.1 "/>
<text text-anchor="middle" x="614.93" y="-405.5" font-family="Courier New" font-size="14.00">uint256: VaultStorage.redeemFeeBps (32)</text>
<polyline fill="none" stroke="black" points="49.61,-397.3 1180.58,-397.3 "/>
<text text-anchor="middle" x="614.73" y="-380.7" font-family="Courier New" font-size="14.00">uint256: VaultStorage.vaultBuffer (32)</text>
<polyline fill="none" stroke="black" points="49.61,-372.5 1180.58,-372.5 "/>
<text text-anchor="middle" x="614.74" y="-355.9" font-family="Courier New" font-size="14.00">uint256: VaultStorage.autoAllocateThreshold (32)</text>
<polyline fill="none" stroke="black" points="49.61,-347.7 1180.58,-347.7 "/>
<text text-anchor="middle" x="615.03" y="-331.1" font-family="Courier New" font-size="14.00">uint256: VaultStorage.rebaseThreshold (32)</text>
<polyline fill="none" stroke="black" points="49.61,-322.9 1180.58,-322.9 "/>
<text text-anchor="middle" x="614.72" y="-306.3" font-family="Courier New" font-size="14.00">OUSD: VaultStorage.oUSD (32)</text>
<polyline fill="none" stroke="black" points="49.61,-298.1 1180.58,-298.1 "/>
<text text-anchor="middle" x="252.32" y="-281.5" font-family="Courier New" font-size="14.00">unallocated (12)</text>
<polyline fill="none" stroke="black" points="455.03,-273.3 455.03,-298.1 "/>
<text text-anchor="middle" x="817.36" y="-281.5" font-family="Courier New" font-size="14.00">address: VaultStorage._deprecated_rebaseHooksAddr (20)</text>
<polyline fill="none" stroke="black" points="49.61,-273.3 1180.58,-273.3 "/>
<text text-anchor="middle" x="260.82" y="-256.7" font-family="Courier New" font-size="14.00">unallocated (12)</text>
<polyline fill="none" stroke="black" points="472.03,-248.5 472.03,-273.3 "/>
<text text-anchor="middle" x="826.06" y="-256.7" font-family="Courier New" font-size="14.00">address: VaultStorage._deprecated_uniswapAddr (20)</text>
<polyline fill="none" stroke="black" points="49.61,-248.5 1180.58,-248.5 "/>
<text text-anchor="middle" x="279.82" y="-231.9" font-family="Courier New" font-size="14.00">unallocated (12)</text>
<polyline fill="none" stroke="black" points="510.03,-223.7 510.03,-248.5 "/>
<text text-anchor="middle" x="845.26" y="-231.9" font-family="Courier New" font-size="14.00">address: VaultStorage.strategistAddr (20)</text>
<polyline fill="none" stroke="black" points="49.61,-223.7 1180.58,-223.7 "/>
<text text-anchor="middle" x="615.05" y="-207.1" font-family="Courier New" font-size="14.00">mapping(address=&gt;address): VaultStorage.assetDefaultStrategies (32)</text>
<polyline fill="none" stroke="black" points="49.61,-198.9 1180.58,-198.9 "/>
<text text-anchor="middle" x="614.63" y="-182.3" font-family="Courier New" font-size="14.00">uint256: VaultStorage.maxSupplyDiff (32)</text>
<polyline fill="none" stroke="black" points="49.61,-174.1 1180.58,-174.1 "/>
<text text-anchor="middle" x="279.82" y="-157.5" font-family="Courier New" font-size="14.00">unallocated (12)</text>
<polyline fill="none" stroke="black" points="510.03,-149.3 510.03,-174.1 "/>
<text text-anchor="middle" x="845.26" y="-157.5" font-family="Courier New" font-size="14.00">address: VaultStorage.trusteeAddress (20)</text>
<polyline fill="none" stroke="black" points="49.61,-149.3 1180.58,-149.3 "/>
<text text-anchor="middle" x="614.63" y="-132.7" font-family="Courier New" font-size="14.00">uint256: VaultStorage.trusteeFeeBps (32)</text>
<polyline fill="none" stroke="black" points="49.61,-124.5 1180.58,-124.5 "/>
<text text-anchor="middle" x="614.84" y="-107.9" font-family="Courier New" font-size="14.00">address[]: VaultStorage._deprecated_swapTokens (32)</text>
<polyline fill="none" stroke="black" points="49.61,-99.7 1180.58,-99.7 "/>
<text text-anchor="middle" x="275.32" y="-83.1" font-family="Courier New" font-size="14.00">unallocated (12)</text>
<polyline fill="none" stroke="black" points="501.03,-74.9 501.03,-99.7 "/>
<text text-anchor="middle" x="840.66" y="-83.1" font-family="Courier New" font-size="14.00">address: VaultStorage.ousdMetaStrategy (20)</text>
<polyline fill="none" stroke="black" points="49.61,-74.9 1180.58,-74.9 "/>
<text text-anchor="middle" x="614.64" y="-58.3" font-family="Courier New" font-size="14.00">int256: VaultStorage.netOusdMintedForStrategy (32)</text>
<polyline fill="none" stroke="black" points="49.61,-50.1 1180.58,-50.1 "/>
<text text-anchor="middle" x="614.75" y="-33.5" font-family="Courier New" font-size="14.00">uint256: VaultStorage.netOusdMintForStrategyThreshold (32)</text>
<polyline fill="none" stroke="black" points="49.61,-25.3 1180.58,-25.3 "/>
<text text-anchor="middle" x="294.32" y="-8.7" font-family="Courier New" font-size="14.00">unallocated (12)</text>
<polyline fill="none" stroke="black" points="539.03,-0.5 539.03,-25.3 "/>
<text text-anchor="middle" x="859.35" y="-8.7" font-family="Courier New" font-size="14.00">address: VaultStorage.swapper (20)</text>
</g>
<!-- 1 -->
<g id="node2" class="node">
<title>1</title>
<polygon fill="#f2f2f2" stroke="black" points="1668.25,-667.1 1668.25,-840.7 1953.09,-840.7 1953.09,-667.1 1668.25,-667.1"/>
<text text-anchor="middle" x="1810.67" y="-824.1" font-family="Courier New" font-size="14.00">uint256[50]: ______gap &lt;&lt;Array&gt;&gt;</text>
<polyline fill="none" stroke="black" points="1668.25,-815.9 1953.09,-815.9 "/>
<text text-anchor="middle" x="1701.55" y="-799.3" font-family="Courier New" font-size="14.00">slot</text>
<polyline fill="none" stroke="black" points="1668.25,-791.1 1734.85,-791.1 "/>
<text text-anchor="middle" x="1701.55" y="-774.5" font-family="Courier New" font-size="14.00">1</text>
<polyline fill="none" stroke="black" points="1668.25,-766.3 1734.85,-766.3 "/>
<text text-anchor="middle" x="1701.55" y="-749.7" font-family="Courier New" font-size="14.00">2</text>
<polyline fill="none" stroke="black" points="1668.25,-741.5 1734.85,-741.5 "/>
<text text-anchor="middle" x="1701.55" y="-724.9" font-family="Courier New" font-size="14.00">3&#45;48</text>
<polyline fill="none" stroke="black" points="1668.25,-716.7 1734.85,-716.7 "/>
<text text-anchor="middle" x="1701.55" y="-700.1" font-family="Courier New" font-size="14.00">49</text>
<polyline fill="none" stroke="black" points="1668.25,-691.9 1734.85,-691.9 "/>
<text text-anchor="middle" x="1701.55" y="-675.3" font-family="Courier New" font-size="14.00">50</text>
<polyline fill="none" stroke="black" points="1734.85,-667.1 1734.85,-815.9 "/>
<text text-anchor="middle" x="1843.77" y="-799.3" font-family="Courier New" font-size="14.00">type: variable (bytes)</text>
<polyline fill="none" stroke="black" points="1734.85,-791.1 1952.68,-791.1 "/>
<text text-anchor="middle" x="1843.76" y="-774.5" font-family="Courier New" font-size="14.00">uint256 (32)</text>
<polyline fill="none" stroke="black" points="1734.85,-766.3 1952.68,-766.3 "/>
<text text-anchor="middle" x="1843.76" y="-749.7" font-family="Courier New" font-size="14.00">uint256 (32)</text>
<polyline fill="none" stroke="black" points="1734.85,-741.5 1952.68,-741.5 "/>
<text text-anchor="middle" x="1843.56" y="-724.9" font-family="Courier New" font-size="14.00">&#45;&#45;&#45;&#45; (1472)</text>
<polyline fill="none" stroke="black" points="1734.85,-716.7 1952.68,-716.7 "/>
<text text-anchor="middle" x="1843.76" y="-700.1" font-family="Courier New" font-size="14.00">uint256 (32)</text>
<polyline fill="none" stroke="black" points="1734.85,-691.9 1952.68,-691.9 "/>
<text text-anchor="middle" x="1843.76" y="-675.3" font-family="Courier New" font-size="14.00">uint256 (32)</text>
</g>
<!-- 7&#45;&gt;1 -->
<g id="edge1" class="edge">
<title>7:8&#45;&gt;1</title>
<path fill="none" stroke="black" d="M1180.58,-558.9C1227.4,-558.9 1180.51,-628.05 1216.58,-657.9 1339.35,-759.49 1526.8,-774.01 1658.02,-769.21"/>
<polygon fill="black" stroke="black" points="1658.31,-772.71 1668.16,-768.8 1658.02,-765.71 1658.31,-772.71"/>
</g>
<!-- 2 -->
<g id="node3" class="node">
<title>2</title>
<polygon fill="#f2f2f2" stroke="black" points="1216.58,-573.7 1216.58,-648.1 2404.76,-648.1 2404.76,-573.7 1216.58,-573.7"/>
<text text-anchor="middle" x="1810.67" y="-631.5" font-family="Courier New" font-size="14.00">Asset &lt;&lt;Struct&gt;&gt;</text>
<polyline fill="none" stroke="black" points="1216.58,-623.3 2404.76,-623.3 "/>
<text text-anchor="middle" x="1249.78" y="-606.7" font-family="Courier New" font-size="14.00">offset</text>
<polyline fill="none" stroke="black" points="1216.58,-598.5 1282.99,-598.5 "/>
<text text-anchor="middle" x="1249.78" y="-581.9" font-family="Courier New" font-size="14.00">0</text>
<polyline fill="none" stroke="black" points="1282.99,-573.7 1282.99,-623.3 "/>
<text text-anchor="middle" x="1843.87" y="-606.7" font-family="Courier New" font-size="14.00">type: variable (bytes)</text>
<polyline fill="none" stroke="black" points="1282.99,-598.5 2404.76,-598.5 "/>
<text text-anchor="middle" x="1358.2" y="-581.9" font-family="Courier New" font-size="14.00">unallocated (27)</text>
<polyline fill="none" stroke="black" points="1433.41,-573.7 1433.41,-598.5 "/>
<text text-anchor="middle" x="1584.23" y="-581.9" font-family="Courier New" font-size="14.00">uint16: allowedSwapSlippageBps (2)</text>
<polyline fill="none" stroke="black" points="1735.06,-573.7 1735.06,-598.5 "/>
<text text-anchor="middle" x="1822.87" y="-581.9" font-family="Courier New" font-size="14.00">uint8: decimals (1)</text>
<polyline fill="none" stroke="black" points="1910.68,-573.7 1910.68,-598.5 "/>
<text text-anchor="middle" x="2061.5" y="-581.9" font-family="Courier New" font-size="14.00">UnitConversion: unitConversion (1)</text>
<polyline fill="none" stroke="black" points="2212.33,-573.7 2212.33,-598.5 "/>
<text text-anchor="middle" x="2308.54" y="-581.9" font-family="Courier New" font-size="14.00">bool: isSupported (1)</text>
</g>
<!-- 7&#45;&gt;2 -->
<g id="edge2" class="edge">
<title>7:13&#45;&gt;2</title>
<path fill="none" stroke="black" d="M1180.58,-533.9C1201.41,-533.9 1197.29,-556.04 1216.58,-563.9 1221.81,-566.03 1227.09,-568.09 1232.41,-570.09"/>
<polygon fill="black" stroke="black" points="1231.44,-573.46 1242.03,-573.6 1233.84,-566.88 1231.44,-573.46"/>
</g>
<!-- 3 -->
<g id="node4" class="node">
<title>3</title>
<polygon fill="#f2f2f2" stroke="black" points="1525.42,-463.3 1525.42,-554.5 2095.91,-554.5 2095.91,-463.3 1525.42,-463.3"/>
<text text-anchor="middle" x="1810.67" y="-537.9" font-family="Courier New" font-size="14.00">address[]: allAssets &lt;&lt;Array&gt;&gt;</text>
<text text-anchor="middle" x="1810.67" y="-521.1" font-family="Courier New" font-size="14.00">0x46bddb1178e94d7f2892ff5f366840eb658911794f2c3a44c450aa2c505186c1</text>
<polyline fill="none" stroke="black" points="1525.42,-512.9 2095.91,-512.9 "/>
<text text-anchor="middle" x="1617.63" y="-496.3" font-family="Courier New" font-size="14.00">offset</text>
<polyline fill="none" stroke="black" points="1525.42,-488.1 1709.83,-488.1 "/>
<text text-anchor="middle" x="1617.63" y="-471.5" font-family="Courier New" font-size="14.00">0</text>
<polyline fill="none" stroke="black" points="1709.83,-463.3 1709.83,-512.9 "/>
<text text-anchor="middle" x="1902.45" y="-496.3" font-family="Courier New" font-size="14.00">type: variable (bytes)</text>
<polyline fill="none" stroke="black" points="1709.83,-488.1 2095.07,-488.1 "/>
<text text-anchor="middle" x="1814.54" y="-471.5" font-family="Courier New" font-size="14.00">unallocated (12)</text>
<polyline fill="none" stroke="black" points="1919.25,-463.3 1919.25,-488.1 "/>
<text text-anchor="middle" x="2007.16" y="-471.5" font-family="Courier New" font-size="14.00">address (20)</text>
</g>
<!-- 7&#45;&gt;3 -->
<g id="edge3" class="edge">
<title>7:15&#45;&gt;3</title>
<path fill="none" stroke="black" d="M1180.58,-508.9C1289.69,-508.9 1409.44,-508.9 1514.92,-508.9"/>
<polygon fill="black" stroke="black" points="1515.08,-512.4 1525.08,-508.9 1515.08,-505.4 1515.08,-512.4"/>
</g>
<!-- 4 -->
<g id="node5" class="node">
<title>4</title>
<polygon fill="#f2f2f2" stroke="black" points="1606.04,-345.3 1606.04,-444.5 2015.3,-444.5 2015.3,-345.3 1606.04,-345.3"/>
<text text-anchor="middle" x="1810.67" y="-427.9" font-family="Courier New" font-size="14.00">Strategy &lt;&lt;Struct&gt;&gt;</text>
<polyline fill="none" stroke="black" points="1606.04,-419.7 2015.3,-419.7 "/>
<text text-anchor="middle" x="1639.24" y="-403.1" font-family="Courier New" font-size="14.00">offset</text>
<polyline fill="none" stroke="black" points="1606.04,-394.9 1672.45,-394.9 "/>
<text text-anchor="middle" x="1639.24" y="-378.3" font-family="Courier New" font-size="14.00">0</text>
<polyline fill="none" stroke="black" points="1606.04,-370.1 1672.45,-370.1 "/>
<text text-anchor="middle" x="1639.24" y="-353.5" font-family="Courier New" font-size="14.00">1</text>
<polyline fill="none" stroke="black" points="1672.45,-345.3 1672.45,-419.7 "/>
<text text-anchor="middle" x="1843.87" y="-403.1" font-family="Courier New" font-size="14.00">type: variable (bytes)</text>
<polyline fill="none" stroke="black" points="1672.45,-394.9 2015.3,-394.9 "/>
<text text-anchor="middle" x="1747.66" y="-378.3" font-family="Courier New" font-size="14.00">unallocated (31)</text>
<polyline fill="none" stroke="black" points="1822.87,-370.1 1822.87,-394.9 "/>
<text text-anchor="middle" x="1919.08" y="-378.3" font-family="Courier New" font-size="14.00">bool: isSupported (1)</text>
<polyline fill="none" stroke="black" points="1672.45,-370.1 2015.3,-370.1 "/>
<text text-anchor="middle" x="1843.46" y="-353.5" font-family="Courier New" font-size="14.00">uint256: _deprecated (32)</text>
</g>
<!-- 7&#45;&gt;4 -->
<g id="edge4" class="edge">
<title>7:18&#45;&gt;4</title>
<path fill="none" stroke="black" d="M1180.58,-483.9C1201.41,-483.9 1197.37,-461.95 1216.58,-453.9 1335.62,-404 1479.46,-388.72 1595.68,-386.17"/>
<polygon fill="black" stroke="black" points="1595.84,-389.67 1605.77,-385.98 1595.71,-382.67 1595.84,-389.67"/>
</g>
<!-- 5 -->
<g id="node6" class="node">
<title>5</title>
<polygon fill="#f2f2f2" stroke="black" points="1525.42,-235.3 1525.42,-326.5 2095.91,-326.5 2095.91,-235.3 1525.42,-235.3"/>
<text text-anchor="middle" x="1810.67" y="-309.9" font-family="Courier New" font-size="14.00">address[]: allStrategies &lt;&lt;Array&gt;&gt;</text>
<text text-anchor="middle" x="1810.67" y="-293.1" font-family="Courier New" font-size="14.00">0x4a11f94e20a93c79f6ec743a1954ec4fc2c08429ae2122118bf234b2185c81b8</text>
<polyline fill="none" stroke="black" points="1525.42,-284.9 2095.91,-284.9 "/>
<text text-anchor="middle" x="1617.63" y="-268.3" font-family="Courier New" font-size="14.00">offset</text>
<polyline fill="none" stroke="black" points="1525.42,-260.1 1709.83,-260.1 "/>
<text text-anchor="middle" x="1617.63" y="-243.5" font-family="Courier New" font-size="14.00">0</text>
<polyline fill="none" stroke="black" points="1709.83,-235.3 1709.83,-284.9 "/>
<text text-anchor="middle" x="1902.45" y="-268.3" font-family="Courier New" font-size="14.00">type: variable (bytes)</text>
<polyline fill="none" stroke="black" points="1709.83,-260.1 2095.07,-260.1 "/>
<text text-anchor="middle" x="1814.54" y="-243.5" font-family="Courier New" font-size="14.00">unallocated (12)</text>
<polyline fill="none" stroke="black" points="1919.25,-235.3 1919.25,-260.1 "/>
<text text-anchor="middle" x="2007.16" y="-243.5" font-family="Courier New" font-size="14.00">address (20)</text>
</g>
<!-- 7&#45;&gt;5 -->
<g id="edge5" class="edge">
<title>7:20&#45;&gt;5</title>
<path fill="none" stroke="black" d="M1180.58,-458.9C1237.54,-458.9 1172.62,-372.13 1216.58,-335.9 1298.72,-268.21 1410.69,-246.06 1515.21,-243.77"/>
<polygon fill="black" stroke="black" points="1515.36,-247.27 1525.31,-243.61 1515.25,-240.27 1515.36,-247.27"/>
</g>
<!-- 6 -->
<g id="node7" class="node">
<title>6</title>
<polygon fill="#f2f2f2" stroke="black" points="1525.42,-66.3 1525.42,-157.5 2095.91,-157.5 2095.91,-66.3 1525.42,-66.3"/>
<text text-anchor="middle" x="1810.67" y="-140.9" font-family="Courier New" font-size="14.00">address[]: _deprecated_swapTokens &lt;&lt;Array&gt;&gt;</text>
<text text-anchor="middle" x="1810.67" y="-124.1" font-family="Courier New" font-size="14.00">0x9b22d3d61959b4d3528b1d8ba932c96fbe302b36a1aad1d95cab54f9e0a135ea</text>
<polyline fill="none" stroke="black" points="1525.42,-115.9 2095.91,-115.9 "/>
<text text-anchor="middle" x="1617.63" y="-99.3" font-family="Courier New" font-size="14.00">offset</text>
<polyline fill="none" stroke="black" points="1525.42,-91.1 1709.83,-91.1 "/>
<text text-anchor="middle" x="1617.63" y="-74.5" font-family="Courier New" font-size="14.00">0</text>
<polyline fill="none" stroke="black" points="1709.83,-66.3 1709.83,-115.9 "/>
<text text-anchor="middle" x="1902.45" y="-99.3" font-family="Courier New" font-size="14.00">type: variable (bytes)</text>
<polyline fill="none" stroke="black" points="1709.83,-91.1 2095.07,-91.1 "/>
<text text-anchor="middle" x="1814.54" y="-74.5" font-family="Courier New" font-size="14.00">unallocated (12)</text>
<polyline fill="none" stroke="black" points="1919.25,-66.3 1919.25,-91.1 "/>
<text text-anchor="middle" x="2007.16" y="-74.5" font-family="Courier New" font-size="14.00">address (20)</text>
</g>
<!-- 7&#45;&gt;6 -->
<g id="edge6" class="edge">
<title>7:37&#45;&gt;6</title>
<path fill="none" stroke="black" d="M1180.58,-111.9C1289.69,-111.9 1409.44,-111.9 1514.92,-111.9"/>
<polygon fill="black" stroke="black" points="1515.08,-115.4 1525.08,-111.9 1515.08,-108.4 1515.08,-115.4"/>
</g>
</g>
</svg>
