<?xml version="1.0" encoding="UTF-8" standalone="no"?>
<!DOCTYPE svg PUBLIC "-//W3C//DTD SVG 1.1//EN"
 "http://www.w3.org/Graphics/SVG/1.1/DTD/svg11.dtd">
<!-- Generated by graphviz version 5.0.0 (20220707.1540)
 -->
<!-- Title: UmlClassDiagram Pages: 1 -->
<svg width="1497pt" height="494pt"
 viewBox="0.00 0.00 1497.41 494.00" xmlns="http://www.w3.org/2000/svg" xmlns:xlink="http://www.w3.org/1999/xlink">
<g id="graph0" class="graph" transform="scale(1 1) rotate(0) translate(4 490)">
<title>UmlClassDiagram</title>
<polygon fill="white" stroke="transparent" points="-4,4 -4,-490 1493.41,-490 1493.41,4 -4,4"/>
<!-- 7 -->
<g id="node1" class="node">
<title>7</title>
<polygon fill="#f2f2f2" stroke="black" points="706.04,-340.1 706.04,-381.7 940.9,-381.7 940.9,-340.1 706.04,-340.1"/>
<text text-anchor="middle" x="823.47" y="-365.1" font-family="Times,serif" font-size="14.00">Governable</text>
<text text-anchor="middle" x="823.47" y="-348.3" font-family="Times,serif" font-size="14.00">../contracts/governance/Governable.sol</text>
</g>
<!-- 25 -->
<g id="node2" class="node">
<title>25</title>
<polygon fill="#f2f2f2" stroke="black" points="0,-157.7 0,-216.1 300.94,-216.1 300.94,-157.7 0,-157.7"/>
<text text-anchor="middle" x="150.47" y="-199.5" font-family="Times,serif" font-size="14.00">&lt;&lt;Interface&gt;&gt;</text>
<text text-anchor="middle" x="150.47" y="-182.7" font-family="Times,serif" font-size="14.00">IGetExchangeRateToken</text>
<text text-anchor="middle" x="150.47" y="-165.9" font-family="Times,serif" font-size="14.00">../contracts/interfaces/IGetExchangeRateToken.sol</text>
</g>
<!-- 33 -->
<g id="node3" class="node">
<title>33</title>
<polygon fill="#f2f2f2" stroke="black" points="318.76,-157.7 318.76,-216.1 520.17,-216.1 520.17,-157.7 318.76,-157.7"/>
<text text-anchor="middle" x="419.47" y="-199.5" font-family="Times,serif" font-size="14.00">&lt;&lt;Interface&gt;&gt;</text>
<text text-anchor="middle" x="419.47" y="-182.7" font-family="Times,serif" font-size="14.00">IOracle</text>
<text text-anchor="middle" x="419.47" y="-165.9" font-family="Times,serif" font-size="14.00">../contracts/interfaces/IOracle.sol</text>
</g>
<!-- 36 -->
<g id="node4" class="node">
<title>36</title>
<polygon fill="#f2f2f2" stroke="black" points="538.09,-157.7 538.09,-216.1 748.85,-216.1 748.85,-157.7 538.09,-157.7"/>
<text text-anchor="middle" x="643.47" y="-199.5" font-family="Times,serif" font-size="14.00">&lt;&lt;Interface&gt;&gt;</text>
<text text-anchor="middle" x="643.47" y="-182.7" font-family="Times,serif" font-size="14.00">IStrategy</text>
<text text-anchor="middle" x="643.47" y="-165.9" font-family="Times,serif" font-size="14.00">../contracts/interfaces/IStrategy.sol</text>
</g>
<!-- 37 -->
<g id="node5" class="node">
<title>37</title>
<polygon fill="#f2f2f2" stroke="black" points="766.92,-157.7 766.92,-216.1 980.01,-216.1 980.01,-157.7 766.92,-157.7"/>
<text text-anchor="middle" x="873.47" y="-199.5" font-family="Times,serif" font-size="14.00">&lt;&lt;Interface&gt;&gt;</text>
<text text-anchor="middle" x="873.47" y="-182.7" font-family="Times,serif" font-size="14.00">ISwapper</text>
<text text-anchor="middle" x="873.47" y="-165.9" font-family="Times,serif" font-size="14.00">../contracts/interfaces/ISwapper.sol</text>
</g>
<!-- 152 -->
<g id="node6" class="node">
<title>152</title>
<polygon fill="#f2f2f2" stroke="black" points="1014.34,-253.1 1014.34,-294.7 1188.6,-294.7 1188.6,-253.1 1014.34,-253.1"/>
<text text-anchor="middle" x="1101.47" y="-278.1" font-family="Times,serif" font-size="14.00">OUSD</text>
<text text-anchor="middle" x="1101.47" y="-261.3" font-family="Times,serif" font-size="14.00">../contracts/token/OUSD.sol</text>
</g>
<!-- 152&#45;&gt;7 -->
<g id="edge3" class="edge">
<title>152&#45;&gt;7</title>
<path fill="none" stroke="black" d="M1036.64,-294.72C1001.1,-305.59 956.4,-319.25 917.13,-331.26"/>
<polygon fill="none" stroke="black" points="914.02,-321.23 888.4,-340.05 920.16,-341.32 914.02,-321.23"/>
</g>
<!-- 159 -->
<g id="node7" class="node">
<title>159</title>
<polygon fill="#f2f2f2" stroke="black" points="1261.46,-331.7 1261.46,-390.1 1457.47,-390.1 1457.47,-331.7 1261.46,-331.7"/>
<text text-anchor="middle" x="1359.47" y="-373.5" font-family="Times,serif" font-size="14.00">&lt;&lt;Abstract&gt;&gt;</text>
<text text-anchor="middle" x="1359.47" y="-356.7" font-family="Times,serif" font-size="14.00">Initializable</text>
<text text-anchor="middle" x="1359.47" y="-339.9" font-family="Times,serif" font-size="14.00">../contracts/utils/Initializable.sol</text>
</g>
<!-- 152&#45;&gt;159 -->
<g id="edge1" class="edge">
<title>152&#45;&gt;159</title>
<path fill="none" stroke="black" d="M1161.63,-294.72C1186.52,-302.92 1216.23,-312.71 1244.98,-322.18"/>
<polygon fill="none" stroke="black" points="1241.98,-332.25 1273.76,-331.66 1248.55,-312.3 1241.98,-332.25"/>
</g>
<!-- 161 -->
<g id="node8" class="node">
<title>161</title>
<polygon fill="#f2f2f2" stroke="black" points="959.14,-331.7 959.14,-390.1 1243.8,-390.1 1243.8,-331.7 959.14,-331.7"/>
<text text-anchor="middle" x="1101.47" y="-373.5" font-family="Times,serif" font-size="14.00">&lt;&lt;Abstract&gt;&gt;</text>
<text text-anchor="middle" x="1101.47" y="-356.7" font-family="Times,serif" font-size="14.00">InitializableERC20Detailed</text>
<text text-anchor="middle" x="1101.47" y="-339.9" font-family="Times,serif" font-size="14.00">../contracts/utils/InitializableERC20Detailed.sol</text>
</g>
<!-- 152&#45;&gt;161 -->
<g id="edge2" class="edge">
<title>152&#45;&gt;161</title>
<path fill="none" stroke="black" d="M1101.47,-295.04C1101.47,-297.09 1101.47,-299.23 1101.47,-301.43"/>
<polygon fill="none" stroke="black" points="1090.97,-301.54 1101.47,-331.54 1111.97,-301.54 1090.97,-301.54"/>
</g>
<!-- 431 -->
<g id="node12" class="node">
<title>431</title>
<polygon fill="#f2f2f2" stroke="black" points="899.41,-427.1 899.41,-485.5 1303.52,-485.5 1303.52,-427.1 899.41,-427.1"/>
<text text-anchor="middle" x="1101.47" y="-468.9" font-family="Times,serif" font-size="14.00">&lt;&lt;Interface&gt;&gt;</text>
<text text-anchor="middle" x="1101.47" y="-452.1" font-family="Times,serif" font-size="14.00">IERC20</text>
<text text-anchor="middle" x="1101.47" y="-435.3" font-family="Times,serif" font-size="14.00">../node_modules/@openzeppelin/contracts/token/ERC20/IERC20.sol</text>
</g>
<!-- 161&#45;&gt;431 -->
<g id="edge4" class="edge">
<title>161&#45;&gt;431</title>
<path fill="none" stroke="black" stroke-dasharray="5,2" d="M1101.47,-390.18C1101.47,-392.26 1101.47,-394.4 1101.47,-396.58"/>
<polygon fill="none" stroke="black" points="1090.97,-396.8 1101.47,-426.8 1111.97,-396.8 1090.97,-396.8"/>
</g>
<!-- 165 -->
<g id="node9" class="node">
<title>165</title>
<polygon fill="#f2f2f2" stroke="black" points="987.13,-0.5 987.13,-42.1 1215.8,-42.1 1215.8,-0.5 987.13,-0.5"/>
<text text-anchor="middle" x="1101.47" y="-25.5" font-family="Times,serif" font-size="14.00">OETHVaultCore</text>
<text text-anchor="middle" x="1101.47" y="-8.7" font-family="Times,serif" font-size="14.00">../contracts/vault/OETHVaultCore.sol</text>
</g>
<!-- 169 -->
<g id="node10" class="node">
<title>169</title>
<polygon fill="#f2f2f2" stroke="black" points="1005.79,-79.1 1005.79,-120.7 1197.14,-120.7 1197.14,-79.1 1005.79,-79.1"/>
<text text-anchor="middle" x="1101.47" y="-104.1" font-family="Times,serif" font-size="14.00">VaultCore</text>
<text text-anchor="middle" x="1101.47" y="-87.3" font-family="Times,serif" font-size="14.00">../contracts/vault/VaultCore.sol</text>
</g>
<!-- 165&#45;&gt;169 -->
<g id="edge5" class="edge">
<title>165&#45;&gt;169</title>
<path fill="none" stroke="black" d="M1101.47,-42.43C1101.47,-44.45 1101.47,-46.56 1101.47,-48.73"/>
<polygon fill="none" stroke="black" points="1090.97,-48.91 1101.47,-78.91 1111.97,-48.91 1090.97,-48.91"/>
</g>
<!-- 169&#45;&gt;25 -->
<g id="edge11" class="edge">
<title>169&#45;&gt;25</title>
<path fill="none" stroke="black" stroke-dasharray="5,2" d="M1005.75,-104.38C858.49,-110.47 567.4,-125.43 311.29,-157.02"/>
<polygon fill="black" stroke="black" points="310.54,-153.59 301.05,-158.29 311.4,-160.53 310.54,-153.59"/>
</g>
<!-- 169&#45;&gt;33 -->
<g id="edge10" class="edge">
<title>169&#45;&gt;33</title>
<path fill="none" stroke="black" stroke-dasharray="5,2" d="M1005.7,-105.72C893.76,-112.39 702.92,-126.99 530.36,-157.15"/>
<polygon fill="black" stroke="black" points="529.57,-153.74 520.33,-158.93 530.79,-160.63 529.57,-153.74"/>
</g>
<!-- 169&#45;&gt;36 -->
<g id="edge8" class="edge">
<title>169&#45;&gt;36</title>
<path fill="none" stroke="black" stroke-dasharray="5,2" d="M1005.42,-114.4C938.71,-124.3 847.59,-138.84 758.94,-156.95"/>
<polygon fill="black" stroke="black" points="758.07,-153.56 748.98,-159 759.48,-160.41 758.07,-153.56"/>
</g>
<!-- 169&#45;&gt;37 -->
<g id="edge9" class="edge">
<title>169&#45;&gt;37</title>
<path fill="none" stroke="black" stroke-dasharray="5,2" d="M1048.3,-120.72C1021.7,-130.64 988.86,-142.88 958.84,-154.07"/>
<polygon fill="black" stroke="black" points="957.36,-150.89 949.21,-157.66 959.8,-157.45 957.36,-150.89"/>
</g>
<!-- 171 -->
<g id="node11" class="node">
<title>171</title>
<polygon fill="#f2f2f2" stroke="black" points="998.02,-166.1 998.02,-207.7 1204.92,-207.7 1204.92,-166.1 998.02,-166.1"/>
<text text-anchor="middle" x="1101.47" y="-191.1" font-family="Times,serif" font-size="14.00">VaultStorage</text>
<text text-anchor="middle" x="1101.47" y="-174.3" font-family="Times,serif" font-size="14.00">../contracts/vault/VaultStorage.sol</text>
</g>
<!-- 169&#45;&gt;171 -->
<g id="edge6" class="edge">
<title>169&#45;&gt;171</title>
<path fill="none" stroke="black" d="M1101.47,-121.04C1101.47,-125.6 1101.47,-130.63 1101.47,-135.81"/>
<polygon fill="none" stroke="black" points="1090.97,-135.9 1101.47,-165.9 1111.97,-135.9 1090.97,-135.9"/>
</g>
<!-- 169&#45;&gt;431 -->
<g id="edge7" class="edge">
<title>169&#45;&gt;431</title>
<path fill="none" stroke="black" stroke-dasharray="5,2" d="M1168.01,-120.83C1298.89,-163.29 1568.6,-268.77 1466.47,-390.6 1445.19,-415.98 1382.01,-431.41 1314.06,-440.79"/>
<polygon fill="black" stroke="black" points="1313.46,-437.34 1304.01,-442.13 1314.38,-444.28 1313.46,-437.34"/>
</g>
<!-- 171&#45;&gt;7 -->
<g id="edge13" class="edge">
<title>171&#45;&gt;7</title>
<path fill="none" stroke="black" d="M1069.31,-207.8C1023.47,-236.16 938.62,-288.66 881.6,-323.94"/>
<polygon fill="none" stroke="black" points="875.76,-315.2 855.77,-339.92 886.81,-333.06 875.76,-315.2"/>
</g>
<!-- 171&#45;&gt;152 -->
<g id="edge14" class="edge">
<title>171&#45;&gt;152</title>
<path fill="none" stroke="black" d="M1101.47,-208.04C1101.47,-218.42 1101.47,-231.28 1101.47,-242.8"/>
<polygon fill="black" stroke="black" points="1097.97,-242.9 1101.47,-252.9 1104.97,-242.9 1097.97,-242.9"/>
</g>
<!-- 171&#45;&gt;159 -->
<g id="edge12" class="edge">
<title>171&#45;&gt;159</title>
<path fill="none" stroke="black" d="M1131.32,-207.8C1170.37,-233.84 1239.97,-280.24 1292.06,-314.96"/>
<polygon fill="none" stroke="black" points="1286.3,-323.74 1317.09,-331.65 1297.95,-306.27 1286.3,-323.74"/>
</g>
</g>
</svg>
