<?xml version="1.0" encoding="UTF-8" standalone="no"?>
<!DOCTYPE svg PUBLIC "-//W3C//DTD SVG 1.1//EN"
 "http://www.w3.org/Graphics/SVG/1.1/DTD/svg11.dtd">
<!-- Generated by graphviz version 5.0.0 (20220707.1540)
 -->
<!-- Title: UmlClassDiagram Pages: 1 -->
<svg width="818pt" height="320pt"
 viewBox="0.00 0.00 818.48 320.00" xmlns="http://www.w3.org/2000/svg" xmlns:xlink="http://www.w3.org/1999/xlink">
<g id="graph0" class="graph" transform="scale(1 1) rotate(0) translate(4 316)">
<title>UmlClassDiagram</title>
<polygon fill="white" stroke="transparent" points="-4,4 -4,-316 814.48,-316 814.48,4 -4,4"/>
<!-- 20 -->
<g id="node1" class="node">
<title>20</title>
<polygon fill="#f2f2f2" stroke="black" points="0,-166.1 0,-207.7 234.86,-207.7 234.86,-166.1 0,-166.1"/>
<text text-anchor="middle" x="117.43" y="-191.1" font-family="Times,serif" font-size="14.00">Governable</text>
<text text-anchor="middle" x="117.43" y="-174.3" font-family="Times,serif" font-size="14.00">../contracts/governance/Governable.sol</text>
</g>
<!-- 215 -->
<g id="node2" class="node">
<title>215</title>
<polygon fill="#f2f2f2" stroke="black" points="250.09,-0.5 250.09,-42.1 450.77,-42.1 450.77,-0.5 250.09,-0.5"/>
<text text-anchor="middle" x="350.43" y="-25.5" font-family="Times,serif" font-size="14.00">OETHBase</text>
<text text-anchor="middle" x="350.43" y="-8.7" font-family="Times,serif" font-size="14.00">../contracts/token/OETHBase.sol</text>
</g>
<!-- 216 -->
<g id="node3" class="node">
<title>216</title>
<polygon fill="#f2f2f2" stroke="black" points="263.3,-79.1 263.3,-120.7 437.56,-120.7 437.56,-79.1 263.3,-79.1"/>
<text text-anchor="middle" x="350.43" y="-104.1" font-family="Times,serif" font-size="14.00">OUSD</text>
<text text-anchor="middle" x="350.43" y="-87.3" font-family="Times,serif" font-size="14.00">../contracts/token/OUSD.sol</text>
</g>
<!-- 215&#45;&gt;216 -->
<g id="edge1" class="edge">
<title>215&#45;&gt;216</title>
<path fill="none" stroke="black" d="M350.43,-42.43C350.43,-44.45 350.43,-46.56 350.43,-48.73"/>
<polygon fill="none" stroke="black" points="339.93,-48.91 350.43,-78.91 360.93,-48.91 339.93,-48.91"/>
</g>
<!-- 229 -->
<g id="node5" class="node">
<title>229</title>
<polygon fill="#f2f2f2" stroke="black" points="466.1,-157.7 466.1,-216.1 750.76,-216.1 750.76,-157.7 466.1,-157.7"/>
<text text-anchor="middle" x="608.43" y="-199.5" font-family="Times,serif" font-size="14.00">&lt;&lt;Abstract&gt;&gt;</text>
<text text-anchor="middle" x="608.43" y="-182.7" font-family="Times,serif" font-size="14.00">InitializableERC20Detailed</text>
<text text-anchor="middle" x="608.43" y="-165.9" font-family="Times,serif" font-size="14.00">../contracts/utils/InitializableERC20Detailed.sol</text>
</g>
<!-- 215&#45;&gt;229 -->
<g id="edge2" class="edge">
<title>215&#45;&gt;229</title>
<path fill="none" stroke="black" stroke-dasharray="5,2" d="M385.36,-42.17C403.69,-52.75 426.43,-66.12 446.43,-78.6 484.37,-102.26 526.44,-130.19 558.21,-151.61"/>
<polygon fill="black" stroke="black" points="556.64,-154.78 566.88,-157.48 560.56,-148.98 556.64,-154.78"/>
</g>
<!-- 216&#45;&gt;20 -->
<g id="edge5" class="edge">
<title>216&#45;&gt;20</title>
<path fill="none" stroke="black" d="M296.1,-120.72C267.62,-131.11 232.14,-144.05 200.31,-155.66"/>
<polygon fill="none" stroke="black" points="196.43,-145.9 171.85,-166.05 203.63,-165.63 196.43,-145.9"/>
</g>
<!-- 226 -->
<g id="node4" class="node">
<title>226</title>
<polygon fill="#f2f2f2" stroke="black" points="252.42,-157.7 252.42,-216.1 448.44,-216.1 448.44,-157.7 252.42,-157.7"/>
<text text-anchor="middle" x="350.43" y="-199.5" font-family="Times,serif" font-size="14.00">&lt;&lt;Abstract&gt;&gt;</text>
<text text-anchor="middle" x="350.43" y="-182.7" font-family="Times,serif" font-size="14.00">Initializable</text>
<text text-anchor="middle" x="350.43" y="-165.9" font-family="Times,serif" font-size="14.00">../contracts/utils/Initializable.sol</text>
</g>
<!-- 216&#45;&gt;226 -->
<g id="edge3" class="edge">
<title>216&#45;&gt;226</title>
<path fill="none" stroke="black" d="M350.43,-121.04C350.43,-123.09 350.43,-125.23 350.43,-127.43"/>
<polygon fill="none" stroke="black" points="339.93,-127.54 350.43,-157.54 360.93,-127.54 339.93,-127.54"/>
</g>
<!-- 216&#45;&gt;229 -->
<g id="edge4" class="edge">
<title>216&#45;&gt;229</title>
<path fill="none" stroke="black" d="M410.59,-120.72C435.48,-128.92 465.2,-138.71 493.94,-148.18"/>
<polygon fill="none" stroke="black" points="490.94,-158.25 522.72,-157.66 497.51,-138.3 490.94,-158.25"/>
</g>
<!-- 712 -->
<g id="node6" class="node">
<title>712</title>
<polygon fill="#f2f2f2" stroke="black" points="406.37,-253.1 406.37,-311.5 810.48,-311.5 810.48,-253.1 406.37,-253.1"/>
<text text-anchor="middle" x="608.43" y="-294.9" font-family="Times,serif" font-size="14.00">&lt;&lt;Interface&gt;&gt;</text>
<text text-anchor="middle" x="608.43" y="-278.1" font-family="Times,serif" font-size="14.00">IERC20</text>
<text text-anchor="middle" x="608.43" y="-261.3" font-family="Times,serif" font-size="14.00">../node_modules/@openzeppelin/contracts/token/ERC20/IERC20.sol</text>
</g>
<!-- 229&#45;&gt;712 -->
<g id="edge6" class="edge">
<title>229&#45;&gt;712</title>
<path fill="none" stroke="black" stroke-dasharray="5,2" d="M608.43,-216.18C608.43,-218.26 608.43,-220.4 608.43,-222.58"/>
<polygon fill="none" stroke="black" points="597.93,-222.8 608.43,-252.8 618.93,-222.8 597.93,-222.8"/>
</g>
</g>
</svg>
