<?xml version="1.0" encoding="UTF-8" standalone="no"?>
<!DOCTYPE svg PUBLIC "-//W3C//DTD SVG 1.1//EN"
 "http://www.w3.org/Graphics/SVG/1.1/DTD/svg11.dtd">
<!-- Generated by graphviz version 5.0.0 (20220707.1540)
 -->
<!-- Title: StorageDiagram Pages: 1 -->
<svg width="2131pt" height="174pt"
 viewBox="0.00 0.00 2131.11 174.20" xmlns="http://www.w3.org/2000/svg" xmlns:xlink="http://www.w3.org/1999/xlink">
<g id="graph0" class="graph" transform="scale(1 1) rotate(0) translate(4 170.2)">
<title>StorageDiagram</title>
<polygon fill="white" stroke="transparent" points="-4,4 -4,-170.2 2127.11,-170.2 2127.11,4 -4,4"/>
<!-- 3 -->
<g id="node1" class="node">
<title>3</title>
<polygon fill="#f2f2f2" stroke="black" points="0,-66.5 0,-165.7 895.74,-165.7 895.74,-66.5 0,-66.5"/>
<text text-anchor="middle" x="447.87" y="-149.1" font-family="Courier New" font-size="14.00">OETHOracle &lt;&lt;Contract&gt;&gt;</text>
<polyline fill="none" stroke="black" points="0,-140.9 895.74,-140.9 "/>
<text text-anchor="middle" x="24.8" y="-124.3" font-family="Courier New" font-size="14.00">slot</text>
<polyline fill="none" stroke="black" points="0,-116.1 49.61,-116.1 "/>
<text text-anchor="middle" x="24.8" y="-99.5" font-family="Courier New" font-size="14.00">0</text>
<polyline fill="none" stroke="black" points="0,-91.3 49.61,-91.3 "/>
<text text-anchor="middle" x="24.8" y="-74.7" font-family="Courier New" font-size="14.00">1</text>
<polyline fill="none" stroke="black" points="49.61,-66.5 49.61,-140.9 "/>
<text text-anchor="middle" x="472.67" y="-124.3" font-family="Courier New" font-size="14.00">type: &lt;inherited contract&gt;.variable (bytes)</text>
<polyline fill="none" stroke="black" points="49.61,-116.1 895.74,-116.1 "/>
<text text-anchor="middle" x="120.62" y="-99.5" font-family="Courier New" font-size="14.00">unallocated (2)</text>
<polyline fill="none" stroke="black" points="191.63,-91.3 191.63,-116.1 "/>
<text text-anchor="middle" x="376.05" y="-99.5" font-family="Courier New" font-size="14.00">uint80: BaseOracle.lastCorrectRoundId (10)</text>
<polyline fill="none" stroke="black" points="560.48,-91.3 560.48,-116.1 "/>
<text text-anchor="middle" x="728.11" y="-99.5" font-family="Courier New" font-size="14.00">address: BaseOracle.oracleUpdater (20)</text>
<polyline fill="none" stroke="black" points="49.61,-91.3 895.74,-91.3 "/>
<text text-anchor="middle" x="472.33" y="-74.7" font-family="Courier New" font-size="14.00">Round[]: BaseOracle.rounds (32)</text>
</g>
<!-- 2 -->
<g id="node3" class="node">
<title>2</title>
<polygon fill="#f2f2f2" stroke="black" points="931.74,-33.5 931.74,-124.7 1502.23,-124.7 1502.23,-33.5 931.74,-33.5"/>
<text text-anchor="middle" x="1216.98" y="-108.1" font-family="Courier New" font-size="14.00">Round[]: rounds &lt;&lt;Array&gt;&gt;</text>
<text text-anchor="middle" x="1216.98" y="-91.3" font-family="Courier New" font-size="14.00">0xb10e2d527612073b26eecdfd717e6a320cf44b4afac2b0732d9fcbe2b7fa0cf6</text>
<polyline fill="none" stroke="black" points="931.74,-83.1 1502.23,-83.1 "/>
<text text-anchor="middle" x="1040.44" y="-66.5" font-family="Courier New" font-size="14.00">offset</text>
<polyline fill="none" stroke="black" points="931.74,-58.3 1149.14,-58.3 "/>
<text text-anchor="middle" x="1040.44" y="-41.7" font-family="Courier New" font-size="14.00">0</text>
<polyline fill="none" stroke="black" points="1149.14,-33.5 1149.14,-83.1 "/>
<text text-anchor="middle" x="1325.56" y="-66.5" font-family="Courier New" font-size="14.00">type: variable (bytes)</text>
<polyline fill="none" stroke="black" points="1149.14,-58.3 1501.97,-58.3 "/>
<text text-anchor="middle" x="1325.15" y="-41.7" font-family="Courier New" font-size="14.00">Round (32)</text>
</g>
<!-- 3&#45;&gt;2 -->
<g id="edge1" class="edge">
<title>3:6&#45;&gt;2</title>
<path fill="none" stroke="black" d="M895.74,-79.1C904.13,-79.1 912.64,-79.1 921.24,-79.1"/>
<polygon fill="black" stroke="black" points="921.36,-82.6 931.36,-79.1 921.36,-75.6 921.36,-82.6"/>
</g>
<!-- 1 -->
<g id="node2" class="node">
<title>1</title>
<polygon fill="#f2f2f2" stroke="black" points="1538.23,-0.5 1538.23,-91.7 2123.11,-91.7 2123.11,-0.5 1538.23,-0.5"/>
<text text-anchor="middle" x="1830.67" y="-75.1" font-family="Courier New" font-size="14.00">Round &lt;&lt;Struct&gt;&gt;</text>
<text text-anchor="middle" x="1830.67" y="-58.3" font-family="Courier New" font-size="14.00">0xb10e2d527612073b26eecdfd717e6a320cf44b4afac2b0732d9fcbe2b7fa0cf6</text>
<polyline fill="none" stroke="black" points="1538.23,-50.1 2123.11,-50.1 "/>
<text text-anchor="middle" x="1571.43" y="-33.5" font-family="Courier New" font-size="14.00">offset</text>
<polyline fill="none" stroke="black" points="1538.23,-25.3 1604.63,-25.3 "/>
<text text-anchor="middle" x="1571.43" y="-8.7" font-family="Courier New" font-size="14.00">0</text>
<polyline fill="none" stroke="black" points="1604.63,-0.5 1604.63,-50.1 "/>
<text text-anchor="middle" x="1863.87" y="-33.5" font-family="Courier New" font-size="14.00">type: variable (bytes)</text>
<polyline fill="none" stroke="black" points="1604.63,-25.3 2123.11,-25.3 "/>
<text text-anchor="middle" x="1679.84" y="-8.7" font-family="Courier New" font-size="14.00">unallocated (11)</text>
<polyline fill="none" stroke="black" points="1755.06,-0.5 1755.06,-25.3 "/>
<text text-anchor="middle" x="1851.27" y="-8.7" font-family="Courier New" font-size="14.00">uint40: timestamp (5)</text>
<polyline fill="none" stroke="black" points="1947.48,-0.5 1947.48,-25.3 "/>
<text text-anchor="middle" x="2035.3" y="-8.7" font-family="Courier New" font-size="14.00">uint128: price (16)</text>
</g>
<!-- 2&#45;&gt;1 -->
<g id="edge2" class="edge">
<title>2:5&#45;&gt;1</title>
<path fill="none" stroke="black" d="M1501.98,-46.1C1510.47,-46.1 1519.07,-46.1 1527.76,-46.1"/>
<polygon fill="black" stroke="black" points="1528,-49.6 1538,-46.1 1528,-42.6 1528,-49.6"/>
</g>
</g>
</svg>
