<?xml version="1.0" encoding="UTF-8" standalone="no"?>
<!DOCTYPE svg PUBLIC "-//W3C//DTD SVG 1.1//EN"
 "http://www.w3.org/Graphics/SVG/1.1/DTD/svg11.dtd">
<!-- Generated by graphviz version 5.0.0 (20220707.1540)
 -->
<!-- Title: StorageDiagram Pages: 1 -->
<svg width="864pt" height="199pt"
 viewBox="0.00 0.00 864.12 199.20" xmlns="http://www.w3.org/2000/svg" xmlns:xlink="http://www.w3.org/1999/xlink">
<g id="graph0" class="graph" transform="scale(1 1) rotate(0) translate(4 195.2)">
<title>StorageDiagram</title>
<polygon fill="white" stroke="transparent" points="-4,4 -4,-195.2 860.12,-195.2 860.12,4 -4,4"/>
<!-- 2 -->
<g id="node1" class="node">
<title>2</title>
<polygon fill="#f2f2f2" stroke="black" points="0,-49.9 0,-190.7 568.88,-190.7 568.88,-49.9 0,-49.9"/>
<text text-anchor="middle" x="284.44" y="-174.1" font-family="Courier New" font-size="14.00">OETHHarvesterSimple &lt;&lt;Contract&gt;&gt;</text>
<text text-anchor="middle" x="284.44" y="-157.3" font-family="Courier New" font-size="14.00">0x399B69Bf06CCec7A53Befea14771059d39a3617a</text>
<polyline fill="none" stroke="black" points="0,-149.1 568.88,-149.1 "/>
<text text-anchor="middle" x="24.8" y="-132.5" font-family="Courier New" font-size="14.00">slot</text>
<polyline fill="none" stroke="black" points="0,-124.3 49.61,-124.3 "/>
<text text-anchor="middle" x="24.8" y="-107.7" font-family="Courier New" font-size="14.00">0</text>
<polyline fill="none" stroke="black" points="0,-99.5 49.61,-99.5 "/>
<text text-anchor="middle" x="24.8" y="-82.9" font-family="Courier New" font-size="14.00">1&#45;50</text>
<polyline fill="none" stroke="black" points="0,-74.7 49.61,-74.7 "/>
<text text-anchor="middle" x="24.8" y="-58.1" font-family="Courier New" font-size="14.00">51</text>
<polyline fill="none" stroke="black" points="49.61,-49.9 49.61,-149.1 "/>
<text text-anchor="middle" x="309.25" y="-132.5" font-family="Courier New" font-size="14.00">type: &lt;inherited contract&gt;.variable (bytes)</text>
<polyline fill="none" stroke="black" points="49.61,-124.3 568.88,-124.3 "/>
<text text-anchor="middle" x="124.82" y="-107.7" font-family="Courier New" font-size="14.00">unallocated (12)</text>
<polyline fill="none" stroke="black" points="200.03,-99.5 200.03,-124.3 "/>
<text text-anchor="middle" x="384.46" y="-107.7" font-family="Courier New" font-size="14.00">address: Strategizable.strategistAddr (20)</text>
<polyline fill="none" stroke="black" points="49.61,-99.5 568.88,-99.5 "/>
<text text-anchor="middle" x="308.93" y="-82.9" font-family="Courier New" font-size="14.00">uint256[50]: Strategizable.__gap (1600)</text>
<polyline fill="none" stroke="black" points="49.61,-74.7 568.88,-74.7 "/>
<text text-anchor="middle" x="309.24" y="-58.1" font-family="Courier New" font-size="14.00">mapping(address=&gt;bool): supportedStrategies (32)</text>
</g>
<!-- 1 -->
<g id="node2" class="node">
<title>1</title>
<polygon fill="#f2f2f2" stroke="black" points="604.88,-0.5 604.88,-174.1 856.12,-174.1 856.12,-0.5 604.88,-0.5"/>
<text text-anchor="middle" x="730.5" y="-157.5" font-family="Courier New" font-size="14.00">uint256[50]: __gap &lt;&lt;Array&gt;&gt;</text>
<polyline fill="none" stroke="black" points="604.88,-149.3 856.12,-149.3 "/>
<text text-anchor="middle" x="629.69" y="-132.7" font-family="Courier New" font-size="14.00">slot</text>
<polyline fill="none" stroke="black" points="604.88,-124.5 654.49,-124.5 "/>
<text text-anchor="middle" x="629.69" y="-107.9" font-family="Courier New" font-size="14.00">1</text>
<polyline fill="none" stroke="black" points="604.88,-99.7 654.49,-99.7 "/>
<text text-anchor="middle" x="629.69" y="-83.1" font-family="Courier New" font-size="14.00">2</text>
<polyline fill="none" stroke="black" points="604.88,-74.9 654.49,-74.9 "/>
<text text-anchor="middle" x="629.69" y="-58.3" font-family="Courier New" font-size="14.00">3&#45;48</text>
<polyline fill="none" stroke="black" points="604.88,-50.1 654.49,-50.1 "/>
<text text-anchor="middle" x="629.69" y="-33.5" font-family="Courier New" font-size="14.00">49</text>
<polyline fill="none" stroke="black" points="604.88,-25.3 654.49,-25.3 "/>
<text text-anchor="middle" x="629.69" y="-8.7" font-family="Courier New" font-size="14.00">50</text>
<polyline fill="none" stroke="black" points="654.49,-0.5 654.49,-149.3 "/>
<text text-anchor="middle" x="754.91" y="-132.7" font-family="Courier New" font-size="14.00">type: variable (bytes)</text>
<polyline fill="none" stroke="black" points="654.49,-124.5 855.32,-124.5 "/>
<text text-anchor="middle" x="754.9" y="-107.9" font-family="Courier New" font-size="14.00">uint256 (32)</text>
<polyline fill="none" stroke="black" points="654.49,-99.7 855.32,-99.7 "/>
<text text-anchor="middle" x="754.9" y="-83.1" font-family="Courier New" font-size="14.00">uint256 (32)</text>
<polyline fill="none" stroke="black" points="654.49,-74.9 855.32,-74.9 "/>
<text text-anchor="middle" x="754.7" y="-58.3" font-family="Courier New" font-size="14.00">&#45;&#45;&#45;&#45; (1472)</text>
<polyline fill="none" stroke="black" points="654.49,-50.1 855.32,-50.1 "/>
<text text-anchor="middle" x="754.9" y="-33.5" font-family="Courier New" font-size="14.00">uint256 (32)</text>
<polyline fill="none" stroke="black" points="654.49,-25.3 855.32,-25.3 "/>
<text text-anchor="middle" x="754.9" y="-8.7" font-family="Courier New" font-size="14.00">uint256 (32)</text>
</g>
<!-- 2&#45;&gt;1 -->
<g id="edge1" class="edge">
<title>2:7&#45;&gt;1</title>
<path fill="none" stroke="black" d="M568.88,-87.3C577.2,-87.3 585.76,-87.3 594.4,-87.3"/>
<polygon fill="black" stroke="black" points="594.55,-90.8 604.55,-87.3 594.55,-83.8 594.55,-90.8"/>
</g>
</g>
</svg>
