<?xml version="1.0" encoding="UTF-8" standalone="no"?>
<!DOCTYPE svg PUBLIC "-//W3C//DTD SVG 1.1//EN"
 "http://www.w3.org/Graphics/SVG/1.1/DTD/svg11.dtd">
<!-- Generated by graphviz version 5.0.0 (20220707.1540)
 -->
<!-- Title: UmlClassDiagram Pages: 1 -->
<svg width="292pt" height="286pt"
 viewBox="0.00 0.00 291.87 286.40" xmlns="http://www.w3.org/2000/svg" xmlns:xlink="http://www.w3.org/1999/xlink">
<g id="graph0" class="graph" transform="scale(1 1) rotate(0) translate(4 282.4)">
<title>UmlClassDiagram</title>
<polygon fill="white" stroke="transparent" points="-4,4 -4,-282.4 287.87,-282.4 287.87,4 -4,4"/>
<!-- 21 -->
<g id="node1" class="node">
<title>21</title>
<polygon fill="#f2f2f2" stroke="black" points="24.51,-236.3 24.51,-277.9 259.37,-277.9 259.37,-236.3 24.51,-236.3"/>
<text text-anchor="middle" x="141.94" y="-261.3" font-family="Times,serif" font-size="14.00">Governable</text>
<text text-anchor="middle" x="141.94" y="-244.5" font-family="Times,serif" font-size="14.00">../contracts/governance/Governable.sol</text>
</g>
<!-- 31 -->
<g id="node2" class="node">
<title>31</title>
<polygon fill="#f2f2f2" stroke="black" points="47.43,-157.7 47.43,-199.3 236.44,-199.3 236.44,-157.7 47.43,-157.7"/>
<text text-anchor="middle" x="141.94" y="-182.7" font-family="Times,serif" font-size="14.00">Dripper</text>
<text text-anchor="middle" x="141.94" y="-165.9" font-family="Times,serif" font-size="14.00">../contracts/harvest/Dripper.sol</text>
</g>
<!-- 31&#45;&gt;21 -->
<g id="edge1" class="edge">
<title>31&#45;&gt;21</title>
<path fill="none" stroke="black" d="M141.94,-199.63C141.94,-201.65 141.94,-203.76 141.94,-205.93"/>
<polygon fill="none" stroke="black" points="131.44,-206.11 141.94,-236.11 152.44,-206.11 131.44,-206.11"/>
</g>
<!-- 33 -->
<g id="node3" class="node">
<title>33</title>
<polygon fill="#f2f2f2" stroke="black" points="18.66,-79.1 18.66,-120.7 265.21,-120.7 265.21,-79.1 18.66,-79.1"/>
<text text-anchor="middle" x="141.94" y="-104.1" font-family="Times,serif" font-size="14.00">FixedRateDripper</text>
<text text-anchor="middle" x="141.94" y="-87.3" font-family="Times,serif" font-size="14.00">../contracts/harvest/FixedRateDripper.sol</text>
</g>
<!-- 33&#45;&gt;31 -->
<g id="edge2" class="edge">
<title>33&#45;&gt;31</title>
<path fill="none" stroke="black" d="M141.94,-121.03C141.94,-123.05 141.94,-125.16 141.94,-127.33"/>
<polygon fill="none" stroke="black" points="131.44,-127.51 141.94,-157.51 152.44,-127.51 131.44,-127.51"/>
</g>
<!-- 37 -->
<g id="node4" class="node">
<title>37</title>
<polygon fill="#f2f2f2" stroke="black" points="0,-0.5 0,-42.1 283.87,-42.1 283.87,-0.5 0,-0.5"/>
<text text-anchor="middle" x="141.94" y="-25.5" font-family="Times,serif" font-size="14.00">OETHFixedRateDripper</text>
<text text-anchor="middle" x="141.94" y="-8.7" font-family="Times,serif" font-size="14.00">../contracts/harvest/OETHFixedRateDripper.sol</text>
</g>
<!-- 37&#45;&gt;33 -->
<g id="edge3" class="edge">
<title>37&#45;&gt;33</title>
<path fill="none" stroke="black" d="M141.94,-42.43C141.94,-44.45 141.94,-46.56 141.94,-48.73"/>
<polygon fill="none" stroke="black" points="131.44,-48.91 141.94,-78.91 152.44,-48.91 131.44,-48.91"/>
</g>
</g>
</svg>
