<?xml version="1.0" encoding="UTF-8" standalone="no"?>
<!DOCTYPE svg PUBLIC "-//W3C//DTD SVG 1.1//EN"
 "http://www.w3.org/Graphics/SVG/1.1/DTD/svg11.dtd">
<!-- Generated by graphviz version 5.0.0 (20220707.1540)
 -->
<!-- Title: UmlClassDiagram Pages: 1 -->
<svg width="580pt" height="320pt"
 viewBox="0.00 0.00 580.33 320.00" xmlns="http://www.w3.org/2000/svg" xmlns:xlink="http://www.w3.org/1999/xlink">
<g id="graph0" class="graph" transform="scale(1 1) rotate(0) translate(4 316)">
<title>UmlClassDiagram</title>
<polygon fill="white" stroke="transparent" points="-4,4 -4,-316 576.33,-316 576.33,4 -4,4"/>
<!-- 45 -->
<g id="node1" class="node">
<title>45</title>
<polygon fill="#f2f2f2" stroke="black" points="364.31,-253.1 364.31,-311.5 565.72,-311.5 565.72,-253.1 364.31,-253.1"/>
<text text-anchor="middle" x="465.01" y="-294.9" font-family="Times,serif" font-size="14.00">&lt;&lt;Interface&gt;&gt;</text>
<text text-anchor="middle" x="465.01" y="-278.1" font-family="Times,serif" font-size="14.00">IOracle</text>
<text text-anchor="middle" x="465.01" y="-261.3" font-family="Times,serif" font-size="14.00">../contracts/interfaces/IOracle.sol</text>
</g>
<!-- 211 -->
<g id="node2" class="node">
<title>211</title>
<polygon fill="#f2f2f2" stroke="black" points="0,-253.1 0,-311.5 346.03,-311.5 346.03,-253.1 0,-253.1"/>
<text text-anchor="middle" x="173.01" y="-294.9" font-family="Times,serif" font-size="14.00">&lt;&lt;Interface&gt;&gt;</text>
<text text-anchor="middle" x="173.01" y="-278.1" font-family="Times,serif" font-size="14.00">AggregatorV3Interface</text>
<text text-anchor="middle" x="173.01" y="-261.3" font-family="Times,serif" font-size="14.00">../contracts/interfaces/chainlink/AggregatorV3Interface.sol</text>
</g>
<!-- 107 -->
<g id="node3" class="node">
<title>107</title>
<polygon fill="#f2f2f2" stroke="black" points="357.69,-157.7 357.69,-216.1 572.33,-216.1 572.33,-157.7 357.69,-157.7"/>
<text text-anchor="middle" x="465.01" y="-199.5" font-family="Times,serif" font-size="14.00">&lt;&lt;Abstract&gt;&gt;</text>
<text text-anchor="middle" x="465.01" y="-182.7" font-family="Times,serif" font-size="14.00">OracleRouterBase</text>
<text text-anchor="middle" x="465.01" y="-165.9" font-family="Times,serif" font-size="14.00">../contracts/oracle/OracleRouter.sol</text>
</g>
<!-- 107&#45;&gt;45 -->
<g id="edge1" class="edge">
<title>107&#45;&gt;45</title>
<path fill="none" stroke="black" stroke-dasharray="5,2" d="M465.01,-216.18C465.01,-218.26 465.01,-220.4 465.01,-222.58"/>
<polygon fill="none" stroke="black" points="454.51,-222.8 465.01,-252.8 475.51,-222.8 454.51,-222.8"/>
</g>
<!-- 107&#45;&gt;211 -->
<g id="edge2" class="edge">
<title>107&#45;&gt;211</title>
<path fill="none" stroke="black" stroke-dasharray="5,2" d="M376.61,-216.18C343.24,-226.85 305.09,-239.05 270.9,-249.99"/>
<polygon fill="black" stroke="black" points="269.82,-246.66 261.37,-253.04 271.96,-253.33 269.82,-246.66"/>
</g>
<!-- 108 -->
<g id="node4" class="node">
<title>108</title>
<polygon fill="#f2f2f2" stroke="black" points="357.69,-79.1 357.69,-120.7 572.33,-120.7 572.33,-79.1 357.69,-79.1"/>
<text text-anchor="middle" x="465.01" y="-104.1" font-family="Times,serif" font-size="14.00">OracleRouter</text>
<text text-anchor="middle" x="465.01" y="-87.3" font-family="Times,serif" font-size="14.00">../contracts/oracle/OracleRouter.sol</text>
</g>
<!-- 108&#45;&gt;107 -->
<g id="edge3" class="edge">
<title>108&#45;&gt;107</title>
<path fill="none" stroke="black" d="M465.01,-121.04C465.01,-123.09 465.01,-125.23 465.01,-127.43"/>
<polygon fill="none" stroke="black" points="454.51,-127.54 465.01,-157.54 475.51,-127.54 454.51,-127.54"/>
</g>
<!-- 109 -->
<g id="node5" class="node">
<title>109</title>
<polygon fill="#f2f2f2" stroke="black" points="357.69,-0.5 357.69,-42.1 572.33,-42.1 572.33,-0.5 357.69,-0.5"/>
<text text-anchor="middle" x="465.01" y="-25.5" font-family="Times,serif" font-size="14.00">OETHOracleRouter</text>
<text text-anchor="middle" x="465.01" y="-8.7" font-family="Times,serif" font-size="14.00">../contracts/oracle/OracleRouter.sol</text>
</g>
<!-- 109&#45;&gt;211 -->
<g id="edge5" class="edge">
<title>109&#45;&gt;211</title>
<path fill="none" stroke="black" stroke-dasharray="5,2" d="M413.06,-42.12C392.07,-51.46 368.29,-63.83 349.01,-78.6 286.07,-126.83 229.04,-200.5 197.88,-244.48"/>
<polygon fill="black" stroke="black" points="194.87,-242.67 191.99,-252.86 200.6,-246.69 194.87,-242.67"/>
</g>
<!-- 109&#45;&gt;108 -->
<g id="edge4" class="edge">
<title>109&#45;&gt;108</title>
<path fill="none" stroke="black" d="M465.01,-42.43C465.01,-44.45 465.01,-46.56 465.01,-48.73"/>
<polygon fill="none" stroke="black" points="454.51,-48.91 465.01,-78.91 475.51,-48.91 454.51,-48.91"/>
</g>
</g>
</svg>
