<?xml version="1.0" encoding="UTF-8" standalone="no"?>
<!DOCTYPE svg PUBLIC "-//W3C//DTD SVG 1.1//EN"
 "http://www.w3.org/Graphics/SVG/1.1/DTD/svg11.dtd">
<!-- Generated by graphviz version 5.0.0 (20220707.1540)
 -->
<!-- Title: StorageDiagram Pages: 1 -->
<svg width="2238pt" height="257pt"
 viewBox="0.00 0.00 2237.93 256.80" xmlns="http://www.w3.org/2000/svg" xmlns:xlink="http://www.w3.org/1999/xlink">
<g id="graph0" class="graph" transform="scale(1 1) rotate(0) translate(4 252.8)">
<title>StorageDiagram</title>
<polygon fill="white" stroke="transparent" points="-4,4 -4,-252.8 2233.93,-252.8 2233.93,4 -4,4"/>
<!-- 3 -->
<g id="node1" class="node">
<title>3</title>
<polygon fill="#f2f2f2" stroke="black" points="0,-25.1 0,-248.3 687.31,-248.3 687.31,-25.1 0,-25.1"/>
<text text-anchor="middle" x="343.65" y="-231.7" font-family="Courier New" font-size="14.00">OETHHarvester &lt;&lt;Contract&gt;&gt;</text>
<polyline fill="none" stroke="black" points="0,-223.5 687.31,-223.5 "/>
<text text-anchor="middle" x="24.8" y="-206.9" font-family="Courier New" font-size="14.00">slot</text>
<polyline fill="none" stroke="black" points="0,-198.7 49.61,-198.7 "/>
<text text-anchor="middle" x="24.8" y="-182.1" font-family="Courier New" font-size="14.00">0</text>
<polyline fill="none" stroke="black" points="0,-173.9 49.61,-173.9 "/>
<text text-anchor="middle" x="24.8" y="-157.3" font-family="Courier New" font-size="14.00">1</text>
<polyline fill="none" stroke="black" points="0,-149.1 49.61,-149.1 "/>
<text text-anchor="middle" x="24.8" y="-132.5" font-family="Courier New" font-size="14.00">2</text>
<polyline fill="none" stroke="black" points="0,-124.3 49.61,-124.3 "/>
<text text-anchor="middle" x="24.8" y="-107.7" font-family="Courier New" font-size="14.00">3</text>
<polyline fill="none" stroke="black" points="0,-99.5 49.61,-99.5 "/>
<text text-anchor="middle" x="24.8" y="-82.9" font-family="Courier New" font-size="14.00">4</text>
<polyline fill="none" stroke="black" points="0,-74.7 49.61,-74.7 "/>
<text text-anchor="middle" x="24.8" y="-58.1" font-family="Courier New" font-size="14.00">5</text>
<polyline fill="none" stroke="black" points="0,-49.9 49.61,-49.9 "/>
<text text-anchor="middle" x="24.8" y="-33.3" font-family="Courier New" font-size="14.00">6</text>
<polyline fill="none" stroke="black" points="49.61,-25.1 49.61,-223.5 "/>
<text text-anchor="middle" x="368.46" y="-206.9" font-family="Courier New" font-size="14.00">type: &lt;inherited contract&gt;.variable (bytes)</text>
<polyline fill="none" stroke="black" points="49.61,-198.7 687.31,-198.7 "/>
<text text-anchor="middle" x="368.46" y="-182.1" font-family="Courier New" font-size="14.00">mapping(address=&gt;RewardTokenConfig): BaseHarvester.rewardTokenConfigs (32)</text>
<polyline fill="none" stroke="black" points="49.61,-173.9 687.31,-173.9 "/>
<text text-anchor="middle" x="368.05" y="-157.3" font-family="Courier New" font-size="14.00">mapping(address=&gt;bool): BaseHarvester.supportedStrategies (32)</text>
<polyline fill="none" stroke="black" points="49.61,-149.1 687.31,-149.1 "/>
<text text-anchor="middle" x="139.32" y="-132.5" font-family="Courier New" font-size="14.00">unallocated (12)</text>
<polyline fill="none" stroke="black" points="229.03,-124.3 229.03,-149.1 "/>
<text text-anchor="middle" x="457.86" y="-132.5" font-family="Courier New" font-size="14.00">address: BaseHarvester.rewardProceedsAddress (20)</text>
<polyline fill="none" stroke="black" points="49.61,-124.3 687.31,-124.3 "/>
<text text-anchor="middle" x="368.35" y="-107.7" font-family="Courier New" font-size="14.00">mapping(address=&gt;address[]): BaseHarvester.uniswapV2Path (32)</text>
<polyline fill="none" stroke="black" points="49.61,-99.5 687.31,-99.5 "/>
<text text-anchor="middle" x="368.04" y="-82.9" font-family="Courier New" font-size="14.00">mapping(address=&gt;bytes): BaseHarvester.uniswapV3Path (32)</text>
<polyline fill="none" stroke="black" points="49.61,-74.7 687.31,-74.7 "/>
<text text-anchor="middle" x="368.15" y="-58.1" font-family="Courier New" font-size="14.00">mapping(address=&gt;bytes32): BaseHarvester.balancerPoolId (32)</text>
<polyline fill="none" stroke="black" points="49.61,-49.9 687.31,-49.9 "/>
<text text-anchor="middle" x="368.35" y="-33.3" font-family="Courier New" font-size="14.00">mapping(address=&gt;CurvePoolIndices): BaseHarvester.curvePoolIndices (32)</text>
</g>
<!-- 1 -->
<g id="node2" class="node">
<title>1</title>
<polygon fill="#f2f2f2" stroke="black" points="723.31,-137.1 723.31,-236.3 2229.93,-236.3 2229.93,-137.1 723.31,-137.1"/>
<text text-anchor="middle" x="1476.62" y="-219.7" font-family="Courier New" font-size="14.00">RewardTokenConfig &lt;&lt;Struct&gt;&gt;</text>
<polyline fill="none" stroke="black" points="723.31,-211.5 2229.93,-211.5 "/>
<text text-anchor="middle" x="756.51" y="-194.9" font-family="Courier New" font-size="14.00">offset</text>
<polyline fill="none" stroke="black" points="723.31,-186.7 789.71,-186.7 "/>
<text text-anchor="middle" x="756.51" y="-170.1" font-family="Courier New" font-size="14.00">0</text>
<polyline fill="none" stroke="black" points="723.31,-161.9 789.71,-161.9 "/>
<text text-anchor="middle" x="756.51" y="-145.3" font-family="Courier New" font-size="14.00">1</text>
<polyline fill="none" stroke="black" points="789.71,-137.1 789.71,-211.5 "/>
<text text-anchor="middle" x="1509.82" y="-194.9" font-family="Courier New" font-size="14.00">type: variable (bytes)</text>
<polyline fill="none" stroke="black" points="789.71,-186.7 2229.93,-186.7 "/>
<text text-anchor="middle" x="860.73" y="-170.1" font-family="Courier New" font-size="14.00">unallocated (6)</text>
<polyline fill="none" stroke="black" points="931.74,-161.9 931.74,-186.7 "/>
<text text-anchor="middle" x="1065.76" y="-170.1" font-family="Courier New" font-size="14.00">SwapPlatform: swapPlatform (1)</text>
<polyline fill="none" stroke="black" points="1199.78,-161.9 1199.78,-186.7 "/>
<text text-anchor="middle" x="1321.19" y="-170.1" font-family="Courier New" font-size="14.00">bool: doSwapRewardToken (1)</text>
<polyline fill="none" stroke="black" points="1442.61,-161.9 1442.61,-186.7 "/>
<text text-anchor="middle" x="1576.63" y="-170.1" font-family="Courier New" font-size="14.00">address: swapPlatformAddr (20)</text>
<polyline fill="none" stroke="black" points="1710.65,-161.9 1710.65,-186.7 "/>
<text text-anchor="middle" x="1836.27" y="-170.1" font-family="Courier New" font-size="14.00">uint16: harvestRewardBps (2)</text>
<polyline fill="none" stroke="black" points="1961.89,-161.9 1961.89,-186.7 "/>
<text text-anchor="middle" x="2095.91" y="-170.1" font-family="Courier New" font-size="14.00">uint16: allowedSlippageBps (2)</text>
<polyline fill="none" stroke="black" points="789.71,-161.9 2229.93,-161.9 "/>
<text text-anchor="middle" x="1509.74" y="-145.3" font-family="Courier New" font-size="14.00">uint256: liquidationLimit (32)</text>
</g>
<!-- 3&#45;&gt;1 -->
<g id="edge1" class="edge">
<title>3:7&#45;&gt;1</title>
<path fill="none" stroke="black" d="M687.31,-186.7C695.85,-186.7 704.45,-186.7 713.09,-186.7"/>
<polygon fill="black" stroke="black" points="713.26,-190.2 723.26,-186.7 713.26,-183.2 713.26,-190.2"/>
</g>
<!-- 2 -->
<g id="node3" class="node">
<title>2</title>
<polygon fill="#f2f2f2" stroke="black" points="1183.78,-0.5 1183.78,-74.9 1769.46,-74.9 1769.46,-0.5 1183.78,-0.5"/>
<text text-anchor="middle" x="1476.62" y="-58.3" font-family="Courier New" font-size="14.00">CurvePoolIndices &lt;&lt;Struct&gt;&gt;</text>
<polyline fill="none" stroke="black" points="1183.78,-50.1 1769.46,-50.1 "/>
<text text-anchor="middle" x="1216.98" y="-33.5" font-family="Courier New" font-size="14.00">offset</text>
<polyline fill="none" stroke="black" points="1183.78,-25.3 1250.18,-25.3 "/>
<text text-anchor="middle" x="1216.98" y="-8.7" font-family="Courier New" font-size="14.00">0</text>
<polyline fill="none" stroke="black" points="1250.18,-0.5 1250.18,-50.1 "/>
<text text-anchor="middle" x="1509.82" y="-33.5" font-family="Courier New" font-size="14.00">type: variable (bytes)</text>
<polyline fill="none" stroke="black" points="1250.18,-25.3 1769.46,-25.3 "/>
<text text-anchor="middle" x="1375.8" y="-8.7" font-family="Courier New" font-size="14.00">uint128: baseTokenIndex (16)</text>
<polyline fill="none" stroke="black" points="1501.42,-0.5 1501.42,-25.3 "/>
<text text-anchor="middle" x="1635.44" y="-8.7" font-family="Courier New" font-size="14.00">uint128: rewardTokenIndex (16)</text>
</g>
<!-- 3&#45;&gt;2 -->
<g id="edge2" class="edge">
<title>3:15&#45;&gt;2</title>
<path fill="none" stroke="black" d="M687.31,-37.7C847.85,-37.7 1026.78,-37.7 1173.55,-37.7"/>
<polygon fill="black" stroke="black" points="1173.61,-41.2 1183.61,-37.7 1173.61,-34.2 1173.61,-41.2"/>
</g>
</g>
</svg>
