<?xml version="1.0" encoding="UTF-8" standalone="no"?>
<!DOCTYPE svg PUBLIC "-//W3C//DTD SVG 1.1//EN"
 "http://www.w3.org/Graphics/SVG/1.1/DTD/svg11.dtd">
<!-- Generated by graphviz version 5.0.0 (20220707.1540)
 -->
<!-- Title: UmlClassDiagram Pages: 1 -->
<svg width="493pt" height="225pt"
 viewBox="0.00 0.00 493.40 224.60" xmlns="http://www.w3.org/2000/svg" xmlns:xlink="http://www.w3.org/1999/xlink">
<g id="graph0" class="graph" transform="scale(1 1) rotate(0) translate(4 220.6)">
<title>UmlClassDiagram</title>
<polygon fill="white" stroke="transparent" points="-4,4 -4,-220.6 489.4,-220.6 489.4,4 -4,4"/>
<!-- 20 -->
<g id="node1" class="node">
<title>20</title>
<polygon fill="#f2f2f2" stroke="black" points="113.5,-174.5 113.5,-216.1 348.36,-216.1 348.36,-174.5 113.5,-174.5"/>
<text text-anchor="middle" x="230.93" y="-199.5" font-family="Times,serif" font-size="14.00">Governable</text>
<text text-anchor="middle" x="230.93" y="-182.7" font-family="Times,serif" font-size="14.00">../contracts/governance/Governable.sol</text>
</g>
<!-- 115 -->
<g id="node2" class="node">
<title>115</title>
<polygon fill="#f2f2f2" stroke="black" points="5.06,-79.1 5.06,-137.5 208.8,-137.5 208.8,-79.1 5.06,-79.1"/>
<text text-anchor="middle" x="106.93" y="-120.9" font-family="Times,serif" font-size="14.00">&lt;&lt;Abstract&gt;&gt;</text>
<text text-anchor="middle" x="106.93" y="-104.1" font-family="Times,serif" font-size="14.00">BaseOracle</text>
<text text-anchor="middle" x="106.93" y="-87.3" font-family="Times,serif" font-size="14.00">../contracts/oracle/BaseOracle.sol</text>
</g>
<!-- 115&#45;&gt;20 -->
<g id="edge1" class="edge">
<title>115&#45;&gt;20</title>
<path fill="none" stroke="black" d="M148.22,-137.6C157.44,-143.92 167.35,-150.72 176.99,-157.33"/>
<polygon fill="none" stroke="black" points="171.28,-166.14 201.96,-174.44 183.15,-148.82 171.28,-166.14"/>
</g>
<!-- 118 -->
<g id="node3" class="node">
<title>118</title>
<polygon fill="#f2f2f2" stroke="black" points="0,-0.5 0,-42.1 213.86,-42.1 213.86,-0.5 0,-0.5"/>
<text text-anchor="middle" x="106.93" y="-25.5" font-family="Times,serif" font-size="14.00">OETHOracle</text>
<text text-anchor="middle" x="106.93" y="-8.7" font-family="Times,serif" font-size="14.00">../contracts/oracle/OETHOracle.sol</text>
</g>
<!-- 118&#45;&gt;115 -->
<g id="edge2" class="edge">
<title>118&#45;&gt;115</title>
<path fill="none" stroke="black" d="M106.93,-42.44C106.93,-44.49 106.93,-46.63 106.93,-48.83"/>
<polygon fill="none" stroke="black" points="96.43,-48.94 106.93,-78.94 117.43,-48.94 96.43,-48.94"/>
</g>
<!-- 119 -->
<g id="node4" class="node">
<title>119</title>
<polygon fill="#f2f2f2" stroke="black" points="226.46,-87.5 226.46,-129.1 485.4,-129.1 485.4,-87.5 226.46,-87.5"/>
<text text-anchor="middle" x="355.93" y="-112.5" font-family="Times,serif" font-size="14.00">OETHOracleUpdater</text>
<text text-anchor="middle" x="355.93" y="-95.7" font-family="Times,serif" font-size="14.00">../contracts/oracle/OETHOracleUpdater.sol</text>
</g>
<!-- 119&#45;&gt;20 -->
<g id="edge3" class="edge">
<title>119&#45;&gt;20</title>
<path fill="none" stroke="black" d="M326.62,-129.23C314.16,-137.7 299.22,-147.86 284.9,-157.6"/>
<polygon fill="none" stroke="black" points="278.96,-148.94 260.05,-174.5 290.77,-166.31 278.96,-148.94"/>
</g>
</g>
</svg>
