<?xml version="1.0" encoding="UTF-8" standalone="no"?>
<!DOCTYPE svg PUBLIC "-//W3C//DTD SVG 1.1//EN"
 "http://www.w3.org/Graphics/SVG/1.1/DTD/svg11.dtd">
<!-- Generated by graphviz version 5.0.0 (20220707.1540)
 -->
<!-- Title: StorageDiagram Pages: 1 -->
<svg width="2455pt" height="946pt"
 viewBox="0.00 0.00 2454.76 945.80" xmlns="http://www.w3.org/2000/svg" xmlns:xlink="http://www.w3.org/1999/xlink">
<g id="graph0" class="graph" transform="scale(1 1) rotate(0) translate(4 941.8)">
<title>StorageDiagram</title>
<polygon fill="white" stroke="transparent" points="-4,4 -4,-941.8 2450.76,-941.8 2450.76,4 -4,4"/>
<!-- 9 -->
<g id="node1" class="node">
<title>9</title>
<polygon fill="#f2f2f2" stroke="black" points="0,-47.5 0,-890.7 1205.78,-890.7 1205.78,-47.5 0,-47.5"/>
<text text-anchor="middle" x="602.89" y="-874.1" font-family="Courier New" font-size="14.00">OETHBaseVaultCore &lt;&lt;Contract&gt;&gt;</text>
<polyline fill="none" stroke="black" points="0,-865.9 1205.78,-865.9 "/>
<text text-anchor="middle" x="37.4" y="-849.3" font-family="Courier New" font-size="14.00">slot</text>
<polyline fill="none" stroke="black" points="0,-841.1 74.81,-841.1 "/>
<text text-anchor="middle" x="37.4" y="-824.5" font-family="Courier New" font-size="14.00">0</text>
<polyline fill="none" stroke="black" points="0,-816.3 74.81,-816.3 "/>
<text text-anchor="middle" x="37.4" y="-799.7" font-family="Courier New" font-size="14.00">1&#45;50</text>
<polyline fill="none" stroke="black" points="0,-791.5 74.81,-791.5 "/>
<text text-anchor="middle" x="37.4" y="-774.9" font-family="Courier New" font-size="14.00">51</text>
<polyline fill="none" stroke="black" points="0,-766.7 74.81,-766.7 "/>
<text text-anchor="middle" x="37.4" y="-750.1" font-family="Courier New" font-size="14.00">52</text>
<polyline fill="none" stroke="black" points="0,-741.9 74.81,-741.9 "/>
<text text-anchor="middle" x="37.4" y="-725.3" font-family="Courier New" font-size="14.00">53</text>
<polyline fill="none" stroke="black" points="0,-717.1 74.81,-717.1 "/>
<text text-anchor="middle" x="37.4" y="-700.5" font-family="Courier New" font-size="14.00">54</text>
<polyline fill="none" stroke="black" points="0,-692.3 74.81,-692.3 "/>
<text text-anchor="middle" x="37.4" y="-675.7" font-family="Courier New" font-size="14.00">55</text>
<polyline fill="none" stroke="black" points="0,-667.5 74.81,-667.5 "/>
<text text-anchor="middle" x="37.4" y="-650.9" font-family="Courier New" font-size="14.00">56</text>
<polyline fill="none" stroke="black" points="0,-642.7 74.81,-642.7 "/>
<text text-anchor="middle" x="37.4" y="-626.1" font-family="Courier New" font-size="14.00">57</text>
<polyline fill="none" stroke="black" points="0,-617.9 74.81,-617.9 "/>
<text text-anchor="middle" x="37.4" y="-601.3" font-family="Courier New" font-size="14.00">58</text>
<polyline fill="none" stroke="black" points="0,-593.1 74.81,-593.1 "/>
<text text-anchor="middle" x="37.4" y="-576.5" font-family="Courier New" font-size="14.00">59</text>
<polyline fill="none" stroke="black" points="0,-568.3 74.81,-568.3 "/>
<text text-anchor="middle" x="37.4" y="-551.7" font-family="Courier New" font-size="14.00">60</text>
<polyline fill="none" stroke="black" points="0,-543.5 74.81,-543.5 "/>
<text text-anchor="middle" x="37.4" y="-526.9" font-family="Courier New" font-size="14.00">61</text>
<polyline fill="none" stroke="black" points="0,-518.7 74.81,-518.7 "/>
<text text-anchor="middle" x="37.4" y="-502.1" font-family="Courier New" font-size="14.00">62</text>
<polyline fill="none" stroke="black" points="0,-493.9 74.81,-493.9 "/>
<text text-anchor="middle" x="37.4" y="-477.3" font-family="Courier New" font-size="14.00">63</text>
<polyline fill="none" stroke="black" points="0,-469.1 74.81,-469.1 "/>
<text text-anchor="middle" x="37.4" y="-452.5" font-family="Courier New" font-size="14.00">64</text>
<polyline fill="none" stroke="black" points="0,-444.3 74.81,-444.3 "/>
<text text-anchor="middle" x="37.4" y="-427.7" font-family="Courier New" font-size="14.00">65</text>
<polyline fill="none" stroke="black" points="0,-419.5 74.81,-419.5 "/>
<text text-anchor="middle" x="37.4" y="-402.9" font-family="Courier New" font-size="14.00">66</text>
<polyline fill="none" stroke="black" points="0,-394.7 74.81,-394.7 "/>
<text text-anchor="middle" x="37.4" y="-378.1" font-family="Courier New" font-size="14.00">67</text>
<polyline fill="none" stroke="black" points="0,-369.9 74.81,-369.9 "/>
<text text-anchor="middle" x="37.4" y="-353.3" font-family="Courier New" font-size="14.00">68</text>
<polyline fill="none" stroke="black" points="0,-345.1 74.81,-345.1 "/>
<text text-anchor="middle" x="37.4" y="-328.5" font-family="Courier New" font-size="14.00">69</text>
<polyline fill="none" stroke="black" points="0,-320.3 74.81,-320.3 "/>
<text text-anchor="middle" x="37.4" y="-303.7" font-family="Courier New" font-size="14.00">70</text>
<polyline fill="none" stroke="black" points="0,-295.5 74.81,-295.5 "/>
<text text-anchor="middle" x="37.4" y="-278.9" font-family="Courier New" font-size="14.00">71</text>
<polyline fill="none" stroke="black" points="0,-270.7 74.81,-270.7 "/>
<text text-anchor="middle" x="37.4" y="-254.1" font-family="Courier New" font-size="14.00">72</text>
<polyline fill="none" stroke="black" points="0,-245.9 74.81,-245.9 "/>
<text text-anchor="middle" x="37.4" y="-229.3" font-family="Courier New" font-size="14.00">73</text>
<polyline fill="none" stroke="black" points="0,-221.1 74.81,-221.1 "/>
<text text-anchor="middle" x="37.4" y="-204.5" font-family="Courier New" font-size="14.00">74</text>
<polyline fill="none" stroke="black" points="0,-196.3 74.81,-196.3 "/>
<text text-anchor="middle" x="37.4" y="-179.7" font-family="Courier New" font-size="14.00">75&#45;76</text>
<polyline fill="none" stroke="black" points="0,-171.5 74.81,-171.5 "/>
<text text-anchor="middle" x="37.4" y="-154.9" font-family="Courier New" font-size="14.00">77</text>
<polyline fill="none" stroke="black" points="0,-146.7 74.81,-146.7 "/>
<text text-anchor="middle" x="37.4" y="-130.1" font-family="Courier New" font-size="14.00">78</text>
<polyline fill="none" stroke="black" points="0,-121.9 74.81,-121.9 "/>
<text text-anchor="middle" x="37.4" y="-105.3" font-family="Courier New" font-size="14.00">79&#45;122</text>
<polyline fill="none" stroke="black" points="0,-97.1 74.81,-97.1 "/>
<text text-anchor="middle" x="37.4" y="-80.5" font-family="Courier New" font-size="14.00">123</text>
<polyline fill="none" stroke="black" points="0,-72.3 74.81,-72.3 "/>
<text text-anchor="middle" x="37.4" y="-55.7" font-family="Courier New" font-size="14.00">124&#45;173</text>
<polyline fill="none" stroke="black" points="74.81,-47.5 74.81,-865.9 "/>
<text text-anchor="middle" x="640.3" y="-849.3" font-family="Courier New" font-size="14.00">type: &lt;inherited contract&gt;.variable (bytes)</text>
<polyline fill="none" stroke="black" points="74.81,-841.1 1205.78,-841.1 "/>
<text text-anchor="middle" x="208.52" y="-824.5" font-family="Courier New" font-size="14.00">unallocated (30)</text>
<polyline fill="none" stroke="black" points="342.23,-816.3 342.23,-841.1 "/>
<text text-anchor="middle" x="559.96" y="-824.5" font-family="Courier New" font-size="14.00">bool: Initializable.initializing (1)</text>
<polyline fill="none" stroke="black" points="777.68,-816.3 777.68,-841.1 "/>
<text text-anchor="middle" x="991.7" y="-824.5" font-family="Courier New" font-size="14.00">bool: Initializable.initialized (1)</text>
<polyline fill="none" stroke="black" points="74.81,-816.3 1205.78,-816.3 "/>
<text text-anchor="middle" x="639.94" y="-799.7" font-family="Courier New" font-size="14.00">uint256[50]: Initializable.______gap (1600)</text>
<polyline fill="none" stroke="black" points="74.81,-791.5 1205.78,-791.5 "/>
<text text-anchor="middle" x="640.14" y="-774.9" font-family="Courier New" font-size="14.00">mapping(address=&gt;Asset): VaultStorage.assets (32)</text>
<polyline fill="none" stroke="black" points="74.81,-766.7 1205.78,-766.7 "/>
<text text-anchor="middle" x="639.94" y="-750.1" font-family="Courier New" font-size="14.00">address[]: VaultStorage.allAssets (32)</text>
<polyline fill="none" stroke="black" points="74.81,-741.9 1205.78,-741.9 "/>
<text text-anchor="middle" x="640.05" y="-725.3" font-family="Courier New" font-size="14.00">mapping(address=&gt;Strategy): VaultStorage.strategies (32)</text>
<polyline fill="none" stroke="black" points="74.81,-717.1 1205.78,-717.1 "/>
<text text-anchor="middle" x="640.24" y="-700.5" font-family="Courier New" font-size="14.00">address[]: VaultStorage.allStrategies (32)</text>
<polyline fill="none" stroke="black" points="74.81,-692.3 1205.78,-692.3 "/>
<text text-anchor="middle" x="150.02" y="-675.7" font-family="Courier New" font-size="14.00">unallocated (10)</text>
<polyline fill="none" stroke="black" points="225.23,-667.5 225.23,-692.3 "/>
<text text-anchor="middle" x="384.46" y="-675.7" font-family="Courier New" font-size="14.00">bool: VaultStorage.capitalPaused (1)</text>
<polyline fill="none" stroke="black" points="543.68,-667.5 543.68,-692.3 "/>
<text text-anchor="middle" x="698.7" y="-675.7" font-family="Courier New" font-size="14.00">bool: VaultStorage.rebasePaused (1)</text>
<polyline fill="none" stroke="black" points="853.73,-667.5 853.73,-692.3 "/>
<text text-anchor="middle" x="1029.76" y="-675.7" font-family="Courier New" font-size="14.00">address: VaultStorage.priceProvider (20)</text>
<polyline fill="none" stroke="black" points="74.81,-667.5 1205.78,-667.5 "/>
<text text-anchor="middle" x="640.14" y="-650.9" font-family="Courier New" font-size="14.00">uint256: VaultStorage.redeemFeeBps (32)</text>
<polyline fill="none" stroke="black" points="74.81,-642.7 1205.78,-642.7 "/>
<text text-anchor="middle" x="639.94" y="-626.1" font-family="Courier New" font-size="14.00">uint256: VaultStorage.vaultBuffer (32)</text>
<polyline fill="none" stroke="black" points="74.81,-617.9 1205.78,-617.9 "/>
<text text-anchor="middle" x="639.94" y="-601.3" font-family="Courier New" font-size="14.00">uint256: VaultStorage.autoAllocateThreshold (32)</text>
<polyline fill="none" stroke="black" points="74.81,-593.1 1205.78,-593.1 "/>
<text text-anchor="middle" x="640.24" y="-576.5" font-family="Courier New" font-size="14.00">uint256: VaultStorage.rebaseThreshold (32)</text>
<polyline fill="none" stroke="black" points="74.81,-568.3 1205.78,-568.3 "/>
<text text-anchor="middle" x="332.02" y="-551.7" font-family="Courier New" font-size="14.00">unallocated (12)</text>
<polyline fill="none" stroke="black" points="589.23,-543.5 589.23,-568.3 "/>
<text text-anchor="middle" x="897.35" y="-551.7" font-family="Courier New" font-size="14.00">OUSD: VaultStorage.oUSD (20)</text>
<polyline fill="none" stroke="black" points="74.81,-543.5 1205.78,-543.5 "/>
<text text-anchor="middle" x="277.52" y="-526.9" font-family="Courier New" font-size="14.00">unallocated (12)</text>
<polyline fill="none" stroke="black" points="480.23,-518.7 480.23,-543.5 "/>
<text text-anchor="middle" x="842.57" y="-526.9" font-family="Courier New" font-size="14.00">address: VaultStorage._deprecated_rebaseHooksAddr (20)</text>
<polyline fill="none" stroke="black" points="74.81,-518.7 1205.78,-518.7 "/>
<text text-anchor="middle" x="286.02" y="-502.1" font-family="Courier New" font-size="14.00">unallocated (12)</text>
<polyline fill="none" stroke="black" points="497.23,-493.9 497.23,-518.7 "/>
<text text-anchor="middle" x="851.27" y="-502.1" font-family="Courier New" font-size="14.00">address: VaultStorage._deprecated_uniswapAddr (20)</text>
<polyline fill="none" stroke="black" points="74.81,-493.9 1205.78,-493.9 "/>
<text text-anchor="middle" x="305.02" y="-477.3" font-family="Courier New" font-size="14.00">unallocated (12)</text>
<polyline fill="none" stroke="black" points="535.23,-469.1 535.23,-493.9 "/>
<text text-anchor="middle" x="870.46" y="-477.3" font-family="Courier New" font-size="14.00">address: VaultStorage.strategistAddr (20)</text>
<polyline fill="none" stroke="black" points="74.81,-469.1 1205.78,-469.1 "/>
<text text-anchor="middle" x="640.26" y="-452.5" font-family="Courier New" font-size="14.00">mapping(address=&gt;address): VaultStorage.assetDefaultStrategies (32)</text>
<polyline fill="none" stroke="black" points="74.81,-444.3 1205.78,-444.3 "/>
<text text-anchor="middle" x="639.84" y="-427.7" font-family="Courier New" font-size="14.00">uint256: VaultStorage.maxSupplyDiff (32)</text>
<polyline fill="none" stroke="black" points="74.81,-419.5 1205.78,-419.5 "/>
<text text-anchor="middle" x="305.02" y="-402.9" font-family="Courier New" font-size="14.00">unallocated (12)</text>
<polyline fill="none" stroke="black" points="535.23,-394.7 535.23,-419.5 "/>
<text text-anchor="middle" x="870.46" y="-402.9" font-family="Courier New" font-size="14.00">address: VaultStorage.trusteeAddress (20)</text>
<polyline fill="none" stroke="black" points="74.81,-394.7 1205.78,-394.7 "/>
<text text-anchor="middle" x="639.84" y="-378.1" font-family="Courier New" font-size="14.00">uint256: VaultStorage.trusteeFeeBps (32)</text>
<polyline fill="none" stroke="black" points="74.81,-369.9 1205.78,-369.9 "/>
<text text-anchor="middle" x="640.04" y="-353.3" font-family="Courier New" font-size="14.00">address[]: VaultStorage._deprecated_swapTokens (32)</text>
<polyline fill="none" stroke="black" points="74.81,-345.1 1205.78,-345.1 "/>
<text text-anchor="middle" x="300.52" y="-328.5" font-family="Courier New" font-size="14.00">unallocated (12)</text>
<polyline fill="none" stroke="black" points="526.23,-320.3 526.23,-345.1 "/>
<text text-anchor="middle" x="865.86" y="-328.5" font-family="Courier New" font-size="14.00">address: VaultStorage.ousdMetaStrategy (20)</text>
<polyline fill="none" stroke="black" points="74.81,-320.3 1205.78,-320.3 "/>
<text text-anchor="middle" x="639.84" y="-303.7" font-family="Courier New" font-size="14.00">int256: VaultStorage.netOusdMintedForStrategy (32)</text>
<polyline fill="none" stroke="black" points="74.81,-295.5 1205.78,-295.5 "/>
<text text-anchor="middle" x="639.95" y="-278.9" font-family="Courier New" font-size="14.00">uint256: VaultStorage.netOusdMintForStrategyThreshold (32)</text>
<polyline fill="none" stroke="black" points="74.81,-270.7 1205.78,-270.7 "/>
<text text-anchor="middle" x="639.84" y="-254.1" font-family="Courier New" font-size="14.00">SwapConfig: VaultStorage.swapConfig (32)</text>
<polyline fill="none" stroke="black" points="74.81,-245.9 1205.78,-245.9 "/>
<text text-anchor="middle" x="640.26" y="-229.3" font-family="Courier New" font-size="14.00">mapping(address=&gt;bool): VaultStorage.isMintWhitelistedStrategy (32)</text>
<polyline fill="none" stroke="black" points="74.81,-221.1 1205.78,-221.1 "/>
<text text-anchor="middle" x="319.52" y="-204.5" font-family="Courier New" font-size="14.00">unallocated (12)</text>
<polyline fill="none" stroke="black" points="564.23,-196.3 564.23,-221.1 "/>
<text text-anchor="middle" x="884.55" y="-204.5" font-family="Courier New" font-size="14.00">address: VaultStorage.dripper (20)</text>
<polyline fill="none" stroke="black" points="74.81,-196.3 1205.78,-196.3 "/>
<text text-anchor="middle" x="640.05" y="-179.7" font-family="Courier New" font-size="14.00">WithdrawalQueueMetadata: VaultStorage.withdrawalQueueMetadata (64)</text>
<polyline fill="none" stroke="black" points="74.81,-171.5 1205.78,-171.5 "/>
<text text-anchor="middle" x="639.96" y="-154.9" font-family="Courier New" font-size="14.00">mapping(uint256=&gt;WithdrawalRequest): VaultStorage.withdrawalRequests (32)</text>
<polyline fill="none" stroke="black" points="74.81,-146.7 1205.78,-146.7 "/>
<text text-anchor="middle" x="640.24" y="-130.1" font-family="Courier New" font-size="14.00">uint256: VaultStorage.withdrawalClaimDelay (32)</text>
<polyline fill="none" stroke="black" points="74.81,-121.9 1205.78,-121.9 "/>
<text text-anchor="middle" x="639.94" y="-105.3" font-family="Courier New" font-size="14.00">uint256[44]: VaultStorage.__gap (1408)</text>
<polyline fill="none" stroke="black" points="74.81,-97.1 1205.78,-97.1 "/>
<text text-anchor="middle" x="640.24" y="-80.5" font-family="Courier New" font-size="14.00">uint256: OETHVaultCore.wethAssetIndex (32)</text>
<polyline fill="none" stroke="black" points="74.81,-72.3 1205.78,-72.3 "/>
<text text-anchor="middle" x="640.14" y="-55.7" font-family="Courier New" font-size="14.00">uint256[50]: OETHVaultCore.__gap (1600)</text>
</g>
<!-- 1 -->
<g id="node2" class="node">
<title>1</title>
<polygon fill="#f2f2f2" stroke="black" points="1241.78,-862.9 1241.78,-937.3 2446.76,-937.3 2446.76,-862.9 1241.78,-862.9"/>
<text text-anchor="middle" x="1844.27" y="-920.7" font-family="Courier New" font-size="14.00">Asset &lt;&lt;Struct&gt;&gt;</text>
<polyline fill="none" stroke="black" points="1241.78,-912.5 2446.76,-912.5 "/>
<text text-anchor="middle" x="1274.99" y="-895.9" font-family="Courier New" font-size="14.00">offset</text>
<polyline fill="none" stroke="black" points="1241.78,-887.7 1308.19,-887.7 "/>
<text text-anchor="middle" x="1274.99" y="-871.1" font-family="Courier New" font-size="14.00">0</text>
<polyline fill="none" stroke="black" points="1308.19,-862.9 1308.19,-912.5 "/>
<text text-anchor="middle" x="1877.48" y="-895.9" font-family="Courier New" font-size="14.00">type: variable (bytes)</text>
<polyline fill="none" stroke="black" points="1308.19,-887.7 2446.76,-887.7 "/>
<text text-anchor="middle" x="1383.4" y="-871.1" font-family="Courier New" font-size="14.00">unallocated (27)</text>
<polyline fill="none" stroke="black" points="1458.61,-862.9 1458.61,-887.7 "/>
<text text-anchor="middle" x="1617.84" y="-871.1" font-family="Courier New" font-size="14.00">uint16: allowedOracleSlippageBps (2)</text>
<polyline fill="none" stroke="black" points="1777.06,-862.9 1777.06,-887.7 "/>
<text text-anchor="middle" x="1864.88" y="-871.1" font-family="Courier New" font-size="14.00">uint8: decimals (1)</text>
<polyline fill="none" stroke="black" points="1952.69,-862.9 1952.69,-887.7 "/>
<text text-anchor="middle" x="2103.51" y="-871.1" font-family="Courier New" font-size="14.00">UnitConversion: unitConversion (1)</text>
<polyline fill="none" stroke="black" points="2254.33,-862.9 2254.33,-887.7 "/>
<text text-anchor="middle" x="2350.55" y="-871.1" font-family="Courier New" font-size="14.00">bool: isSupported (1)</text>
</g>
<!-- 9&#45;&gt;1 -->
<g id="edge1" class="edge">
<title>9:8&#45;&gt;1</title>
<path fill="none" stroke="black" d="M1205.78,-779.1C1242.36,-779.1 1211.56,-832.51 1241.78,-853.1 1243.96,-854.58 1246.15,-856.04 1248.36,-857.48"/>
<polygon fill="black" stroke="black" points="1246.62,-860.52 1256.95,-862.89 1250.36,-854.6 1246.62,-860.52"/>
</g>
<!-- 2 -->
<g id="node3" class="node">
<title>2</title>
<polygon fill="#f2f2f2" stroke="black" points="1559.03,-752.5 1559.03,-843.7 2129.52,-843.7 2129.52,-752.5 1559.03,-752.5"/>
<text text-anchor="middle" x="1844.27" y="-827.1" font-family="Courier New" font-size="14.00">address[]: allAssets &lt;&lt;Array&gt;&gt;</text>
<text text-anchor="middle" x="1844.27" y="-810.3" font-family="Courier New" font-size="14.00">0x46bddb1178e94d7f2892ff5f366840eb658911794f2c3a44c450aa2c505186c1</text>
<polyline fill="none" stroke="black" points="1559.03,-802.1 2129.52,-802.1 "/>
<text text-anchor="middle" x="1651.23" y="-785.5" font-family="Courier New" font-size="14.00">offset</text>
<polyline fill="none" stroke="black" points="1559.03,-777.3 1743.44,-777.3 "/>
<text text-anchor="middle" x="1651.23" y="-760.7" font-family="Courier New" font-size="14.00">0</text>
<polyline fill="none" stroke="black" points="1743.44,-752.5 1743.44,-802.1 "/>
<text text-anchor="middle" x="1936.06" y="-785.5" font-family="Courier New" font-size="14.00">type: variable (bytes)</text>
<polyline fill="none" stroke="black" points="1743.44,-777.3 2128.67,-777.3 "/>
<text text-anchor="middle" x="1848.15" y="-760.7" font-family="Courier New" font-size="14.00">unallocated (12)</text>
<polyline fill="none" stroke="black" points="1952.86,-752.5 1952.86,-777.3 "/>
<text text-anchor="middle" x="2040.77" y="-760.7" font-family="Courier New" font-size="14.00">address (20)</text>
</g>
<!-- 9&#45;&gt;2 -->
<g id="edge2" class="edge">
<title>9:10&#45;&gt;2</title>
<path fill="none" stroke="black" d="M1205.78,-754.1C1317.94,-754.1 1440.92,-760.96 1548.7,-769.27"/>
<polygon fill="black" stroke="black" points="1548.51,-772.76 1558.75,-770.05 1549.05,-765.78 1548.51,-772.76"/>
</g>
<!-- 3 -->
<g id="node4" class="node">
<title>3</title>
<polygon fill="#f2f2f2" stroke="black" points="1639.64,-634.5 1639.64,-733.7 2048.9,-733.7 2048.9,-634.5 1639.64,-634.5"/>
<text text-anchor="middle" x="1844.27" y="-717.1" font-family="Courier New" font-size="14.00">Strategy &lt;&lt;Struct&gt;&gt;</text>
<polyline fill="none" stroke="black" points="1639.64,-708.9 2048.9,-708.9 "/>
<text text-anchor="middle" x="1672.85" y="-692.3" font-family="Courier New" font-size="14.00">offset</text>
<polyline fill="none" stroke="black" points="1639.64,-684.1 1706.05,-684.1 "/>
<text text-anchor="middle" x="1672.85" y="-667.5" font-family="Courier New" font-size="14.00">0</text>
<polyline fill="none" stroke="black" points="1639.64,-659.3 1706.05,-659.3 "/>
<text text-anchor="middle" x="1672.85" y="-642.7" font-family="Courier New" font-size="14.00">1</text>
<polyline fill="none" stroke="black" points="1706.05,-634.5 1706.05,-708.9 "/>
<text text-anchor="middle" x="1877.48" y="-692.3" font-family="Courier New" font-size="14.00">type: variable (bytes)</text>
<polyline fill="none" stroke="black" points="1706.05,-684.1 2048.9,-684.1 "/>
<text text-anchor="middle" x="1781.26" y="-667.5" font-family="Courier New" font-size="14.00">unallocated (31)</text>
<polyline fill="none" stroke="black" points="1856.47,-659.3 1856.47,-684.1 "/>
<text text-anchor="middle" x="1952.69" y="-667.5" font-family="Courier New" font-size="14.00">bool: isSupported (1)</text>
<polyline fill="none" stroke="black" points="1706.05,-659.3 2048.9,-659.3 "/>
<text text-anchor="middle" x="1877.07" y="-642.7" font-family="Courier New" font-size="14.00">uint256: _deprecated (32)</text>
</g>
<!-- 9&#45;&gt;3 -->
<g id="edge3" class="edge">
<title>9:13&#45;&gt;3</title>
<path fill="none" stroke="black" d="M1205.78,-729.1C1347.16,-729.1 1505.74,-717.95 1629.37,-706.75"/>
<polygon fill="black" stroke="black" points="1629.69,-710.24 1639.33,-705.84 1629.06,-703.27 1629.69,-710.24"/>
</g>
<!-- 4 -->
<g id="node5" class="node">
<title>4</title>
<polygon fill="#f2f2f2" stroke="black" points="1559.03,-524.5 1559.03,-615.7 2129.52,-615.7 2129.52,-524.5 1559.03,-524.5"/>
<text text-anchor="middle" x="1844.27" y="-599.1" font-family="Courier New" font-size="14.00">address[]: allStrategies &lt;&lt;Array&gt;&gt;</text>
<text text-anchor="middle" x="1844.27" y="-582.3" font-family="Courier New" font-size="14.00">0x4a11f94e20a93c79f6ec743a1954ec4fc2c08429ae2122118bf234b2185c81b8</text>
<polyline fill="none" stroke="black" points="1559.03,-574.1 2129.52,-574.1 "/>
<text text-anchor="middle" x="1651.23" y="-557.5" font-family="Courier New" font-size="14.00">offset</text>
<polyline fill="none" stroke="black" points="1559.03,-549.3 1743.44,-549.3 "/>
<text text-anchor="middle" x="1651.23" y="-532.7" font-family="Courier New" font-size="14.00">0</text>
<polyline fill="none" stroke="black" points="1743.44,-524.5 1743.44,-574.1 "/>
<text text-anchor="middle" x="1936.06" y="-557.5" font-family="Courier New" font-size="14.00">type: variable (bytes)</text>
<polyline fill="none" stroke="black" points="1743.44,-549.3 2128.67,-549.3 "/>
<text text-anchor="middle" x="1848.15" y="-532.7" font-family="Courier New" font-size="14.00">unallocated (12)</text>
<polyline fill="none" stroke="black" points="1952.86,-524.5 1952.86,-549.3 "/>
<text text-anchor="middle" x="2040.77" y="-532.7" font-family="Courier New" font-size="14.00">address (20)</text>
</g>
<!-- 9&#45;&gt;4 -->
<g id="edge4" class="edge">
<title>9:15&#45;&gt;4</title>
<path fill="none" stroke="black" d="M1205.78,-705.1C1244.77,-705.1 1210.04,-647.74 1241.78,-625.1 1329.45,-562.57 1443.56,-541.36 1548.81,-538.37"/>
<polygon fill="black" stroke="black" points="1549.04,-541.87 1558.96,-538.14 1548.88,-534.87 1549.04,-541.87"/>
</g>
<!-- 5 -->
<g id="node6" class="node">
<title>5</title>
<polygon fill="#f2f2f2" stroke="black" points="1559.03,-330.5 1559.03,-421.7 2129.52,-421.7 2129.52,-330.5 1559.03,-330.5"/>
<text text-anchor="middle" x="1844.27" y="-405.1" font-family="Courier New" font-size="14.00">address[]: _deprecated_swapTokens &lt;&lt;Array&gt;&gt;</text>
<text text-anchor="middle" x="1844.27" y="-388.3" font-family="Courier New" font-size="14.00">0x9b22d3d61959b4d3528b1d8ba932c96fbe302b36a1aad1d95cab54f9e0a135ea</text>
<polyline fill="none" stroke="black" points="1559.03,-380.1 2129.52,-380.1 "/>
<text text-anchor="middle" x="1651.23" y="-363.5" font-family="Courier New" font-size="14.00">offset</text>
<polyline fill="none" stroke="black" points="1559.03,-355.3 1743.44,-355.3 "/>
<text text-anchor="middle" x="1651.23" y="-338.7" font-family="Courier New" font-size="14.00">0</text>
<polyline fill="none" stroke="black" points="1743.44,-330.5 1743.44,-380.1 "/>
<text text-anchor="middle" x="1936.06" y="-363.5" font-family="Courier New" font-size="14.00">type: variable (bytes)</text>
<polyline fill="none" stroke="black" points="1743.44,-355.3 2128.67,-355.3 "/>
<text text-anchor="middle" x="1848.15" y="-338.7" font-family="Courier New" font-size="14.00">unallocated (12)</text>
<polyline fill="none" stroke="black" points="1952.86,-330.5 1952.86,-355.3 "/>
<text text-anchor="middle" x="2040.77" y="-338.7" font-family="Courier New" font-size="14.00">address (20)</text>
</g>
<!-- 9&#45;&gt;5 -->
<g id="edge5" class="edge">
<title>9:32&#45;&gt;5</title>
<path fill="none" stroke="black" d="M1205.78,-357.1C1317.85,-357.1 1440.96,-360.07 1548.85,-363.66"/>
<polygon fill="black" stroke="black" points="1548.8,-367.16 1558.91,-364 1549.03,-360.17 1548.8,-367.16"/>
</g>
<!-- 6 -->
<g id="node7" class="node">
<title>6</title>
<polygon fill="#f2f2f2" stroke="black" points="1505.62,-236.9 1505.62,-311.3 2182.92,-311.3 2182.92,-236.9 1505.62,-236.9"/>
<text text-anchor="middle" x="1844.27" y="-294.7" font-family="Courier New" font-size="14.00">SwapConfig &lt;&lt;Struct&gt;&gt;</text>
<polyline fill="none" stroke="black" points="1505.62,-286.5 2182.92,-286.5 "/>
<text text-anchor="middle" x="1530.43" y="-269.9" font-family="Courier New" font-size="14.00">slot</text>
<polyline fill="none" stroke="black" points="1505.62,-261.7 1555.23,-261.7 "/>
<text text-anchor="middle" x="1530.43" y="-245.1" font-family="Courier New" font-size="14.00">72</text>
<polyline fill="none" stroke="black" points="1555.23,-236.9 1555.23,-286.5 "/>
<text text-anchor="middle" x="1869.08" y="-269.9" font-family="Courier New" font-size="14.00">type: variable (bytes)</text>
<polyline fill="none" stroke="black" points="1555.23,-261.7 2182.92,-261.7 "/>
<text text-anchor="middle" x="1630.44" y="-245.1" font-family="Courier New" font-size="14.00">unallocated (10)</text>
<polyline fill="none" stroke="black" points="1705.65,-236.9 1705.65,-261.7 "/>
<text text-anchor="middle" x="1848.07" y="-245.1" font-family="Courier New" font-size="14.00">uint16: allowedUndervalueBps (2)</text>
<polyline fill="none" stroke="black" points="1990.49,-236.9 1990.49,-261.7 "/>
<text text-anchor="middle" x="2086.71" y="-245.1" font-family="Courier New" font-size="14.00">address: swapper (20)</text>
</g>
<!-- 9&#45;&gt;6 -->
<g id="edge6" class="edge">
<title>9:38&#45;&gt;6</title>
<path fill="none" stroke="black" d="M1205.78,-258.1C1299.65,-258.1 1401.27,-259.86 1495.2,-262.2"/>
<polygon fill="black" stroke="black" points="1495.35,-265.71 1505.44,-262.46 1495.53,-258.71 1495.35,-265.71"/>
</g>
<!-- 7 -->
<g id="node8" class="node">
<title>7</title>
<polygon fill="#f2f2f2" stroke="black" points="1576.63,-118.5 1576.63,-217.7 2111.91,-217.7 2111.91,-118.5 1576.63,-118.5"/>
<text text-anchor="middle" x="1844.27" y="-201.1" font-family="Courier New" font-size="14.00">WithdrawalQueueMetadata &lt;&lt;Struct&gt;&gt;</text>
<polyline fill="none" stroke="black" points="1576.63,-192.9 2111.91,-192.9 "/>
<text text-anchor="middle" x="1601.44" y="-176.3" font-family="Courier New" font-size="14.00">slot</text>
<polyline fill="none" stroke="black" points="1576.63,-168.1 1626.24,-168.1 "/>
<text text-anchor="middle" x="1601.44" y="-151.5" font-family="Courier New" font-size="14.00">75</text>
<polyline fill="none" stroke="black" points="1576.63,-143.3 1626.24,-143.3 "/>
<text text-anchor="middle" x="1601.44" y="-126.7" font-family="Courier New" font-size="14.00">76</text>
<polyline fill="none" stroke="black" points="1626.24,-118.5 1626.24,-192.9 "/>
<text text-anchor="middle" x="1869.08" y="-176.3" font-family="Courier New" font-size="14.00">type: variable (bytes)</text>
<polyline fill="none" stroke="black" points="1626.24,-168.1 2111.91,-168.1 "/>
<text text-anchor="middle" x="1753.85" y="-151.5" font-family="Courier New" font-size="14.00">uint128: claimable (16)</text>
<polyline fill="none" stroke="black" points="1881.47,-143.3 1881.47,-168.1 "/>
<text text-anchor="middle" x="1996.48" y="-151.5" font-family="Courier New" font-size="14.00">uint128: queued (16)</text>
<polyline fill="none" stroke="black" points="1626.24,-143.3 2111.91,-143.3 "/>
<text text-anchor="middle" x="1772.86" y="-126.7" font-family="Courier New" font-size="14.00">uint128: nextWithdrawalIndex (16)</text>
<polyline fill="none" stroke="black" points="1919.48,-118.5 1919.48,-143.3 "/>
<text text-anchor="middle" x="2015.7" y="-126.7" font-family="Courier New" font-size="14.00">uint128: claimed (16)</text>
</g>
<!-- 9&#45;&gt;7 -->
<g id="edge7" class="edge">
<title>9:45&#45;&gt;7</title>
<path fill="none" stroke="black" d="M1205.78,-184.1C1324,-184.1 1454.5,-181.32 1566.48,-178.07"/>
<polygon fill="black" stroke="black" points="1566.67,-181.57 1576.57,-177.78 1566.47,-174.57 1566.67,-181.57"/>
</g>
<!-- 8 -->
<g id="node9" class="node">
<title>8</title>
<polygon fill="#f2f2f2" stroke="black" points="1455.62,-0.5 1455.62,-99.7 2232.93,-99.7 2232.93,-0.5 1455.62,-0.5"/>
<text text-anchor="middle" x="1844.27" y="-83.1" font-family="Courier New" font-size="14.00">WithdrawalRequest &lt;&lt;Struct&gt;&gt;</text>
<polyline fill="none" stroke="black" points="1455.62,-74.9 2232.93,-74.9 "/>
<text text-anchor="middle" x="1488.82" y="-58.3" font-family="Courier New" font-size="14.00">offset</text>
<polyline fill="none" stroke="black" points="1455.62,-50.1 1522.02,-50.1 "/>
<text text-anchor="middle" x="1488.82" y="-33.5" font-family="Courier New" font-size="14.00">0</text>
<polyline fill="none" stroke="black" points="1455.62,-25.3 1522.02,-25.3 "/>
<text text-anchor="middle" x="1488.82" y="-8.7" font-family="Courier New" font-size="14.00">1</text>
<polyline fill="none" stroke="black" points="1522.02,-0.5 1522.02,-74.9 "/>
<text text-anchor="middle" x="1877.48" y="-58.3" font-family="Courier New" font-size="14.00">type: variable (bytes)</text>
<polyline fill="none" stroke="black" points="1522.02,-50.1 2232.93,-50.1 "/>
<text text-anchor="middle" x="1593.04" y="-33.5" font-family="Courier New" font-size="14.00">unallocated (6)</text>
<polyline fill="none" stroke="black" points="1664.05,-25.3 1664.05,-50.1 "/>
<text text-anchor="middle" x="1760.26" y="-33.5" font-family="Courier New" font-size="14.00">uint40: timestamp (5)</text>
<polyline fill="none" stroke="black" points="1856.47,-25.3 1856.47,-50.1 "/>
<text text-anchor="middle" x="1935.89" y="-33.5" font-family="Courier New" font-size="14.00">bool: claimed (1)</text>
<polyline fill="none" stroke="black" points="2015.3,-25.3 2015.3,-50.1 "/>
<text text-anchor="middle" x="2124.11" y="-33.5" font-family="Courier New" font-size="14.00">address: withdrawer (20)</text>
<polyline fill="none" stroke="black" points="1522.02,-25.3 2232.93,-25.3 "/>
<text text-anchor="middle" x="1699.54" y="-8.7" font-family="Courier New" font-size="14.00">uint128: queued (16)</text>
<polyline fill="none" stroke="black" points="1877.05,-0.5 1877.05,-25.3 "/>
<text text-anchor="middle" x="2054.57" y="-8.7" font-family="Courier New" font-size="14.00">uint128: amount (16)</text>
</g>
<!-- 9&#45;&gt;8 -->
<g id="edge8" class="edge">
<title>9:51&#45;&gt;8</title>
<path fill="none" stroke="black" d="M1205.78,-159.1C1233.17,-159.1 1218.05,-122.76 1241.78,-109.1 1303.23,-73.73 1374.15,-52.92 1445.25,-41.45"/>
<polygon fill="black" stroke="black" points="1445.94,-44.89 1455.29,-39.9 1444.87,-37.97 1445.94,-44.89"/>
</g>
</g>
</svg>
