<?xml version="1.0" encoding="UTF-8" standalone="no"?>
<!DOCTYPE svg PUBLIC "-//W3C//DTD SVG 1.1//EN"
 "http://www.w3.org/Graphics/SVG/1.1/DTD/svg11.dtd">
<!-- Generated by graphviz version 5.0.0 (20220707.1540)
 -->
<!-- Title: UmlClassDiagram Pages: 1 -->
<svg width="839pt" height="494pt"
 viewBox="0.00 0.00 838.66 494.00" xmlns="http://www.w3.org/2000/svg" xmlns:xlink="http://www.w3.org/1999/xlink">
<g id="graph0" class="graph" transform="scale(1 1) rotate(0) translate(4 490)">
<title>UmlClassDiagram</title>
<polygon fill="white" stroke="transparent" points="-4,4 -4,-490 834.66,-490 834.66,4 -4,4"/>
<!-- 20 -->
<g id="node1" class="node">
<title>20</title>
<polygon fill="#f2f2f2" stroke="black" points="0,-340.1 0,-381.7 234.86,-381.7 234.86,-340.1 0,-340.1"/>
<text text-anchor="middle" x="117.43" y="-365.1" font-family="Times,serif" font-size="14.00">Governable</text>
<text text-anchor="middle" x="117.43" y="-348.3" font-family="Times,serif" font-size="14.00">../contracts/governance/Governable.sol</text>
</g>
<!-- 58 -->
<g id="node2" class="node">
<title>58</title>
<polygon fill="#f2f2f2" stroke="black" points="145.82,-79.1 145.82,-137.5 341.04,-137.5 341.04,-79.1 145.82,-79.1"/>
<text text-anchor="middle" x="243.43" y="-120.9" font-family="Times,serif" font-size="14.00">&lt;&lt;Interface&gt;&gt;</text>
<text text-anchor="middle" x="243.43" y="-104.1" font-family="Times,serif" font-size="14.00">IVault</text>
<text text-anchor="middle" x="243.43" y="-87.3" font-family="Times,serif" font-size="14.00">../contracts/interfaces/IVault.sol</text>
</g>
<!-- 212 -->
<g id="node9" class="node">
<title>212</title>
<polygon fill="#f2f2f2" stroke="black" points="189.98,-174.5 189.98,-216.1 396.88,-216.1 396.88,-174.5 189.98,-174.5"/>
<text text-anchor="middle" x="293.43" y="-199.5" font-family="Times,serif" font-size="14.00">VaultStorage</text>
<text text-anchor="middle" x="293.43" y="-182.7" font-family="Times,serif" font-size="14.00">../contracts/vault/VaultStorage.sol</text>
</g>
<!-- 58&#45;&gt;212 -->
<g id="edge1" class="edge">
<title>58&#45;&gt;212</title>
<path fill="none" stroke="black" stroke-dasharray="5,2" d="M260.08,-137.6C265.41,-146.66 271.3,-156.69 276.64,-165.76"/>
<polygon fill="black" stroke="black" points="273.66,-167.6 281.75,-174.44 279.69,-164.05 273.66,-167.6"/>
</g>
<!-- 117 -->
<g id="node3" class="node">
<title>117</title>
<polygon fill="#f2f2f2" stroke="black" points="358.96,-79.1 358.96,-137.5 589.9,-137.5 589.9,-79.1 358.96,-79.1"/>
<text text-anchor="middle" x="474.43" y="-120.9" font-family="Times,serif" font-size="14.00">&lt;&lt;Interface&gt;&gt;</text>
<text text-anchor="middle" x="474.43" y="-104.1" font-family="Times,serif" font-size="14.00">IOracleReceiver</text>
<text text-anchor="middle" x="474.43" y="-87.3" font-family="Times,serif" font-size="14.00">../contracts/oracle/IOracleReceiver.sol</text>
</g>
<!-- 119 -->
<g id="node4" class="node">
<title>119</title>
<polygon fill="#f2f2f2" stroke="black" points="50.96,-0.5 50.96,-42.1 309.9,-42.1 309.9,-0.5 50.96,-0.5"/>
<text text-anchor="middle" x="180.43" y="-25.5" font-family="Times,serif" font-size="14.00">OETHOracleUpdater</text>
<text text-anchor="middle" x="180.43" y="-8.7" font-family="Times,serif" font-size="14.00">../contracts/oracle/OETHOracleUpdater.sol</text>
</g>
<!-- 119&#45;&gt;20 -->
<g id="edge2" class="edge">
<title>119&#45;&gt;20</title>
<path fill="none" stroke="black" d="M159.96,-42.34C151.09,-52.34 141.57,-65.16 136.43,-78.6 107.1,-155.26 108.04,-252.17 112.18,-309.93"/>
<polygon fill="none" stroke="black" points="101.74,-311.02 114.89,-339.96 122.65,-309.14 101.74,-311.02"/>
</g>
<!-- 119&#45;&gt;58 -->
<g id="edge4" class="edge">
<title>119&#45;&gt;58</title>
<path fill="none" stroke="black" d="M195.36,-42.44C201.67,-50.96 209.22,-61.15 216.45,-70.9"/>
<polygon fill="black" stroke="black" points="213.64,-72.99 222.41,-78.94 219.27,-68.82 213.64,-72.99"/>
</g>
<!-- 119&#45;&gt;117 -->
<g id="edge5" class="edge">
<title>119&#45;&gt;117</title>
<path fill="none" stroke="black" stroke-dasharray="5,2" d="M248.99,-42.12C284.03,-52.25 327.47,-64.81 366.85,-76.2"/>
<polygon fill="black" stroke="black" points="366.18,-79.65 376.76,-79.06 368.13,-72.92 366.18,-79.65"/>
</g>
<!-- 179 -->
<g id="node5" class="node">
<title>179</title>
<polygon fill="#f2f2f2" stroke="black" points="608.2,-79.1 608.2,-137.5 830.66,-137.5 830.66,-79.1 608.2,-79.1"/>
<text text-anchor="middle" x="719.43" y="-120.9" font-family="Times,serif" font-size="14.00">&lt;&lt;Interface&gt;&gt;</text>
<text text-anchor="middle" x="719.43" y="-104.1" font-family="Times,serif" font-size="14.00">ICurvePool</text>
<text text-anchor="middle" x="719.43" y="-87.3" font-family="Times,serif" font-size="14.00">../contracts/strategies/ICurvePool.sol</text>
</g>
<!-- 119&#45;&gt;179 -->
<g id="edge3" class="edge">
<title>119&#45;&gt;179</title>
<path fill="none" stroke="black" d="M309.94,-36.39C390.18,-45.92 495.49,-59.87 598.17,-78.62"/>
<polygon fill="black" stroke="black" points="597.62,-82.08 608.09,-80.45 598.89,-75.2 597.62,-82.08"/>
</g>
<!-- 191 -->
<g id="node6" class="node">
<title>191</title>
<polygon fill="#f2f2f2" stroke="black" points="308.3,-253.1 308.3,-294.7 482.56,-294.7 482.56,-253.1 308.3,-253.1"/>
<text text-anchor="middle" x="395.43" y="-278.1" font-family="Times,serif" font-size="14.00">OUSD</text>
<text text-anchor="middle" x="395.43" y="-261.3" font-family="Times,serif" font-size="14.00">../contracts/token/OUSD.sol</text>
</g>
<!-- 191&#45;&gt;20 -->
<g id="edge8" class="edge">
<title>191&#45;&gt;20</title>
<path fill="none" stroke="black" d="M330.6,-294.72C295.06,-305.59 250.37,-319.25 211.09,-331.26"/>
<polygon fill="none" stroke="black" points="207.98,-321.23 182.36,-340.05 214.12,-341.32 207.98,-321.23"/>
</g>
<!-- 199 -->
<g id="node7" class="node">
<title>199</title>
<polygon fill="#f2f2f2" stroke="black" points="555.42,-331.7 555.42,-390.1 751.44,-390.1 751.44,-331.7 555.42,-331.7"/>
<text text-anchor="middle" x="653.43" y="-373.5" font-family="Times,serif" font-size="14.00">&lt;&lt;Abstract&gt;&gt;</text>
<text text-anchor="middle" x="653.43" y="-356.7" font-family="Times,serif" font-size="14.00">Initializable</text>
<text text-anchor="middle" x="653.43" y="-339.9" font-family="Times,serif" font-size="14.00">../contracts/utils/Initializable.sol</text>
</g>
<!-- 191&#45;&gt;199 -->
<g id="edge6" class="edge">
<title>191&#45;&gt;199</title>
<path fill="none" stroke="black" d="M455.59,-294.72C480.48,-302.92 510.2,-312.71 538.94,-322.18"/>
<polygon fill="none" stroke="black" points="535.94,-332.25 567.72,-331.66 542.51,-312.3 535.94,-332.25"/>
</g>
<!-- 202 -->
<g id="node8" class="node">
<title>202</title>
<polygon fill="#f2f2f2" stroke="black" points="253.1,-331.7 253.1,-390.1 537.76,-390.1 537.76,-331.7 253.1,-331.7"/>
<text text-anchor="middle" x="395.43" y="-373.5" font-family="Times,serif" font-size="14.00">&lt;&lt;Abstract&gt;&gt;</text>
<text text-anchor="middle" x="395.43" y="-356.7" font-family="Times,serif" font-size="14.00">InitializableERC20Detailed</text>
<text text-anchor="middle" x="395.43" y="-339.9" font-family="Times,serif" font-size="14.00">../contracts/utils/InitializableERC20Detailed.sol</text>
</g>
<!-- 191&#45;&gt;202 -->
<g id="edge7" class="edge">
<title>191&#45;&gt;202</title>
<path fill="none" stroke="black" d="M395.43,-295.04C395.43,-297.09 395.43,-299.23 395.43,-301.43"/>
<polygon fill="none" stroke="black" points="384.93,-301.54 395.43,-331.54 405.93,-301.54 384.93,-301.54"/>
</g>
<!-- 391 -->
<g id="node10" class="node">
<title>391</title>
<polygon fill="#f2f2f2" stroke="black" points="193.37,-427.1 193.37,-485.5 597.48,-485.5 597.48,-427.1 193.37,-427.1"/>
<text text-anchor="middle" x="395.43" y="-468.9" font-family="Times,serif" font-size="14.00">&lt;&lt;Interface&gt;&gt;</text>
<text text-anchor="middle" x="395.43" y="-452.1" font-family="Times,serif" font-size="14.00">IERC20</text>
<text text-anchor="middle" x="395.43" y="-435.3" font-family="Times,serif" font-size="14.00">../node_modules/@openzeppelin/contracts/token/ERC20/IERC20.sol</text>
</g>
<!-- 202&#45;&gt;391 -->
<g id="edge9" class="edge">
<title>202&#45;&gt;391</title>
<path fill="none" stroke="black" stroke-dasharray="5,2" d="M395.43,-390.18C395.43,-392.26 395.43,-394.4 395.43,-396.58"/>
<polygon fill="none" stroke="black" points="384.93,-396.8 395.43,-426.8 405.93,-396.8 384.93,-396.8"/>
</g>
<!-- 212&#45;&gt;20 -->
<g id="edge11" class="edge">
<title>212&#45;&gt;20</title>
<path fill="none" stroke="black" d="M271.85,-216.36C244.39,-241.88 196.32,-286.57 161.09,-319.32"/>
<polygon fill="none" stroke="black" points="153.74,-311.82 138.91,-339.93 168.03,-327.2 153.74,-311.82"/>
</g>
<!-- 212&#45;&gt;191 -->
<g id="edge12" class="edge">
<title>212&#45;&gt;191</title>
<path fill="none" stroke="black" d="M319.96,-216.23C332.48,-225.62 347.57,-236.96 360.95,-247.01"/>
<polygon fill="black" stroke="black" points="358.93,-249.87 369.03,-253.07 363.14,-244.27 358.93,-249.87"/>
</g>
<!-- 212&#45;&gt;199 -->
<g id="edge10" class="edge">
<title>212&#45;&gt;199</title>
<path fill="none" stroke="black" d="M385.23,-216.11C419.4,-225.1 457.99,-237.22 491.43,-252.6 527.16,-269.03 563.95,-292.75 593.41,-313.71"/>
<polygon fill="none" stroke="black" points="587.3,-322.25 617.7,-331.53 599.72,-305.32 587.3,-322.25"/>
</g>
</g>
</svg>
