<?xml version="1.0" encoding="UTF-8" standalone="no"?>
<!DOCTYPE svg PUBLIC "-//W3C//DTD SVG 1.1//EN"
 "http://www.w3.org/Graphics/SVG/1.1/DTD/svg11.dtd">
<!-- Generated by graphviz version 5.0.0 (20220707.1540)
 -->
<!-- Title: UmlClassDiagram Pages: 1 -->
<svg width="243pt" height="208pt"
 viewBox="0.00 0.00 242.86 207.80" xmlns="http://www.w3.org/2000/svg" xmlns:xlink="http://www.w3.org/1999/xlink">
<g id="graph0" class="graph" transform="scale(1 1) rotate(0) translate(4 203.8)">
<title>UmlClassDiagram</title>
<polygon fill="white" stroke="transparent" points="-4,4 -4,-203.8 238.86,-203.8 238.86,4 -4,4"/>
<!-- 21 -->
<g id="node1" class="node">
<title>21</title>
<polygon fill="#f2f2f2" stroke="black" points="0,-157.7 0,-199.3 234.86,-199.3 234.86,-157.7 0,-157.7"/>
<text text-anchor="middle" x="117.43" y="-182.7" font-family="Times,serif" font-size="14.00">Governable</text>
<text text-anchor="middle" x="117.43" y="-165.9" font-family="Times,serif" font-size="14.00">../contracts/governance/Governable.sol</text>
</g>
<!-- 242 -->
<g id="node2" class="node">
<title>242</title>
<polygon fill="#f2f2f2" stroke="black" points="30.7,-0.5 30.7,-42.1 204.16,-42.1 204.16,-0.5 30.7,-0.5"/>
<text text-anchor="middle" x="117.43" y="-25.5" font-family="Times,serif" font-size="14.00">OETH</text>
<text text-anchor="middle" x="117.43" y="-8.7" font-family="Times,serif" font-size="14.00">../contracts/token/OETH.sol</text>
</g>
<!-- 245 -->
<g id="node3" class="node">
<title>245</title>
<polygon fill="#f2f2f2" stroke="black" points="30.3,-79.1 30.3,-120.7 204.56,-120.7 204.56,-79.1 30.3,-79.1"/>
<text text-anchor="middle" x="117.43" y="-104.1" font-family="Times,serif" font-size="14.00">OUSD</text>
<text text-anchor="middle" x="117.43" y="-87.3" font-family="Times,serif" font-size="14.00">../contracts/token/OUSD.sol</text>
</g>
<!-- 242&#45;&gt;245 -->
<g id="edge1" class="edge">
<title>242&#45;&gt;245</title>
<path fill="none" stroke="black" d="M117.43,-42.43C117.43,-44.45 117.43,-46.56 117.43,-48.73"/>
<polygon fill="none" stroke="black" points="106.93,-48.91 117.43,-78.91 127.93,-48.91 106.93,-48.91"/>
</g>
<!-- 245&#45;&gt;21 -->
<g id="edge2" class="edge">
<title>245&#45;&gt;21</title>
<path fill="none" stroke="black" d="M117.43,-121.03C117.43,-123.05 117.43,-125.16 117.43,-127.33"/>
<polygon fill="none" stroke="black" points="106.93,-127.51 117.43,-157.51 127.93,-127.51 106.93,-127.51"/>
</g>
</g>
</svg>
