<?xml version="1.0" encoding="UTF-8" standalone="no"?>
<!DOCTYPE svg PUBLIC "-//W3C//DTD SVG 1.1//EN"
 "http://www.w3.org/Graphics/SVG/1.1/DTD/svg11.dtd">
<!-- Generated by graphviz version 5.0.0 (20220707.1540)
 -->
<!-- Title: UmlClassDiagram Pages: 1 -->
<svg width="1910pt" height="573pt"
 viewBox="0.00 0.00 1910.20 572.60" xmlns="http://www.w3.org/2000/svg" xmlns:xlink="http://www.w3.org/1999/xlink">
<g id="graph0" class="graph" transform="scale(1 1) rotate(0) translate(4 568.6)">
<title>UmlClassDiagram</title>
<polygon fill="white" stroke="transparent" points="-4,4 -4,-568.6 1906.2,-568.6 1906.2,4 -4,4"/>
<!-- 20 -->
<g id="node1" class="node">
<title>20</title>
<polygon fill="#f2f2f2" stroke="black" points="221.18,-418.7 221.18,-460.3 456.04,-460.3 456.04,-418.7 221.18,-418.7"/>
<text text-anchor="middle" x="338.61" y="-443.7" font-family="Times,serif" font-size="14.00">Governable</text>
<text text-anchor="middle" x="338.61" y="-426.9" font-family="Times,serif" font-size="14.00">../contracts/governance/Governable.sol</text>
</g>
<!-- 40 -->
<g id="node2" class="node">
<title>40</title>
<polygon fill="#f2f2f2" stroke="black" points="1206.78,-157.7 1206.78,-216.1 1414.43,-216.1 1414.43,-157.7 1206.78,-157.7"/>
<text text-anchor="middle" x="1310.61" y="-199.5" font-family="Times,serif" font-size="14.00">&lt;&lt;Interface&gt;&gt;</text>
<text text-anchor="middle" x="1310.61" y="-182.7" font-family="Times,serif" font-size="14.00">IDripper</text>
<text text-anchor="middle" x="1310.61" y="-165.9" font-family="Times,serif" font-size="14.00">../contracts/interfaces/IDripper.sol</text>
</g>
<!-- 44 -->
<g id="node3" class="node">
<title>44</title>
<polygon fill="#f2f2f2" stroke="black" points="1432.14,-157.7 1432.14,-216.1 1733.07,-216.1 1733.07,-157.7 1432.14,-157.7"/>
<text text-anchor="middle" x="1582.61" y="-199.5" font-family="Times,serif" font-size="14.00">&lt;&lt;Interface&gt;&gt;</text>
<text text-anchor="middle" x="1582.61" y="-182.7" font-family="Times,serif" font-size="14.00">IGetExchangeRateToken</text>
<text text-anchor="middle" x="1582.61" y="-165.9" font-family="Times,serif" font-size="14.00">../contracts/interfaces/IGetExchangeRateToken.sol</text>
</g>
<!-- 51 -->
<g id="node4" class="node">
<title>51</title>
<polygon fill="#f2f2f2" stroke="black" points="521.9,-157.7 521.9,-216.1 723.31,-216.1 723.31,-157.7 521.9,-157.7"/>
<text text-anchor="middle" x="622.61" y="-199.5" font-family="Times,serif" font-size="14.00">&lt;&lt;Interface&gt;&gt;</text>
<text text-anchor="middle" x="622.61" y="-182.7" font-family="Times,serif" font-size="14.00">IOracle</text>
<text text-anchor="middle" x="622.61" y="-165.9" font-family="Times,serif" font-size="14.00">../contracts/interfaces/IOracle.sol</text>
</g>
<!-- 57 -->
<g id="node5" class="node">
<title>57</title>
<polygon fill="#f2f2f2" stroke="black" points="741.22,-157.7 741.22,-216.1 951.99,-216.1 951.99,-157.7 741.22,-157.7"/>
<text text-anchor="middle" x="846.61" y="-199.5" font-family="Times,serif" font-size="14.00">&lt;&lt;Interface&gt;&gt;</text>
<text text-anchor="middle" x="846.61" y="-182.7" font-family="Times,serif" font-size="14.00">IStrategy</text>
<text text-anchor="middle" x="846.61" y="-165.9" font-family="Times,serif" font-size="14.00">../contracts/interfaces/IStrategy.sol</text>
</g>
<!-- 58 -->
<g id="node6" class="node">
<title>58</title>
<polygon fill="#f2f2f2" stroke="black" points="252.06,-157.7 252.06,-216.1 465.15,-216.1 465.15,-157.7 252.06,-157.7"/>
<text text-anchor="middle" x="358.61" y="-199.5" font-family="Times,serif" font-size="14.00">&lt;&lt;Interface&gt;&gt;</text>
<text text-anchor="middle" x="358.61" y="-182.7" font-family="Times,serif" font-size="14.00">ISwapper</text>
<text text-anchor="middle" x="358.61" y="-165.9" font-family="Times,serif" font-size="14.00">../contracts/interfaces/ISwapper.sol</text>
</g>
<!-- 61 -->
<g id="node7" class="node">
<title>61</title>
<polygon fill="#f2f2f2" stroke="black" points="0,-157.7 0,-216.1 195.21,-216.1 195.21,-157.7 0,-157.7"/>
<text text-anchor="middle" x="97.61" y="-199.5" font-family="Times,serif" font-size="14.00">&lt;&lt;Interface&gt;&gt;</text>
<text text-anchor="middle" x="97.61" y="-182.7" font-family="Times,serif" font-size="14.00">IVault</text>
<text text-anchor="middle" x="97.61" y="-165.9" font-family="Times,serif" font-size="14.00">../contracts/interfaces/IVault.sol</text>
</g>
<!-- 226 -->
<g id="node16" class="node">
<title>226</title>
<polygon fill="#f2f2f2" stroke="black" points="120.16,-253.1 120.16,-294.7 327.06,-294.7 327.06,-253.1 120.16,-253.1"/>
<text text-anchor="middle" x="223.61" y="-278.1" font-family="Times,serif" font-size="14.00">VaultStorage</text>
<text text-anchor="middle" x="223.61" y="-261.3" font-family="Times,serif" font-size="14.00">../contracts/vault/VaultStorage.sol</text>
</g>
<!-- 61&#45;&gt;226 -->
<g id="edge1" class="edge">
<title>61&#45;&gt;226</title>
<path fill="none" stroke="black" stroke-dasharray="5,2" d="M139.56,-216.2C154.52,-226.3 171.27,-237.6 185.86,-247.44"/>
<polygon fill="black" stroke="black" points="183.92,-250.35 194.17,-253.04 187.83,-244.55 183.92,-250.35"/>
</g>
<!-- 205 -->
<g id="node8" class="node">
<title>205</title>
<polygon fill="#f2f2f2" stroke="black" points="251.48,-331.7 251.48,-373.3 425.73,-373.3 425.73,-331.7 251.48,-331.7"/>
<text text-anchor="middle" x="338.61" y="-356.7" font-family="Times,serif" font-size="14.00">OUSD</text>
<text text-anchor="middle" x="338.61" y="-339.9" font-family="Times,serif" font-size="14.00">../contracts/token/OUSD.sol</text>
</g>
<!-- 205&#45;&gt;20 -->
<g id="edge4" class="edge">
<title>205&#45;&gt;20</title>
<path fill="none" stroke="black" d="M338.61,-373.64C338.61,-378.2 338.61,-383.23 338.61,-388.41"/>
<polygon fill="none" stroke="black" points="328.11,-388.5 338.61,-418.5 349.11,-388.5 328.11,-388.5"/>
</g>
<!-- 213 -->
<g id="node9" class="node">
<title>213</title>
<polygon fill="#f2f2f2" stroke="black" points="7.6,-410.3 7.6,-468.7 203.61,-468.7 203.61,-410.3 7.6,-410.3"/>
<text text-anchor="middle" x="105.61" y="-452.1" font-family="Times,serif" font-size="14.00">&lt;&lt;Abstract&gt;&gt;</text>
<text text-anchor="middle" x="105.61" y="-435.3" font-family="Times,serif" font-size="14.00">Initializable</text>
<text text-anchor="middle" x="105.61" y="-418.5" font-family="Times,serif" font-size="14.00">../contracts/utils/Initializable.sol</text>
</g>
<!-- 205&#45;&gt;213 -->
<g id="edge2" class="edge">
<title>205&#45;&gt;213</title>
<path fill="none" stroke="black" d="M284.27,-373.32C262.5,-381.26 236.64,-390.7 211.45,-399.89"/>
<polygon fill="none" stroke="black" points="207.59,-390.12 183.01,-410.26 214.79,-409.85 207.59,-390.12"/>
</g>
<!-- 216 -->
<g id="node10" class="node">
<title>216</title>
<polygon fill="#f2f2f2" stroke="black" points="474.28,-410.3 474.28,-468.7 758.94,-468.7 758.94,-410.3 474.28,-410.3"/>
<text text-anchor="middle" x="616.61" y="-452.1" font-family="Times,serif" font-size="14.00">&lt;&lt;Abstract&gt;&gt;</text>
<text text-anchor="middle" x="616.61" y="-435.3" font-family="Times,serif" font-size="14.00">InitializableERC20Detailed</text>
<text text-anchor="middle" x="616.61" y="-418.5" font-family="Times,serif" font-size="14.00">../contracts/utils/InitializableERC20Detailed.sol</text>
</g>
<!-- 205&#45;&gt;216 -->
<g id="edge3" class="edge">
<title>205&#45;&gt;216</title>
<path fill="none" stroke="black" d="M403.43,-373.32C430.81,-381.69 463.61,-391.72 495.19,-401.38"/>
<polygon fill="none" stroke="black" points="492.49,-411.53 524.25,-410.26 498.63,-391.45 492.49,-411.53"/>
</g>
<!-- 695 -->
<g id="node17" class="node">
<title>695</title>
<polygon fill="#f2f2f2" stroke="black" points="499.55,-505.7 499.55,-564.1 903.66,-564.1 903.66,-505.7 499.55,-505.7"/>
<text text-anchor="middle" x="701.61" y="-547.5" font-family="Times,serif" font-size="14.00">&lt;&lt;Interface&gt;&gt;</text>
<text text-anchor="middle" x="701.61" y="-530.7" font-family="Times,serif" font-size="14.00">IERC20</text>
<text text-anchor="middle" x="701.61" y="-513.9" font-family="Times,serif" font-size="14.00">../node_modules/@openzeppelin/contracts/token/ERC20/IERC20.sol</text>
</g>
<!-- 216&#45;&gt;695 -->
<g id="edge5" class="edge">
<title>216&#45;&gt;695</title>
<path fill="none" stroke="black" stroke-dasharray="5,2" d="M642.34,-468.78C646.46,-473.31 650.84,-478.11 655.26,-482.98"/>
<polygon fill="none" stroke="black" points="647.71,-490.28 675.67,-505.4 663.24,-476.14 647.71,-490.28"/>
</g>
<!-- 219 -->
<g id="node11" class="node">
<title>219</title>
<polygon fill="#f2f2f2" stroke="black" points="171.43,-0.5 171.43,-42.1 411.78,-42.1 411.78,-0.5 171.43,-0.5"/>
<text text-anchor="middle" x="291.61" y="-25.5" font-family="Times,serif" font-size="14.00">OETHVaultAdmin</text>
<text text-anchor="middle" x="291.61" y="-8.7" font-family="Times,serif" font-size="14.00">../contracts/vault/OETHVaultAdmin.sol</text>
</g>
<!-- 223 -->
<g id="node13" class="node">
<title>223</title>
<polygon fill="#f2f2f2" stroke="black" points="190.09,-79.1 190.09,-120.7 393.12,-120.7 393.12,-79.1 190.09,-79.1"/>
<text text-anchor="middle" x="291.61" y="-104.1" font-family="Times,serif" font-size="14.00">VaultAdmin</text>
<text text-anchor="middle" x="291.61" y="-87.3" font-family="Times,serif" font-size="14.00">../contracts/vault/VaultAdmin.sol</text>
</g>
<!-- 219&#45;&gt;223 -->
<g id="edge6" class="edge">
<title>219&#45;&gt;223</title>
<path fill="none" stroke="black" d="M291.61,-42.43C291.61,-44.45 291.61,-46.56 291.61,-48.73"/>
<polygon fill="none" stroke="black" points="281.11,-48.91 291.61,-78.91 302.11,-48.91 281.11,-48.91"/>
</g>
<!-- 220 -->
<g id="node12" class="node">
<title>220</title>
<polygon fill="#f2f2f2" stroke="black" points="965.27,-0.5 965.27,-42.1 1193.94,-42.1 1193.94,-0.5 965.27,-0.5"/>
<text text-anchor="middle" x="1079.61" y="-25.5" font-family="Times,serif" font-size="14.00">OETHVaultCore</text>
<text text-anchor="middle" x="1079.61" y="-8.7" font-family="Times,serif" font-size="14.00">../contracts/vault/OETHVaultCore.sol</text>
</g>
<!-- 220&#45;&gt;57 -->
<g id="edge9" class="edge">
<title>220&#45;&gt;57</title>
<path fill="none" stroke="black" stroke-dasharray="5,2" d="M1037.83,-42.2C1018.1,-52.22 994.56,-65.1 974.61,-78.6 942.53,-100.3 909.09,-128.56 884.43,-150.63"/>
<polygon fill="black" stroke="black" points="881.83,-148.27 876.75,-157.56 886.52,-153.46 881.83,-148.27"/>
</g>
<!-- 224 -->
<g id="node14" class="node">
<title>224</title>
<polygon fill="#f2f2f2" stroke="black" points="983.93,-79.1 983.93,-120.7 1175.28,-120.7 1175.28,-79.1 983.93,-79.1"/>
<text text-anchor="middle" x="1079.61" y="-104.1" font-family="Times,serif" font-size="14.00">VaultCore</text>
<text text-anchor="middle" x="1079.61" y="-87.3" font-family="Times,serif" font-size="14.00">../contracts/vault/VaultCore.sol</text>
</g>
<!-- 220&#45;&gt;224 -->
<g id="edge7" class="edge">
<title>220&#45;&gt;224</title>
<path fill="none" stroke="black" d="M1079.61,-42.43C1079.61,-44.45 1079.61,-46.56 1079.61,-48.73"/>
<polygon fill="none" stroke="black" points="1069.11,-48.91 1079.61,-78.91 1090.11,-48.91 1069.11,-48.91"/>
</g>
<!-- 220&#45;&gt;695 -->
<g id="edge8" class="edge">
<title>220&#45;&gt;695</title>
<path fill="none" stroke="black" stroke-dasharray="5,2" d="M1194.33,-24.91C1397.32,-32.67 1798.61,-63.48 1798.61,-185.9 1798.61,-185.9 1798.61,-185.9 1798.61,-353.5 1798.61,-417.71 2155.01,-323.58 1542.61,-469.2 1427.67,-496.53 1123.51,-515.11 914.32,-525.12"/>
<polygon fill="black" stroke="black" points="913.94,-521.63 904.12,-525.6 914.28,-528.62 913.94,-521.63"/>
</g>
<!-- 223&#45;&gt;51 -->
<g id="edge14" class="edge">
<title>223&#45;&gt;51</title>
<path fill="none" stroke="black" stroke-dasharray="5,2" d="M368.79,-120.72C411.33,-131.64 464.87,-145.39 511.8,-157.45"/>
<polygon fill="black" stroke="black" points="511.15,-160.89 521.71,-159.99 512.89,-154.11 511.15,-160.89"/>
</g>
<!-- 223&#45;&gt;57 -->
<g id="edge11" class="edge">
<title>223&#45;&gt;57</title>
<path fill="none" stroke="black" stroke-dasharray="5,2" d="M393.3,-110.39C480.58,-119.35 609.84,-134.52 730.93,-156.96"/>
<polygon fill="black" stroke="black" points="730.64,-160.47 741.12,-158.87 731.93,-153.59 730.64,-160.47"/>
</g>
<!-- 223&#45;&gt;58 -->
<g id="edge13" class="edge">
<title>223&#45;&gt;58</title>
<path fill="none" stroke="black" stroke-dasharray="5,2" d="M307.48,-121.04C314.2,-129.56 322.23,-139.75 329.91,-149.5"/>
<polygon fill="black" stroke="black" points="327.31,-151.85 336.25,-157.54 332.81,-147.52 327.31,-151.85"/>
</g>
<!-- 223&#45;&gt;61 -->
<g id="edge15" class="edge">
<title>223&#45;&gt;61</title>
<path fill="none" stroke="black" stroke-dasharray="5,2" d="M246.12,-120.83C223.98,-130.53 196.78,-142.45 171.75,-153.42"/>
<polygon fill="black" stroke="black" points="170.03,-150.35 162.27,-157.57 172.84,-156.76 170.03,-150.35"/>
</g>
<!-- 223&#45;&gt;226 -->
<g id="edge10" class="edge">
<title>223&#45;&gt;226</title>
<path fill="none" stroke="black" d="M269.41,-120.79C259.66,-130.76 249,-143.6 242.61,-157.2 233.11,-177.39 228.27,-201.49 225.83,-222.46"/>
<polygon fill="none" stroke="black" points="215.33,-222 223.63,-252.68 236.28,-223.52 215.33,-222"/>
</g>
<!-- 223&#45;&gt;695 -->
<g id="edge12" class="edge">
<title>223&#45;&gt;695</title>
<path fill="none" stroke="black" stroke-dasharray="5,2" d="M393.56,-118.66C421.76,-127.03 451.06,-139.29 474.61,-157.2 499.55,-176.17 491.34,-193.58 512.61,-216.6 609.09,-321.05 704.33,-282.47 767.61,-409.8 779.35,-433.44 777.83,-444.86 767.61,-469.2 763.09,-479.96 755.81,-489.82 747.71,-498.43"/>
<polygon fill="black" stroke="black" points="745.05,-496.14 740.43,-505.67 749.99,-501.1 745.05,-496.14"/>
</g>
<!-- 224&#45;&gt;40 -->
<g id="edge17" class="edge">
<title>224&#45;&gt;40</title>
<path fill="none" stroke="black" stroke-dasharray="5,2" d="M1133.47,-120.72C1160.42,-130.64 1193.7,-142.88 1224.11,-154.07"/>
<polygon fill="black" stroke="black" points="1223.27,-157.49 1233.87,-157.66 1225.69,-150.92 1223.27,-157.49"/>
</g>
<!-- 224&#45;&gt;44 -->
<g id="edge21" class="edge">
<title>224&#45;&gt;44</title>
<path fill="none" stroke="black" stroke-dasharray="5,2" d="M1175.32,-116.13C1241.88,-126.83 1332.95,-141.66 1421.97,-156.93"/>
<polygon fill="black" stroke="black" points="1421.52,-160.4 1431.97,-158.65 1422.71,-153.5 1421.52,-160.4"/>
</g>
<!-- 224&#45;&gt;51 -->
<g id="edge20" class="edge">
<title>224&#45;&gt;51</title>
<path fill="none" stroke="black" stroke-dasharray="5,2" d="M983.79,-113.96C916.32,-123.74 823.73,-138.33 733.39,-157.11"/>
<polygon fill="black" stroke="black" points="732.59,-153.7 723.52,-159.18 734.02,-160.55 732.59,-153.7"/>
</g>
<!-- 224&#45;&gt;57 -->
<g id="edge19" class="edge">
<title>224&#45;&gt;57</title>
<path fill="none" stroke="black" stroke-dasharray="5,2" d="M1025.27,-120.72C997.97,-130.68 964.24,-142.99 933.46,-154.22"/>
<polygon fill="black" stroke="black" points="932.2,-150.95 924.01,-157.66 934.6,-157.52 932.2,-150.95"/>
</g>
<!-- 225 -->
<g id="node15" class="node">
<title>225</title>
<polygon fill="#f2f2f2" stroke="black" points="970.33,-166.1 970.33,-207.7 1188.88,-207.7 1188.88,-166.1 970.33,-166.1"/>
<text text-anchor="middle" x="1079.61" y="-191.1" font-family="Times,serif" font-size="14.00">VaultInitializer</text>
<text text-anchor="middle" x="1079.61" y="-174.3" font-family="Times,serif" font-size="14.00">../contracts/vault/VaultInitializer.sol</text>
</g>
<!-- 224&#45;&gt;225 -->
<g id="edge16" class="edge">
<title>224&#45;&gt;225</title>
<path fill="none" stroke="black" d="M1079.61,-121.04C1079.61,-125.6 1079.61,-130.63 1079.61,-135.81"/>
<polygon fill="none" stroke="black" points="1069.11,-135.9 1079.61,-165.9 1090.11,-135.9 1069.11,-135.9"/>
</g>
<!-- 224&#45;&gt;695 -->
<g id="edge18" class="edge">
<title>224&#45;&gt;695</title>
<path fill="none" stroke="black" stroke-dasharray="5,2" d="M1175.42,-102.65C1348.91,-106.73 1700.96,-119.61 1741.61,-157.2 1779.86,-192.58 1760.61,-220.79 1760.61,-272.9 1760.61,-272.9 1760.61,-272.9 1760.61,-353.5 1760.61,-438.54 1223.03,-493.98 913.9,-518.83"/>
<polygon fill="black" stroke="black" points="913.6,-515.34 903.91,-519.63 914.16,-522.32 913.6,-515.34"/>
</g>
<!-- 225&#45;&gt;205 -->
<g id="edge23" class="edge">
<title>225&#45;&gt;205</title>
<path fill="none" stroke="black" stroke-dasharray="5,2" d="M998.37,-207.76C985.74,-210.77 972.83,-213.8 960.61,-216.6 775.44,-259 558.46,-305.29 435.9,-331.12"/>
<polygon fill="black" stroke="black" points="434.86,-327.77 425.79,-333.25 436.3,-334.62 434.86,-327.77"/>
</g>
<!-- 225&#45;&gt;226 -->
<g id="edge22" class="edge">
<title>225&#45;&gt;226</title>
<path fill="none" stroke="black" d="M1006.05,-207.75C991.1,-211.18 975.42,-214.36 960.61,-216.6 709.61,-254.5 643.37,-229.28 390.61,-252.6 379.71,-253.61 368.43,-254.75 357.11,-255.97"/>
<polygon fill="none" stroke="black" points="355.92,-245.54 327.29,-259.35 358.28,-266.41 355.92,-245.54"/>
</g>
<!-- 226&#45;&gt;20 -->
<g id="edge25" class="edge">
<title>226&#45;&gt;20</title>
<path fill="none" stroke="black" d="M223.08,-294.77C223.45,-316.02 226.8,-349.87 242.61,-373.8 249.61,-384.4 259.01,-393.72 269.2,-401.73"/>
<polygon fill="none" stroke="black" points="263.63,-410.63 294.42,-418.51 275.26,-393.15 263.63,-410.63"/>
</g>
<!-- 226&#45;&gt;205 -->
<g id="edge26" class="edge">
<title>226&#45;&gt;205</title>
<path fill="none" stroke="black" d="M253.52,-294.83C267.76,-304.31 284.96,-315.77 300.16,-325.89"/>
<polygon fill="black" stroke="black" points="298.58,-329.04 308.84,-331.67 302.46,-323.22 298.58,-329.04"/>
</g>
<!-- 226&#45;&gt;213 -->
<g id="edge24" class="edge">
<title>226&#45;&gt;213</title>
<path fill="none" stroke="black" d="M209.14,-294.96C192.97,-317.38 166.13,-354.59 143.83,-385.5"/>
<polygon fill="none" stroke="black" points="135.18,-379.55 126.14,-410.03 152.21,-391.84 135.18,-379.55"/>
</g>
</g>
</svg>
