<?xml version="1.0" encoding="UTF-8" standalone="no"?>
<!DOCTYPE svg PUBLIC "-//W3C//DTD SVG 1.1//EN"
 "http://www.w3.org/Graphics/SVG/1.1/DTD/svg11.dtd">
<!-- Generated by graphviz version 5.0.0 (20220707.1540)
 -->
<!-- Title: UmlClassDiagram Pages: 1 -->
<svg width="792pt" height="573pt"
 viewBox="0.00 0.00 791.83 572.60" xmlns="http://www.w3.org/2000/svg" xmlns:xlink="http://www.w3.org/1999/xlink">
<g id="graph0" class="graph" transform="scale(1 1) rotate(0) translate(4 568.6)">
<title>UmlClassDiagram</title>
<polygon fill="white" stroke="transparent" points="-4,4 -4,-568.6 787.83,-568.6 787.83,4 -4,4"/>
<!-- 20 -->
<g id="node1" class="node">
<title>20</title>
<polygon fill="#f2f2f2" stroke="black" points="0,-418.7 0,-460.3 234.86,-460.3 234.86,-418.7 0,-418.7"/>
<text text-anchor="middle" x="117.43" y="-443.7" font-family="Times,serif" font-size="14.00">Governable</text>
<text text-anchor="middle" x="117.43" y="-426.9" font-family="Times,serif" font-size="14.00">../contracts/governance/Governable.sol</text>
</g>
<!-- 30 -->
<g id="node2" class="node">
<title>30</title>
<polygon fill="#f2f2f2" stroke="black" points="22.93,-79.1 22.93,-120.7 211.93,-120.7 211.93,-79.1 22.93,-79.1"/>
<text text-anchor="middle" x="117.43" y="-104.1" font-family="Times,serif" font-size="14.00">Dripper</text>
<text text-anchor="middle" x="117.43" y="-87.3" font-family="Times,serif" font-size="14.00">../contracts/harvest/Dripper.sol</text>
</g>
<!-- 30&#45;&gt;20 -->
<g id="edge1" class="edge">
<title>30&#45;&gt;20</title>
<path fill="none" stroke="black" d="M117.43,-121.01C117.43,-172.96 117.43,-312.87 117.43,-388.44"/>
<polygon fill="none" stroke="black" points="106.93,-388.5 117.43,-418.5 127.93,-388.5 106.93,-388.5"/>
</g>
<!-- 55 -->
<g id="node4" class="node">
<title>55</title>
<polygon fill="#f2f2f2" stroke="black" points="185.82,-157.7 185.82,-216.1 381.04,-216.1 381.04,-157.7 185.82,-157.7"/>
<text text-anchor="middle" x="283.43" y="-199.5" font-family="Times,serif" font-size="14.00">&lt;&lt;Interface&gt;&gt;</text>
<text text-anchor="middle" x="283.43" y="-182.7" font-family="Times,serif" font-size="14.00">IVault</text>
<text text-anchor="middle" x="283.43" y="-165.9" font-family="Times,serif" font-size="14.00">../contracts/interfaces/IVault.sol</text>
</g>
<!-- 30&#45;&gt;55 -->
<g id="edge3" class="edge">
<title>30&#45;&gt;55</title>
<path fill="none" stroke="black" stroke-dasharray="5,2" d="M156.35,-120.83C175.05,-130.4 197.95,-142.13 219.14,-152.98"/>
<polygon fill="black" stroke="black" points="217.6,-156.12 228.1,-157.57 220.79,-149.89 217.6,-156.12"/>
</g>
<!-- 392 -->
<g id="node9" class="node">
<title>392</title>
<polygon fill="#f2f2f2" stroke="black" points="193.37,-505.7 193.37,-564.1 597.48,-564.1 597.48,-505.7 193.37,-505.7"/>
<text text-anchor="middle" x="395.43" y="-547.5" font-family="Times,serif" font-size="14.00">&lt;&lt;Interface&gt;&gt;</text>
<text text-anchor="middle" x="395.43" y="-530.7" font-family="Times,serif" font-size="14.00">IERC20</text>
<text text-anchor="middle" x="395.43" y="-513.9" font-family="Times,serif" font-size="14.00">../node_modules/@openzeppelin/contracts/token/ERC20/IERC20.sol</text>
</g>
<!-- 30&#45;&gt;392 -->
<g id="edge2" class="edge">
<title>30&#45;&gt;392</title>
<path fill="none" stroke="black" stroke-dasharray="5,2" d="M212.28,-105.82C395.33,-117.93 779.43,-157.12 779.43,-272.9 779.43,-272.9 779.43,-272.9 779.43,-353.5 779.43,-405.61 797.04,-432.12 760.43,-469.2 737.37,-492.55 674.76,-507.57 607.77,-517.18"/>
<polygon fill="black" stroke="black" points="607.28,-513.71 597.85,-518.56 608.24,-520.65 607.28,-513.71"/>
</g>
<!-- 33 -->
<g id="node3" class="node">
<title>33</title>
<polygon fill="#f2f2f2" stroke="black" points="4.27,-0.5 4.27,-42.1 230.59,-42.1 230.59,-0.5 4.27,-0.5"/>
<text text-anchor="middle" x="117.43" y="-25.5" font-family="Times,serif" font-size="14.00">OETHDripper</text>
<text text-anchor="middle" x="117.43" y="-8.7" font-family="Times,serif" font-size="14.00">../contracts/harvest/OETHDripper.sol</text>
</g>
<!-- 33&#45;&gt;30 -->
<g id="edge4" class="edge">
<title>33&#45;&gt;30</title>
<path fill="none" stroke="black" d="M117.43,-42.43C117.43,-44.45 117.43,-46.56 117.43,-48.73"/>
<polygon fill="none" stroke="black" points="106.93,-48.91 117.43,-78.91 127.93,-48.91 106.93,-48.91"/>
</g>
<!-- 207 -->
<g id="node8" class="node">
<title>207</title>
<polygon fill="#f2f2f2" stroke="black" points="218.98,-253.1 218.98,-294.7 425.88,-294.7 425.88,-253.1 218.98,-253.1"/>
<text text-anchor="middle" x="322.43" y="-278.1" font-family="Times,serif" font-size="14.00">VaultStorage</text>
<text text-anchor="middle" x="322.43" y="-261.3" font-family="Times,serif" font-size="14.00">../contracts/vault/VaultStorage.sol</text>
</g>
<!-- 55&#45;&gt;207 -->
<g id="edge5" class="edge">
<title>55&#45;&gt;207</title>
<path fill="none" stroke="black" stroke-dasharray="5,2" d="M296.42,-216.2C300.48,-225.07 304.98,-234.87 309.07,-243.79"/>
<polygon fill="black" stroke="black" points="305.97,-245.41 313.32,-253.04 312.33,-242.49 305.97,-245.41"/>
</g>
<!-- 186 -->
<g id="node5" class="node">
<title>186</title>
<polygon fill="#f2f2f2" stroke="black" points="308.3,-331.7 308.3,-373.3 482.56,-373.3 482.56,-331.7 308.3,-331.7"/>
<text text-anchor="middle" x="395.43" y="-356.7" font-family="Times,serif" font-size="14.00">OUSD</text>
<text text-anchor="middle" x="395.43" y="-339.9" font-family="Times,serif" font-size="14.00">../contracts/token/OUSD.sol</text>
</g>
<!-- 186&#45;&gt;20 -->
<g id="edge8" class="edge">
<title>186&#45;&gt;20</title>
<path fill="none" stroke="black" d="M330.6,-373.32C295.06,-384.19 250.37,-397.85 211.09,-409.86"/>
<polygon fill="none" stroke="black" points="207.98,-399.83 182.36,-418.65 214.12,-419.92 207.98,-399.83"/>
</g>
<!-- 194 -->
<g id="node6" class="node">
<title>194</title>
<polygon fill="#f2f2f2" stroke="black" points="555.42,-410.3 555.42,-468.7 751.44,-468.7 751.44,-410.3 555.42,-410.3"/>
<text text-anchor="middle" x="653.43" y="-452.1" font-family="Times,serif" font-size="14.00">&lt;&lt;Abstract&gt;&gt;</text>
<text text-anchor="middle" x="653.43" y="-435.3" font-family="Times,serif" font-size="14.00">Initializable</text>
<text text-anchor="middle" x="653.43" y="-418.5" font-family="Times,serif" font-size="14.00">../contracts/utils/Initializable.sol</text>
</g>
<!-- 186&#45;&gt;194 -->
<g id="edge6" class="edge">
<title>186&#45;&gt;194</title>
<path fill="none" stroke="black" d="M455.59,-373.32C480.48,-381.52 510.2,-391.31 538.94,-400.78"/>
<polygon fill="none" stroke="black" points="535.94,-410.85 567.72,-410.26 542.51,-390.9 535.94,-410.85"/>
</g>
<!-- 197 -->
<g id="node7" class="node">
<title>197</title>
<polygon fill="#f2f2f2" stroke="black" points="253.1,-410.3 253.1,-468.7 537.76,-468.7 537.76,-410.3 253.1,-410.3"/>
<text text-anchor="middle" x="395.43" y="-452.1" font-family="Times,serif" font-size="14.00">&lt;&lt;Abstract&gt;&gt;</text>
<text text-anchor="middle" x="395.43" y="-435.3" font-family="Times,serif" font-size="14.00">InitializableERC20Detailed</text>
<text text-anchor="middle" x="395.43" y="-418.5" font-family="Times,serif" font-size="14.00">../contracts/utils/InitializableERC20Detailed.sol</text>
</g>
<!-- 186&#45;&gt;197 -->
<g id="edge7" class="edge">
<title>186&#45;&gt;197</title>
<path fill="none" stroke="black" d="M395.43,-373.64C395.43,-375.69 395.43,-377.83 395.43,-380.03"/>
<polygon fill="none" stroke="black" points="384.93,-380.14 395.43,-410.14 405.93,-380.14 384.93,-380.14"/>
</g>
<!-- 197&#45;&gt;392 -->
<g id="edge9" class="edge">
<title>197&#45;&gt;392</title>
<path fill="none" stroke="black" stroke-dasharray="5,2" d="M395.43,-468.78C395.43,-470.86 395.43,-473 395.43,-475.18"/>
<polygon fill="none" stroke="black" points="384.93,-475.4 395.43,-505.4 405.93,-475.4 384.93,-475.4"/>
</g>
<!-- 207&#45;&gt;20 -->
<g id="edge11" class="edge">
<title>207&#45;&gt;20</title>
<path fill="none" stroke="black" d="M297.29,-294.96C264.7,-320.97 207.15,-366.9 165.92,-399.8"/>
<polygon fill="none" stroke="black" points="159.35,-391.61 142.45,-418.53 172.45,-408.03 159.35,-391.61"/>
</g>
<!-- 207&#45;&gt;186 -->
<g id="edge12" class="edge">
<title>207&#45;&gt;186</title>
<path fill="none" stroke="black" d="M341.61,-295.03C350.08,-303.91 360.16,-314.49 369.3,-324.08"/>
<polygon fill="black" stroke="black" points="366.95,-326.68 376.38,-331.51 372.01,-321.85 366.95,-326.68"/>
</g>
<!-- 207&#45;&gt;194 -->
<g id="edge10" class="edge">
<title>207&#45;&gt;194</title>
<path fill="none" stroke="black" d="M396.05,-294.8C426.31,-304.15 461.26,-316.51 491.43,-331.2 526.55,-348.31 563.05,-371.9 592.5,-392.6"/>
<polygon fill="none" stroke="black" points="586.36,-401.12 616.82,-410.18 598.65,-384.1 586.36,-401.12"/>
</g>
</g>
</svg>
