<?xml version="1.0" encoding="UTF-8" standalone="no"?>
<!DOCTYPE svg PUBLIC "-//W3C//DTD SVG 1.1//EN"
 "http://www.w3.org/Graphics/SVG/1.1/DTD/svg11.dtd">
<!-- Generated by graphviz version 5.0.0 (20220707.1540)
 -->
<!-- Title: StorageDiagram Pages: 1 -->
<svg width="853pt" height="455pt"
 viewBox="0.00 0.00 853.33 455.40" xmlns="http://www.w3.org/2000/svg" xmlns:xlink="http://www.w3.org/1999/xlink">
<g id="graph0" class="graph" transform="scale(1 1) rotate(0) translate(4 451.4)">
<title>StorageDiagram</title>
<polygon fill="white" stroke="transparent" points="-4,4 -4,-451.4 849.33,-451.4 849.33,4 -4,4"/>
<!-- 1 -->
<g id="node1" class="node">
<title>1</title>
<polygon fill="#f2f2f2" stroke="black" points="0,-0.5 0,-446.9 845.33,-446.9 845.33,-0.5 0,-0.5"/>
<text text-anchor="middle" x="422.66" y="-430.3" font-family="Courier New" font-size="14.00">OETH &lt;&lt;Contract&gt;&gt;</text>
<polyline fill="none" stroke="black" points="0,-422.1 845.33,-422.1 "/>
<text text-anchor="middle" x="33.2" y="-405.5" font-family="Courier New" font-size="14.00">slot</text>
<polyline fill="none" stroke="black" points="0,-397.3 66.41,-397.3 "/>
<text text-anchor="middle" x="33.2" y="-380.7" font-family="Courier New" font-size="14.00">0</text>
<polyline fill="none" stroke="black" points="0,-372.5 66.41,-372.5 "/>
<text text-anchor="middle" x="33.2" y="-355.9" font-family="Courier New" font-size="14.00">1&#45;50</text>
<polyline fill="none" stroke="black" points="0,-347.7 66.41,-347.7 "/>
<text text-anchor="middle" x="33.2" y="-331.1" font-family="Courier New" font-size="14.00">51&#45;150</text>
<polyline fill="none" stroke="black" points="0,-322.9 66.41,-322.9 "/>
<text text-anchor="middle" x="33.2" y="-306.3" font-family="Courier New" font-size="14.00">151</text>
<polyline fill="none" stroke="black" points="0,-298.1 66.41,-298.1 "/>
<text text-anchor="middle" x="33.2" y="-281.5" font-family="Courier New" font-size="14.00">152</text>
<polyline fill="none" stroke="black" points="0,-273.3 66.41,-273.3 "/>
<text text-anchor="middle" x="33.2" y="-256.7" font-family="Courier New" font-size="14.00">153</text>
<polyline fill="none" stroke="black" points="0,-248.5 66.41,-248.5 "/>
<text text-anchor="middle" x="33.2" y="-231.9" font-family="Courier New" font-size="14.00">154</text>
<polyline fill="none" stroke="black" points="0,-223.7 66.41,-223.7 "/>
<text text-anchor="middle" x="33.2" y="-207.1" font-family="Courier New" font-size="14.00">155</text>
<polyline fill="none" stroke="black" points="0,-198.9 66.41,-198.9 "/>
<text text-anchor="middle" x="33.2" y="-182.3" font-family="Courier New" font-size="14.00">156</text>
<polyline fill="none" stroke="black" points="0,-174.1 66.41,-174.1 "/>
<text text-anchor="middle" x="33.2" y="-157.5" font-family="Courier New" font-size="14.00">157</text>
<polyline fill="none" stroke="black" points="0,-149.3 66.41,-149.3 "/>
<text text-anchor="middle" x="33.2" y="-132.7" font-family="Courier New" font-size="14.00">158</text>
<polyline fill="none" stroke="black" points="0,-124.5 66.41,-124.5 "/>
<text text-anchor="middle" x="33.2" y="-107.9" font-family="Courier New" font-size="14.00">159</text>
<polyline fill="none" stroke="black" points="0,-99.7 66.41,-99.7 "/>
<text text-anchor="middle" x="33.2" y="-83.1" font-family="Courier New" font-size="14.00">160</text>
<polyline fill="none" stroke="black" points="0,-74.9 66.41,-74.9 "/>
<text text-anchor="middle" x="33.2" y="-58.3" font-family="Courier New" font-size="14.00">161</text>
<polyline fill="none" stroke="black" points="0,-50.1 66.41,-50.1 "/>
<text text-anchor="middle" x="33.2" y="-33.5" font-family="Courier New" font-size="14.00">162</text>
<polyline fill="none" stroke="black" points="0,-25.3 66.41,-25.3 "/>
<text text-anchor="middle" x="33.2" y="-8.7" font-family="Courier New" font-size="14.00">163</text>
<polyline fill="none" stroke="black" points="66.41,-0.5 66.41,-422.1 "/>
<text text-anchor="middle" x="455.87" y="-405.5" font-family="Courier New" font-size="14.00">type: &lt;inherited contract&gt;.variable (bytes)</text>
<polyline fill="none" stroke="black" points="66.41,-397.3 845.33,-397.3 "/>
<text text-anchor="middle" x="141.62" y="-380.7" font-family="Courier New" font-size="14.00">unallocated (30)</text>
<polyline fill="none" stroke="black" points="216.83,-372.5 216.83,-397.3 "/>
<text text-anchor="middle" x="376.05" y="-380.7" font-family="Courier New" font-size="14.00">bool: Initializable.initializing (1)</text>
<polyline fill="none" stroke="black" points="535.28,-372.5 535.28,-397.3 "/>
<text text-anchor="middle" x="690.3" y="-380.7" font-family="Courier New" font-size="14.00">bool: Initializable.initialized (1)</text>
<polyline fill="none" stroke="black" points="66.41,-372.5 845.33,-372.5 "/>
<text text-anchor="middle" x="455.54" y="-355.9" font-family="Courier New" font-size="14.00">uint256[50]: Initializable.______gap (1600)</text>
<polyline fill="none" stroke="black" points="66.41,-347.7 845.33,-347.7 "/>
<text text-anchor="middle" x="455.65" y="-331.1" font-family="Courier New" font-size="14.00">uint256[100]: InitializableERC20Detailed._____gap (3200)</text>
<polyline fill="none" stroke="black" points="66.41,-322.9 845.33,-322.9 "/>
<text text-anchor="middle" x="455.44" y="-306.3" font-family="Courier New" font-size="14.00">string: InitializableERC20Detailed._name (32)</text>
<polyline fill="none" stroke="black" points="66.41,-298.1 845.33,-298.1 "/>
<text text-anchor="middle" x="455.84" y="-281.5" font-family="Courier New" font-size="14.00">string: InitializableERC20Detailed._symbol (32)</text>
<polyline fill="none" stroke="black" points="66.41,-273.3 845.33,-273.3 "/>
<text text-anchor="middle" x="195.62" y="-256.7" font-family="Courier New" font-size="14.00">unallocated (31)</text>
<polyline fill="none" stroke="black" points="324.83,-248.5 324.83,-273.3 "/>
<text text-anchor="middle" x="584.76" y="-256.7" font-family="Courier New" font-size="14.00">uint8: InitializableERC20Detailed._decimals (1)</text>
<polyline fill="none" stroke="black" points="66.41,-248.5 845.33,-248.5 "/>
<text text-anchor="middle" x="455.63" y="-231.9" font-family="Courier New" font-size="14.00">uint256: OUSD._totalSupply (32)</text>
<polyline fill="none" stroke="black" points="66.41,-223.7 845.33,-223.7 "/>
<text text-anchor="middle" x="455.65" y="-207.1" font-family="Courier New" font-size="14.00">mapping(address=&gt;mapping(address=&gt;uint256)): OUSD._allowances (32)</text>
<polyline fill="none" stroke="black" points="66.41,-198.9 845.33,-198.9 "/>
<text text-anchor="middle" x="229.62" y="-182.3" font-family="Courier New" font-size="14.00">unallocated (12)</text>
<polyline fill="none" stroke="black" points="392.83,-174.1 392.83,-198.9 "/>
<text text-anchor="middle" x="619.05" y="-182.3" font-family="Courier New" font-size="14.00">address: OUSD.vaultAddress (20)</text>
<polyline fill="none" stroke="black" points="66.41,-174.1 845.33,-174.1 "/>
<text text-anchor="middle" x="455.84" y="-157.5" font-family="Courier New" font-size="14.00">mapping(address=&gt;uint256): OUSD._creditBalances (32)</text>
<polyline fill="none" stroke="black" points="66.41,-149.3 845.33,-149.3 "/>
<text text-anchor="middle" x="455.43" y="-132.7" font-family="Courier New" font-size="14.00">uint256: OUSD._rebasingCredits (32)</text>
<polyline fill="none" stroke="black" points="66.41,-124.5 845.33,-124.5 "/>
<text text-anchor="middle" x="455.54" y="-107.9" font-family="Courier New" font-size="14.00">uint256: OUSD._rebasingCreditsPerToken (32)</text>
<polyline fill="none" stroke="black" points="66.41,-99.7 845.33,-99.7 "/>
<text text-anchor="middle" x="455.63" y="-83.1" font-family="Courier New" font-size="14.00">uint256: OUSD.nonRebasingSupply (32)</text>
<polyline fill="none" stroke="black" points="66.41,-74.9 845.33,-74.9 "/>
<text text-anchor="middle" x="455.55" y="-58.3" font-family="Courier New" font-size="14.00">mapping(address=&gt;uint256): OUSD.nonRebasingCreditsPerToken (32)</text>
<polyline fill="none" stroke="black" points="66.41,-50.1 845.33,-50.1 "/>
<text text-anchor="middle" x="455.75" y="-33.5" font-family="Courier New" font-size="14.00">mapping(address=&gt;RebaseOptions): OUSD.rebaseState (32)</text>
<polyline fill="none" stroke="black" points="66.41,-25.3 845.33,-25.3 "/>
<text text-anchor="middle" x="455.84" y="-8.7" font-family="Courier New" font-size="14.00">mapping(address=&gt;uint256): OUSD.isUpgraded (32)</text>
</g>
</g>
</svg>
