<?xml version="1.0" encoding="UTF-8" standalone="no"?>
<!DOCTYPE svg PUBLIC "-//W3C//DTD SVG 1.1//EN"
 "http://www.w3.org/Graphics/SVG/1.1/DTD/svg11.dtd">
<!-- Generated by graphviz version 5.0.0 (20220707.1540)
 -->
<!-- Title: UmlClassDiagram Pages: 1 -->
<svg width="456pt" height="320pt"
 viewBox="0.00 0.00 456.44 320.00" xmlns="http://www.w3.org/2000/svg" xmlns:xlink="http://www.w3.org/1999/xlink">
<g id="graph0" class="graph" transform="scale(1 1) rotate(0) translate(4 316)">
<title>UmlClassDiagram</title>
<polygon fill="white" stroke="transparent" points="-4,4 -4,-316 452.44,-316 452.44,4 -4,4"/>
<!-- 40 -->
<g id="node1" class="node">
<title>40</title>
<polygon fill="#f2f2f2" stroke="black" points="0,-253.1 0,-311.5 234.86,-311.5 234.86,-253.1 0,-253.1"/>
<text text-anchor="middle" x="117.43" y="-294.9" font-family="Times,serif" font-size="14.00">&lt;&lt;Abstract&gt;&gt;</text>
<text text-anchor="middle" x="117.43" y="-278.1" font-family="Times,serif" font-size="14.00">Governable</text>
<text text-anchor="middle" x="117.43" y="-261.3" font-family="Times,serif" font-size="14.00">../contracts/governance/Governable.sol</text>
</g>
<!-- 392 -->
<g id="node2" class="node">
<title>392</title>
<polygon fill="#f2f2f2" stroke="black" points="43.67,-0.5 43.67,-42.1 423.19,-42.1 423.19,-0.5 43.67,-0.5"/>
<text text-anchor="middle" x="233.43" y="-25.5" font-family="Times,serif" font-size="14.00">OETHSupernovaAMOStrategy</text>
<text text-anchor="middle" x="233.43" y="-8.7" font-family="Times,serif" font-size="14.00">../contracts/strategies/algebra/OETHSupernovaAMOStrategy.sol</text>
</g>
<!-- 393 -->
<g id="node3" class="node">
<title>393</title>
<polygon fill="#f2f2f2" stroke="black" points="58.05,-79.1 58.05,-120.7 408.81,-120.7 408.81,-79.1 58.05,-79.1"/>
<text text-anchor="middle" x="233.43" y="-104.1" font-family="Times,serif" font-size="14.00">StableSwapAMMStrategy</text>
<text text-anchor="middle" x="233.43" y="-87.3" font-family="Times,serif" font-size="14.00">../contracts/strategies/algebra/StableSwapAMMStrategy.sol</text>
</g>
<!-- 392&#45;&gt;393 -->
<g id="edge1" class="edge">
<title>392&#45;&gt;393</title>
<path fill="none" stroke="black" d="M233.43,-42.43C233.43,-44.45 233.43,-46.56 233.43,-48.73"/>
<polygon fill="none" stroke="black" points="222.93,-48.91 233.43,-78.91 243.93,-48.91 222.93,-48.91"/>
</g>
<!-- 246 -->
<g id="node5" class="node">
<title>246</title>
<polygon fill="#f2f2f2" stroke="black" points="88.38,-157.7 88.38,-216.1 378.48,-216.1 378.48,-157.7 88.38,-157.7"/>
<text text-anchor="middle" x="233.43" y="-199.5" font-family="Times,serif" font-size="14.00">&lt;&lt;Abstract&gt;&gt;</text>
<text text-anchor="middle" x="233.43" y="-182.7" font-family="Times,serif" font-size="14.00">InitializableAbstractStrategy</text>
<text text-anchor="middle" x="233.43" y="-165.9" font-family="Times,serif" font-size="14.00">../contracts/utils/InitializableAbstractStrategy.sol</text>
</g>
<!-- 393&#45;&gt;246 -->
<g id="edge2" class="edge">
<title>393&#45;&gt;246</title>
<path fill="none" stroke="black" d="M233.43,-121.04C233.43,-123.09 233.43,-125.23 233.43,-127.43"/>
<polygon fill="none" stroke="black" points="222.93,-127.54 233.43,-157.54 243.93,-127.54 222.93,-127.54"/>
</g>
<!-- 245 -->
<g id="node4" class="node">
<title>245</title>
<polygon fill="#f2f2f2" stroke="black" points="252.42,-253.1 252.42,-311.5 448.44,-311.5 448.44,-253.1 252.42,-253.1"/>
<text text-anchor="middle" x="350.43" y="-294.9" font-family="Times,serif" font-size="14.00">&lt;&lt;Abstract&gt;&gt;</text>
<text text-anchor="middle" x="350.43" y="-278.1" font-family="Times,serif" font-size="14.00">Initializable</text>
<text text-anchor="middle" x="350.43" y="-261.3" font-family="Times,serif" font-size="14.00">../contracts/utils/Initializable.sol</text>
</g>
<!-- 246&#45;&gt;40 -->
<g id="edge4" class="edge">
<title>246&#45;&gt;40</title>
<path fill="none" stroke="black" d="M198.31,-216.18C191.33,-221.79 183.83,-227.84 176.31,-233.89"/>
<polygon fill="none" stroke="black" points="169.61,-225.8 152.83,-252.8 182.78,-242.16 169.61,-225.8"/>
</g>
<!-- 246&#45;&gt;245 -->
<g id="edge3" class="edge">
<title>246&#45;&gt;245</title>
<path fill="none" stroke="black" d="M268.85,-216.18C275.89,-221.79 283.46,-227.84 291.04,-233.89"/>
<polygon fill="none" stroke="black" points="284.73,-242.29 314.72,-252.8 297.83,-225.87 284.73,-242.29"/>
</g>
</g>
</svg>
