<?xml version="1.0" encoding="UTF-8" standalone="no"?>
<!DOCTYPE svg PUBLIC "-//W3C//DTD SVG 1.1//EN"
 "http://www.w3.org/Graphics/SVG/1.1/DTD/svg11.dtd">
<!-- Generated by graphviz version 5.0.0 (20220707.1540)
 -->
<!-- Title: UmlClassDiagram Pages: 1 -->
<svg width="1589pt" height="573pt"
 viewBox="0.00 0.00 1589.43 572.60" xmlns="http://www.w3.org/2000/svg" xmlns:xlink="http://www.w3.org/1999/xlink">
<g id="graph0" class="graph" transform="scale(1 1) rotate(0) translate(4 568.6)">
<title>UmlClassDiagram</title>
<polygon fill="white" stroke="transparent" points="-4,4 -4,-568.6 1585.43,-568.6 1585.43,4 -4,4"/>
<!-- 20 -->
<g id="node1" class="node">
<title>20</title>
<polygon fill="#f2f2f2" stroke="black" points="581.83,-418.7 581.83,-460.3 816.69,-460.3 816.69,-418.7 581.83,-418.7"/>
<text text-anchor="middle" x="699.26" y="-443.7" font-family="Times,serif" font-size="14.00">Governable</text>
<text text-anchor="middle" x="699.26" y="-426.9" font-family="Times,serif" font-size="14.00">../contracts/governance/Governable.sol</text>
</g>
<!-- 43 -->
<g id="node2" class="node">
<title>43</title>
<polygon fill="#f2f2f2" stroke="black" points="302.79,-157.7 302.79,-216.1 603.73,-216.1 603.73,-157.7 302.79,-157.7"/>
<text text-anchor="middle" x="453.26" y="-199.5" font-family="Times,serif" font-size="14.00">&lt;&lt;Interface&gt;&gt;</text>
<text text-anchor="middle" x="453.26" y="-182.7" font-family="Times,serif" font-size="14.00">IGetExchangeRateToken</text>
<text text-anchor="middle" x="453.26" y="-165.9" font-family="Times,serif" font-size="14.00">../contracts/interfaces/IGetExchangeRateToken.sol</text>
</g>
<!-- 50 -->
<g id="node3" class="node">
<title>50</title>
<polygon fill="#f2f2f2" stroke="black" points="621.55,-157.7 621.55,-216.1 822.96,-216.1 822.96,-157.7 621.55,-157.7"/>
<text text-anchor="middle" x="722.26" y="-199.5" font-family="Times,serif" font-size="14.00">&lt;&lt;Interface&gt;&gt;</text>
<text text-anchor="middle" x="722.26" y="-182.7" font-family="Times,serif" font-size="14.00">IOracle</text>
<text text-anchor="middle" x="722.26" y="-165.9" font-family="Times,serif" font-size="14.00">../contracts/interfaces/IOracle.sol</text>
</g>
<!-- 56 -->
<g id="node4" class="node">
<title>56</title>
<polygon fill="#f2f2f2" stroke="black" points="840.88,-157.7 840.88,-216.1 1051.64,-216.1 1051.64,-157.7 840.88,-157.7"/>
<text text-anchor="middle" x="946.26" y="-199.5" font-family="Times,serif" font-size="14.00">&lt;&lt;Interface&gt;&gt;</text>
<text text-anchor="middle" x="946.26" y="-182.7" font-family="Times,serif" font-size="14.00">IStrategy</text>
<text text-anchor="middle" x="946.26" y="-165.9" font-family="Times,serif" font-size="14.00">../contracts/interfaces/IStrategy.sol</text>
</g>
<!-- 57 -->
<g id="node5" class="node">
<title>57</title>
<polygon fill="#f2f2f2" stroke="black" points="1069.71,-157.7 1069.71,-216.1 1282.81,-216.1 1282.81,-157.7 1069.71,-157.7"/>
<text text-anchor="middle" x="1176.26" y="-199.5" font-family="Times,serif" font-size="14.00">&lt;&lt;Interface&gt;&gt;</text>
<text text-anchor="middle" x="1176.26" y="-182.7" font-family="Times,serif" font-size="14.00">ISwapper</text>
<text text-anchor="middle" x="1176.26" y="-165.9" font-family="Times,serif" font-size="14.00">../contracts/interfaces/ISwapper.sol</text>
</g>
<!-- 60 -->
<g id="node6" class="node">
<title>60</title>
<polygon fill="#f2f2f2" stroke="black" points="1300.65,-157.7 1300.65,-216.1 1495.86,-216.1 1495.86,-157.7 1300.65,-157.7"/>
<text text-anchor="middle" x="1398.26" y="-199.5" font-family="Times,serif" font-size="14.00">&lt;&lt;Interface&gt;&gt;</text>
<text text-anchor="middle" x="1398.26" y="-182.7" font-family="Times,serif" font-size="14.00">IVault</text>
<text text-anchor="middle" x="1398.26" y="-165.9" font-family="Times,serif" font-size="14.00">../contracts/interfaces/IVault.sol</text>
</g>
<!-- 225 -->
<g id="node15" class="node">
<title>225</title>
<polygon fill="#f2f2f2" stroke="black" points="526.81,-253.1 526.81,-294.7 733.71,-294.7 733.71,-253.1 526.81,-253.1"/>
<text text-anchor="middle" x="630.26" y="-278.1" font-family="Times,serif" font-size="14.00">VaultStorage</text>
<text text-anchor="middle" x="630.26" y="-261.3" font-family="Times,serif" font-size="14.00">../contracts/vault/VaultStorage.sol</text>
</g>
<!-- 60&#45;&gt;225 -->
<g id="edge1" class="edge">
<title>60&#45;&gt;225</title>
<path fill="none" stroke="black" stroke-dasharray="5,2" d="M1300.51,-215.05C1297.74,-215.6 1294.98,-216.12 1292.26,-216.6 1101.7,-250.22 876.62,-263.95 744.09,-269.43"/>
<polygon fill="black" stroke="black" points="743.77,-265.94 733.92,-269.84 744.05,-272.93 743.77,-265.94"/>
</g>
<!-- 203 -->
<g id="node7" class="node">
<title>203</title>
<polygon fill="#f2f2f2" stroke="black" points="379.13,-331.7 379.13,-373.3 553.39,-373.3 553.39,-331.7 379.13,-331.7"/>
<text text-anchor="middle" x="466.26" y="-356.7" font-family="Times,serif" font-size="14.00">OUSD</text>
<text text-anchor="middle" x="466.26" y="-339.9" font-family="Times,serif" font-size="14.00">../contracts/token/OUSD.sol</text>
</g>
<!-- 203&#45;&gt;20 -->
<g id="edge4" class="edge">
<title>203&#45;&gt;20</title>
<path fill="none" stroke="black" d="M520.59,-373.32C549.07,-383.71 584.55,-396.65 616.37,-408.26"/>
<polygon fill="none" stroke="black" points="613.06,-418.23 644.84,-418.65 620.25,-398.5 613.06,-418.23"/>
</g>
<!-- 212 -->
<g id="node8" class="node">
<title>212</title>
<polygon fill="#f2f2f2" stroke="black" points="368.25,-410.3 368.25,-468.7 564.26,-468.7 564.26,-410.3 368.25,-410.3"/>
<text text-anchor="middle" x="466.26" y="-452.1" font-family="Times,serif" font-size="14.00">&lt;&lt;Abstract&gt;&gt;</text>
<text text-anchor="middle" x="466.26" y="-435.3" font-family="Times,serif" font-size="14.00">Initializable</text>
<text text-anchor="middle" x="466.26" y="-418.5" font-family="Times,serif" font-size="14.00">../contracts/utils/Initializable.sol</text>
</g>
<!-- 203&#45;&gt;212 -->
<g id="edge2" class="edge">
<title>203&#45;&gt;212</title>
<path fill="none" stroke="black" d="M466.26,-373.64C466.26,-375.69 466.26,-377.83 466.26,-380.03"/>
<polygon fill="none" stroke="black" points="455.76,-380.14 466.26,-410.14 476.76,-380.14 455.76,-380.14"/>
</g>
<!-- 215 -->
<g id="node9" class="node">
<title>215</title>
<polygon fill="#f2f2f2" stroke="black" points="65.93,-410.3 65.93,-468.7 350.59,-468.7 350.59,-410.3 65.93,-410.3"/>
<text text-anchor="middle" x="208.26" y="-452.1" font-family="Times,serif" font-size="14.00">&lt;&lt;Abstract&gt;&gt;</text>
<text text-anchor="middle" x="208.26" y="-435.3" font-family="Times,serif" font-size="14.00">InitializableERC20Detailed</text>
<text text-anchor="middle" x="208.26" y="-418.5" font-family="Times,serif" font-size="14.00">../contracts/utils/InitializableERC20Detailed.sol</text>
</g>
<!-- 203&#45;&gt;215 -->
<g id="edge3" class="edge">
<title>203&#45;&gt;215</title>
<path fill="none" stroke="black" d="M406.09,-373.32C381.21,-381.52 351.49,-391.31 322.75,-400.78"/>
<polygon fill="none" stroke="black" points="319.18,-390.9 293.97,-410.26 325.75,-410.85 319.18,-390.9"/>
</g>
<!-- 694 -->
<g id="node16" class="node">
<title>694</title>
<polygon fill="#f2f2f2" stroke="black" points="6.2,-505.7 6.2,-564.1 410.31,-564.1 410.31,-505.7 6.2,-505.7"/>
<text text-anchor="middle" x="208.26" y="-547.5" font-family="Times,serif" font-size="14.00">&lt;&lt;Interface&gt;&gt;</text>
<text text-anchor="middle" x="208.26" y="-530.7" font-family="Times,serif" font-size="14.00">IERC20</text>
<text text-anchor="middle" x="208.26" y="-513.9" font-family="Times,serif" font-size="14.00">../node_modules/@openzeppelin/contracts/token/ERC20/IERC20.sol</text>
</g>
<!-- 215&#45;&gt;694 -->
<g id="edge5" class="edge">
<title>215&#45;&gt;694</title>
<path fill="none" stroke="black" stroke-dasharray="5,2" d="M208.26,-468.78C208.26,-470.86 208.26,-473 208.26,-475.18"/>
<polygon fill="none" stroke="black" points="197.76,-475.4 208.26,-505.4 218.76,-475.4 197.76,-475.4"/>
</g>
<!-- 218 -->
<g id="node10" class="node">
<title>218</title>
<polygon fill="#f2f2f2" stroke="black" points="1341.08,-0.5 1341.08,-42.1 1581.43,-42.1 1581.43,-0.5 1341.08,-0.5"/>
<text text-anchor="middle" x="1461.26" y="-25.5" font-family="Times,serif" font-size="14.00">OETHVaultAdmin</text>
<text text-anchor="middle" x="1461.26" y="-8.7" font-family="Times,serif" font-size="14.00">../contracts/vault/OETHVaultAdmin.sol</text>
</g>
<!-- 222 -->
<g id="node12" class="node">
<title>222</title>
<polygon fill="#f2f2f2" stroke="black" points="1359.75,-79.1 1359.75,-120.7 1562.77,-120.7 1562.77,-79.1 1359.75,-79.1"/>
<text text-anchor="middle" x="1461.26" y="-104.1" font-family="Times,serif" font-size="14.00">VaultAdmin</text>
<text text-anchor="middle" x="1461.26" y="-87.3" font-family="Times,serif" font-size="14.00">../contracts/vault/VaultAdmin.sol</text>
</g>
<!-- 218&#45;&gt;222 -->
<g id="edge6" class="edge">
<title>218&#45;&gt;222</title>
<path fill="none" stroke="black" d="M1461.26,-42.43C1461.26,-44.45 1461.26,-46.56 1461.26,-48.73"/>
<polygon fill="none" stroke="black" points="1450.76,-48.91 1461.26,-78.91 1471.76,-48.91 1450.76,-48.91"/>
</g>
<!-- 219 -->
<g id="node11" class="node">
<title>219</title>
<polygon fill="#f2f2f2" stroke="black" points="60.92,-0.5 60.92,-42.1 289.6,-42.1 289.6,-0.5 60.92,-0.5"/>
<text text-anchor="middle" x="175.26" y="-25.5" font-family="Times,serif" font-size="14.00">OETHVaultCore</text>
<text text-anchor="middle" x="175.26" y="-8.7" font-family="Times,serif" font-size="14.00">../contracts/vault/OETHVaultCore.sol</text>
</g>
<!-- 219&#45;&gt;56 -->
<g id="edge9" class="edge">
<title>219&#45;&gt;56</title>
<path fill="none" stroke="black" stroke-dasharray="5,2" d="M279.11,-42.15C406.79,-66.89 630.23,-111.27 830.87,-156.91"/>
<polygon fill="black" stroke="black" points="830.18,-160.34 840.71,-159.15 831.74,-153.52 830.18,-160.34"/>
</g>
<!-- 223 -->
<g id="node13" class="node">
<title>223</title>
<polygon fill="#f2f2f2" stroke="black" points="79.58,-79.1 79.58,-120.7 270.93,-120.7 270.93,-79.1 79.58,-79.1"/>
<text text-anchor="middle" x="175.26" y="-104.1" font-family="Times,serif" font-size="14.00">VaultCore</text>
<text text-anchor="middle" x="175.26" y="-87.3" font-family="Times,serif" font-size="14.00">../contracts/vault/VaultCore.sol</text>
</g>
<!-- 219&#45;&gt;223 -->
<g id="edge7" class="edge">
<title>219&#45;&gt;223</title>
<path fill="none" stroke="black" d="M175.26,-42.43C175.26,-44.45 175.26,-46.56 175.26,-48.73"/>
<polygon fill="none" stroke="black" points="164.76,-48.91 175.26,-78.91 185.76,-48.91 164.76,-48.91"/>
</g>
<!-- 219&#45;&gt;694 -->
<g id="edge8" class="edge">
<title>219&#45;&gt;694</title>
<path fill="none" stroke="black" stroke-dasharray="5,2" d="M127.44,-42.24C75.62,-67.41 0.26,-116.03 0.26,-185.9 0.26,-185.9 0.26,-185.9 0.26,-353.5 0.26,-406.85 -3.88,-429.95 32.26,-469.2 44.35,-482.33 59.34,-492.81 75.43,-501.16"/>
<polygon fill="black" stroke="black" points="73.95,-504.34 84.47,-505.59 77.03,-498.05 73.95,-504.34"/>
</g>
<!-- 222&#45;&gt;50 -->
<g id="edge14" class="edge">
<title>222&#45;&gt;50</title>
<path fill="none" stroke="black" stroke-dasharray="5,2" d="M1359.54,-104.81C1236.74,-110.7 1023.99,-124.65 833.06,-157.18"/>
<polygon fill="black" stroke="black" points="832.38,-153.74 823.12,-158.89 833.57,-160.64 832.38,-153.74"/>
</g>
<!-- 222&#45;&gt;56 -->
<g id="edge11" class="edge">
<title>222&#45;&gt;56</title>
<path fill="none" stroke="black" stroke-dasharray="5,2" d="M1359.4,-112.14C1280.51,-121.56 1168.37,-136.5 1061.73,-156.98"/>
<polygon fill="black" stroke="black" points="1060.91,-153.58 1051.76,-158.92 1062.24,-160.45 1060.91,-153.58"/>
</g>
<!-- 222&#45;&gt;57 -->
<g id="edge13" class="edge">
<title>222&#45;&gt;57</title>
<path fill="none" stroke="black" stroke-dasharray="5,2" d="M1394.8,-120.72C1360.83,-130.85 1318.72,-143.41 1280.55,-154.8"/>
<polygon fill="black" stroke="black" points="1279.52,-151.45 1270.94,-157.66 1281.52,-158.16 1279.52,-151.45"/>
</g>
<!-- 222&#45;&gt;60 -->
<g id="edge15" class="edge">
<title>222&#45;&gt;60</title>
<path fill="none" stroke="black" stroke-dasharray="5,2" d="M1446.33,-121.04C1440.02,-129.56 1432.47,-139.75 1425.24,-149.5"/>
<polygon fill="black" stroke="black" points="1422.42,-147.42 1419.28,-157.54 1428.05,-151.59 1422.42,-147.42"/>
</g>
<!-- 222&#45;&gt;225 -->
<g id="edge10" class="edge">
<title>222&#45;&gt;225</title>
<path fill="none" stroke="black" d="M1480.15,-120.95C1501.66,-146.18 1530.69,-189.48 1505.26,-216.6 1480.33,-243.18 1003.05,-261.5 764.14,-269.04"/>
<polygon fill="none" stroke="black" points="763.47,-258.56 733.81,-269.98 764.12,-279.55 763.47,-258.56"/>
</g>
<!-- 222&#45;&gt;694 -->
<g id="edge12" class="edge">
<title>222&#45;&gt;694</title>
<path fill="none" stroke="black" stroke-dasharray="5,2" d="M1488.95,-120.85C1500.9,-130.65 1514.18,-143.33 1523.26,-157.2 1552.97,-202.61 1562.26,-218.64 1562.26,-272.9 1562.26,-272.9 1562.26,-272.9 1562.26,-353.5 1562.26,-467.25 801.73,-511.83 420.65,-527.02"/>
<polygon fill="black" stroke="black" points="420.45,-523.53 410.6,-527.42 420.73,-530.52 420.45,-523.53"/>
</g>
<!-- 223&#45;&gt;43 -->
<g id="edge20" class="edge">
<title>223&#45;&gt;43</title>
<path fill="none" stroke="black" stroke-dasharray="5,2" d="M240.09,-120.72C273.08,-130.81 313.95,-143.31 351.06,-154.65"/>
<polygon fill="black" stroke="black" points="350.32,-158.09 360.91,-157.66 352.37,-151.39 350.32,-158.09"/>
</g>
<!-- 223&#45;&gt;50 -->
<g id="edge19" class="edge">
<title>223&#45;&gt;50</title>
<path fill="none" stroke="black" stroke-dasharray="5,2" d="M271.3,-109.73C357.87,-118.5 488.74,-133.78 611.42,-157.13"/>
<polygon fill="black" stroke="black" points="610.89,-160.59 621.37,-159.05 612.21,-153.72 610.89,-160.59"/>
</g>
<!-- 223&#45;&gt;56 -->
<g id="edge18" class="edge">
<title>223&#45;&gt;56</title>
<path fill="none" stroke="black" stroke-dasharray="5,2" d="M271.07,-104.27C397.47,-109.8 626.85,-123.58 830.8,-157.05"/>
<polygon fill="black" stroke="black" points="830.36,-160.53 840.8,-158.71 831.51,-153.62 830.36,-160.53"/>
</g>
<!-- 224 -->
<g id="node14" class="node">
<title>224</title>
<polygon fill="#f2f2f2" stroke="black" points="65.98,-166.1 65.98,-207.7 284.53,-207.7 284.53,-166.1 65.98,-166.1"/>
<text text-anchor="middle" x="175.26" y="-191.1" font-family="Times,serif" font-size="14.00">VaultInitializer</text>
<text text-anchor="middle" x="175.26" y="-174.3" font-family="Times,serif" font-size="14.00">../contracts/vault/VaultInitializer.sol</text>
</g>
<!-- 223&#45;&gt;224 -->
<g id="edge16" class="edge">
<title>223&#45;&gt;224</title>
<path fill="none" stroke="black" d="M175.26,-121.04C175.26,-125.6 175.26,-130.63 175.26,-135.81"/>
<polygon fill="none" stroke="black" points="164.76,-135.9 175.26,-165.9 185.76,-135.9 164.76,-135.9"/>
</g>
<!-- 223&#45;&gt;694 -->
<g id="edge17" class="edge">
<title>223&#45;&gt;694</title>
<path fill="none" stroke="black" stroke-dasharray="5,2" d="M105.92,-120.75C87.55,-129.19 69.46,-140.96 57.26,-157.2 25.96,-198.87 38.26,-220.79 38.26,-272.9 38.26,-272.9 38.26,-272.9 38.26,-353.5 38.26,-405.61 25.13,-428.17 57.26,-469.2 67.31,-482.03 80.39,-492.36 94.66,-500.66"/>
<polygon fill="black" stroke="black" points="93.22,-503.86 103.68,-505.57 96.57,-497.71 93.22,-503.86"/>
</g>
<!-- 224&#45;&gt;203 -->
<g id="edge22" class="edge">
<title>224&#45;&gt;203</title>
<path fill="none" stroke="black" stroke-dasharray="5,2" d="M210.65,-207.8C263.7,-237.62 363.79,-293.89 421.74,-326.47"/>
<polygon fill="black" stroke="black" points="420.23,-329.64 430.66,-331.49 423.66,-323.53 420.23,-329.64"/>
</g>
<!-- 224&#45;&gt;225 -->
<g id="edge21" class="edge">
<title>224&#45;&gt;225</title>
<path fill="none" stroke="black" d="M254.14,-207.75C267.49,-210.87 281.24,-213.94 294.26,-216.6 360.72,-230.16 435.06,-242.87 496.89,-252.77"/>
<polygon fill="none" stroke="black" points="495.33,-263.16 526.6,-257.47 498.61,-242.41 495.33,-263.16"/>
</g>
<!-- 225&#45;&gt;20 -->
<g id="edge24" class="edge">
<title>225&#45;&gt;20</title>
<path fill="none" stroke="black" d="M638.72,-294.96C648.73,-318.7 665.74,-359.02 679.18,-390.89"/>
<polygon fill="none" stroke="black" points="669.5,-394.97 690.84,-418.53 688.85,-386.81 669.5,-394.97"/>
</g>
<!-- 225&#45;&gt;203 -->
<g id="edge25" class="edge">
<title>225&#45;&gt;203</title>
<path fill="none" stroke="black" d="M587.6,-294.83C566.34,-304.76 540.46,-316.84 518.06,-327.3"/>
<polygon fill="black" stroke="black" points="516.29,-324.27 508.71,-331.67 519.25,-330.61 516.29,-324.27"/>
</g>
<!-- 225&#45;&gt;212 -->
<g id="edge23" class="edge">
<title>225&#45;&gt;212</title>
<path fill="none" stroke="black" d="M619.63,-294.72C607.61,-315.92 586.53,-349.75 562.26,-373.8 555.62,-380.38 548.22,-386.7 540.57,-392.64"/>
<polygon fill="none" stroke="black" points="534.22,-384.27 515.82,-410.19 546.37,-401.4 534.22,-384.27"/>
</g>
</g>
</svg>
