<?xml version="1.0" encoding="UTF-8" standalone="no"?>
<!DOCTYPE svg PUBLIC "-//W3C//DTD SVG 1.1//EN"
 "http://www.w3.org/Graphics/SVG/1.1/DTD/svg11.dtd">
<!-- Generated by graphviz version 5.0.0 (20220707.1540)
 -->
<!-- Title: UmlClassDiagram Pages: 1 -->
<svg width="243pt" height="225pt"
 viewBox="0.00 0.00 242.86 224.60" xmlns="http://www.w3.org/2000/svg" xmlns:xlink="http://www.w3.org/1999/xlink">
<g id="graph0" class="graph" transform="scale(1 1) rotate(0) translate(4 220.6)">
<title>UmlClassDiagram</title>
<polygon fill="white" stroke="transparent" points="-4,4 -4,-220.6 238.86,-220.6 238.86,4 -4,4"/>
<!-- 40 -->
<g id="node1" class="node">
<title>40</title>
<polygon fill="#f2f2f2" stroke="black" points="0,-157.7 0,-216.1 234.86,-216.1 234.86,-157.7 0,-157.7"/>
<text text-anchor="middle" x="117.43" y="-199.5" font-family="Times,serif" font-size="14.00">&lt;&lt;Abstract&gt;&gt;</text>
<text text-anchor="middle" x="117.43" y="-182.7" font-family="Times,serif" font-size="14.00">Governable</text>
<text text-anchor="middle" x="117.43" y="-165.9" font-family="Times,serif" font-size="14.00">../contracts/governance/Governable.sol</text>
</g>
<!-- 226 -->
<g id="node2" class="node">
<title>226</title>
<polygon fill="#f2f2f2" stroke="black" points="17.09,-0.5 17.09,-42.1 217.77,-42.1 217.77,-0.5 17.09,-0.5"/>
<text text-anchor="middle" x="117.43" y="-25.5" font-family="Times,serif" font-size="14.00">OETHBase</text>
<text text-anchor="middle" x="117.43" y="-8.7" font-family="Times,serif" font-size="14.00">../contracts/token/OETHBase.sol</text>
</g>
<!-- 229 -->
<g id="node3" class="node">
<title>229</title>
<polygon fill="#f2f2f2" stroke="black" points="30.3,-79.1 30.3,-120.7 204.56,-120.7 204.56,-79.1 30.3,-79.1"/>
<text text-anchor="middle" x="117.43" y="-104.1" font-family="Times,serif" font-size="14.00">OUSD</text>
<text text-anchor="middle" x="117.43" y="-87.3" font-family="Times,serif" font-size="14.00">../contracts/token/OUSD.sol</text>
</g>
<!-- 226&#45;&gt;229 -->
<g id="edge1" class="edge">
<title>226&#45;&gt;229</title>
<path fill="none" stroke="black" d="M117.43,-42.43C117.43,-44.45 117.43,-46.56 117.43,-48.73"/>
<polygon fill="none" stroke="black" points="106.93,-48.91 117.43,-78.91 127.93,-48.91 106.93,-48.91"/>
</g>
<!-- 229&#45;&gt;40 -->
<g id="edge2" class="edge">
<title>229&#45;&gt;40</title>
<path fill="none" stroke="black" d="M117.43,-121.04C117.43,-123.09 117.43,-125.23 117.43,-127.43"/>
<polygon fill="none" stroke="black" points="106.93,-127.54 117.43,-157.54 127.93,-127.54 106.93,-127.54"/>
</g>
</g>
</svg>
