<?xml version="1.0" encoding="UTF-8" standalone="no"?>
<!DOCTYPE svg PUBLIC "-//W3C//DTD SVG 1.1//EN"
 "http://www.w3.org/Graphics/SVG/1.1/DTD/svg11.dtd">
<!-- Generated by graphviz version 5.0.0 (20220707.1540)
 -->
<!-- Title: UmlClassDiagram Pages: 1 -->
<svg width="971pt" height="600pt"
 viewBox="0.00 0.00 971.44 600.20" xmlns="http://www.w3.org/2000/svg" xmlns:xlink="http://www.w3.org/1999/xlink">
<g id="graph0" class="graph" transform="scale(1 1) rotate(0) translate(4 596.2)">
<title>UmlClassDiagram</title>
<polygon fill="white" stroke="transparent" points="-4,4 -4,-596.2 967.44,-596.2 967.44,4 -4,4"/>
<!-- 54 -->
<g id="node1" class="node">
<title>54</title>
<polygon fill="#f2f2f2" stroke="black" points="0,-324.2 0,-365.8 97.31,-365.8 97.31,-324.2 0,-324.2"/>
<text text-anchor="middle" x="48.66" y="-349.2" font-family="Times,serif" font-size="14.00">&lt;&lt;Interface&gt;&gt;</text>
<text text-anchor="middle" x="48.66" y="-332.4" font-family="Times,serif" font-size="14.00">IBasicToken</text>
</g>
<!-- 88 -->
<g id="node2" class="node">
<title>88</title>
<polygon fill="#f2f2f2" stroke="black" points="186,-459.5 186,-501.1 283.31,-501.1 283.31,-459.5 186,-459.5"/>
<text text-anchor="middle" x="234.66" y="-484.5" font-family="Times,serif" font-size="14.00">&lt;&lt;Interface&gt;&gt;</text>
<text text-anchor="middle" x="234.66" y="-467.7" font-family="Times,serif" font-size="14.00">IVault</text>
</g>
<!-- 286 -->
<g id="node3" class="node">
<title>286</title>
<polygon fill="#f2f2f2" stroke="black" points="217,-324.2 217,-365.8 314.31,-365.8 314.31,-324.2 217,-324.2"/>
<text text-anchor="middle" x="265.66" y="-349.2" font-family="Times,serif" font-size="14.00">&lt;&lt;Interface&gt;&gt;</text>
<text text-anchor="middle" x="265.66" y="-332.4" font-family="Times,serif" font-size="14.00">IGauge</text>
</g>
<!-- 287 -->
<g id="node4" class="node">
<title>287</title>
<polygon fill="#f2f2f2" stroke="black" points="332,-324.2 332,-365.8 429.31,-365.8 429.31,-324.2 332,-324.2"/>
<text text-anchor="middle" x="380.66" y="-349.2" font-family="Times,serif" font-size="14.00">&lt;&lt;Interface&gt;&gt;</text>
<text text-anchor="middle" x="380.66" y="-332.4" font-family="Times,serif" font-size="14.00">IPair</text>
</g>
<!-- 392 -->
<g id="node5" class="node">
<title>392</title>
<polygon fill="#f2f2f2" stroke="black" points="439.39,-0.5 439.39,-36.5 631.92,-36.5 631.92,-0.5 439.39,-0.5"/>
<text text-anchor="middle" x="535.66" y="-14.4" font-family="Times,serif" font-size="14.00">OETHSupernovaAMOStrategy</text>
</g>
<!-- 393 -->
<g id="node6" class="node">
<title>393</title>
<polygon fill="#f2f2f2" stroke="black" points="453.77,-74.5 453.77,-110.5 617.54,-110.5 617.54,-74.5 453.77,-74.5"/>
<text text-anchor="middle" x="535.66" y="-88.4" font-family="Times,serif" font-size="14.00">StableSwapAMMStrategy</text>
</g>
<!-- 392&#45;&gt;393 -->
<g id="edge1" class="edge">
<title>392&#45;&gt;393</title>
<path fill="none" stroke="black" d="M535.66,-36.56C535.66,-38.86 535.66,-41.3 535.66,-43.83"/>
<polygon fill="none" stroke="black" points="525.16,-44.06 535.66,-74.06 546.16,-44.06 525.16,-44.06"/>
</g>
<!-- 393&#45;&gt;54 -->
<g id="edge8" class="edge">
<title>393&#45;&gt;54</title>
<path fill="none" stroke="black" stroke-dasharray="5,2" d="M453.66,-94.56C330.86,-96.95 110.67,-104.62 84.11,-129 32.8,-176.12 36.97,-266.71 43.34,-313.84"/>
<polygon fill="black" stroke="black" points="39.92,-314.64 44.85,-324.02 46.85,-313.62 39.92,-314.64"/>
<text text-anchor="start" x="84.66" y="-204" font-family="Times,serif" font-size="10.00">decimals</text>
</g>
<!-- 393&#45;&gt;88 -->
<g id="edge6" class="edge">
<title>393&#45;&gt;88</title>
<path fill="none" stroke="black" stroke-dasharray="5,2" d="M453.61,-96.42C383.35,-100.27 288.61,-109.07 256.66,-129 150.2,-195.38 94.01,-271.12 142.1,-387 153.24,-413.83 176.38,-436.91 196.74,-453.27"/>
<polygon fill="black" stroke="black" points="194.62,-456.06 204.66,-459.43 198.91,-450.53 194.62,-456.06"/>
<text text-anchor="start" x="142.66" y="-378" font-family="Times,serif" font-size="10.00">asset</text>
<text text-anchor="start" x="142.66" y="-366" font-family="Times,serif" font-size="10.00">burnForStrategy</text>
<text text-anchor="start" x="142.66" y="-354" font-family="Times,serif" font-size="10.00">mint</text>
<text text-anchor="start" x="142.66" y="-342" font-family="Times,serif" font-size="10.00">mintForStrategy</text>
<text text-anchor="start" x="142.66" y="-330" font-family="Times,serif" font-size="10.00">oToken</text>
<text text-anchor="start" x="142.66" y="-318" font-family="Times,serif" font-size="10.00">strategistAddr</text>
<text text-anchor="start" x="142.66" y="-306" font-family="Times,serif" font-size="10.00">totalValue</text>
</g>
<!-- 393&#45;&gt;286 -->
<g id="edge9" class="edge">
<title>393&#45;&gt;286</title>
<path fill="none" stroke="black" stroke-dasharray="5,2" d="M453.73,-96.55C397.12,-100.41 328.44,-109.16 307.81,-129 257.45,-177.43 257.66,-267.06 261.79,-313.82"/>
<polygon fill="black" stroke="black" points="258.33,-314.33 262.81,-323.93 265.29,-313.63 258.33,-314.33"/>
<text text-anchor="start" x="308.66" y="-246" font-family="Times,serif" font-size="10.00">TOKEN</text>
<text text-anchor="start" x="308.66" y="-234" font-family="Times,serif" font-size="10.00">balanceOf</text>
<text text-anchor="start" x="308.66" y="-222" font-family="Times,serif" font-size="10.00">deposit</text>
<text text-anchor="start" x="308.66" y="-210" font-family="Times,serif" font-size="10.00">emergency</text>
<text text-anchor="start" x="308.66" y="-198" font-family="Times,serif" font-size="10.00">emergencyWithdraw</text>
<text text-anchor="start" x="308.66" y="-186" font-family="Times,serif" font-size="10.00">getReward</text>
<text text-anchor="start" x="308.66" y="-174" font-family="Times,serif" font-size="10.00">totalSupply</text>
<text text-anchor="start" x="308.66" y="-162" font-family="Times,serif" font-size="10.00">withdraw</text>
</g>
<!-- 393&#45;&gt;287 -->
<g id="edge7" class="edge">
<title>393&#45;&gt;287</title>
<path fill="none" stroke="black" stroke-dasharray="5,2" d="M495.14,-110.63C486.6,-115.62 478.2,-121.73 471.66,-129 422.36,-183.83 397.17,-269.3 386.72,-314.18"/>
<polygon fill="black" stroke="black" points="383.26,-313.63 384.49,-324.15 390.09,-315.16 383.26,-313.63"/>
<text text-anchor="start" x="472.66" y="-276" font-family="Times,serif" font-size="10.00">approve</text>
<text text-anchor="start" x="472.66" y="-264" font-family="Times,serif" font-size="10.00">balanceOf</text>
<text text-anchor="start" x="472.66" y="-252" font-family="Times,serif" font-size="10.00">burn</text>
<text text-anchor="start" x="472.66" y="-240" font-family="Times,serif" font-size="10.00">decimals</text>
<text text-anchor="start" x="472.66" y="-228" font-family="Times,serif" font-size="10.00">getAmountOut</text>
<text text-anchor="start" x="472.66" y="-216" font-family="Times,serif" font-size="10.00">getReserves</text>
<text text-anchor="start" x="472.66" y="-204" font-family="Times,serif" font-size="10.00">isStable</text>
<text text-anchor="start" x="472.66" y="-192" font-family="Times,serif" font-size="10.00">mint</text>
<text text-anchor="start" x="472.66" y="-180" font-family="Times,serif" font-size="10.00">skim</text>
<text text-anchor="start" x="472.66" y="-168" font-family="Times,serif" font-size="10.00">swap</text>
<text text-anchor="start" x="472.66" y="-156" font-family="Times,serif" font-size="10.00">token0</text>
<text text-anchor="start" x="472.66" y="-144" font-family="Times,serif" font-size="10.00">token1</text>
<text text-anchor="start" x="472.66" y="-132" font-family="Times,serif" font-size="10.00">totalSupply</text>
</g>
<!-- 246 -->
<g id="node7" class="node">
<title>246</title>
<polygon fill="#f2f2f2" stroke="black" points="447.19,-324.2 447.19,-365.8 624.13,-365.8 624.13,-324.2 447.19,-324.2"/>
<text text-anchor="middle" x="535.66" y="-349.2" font-family="Times,serif" font-size="14.00">&lt;&lt;Abstract&gt;&gt;</text>
<text text-anchor="middle" x="535.66" y="-332.4" font-family="Times,serif" font-size="14.00">InitializableAbstractStrategy</text>
</g>
<!-- 393&#45;&gt;246 -->
<g id="edge2" class="edge">
<title>393&#45;&gt;246</title>
<path fill="none" stroke="black" d="M535.66,-110.72C535.66,-147.88 535.66,-236.83 535.66,-293.53"/>
<polygon fill="none" stroke="black" points="525.16,-293.91 535.66,-323.91 546.16,-293.91 525.16,-293.91"/>
</g>
<!-- 250 -->
<g id="node8" class="node">
<title>250</title>
<polygon fill="#f2f2f2" stroke="black" points="641.88,-324.2 641.88,-365.8 731.44,-365.8 731.44,-324.2 641.88,-324.2"/>
<text text-anchor="middle" x="686.66" y="-349.2" font-family="Times,serif" font-size="14.00">&lt;&lt;Library&gt;&gt;</text>
<text text-anchor="middle" x="686.66" y="-332.4" font-family="Times,serif" font-size="14.00">StableMath</text>
</g>
<!-- 393&#45;&gt;250 -->
<g id="edge4" class="edge">
<title>393&#45;&gt;250</title>
<path fill="none" stroke="black" stroke-dasharray="5,2" d="M546.04,-110.72C571.56,-153.05 637.58,-262.59 669.24,-315.1"/>
<polygon fill="black" stroke="black" points="666.39,-317.16 674.55,-323.91 672.38,-313.54 666.39,-317.16"/>
<text text-anchor="start" x="650.66" y="-204" font-family="Times,serif" font-size="10.00">divPrecisely</text>
</g>
<!-- 1366 -->
<g id="node9" class="node">
<title>1366</title>
<polygon fill="#f2f2f2" stroke="black" points="691,-550.1 691,-591.7 788.31,-591.7 788.31,-550.1 691,-550.1"/>
<text text-anchor="middle" x="739.66" y="-575.1" font-family="Times,serif" font-size="14.00">&lt;&lt;Interface&gt;&gt;</text>
<text text-anchor="middle" x="739.66" y="-558.3" font-family="Times,serif" font-size="14.00">IERC20</text>
</g>
<!-- 393&#45;&gt;1366 -->
<g id="edge10" class="edge">
<title>393&#45;&gt;1366</title>
<path fill="none" stroke="black" stroke-dasharray="5,2" d="M617.55,-99.03C668.38,-103.99 727.69,-113.03 747.66,-129 840.53,-203.29 831.4,-268.76 818.66,-387 811.58,-452.64 820.76,-476.33 784.66,-531.6 782.13,-535.47 779.09,-539.17 775.81,-542.63"/>
<polygon fill="black" stroke="black" points="773.11,-540.37 768.32,-549.82 777.96,-545.42 773.11,-540.37"/>
<text text-anchor="start" x="817.66" y="-432" font-family="Times,serif" font-size="10.00">approve</text>
<text text-anchor="start" x="817.66" y="-420" font-family="Times,serif" font-size="10.00">balanceOf</text>
<text text-anchor="start" x="817.66" y="-408" font-family="Times,serif" font-size="10.00">totalSupply</text>
</g>
<!-- 1790 -->
<g id="node10" class="node">
<title>1790</title>
<polygon fill="#f2f2f2" stroke="black" points="694.88,-459.5 694.88,-501.1 784.44,-501.1 784.44,-459.5 694.88,-459.5"/>
<text text-anchor="middle" x="739.66" y="-484.5" font-family="Times,serif" font-size="14.00">&lt;&lt;Library&gt;&gt;</text>
<text text-anchor="middle" x="739.66" y="-467.7" font-family="Times,serif" font-size="14.00">SafeERC20</text>
</g>
<!-- 393&#45;&gt;1790 -->
<g id="edge3" class="edge">
<title>393&#45;&gt;1790</title>
<path fill="none" stroke="black" stroke-dasharray="5,2" d="M617.72,-102.35C653.92,-107.91 691.11,-116.47 703.66,-129 790.3,-215.53 763.4,-381.08 747.59,-449.04"/>
<polygon fill="black" stroke="black" points="744.11,-448.54 745.17,-459.08 750.92,-450.18 744.11,-448.54"/>
<text text-anchor="start" x="764.66" y="-342" font-family="Times,serif" font-size="10.00">safeTransfer</text>
</g>
<!-- 1391 -->
<g id="node11" class="node">
<title>1391</title>
<polygon fill="#f2f2f2" stroke="black" points="873.88,-324.2 873.88,-365.8 963.44,-365.8 963.44,-324.2 873.88,-324.2"/>
<text text-anchor="middle" x="918.66" y="-349.2" font-family="Times,serif" font-size="14.00">&lt;&lt;Library&gt;&gt;</text>
<text text-anchor="middle" x="918.66" y="-332.4" font-family="Times,serif" font-size="14.00">SafeCast</text>
</g>
<!-- 393&#45;&gt;1391 -->
<g id="edge5" class="edge">
<title>393&#45;&gt;1391</title>
<path fill="none" stroke="black" stroke-dasharray="5,2" d="M617.78,-97.73C707.69,-103.11 841.57,-113.58 859.66,-129 913.9,-175.25 920.63,-266.22 920.14,-313.63"/>
<polygon fill="black" stroke="black" points="916.64,-313.8 919.91,-323.88 923.63,-313.96 916.64,-313.8"/>
<text text-anchor="start" x="919.66" y="-204" font-family="Times,serif" font-size="10.00">toInt256</text>
</g>
<!-- 246&#45;&gt;88 -->
<g id="edge12" class="edge">
<title>246&#45;&gt;88</title>
<path fill="none" stroke="black" stroke-dasharray="5,2" d="M490.92,-365.81C437.09,-389.65 346.76,-429.66 288.98,-455.24"/>
<polygon fill="black" stroke="black" points="287.37,-452.13 279.64,-459.38 290.2,-458.53 287.37,-452.13"/>
<text text-anchor="start" x="394.66" y="-420" font-family="Times,serif" font-size="10.00">strategistAddr</text>
</g>
<!-- 246&#45;&gt;1366 -->
<g id="edge13" class="edge">
<title>246&#45;&gt;1366</title>
<path fill="none" stroke="black" stroke-dasharray="5,2" d="M546.68,-366.01C564.53,-397.27 602.05,-458.55 644.57,-501.6 660.41,-517.63 680.36,-532.58 697.89,-544.39"/>
<polygon fill="black" stroke="black" points="696,-547.34 706.28,-549.92 699.86,-541.49 696,-547.34"/>
<text text-anchor="start" x="644.66" y="-477.3" font-family="Times,serif" font-size="10.00">balanceOf</text>
</g>
<!-- 246&#45;&gt;1790 -->
<g id="edge11" class="edge">
<title>246&#45;&gt;1790</title>
<path fill="none" stroke="black" stroke-dasharray="5,2" d="M571.29,-366.01C590.59,-377.1 614.7,-391.37 635.66,-405 659.26,-420.35 685.01,-438.74 704.98,-453.38"/>
<polygon fill="black" stroke="black" points="703.04,-456.29 713.17,-459.4 707.19,-450.65 703.04,-456.29"/>
<text text-anchor="start" x="687.66" y="-420" font-family="Times,serif" font-size="10.00">safeTransfer</text>
</g>
<!-- 1790&#45;&gt;1366 -->
<g id="edge14" class="edge">
<title>1790&#45;&gt;1366</title>
<path fill="none" stroke="black" stroke-dasharray="5,2" d="M739.66,-501.4C739.66,-512.73 739.66,-527.11 739.66,-539.76"/>
<polygon fill="black" stroke="black" points="736.16,-539.87 739.66,-549.87 743.16,-539.87 736.16,-539.87"/>
<text text-anchor="start" x="739.66" y="-522.6" font-family="Times,serif" font-size="10.00">allowance</text>
</g>
</g>
</svg>
