<?xml version="1.0" encoding="UTF-8" standalone="no"?>
<!DOCTYPE svg PUBLIC "-//W3C//DTD SVG 1.1//EN"
 "http://www.w3.org/Graphics/SVG/1.1/DTD/svg11.dtd">
<!-- Generated by graphviz version 5.0.0 (20220707.1540)
 -->
<!-- Title: StorageDiagram Pages: 1 -->
<svg width="2455pt" height="931pt"
 viewBox="0.00 0.00 2454.76 930.80" xmlns="http://www.w3.org/2000/svg" xmlns:xlink="http://www.w3.org/1999/xlink">
<g id="graph0" class="graph" transform="scale(1 1) rotate(0) translate(4 926.8)">
<title>StorageDiagram</title>
<polygon fill="white" stroke="transparent" points="-4,4 -4,-926.8 2450.76,-926.8 2450.76,4 -4,4"/>
<!-- 8 -->
<g id="node1" class="node">
<title>8</title>
<polygon fill="#f2f2f2" stroke="black" points="0,-56.9 0,-875.3 1205.78,-875.3 1205.78,-56.9 0,-56.9"/>
<text text-anchor="middle" x="602.89" y="-858.7" font-family="Courier New" font-size="14.00">OETHVaultCore &lt;&lt;Contract&gt;&gt;</text>
<polyline fill="none" stroke="black" points="0,-850.5 1205.78,-850.5 "/>
<text text-anchor="middle" x="37.4" y="-833.9" font-family="Courier New" font-size="14.00">slot</text>
<polyline fill="none" stroke="black" points="0,-825.7 74.81,-825.7 "/>
<text text-anchor="middle" x="37.4" y="-809.1" font-family="Courier New" font-size="14.00">0</text>
<polyline fill="none" stroke="black" points="0,-800.9 74.81,-800.9 "/>
<text text-anchor="middle" x="37.4" y="-784.3" font-family="Courier New" font-size="14.00">1&#45;50</text>
<polyline fill="none" stroke="black" points="0,-776.1 74.81,-776.1 "/>
<text text-anchor="middle" x="37.4" y="-759.5" font-family="Courier New" font-size="14.00">51</text>
<polyline fill="none" stroke="black" points="0,-751.3 74.81,-751.3 "/>
<text text-anchor="middle" x="37.4" y="-734.7" font-family="Courier New" font-size="14.00">52</text>
<polyline fill="none" stroke="black" points="0,-726.5 74.81,-726.5 "/>
<text text-anchor="middle" x="37.4" y="-709.9" font-family="Courier New" font-size="14.00">53</text>
<polyline fill="none" stroke="black" points="0,-701.7 74.81,-701.7 "/>
<text text-anchor="middle" x="37.4" y="-685.1" font-family="Courier New" font-size="14.00">54</text>
<polyline fill="none" stroke="black" points="0,-676.9 74.81,-676.9 "/>
<text text-anchor="middle" x="37.4" y="-660.3" font-family="Courier New" font-size="14.00">55</text>
<polyline fill="none" stroke="black" points="0,-652.1 74.81,-652.1 "/>
<text text-anchor="middle" x="37.4" y="-635.5" font-family="Courier New" font-size="14.00">56</text>
<polyline fill="none" stroke="black" points="0,-627.3 74.81,-627.3 "/>
<text text-anchor="middle" x="37.4" y="-610.7" font-family="Courier New" font-size="14.00">57</text>
<polyline fill="none" stroke="black" points="0,-602.5 74.81,-602.5 "/>
<text text-anchor="middle" x="37.4" y="-585.9" font-family="Courier New" font-size="14.00">58</text>
<polyline fill="none" stroke="black" points="0,-577.7 74.81,-577.7 "/>
<text text-anchor="middle" x="37.4" y="-561.1" font-family="Courier New" font-size="14.00">59</text>
<polyline fill="none" stroke="black" points="0,-552.9 74.81,-552.9 "/>
<text text-anchor="middle" x="37.4" y="-536.3" font-family="Courier New" font-size="14.00">60</text>
<polyline fill="none" stroke="black" points="0,-528.1 74.81,-528.1 "/>
<text text-anchor="middle" x="37.4" y="-511.5" font-family="Courier New" font-size="14.00">61</text>
<polyline fill="none" stroke="black" points="0,-503.3 74.81,-503.3 "/>
<text text-anchor="middle" x="37.4" y="-486.7" font-family="Courier New" font-size="14.00">62</text>
<polyline fill="none" stroke="black" points="0,-478.5 74.81,-478.5 "/>
<text text-anchor="middle" x="37.4" y="-461.9" font-family="Courier New" font-size="14.00">63</text>
<polyline fill="none" stroke="black" points="0,-453.7 74.81,-453.7 "/>
<text text-anchor="middle" x="37.4" y="-437.1" font-family="Courier New" font-size="14.00">64</text>
<polyline fill="none" stroke="black" points="0,-428.9 74.81,-428.9 "/>
<text text-anchor="middle" x="37.4" y="-412.3" font-family="Courier New" font-size="14.00">65</text>
<polyline fill="none" stroke="black" points="0,-404.1 74.81,-404.1 "/>
<text text-anchor="middle" x="37.4" y="-387.5" font-family="Courier New" font-size="14.00">66</text>
<polyline fill="none" stroke="black" points="0,-379.3 74.81,-379.3 "/>
<text text-anchor="middle" x="37.4" y="-362.7" font-family="Courier New" font-size="14.00">67</text>
<polyline fill="none" stroke="black" points="0,-354.5 74.81,-354.5 "/>
<text text-anchor="middle" x="37.4" y="-337.9" font-family="Courier New" font-size="14.00">68</text>
<polyline fill="none" stroke="black" points="0,-329.7 74.81,-329.7 "/>
<text text-anchor="middle" x="37.4" y="-313.1" font-family="Courier New" font-size="14.00">69</text>
<polyline fill="none" stroke="black" points="0,-304.9 74.81,-304.9 "/>
<text text-anchor="middle" x="37.4" y="-288.3" font-family="Courier New" font-size="14.00">70</text>
<polyline fill="none" stroke="black" points="0,-280.1 74.81,-280.1 "/>
<text text-anchor="middle" x="37.4" y="-263.5" font-family="Courier New" font-size="14.00">71</text>
<polyline fill="none" stroke="black" points="0,-255.3 74.81,-255.3 "/>
<text text-anchor="middle" x="37.4" y="-238.7" font-family="Courier New" font-size="14.00">72</text>
<polyline fill="none" stroke="black" points="0,-230.5 74.81,-230.5 "/>
<text text-anchor="middle" x="37.4" y="-213.9" font-family="Courier New" font-size="14.00">73</text>
<polyline fill="none" stroke="black" points="0,-205.7 74.81,-205.7 "/>
<text text-anchor="middle" x="37.4" y="-189.1" font-family="Courier New" font-size="14.00">74</text>
<polyline fill="none" stroke="black" points="0,-180.9 74.81,-180.9 "/>
<text text-anchor="middle" x="37.4" y="-164.3" font-family="Courier New" font-size="14.00">75&#45;76</text>
<polyline fill="none" stroke="black" points="0,-156.1 74.81,-156.1 "/>
<text text-anchor="middle" x="37.4" y="-139.5" font-family="Courier New" font-size="14.00">77</text>
<polyline fill="none" stroke="black" points="0,-131.3 74.81,-131.3 "/>
<text text-anchor="middle" x="37.4" y="-114.7" font-family="Courier New" font-size="14.00">78&#45;122</text>
<polyline fill="none" stroke="black" points="0,-106.5 74.81,-106.5 "/>
<text text-anchor="middle" x="37.4" y="-89.9" font-family="Courier New" font-size="14.00">123</text>
<polyline fill="none" stroke="black" points="0,-81.7 74.81,-81.7 "/>
<text text-anchor="middle" x="37.4" y="-65.1" font-family="Courier New" font-size="14.00">124&#45;173</text>
<polyline fill="none" stroke="black" points="74.81,-56.9 74.81,-850.5 "/>
<text text-anchor="middle" x="640.3" y="-833.9" font-family="Courier New" font-size="14.00">type: &lt;inherited contract&gt;.variable (bytes)</text>
<polyline fill="none" stroke="black" points="74.81,-825.7 1205.78,-825.7 "/>
<text text-anchor="middle" x="208.52" y="-809.1" font-family="Courier New" font-size="14.00">unallocated (30)</text>
<polyline fill="none" stroke="black" points="342.23,-800.9 342.23,-825.7 "/>
<text text-anchor="middle" x="559.96" y="-809.1" font-family="Courier New" font-size="14.00">bool: Initializable.initializing (1)</text>
<polyline fill="none" stroke="black" points="777.68,-800.9 777.68,-825.7 "/>
<text text-anchor="middle" x="991.7" y="-809.1" font-family="Courier New" font-size="14.00">bool: Initializable.initialized (1)</text>
<polyline fill="none" stroke="black" points="74.81,-800.9 1205.78,-800.9 "/>
<text text-anchor="middle" x="639.94" y="-784.3" font-family="Courier New" font-size="14.00">uint256[50]: Initializable.______gap (1600)</text>
<polyline fill="none" stroke="black" points="74.81,-776.1 1205.78,-776.1 "/>
<text text-anchor="middle" x="640.14" y="-759.5" font-family="Courier New" font-size="14.00">mapping(address=&gt;Asset): VaultStorage.assets (32)</text>
<polyline fill="none" stroke="black" points="74.81,-751.3 1205.78,-751.3 "/>
<text text-anchor="middle" x="639.94" y="-734.7" font-family="Courier New" font-size="14.00">address[]: VaultStorage.allAssets (32)</text>
<polyline fill="none" stroke="black" points="74.81,-726.5 1205.78,-726.5 "/>
<text text-anchor="middle" x="640.05" y="-709.9" font-family="Courier New" font-size="14.00">mapping(address=&gt;Strategy): VaultStorage.strategies (32)</text>
<polyline fill="none" stroke="black" points="74.81,-701.7 1205.78,-701.7 "/>
<text text-anchor="middle" x="640.24" y="-685.1" font-family="Courier New" font-size="14.00">address[]: VaultStorage.allStrategies (32)</text>
<polyline fill="none" stroke="black" points="74.81,-676.9 1205.78,-676.9 "/>
<text text-anchor="middle" x="150.02" y="-660.3" font-family="Courier New" font-size="14.00">unallocated (10)</text>
<polyline fill="none" stroke="black" points="225.23,-652.1 225.23,-676.9 "/>
<text text-anchor="middle" x="384.46" y="-660.3" font-family="Courier New" font-size="14.00">bool: VaultStorage.capitalPaused (1)</text>
<polyline fill="none" stroke="black" points="543.68,-652.1 543.68,-676.9 "/>
<text text-anchor="middle" x="698.7" y="-660.3" font-family="Courier New" font-size="14.00">bool: VaultStorage.rebasePaused (1)</text>
<polyline fill="none" stroke="black" points="853.73,-652.1 853.73,-676.9 "/>
<text text-anchor="middle" x="1029.76" y="-660.3" font-family="Courier New" font-size="14.00">address: VaultStorage.priceProvider (20)</text>
<polyline fill="none" stroke="black" points="74.81,-652.1 1205.78,-652.1 "/>
<text text-anchor="middle" x="640.14" y="-635.5" font-family="Courier New" font-size="14.00">uint256: VaultStorage.redeemFeeBps (32)</text>
<polyline fill="none" stroke="black" points="74.81,-627.3 1205.78,-627.3 "/>
<text text-anchor="middle" x="639.94" y="-610.7" font-family="Courier New" font-size="14.00">uint256: VaultStorage.vaultBuffer (32)</text>
<polyline fill="none" stroke="black" points="74.81,-602.5 1205.78,-602.5 "/>
<text text-anchor="middle" x="639.94" y="-585.9" font-family="Courier New" font-size="14.00">uint256: VaultStorage.autoAllocateThreshold (32)</text>
<polyline fill="none" stroke="black" points="74.81,-577.7 1205.78,-577.7 "/>
<text text-anchor="middle" x="640.24" y="-561.1" font-family="Courier New" font-size="14.00">uint256: VaultStorage.rebaseThreshold (32)</text>
<polyline fill="none" stroke="black" points="74.81,-552.9 1205.78,-552.9 "/>
<text text-anchor="middle" x="332.02" y="-536.3" font-family="Courier New" font-size="14.00">unallocated (12)</text>
<polyline fill="none" stroke="black" points="589.23,-528.1 589.23,-552.9 "/>
<text text-anchor="middle" x="897.35" y="-536.3" font-family="Courier New" font-size="14.00">OUSD: VaultStorage.oUSD (20)</text>
<polyline fill="none" stroke="black" points="74.81,-528.1 1205.78,-528.1 "/>
<text text-anchor="middle" x="277.52" y="-511.5" font-family="Courier New" font-size="14.00">unallocated (12)</text>
<polyline fill="none" stroke="black" points="480.23,-503.3 480.23,-528.1 "/>
<text text-anchor="middle" x="842.57" y="-511.5" font-family="Courier New" font-size="14.00">address: VaultStorage._deprecated_rebaseHooksAddr (20)</text>
<polyline fill="none" stroke="black" points="74.81,-503.3 1205.78,-503.3 "/>
<text text-anchor="middle" x="286.02" y="-486.7" font-family="Courier New" font-size="14.00">unallocated (12)</text>
<polyline fill="none" stroke="black" points="497.23,-478.5 497.23,-503.3 "/>
<text text-anchor="middle" x="851.27" y="-486.7" font-family="Courier New" font-size="14.00">address: VaultStorage._deprecated_uniswapAddr (20)</text>
<polyline fill="none" stroke="black" points="74.81,-478.5 1205.78,-478.5 "/>
<text text-anchor="middle" x="305.02" y="-461.9" font-family="Courier New" font-size="14.00">unallocated (12)</text>
<polyline fill="none" stroke="black" points="535.23,-453.7 535.23,-478.5 "/>
<text text-anchor="middle" x="870.46" y="-461.9" font-family="Courier New" font-size="14.00">address: VaultStorage.strategistAddr (20)</text>
<polyline fill="none" stroke="black" points="74.81,-453.7 1205.78,-453.7 "/>
<text text-anchor="middle" x="640.26" y="-437.1" font-family="Courier New" font-size="14.00">mapping(address=&gt;address): VaultStorage.assetDefaultStrategies (32)</text>
<polyline fill="none" stroke="black" points="74.81,-428.9 1205.78,-428.9 "/>
<text text-anchor="middle" x="639.84" y="-412.3" font-family="Courier New" font-size="14.00">uint256: VaultStorage.maxSupplyDiff (32)</text>
<polyline fill="none" stroke="black" points="74.81,-404.1 1205.78,-404.1 "/>
<text text-anchor="middle" x="305.02" y="-387.5" font-family="Courier New" font-size="14.00">unallocated (12)</text>
<polyline fill="none" stroke="black" points="535.23,-379.3 535.23,-404.1 "/>
<text text-anchor="middle" x="870.46" y="-387.5" font-family="Courier New" font-size="14.00">address: VaultStorage.trusteeAddress (20)</text>
<polyline fill="none" stroke="black" points="74.81,-379.3 1205.78,-379.3 "/>
<text text-anchor="middle" x="639.84" y="-362.7" font-family="Courier New" font-size="14.00">uint256: VaultStorage.trusteeFeeBps (32)</text>
<polyline fill="none" stroke="black" points="74.81,-354.5 1205.78,-354.5 "/>
<text text-anchor="middle" x="640.04" y="-337.9" font-family="Courier New" font-size="14.00">address[]: VaultStorage._deprecated_swapTokens (32)</text>
<polyline fill="none" stroke="black" points="74.81,-329.7 1205.78,-329.7 "/>
<text text-anchor="middle" x="300.52" y="-313.1" font-family="Courier New" font-size="14.00">unallocated (12)</text>
<polyline fill="none" stroke="black" points="526.23,-304.9 526.23,-329.7 "/>
<text text-anchor="middle" x="865.86" y="-313.1" font-family="Courier New" font-size="14.00">address: VaultStorage.ousdMetaStrategy (20)</text>
<polyline fill="none" stroke="black" points="74.81,-304.9 1205.78,-304.9 "/>
<text text-anchor="middle" x="639.84" y="-288.3" font-family="Courier New" font-size="14.00">int256: VaultStorage.netOusdMintedForStrategy (32)</text>
<polyline fill="none" stroke="black" points="74.81,-280.1 1205.78,-280.1 "/>
<text text-anchor="middle" x="639.95" y="-263.5" font-family="Courier New" font-size="14.00">uint256: VaultStorage.netOusdMintForStrategyThreshold (32)</text>
<polyline fill="none" stroke="black" points="74.81,-255.3 1205.78,-255.3 "/>
<text text-anchor="middle" x="639.84" y="-238.7" font-family="Courier New" font-size="14.00">SwapConfig: VaultStorage.swapConfig (32)</text>
<polyline fill="none" stroke="black" points="74.81,-230.5 1205.78,-230.5 "/>
<text text-anchor="middle" x="640.26" y="-213.9" font-family="Courier New" font-size="14.00">mapping(address=&gt;bool): VaultStorage.isMintWhitelistedStrategy (32)</text>
<polyline fill="none" stroke="black" points="74.81,-205.7 1205.78,-205.7 "/>
<text text-anchor="middle" x="319.52" y="-189.1" font-family="Courier New" font-size="14.00">unallocated (12)</text>
<polyline fill="none" stroke="black" points="564.23,-180.9 564.23,-205.7 "/>
<text text-anchor="middle" x="884.55" y="-189.1" font-family="Courier New" font-size="14.00">address: VaultStorage.dripper (20)</text>
<polyline fill="none" stroke="black" points="74.81,-180.9 1205.78,-180.9 "/>
<text text-anchor="middle" x="640.05" y="-164.3" font-family="Courier New" font-size="14.00">WithdrawalQueueMetadata: VaultStorage.withdrawalQueueMetadata (64)</text>
<polyline fill="none" stroke="black" points="74.81,-156.1 1205.78,-156.1 "/>
<text text-anchor="middle" x="639.96" y="-139.5" font-family="Courier New" font-size="14.00">mapping(uint256=&gt;WithdrawalRequest): VaultStorage.withdrawalRequests (32)</text>
<polyline fill="none" stroke="black" points="74.81,-131.3 1205.78,-131.3 "/>
<text text-anchor="middle" x="639.94" y="-114.7" font-family="Courier New" font-size="14.00">uint256[45]: VaultStorage.__gap (1440)</text>
<polyline fill="none" stroke="black" points="74.81,-106.5 1205.78,-106.5 "/>
<text text-anchor="middle" x="639.93" y="-89.9" font-family="Courier New" font-size="14.00">uint256: wethAssetIndex (32)</text>
<polyline fill="none" stroke="black" points="74.81,-81.7 1205.78,-81.7 "/>
<text text-anchor="middle" x="639.83" y="-65.1" font-family="Courier New" font-size="14.00">uint256[50]: __gap (1600)</text>
</g>
<!-- 1 -->
<g id="node2" class="node">
<title>1</title>
<polygon fill="#f2f2f2" stroke="black" points="1241.78,-847.9 1241.78,-922.3 2446.76,-922.3 2446.76,-847.9 1241.78,-847.9"/>
<text text-anchor="middle" x="1844.27" y="-905.7" font-family="Courier New" font-size="14.00">Asset &lt;&lt;Struct&gt;&gt;</text>
<polyline fill="none" stroke="black" points="1241.78,-897.5 2446.76,-897.5 "/>
<text text-anchor="middle" x="1274.99" y="-880.9" font-family="Courier New" font-size="14.00">offset</text>
<polyline fill="none" stroke="black" points="1241.78,-872.7 1308.19,-872.7 "/>
<text text-anchor="middle" x="1274.99" y="-856.1" font-family="Courier New" font-size="14.00">0</text>
<polyline fill="none" stroke="black" points="1308.19,-847.9 1308.19,-897.5 "/>
<text text-anchor="middle" x="1877.48" y="-880.9" font-family="Courier New" font-size="14.00">type: variable (bytes)</text>
<polyline fill="none" stroke="black" points="1308.19,-872.7 2446.76,-872.7 "/>
<text text-anchor="middle" x="1383.4" y="-856.1" font-family="Courier New" font-size="14.00">unallocated (27)</text>
<polyline fill="none" stroke="black" points="1458.61,-847.9 1458.61,-872.7 "/>
<text text-anchor="middle" x="1617.84" y="-856.1" font-family="Courier New" font-size="14.00">uint16: allowedOracleSlippageBps (2)</text>
<polyline fill="none" stroke="black" points="1777.06,-847.9 1777.06,-872.7 "/>
<text text-anchor="middle" x="1864.88" y="-856.1" font-family="Courier New" font-size="14.00">uint8: decimals (1)</text>
<polyline fill="none" stroke="black" points="1952.69,-847.9 1952.69,-872.7 "/>
<text text-anchor="middle" x="2103.51" y="-856.1" font-family="Courier New" font-size="14.00">UnitConversion: unitConversion (1)</text>
<polyline fill="none" stroke="black" points="2254.33,-847.9 2254.33,-872.7 "/>
<text text-anchor="middle" x="2350.55" y="-856.1" font-family="Courier New" font-size="14.00">bool: isSupported (1)</text>
</g>
<!-- 8&#45;&gt;1 -->
<g id="edge1" class="edge">
<title>8:8&#45;&gt;1</title>
<path fill="none" stroke="black" d="M1205.78,-764.1C1242.36,-764.1 1211.56,-817.51 1241.78,-838.1 1243.96,-839.58 1246.15,-841.04 1248.36,-842.48"/>
<polygon fill="black" stroke="black" points="1246.62,-845.52 1256.95,-847.89 1250.36,-839.6 1246.62,-845.52"/>
</g>
<!-- 2 -->
<g id="node3" class="node">
<title>2</title>
<polygon fill="#f2f2f2" stroke="black" points="1559.03,-737.5 1559.03,-828.7 2129.52,-828.7 2129.52,-737.5 1559.03,-737.5"/>
<text text-anchor="middle" x="1844.27" y="-812.1" font-family="Courier New" font-size="14.00">address[]: allAssets &lt;&lt;Array&gt;&gt;</text>
<text text-anchor="middle" x="1844.27" y="-795.3" font-family="Courier New" font-size="14.00">0x46bddb1178e94d7f2892ff5f366840eb658911794f2c3a44c450aa2c505186c1</text>
<polyline fill="none" stroke="black" points="1559.03,-787.1 2129.52,-787.1 "/>
<text text-anchor="middle" x="1651.23" y="-770.5" font-family="Courier New" font-size="14.00">offset</text>
<polyline fill="none" stroke="black" points="1559.03,-762.3 1743.44,-762.3 "/>
<text text-anchor="middle" x="1651.23" y="-745.7" font-family="Courier New" font-size="14.00">0</text>
<polyline fill="none" stroke="black" points="1743.44,-737.5 1743.44,-787.1 "/>
<text text-anchor="middle" x="1936.06" y="-770.5" font-family="Courier New" font-size="14.00">type: variable (bytes)</text>
<polyline fill="none" stroke="black" points="1743.44,-762.3 2128.67,-762.3 "/>
<text text-anchor="middle" x="1848.15" y="-745.7" font-family="Courier New" font-size="14.00">unallocated (12)</text>
<polyline fill="none" stroke="black" points="1952.86,-737.5 1952.86,-762.3 "/>
<text text-anchor="middle" x="2040.77" y="-745.7" font-family="Courier New" font-size="14.00">address (20)</text>
</g>
<!-- 8&#45;&gt;2 -->
<g id="edge2" class="edge">
<title>8:10&#45;&gt;2</title>
<path fill="none" stroke="black" d="M1205.78,-739.1C1317.94,-739.1 1440.92,-745.96 1548.7,-754.27"/>
<polygon fill="black" stroke="black" points="1548.51,-757.76 1558.75,-755.05 1549.05,-750.78 1548.51,-757.76"/>
</g>
<!-- 3 -->
<g id="node4" class="node">
<title>3</title>
<polygon fill="#f2f2f2" stroke="black" points="1639.64,-619.5 1639.64,-718.7 2048.9,-718.7 2048.9,-619.5 1639.64,-619.5"/>
<text text-anchor="middle" x="1844.27" y="-702.1" font-family="Courier New" font-size="14.00">Strategy &lt;&lt;Struct&gt;&gt;</text>
<polyline fill="none" stroke="black" points="1639.64,-693.9 2048.9,-693.9 "/>
<text text-anchor="middle" x="1672.85" y="-677.3" font-family="Courier New" font-size="14.00">offset</text>
<polyline fill="none" stroke="black" points="1639.64,-669.1 1706.05,-669.1 "/>
<text text-anchor="middle" x="1672.85" y="-652.5" font-family="Courier New" font-size="14.00">0</text>
<polyline fill="none" stroke="black" points="1639.64,-644.3 1706.05,-644.3 "/>
<text text-anchor="middle" x="1672.85" y="-627.7" font-family="Courier New" font-size="14.00">1</text>
<polyline fill="none" stroke="black" points="1706.05,-619.5 1706.05,-693.9 "/>
<text text-anchor="middle" x="1877.48" y="-677.3" font-family="Courier New" font-size="14.00">type: variable (bytes)</text>
<polyline fill="none" stroke="black" points="1706.05,-669.1 2048.9,-669.1 "/>
<text text-anchor="middle" x="1781.26" y="-652.5" font-family="Courier New" font-size="14.00">unallocated (31)</text>
<polyline fill="none" stroke="black" points="1856.47,-644.3 1856.47,-669.1 "/>
<text text-anchor="middle" x="1952.69" y="-652.5" font-family="Courier New" font-size="14.00">bool: isSupported (1)</text>
<polyline fill="none" stroke="black" points="1706.05,-644.3 2048.9,-644.3 "/>
<text text-anchor="middle" x="1877.07" y="-627.7" font-family="Courier New" font-size="14.00">uint256: _deprecated (32)</text>
</g>
<!-- 8&#45;&gt;3 -->
<g id="edge3" class="edge">
<title>8:13&#45;&gt;3</title>
<path fill="none" stroke="black" d="M1205.78,-714.1C1347.16,-714.1 1505.74,-702.95 1629.37,-691.75"/>
<polygon fill="black" stroke="black" points="1629.69,-695.24 1639.33,-690.84 1629.06,-688.27 1629.69,-695.24"/>
</g>
<!-- 4 -->
<g id="node5" class="node">
<title>4</title>
<polygon fill="#f2f2f2" stroke="black" points="1559.03,-509.5 1559.03,-600.7 2129.52,-600.7 2129.52,-509.5 1559.03,-509.5"/>
<text text-anchor="middle" x="1844.27" y="-584.1" font-family="Courier New" font-size="14.00">address[]: allStrategies &lt;&lt;Array&gt;&gt;</text>
<text text-anchor="middle" x="1844.27" y="-567.3" font-family="Courier New" font-size="14.00">0x4a11f94e20a93c79f6ec743a1954ec4fc2c08429ae2122118bf234b2185c81b8</text>
<polyline fill="none" stroke="black" points="1559.03,-559.1 2129.52,-559.1 "/>
<text text-anchor="middle" x="1651.23" y="-542.5" font-family="Courier New" font-size="14.00">offset</text>
<polyline fill="none" stroke="black" points="1559.03,-534.3 1743.44,-534.3 "/>
<text text-anchor="middle" x="1651.23" y="-517.7" font-family="Courier New" font-size="14.00">0</text>
<polyline fill="none" stroke="black" points="1743.44,-509.5 1743.44,-559.1 "/>
<text text-anchor="middle" x="1936.06" y="-542.5" font-family="Courier New" font-size="14.00">type: variable (bytes)</text>
<polyline fill="none" stroke="black" points="1743.44,-534.3 2128.67,-534.3 "/>
<text text-anchor="middle" x="1848.15" y="-517.7" font-family="Courier New" font-size="14.00">unallocated (12)</text>
<polyline fill="none" stroke="black" points="1952.86,-509.5 1952.86,-534.3 "/>
<text text-anchor="middle" x="2040.77" y="-517.7" font-family="Courier New" font-size="14.00">address (20)</text>
</g>
<!-- 8&#45;&gt;4 -->
<g id="edge4" class="edge">
<title>8:15&#45;&gt;4</title>
<path fill="none" stroke="black" d="M1205.78,-689.1C1244.37,-689.1 1210.32,-632.43 1241.78,-610.1 1329.49,-547.85 1443.47,-526.66 1548.59,-523.61"/>
<polygon fill="black" stroke="black" points="1548.82,-527.1 1558.74,-523.37 1548.66,-520.11 1548.82,-527.1"/>
</g>
<!-- 5 -->
<g id="node6" class="node">
<title>5</title>
<polygon fill="#f2f2f2" stroke="black" points="1505.62,-236.9 1505.62,-311.3 2182.92,-311.3 2182.92,-236.9 1505.62,-236.9"/>
<text text-anchor="middle" x="1844.27" y="-294.7" font-family="Courier New" font-size="14.00">SwapConfig &lt;&lt;Struct&gt;&gt;</text>
<polyline fill="none" stroke="black" points="1505.62,-286.5 2182.92,-286.5 "/>
<text text-anchor="middle" x="1530.43" y="-269.9" font-family="Courier New" font-size="14.00">slot</text>
<polyline fill="none" stroke="black" points="1505.62,-261.7 1555.23,-261.7 "/>
<text text-anchor="middle" x="1530.43" y="-245.1" font-family="Courier New" font-size="14.00">72</text>
<polyline fill="none" stroke="black" points="1555.23,-236.9 1555.23,-286.5 "/>
<text text-anchor="middle" x="1869.08" y="-269.9" font-family="Courier New" font-size="14.00">type: variable (bytes)</text>
<polyline fill="none" stroke="black" points="1555.23,-261.7 2182.92,-261.7 "/>
<text text-anchor="middle" x="1630.44" y="-245.1" font-family="Courier New" font-size="14.00">unallocated (10)</text>
<polyline fill="none" stroke="black" points="1705.65,-236.9 1705.65,-261.7 "/>
<text text-anchor="middle" x="1848.07" y="-245.1" font-family="Courier New" font-size="14.00">uint16: allowedUndervalueBps (2)</text>
<polyline fill="none" stroke="black" points="1990.49,-236.9 1990.49,-261.7 "/>
<text text-anchor="middle" x="2086.71" y="-245.1" font-family="Courier New" font-size="14.00">address: swapper (20)</text>
</g>
<!-- 8&#45;&gt;5 -->
<g id="edge5" class="edge">
<title>8:37&#45;&gt;5</title>
<path fill="none" stroke="black" d="M1205.78,-243.1C1299.73,-243.1 1401.37,-246.5 1495.31,-251.05"/>
<polygon fill="black" stroke="black" points="1495.39,-254.56 1505.55,-251.55 1495.73,-247.57 1495.39,-254.56"/>
</g>
<!-- 6 -->
<g id="node7" class="node">
<title>6</title>
<polygon fill="#f2f2f2" stroke="black" points="1576.63,-118.5 1576.63,-217.7 2111.91,-217.7 2111.91,-118.5 1576.63,-118.5"/>
<text text-anchor="middle" x="1844.27" y="-201.1" font-family="Courier New" font-size="14.00">WithdrawalQueueMetadata &lt;&lt;Struct&gt;&gt;</text>
<polyline fill="none" stroke="black" points="1576.63,-192.9 2111.91,-192.9 "/>
<text text-anchor="middle" x="1601.44" y="-176.3" font-family="Courier New" font-size="14.00">slot</text>
<polyline fill="none" stroke="black" points="1576.63,-168.1 1626.24,-168.1 "/>
<text text-anchor="middle" x="1601.44" y="-151.5" font-family="Courier New" font-size="14.00">75</text>
<polyline fill="none" stroke="black" points="1576.63,-143.3 1626.24,-143.3 "/>
<text text-anchor="middle" x="1601.44" y="-126.7" font-family="Courier New" font-size="14.00">76</text>
<polyline fill="none" stroke="black" points="1626.24,-118.5 1626.24,-192.9 "/>
<text text-anchor="middle" x="1869.08" y="-176.3" font-family="Courier New" font-size="14.00">type: variable (bytes)</text>
<polyline fill="none" stroke="black" points="1626.24,-168.1 2111.91,-168.1 "/>
<text text-anchor="middle" x="1753.85" y="-151.5" font-family="Courier New" font-size="14.00">uint128: claimable (16)</text>
<polyline fill="none" stroke="black" points="1881.47,-143.3 1881.47,-168.1 "/>
<text text-anchor="middle" x="1996.48" y="-151.5" font-family="Courier New" font-size="14.00">uint128: queued (16)</text>
<polyline fill="none" stroke="black" points="1626.24,-143.3 2111.91,-143.3 "/>
<text text-anchor="middle" x="1772.86" y="-126.7" font-family="Courier New" font-size="14.00">uint128: nextWithdrawalIndex (16)</text>
<polyline fill="none" stroke="black" points="1919.48,-118.5 1919.48,-143.3 "/>
<text text-anchor="middle" x="2015.7" y="-126.7" font-family="Courier New" font-size="14.00">uint128: claimed (16)</text>
</g>
<!-- 8&#45;&gt;6 -->
<g id="edge6" class="edge">
<title>8:44&#45;&gt;6</title>
<path fill="none" stroke="black" d="M1205.78,-168.1C1323.96,-168.1 1454.46,-168.1 1566.44,-168.1"/>
<polygon fill="black" stroke="black" points="1566.53,-171.6 1576.53,-168.1 1566.53,-164.6 1566.53,-171.6"/>
</g>
<!-- 7 -->
<g id="node8" class="node">
<title>7</title>
<polygon fill="#f2f2f2" stroke="black" points="1455.62,-0.5 1455.62,-99.7 2232.93,-99.7 2232.93,-0.5 1455.62,-0.5"/>
<text text-anchor="middle" x="1844.27" y="-83.1" font-family="Courier New" font-size="14.00">WithdrawalRequest &lt;&lt;Struct&gt;&gt;</text>
<polyline fill="none" stroke="black" points="1455.62,-74.9 2232.93,-74.9 "/>
<text text-anchor="middle" x="1488.82" y="-58.3" font-family="Courier New" font-size="14.00">offset</text>
<polyline fill="none" stroke="black" points="1455.62,-50.1 1522.02,-50.1 "/>
<text text-anchor="middle" x="1488.82" y="-33.5" font-family="Courier New" font-size="14.00">0</text>
<polyline fill="none" stroke="black" points="1455.62,-25.3 1522.02,-25.3 "/>
<text text-anchor="middle" x="1488.82" y="-8.7" font-family="Courier New" font-size="14.00">1</text>
<polyline fill="none" stroke="black" points="1522.02,-0.5 1522.02,-74.9 "/>
<text text-anchor="middle" x="1877.48" y="-58.3" font-family="Courier New" font-size="14.00">type: variable (bytes)</text>
<polyline fill="none" stroke="black" points="1522.02,-50.1 2232.93,-50.1 "/>
<text text-anchor="middle" x="1593.04" y="-33.5" font-family="Courier New" font-size="14.00">unallocated (6)</text>
<polyline fill="none" stroke="black" points="1664.05,-25.3 1664.05,-50.1 "/>
<text text-anchor="middle" x="1760.26" y="-33.5" font-family="Courier New" font-size="14.00">uint40: timestamp (5)</text>
<polyline fill="none" stroke="black" points="1856.47,-25.3 1856.47,-50.1 "/>
<text text-anchor="middle" x="1935.89" y="-33.5" font-family="Courier New" font-size="14.00">bool: claimed (1)</text>
<polyline fill="none" stroke="black" points="2015.3,-25.3 2015.3,-50.1 "/>
<text text-anchor="middle" x="2124.11" y="-33.5" font-family="Courier New" font-size="14.00">address: withdrawer (20)</text>
<polyline fill="none" stroke="black" points="1522.02,-25.3 2232.93,-25.3 "/>
<text text-anchor="middle" x="1699.54" y="-8.7" font-family="Courier New" font-size="14.00">uint128: queued (16)</text>
<polyline fill="none" stroke="black" points="1877.05,-0.5 1877.05,-25.3 "/>
<text text-anchor="middle" x="2054.57" y="-8.7" font-family="Courier New" font-size="14.00">uint128: amount (16)</text>
</g>
<!-- 8&#45;&gt;7 -->
<g id="edge7" class="edge">
<title>8:50&#45;&gt;7</title>
<path fill="none" stroke="black" d="M1205.78,-144.1C1228.1,-144.1 1221.54,-118.49 1241.78,-109.1 1304.6,-79.94 1375.01,-61.9 1444.92,-51.18"/>
<polygon fill="black" stroke="black" points="1445.86,-54.58 1455.23,-49.65 1444.83,-47.65 1445.86,-54.58"/>
</g>
</g>
</svg>
