<?xml version="1.0" encoding="UTF-8" standalone="no"?>
<!DOCTYPE svg PUBLIC "-//W3C//DTD SVG 1.1//EN"
 "http://www.w3.org/Graphics/SVG/1.1/DTD/svg11.dtd">
<!-- Generated by graphviz version 5.0.0 (20220707.1540)
 -->
<!-- Title: UmlClassDiagram Pages: 1 -->
<svg width="1136pt" height="573pt"
 viewBox="0.00 0.00 1136.23 572.60" xmlns="http://www.w3.org/2000/svg" xmlns:xlink="http://www.w3.org/1999/xlink">
<g id="graph0" class="graph" transform="scale(1 1) rotate(0) translate(4 568.6)">
<title>UmlClassDiagram</title>
<polygon fill="white" stroke="transparent" points="-4,4 -4,-568.6 1132.23,-568.6 1132.23,4 -4,4"/>
<!-- 7 -->
<g id="node1" class="node">
<title>7</title>
<polygon fill="#f2f2f2" stroke="black" points="0,-418.7 0,-460.3 234.86,-460.3 234.86,-418.7 0,-418.7"/>
<text text-anchor="middle" x="117.43" y="-443.7" font-family="Times,serif" font-size="14.00">Governable</text>
<text text-anchor="middle" x="117.43" y="-426.9" font-family="Times,serif" font-size="14.00">../contracts/governance/Governable.sol</text>
</g>
<!-- 26 -->
<g id="node2" class="node">
<title>26</title>
<polygon fill="#f2f2f2" stroke="black" points="346.96,-157.7 346.96,-216.1 647.9,-216.1 647.9,-157.7 346.96,-157.7"/>
<text text-anchor="middle" x="497.43" y="-199.5" font-family="Times,serif" font-size="14.00">&lt;&lt;Interface&gt;&gt;</text>
<text text-anchor="middle" x="497.43" y="-182.7" font-family="Times,serif" font-size="14.00">IGetExchangeRateToken</text>
<text text-anchor="middle" x="497.43" y="-165.9" font-family="Times,serif" font-size="14.00">../contracts/interfaces/IGetExchangeRateToken.sol</text>
</g>
<!-- 34 -->
<g id="node3" class="node">
<title>34</title>
<polygon fill="#f2f2f2" stroke="black" points="665.72,-157.7 665.72,-216.1 867.14,-216.1 867.14,-157.7 665.72,-157.7"/>
<text text-anchor="middle" x="766.43" y="-199.5" font-family="Times,serif" font-size="14.00">&lt;&lt;Interface&gt;&gt;</text>
<text text-anchor="middle" x="766.43" y="-182.7" font-family="Times,serif" font-size="14.00">IOracle</text>
<text text-anchor="middle" x="766.43" y="-165.9" font-family="Times,serif" font-size="14.00">../contracts/interfaces/IOracle.sol</text>
</g>
<!-- 37 -->
<g id="node4" class="node">
<title>37</title>
<polygon fill="#f2f2f2" stroke="black" points="885.05,-157.7 885.05,-216.1 1095.81,-216.1 1095.81,-157.7 885.05,-157.7"/>
<text text-anchor="middle" x="990.43" y="-199.5" font-family="Times,serif" font-size="14.00">&lt;&lt;Interface&gt;&gt;</text>
<text text-anchor="middle" x="990.43" y="-182.7" font-family="Times,serif" font-size="14.00">IStrategy</text>
<text text-anchor="middle" x="990.43" y="-165.9" font-family="Times,serif" font-size="14.00">../contracts/interfaces/IStrategy.sol</text>
</g>
<!-- 160 -->
<g id="node5" class="node">
<title>160</title>
<polygon fill="#f2f2f2" stroke="black" points="263.3,-331.7 263.3,-373.3 437.56,-373.3 437.56,-331.7 263.3,-331.7"/>
<text text-anchor="middle" x="350.43" y="-356.7" font-family="Times,serif" font-size="14.00">OUSD</text>
<text text-anchor="middle" x="350.43" y="-339.9" font-family="Times,serif" font-size="14.00">../contracts/token/OUSD.sol</text>
</g>
<!-- 160&#45;&gt;7 -->
<g id="edge3" class="edge">
<title>160&#45;&gt;7</title>
<path fill="none" stroke="black" d="M296.1,-373.32C267.62,-383.71 232.14,-396.65 200.31,-408.26"/>
<polygon fill="none" stroke="black" points="196.43,-398.5 171.85,-418.65 203.63,-418.23 196.43,-398.5"/>
</g>
<!-- 167 -->
<g id="node6" class="node">
<title>167</title>
<polygon fill="#f2f2f2" stroke="black" points="252.42,-410.3 252.42,-468.7 448.44,-468.7 448.44,-410.3 252.42,-410.3"/>
<text text-anchor="middle" x="350.43" y="-452.1" font-family="Times,serif" font-size="14.00">&lt;&lt;Abstract&gt;&gt;</text>
<text text-anchor="middle" x="350.43" y="-435.3" font-family="Times,serif" font-size="14.00">Initializable</text>
<text text-anchor="middle" x="350.43" y="-418.5" font-family="Times,serif" font-size="14.00">../contracts/utils/Initializable.sol</text>
</g>
<!-- 160&#45;&gt;167 -->
<g id="edge1" class="edge">
<title>160&#45;&gt;167</title>
<path fill="none" stroke="black" d="M350.43,-373.64C350.43,-375.69 350.43,-377.83 350.43,-380.03"/>
<polygon fill="none" stroke="black" points="339.93,-380.14 350.43,-410.14 360.93,-380.14 339.93,-380.14"/>
</g>
<!-- 170 -->
<g id="node7" class="node">
<title>170</title>
<polygon fill="#f2f2f2" stroke="black" points="466.1,-410.3 466.1,-468.7 750.76,-468.7 750.76,-410.3 466.1,-410.3"/>
<text text-anchor="middle" x="608.43" y="-452.1" font-family="Times,serif" font-size="14.00">&lt;&lt;Abstract&gt;&gt;</text>
<text text-anchor="middle" x="608.43" y="-435.3" font-family="Times,serif" font-size="14.00">InitializableERC20Detailed</text>
<text text-anchor="middle" x="608.43" y="-418.5" font-family="Times,serif" font-size="14.00">../contracts/utils/InitializableERC20Detailed.sol</text>
</g>
<!-- 160&#45;&gt;170 -->
<g id="edge2" class="edge">
<title>160&#45;&gt;170</title>
<path fill="none" stroke="black" d="M410.59,-373.32C435.48,-381.52 465.2,-391.31 493.94,-400.78"/>
<polygon fill="none" stroke="black" points="490.94,-410.85 522.72,-410.26 497.51,-390.9 490.94,-410.85"/>
</g>
<!-- 342 -->
<g id="node12" class="node">
<title>342</title>
<polygon fill="#f2f2f2" stroke="black" points="406.37,-505.7 406.37,-564.1 810.48,-564.1 810.48,-505.7 406.37,-505.7"/>
<text text-anchor="middle" x="608.43" y="-547.5" font-family="Times,serif" font-size="14.00">&lt;&lt;Interface&gt;&gt;</text>
<text text-anchor="middle" x="608.43" y="-530.7" font-family="Times,serif" font-size="14.00">IERC20</text>
<text text-anchor="middle" x="608.43" y="-513.9" font-family="Times,serif" font-size="14.00">../node_modules/@openzeppelin/contracts/token/ERC20/IERC20.sol</text>
</g>
<!-- 170&#45;&gt;342 -->
<g id="edge4" class="edge">
<title>170&#45;&gt;342</title>
<path fill="none" stroke="black" stroke-dasharray="5,2" d="M608.43,-468.78C608.43,-470.86 608.43,-473 608.43,-475.18"/>
<polygon fill="none" stroke="black" points="597.93,-475.4 608.43,-505.4 618.93,-475.4 597.93,-475.4"/>
</g>
<!-- 174 -->
<g id="node8" class="node">
<title>174</title>
<polygon fill="#f2f2f2" stroke="black" points="383.09,-0.5 383.09,-42.1 611.77,-42.1 611.77,-0.5 383.09,-0.5"/>
<text text-anchor="middle" x="497.43" y="-25.5" font-family="Times,serif" font-size="14.00">OETHVaultCore</text>
<text text-anchor="middle" x="497.43" y="-8.7" font-family="Times,serif" font-size="14.00">../contracts/vault/OETHVaultCore.sol</text>
</g>
<!-- 178 -->
<g id="node9" class="node">
<title>178</title>
<polygon fill="#f2f2f2" stroke="black" points="401.76,-79.1 401.76,-120.7 593.1,-120.7 593.1,-79.1 401.76,-79.1"/>
<text text-anchor="middle" x="497.43" y="-104.1" font-family="Times,serif" font-size="14.00">VaultCore</text>
<text text-anchor="middle" x="497.43" y="-87.3" font-family="Times,serif" font-size="14.00">../contracts/vault/VaultCore.sol</text>
</g>
<!-- 174&#45;&gt;178 -->
<g id="edge5" class="edge">
<title>174&#45;&gt;178</title>
<path fill="none" stroke="black" d="M497.43,-42.43C497.43,-44.45 497.43,-46.56 497.43,-48.73"/>
<polygon fill="none" stroke="black" points="486.93,-48.91 497.43,-78.91 507.93,-48.91 486.93,-48.91"/>
</g>
<!-- 178&#45;&gt;26 -->
<g id="edge10" class="edge">
<title>178&#45;&gt;26</title>
<path fill="none" stroke="black" stroke-dasharray="5,2" d="M497.43,-121.04C497.43,-128.96 497.43,-138.33 497.43,-147.44"/>
<polygon fill="black" stroke="black" points="493.93,-147.54 497.43,-157.54 500.93,-147.54 493.93,-147.54"/>
</g>
<!-- 178&#45;&gt;34 -->
<g id="edge9" class="edge">
<title>178&#45;&gt;34</title>
<path fill="none" stroke="black" stroke-dasharray="5,2" d="M560.16,-120.72C591.95,-130.77 631.3,-143.2 667.08,-154.51"/>
<polygon fill="black" stroke="black" points="666.48,-157.99 677.07,-157.66 668.59,-151.31 666.48,-157.99"/>
</g>
<!-- 178&#45;&gt;37 -->
<g id="edge8" class="edge">
<title>178&#45;&gt;37</title>
<path fill="none" stroke="black" stroke-dasharray="5,2" d="M593.29,-112.47C667.7,-122.07 773.61,-137.08 874.83,-156.95"/>
<polygon fill="black" stroke="black" points="874.44,-160.44 884.93,-158.95 875.8,-153.57 874.44,-160.44"/>
</g>
<!-- 179 -->
<g id="node10" class="node">
<title>179</title>
<polygon fill="#f2f2f2" stroke="black" points="110.16,-166.1 110.16,-207.7 328.7,-207.7 328.7,-166.1 110.16,-166.1"/>
<text text-anchor="middle" x="219.43" y="-191.1" font-family="Times,serif" font-size="14.00">VaultInitializer</text>
<text text-anchor="middle" x="219.43" y="-174.3" font-family="Times,serif" font-size="14.00">../contracts/vault/VaultInitializer.sol</text>
</g>
<!-- 178&#45;&gt;179 -->
<g id="edge6" class="edge">
<title>178&#45;&gt;179</title>
<path fill="none" stroke="black" d="M432.6,-120.72C397.06,-131.59 352.37,-145.25 313.09,-157.26"/>
<polygon fill="none" stroke="black" points="309.98,-147.23 284.36,-166.05 316.12,-167.32 309.98,-147.23"/>
</g>
<!-- 178&#45;&gt;342 -->
<g id="edge7" class="edge">
<title>178&#45;&gt;342</title>
<path fill="none" stroke="black" stroke-dasharray="5,2" d="M593.2,-103.45C754.85,-108.69 1067.87,-123.13 1104.43,-157.2 1142.55,-192.73 1123.43,-220.79 1123.43,-272.9 1123.43,-272.9 1123.43,-272.9 1123.43,-353.5 1123.43,-424.92 944.76,-474.8 797.9,-503.72"/>
<polygon fill="black" stroke="black" points="796.98,-500.34 787.83,-505.69 798.31,-507.21 796.98,-500.34"/>
</g>
<!-- 179&#45;&gt;160 -->
<g id="edge12" class="edge">
<title>179&#45;&gt;160</title>
<path fill="none" stroke="black" stroke-dasharray="5,2" d="M274.06,-207.81C295.03,-218.1 317.31,-232.75 331.43,-252.6 345.65,-272.59 349.99,-300.37 351.01,-321.4"/>
<polygon fill="black" stroke="black" points="347.51,-321.51 351.27,-331.41 354.51,-321.33 347.51,-321.51"/>
</g>
<!-- 180 -->
<g id="node11" class="node">
<title>180</title>
<polygon fill="#f2f2f2" stroke="black" points="115.98,-253.1 115.98,-294.7 322.88,-294.7 322.88,-253.1 115.98,-253.1"/>
<text text-anchor="middle" x="219.43" y="-278.1" font-family="Times,serif" font-size="14.00">VaultStorage</text>
<text text-anchor="middle" x="219.43" y="-261.3" font-family="Times,serif" font-size="14.00">../contracts/vault/VaultStorage.sol</text>
</g>
<!-- 179&#45;&gt;180 -->
<g id="edge11" class="edge">
<title>179&#45;&gt;180</title>
<path fill="none" stroke="black" d="M219.43,-208.04C219.43,-212.6 219.43,-217.63 219.43,-222.81"/>
<polygon fill="none" stroke="black" points="208.93,-222.9 219.43,-252.9 229.93,-222.9 208.93,-222.9"/>
</g>
<!-- 180&#45;&gt;7 -->
<g id="edge14" class="edge">
<title>180&#45;&gt;7</title>
<path fill="none" stroke="black" d="M206.92,-294.96C191.82,-319.19 165.94,-360.69 145.89,-392.86"/>
<polygon fill="none" stroke="black" points="136.84,-387.52 129.88,-418.53 154.66,-398.63 136.84,-387.52"/>
</g>
<!-- 180&#45;&gt;160 -->
<g id="edge15" class="edge">
<title>180&#45;&gt;160</title>
<path fill="none" stroke="black" d="M253.51,-294.83C270.03,-304.49 290.06,-316.2 307.6,-326.46"/>
<polygon fill="black" stroke="black" points="306.12,-329.65 316.52,-331.67 309.66,-323.6 306.12,-329.65"/>
</g>
<!-- 180&#45;&gt;167 -->
<g id="edge13" class="edge">
<title>180&#45;&gt;167</title>
<path fill="none" stroke="black" d="M222.66,-294.89C226.92,-316.24 236.14,-350.18 254.43,-373.8 259.45,-380.28 265.3,-386.34 271.6,-391.94"/>
<polygon fill="none" stroke="black" points="265.41,-400.43 295.65,-410.21 278.11,-383.7 265.41,-400.43"/>
</g>
</g>
</svg>
