<?xml version="1.0" encoding="UTF-8" standalone="no"?>
<!DOCTYPE svg PUBLIC "-//W3C//DTD SVG 1.1//EN"
 "http://www.w3.org/Graphics/SVG/1.1/DTD/svg11.dtd">
<!-- Generated by graphviz version 5.0.0 (20220707.1540)
 -->
<!-- Title: StorageDiagram Pages: 1 -->
<svg width="2455pt" height="930pt"
 viewBox="0.00 0.00 2454.76 929.80" xmlns="http://www.w3.org/2000/svg" xmlns:xlink="http://www.w3.org/1999/xlink">
<g id="graph0" class="graph" transform="scale(1 1) rotate(0) translate(4 925.8)">
<title>StorageDiagram</title>
<polygon fill="white" stroke="transparent" points="-4,4 -4,-925.8 2450.76,-925.8 2450.76,4 -4,4"/>
<!-- 8 -->
<g id="node1" class="node">
<title>8</title>
<polygon fill="#f2f2f2" stroke="black" points="0,-31.5 0,-874.7 1205.78,-874.7 1205.78,-31.5 0,-31.5"/>
<text text-anchor="middle" x="602.89" y="-858.1" font-family="Courier New" font-size="14.00">OETHVaultCore &lt;&lt;Contract&gt;&gt;</text>
<polyline fill="none" stroke="black" points="0,-849.9 1205.78,-849.9 "/>
<text text-anchor="middle" x="37.4" y="-833.3" font-family="Courier New" font-size="14.00">slot</text>
<polyline fill="none" stroke="black" points="0,-825.1 74.81,-825.1 "/>
<text text-anchor="middle" x="37.4" y="-808.5" font-family="Courier New" font-size="14.00">0</text>
<polyline fill="none" stroke="black" points="0,-800.3 74.81,-800.3 "/>
<text text-anchor="middle" x="37.4" y="-783.7" font-family="Courier New" font-size="14.00">1&#45;50</text>
<polyline fill="none" stroke="black" points="0,-775.5 74.81,-775.5 "/>
<text text-anchor="middle" x="37.4" y="-758.9" font-family="Courier New" font-size="14.00">51</text>
<polyline fill="none" stroke="black" points="0,-750.7 74.81,-750.7 "/>
<text text-anchor="middle" x="37.4" y="-734.1" font-family="Courier New" font-size="14.00">52</text>
<polyline fill="none" stroke="black" points="0,-725.9 74.81,-725.9 "/>
<text text-anchor="middle" x="37.4" y="-709.3" font-family="Courier New" font-size="14.00">53</text>
<polyline fill="none" stroke="black" points="0,-701.1 74.81,-701.1 "/>
<text text-anchor="middle" x="37.4" y="-684.5" font-family="Courier New" font-size="14.00">54</text>
<polyline fill="none" stroke="black" points="0,-676.3 74.81,-676.3 "/>
<text text-anchor="middle" x="37.4" y="-659.7" font-family="Courier New" font-size="14.00">55</text>
<polyline fill="none" stroke="black" points="0,-651.5 74.81,-651.5 "/>
<text text-anchor="middle" x="37.4" y="-634.9" font-family="Courier New" font-size="14.00">56</text>
<polyline fill="none" stroke="black" points="0,-626.7 74.81,-626.7 "/>
<text text-anchor="middle" x="37.4" y="-610.1" font-family="Courier New" font-size="14.00">57</text>
<polyline fill="none" stroke="black" points="0,-601.9 74.81,-601.9 "/>
<text text-anchor="middle" x="37.4" y="-585.3" font-family="Courier New" font-size="14.00">58</text>
<polyline fill="none" stroke="black" points="0,-577.1 74.81,-577.1 "/>
<text text-anchor="middle" x="37.4" y="-560.5" font-family="Courier New" font-size="14.00">59</text>
<polyline fill="none" stroke="black" points="0,-552.3 74.81,-552.3 "/>
<text text-anchor="middle" x="37.4" y="-535.7" font-family="Courier New" font-size="14.00">60</text>
<polyline fill="none" stroke="black" points="0,-527.5 74.81,-527.5 "/>
<text text-anchor="middle" x="37.4" y="-510.9" font-family="Courier New" font-size="14.00">61</text>
<polyline fill="none" stroke="black" points="0,-502.7 74.81,-502.7 "/>
<text text-anchor="middle" x="37.4" y="-486.1" font-family="Courier New" font-size="14.00">62</text>
<polyline fill="none" stroke="black" points="0,-477.9 74.81,-477.9 "/>
<text text-anchor="middle" x="37.4" y="-461.3" font-family="Courier New" font-size="14.00">63</text>
<polyline fill="none" stroke="black" points="0,-453.1 74.81,-453.1 "/>
<text text-anchor="middle" x="37.4" y="-436.5" font-family="Courier New" font-size="14.00">64</text>
<polyline fill="none" stroke="black" points="0,-428.3 74.81,-428.3 "/>
<text text-anchor="middle" x="37.4" y="-411.7" font-family="Courier New" font-size="14.00">65</text>
<polyline fill="none" stroke="black" points="0,-403.5 74.81,-403.5 "/>
<text text-anchor="middle" x="37.4" y="-386.9" font-family="Courier New" font-size="14.00">66</text>
<polyline fill="none" stroke="black" points="0,-378.7 74.81,-378.7 "/>
<text text-anchor="middle" x="37.4" y="-362.1" font-family="Courier New" font-size="14.00">67</text>
<polyline fill="none" stroke="black" points="0,-353.9 74.81,-353.9 "/>
<text text-anchor="middle" x="37.4" y="-337.3" font-family="Courier New" font-size="14.00">68</text>
<polyline fill="none" stroke="black" points="0,-329.1 74.81,-329.1 "/>
<text text-anchor="middle" x="37.4" y="-312.5" font-family="Courier New" font-size="14.00">69</text>
<polyline fill="none" stroke="black" points="0,-304.3 74.81,-304.3 "/>
<text text-anchor="middle" x="37.4" y="-287.7" font-family="Courier New" font-size="14.00">70</text>
<polyline fill="none" stroke="black" points="0,-279.5 74.81,-279.5 "/>
<text text-anchor="middle" x="37.4" y="-262.9" font-family="Courier New" font-size="14.00">71</text>
<polyline fill="none" stroke="black" points="0,-254.7 74.81,-254.7 "/>
<text text-anchor="middle" x="37.4" y="-238.1" font-family="Courier New" font-size="14.00">72</text>
<polyline fill="none" stroke="black" points="0,-229.9 74.81,-229.9 "/>
<text text-anchor="middle" x="37.4" y="-213.3" font-family="Courier New" font-size="14.00">73</text>
<polyline fill="none" stroke="black" points="0,-205.1 74.81,-205.1 "/>
<text text-anchor="middle" x="37.4" y="-188.5" font-family="Courier New" font-size="14.00">74</text>
<polyline fill="none" stroke="black" points="0,-180.3 74.81,-180.3 "/>
<text text-anchor="middle" x="37.4" y="-163.7" font-family="Courier New" font-size="14.00">75&#45;76</text>
<polyline fill="none" stroke="black" points="0,-155.5 74.81,-155.5 "/>
<text text-anchor="middle" x="37.4" y="-138.9" font-family="Courier New" font-size="14.00">77</text>
<polyline fill="none" stroke="black" points="0,-130.7 74.81,-130.7 "/>
<text text-anchor="middle" x="37.4" y="-114.1" font-family="Courier New" font-size="14.00">78</text>
<polyline fill="none" stroke="black" points="0,-105.9 74.81,-105.9 "/>
<text text-anchor="middle" x="37.4" y="-89.3" font-family="Courier New" font-size="14.00">79&#45;122</text>
<polyline fill="none" stroke="black" points="0,-81.1 74.81,-81.1 "/>
<text text-anchor="middle" x="37.4" y="-64.5" font-family="Courier New" font-size="14.00">123</text>
<polyline fill="none" stroke="black" points="0,-56.3 74.81,-56.3 "/>
<text text-anchor="middle" x="37.4" y="-39.7" font-family="Courier New" font-size="14.00">124&#45;173</text>
<polyline fill="none" stroke="black" points="74.81,-31.5 74.81,-849.9 "/>
<text text-anchor="middle" x="640.3" y="-833.3" font-family="Courier New" font-size="14.00">type: &lt;inherited contract&gt;.variable (bytes)</text>
<polyline fill="none" stroke="black" points="74.81,-825.1 1205.78,-825.1 "/>
<text text-anchor="middle" x="208.52" y="-808.5" font-family="Courier New" font-size="14.00">unallocated (30)</text>
<polyline fill="none" stroke="black" points="342.23,-800.3 342.23,-825.1 "/>
<text text-anchor="middle" x="559.96" y="-808.5" font-family="Courier New" font-size="14.00">bool: Initializable.initializing (1)</text>
<polyline fill="none" stroke="black" points="777.68,-800.3 777.68,-825.1 "/>
<text text-anchor="middle" x="991.7" y="-808.5" font-family="Courier New" font-size="14.00">bool: Initializable.initialized (1)</text>
<polyline fill="none" stroke="black" points="74.81,-800.3 1205.78,-800.3 "/>
<text text-anchor="middle" x="639.94" y="-783.7" font-family="Courier New" font-size="14.00">uint256[50]: Initializable.______gap (1600)</text>
<polyline fill="none" stroke="black" points="74.81,-775.5 1205.78,-775.5 "/>
<text text-anchor="middle" x="640.14" y="-758.9" font-family="Courier New" font-size="14.00">mapping(address=&gt;Asset): VaultStorage.assets (32)</text>
<polyline fill="none" stroke="black" points="74.81,-750.7 1205.78,-750.7 "/>
<text text-anchor="middle" x="639.94" y="-734.1" font-family="Courier New" font-size="14.00">address[]: VaultStorage.allAssets (32)</text>
<polyline fill="none" stroke="black" points="74.81,-725.9 1205.78,-725.9 "/>
<text text-anchor="middle" x="640.05" y="-709.3" font-family="Courier New" font-size="14.00">mapping(address=&gt;Strategy): VaultStorage.strategies (32)</text>
<polyline fill="none" stroke="black" points="74.81,-701.1 1205.78,-701.1 "/>
<text text-anchor="middle" x="640.24" y="-684.5" font-family="Courier New" font-size="14.00">address[]: VaultStorage.allStrategies (32)</text>
<polyline fill="none" stroke="black" points="74.81,-676.3 1205.78,-676.3 "/>
<text text-anchor="middle" x="150.02" y="-659.7" font-family="Courier New" font-size="14.00">unallocated (10)</text>
<polyline fill="none" stroke="black" points="225.23,-651.5 225.23,-676.3 "/>
<text text-anchor="middle" x="384.46" y="-659.7" font-family="Courier New" font-size="14.00">bool: VaultStorage.capitalPaused (1)</text>
<polyline fill="none" stroke="black" points="543.68,-651.5 543.68,-676.3 "/>
<text text-anchor="middle" x="698.7" y="-659.7" font-family="Courier New" font-size="14.00">bool: VaultStorage.rebasePaused (1)</text>
<polyline fill="none" stroke="black" points="853.73,-651.5 853.73,-676.3 "/>
<text text-anchor="middle" x="1029.76" y="-659.7" font-family="Courier New" font-size="14.00">address: VaultStorage.priceProvider (20)</text>
<polyline fill="none" stroke="black" points="74.81,-651.5 1205.78,-651.5 "/>
<text text-anchor="middle" x="640.14" y="-634.9" font-family="Courier New" font-size="14.00">uint256: VaultStorage.redeemFeeBps (32)</text>
<polyline fill="none" stroke="black" points="74.81,-626.7 1205.78,-626.7 "/>
<text text-anchor="middle" x="639.94" y="-610.1" font-family="Courier New" font-size="14.00">uint256: VaultStorage.vaultBuffer (32)</text>
<polyline fill="none" stroke="black" points="74.81,-601.9 1205.78,-601.9 "/>
<text text-anchor="middle" x="639.94" y="-585.3" font-family="Courier New" font-size="14.00">uint256: VaultStorage.autoAllocateThreshold (32)</text>
<polyline fill="none" stroke="black" points="74.81,-577.1 1205.78,-577.1 "/>
<text text-anchor="middle" x="640.24" y="-560.5" font-family="Courier New" font-size="14.00">uint256: VaultStorage.rebaseThreshold (32)</text>
<polyline fill="none" stroke="black" points="74.81,-552.3 1205.78,-552.3 "/>
<text text-anchor="middle" x="332.02" y="-535.7" font-family="Courier New" font-size="14.00">unallocated (12)</text>
<polyline fill="none" stroke="black" points="589.23,-527.5 589.23,-552.3 "/>
<text text-anchor="middle" x="897.35" y="-535.7" font-family="Courier New" font-size="14.00">OUSD: VaultStorage.oUSD (20)</text>
<polyline fill="none" stroke="black" points="74.81,-527.5 1205.78,-527.5 "/>
<text text-anchor="middle" x="277.52" y="-510.9" font-family="Courier New" font-size="14.00">unallocated (12)</text>
<polyline fill="none" stroke="black" points="480.23,-502.7 480.23,-527.5 "/>
<text text-anchor="middle" x="842.57" y="-510.9" font-family="Courier New" font-size="14.00">address: VaultStorage._deprecated_rebaseHooksAddr (20)</text>
<polyline fill="none" stroke="black" points="74.81,-502.7 1205.78,-502.7 "/>
<text text-anchor="middle" x="286.02" y="-486.1" font-family="Courier New" font-size="14.00">unallocated (12)</text>
<polyline fill="none" stroke="black" points="497.23,-477.9 497.23,-502.7 "/>
<text text-anchor="middle" x="851.27" y="-486.1" font-family="Courier New" font-size="14.00">address: VaultStorage._deprecated_uniswapAddr (20)</text>
<polyline fill="none" stroke="black" points="74.81,-477.9 1205.78,-477.9 "/>
<text text-anchor="middle" x="305.02" y="-461.3" font-family="Courier New" font-size="14.00">unallocated (12)</text>
<polyline fill="none" stroke="black" points="535.23,-453.1 535.23,-477.9 "/>
<text text-anchor="middle" x="870.46" y="-461.3" font-family="Courier New" font-size="14.00">address: VaultStorage.strategistAddr (20)</text>
<polyline fill="none" stroke="black" points="74.81,-453.1 1205.78,-453.1 "/>
<text text-anchor="middle" x="640.26" y="-436.5" font-family="Courier New" font-size="14.00">mapping(address=&gt;address): VaultStorage.assetDefaultStrategies (32)</text>
<polyline fill="none" stroke="black" points="74.81,-428.3 1205.78,-428.3 "/>
<text text-anchor="middle" x="639.84" y="-411.7" font-family="Courier New" font-size="14.00">uint256: VaultStorage.maxSupplyDiff (32)</text>
<polyline fill="none" stroke="black" points="74.81,-403.5 1205.78,-403.5 "/>
<text text-anchor="middle" x="305.02" y="-386.9" font-family="Courier New" font-size="14.00">unallocated (12)</text>
<polyline fill="none" stroke="black" points="535.23,-378.7 535.23,-403.5 "/>
<text text-anchor="middle" x="870.46" y="-386.9" font-family="Courier New" font-size="14.00">address: VaultStorage.trusteeAddress (20)</text>
<polyline fill="none" stroke="black" points="74.81,-378.7 1205.78,-378.7 "/>
<text text-anchor="middle" x="639.84" y="-362.1" font-family="Courier New" font-size="14.00">uint256: VaultStorage.trusteeFeeBps (32)</text>
<polyline fill="none" stroke="black" points="74.81,-353.9 1205.78,-353.9 "/>
<text text-anchor="middle" x="640.04" y="-337.3" font-family="Courier New" font-size="14.00">address[]: VaultStorage._deprecated_swapTokens (32)</text>
<polyline fill="none" stroke="black" points="74.81,-329.1 1205.78,-329.1 "/>
<text text-anchor="middle" x="300.52" y="-312.5" font-family="Courier New" font-size="14.00">unallocated (12)</text>
<polyline fill="none" stroke="black" points="526.23,-304.3 526.23,-329.1 "/>
<text text-anchor="middle" x="865.86" y="-312.5" font-family="Courier New" font-size="14.00">address: VaultStorage.ousdMetaStrategy (20)</text>
<polyline fill="none" stroke="black" points="74.81,-304.3 1205.78,-304.3 "/>
<text text-anchor="middle" x="639.84" y="-287.7" font-family="Courier New" font-size="14.00">int256: VaultStorage.netOusdMintedForStrategy (32)</text>
<polyline fill="none" stroke="black" points="74.81,-279.5 1205.78,-279.5 "/>
<text text-anchor="middle" x="639.95" y="-262.9" font-family="Courier New" font-size="14.00">uint256: VaultStorage.netOusdMintForStrategyThreshold (32)</text>
<polyline fill="none" stroke="black" points="74.81,-254.7 1205.78,-254.7 "/>
<text text-anchor="middle" x="639.84" y="-238.1" font-family="Courier New" font-size="14.00">SwapConfig: VaultStorage.swapConfig (32)</text>
<polyline fill="none" stroke="black" points="74.81,-229.9 1205.78,-229.9 "/>
<text text-anchor="middle" x="640.26" y="-213.3" font-family="Courier New" font-size="14.00">mapping(address=&gt;bool): VaultStorage.isMintWhitelistedStrategy (32)</text>
<polyline fill="none" stroke="black" points="74.81,-205.1 1205.78,-205.1 "/>
<text text-anchor="middle" x="319.52" y="-188.5" font-family="Courier New" font-size="14.00">unallocated (12)</text>
<polyline fill="none" stroke="black" points="564.23,-180.3 564.23,-205.1 "/>
<text text-anchor="middle" x="884.55" y="-188.5" font-family="Courier New" font-size="14.00">address: VaultStorage.dripper (20)</text>
<polyline fill="none" stroke="black" points="74.81,-180.3 1205.78,-180.3 "/>
<text text-anchor="middle" x="640.05" y="-163.7" font-family="Courier New" font-size="14.00">WithdrawalQueueMetadata: VaultStorage.withdrawalQueueMetadata (64)</text>
<polyline fill="none" stroke="black" points="74.81,-155.5 1205.78,-155.5 "/>
<text text-anchor="middle" x="639.96" y="-138.9" font-family="Courier New" font-size="14.00">mapping(uint256=&gt;WithdrawalRequest): VaultStorage.withdrawalRequests (32)</text>
<polyline fill="none" stroke="black" points="74.81,-130.7 1205.78,-130.7 "/>
<text text-anchor="middle" x="640.24" y="-114.1" font-family="Courier New" font-size="14.00">uint256: VaultStorage.withdrawalClaimDelay (32)</text>
<polyline fill="none" stroke="black" points="74.81,-105.9 1205.78,-105.9 "/>
<text text-anchor="middle" x="639.94" y="-89.3" font-family="Courier New" font-size="14.00">uint256[44]: VaultStorage.__gap (1408)</text>
<polyline fill="none" stroke="black" points="74.81,-81.1 1205.78,-81.1 "/>
<text text-anchor="middle" x="639.93" y="-64.5" font-family="Courier New" font-size="14.00">uint256: wethAssetIndex (32)</text>
<polyline fill="none" stroke="black" points="74.81,-56.3 1205.78,-56.3 "/>
<text text-anchor="middle" x="639.83" y="-39.7" font-family="Courier New" font-size="14.00">uint256[50]: __gap (1600)</text>
</g>
<!-- 1 -->
<g id="node2" class="node">
<title>1</title>
<polygon fill="#f2f2f2" stroke="black" points="1241.78,-846.9 1241.78,-921.3 2446.76,-921.3 2446.76,-846.9 1241.78,-846.9"/>
<text text-anchor="middle" x="1844.27" y="-904.7" font-family="Courier New" font-size="14.00">Asset &lt;&lt;Struct&gt;&gt;</text>
<polyline fill="none" stroke="black" points="1241.78,-896.5 2446.76,-896.5 "/>
<text text-anchor="middle" x="1274.99" y="-879.9" font-family="Courier New" font-size="14.00">offset</text>
<polyline fill="none" stroke="black" points="1241.78,-871.7 1308.19,-871.7 "/>
<text text-anchor="middle" x="1274.99" y="-855.1" font-family="Courier New" font-size="14.00">0</text>
<polyline fill="none" stroke="black" points="1308.19,-846.9 1308.19,-896.5 "/>
<text text-anchor="middle" x="1877.48" y="-879.9" font-family="Courier New" font-size="14.00">type: variable (bytes)</text>
<polyline fill="none" stroke="black" points="1308.19,-871.7 2446.76,-871.7 "/>
<text text-anchor="middle" x="1383.4" y="-855.1" font-family="Courier New" font-size="14.00">unallocated (27)</text>
<polyline fill="none" stroke="black" points="1458.61,-846.9 1458.61,-871.7 "/>
<text text-anchor="middle" x="1617.84" y="-855.1" font-family="Courier New" font-size="14.00">uint16: allowedOracleSlippageBps (2)</text>
<polyline fill="none" stroke="black" points="1777.06,-846.9 1777.06,-871.7 "/>
<text text-anchor="middle" x="1864.88" y="-855.1" font-family="Courier New" font-size="14.00">uint8: decimals (1)</text>
<polyline fill="none" stroke="black" points="1952.69,-846.9 1952.69,-871.7 "/>
<text text-anchor="middle" x="2103.51" y="-855.1" font-family="Courier New" font-size="14.00">UnitConversion: unitConversion (1)</text>
<polyline fill="none" stroke="black" points="2254.33,-846.9 2254.33,-871.7 "/>
<text text-anchor="middle" x="2350.55" y="-855.1" font-family="Courier New" font-size="14.00">bool: isSupported (1)</text>
</g>
<!-- 8&#45;&gt;1 -->
<g id="edge1" class="edge">
<title>8:8&#45;&gt;1</title>
<path fill="none" stroke="black" d="M1205.78,-763.1C1242.36,-763.1 1211.56,-816.51 1241.78,-837.1 1243.96,-838.58 1246.15,-840.04 1248.36,-841.48"/>
<polygon fill="black" stroke="black" points="1246.62,-844.52 1256.95,-846.89 1250.36,-838.6 1246.62,-844.52"/>
</g>
<!-- 2 -->
<g id="node3" class="node">
<title>2</title>
<polygon fill="#f2f2f2" stroke="black" points="1559.03,-736.5 1559.03,-827.7 2129.52,-827.7 2129.52,-736.5 1559.03,-736.5"/>
<text text-anchor="middle" x="1844.27" y="-811.1" font-family="Courier New" font-size="14.00">address[]: allAssets &lt;&lt;Array&gt;&gt;</text>
<text text-anchor="middle" x="1844.27" y="-794.3" font-family="Courier New" font-size="14.00">0x46bddb1178e94d7f2892ff5f366840eb658911794f2c3a44c450aa2c505186c1</text>
<polyline fill="none" stroke="black" points="1559.03,-786.1 2129.52,-786.1 "/>
<text text-anchor="middle" x="1651.23" y="-769.5" font-family="Courier New" font-size="14.00">offset</text>
<polyline fill="none" stroke="black" points="1559.03,-761.3 1743.44,-761.3 "/>
<text text-anchor="middle" x="1651.23" y="-744.7" font-family="Courier New" font-size="14.00">0</text>
<polyline fill="none" stroke="black" points="1743.44,-736.5 1743.44,-786.1 "/>
<text text-anchor="middle" x="1936.06" y="-769.5" font-family="Courier New" font-size="14.00">type: variable (bytes)</text>
<polyline fill="none" stroke="black" points="1743.44,-761.3 2128.67,-761.3 "/>
<text text-anchor="middle" x="1848.15" y="-744.7" font-family="Courier New" font-size="14.00">unallocated (12)</text>
<polyline fill="none" stroke="black" points="1952.86,-736.5 1952.86,-761.3 "/>
<text text-anchor="middle" x="2040.77" y="-744.7" font-family="Courier New" font-size="14.00">address (20)</text>
</g>
<!-- 8&#45;&gt;2 -->
<g id="edge2" class="edge">
<title>8:10&#45;&gt;2</title>
<path fill="none" stroke="black" d="M1205.78,-738.1C1317.94,-738.1 1440.92,-744.96 1548.7,-753.27"/>
<polygon fill="black" stroke="black" points="1548.51,-756.76 1558.75,-754.05 1549.05,-749.78 1548.51,-756.76"/>
</g>
<!-- 3 -->
<g id="node4" class="node">
<title>3</title>
<polygon fill="#f2f2f2" stroke="black" points="1639.64,-618.5 1639.64,-717.7 2048.9,-717.7 2048.9,-618.5 1639.64,-618.5"/>
<text text-anchor="middle" x="1844.27" y="-701.1" font-family="Courier New" font-size="14.00">Strategy &lt;&lt;Struct&gt;&gt;</text>
<polyline fill="none" stroke="black" points="1639.64,-692.9 2048.9,-692.9 "/>
<text text-anchor="middle" x="1672.85" y="-676.3" font-family="Courier New" font-size="14.00">offset</text>
<polyline fill="none" stroke="black" points="1639.64,-668.1 1706.05,-668.1 "/>
<text text-anchor="middle" x="1672.85" y="-651.5" font-family="Courier New" font-size="14.00">0</text>
<polyline fill="none" stroke="black" points="1639.64,-643.3 1706.05,-643.3 "/>
<text text-anchor="middle" x="1672.85" y="-626.7" font-family="Courier New" font-size="14.00">1</text>
<polyline fill="none" stroke="black" points="1706.05,-618.5 1706.05,-692.9 "/>
<text text-anchor="middle" x="1877.48" y="-676.3" font-family="Courier New" font-size="14.00">type: variable (bytes)</text>
<polyline fill="none" stroke="black" points="1706.05,-668.1 2048.9,-668.1 "/>
<text text-anchor="middle" x="1781.26" y="-651.5" font-family="Courier New" font-size="14.00">unallocated (31)</text>
<polyline fill="none" stroke="black" points="1856.47,-643.3 1856.47,-668.1 "/>
<text text-anchor="middle" x="1952.69" y="-651.5" font-family="Courier New" font-size="14.00">bool: isSupported (1)</text>
<polyline fill="none" stroke="black" points="1706.05,-643.3 2048.9,-643.3 "/>
<text text-anchor="middle" x="1877.07" y="-626.7" font-family="Courier New" font-size="14.00">uint256: _deprecated (32)</text>
</g>
<!-- 8&#45;&gt;3 -->
<g id="edge3" class="edge">
<title>8:13&#45;&gt;3</title>
<path fill="none" stroke="black" d="M1205.78,-713.1C1347.16,-713.1 1505.74,-701.95 1629.37,-690.75"/>
<polygon fill="black" stroke="black" points="1629.69,-694.24 1639.33,-689.84 1629.06,-687.27 1629.69,-694.24"/>
</g>
<!-- 4 -->
<g id="node5" class="node">
<title>4</title>
<polygon fill="#f2f2f2" stroke="black" points="1559.03,-508.5 1559.03,-599.7 2129.52,-599.7 2129.52,-508.5 1559.03,-508.5"/>
<text text-anchor="middle" x="1844.27" y="-583.1" font-family="Courier New" font-size="14.00">address[]: allStrategies &lt;&lt;Array&gt;&gt;</text>
<text text-anchor="middle" x="1844.27" y="-566.3" font-family="Courier New" font-size="14.00">0x4a11f94e20a93c79f6ec743a1954ec4fc2c08429ae2122118bf234b2185c81b8</text>
<polyline fill="none" stroke="black" points="1559.03,-558.1 2129.52,-558.1 "/>
<text text-anchor="middle" x="1651.23" y="-541.5" font-family="Courier New" font-size="14.00">offset</text>
<polyline fill="none" stroke="black" points="1559.03,-533.3 1743.44,-533.3 "/>
<text text-anchor="middle" x="1651.23" y="-516.7" font-family="Courier New" font-size="14.00">0</text>
<polyline fill="none" stroke="black" points="1743.44,-508.5 1743.44,-558.1 "/>
<text text-anchor="middle" x="1936.06" y="-541.5" font-family="Courier New" font-size="14.00">type: variable (bytes)</text>
<polyline fill="none" stroke="black" points="1743.44,-533.3 2128.67,-533.3 "/>
<text text-anchor="middle" x="1848.15" y="-516.7" font-family="Courier New" font-size="14.00">unallocated (12)</text>
<polyline fill="none" stroke="black" points="1952.86,-508.5 1952.86,-533.3 "/>
<text text-anchor="middle" x="2040.77" y="-516.7" font-family="Courier New" font-size="14.00">address (20)</text>
</g>
<!-- 8&#45;&gt;4 -->
<g id="edge4" class="edge">
<title>8:15&#45;&gt;4</title>
<path fill="none" stroke="black" d="M1205.78,-689.1C1244.77,-689.1 1210.04,-631.74 1241.78,-609.1 1329.45,-546.57 1443.56,-525.36 1548.81,-522.37"/>
<polygon fill="black" stroke="black" points="1549.04,-525.87 1558.96,-522.14 1548.88,-518.87 1549.04,-525.87"/>
</g>
<!-- 5 -->
<g id="node6" class="node">
<title>5</title>
<polygon fill="#f2f2f2" stroke="black" points="1505.62,-236.9 1505.62,-311.3 2182.92,-311.3 2182.92,-236.9 1505.62,-236.9"/>
<text text-anchor="middle" x="1844.27" y="-294.7" font-family="Courier New" font-size="14.00">SwapConfig &lt;&lt;Struct&gt;&gt;</text>
<polyline fill="none" stroke="black" points="1505.62,-286.5 2182.92,-286.5 "/>
<text text-anchor="middle" x="1530.43" y="-269.9" font-family="Courier New" font-size="14.00">slot</text>
<polyline fill="none" stroke="black" points="1505.62,-261.7 1555.23,-261.7 "/>
<text text-anchor="middle" x="1530.43" y="-245.1" font-family="Courier New" font-size="14.00">72</text>
<polyline fill="none" stroke="black" points="1555.23,-236.9 1555.23,-286.5 "/>
<text text-anchor="middle" x="1869.08" y="-269.9" font-family="Courier New" font-size="14.00">type: variable (bytes)</text>
<polyline fill="none" stroke="black" points="1555.23,-261.7 2182.92,-261.7 "/>
<text text-anchor="middle" x="1630.44" y="-245.1" font-family="Courier New" font-size="14.00">unallocated (10)</text>
<polyline fill="none" stroke="black" points="1705.65,-236.9 1705.65,-261.7 "/>
<text text-anchor="middle" x="1848.07" y="-245.1" font-family="Courier New" font-size="14.00">uint16: allowedUndervalueBps (2)</text>
<polyline fill="none" stroke="black" points="1990.49,-236.9 1990.49,-261.7 "/>
<text text-anchor="middle" x="2086.71" y="-245.1" font-family="Courier New" font-size="14.00">address: swapper (20)</text>
</g>
<!-- 8&#45;&gt;5 -->
<g id="edge5" class="edge">
<title>8:37&#45;&gt;5</title>
<path fill="none" stroke="black" d="M1205.78,-242.1C1299.74,-242.1 1401.38,-245.61 1495.32,-250.31"/>
<polygon fill="black" stroke="black" points="1495.39,-253.81 1505.56,-250.82 1495.75,-246.82 1495.39,-253.81"/>
</g>
<!-- 6 -->
<g id="node7" class="node">
<title>6</title>
<polygon fill="#f2f2f2" stroke="black" points="1576.63,-118.5 1576.63,-217.7 2111.91,-217.7 2111.91,-118.5 1576.63,-118.5"/>
<text text-anchor="middle" x="1844.27" y="-201.1" font-family="Courier New" font-size="14.00">WithdrawalQueueMetadata &lt;&lt;Struct&gt;&gt;</text>
<polyline fill="none" stroke="black" points="1576.63,-192.9 2111.91,-192.9 "/>
<text text-anchor="middle" x="1601.44" y="-176.3" font-family="Courier New" font-size="14.00">slot</text>
<polyline fill="none" stroke="black" points="1576.63,-168.1 1626.24,-168.1 "/>
<text text-anchor="middle" x="1601.44" y="-151.5" font-family="Courier New" font-size="14.00">75</text>
<polyline fill="none" stroke="black" points="1576.63,-143.3 1626.24,-143.3 "/>
<text text-anchor="middle" x="1601.44" y="-126.7" font-family="Courier New" font-size="14.00">76</text>
<polyline fill="none" stroke="black" points="1626.24,-118.5 1626.24,-192.9 "/>
<text text-anchor="middle" x="1869.08" y="-176.3" font-family="Courier New" font-size="14.00">type: variable (bytes)</text>
<polyline fill="none" stroke="black" points="1626.24,-168.1 2111.91,-168.1 "/>
<text text-anchor="middle" x="1753.85" y="-151.5" font-family="Courier New" font-size="14.00">uint128: claimable (16)</text>
<polyline fill="none" stroke="black" points="1881.47,-143.3 1881.47,-168.1 "/>
<text text-anchor="middle" x="1996.48" y="-151.5" font-family="Courier New" font-size="14.00">uint128: queued (16)</text>
<polyline fill="none" stroke="black" points="1626.24,-143.3 2111.91,-143.3 "/>
<text text-anchor="middle" x="1772.86" y="-126.7" font-family="Courier New" font-size="14.00">uint128: nextWithdrawalIndex (16)</text>
<polyline fill="none" stroke="black" points="1919.48,-118.5 1919.48,-143.3 "/>
<text text-anchor="middle" x="2015.7" y="-126.7" font-family="Courier New" font-size="14.00">uint128: claimed (16)</text>
</g>
<!-- 8&#45;&gt;6 -->
<g id="edge6" class="edge">
<title>8:44&#45;&gt;6</title>
<path fill="none" stroke="black" d="M1205.78,-168.1C1323.96,-168.1 1454.46,-168.1 1566.44,-168.1"/>
<polygon fill="black" stroke="black" points="1566.53,-171.6 1576.53,-168.1 1566.53,-164.6 1566.53,-171.6"/>
</g>
<!-- 7 -->
<g id="node8" class="node">
<title>7</title>
<polygon fill="#f2f2f2" stroke="black" points="1455.62,-0.5 1455.62,-99.7 2232.93,-99.7 2232.93,-0.5 1455.62,-0.5"/>
<text text-anchor="middle" x="1844.27" y="-83.1" font-family="Courier New" font-size="14.00">WithdrawalRequest &lt;&lt;Struct&gt;&gt;</text>
<polyline fill="none" stroke="black" points="1455.62,-74.9 2232.93,-74.9 "/>
<text text-anchor="middle" x="1488.82" y="-58.3" font-family="Courier New" font-size="14.00">offset</text>
<polyline fill="none" stroke="black" points="1455.62,-50.1 1522.02,-50.1 "/>
<text text-anchor="middle" x="1488.82" y="-33.5" font-family="Courier New" font-size="14.00">0</text>
<polyline fill="none" stroke="black" points="1455.62,-25.3 1522.02,-25.3 "/>
<text text-anchor="middle" x="1488.82" y="-8.7" font-family="Courier New" font-size="14.00">1</text>
<polyline fill="none" stroke="black" points="1522.02,-0.5 1522.02,-74.9 "/>
<text text-anchor="middle" x="1877.48" y="-58.3" font-family="Courier New" font-size="14.00">type: variable (bytes)</text>
<polyline fill="none" stroke="black" points="1522.02,-50.1 2232.93,-50.1 "/>
<text text-anchor="middle" x="1593.04" y="-33.5" font-family="Courier New" font-size="14.00">unallocated (6)</text>
<polyline fill="none" stroke="black" points="1664.05,-25.3 1664.05,-50.1 "/>
<text text-anchor="middle" x="1760.26" y="-33.5" font-family="Courier New" font-size="14.00">uint40: timestamp (5)</text>
<polyline fill="none" stroke="black" points="1856.47,-25.3 1856.47,-50.1 "/>
<text text-anchor="middle" x="1935.89" y="-33.5" font-family="Courier New" font-size="14.00">bool: claimed (1)</text>
<polyline fill="none" stroke="black" points="2015.3,-25.3 2015.3,-50.1 "/>
<text text-anchor="middle" x="2124.11" y="-33.5" font-family="Courier New" font-size="14.00">address: withdrawer (20)</text>
<polyline fill="none" stroke="black" points="1522.02,-25.3 2232.93,-25.3 "/>
<text text-anchor="middle" x="1699.54" y="-8.7" font-family="Courier New" font-size="14.00">uint128: queued (16)</text>
<polyline fill="none" stroke="black" points="1877.05,-0.5 1877.05,-25.3 "/>
<text text-anchor="middle" x="2054.57" y="-8.7" font-family="Courier New" font-size="14.00">uint128: amount (16)</text>
</g>
<!-- 8&#45;&gt;7 -->
<g id="edge7" class="edge">
<title>8:50&#45;&gt;7</title>
<path fill="none" stroke="black" d="M1205.78,-143.1C1227.79,-143.1 1221.75,-118.22 1241.78,-109.1 1304.81,-80.4 1375.32,-62.58 1445.27,-51.93"/>
<polygon fill="black" stroke="black" points="1446.2,-55.33 1455.58,-50.41 1445.18,-48.4 1446.2,-55.33"/>
</g>
</g>
</svg>
