<?xml version="1.0" encoding="UTF-8" standalone="no"?>
<!DOCTYPE svg PUBLIC "-//W3C//DTD SVG 1.1//EN"
 "http://www.w3.org/Graphics/SVG/1.1/DTD/svg11.dtd">
<!-- Generated by graphviz version 5.0.0 (20220707.1540)
 -->
<!-- Title: StorageDiagram Pages: 1 -->
<svg width="931pt" height="133pt"
 viewBox="0.00 0.00 930.53 132.80" xmlns="http://www.w3.org/2000/svg" xmlns:xlink="http://www.w3.org/1999/xlink">
<g id="graph0" class="graph" transform="scale(1 1) rotate(0) translate(4 128.8)">
<title>StorageDiagram</title>
<polygon fill="white" stroke="transparent" points="-4,4 -4,-128.8 926.53,-128.8 926.53,4 -4,4"/>
<!-- 2 -->
<g id="node1" class="node">
<title>2</title>
<polygon fill="#f2f2f2" stroke="black" points="0,-25.1 0,-124.3 426.86,-124.3 426.86,-25.1 0,-25.1"/>
<text text-anchor="middle" x="213.43" y="-107.7" font-family="Courier New" font-size="14.00">OETHDripper &lt;&lt;Contract&gt;&gt;</text>
<polyline fill="none" stroke="black" points="0,-99.5 426.86,-99.5 "/>
<text text-anchor="middle" x="24.8" y="-82.9" font-family="Courier New" font-size="14.00">slot</text>
<polyline fill="none" stroke="black" points="0,-74.7 49.61,-74.7 "/>
<text text-anchor="middle" x="24.8" y="-58.1" font-family="Courier New" font-size="14.00">0</text>
<polyline fill="none" stroke="black" points="0,-49.9 49.61,-49.9 "/>
<text text-anchor="middle" x="24.8" y="-33.3" font-family="Courier New" font-size="14.00">1</text>
<polyline fill="none" stroke="black" points="49.61,-25.1 49.61,-99.5 "/>
<text text-anchor="middle" x="238.23" y="-82.9" font-family="Courier New" font-size="14.00">type: &lt;inherited contract&gt;.variable (bytes)</text>
<polyline fill="none" stroke="black" points="49.61,-74.7 426.86,-74.7 "/>
<text text-anchor="middle" x="237.93" y="-58.1" font-family="Courier New" font-size="14.00">uint256: Dripper.dripDuration (32)</text>
<polyline fill="none" stroke="black" points="49.61,-49.9 426.86,-49.9 "/>
<text text-anchor="middle" x="238.22" y="-33.3" font-family="Courier New" font-size="14.00">Drip: Dripper.drip (32)</text>
</g>
<!-- 1 -->
<g id="node2" class="node">
<title>1</title>
<polygon fill="#f2f2f2" stroke="black" points="462.86,-0.5 462.86,-74.9 922.53,-74.9 922.53,-0.5 462.86,-0.5"/>
<text text-anchor="middle" x="692.7" y="-58.3" font-family="Courier New" font-size="14.00">Drip &lt;&lt;Struct&gt;&gt;</text>
<polyline fill="none" stroke="black" points="462.86,-50.1 922.53,-50.1 "/>
<text text-anchor="middle" x="487.67" y="-33.5" font-family="Courier New" font-size="14.00">slot</text>
<polyline fill="none" stroke="black" points="462.86,-25.3 512.47,-25.3 "/>
<text text-anchor="middle" x="487.67" y="-8.7" font-family="Courier New" font-size="14.00">1</text>
<polyline fill="none" stroke="black" points="512.47,-0.5 512.47,-50.1 "/>
<text text-anchor="middle" x="717.5" y="-33.5" font-family="Courier New" font-size="14.00">type: variable (bytes)</text>
<polyline fill="none" stroke="black" points="512.47,-25.3 922.53,-25.3 "/>
<text text-anchor="middle" x="612.88" y="-8.7" font-family="Courier New" font-size="14.00">uint192: perBlock (24)</text>
<polyline fill="none" stroke="black" points="713.3,-0.5 713.3,-25.3 "/>
<text text-anchor="middle" x="817.92" y="-8.7" font-family="Courier New" font-size="14.00">uint64: lastCollect (8)</text>
</g>
<!-- 2&#45;&gt;1 -->
<g id="edge1" class="edge">
<title>2:4&#45;&gt;1</title>
<path fill="none" stroke="black" d="M426.86,-37.7C435.29,-37.7 443.87,-37.7 452.53,-37.7"/>
<polygon fill="black" stroke="black" points="452.74,-41.2 462.74,-37.7 452.74,-34.2 452.74,-41.2"/>
</g>
</g>
</svg>
