<?xml version="1.0" encoding="UTF-8" standalone="no"?>
<!DOCTYPE svg PUBLIC "-//W3C//DTD SVG 1.1//EN"
 "http://www.w3.org/Graphics/SVG/1.1/DTD/svg11.dtd">
<!-- Generated by graphviz version 5.0.0 (20220707.1540)
 -->
<!-- Title: UmlClassDiagram Pages: 1 -->
<svg width="245pt" height="225pt"
 viewBox="0.00 0.00 245.20 224.60" xmlns="http://www.w3.org/2000/svg" xmlns:xlink="http://www.w3.org/1999/xlink">
<g id="graph0" class="graph" transform="scale(1 1) rotate(0) translate(4 220.6)">
<title>UmlClassDiagram</title>
<polygon fill="white" stroke="transparent" points="-4,4 -4,-220.6 241.2,-220.6 241.2,4 -4,4"/>
<!-- 18 -->
<g id="node1" class="node">
<title>18</title>
<polygon fill="#f2f2f2" stroke="black" points="1.17,-174.5 1.17,-216.1 236.03,-216.1 236.03,-174.5 1.17,-174.5"/>
<text text-anchor="middle" x="118.6" y="-199.5" font-family="Times,serif" font-size="14.00">Governable</text>
<text text-anchor="middle" x="118.6" y="-182.7" font-family="Times,serif" font-size="14.00">../contracts/governance/Governable.sol</text>
</g>
<!-- 24 -->
<g id="node2" class="node">
<title>24</title>
<polygon fill="#f2f2f2" stroke="black" points="5.06,-79.1 5.06,-137.5 232.15,-137.5 232.15,-79.1 5.06,-79.1"/>
<text text-anchor="middle" x="118.6" y="-120.9" font-family="Times,serif" font-size="14.00">&lt;&lt;Abstract&gt;&gt;</text>
<text text-anchor="middle" x="118.6" y="-104.1" font-family="Times,serif" font-size="14.00">BaseHarvester</text>
<text text-anchor="middle" x="118.6" y="-87.3" font-family="Times,serif" font-size="14.00">../contracts/harvest/BaseHarvester.sol</text>
</g>
<!-- 24&#45;&gt;18 -->
<g id="edge1" class="edge">
<title>24&#45;&gt;18</title>
<path fill="none" stroke="black" d="M118.6,-137.6C118.6,-139.77 118.6,-142 118.6,-144.25"/>
<polygon fill="none" stroke="black" points="108.1,-144.44 118.6,-174.44 129.1,-144.44 108.1,-144.44"/>
</g>
<!-- 30 -->
<g id="node3" class="node">
<title>30</title>
<polygon fill="#f2f2f2" stroke="black" points="0,-0.5 0,-42.1 237.2,-42.1 237.2,-0.5 0,-0.5"/>
<text text-anchor="middle" x="118.6" y="-25.5" font-family="Times,serif" font-size="14.00">OETHHarvester</text>
<text text-anchor="middle" x="118.6" y="-8.7" font-family="Times,serif" font-size="14.00">../contracts/harvest/OETHHarvester.sol</text>
</g>
<!-- 30&#45;&gt;24 -->
<g id="edge2" class="edge">
<title>30&#45;&gt;24</title>
<path fill="none" stroke="black" d="M118.6,-42.44C118.6,-44.49 118.6,-46.63 118.6,-48.83"/>
<polygon fill="none" stroke="black" points="108.1,-48.94 118.6,-78.94 129.1,-48.94 108.1,-48.94"/>
</g>
</g>
</svg>
