<?xml version="1.0" encoding="UTF-8" standalone="no"?>
<!DOCTYPE svg PUBLIC "-//W3C//DTD SVG 1.1//EN"
 "http://www.w3.org/Graphics/SVG/1.1/DTD/svg11.dtd">
<!-- Generated by graphviz version 5.0.0 (20220707.1540)
 -->
<!-- Title: UmlClassDiagram Pages: 1 -->
<svg width="464pt" height="225pt"
 viewBox="0.00 0.00 464.32 224.60" xmlns="http://www.w3.org/2000/svg" xmlns:xlink="http://www.w3.org/1999/xlink">
<g id="graph0" class="graph" transform="scale(1 1) rotate(0) translate(4 220.6)">
<title>UmlClassDiagram</title>
<polygon fill="white" stroke="transparent" points="-4,4 -4,-220.6 460.32,-220.6 460.32,4 -4,4"/>
<!-- 21 -->
<g id="node1" class="node">
<title>21</title>
<polygon fill="#f2f2f2" stroke="black" points="3.89,-174.5 3.89,-216.1 238.75,-216.1 238.75,-174.5 3.89,-174.5"/>
<text text-anchor="middle" x="121.32" y="-199.5" font-family="Times,serif" font-size="14.00">Governable</text>
<text text-anchor="middle" x="121.32" y="-182.7" font-family="Times,serif" font-size="14.00">../contracts/governance/Governable.sol</text>
</g>
<!-- 26 -->
<g id="node2" class="node">
<title>26</title>
<polygon fill="#f2f2f2" stroke="black" points="0,-87.5 0,-129.1 242.63,-129.1 242.63,-87.5 0,-87.5"/>
<text text-anchor="middle" x="121.32" y="-112.5" font-family="Times,serif" font-size="14.00">Strategizable</text>
<text text-anchor="middle" x="121.32" y="-95.7" font-family="Times,serif" font-size="14.00">../contracts/governance/Strategizable.sol</text>
</g>
<!-- 26&#45;&gt;21 -->
<g id="edge1" class="edge">
<title>26&#45;&gt;21</title>
<path fill="none" stroke="black" d="M121.32,-129.44C121.32,-134 121.32,-139.03 121.32,-144.21"/>
<polygon fill="none" stroke="black" points="110.82,-144.3 121.32,-174.3 131.82,-144.3 110.82,-144.3"/>
</g>
<!-- 39 -->
<g id="node3" class="node">
<title>39</title>
<polygon fill="#f2f2f2" stroke="black" points="100.88,-0.5 100.88,-42.1 377.75,-42.1 377.75,-0.5 100.88,-0.5"/>
<text text-anchor="middle" x="239.32" y="-25.5" font-family="Times,serif" font-size="14.00">OETHHarvesterSimple</text>
<text text-anchor="middle" x="239.32" y="-8.7" font-family="Times,serif" font-size="14.00">../contracts/harvest/OETHHarvesterSimple.sol</text>
</g>
<!-- 39&#45;&gt;26 -->
<g id="edge3" class="edge">
<title>39&#45;&gt;26</title>
<path fill="none" stroke="black" d="M211.65,-42.23C200.18,-50.49 186.49,-60.35 173.28,-69.87"/>
<polygon fill="none" stroke="black" points="167.01,-61.44 148.81,-87.5 179.29,-78.48 167.01,-61.44"/>
</g>
<!-- 279 -->
<g id="node4" class="node">
<title>279</title>
<polygon fill="#f2f2f2" stroke="black" points="260.31,-79.1 260.31,-137.5 456.32,-137.5 456.32,-79.1 260.31,-79.1"/>
<text text-anchor="middle" x="358.32" y="-120.9" font-family="Times,serif" font-size="14.00">&lt;&lt;Abstract&gt;&gt;</text>
<text text-anchor="middle" x="358.32" y="-104.1" font-family="Times,serif" font-size="14.00">Initializable</text>
<text text-anchor="middle" x="358.32" y="-87.3" font-family="Times,serif" font-size="14.00">../contracts/utils/Initializable.sol</text>
</g>
<!-- 39&#45;&gt;279 -->
<g id="edge2" class="edge">
<title>39&#45;&gt;279</title>
<path fill="none" stroke="black" d="M267.22,-42.23C275.32,-48.02 284.52,-54.59 293.89,-61.28"/>
<polygon fill="none" stroke="black" points="287.91,-69.91 318.42,-78.81 300.11,-52.82 287.91,-69.91"/>
</g>
</g>
</svg>
