<?xml version="1.0" encoding="UTF-8" standalone="no"?>
<!DOCTYPE svg PUBLIC "-//W3C//DTD SVG 1.1//EN"
 "http://www.w3.org/Graphics/SVG/1.1/DTD/svg11.dtd">
<!-- Generated by graphviz version 5.0.0 (20220707.1540)
 -->
<!-- Title: UmlClassDiagram Pages: 1 -->
<svg width="260pt" height="146pt"
 viewBox="0.00 0.00 259.96 146.00" xmlns="http://www.w3.org/2000/svg" xmlns:xlink="http://www.w3.org/1999/xlink">
<g id="graph0" class="graph" transform="scale(1 1) rotate(0) translate(4 142)">
<title>UmlClassDiagram</title>
<polygon fill="white" stroke="transparent" points="-4,4 -4,-142 255.96,-142 255.96,4 -4,4"/>
<!-- 120 -->
<g id="node1" class="node">
<title>120</title>
<polygon fill="#f2f2f2" stroke="black" points="0,-0.5 0,-42.1 251.96,-42.1 251.96,-0.5 0,-0.5"/>
<text text-anchor="middle" x="125.98" y="-25.5" font-family="Times,serif" font-size="14.00">OETHOracleRouter</text>
<text text-anchor="middle" x="125.98" y="-8.7" font-family="Times,serif" font-size="14.00">../contracts/oracle/OETHOracleRouter.sol</text>
</g>
<!-- 122 -->
<g id="node2" class="node">
<title>122</title>
<polygon fill="#f2f2f2" stroke="black" points="5.06,-79.1 5.06,-137.5 246.91,-137.5 246.91,-79.1 5.06,-79.1"/>
<text text-anchor="middle" x="125.98" y="-120.9" font-family="Times,serif" font-size="14.00">&lt;&lt;Abstract&gt;&gt;</text>
<text text-anchor="middle" x="125.98" y="-104.1" font-family="Times,serif" font-size="14.00">OracleRouterBase</text>
<text text-anchor="middle" x="125.98" y="-87.3" font-family="Times,serif" font-size="14.00">../contracts/oracle/OracleRouterBase.sol</text>
</g>
<!-- 120&#45;&gt;122 -->
<g id="edge1" class="edge">
<title>120&#45;&gt;122</title>
<path fill="none" stroke="black" d="M125.98,-42.44C125.98,-44.49 125.98,-46.63 125.98,-48.83"/>
<polygon fill="none" stroke="black" points="115.48,-48.94 125.98,-78.94 136.48,-48.94 115.48,-48.94"/>
</g>
</g>
</svg>
