<?xml version="1.0" encoding="UTF-8" standalone="no"?>
<!DOCTYPE svg PUBLIC "-//W3C//DTD SVG 1.1//EN"
 "http://www.w3.org/Graphics/SVG/1.1/DTD/svg11.dtd">
<!-- Generated by graphviz version 5.0.0 (20220707.1540)
 -->
<!-- Title: StorageDiagram Pages: 1 -->
<svg width="853pt" height="356pt"
 viewBox="0.00 0.00 853.33 356.20" xmlns="http://www.w3.org/2000/svg" xmlns:xlink="http://www.w3.org/1999/xlink">
<g id="graph0" class="graph" transform="scale(1 1) rotate(0) translate(4 352.2)">
<title>StorageDiagram</title>
<polygon fill="white" stroke="transparent" points="-4,4 -4,-352.2 849.33,-352.2 849.33,4 -4,4"/>
<!-- 1 -->
<g id="node1" class="node">
<title>1</title>
<polygon fill="#f2f2f2" stroke="black" points="0,-0.5 0,-347.7 845.33,-347.7 845.33,-0.5 0,-0.5"/>
<text text-anchor="middle" x="422.66" y="-331.1" font-family="Courier New" font-size="14.00">OETHBuyback &lt;&lt;Contract&gt;&gt;</text>
<polyline fill="none" stroke="black" points="0,-322.9 845.33,-322.9 "/>
<text text-anchor="middle" x="33.2" y="-306.3" font-family="Courier New" font-size="14.00">slot</text>
<polyline fill="none" stroke="black" points="0,-298.1 66.41,-298.1 "/>
<text text-anchor="middle" x="33.2" y="-281.5" font-family="Courier New" font-size="14.00">0</text>
<polyline fill="none" stroke="black" points="0,-273.3 66.41,-273.3 "/>
<text text-anchor="middle" x="33.2" y="-256.7" font-family="Courier New" font-size="14.00">1&#45;50</text>
<polyline fill="none" stroke="black" points="0,-248.5 66.41,-248.5 "/>
<text text-anchor="middle" x="33.2" y="-231.9" font-family="Courier New" font-size="14.00">51</text>
<polyline fill="none" stroke="black" points="0,-223.7 66.41,-223.7 "/>
<text text-anchor="middle" x="33.2" y="-207.1" font-family="Courier New" font-size="14.00">52&#45;101</text>
<polyline fill="none" stroke="black" points="0,-198.9 66.41,-198.9 "/>
<text text-anchor="middle" x="33.2" y="-182.3" font-family="Courier New" font-size="14.00">102</text>
<polyline fill="none" stroke="black" points="0,-174.1 66.41,-174.1 "/>
<text text-anchor="middle" x="33.2" y="-157.5" font-family="Courier New" font-size="14.00">103</text>
<polyline fill="none" stroke="black" points="0,-149.3 66.41,-149.3 "/>
<text text-anchor="middle" x="33.2" y="-132.7" font-family="Courier New" font-size="14.00">104</text>
<polyline fill="none" stroke="black" points="0,-124.5 66.41,-124.5 "/>
<text text-anchor="middle" x="33.2" y="-107.9" font-family="Courier New" font-size="14.00">105</text>
<polyline fill="none" stroke="black" points="0,-99.7 66.41,-99.7 "/>
<text text-anchor="middle" x="33.2" y="-83.1" font-family="Courier New" font-size="14.00">106</text>
<polyline fill="none" stroke="black" points="0,-74.9 66.41,-74.9 "/>
<text text-anchor="middle" x="33.2" y="-58.3" font-family="Courier New" font-size="14.00">107</text>
<polyline fill="none" stroke="black" points="0,-50.1 66.41,-50.1 "/>
<text text-anchor="middle" x="33.2" y="-33.5" font-family="Courier New" font-size="14.00">108</text>
<polyline fill="none" stroke="black" points="0,-25.3 66.41,-25.3 "/>
<text text-anchor="middle" x="33.2" y="-8.7" font-family="Courier New" font-size="14.00">109</text>
<polyline fill="none" stroke="black" points="66.41,-0.5 66.41,-322.9 "/>
<text text-anchor="middle" x="455.87" y="-306.3" font-family="Courier New" font-size="14.00">type: &lt;inherited contract&gt;.variable (bytes)</text>
<polyline fill="none" stroke="black" points="66.41,-298.1 845.33,-298.1 "/>
<text text-anchor="middle" x="141.62" y="-281.5" font-family="Courier New" font-size="14.00">unallocated (30)</text>
<polyline fill="none" stroke="black" points="216.83,-273.3 216.83,-298.1 "/>
<text text-anchor="middle" x="376.05" y="-281.5" font-family="Courier New" font-size="14.00">bool: Initializable.initializing (1)</text>
<polyline fill="none" stroke="black" points="535.28,-273.3 535.28,-298.1 "/>
<text text-anchor="middle" x="690.3" y="-281.5" font-family="Courier New" font-size="14.00">bool: Initializable.initialized (1)</text>
<polyline fill="none" stroke="black" points="66.41,-273.3 845.33,-273.3 "/>
<text text-anchor="middle" x="455.54" y="-256.7" font-family="Courier New" font-size="14.00">uint256[50]: Initializable.______gap (1600)</text>
<polyline fill="none" stroke="black" points="66.41,-248.5 845.33,-248.5 "/>
<text text-anchor="middle" x="206.12" y="-231.9" font-family="Courier New" font-size="14.00">unallocated (12)</text>
<polyline fill="none" stroke="black" points="345.83,-223.7 345.83,-248.5 "/>
<text text-anchor="middle" x="595.26" y="-231.9" font-family="Courier New" font-size="14.00">address: Strategizable.strategistAddr (20)</text>
<polyline fill="none" stroke="black" points="66.41,-223.7 845.33,-223.7 "/>
<text text-anchor="middle" x="455.73" y="-207.1" font-family="Courier New" font-size="14.00">uint256[50]: Strategizable.__gap (1600)</text>
<polyline fill="none" stroke="black" points="66.41,-198.9 845.33,-198.9 "/>
<text text-anchor="middle" x="208.62" y="-182.3" font-family="Courier New" font-size="14.00">unallocated (12)</text>
<polyline fill="none" stroke="black" points="350.83,-174.1 350.83,-198.9 "/>
<text text-anchor="middle" x="598.06" y="-182.3" font-family="Courier New" font-size="14.00">address: BaseBuyback.universalRouter (20)</text>
<polyline fill="none" stroke="black" points="66.41,-174.1 845.33,-174.1 "/>
<text text-anchor="middle" x="204.12" y="-157.5" font-family="Courier New" font-size="14.00">unallocated (12)</text>
<polyline fill="none" stroke="black" points="341.83,-149.3 341.83,-174.1 "/>
<text text-anchor="middle" x="593.46" y="-157.5" font-family="Courier New" font-size="14.00">address: BaseBuyback.__deprecated_ousd (20)</text>
<polyline fill="none" stroke="black" points="66.41,-149.3 845.33,-149.3 "/>
<text text-anchor="middle" x="206.12" y="-132.7" font-family="Courier New" font-size="14.00">unallocated (12)</text>
<polyline fill="none" stroke="black" points="345.83,-124.5 345.83,-149.3 "/>
<text text-anchor="middle" x="595.26" y="-132.7" font-family="Courier New" font-size="14.00">address: BaseBuyback.__deprecated_ogv (20)</text>
<polyline fill="none" stroke="black" points="66.41,-124.5 845.33,-124.5 "/>
<text text-anchor="middle" x="204.12" y="-107.9" font-family="Courier New" font-size="14.00">unallocated (12)</text>
<polyline fill="none" stroke="black" points="341.83,-99.7 341.83,-124.5 "/>
<text text-anchor="middle" x="593.46" y="-107.9" font-family="Courier New" font-size="14.00">address: BaseBuyback.__deprecated_usdt (20)</text>
<polyline fill="none" stroke="black" points="66.41,-99.7 845.33,-99.7 "/>
<text text-anchor="middle" x="202.12" y="-83.1" font-family="Courier New" font-size="14.00">unallocated (12)</text>
<polyline fill="none" stroke="black" points="337.83,-74.9 337.83,-99.7 "/>
<text text-anchor="middle" x="591.16" y="-83.1" font-family="Courier New" font-size="14.00">address: BaseBuyback.__deprecated_weth9 (20)</text>
<polyline fill="none" stroke="black" points="66.41,-74.9 845.33,-74.9 "/>
<text text-anchor="middle" x="212.62" y="-58.3" font-family="Courier New" font-size="14.00">unallocated (12)</text>
<polyline fill="none" stroke="black" points="358.83,-50.1 358.83,-74.9 "/>
<text text-anchor="middle" x="601.66" y="-58.3" font-family="Courier New" font-size="14.00">address: BaseBuyback.rewardsSource (20)</text>
<polyline fill="none" stroke="black" points="66.41,-50.1 845.33,-50.1 "/>
<text text-anchor="middle" x="208.62" y="-33.5" font-family="Courier New" font-size="14.00">unallocated (12)</text>
<polyline fill="none" stroke="black" points="350.83,-25.3 350.83,-50.1 "/>
<text text-anchor="middle" x="598.06" y="-33.5" font-family="Courier New" font-size="14.00">address: BaseBuyback.treasuryManager (20)</text>
<polyline fill="none" stroke="black" points="66.41,-25.3 845.33,-25.3 "/>
<text text-anchor="middle" x="455.44" y="-8.7" font-family="Courier New" font-size="14.00">uint256: BaseBuyback.__deprecated_treasuryBps (32)</text>
</g>
</g>
</svg>
