<?xml version="1.0" encoding="UTF-8" standalone="no"?>
<!DOCTYPE svg PUBLIC "-//W3C//DTD SVG 1.1//EN"
 "http://www.w3.org/Graphics/SVG/1.1/DTD/svg11.dtd">
<!-- Generated by graphviz version 5.0.0 (20220707.1540)
 -->
<!-- Title: UmlClassDiagram Pages: 1 -->
<svg width="599pt" height="241pt"
 viewBox="0.00 0.00 598.99 241.40" xmlns="http://www.w3.org/2000/svg" xmlns:xlink="http://www.w3.org/1999/xlink">
<g id="graph0" class="graph" transform="scale(1 1) rotate(0) translate(4 237.4)">
<title>UmlClassDiagram</title>
<polygon fill="white" stroke="transparent" points="-4,4 -4,-237.4 594.99,-237.4 594.99,4 -4,4"/>
<!-- 48 -->
<g id="node1" class="node">
<title>48</title>
<polygon fill="#f2f2f2" stroke="black" points="364.31,-174.5 364.31,-232.9 565.72,-232.9 565.72,-174.5 364.31,-174.5"/>
<text text-anchor="middle" x="465.01" y="-216.3" font-family="Times,serif" font-size="14.00">&lt;&lt;Interface&gt;&gt;</text>
<text text-anchor="middle" x="465.01" y="-199.5" font-family="Times,serif" font-size="14.00">IOracle</text>
<text text-anchor="middle" x="465.01" y="-182.7" font-family="Times,serif" font-size="14.00">../contracts/interfaces/IOracle.sol</text>
</g>
<!-- 229 -->
<g id="node2" class="node">
<title>229</title>
<polygon fill="#f2f2f2" stroke="black" points="0,-174.5 0,-232.9 346.03,-232.9 346.03,-174.5 0,-174.5"/>
<text text-anchor="middle" x="173.01" y="-216.3" font-family="Times,serif" font-size="14.00">&lt;&lt;Interface&gt;&gt;</text>
<text text-anchor="middle" x="173.01" y="-199.5" font-family="Times,serif" font-size="14.00">AggregatorV3Interface</text>
<text text-anchor="middle" x="173.01" y="-182.7" font-family="Times,serif" font-size="14.00">../contracts/interfaces/chainlink/AggregatorV3Interface.sol</text>
</g>
<!-- 116 -->
<g id="node3" class="node">
<title>116</title>
<polygon fill="#f2f2f2" stroke="black" points="339.03,-0.5 339.03,-42.1 590.99,-42.1 590.99,-0.5 339.03,-0.5"/>
<text text-anchor="middle" x="465.01" y="-25.5" font-family="Times,serif" font-size="14.00">OETHOracleRouter</text>
<text text-anchor="middle" x="465.01" y="-8.7" font-family="Times,serif" font-size="14.00">../contracts/oracle/OETHOracleRouter.sol</text>
</g>
<!-- 116&#45;&gt;229 -->
<g id="edge2" class="edge">
<title>116&#45;&gt;229</title>
<path fill="none" stroke="black" stroke-dasharray="5,2" d="M411.07,-42.2C387.11,-51.9 358.98,-64.52 335.01,-78.6 290.66,-104.66 244.51,-141.08 212.86,-167.72"/>
<polygon fill="black" stroke="black" points="210.5,-165.14 205.14,-174.28 215.03,-170.48 210.5,-165.14"/>
</g>
<!-- 118 -->
<g id="node4" class="node">
<title>118</title>
<polygon fill="#f2f2f2" stroke="black" points="344.09,-79.1 344.09,-137.5 585.94,-137.5 585.94,-79.1 344.09,-79.1"/>
<text text-anchor="middle" x="465.01" y="-120.9" font-family="Times,serif" font-size="14.00">&lt;&lt;Abstract&gt;&gt;</text>
<text text-anchor="middle" x="465.01" y="-104.1" font-family="Times,serif" font-size="14.00">OracleRouterBase</text>
<text text-anchor="middle" x="465.01" y="-87.3" font-family="Times,serif" font-size="14.00">../contracts/oracle/OracleRouterBase.sol</text>
</g>
<!-- 116&#45;&gt;118 -->
<g id="edge1" class="edge">
<title>116&#45;&gt;118</title>
<path fill="none" stroke="black" d="M465.01,-42.44C465.01,-44.49 465.01,-46.63 465.01,-48.83"/>
<polygon fill="none" stroke="black" points="454.51,-48.94 465.01,-78.94 475.51,-48.94 454.51,-48.94"/>
</g>
<!-- 118&#45;&gt;48 -->
<g id="edge3" class="edge">
<title>118&#45;&gt;48</title>
<path fill="none" stroke="black" stroke-dasharray="5,2" d="M465.01,-137.58C465.01,-139.66 465.01,-141.8 465.01,-143.98"/>
<polygon fill="none" stroke="black" points="454.51,-144.2 465.01,-174.2 475.51,-144.2 454.51,-144.2"/>
</g>
<!-- 118&#45;&gt;229 -->
<g id="edge4" class="edge">
<title>118&#45;&gt;229</title>
<path fill="none" stroke="black" stroke-dasharray="5,2" d="M376.61,-137.58C343.24,-148.25 305.09,-160.45 270.9,-171.39"/>
<polygon fill="black" stroke="black" points="269.82,-168.06 261.37,-174.44 271.96,-174.73 269.82,-168.06"/>
</g>
</g>
</svg>
