<?xml version="1.0" encoding="UTF-8" standalone="no"?>
<!DOCTYPE svg PUBLIC "-//W3C//DTD SVG 1.1//EN"
 "http://www.w3.org/Graphics/SVG/1.1/DTD/svg11.dtd">
<!-- Generated by graphviz version 5.0.0 (20220707.1540)
 -->
<!-- Title: StorageDiagram Pages: 1 -->
<svg width="2480pt" height="819pt"
 viewBox="0.00 0.00 2479.97 818.60" xmlns="http://www.w3.org/2000/svg" xmlns:xlink="http://www.w3.org/1999/xlink">
<g id="graph0" class="graph" transform="scale(1 1) rotate(0) translate(4 814.6)">
<title>StorageDiagram</title>
<polygon fill="white" stroke="transparent" points="-4,4 -4,-814.6 2475.97,-814.6 2475.97,4 -4,4"/>
<!-- 6 -->
<g id="node1" class="node">
<title>6</title>
<polygon fill="#f2f2f2" stroke="black" points="0,-0.5 0,-769.3 1230.99,-769.3 1230.99,-0.5 0,-0.5"/>
<text text-anchor="middle" x="615.49" y="-752.7" font-family="Courier New" font-size="14.00">OETHVaultCore &lt;&lt;Contract&gt;&gt;</text>
<polyline fill="none" stroke="black" points="0,-744.5 1230.99,-744.5 "/>
<text text-anchor="middle" x="50.01" y="-727.9" font-family="Courier New" font-size="14.00">slot</text>
<polyline fill="none" stroke="black" points="0,-719.7 100.01,-719.7 "/>
<text text-anchor="middle" x="50.01" y="-703.1" font-family="Courier New" font-size="14.00">0</text>
<polyline fill="none" stroke="black" points="0,-694.9 100.01,-694.9 "/>
<text text-anchor="middle" x="50.01" y="-678.3" font-family="Courier New" font-size="14.00">1&#45;50</text>
<polyline fill="none" stroke="black" points="0,-670.1 100.01,-670.1 "/>
<text text-anchor="middle" x="50.01" y="-653.5" font-family="Courier New" font-size="14.00">51</text>
<polyline fill="none" stroke="black" points="0,-645.3 100.01,-645.3 "/>
<text text-anchor="middle" x="50.01" y="-628.7" font-family="Courier New" font-size="14.00">52</text>
<polyline fill="none" stroke="black" points="0,-620.5 100.01,-620.5 "/>
<text text-anchor="middle" x="50.01" y="-603.9" font-family="Courier New" font-size="14.00">53</text>
<polyline fill="none" stroke="black" points="0,-595.7 100.01,-595.7 "/>
<text text-anchor="middle" x="50.01" y="-579.1" font-family="Courier New" font-size="14.00">54</text>
<polyline fill="none" stroke="black" points="0,-570.9 100.01,-570.9 "/>
<text text-anchor="middle" x="50.01" y="-554.3" font-family="Courier New" font-size="14.00">55</text>
<polyline fill="none" stroke="black" points="0,-546.1 100.01,-546.1 "/>
<text text-anchor="middle" x="50.01" y="-529.5" font-family="Courier New" font-size="14.00">56</text>
<polyline fill="none" stroke="black" points="0,-521.3 100.01,-521.3 "/>
<text text-anchor="middle" x="50.01" y="-504.7" font-family="Courier New" font-size="14.00">57</text>
<polyline fill="none" stroke="black" points="0,-496.5 100.01,-496.5 "/>
<text text-anchor="middle" x="50.01" y="-479.9" font-family="Courier New" font-size="14.00">58</text>
<polyline fill="none" stroke="black" points="0,-471.7 100.01,-471.7 "/>
<text text-anchor="middle" x="50.01" y="-455.1" font-family="Courier New" font-size="14.00">59</text>
<polyline fill="none" stroke="black" points="0,-446.9 100.01,-446.9 "/>
<text text-anchor="middle" x="50.01" y="-430.3" font-family="Courier New" font-size="14.00">60</text>
<polyline fill="none" stroke="black" points="0,-422.1 100.01,-422.1 "/>
<text text-anchor="middle" x="50.01" y="-405.5" font-family="Courier New" font-size="14.00">61</text>
<polyline fill="none" stroke="black" points="0,-397.3 100.01,-397.3 "/>
<text text-anchor="middle" x="50.01" y="-380.7" font-family="Courier New" font-size="14.00">62</text>
<polyline fill="none" stroke="black" points="0,-372.5 100.01,-372.5 "/>
<text text-anchor="middle" x="50.01" y="-355.9" font-family="Courier New" font-size="14.00">63</text>
<polyline fill="none" stroke="black" points="0,-347.7 100.01,-347.7 "/>
<text text-anchor="middle" x="50.01" y="-331.1" font-family="Courier New" font-size="14.00">64</text>
<polyline fill="none" stroke="black" points="0,-322.9 100.01,-322.9 "/>
<text text-anchor="middle" x="50.01" y="-306.3" font-family="Courier New" font-size="14.00">65</text>
<polyline fill="none" stroke="black" points="0,-298.1 100.01,-298.1 "/>
<text text-anchor="middle" x="50.01" y="-281.5" font-family="Courier New" font-size="14.00">66</text>
<polyline fill="none" stroke="black" points="0,-273.3 100.01,-273.3 "/>
<text text-anchor="middle" x="50.01" y="-256.7" font-family="Courier New" font-size="14.00">67</text>
<polyline fill="none" stroke="black" points="0,-248.5 100.01,-248.5 "/>
<text text-anchor="middle" x="50.01" y="-231.9" font-family="Courier New" font-size="14.00">68</text>
<polyline fill="none" stroke="black" points="0,-223.7 100.01,-223.7 "/>
<text text-anchor="middle" x="50.01" y="-207.1" font-family="Courier New" font-size="14.00">69</text>
<polyline fill="none" stroke="black" points="0,-198.9 100.01,-198.9 "/>
<text text-anchor="middle" x="50.01" y="-182.3" font-family="Courier New" font-size="14.00">70</text>
<polyline fill="none" stroke="black" points="0,-174.1 100.01,-174.1 "/>
<text text-anchor="middle" x="50.01" y="-157.5" font-family="Courier New" font-size="14.00">71</text>
<polyline fill="none" stroke="black" points="0,-149.3 100.01,-149.3 "/>
<text text-anchor="middle" x="50.01" y="-132.7" font-family="Courier New" font-size="14.00">72</text>
<polyline fill="none" stroke="black" points="0,-124.5 100.01,-124.5 "/>
<text text-anchor="middle" x="50.01" y="-107.9" font-family="Courier New" font-size="14.00">0x360..bbc</text>
<polyline fill="none" stroke="black" points="0,-99.7 100.01,-99.7 "/>
<text text-anchor="middle" x="50.01" y="-83.1" font-family="Courier New" font-size="14.00">0x44c..1db</text>
<polyline fill="none" stroke="black" points="0,-74.9 100.01,-74.9 "/>
<text text-anchor="middle" x="50.01" y="-58.3" font-family="Courier New" font-size="14.00">0x53b..535</text>
<polyline fill="none" stroke="black" points="0,-50.1 100.01,-50.1 "/>
<text text-anchor="middle" x="50.01" y="-33.5" font-family="Courier New" font-size="14.00">0x7be..a4a</text>
<polyline fill="none" stroke="black" points="0,-25.3 100.01,-25.3 "/>
<text text-anchor="middle" x="50.01" y="-8.7" font-family="Courier New" font-size="14.00">0xa2b..bd9</text>
<polyline fill="none" stroke="black" points="100.01,-0.5 100.01,-744.5 "/>
<text text-anchor="middle" x="665.5" y="-727.9" font-family="Courier New" font-size="14.00">type: &lt;inherited contract&gt;.variable (bytes)</text>
<polyline fill="none" stroke="black" points="100.01,-719.7 1230.99,-719.7 "/>
<text text-anchor="middle" x="233.72" y="-703.1" font-family="Courier New" font-size="14.00">unallocated (30)</text>
<polyline fill="none" stroke="black" points="367.44,-694.9 367.44,-719.7 "/>
<text text-anchor="middle" x="585.16" y="-703.1" font-family="Courier New" font-size="14.00">bool: Initializable.initializing (1)</text>
<polyline fill="none" stroke="black" points="802.88,-694.9 802.88,-719.7 "/>
<text text-anchor="middle" x="1016.91" y="-703.1" font-family="Courier New" font-size="14.00">bool: Initializable.initialized (1)</text>
<polyline fill="none" stroke="black" points="100.01,-694.9 1230.99,-694.9 "/>
<text text-anchor="middle" x="665.14" y="-678.3" font-family="Courier New" font-size="14.00">uint256[50]: Initializable.______gap (1600)</text>
<polyline fill="none" stroke="black" points="100.01,-670.1 1230.99,-670.1 "/>
<text text-anchor="middle" x="665.35" y="-653.5" font-family="Courier New" font-size="14.00">mapping(address=&gt;Asset): VaultStorage.assets (32)</text>
<polyline fill="none" stroke="black" points="100.01,-645.3 1230.99,-645.3 "/>
<text text-anchor="middle" x="665.14" y="-628.7" font-family="Courier New" font-size="14.00">address[]: VaultStorage.allAssets (32)</text>
<polyline fill="none" stroke="black" points="100.01,-620.5 1230.99,-620.5 "/>
<text text-anchor="middle" x="665.25" y="-603.9" font-family="Courier New" font-size="14.00">mapping(address=&gt;Strategy): VaultStorage.strategies (32)</text>
<polyline fill="none" stroke="black" points="100.01,-595.7 1230.99,-595.7 "/>
<text text-anchor="middle" x="665.44" y="-579.1" font-family="Courier New" font-size="14.00">address[]: VaultStorage.allStrategies (32)</text>
<polyline fill="none" stroke="black" points="100.01,-570.9 1230.99,-570.9 "/>
<text text-anchor="middle" x="175.22" y="-554.3" font-family="Courier New" font-size="14.00">unallocated (10)</text>
<polyline fill="none" stroke="black" points="250.44,-546.1 250.44,-570.9 "/>
<text text-anchor="middle" x="409.66" y="-554.3" font-family="Courier New" font-size="14.00">bool: VaultStorage.capitalPaused (1)</text>
<polyline fill="none" stroke="black" points="568.88,-546.1 568.88,-570.9 "/>
<text text-anchor="middle" x="723.91" y="-554.3" font-family="Courier New" font-size="14.00">bool: VaultStorage.rebasePaused (1)</text>
<polyline fill="none" stroke="black" points="878.93,-546.1 878.93,-570.9 "/>
<text text-anchor="middle" x="1054.96" y="-554.3" font-family="Courier New" font-size="14.00">address: VaultStorage.priceProvider (20)</text>
<polyline fill="none" stroke="black" points="100.01,-546.1 1230.99,-546.1 "/>
<text text-anchor="middle" x="665.34" y="-529.5" font-family="Courier New" font-size="14.00">uint256: VaultStorage.redeemFeeBps (32)</text>
<polyline fill="none" stroke="black" points="100.01,-521.3 1230.99,-521.3 "/>
<text text-anchor="middle" x="665.14" y="-504.7" font-family="Courier New" font-size="14.00">uint256: VaultStorage.vaultBuffer (32)</text>
<polyline fill="none" stroke="black" points="100.01,-496.5 1230.99,-496.5 "/>
<text text-anchor="middle" x="665.15" y="-479.9" font-family="Courier New" font-size="14.00">uint256: VaultStorage.autoAllocateThreshold (32)</text>
<polyline fill="none" stroke="black" points="100.01,-471.7 1230.99,-471.7 "/>
<text text-anchor="middle" x="665.44" y="-455.1" font-family="Courier New" font-size="14.00">uint256: VaultStorage.rebaseThreshold (32)</text>
<polyline fill="none" stroke="black" points="100.01,-446.9 1230.99,-446.9 "/>
<text text-anchor="middle" x="357.22" y="-430.3" font-family="Courier New" font-size="14.00">unallocated (12)</text>
<polyline fill="none" stroke="black" points="614.44,-422.1 614.44,-446.9 "/>
<text text-anchor="middle" x="922.55" y="-430.3" font-family="Courier New" font-size="14.00">OUSD: VaultStorage.oUSD (20)</text>
<polyline fill="none" stroke="black" points="100.01,-422.1 1230.99,-422.1 "/>
<text text-anchor="middle" x="302.72" y="-405.5" font-family="Courier New" font-size="14.00">unallocated (12)</text>
<polyline fill="none" stroke="black" points="505.44,-397.3 505.44,-422.1 "/>
<text text-anchor="middle" x="867.77" y="-405.5" font-family="Courier New" font-size="14.00">address: VaultStorage._deprecated_rebaseHooksAddr (20)</text>
<polyline fill="none" stroke="black" points="100.01,-397.3 1230.99,-397.3 "/>
<text text-anchor="middle" x="311.22" y="-380.7" font-family="Courier New" font-size="14.00">unallocated (12)</text>
<polyline fill="none" stroke="black" points="522.44,-372.5 522.44,-397.3 "/>
<text text-anchor="middle" x="876.47" y="-380.7" font-family="Courier New" font-size="14.00">address: VaultStorage._deprecated_uniswapAddr (20)</text>
<polyline fill="none" stroke="black" points="100.01,-372.5 1230.99,-372.5 "/>
<text text-anchor="middle" x="330.22" y="-355.9" font-family="Courier New" font-size="14.00">unallocated (12)</text>
<polyline fill="none" stroke="black" points="560.44,-347.7 560.44,-372.5 "/>
<text text-anchor="middle" x="895.66" y="-355.9" font-family="Courier New" font-size="14.00">address: VaultStorage.strategistAddr (20)</text>
<polyline fill="none" stroke="black" points="100.01,-347.7 1230.99,-347.7 "/>
<text text-anchor="middle" x="665.46" y="-331.1" font-family="Courier New" font-size="14.00">mapping(address=&gt;address): VaultStorage.assetDefaultStrategies (32)</text>
<polyline fill="none" stroke="black" points="100.01,-322.9 1230.99,-322.9 "/>
<text text-anchor="middle" x="665.04" y="-306.3" font-family="Courier New" font-size="14.00">uint256: VaultStorage.maxSupplyDiff (32)</text>
<polyline fill="none" stroke="black" points="100.01,-298.1 1230.99,-298.1 "/>
<text text-anchor="middle" x="330.22" y="-281.5" font-family="Courier New" font-size="14.00">unallocated (12)</text>
<polyline fill="none" stroke="black" points="560.44,-273.3 560.44,-298.1 "/>
<text text-anchor="middle" x="895.66" y="-281.5" font-family="Courier New" font-size="14.00">address: VaultStorage.trusteeAddress (20)</text>
<polyline fill="none" stroke="black" points="100.01,-273.3 1230.99,-273.3 "/>
<text text-anchor="middle" x="665.04" y="-256.7" font-family="Courier New" font-size="14.00">uint256: VaultStorage.trusteeFeeBps (32)</text>
<polyline fill="none" stroke="black" points="100.01,-248.5 1230.99,-248.5 "/>
<text text-anchor="middle" x="665.25" y="-231.9" font-family="Courier New" font-size="14.00">address[]: VaultStorage._deprecated_swapTokens (32)</text>
<polyline fill="none" stroke="black" points="100.01,-223.7 1230.99,-223.7 "/>
<text text-anchor="middle" x="302.72" y="-207.1" font-family="Courier New" font-size="14.00">unallocated (12)</text>
<polyline fill="none" stroke="black" points="505.44,-198.9 505.44,-223.7 "/>
<text text-anchor="middle" x="867.77" y="-207.1" font-family="Courier New" font-size="14.00">address: VaultStorage._deprecatedOusdMetaStrategy (20)</text>
<polyline fill="none" stroke="black" points="100.01,-198.9 1230.99,-198.9 "/>
<text text-anchor="middle" x="665.26" y="-182.3" font-family="Courier New" font-size="14.00">int256: VaultStorage._deprecatedNetOusdMintedForStrategy (32)</text>
<polyline fill="none" stroke="black" points="100.01,-174.1 1230.99,-174.1 "/>
<text text-anchor="middle" x="665.36" y="-157.5" font-family="Courier New" font-size="14.00">uint256: VaultStorage._deprecatedNetOusdMintForStrategyThreshold (32)</text>
<polyline fill="none" stroke="black" points="100.01,-149.3 1230.99,-149.3 "/>
<text text-anchor="middle" x="665.04" y="-132.7" font-family="Courier New" font-size="14.00">SwapConfig: VaultStorage.swapConfig (32)</text>
<polyline fill="none" stroke="black" points="100.01,-124.5 1230.99,-124.5 "/>
<text text-anchor="middle" x="390.72" y="-107.9" font-family="Courier New" font-size="14.00">unallocated (12)</text>
<polyline fill="none" stroke="black" points="681.44,-99.7 681.44,-124.5 "/>
<text text-anchor="middle" x="955.84" y="-107.9" font-family="Courier New" font-size="14.00">address (20)</text>
<polyline fill="none" stroke="black" points="100.01,-99.7 1230.99,-99.7 "/>
<text text-anchor="middle" x="342.72" y="-83.1" font-family="Courier New" font-size="14.00">unallocated (12)</text>
<polyline fill="none" stroke="black" points="585.44,-74.9 585.44,-99.7 "/>
<text text-anchor="middle" x="907.96" y="-83.1" font-family="Courier New" font-size="14.00">address: OUSD.pending.governor (20)</text>
<polyline fill="none" stroke="black" points="100.01,-74.9 1230.99,-74.9 "/>
<text text-anchor="middle" x="355.22" y="-58.3" font-family="Courier New" font-size="14.00">unallocated (31)</text>
<polyline fill="none" stroke="black" points="610.44,-50.1 610.44,-74.9 "/>
<text text-anchor="middle" x="920.26" y="-58.3" font-family="Courier New" font-size="14.00">bool: OUSD.reentry.status (1)</text>
<polyline fill="none" stroke="black" points="100.01,-50.1 1230.99,-50.1 "/>
<text text-anchor="middle" x="359.22" y="-33.5" font-family="Courier New" font-size="14.00">unallocated (12)</text>
<polyline fill="none" stroke="black" points="618.44,-25.3 618.44,-50.1 "/>
<text text-anchor="middle" x="924.35" y="-33.5" font-family="Courier New" font-size="14.00">address: OUSD.governor (20)</text>
<polyline fill="none" stroke="black" points="100.01,-25.3 1230.99,-25.3 "/>
<text text-anchor="middle" x="323.72" y="-8.7" font-family="Courier New" font-size="14.00">unallocated (12)</text>
<polyline fill="none" stroke="black" points="547.44,-0.5 547.44,-25.3 "/>
<text text-anchor="middle" x="888.77" y="-8.7" font-family="Courier New" font-size="14.00">address: OUSD.vault.governor.admin.impl (20)</text>
</g>
<!-- 1 -->
<g id="node2" class="node">
<title>1</title>
<polygon fill="#f2f2f2" stroke="black" points="1266.99,-735.7 1266.99,-810.1 2471.97,-810.1 2471.97,-735.7 1266.99,-735.7"/>
<text text-anchor="middle" x="1869.48" y="-793.5" font-family="Courier New" font-size="14.00">Asset &lt;&lt;Struct&gt;&gt;</text>
<polyline fill="none" stroke="black" points="1266.99,-785.3 2471.97,-785.3 "/>
<text text-anchor="middle" x="1300.19" y="-768.7" font-family="Courier New" font-size="14.00">offset</text>
<polyline fill="none" stroke="black" points="1266.99,-760.5 1333.4,-760.5 "/>
<text text-anchor="middle" x="1300.19" y="-743.9" font-family="Courier New" font-size="14.00">0</text>
<polyline fill="none" stroke="black" points="1333.4,-735.7 1333.4,-785.3 "/>
<text text-anchor="middle" x="1902.68" y="-768.7" font-family="Courier New" font-size="14.00">type: variable (bytes)</text>
<polyline fill="none" stroke="black" points="1333.4,-760.5 2471.97,-760.5 "/>
<text text-anchor="middle" x="1408.61" y="-743.9" font-family="Courier New" font-size="14.00">unallocated (27)</text>
<polyline fill="none" stroke="black" points="1483.82,-735.7 1483.82,-760.5 "/>
<text text-anchor="middle" x="1643.04" y="-743.9" font-family="Courier New" font-size="14.00">uint16: allowedOracleSlippageBps (2)</text>
<polyline fill="none" stroke="black" points="1802.27,-735.7 1802.27,-760.5 "/>
<text text-anchor="middle" x="1890.08" y="-743.9" font-family="Courier New" font-size="14.00">uint8: decimals (1)</text>
<polyline fill="none" stroke="black" points="1977.89,-735.7 1977.89,-760.5 "/>
<text text-anchor="middle" x="2128.72" y="-743.9" font-family="Courier New" font-size="14.00">UnitConversion: unitConversion (1)</text>
<polyline fill="none" stroke="black" points="2279.54,-735.7 2279.54,-760.5 "/>
<text text-anchor="middle" x="2375.75" y="-743.9" font-family="Courier New" font-size="14.00">bool: isSupported (1)</text>
</g>
<!-- 6&#45;&gt;1 -->
<g id="edge1" class="edge">
<title>6:8&#45;&gt;1</title>
<path fill="none" stroke="black" d="M1230.99,-657.9C1265.18,-657.9 1238.4,-707.13 1266.99,-725.9 1269.24,-727.38 1271.5,-728.83 1273.78,-730.26"/>
<polygon fill="black" stroke="black" points="1272.29,-733.45 1282.66,-735.65 1275.92,-727.46 1272.29,-733.45"/>
</g>
<!-- 2 -->
<g id="node3" class="node">
<title>2</title>
<polygon fill="#f2f2f2" stroke="black" points="1584.23,-625.3 1584.23,-716.5 2154.72,-716.5 2154.72,-625.3 1584.23,-625.3"/>
<text text-anchor="middle" x="1869.48" y="-699.9" font-family="Courier New" font-size="14.00">address[]: allAssets &lt;&lt;Array&gt;&gt;</text>
<text text-anchor="middle" x="1869.48" y="-683.1" font-family="Courier New" font-size="14.00">0x46bddb1178e94d7f2892ff5f366840eb658911794f2c3a44c450aa2c505186c1</text>
<polyline fill="none" stroke="black" points="1584.23,-674.9 2154.72,-674.9 "/>
<text text-anchor="middle" x="1676.44" y="-658.3" font-family="Courier New" font-size="14.00">offset</text>
<polyline fill="none" stroke="black" points="1584.23,-650.1 1768.64,-650.1 "/>
<text text-anchor="middle" x="1676.44" y="-633.5" font-family="Courier New" font-size="14.00">0</text>
<polyline fill="none" stroke="black" points="1768.64,-625.3 1768.64,-674.9 "/>
<text text-anchor="middle" x="1961.26" y="-658.3" font-family="Courier New" font-size="14.00">type: variable (bytes)</text>
<polyline fill="none" stroke="black" points="1768.64,-650.1 2153.88,-650.1 "/>
<text text-anchor="middle" x="1873.35" y="-633.5" font-family="Courier New" font-size="14.00">unallocated (12)</text>
<polyline fill="none" stroke="black" points="1978.06,-625.3 1978.06,-650.1 "/>
<text text-anchor="middle" x="2065.97" y="-633.5" font-family="Courier New" font-size="14.00">address (20)</text>
</g>
<!-- 6&#45;&gt;2 -->
<g id="edge2" class="edge">
<title>6:10&#45;&gt;2</title>
<path fill="none" stroke="black" d="M1230.99,-632.9C1343.07,-632.9 1466.05,-638.83 1573.83,-646"/>
<polygon fill="black" stroke="black" points="1573.67,-649.49 1583.88,-646.67 1574.14,-642.51 1573.67,-649.49"/>
</g>
<!-- 3 -->
<g id="node4" class="node">
<title>3</title>
<polygon fill="#f2f2f2" stroke="black" points="1317.4,-531.7 1317.4,-606.1 2421.56,-606.1 2421.56,-531.7 1317.4,-531.7"/>
<text text-anchor="middle" x="1869.48" y="-589.5" font-family="Courier New" font-size="14.00">Strategy &lt;&lt;Struct&gt;&gt;</text>
<polyline fill="none" stroke="black" points="1317.4,-581.3 2421.56,-581.3 "/>
<text text-anchor="middle" x="1350.6" y="-564.7" font-family="Courier New" font-size="14.00">offset</text>
<polyline fill="none" stroke="black" points="1317.4,-556.5 1383.8,-556.5 "/>
<text text-anchor="middle" x="1350.6" y="-539.9" font-family="Courier New" font-size="14.00">0</text>
<polyline fill="none" stroke="black" points="1383.8,-531.7 1383.8,-581.3 "/>
<text text-anchor="middle" x="1902.68" y="-564.7" font-family="Courier New" font-size="14.00">type: variable (bytes)</text>
<polyline fill="none" stroke="black" points="1383.8,-556.5 2421.56,-556.5 "/>
<text text-anchor="middle" x="1454.81" y="-539.9" font-family="Courier New" font-size="14.00">unallocated (6)</text>
<polyline fill="none" stroke="black" points="1525.82,-531.7 1525.82,-556.5 "/>
<text text-anchor="middle" x="1685.05" y="-539.9" font-family="Courier New" font-size="14.00">int96: mintForStrategyThreshold (12)</text>
<polyline fill="none" stroke="black" points="1844.27,-531.7 1844.27,-556.5 "/>
<text text-anchor="middle" x="1965.69" y="-539.9" font-family="Courier New" font-size="14.00">int96: mintForStrategy (12)</text>
<polyline fill="none" stroke="black" points="2087.11,-531.7 2087.11,-556.5 "/>
<text text-anchor="middle" x="2158.12" y="-539.9" font-family="Courier New" font-size="14.00">bool: isAMO (1)</text>
<polyline fill="none" stroke="black" points="2229.13,-531.7 2229.13,-556.5 "/>
<text text-anchor="middle" x="2325.35" y="-539.9" font-family="Courier New" font-size="14.00">bool: isSupported (1)</text>
</g>
<!-- 6&#45;&gt;3 -->
<g id="edge3" class="edge">
<title>6:15&#45;&gt;3</title>
<path fill="none" stroke="black" d="M1230.99,-607.9C1264.42,-607.9 1298.81,-607.36 1333.49,-606.4"/>
<polygon fill="black" stroke="black" points="1333.87,-609.9 1343.76,-606.11 1333.67,-602.9 1333.87,-609.9"/>
</g>
<!-- 4 -->
<g id="node5" class="node">
<title>4</title>
<polygon fill="#f2f2f2" stroke="black" points="1584.23,-421.3 1584.23,-512.5 2154.72,-512.5 2154.72,-421.3 1584.23,-421.3"/>
<text text-anchor="middle" x="1869.48" y="-495.9" font-family="Courier New" font-size="14.00">address[]: allStrategies &lt;&lt;Array&gt;&gt;</text>
<text text-anchor="middle" x="1869.48" y="-479.1" font-family="Courier New" font-size="14.00">0x4a11f94e20a93c79f6ec743a1954ec4fc2c08429ae2122118bf234b2185c81b8</text>
<polyline fill="none" stroke="black" points="1584.23,-470.9 2154.72,-470.9 "/>
<text text-anchor="middle" x="1676.44" y="-454.3" font-family="Courier New" font-size="14.00">offset</text>
<polyline fill="none" stroke="black" points="1584.23,-446.1 1768.64,-446.1 "/>
<text text-anchor="middle" x="1676.44" y="-429.5" font-family="Courier New" font-size="14.00">0</text>
<polyline fill="none" stroke="black" points="1768.64,-421.3 1768.64,-470.9 "/>
<text text-anchor="middle" x="1961.26" y="-454.3" font-family="Courier New" font-size="14.00">type: variable (bytes)</text>
<polyline fill="none" stroke="black" points="1768.64,-446.1 2153.88,-446.1 "/>
<text text-anchor="middle" x="1873.35" y="-429.5" font-family="Courier New" font-size="14.00">unallocated (12)</text>
<polyline fill="none" stroke="black" points="1978.06,-421.3 1978.06,-446.1 "/>
<text text-anchor="middle" x="2065.97" y="-429.5" font-family="Courier New" font-size="14.00">address (20)</text>
</g>
<!-- 6&#45;&gt;4 -->
<g id="edge4" class="edge">
<title>6:17&#45;&gt;4</title>
<path fill="none" stroke="black" d="M1230.99,-582.9C1262.47,-582.9 1240.39,-538.74 1266.99,-521.9 1356.89,-464.98 1470.03,-444.54 1573.86,-440.61"/>
<polygon fill="black" stroke="black" points="1574,-444.11 1583.88,-440.28 1573.77,-437.11 1574,-444.11"/>
</g>
<!-- 5 -->
<g id="node6" class="node">
<title>5</title>
<polygon fill="#f2f2f2" stroke="black" points="1530.83,-99.7 1530.83,-174.1 2208.13,-174.1 2208.13,-99.7 1530.83,-99.7"/>
<text text-anchor="middle" x="1869.48" y="-157.5" font-family="Courier New" font-size="14.00">SwapConfig &lt;&lt;Struct&gt;&gt;</text>
<polyline fill="none" stroke="black" points="1530.83,-149.3 2208.13,-149.3 "/>
<text text-anchor="middle" x="1555.63" y="-132.7" font-family="Courier New" font-size="14.00">slot</text>
<polyline fill="none" stroke="black" points="1530.83,-124.5 1580.43,-124.5 "/>
<text text-anchor="middle" x="1555.63" y="-107.9" font-family="Courier New" font-size="14.00">72</text>
<polyline fill="none" stroke="black" points="1580.43,-99.7 1580.43,-149.3 "/>
<text text-anchor="middle" x="1894.28" y="-132.7" font-family="Courier New" font-size="14.00">type: variable (bytes)</text>
<polyline fill="none" stroke="black" points="1580.43,-124.5 2208.13,-124.5 "/>
<text text-anchor="middle" x="1655.64" y="-107.9" font-family="Courier New" font-size="14.00">unallocated (10)</text>
<polyline fill="none" stroke="black" points="1730.85,-99.7 1730.85,-124.5 "/>
<text text-anchor="middle" x="1873.28" y="-107.9" font-family="Courier New" font-size="14.00">uint16: allowedUndervalueBps (2)</text>
<polyline fill="none" stroke="black" points="2015.7,-99.7 2015.7,-124.5 "/>
<text text-anchor="middle" x="2111.91" y="-107.9" font-family="Courier New" font-size="14.00">address: swapper (20)</text>
</g>
<!-- 6&#45;&gt;5 -->
<g id="edge5" class="edge">
<title>6:39&#45;&gt;5</title>
<path fill="none" stroke="black" d="M1230.99,-136.9C1324.82,-136.9 1426.43,-136.9 1520.37,-136.9"/>
<polygon fill="black" stroke="black" points="1520.6,-140.4 1530.6,-136.9 1520.6,-133.4 1520.6,-140.4"/>
</g>
</g>
</svg>
