<?xml version="1.0" encoding="UTF-8" standalone="no"?>
<!DOCTYPE svg PUBLIC "-//W3C//DTD SVG 1.1//EN"
 "http://www.w3.org/Graphics/SVG/1.1/DTD/svg11.dtd">
<!-- Generated by graphviz version 5.0.0 (20220707.1540)
 -->
<!-- Title: StorageDiagram Pages: 1 -->
<svg width="1174pt" height="428pt"
 viewBox="0.00 0.00 1174.17 428.40" xmlns="http://www.w3.org/2000/svg" xmlns:xlink="http://www.w3.org/1999/xlink">
<g id="graph0" class="graph" transform="scale(1 1) rotate(0) translate(4 424.4)">
<title>StorageDiagram</title>
<polygon fill="white" stroke="transparent" points="-4,4 -4,-424.4 1170.17,-424.4 1170.17,4 -4,4"/>
<!-- 3 -->
<g id="node1" class="node">
<title>3</title>
<polygon fill="#f2f2f2" stroke="black" points="0,-0.5 0,-347.7 845.33,-347.7 845.33,-0.5 0,-0.5"/>
<text text-anchor="middle" x="422.66" y="-331.1" font-family="Courier New" font-size="14.00">OETHBuyback &lt;&lt;Contract&gt;&gt;</text>
<polyline fill="none" stroke="black" points="0,-322.9 845.33,-322.9 "/>
<text text-anchor="middle" x="33.2" y="-306.3" font-family="Courier New" font-size="14.00">slot</text>
<polyline fill="none" stroke="black" points="0,-298.1 66.41,-298.1 "/>
<text text-anchor="middle" x="33.2" y="-281.5" font-family="Courier New" font-size="14.00">0</text>
<polyline fill="none" stroke="black" points="0,-273.3 66.41,-273.3 "/>
<text text-anchor="middle" x="33.2" y="-256.7" font-family="Courier New" font-size="14.00">1&#45;50</text>
<polyline fill="none" stroke="black" points="0,-248.5 66.41,-248.5 "/>
<text text-anchor="middle" x="33.2" y="-231.9" font-family="Courier New" font-size="14.00">51</text>
<polyline fill="none" stroke="black" points="0,-223.7 66.41,-223.7 "/>
<text text-anchor="middle" x="33.2" y="-207.1" font-family="Courier New" font-size="14.00">52&#45;101</text>
<polyline fill="none" stroke="black" points="0,-198.9 66.41,-198.9 "/>
<text text-anchor="middle" x="33.2" y="-182.3" font-family="Courier New" font-size="14.00">102</text>
<polyline fill="none" stroke="black" points="0,-174.1 66.41,-174.1 "/>
<text text-anchor="middle" x="33.2" y="-157.5" font-family="Courier New" font-size="14.00">103</text>
<polyline fill="none" stroke="black" points="0,-149.3 66.41,-149.3 "/>
<text text-anchor="middle" x="33.2" y="-132.7" font-family="Courier New" font-size="14.00">104</text>
<polyline fill="none" stroke="black" points="0,-124.5 66.41,-124.5 "/>
<text text-anchor="middle" x="33.2" y="-107.9" font-family="Courier New" font-size="14.00">105</text>
<polyline fill="none" stroke="black" points="0,-99.7 66.41,-99.7 "/>
<text text-anchor="middle" x="33.2" y="-83.1" font-family="Courier New" font-size="14.00">106</text>
<polyline fill="none" stroke="black" points="0,-74.9 66.41,-74.9 "/>
<text text-anchor="middle" x="33.2" y="-58.3" font-family="Courier New" font-size="14.00">107</text>
<polyline fill="none" stroke="black" points="0,-50.1 66.41,-50.1 "/>
<text text-anchor="middle" x="33.2" y="-33.5" font-family="Courier New" font-size="14.00">108</text>
<polyline fill="none" stroke="black" points="0,-25.3 66.41,-25.3 "/>
<text text-anchor="middle" x="33.2" y="-8.7" font-family="Courier New" font-size="14.00">109</text>
<polyline fill="none" stroke="black" points="66.41,-0.5 66.41,-322.9 "/>
<text text-anchor="middle" x="455.87" y="-306.3" font-family="Courier New" font-size="14.00">type: &lt;inherited contract&gt;.variable (bytes)</text>
<polyline fill="none" stroke="black" points="66.41,-298.1 845.33,-298.1 "/>
<text text-anchor="middle" x="141.62" y="-281.5" font-family="Courier New" font-size="14.00">unallocated (30)</text>
<polyline fill="none" stroke="black" points="216.83,-273.3 216.83,-298.1 "/>
<text text-anchor="middle" x="376.05" y="-281.5" font-family="Courier New" font-size="14.00">bool: Initializable.initializing (1)</text>
<polyline fill="none" stroke="black" points="535.28,-273.3 535.28,-298.1 "/>
<text text-anchor="middle" x="690.3" y="-281.5" font-family="Courier New" font-size="14.00">bool: Initializable.initialized (1)</text>
<polyline fill="none" stroke="black" points="66.41,-273.3 845.33,-273.3 "/>
<text text-anchor="middle" x="455.54" y="-256.7" font-family="Courier New" font-size="14.00">uint256[50]: Initializable.______gap (1600)</text>
<polyline fill="none" stroke="black" points="66.41,-248.5 845.33,-248.5 "/>
<text text-anchor="middle" x="206.12" y="-231.9" font-family="Courier New" font-size="14.00">unallocated (12)</text>
<polyline fill="none" stroke="black" points="345.83,-223.7 345.83,-248.5 "/>
<text text-anchor="middle" x="595.26" y="-231.9" font-family="Courier New" font-size="14.00">address: Strategizable.strategistAddr (20)</text>
<polyline fill="none" stroke="black" points="66.41,-223.7 845.33,-223.7 "/>
<text text-anchor="middle" x="455.73" y="-207.1" font-family="Courier New" font-size="14.00">uint256[50]: Strategizable.__gap (1600)</text>
<polyline fill="none" stroke="black" points="66.41,-198.9 845.33,-198.9 "/>
<text text-anchor="middle" x="208.62" y="-182.3" font-family="Courier New" font-size="14.00">unallocated (12)</text>
<polyline fill="none" stroke="black" points="350.83,-174.1 350.83,-198.9 "/>
<text text-anchor="middle" x="598.06" y="-182.3" font-family="Courier New" font-size="14.00">address: BaseBuyback.universalRouter (20)</text>
<polyline fill="none" stroke="black" points="66.41,-174.1 845.33,-174.1 "/>
<text text-anchor="middle" x="204.12" y="-157.5" font-family="Courier New" font-size="14.00">unallocated (12)</text>
<polyline fill="none" stroke="black" points="341.83,-149.3 341.83,-174.1 "/>
<text text-anchor="middle" x="593.46" y="-157.5" font-family="Courier New" font-size="14.00">address: BaseBuyback.__deprecated_ousd (20)</text>
<polyline fill="none" stroke="black" points="66.41,-149.3 845.33,-149.3 "/>
<text text-anchor="middle" x="206.12" y="-132.7" font-family="Courier New" font-size="14.00">unallocated (12)</text>
<polyline fill="none" stroke="black" points="345.83,-124.5 345.83,-149.3 "/>
<text text-anchor="middle" x="595.26" y="-132.7" font-family="Courier New" font-size="14.00">address: BaseBuyback.__deprecated_ogv (20)</text>
<polyline fill="none" stroke="black" points="66.41,-124.5 845.33,-124.5 "/>
<text text-anchor="middle" x="204.12" y="-107.9" font-family="Courier New" font-size="14.00">unallocated (12)</text>
<polyline fill="none" stroke="black" points="341.83,-99.7 341.83,-124.5 "/>
<text text-anchor="middle" x="593.46" y="-107.9" font-family="Courier New" font-size="14.00">address: BaseBuyback.__deprecated_usdt (20)</text>
<polyline fill="none" stroke="black" points="66.41,-99.7 845.33,-99.7 "/>
<text text-anchor="middle" x="202.12" y="-83.1" font-family="Courier New" font-size="14.00">unallocated (12)</text>
<polyline fill="none" stroke="black" points="337.83,-74.9 337.83,-99.7 "/>
<text text-anchor="middle" x="591.16" y="-83.1" font-family="Courier New" font-size="14.00">address: BaseBuyback.__deprecated_weth9 (20)</text>
<polyline fill="none" stroke="black" points="66.41,-74.9 845.33,-74.9 "/>
<text text-anchor="middle" x="212.62" y="-58.3" font-family="Courier New" font-size="14.00">unallocated (12)</text>
<polyline fill="none" stroke="black" points="358.83,-50.1 358.83,-74.9 "/>
<text text-anchor="middle" x="601.66" y="-58.3" font-family="Courier New" font-size="14.00">address: BaseBuyback.rewardsSource (20)</text>
<polyline fill="none" stroke="black" points="66.41,-50.1 845.33,-50.1 "/>
<text text-anchor="middle" x="208.62" y="-33.5" font-family="Courier New" font-size="14.00">unallocated (12)</text>
<polyline fill="none" stroke="black" points="350.83,-25.3 350.83,-50.1 "/>
<text text-anchor="middle" x="598.06" y="-33.5" font-family="Courier New" font-size="14.00">address: BaseBuyback.treasuryManager (20)</text>
<polyline fill="none" stroke="black" points="66.41,-25.3 845.33,-25.3 "/>
<text text-anchor="middle" x="455.44" y="-8.7" font-family="Courier New" font-size="14.00">uint256: BaseBuyback.__deprecated_treasuryBps (32)</text>
</g>
<!-- 1 -->
<g id="node2" class="node">
<title>1</title>
<polygon fill="#f2f2f2" stroke="black" points="881.33,-246.3 881.33,-419.9 1166.17,-419.9 1166.17,-246.3 881.33,-246.3"/>
<text text-anchor="middle" x="1023.75" y="-403.3" font-family="Courier New" font-size="14.00">uint256[50]: ______gap &lt;&lt;Array&gt;&gt;</text>
<polyline fill="none" stroke="black" points="881.33,-395.1 1166.17,-395.1 "/>
<text text-anchor="middle" x="914.63" y="-378.5" font-family="Courier New" font-size="14.00">slot</text>
<polyline fill="none" stroke="black" points="881.33,-370.3 947.93,-370.3 "/>
<text text-anchor="middle" x="914.63" y="-353.7" font-family="Courier New" font-size="14.00">1</text>
<polyline fill="none" stroke="black" points="881.33,-345.5 947.93,-345.5 "/>
<text text-anchor="middle" x="914.63" y="-328.9" font-family="Courier New" font-size="14.00">2</text>
<polyline fill="none" stroke="black" points="881.33,-320.7 947.93,-320.7 "/>
<text text-anchor="middle" x="914.63" y="-304.1" font-family="Courier New" font-size="14.00">3&#45;48</text>
<polyline fill="none" stroke="black" points="881.33,-295.9 947.93,-295.9 "/>
<text text-anchor="middle" x="914.63" y="-279.3" font-family="Courier New" font-size="14.00">49</text>
<polyline fill="none" stroke="black" points="881.33,-271.1 947.93,-271.1 "/>
<text text-anchor="middle" x="914.63" y="-254.5" font-family="Courier New" font-size="14.00">50</text>
<polyline fill="none" stroke="black" points="947.93,-246.3 947.93,-395.1 "/>
<text text-anchor="middle" x="1056.85" y="-378.5" font-family="Courier New" font-size="14.00">type: variable (bytes)</text>
<polyline fill="none" stroke="black" points="947.93,-370.3 1165.76,-370.3 "/>
<text text-anchor="middle" x="1056.84" y="-353.7" font-family="Courier New" font-size="14.00">uint256 (32)</text>
<polyline fill="none" stroke="black" points="947.93,-345.5 1165.76,-345.5 "/>
<text text-anchor="middle" x="1056.84" y="-328.9" font-family="Courier New" font-size="14.00">uint256 (32)</text>
<polyline fill="none" stroke="black" points="947.93,-320.7 1165.76,-320.7 "/>
<text text-anchor="middle" x="1056.64" y="-304.1" font-family="Courier New" font-size="14.00">&#45;&#45;&#45;&#45; (1472)</text>
<polyline fill="none" stroke="black" points="947.93,-295.9 1165.76,-295.9 "/>
<text text-anchor="middle" x="1056.84" y="-279.3" font-family="Courier New" font-size="14.00">uint256 (32)</text>
<polyline fill="none" stroke="black" points="947.93,-271.1 1165.76,-271.1 "/>
<text text-anchor="middle" x="1056.84" y="-254.5" font-family="Courier New" font-size="14.00">uint256 (32)</text>
</g>
<!-- 3&#45;&gt;1 -->
<g id="edge1" class="edge">
<title>3:8&#45;&gt;1</title>
<path fill="none" stroke="black" d="M845.33,-261.1C853.81,-261.1 862.36,-261.82 870.89,-263.1"/>
<polygon fill="black" stroke="black" points="870.42,-266.58 880.88,-264.87 871.64,-259.68 870.42,-266.58"/>
</g>
<!-- 2 -->
<g id="node3" class="node">
<title>2</title>
<polygon fill="#f2f2f2" stroke="black" points="894.33,-53.3 894.33,-226.9 1153.17,-226.9 1153.17,-53.3 894.33,-53.3"/>
<text text-anchor="middle" x="1023.75" y="-210.3" font-family="Courier New" font-size="14.00">uint256[50]: __gap &lt;&lt;Array&gt;&gt;</text>
<polyline fill="none" stroke="black" points="894.33,-202.1 1153.17,-202.1 "/>
<text text-anchor="middle" x="923.33" y="-185.5" font-family="Courier New" font-size="14.00">slot</text>
<polyline fill="none" stroke="black" points="894.33,-177.3 952.34,-177.3 "/>
<text text-anchor="middle" x="923.33" y="-160.7" font-family="Courier New" font-size="14.00">52</text>
<polyline fill="none" stroke="black" points="894.33,-152.5 952.34,-152.5 "/>
<text text-anchor="middle" x="923.33" y="-135.9" font-family="Courier New" font-size="14.00">53</text>
<polyline fill="none" stroke="black" points="894.33,-127.7 952.34,-127.7 "/>
<text text-anchor="middle" x="923.33" y="-111.1" font-family="Courier New" font-size="14.00">54&#45;99</text>
<polyline fill="none" stroke="black" points="894.33,-102.9 952.34,-102.9 "/>
<text text-anchor="middle" x="923.33" y="-86.3" font-family="Courier New" font-size="14.00">100</text>
<polyline fill="none" stroke="black" points="894.33,-78.1 952.34,-78.1 "/>
<text text-anchor="middle" x="923.33" y="-61.5" font-family="Courier New" font-size="14.00">101</text>
<polyline fill="none" stroke="black" points="952.34,-53.3 952.34,-202.1 "/>
<text text-anchor="middle" x="1052.75" y="-185.5" font-family="Courier New" font-size="14.00">type: variable (bytes)</text>
<polyline fill="none" stroke="black" points="952.34,-177.3 1153.17,-177.3 "/>
<text text-anchor="middle" x="1052.75" y="-160.7" font-family="Courier New" font-size="14.00">uint256 (32)</text>
<polyline fill="none" stroke="black" points="952.34,-152.5 1153.17,-152.5 "/>
<text text-anchor="middle" x="1052.75" y="-135.9" font-family="Courier New" font-size="14.00">uint256 (32)</text>
<polyline fill="none" stroke="black" points="952.34,-127.7 1153.17,-127.7 "/>
<text text-anchor="middle" x="1052.54" y="-111.1" font-family="Courier New" font-size="14.00">&#45;&#45;&#45;&#45; (1472)</text>
<polyline fill="none" stroke="black" points="952.34,-102.9 1153.17,-102.9 "/>
<text text-anchor="middle" x="1052.75" y="-86.3" font-family="Courier New" font-size="14.00">uint256 (32)</text>
<polyline fill="none" stroke="black" points="952.34,-78.1 1153.17,-78.1 "/>
<text text-anchor="middle" x="1052.75" y="-61.5" font-family="Courier New" font-size="14.00">uint256 (32)</text>
</g>
<!-- 3&#45;&gt;2 -->
<g id="edge2" class="edge">
<title>3:15&#45;&gt;2</title>
<path fill="none" stroke="black" d="M845.33,-211.1C858.28,-211.1 871.41,-209.45 884.36,-206.65"/>
<polygon fill="black" stroke="black" points="885.31,-210.02 894.23,-204.29 883.69,-203.21 885.31,-210.02"/>
</g>
</g>
</svg>
