<?xml version="1.0" encoding="UTF-8" standalone="no"?>
<!DOCTYPE svg PUBLIC "-//W3C//DTD SVG 1.1//EN"
 "http://www.w3.org/Graphics/SVG/1.1/DTD/svg11.dtd">
<!-- Generated by graphviz version 5.0.0 (20220707.1540)
 -->
<!-- Title: UmlClassDiagram Pages: 1 -->
<svg width="926pt" height="460pt"
 viewBox="0.00 0.00 926.12 460.40" xmlns="http://www.w3.org/2000/svg" xmlns:xlink="http://www.w3.org/1999/xlink">
<g id="graph0" class="graph" transform="scale(1 1) rotate(0) translate(4 456.4)">
<title>UmlClassDiagram</title>
<polygon fill="white" stroke="transparent" points="-4,4 -4,-456.4 922.12,-456.4 922.12,4 -4,4"/>
<!-- 20 -->
<g id="node1" class="node">
<title>20</title>
<polygon fill="#f2f2f2" stroke="black" points="167.36,-401.9 167.36,-443.5 402.22,-443.5 402.22,-401.9 167.36,-401.9"/>
<text text-anchor="middle" x="284.79" y="-426.9" font-family="Times,serif" font-size="14.00">Governable</text>
<text text-anchor="middle" x="284.79" y="-410.1" font-family="Times,serif" font-size="14.00">../contracts/governance/Governable.sol</text>
</g>
<!-- 215 -->
<g id="node2" class="node">
<title>215</title>
<polygon fill="#f2f2f2" stroke="black" points="430.66,-314.9 430.66,-356.5 604.92,-356.5 604.92,-314.9 430.66,-314.9"/>
<text text-anchor="middle" x="517.79" y="-339.9" font-family="Times,serif" font-size="14.00">OUSD</text>
<text text-anchor="middle" x="517.79" y="-323.1" font-family="Times,serif" font-size="14.00">../contracts/token/OUSD.sol</text>
</g>
<!-- 215&#45;&gt;20 -->
<g id="edge3" class="edge">
<title>215&#45;&gt;20</title>
<path fill="none" stroke="black" d="M463.45,-356.52C434.98,-366.91 399.5,-379.85 367.67,-391.46"/>
<polygon fill="none" stroke="black" points="363.79,-381.7 339.21,-401.85 370.99,-401.43 363.79,-381.7"/>
</g>
<!-- 224 -->
<g id="node3" class="node">
<title>224</title>
<polygon fill="#f2f2f2" stroke="black" points="419.78,-393.5 419.78,-451.9 615.79,-451.9 615.79,-393.5 419.78,-393.5"/>
<text text-anchor="middle" x="517.79" y="-435.3" font-family="Times,serif" font-size="14.00">&lt;&lt;Abstract&gt;&gt;</text>
<text text-anchor="middle" x="517.79" y="-418.5" font-family="Times,serif" font-size="14.00">Initializable</text>
<text text-anchor="middle" x="517.79" y="-401.7" font-family="Times,serif" font-size="14.00">../contracts/utils/Initializable.sol</text>
</g>
<!-- 215&#45;&gt;224 -->
<g id="edge1" class="edge">
<title>215&#45;&gt;224</title>
<path fill="none" stroke="black" d="M517.79,-356.84C517.79,-358.89 517.79,-361.03 517.79,-363.23"/>
<polygon fill="none" stroke="black" points="507.29,-363.34 517.79,-393.34 528.29,-363.34 507.29,-363.34"/>
</g>
<!-- 227 -->
<g id="node4" class="node">
<title>227</title>
<polygon fill="#f2f2f2" stroke="black" points="633.46,-393.5 633.46,-451.9 918.12,-451.9 918.12,-393.5 633.46,-393.5"/>
<text text-anchor="middle" x="775.79" y="-435.3" font-family="Times,serif" font-size="14.00">&lt;&lt;Abstract&gt;&gt;</text>
<text text-anchor="middle" x="775.79" y="-418.5" font-family="Times,serif" font-size="14.00">InitializableERC20Detailed</text>
<text text-anchor="middle" x="775.79" y="-401.7" font-family="Times,serif" font-size="14.00">../contracts/utils/InitializableERC20Detailed.sol</text>
</g>
<!-- 215&#45;&gt;227 -->
<g id="edge2" class="edge">
<title>215&#45;&gt;227</title>
<path fill="none" stroke="black" d="M577.95,-356.52C602.84,-364.72 632.56,-374.51 661.3,-383.98"/>
<polygon fill="none" stroke="black" points="658.3,-394.05 690.08,-393.46 664.87,-374.1 658.3,-394.05"/>
</g>
<!-- 232 -->
<g id="node5" class="node">
<title>232</title>
<polygon fill="#f2f2f2" stroke="black" points="223.61,-79.1 223.61,-120.7 463.96,-120.7 463.96,-79.1 223.61,-79.1"/>
<text text-anchor="middle" x="343.79" y="-104.1" font-family="Times,serif" font-size="14.00">OETHVaultAdmin</text>
<text text-anchor="middle" x="343.79" y="-87.3" font-family="Times,serif" font-size="14.00">../contracts/vault/OETHVaultAdmin.sol</text>
</g>
<!-- 233 -->
<g id="node6" class="node">
<title>233</title>
<polygon fill="#f2f2f2" stroke="black" points="0,-157.7 0,-199.3 253.58,-199.3 253.58,-157.7 0,-157.7"/>
<text text-anchor="middle" x="126.79" y="-182.7" font-family="Times,serif" font-size="14.00">OETHVaultCommon</text>
<text text-anchor="middle" x="126.79" y="-165.9" font-family="Times,serif" font-size="14.00">../contracts/vault/OETHVaultCommon.sol</text>
</g>
<!-- 232&#45;&gt;233 -->
<g id="edge4" class="edge">
<title>232&#45;&gt;233</title>
<path fill="none" stroke="black" d="M287.62,-120.73C264.52,-128.88 237.25,-138.51 211.79,-147.5"/>
<polygon fill="none" stroke="black" points="207.89,-137.74 183.09,-157.62 214.88,-157.54 207.89,-137.74"/>
</g>
<!-- 237 -->
<g id="node8" class="node">
<title>237</title>
<polygon fill="#f2f2f2" stroke="black" points="271.28,-157.7 271.28,-199.3 474.3,-199.3 474.3,-157.7 271.28,-157.7"/>
<text text-anchor="middle" x="372.79" y="-182.7" font-family="Times,serif" font-size="14.00">VaultAdmin</text>
<text text-anchor="middle" x="372.79" y="-165.9" font-family="Times,serif" font-size="14.00">../contracts/vault/VaultAdmin.sol</text>
</g>
<!-- 232&#45;&gt;237 -->
<g id="edge5" class="edge">
<title>232&#45;&gt;237</title>
<path fill="none" stroke="black" d="M351.41,-121.03C352.41,-123.66 353.46,-126.45 354.55,-129.32"/>
<polygon fill="none" stroke="black" points="344.78,-133.17 365.22,-157.51 364.42,-125.73 344.78,-133.17"/>
</g>
<!-- 240 -->
<g id="node11" class="node">
<title>240</title>
<polygon fill="#f2f2f2" stroke="black" points="269.34,-236.3 269.34,-277.9 476.24,-277.9 476.24,-236.3 269.34,-236.3"/>
<text text-anchor="middle" x="372.79" y="-261.3" font-family="Times,serif" font-size="14.00">VaultStorage</text>
<text text-anchor="middle" x="372.79" y="-244.5" font-family="Times,serif" font-size="14.00">../contracts/vault/VaultStorage.sol</text>
</g>
<!-- 233&#45;&gt;240 -->
<g id="edge6" class="edge">
<title>233&#45;&gt;240</title>
<path fill="none" stroke="black" d="M190.46,-199.33C217.79,-207.84 250.27,-217.95 280.18,-227.26"/>
<polygon fill="none" stroke="black" points="277.19,-237.33 308.96,-236.22 283.44,-217.28 277.19,-237.33"/>
</g>
<!-- 234 -->
<g id="node7" class="node">
<title>234</title>
<polygon fill="#f2f2f2" stroke="black" points="249.45,-0.5 249.45,-42.1 478.12,-42.1 478.12,-0.5 249.45,-0.5"/>
<text text-anchor="middle" x="363.79" y="-25.5" font-family="Times,serif" font-size="14.00">OETHVaultCore</text>
<text text-anchor="middle" x="363.79" y="-8.7" font-family="Times,serif" font-size="14.00">../contracts/vault/OETHVaultCore.sol</text>
</g>
<!-- 234&#45;&gt;233 -->
<g id="edge7" class="edge">
<title>234&#45;&gt;233</title>
<path fill="none" stroke="black" d="M290.24,-42.22C265.02,-51.03 237.46,-63.01 214.79,-78.6 193.3,-93.38 173.57,-114.49 158.26,-133.41"/>
<polygon fill="none" stroke="black" points="149.82,-127.17 140.11,-157.44 166.57,-139.83 149.82,-127.17"/>
</g>
<!-- 238 -->
<g id="node9" class="node">
<title>238</title>
<polygon fill="#f2f2f2" stroke="black" points="494.11,-79.1 494.11,-120.7 685.46,-120.7 685.46,-79.1 494.11,-79.1"/>
<text text-anchor="middle" x="589.79" y="-104.1" font-family="Times,serif" font-size="14.00">VaultCore</text>
<text text-anchor="middle" x="589.79" y="-87.3" font-family="Times,serif" font-size="14.00">../contracts/vault/VaultCore.sol</text>
</g>
<!-- 234&#45;&gt;238 -->
<g id="edge8" class="edge">
<title>234&#45;&gt;238</title>
<path fill="none" stroke="black" d="M422.28,-42.13C446.74,-50.42 475.68,-60.22 502.56,-69.33"/>
<polygon fill="none" stroke="black" points="499.36,-79.34 531.15,-79.02 506.1,-59.45 499.36,-79.34"/>
</g>
<!-- 237&#45;&gt;240 -->
<g id="edge9" class="edge">
<title>237&#45;&gt;240</title>
<path fill="none" stroke="black" d="M372.79,-199.63C372.79,-201.65 372.79,-203.76 372.79,-205.93"/>
<polygon fill="none" stroke="black" points="362.29,-206.11 372.79,-236.11 383.29,-206.11 362.29,-206.11"/>
</g>
<!-- 239 -->
<g id="node10" class="node">
<title>239</title>
<polygon fill="#f2f2f2" stroke="black" points="492.51,-157.7 492.51,-199.3 711.06,-199.3 711.06,-157.7 492.51,-157.7"/>
<text text-anchor="middle" x="601.79" y="-182.7" font-family="Times,serif" font-size="14.00">VaultInitializer</text>
<text text-anchor="middle" x="601.79" y="-165.9" font-family="Times,serif" font-size="14.00">../contracts/vault/VaultInitializer.sol</text>
</g>
<!-- 238&#45;&gt;239 -->
<g id="edge10" class="edge">
<title>238&#45;&gt;239</title>
<path fill="none" stroke="black" d="M592.94,-121.03C593.27,-123.14 593.62,-125.34 593.97,-127.61"/>
<polygon fill="none" stroke="black" points="583.64,-129.5 598.66,-157.51 604.39,-126.25 583.64,-129.5"/>
</g>
<!-- 239&#45;&gt;215 -->
<g id="edge12" class="edge">
<title>239&#45;&gt;215</title>
<path fill="none" stroke="black" stroke-dasharray="5,2" d="M590.98,-199.47C576.36,-226.48 550.2,-274.82 533.43,-305.79"/>
<polygon fill="black" stroke="black" points="530.24,-304.34 528.56,-314.8 536.39,-307.68 530.24,-304.34"/>
</g>
<!-- 239&#45;&gt;240 -->
<g id="edge11" class="edge">
<title>239&#45;&gt;240</title>
<path fill="none" stroke="black" d="M542.52,-199.33C517.6,-207.66 488.1,-217.53 460.74,-226.68"/>
<polygon fill="none" stroke="black" points="457.33,-216.75 432.21,-236.22 463.99,-236.67 457.33,-216.75"/>
</g>
<!-- 240&#45;&gt;20 -->
<g id="edge14" class="edge">
<title>240&#45;&gt;20</title>
<path fill="none" stroke="black" d="M362,-278.16C349.1,-302.14 327.09,-343.05 309.87,-375.08"/>
<polygon fill="none" stroke="black" points="300.49,-370.34 295.53,-401.73 318.99,-380.29 300.49,-370.34"/>
</g>
<!-- 240&#45;&gt;215 -->
<g id="edge15" class="edge">
<title>240&#45;&gt;215</title>
<path fill="none" stroke="black" d="M410.51,-278.03C429.05,-287.82 451.57,-299.72 471.19,-310.08"/>
<polygon fill="black" stroke="black" points="469.78,-313.3 480.26,-314.87 473.05,-307.11 469.78,-313.3"/>
</g>
<!-- 240&#45;&gt;224 -->
<g id="edge13" class="edge">
<title>240&#45;&gt;224</title>
<path fill="none" stroke="black" d="M379.21,-278.08C386.8,-299.41 401.09,-333.35 421.79,-357 427.5,-363.52 434.01,-369.68 440.88,-375.42"/>
<polygon fill="none" stroke="black" points="434.67,-383.89 465.06,-393.19 447.11,-366.97 434.67,-383.89"/>
</g>
</g>
</svg>
