<?xml version="1.0" encoding="UTF-8" standalone="no"?>
<!DOCTYPE svg PUBLIC "-//W3C//DTD SVG 1.1//EN"
 "http://www.w3.org/Graphics/SVG/1.1/DTD/svg11.dtd">
<!-- Generated by graphviz version 5.0.0 (20220707.1540)
 -->
<!-- Title: UmlClassDiagram Pages: 1 -->
<svg width="759pt" height="460pt"
 viewBox="0.00 0.00 758.76 460.40" xmlns="http://www.w3.org/2000/svg" xmlns:xlink="http://www.w3.org/1999/xlink">
<g id="graph0" class="graph" transform="scale(1 1) rotate(0) translate(4 456.4)">
<title>UmlClassDiagram</title>
<polygon fill="white" stroke="transparent" points="-4,4 -4,-456.4 754.76,-456.4 754.76,4 -4,4"/>
<!-- 20 -->
<g id="node1" class="node">
<title>20</title>
<polygon fill="#f2f2f2" stroke="black" points="515.9,-401.9 515.9,-443.5 750.76,-443.5 750.76,-401.9 515.9,-401.9"/>
<text text-anchor="middle" x="633.33" y="-426.9" font-family="Times,serif" font-size="14.00">Governable</text>
<text text-anchor="middle" x="633.33" y="-410.1" font-family="Times,serif" font-size="14.00">../contracts/governance/Governable.sol</text>
</g>
<!-- 215 -->
<g id="node2" class="node">
<title>215</title>
<polygon fill="#f2f2f2" stroke="black" points="313.2,-314.9 313.2,-356.5 487.46,-356.5 487.46,-314.9 313.2,-314.9"/>
<text text-anchor="middle" x="400.33" y="-339.9" font-family="Times,serif" font-size="14.00">OUSD</text>
<text text-anchor="middle" x="400.33" y="-323.1" font-family="Times,serif" font-size="14.00">../contracts/token/OUSD.sol</text>
</g>
<!-- 215&#45;&gt;20 -->
<g id="edge3" class="edge">
<title>215&#45;&gt;20</title>
<path fill="none" stroke="black" d="M454.66,-356.52C483.14,-366.91 518.62,-379.85 550.45,-391.46"/>
<polygon fill="none" stroke="black" points="547.13,-401.43 578.91,-401.85 554.32,-381.7 547.13,-401.43"/>
</g>
<!-- 224 -->
<g id="node3" class="node">
<title>224</title>
<polygon fill="#f2f2f2" stroke="black" points="302.32,-393.5 302.32,-451.9 498.33,-451.9 498.33,-393.5 302.32,-393.5"/>
<text text-anchor="middle" x="400.33" y="-435.3" font-family="Times,serif" font-size="14.00">&lt;&lt;Abstract&gt;&gt;</text>
<text text-anchor="middle" x="400.33" y="-418.5" font-family="Times,serif" font-size="14.00">Initializable</text>
<text text-anchor="middle" x="400.33" y="-401.7" font-family="Times,serif" font-size="14.00">../contracts/utils/Initializable.sol</text>
</g>
<!-- 215&#45;&gt;224 -->
<g id="edge1" class="edge">
<title>215&#45;&gt;224</title>
<path fill="none" stroke="black" d="M400.33,-356.84C400.33,-358.89 400.33,-361.03 400.33,-363.23"/>
<polygon fill="none" stroke="black" points="389.83,-363.34 400.33,-393.34 410.83,-363.34 389.83,-363.34"/>
</g>
<!-- 227 -->
<g id="node4" class="node">
<title>227</title>
<polygon fill="#f2f2f2" stroke="black" points="0,-393.5 0,-451.9 284.66,-451.9 284.66,-393.5 0,-393.5"/>
<text text-anchor="middle" x="142.33" y="-435.3" font-family="Times,serif" font-size="14.00">&lt;&lt;Abstract&gt;&gt;</text>
<text text-anchor="middle" x="142.33" y="-418.5" font-family="Times,serif" font-size="14.00">InitializableERC20Detailed</text>
<text text-anchor="middle" x="142.33" y="-401.7" font-family="Times,serif" font-size="14.00">../contracts/utils/InitializableERC20Detailed.sol</text>
</g>
<!-- 215&#45;&gt;227 -->
<g id="edge2" class="edge">
<title>215&#45;&gt;227</title>
<path fill="none" stroke="black" d="M340.17,-356.52C315.28,-364.72 285.56,-374.51 256.82,-383.98"/>
<polygon fill="none" stroke="black" points="253.25,-374.1 228.04,-393.46 259.82,-394.05 253.25,-374.1"/>
</g>
<!-- 232 -->
<g id="node5" class="node">
<title>232</title>
<polygon fill="#f2f2f2" stroke="black" points="504.16,-79.1 504.16,-120.7 744.5,-120.7 744.5,-79.1 504.16,-79.1"/>
<text text-anchor="middle" x="624.33" y="-104.1" font-family="Times,serif" font-size="14.00">OETHVaultAdmin</text>
<text text-anchor="middle" x="624.33" y="-87.3" font-family="Times,serif" font-size="14.00">../contracts/vault/OETHVaultAdmin.sol</text>
</g>
<!-- 237 -->
<g id="node7" class="node">
<title>237</title>
<polygon fill="#f2f2f2" stroke="black" points="520.82,-157.7 520.82,-199.3 723.84,-199.3 723.84,-157.7 520.82,-157.7"/>
<text text-anchor="middle" x="622.33" y="-182.7" font-family="Times,serif" font-size="14.00">VaultAdmin</text>
<text text-anchor="middle" x="622.33" y="-165.9" font-family="Times,serif" font-size="14.00">../contracts/vault/VaultAdmin.sol</text>
</g>
<!-- 232&#45;&gt;237 -->
<g id="edge4" class="edge">
<title>232&#45;&gt;237</title>
<path fill="none" stroke="black" d="M623.8,-121.03C623.75,-123.05 623.7,-125.16 623.64,-127.33"/>
<polygon fill="none" stroke="black" points="613.14,-127.24 622.85,-157.51 634.13,-127.79 613.14,-127.24"/>
</g>
<!-- 233 -->
<g id="node6" class="node">
<title>233</title>
<polygon fill="#f2f2f2" stroke="black" points="275.99,-0.5 275.99,-42.1 504.67,-42.1 504.67,-0.5 275.99,-0.5"/>
<text text-anchor="middle" x="390.33" y="-25.5" font-family="Times,serif" font-size="14.00">OETHVaultCore</text>
<text text-anchor="middle" x="390.33" y="-8.7" font-family="Times,serif" font-size="14.00">../contracts/vault/OETHVaultCore.sol</text>
</g>
<!-- 238 -->
<g id="node8" class="node">
<title>238</title>
<polygon fill="#f2f2f2" stroke="black" points="294.66,-79.1 294.66,-120.7 486,-120.7 486,-79.1 294.66,-79.1"/>
<text text-anchor="middle" x="390.33" y="-104.1" font-family="Times,serif" font-size="14.00">VaultCore</text>
<text text-anchor="middle" x="390.33" y="-87.3" font-family="Times,serif" font-size="14.00">../contracts/vault/VaultCore.sol</text>
</g>
<!-- 233&#45;&gt;238 -->
<g id="edge5" class="edge">
<title>233&#45;&gt;238</title>
<path fill="none" stroke="black" d="M390.33,-42.43C390.33,-44.45 390.33,-46.56 390.33,-48.73"/>
<polygon fill="none" stroke="black" points="379.83,-48.91 390.33,-78.91 400.83,-48.91 379.83,-48.91"/>
</g>
<!-- 240 -->
<g id="node10" class="node">
<title>240</title>
<polygon fill="#f2f2f2" stroke="black" points="419.88,-236.3 419.88,-277.9 626.78,-277.9 626.78,-236.3 419.88,-236.3"/>
<text text-anchor="middle" x="523.33" y="-261.3" font-family="Times,serif" font-size="14.00">VaultStorage</text>
<text text-anchor="middle" x="523.33" y="-244.5" font-family="Times,serif" font-size="14.00">../contracts/vault/VaultStorage.sol</text>
</g>
<!-- 237&#45;&gt;240 -->
<g id="edge6" class="edge">
<title>237&#45;&gt;240</title>
<path fill="none" stroke="black" d="M596.58,-199.43C589.24,-205.1 581,-211.48 572.76,-217.86"/>
<polygon fill="none" stroke="black" points="566.25,-209.61 548.95,-236.27 579.11,-226.22 566.25,-209.61"/>
</g>
<!-- 239 -->
<g id="node9" class="node">
<title>239</title>
<polygon fill="#f2f2f2" stroke="black" points="283.06,-157.7 283.06,-199.3 501.6,-199.3 501.6,-157.7 283.06,-157.7"/>
<text text-anchor="middle" x="392.33" y="-182.7" font-family="Times,serif" font-size="14.00">VaultInitializer</text>
<text text-anchor="middle" x="392.33" y="-165.9" font-family="Times,serif" font-size="14.00">../contracts/vault/VaultInitializer.sol</text>
</g>
<!-- 238&#45;&gt;239 -->
<g id="edge7" class="edge">
<title>238&#45;&gt;239</title>
<path fill="none" stroke="black" d="M390.86,-121.03C390.91,-123.05 390.96,-125.16 391.02,-127.33"/>
<polygon fill="none" stroke="black" points="380.53,-127.79 391.81,-157.51 401.52,-127.24 380.53,-127.79"/>
</g>
<!-- 239&#45;&gt;215 -->
<g id="edge9" class="edge">
<title>239&#45;&gt;215</title>
<path fill="none" stroke="black" stroke-dasharray="5,2" d="M393.36,-199.47C394.73,-226.13 397.18,-273.57 398.78,-304.58"/>
<polygon fill="black" stroke="black" points="395.29,-305 399.3,-314.8 402.28,-304.64 395.29,-305"/>
</g>
<!-- 239&#45;&gt;240 -->
<g id="edge8" class="edge">
<title>239&#45;&gt;240</title>
<path fill="none" stroke="black" d="M426.41,-199.43C437.7,-206.03 450.63,-213.59 463.29,-220.99"/>
<polygon fill="none" stroke="black" points="458.23,-230.19 489.42,-236.27 468.83,-212.07 458.23,-230.19"/>
</g>
<!-- 240&#45;&gt;20 -->
<g id="edge11" class="edge">
<title>240&#45;&gt;20</title>
<path fill="none" stroke="black" d="M536.82,-278.16C553.19,-302.51 581.3,-344.32 602.97,-376.55"/>
<polygon fill="none" stroke="black" points="594.45,-382.69 619.9,-401.73 611.88,-370.98 594.45,-382.69"/>
</g>
<!-- 240&#45;&gt;215 -->
<g id="edge12" class="edge">
<title>240&#45;&gt;215</title>
<path fill="none" stroke="black" d="M491.33,-278.03C475.96,-287.6 457.36,-299.18 440.99,-309.38"/>
<polygon fill="black" stroke="black" points="438.8,-306.62 432.17,-314.87 442.5,-312.56 438.8,-306.62"/>
</g>
<!-- 240&#45;&gt;224 -->
<g id="edge10" class="edge">
<title>240&#45;&gt;224</title>
<path fill="none" stroke="black" d="M521.97,-278.05C519.64,-299.36 513.34,-333.28 496.33,-357 491.71,-363.44 486.24,-369.43 480.29,-374.95"/>
<polygon fill="none" stroke="black" points="473.78,-366.72 456.53,-393.41 486.66,-383.3 473.78,-366.72"/>
</g>
</g>
</svg>
