<?xml version="1.0" encoding="UTF-8" standalone="no"?>
<!DOCTYPE svg PUBLIC "-//W3C//DTD SVG 1.1//EN"
 "http://www.w3.org/Graphics/SVG/1.1/DTD/svg11.dtd">
<!-- Generated by graphviz version 5.0.0 (20220707.1540)
 -->
<!-- Title: UmlClassDiagram Pages: 1 -->
<svg width="272pt" height="129pt"
 viewBox="0.00 0.00 272.42 129.20" xmlns="http://www.w3.org/2000/svg" xmlns:xlink="http://www.w3.org/1999/xlink">
<g id="graph0" class="graph" transform="scale(1 1) rotate(0) translate(4 125.2)">
<title>UmlClassDiagram</title>
<polygon fill="white" stroke="transparent" points="-4,4 -4,-125.2 268.42,-125.2 268.42,4 -4,4"/>
<!-- 21 -->
<g id="node1" class="node">
<title>21</title>
<polygon fill="#f2f2f2" stroke="black" points="14.78,-79.1 14.78,-120.7 249.64,-120.7 249.64,-79.1 14.78,-79.1"/>
<text text-anchor="middle" x="132.21" y="-104.1" font-family="Times,serif" font-size="14.00">Governable</text>
<text text-anchor="middle" x="132.21" y="-87.3" font-family="Times,serif" font-size="14.00">../contracts/governance/Governable.sol</text>
</g>
<!-- 35 -->
<g id="node2" class="node">
<title>35</title>
<polygon fill="#f2f2f2" stroke="black" points="0,-0.5 0,-42.1 264.42,-42.1 264.42,-0.5 0,-0.5"/>
<text text-anchor="middle" x="132.21" y="-25.5" font-family="Times,serif" font-size="14.00">OETHBaseHarvester</text>
<text text-anchor="middle" x="132.21" y="-8.7" font-family="Times,serif" font-size="14.00">../contracts/harvest/OETHBaseHarvester.sol</text>
</g>
<!-- 35&#45;&gt;21 -->
<g id="edge1" class="edge">
<title>35&#45;&gt;21</title>
<path fill="none" stroke="black" d="M132.21,-42.43C132.21,-44.45 132.21,-46.56 132.21,-48.73"/>
<polygon fill="none" stroke="black" points="121.71,-48.91 132.21,-78.91 142.71,-48.91 121.71,-48.91"/>
</g>
</g>
</svg>
