<?xml version="1.0" encoding="UTF-8" standalone="no"?>
<!DOCTYPE svg PUBLIC "-//W3C//DTD SVG 1.1//EN"
 "http://www.w3.org/Graphics/SVG/1.1/DTD/svg11.dtd">
<!-- Generated by graphviz version 5.0.0 (20220707.1540)
 -->
<!-- Title: StorageDiagram Pages: 1 -->
<svg width="2430pt" height="875pt"
 viewBox="0.00 0.00 2429.56 875.00" xmlns="http://www.w3.org/2000/svg" xmlns:xlink="http://www.w3.org/1999/xlink">
<g id="graph0" class="graph" transform="scale(1 1) rotate(0) translate(4 871)">
<title>StorageDiagram</title>
<polygon fill="white" stroke="transparent" points="-4,4 -4,-871 2425.56,-871 2425.56,4 -4,4"/>
<!-- 8 -->
<g id="node1" class="node">
<title>8</title>
<polygon fill="#f2f2f2" stroke="black" points="0,-26.3 0,-671.1 1180.58,-671.1 1180.58,-26.3 0,-26.3"/>
<text text-anchor="middle" x="590.29" y="-654.5" font-family="Courier New" font-size="14.00">OETHVaultCore &lt;&lt;Contract&gt;&gt;</text>
<polyline fill="none" stroke="black" points="0,-646.3 1180.58,-646.3 "/>
<text text-anchor="middle" x="24.8" y="-629.7" font-family="Courier New" font-size="14.00">slot</text>
<polyline fill="none" stroke="black" points="0,-621.5 49.61,-621.5 "/>
<text text-anchor="middle" x="24.8" y="-604.9" font-family="Courier New" font-size="14.00">0</text>
<polyline fill="none" stroke="black" points="0,-596.7 49.61,-596.7 "/>
<text text-anchor="middle" x="24.8" y="-580.1" font-family="Courier New" font-size="14.00">1&#45;50</text>
<polyline fill="none" stroke="black" points="0,-571.9 49.61,-571.9 "/>
<text text-anchor="middle" x="24.8" y="-555.3" font-family="Courier New" font-size="14.00">51</text>
<polyline fill="none" stroke="black" points="0,-547.1 49.61,-547.1 "/>
<text text-anchor="middle" x="24.8" y="-530.5" font-family="Courier New" font-size="14.00">52</text>
<polyline fill="none" stroke="black" points="0,-522.3 49.61,-522.3 "/>
<text text-anchor="middle" x="24.8" y="-505.7" font-family="Courier New" font-size="14.00">53</text>
<polyline fill="none" stroke="black" points="0,-497.5 49.61,-497.5 "/>
<text text-anchor="middle" x="24.8" y="-480.9" font-family="Courier New" font-size="14.00">54</text>
<polyline fill="none" stroke="black" points="0,-472.7 49.61,-472.7 "/>
<text text-anchor="middle" x="24.8" y="-456.1" font-family="Courier New" font-size="14.00">55</text>
<polyline fill="none" stroke="black" points="0,-447.9 49.61,-447.9 "/>
<text text-anchor="middle" x="24.8" y="-431.3" font-family="Courier New" font-size="14.00">56</text>
<polyline fill="none" stroke="black" points="0,-423.1 49.61,-423.1 "/>
<text text-anchor="middle" x="24.8" y="-406.5" font-family="Courier New" font-size="14.00">57</text>
<polyline fill="none" stroke="black" points="0,-398.3 49.61,-398.3 "/>
<text text-anchor="middle" x="24.8" y="-381.7" font-family="Courier New" font-size="14.00">58</text>
<polyline fill="none" stroke="black" points="0,-373.5 49.61,-373.5 "/>
<text text-anchor="middle" x="24.8" y="-356.9" font-family="Courier New" font-size="14.00">59</text>
<polyline fill="none" stroke="black" points="0,-348.7 49.61,-348.7 "/>
<text text-anchor="middle" x="24.8" y="-332.1" font-family="Courier New" font-size="14.00">60</text>
<polyline fill="none" stroke="black" points="0,-323.9 49.61,-323.9 "/>
<text text-anchor="middle" x="24.8" y="-307.3" font-family="Courier New" font-size="14.00">61</text>
<polyline fill="none" stroke="black" points="0,-299.1 49.61,-299.1 "/>
<text text-anchor="middle" x="24.8" y="-282.5" font-family="Courier New" font-size="14.00">62</text>
<polyline fill="none" stroke="black" points="0,-274.3 49.61,-274.3 "/>
<text text-anchor="middle" x="24.8" y="-257.7" font-family="Courier New" font-size="14.00">63</text>
<polyline fill="none" stroke="black" points="0,-249.5 49.61,-249.5 "/>
<text text-anchor="middle" x="24.8" y="-232.9" font-family="Courier New" font-size="14.00">64</text>
<polyline fill="none" stroke="black" points="0,-224.7 49.61,-224.7 "/>
<text text-anchor="middle" x="24.8" y="-208.1" font-family="Courier New" font-size="14.00">65</text>
<polyline fill="none" stroke="black" points="0,-199.9 49.61,-199.9 "/>
<text text-anchor="middle" x="24.8" y="-183.3" font-family="Courier New" font-size="14.00">66</text>
<polyline fill="none" stroke="black" points="0,-175.1 49.61,-175.1 "/>
<text text-anchor="middle" x="24.8" y="-158.5" font-family="Courier New" font-size="14.00">67</text>
<polyline fill="none" stroke="black" points="0,-150.3 49.61,-150.3 "/>
<text text-anchor="middle" x="24.8" y="-133.7" font-family="Courier New" font-size="14.00">68</text>
<polyline fill="none" stroke="black" points="0,-125.5 49.61,-125.5 "/>
<text text-anchor="middle" x="24.8" y="-108.9" font-family="Courier New" font-size="14.00">69</text>
<polyline fill="none" stroke="black" points="0,-100.7 49.61,-100.7 "/>
<text text-anchor="middle" x="24.8" y="-84.1" font-family="Courier New" font-size="14.00">70</text>
<polyline fill="none" stroke="black" points="0,-75.9 49.61,-75.9 "/>
<text text-anchor="middle" x="24.8" y="-59.3" font-family="Courier New" font-size="14.00">71</text>
<polyline fill="none" stroke="black" points="0,-51.1 49.61,-51.1 "/>
<text text-anchor="middle" x="24.8" y="-34.5" font-family="Courier New" font-size="14.00">72</text>
<polyline fill="none" stroke="black" points="49.61,-26.3 49.61,-646.3 "/>
<text text-anchor="middle" x="615.09" y="-629.7" font-family="Courier New" font-size="14.00">type: &lt;inherited contract&gt;.variable (bytes)</text>
<polyline fill="none" stroke="black" points="49.61,-621.5 1180.58,-621.5 "/>
<text text-anchor="middle" x="183.32" y="-604.9" font-family="Courier New" font-size="14.00">unallocated (30)</text>
<polyline fill="none" stroke="black" points="317.03,-596.7 317.03,-621.5 "/>
<text text-anchor="middle" x="534.75" y="-604.9" font-family="Courier New" font-size="14.00">bool: Initializable.initializing (1)</text>
<polyline fill="none" stroke="black" points="752.48,-596.7 752.48,-621.5 "/>
<text text-anchor="middle" x="966.5" y="-604.9" font-family="Courier New" font-size="14.00">bool: Initializable.initialized (1)</text>
<polyline fill="none" stroke="black" points="49.61,-596.7 1180.58,-596.7 "/>
<text text-anchor="middle" x="614.73" y="-580.1" font-family="Courier New" font-size="14.00">uint256[50]: Initializable.______gap (1600)</text>
<polyline fill="none" stroke="black" points="49.61,-571.9 1180.58,-571.9 "/>
<text text-anchor="middle" x="614.94" y="-555.3" font-family="Courier New" font-size="14.00">mapping(address=&gt;Asset): VaultStorage.assets (32)</text>
<polyline fill="none" stroke="black" points="49.61,-547.1 1180.58,-547.1 "/>
<text text-anchor="middle" x="614.73" y="-530.5" font-family="Courier New" font-size="14.00">address[]: VaultStorage.allAssets (32)</text>
<polyline fill="none" stroke="black" points="49.61,-522.3 1180.58,-522.3 "/>
<text text-anchor="middle" x="614.84" y="-505.7" font-family="Courier New" font-size="14.00">mapping(address=&gt;Strategy): VaultStorage.strategies (32)</text>
<polyline fill="none" stroke="black" points="49.61,-497.5 1180.58,-497.5 "/>
<text text-anchor="middle" x="615.03" y="-480.9" font-family="Courier New" font-size="14.00">address[]: VaultStorage.allStrategies (32)</text>
<polyline fill="none" stroke="black" points="49.61,-472.7 1180.58,-472.7 "/>
<text text-anchor="middle" x="124.82" y="-456.1" font-family="Courier New" font-size="14.00">unallocated (10)</text>
<polyline fill="none" stroke="black" points="200.03,-447.9 200.03,-472.7 "/>
<text text-anchor="middle" x="359.25" y="-456.1" font-family="Courier New" font-size="14.00">bool: VaultStorage.capitalPaused (1)</text>
<polyline fill="none" stroke="black" points="518.48,-447.9 518.48,-472.7 "/>
<text text-anchor="middle" x="673.5" y="-456.1" font-family="Courier New" font-size="14.00">bool: VaultStorage.rebasePaused (1)</text>
<polyline fill="none" stroke="black" points="828.52,-447.9 828.52,-472.7 "/>
<text text-anchor="middle" x="1004.55" y="-456.1" font-family="Courier New" font-size="14.00">address: VaultStorage.priceProvider (20)</text>
<polyline fill="none" stroke="black" points="49.61,-447.9 1180.58,-447.9 "/>
<text text-anchor="middle" x="614.93" y="-431.3" font-family="Courier New" font-size="14.00">uint256: VaultStorage.redeemFeeBps (32)</text>
<polyline fill="none" stroke="black" points="49.61,-423.1 1180.58,-423.1 "/>
<text text-anchor="middle" x="614.73" y="-406.5" font-family="Courier New" font-size="14.00">uint256: VaultStorage.vaultBuffer (32)</text>
<polyline fill="none" stroke="black" points="49.61,-398.3 1180.58,-398.3 "/>
<text text-anchor="middle" x="614.74" y="-381.7" font-family="Courier New" font-size="14.00">uint256: VaultStorage.autoAllocateThreshold (32)</text>
<polyline fill="none" stroke="black" points="49.61,-373.5 1180.58,-373.5 "/>
<text text-anchor="middle" x="615.03" y="-356.9" font-family="Courier New" font-size="14.00">uint256: VaultStorage.rebaseThreshold (32)</text>
<polyline fill="none" stroke="black" points="49.61,-348.7 1180.58,-348.7 "/>
<text text-anchor="middle" x="614.72" y="-332.1" font-family="Courier New" font-size="14.00">OUSD: VaultStorage.oUSD (32)</text>
<polyline fill="none" stroke="black" points="49.61,-323.9 1180.58,-323.9 "/>
<text text-anchor="middle" x="252.32" y="-307.3" font-family="Courier New" font-size="14.00">unallocated (12)</text>
<polyline fill="none" stroke="black" points="455.03,-299.1 455.03,-323.9 "/>
<text text-anchor="middle" x="817.36" y="-307.3" font-family="Courier New" font-size="14.00">address: VaultStorage._deprecated_rebaseHooksAddr (20)</text>
<polyline fill="none" stroke="black" points="49.61,-299.1 1180.58,-299.1 "/>
<text text-anchor="middle" x="260.82" y="-282.5" font-family="Courier New" font-size="14.00">unallocated (12)</text>
<polyline fill="none" stroke="black" points="472.03,-274.3 472.03,-299.1 "/>
<text text-anchor="middle" x="826.06" y="-282.5" font-family="Courier New" font-size="14.00">address: VaultStorage._deprecated_uniswapAddr (20)</text>
<polyline fill="none" stroke="black" points="49.61,-274.3 1180.58,-274.3 "/>
<text text-anchor="middle" x="279.82" y="-257.7" font-family="Courier New" font-size="14.00">unallocated (12)</text>
<polyline fill="none" stroke="black" points="510.03,-249.5 510.03,-274.3 "/>
<text text-anchor="middle" x="845.26" y="-257.7" font-family="Courier New" font-size="14.00">address: VaultStorage.strategistAddr (20)</text>
<polyline fill="none" stroke="black" points="49.61,-249.5 1180.58,-249.5 "/>
<text text-anchor="middle" x="615.05" y="-232.9" font-family="Courier New" font-size="14.00">mapping(address=&gt;address): VaultStorage.assetDefaultStrategies (32)</text>
<polyline fill="none" stroke="black" points="49.61,-224.7 1180.58,-224.7 "/>
<text text-anchor="middle" x="614.63" y="-208.1" font-family="Courier New" font-size="14.00">uint256: VaultStorage.maxSupplyDiff (32)</text>
<polyline fill="none" stroke="black" points="49.61,-199.9 1180.58,-199.9 "/>
<text text-anchor="middle" x="279.82" y="-183.3" font-family="Courier New" font-size="14.00">unallocated (12)</text>
<polyline fill="none" stroke="black" points="510.03,-175.1 510.03,-199.9 "/>
<text text-anchor="middle" x="845.26" y="-183.3" font-family="Courier New" font-size="14.00">address: VaultStorage.trusteeAddress (20)</text>
<polyline fill="none" stroke="black" points="49.61,-175.1 1180.58,-175.1 "/>
<text text-anchor="middle" x="614.63" y="-158.5" font-family="Courier New" font-size="14.00">uint256: VaultStorage.trusteeFeeBps (32)</text>
<polyline fill="none" stroke="black" points="49.61,-150.3 1180.58,-150.3 "/>
<text text-anchor="middle" x="614.84" y="-133.7" font-family="Courier New" font-size="14.00">address[]: VaultStorage._deprecated_swapTokens (32)</text>
<polyline fill="none" stroke="black" points="49.61,-125.5 1180.58,-125.5 "/>
<text text-anchor="middle" x="275.32" y="-108.9" font-family="Courier New" font-size="14.00">unallocated (12)</text>
<polyline fill="none" stroke="black" points="501.03,-100.7 501.03,-125.5 "/>
<text text-anchor="middle" x="840.66" y="-108.9" font-family="Courier New" font-size="14.00">address: VaultStorage.ousdMetaStrategy (20)</text>
<polyline fill="none" stroke="black" points="49.61,-100.7 1180.58,-100.7 "/>
<text text-anchor="middle" x="614.64" y="-84.1" font-family="Courier New" font-size="14.00">int256: VaultStorage.netOusdMintedForStrategy (32)</text>
<polyline fill="none" stroke="black" points="49.61,-75.9 1180.58,-75.9 "/>
<text text-anchor="middle" x="614.75" y="-59.3" font-family="Courier New" font-size="14.00">uint256: VaultStorage.netOusdMintForStrategyThreshold (32)</text>
<polyline fill="none" stroke="black" points="49.61,-51.1 1180.58,-51.1 "/>
<text text-anchor="middle" x="614.63" y="-34.5" font-family="Courier New" font-size="14.00">SwapConfig: VaultStorage.swapConfig (32)</text>
</g>
<!-- 1 -->
<g id="node2" class="node">
<title>1</title>
<polygon fill="#f2f2f2" stroke="black" points="1676.65,-692.9 1676.65,-866.5 1961.49,-866.5 1961.49,-692.9 1676.65,-692.9"/>
<text text-anchor="middle" x="1819.07" y="-849.9" font-family="Courier New" font-size="14.00">uint256[50]: ______gap &lt;&lt;Array&gt;&gt;</text>
<polyline fill="none" stroke="black" points="1676.65,-841.7 1961.49,-841.7 "/>
<text text-anchor="middle" x="1709.95" y="-825.1" font-family="Courier New" font-size="14.00">slot</text>
<polyline fill="none" stroke="black" points="1676.65,-816.9 1743.25,-816.9 "/>
<text text-anchor="middle" x="1709.95" y="-800.3" font-family="Courier New" font-size="14.00">1</text>
<polyline fill="none" stroke="black" points="1676.65,-792.1 1743.25,-792.1 "/>
<text text-anchor="middle" x="1709.95" y="-775.5" font-family="Courier New" font-size="14.00">2</text>
<polyline fill="none" stroke="black" points="1676.65,-767.3 1743.25,-767.3 "/>
<text text-anchor="middle" x="1709.95" y="-750.7" font-family="Courier New" font-size="14.00">3&#45;48</text>
<polyline fill="none" stroke="black" points="1676.65,-742.5 1743.25,-742.5 "/>
<text text-anchor="middle" x="1709.95" y="-725.9" font-family="Courier New" font-size="14.00">49</text>
<polyline fill="none" stroke="black" points="1676.65,-717.7 1743.25,-717.7 "/>
<text text-anchor="middle" x="1709.95" y="-701.1" font-family="Courier New" font-size="14.00">50</text>
<polyline fill="none" stroke="black" points="1743.25,-692.9 1743.25,-841.7 "/>
<text text-anchor="middle" x="1852.17" y="-825.1" font-family="Courier New" font-size="14.00">type: variable (bytes)</text>
<polyline fill="none" stroke="black" points="1743.25,-816.9 1961.08,-816.9 "/>
<text text-anchor="middle" x="1852.16" y="-800.3" font-family="Courier New" font-size="14.00">uint256 (32)</text>
<polyline fill="none" stroke="black" points="1743.25,-792.1 1961.08,-792.1 "/>
<text text-anchor="middle" x="1852.16" y="-775.5" font-family="Courier New" font-size="14.00">uint256 (32)</text>
<polyline fill="none" stroke="black" points="1743.25,-767.3 1961.08,-767.3 "/>
<text text-anchor="middle" x="1851.96" y="-750.7" font-family="Courier New" font-size="14.00">&#45;&#45;&#45;&#45; (1472)</text>
<polyline fill="none" stroke="black" points="1743.25,-742.5 1961.08,-742.5 "/>
<text text-anchor="middle" x="1852.16" y="-725.9" font-family="Courier New" font-size="14.00">uint256 (32)</text>
<polyline fill="none" stroke="black" points="1743.25,-717.7 1961.08,-717.7 "/>
<text text-anchor="middle" x="1852.16" y="-701.1" font-family="Courier New" font-size="14.00">uint256 (32)</text>
</g>
<!-- 8&#45;&gt;1 -->
<g id="edge1" class="edge">
<title>8:8&#45;&gt;1</title>
<path fill="none" stroke="black" d="M1180.58,-584.7C1227.4,-584.7 1180.47,-653.89 1216.58,-683.7 1341.75,-787.04 1533.07,-800.97 1666.21,-795.56"/>
<polygon fill="black" stroke="black" points="1666.66,-799.04 1676.5,-795.09 1666.35,-792.05 1666.66,-799.04"/>
</g>
<!-- 2 -->
<g id="node3" class="node">
<title>2</title>
<polygon fill="#f2f2f2" stroke="black" points="1216.58,-599.5 1216.58,-673.9 2421.56,-673.9 2421.56,-599.5 1216.58,-599.5"/>
<text text-anchor="middle" x="1819.07" y="-657.3" font-family="Courier New" font-size="14.00">Asset &lt;&lt;Struct&gt;&gt;</text>
<polyline fill="none" stroke="black" points="1216.58,-649.1 2421.56,-649.1 "/>
<text text-anchor="middle" x="1249.78" y="-632.5" font-family="Courier New" font-size="14.00">offset</text>
<polyline fill="none" stroke="black" points="1216.58,-624.3 1282.99,-624.3 "/>
<text text-anchor="middle" x="1249.78" y="-607.7" font-family="Courier New" font-size="14.00">0</text>
<polyline fill="none" stroke="black" points="1282.99,-599.5 1282.99,-649.1 "/>
<text text-anchor="middle" x="1852.27" y="-632.5" font-family="Courier New" font-size="14.00">type: variable (bytes)</text>
<polyline fill="none" stroke="black" points="1282.99,-624.3 2421.56,-624.3 "/>
<text text-anchor="middle" x="1358.2" y="-607.7" font-family="Courier New" font-size="14.00">unallocated (27)</text>
<polyline fill="none" stroke="black" points="1433.41,-599.5 1433.41,-624.3 "/>
<text text-anchor="middle" x="1592.63" y="-607.7" font-family="Courier New" font-size="14.00">uint16: allowedOracleSlippageBps (2)</text>
<polyline fill="none" stroke="black" points="1751.86,-599.5 1751.86,-624.3 "/>
<text text-anchor="middle" x="1839.67" y="-607.7" font-family="Courier New" font-size="14.00">uint8: decimals (1)</text>
<polyline fill="none" stroke="black" points="1927.48,-599.5 1927.48,-624.3 "/>
<text text-anchor="middle" x="2078.31" y="-607.7" font-family="Courier New" font-size="14.00">UnitConversion: unitConversion (1)</text>
<polyline fill="none" stroke="black" points="2229.13,-599.5 2229.13,-624.3 "/>
<text text-anchor="middle" x="2325.35" y="-607.7" font-family="Courier New" font-size="14.00">bool: isSupported (1)</text>
</g>
<!-- 8&#45;&gt;2 -->
<g id="edge2" class="edge">
<title>8:13&#45;&gt;2</title>
<path fill="none" stroke="black" d="M1180.58,-559.7C1201.41,-559.7 1197.29,-581.85 1216.58,-589.7 1221.81,-591.83 1227.09,-593.89 1232.4,-595.88"/>
<polygon fill="black" stroke="black" points="1231.43,-599.25 1242.02,-599.39 1233.83,-592.67 1231.43,-599.25"/>
</g>
<!-- 3 -->
<g id="node4" class="node">
<title>3</title>
<polygon fill="#f2f2f2" stroke="black" points="1533.82,-489.1 1533.82,-580.3 2104.31,-580.3 2104.31,-489.1 1533.82,-489.1"/>
<text text-anchor="middle" x="1819.07" y="-563.7" font-family="Courier New" font-size="14.00">address[]: allAssets &lt;&lt;Array&gt;&gt;</text>
<text text-anchor="middle" x="1819.07" y="-546.9" font-family="Courier New" font-size="14.00">0x46bddb1178e94d7f2892ff5f366840eb658911794f2c3a44c450aa2c505186c1</text>
<polyline fill="none" stroke="black" points="1533.82,-538.7 2104.31,-538.7 "/>
<text text-anchor="middle" x="1626.03" y="-522.1" font-family="Courier New" font-size="14.00">offset</text>
<polyline fill="none" stroke="black" points="1533.82,-513.9 1718.23,-513.9 "/>
<text text-anchor="middle" x="1626.03" y="-497.3" font-family="Courier New" font-size="14.00">0</text>
<polyline fill="none" stroke="black" points="1718.23,-489.1 1718.23,-538.7 "/>
<text text-anchor="middle" x="1910.85" y="-522.1" font-family="Courier New" font-size="14.00">type: variable (bytes)</text>
<polyline fill="none" stroke="black" points="1718.23,-513.9 2103.47,-513.9 "/>
<text text-anchor="middle" x="1822.94" y="-497.3" font-family="Courier New" font-size="14.00">unallocated (12)</text>
<polyline fill="none" stroke="black" points="1927.65,-489.1 1927.65,-513.9 "/>
<text text-anchor="middle" x="2015.56" y="-497.3" font-family="Courier New" font-size="14.00">address (20)</text>
</g>
<!-- 8&#45;&gt;3 -->
<g id="edge3" class="edge">
<title>8:15&#45;&gt;3</title>
<path fill="none" stroke="black" d="M1180.58,-534.7C1292.6,-534.7 1415.69,-534.7 1523.59,-534.7"/>
<polygon fill="black" stroke="black" points="1523.65,-538.2 1533.65,-534.7 1523.65,-531.2 1523.65,-538.2"/>
</g>
<!-- 4 -->
<g id="node5" class="node">
<title>4</title>
<polygon fill="#f2f2f2" stroke="black" points="1614.44,-371.1 1614.44,-470.3 2023.7,-470.3 2023.7,-371.1 1614.44,-371.1"/>
<text text-anchor="middle" x="1819.07" y="-453.7" font-family="Courier New" font-size="14.00">Strategy &lt;&lt;Struct&gt;&gt;</text>
<polyline fill="none" stroke="black" points="1614.44,-445.5 2023.7,-445.5 "/>
<text text-anchor="middle" x="1647.64" y="-428.9" font-family="Courier New" font-size="14.00">offset</text>
<polyline fill="none" stroke="black" points="1614.44,-420.7 1680.85,-420.7 "/>
<text text-anchor="middle" x="1647.64" y="-404.1" font-family="Courier New" font-size="14.00">0</text>
<polyline fill="none" stroke="black" points="1614.44,-395.9 1680.85,-395.9 "/>
<text text-anchor="middle" x="1647.64" y="-379.3" font-family="Courier New" font-size="14.00">1</text>
<polyline fill="none" stroke="black" points="1680.85,-371.1 1680.85,-445.5 "/>
<text text-anchor="middle" x="1852.27" y="-428.9" font-family="Courier New" font-size="14.00">type: variable (bytes)</text>
<polyline fill="none" stroke="black" points="1680.85,-420.7 2023.7,-420.7 "/>
<text text-anchor="middle" x="1756.06" y="-404.1" font-family="Courier New" font-size="14.00">unallocated (31)</text>
<polyline fill="none" stroke="black" points="1831.27,-395.9 1831.27,-420.7 "/>
<text text-anchor="middle" x="1927.48" y="-404.1" font-family="Courier New" font-size="14.00">bool: isSupported (1)</text>
<polyline fill="none" stroke="black" points="1680.85,-395.9 2023.7,-395.9 "/>
<text text-anchor="middle" x="1851.87" y="-379.3" font-family="Courier New" font-size="14.00">uint256: _deprecated (32)</text>
</g>
<!-- 8&#45;&gt;4 -->
<g id="edge4" class="edge">
<title>8:18&#45;&gt;4</title>
<path fill="none" stroke="black" d="M1180.58,-509.7C1201.41,-509.7 1197.37,-487.74 1216.58,-479.7 1338.38,-428.74 1485.77,-413.62 1604.16,-411.42"/>
<polygon fill="black" stroke="black" points="1604.49,-414.92 1614.43,-411.26 1604.38,-407.92 1604.49,-414.92"/>
</g>
<!-- 5 -->
<g id="node6" class="node">
<title>5</title>
<polygon fill="#f2f2f2" stroke="black" points="1533.82,-261.1 1533.82,-352.3 2104.31,-352.3 2104.31,-261.1 1533.82,-261.1"/>
<text text-anchor="middle" x="1819.07" y="-335.7" font-family="Courier New" font-size="14.00">address[]: allStrategies &lt;&lt;Array&gt;&gt;</text>
<text text-anchor="middle" x="1819.07" y="-318.9" font-family="Courier New" font-size="14.00">0x4a11f94e20a93c79f6ec743a1954ec4fc2c08429ae2122118bf234b2185c81b8</text>
<polyline fill="none" stroke="black" points="1533.82,-310.7 2104.31,-310.7 "/>
<text text-anchor="middle" x="1626.03" y="-294.1" font-family="Courier New" font-size="14.00">offset</text>
<polyline fill="none" stroke="black" points="1533.82,-285.9 1718.23,-285.9 "/>
<text text-anchor="middle" x="1626.03" y="-269.3" font-family="Courier New" font-size="14.00">0</text>
<polyline fill="none" stroke="black" points="1718.23,-261.1 1718.23,-310.7 "/>
<text text-anchor="middle" x="1910.85" y="-294.1" font-family="Courier New" font-size="14.00">type: variable (bytes)</text>
<polyline fill="none" stroke="black" points="1718.23,-285.9 2103.47,-285.9 "/>
<text text-anchor="middle" x="1822.94" y="-269.3" font-family="Courier New" font-size="14.00">unallocated (12)</text>
<polyline fill="none" stroke="black" points="1927.65,-261.1 1927.65,-285.9 "/>
<text text-anchor="middle" x="2015.56" y="-269.3" font-family="Courier New" font-size="14.00">address (20)</text>
</g>
<!-- 8&#45;&gt;5 -->
<g id="edge5" class="edge">
<title>8:20&#45;&gt;5</title>
<path fill="none" stroke="black" d="M1180.58,-484.7C1237.54,-484.7 1172.6,-397.9 1216.58,-361.7 1300.98,-292.23 1416.38,-270.22 1523.54,-268.54"/>
<polygon fill="black" stroke="black" points="1523.59,-272.04 1533.55,-268.44 1523.52,-265.04 1523.59,-272.04"/>
</g>
<!-- 6 -->
<g id="node7" class="node">
<title>6</title>
<polygon fill="#f2f2f2" stroke="black" points="1533.82,-94.1 1533.82,-185.3 2104.31,-185.3 2104.31,-94.1 1533.82,-94.1"/>
<text text-anchor="middle" x="1819.07" y="-168.7" font-family="Courier New" font-size="14.00">address[]: _deprecated_swapTokens &lt;&lt;Array&gt;&gt;</text>
<text text-anchor="middle" x="1819.07" y="-151.9" font-family="Courier New" font-size="14.00">0x9b22d3d61959b4d3528b1d8ba932c96fbe302b36a1aad1d95cab54f9e0a135ea</text>
<polyline fill="none" stroke="black" points="1533.82,-143.7 2104.31,-143.7 "/>
<text text-anchor="middle" x="1626.03" y="-127.1" font-family="Courier New" font-size="14.00">offset</text>
<polyline fill="none" stroke="black" points="1533.82,-118.9 1718.23,-118.9 "/>
<text text-anchor="middle" x="1626.03" y="-102.3" font-family="Courier New" font-size="14.00">0</text>
<polyline fill="none" stroke="black" points="1718.23,-94.1 1718.23,-143.7 "/>
<text text-anchor="middle" x="1910.85" y="-127.1" font-family="Courier New" font-size="14.00">type: variable (bytes)</text>
<polyline fill="none" stroke="black" points="1718.23,-118.9 2103.47,-118.9 "/>
<text text-anchor="middle" x="1822.94" y="-102.3" font-family="Courier New" font-size="14.00">unallocated (12)</text>
<polyline fill="none" stroke="black" points="1927.65,-94.1 1927.65,-118.9 "/>
<text text-anchor="middle" x="2015.56" y="-102.3" font-family="Courier New" font-size="14.00">address (20)</text>
</g>
<!-- 8&#45;&gt;6 -->
<g id="edge6" class="edge">
<title>8:37&#45;&gt;6</title>
<path fill="none" stroke="black" d="M1180.58,-137.7C1292.6,-137.7 1415.69,-138.01 1523.59,-138.39"/>
<polygon fill="black" stroke="black" points="1523.64,-141.89 1533.65,-138.43 1523.66,-134.89 1523.64,-141.89"/>
</g>
<!-- 7 -->
<g id="node8" class="node">
<title>7</title>
<polygon fill="#f2f2f2" stroke="black" points="1480.42,-0.5 1480.42,-74.9 2157.72,-74.9 2157.72,-0.5 1480.42,-0.5"/>
<text text-anchor="middle" x="1819.07" y="-58.3" font-family="Courier New" font-size="14.00">SwapConfig &lt;&lt;Struct&gt;&gt;</text>
<polyline fill="none" stroke="black" points="1480.42,-50.1 2157.72,-50.1 "/>
<text text-anchor="middle" x="1505.22" y="-33.5" font-family="Courier New" font-size="14.00">slot</text>
<polyline fill="none" stroke="black" points="1480.42,-25.3 1530.02,-25.3 "/>
<text text-anchor="middle" x="1505.22" y="-8.7" font-family="Courier New" font-size="14.00">72</text>
<polyline fill="none" stroke="black" points="1530.02,-0.5 1530.02,-50.1 "/>
<text text-anchor="middle" x="1843.87" y="-33.5" font-family="Courier New" font-size="14.00">type: variable (bytes)</text>
<polyline fill="none" stroke="black" points="1530.02,-25.3 2157.72,-25.3 "/>
<text text-anchor="middle" x="1605.24" y="-8.7" font-family="Courier New" font-size="14.00">unallocated (10)</text>
<polyline fill="none" stroke="black" points="1680.45,-0.5 1680.45,-25.3 "/>
<text text-anchor="middle" x="1822.87" y="-8.7" font-family="Courier New" font-size="14.00">uint16: allowedUndervalueBps (2)</text>
<polyline fill="none" stroke="black" points="1965.29,-0.5 1965.29,-25.3 "/>
<text text-anchor="middle" x="2061.5" y="-8.7" font-family="Courier New" font-size="14.00">address: swapper (20)</text>
</g>
<!-- 8&#45;&gt;7 -->
<g id="edge7" class="edge">
<title>8:43&#45;&gt;7</title>
<path fill="none" stroke="black" d="M1180.29,-38.7C1274.17,-38.7 1375.82,-38.59 1469.8,-38.44"/>
<polygon fill="black" stroke="black" points="1470.05,-41.94 1480.04,-38.43 1470.04,-34.94 1470.05,-41.94"/>
</g>
</g>
</svg>
