<?xml version="1.0" encoding="UTF-8" standalone="no"?>
<!DOCTYPE svg PUBLIC "-//W3C//DTD SVG 1.1//EN"
 "http://www.w3.org/Graphics/SVG/1.1/DTD/svg11.dtd">
<!-- Generated by graphviz version 5.0.0 (20220707.1540)
 -->
<!-- Title: UmlClassDiagram Pages: 1 -->
<svg width="855pt" height="241pt"
 viewBox="0.00 0.00 854.90 241.40" xmlns="http://www.w3.org/2000/svg" xmlns:xlink="http://www.w3.org/1999/xlink">
<g id="graph0" class="graph" transform="scale(1 1) rotate(0) translate(4 237.4)">
<title>UmlClassDiagram</title>
<polygon fill="white" stroke="transparent" points="-4,4 -4,-237.4 850.9,-237.4 850.9,4 -4,4"/>
<!-- 20 -->
<g id="node1" class="node">
<title>20</title>
<polygon fill="#f2f2f2" stroke="black" points="0,-182.9 0,-224.5 234.86,-224.5 234.86,-182.9 0,-182.9"/>
<text text-anchor="middle" x="117.43" y="-207.9" font-family="Times,serif" font-size="14.00">Governable</text>
<text text-anchor="middle" x="117.43" y="-191.1" font-family="Times,serif" font-size="14.00">../contracts/governance/Governable.sol</text>
</g>
<!-- 228 -->
<g id="node2" class="node">
<title>228</title>
<polygon fill="#f2f2f2" stroke="black" points="252.42,-174.5 252.42,-232.9 598.44,-232.9 598.44,-174.5 252.42,-174.5"/>
<text text-anchor="middle" x="425.43" y="-216.3" font-family="Times,serif" font-size="14.00">&lt;&lt;Interface&gt;&gt;</text>
<text text-anchor="middle" x="425.43" y="-199.5" font-family="Times,serif" font-size="14.00">AggregatorV3Interface</text>
<text text-anchor="middle" x="425.43" y="-182.7" font-family="Times,serif" font-size="14.00">../contracts/interfaces/chainlink/AggregatorV3Interface.sol</text>
</g>
<!-- 115 -->
<g id="node3" class="node">
<title>115</title>
<polygon fill="#f2f2f2" stroke="black" points="323.56,-79.1 323.56,-137.5 527.3,-137.5 527.3,-79.1 323.56,-79.1"/>
<text text-anchor="middle" x="425.43" y="-120.9" font-family="Times,serif" font-size="14.00">&lt;&lt;Abstract&gt;&gt;</text>
<text text-anchor="middle" x="425.43" y="-104.1" font-family="Times,serif" font-size="14.00">BaseOracle</text>
<text text-anchor="middle" x="425.43" y="-87.3" font-family="Times,serif" font-size="14.00">../contracts/oracle/BaseOracle.sol</text>
</g>
<!-- 115&#45;&gt;20 -->
<g id="edge3" class="edge">
<title>115&#45;&gt;20</title>
<path fill="none" stroke="black" d="M332.18,-137.58C294.09,-149.13 250.09,-162.47 211.87,-174.06"/>
<polygon fill="none" stroke="black" points="208.67,-164.06 183.01,-182.81 214.76,-184.16 208.67,-164.06"/>
</g>
<!-- 115&#45;&gt;228 -->
<g id="edge1" class="edge">
<title>115&#45;&gt;228</title>
<path fill="none" stroke="black" stroke-dasharray="5,2" d="M425.43,-137.58C425.43,-139.66 425.43,-141.8 425.43,-143.98"/>
<polygon fill="none" stroke="black" points="414.93,-144.2 425.43,-174.2 435.93,-144.2 414.93,-144.2"/>
</g>
<!-- 117 -->
<g id="node4" class="node">
<title>117</title>
<polygon fill="#f2f2f2" stroke="black" points="615.96,-174.5 615.96,-232.9 846.9,-232.9 846.9,-174.5 615.96,-174.5"/>
<text text-anchor="middle" x="731.43" y="-216.3" font-family="Times,serif" font-size="14.00">&lt;&lt;Interface&gt;&gt;</text>
<text text-anchor="middle" x="731.43" y="-199.5" font-family="Times,serif" font-size="14.00">IOracleReceiver</text>
<text text-anchor="middle" x="731.43" y="-182.7" font-family="Times,serif" font-size="14.00">../contracts/oracle/IOracleReceiver.sol</text>
</g>
<!-- 115&#45;&gt;117 -->
<g id="edge2" class="edge">
<title>115&#45;&gt;117</title>
<path fill="none" stroke="black" stroke-dasharray="5,2" d="M518.07,-137.58C546.91,-146.38 579.17,-156.23 609.69,-165.54"/>
<polygon fill="none" stroke="black" points="607.08,-175.72 638.84,-174.44 613.21,-155.64 607.08,-175.72"/>
</g>
<!-- 118 -->
<g id="node5" class="node">
<title>118</title>
<polygon fill="#f2f2f2" stroke="black" points="318.5,-0.5 318.5,-42.1 532.36,-42.1 532.36,-0.5 318.5,-0.5"/>
<text text-anchor="middle" x="425.43" y="-25.5" font-family="Times,serif" font-size="14.00">OETHOracle</text>
<text text-anchor="middle" x="425.43" y="-8.7" font-family="Times,serif" font-size="14.00">../contracts/oracle/OETHOracle.sol</text>
</g>
<!-- 118&#45;&gt;115 -->
<g id="edge4" class="edge">
<title>118&#45;&gt;115</title>
<path fill="none" stroke="black" d="M425.43,-42.44C425.43,-44.49 425.43,-46.63 425.43,-48.83"/>
<polygon fill="none" stroke="black" points="414.93,-48.94 425.43,-78.94 435.93,-48.94 414.93,-48.94"/>
</g>
</g>
</svg>
