<?xml version="1.0" encoding="UTF-8" standalone="no"?>
<!DOCTYPE svg PUBLIC "-//W3C//DTD SVG 1.1//EN"
 "http://www.w3.org/Graphics/SVG/1.1/DTD/svg11.dtd">
<!-- Generated by graphviz version 5.0.0 (20220707.1540)
 -->
<!-- Title: UmlClassDiagram Pages: 1 -->
<svg width="1266pt" height="494pt"
 viewBox="0.00 0.00 1266.41 494.00" xmlns="http://www.w3.org/2000/svg" xmlns:xlink="http://www.w3.org/1999/xlink">
<g id="graph0" class="graph" transform="scale(1 1) rotate(0) translate(4 490)">
<title>UmlClassDiagram</title>
<polygon fill="white" stroke="transparent" points="-4,4 -4,-490 1262.41,-490 1262.41,4 -4,4"/>
<!-- 7 -->
<g id="node1" class="node">
<title>7</title>
<polygon fill="#f2f2f2" stroke="black" points="475.04,-340.1 475.04,-381.7 709.9,-381.7 709.9,-340.1 475.04,-340.1"/>
<text text-anchor="middle" x="592.47" y="-365.1" font-family="Times,serif" font-size="14.00">Governable</text>
<text text-anchor="middle" x="592.47" y="-348.3" font-family="Times,serif" font-size="14.00">../contracts/governance/Governable.sol</text>
</g>
<!-- 25 -->
<g id="node2" class="node">
<title>25</title>
<polygon fill="#f2f2f2" stroke="black" points="0,-157.7 0,-216.1 300.94,-216.1 300.94,-157.7 0,-157.7"/>
<text text-anchor="middle" x="150.47" y="-199.5" font-family="Times,serif" font-size="14.00">&lt;&lt;Interface&gt;&gt;</text>
<text text-anchor="middle" x="150.47" y="-182.7" font-family="Times,serif" font-size="14.00">IGetExchangeRateToken</text>
<text text-anchor="middle" x="150.47" y="-165.9" font-family="Times,serif" font-size="14.00">../contracts/interfaces/IGetExchangeRateToken.sol</text>
</g>
<!-- 33 -->
<g id="node3" class="node">
<title>33</title>
<polygon fill="#f2f2f2" stroke="black" points="318.76,-157.7 318.76,-216.1 520.17,-216.1 520.17,-157.7 318.76,-157.7"/>
<text text-anchor="middle" x="419.47" y="-199.5" font-family="Times,serif" font-size="14.00">&lt;&lt;Interface&gt;&gt;</text>
<text text-anchor="middle" x="419.47" y="-182.7" font-family="Times,serif" font-size="14.00">IOracle</text>
<text text-anchor="middle" x="419.47" y="-165.9" font-family="Times,serif" font-size="14.00">../contracts/interfaces/IOracle.sol</text>
</g>
<!-- 36 -->
<g id="node4" class="node">
<title>36</title>
<polygon fill="#f2f2f2" stroke="black" points="538.09,-157.7 538.09,-216.1 748.85,-216.1 748.85,-157.7 538.09,-157.7"/>
<text text-anchor="middle" x="643.47" y="-199.5" font-family="Times,serif" font-size="14.00">&lt;&lt;Interface&gt;&gt;</text>
<text text-anchor="middle" x="643.47" y="-182.7" font-family="Times,serif" font-size="14.00">IStrategy</text>
<text text-anchor="middle" x="643.47" y="-165.9" font-family="Times,serif" font-size="14.00">../contracts/interfaces/IStrategy.sol</text>
</g>
<!-- 151 -->
<g id="node5" class="node">
<title>151</title>
<polygon fill="#f2f2f2" stroke="black" points="783.34,-253.1 783.34,-294.7 957.6,-294.7 957.6,-253.1 783.34,-253.1"/>
<text text-anchor="middle" x="870.47" y="-278.1" font-family="Times,serif" font-size="14.00">OUSD</text>
<text text-anchor="middle" x="870.47" y="-261.3" font-family="Times,serif" font-size="14.00">../contracts/token/OUSD.sol</text>
</g>
<!-- 151&#45;&gt;7 -->
<g id="edge3" class="edge">
<title>151&#45;&gt;7</title>
<path fill="none" stroke="black" d="M805.64,-294.72C770.1,-305.59 725.4,-319.25 686.13,-331.26"/>
<polygon fill="none" stroke="black" points="683.02,-321.23 657.4,-340.05 689.16,-341.32 683.02,-321.23"/>
</g>
<!-- 158 -->
<g id="node6" class="node">
<title>158</title>
<polygon fill="#f2f2f2" stroke="black" points="1030.46,-331.7 1030.46,-390.1 1226.47,-390.1 1226.47,-331.7 1030.46,-331.7"/>
<text text-anchor="middle" x="1128.47" y="-373.5" font-family="Times,serif" font-size="14.00">&lt;&lt;Abstract&gt;&gt;</text>
<text text-anchor="middle" x="1128.47" y="-356.7" font-family="Times,serif" font-size="14.00">Initializable</text>
<text text-anchor="middle" x="1128.47" y="-339.9" font-family="Times,serif" font-size="14.00">../contracts/utils/Initializable.sol</text>
</g>
<!-- 151&#45;&gt;158 -->
<g id="edge1" class="edge">
<title>151&#45;&gt;158</title>
<path fill="none" stroke="black" d="M930.63,-294.72C955.52,-302.92 985.23,-312.71 1013.98,-322.18"/>
<polygon fill="none" stroke="black" points="1010.98,-332.25 1042.76,-331.66 1017.55,-312.3 1010.98,-332.25"/>
</g>
<!-- 160 -->
<g id="node7" class="node">
<title>160</title>
<polygon fill="#f2f2f2" stroke="black" points="728.14,-331.7 728.14,-390.1 1012.8,-390.1 1012.8,-331.7 728.14,-331.7"/>
<text text-anchor="middle" x="870.47" y="-373.5" font-family="Times,serif" font-size="14.00">&lt;&lt;Abstract&gt;&gt;</text>
<text text-anchor="middle" x="870.47" y="-356.7" font-family="Times,serif" font-size="14.00">InitializableERC20Detailed</text>
<text text-anchor="middle" x="870.47" y="-339.9" font-family="Times,serif" font-size="14.00">../contracts/utils/InitializableERC20Detailed.sol</text>
</g>
<!-- 151&#45;&gt;160 -->
<g id="edge2" class="edge">
<title>151&#45;&gt;160</title>
<path fill="none" stroke="black" d="M870.47,-295.04C870.47,-297.09 870.47,-299.23 870.47,-301.43"/>
<polygon fill="none" stroke="black" points="859.97,-301.54 870.47,-331.54 880.97,-301.54 859.97,-301.54"/>
</g>
<!-- 331 -->
<g id="node11" class="node">
<title>331</title>
<polygon fill="#f2f2f2" stroke="black" points="668.41,-427.1 668.41,-485.5 1072.52,-485.5 1072.52,-427.1 668.41,-427.1"/>
<text text-anchor="middle" x="870.47" y="-468.9" font-family="Times,serif" font-size="14.00">&lt;&lt;Interface&gt;&gt;</text>
<text text-anchor="middle" x="870.47" y="-452.1" font-family="Times,serif" font-size="14.00">IERC20</text>
<text text-anchor="middle" x="870.47" y="-435.3" font-family="Times,serif" font-size="14.00">../node_modules/@openzeppelin/contracts/token/ERC20/IERC20.sol</text>
</g>
<!-- 160&#45;&gt;331 -->
<g id="edge4" class="edge">
<title>160&#45;&gt;331</title>
<path fill="none" stroke="black" stroke-dasharray="5,2" d="M870.47,-390.18C870.47,-392.26 870.47,-394.4 870.47,-396.58"/>
<polygon fill="none" stroke="black" points="859.97,-396.8 870.47,-426.8 880.97,-396.8 859.97,-396.8"/>
</g>
<!-- 164 -->
<g id="node8" class="node">
<title>164</title>
<polygon fill="#f2f2f2" stroke="black" points="756.13,-0.5 756.13,-42.1 984.8,-42.1 984.8,-0.5 756.13,-0.5"/>
<text text-anchor="middle" x="870.47" y="-25.5" font-family="Times,serif" font-size="14.00">OETHVaultCore</text>
<text text-anchor="middle" x="870.47" y="-8.7" font-family="Times,serif" font-size="14.00">../contracts/vault/OETHVaultCore.sol</text>
</g>
<!-- 168 -->
<g id="node9" class="node">
<title>168</title>
<polygon fill="#f2f2f2" stroke="black" points="774.79,-79.1 774.79,-120.7 966.14,-120.7 966.14,-79.1 774.79,-79.1"/>
<text text-anchor="middle" x="870.47" y="-104.1" font-family="Times,serif" font-size="14.00">VaultCore</text>
<text text-anchor="middle" x="870.47" y="-87.3" font-family="Times,serif" font-size="14.00">../contracts/vault/VaultCore.sol</text>
</g>
<!-- 164&#45;&gt;168 -->
<g id="edge5" class="edge">
<title>164&#45;&gt;168</title>
<path fill="none" stroke="black" d="M870.47,-42.43C870.47,-44.45 870.47,-46.56 870.47,-48.73"/>
<polygon fill="none" stroke="black" points="859.97,-48.91 870.47,-78.91 880.97,-48.91 859.97,-48.91"/>
</g>
<!-- 168&#45;&gt;25 -->
<g id="edge10" class="edge">
<title>168&#45;&gt;25</title>
<path fill="none" stroke="black" stroke-dasharray="5,2" d="M774.65,-108.21C664.93,-117.1 479.61,-133.72 311.11,-157.01"/>
<polygon fill="black" stroke="black" points="310.49,-153.56 301.06,-158.41 311.45,-160.49 310.49,-153.56"/>
</g>
<!-- 168&#45;&gt;33 -->
<g id="edge9" class="edge">
<title>168&#45;&gt;33</title>
<path fill="none" stroke="black" stroke-dasharray="5,2" d="M774.49,-114.35C708.39,-124.17 618.42,-138.64 530.29,-157.1"/>
<polygon fill="black" stroke="black" points="529.44,-153.7 520.38,-159.19 530.89,-160.54 529.44,-153.7"/>
</g>
<!-- 168&#45;&gt;36 -->
<g id="edge8" class="edge">
<title>168&#45;&gt;36</title>
<path fill="none" stroke="black" stroke-dasharray="5,2" d="M817.53,-120.72C791.05,-130.64 758.35,-142.88 728.47,-154.07"/>
<polygon fill="black" stroke="black" points="727.02,-150.88 718.88,-157.66 729.47,-157.43 727.02,-150.88"/>
</g>
<!-- 170 -->
<g id="node10" class="node">
<title>170</title>
<polygon fill="#f2f2f2" stroke="black" points="767.02,-166.1 767.02,-207.7 973.92,-207.7 973.92,-166.1 767.02,-166.1"/>
<text text-anchor="middle" x="870.47" y="-191.1" font-family="Times,serif" font-size="14.00">VaultStorage</text>
<text text-anchor="middle" x="870.47" y="-174.3" font-family="Times,serif" font-size="14.00">../contracts/vault/VaultStorage.sol</text>
</g>
<!-- 168&#45;&gt;170 -->
<g id="edge6" class="edge">
<title>168&#45;&gt;170</title>
<path fill="none" stroke="black" d="M870.47,-121.04C870.47,-125.6 870.47,-130.63 870.47,-135.81"/>
<polygon fill="none" stroke="black" points="859.97,-135.9 870.47,-165.9 880.97,-135.9 859.97,-135.9"/>
</g>
<!-- 168&#45;&gt;331 -->
<g id="edge7" class="edge">
<title>168&#45;&gt;331</title>
<path fill="none" stroke="black" stroke-dasharray="5,2" d="M937.01,-120.83C1067.89,-163.29 1337.6,-268.77 1235.47,-390.6 1214.19,-415.98 1151.01,-431.41 1083.06,-440.79"/>
<polygon fill="black" stroke="black" points="1082.46,-437.34 1073.01,-442.13 1083.38,-444.28 1082.46,-437.34"/>
</g>
<!-- 170&#45;&gt;7 -->
<g id="edge12" class="edge">
<title>170&#45;&gt;7</title>
<path fill="none" stroke="black" d="M838.31,-207.8C792.47,-236.16 707.62,-288.66 650.6,-323.94"/>
<polygon fill="none" stroke="black" points="644.76,-315.2 624.77,-339.92 655.81,-333.06 644.76,-315.2"/>
</g>
<!-- 170&#45;&gt;151 -->
<g id="edge13" class="edge">
<title>170&#45;&gt;151</title>
<path fill="none" stroke="black" d="M870.47,-208.04C870.47,-218.42 870.47,-231.28 870.47,-242.8"/>
<polygon fill="black" stroke="black" points="866.97,-242.9 870.47,-252.9 873.97,-242.9 866.97,-242.9"/>
</g>
<!-- 170&#45;&gt;158 -->
<g id="edge11" class="edge">
<title>170&#45;&gt;158</title>
<path fill="none" stroke="black" d="M900.32,-207.8C939.37,-233.84 1008.97,-280.24 1061.06,-314.96"/>
<polygon fill="none" stroke="black" points="1055.3,-323.74 1086.09,-331.65 1066.95,-306.27 1055.3,-323.74"/>
</g>
</g>
</svg>
