<?xml version="1.0" encoding="UTF-8" standalone="no"?>
<!DOCTYPE svg PUBLIC "-//W3C//DTD SVG 1.1//EN"
 "http://www.w3.org/Graphics/SVG/1.1/DTD/svg11.dtd">
<!-- Generated by graphviz version 5.0.0 (20220707.1540)
 -->
<!-- Title: UmlClassDiagram Pages: 1 -->
<svg width="223pt" height="225pt"
 viewBox="0.00 0.00 222.64 224.60" xmlns="http://www.w3.org/2000/svg" xmlns:xlink="http://www.w3.org/1999/xlink">
<g id="graph0" class="graph" transform="scale(1 1) rotate(0) translate(4 220.6)">
<title>UmlClassDiagram</title>
<polygon fill="white" stroke="transparent" points="-4,4 -4,-220.6 218.64,-220.6 218.64,4 -4,4"/>
<!-- 121 -->
<g id="node1" class="node">
<title>121</title>
<polygon fill="#f2f2f2" stroke="black" points="0,-157.7 0,-216.1 214.64,-216.1 214.64,-157.7 0,-157.7"/>
<text text-anchor="middle" x="107.32" y="-199.5" font-family="Times,serif" font-size="14.00">&lt;&lt;Abstract&gt;&gt;</text>
<text text-anchor="middle" x="107.32" y="-182.7" font-family="Times,serif" font-size="14.00">OracleRouterBase</text>
<text text-anchor="middle" x="107.32" y="-165.9" font-family="Times,serif" font-size="14.00">../contracts/oracle/OracleRouter.sol</text>
</g>
<!-- 122 -->
<g id="node2" class="node">
<title>122</title>
<polygon fill="#f2f2f2" stroke="black" points="0,-79.1 0,-120.7 214.64,-120.7 214.64,-79.1 0,-79.1"/>
<text text-anchor="middle" x="107.32" y="-104.1" font-family="Times,serif" font-size="14.00">OracleRouter</text>
<text text-anchor="middle" x="107.32" y="-87.3" font-family="Times,serif" font-size="14.00">../contracts/oracle/OracleRouter.sol</text>
</g>
<!-- 122&#45;&gt;121 -->
<g id="edge1" class="edge">
<title>122&#45;&gt;121</title>
<path fill="none" stroke="black" d="M107.32,-121.04C107.32,-123.09 107.32,-125.23 107.32,-127.43"/>
<polygon fill="none" stroke="black" points="96.82,-127.54 107.32,-157.54 117.82,-127.54 96.82,-127.54"/>
</g>
<!-- 123 -->
<g id="node3" class="node">
<title>123</title>
<polygon fill="#f2f2f2" stroke="black" points="0,-0.5 0,-42.1 214.64,-42.1 214.64,-0.5 0,-0.5"/>
<text text-anchor="middle" x="107.32" y="-25.5" font-family="Times,serif" font-size="14.00">OETHOracleRouter</text>
<text text-anchor="middle" x="107.32" y="-8.7" font-family="Times,serif" font-size="14.00">../contracts/oracle/OracleRouter.sol</text>
</g>
<!-- 123&#45;&gt;122 -->
<g id="edge2" class="edge">
<title>123&#45;&gt;122</title>
<path fill="none" stroke="black" d="M107.32,-42.43C107.32,-44.45 107.32,-46.56 107.32,-48.73"/>
<polygon fill="none" stroke="black" points="96.82,-48.91 107.32,-78.91 117.82,-48.91 96.82,-48.91"/>
</g>
</g>
</svg>
