<?xml version="1.0" encoding="UTF-8" standalone="no"?>
<!DOCTYPE svg PUBLIC "-//W3C//DTD SVG 1.1//EN"
 "http://www.w3.org/Graphics/SVG/1.1/DTD/svg11.dtd">
<!-- Generated by graphviz version 5.0.0 (20220707.1540)
 -->
<!-- Title: UmlClassDiagram Pages: 1 -->
<svg width="878pt" height="225pt"
 viewBox="0.00 0.00 878.48 224.60" xmlns="http://www.w3.org/2000/svg" xmlns:xlink="http://www.w3.org/1999/xlink">
<g id="graph0" class="graph" transform="scale(1 1) rotate(0) translate(4 220.6)">
<title>UmlClassDiagram</title>
<polygon fill="white" stroke="transparent" points="-4,4 -4,-220.6 874.48,-220.6 874.48,4 -4,4"/>
<!-- 7 -->
<g id="node1" class="node">
<title>7</title>
<polygon fill="#f2f2f2" stroke="black" points="0,-166.1 0,-207.7 234.86,-207.7 234.86,-166.1 0,-166.1"/>
<text text-anchor="middle" x="117.43" y="-191.1" font-family="Times,serif" font-size="14.00">Governable</text>
<text text-anchor="middle" x="117.43" y="-174.3" font-family="Times,serif" font-size="14.00">../contracts/governance/Governable.sol</text>
</g>
<!-- 15 -->
<g id="node2" class="node">
<title>15</title>
<polygon fill="#f2f2f2" stroke="black" points="22.93,-79.1 22.93,-120.7 211.93,-120.7 211.93,-79.1 22.93,-79.1"/>
<text text-anchor="middle" x="117.43" y="-104.1" font-family="Times,serif" font-size="14.00">Dripper</text>
<text text-anchor="middle" x="117.43" y="-87.3" font-family="Times,serif" font-size="14.00">../contracts/harvest/Dripper.sol</text>
</g>
<!-- 15&#45;&gt;7 -->
<g id="edge1" class="edge">
<title>15&#45;&gt;7</title>
<path fill="none" stroke="black" d="M117.43,-121.04C117.43,-125.6 117.43,-130.63 117.43,-135.81"/>
<polygon fill="none" stroke="black" points="106.93,-135.9 117.43,-165.9 127.93,-135.9 106.93,-135.9"/>
</g>
<!-- 35 -->
<g id="node4" class="node">
<title>35</title>
<polygon fill="#f2f2f2" stroke="black" points="252.82,-157.7 252.82,-216.1 448.04,-216.1 448.04,-157.7 252.82,-157.7"/>
<text text-anchor="middle" x="350.43" y="-199.5" font-family="Times,serif" font-size="14.00">&lt;&lt;Interface&gt;&gt;</text>
<text text-anchor="middle" x="350.43" y="-182.7" font-family="Times,serif" font-size="14.00">IVault</text>
<text text-anchor="middle" x="350.43" y="-165.9" font-family="Times,serif" font-size="14.00">../contracts/interfaces/IVault.sol</text>
</g>
<!-- 15&#45;&gt;35 -->
<g id="edge3" class="edge">
<title>15&#45;&gt;35</title>
<path fill="none" stroke="black" stroke-dasharray="5,2" d="M171.76,-120.72C199.06,-130.68 232.8,-142.99 263.58,-154.22"/>
<polygon fill="black" stroke="black" points="262.43,-157.52 273.03,-157.66 264.83,-150.95 262.43,-157.52"/>
</g>
<!-- 436 -->
<g id="node5" class="node">
<title>436</title>
<polygon fill="#f2f2f2" stroke="black" points="466.37,-157.7 466.37,-216.1 870.48,-216.1 870.48,-157.7 466.37,-157.7"/>
<text text-anchor="middle" x="668.43" y="-199.5" font-family="Times,serif" font-size="14.00">&lt;&lt;Interface&gt;&gt;</text>
<text text-anchor="middle" x="668.43" y="-182.7" font-family="Times,serif" font-size="14.00">IERC20</text>
<text text-anchor="middle" x="668.43" y="-165.9" font-family="Times,serif" font-size="14.00">../node_modules/@openzeppelin/contracts/token/ERC20/IERC20.sol</text>
</g>
<!-- 15&#45;&gt;436 -->
<g id="edge2" class="edge">
<title>15&#45;&gt;436</title>
<path fill="none" stroke="black" stroke-dasharray="5,2" d="M212.15,-115.51C284.37,-126.65 386.25,-142.37 475.43,-156.13"/>
<polygon fill="black" stroke="black" points="474.99,-159.6 485.41,-157.67 476.06,-152.68 474.99,-159.6"/>
</g>
<!-- 18 -->
<g id="node3" class="node">
<title>18</title>
<polygon fill="#f2f2f2" stroke="black" points="4.27,-0.5 4.27,-42.1 230.59,-42.1 230.59,-0.5 4.27,-0.5"/>
<text text-anchor="middle" x="117.43" y="-25.5" font-family="Times,serif" font-size="14.00">OETHDripper</text>
<text text-anchor="middle" x="117.43" y="-8.7" font-family="Times,serif" font-size="14.00">../contracts/harvest/OETHDripper.sol</text>
</g>
<!-- 18&#45;&gt;15 -->
<g id="edge4" class="edge">
<title>18&#45;&gt;15</title>
<path fill="none" stroke="black" d="M117.43,-42.43C117.43,-44.45 117.43,-46.56 117.43,-48.73"/>
<polygon fill="none" stroke="black" points="106.93,-48.91 117.43,-78.91 127.93,-48.91 106.93,-48.91"/>
</g>
</g>
</svg>
