<?xml version="1.0" encoding="UTF-8" standalone="no"?>
<!DOCTYPE svg PUBLIC "-//W3C//DTD SVG 1.1//EN"
 "http://www.w3.org/Graphics/SVG/1.1/DTD/svg11.dtd">
<!-- Generated by graphviz version 5.0.0 (20220707.1540)
 -->
<!-- Title: UmlClassDiagram Pages: 1 -->
<svg width="243pt" height="208pt"
 viewBox="0.00 0.00 242.86 207.80" xmlns="http://www.w3.org/2000/svg" xmlns:xlink="http://www.w3.org/1999/xlink">
<g id="graph0" class="graph" transform="scale(1 1) rotate(0) translate(4 203.8)">
<title>UmlClassDiagram</title>
<polygon fill="white" stroke="transparent" points="-4,4 -4,-203.8 238.86,-203.8 238.86,4 -4,4"/>
<!-- 18 -->
<g id="node1" class="node">
<title>18</title>
<polygon fill="#f2f2f2" stroke="black" points="0,-157.7 0,-199.3 234.86,-199.3 234.86,-157.7 0,-157.7"/>
<text text-anchor="middle" x="117.43" y="-182.7" font-family="Times,serif" font-size="14.00">Governable</text>
<text text-anchor="middle" x="117.43" y="-165.9" font-family="Times,serif" font-size="14.00">../contracts/governance/Governable.sol</text>
</g>
<!-- 26 -->
<g id="node2" class="node">
<title>26</title>
<polygon fill="#f2f2f2" stroke="black" points="22.93,-79.1 22.93,-120.7 211.93,-120.7 211.93,-79.1 22.93,-79.1"/>
<text text-anchor="middle" x="117.43" y="-104.1" font-family="Times,serif" font-size="14.00">Dripper</text>
<text text-anchor="middle" x="117.43" y="-87.3" font-family="Times,serif" font-size="14.00">../contracts/harvest/Dripper.sol</text>
</g>
<!-- 26&#45;&gt;18 -->
<g id="edge1" class="edge">
<title>26&#45;&gt;18</title>
<path fill="none" stroke="black" d="M117.43,-121.03C117.43,-123.05 117.43,-125.16 117.43,-127.33"/>
<polygon fill="none" stroke="black" points="106.93,-127.51 117.43,-157.51 127.93,-127.51 106.93,-127.51"/>
</g>
<!-- 29 -->
<g id="node3" class="node">
<title>29</title>
<polygon fill="#f2f2f2" stroke="black" points="4.27,-0.5 4.27,-42.1 230.59,-42.1 230.59,-0.5 4.27,-0.5"/>
<text text-anchor="middle" x="117.43" y="-25.5" font-family="Times,serif" font-size="14.00">OETHDripper</text>
<text text-anchor="middle" x="117.43" y="-8.7" font-family="Times,serif" font-size="14.00">../contracts/harvest/OETHDripper.sol</text>
</g>
<!-- 29&#45;&gt;26 -->
<g id="edge2" class="edge">
<title>29&#45;&gt;26</title>
<path fill="none" stroke="black" d="M117.43,-42.43C117.43,-44.45 117.43,-46.56 117.43,-48.73"/>
<polygon fill="none" stroke="black" points="106.93,-48.91 117.43,-78.91 127.93,-48.91 106.93,-48.91"/>
</g>
</g>
</svg>
