<?xml version="1.0" encoding="UTF-8" standalone="no"?>
<!DOCTYPE svg PUBLIC "-//W3C//DTD SVG 1.1//EN"
 "http://www.w3.org/Graphics/SVG/1.1/DTD/svg11.dtd">
<!-- Generated by graphviz version 5.0.0 (20220707.1540)
 -->
<!-- Title: StorageDiagram Pages: 1 -->
<svg width="1935pt" height="849pt"
 viewBox="0.00 0.00 1935.48 848.80" xmlns="http://www.w3.org/2000/svg" xmlns:xlink="http://www.w3.org/1999/xlink">
<g id="graph0" class="graph" transform="scale(1 1) rotate(0) translate(4 844.8)">
<title>StorageDiagram</title>
<polygon fill="white" stroke="transparent" points="-4,4 -4,-844.8 1931.48,-844.8 1931.48,4 -4,4"/>
<!-- 7 -->
<g id="node1" class="node">
<title>7</title>
<polygon fill="#f2f2f2" stroke="black" points="0,-0.5 0,-620.5 1180.58,-620.5 1180.58,-0.5 0,-0.5"/>
<text text-anchor="middle" x="590.29" y="-603.9" font-family="Courier New" font-size="14.00">OETHVaultCore &lt;&lt;Contract&gt;&gt;</text>
<polyline fill="none" stroke="black" points="0,-595.7 1180.58,-595.7 "/>
<text text-anchor="middle" x="24.8" y="-579.1" font-family="Courier New" font-size="14.00">slot</text>
<polyline fill="none" stroke="black" points="0,-570.9 49.61,-570.9 "/>
<text text-anchor="middle" x="24.8" y="-554.3" font-family="Courier New" font-size="14.00">0</text>
<polyline fill="none" stroke="black" points="0,-546.1 49.61,-546.1 "/>
<text text-anchor="middle" x="24.8" y="-529.5" font-family="Courier New" font-size="14.00">1&#45;50</text>
<polyline fill="none" stroke="black" points="0,-521.3 49.61,-521.3 "/>
<text text-anchor="middle" x="24.8" y="-504.7" font-family="Courier New" font-size="14.00">51</text>
<polyline fill="none" stroke="black" points="0,-496.5 49.61,-496.5 "/>
<text text-anchor="middle" x="24.8" y="-479.9" font-family="Courier New" font-size="14.00">52</text>
<polyline fill="none" stroke="black" points="0,-471.7 49.61,-471.7 "/>
<text text-anchor="middle" x="24.8" y="-455.1" font-family="Courier New" font-size="14.00">53</text>
<polyline fill="none" stroke="black" points="0,-446.9 49.61,-446.9 "/>
<text text-anchor="middle" x="24.8" y="-430.3" font-family="Courier New" font-size="14.00">54</text>
<polyline fill="none" stroke="black" points="0,-422.1 49.61,-422.1 "/>
<text text-anchor="middle" x="24.8" y="-405.5" font-family="Courier New" font-size="14.00">55</text>
<polyline fill="none" stroke="black" points="0,-397.3 49.61,-397.3 "/>
<text text-anchor="middle" x="24.8" y="-380.7" font-family="Courier New" font-size="14.00">56</text>
<polyline fill="none" stroke="black" points="0,-372.5 49.61,-372.5 "/>
<text text-anchor="middle" x="24.8" y="-355.9" font-family="Courier New" font-size="14.00">57</text>
<polyline fill="none" stroke="black" points="0,-347.7 49.61,-347.7 "/>
<text text-anchor="middle" x="24.8" y="-331.1" font-family="Courier New" font-size="14.00">58</text>
<polyline fill="none" stroke="black" points="0,-322.9 49.61,-322.9 "/>
<text text-anchor="middle" x="24.8" y="-306.3" font-family="Courier New" font-size="14.00">59</text>
<polyline fill="none" stroke="black" points="0,-298.1 49.61,-298.1 "/>
<text text-anchor="middle" x="24.8" y="-281.5" font-family="Courier New" font-size="14.00">60</text>
<polyline fill="none" stroke="black" points="0,-273.3 49.61,-273.3 "/>
<text text-anchor="middle" x="24.8" y="-256.7" font-family="Courier New" font-size="14.00">61</text>
<polyline fill="none" stroke="black" points="0,-248.5 49.61,-248.5 "/>
<text text-anchor="middle" x="24.8" y="-231.9" font-family="Courier New" font-size="14.00">62</text>
<polyline fill="none" stroke="black" points="0,-223.7 49.61,-223.7 "/>
<text text-anchor="middle" x="24.8" y="-207.1" font-family="Courier New" font-size="14.00">63</text>
<polyline fill="none" stroke="black" points="0,-198.9 49.61,-198.9 "/>
<text text-anchor="middle" x="24.8" y="-182.3" font-family="Courier New" font-size="14.00">64</text>
<polyline fill="none" stroke="black" points="0,-174.1 49.61,-174.1 "/>
<text text-anchor="middle" x="24.8" y="-157.5" font-family="Courier New" font-size="14.00">65</text>
<polyline fill="none" stroke="black" points="0,-149.3 49.61,-149.3 "/>
<text text-anchor="middle" x="24.8" y="-132.7" font-family="Courier New" font-size="14.00">66</text>
<polyline fill="none" stroke="black" points="0,-124.5 49.61,-124.5 "/>
<text text-anchor="middle" x="24.8" y="-107.9" font-family="Courier New" font-size="14.00">67</text>
<polyline fill="none" stroke="black" points="0,-99.7 49.61,-99.7 "/>
<text text-anchor="middle" x="24.8" y="-83.1" font-family="Courier New" font-size="14.00">68</text>
<polyline fill="none" stroke="black" points="0,-74.9 49.61,-74.9 "/>
<text text-anchor="middle" x="24.8" y="-58.3" font-family="Courier New" font-size="14.00">69</text>
<polyline fill="none" stroke="black" points="0,-50.1 49.61,-50.1 "/>
<text text-anchor="middle" x="24.8" y="-33.5" font-family="Courier New" font-size="14.00">70</text>
<polyline fill="none" stroke="black" points="0,-25.3 49.61,-25.3 "/>
<text text-anchor="middle" x="24.8" y="-8.7" font-family="Courier New" font-size="14.00">71</text>
<polyline fill="none" stroke="black" points="49.61,-0.5 49.61,-595.7 "/>
<text text-anchor="middle" x="615.09" y="-579.1" font-family="Courier New" font-size="14.00">type: &lt;inherited contract&gt;.variable (bytes)</text>
<polyline fill="none" stroke="black" points="49.61,-570.9 1180.58,-570.9 "/>
<text text-anchor="middle" x="183.32" y="-554.3" font-family="Courier New" font-size="14.00">unallocated (30)</text>
<polyline fill="none" stroke="black" points="317.03,-546.1 317.03,-570.9 "/>
<text text-anchor="middle" x="534.75" y="-554.3" font-family="Courier New" font-size="14.00">bool: Initializable.initializing (1)</text>
<polyline fill="none" stroke="black" points="752.48,-546.1 752.48,-570.9 "/>
<text text-anchor="middle" x="966.5" y="-554.3" font-family="Courier New" font-size="14.00">bool: Initializable.initialized (1)</text>
<polyline fill="none" stroke="black" points="49.61,-546.1 1180.58,-546.1 "/>
<text text-anchor="middle" x="614.73" y="-529.5" font-family="Courier New" font-size="14.00">uint256[50]: Initializable.______gap (1600)</text>
<polyline fill="none" stroke="black" points="49.61,-521.3 1180.58,-521.3 "/>
<text text-anchor="middle" x="614.94" y="-504.7" font-family="Courier New" font-size="14.00">mapping(address=&gt;Asset): VaultStorage.assets (32)</text>
<polyline fill="none" stroke="black" points="49.61,-496.5 1180.58,-496.5 "/>
<text text-anchor="middle" x="614.73" y="-479.9" font-family="Courier New" font-size="14.00">address[]: VaultStorage.allAssets (32)</text>
<polyline fill="none" stroke="black" points="49.61,-471.7 1180.58,-471.7 "/>
<text text-anchor="middle" x="614.84" y="-455.1" font-family="Courier New" font-size="14.00">mapping(address=&gt;Strategy): VaultStorage.strategies (32)</text>
<polyline fill="none" stroke="black" points="49.61,-446.9 1180.58,-446.9 "/>
<text text-anchor="middle" x="615.03" y="-430.3" font-family="Courier New" font-size="14.00">address[]: VaultStorage.allStrategies (32)</text>
<polyline fill="none" stroke="black" points="49.61,-422.1 1180.58,-422.1 "/>
<text text-anchor="middle" x="124.82" y="-405.5" font-family="Courier New" font-size="14.00">unallocated (10)</text>
<polyline fill="none" stroke="black" points="200.03,-397.3 200.03,-422.1 "/>
<text text-anchor="middle" x="359.25" y="-405.5" font-family="Courier New" font-size="14.00">bool: VaultStorage.capitalPaused (1)</text>
<polyline fill="none" stroke="black" points="518.48,-397.3 518.48,-422.1 "/>
<text text-anchor="middle" x="673.5" y="-405.5" font-family="Courier New" font-size="14.00">bool: VaultStorage.rebasePaused (1)</text>
<polyline fill="none" stroke="black" points="828.52,-397.3 828.52,-422.1 "/>
<text text-anchor="middle" x="1004.55" y="-405.5" font-family="Courier New" font-size="14.00">address: VaultStorage.priceProvider (20)</text>
<polyline fill="none" stroke="black" points="49.61,-397.3 1180.58,-397.3 "/>
<text text-anchor="middle" x="614.93" y="-380.7" font-family="Courier New" font-size="14.00">uint256: VaultStorage.redeemFeeBps (32)</text>
<polyline fill="none" stroke="black" points="49.61,-372.5 1180.58,-372.5 "/>
<text text-anchor="middle" x="614.73" y="-355.9" font-family="Courier New" font-size="14.00">uint256: VaultStorage.vaultBuffer (32)</text>
<polyline fill="none" stroke="black" points="49.61,-347.7 1180.58,-347.7 "/>
<text text-anchor="middle" x="614.74" y="-331.1" font-family="Courier New" font-size="14.00">uint256: VaultStorage.autoAllocateThreshold (32)</text>
<polyline fill="none" stroke="black" points="49.61,-322.9 1180.58,-322.9 "/>
<text text-anchor="middle" x="615.03" y="-306.3" font-family="Courier New" font-size="14.00">uint256: VaultStorage.rebaseThreshold (32)</text>
<polyline fill="none" stroke="black" points="49.61,-298.1 1180.58,-298.1 "/>
<text text-anchor="middle" x="614.72" y="-281.5" font-family="Courier New" font-size="14.00">OUSD: VaultStorage.oUSD (32)</text>
<polyline fill="none" stroke="black" points="49.61,-273.3 1180.58,-273.3 "/>
<text text-anchor="middle" x="252.32" y="-256.7" font-family="Courier New" font-size="14.00">unallocated (12)</text>
<polyline fill="none" stroke="black" points="455.03,-248.5 455.03,-273.3 "/>
<text text-anchor="middle" x="817.36" y="-256.7" font-family="Courier New" font-size="14.00">address: VaultStorage._deprecated_rebaseHooksAddr (20)</text>
<polyline fill="none" stroke="black" points="49.61,-248.5 1180.58,-248.5 "/>
<text text-anchor="middle" x="260.82" y="-231.9" font-family="Courier New" font-size="14.00">unallocated (12)</text>
<polyline fill="none" stroke="black" points="472.03,-223.7 472.03,-248.5 "/>
<text text-anchor="middle" x="826.06" y="-231.9" font-family="Courier New" font-size="14.00">address: VaultStorage._deprecated_uniswapAddr (20)</text>
<polyline fill="none" stroke="black" points="49.61,-223.7 1180.58,-223.7 "/>
<text text-anchor="middle" x="279.82" y="-207.1" font-family="Courier New" font-size="14.00">unallocated (12)</text>
<polyline fill="none" stroke="black" points="510.03,-198.9 510.03,-223.7 "/>
<text text-anchor="middle" x="845.26" y="-207.1" font-family="Courier New" font-size="14.00">address: VaultStorage.strategistAddr (20)</text>
<polyline fill="none" stroke="black" points="49.61,-198.9 1180.58,-198.9 "/>
<text text-anchor="middle" x="615.05" y="-182.3" font-family="Courier New" font-size="14.00">mapping(address=&gt;address): VaultStorage.assetDefaultStrategies (32)</text>
<polyline fill="none" stroke="black" points="49.61,-174.1 1180.58,-174.1 "/>
<text text-anchor="middle" x="614.63" y="-157.5" font-family="Courier New" font-size="14.00">uint256: VaultStorage.maxSupplyDiff (32)</text>
<polyline fill="none" stroke="black" points="49.61,-149.3 1180.58,-149.3 "/>
<text text-anchor="middle" x="279.82" y="-132.7" font-family="Courier New" font-size="14.00">unallocated (12)</text>
<polyline fill="none" stroke="black" points="510.03,-124.5 510.03,-149.3 "/>
<text text-anchor="middle" x="845.26" y="-132.7" font-family="Courier New" font-size="14.00">address: VaultStorage.trusteeAddress (20)</text>
<polyline fill="none" stroke="black" points="49.61,-124.5 1180.58,-124.5 "/>
<text text-anchor="middle" x="614.63" y="-107.9" font-family="Courier New" font-size="14.00">uint256: VaultStorage.trusteeFeeBps (32)</text>
<polyline fill="none" stroke="black" points="49.61,-99.7 1180.58,-99.7 "/>
<text text-anchor="middle" x="614.84" y="-83.1" font-family="Courier New" font-size="14.00">address[]: VaultStorage._deprecated_swapTokens (32)</text>
<polyline fill="none" stroke="black" points="49.61,-74.9 1180.58,-74.9 "/>
<text text-anchor="middle" x="275.32" y="-58.3" font-family="Courier New" font-size="14.00">unallocated (12)</text>
<polyline fill="none" stroke="black" points="501.03,-50.1 501.03,-74.9 "/>
<text text-anchor="middle" x="840.66" y="-58.3" font-family="Courier New" font-size="14.00">address: VaultStorage.ousdMetaStrategy (20)</text>
<polyline fill="none" stroke="black" points="49.61,-50.1 1180.58,-50.1 "/>
<text text-anchor="middle" x="614.64" y="-33.5" font-family="Courier New" font-size="14.00">int256: VaultStorage.netOusdMintedForStrategy (32)</text>
<polyline fill="none" stroke="black" points="49.61,-25.3 1180.58,-25.3 "/>
<text text-anchor="middle" x="614.75" y="-8.7" font-family="Courier New" font-size="14.00">uint256: VaultStorage.netOusdMintForStrategyThreshold (32)</text>
</g>
<!-- 1 -->
<g id="node2" class="node">
<title>1</title>
<polygon fill="#f2f2f2" stroke="black" points="1429.61,-666.7 1429.61,-840.3 1714.45,-840.3 1714.45,-666.7 1429.61,-666.7"/>
<text text-anchor="middle" x="1572.03" y="-823.7" font-family="Courier New" font-size="14.00">uint256[50]: ______gap &lt;&lt;Array&gt;&gt;</text>
<polyline fill="none" stroke="black" points="1429.61,-815.5 1714.45,-815.5 "/>
<text text-anchor="middle" x="1462.91" y="-798.9" font-family="Courier New" font-size="14.00">slot</text>
<polyline fill="none" stroke="black" points="1429.61,-790.7 1496.22,-790.7 "/>
<text text-anchor="middle" x="1462.91" y="-774.1" font-family="Courier New" font-size="14.00">1</text>
<polyline fill="none" stroke="black" points="1429.61,-765.9 1496.22,-765.9 "/>
<text text-anchor="middle" x="1462.91" y="-749.3" font-family="Courier New" font-size="14.00">2</text>
<polyline fill="none" stroke="black" points="1429.61,-741.1 1496.22,-741.1 "/>
<text text-anchor="middle" x="1462.91" y="-724.5" font-family="Courier New" font-size="14.00">3&#45;48</text>
<polyline fill="none" stroke="black" points="1429.61,-716.3 1496.22,-716.3 "/>
<text text-anchor="middle" x="1462.91" y="-699.7" font-family="Courier New" font-size="14.00">49</text>
<polyline fill="none" stroke="black" points="1429.61,-691.5 1496.22,-691.5 "/>
<text text-anchor="middle" x="1462.91" y="-674.9" font-family="Courier New" font-size="14.00">50</text>
<polyline fill="none" stroke="black" points="1496.22,-666.7 1496.22,-815.5 "/>
<text text-anchor="middle" x="1605.13" y="-798.9" font-family="Courier New" font-size="14.00">type: variable (bytes)</text>
<polyline fill="none" stroke="black" points="1496.22,-790.7 1714.05,-790.7 "/>
<text text-anchor="middle" x="1605.12" y="-774.1" font-family="Courier New" font-size="14.00">uint256 (32)</text>
<polyline fill="none" stroke="black" points="1496.22,-765.9 1714.05,-765.9 "/>
<text text-anchor="middle" x="1605.12" y="-749.3" font-family="Courier New" font-size="14.00">uint256 (32)</text>
<polyline fill="none" stroke="black" points="1496.22,-741.1 1714.05,-741.1 "/>
<text text-anchor="middle" x="1604.92" y="-724.5" font-family="Courier New" font-size="14.00">&#45;&#45;&#45;&#45; (1472)</text>
<polyline fill="none" stroke="black" points="1496.22,-716.3 1714.05,-716.3 "/>
<text text-anchor="middle" x="1605.12" y="-699.7" font-family="Courier New" font-size="14.00">uint256 (32)</text>
<polyline fill="none" stroke="black" points="1496.22,-691.5 1714.05,-691.5 "/>
<text text-anchor="middle" x="1605.12" y="-674.9" font-family="Courier New" font-size="14.00">uint256 (32)</text>
</g>
<!-- 7&#45;&gt;1 -->
<g id="edge1" class="edge">
<title>7:8&#45;&gt;1</title>
<path fill="none" stroke="black" d="M1180.58,-533.5C1237.97,-533.5 1175.64,-617.29 1216.58,-657.5 1270.12,-710.08 1349.36,-734.61 1419.35,-745.76"/>
<polygon fill="black" stroke="black" points="1419.2,-749.27 1429.61,-747.31 1420.24,-742.35 1419.2,-749.27"/>
</g>
<!-- 2 -->
<g id="node3" class="node">
<title>2</title>
<polygon fill="#f2f2f2" stroke="black" points="1216.58,-548.9 1216.58,-648.1 1927.48,-648.1 1927.48,-548.9 1216.58,-548.9"/>
<text text-anchor="middle" x="1572.03" y="-631.5" font-family="Courier New" font-size="14.00">Asset &lt;&lt;Struct&gt;&gt;</text>
<polyline fill="none" stroke="black" points="1216.58,-623.3 1927.48,-623.3 "/>
<text text-anchor="middle" x="1249.78" y="-606.7" font-family="Courier New" font-size="14.00">offset</text>
<polyline fill="none" stroke="black" points="1216.58,-598.5 1282.99,-598.5 "/>
<text text-anchor="middle" x="1249.78" y="-581.9" font-family="Courier New" font-size="14.00">0</text>
<polyline fill="none" stroke="black" points="1216.58,-573.7 1282.99,-573.7 "/>
<text text-anchor="middle" x="1249.78" y="-557.1" font-family="Courier New" font-size="14.00">1</text>
<polyline fill="none" stroke="black" points="1282.99,-548.9 1282.99,-623.3 "/>
<text text-anchor="middle" x="1605.24" y="-606.7" font-family="Courier New" font-size="14.00">type: variable (bytes)</text>
<polyline fill="none" stroke="black" points="1282.99,-598.5 1927.48,-598.5 "/>
<text text-anchor="middle" x="1358.2" y="-581.9" font-family="Courier New" font-size="14.00">unallocated (30)</text>
<polyline fill="none" stroke="black" points="1433.41,-573.7 1433.41,-598.5 "/>
<text text-anchor="middle" x="1584.23" y="-581.9" font-family="Courier New" font-size="14.00">UnitConversion: unitConversion (1)</text>
<polyline fill="none" stroke="black" points="1735.06,-573.7 1735.06,-598.5 "/>
<text text-anchor="middle" x="1831.27" y="-581.9" font-family="Courier New" font-size="14.00">bool: isSupported (1)</text>
<polyline fill="none" stroke="black" points="1282.99,-573.7 1927.48,-573.7 "/>
<text text-anchor="middle" x="1604.9" y="-557.1" font-family="Courier New" font-size="14.00">uint256: decimals (32)</text>
</g>
<!-- 7&#45;&gt;2 -->
<g id="edge2" class="edge">
<title>7:12&#45;&gt;2</title>
<path fill="none" stroke="black" d="M1180.58,-508.5C1201.69,-508.5 1197.46,-530.55 1216.58,-539.5 1220.55,-541.36 1224.57,-543.16 1228.64,-544.91"/>
<polygon fill="black" stroke="black" points="1227.62,-548.28 1238.2,-548.88 1230.31,-541.81 1227.62,-548.28"/>
</g>
<!-- 3 -->
<g id="node4" class="node">
<title>3</title>
<polygon fill="#f2f2f2" stroke="black" points="1286.79,-438.9 1286.79,-530.1 1857.28,-530.1 1857.28,-438.9 1286.79,-438.9"/>
<text text-anchor="middle" x="1572.03" y="-513.5" font-family="Courier New" font-size="14.00">address[]: allAssets &lt;&lt;Array&gt;&gt;</text>
<text text-anchor="middle" x="1572.03" y="-496.7" font-family="Courier New" font-size="14.00">0x46bddb1178e94d7f2892ff5f366840eb658911794f2c3a44c450aa2c505186c1</text>
<polyline fill="none" stroke="black" points="1286.79,-488.5 1857.28,-488.5 "/>
<text text-anchor="middle" x="1378.99" y="-471.9" font-family="Courier New" font-size="14.00">offset</text>
<polyline fill="none" stroke="black" points="1286.79,-463.7 1471.19,-463.7 "/>
<text text-anchor="middle" x="1378.99" y="-447.1" font-family="Courier New" font-size="14.00">0</text>
<polyline fill="none" stroke="black" points="1471.19,-438.9 1471.19,-488.5 "/>
<text text-anchor="middle" x="1663.81" y="-471.9" font-family="Courier New" font-size="14.00">type: variable (bytes)</text>
<polyline fill="none" stroke="black" points="1471.19,-463.7 1856.43,-463.7 "/>
<text text-anchor="middle" x="1575.91" y="-447.1" font-family="Courier New" font-size="14.00">unallocated (12)</text>
<polyline fill="none" stroke="black" points="1680.62,-438.9 1680.62,-463.7 "/>
<text text-anchor="middle" x="1768.52" y="-447.1" font-family="Courier New" font-size="14.00">address (20)</text>
</g>
<!-- 7&#45;&gt;3 -->
<g id="edge3" class="edge">
<title>7:14&#45;&gt;3</title>
<path fill="none" stroke="black" d="M1180.58,-484.5C1211.68,-484.5 1244.17,-484.5 1276.56,-484.5"/>
<polygon fill="black" stroke="black" points="1276.61,-488 1286.61,-484.5 1276.61,-481 1276.61,-488"/>
</g>
<!-- 4 -->
<g id="node5" class="node">
<title>4</title>
<polygon fill="#f2f2f2" stroke="black" points="1367.4,-320.9 1367.4,-420.1 1776.66,-420.1 1776.66,-320.9 1367.4,-320.9"/>
<text text-anchor="middle" x="1572.03" y="-403.5" font-family="Courier New" font-size="14.00">Strategy &lt;&lt;Struct&gt;&gt;</text>
<polyline fill="none" stroke="black" points="1367.4,-395.3 1776.66,-395.3 "/>
<text text-anchor="middle" x="1400.61" y="-378.7" font-family="Courier New" font-size="14.00">offset</text>
<polyline fill="none" stroke="black" points="1367.4,-370.5 1433.81,-370.5 "/>
<text text-anchor="middle" x="1400.61" y="-353.9" font-family="Courier New" font-size="14.00">0</text>
<polyline fill="none" stroke="black" points="1367.4,-345.7 1433.81,-345.7 "/>
<text text-anchor="middle" x="1400.61" y="-329.1" font-family="Courier New" font-size="14.00">1</text>
<polyline fill="none" stroke="black" points="1433.81,-320.9 1433.81,-395.3 "/>
<text text-anchor="middle" x="1605.24" y="-378.7" font-family="Courier New" font-size="14.00">type: variable (bytes)</text>
<polyline fill="none" stroke="black" points="1433.81,-370.5 1776.66,-370.5 "/>
<text text-anchor="middle" x="1509.02" y="-353.9" font-family="Courier New" font-size="14.00">unallocated (31)</text>
<polyline fill="none" stroke="black" points="1584.23,-345.7 1584.23,-370.5 "/>
<text text-anchor="middle" x="1680.45" y="-353.9" font-family="Courier New" font-size="14.00">bool: isSupported (1)</text>
<polyline fill="none" stroke="black" points="1433.81,-345.7 1776.66,-345.7 "/>
<text text-anchor="middle" x="1604.83" y="-329.1" font-family="Courier New" font-size="14.00">uint256: _deprecated (32)</text>
</g>
<!-- 7&#45;&gt;4 -->
<g id="edge4" class="edge">
<title>7:17&#45;&gt;4</title>
<path fill="none" stroke="black" d="M1180.58,-459.5C1201.41,-459.5 1197.65,-438.18 1216.58,-429.5 1260.22,-409.5 1309.64,-396.19 1357.44,-387.36"/>
<polygon fill="black" stroke="black" points="1358.07,-390.8 1367.29,-385.59 1356.83,-383.91 1358.07,-390.8"/>
</g>
<!-- 5 -->
<g id="node6" class="node">
<title>5</title>
<polygon fill="#f2f2f2" stroke="black" points="1286.79,-210.9 1286.79,-302.1 1857.28,-302.1 1857.28,-210.9 1286.79,-210.9"/>
<text text-anchor="middle" x="1572.03" y="-285.5" font-family="Courier New" font-size="14.00">address[]: allStrategies &lt;&lt;Array&gt;&gt;</text>
<text text-anchor="middle" x="1572.03" y="-268.7" font-family="Courier New" font-size="14.00">0x4a11f94e20a93c79f6ec743a1954ec4fc2c08429ae2122118bf234b2185c81b8</text>
<polyline fill="none" stroke="black" points="1286.79,-260.5 1857.28,-260.5 "/>
<text text-anchor="middle" x="1378.99" y="-243.9" font-family="Courier New" font-size="14.00">offset</text>
<polyline fill="none" stroke="black" points="1286.79,-235.7 1471.19,-235.7 "/>
<text text-anchor="middle" x="1378.99" y="-219.1" font-family="Courier New" font-size="14.00">0</text>
<polyline fill="none" stroke="black" points="1471.19,-210.9 1471.19,-260.5 "/>
<text text-anchor="middle" x="1663.81" y="-243.9" font-family="Courier New" font-size="14.00">type: variable (bytes)</text>
<polyline fill="none" stroke="black" points="1471.19,-235.7 1856.43,-235.7 "/>
<text text-anchor="middle" x="1575.91" y="-219.1" font-family="Courier New" font-size="14.00">unallocated (12)</text>
<polyline fill="none" stroke="black" points="1680.62,-210.9 1680.62,-235.7 "/>
<text text-anchor="middle" x="1768.52" y="-219.1" font-family="Courier New" font-size="14.00">address (20)</text>
</g>
<!-- 7&#45;&gt;5 -->
<g id="edge5" class="edge">
<title>7:19&#45;&gt;5</title>
<path fill="none" stroke="black" d="M1180.58,-434.5C1237.54,-434.5 1173.76,-349.06 1216.58,-311.5 1234.6,-295.69 1255.22,-283.39 1277.25,-273.91"/>
<polygon fill="black" stroke="black" points="1278.84,-277.04 1286.77,-270.01 1276.19,-270.56 1278.84,-277.04"/>
</g>
<!-- 6 -->
<g id="node7" class="node">
<title>6</title>
<polygon fill="#f2f2f2" stroke="black" points="1286.79,-41.9 1286.79,-133.1 1857.28,-133.1 1857.28,-41.9 1286.79,-41.9"/>
<text text-anchor="middle" x="1572.03" y="-116.5" font-family="Courier New" font-size="14.00">address[]: _deprecated_swapTokens &lt;&lt;Array&gt;&gt;</text>
<text text-anchor="middle" x="1572.03" y="-99.7" font-family="Courier New" font-size="14.00">0x9b22d3d61959b4d3528b1d8ba932c96fbe302b36a1aad1d95cab54f9e0a135ea</text>
<polyline fill="none" stroke="black" points="1286.79,-91.5 1857.28,-91.5 "/>
<text text-anchor="middle" x="1378.99" y="-74.9" font-family="Courier New" font-size="14.00">offset</text>
<polyline fill="none" stroke="black" points="1286.79,-66.7 1471.19,-66.7 "/>
<text text-anchor="middle" x="1378.99" y="-50.1" font-family="Courier New" font-size="14.00">0</text>
<polyline fill="none" stroke="black" points="1471.19,-41.9 1471.19,-91.5 "/>
<text text-anchor="middle" x="1663.81" y="-74.9" font-family="Courier New" font-size="14.00">type: variable (bytes)</text>
<polyline fill="none" stroke="black" points="1471.19,-66.7 1856.43,-66.7 "/>
<text text-anchor="middle" x="1575.91" y="-50.1" font-family="Courier New" font-size="14.00">unallocated (12)</text>
<polyline fill="none" stroke="black" points="1680.62,-41.9 1680.62,-66.7 "/>
<text text-anchor="middle" x="1768.52" y="-50.1" font-family="Courier New" font-size="14.00">address (20)</text>
</g>
<!-- 7&#45;&gt;6 -->
<g id="edge6" class="edge">
<title>7:36&#45;&gt;6</title>
<path fill="none" stroke="black" d="M1180.58,-87.5C1211.68,-87.5 1244.17,-87.5 1276.56,-87.5"/>
<polygon fill="black" stroke="black" points="1276.61,-91 1286.61,-87.5 1276.61,-84 1276.61,-91"/>
</g>
</g>
</svg>
