<?xml version="1.0" encoding="UTF-8" standalone="no"?>
<!DOCTYPE svg PUBLIC "-//W3C//DTD SVG 1.1//EN"
 "http://www.w3.org/Graphics/SVG/1.1/DTD/svg11.dtd">
<!-- Generated by graphviz version 5.0.0 (20220707.1540)
 -->
<!-- Title: StorageDiagram Pages: 1 -->
<svg width="2446pt" height="859pt"
 viewBox="0.00 0.00 2446.36 859.00" xmlns="http://www.w3.org/2000/svg" xmlns:xlink="http://www.w3.org/1999/xlink">
<g id="graph0" class="graph" transform="scale(1 1) rotate(0) translate(4 855)">
<title>StorageDiagram</title>
<polygon fill="white" stroke="transparent" points="-4,4 -4,-855 2442.36,-855 2442.36,4 -4,4"/>
<!-- 7 -->
<g id="node1" class="node">
<title>7</title>
<polygon fill="#f2f2f2" stroke="black" points="0,-109.1 0,-803.5 1197.38,-803.5 1197.38,-109.1 0,-109.1"/>
<text text-anchor="middle" x="598.69" y="-786.9" font-family="Courier New" font-size="14.00">OETHVaultCore &lt;&lt;Contract&gt;&gt;</text>
<polyline fill="none" stroke="black" points="0,-778.7 1197.38,-778.7 "/>
<text text-anchor="middle" x="33.2" y="-762.1" font-family="Courier New" font-size="14.00">slot</text>
<polyline fill="none" stroke="black" points="0,-753.9 66.41,-753.9 "/>
<text text-anchor="middle" x="33.2" y="-737.3" font-family="Courier New" font-size="14.00">0</text>
<polyline fill="none" stroke="black" points="0,-729.1 66.41,-729.1 "/>
<text text-anchor="middle" x="33.2" y="-712.5" font-family="Courier New" font-size="14.00">1&#45;50</text>
<polyline fill="none" stroke="black" points="0,-704.3 66.41,-704.3 "/>
<text text-anchor="middle" x="33.2" y="-687.7" font-family="Courier New" font-size="14.00">51</text>
<polyline fill="none" stroke="black" points="0,-679.5 66.41,-679.5 "/>
<text text-anchor="middle" x="33.2" y="-662.9" font-family="Courier New" font-size="14.00">52</text>
<polyline fill="none" stroke="black" points="0,-654.7 66.41,-654.7 "/>
<text text-anchor="middle" x="33.2" y="-638.1" font-family="Courier New" font-size="14.00">53</text>
<polyline fill="none" stroke="black" points="0,-629.9 66.41,-629.9 "/>
<text text-anchor="middle" x="33.2" y="-613.3" font-family="Courier New" font-size="14.00">54</text>
<polyline fill="none" stroke="black" points="0,-605.1 66.41,-605.1 "/>
<text text-anchor="middle" x="33.2" y="-588.5" font-family="Courier New" font-size="14.00">55</text>
<polyline fill="none" stroke="black" points="0,-580.3 66.41,-580.3 "/>
<text text-anchor="middle" x="33.2" y="-563.7" font-family="Courier New" font-size="14.00">56</text>
<polyline fill="none" stroke="black" points="0,-555.5 66.41,-555.5 "/>
<text text-anchor="middle" x="33.2" y="-538.9" font-family="Courier New" font-size="14.00">57</text>
<polyline fill="none" stroke="black" points="0,-530.7 66.41,-530.7 "/>
<text text-anchor="middle" x="33.2" y="-514.1" font-family="Courier New" font-size="14.00">58</text>
<polyline fill="none" stroke="black" points="0,-505.9 66.41,-505.9 "/>
<text text-anchor="middle" x="33.2" y="-489.3" font-family="Courier New" font-size="14.00">59</text>
<polyline fill="none" stroke="black" points="0,-481.1 66.41,-481.1 "/>
<text text-anchor="middle" x="33.2" y="-464.5" font-family="Courier New" font-size="14.00">60</text>
<polyline fill="none" stroke="black" points="0,-456.3 66.41,-456.3 "/>
<text text-anchor="middle" x="33.2" y="-439.7" font-family="Courier New" font-size="14.00">61</text>
<polyline fill="none" stroke="black" points="0,-431.5 66.41,-431.5 "/>
<text text-anchor="middle" x="33.2" y="-414.9" font-family="Courier New" font-size="14.00">62</text>
<polyline fill="none" stroke="black" points="0,-406.7 66.41,-406.7 "/>
<text text-anchor="middle" x="33.2" y="-390.1" font-family="Courier New" font-size="14.00">63</text>
<polyline fill="none" stroke="black" points="0,-381.9 66.41,-381.9 "/>
<text text-anchor="middle" x="33.2" y="-365.3" font-family="Courier New" font-size="14.00">64</text>
<polyline fill="none" stroke="black" points="0,-357.1 66.41,-357.1 "/>
<text text-anchor="middle" x="33.2" y="-340.5" font-family="Courier New" font-size="14.00">65</text>
<polyline fill="none" stroke="black" points="0,-332.3 66.41,-332.3 "/>
<text text-anchor="middle" x="33.2" y="-315.7" font-family="Courier New" font-size="14.00">66</text>
<polyline fill="none" stroke="black" points="0,-307.5 66.41,-307.5 "/>
<text text-anchor="middle" x="33.2" y="-290.9" font-family="Courier New" font-size="14.00">67</text>
<polyline fill="none" stroke="black" points="0,-282.7 66.41,-282.7 "/>
<text text-anchor="middle" x="33.2" y="-266.1" font-family="Courier New" font-size="14.00">68</text>
<polyline fill="none" stroke="black" points="0,-257.9 66.41,-257.9 "/>
<text text-anchor="middle" x="33.2" y="-241.3" font-family="Courier New" font-size="14.00">69</text>
<polyline fill="none" stroke="black" points="0,-233.1 66.41,-233.1 "/>
<text text-anchor="middle" x="33.2" y="-216.5" font-family="Courier New" font-size="14.00">70</text>
<polyline fill="none" stroke="black" points="0,-208.3 66.41,-208.3 "/>
<text text-anchor="middle" x="33.2" y="-191.7" font-family="Courier New" font-size="14.00">71</text>
<polyline fill="none" stroke="black" points="0,-183.5 66.41,-183.5 "/>
<text text-anchor="middle" x="33.2" y="-166.9" font-family="Courier New" font-size="14.00">72</text>
<polyline fill="none" stroke="black" points="0,-158.7 66.41,-158.7 "/>
<text text-anchor="middle" x="33.2" y="-142.1" font-family="Courier New" font-size="14.00">73&#45;122</text>
<polyline fill="none" stroke="black" points="0,-133.9 66.41,-133.9 "/>
<text text-anchor="middle" x="33.2" y="-117.3" font-family="Courier New" font-size="14.00">123</text>
<polyline fill="none" stroke="black" points="66.41,-109.1 66.41,-778.7 "/>
<text text-anchor="middle" x="631.9" y="-762.1" font-family="Courier New" font-size="14.00">type: &lt;inherited contract&gt;.variable (bytes)</text>
<polyline fill="none" stroke="black" points="66.41,-753.9 1197.38,-753.9 "/>
<text text-anchor="middle" x="200.12" y="-737.3" font-family="Courier New" font-size="14.00">unallocated (30)</text>
<polyline fill="none" stroke="black" points="333.83,-729.1 333.83,-753.9 "/>
<text text-anchor="middle" x="551.55" y="-737.3" font-family="Courier New" font-size="14.00">bool: Initializable.initializing (1)</text>
<polyline fill="none" stroke="black" points="769.28,-729.1 769.28,-753.9 "/>
<text text-anchor="middle" x="983.3" y="-737.3" font-family="Courier New" font-size="14.00">bool: Initializable.initialized (1)</text>
<polyline fill="none" stroke="black" points="66.41,-729.1 1197.38,-729.1 "/>
<text text-anchor="middle" x="631.54" y="-712.5" font-family="Courier New" font-size="14.00">uint256[50]: Initializable.______gap (1600)</text>
<polyline fill="none" stroke="black" points="66.41,-704.3 1197.38,-704.3 "/>
<text text-anchor="middle" x="631.74" y="-687.7" font-family="Courier New" font-size="14.00">mapping(address=&gt;Asset): VaultStorage.assets (32)</text>
<polyline fill="none" stroke="black" points="66.41,-679.5 1197.38,-679.5 "/>
<text text-anchor="middle" x="631.53" y="-662.9" font-family="Courier New" font-size="14.00">address[]: VaultStorage.allAssets (32)</text>
<polyline fill="none" stroke="black" points="66.41,-654.7 1197.38,-654.7 "/>
<text text-anchor="middle" x="631.65" y="-638.1" font-family="Courier New" font-size="14.00">mapping(address=&gt;Strategy): VaultStorage.strategies (32)</text>
<polyline fill="none" stroke="black" points="66.41,-629.9 1197.38,-629.9 "/>
<text text-anchor="middle" x="631.84" y="-613.3" font-family="Courier New" font-size="14.00">address[]: VaultStorage.allStrategies (32)</text>
<polyline fill="none" stroke="black" points="66.41,-605.1 1197.38,-605.1 "/>
<text text-anchor="middle" x="141.62" y="-588.5" font-family="Courier New" font-size="14.00">unallocated (10)</text>
<polyline fill="none" stroke="black" points="216.83,-580.3 216.83,-605.1 "/>
<text text-anchor="middle" x="376.05" y="-588.5" font-family="Courier New" font-size="14.00">bool: VaultStorage.capitalPaused (1)</text>
<polyline fill="none" stroke="black" points="535.28,-580.3 535.28,-605.1 "/>
<text text-anchor="middle" x="690.3" y="-588.5" font-family="Courier New" font-size="14.00">bool: VaultStorage.rebasePaused (1)</text>
<polyline fill="none" stroke="black" points="845.33,-580.3 845.33,-605.1 "/>
<text text-anchor="middle" x="1021.35" y="-588.5" font-family="Courier New" font-size="14.00">address: VaultStorage.priceProvider (20)</text>
<polyline fill="none" stroke="black" points="66.41,-580.3 1197.38,-580.3 "/>
<text text-anchor="middle" x="631.73" y="-563.7" font-family="Courier New" font-size="14.00">uint256: VaultStorage.redeemFeeBps (32)</text>
<polyline fill="none" stroke="black" points="66.41,-555.5 1197.38,-555.5 "/>
<text text-anchor="middle" x="631.53" y="-538.9" font-family="Courier New" font-size="14.00">uint256: VaultStorage.vaultBuffer (32)</text>
<polyline fill="none" stroke="black" points="66.41,-530.7 1197.38,-530.7 "/>
<text text-anchor="middle" x="631.54" y="-514.1" font-family="Courier New" font-size="14.00">uint256: VaultStorage.autoAllocateThreshold (32)</text>
<polyline fill="none" stroke="black" points="66.41,-505.9 1197.38,-505.9 "/>
<text text-anchor="middle" x="631.84" y="-489.3" font-family="Courier New" font-size="14.00">uint256: VaultStorage.rebaseThreshold (32)</text>
<polyline fill="none" stroke="black" points="66.41,-481.1 1197.38,-481.1 "/>
<text text-anchor="middle" x="323.62" y="-464.5" font-family="Courier New" font-size="14.00">unallocated (12)</text>
<polyline fill="none" stroke="black" points="580.83,-456.3 580.83,-481.1 "/>
<text text-anchor="middle" x="888.95" y="-464.5" font-family="Courier New" font-size="14.00">OUSD: VaultStorage.oUSD (20)</text>
<polyline fill="none" stroke="black" points="66.41,-456.3 1197.38,-456.3 "/>
<text text-anchor="middle" x="269.12" y="-439.7" font-family="Courier New" font-size="14.00">unallocated (12)</text>
<polyline fill="none" stroke="black" points="471.83,-431.5 471.83,-456.3 "/>
<text text-anchor="middle" x="834.17" y="-439.7" font-family="Courier New" font-size="14.00">address: VaultStorage._deprecated_rebaseHooksAddr (20)</text>
<polyline fill="none" stroke="black" points="66.41,-431.5 1197.38,-431.5 "/>
<text text-anchor="middle" x="277.62" y="-414.9" font-family="Courier New" font-size="14.00">unallocated (12)</text>
<polyline fill="none" stroke="black" points="488.83,-406.7 488.83,-431.5 "/>
<text text-anchor="middle" x="842.86" y="-414.9" font-family="Courier New" font-size="14.00">address: VaultStorage._deprecated_uniswapAddr (20)</text>
<polyline fill="none" stroke="black" points="66.41,-406.7 1197.38,-406.7 "/>
<text text-anchor="middle" x="296.62" y="-390.1" font-family="Courier New" font-size="14.00">unallocated (12)</text>
<polyline fill="none" stroke="black" points="526.83,-381.9 526.83,-406.7 "/>
<text text-anchor="middle" x="862.06" y="-390.1" font-family="Courier New" font-size="14.00">address: VaultStorage.strategistAddr (20)</text>
<polyline fill="none" stroke="black" points="66.41,-381.9 1197.38,-381.9 "/>
<text text-anchor="middle" x="631.85" y="-365.3" font-family="Courier New" font-size="14.00">mapping(address=&gt;address): VaultStorage.assetDefaultStrategies (32)</text>
<polyline fill="none" stroke="black" points="66.41,-357.1 1197.38,-357.1 "/>
<text text-anchor="middle" x="631.44" y="-340.5" font-family="Courier New" font-size="14.00">uint256: VaultStorage.maxSupplyDiff (32)</text>
<polyline fill="none" stroke="black" points="66.41,-332.3 1197.38,-332.3 "/>
<text text-anchor="middle" x="296.62" y="-315.7" font-family="Courier New" font-size="14.00">unallocated (12)</text>
<polyline fill="none" stroke="black" points="526.83,-307.5 526.83,-332.3 "/>
<text text-anchor="middle" x="862.06" y="-315.7" font-family="Courier New" font-size="14.00">address: VaultStorage.trusteeAddress (20)</text>
<polyline fill="none" stroke="black" points="66.41,-307.5 1197.38,-307.5 "/>
<text text-anchor="middle" x="631.44" y="-290.9" font-family="Courier New" font-size="14.00">uint256: VaultStorage.trusteeFeeBps (32)</text>
<polyline fill="none" stroke="black" points="66.41,-282.7 1197.38,-282.7 "/>
<text text-anchor="middle" x="631.64" y="-266.1" font-family="Courier New" font-size="14.00">address[]: VaultStorage._deprecated_swapTokens (32)</text>
<polyline fill="none" stroke="black" points="66.41,-257.9 1197.38,-257.9 "/>
<text text-anchor="middle" x="292.12" y="-241.3" font-family="Courier New" font-size="14.00">unallocated (12)</text>
<polyline fill="none" stroke="black" points="517.83,-233.1 517.83,-257.9 "/>
<text text-anchor="middle" x="857.46" y="-241.3" font-family="Courier New" font-size="14.00">address: VaultStorage.ousdMetaStrategy (20)</text>
<polyline fill="none" stroke="black" points="66.41,-233.1 1197.38,-233.1 "/>
<text text-anchor="middle" x="631.44" y="-216.5" font-family="Courier New" font-size="14.00">int256: VaultStorage.netOusdMintedForStrategy (32)</text>
<polyline fill="none" stroke="black" points="66.41,-208.3 1197.38,-208.3 "/>
<text text-anchor="middle" x="631.55" y="-191.7" font-family="Courier New" font-size="14.00">uint256: VaultStorage.netOusdMintForStrategyThreshold (32)</text>
<polyline fill="none" stroke="black" points="66.41,-183.5 1197.38,-183.5 "/>
<text text-anchor="middle" x="631.44" y="-166.9" font-family="Courier New" font-size="14.00">SwapConfig: VaultStorage.swapConfig (32)</text>
<polyline fill="none" stroke="black" points="66.41,-158.7 1197.38,-158.7 "/>
<text text-anchor="middle" x="631.53" y="-142.1" font-family="Courier New" font-size="14.00">uint256[50]: VaultStorage.__gap (1600)</text>
<polyline fill="none" stroke="black" points="66.41,-133.9 1197.38,-133.9 "/>
<text text-anchor="middle" x="631.53" y="-117.3" font-family="Courier New" font-size="14.00">uint256: wethAssetIndex (32)</text>
</g>
<!-- 1 -->
<g id="node2" class="node">
<title>1</title>
<polygon fill="#f2f2f2" stroke="black" points="1233.38,-776.1 1233.38,-850.5 2438.36,-850.5 2438.36,-776.1 1233.38,-776.1"/>
<text text-anchor="middle" x="1835.87" y="-833.9" font-family="Courier New" font-size="14.00">Asset &lt;&lt;Struct&gt;&gt;</text>
<polyline fill="none" stroke="black" points="1233.38,-825.7 2438.36,-825.7 "/>
<text text-anchor="middle" x="1266.59" y="-809.1" font-family="Courier New" font-size="14.00">offset</text>
<polyline fill="none" stroke="black" points="1233.38,-800.9 1299.79,-800.9 "/>
<text text-anchor="middle" x="1266.59" y="-784.3" font-family="Courier New" font-size="14.00">0</text>
<polyline fill="none" stroke="black" points="1299.79,-776.1 1299.79,-825.7 "/>
<text text-anchor="middle" x="1869.08" y="-809.1" font-family="Courier New" font-size="14.00">type: variable (bytes)</text>
<polyline fill="none" stroke="black" points="1299.79,-800.9 2438.36,-800.9 "/>
<text text-anchor="middle" x="1375" y="-784.3" font-family="Courier New" font-size="14.00">unallocated (27)</text>
<polyline fill="none" stroke="black" points="1450.21,-776.1 1450.21,-800.9 "/>
<text text-anchor="middle" x="1609.44" y="-784.3" font-family="Courier New" font-size="14.00">uint16: allowedOracleSlippageBps (2)</text>
<polyline fill="none" stroke="black" points="1768.66,-776.1 1768.66,-800.9 "/>
<text text-anchor="middle" x="1856.47" y="-784.3" font-family="Courier New" font-size="14.00">uint8: decimals (1)</text>
<polyline fill="none" stroke="black" points="1944.29,-776.1 1944.29,-800.9 "/>
<text text-anchor="middle" x="2095.11" y="-784.3" font-family="Courier New" font-size="14.00">UnitConversion: unitConversion (1)</text>
<polyline fill="none" stroke="black" points="2245.93,-776.1 2245.93,-800.9 "/>
<text text-anchor="middle" x="2342.15" y="-784.3" font-family="Courier New" font-size="14.00">bool: isSupported (1)</text>
</g>
<!-- 7&#45;&gt;1 -->
<g id="edge1" class="edge">
<title>7:8&#45;&gt;1</title>
<path fill="none" stroke="black" d="M1197.38,-692.3C1233.96,-692.3 1203.15,-745.71 1233.38,-766.3 1235.56,-767.78 1237.75,-769.24 1239.96,-770.68"/>
<polygon fill="black" stroke="black" points="1238.22,-773.72 1248.55,-776.09 1241.96,-767.8 1238.22,-773.72"/>
</g>
<!-- 2 -->
<g id="node3" class="node">
<title>2</title>
<polygon fill="#f2f2f2" stroke="black" points="1550.63,-665.7 1550.63,-756.9 2121.12,-756.9 2121.12,-665.7 1550.63,-665.7"/>
<text text-anchor="middle" x="1835.87" y="-740.3" font-family="Courier New" font-size="14.00">address[]: allAssets &lt;&lt;Array&gt;&gt;</text>
<text text-anchor="middle" x="1835.87" y="-723.5" font-family="Courier New" font-size="14.00">0x46bddb1178e94d7f2892ff5f366840eb658911794f2c3a44c450aa2c505186c1</text>
<polyline fill="none" stroke="black" points="1550.63,-715.3 2121.12,-715.3 "/>
<text text-anchor="middle" x="1642.83" y="-698.7" font-family="Courier New" font-size="14.00">offset</text>
<polyline fill="none" stroke="black" points="1550.63,-690.5 1735.04,-690.5 "/>
<text text-anchor="middle" x="1642.83" y="-673.9" font-family="Courier New" font-size="14.00">0</text>
<polyline fill="none" stroke="black" points="1735.04,-665.7 1735.04,-715.3 "/>
<text text-anchor="middle" x="1927.65" y="-698.7" font-family="Courier New" font-size="14.00">type: variable (bytes)</text>
<polyline fill="none" stroke="black" points="1735.04,-690.5 2120.27,-690.5 "/>
<text text-anchor="middle" x="1839.75" y="-673.9" font-family="Courier New" font-size="14.00">unallocated (12)</text>
<polyline fill="none" stroke="black" points="1944.46,-665.7 1944.46,-690.5 "/>
<text text-anchor="middle" x="2032.37" y="-673.9" font-family="Courier New" font-size="14.00">address (20)</text>
</g>
<!-- 7&#45;&gt;2 -->
<g id="edge2" class="edge">
<title>7:10&#45;&gt;2</title>
<path fill="none" stroke="black" d="M1197.38,-667.3C1309.53,-667.3 1432.52,-674.16 1540.3,-682.47"/>
<polygon fill="black" stroke="black" points="1540.11,-685.96 1550.35,-683.25 1540.65,-678.98 1540.11,-685.96"/>
</g>
<!-- 3 -->
<g id="node4" class="node">
<title>3</title>
<polygon fill="#f2f2f2" stroke="black" points="1631.24,-547.7 1631.24,-646.9 2040.5,-646.9 2040.5,-547.7 1631.24,-547.7"/>
<text text-anchor="middle" x="1835.87" y="-630.3" font-family="Courier New" font-size="14.00">Strategy &lt;&lt;Struct&gt;&gt;</text>
<polyline fill="none" stroke="black" points="1631.24,-622.1 2040.5,-622.1 "/>
<text text-anchor="middle" x="1664.45" y="-605.5" font-family="Courier New" font-size="14.00">offset</text>
<polyline fill="none" stroke="black" points="1631.24,-597.3 1697.65,-597.3 "/>
<text text-anchor="middle" x="1664.45" y="-580.7" font-family="Courier New" font-size="14.00">0</text>
<polyline fill="none" stroke="black" points="1631.24,-572.5 1697.65,-572.5 "/>
<text text-anchor="middle" x="1664.45" y="-555.9" font-family="Courier New" font-size="14.00">1</text>
<polyline fill="none" stroke="black" points="1697.65,-547.7 1697.65,-622.1 "/>
<text text-anchor="middle" x="1869.08" y="-605.5" font-family="Courier New" font-size="14.00">type: variable (bytes)</text>
<polyline fill="none" stroke="black" points="1697.65,-597.3 2040.5,-597.3 "/>
<text text-anchor="middle" x="1772.86" y="-580.7" font-family="Courier New" font-size="14.00">unallocated (31)</text>
<polyline fill="none" stroke="black" points="1848.07,-572.5 1848.07,-597.3 "/>
<text text-anchor="middle" x="1944.29" y="-580.7" font-family="Courier New" font-size="14.00">bool: isSupported (1)</text>
<polyline fill="none" stroke="black" points="1697.65,-572.5 2040.5,-572.5 "/>
<text text-anchor="middle" x="1868.67" y="-555.9" font-family="Courier New" font-size="14.00">uint256: _deprecated (32)</text>
</g>
<!-- 7&#45;&gt;3 -->
<g id="edge3" class="edge">
<title>7:13&#45;&gt;3</title>
<path fill="none" stroke="black" d="M1197.38,-642.3C1338.76,-642.3 1497.34,-631.15 1620.97,-619.95"/>
<polygon fill="black" stroke="black" points="1621.29,-623.44 1630.93,-619.04 1620.66,-616.47 1621.29,-623.44"/>
</g>
<!-- 4 -->
<g id="node5" class="node">
<title>4</title>
<polygon fill="#f2f2f2" stroke="black" points="1550.63,-437.7 1550.63,-528.9 2121.12,-528.9 2121.12,-437.7 1550.63,-437.7"/>
<text text-anchor="middle" x="1835.87" y="-512.3" font-family="Courier New" font-size="14.00">address[]: allStrategies &lt;&lt;Array&gt;&gt;</text>
<text text-anchor="middle" x="1835.87" y="-495.5" font-family="Courier New" font-size="14.00">0x4a11f94e20a93c79f6ec743a1954ec4fc2c08429ae2122118bf234b2185c81b8</text>
<polyline fill="none" stroke="black" points="1550.63,-487.3 2121.12,-487.3 "/>
<text text-anchor="middle" x="1642.83" y="-470.7" font-family="Courier New" font-size="14.00">offset</text>
<polyline fill="none" stroke="black" points="1550.63,-462.5 1735.04,-462.5 "/>
<text text-anchor="middle" x="1642.83" y="-445.9" font-family="Courier New" font-size="14.00">0</text>
<polyline fill="none" stroke="black" points="1735.04,-437.7 1735.04,-487.3 "/>
<text text-anchor="middle" x="1927.65" y="-470.7" font-family="Courier New" font-size="14.00">type: variable (bytes)</text>
<polyline fill="none" stroke="black" points="1735.04,-462.5 2120.27,-462.5 "/>
<text text-anchor="middle" x="1839.75" y="-445.9" font-family="Courier New" font-size="14.00">unallocated (12)</text>
<polyline fill="none" stroke="black" points="1944.46,-437.7 1944.46,-462.5 "/>
<text text-anchor="middle" x="2032.37" y="-445.9" font-family="Courier New" font-size="14.00">address (20)</text>
</g>
<!-- 7&#45;&gt;4 -->
<g id="edge4" class="edge">
<title>7:15&#45;&gt;4</title>
<path fill="none" stroke="black" d="M1197.38,-617.3C1235.97,-617.3 1201.92,-560.63 1233.38,-538.3 1321.09,-476.05 1435.07,-454.86 1540.19,-451.81"/>
<polygon fill="black" stroke="black" points="1540.42,-455.3 1550.33,-451.57 1540.25,-448.31 1540.42,-455.3"/>
</g>
<!-- 5 -->
<g id="node6" class="node">
<title>5</title>
<polygon fill="#f2f2f2" stroke="black" points="1497.22,-193.1 1497.22,-267.5 2174.52,-267.5 2174.52,-193.1 1497.22,-193.1"/>
<text text-anchor="middle" x="1835.87" y="-250.9" font-family="Courier New" font-size="14.00">SwapConfig &lt;&lt;Struct&gt;&gt;</text>
<polyline fill="none" stroke="black" points="1497.22,-242.7 2174.52,-242.7 "/>
<text text-anchor="middle" x="1522.02" y="-226.1" font-family="Courier New" font-size="14.00">slot</text>
<polyline fill="none" stroke="black" points="1497.22,-217.9 1546.83,-217.9 "/>
<text text-anchor="middle" x="1522.02" y="-201.3" font-family="Courier New" font-size="14.00">72</text>
<polyline fill="none" stroke="black" points="1546.83,-193.1 1546.83,-242.7 "/>
<text text-anchor="middle" x="1860.67" y="-226.1" font-family="Courier New" font-size="14.00">type: variable (bytes)</text>
<polyline fill="none" stroke="black" points="1546.83,-217.9 2174.52,-217.9 "/>
<text text-anchor="middle" x="1622.04" y="-201.3" font-family="Courier New" font-size="14.00">unallocated (10)</text>
<polyline fill="none" stroke="black" points="1697.25,-193.1 1697.25,-217.9 "/>
<text text-anchor="middle" x="1839.67" y="-201.3" font-family="Courier New" font-size="14.00">uint16: allowedUndervalueBps (2)</text>
<polyline fill="none" stroke="black" points="1982.09,-193.1 1982.09,-217.9 "/>
<text text-anchor="middle" x="2078.31" y="-201.3" font-family="Courier New" font-size="14.00">address: swapper (20)</text>
</g>
<!-- 7&#45;&gt;5 -->
<g id="edge5" class="edge">
<title>7:37&#45;&gt;5</title>
<path fill="none" stroke="black" d="M1197.38,-171.3C1214.25,-171.3 1216.85,-179.95 1233.38,-183.3 1314.64,-199.76 1403.16,-210.54 1486.68,-217.57"/>
<polygon fill="black" stroke="black" points="1486.58,-221.07 1496.83,-218.41 1487.16,-214.1 1486.58,-221.07"/>
</g>
<!-- 6 -->
<g id="node7" class="node">
<title>6</title>
<polygon fill="#f2f2f2" stroke="black" points="1702.25,-0.5 1702.25,-174.1 1969.49,-174.1 1969.49,-0.5 1702.25,-0.5"/>
<text text-anchor="middle" x="1835.87" y="-157.5" font-family="Courier New" font-size="14.00">uint256[50]: __gap &lt;&lt;Array&gt;&gt;</text>
<polyline fill="none" stroke="black" points="1702.25,-149.3 1969.49,-149.3 "/>
<text text-anchor="middle" x="1735.46" y="-132.7" font-family="Courier New" font-size="14.00">slot</text>
<polyline fill="none" stroke="black" points="1702.25,-124.5 1768.66,-124.5 "/>
<text text-anchor="middle" x="1735.46" y="-107.9" font-family="Courier New" font-size="14.00">73</text>
<polyline fill="none" stroke="black" points="1702.25,-99.7 1768.66,-99.7 "/>
<text text-anchor="middle" x="1735.46" y="-83.1" font-family="Courier New" font-size="14.00">74</text>
<polyline fill="none" stroke="black" points="1702.25,-74.9 1768.66,-74.9 "/>
<text text-anchor="middle" x="1735.46" y="-58.3" font-family="Courier New" font-size="14.00">75&#45;120</text>
<polyline fill="none" stroke="black" points="1702.25,-50.1 1768.66,-50.1 "/>
<text text-anchor="middle" x="1735.46" y="-33.5" font-family="Courier New" font-size="14.00">121</text>
<polyline fill="none" stroke="black" points="1702.25,-25.3 1768.66,-25.3 "/>
<text text-anchor="middle" x="1735.46" y="-8.7" font-family="Courier New" font-size="14.00">122</text>
<polyline fill="none" stroke="black" points="1768.66,-0.5 1768.66,-149.3 "/>
<text text-anchor="middle" x="1869.08" y="-132.7" font-family="Courier New" font-size="14.00">type: variable (bytes)</text>
<polyline fill="none" stroke="black" points="1768.66,-124.5 1969.49,-124.5 "/>
<text text-anchor="middle" x="1869.07" y="-107.9" font-family="Courier New" font-size="14.00">uint256 (32)</text>
<polyline fill="none" stroke="black" points="1768.66,-99.7 1969.49,-99.7 "/>
<text text-anchor="middle" x="1869.07" y="-83.1" font-family="Courier New" font-size="14.00">uint256 (32)</text>
<polyline fill="none" stroke="black" points="1768.66,-74.9 1969.49,-74.9 "/>
<text text-anchor="middle" x="1868.87" y="-58.3" font-family="Courier New" font-size="14.00">&#45;&#45;&#45;&#45; (1472)</text>
<polyline fill="none" stroke="black" points="1768.66,-50.1 1969.49,-50.1 "/>
<text text-anchor="middle" x="1869.07" y="-33.5" font-family="Courier New" font-size="14.00">uint256 (32)</text>
<polyline fill="none" stroke="black" points="1768.66,-25.3 1969.49,-25.3 "/>
<text text-anchor="middle" x="1869.07" y="-8.7" font-family="Courier New" font-size="14.00">uint256 (32)</text>
</g>
<!-- 7&#45;&gt;6 -->
<g id="edge6" class="edge">
<title>7:43&#45;&gt;6</title>
<path fill="none" stroke="black" d="M1197.38,-146.3C1368,-146.3 1563.21,-125.09 1692.17,-108.1"/>
<polygon fill="black" stroke="black" points="1692.66,-111.57 1702.12,-106.78 1691.74,-104.63 1692.66,-111.57"/>
</g>
</g>
</svg>
