<?xml version="1.0" encoding="UTF-8" standalone="no"?>
<!DOCTYPE svg PUBLIC "-//W3C//DTD SVG 1.1//EN"
 "http://www.w3.org/Graphics/SVG/1.1/DTD/svg11.dtd">
<!-- Generated by graphviz version 5.0.0 (20220707.1540)
 -->
<!-- Title: UmlClassDiagram Pages: 1 -->
<svg width="594pt" height="241pt"
 viewBox="0.00 0.00 593.94 241.40" xmlns="http://www.w3.org/2000/svg" xmlns:xlink="http://www.w3.org/1999/xlink">
<g id="graph0" class="graph" transform="scale(1 1) rotate(0) translate(4 237.4)">
<title>UmlClassDiagram</title>
<polygon fill="white" stroke="transparent" points="-4,4 -4,-237.4 589.94,-237.4 589.94,4 -4,4"/>
<!-- 48 -->
<g id="node1" class="node">
<title>48</title>
<polygon fill="#f2f2f2" stroke="black" points="20.22,-174.5 20.22,-232.9 221.63,-232.9 221.63,-174.5 20.22,-174.5"/>
<text text-anchor="middle" x="120.93" y="-216.3" font-family="Times,serif" font-size="14.00">&lt;&lt;Interface&gt;&gt;</text>
<text text-anchor="middle" x="120.93" y="-199.5" font-family="Times,serif" font-size="14.00">IOracle</text>
<text text-anchor="middle" x="120.93" y="-182.7" font-family="Times,serif" font-size="14.00">../contracts/interfaces/IOracle.sol</text>
</g>
<!-- 229 -->
<g id="node2" class="node">
<title>229</title>
<polygon fill="#f2f2f2" stroke="black" points="239.91,-174.5 239.91,-232.9 585.94,-232.9 585.94,-174.5 239.91,-174.5"/>
<text text-anchor="middle" x="412.93" y="-216.3" font-family="Times,serif" font-size="14.00">&lt;&lt;Interface&gt;&gt;</text>
<text text-anchor="middle" x="412.93" y="-199.5" font-family="Times,serif" font-size="14.00">AggregatorV3Interface</text>
<text text-anchor="middle" x="412.93" y="-182.7" font-family="Times,serif" font-size="14.00">../contracts/interfaces/chainlink/AggregatorV3Interface.sol</text>
</g>
<!-- 117 -->
<g id="node3" class="node">
<title>117</title>
<polygon fill="#f2f2f2" stroke="black" points="13.61,-0.5 13.61,-42.1 228.25,-42.1 228.25,-0.5 13.61,-0.5"/>
<text text-anchor="middle" x="120.93" y="-25.5" font-family="Times,serif" font-size="14.00">OracleRouter</text>
<text text-anchor="middle" x="120.93" y="-8.7" font-family="Times,serif" font-size="14.00">../contracts/oracle/OracleRouter.sol</text>
</g>
<!-- 118 -->
<g id="node4" class="node">
<title>118</title>
<polygon fill="#f2f2f2" stroke="black" points="0,-79.1 0,-137.5 241.85,-137.5 241.85,-79.1 0,-79.1"/>
<text text-anchor="middle" x="120.93" y="-120.9" font-family="Times,serif" font-size="14.00">&lt;&lt;Abstract&gt;&gt;</text>
<text text-anchor="middle" x="120.93" y="-104.1" font-family="Times,serif" font-size="14.00">OracleRouterBase</text>
<text text-anchor="middle" x="120.93" y="-87.3" font-family="Times,serif" font-size="14.00">../contracts/oracle/OracleRouterBase.sol</text>
</g>
<!-- 117&#45;&gt;118 -->
<g id="edge1" class="edge">
<title>117&#45;&gt;118</title>
<path fill="none" stroke="black" d="M120.93,-42.44C120.93,-44.49 120.93,-46.63 120.93,-48.83"/>
<polygon fill="none" stroke="black" points="110.43,-48.94 120.93,-78.94 131.43,-48.94 110.43,-48.94"/>
</g>
<!-- 118&#45;&gt;48 -->
<g id="edge2" class="edge">
<title>118&#45;&gt;48</title>
<path fill="none" stroke="black" stroke-dasharray="5,2" d="M120.93,-137.58C120.93,-139.66 120.93,-141.8 120.93,-143.98"/>
<polygon fill="none" stroke="black" points="110.43,-144.2 120.93,-174.2 131.43,-144.2 110.43,-144.2"/>
</g>
<!-- 118&#45;&gt;229 -->
<g id="edge3" class="edge">
<title>118&#45;&gt;229</title>
<path fill="none" stroke="black" stroke-dasharray="5,2" d="M209.33,-137.58C242.7,-148.25 280.85,-160.45 315.04,-171.39"/>
<polygon fill="black" stroke="black" points="313.98,-174.73 324.57,-174.44 316.11,-168.06 313.98,-174.73"/>
</g>
</g>
</svg>
