<?xml version="1.0" encoding="UTF-8" standalone="no"?>
<!DOCTYPE svg PUBLIC "-//W3C//DTD SVG 1.1//EN"
 "http://www.w3.org/Graphics/SVG/1.1/DTD/svg11.dtd">
<!-- Generated by graphviz version 5.0.0 (20220707.1540)
 -->
<!-- Title: UmlClassDiagram Pages: 1 -->
<svg width="464pt" height="382pt"
 viewBox="0.00 0.00 464.32 381.80" xmlns="http://www.w3.org/2000/svg" xmlns:xlink="http://www.w3.org/1999/xlink">
<g id="graph0" class="graph" transform="scale(1 1) rotate(0) translate(4 377.8)">
<title>UmlClassDiagram</title>
<polygon fill="white" stroke="transparent" points="-4,4 -4,-377.8 460.32,-377.8 460.32,4 -4,4"/>
<!-- 21 -->
<g id="node1" class="node">
<title>21</title>
<polygon fill="#f2f2f2" stroke="black" points="3.89,-331.7 3.89,-373.3 238.75,-373.3 238.75,-331.7 3.89,-331.7"/>
<text text-anchor="middle" x="121.32" y="-356.7" font-family="Times,serif" font-size="14.00">Governable</text>
<text text-anchor="middle" x="121.32" y="-339.9" font-family="Times,serif" font-size="14.00">../contracts/governance/Governable.sol</text>
</g>
<!-- 26 -->
<g id="node2" class="node">
<title>26</title>
<polygon fill="#f2f2f2" stroke="black" points="0,-244.7 0,-286.3 242.63,-286.3 242.63,-244.7 0,-244.7"/>
<text text-anchor="middle" x="121.32" y="-269.7" font-family="Times,serif" font-size="14.00">Strategizable</text>
<text text-anchor="middle" x="121.32" y="-252.9" font-family="Times,serif" font-size="14.00">../contracts/governance/Strategizable.sol</text>
</g>
<!-- 26&#45;&gt;21 -->
<g id="edge1" class="edge">
<title>26&#45;&gt;21</title>
<path fill="none" stroke="black" d="M121.32,-286.64C121.32,-291.2 121.32,-296.23 121.32,-301.41"/>
<polygon fill="none" stroke="black" points="110.82,-301.5 121.32,-331.5 131.82,-301.5 110.82,-301.5"/>
</g>
<!-- 39 -->
<g id="node3" class="node">
<title>39</title>
<polygon fill="#f2f2f2" stroke="black" points="100.88,-157.7 100.88,-199.3 377.75,-199.3 377.75,-157.7 100.88,-157.7"/>
<text text-anchor="middle" x="239.32" y="-182.7" font-family="Times,serif" font-size="14.00">OETHHarvesterSimple</text>
<text text-anchor="middle" x="239.32" y="-165.9" font-family="Times,serif" font-size="14.00">../contracts/harvest/OETHHarvesterSimple.sol</text>
</g>
<!-- 39&#45;&gt;26 -->
<g id="edge3" class="edge">
<title>39&#45;&gt;26</title>
<path fill="none" stroke="black" d="M211.65,-199.43C200.18,-207.69 186.49,-217.55 173.28,-227.07"/>
<polygon fill="none" stroke="black" points="167.01,-218.64 148.81,-244.7 179.29,-235.68 167.01,-218.64"/>
</g>
<!-- 279 -->
<g id="node6" class="node">
<title>279</title>
<polygon fill="#f2f2f2" stroke="black" points="260.31,-236.3 260.31,-294.7 456.32,-294.7 456.32,-236.3 260.31,-236.3"/>
<text text-anchor="middle" x="358.32" y="-278.1" font-family="Times,serif" font-size="14.00">&lt;&lt;Abstract&gt;&gt;</text>
<text text-anchor="middle" x="358.32" y="-261.3" font-family="Times,serif" font-size="14.00">Initializable</text>
<text text-anchor="middle" x="358.32" y="-244.5" font-family="Times,serif" font-size="14.00">../contracts/utils/Initializable.sol</text>
</g>
<!-- 39&#45;&gt;279 -->
<g id="edge2" class="edge">
<title>39&#45;&gt;279</title>
<path fill="none" stroke="black" d="M267.22,-199.43C275.32,-205.22 284.52,-211.79 293.89,-218.48"/>
<polygon fill="none" stroke="black" points="287.91,-227.11 318.42,-236.01 300.11,-210.02 287.91,-227.11"/>
</g>
<!-- 40 -->
<g id="node4" class="node">
<title>40</title>
<polygon fill="#f2f2f2" stroke="black" points="118.38,-0.5 118.38,-42.1 360.26,-42.1 360.26,-0.5 118.38,-0.5"/>
<text text-anchor="middle" x="239.32" y="-25.5" font-family="Times,serif" font-size="14.00">OSonicHarvester</text>
<text text-anchor="middle" x="239.32" y="-8.7" font-family="Times,serif" font-size="14.00">../contracts/harvest/OSonicHarvester.sol</text>
</g>
<!-- 41 -->
<g id="node5" class="node">
<title>41</title>
<polygon fill="#f2f2f2" stroke="black" points="104.38,-79.1 104.38,-120.7 374.25,-120.7 374.25,-79.1 104.38,-79.1"/>
<text text-anchor="middle" x="239.32" y="-104.1" font-family="Times,serif" font-size="14.00">SuperOETHHarvester</text>
<text text-anchor="middle" x="239.32" y="-87.3" font-family="Times,serif" font-size="14.00">../contracts/harvest/SuperOETHHarvester.sol</text>
</g>
<!-- 40&#45;&gt;41 -->
<g id="edge4" class="edge">
<title>40&#45;&gt;41</title>
<path fill="none" stroke="black" d="M239.32,-42.43C239.32,-44.45 239.32,-46.56 239.32,-48.73"/>
<polygon fill="none" stroke="black" points="228.82,-48.91 239.32,-78.91 249.82,-48.91 228.82,-48.91"/>
</g>
<!-- 41&#45;&gt;39 -->
<g id="edge5" class="edge">
<title>41&#45;&gt;39</title>
<path fill="none" stroke="black" d="M239.32,-121.03C239.32,-123.05 239.32,-125.16 239.32,-127.33"/>
<polygon fill="none" stroke="black" points="228.82,-127.51 239.32,-157.51 249.82,-127.51 228.82,-127.51"/>
</g>
</g>
</svg>
