<?xml version="1.0" encoding="UTF-8" standalone="no"?>
<!DOCTYPE svg PUBLIC "-//W3C//DTD SVG 1.1//EN"
 "http://www.w3.org/Graphics/SVG/1.1/DTD/svg11.dtd">
<!-- Generated by graphviz version 5.0.0 (20220707.1540)
 -->
<!-- Title: StorageDiagram Pages: 1 -->
<svg width="645pt" height="406pt"
 viewBox="0.00 0.00 644.90 405.80" xmlns="http://www.w3.org/2000/svg" xmlns:xlink="http://www.w3.org/1999/xlink">
<g id="graph0" class="graph" transform="scale(1 1) rotate(0) translate(4 401.8)">
<title>StorageDiagram</title>
<polygon fill="white" stroke="transparent" points="-4,4 -4,-401.8 640.9,-401.8 640.9,4 -4,4"/>
<!-- 1 -->
<g id="node1" class="node">
<title>1</title>
<polygon fill="#f2f2f2" stroke="black" points="0,-0.5 0,-397.3 636.9,-397.3 636.9,-0.5 0,-0.5"/>
<text text-anchor="middle" x="318.45" y="-380.7" font-family="Courier New" font-size="14.00">OSonic &lt;&lt;Contract&gt;&gt;</text>
<polyline fill="none" stroke="black" points="0,-372.5 636.9,-372.5 "/>
<text text-anchor="middle" x="37.4" y="-355.9" font-family="Courier New" font-size="14.00">slot</text>
<polyline fill="none" stroke="black" points="0,-347.7 74.81,-347.7 "/>
<text text-anchor="middle" x="37.4" y="-331.1" font-family="Courier New" font-size="14.00">0&#45;153</text>
<polyline fill="none" stroke="black" points="0,-322.9 74.81,-322.9 "/>
<text text-anchor="middle" x="37.4" y="-306.3" font-family="Courier New" font-size="14.00">154</text>
<polyline fill="none" stroke="black" points="0,-298.1 74.81,-298.1 "/>
<text text-anchor="middle" x="37.4" y="-281.5" font-family="Courier New" font-size="14.00">155</text>
<polyline fill="none" stroke="black" points="0,-273.3 74.81,-273.3 "/>
<text text-anchor="middle" x="37.4" y="-256.7" font-family="Courier New" font-size="14.00">156</text>
<polyline fill="none" stroke="black" points="0,-248.5 74.81,-248.5 "/>
<text text-anchor="middle" x="37.4" y="-231.9" font-family="Courier New" font-size="14.00">157</text>
<polyline fill="none" stroke="black" points="0,-223.7 74.81,-223.7 "/>
<text text-anchor="middle" x="37.4" y="-207.1" font-family="Courier New" font-size="14.00">158</text>
<polyline fill="none" stroke="black" points="0,-198.9 74.81,-198.9 "/>
<text text-anchor="middle" x="37.4" y="-182.3" font-family="Courier New" font-size="14.00">159</text>
<polyline fill="none" stroke="black" points="0,-174.1 74.81,-174.1 "/>
<text text-anchor="middle" x="37.4" y="-157.5" font-family="Courier New" font-size="14.00">160</text>
<polyline fill="none" stroke="black" points="0,-149.3 74.81,-149.3 "/>
<text text-anchor="middle" x="37.4" y="-132.7" font-family="Courier New" font-size="14.00">161</text>
<polyline fill="none" stroke="black" points="0,-124.5 74.81,-124.5 "/>
<text text-anchor="middle" x="37.4" y="-107.9" font-family="Courier New" font-size="14.00">162</text>
<polyline fill="none" stroke="black" points="0,-99.7 74.81,-99.7 "/>
<text text-anchor="middle" x="37.4" y="-83.1" font-family="Courier New" font-size="14.00">163</text>
<polyline fill="none" stroke="black" points="0,-74.9 74.81,-74.9 "/>
<text text-anchor="middle" x="37.4" y="-58.3" font-family="Courier New" font-size="14.00">164</text>
<polyline fill="none" stroke="black" points="0,-50.1 74.81,-50.1 "/>
<text text-anchor="middle" x="37.4" y="-33.5" font-family="Courier New" font-size="14.00">165</text>
<polyline fill="none" stroke="black" points="0,-25.3 74.81,-25.3 "/>
<text text-anchor="middle" x="37.4" y="-8.7" font-family="Courier New" font-size="14.00">166&#45;199</text>
<polyline fill="none" stroke="black" points="74.81,-0.5 74.81,-372.5 "/>
<text text-anchor="middle" x="355.85" y="-355.9" font-family="Courier New" font-size="14.00">type: &lt;inherited contract&gt;.variable (bytes)</text>
<polyline fill="none" stroke="black" points="74.81,-347.7 636.9,-347.7 "/>
<text text-anchor="middle" x="355.83" y="-331.1" font-family="Courier New" font-size="14.00">uint256[154]: OUSD._gap (4928)</text>
<polyline fill="none" stroke="black" points="74.81,-322.9 636.9,-322.9 "/>
<text text-anchor="middle" x="355.83" y="-306.3" font-family="Courier New" font-size="14.00">uint256: OUSD.totalSupply (32)</text>
<polyline fill="none" stroke="black" points="74.81,-298.1 636.9,-298.1 "/>
<text text-anchor="middle" x="355.85" y="-281.5" font-family="Courier New" font-size="14.00">mapping(address=&gt;mapping(address=&gt;uint256)): OUSD.allowances (32)</text>
<polyline fill="none" stroke="black" points="74.81,-273.3 636.9,-273.3 "/>
<text text-anchor="middle" x="183.52" y="-256.7" font-family="Courier New" font-size="14.00">unallocated (12)</text>
<polyline fill="none" stroke="black" points="292.23,-248.5 292.23,-273.3 "/>
<text text-anchor="middle" x="464.45" y="-256.7" font-family="Courier New" font-size="14.00">address: OUSD.vaultAddress (20)</text>
<polyline fill="none" stroke="black" points="74.81,-248.5 636.9,-248.5 "/>
<text text-anchor="middle" x="355.54" y="-231.9" font-family="Courier New" font-size="14.00">mapping(address=&gt;uint256): OUSD.creditBalances (32)</text>
<polyline fill="none" stroke="black" points="74.81,-223.7 636.9,-223.7 "/>
<text text-anchor="middle" x="355.83" y="-207.1" font-family="Courier New" font-size="14.00">uint256: OUSD.rebasingCredits_ (32)</text>
<polyline fill="none" stroke="black" points="74.81,-198.9 636.9,-198.9 "/>
<text text-anchor="middle" x="355.44" y="-182.3" font-family="Courier New" font-size="14.00">uint256: OUSD.rebasingCreditsPerToken_ (32)</text>
<polyline fill="none" stroke="black" points="74.81,-174.1 636.9,-174.1 "/>
<text text-anchor="middle" x="355.53" y="-157.5" font-family="Courier New" font-size="14.00">uint256: OUSD.nonRebasingSupply (32)</text>
<polyline fill="none" stroke="black" points="74.81,-149.3 636.9,-149.3 "/>
<text text-anchor="middle" x="355.45" y="-132.7" font-family="Courier New" font-size="14.00">mapping(address=&gt;uint256): OUSD.alternativeCreditsPerToken (32)</text>
<polyline fill="none" stroke="black" points="74.81,-124.5 636.9,-124.5 "/>
<text text-anchor="middle" x="355.65" y="-107.9" font-family="Courier New" font-size="14.00">mapping(address=&gt;RebaseOptions): OUSD.rebaseState (32)</text>
<polyline fill="none" stroke="black" points="74.81,-99.7 636.9,-99.7 "/>
<text text-anchor="middle" x="355.85" y="-83.1" font-family="Courier New" font-size="14.00">mapping(address=&gt;uint256): OUSD.__deprecated_isUpgraded (32)</text>
<polyline fill="none" stroke="black" points="74.81,-74.9 636.9,-74.9 "/>
<text text-anchor="middle" x="355.64" y="-58.3" font-family="Courier New" font-size="14.00">mapping(address=&gt;address): OUSD.yieldTo (32)</text>
<polyline fill="none" stroke="black" points="74.81,-50.1 636.9,-50.1 "/>
<text text-anchor="middle" x="355.54" y="-33.5" font-family="Courier New" font-size="14.00">mapping(address=&gt;address): OUSD.yieldFrom (32)</text>
<polyline fill="none" stroke="black" points="74.81,-25.3 636.9,-25.3 "/>
<text text-anchor="middle" x="355.83" y="-8.7" font-family="Courier New" font-size="14.00">uint256[34]: OUSD.__gap (1088)</text>
</g>
</g>
</svg>
