<?xml version="1.0" encoding="UTF-8" standalone="no"?>
<!DOCTYPE svg PUBLIC "-//W3C//DTD SVG 1.1//EN"
 "http://www.w3.org/Graphics/SVG/1.1/DTD/svg11.dtd">
<!-- Generated by graphviz version 5.0.0 (20220707.1540)
 -->
<!-- Title: StorageDiagram Pages: 1 -->
<svg width="862pt" height="232pt"
 viewBox="0.00 0.00 861.73 232.20" xmlns="http://www.w3.org/2000/svg" xmlns:xlink="http://www.w3.org/1999/xlink">
<g id="graph0" class="graph" transform="scale(1 1) rotate(0) translate(4 228.2)">
<title>StorageDiagram</title>
<polygon fill="white" stroke="transparent" points="-4,4 -4,-228.2 857.73,-228.2 857.73,4 -4,4"/>
<!-- 1 -->
<g id="node1" class="node">
<title>1</title>
<polygon fill="#f2f2f2" stroke="black" points="0,-0.5 0,-223.7 853.73,-223.7 853.73,-0.5 0,-0.5"/>
<text text-anchor="middle" x="426.86" y="-207.1" font-family="Courier New" font-size="14.00">OSonicHarvester &lt;&lt;Contract&gt;&gt;</text>
<polyline fill="none" stroke="black" points="0,-198.9 853.73,-198.9 "/>
<text text-anchor="middle" x="37.4" y="-182.3" font-family="Courier New" font-size="14.00">slot</text>
<polyline fill="none" stroke="black" points="0,-174.1 74.81,-174.1 "/>
<text text-anchor="middle" x="37.4" y="-157.5" font-family="Courier New" font-size="14.00">0</text>
<polyline fill="none" stroke="black" points="0,-149.3 74.81,-149.3 "/>
<text text-anchor="middle" x="37.4" y="-132.7" font-family="Courier New" font-size="14.00">1&#45;50</text>
<polyline fill="none" stroke="black" points="0,-124.5 74.81,-124.5 "/>
<text text-anchor="middle" x="37.4" y="-107.9" font-family="Courier New" font-size="14.00">51</text>
<polyline fill="none" stroke="black" points="0,-99.7 74.81,-99.7 "/>
<text text-anchor="middle" x="37.4" y="-83.1" font-family="Courier New" font-size="14.00">52&#45;101</text>
<polyline fill="none" stroke="black" points="0,-74.9 74.81,-74.9 "/>
<text text-anchor="middle" x="37.4" y="-58.3" font-family="Courier New" font-size="14.00">102</text>
<polyline fill="none" stroke="black" points="0,-50.1 74.81,-50.1 "/>
<text text-anchor="middle" x="37.4" y="-33.5" font-family="Courier New" font-size="14.00">103</text>
<polyline fill="none" stroke="black" points="0,-25.3 74.81,-25.3 "/>
<text text-anchor="middle" x="37.4" y="-8.7" font-family="Courier New" font-size="14.00">104&#45;151</text>
<polyline fill="none" stroke="black" points="74.81,-0.5 74.81,-198.9 "/>
<text text-anchor="middle" x="464.27" y="-182.3" font-family="Courier New" font-size="14.00">type: &lt;inherited contract&gt;.variable (bytes)</text>
<polyline fill="none" stroke="black" points="74.81,-174.1 853.73,-174.1 "/>
<text text-anchor="middle" x="150.02" y="-157.5" font-family="Courier New" font-size="14.00">unallocated (30)</text>
<polyline fill="none" stroke="black" points="225.23,-149.3 225.23,-174.1 "/>
<text text-anchor="middle" x="384.46" y="-157.5" font-family="Courier New" font-size="14.00">bool: Initializable.initializing (1)</text>
<polyline fill="none" stroke="black" points="543.68,-149.3 543.68,-174.1 "/>
<text text-anchor="middle" x="698.7" y="-157.5" font-family="Courier New" font-size="14.00">bool: Initializable.initialized (1)</text>
<polyline fill="none" stroke="black" points="74.81,-149.3 853.73,-149.3 "/>
<text text-anchor="middle" x="463.94" y="-132.7" font-family="Courier New" font-size="14.00">uint256[50]: Initializable.______gap (1600)</text>
<polyline fill="none" stroke="black" points="74.81,-124.5 853.73,-124.5 "/>
<text text-anchor="middle" x="214.52" y="-107.9" font-family="Courier New" font-size="14.00">unallocated (12)</text>
<polyline fill="none" stroke="black" points="354.23,-99.7 354.23,-124.5 "/>
<text text-anchor="middle" x="603.66" y="-107.9" font-family="Courier New" font-size="14.00">address: Strategizable.strategistAddr (20)</text>
<polyline fill="none" stroke="black" points="74.81,-99.7 853.73,-99.7 "/>
<text text-anchor="middle" x="464.14" y="-83.1" font-family="Courier New" font-size="14.00">uint256[50]: Strategizable.__gap (1600)</text>
<polyline fill="none" stroke="black" points="74.81,-74.9 853.73,-74.9 "/>
<text text-anchor="middle" x="217.02" y="-58.3" font-family="Courier New" font-size="14.00">unallocated (12)</text>
<polyline fill="none" stroke="black" points="359.23,-50.1 359.23,-74.9 "/>
<text text-anchor="middle" x="606.46" y="-58.3" font-family="Courier New" font-size="14.00">address: OETHHarvesterSimple.dripper (20)</text>
<polyline fill="none" stroke="black" points="74.81,-50.1 853.73,-50.1 "/>
<text text-anchor="middle" x="463.96" y="-33.5" font-family="Courier New" font-size="14.00">mapping(address=&gt;bool): OETHHarvesterSimple.supportedStrategies (32)</text>
<polyline fill="none" stroke="black" points="74.81,-25.3 853.73,-25.3 "/>
<text text-anchor="middle" x="464.04" y="-8.7" font-family="Courier New" font-size="14.00">uint256[48]: OETHHarvesterSimple.___gap (1536)</text>
</g>
</g>
</svg>
