<?xml version="1.0" encoding="UTF-8" standalone="no"?>
<!DOCTYPE svg PUBLIC "-//W3C//DTD SVG 1.1//EN"
 "http://www.w3.org/Graphics/SVG/1.1/DTD/svg11.dtd">
<!-- Generated by graphviz version 5.0.0 (20220707.1540)
 -->
<!-- Title: UmlClassDiagram Pages: 1 -->
<svg width="796pt" height="337pt"
 viewBox="0.00 0.00 795.95 336.80" xmlns="http://www.w3.org/2000/svg" xmlns:xlink="http://www.w3.org/1999/xlink">
<g id="graph0" class="graph" transform="scale(1 1) rotate(0) translate(4 332.8)">
<title>UmlClassDiagram</title>
<polygon fill="white" stroke="transparent" points="-4,4 -4,-332.8 791.95,-332.8 791.95,4 -4,4"/>
<!-- 40 -->
<g id="node1" class="node">
<title>40</title>
<polygon fill="#f2f2f2" stroke="black" points="158.88,-269.9 158.88,-328.3 393.74,-328.3 393.74,-269.9 158.88,-269.9"/>
<text text-anchor="middle" x="276.31" y="-311.7" font-family="Times,serif" font-size="14.00">&lt;&lt;Abstract&gt;&gt;</text>
<text text-anchor="middle" x="276.31" y="-294.9" font-family="Times,serif" font-size="14.00">Governable</text>
<text text-anchor="middle" x="276.31" y="-278.1" font-family="Times,serif" font-size="14.00">../contracts/governance/Governable.sol</text>
</g>
<!-- 437 -->
<g id="node2" class="node">
<title>437</title>
<polygon fill="#f2f2f2" stroke="black" points="0.04,-174.5 0.04,-232.9 414.57,-232.9 414.57,-174.5 0.04,-174.5"/>
<text text-anchor="middle" x="207.31" y="-216.3" font-family="Times,serif" font-size="14.00">&lt;&lt;Abstract&gt;&gt;</text>
<text text-anchor="middle" x="207.31" y="-199.5" font-family="Times,serif" font-size="14.00">AbstractCrossChainV3Strategy</text>
<text text-anchor="middle" x="207.31" y="-182.7" font-family="Times,serif" font-size="14.00">../contracts/strategies/crosschainV3/AbstractCrossChainV3Strategy.sol</text>
</g>
<!-- 437&#45;&gt;40 -->
<g id="edge1" class="edge">
<title>437&#45;&gt;40</title>
<path fill="none" stroke="black" d="M228.2,-232.98C231.14,-236.96 234.25,-241.16 237.4,-245.43"/>
<polygon fill="none" stroke="black" points="228.98,-251.71 255.25,-269.6 245.87,-239.23 228.98,-251.71"/>
</g>
<!-- 438 -->
<g id="node3" class="node">
<title>438</title>
<polygon fill="#f2f2f2" stroke="black" points="196.72,-79.1 196.72,-137.5 587.89,-137.5 587.89,-79.1 196.72,-79.1"/>
<text text-anchor="middle" x="392.31" y="-120.9" font-family="Times,serif" font-size="14.00">&lt;&lt;Abstract&gt;&gt;</text>
<text text-anchor="middle" x="392.31" y="-104.1" font-family="Times,serif" font-size="14.00">AbstractWOTokenStrategy</text>
<text text-anchor="middle" x="392.31" y="-87.3" font-family="Times,serif" font-size="14.00">../contracts/strategies/crosschainV3/AbstractWOTokenStrategy.sol</text>
</g>
<!-- 438&#45;&gt;437 -->
<g id="edge2" class="edge">
<title>438&#45;&gt;437</title>
<path fill="none" stroke="black" d="M336.3,-137.58C321.79,-144.9 305.85,-152.95 290.27,-160.82"/>
<polygon fill="none" stroke="black" points="285.49,-151.46 263.45,-174.36 294.96,-170.21 285.49,-151.46"/>
</g>
<!-- 263 -->
<g id="node7" class="node">
<title>263</title>
<polygon fill="#f2f2f2" stroke="black" points="432.26,-174.5 432.26,-232.9 722.36,-232.9 722.36,-174.5 432.26,-174.5"/>
<text text-anchor="middle" x="577.31" y="-216.3" font-family="Times,serif" font-size="14.00">&lt;&lt;Abstract&gt;&gt;</text>
<text text-anchor="middle" x="577.31" y="-199.5" font-family="Times,serif" font-size="14.00">InitializableAbstractStrategy</text>
<text text-anchor="middle" x="577.31" y="-182.7" font-family="Times,serif" font-size="14.00">../contracts/utils/InitializableAbstractStrategy.sol</text>
</g>
<!-- 438&#45;&gt;263 -->
<g id="edge3" class="edge">
<title>438&#45;&gt;263</title>
<path fill="none" stroke="black" d="M448.32,-137.58C462.83,-144.9 478.77,-152.95 494.35,-160.82"/>
<polygon fill="none" stroke="black" points="489.66,-170.21 521.17,-174.36 499.12,-151.46 489.66,-170.21"/>
</g>
<!-- 441 -->
<g id="node4" class="node">
<title>441</title>
<polygon fill="#f2f2f2" stroke="black" points="0,-0.5 0,-42.1 382.62,-42.1 382.62,-0.5 0,-0.5"/>
<text text-anchor="middle" x="191.31" y="-25.5" font-family="Times,serif" font-size="14.00">MasterWOTokenStrategy</text>
<text text-anchor="middle" x="191.31" y="-8.7" font-family="Times,serif" font-size="14.00">../contracts/strategies/crosschainV3/MasterWOTokenStrategy.sol</text>
</g>
<!-- 441&#45;&gt;438 -->
<g id="edge4" class="edge">
<title>441&#45;&gt;438</title>
<path fill="none" stroke="black" d="M238.18,-42.12C256.05,-49.68 277.11,-58.58 297.83,-67.34"/>
<polygon fill="none" stroke="black" points="293.82,-77.05 325.54,-79.06 301.99,-57.71 293.82,-77.05"/>
</g>
<!-- 442 -->
<g id="node5" class="node">
<title>442</title>
<polygon fill="#f2f2f2" stroke="black" points="400.67,-0.5 400.67,-42.1 787.95,-42.1 787.95,-0.5 400.67,-0.5"/>
<text text-anchor="middle" x="594.31" y="-25.5" font-family="Times,serif" font-size="14.00">RemoteWOTokenStrategy</text>
<text text-anchor="middle" x="594.31" y="-8.7" font-family="Times,serif" font-size="14.00">../contracts/strategies/crosschainV3/RemoteWOTokenStrategy.sol</text>
</g>
<!-- 442&#45;&gt;438 -->
<g id="edge5" class="edge">
<title>442&#45;&gt;438</title>
<path fill="none" stroke="black" d="M547.2,-42.12C529.25,-49.68 508.08,-58.58 487.26,-67.34"/>
<polygon fill="none" stroke="black" points="482.99,-57.75 459.41,-79.06 491.14,-77.11 482.99,-57.75"/>
</g>
<!-- 262 -->
<g id="node6" class="node">
<title>262</title>
<polygon fill="#f2f2f2" stroke="black" points="479.3,-269.9 479.3,-328.3 675.31,-328.3 675.31,-269.9 479.3,-269.9"/>
<text text-anchor="middle" x="577.31" y="-311.7" font-family="Times,serif" font-size="14.00">&lt;&lt;Abstract&gt;&gt;</text>
<text text-anchor="middle" x="577.31" y="-294.9" font-family="Times,serif" font-size="14.00">Initializable</text>
<text text-anchor="middle" x="577.31" y="-278.1" font-family="Times,serif" font-size="14.00">../contracts/utils/Initializable.sol</text>
</g>
<!-- 263&#45;&gt;40 -->
<g id="edge7" class="edge">
<title>263&#45;&gt;40</title>
<path fill="none" stroke="black" d="M486.18,-232.98C457.81,-241.78 426.08,-251.63 396.06,-260.94"/>
<polygon fill="none" stroke="black" points="392.93,-250.92 367.39,-269.84 399.15,-270.98 392.93,-250.92"/>
</g>
<!-- 263&#45;&gt;262 -->
<g id="edge6" class="edge">
<title>263&#45;&gt;262</title>
<path fill="none" stroke="black" d="M577.31,-232.98C577.31,-235.06 577.31,-237.2 577.31,-239.38"/>
<polygon fill="none" stroke="black" points="566.81,-239.6 577.31,-269.6 587.81,-239.6 566.81,-239.6"/>
</g>
</g>
</svg>
