<?xml version="1.0" encoding="UTF-8" standalone="no"?>
<!DOCTYPE svg PUBLIC "-//W3C//DTD SVG 1.1//EN"
 "http://www.w3.org/Graphics/SVG/1.1/DTD/svg11.dtd">
<!-- Generated by graphviz version 5.0.0 (20220707.1540)
 -->
<!-- Title: UmlClassDiagram Pages: 1 -->
<svg width="818pt" height="241pt"
 viewBox="0.00 0.00 818.48 241.40" xmlns="http://www.w3.org/2000/svg" xmlns:xlink="http://www.w3.org/1999/xlink">
<g id="graph0" class="graph" transform="scale(1 1) rotate(0) translate(4 237.4)">
<title>UmlClassDiagram</title>
<polygon fill="white" stroke="transparent" points="-4,4 -4,-237.4 814.48,-237.4 814.48,4 -4,4"/>
<!-- 20 -->
<g id="node1" class="node">
<title>20</title>
<polygon fill="#f2f2f2" stroke="black" points="0,-87.5 0,-129.1 234.86,-129.1 234.86,-87.5 0,-87.5"/>
<text text-anchor="middle" x="117.43" y="-112.5" font-family="Times,serif" font-size="14.00">Governable</text>
<text text-anchor="middle" x="117.43" y="-95.7" font-family="Times,serif" font-size="14.00">../contracts/governance/Governable.sol</text>
</g>
<!-- 186 -->
<g id="node2" class="node">
<title>186</title>
<polygon fill="#f2f2f2" stroke="black" points="263.3,-0.5 263.3,-42.1 437.56,-42.1 437.56,-0.5 263.3,-0.5"/>
<text text-anchor="middle" x="350.43" y="-25.5" font-family="Times,serif" font-size="14.00">OUSD</text>
<text text-anchor="middle" x="350.43" y="-8.7" font-family="Times,serif" font-size="14.00">../contracts/token/OUSD.sol</text>
</g>
<!-- 186&#45;&gt;20 -->
<g id="edge3" class="edge">
<title>186&#45;&gt;20</title>
<path fill="none" stroke="black" d="M296.1,-42.12C267.62,-52.51 232.14,-65.45 200.31,-77.06"/>
<polygon fill="none" stroke="black" points="196.43,-67.3 171.85,-87.45 203.63,-87.03 196.43,-67.3"/>
</g>
<!-- 194 -->
<g id="node3" class="node">
<title>194</title>
<polygon fill="#f2f2f2" stroke="black" points="252.42,-79.1 252.42,-137.5 448.44,-137.5 448.44,-79.1 252.42,-79.1"/>
<text text-anchor="middle" x="350.43" y="-120.9" font-family="Times,serif" font-size="14.00">&lt;&lt;Abstract&gt;&gt;</text>
<text text-anchor="middle" x="350.43" y="-104.1" font-family="Times,serif" font-size="14.00">Initializable</text>
<text text-anchor="middle" x="350.43" y="-87.3" font-family="Times,serif" font-size="14.00">../contracts/utils/Initializable.sol</text>
</g>
<!-- 186&#45;&gt;194 -->
<g id="edge1" class="edge">
<title>186&#45;&gt;194</title>
<path fill="none" stroke="black" d="M350.43,-42.44C350.43,-44.49 350.43,-46.63 350.43,-48.83"/>
<polygon fill="none" stroke="black" points="339.93,-48.94 350.43,-78.94 360.93,-48.94 339.93,-48.94"/>
</g>
<!-- 197 -->
<g id="node4" class="node">
<title>197</title>
<polygon fill="#f2f2f2" stroke="black" points="466.1,-79.1 466.1,-137.5 750.76,-137.5 750.76,-79.1 466.1,-79.1"/>
<text text-anchor="middle" x="608.43" y="-120.9" font-family="Times,serif" font-size="14.00">&lt;&lt;Abstract&gt;&gt;</text>
<text text-anchor="middle" x="608.43" y="-104.1" font-family="Times,serif" font-size="14.00">InitializableERC20Detailed</text>
<text text-anchor="middle" x="608.43" y="-87.3" font-family="Times,serif" font-size="14.00">../contracts/utils/InitializableERC20Detailed.sol</text>
</g>
<!-- 186&#45;&gt;197 -->
<g id="edge2" class="edge">
<title>186&#45;&gt;197</title>
<path fill="none" stroke="black" d="M410.59,-42.12C435.48,-50.32 465.2,-60.11 493.94,-69.58"/>
<polygon fill="none" stroke="black" points="490.94,-79.65 522.72,-79.06 497.51,-59.7 490.94,-79.65"/>
</g>
<!-- 392 -->
<g id="node5" class="node">
<title>392</title>
<polygon fill="#f2f2f2" stroke="black" points="406.37,-174.5 406.37,-232.9 810.48,-232.9 810.48,-174.5 406.37,-174.5"/>
<text text-anchor="middle" x="608.43" y="-216.3" font-family="Times,serif" font-size="14.00">&lt;&lt;Interface&gt;&gt;</text>
<text text-anchor="middle" x="608.43" y="-199.5" font-family="Times,serif" font-size="14.00">IERC20</text>
<text text-anchor="middle" x="608.43" y="-182.7" font-family="Times,serif" font-size="14.00">../node_modules/@openzeppelin/contracts/token/ERC20/IERC20.sol</text>
</g>
<!-- 197&#45;&gt;392 -->
<g id="edge4" class="edge">
<title>197&#45;&gt;392</title>
<path fill="none" stroke="black" stroke-dasharray="5,2" d="M608.43,-137.58C608.43,-139.66 608.43,-141.8 608.43,-143.98"/>
<polygon fill="none" stroke="black" points="597.93,-144.2 608.43,-174.2 618.93,-144.2 597.93,-144.2"/>
</g>
</g>
</svg>
