<?xml version="1.0" encoding="UTF-8" standalone="no"?>
<!DOCTYPE svg PUBLIC "-//W3C//DTD SVG 1.1//EN"
 "http://www.w3.org/Graphics/SVG/1.1/DTD/svg11.dtd">
<!-- Generated by graphviz version 5.0.0 (20220707.1540)
 -->
<!-- Title: StorageDiagram Pages: 1 -->
<svg width="594pt" height="381pt"
 viewBox="0.00 0.00 594.49 381.00" xmlns="http://www.w3.org/2000/svg" xmlns:xlink="http://www.w3.org/1999/xlink">
<g id="graph0" class="graph" transform="scale(1 1) rotate(0) translate(4 377)">
<title>StorageDiagram</title>
<polygon fill="white" stroke="transparent" points="-4,4 -4,-377 590.49,-377 590.49,4 -4,4"/>
<!-- 1 -->
<g id="node1" class="node">
<title>1</title>
<polygon fill="#f2f2f2" stroke="black" points="0,-0.5 0,-372.5 586.49,-372.5 586.49,-0.5 0,-0.5"/>
<text text-anchor="middle" x="293.25" y="-355.9" font-family="Courier New" font-size="14.00">OUSD &lt;&lt;Contract&gt;&gt;</text>
<polyline fill="none" stroke="black" points="0,-347.7 586.49,-347.7 "/>
<text text-anchor="middle" x="29" y="-331.1" font-family="Courier New" font-size="14.00">slot</text>
<polyline fill="none" stroke="black" points="0,-322.9 58.01,-322.9 "/>
<text text-anchor="middle" x="29" y="-306.3" font-family="Courier New" font-size="14.00">0&#45;153</text>
<polyline fill="none" stroke="black" points="0,-298.1 58.01,-298.1 "/>
<text text-anchor="middle" x="29" y="-281.5" font-family="Courier New" font-size="14.00">154</text>
<polyline fill="none" stroke="black" points="0,-273.3 58.01,-273.3 "/>
<text text-anchor="middle" x="29" y="-256.7" font-family="Courier New" font-size="14.00">155</text>
<polyline fill="none" stroke="black" points="0,-248.5 58.01,-248.5 "/>
<text text-anchor="middle" x="29" y="-231.9" font-family="Courier New" font-size="14.00">156</text>
<polyline fill="none" stroke="black" points="0,-223.7 58.01,-223.7 "/>
<text text-anchor="middle" x="29" y="-207.1" font-family="Courier New" font-size="14.00">157</text>
<polyline fill="none" stroke="black" points="0,-198.9 58.01,-198.9 "/>
<text text-anchor="middle" x="29" y="-182.3" font-family="Courier New" font-size="14.00">158</text>
<polyline fill="none" stroke="black" points="0,-174.1 58.01,-174.1 "/>
<text text-anchor="middle" x="29" y="-157.5" font-family="Courier New" font-size="14.00">159</text>
<polyline fill="none" stroke="black" points="0,-149.3 58.01,-149.3 "/>
<text text-anchor="middle" x="29" y="-132.7" font-family="Courier New" font-size="14.00">160</text>
<polyline fill="none" stroke="black" points="0,-124.5 58.01,-124.5 "/>
<text text-anchor="middle" x="29" y="-107.9" font-family="Courier New" font-size="14.00">161</text>
<polyline fill="none" stroke="black" points="0,-99.7 58.01,-99.7 "/>
<text text-anchor="middle" x="29" y="-83.1" font-family="Courier New" font-size="14.00">162</text>
<polyline fill="none" stroke="black" points="0,-74.9 58.01,-74.9 "/>
<text text-anchor="middle" x="29" y="-58.3" font-family="Courier New" font-size="14.00">163</text>
<polyline fill="none" stroke="black" points="0,-50.1 58.01,-50.1 "/>
<text text-anchor="middle" x="29" y="-33.5" font-family="Courier New" font-size="14.00">164</text>
<polyline fill="none" stroke="black" points="0,-25.3 58.01,-25.3 "/>
<text text-anchor="middle" x="29" y="-8.7" font-family="Courier New" font-size="14.00">165</text>
<polyline fill="none" stroke="black" points="58.01,-0.5 58.01,-347.7 "/>
<text text-anchor="middle" x="322.25" y="-331.1" font-family="Courier New" font-size="14.00">type: &lt;inherited contract&gt;.variable (bytes)</text>
<polyline fill="none" stroke="black" points="58.01,-322.9 586.49,-322.9 "/>
<text text-anchor="middle" x="322.02" y="-306.3" font-family="Courier New" font-size="14.00">uint256[154]: _gap (4928)</text>
<polyline fill="none" stroke="black" points="58.01,-298.1 586.49,-298.1 "/>
<text text-anchor="middle" x="322.22" y="-281.5" font-family="Courier New" font-size="14.00">uint256: _totalSupply (32)</text>
<polyline fill="none" stroke="black" points="58.01,-273.3 586.49,-273.3 "/>
<text text-anchor="middle" x="322.25" y="-256.7" font-family="Courier New" font-size="14.00">mapping(address=&gt;mapping(address=&gt;uint256)): _allowances (32)</text>
<polyline fill="none" stroke="black" points="58.01,-248.5 586.49,-248.5 "/>
<text text-anchor="middle" x="168.72" y="-231.9" font-family="Courier New" font-size="14.00">unallocated (12)</text>
<polyline fill="none" stroke="black" points="279.43,-223.7 279.43,-248.5 "/>
<text text-anchor="middle" x="432.65" y="-231.9" font-family="Courier New" font-size="14.00">address: vaultAddress (20)</text>
<polyline fill="none" stroke="black" points="58.01,-223.7 586.49,-223.7 "/>
<text text-anchor="middle" x="321.94" y="-207.1" font-family="Courier New" font-size="14.00">mapping(address=&gt;uint256): _creditBalances (32)</text>
<polyline fill="none" stroke="black" points="58.01,-198.9 586.49,-198.9 "/>
<text text-anchor="middle" x="322.03" y="-182.3" font-family="Courier New" font-size="14.00">uint256: _rebasingCredits (32)</text>
<polyline fill="none" stroke="black" points="58.01,-174.1 586.49,-174.1 "/>
<text text-anchor="middle" x="322.13" y="-157.5" font-family="Courier New" font-size="14.00">uint256: _rebasingCreditsPerToken (32)</text>
<polyline fill="none" stroke="black" points="58.01,-149.3 586.49,-149.3 "/>
<text text-anchor="middle" x="322.23" y="-132.7" font-family="Courier New" font-size="14.00">uint256: nonRebasingSupply (32)</text>
<polyline fill="none" stroke="black" points="58.01,-124.5 586.49,-124.5 "/>
<text text-anchor="middle" x="322.15" y="-107.9" font-family="Courier New" font-size="14.00">mapping(address=&gt;uint256): alternativeCreditsPerToken (32)</text>
<polyline fill="none" stroke="black" points="58.01,-99.7 586.49,-99.7 "/>
<text text-anchor="middle" x="321.84" y="-83.1" font-family="Courier New" font-size="14.00">mapping(address=&gt;RebaseOptions): rebaseState (32)</text>
<polyline fill="none" stroke="black" points="58.01,-74.9 586.49,-74.9 "/>
<text text-anchor="middle" x="321.94" y="-58.3" font-family="Courier New" font-size="14.00">mapping(address=&gt;uint256): isUpgraded (32)</text>
<polyline fill="none" stroke="black" points="58.01,-50.1 586.49,-50.1 "/>
<text text-anchor="middle" x="321.83" y="-33.5" font-family="Courier New" font-size="14.00">mapping(address=&gt;address): yieldTo (32)</text>
<polyline fill="none" stroke="black" points="58.01,-25.3 586.49,-25.3 "/>
<text text-anchor="middle" x="322.23" y="-8.7" font-family="Courier New" font-size="14.00">mapping(address=&gt;address): yieldFrom (32)</text>
</g>
</g>
</svg>
