<?xml version="1.0" encoding="UTF-8" standalone="no"?>
<!DOCTYPE svg PUBLIC "-//W3C//DTD SVG 1.1//EN"
 "http://www.w3.org/Graphics/SVG/1.1/DTD/svg11.dtd">
<!-- Generated by graphviz version 5.0.0 (20220707.1540)
 -->
<!-- Title: UmlClassDiagram Pages: 1 -->
<svg width="1512pt" height="320pt"
 viewBox="0.00 0.00 1512.37 320.00" xmlns="http://www.w3.org/2000/svg" xmlns:xlink="http://www.w3.org/1999/xlink">
<g id="graph0" class="graph" transform="scale(1 1) rotate(0) translate(4 316)">
<title>UmlClassDiagram</title>
<polygon fill="white" stroke="transparent" points="-4,4 -4,-316 1508.37,-316 1508.37,4 -4,4"/>
<!-- 0 -->
<g id="node1" class="node">
<title>0</title>
<polygon fill="#f2f2f2" stroke="black" points="575.59,-79.1 575.59,-137.5 805.04,-137.5 805.04,-79.1 575.59,-79.1"/>
<text text-anchor="middle" x="690.32" y="-120.9" font-family="Times,serif" font-size="14.00">&lt;&lt;Abstract&gt;&gt;</text>
<text text-anchor="middle" x="690.32" y="-104.1" font-family="Times,serif" font-size="14.00">BaseBuyback</text>
<text text-anchor="middle" x="690.32" y="-87.3" font-family="Times,serif" font-size="14.00">../contracts/buyback/BaseBuyback.sol</text>
</g>
<!-- 25 -->
<g id="node4" class="node">
<title>25</title>
<polygon fill="#f2f2f2" stroke="black" points="0,-182.9 0,-224.5 242.63,-224.5 242.63,-182.9 0,-182.9"/>
<text text-anchor="middle" x="121.32" y="-207.9" font-family="Times,serif" font-size="14.00">Strategizable</text>
<text text-anchor="middle" x="121.32" y="-191.1" font-family="Times,serif" font-size="14.00">../contracts/governance/Strategizable.sol</text>
</g>
<!-- 0&#45;&gt;25 -->
<g id="edge2" class="edge">
<title>0&#45;&gt;25</title>
<path fill="none" stroke="black" d="M575.33,-123.97C486.56,-135.85 360.8,-153.87 251.32,-174 246.5,-174.88 241.6,-175.82 236.65,-176.79"/>
<polygon fill="none" stroke="black" points="234.43,-166.53 207.15,-182.85 238.65,-187.1 234.43,-166.53"/>
</g>
<!-- 37 -->
<g id="node5" class="node">
<title>37</title>
<polygon fill="#f2f2f2" stroke="black" points="260.66,-174.5 260.66,-232.9 493.97,-232.9 493.97,-174.5 260.66,-174.5"/>
<text text-anchor="middle" x="377.32" y="-216.3" font-family="Times,serif" font-size="14.00">&lt;&lt;Interface&gt;&gt;</text>
<text text-anchor="middle" x="377.32" y="-199.5" font-family="Times,serif" font-size="14.00">ICVXLocker</text>
<text text-anchor="middle" x="377.32" y="-182.7" font-family="Times,serif" font-size="14.00">../contracts/interfaces/ICVXLocker.sol</text>
</g>
<!-- 0&#45;&gt;37 -->
<g id="edge5" class="edge">
<title>0&#45;&gt;37</title>
<path fill="none" stroke="black" stroke-dasharray="5,2" d="M595.56,-137.58C559.63,-148.3 518.54,-160.56 481.77,-171.53"/>
<polygon fill="black" stroke="black" points="480.6,-168.23 472.02,-174.44 482.61,-174.93 480.6,-168.23"/>
</g>
<!-- 243 -->
<g id="node6" class="node">
<title>243</title>
<polygon fill="#f2f2f2" stroke="black" points="511.83,-174.5 511.83,-232.9 868.8,-232.9 868.8,-174.5 511.83,-174.5"/>
<text text-anchor="middle" x="690.32" y="-216.3" font-family="Times,serif" font-size="14.00">&lt;&lt;Interface&gt;&gt;</text>
<text text-anchor="middle" x="690.32" y="-199.5" font-family="Times,serif" font-size="14.00">IUniswapUniversalRouter</text>
<text text-anchor="middle" x="690.32" y="-182.7" font-family="Times,serif" font-size="14.00">../contracts/interfaces/uniswap/IUniswapUniversalRouter.sol</text>
</g>
<!-- 0&#45;&gt;243 -->
<g id="edge4" class="edge">
<title>0&#45;&gt;243</title>
<path fill="none" stroke="black" stroke-dasharray="5,2" d="M690.32,-137.58C690.32,-145.91 690.32,-155.18 690.32,-164.05"/>
<polygon fill="black" stroke="black" points="686.82,-164.2 690.32,-174.2 693.82,-164.2 686.82,-164.2"/>
</g>
<!-- 194 -->
<g id="node7" class="node">
<title>194</title>
<polygon fill="#f2f2f2" stroke="black" points="886.31,-174.5 886.31,-232.9 1082.32,-232.9 1082.32,-174.5 886.31,-174.5"/>
<text text-anchor="middle" x="984.32" y="-216.3" font-family="Times,serif" font-size="14.00">&lt;&lt;Abstract&gt;&gt;</text>
<text text-anchor="middle" x="984.32" y="-199.5" font-family="Times,serif" font-size="14.00">Initializable</text>
<text text-anchor="middle" x="984.32" y="-182.7" font-family="Times,serif" font-size="14.00">../contracts/utils/Initializable.sol</text>
</g>
<!-- 0&#45;&gt;194 -->
<g id="edge1" class="edge">
<title>0&#45;&gt;194</title>
<path fill="none" stroke="black" d="M779.32,-137.58C806.75,-146.29 837.38,-156.02 866.43,-165.25"/>
<polygon fill="none" stroke="black" points="863.59,-175.36 895.36,-174.44 869.94,-155.35 863.59,-175.36"/>
</g>
<!-- 392 -->
<g id="node8" class="node">
<title>392</title>
<polygon fill="#f2f2f2" stroke="black" points="1100.26,-174.5 1100.26,-232.9 1504.37,-232.9 1504.37,-174.5 1100.26,-174.5"/>
<text text-anchor="middle" x="1302.32" y="-216.3" font-family="Times,serif" font-size="14.00">&lt;&lt;Interface&gt;&gt;</text>
<text text-anchor="middle" x="1302.32" y="-199.5" font-family="Times,serif" font-size="14.00">IERC20</text>
<text text-anchor="middle" x="1302.32" y="-182.7" font-family="Times,serif" font-size="14.00">../node_modules/@openzeppelin/contracts/token/ERC20/IERC20.sol</text>
</g>
<!-- 0&#45;&gt;392 -->
<g id="edge3" class="edge">
<title>0&#45;&gt;392</title>
<path fill="none" stroke="black" stroke-dasharray="5,2" d="M805.07,-126.81C890.06,-139.78 1007.92,-157.77 1107.56,-172.98"/>
<polygon fill="black" stroke="black" points="1107.03,-176.44 1117.45,-174.49 1108.09,-169.52 1107.03,-176.44"/>
</g>
<!-- 2 -->
<g id="node2" class="node">
<title>2</title>
<polygon fill="#f2f2f2" stroke="black" points="570.14,-0.5 570.14,-42.1 810.49,-42.1 810.49,-0.5 570.14,-0.5"/>
<text text-anchor="middle" x="690.32" y="-25.5" font-family="Times,serif" font-size="14.00">OUSDBuyback</text>
<text text-anchor="middle" x="690.32" y="-8.7" font-family="Times,serif" font-size="14.00">../contracts/buyback/OUSDBuyback.sol</text>
</g>
<!-- 2&#45;&gt;0 -->
<g id="edge6" class="edge">
<title>2&#45;&gt;0</title>
<path fill="none" stroke="black" d="M690.32,-42.44C690.32,-44.49 690.32,-46.63 690.32,-48.83"/>
<polygon fill="none" stroke="black" points="679.82,-48.94 690.32,-78.94 700.82,-48.94 679.82,-48.94"/>
</g>
<!-- 20 -->
<g id="node3" class="node">
<title>20</title>
<polygon fill="#f2f2f2" stroke="black" points="3.89,-269.9 3.89,-311.5 238.75,-311.5 238.75,-269.9 3.89,-269.9"/>
<text text-anchor="middle" x="121.32" y="-294.9" font-family="Times,serif" font-size="14.00">Governable</text>
<text text-anchor="middle" x="121.32" y="-278.1" font-family="Times,serif" font-size="14.00">../contracts/governance/Governable.sol</text>
</g>
<!-- 25&#45;&gt;20 -->
<g id="edge7" class="edge">
<title>25&#45;&gt;20</title>
<path fill="none" stroke="black" d="M121.32,-224.84C121.32,-229.4 121.32,-234.43 121.32,-239.61"/>
<polygon fill="none" stroke="black" points="110.82,-239.7 121.32,-269.7 131.82,-239.7 110.82,-239.7"/>
</g>
</g>
</svg>
