<?xml version="1.0" encoding="UTF-8" standalone="no"?>
<!DOCTYPE svg PUBLIC "-//W3C//DTD SVG 1.1//EN"
 "http://www.w3.org/Graphics/SVG/1.1/DTD/svg11.dtd">
<!-- Generated by graphviz version 5.0.0 (20220707.1540)
 -->
<!-- Title: UmlClassDiagram Pages: 1 -->
<svg width="243pt" height="129pt"
 viewBox="0.00 0.00 242.86 129.20" xmlns="http://www.w3.org/2000/svg" xmlns:xlink="http://www.w3.org/1999/xlink">
<g id="graph0" class="graph" transform="scale(1 1) rotate(0) translate(4 125.2)">
<title>UmlClassDiagram</title>
<polygon fill="white" stroke="transparent" points="-4,4 -4,-125.2 238.86,-125.2 238.86,4 -4,4"/>
<!-- 21 -->
<g id="node1" class="node">
<title>21</title>
<polygon fill="#f2f2f2" stroke="black" points="0,-79.1 0,-120.7 234.86,-120.7 234.86,-79.1 0,-79.1"/>
<text text-anchor="middle" x="117.43" y="-104.1" font-family="Times,serif" font-size="14.00">Governable</text>
<text text-anchor="middle" x="117.43" y="-87.3" font-family="Times,serif" font-size="14.00">../contracts/governance/Governable.sol</text>
</g>
<!-- 245 -->
<g id="node2" class="node">
<title>245</title>
<polygon fill="#f2f2f2" stroke="black" points="30.3,-0.5 30.3,-42.1 204.56,-42.1 204.56,-0.5 30.3,-0.5"/>
<text text-anchor="middle" x="117.43" y="-25.5" font-family="Times,serif" font-size="14.00">OUSD</text>
<text text-anchor="middle" x="117.43" y="-8.7" font-family="Times,serif" font-size="14.00">../contracts/token/OUSD.sol</text>
</g>
<!-- 245&#45;&gt;21 -->
<g id="edge1" class="edge">
<title>245&#45;&gt;21</title>
<path fill="none" stroke="black" d="M117.43,-42.43C117.43,-44.45 117.43,-46.56 117.43,-48.73"/>
<polygon fill="none" stroke="black" points="106.93,-48.91 117.43,-78.91 127.93,-48.91 106.93,-48.91"/>
</g>
</g>
</svg>
