<?xml version="1.0" encoding="UTF-8" standalone="no"?>
<!DOCTYPE svg PUBLIC "-//W3C//DTD SVG 1.1//EN"
 "http://www.w3.org/Graphics/SVG/1.1/DTD/svg11.dtd">
<!-- Generated by graphviz version 5.0.0 (20220707.1540)
 -->
<!-- Title: StorageDiagram Pages: 1 -->
<svg width="2819pt" height="218pt"
 viewBox="0.00 0.00 2819.22 218.20" xmlns="http://www.w3.org/2000/svg" xmlns:xlink="http://www.w3.org/1999/xlink">
<g id="graph0" class="graph" transform="scale(1 1) rotate(0) translate(4 214.2)">
<title>StorageDiagram</title>
<polygon fill="white" stroke="transparent" points="-4,4 -4,-214.2 2815.22,-214.2 2815.22,4 -4,4"/>
<!-- 4 -->
<g id="node1" class="node">
<title>4</title>
<polygon fill="#f2f2f2" stroke="black" points="0,-81.5 0,-180.7 796.52,-180.7 796.52,-81.5 0,-81.5"/>
<text text-anchor="middle" x="398.26" y="-164.1" font-family="Courier New" font-size="14.00">PoolBoosterFactorySwapxDouble &lt;&lt;Contract&gt;&gt;</text>
<polyline fill="none" stroke="black" points="0,-155.9 796.52,-155.9 "/>
<text text-anchor="middle" x="24.8" y="-139.3" font-family="Courier New" font-size="14.00">slot</text>
<polyline fill="none" stroke="black" points="0,-131.1 49.61,-131.1 "/>
<text text-anchor="middle" x="24.8" y="-114.5" font-family="Courier New" font-size="14.00">0</text>
<polyline fill="none" stroke="black" points="0,-106.3 49.61,-106.3 "/>
<text text-anchor="middle" x="24.8" y="-89.7" font-family="Courier New" font-size="14.00">1</text>
<polyline fill="none" stroke="black" points="49.61,-81.5 49.61,-155.9 "/>
<text text-anchor="middle" x="423.06" y="-139.3" font-family="Courier New" font-size="14.00">type: &lt;inherited contract&gt;.variable (bytes)</text>
<polyline fill="none" stroke="black" points="49.61,-131.1 796.52,-131.1 "/>
<text text-anchor="middle" x="422.95" y="-114.5" font-family="Courier New" font-size="14.00">PoolBoosterEntry[]: AbstractPoolBoosterFactory.poolBoosters (32)</text>
<polyline fill="none" stroke="black" points="49.61,-106.3 796.52,-106.3 "/>
<text text-anchor="middle" x="423.06" y="-89.7" font-family="Courier New" font-size="14.00">mapping(address=&gt;PoolBoosterEntry): AbstractPoolBoosterFactory.poolBoosterFromPool (32)</text>
</g>
<!-- 2 -->
<g id="node3" class="node">
<title>2</title>
<polygon fill="#f2f2f2" stroke="black" points="1032.95,-118.5 1032.95,-209.7 1603.44,-209.7 1603.44,-118.5 1032.95,-118.5"/>
<text text-anchor="middle" x="1318.2" y="-193.1" font-family="Courier New" font-size="14.00">PoolBoosterEntry[]: poolBoosters &lt;&lt;Array&gt;&gt;</text>
<text text-anchor="middle" x="1318.2" y="-176.3" font-family="Courier New" font-size="14.00">0x290decd9548b62a8d60345a988386fc84ba6bc95484008f6362f93160ef3e563</text>
<polyline fill="none" stroke="black" points="1032.95,-168.1 1603.44,-168.1 "/>
<text text-anchor="middle" x="1141.66" y="-151.5" font-family="Courier New" font-size="14.00">offset</text>
<polyline fill="none" stroke="black" points="1032.95,-143.3 1250.36,-143.3 "/>
<text text-anchor="middle" x="1141.66" y="-126.7" font-family="Courier New" font-size="14.00">0&#45;1</text>
<polyline fill="none" stroke="black" points="1250.36,-118.5 1250.36,-168.1 "/>
<text text-anchor="middle" x="1426.78" y="-151.5" font-family="Courier New" font-size="14.00">type: variable (bytes)</text>
<polyline fill="none" stroke="black" points="1250.36,-143.3 1603.19,-143.3 "/>
<text text-anchor="middle" x="1426.58" y="-126.7" font-family="Courier New" font-size="14.00">PoolBoosterEntry (64)</text>
</g>
<!-- 4&#45;&gt;2 -->
<g id="edge1" class="edge">
<title>4:5&#45;&gt;2</title>
<path fill="none" stroke="black" d="M796.52,-119.1C869.86,-119.1 948.78,-123.59 1022.46,-129.72"/>
<polygon fill="black" stroke="black" points="1022.56,-133.25 1032.82,-130.6 1023.16,-126.27 1022.56,-133.25"/>
</g>
<!-- 3 -->
<g id="node4" class="node">
<title>3</title>
<polygon fill="#f2f2f2" stroke="black" points="832.52,-0.5 832.52,-99.7 1803.87,-99.7 1803.87,-0.5 832.52,-0.5"/>
<text text-anchor="middle" x="1318.2" y="-83.1" font-family="Courier New" font-size="14.00">PoolBoosterEntry &lt;&lt;Struct&gt;&gt;</text>
<polyline fill="none" stroke="black" points="832.52,-74.9 1803.87,-74.9 "/>
<text text-anchor="middle" x="865.73" y="-58.3" font-family="Courier New" font-size="14.00">offset</text>
<polyline fill="none" stroke="black" points="832.52,-50.1 898.93,-50.1 "/>
<text text-anchor="middle" x="865.73" y="-33.5" font-family="Courier New" font-size="14.00">0</text>
<polyline fill="none" stroke="black" points="832.52,-25.3 898.93,-25.3 "/>
<text text-anchor="middle" x="865.73" y="-8.7" font-family="Courier New" font-size="14.00">1</text>
<polyline fill="none" stroke="black" points="898.93,-0.5 898.93,-74.9 "/>
<text text-anchor="middle" x="1351.4" y="-58.3" font-family="Courier New" font-size="14.00">type: variable (bytes)</text>
<polyline fill="none" stroke="black" points="898.93,-50.1 1803.87,-50.1 "/>
<text text-anchor="middle" x="1099.64" y="-33.5" font-family="Courier New" font-size="14.00">unallocated (12)</text>
<polyline fill="none" stroke="black" points="1300.35,-25.3 1300.35,-50.1 "/>
<text text-anchor="middle" x="1551.97" y="-33.5" font-family="Courier New" font-size="14.00">address: boosterAddress (20)</text>
<polyline fill="none" stroke="black" points="898.93,-25.3 1803.87,-25.3 "/>
<text text-anchor="middle" x="974.14" y="-8.7" font-family="Courier New" font-size="14.00">unallocated (11)</text>
<polyline fill="none" stroke="black" points="1049.35,-0.5 1049.35,-25.3 "/>
<text text-anchor="middle" x="1300.99" y="-8.7" font-family="Courier New" font-size="14.00">IPoolBoostCentralRegistry.PoolBoosterType: boosterType (1)</text>
<polyline fill="none" stroke="black" points="1552.63,-0.5 1552.63,-25.3 "/>
<text text-anchor="middle" x="1678.25" y="-8.7" font-family="Courier New" font-size="14.00">address: ammPoolAddress (20)</text>
</g>
<!-- 4&#45;&gt;3 -->
<g id="edge2" class="edge">
<title>4:9&#45;&gt;3</title>
<path fill="none" stroke="black" d="M796.52,-94.1C805,-94.1 813.55,-94.04 822.16,-93.93"/>
<polygon fill="black" stroke="black" points="822.35,-97.43 832.29,-93.77 822.24,-90.43 822.35,-97.43"/>
</g>
<!-- 1 -->
<g id="node2" class="node">
<title>1</title>
<polygon fill="#f2f2f2" stroke="black" points="1839.87,-73.1 1839.87,-189.1 2811.22,-189.1 2811.22,-73.1 1839.87,-73.1"/>
<text text-anchor="middle" x="2325.55" y="-172.5" font-family="Courier New" font-size="14.00">PoolBoosterEntry &lt;&lt;Struct&gt;&gt;</text>
<text text-anchor="middle" x="2325.55" y="-155.7" font-family="Courier New" font-size="14.00">0x290decd9548b62a8d60345a988386fc84ba6bc95484008f6362f93160ef3e563</text>
<polyline fill="none" stroke="black" points="1839.87,-147.5 2811.22,-147.5 "/>
<text text-anchor="middle" x="1873.08" y="-130.9" font-family="Courier New" font-size="14.00">offset</text>
<polyline fill="none" stroke="black" points="1839.87,-122.7 1906.28,-122.7 "/>
<text text-anchor="middle" x="1873.08" y="-106.1" font-family="Courier New" font-size="14.00">0</text>
<polyline fill="none" stroke="black" points="1839.87,-97.9 1906.28,-97.9 "/>
<text text-anchor="middle" x="1873.08" y="-81.3" font-family="Courier New" font-size="14.00">1</text>
<polyline fill="none" stroke="black" points="1906.28,-73.1 1906.28,-147.5 "/>
<text text-anchor="middle" x="2358.75" y="-130.9" font-family="Courier New" font-size="14.00">type: variable (bytes)</text>
<polyline fill="none" stroke="black" points="1906.28,-122.7 2811.22,-122.7 "/>
<text text-anchor="middle" x="2106.99" y="-106.1" font-family="Courier New" font-size="14.00">unallocated (12)</text>
<polyline fill="none" stroke="black" points="2307.7,-97.9 2307.7,-122.7 "/>
<text text-anchor="middle" x="2559.32" y="-106.1" font-family="Courier New" font-size="14.00">address: boosterAddress (20)</text>
<polyline fill="none" stroke="black" points="1906.28,-97.9 2811.22,-97.9 "/>
<text text-anchor="middle" x="1981.49" y="-81.3" font-family="Courier New" font-size="14.00">unallocated (11)</text>
<polyline fill="none" stroke="black" points="2056.7,-73.1 2056.7,-97.9 "/>
<text text-anchor="middle" x="2308.34" y="-81.3" font-family="Courier New" font-size="14.00">IPoolBoostCentralRegistry.PoolBoosterType: boosterType (1)</text>
<polyline fill="none" stroke="black" points="2559.98,-73.1 2559.98,-97.9 "/>
<text text-anchor="middle" x="2685.6" y="-81.3" font-family="Courier New" font-size="14.00">address: ammPoolAddress (20)</text>
</g>
<!-- 2&#45;&gt;1 -->
<g id="edge3" class="edge">
<title>2:4&#45;&gt;1</title>
<path fill="none" stroke="black" d="M1604.2,-131.1C1677.06,-131.1 1754.06,-131.1 1829.55,-131.1"/>
<polygon fill="black" stroke="black" points="1829.71,-134.6 1839.71,-131.1 1829.71,-127.6 1829.71,-134.6"/>
</g>
</g>
</svg>
