<?xml version="1.0" encoding="UTF-8" standalone="no"?>
<!DOCTYPE svg PUBLIC "-//W3C//DTD SVG 1.1//EN"
 "http://www.w3.org/Graphics/SVG/1.1/DTD/svg11.dtd">
<!-- Generated by graphviz version 5.0.0 (20220707.1540)
 -->
<!-- Title: UmlClassDiagram Pages: 1 -->
<svg width="2106pt" height="250pt"
 viewBox="0.00 0.00 2105.55 249.60" xmlns="http://www.w3.org/2000/svg" xmlns:xlink="http://www.w3.org/1999/xlink">
<g id="graph0" class="graph" transform="scale(1 1) rotate(0) translate(4 245.6)">
<title>UmlClassDiagram</title>
<polygon fill="white" stroke="transparent" points="-4,4 -4,-245.6 2101.55,-245.6 2101.55,4 -4,4"/>
<!-- 40 -->
<g id="node1" class="node">
<title>40</title>
<polygon fill="#f2f2f2" stroke="black" points="401.29,-182.7 401.29,-241.1 636.15,-241.1 636.15,-182.7 401.29,-182.7"/>
<text text-anchor="middle" x="518.72" y="-224.5" font-family="Times,serif" font-size="14.00">&lt;&lt;Abstract&gt;&gt;</text>
<text text-anchor="middle" x="518.72" y="-207.7" font-family="Times,serif" font-size="14.00">Governable</text>
<text text-anchor="middle" x="518.72" y="-190.9" font-family="Times,serif" font-size="14.00">../contracts/governance/Governable.sol</text>
</g>
<!-- 339 -->
<g id="node2" class="node">
<title>339</title>
<polygon fill="#f2f2f2" stroke="black" points="0,-182.7 0,-241.1 383.44,-241.1 383.44,-182.7 0,-182.7"/>
<text text-anchor="middle" x="191.72" y="-224.5" font-family="Times,serif" font-size="14.00">&lt;&lt;Interface&gt;&gt;</text>
<text text-anchor="middle" x="191.72" y="-207.7" font-family="Times,serif" font-size="14.00">IPoolBoostCentralRegistry</text>
<text text-anchor="middle" x="191.72" y="-190.9" font-family="Times,serif" font-size="14.00">../contracts/interfaces/poolBooster/IPoolBoostCentralRegistry.sol</text>
</g>
<!-- 342 -->
<g id="node3" class="node">
<title>342</title>
<polygon fill="#f2f2f2" stroke="black" points="681.89,-182.7 681.89,-241.1 987.55,-241.1 987.55,-182.7 681.89,-182.7"/>
<text text-anchor="middle" x="834.72" y="-224.5" font-family="Times,serif" font-size="14.00">&lt;&lt;Interface&gt;&gt;</text>
<text text-anchor="middle" x="834.72" y="-207.7" font-family="Times,serif" font-size="14.00">IPoolBooster</text>
<text text-anchor="middle" x="834.72" y="-190.9" font-family="Times,serif" font-size="14.00">../contracts/interfaces/poolBooster/IPoolBooster.sol</text>
</g>
<!-- 343 -->
<g id="node4" class="node">
<title>343</title>
<polygon fill="#f2f2f2" stroke="black" points="1005.79,-182.7 1005.79,-241.1 1359.65,-241.1 1359.65,-182.7 1005.79,-182.7"/>
<text text-anchor="middle" x="1182.72" y="-224.5" font-family="Times,serif" font-size="14.00">&lt;&lt;Interface&gt;&gt;</text>
<text text-anchor="middle" x="1182.72" y="-207.7" font-family="Times,serif" font-size="14.00">IBribe</text>
<text text-anchor="middle" x="1182.72" y="-190.9" font-family="Times,serif" font-size="14.00">../contracts/interfaces/poolBooster/ISwapXAlgebraBribe.sol</text>
</g>
<!-- 133 -->
<g id="node5" class="node">
<title>133</title>
<polygon fill="#f2f2f2" stroke="black" points="352.27,-80.1 352.27,-121.7 685.17,-121.7 685.17,-80.1 352.27,-80.1"/>
<text text-anchor="middle" x="518.72" y="-105.1" font-family="Times,serif" font-size="14.00">AbstractPoolBoosterFactory</text>
<text text-anchor="middle" x="518.72" y="-88.3" font-family="Times,serif" font-size="14.00">../contracts/poolBooster/AbstractPoolBoosterFactory.sol</text>
</g>
<!-- 133&#45;&gt;40 -->
<g id="edge1" class="edge">
<title>133&#45;&gt;40</title>
<path fill="none" stroke="black" d="M518.72,-121.89C518.72,-130.64 518.72,-141.4 518.72,-152.38"/>
<polygon fill="none" stroke="black" points="508.22,-152.41 518.72,-182.41 529.22,-152.41 508.22,-152.41"/>
</g>
<!-- 133&#45;&gt;339 -->
<g id="edge2" class="edge">
<title>133&#45;&gt;339</title>
<path fill="none" stroke="black" d="M459.12,-121.77C410.8,-137.87 341.8,-160.87 285.99,-179.48"/>
<polygon fill="black" stroke="black" points="284.83,-176.17 276.45,-182.66 287.04,-182.82 284.83,-176.17"/>
<text text-anchor="start" x="403.72" y="-155.2" font-family="Times,serif" font-size="10.00">emitPoolBoosterCreated</text>
<text text-anchor="start" x="403.72" y="-143.2" font-family="Times,serif" font-size="10.00">emitPoolBoosterRemoved</text>
</g>
<!-- 133&#45;&gt;342 -->
<g id="edge3" class="edge">
<title>133&#45;&gt;342</title>
<path fill="none" stroke="black" stroke-dasharray="5,2" d="M576.31,-121.77C622.91,-137.84 689.41,-160.78 743.28,-179.36"/>
<polygon fill="black" stroke="black" points="742.25,-182.71 752.84,-182.66 744.53,-176.09 742.25,-182.71"/>
<text text-anchor="start" x="695.72" y="-149.2" font-family="Times,serif" font-size="10.00">bribe</text>
</g>
<!-- 138 -->
<g id="node6" class="node">
<title>138</title>
<polygon fill="#f2f2f2" stroke="black" points="336.32,-0.5 336.32,-42.1 701.12,-42.1 701.12,-0.5 336.32,-0.5"/>
<text text-anchor="middle" x="518.72" y="-25.5" font-family="Times,serif" font-size="14.00">PoolBoosterFactorySwapxDouble</text>
<text text-anchor="middle" x="518.72" y="-8.7" font-family="Times,serif" font-size="14.00">../contracts/poolBooster/PoolBoosterFactorySwapxDouble.sol</text>
</g>
<!-- 138&#45;&gt;339 -->
<g id="edge6" class="edge">
<title>138&#45;&gt;339</title>
<path fill="none" stroke="black" stroke-dasharray="5,2" d="M435.74,-42.14C405.66,-51.2 372.11,-63.55 343.72,-79.6 298.1,-105.38 253.67,-146.14 224.74,-175.4"/>
<polygon fill="black" stroke="black" points="222.22,-172.98 217.73,-182.58 227.22,-177.87 222.22,-172.98"/>
</g>
<!-- 138&#45;&gt;133 -->
<g id="edge4" class="edge">
<title>138&#45;&gt;133</title>
<path fill="none" stroke="black" d="M518.72,-42.28C518.72,-44.73 518.72,-47.3 518.72,-49.95"/>
<polygon fill="none" stroke="black" points="508.22,-49.98 518.72,-79.98 529.22,-49.98 508.22,-49.98"/>
</g>
<!-- 146 -->
<g id="node7" class="node">
<title>146</title>
<polygon fill="#f2f2f2" stroke="black" points="702.7,-80.1 702.7,-121.7 1024.73,-121.7 1024.73,-80.1 702.7,-80.1"/>
<text text-anchor="middle" x="863.72" y="-105.1" font-family="Times,serif" font-size="14.00">PoolBoosterSwapxDouble</text>
<text text-anchor="middle" x="863.72" y="-88.3" font-family="Times,serif" font-size="14.00">../contracts/poolBooster/PoolBoosterSwapxDouble.sol</text>
</g>
<!-- 138&#45;&gt;146 -->
<g id="edge5" class="edge">
<title>138&#45;&gt;146</title>
<path fill="none" stroke="black" stroke-dasharray="5,2" d="M607.12,-42.18C655.59,-53.09 715.8,-66.63 765.71,-77.86"/>
<polygon fill="black" stroke="black" points="765.03,-81.29 775.55,-80.07 766.56,-74.46 765.03,-81.29"/>
</g>
<!-- 146&#45;&gt;342 -->
<g id="edge7" class="edge">
<title>146&#45;&gt;342</title>
<path fill="none" stroke="black" stroke-dasharray="5,2" d="M858.4,-121.89C856,-130.9 853.04,-142.05 850.02,-153.38"/>
<polygon fill="none" stroke="black" points="839.86,-150.72 842.3,-182.41 860.16,-156.12 839.86,-150.72"/>
</g>
<!-- 146&#45;&gt;343 -->
<g id="edge8" class="edge">
<title>146&#45;&gt;343</title>
<path fill="none" stroke="black" d="M921.86,-121.77C968.9,-137.84 1036.03,-160.78 1090.41,-179.36"/>
<polygon fill="black" stroke="black" points="1089.47,-182.74 1100.06,-182.66 1091.73,-176.11 1089.47,-182.74"/>
<text text-anchor="start" x="1042.72" y="-149.2" font-family="Times,serif" font-size="10.00">notifyRewardAmount</text>
</g>
<!-- 1369 -->
<g id="node8" class="node">
<title>1369</title>
<polygon fill="#f2f2f2" stroke="black" points="1377.88,-182.7 1377.88,-241.1 2097.55,-241.1 2097.55,-182.7 1377.88,-182.7"/>
<text text-anchor="middle" x="1737.72" y="-224.5" font-family="Times,serif" font-size="14.00">&lt;&lt;Interface&gt;&gt;</text>
<text text-anchor="middle" x="1737.72" y="-207.7" font-family="Times,serif" font-size="14.00">IERC20</text>
<text text-anchor="middle" x="1737.72" y="-190.9" font-family="Times,serif" font-size="14.00">../node_modules/.pnpm/@openzeppelin+contracts@4.4.2/node_modules/@openzeppelin/contracts/token/ERC20/IERC20.sol</text>
</g>
<!-- 146&#45;&gt;1369 -->
<g id="edge9" class="edge">
<title>146&#45;&gt;1369</title>
<path fill="none" stroke="black" d="M1022.5,-121.7C1156.26,-138.38 1349.54,-162.49 1501.47,-181.44"/>
<polygon fill="black" stroke="black" points="1501.06,-184.91 1511.41,-182.68 1501.92,-177.97 1501.06,-184.91"/>
<text text-anchor="start" x="1353.72" y="-155.2" font-family="Times,serif" font-size="10.00">approve</text>
<text text-anchor="start" x="1353.72" y="-143.2" font-family="Times,serif" font-size="10.00">balanceOf</text>
</g>
</g>
</svg>
