<?xml version="1.0" encoding="UTF-8" standalone="no"?>
<!DOCTYPE svg PUBLIC "-//W3C//DTD SVG 1.1//EN"
 "http://www.w3.org/Graphics/SVG/1.1/DTD/svg11.dtd">
<!-- Generated by graphviz version 5.0.0 (20220707.1540)
 -->
<!-- Title: UmlClassDiagram Pages: 1 -->
<svg width="2105pt" height="250pt"
 viewBox="0.00 0.00 2104.55 249.60" xmlns="http://www.w3.org/2000/svg" xmlns:xlink="http://www.w3.org/1999/xlink">
<g id="graph0" class="graph" transform="scale(1 1) rotate(0) translate(4 245.6)">
<title>UmlClassDiagram</title>
<polygon fill="white" stroke="transparent" points="-4,4 -4,-245.6 2100.55,-245.6 2100.55,4 -4,4"/>
<!-- 40 -->
<g id="node1" class="node">
<title>40</title>
<polygon fill="#f2f2f2" stroke="black" points="401.29,-182.7 401.29,-241.1 636.15,-241.1 636.15,-182.7 401.29,-182.7"/>
<text text-anchor="middle" x="518.72" y="-224.5" font-family="Times,serif" font-size="14.00">&lt;&lt;Abstract&gt;&gt;</text>
<text text-anchor="middle" x="518.72" y="-207.7" font-family="Times,serif" font-size="14.00">Governable</text>
<text text-anchor="middle" x="518.72" y="-190.9" font-family="Times,serif" font-size="14.00">../contracts/governance/Governable.sol</text>
</g>
<!-- 339 -->
<g id="node2" class="node">
<title>339</title>
<polygon fill="#f2f2f2" stroke="black" points="0,-182.7 0,-241.1 383.44,-241.1 383.44,-182.7 0,-182.7"/>
<text text-anchor="middle" x="191.72" y="-224.5" font-family="Times,serif" font-size="14.00">&lt;&lt;Interface&gt;&gt;</text>
<text text-anchor="middle" x="191.72" y="-207.7" font-family="Times,serif" font-size="14.00">IPoolBoostCentralRegistry</text>
<text text-anchor="middle" x="191.72" y="-190.9" font-family="Times,serif" font-size="14.00">../contracts/interfaces/poolBooster/IPoolBoostCentralRegistry.sol</text>
</g>
<!-- 342 -->
<g id="node3" class="node">
<title>342</title>
<polygon fill="#f2f2f2" stroke="black" points="680.89,-182.7 680.89,-241.1 986.55,-241.1 986.55,-182.7 680.89,-182.7"/>
<text text-anchor="middle" x="833.72" y="-224.5" font-family="Times,serif" font-size="14.00">&lt;&lt;Interface&gt;&gt;</text>
<text text-anchor="middle" x="833.72" y="-207.7" font-family="Times,serif" font-size="14.00">IPoolBooster</text>
<text text-anchor="middle" x="833.72" y="-190.9" font-family="Times,serif" font-size="14.00">../contracts/interfaces/poolBooster/IPoolBooster.sol</text>
</g>
<!-- 343 -->
<g id="node4" class="node">
<title>343</title>
<polygon fill="#f2f2f2" stroke="black" points="1004.79,-182.7 1004.79,-241.1 1358.65,-241.1 1358.65,-182.7 1004.79,-182.7"/>
<text text-anchor="middle" x="1181.72" y="-224.5" font-family="Times,serif" font-size="14.00">&lt;&lt;Interface&gt;&gt;</text>
<text text-anchor="middle" x="1181.72" y="-207.7" font-family="Times,serif" font-size="14.00">IBribe</text>
<text text-anchor="middle" x="1181.72" y="-190.9" font-family="Times,serif" font-size="14.00">../contracts/interfaces/poolBooster/ISwapXAlgebraBribe.sol</text>
</g>
<!-- 133 -->
<g id="node5" class="node">
<title>133</title>
<polygon fill="#f2f2f2" stroke="black" points="352.27,-80.1 352.27,-121.7 685.17,-121.7 685.17,-80.1 352.27,-80.1"/>
<text text-anchor="middle" x="518.72" y="-105.1" font-family="Times,serif" font-size="14.00">AbstractPoolBoosterFactory</text>
<text text-anchor="middle" x="518.72" y="-88.3" font-family="Times,serif" font-size="14.00">../contracts/poolBooster/AbstractPoolBoosterFactory.sol</text>
</g>
<!-- 133&#45;&gt;40 -->
<g id="edge1" class="edge">
<title>133&#45;&gt;40</title>
<path fill="none" stroke="black" d="M518.72,-121.89C518.72,-130.64 518.72,-141.4 518.72,-152.38"/>
<polygon fill="none" stroke="black" points="508.22,-152.41 518.72,-182.41 529.22,-152.41 508.22,-152.41"/>
</g>
<!-- 133&#45;&gt;339 -->
<g id="edge2" class="edge">
<title>133&#45;&gt;339</title>
<path fill="none" stroke="black" d="M459.12,-121.77C410.8,-137.87 341.8,-160.87 285.99,-179.48"/>
<polygon fill="black" stroke="black" points="284.83,-176.17 276.45,-182.66 287.04,-182.82 284.83,-176.17"/>
<text text-anchor="start" x="403.72" y="-155.2" font-family="Times,serif" font-size="10.00">emitPoolBoosterCreated</text>
<text text-anchor="start" x="403.72" y="-143.2" font-family="Times,serif" font-size="10.00">emitPoolBoosterRemoved</text>
</g>
<!-- 133&#45;&gt;342 -->
<g id="edge3" class="edge">
<title>133&#45;&gt;342</title>
<path fill="none" stroke="black" stroke-dasharray="5,2" d="M576.13,-121.77C622.58,-137.84 688.87,-160.78 742.57,-179.36"/>
<polygon fill="black" stroke="black" points="741.51,-182.69 752.1,-182.66 743.8,-176.08 741.51,-182.69"/>
<text text-anchor="start" x="695.72" y="-149.2" font-family="Times,serif" font-size="10.00">bribe</text>
</g>
<!-- 139 -->
<g id="node6" class="node">
<title>139</title>
<polygon fill="#f2f2f2" stroke="black" points="339.04,-0.5 339.04,-42.1 698.4,-42.1 698.4,-0.5 339.04,-0.5"/>
<text text-anchor="middle" x="518.72" y="-25.5" font-family="Times,serif" font-size="14.00">PoolBoosterFactorySwapxSingle</text>
<text text-anchor="middle" x="518.72" y="-8.7" font-family="Times,serif" font-size="14.00">../contracts/poolBooster/PoolBoosterFactorySwapxSingle.sol</text>
</g>
<!-- 139&#45;&gt;339 -->
<g id="edge6" class="edge">
<title>139&#45;&gt;339</title>
<path fill="none" stroke="black" stroke-dasharray="5,2" d="M435.74,-42.14C405.66,-51.2 372.11,-63.55 343.72,-79.6 298.1,-105.38 253.67,-146.14 224.74,-175.4"/>
<polygon fill="black" stroke="black" points="222.22,-172.98 217.73,-182.58 227.22,-177.87 222.22,-172.98"/>
</g>
<!-- 139&#45;&gt;133 -->
<g id="edge4" class="edge">
<title>139&#45;&gt;133</title>
<path fill="none" stroke="black" d="M518.72,-42.28C518.72,-44.73 518.72,-47.3 518.72,-49.95"/>
<polygon fill="none" stroke="black" points="508.22,-49.98 518.72,-79.98 529.22,-49.98 508.22,-49.98"/>
</g>
<!-- 147 -->
<g id="node7" class="node">
<title>147</title>
<polygon fill="#f2f2f2" stroke="black" points="703.42,-80.1 703.42,-121.7 1020.02,-121.7 1020.02,-80.1 703.42,-80.1"/>
<text text-anchor="middle" x="861.72" y="-105.1" font-family="Times,serif" font-size="14.00">PoolBoosterSwapxSingle</text>
<text text-anchor="middle" x="861.72" y="-88.3" font-family="Times,serif" font-size="14.00">../contracts/poolBooster/PoolBoosterSwapxSingle.sol</text>
</g>
<!-- 139&#45;&gt;147 -->
<g id="edge5" class="edge">
<title>139&#45;&gt;147</title>
<path fill="none" stroke="black" stroke-dasharray="5,2" d="M606.6,-42.18C654.8,-53.09 714.66,-66.63 764.28,-77.86"/>
<polygon fill="black" stroke="black" points="763.54,-81.28 774.06,-80.07 765.08,-74.45 763.54,-81.28"/>
</g>
<!-- 147&#45;&gt;342 -->
<g id="edge7" class="edge">
<title>147&#45;&gt;342</title>
<path fill="none" stroke="black" stroke-dasharray="5,2" d="M856.58,-121.89C854.3,-130.77 851.49,-141.73 848.62,-152.88"/>
<polygon fill="none" stroke="black" points="838.33,-150.74 841.04,-182.41 858.67,-155.97 838.33,-150.74"/>
</g>
<!-- 147&#45;&gt;343 -->
<g id="edge8" class="edge">
<title>147&#45;&gt;343</title>
<path fill="none" stroke="black" d="M920.04,-121.77C967.23,-137.84 1034.57,-160.78 1089.12,-179.36"/>
<polygon fill="black" stroke="black" points="1088.21,-182.75 1098.81,-182.66 1090.47,-176.12 1088.21,-182.75"/>
<text text-anchor="start" x="1041.72" y="-149.2" font-family="Times,serif" font-size="10.00">notifyRewardAmount</text>
</g>
<!-- 1369 -->
<g id="node8" class="node">
<title>1369</title>
<polygon fill="#f2f2f2" stroke="black" points="1376.88,-182.7 1376.88,-241.1 2096.55,-241.1 2096.55,-182.7 1376.88,-182.7"/>
<text text-anchor="middle" x="1736.72" y="-224.5" font-family="Times,serif" font-size="14.00">&lt;&lt;Interface&gt;&gt;</text>
<text text-anchor="middle" x="1736.72" y="-207.7" font-family="Times,serif" font-size="14.00">IERC20</text>
<text text-anchor="middle" x="1736.72" y="-190.9" font-family="Times,serif" font-size="14.00">../node_modules/.pnpm/@openzeppelin+contracts@4.4.2/node_modules/@openzeppelin/contracts/token/ERC20/IERC20.sol</text>
</g>
<!-- 147&#45;&gt;1369 -->
<g id="edge9" class="edge">
<title>147&#45;&gt;1369</title>
<path fill="none" stroke="black" d="M1020.18,-121.64C1154.14,-138.33 1348.02,-162.48 1500.34,-181.45"/>
<polygon fill="black" stroke="black" points="1499.95,-184.93 1510.31,-182.7 1500.82,-177.99 1499.95,-184.93"/>
<text text-anchor="start" x="1351.72" y="-155.2" font-family="Times,serif" font-size="10.00">approve</text>
<text text-anchor="start" x="1351.72" y="-143.2" font-family="Times,serif" font-size="10.00">balanceOf</text>
</g>
</g>
</svg>
