<?xml version="1.0" encoding="UTF-8" standalone="no"?>
<!DOCTYPE svg PUBLIC "-//W3C//DTD SVG 1.1//EN"
 "http://www.w3.org/Graphics/SVG/1.1/DTD/svg11.dtd">
<!-- Generated by graphviz version 5.0.0 (20220707.1540)
 -->
<!-- Title: UmlClassDiagram Pages: 1 -->
<svg width="858pt" height="557pt"
 viewBox="0.00 0.00 858.44 556.80" xmlns="http://www.w3.org/2000/svg" xmlns:xlink="http://www.w3.org/1999/xlink">
<g id="graph0" class="graph" transform="scale(1 1) rotate(0) translate(4 552.8)">
<title>UmlClassDiagram</title>
<polygon fill="white" stroke="transparent" points="-4,4 -4,-552.8 854.44,-552.8 854.44,4 -4,4"/>
<!-- 58 -->
<g id="node1" class="node">
<title>58</title>
<polygon fill="#f2f2f2" stroke="black" points="0,-196.2 0,-237.8 97.31,-237.8 97.31,-196.2 0,-196.2"/>
<text text-anchor="middle" x="48.66" y="-221.2" font-family="Times,serif" font-size="14.00">&lt;&lt;Interface&gt;&gt;</text>
<text text-anchor="middle" x="48.66" y="-204.4" font-family="Times,serif" font-size="14.00">IBasicToken</text>
</g>
<!-- 90 -->
<g id="node2" class="node">
<title>90</title>
<polygon fill="#f2f2f2" stroke="black" points="298,-196.2 298,-237.8 395.31,-237.8 395.31,-196.2 298,-196.2"/>
<text text-anchor="middle" x="346.66" y="-221.2" font-family="Times,serif" font-size="14.00">&lt;&lt;Interface&gt;&gt;</text>
<text text-anchor="middle" x="346.66" y="-204.4" font-family="Times,serif" font-size="14.00">IVault</text>
</g>
<!-- 276 -->
<g id="node7" class="node">
<title>276</title>
<polygon fill="#f2f2f2" stroke="black" points="300.15,-325.5 300.15,-367.1 395.16,-367.1 395.16,-325.5 300.15,-325.5"/>
<text text-anchor="middle" x="347.66" y="-350.5" font-family="Times,serif" font-size="14.00">&lt;&lt;Abstract&gt;&gt;</text>
<text text-anchor="middle" x="347.66" y="-333.7" font-family="Times,serif" font-size="14.00">VaultStorage</text>
</g>
<!-- 90&#45;&gt;276 -->
<g id="edge1" class="edge">
<title>90&#45;&gt;276</title>
<path fill="none" stroke="black" stroke-dasharray="5,2" d="M346.81,-237.89C346.97,-258.51 347.23,-291 347.42,-314.85"/>
<polygon fill="black" stroke="black" points="343.92,-315.16 347.5,-325.13 350.92,-315.1 343.92,-315.16"/>
</g>
<!-- 320 -->
<g id="node3" class="node">
<title>320</title>
<polygon fill="#f2f2f2" stroke="black" points="451.73,-196.2 451.73,-237.8 555.58,-237.8 555.58,-196.2 451.73,-196.2"/>
<text text-anchor="middle" x="503.66" y="-221.2" font-family="Times,serif" font-size="14.00">&lt;&lt;Interface&gt;&gt;</text>
<text text-anchor="middle" x="503.66" y="-204.4" font-family="Times,serif" font-size="14.00">IBridgeAdapter</text>
</g>
<!-- 439 -->
<g id="node4" class="node">
<title>439</title>
<polygon fill="#f2f2f2" stroke="black" points="573.39,-196.2 573.39,-237.8 709.93,-237.8 709.93,-196.2 573.39,-196.2"/>
<text text-anchor="middle" x="641.66" y="-221.2" font-family="Times,serif" font-size="14.00">&lt;&lt;Library&gt;&gt;</text>
<text text-anchor="middle" x="641.66" y="-204.4" font-family="Times,serif" font-size="14.00">CrossChainV3Helper</text>
</g>
<!-- 442 -->
<g id="node5" class="node">
<title>442</title>
<polygon fill="#f2f2f2" stroke="black" points="304.01,-0.5 304.01,-36.5 469.3,-36.5 469.3,-0.5 304.01,-0.5"/>
<text text-anchor="middle" x="386.66" y="-14.4" font-family="Times,serif" font-size="14.00">RemoteWOTokenStrategy</text>
</g>
<!-- 442&#45;&gt;58 -->
<g id="edge8" class="edge">
<title>442&#45;&gt;58</title>
<path fill="none" stroke="black" stroke-dasharray="5,2" d="M303.78,-23.89C217.43,-29.25 92.42,-39.57 76.11,-55 40.78,-88.44 40.47,-149.37 44.12,-185.92"/>
<polygon fill="black" stroke="black" points="40.65,-186.45 45.28,-195.99 47.61,-185.65 40.65,-186.45"/>
<text text-anchor="start" x="76.66" y="-112" font-family="Times,serif" font-size="10.00">decimals</text>
</g>
<!-- 442&#45;&gt;90 -->
<g id="edge5" class="edge">
<title>442&#45;&gt;90</title>
<path fill="none" stroke="black" stroke-dasharray="5,2" d="M365.6,-36.77C360.57,-42.06 355.84,-48.27 353,-55 335,-97.68 337.63,-152.5 341.74,-185.91"/>
<polygon fill="black" stroke="black" points="338.29,-186.52 343.1,-195.96 345.22,-185.58 338.29,-186.52"/>
<text text-anchor="start" x="353.66" y="-118" font-family="Times,serif" font-size="10.00">mint</text>
<text text-anchor="start" x="353.66" y="-106" font-family="Times,serif" font-size="10.00">strategistAddr</text>
</g>
<!-- 442&#45;&gt;320 -->
<g id="edge3" class="edge">
<title>442&#45;&gt;320</title>
<path fill="none" stroke="black" stroke-dasharray="5,2" d="M417.38,-36.65C424.72,-41.83 432.06,-48.01 437.66,-55 469.43,-94.62 487.93,-151.63 496.89,-186.11"/>
<polygon fill="black" stroke="black" points="493.56,-187.19 499.37,-196.04 500.35,-185.49 493.56,-187.19"/>
<text text-anchor="start" x="493.66" y="-124" font-family="Times,serif" font-size="10.00">maxTransferAmount</text>
<text text-anchor="start" x="493.66" y="-112" font-family="Times,serif" font-size="10.00">minTransferAmount</text>
<text text-anchor="start" x="493.66" y="-100" font-family="Times,serif" font-size="10.00">quoteFee</text>
</g>
<!-- 442&#45;&gt;439 -->
<g id="edge2" class="edge">
<title>442&#45;&gt;439</title>
<path fill="none" stroke="black" stroke-dasharray="5,2" d="M469.41,-26.4C514.49,-31.71 564.51,-40.64 581.66,-55 584.31,-57.22 614.59,-140.66 631.09,-186.52"/>
<polygon fill="black" stroke="black" points="627.8,-187.74 634.48,-195.96 634.39,-185.37 627.8,-187.74"/>
<text text-anchor="start" x="626.66" y="-166" font-family="Times,serif" font-size="10.00">BridgeUserPayload</text>
<text text-anchor="start" x="626.66" y="-154" font-family="Times,serif" font-size="10.00">decodeBridgeUserPayload</text>
<text text-anchor="start" x="626.66" y="-142" font-family="Times,serif" font-size="10.00">decodeUint256</text>
<text text-anchor="start" x="626.66" y="-130" font-family="Times,serif" font-size="10.00">encodeBalanceCheckResponsePayload</text>
<text text-anchor="start" x="626.66" y="-118" font-family="Times,serif" font-size="10.00">encodeBridgeUserPayload</text>
<text text-anchor="start" x="626.66" y="-106" font-family="Times,serif" font-size="10.00">encodeUint256</text>
<text text-anchor="start" x="626.66" y="-94" font-family="Times,serif" font-size="10.00">encodeWithdrawClaimAckPayload</text>
<text text-anchor="start" x="626.66" y="-82" font-family="Times,serif" font-size="10.00">encodeWithdrawRequestAckPayload</text>
<text text-anchor="start" x="626.66" y="-70" font-family="Times,serif" font-size="10.00">packPayload</text>
<text text-anchor="start" x="626.66" y="-58" font-family="Times,serif" font-size="10.00">unpackPayload</text>
</g>
<!-- 267 -->
<g id="node6" class="node">
<title>267</title>
<polygon fill="#f2f2f2" stroke="black" points="760.88,-196.2 760.88,-237.8 850.44,-237.8 850.44,-196.2 760.88,-196.2"/>
<text text-anchor="middle" x="805.66" y="-221.2" font-family="Times,serif" font-size="14.00">&lt;&lt;Library&gt;&gt;</text>
<text text-anchor="middle" x="805.66" y="-204.4" font-family="Times,serif" font-size="14.00">StableMath</text>
</g>
<!-- 442&#45;&gt;267 -->
<g id="edge7" class="edge">
<title>442&#45;&gt;267</title>
<path fill="none" stroke="black" stroke-dasharray="5,2" d="M469.49,-21.49C579.18,-24.93 761.44,-33.8 783.66,-55 818.67,-88.42 816.63,-149.35 811.48,-185.92"/>
<polygon fill="black" stroke="black" points="808,-185.56 809.9,-195.98 814.91,-186.65 808,-185.56"/>
<text text-anchor="start" x="813.66" y="-112" font-family="Times,serif" font-size="10.00">scaleBy</text>
</g>
<!-- 448 -->
<g id="node8" class="node">
<title>448</title>
<polygon fill="#f2f2f2" stroke="black" points="185,-325.5 185,-367.1 282.31,-367.1 282.31,-325.5 185,-325.5"/>
<text text-anchor="middle" x="233.66" y="-350.5" font-family="Times,serif" font-size="14.00">&lt;&lt;Interface&gt;&gt;</text>
<text text-anchor="middle" x="233.66" y="-333.7" font-family="Times,serif" font-size="14.00">IERC4626</text>
</g>
<!-- 442&#45;&gt;448 -->
<g id="edge9" class="edge">
<title>442&#45;&gt;448</title>
<path fill="none" stroke="black" stroke-dasharray="5,2" d="M358.93,-36.57C317.97,-63.7 243.24,-121.03 216.46,-193 201.31,-233.73 212.49,-284.48 222.57,-315.89"/>
<polygon fill="black" stroke="black" points="219.26,-317.01 225.77,-325.37 225.89,-314.77 219.26,-317.01"/>
<text text-anchor="start" x="216.66" y="-232" font-family="Times,serif" font-size="10.00">deposit</text>
<text text-anchor="start" x="216.66" y="-220" font-family="Times,serif" font-size="10.00">mint</text>
<text text-anchor="start" x="216.66" y="-208" font-family="Times,serif" font-size="10.00">previewWithdraw</text>
<text text-anchor="start" x="216.66" y="-196" font-family="Times,serif" font-size="10.00">withdraw</text>
</g>
<!-- 1324 -->
<g id="node9" class="node">
<title>1324</title>
<polygon fill="#f2f2f2" stroke="black" points="159,-506.7 159,-548.3 256.31,-548.3 256.31,-506.7 159,-506.7"/>
<text text-anchor="middle" x="207.66" y="-531.7" font-family="Times,serif" font-size="14.00">&lt;&lt;Interface&gt;&gt;</text>
<text text-anchor="middle" x="207.66" y="-514.9" font-family="Times,serif" font-size="14.00">IERC20</text>
</g>
<!-- 442&#45;&gt;1324 -->
<g id="edge6" class="edge">
<title>442&#45;&gt;1324</title>
<path fill="none" stroke="black" stroke-dasharray="5,2" d="M303.61,-24.02C275.54,-28.85 245.34,-38 221.66,-55 153.97,-103.58 125.66,-132.69 125.66,-216 125.66,-216 125.66,-216 125.66,-437.9 125.66,-463.69 144.6,-485.16 164.28,-500.5"/>
<polygon fill="black" stroke="black" points="162.28,-503.37 172.41,-506.49 166.43,-497.74 162.28,-503.37"/>
<text text-anchor="start" x="125.66" y="-343.3" font-family="Times,serif" font-size="10.00">balanceOf</text>
</g>
<!-- 1606 -->
<g id="node11" class="node">
<title>1606</title>
<polygon fill="#f2f2f2" stroke="black" points="339.88,-416.1 339.88,-457.7 429.44,-457.7 429.44,-416.1 339.88,-416.1"/>
<text text-anchor="middle" x="384.66" y="-441.1" font-family="Times,serif" font-size="14.00">&lt;&lt;Library&gt;&gt;</text>
<text text-anchor="middle" x="384.66" y="-424.3" font-family="Times,serif" font-size="14.00">SafeERC20</text>
</g>
<!-- 442&#45;&gt;1606 -->
<g id="edge4" class="edge">
<title>442&#45;&gt;1606</title>
<path fill="none" stroke="black" stroke-dasharray="5,2" d="M400.52,-36.56C404.23,-42.11 407.74,-48.52 409.66,-55 418.31,-84.26 410.5,-330.33 404.66,-367.6 402.65,-380.44 398.91,-394.26 395.21,-406.09"/>
<polygon fill="black" stroke="black" points="391.78,-405.3 392.01,-415.89 398.44,-407.47 391.78,-405.3"/>
<text text-anchor="start" x="411.66" y="-292" font-family="Times,serif" font-size="10.00">safeApprove</text>
<text text-anchor="start" x="411.66" y="-280" font-family="Times,serif" font-size="10.00">safeTransfer</text>
<text text-anchor="start" x="411.66" y="-268" font-family="Times,serif" font-size="10.00">safeTransferFrom</text>
</g>
<!-- 1350 -->
<g id="node13" class="node">
<title>1350</title>
<polygon fill="#f2f2f2" stroke="black" points="760.88,-325.5 760.88,-367.1 850.44,-367.1 850.44,-325.5 760.88,-325.5"/>
<text text-anchor="middle" x="805.66" y="-350.5" font-family="Times,serif" font-size="14.00">&lt;&lt;Library&gt;&gt;</text>
<text text-anchor="middle" x="805.66" y="-333.7" font-family="Times,serif" font-size="14.00">SafeMath</text>
</g>
<!-- 267&#45;&gt;1350 -->
<g id="edge10" class="edge">
<title>267&#45;&gt;1350</title>
<path fill="none" stroke="black" stroke-dasharray="5,2" d="M805.66,-237.89C805.66,-258.51 805.66,-291 805.66,-314.85"/>
<polygon fill="black" stroke="black" points="802.16,-315.13 805.66,-325.13 809.16,-315.13 802.16,-315.13"/>
<text text-anchor="start" x="805.66" y="-298" font-family="Times,serif" font-size="10.00">add</text>
<text text-anchor="start" x="805.66" y="-286" font-family="Times,serif" font-size="10.00">div</text>
<text text-anchor="start" x="805.66" y="-274" font-family="Times,serif" font-size="10.00">mul</text>
<text text-anchor="start" x="805.66" y="-262" font-family="Times,serif" font-size="10.00">sub</text>
</g>
<!-- 1601 -->
<g id="node10" class="node">
<title>1601</title>
<polygon fill="#f2f2f2" stroke="black" points="207.67,-416.1 207.67,-457.7 321.64,-457.7 321.64,-416.1 207.67,-416.1"/>
<text text-anchor="middle" x="264.66" y="-441.1" font-family="Times,serif" font-size="14.00">&lt;&lt;Interface&gt;&gt;</text>
<text text-anchor="middle" x="264.66" y="-424.3" font-family="Times,serif" font-size="14.00">IERC20Metadata</text>
</g>
<!-- 276&#45;&gt;1601 -->
<g id="edge12" class="edge">
<title>276&#45;&gt;1601</title>
<path fill="none" stroke="black" stroke-dasharray="5,2" d="M328.82,-367.4C317.47,-379.53 302.85,-395.13 290.43,-408.39"/>
<polygon fill="black" stroke="black" points="287.7,-406.18 283.42,-415.87 292.81,-410.97 287.7,-406.18"/>
<text text-anchor="start" x="311.66" y="-388.6" font-family="Times,serif" font-size="10.00">decimals</text>
</g>
<!-- 276&#45;&gt;1606 -->
<g id="edge11" class="edge">
<title>276&#45;&gt;1606</title>
<path fill="none" stroke="black" stroke-dasharray="5,2" d="M356.05,-367.4C360.88,-378.96 367.03,-393.68 372.38,-406.51"/>
<polygon fill="black" stroke="black" points="369.21,-408 376.29,-415.87 375.67,-405.3 369.21,-408"/>
</g>
<!-- 448&#45;&gt;1324 -->
<g id="edge13" class="edge">
<title>448&#45;&gt;1324</title>
<path fill="none" stroke="black" stroke-dasharray="5,2" d="M220.24,-367.23C212.24,-380.34 202.84,-398.24 198.66,-415.6 193.9,-435.33 194.56,-457.54 196.99,-476.87"/>
<polygon fill="none" stroke="black" points="186.69,-478.9 202.31,-506.58 207.36,-475.19 186.69,-478.9"/>
</g>
<!-- 448&#45;&gt;1601 -->
<g id="edge14" class="edge">
<title>448&#45;&gt;1601</title>
<path fill="none" stroke="black" stroke-dasharray="5,2" d="M240.69,-367.4C242.79,-373.41 245.19,-380.27 247.64,-387.27"/>
<polygon fill="none" stroke="black" points="237.83,-391.03 257.65,-415.87 257.65,-384.09 237.83,-391.03"/>
</g>
<!-- 1601&#45;&gt;1324 -->
<g id="edge15" class="edge">
<title>1601&#45;&gt;1324</title>
<path fill="none" stroke="black" stroke-dasharray="5,2" d="M251.72,-458C247.28,-464.91 242.1,-472.96 236.9,-481.05"/>
<polygon fill="none" stroke="black" points="227.94,-475.56 220.54,-506.47 245.6,-486.93 227.94,-475.56"/>
</g>
<!-- 1606&#45;&gt;1324 -->
<g id="edge17" class="edge">
<title>1606&#45;&gt;1324</title>
<path fill="none" stroke="black" stroke-dasharray="5,2" d="M344.93,-457.78C318.74,-470.89 284.27,-488.15 256.42,-502.09"/>
<polygon fill="black" stroke="black" points="254.62,-499.08 247.25,-506.68 257.76,-505.34 254.62,-499.08"/>
<text text-anchor="start" x="307.66" y="-479.2" font-family="Times,serif" font-size="10.00">allowance</text>
</g>
<!-- 1057 -->
<g id="node12" class="node">
<title>1057</title>
<polygon fill="#f2f2f2" stroke="black" points="339.88,-506.7 339.88,-548.3 429.44,-548.3 429.44,-506.7 339.88,-506.7"/>
<text text-anchor="middle" x="384.66" y="-531.7" font-family="Times,serif" font-size="14.00">&lt;&lt;Library&gt;&gt;</text>
<text text-anchor="middle" x="384.66" y="-514.9" font-family="Times,serif" font-size="14.00">Address</text>
</g>
<!-- 1606&#45;&gt;1057 -->
<g id="edge16" class="edge">
<title>1606&#45;&gt;1057</title>
<path fill="none" stroke="black" stroke-dasharray="5,2" d="M384.66,-458C384.66,-469.33 384.66,-483.71 384.66,-496.36"/>
<polygon fill="black" stroke="black" points="381.16,-496.47 384.66,-506.47 388.16,-496.47 381.16,-496.47"/>
<text text-anchor="start" x="384.66" y="-479.2" font-family="Times,serif" font-size="10.00">functionCall</text>
</g>
</g>
</svg>
