<?xml version="1.0" encoding="UTF-8" standalone="no"?>
<!DOCTYPE svg PUBLIC "-//W3C//DTD SVG 1.1//EN"
 "http://www.w3.org/Graphics/SVG/1.1/DTD/svg11.dtd">
<!-- Generated by graphviz version 5.0.0 (20220707.1540)
 -->
<!-- Title: StorageDiagram Pages: 1 -->
<svg width="1469pt" height="345pt"
 viewBox="0.00 0.00 1469.02 344.80" xmlns="http://www.w3.org/2000/svg" xmlns:xlink="http://www.w3.org/1999/xlink">
<g id="graph0" class="graph" transform="scale(1 1) rotate(0) translate(4 340.8)">
<title>StorageDiagram</title>
<polygon fill="white" stroke="transparent" points="-4,4 -4,-340.8 1465.02,-340.8 1465.02,4 -4,4"/>
<!-- 3 -->
<g id="node1" class="node">
<title>3</title>
<polygon fill="#f2f2f2" stroke="black" points="0,-13.9 0,-336.3 854.53,-336.3 854.53,-13.9 0,-13.9"/>
<text text-anchor="middle" x="427.27" y="-319.7" font-family="Courier New" font-size="14.00">SonicSwapXAMOStrategy &lt;&lt;Contract&gt;&gt;</text>
<polyline fill="none" stroke="black" points="0,-311.5 854.53,-311.5 "/>
<text text-anchor="middle" x="33.2" y="-294.9" font-family="Courier New" font-size="14.00">slot</text>
<polyline fill="none" stroke="black" points="0,-286.7 66.41,-286.7 "/>
<text text-anchor="middle" x="33.2" y="-270.1" font-family="Courier New" font-size="14.00">0</text>
<polyline fill="none" stroke="black" points="0,-261.9 66.41,-261.9 "/>
<text text-anchor="middle" x="33.2" y="-245.3" font-family="Courier New" font-size="14.00">1&#45;50</text>
<polyline fill="none" stroke="black" points="0,-237.1 66.41,-237.1 "/>
<text text-anchor="middle" x="33.2" y="-220.5" font-family="Courier New" font-size="14.00">51</text>
<polyline fill="none" stroke="black" points="0,-212.3 66.41,-212.3 "/>
<text text-anchor="middle" x="33.2" y="-195.7" font-family="Courier New" font-size="14.00">52</text>
<polyline fill="none" stroke="black" points="0,-187.5 66.41,-187.5 "/>
<text text-anchor="middle" x="33.2" y="-170.9" font-family="Courier New" font-size="14.00">53</text>
<polyline fill="none" stroke="black" points="0,-162.7 66.41,-162.7 "/>
<text text-anchor="middle" x="33.2" y="-146.1" font-family="Courier New" font-size="14.00">54</text>
<polyline fill="none" stroke="black" points="0,-137.9 66.41,-137.9 "/>
<text text-anchor="middle" x="33.2" y="-121.3" font-family="Courier New" font-size="14.00">55</text>
<polyline fill="none" stroke="black" points="0,-113.1 66.41,-113.1 "/>
<text text-anchor="middle" x="33.2" y="-96.5" font-family="Courier New" font-size="14.00">56</text>
<polyline fill="none" stroke="black" points="0,-88.3 66.41,-88.3 "/>
<text text-anchor="middle" x="33.2" y="-71.7" font-family="Courier New" font-size="14.00">57</text>
<polyline fill="none" stroke="black" points="0,-63.5 66.41,-63.5 "/>
<text text-anchor="middle" x="33.2" y="-46.9" font-family="Courier New" font-size="14.00">58</text>
<polyline fill="none" stroke="black" points="0,-38.7 66.41,-38.7 "/>
<text text-anchor="middle" x="33.2" y="-22.1" font-family="Courier New" font-size="14.00">59&#45;156</text>
<polyline fill="none" stroke="black" points="66.41,-13.9 66.41,-311.5 "/>
<text text-anchor="middle" x="460.47" y="-294.9" font-family="Courier New" font-size="14.00">type: &lt;inherited contract&gt;.variable (bytes)</text>
<polyline fill="none" stroke="black" points="66.41,-286.7 854.53,-286.7 "/>
<text text-anchor="middle" x="143.12" y="-270.1" font-family="Courier New" font-size="14.00">unallocated (30)</text>
<polyline fill="none" stroke="black" points="219.83,-261.9 219.83,-286.7 "/>
<text text-anchor="middle" x="380.55" y="-270.1" font-family="Courier New" font-size="14.00">bool: Initializable.initializing (1)</text>
<polyline fill="none" stroke="black" points="541.28,-261.9 541.28,-286.7 "/>
<text text-anchor="middle" x="697.8" y="-270.1" font-family="Courier New" font-size="14.00">bool: Initializable.initialized (1)</text>
<polyline fill="none" stroke="black" points="66.41,-261.9 854.53,-261.9 "/>
<text text-anchor="middle" x="460.04" y="-245.3" font-family="Courier New" font-size="14.00">uint256[50]: Initializable.______gap (1600)</text>
<polyline fill="none" stroke="black" points="66.41,-237.1 854.53,-237.1 "/>
<text text-anchor="middle" x="147.62" y="-220.5" font-family="Courier New" font-size="14.00">unallocated (12)</text>
<polyline fill="none" stroke="black" points="228.83,-212.3 228.83,-237.1 "/>
<text text-anchor="middle" x="541.58" y="-220.5" font-family="Courier New" font-size="14.00">address: InitializableAbstractStrategy._deprecated_platformAddress (20)</text>
<polyline fill="none" stroke="black" points="66.41,-212.3 854.53,-212.3 "/>
<text text-anchor="middle" x="154.12" y="-195.7" font-family="Courier New" font-size="14.00">unallocated (12)</text>
<polyline fill="none" stroke="black" points="241.83,-187.5 241.83,-212.3 "/>
<text text-anchor="middle" x="547.98" y="-195.7" font-family="Courier New" font-size="14.00">address: InitializableAbstractStrategy._deprecated_vaultAddress (20)</text>
<polyline fill="none" stroke="black" points="66.41,-187.5 854.53,-187.5 "/>
<text text-anchor="middle" x="460.46" y="-170.9" font-family="Courier New" font-size="14.00">mapping(address=&gt;address): InitializableAbstractStrategy.assetToPToken (32)</text>
<polyline fill="none" stroke="black" points="66.41,-162.7 854.53,-162.7 "/>
<text text-anchor="middle" x="460.05" y="-146.1" font-family="Courier New" font-size="14.00">address[]: InitializableAbstractStrategy.assetsMapped (32)</text>
<polyline fill="none" stroke="black" points="66.41,-137.9 854.53,-137.9 "/>
<text text-anchor="middle" x="141.62" y="-121.3" font-family="Courier New" font-size="14.00">unallocated (12)</text>
<polyline fill="none" stroke="black" points="216.83,-113.1 216.83,-137.9 "/>
<text text-anchor="middle" x="535.68" y="-121.3" font-family="Courier New" font-size="14.00">address: InitializableAbstractStrategy._deprecated_rewardTokenAddress (20)</text>
<polyline fill="none" stroke="black" points="66.41,-113.1 854.53,-113.1 "/>
<text text-anchor="middle" x="460.36" y="-96.5" font-family="Courier New" font-size="14.00">uint256: InitializableAbstractStrategy._deprecated_rewardLiquidationThreshold (32)</text>
<polyline fill="none" stroke="black" points="66.41,-88.3 854.53,-88.3 "/>
<text text-anchor="middle" x="170.62" y="-71.7" font-family="Courier New" font-size="14.00">unallocated (12)</text>
<polyline fill="none" stroke="black" points="274.83,-63.5 274.83,-88.3 "/>
<text text-anchor="middle" x="564.37" y="-71.7" font-family="Courier New" font-size="14.00">address: InitializableAbstractStrategy.harvesterAddress (20)</text>
<polyline fill="none" stroke="black" points="66.41,-63.5 854.53,-63.5 "/>
<text text-anchor="middle" x="460.15" y="-46.9" font-family="Courier New" font-size="14.00">address[]: InitializableAbstractStrategy.rewardTokenAddresses (32)</text>
<polyline fill="none" stroke="black" points="66.41,-38.7 854.53,-38.7 "/>
<text text-anchor="middle" x="460.05" y="-22.1" font-family="Courier New" font-size="14.00">int256[98]: InitializableAbstractStrategy._reserved (3136)</text>
</g>
<!-- 1 -->
<g id="node2" class="node">
<title>1</title>
<polygon fill="#f2f2f2" stroke="black" points="890.53,-110.5 890.53,-201.7 1461.02,-201.7 1461.02,-110.5 890.53,-110.5"/>
<text text-anchor="middle" x="1175.78" y="-185.1" font-family="Courier New" font-size="14.00">address[]: assetsMapped &lt;&lt;Array&gt;&gt;</text>
<text text-anchor="middle" x="1175.78" y="-168.3" font-family="Courier New" font-size="14.00">0x4a11f94e20a93c79f6ec743a1954ec4fc2c08429ae2122118bf234b2185c81b8</text>
<polyline fill="none" stroke="black" points="890.53,-160.1 1461.02,-160.1 "/>
<text text-anchor="middle" x="982.74" y="-143.5" font-family="Courier New" font-size="14.00">offset</text>
<polyline fill="none" stroke="black" points="890.53,-135.3 1074.94,-135.3 "/>
<text text-anchor="middle" x="982.74" y="-118.7" font-family="Courier New" font-size="14.00">0</text>
<polyline fill="none" stroke="black" points="1074.94,-110.5 1074.94,-160.1 "/>
<text text-anchor="middle" x="1267.56" y="-143.5" font-family="Courier New" font-size="14.00">type: variable (bytes)</text>
<polyline fill="none" stroke="black" points="1074.94,-135.3 1460.18,-135.3 "/>
<text text-anchor="middle" x="1179.65" y="-118.7" font-family="Courier New" font-size="14.00">unallocated (12)</text>
<polyline fill="none" stroke="black" points="1284.36,-110.5 1284.36,-135.3 "/>
<text text-anchor="middle" x="1372.27" y="-118.7" font-family="Courier New" font-size="14.00">address (20)</text>
</g>
<!-- 3&#45;&gt;1 -->
<g id="edge1" class="edge">
<title>3:8&#45;&gt;1</title>
<path fill="none" stroke="black" d="M854.27,-150.1C862.77,-150.1 871.39,-150.12 880.1,-150.16"/>
<polygon fill="black" stroke="black" points="880.34,-153.66 890.36,-150.22 880.38,-146.66 880.34,-153.66"/>
</g>
<!-- 2 -->
<g id="node3" class="node">
<title>2</title>
<polygon fill="#f2f2f2" stroke="black" points="890.53,-0.5 890.53,-91.7 1461.02,-91.7 1461.02,-0.5 890.53,-0.5"/>
<text text-anchor="middle" x="1175.78" y="-75.1" font-family="Courier New" font-size="14.00">address[]: rewardTokenAddresses &lt;&lt;Array&gt;&gt;</text>
<text text-anchor="middle" x="1175.78" y="-58.3" font-family="Courier New" font-size="14.00">0xa2999d817b6757290b50e8ecf3fa939673403dd35c97de392fdb343b4015ce9e</text>
<polyline fill="none" stroke="black" points="890.53,-50.1 1461.02,-50.1 "/>
<text text-anchor="middle" x="982.74" y="-33.5" font-family="Courier New" font-size="14.00">offset</text>
<polyline fill="none" stroke="black" points="890.53,-25.3 1074.94,-25.3 "/>
<text text-anchor="middle" x="982.74" y="-8.7" font-family="Courier New" font-size="14.00">0</text>
<polyline fill="none" stroke="black" points="1074.94,-0.5 1074.94,-50.1 "/>
<text text-anchor="middle" x="1267.56" y="-33.5" font-family="Courier New" font-size="14.00">type: variable (bytes)</text>
<polyline fill="none" stroke="black" points="1074.94,-25.3 1460.18,-25.3 "/>
<text text-anchor="middle" x="1179.65" y="-8.7" font-family="Courier New" font-size="14.00">unallocated (12)</text>
<polyline fill="none" stroke="black" points="1284.36,-0.5 1284.36,-25.3 "/>
<text text-anchor="middle" x="1372.27" y="-8.7" font-family="Courier New" font-size="14.00">address (20)</text>
</g>
<!-- 3&#45;&gt;2 -->
<g id="edge2" class="edge">
<title>3:13&#45;&gt;2</title>
<path fill="none" stroke="black" d="M854.53,-51.1C862.92,-51.1 871.44,-51.08 880.04,-51.05"/>
<polygon fill="black" stroke="black" points="880.18,-54.55 890.16,-51 880.15,-47.55 880.18,-54.55"/>
</g>
</g>
</svg>
