<?xml version="1.0" encoding="UTF-8" standalone="no"?>
<!DOCTYPE svg PUBLIC "-//W3C//DTD SVG 1.1//EN"
 "http://www.w3.org/Graphics/SVG/1.1/DTD/svg11.dtd">
<!-- Generated by graphviz version 5.0.0 (20220707.1540)
 -->
<!-- Title: StorageDiagram Pages: 1 -->
<svg width="1477pt" height="587pt"
 viewBox="0.00 0.00 1477.42 587.40" xmlns="http://www.w3.org/2000/svg" xmlns:xlink="http://www.w3.org/1999/xlink">
<g id="graph0" class="graph" transform="scale(1 1) rotate(0) translate(4 583.4)">
<title>StorageDiagram</title>
<polygon fill="white" stroke="transparent" points="-4,4 -4,-583.4 1473.42,-583.4 1473.42,4 -4,4"/>
<!-- 5 -->
<g id="node1" class="node">
<title>5</title>
<polygon fill="#f2f2f2" stroke="black" points="0,-58.1 0,-578.9 862.93,-578.9 862.93,-58.1 0,-58.1"/>
<text text-anchor="middle" x="431.47" y="-562.3" font-family="Courier New" font-size="14.00">SonicStakingStrategy &lt;&lt;Contract&gt;&gt;</text>
<polyline fill="none" stroke="black" points="0,-554.1 862.93,-554.1 "/>
<text text-anchor="middle" x="37.4" y="-537.5" font-family="Courier New" font-size="14.00">slot</text>
<polyline fill="none" stroke="black" points="0,-529.3 74.81,-529.3 "/>
<text text-anchor="middle" x="37.4" y="-512.7" font-family="Courier New" font-size="14.00">0</text>
<polyline fill="none" stroke="black" points="0,-504.5 74.81,-504.5 "/>
<text text-anchor="middle" x="37.4" y="-487.9" font-family="Courier New" font-size="14.00">1&#45;50</text>
<polyline fill="none" stroke="black" points="0,-479.7 74.81,-479.7 "/>
<text text-anchor="middle" x="37.4" y="-463.1" font-family="Courier New" font-size="14.00">51</text>
<polyline fill="none" stroke="black" points="0,-454.9 74.81,-454.9 "/>
<text text-anchor="middle" x="37.4" y="-438.3" font-family="Courier New" font-size="14.00">52</text>
<polyline fill="none" stroke="black" points="0,-430.1 74.81,-430.1 "/>
<text text-anchor="middle" x="37.4" y="-413.5" font-family="Courier New" font-size="14.00">53</text>
<polyline fill="none" stroke="black" points="0,-405.3 74.81,-405.3 "/>
<text text-anchor="middle" x="37.4" y="-388.7" font-family="Courier New" font-size="14.00">54</text>
<polyline fill="none" stroke="black" points="0,-380.5 74.81,-380.5 "/>
<text text-anchor="middle" x="37.4" y="-363.9" font-family="Courier New" font-size="14.00">55</text>
<polyline fill="none" stroke="black" points="0,-355.7 74.81,-355.7 "/>
<text text-anchor="middle" x="37.4" y="-339.1" font-family="Courier New" font-size="14.00">56</text>
<polyline fill="none" stroke="black" points="0,-330.9 74.81,-330.9 "/>
<text text-anchor="middle" x="37.4" y="-314.3" font-family="Courier New" font-size="14.00">57</text>
<polyline fill="none" stroke="black" points="0,-306.1 74.81,-306.1 "/>
<text text-anchor="middle" x="37.4" y="-289.5" font-family="Courier New" font-size="14.00">58</text>
<polyline fill="none" stroke="black" points="0,-281.3 74.81,-281.3 "/>
<text text-anchor="middle" x="37.4" y="-264.7" font-family="Courier New" font-size="14.00">59&#45;156</text>
<polyline fill="none" stroke="black" points="0,-256.5 74.81,-256.5 "/>
<text text-anchor="middle" x="37.4" y="-239.9" font-family="Courier New" font-size="14.00">157</text>
<polyline fill="none" stroke="black" points="0,-231.7 74.81,-231.7 "/>
<text text-anchor="middle" x="37.4" y="-215.1" font-family="Courier New" font-size="14.00">158</text>
<polyline fill="none" stroke="black" points="0,-206.9 74.81,-206.9 "/>
<text text-anchor="middle" x="37.4" y="-190.3" font-family="Courier New" font-size="14.00">159</text>
<polyline fill="none" stroke="black" points="0,-182.1 74.81,-182.1 "/>
<text text-anchor="middle" x="37.4" y="-165.5" font-family="Courier New" font-size="14.00">160</text>
<polyline fill="none" stroke="black" points="0,-157.3 74.81,-157.3 "/>
<text text-anchor="middle" x="37.4" y="-140.7" font-family="Courier New" font-size="14.00">161</text>
<polyline fill="none" stroke="black" points="0,-132.5 74.81,-132.5 "/>
<text text-anchor="middle" x="37.4" y="-115.9" font-family="Courier New" font-size="14.00">162</text>
<polyline fill="none" stroke="black" points="0,-107.7 74.81,-107.7 "/>
<text text-anchor="middle" x="37.4" y="-91.1" font-family="Courier New" font-size="14.00">163&#45;206</text>
<polyline fill="none" stroke="black" points="0,-82.9 74.81,-82.9 "/>
<text text-anchor="middle" x="37.4" y="-66.3" font-family="Courier New" font-size="14.00">207&#45;256</text>
<polyline fill="none" stroke="black" points="74.81,-58.1 74.81,-554.1 "/>
<text text-anchor="middle" x="468.87" y="-537.5" font-family="Courier New" font-size="14.00">type: &lt;inherited contract&gt;.variable (bytes)</text>
<polyline fill="none" stroke="black" points="74.81,-529.3 862.93,-529.3 "/>
<text text-anchor="middle" x="151.52" y="-512.7" font-family="Courier New" font-size="14.00">unallocated (30)</text>
<polyline fill="none" stroke="black" points="228.23,-504.5 228.23,-529.3 "/>
<text text-anchor="middle" x="388.96" y="-512.7" font-family="Courier New" font-size="14.00">bool: Initializable.initializing (1)</text>
<polyline fill="none" stroke="black" points="549.68,-504.5 549.68,-529.3 "/>
<text text-anchor="middle" x="706.2" y="-512.7" font-family="Courier New" font-size="14.00">bool: Initializable.initialized (1)</text>
<polyline fill="none" stroke="black" points="74.81,-504.5 862.93,-504.5 "/>
<text text-anchor="middle" x="468.44" y="-487.9" font-family="Courier New" font-size="14.00">uint256[50]: Initializable.______gap (1600)</text>
<polyline fill="none" stroke="black" points="74.81,-479.7 862.93,-479.7 "/>
<text text-anchor="middle" x="156.02" y="-463.1" font-family="Courier New" font-size="14.00">unallocated (12)</text>
<polyline fill="none" stroke="black" points="237.23,-454.9 237.23,-479.7 "/>
<text text-anchor="middle" x="549.98" y="-463.1" font-family="Courier New" font-size="14.00">address: InitializableAbstractStrategy._deprecated_platformAddress (20)</text>
<polyline fill="none" stroke="black" points="74.81,-454.9 862.93,-454.9 "/>
<text text-anchor="middle" x="162.52" y="-438.3" font-family="Courier New" font-size="14.00">unallocated (12)</text>
<polyline fill="none" stroke="black" points="250.23,-430.1 250.23,-454.9 "/>
<text text-anchor="middle" x="556.38" y="-438.3" font-family="Courier New" font-size="14.00">address: InitializableAbstractStrategy._deprecated_vaultAddress (20)</text>
<polyline fill="none" stroke="black" points="74.81,-430.1 862.93,-430.1 "/>
<text text-anchor="middle" x="468.86" y="-413.5" font-family="Courier New" font-size="14.00">mapping(address=&gt;address): InitializableAbstractStrategy.assetToPToken (32)</text>
<polyline fill="none" stroke="black" points="74.81,-405.3 862.93,-405.3 "/>
<text text-anchor="middle" x="468.45" y="-388.7" font-family="Courier New" font-size="14.00">address[]: InitializableAbstractStrategy.assetsMapped (32)</text>
<polyline fill="none" stroke="black" points="74.81,-380.5 862.93,-380.5 "/>
<text text-anchor="middle" x="150.02" y="-363.9" font-family="Courier New" font-size="14.00">unallocated (12)</text>
<polyline fill="none" stroke="black" points="225.23,-355.7 225.23,-380.5 "/>
<text text-anchor="middle" x="544.08" y="-363.9" font-family="Courier New" font-size="14.00">address: InitializableAbstractStrategy._deprecated_rewardTokenAddress (20)</text>
<polyline fill="none" stroke="black" points="74.81,-355.7 862.93,-355.7 "/>
<text text-anchor="middle" x="468.77" y="-339.1" font-family="Courier New" font-size="14.00">uint256: InitializableAbstractStrategy._deprecated_rewardLiquidationThreshold (32)</text>
<polyline fill="none" stroke="black" points="74.81,-330.9 862.93,-330.9 "/>
<text text-anchor="middle" x="179.02" y="-314.3" font-family="Courier New" font-size="14.00">unallocated (12)</text>
<polyline fill="none" stroke="black" points="283.23,-306.1 283.23,-330.9 "/>
<text text-anchor="middle" x="572.77" y="-314.3" font-family="Courier New" font-size="14.00">address: InitializableAbstractStrategy.harvesterAddress (20)</text>
<polyline fill="none" stroke="black" points="74.81,-306.1 862.93,-306.1 "/>
<text text-anchor="middle" x="468.55" y="-289.5" font-family="Courier New" font-size="14.00">address[]: InitializableAbstractStrategy.rewardTokenAddresses (32)</text>
<polyline fill="none" stroke="black" points="74.81,-281.3 862.93,-281.3 "/>
<text text-anchor="middle" x="468.45" y="-264.7" font-family="Courier New" font-size="14.00">int256[98]: InitializableAbstractStrategy._reserved (3136)</text>
<polyline fill="none" stroke="black" points="74.81,-256.5 862.93,-256.5 "/>
<text text-anchor="middle" x="468.75" y="-239.9" font-family="Courier New" font-size="14.00">uint256: SonicValidatorDelegator.nextWithdrawId (32)</text>
<polyline fill="none" stroke="black" points="74.81,-231.7 862.93,-231.7 "/>
<text text-anchor="middle" x="468.55" y="-215.1" font-family="Courier New" font-size="14.00">uint256: SonicValidatorDelegator.pendingWithdrawals (32)</text>
<polyline fill="none" stroke="black" points="74.81,-206.9 862.93,-206.9 "/>
<text text-anchor="middle" x="468.65" y="-190.3" font-family="Courier New" font-size="14.00">uint256[]: SonicValidatorDelegator.supportedValidators (32)</text>
<polyline fill="none" stroke="black" points="74.81,-182.1 862.93,-182.1 "/>
<text text-anchor="middle" x="468.55" y="-165.5" font-family="Courier New" font-size="14.00">uint256: SonicValidatorDelegator.defaultValidatorId (32)</text>
<polyline fill="none" stroke="black" points="74.81,-157.3 862.93,-157.3 "/>
<text text-anchor="middle" x="468.86" y="-140.7" font-family="Courier New" font-size="14.00">mapping(uint256=&gt;WithdrawRequest): SonicValidatorDelegator.withdrawals (32)</text>
<polyline fill="none" stroke="black" points="74.81,-132.5 862.93,-132.5 "/>
<text text-anchor="middle" x="183.52" y="-115.9" font-family="Courier New" font-size="14.00">unallocated (12)</text>
<polyline fill="none" stroke="black" points="292.23,-107.7 292.23,-132.5 "/>
<text text-anchor="middle" x="577.37" y="-115.9" font-family="Courier New" font-size="14.00">address: SonicValidatorDelegator.validatorRegistrator (20)</text>
<polyline fill="none" stroke="black" points="74.81,-107.7 862.93,-107.7 "/>
<text text-anchor="middle" x="468.64" y="-91.1" font-family="Courier New" font-size="14.00">uint256[44]: SonicValidatorDelegator.__gap (1408)</text>
<polyline fill="none" stroke="black" points="74.81,-82.9 862.93,-82.9 "/>
<text text-anchor="middle" x="468.83" y="-66.3" font-family="Courier New" font-size="14.00">uint256[50]: __gap (1600)</text>
</g>
<!-- 1 -->
<g id="node2" class="node">
<title>1</title>
<polygon fill="#f2f2f2" stroke="black" points="898.93,-363.9 898.93,-455.1 1469.42,-455.1 1469.42,-363.9 898.93,-363.9"/>
<text text-anchor="middle" x="1184.18" y="-438.5" font-family="Courier New" font-size="14.00">address[]: assetsMapped &lt;&lt;Array&gt;&gt;</text>
<text text-anchor="middle" x="1184.18" y="-421.7" font-family="Courier New" font-size="14.00">0x4a11f94e20a93c79f6ec743a1954ec4fc2c08429ae2122118bf234b2185c81b8</text>
<polyline fill="none" stroke="black" points="898.93,-413.5 1469.42,-413.5 "/>
<text text-anchor="middle" x="991.14" y="-396.9" font-family="Courier New" font-size="14.00">offset</text>
<polyline fill="none" stroke="black" points="898.93,-388.7 1083.34,-388.7 "/>
<text text-anchor="middle" x="991.14" y="-372.1" font-family="Courier New" font-size="14.00">0</text>
<polyline fill="none" stroke="black" points="1083.34,-363.9 1083.34,-413.5 "/>
<text text-anchor="middle" x="1275.96" y="-396.9" font-family="Courier New" font-size="14.00">type: variable (bytes)</text>
<polyline fill="none" stroke="black" points="1083.34,-388.7 1468.58,-388.7 "/>
<text text-anchor="middle" x="1188.05" y="-372.1" font-family="Courier New" font-size="14.00">unallocated (12)</text>
<polyline fill="none" stroke="black" points="1292.76,-363.9 1292.76,-388.7 "/>
<text text-anchor="middle" x="1380.67" y="-372.1" font-family="Courier New" font-size="14.00">address (20)</text>
</g>
<!-- 5&#45;&gt;1 -->
<g id="edge1" class="edge">
<title>5:8&#45;&gt;1</title>
<path fill="none" stroke="black" d="M862.93,-392.5C871.34,-392.5 879.86,-392.56 888.47,-392.67"/>
<polygon fill="black" stroke="black" points="888.55,-396.17 898.6,-392.82 888.66,-389.17 888.55,-396.17"/>
</g>
<!-- 2 -->
<g id="node3" class="node">
<title>2</title>
<polygon fill="#f2f2f2" stroke="black" points="898.93,-253.9 898.93,-345.1 1469.42,-345.1 1469.42,-253.9 898.93,-253.9"/>
<text text-anchor="middle" x="1184.18" y="-328.5" font-family="Courier New" font-size="14.00">address[]: rewardTokenAddresses &lt;&lt;Array&gt;&gt;</text>
<text text-anchor="middle" x="1184.18" y="-311.7" font-family="Courier New" font-size="14.00">0xa2999d817b6757290b50e8ecf3fa939673403dd35c97de392fdb343b4015ce9e</text>
<polyline fill="none" stroke="black" points="898.93,-303.5 1469.42,-303.5 "/>
<text text-anchor="middle" x="991.14" y="-286.9" font-family="Courier New" font-size="14.00">offset</text>
<polyline fill="none" stroke="black" points="898.93,-278.7 1083.34,-278.7 "/>
<text text-anchor="middle" x="991.14" y="-262.1" font-family="Courier New" font-size="14.00">0</text>
<polyline fill="none" stroke="black" points="1083.34,-253.9 1083.34,-303.5 "/>
<text text-anchor="middle" x="1275.96" y="-286.9" font-family="Courier New" font-size="14.00">type: variable (bytes)</text>
<polyline fill="none" stroke="black" points="1083.34,-278.7 1468.58,-278.7 "/>
<text text-anchor="middle" x="1188.05" y="-262.1" font-family="Courier New" font-size="14.00">unallocated (12)</text>
<polyline fill="none" stroke="black" points="1292.76,-253.9 1292.76,-278.7 "/>
<text text-anchor="middle" x="1380.67" y="-262.1" font-family="Courier New" font-size="14.00">address (20)</text>
</g>
<!-- 5&#45;&gt;2 -->
<g id="edge2" class="edge">
<title>5:13&#45;&gt;2</title>
<path fill="none" stroke="black" d="M862.93,-293.5C871.33,-293.5 879.84,-293.52 888.44,-293.56"/>
<polygon fill="black" stroke="black" points="888.55,-297.06 898.57,-293.61 888.58,-290.06 888.55,-297.06"/>
</g>
<!-- 3 -->
<g id="node4" class="node">
<title>3</title>
<polygon fill="#f2f2f2" stroke="black" points="898.93,-143.9 898.93,-235.1 1469.42,-235.1 1469.42,-143.9 898.93,-143.9"/>
<text text-anchor="middle" x="1184.18" y="-218.5" font-family="Courier New" font-size="14.00">uint256[]: supportedValidators &lt;&lt;Array&gt;&gt;</text>
<text text-anchor="middle" x="1184.18" y="-201.7" font-family="Courier New" font-size="14.00">0x0bc14066c33013fe88f66e314e4cf150b0b2d4d6451a1a51dbbd1c27cd11de28</text>
<polyline fill="none" stroke="black" points="898.93,-193.5 1469.42,-193.5 "/>
<text text-anchor="middle" x="1007.64" y="-176.9" font-family="Courier New" font-size="14.00">offset</text>
<polyline fill="none" stroke="black" points="898.93,-168.7 1116.34,-168.7 "/>
<text text-anchor="middle" x="1007.64" y="-152.1" font-family="Courier New" font-size="14.00">0</text>
<polyline fill="none" stroke="black" points="1116.34,-143.9 1116.34,-193.5 "/>
<text text-anchor="middle" x="1292.76" y="-176.9" font-family="Courier New" font-size="14.00">type: variable (bytes)</text>
<polyline fill="none" stroke="black" points="1116.34,-168.7 1469.17,-168.7 "/>
<text text-anchor="middle" x="1292.75" y="-152.1" font-family="Courier New" font-size="14.00">uint256 (32)</text>
</g>
<!-- 5&#45;&gt;3 -->
<g id="edge3" class="edge">
<title>5:18&#45;&gt;3</title>
<path fill="none" stroke="black" d="M862.93,-194.5C871.33,-194.5 879.84,-194.48 888.44,-194.45"/>
<polygon fill="black" stroke="black" points="888.58,-197.95 898.56,-194.4 888.55,-190.95 888.58,-197.95"/>
</g>
<!-- 4 -->
<g id="node5" class="node">
<title>4</title>
<polygon fill="#f2f2f2" stroke="black" points="1012.75,-0.5 1012.75,-124.5 1355.6,-124.5 1355.6,-0.5 1012.75,-0.5"/>
<text text-anchor="middle" x="1184.18" y="-107.9" font-family="Courier New" font-size="14.00">WithdrawRequest &lt;&lt;Struct&gt;&gt;</text>
<polyline fill="none" stroke="black" points="1012.75,-99.7 1355.6,-99.7 "/>
<text text-anchor="middle" x="1045.96" y="-83.1" font-family="Courier New" font-size="14.00">offset</text>
<polyline fill="none" stroke="black" points="1012.75,-74.9 1079.16,-74.9 "/>
<text text-anchor="middle" x="1045.96" y="-58.3" font-family="Courier New" font-size="14.00">0</text>
<polyline fill="none" stroke="black" points="1012.75,-50.1 1079.16,-50.1 "/>
<text text-anchor="middle" x="1045.96" y="-33.5" font-family="Courier New" font-size="14.00">1</text>
<polyline fill="none" stroke="black" points="1012.75,-25.3 1079.16,-25.3 "/>
<text text-anchor="middle" x="1045.96" y="-8.7" font-family="Courier New" font-size="14.00">2</text>
<polyline fill="none" stroke="black" points="1079.16,-0.5 1079.16,-99.7 "/>
<text text-anchor="middle" x="1217.38" y="-83.1" font-family="Courier New" font-size="14.00">type: variable (bytes)</text>
<polyline fill="none" stroke="black" points="1079.16,-74.9 1355.6,-74.9 "/>
<text text-anchor="middle" x="1217.18" y="-58.3" font-family="Courier New" font-size="14.00">uint256: validatorId (32)</text>
<polyline fill="none" stroke="black" points="1079.16,-50.1 1355.6,-50.1 "/>
<text text-anchor="middle" x="1217.38" y="-33.5" font-family="Courier New" font-size="14.00">uint256: undelegatedAmount (32)</text>
<polyline fill="none" stroke="black" points="1079.16,-25.3 1355.6,-25.3 "/>
<text text-anchor="middle" x="1217.28" y="-8.7" font-family="Courier New" font-size="14.00">uint256: timestamp (32)</text>
</g>
<!-- 5&#45;&gt;4 -->
<g id="edge4" class="edge">
<title>5:23&#45;&gt;4</title>
<path fill="none" stroke="black" d="M862.93,-144.5C879.54,-144.5 882.88,-138.76 898.93,-134.5 932.44,-125.6 968.23,-116.35 1002.72,-107.55"/>
<polygon fill="black" stroke="black" points="1003.59,-110.94 1012.42,-105.08 1001.86,-104.16 1003.59,-110.94"/>
</g>
</g>
</svg>
