<?xml version="1.0" encoding="UTF-8" standalone="no"?>
<!DOCTYPE svg PUBLIC "-//W3C//DTD SVG 1.1//EN"
 "http://www.w3.org/Graphics/SVG/1.1/DTD/svg11.dtd">
<!-- Generated by graphviz version 5.0.0 (20220707.1540)
 -->
<!-- Title: UmlClassDiagram Pages: 1 -->
<svg width="456pt" height="320pt"
 viewBox="0.00 0.00 456.44 320.00" xmlns="http://www.w3.org/2000/svg" xmlns:xlink="http://www.w3.org/1999/xlink">
<g id="graph0" class="graph" transform="scale(1 1) rotate(0) translate(4 316)">
<title>UmlClassDiagram</title>
<polygon fill="white" stroke="transparent" points="-4,4 -4,-316 452.44,-316 452.44,4 -4,4"/>
<!-- 21 -->
<g id="node1" class="node">
<title>21</title>
<polygon fill="#f2f2f2" stroke="black" points="0,-261.5 0,-303.1 234.86,-303.1 234.86,-261.5 0,-261.5"/>
<text text-anchor="middle" x="117.43" y="-286.5" font-family="Times,serif" font-size="14.00">Governable</text>
<text text-anchor="middle" x="117.43" y="-269.7" font-family="Times,serif" font-size="14.00">../contracts/governance/Governable.sol</text>
</g>
<!-- 229 -->
<g id="node2" class="node">
<title>229</title>
<polygon fill="#f2f2f2" stroke="black" points="84.1,-79.1 84.1,-120.7 382.76,-120.7 382.76,-79.1 84.1,-79.1"/>
<text text-anchor="middle" x="233.43" y="-104.1" font-family="Times,serif" font-size="14.00">BaseCurveAMOStrategy</text>
<text text-anchor="middle" x="233.43" y="-87.3" font-family="Times,serif" font-size="14.00">../contracts/strategies/BaseCurveAMOStrategy.sol</text>
</g>
<!-- 290 -->
<g id="node5" class="node">
<title>290</title>
<polygon fill="#f2f2f2" stroke="black" points="88.38,-157.7 88.38,-216.1 378.48,-216.1 378.48,-157.7 88.38,-157.7"/>
<text text-anchor="middle" x="233.43" y="-199.5" font-family="Times,serif" font-size="14.00">&lt;&lt;Abstract&gt;&gt;</text>
<text text-anchor="middle" x="233.43" y="-182.7" font-family="Times,serif" font-size="14.00">InitializableAbstractStrategy</text>
<text text-anchor="middle" x="233.43" y="-165.9" font-family="Times,serif" font-size="14.00">../contracts/utils/InitializableAbstractStrategy.sol</text>
</g>
<!-- 229&#45;&gt;290 -->
<g id="edge1" class="edge">
<title>229&#45;&gt;290</title>
<path fill="none" stroke="black" d="M233.43,-121.04C233.43,-123.09 233.43,-125.23 233.43,-127.43"/>
<polygon fill="none" stroke="black" points="222.93,-127.54 233.43,-157.54 243.93,-127.54 222.93,-127.54"/>
</g>
<!-- 410 -->
<g id="node3" class="node">
<title>410</title>
<polygon fill="#f2f2f2" stroke="black" points="65.04,-0.5 65.04,-42.1 401.82,-42.1 401.82,-0.5 65.04,-0.5"/>
<text text-anchor="middle" x="233.43" y="-25.5" font-family="Times,serif" font-size="14.00">SonicCurveAMOStrategy</text>
<text text-anchor="middle" x="233.43" y="-8.7" font-family="Times,serif" font-size="14.00">../contracts/strategies/sonic/SonicCurveAMOStrategy.sol</text>
</g>
<!-- 410&#45;&gt;229 -->
<g id="edge2" class="edge">
<title>410&#45;&gt;229</title>
<path fill="none" stroke="black" d="M233.43,-42.43C233.43,-44.45 233.43,-46.56 233.43,-48.73"/>
<polygon fill="none" stroke="black" points="222.93,-48.91 233.43,-78.91 243.93,-48.91 222.93,-48.91"/>
</g>
<!-- 289 -->
<g id="node4" class="node">
<title>289</title>
<polygon fill="#f2f2f2" stroke="black" points="252.42,-253.1 252.42,-311.5 448.44,-311.5 448.44,-253.1 252.42,-253.1"/>
<text text-anchor="middle" x="350.43" y="-294.9" font-family="Times,serif" font-size="14.00">&lt;&lt;Abstract&gt;&gt;</text>
<text text-anchor="middle" x="350.43" y="-278.1" font-family="Times,serif" font-size="14.00">Initializable</text>
<text text-anchor="middle" x="350.43" y="-261.3" font-family="Times,serif" font-size="14.00">../contracts/utils/Initializable.sol</text>
</g>
<!-- 290&#45;&gt;21 -->
<g id="edge4" class="edge">
<title>290&#45;&gt;21</title>
<path fill="none" stroke="black" d="M198.31,-216.18C188.11,-224.39 176.78,-233.51 165.91,-242.26"/>
<polygon fill="none" stroke="black" points="158.91,-234.42 142.13,-261.41 172.08,-250.78 158.91,-234.42"/>
</g>
<!-- 290&#45;&gt;289 -->
<g id="edge3" class="edge">
<title>290&#45;&gt;289</title>
<path fill="none" stroke="black" d="M268.85,-216.18C275.89,-221.79 283.46,-227.84 291.04,-233.89"/>
<polygon fill="none" stroke="black" points="284.73,-242.29 314.72,-252.8 297.83,-225.87 284.73,-242.29"/>
</g>
</g>
</svg>
