<?xml version="1.0" encoding="UTF-8" standalone="no"?>
<!DOCTYPE svg PUBLIC "-//W3C//DTD SVG 1.1//EN"
 "http://www.w3.org/Graphics/SVG/1.1/DTD/svg11.dtd">
<!-- Generated by graphviz version 5.0.0 (20220707.1540)
 -->
<!-- Title: UmlClassDiagram Pages: 1 -->
<svg width="456pt" height="241pt"
 viewBox="0.00 0.00 456.44 241.40" xmlns="http://www.w3.org/2000/svg" xmlns:xlink="http://www.w3.org/1999/xlink">
<g id="graph0" class="graph" transform="scale(1 1) rotate(0) translate(4 237.4)">
<title>UmlClassDiagram</title>
<polygon fill="white" stroke="transparent" points="-4,4 -4,-237.4 452.44,-237.4 452.44,4 -4,4"/>
<!-- 21 -->
<g id="node1" class="node">
<title>21</title>
<polygon fill="#f2f2f2" stroke="black" points="0,-174.5 0,-232.9 234.86,-232.9 234.86,-174.5 0,-174.5"/>
<text text-anchor="middle" x="117.43" y="-216.3" font-family="Times,serif" font-size="14.00">&lt;&lt;Abstract&gt;&gt;</text>
<text text-anchor="middle" x="117.43" y="-199.5" font-family="Times,serif" font-size="14.00">Governable</text>
<text text-anchor="middle" x="117.43" y="-182.7" font-family="Times,serif" font-size="14.00">../contracts/governance/Governable.sol</text>
</g>
<!-- 410 -->
<g id="node2" class="node">
<title>410</title>
<polygon fill="#f2f2f2" stroke="black" points="61.54,-0.5 61.54,-42.1 405.32,-42.1 405.32,-0.5 61.54,-0.5"/>
<text text-anchor="middle" x="233.43" y="-25.5" font-family="Times,serif" font-size="14.00">SonicSwapXAMOStrategy</text>
<text text-anchor="middle" x="233.43" y="-8.7" font-family="Times,serif" font-size="14.00">../contracts/strategies/sonic/SonicSwapXAMOStrategy.sol</text>
</g>
<!-- 289 -->
<g id="node4" class="node">
<title>289</title>
<polygon fill="#f2f2f2" stroke="black" points="88.38,-79.1 88.38,-137.5 378.48,-137.5 378.48,-79.1 88.38,-79.1"/>
<text text-anchor="middle" x="233.43" y="-120.9" font-family="Times,serif" font-size="14.00">&lt;&lt;Abstract&gt;&gt;</text>
<text text-anchor="middle" x="233.43" y="-104.1" font-family="Times,serif" font-size="14.00">InitializableAbstractStrategy</text>
<text text-anchor="middle" x="233.43" y="-87.3" font-family="Times,serif" font-size="14.00">../contracts/utils/InitializableAbstractStrategy.sol</text>
</g>
<!-- 410&#45;&gt;289 -->
<g id="edge1" class="edge">
<title>410&#45;&gt;289</title>
<path fill="none" stroke="black" d="M233.43,-42.44C233.43,-44.49 233.43,-46.63 233.43,-48.83"/>
<polygon fill="none" stroke="black" points="222.93,-48.94 233.43,-78.94 243.93,-48.94 222.93,-48.94"/>
</g>
<!-- 288 -->
<g id="node3" class="node">
<title>288</title>
<polygon fill="#f2f2f2" stroke="black" points="252.42,-174.5 252.42,-232.9 448.44,-232.9 448.44,-174.5 252.42,-174.5"/>
<text text-anchor="middle" x="350.43" y="-216.3" font-family="Times,serif" font-size="14.00">&lt;&lt;Abstract&gt;&gt;</text>
<text text-anchor="middle" x="350.43" y="-199.5" font-family="Times,serif" font-size="14.00">Initializable</text>
<text text-anchor="middle" x="350.43" y="-182.7" font-family="Times,serif" font-size="14.00">../contracts/utils/Initializable.sol</text>
</g>
<!-- 289&#45;&gt;21 -->
<g id="edge3" class="edge">
<title>289&#45;&gt;21</title>
<path fill="none" stroke="black" d="M198.31,-137.58C191.33,-143.19 183.83,-149.24 176.31,-155.29"/>
<polygon fill="none" stroke="black" points="169.61,-147.2 152.83,-174.2 182.78,-163.56 169.61,-147.2"/>
</g>
<!-- 289&#45;&gt;288 -->
<g id="edge2" class="edge">
<title>289&#45;&gt;288</title>
<path fill="none" stroke="black" d="M268.85,-137.58C275.89,-143.19 283.46,-149.24 291.04,-155.29"/>
<polygon fill="none" stroke="black" points="284.73,-163.69 314.72,-174.2 297.83,-147.27 284.73,-163.69"/>
</g>
</g>
</svg>
