<?xml version="1.0" encoding="UTF-8" standalone="no"?>
<!DOCTYPE svg PUBLIC "-//W3C//DTD SVG 1.1//EN"
 "http://www.w3.org/Graphics/SVG/1.1/DTD/svg11.dtd">
<!-- Generated by graphviz version 5.0.0 (20220707.1540)
 -->
<!-- Title: UmlClassDiagram Pages: 1 -->
<svg width="400pt" height="163pt"
 viewBox="0.00 0.00 400.43 162.80" xmlns="http://www.w3.org/2000/svg" xmlns:xlink="http://www.w3.org/1999/xlink">
<g id="graph0" class="graph" transform="scale(1 1) rotate(0) translate(4 158.8)">
<title>UmlClassDiagram</title>
<polygon fill="white" stroke="transparent" points="-4,4 -4,-158.8 396.43,-158.8 396.43,4 -4,4"/>
<!-- 198 -->
<g id="node1" class="node">
<title>198</title>
<polygon fill="#f2f2f2" stroke="black" points="99.36,-0.5 99.36,-58.9 293.06,-58.9 293.06,-0.5 99.36,-0.5"/>
<text text-anchor="middle" x="196.21" y="-42.3" font-family="Times,serif" font-size="14.00">&lt;&lt;Library&gt;&gt;</text>
<text text-anchor="middle" x="196.21" y="-25.5" font-family="Times,serif" font-size="14.00">StableMath</text>
<text text-anchor="middle" x="196.21" y="-8.7" font-family="Times,serif" font-size="14.00">../contracts/utils/StableMath.sol</text>
</g>
<!-- 418 -->
<g id="node2" class="node">
<title>418</title>
<polygon fill="#f2f2f2" stroke="black" points="0,-95.9 0,-154.3 392.43,-154.3 392.43,-95.9 0,-95.9"/>
<text text-anchor="middle" x="196.21" y="-137.7" font-family="Times,serif" font-size="14.00">&lt;&lt;Library&gt;&gt;</text>
<text text-anchor="middle" x="196.21" y="-120.9" font-family="Times,serif" font-size="14.00">SafeMath</text>
<text text-anchor="middle" x="196.21" y="-104.1" font-family="Times,serif" font-size="14.00">../node_modules/@openzeppelin/contracts/utils/math/SafeMath.sol</text>
</g>
<!-- 198&#45;&gt;418 -->
<g id="edge1" class="edge">
<title>198&#45;&gt;418</title>
<path fill="none" stroke="black" stroke-dasharray="5,2" d="M196.21,-58.98C196.21,-67.31 196.21,-76.58 196.21,-85.45"/>
<polygon fill="black" stroke="black" points="192.71,-85.6 196.21,-95.6 199.71,-85.6 192.71,-85.6"/>
</g>
</g>
</svg>
