<?xml version="1.0" encoding="UTF-8" standalone="no"?>
<!DOCTYPE svg PUBLIC "-//W3C//DTD SVG 1.1//EN"
 "http://www.w3.org/Graphics/SVG/1.1/DTD/svg11.dtd">
<!-- Generated by graphviz version 5.0.0 (20220707.1540)
 -->
<!-- Title: UmlClassDiagram Pages: 1 -->
<svg width="695pt" height="241pt"
 viewBox="0.00 0.00 695.21 241.40" xmlns="http://www.w3.org/2000/svg" xmlns:xlink="http://www.w3.org/1999/xlink">
<g id="graph0" class="graph" transform="scale(1 1) rotate(0) translate(4 237.4)">
<title>UmlClassDiagram</title>
<polygon fill="white" stroke="transparent" points="-4,4 -4,-237.4 691.21,-237.4 691.21,4 -4,4"/>
<!-- 46 -->
<g id="node1" class="node">
<title>46</title>
<polygon fill="#f2f2f2" stroke="black" points="0,-174.5 0,-232.9 212.31,-232.9 212.31,-174.5 0,-174.5"/>
<text text-anchor="middle" x="106.15" y="-216.3" font-family="Times,serif" font-size="14.00">&lt;&lt;Interface&gt;&gt;</text>
<text text-anchor="middle" x="106.15" y="-199.5" font-family="Times,serif" font-size="14.00">IAggregationExecutor</text>
<text text-anchor="middle" x="106.15" y="-182.7" font-family="Times,serif" font-size="14.00">../contracts/interfaces/IOneInch.sol</text>
</g>
<!-- 47 -->
<g id="node2" class="node">
<title>47</title>
<polygon fill="#f2f2f2" stroke="black" points="67,-79.1 67,-137.5 279.31,-137.5 279.31,-79.1 67,-79.1"/>
<text text-anchor="middle" x="173.15" y="-120.9" font-family="Times,serif" font-size="14.00">&lt;&lt;Interface&gt;&gt;</text>
<text text-anchor="middle" x="173.15" y="-104.1" font-family="Times,serif" font-size="14.00">IOneInchRouter</text>
<text text-anchor="middle" x="173.15" y="-87.3" font-family="Times,serif" font-size="14.00">../contracts/interfaces/IOneInch.sol</text>
</g>
<!-- 47&#45;&gt;46 -->
<g id="edge1" class="edge">
<title>47&#45;&gt;46</title>
<path fill="none" stroke="black" stroke-dasharray="5,2" d="M152.87,-137.58C146.44,-146.55 139.23,-156.6 132.43,-166.07"/>
<polygon fill="black" stroke="black" points="129.59,-164.03 126.6,-174.2 135.27,-168.11 129.59,-164.03"/>
</g>
<!-- 392 -->
<g id="node5" class="node">
<title>392</title>
<polygon fill="#f2f2f2" stroke="black" points="283.1,-174.5 283.1,-232.9 687.21,-232.9 687.21,-174.5 283.1,-174.5"/>
<text text-anchor="middle" x="485.15" y="-216.3" font-family="Times,serif" font-size="14.00">&lt;&lt;Interface&gt;&gt;</text>
<text text-anchor="middle" x="485.15" y="-199.5" font-family="Times,serif" font-size="14.00">IERC20</text>
<text text-anchor="middle" x="485.15" y="-182.7" font-family="Times,serif" font-size="14.00">../node_modules/@openzeppelin/contracts/token/ERC20/IERC20.sol</text>
</g>
<!-- 47&#45;&gt;392 -->
<g id="edge2" class="edge">
<title>47&#45;&gt;392</title>
<path fill="none" stroke="black" stroke-dasharray="5,2" d="M267.61,-137.58C303.42,-148.3 344.38,-160.56 381.03,-171.53"/>
<polygon fill="black" stroke="black" points="380.17,-174.92 390.75,-174.44 382.17,-168.22 380.17,-174.92"/>
</g>
<!-- 53 -->
<g id="node3" class="node">
<title>53</title>
<polygon fill="#f2f2f2" stroke="black" points="297.61,-79.1 297.61,-137.5 510.7,-137.5 510.7,-79.1 297.61,-79.1"/>
<text text-anchor="middle" x="404.15" y="-120.9" font-family="Times,serif" font-size="14.00">&lt;&lt;Interface&gt;&gt;</text>
<text text-anchor="middle" x="404.15" y="-104.1" font-family="Times,serif" font-size="14.00">ISwapper</text>
<text text-anchor="middle" x="404.15" y="-87.3" font-family="Times,serif" font-size="14.00">../contracts/interfaces/ISwapper.sol</text>
</g>
<!-- 182 -->
<g id="node4" class="node">
<title>182</title>
<polygon fill="#f2f2f2" stroke="black" points="279.32,-0.5 279.32,-42.1 528.98,-42.1 528.98,-0.5 279.32,-0.5"/>
<text text-anchor="middle" x="404.15" y="-25.5" font-family="Times,serif" font-size="14.00">Swapper1InchV5</text>
<text text-anchor="middle" x="404.15" y="-8.7" font-family="Times,serif" font-size="14.00">../contracts/swapper/Swapper1InchV5.sol</text>
</g>
<!-- 182&#45;&gt;46 -->
<g id="edge6" class="edge">
<title>182&#45;&gt;46</title>
<path fill="none" stroke="black" stroke-dasharray="5,2" d="M279.27,-26.06C192.1,-31.63 86.49,-45.28 58.15,-78.6 36.73,-103.8 54.28,-139.63 73.92,-166.32"/>
<polygon fill="black" stroke="black" points="71.17,-168.49 80.04,-174.29 76.73,-164.23 71.17,-168.49"/>
</g>
<!-- 182&#45;&gt;47 -->
<g id="edge5" class="edge">
<title>182&#45;&gt;47</title>
<path fill="none" stroke="black" stroke-dasharray="5,2" d="M350.29,-42.12C323.34,-52.04 290.06,-64.28 259.65,-75.47"/>
<polygon fill="black" stroke="black" points="258.07,-72.32 249.89,-79.06 260.49,-78.89 258.07,-72.32"/>
</g>
<!-- 182&#45;&gt;53 -->
<g id="edge3" class="edge">
<title>182&#45;&gt;53</title>
<path fill="none" stroke="black" stroke-dasharray="5,2" d="M404.15,-42.44C404.15,-44.49 404.15,-46.63 404.15,-48.83"/>
<polygon fill="none" stroke="black" points="393.65,-48.94 404.15,-78.94 414.65,-48.94 393.65,-48.94"/>
</g>
<!-- 182&#45;&gt;392 -->
<g id="edge4" class="edge">
<title>182&#45;&gt;392</title>
<path fill="none" stroke="black" stroke-dasharray="5,2" d="M476.16,-42.22C493.49,-50.58 509.94,-62.28 520.15,-78.6 536.79,-105.16 524.76,-139.78 510.45,-165.71"/>
<polygon fill="black" stroke="black" points="507.34,-164.09 505.33,-174.49 513.39,-167.61 507.34,-164.09"/>
</g>
</g>
</svg>
