<?xml version="1.0" encoding="UTF-8" standalone="no"?>
<!DOCTYPE svg PUBLIC "-//W3C//DTD SVG 1.1//EN"
 "http://www.w3.org/Graphics/SVG/1.1/DTD/svg11.dtd">
<!-- Generated by graphviz version 5.0.0 (20220707.1540)
 -->
<!-- Title: StorageDiagram Pages: 1 -->
<svg width="468pt" height="158pt"
 viewBox="0.00 0.00 468.47 157.80" xmlns="http://www.w3.org/2000/svg" xmlns:xlink="http://www.w3.org/1999/xlink">
<g id="graph0" class="graph" transform="scale(1 1) rotate(0) translate(4 153.8)">
<title>StorageDiagram</title>
<polygon fill="white" stroke="transparent" points="-4,4 -4,-153.8 464.47,-153.8 464.47,4 -4,4"/>
<!-- 1 -->
<g id="node1" class="node">
<title>1</title>
<polygon fill="#f2f2f2" stroke="black" points="0,-0.5 0,-149.3 460.47,-149.3 460.47,-0.5 0,-0.5"/>
<text text-anchor="middle" x="230.23" y="-132.7" font-family="Courier New" font-size="14.00">Timelock &lt;&lt;Contract&gt;&gt;</text>
<polyline fill="none" stroke="black" points="0,-124.5 460.47,-124.5 "/>
<text text-anchor="middle" x="24.8" y="-107.9" font-family="Courier New" font-size="14.00">slot</text>
<polyline fill="none" stroke="black" points="0,-99.7 49.61,-99.7 "/>
<text text-anchor="middle" x="24.8" y="-83.1" font-family="Courier New" font-size="14.00">0</text>
<polyline fill="none" stroke="black" points="0,-74.9 49.61,-74.9 "/>
<text text-anchor="middle" x="24.8" y="-58.3" font-family="Courier New" font-size="14.00">1</text>
<polyline fill="none" stroke="black" points="0,-50.1 49.61,-50.1 "/>
<text text-anchor="middle" x="24.8" y="-33.5" font-family="Courier New" font-size="14.00">2</text>
<polyline fill="none" stroke="black" points="0,-25.3 49.61,-25.3 "/>
<text text-anchor="middle" x="24.8" y="-8.7" font-family="Courier New" font-size="14.00">3</text>
<polyline fill="none" stroke="black" points="49.61,-0.5 49.61,-124.5 "/>
<text text-anchor="middle" x="255.04" y="-107.9" font-family="Courier New" font-size="14.00">type: &lt;inherited contract&gt;.variable (bytes)</text>
<polyline fill="none" stroke="black" points="49.61,-99.7 460.47,-99.7 "/>
<text text-anchor="middle" x="145.82" y="-83.1" font-family="Courier New" font-size="14.00">unallocated (12)</text>
<polyline fill="none" stroke="black" points="242.03,-74.9 242.03,-99.7 "/>
<text text-anchor="middle" x="350.84" y="-83.1" font-family="Courier New" font-size="14.00">address: admin (20)</text>
<polyline fill="none" stroke="black" points="49.61,-74.9 460.47,-74.9 "/>
<text text-anchor="middle" x="131.32" y="-58.3" font-family="Courier New" font-size="14.00">unallocated (12)</text>
<polyline fill="none" stroke="black" points="213.03,-50.1 213.03,-74.9 "/>
<text text-anchor="middle" x="336.75" y="-58.3" font-family="Courier New" font-size="14.00">address: pendingAdmin (20)</text>
<polyline fill="none" stroke="black" points="49.61,-50.1 460.47,-50.1 "/>
<text text-anchor="middle" x="254.92" y="-33.5" font-family="Courier New" font-size="14.00">uint256: delay (32)</text>
<polyline fill="none" stroke="black" points="49.61,-25.3 460.47,-25.3 "/>
<text text-anchor="middle" x="255.04" y="-8.7" font-family="Courier New" font-size="14.00">mapping(bytes32=&gt;bool): queuedTransactions (32)</text>
</g>
</g>
</svg>
