<?xml version="1.0" encoding="UTF-8" standalone="no"?>
<!DOCTYPE svg PUBLIC "-//W3C//DTD SVG 1.1//EN"
 "http://www.w3.org/Graphics/SVG/1.1/DTD/svg11.dtd">
<!-- Generated by graphviz version 5.0.0 (20220707.1540)
 -->
<!-- Title: UmlClassDiagram Pages: 1 -->
<svg width="216pt" height="146pt"
 viewBox="0.00 0.00 215.67 146.00" xmlns="http://www.w3.org/2000/svg" xmlns:xlink="http://www.w3.org/1999/xlink">
<g id="graph0" class="graph" transform="scale(1 1) rotate(0) translate(4 142)">
<title>UmlClassDiagram</title>
<polygon fill="white" stroke="transparent" points="-4,4 -4,-142 211.67,-142 211.67,4 -4,4"/>
<!-- 183 -->
<g id="node1" class="node">
<title>183</title>
<polygon fill="#f2f2f2" stroke="black" points="0,-79.1 0,-137.5 207.67,-137.5 207.67,-79.1 0,-79.1"/>
<text text-anchor="middle" x="103.84" y="-120.9" font-family="Times,serif" font-size="14.00">&lt;&lt;Interface&gt;&gt;</text>
<text text-anchor="middle" x="103.84" y="-104.1" font-family="Times,serif" font-size="14.00">CapitalPausable</text>
<text text-anchor="middle" x="103.84" y="-87.3" font-family="Times,serif" font-size="14.00">../contracts/timelock/Timelock.sol</text>
</g>
<!-- 184 -->
<g id="node2" class="node">
<title>184</title>
<polygon fill="#f2f2f2" stroke="black" points="0,-0.5 0,-42.1 207.67,-42.1 207.67,-0.5 0,-0.5"/>
<text text-anchor="middle" x="103.84" y="-25.5" font-family="Times,serif" font-size="14.00">Timelock</text>
<text text-anchor="middle" x="103.84" y="-8.7" font-family="Times,serif" font-size="14.00">../contracts/timelock/Timelock.sol</text>
</g>
<!-- 184&#45;&gt;183 -->
<g id="edge1" class="edge">
<title>184&#45;&gt;183</title>
<path fill="none" stroke="black" stroke-dasharray="5,2" d="M103.84,-42.44C103.84,-50.36 103.84,-59.73 103.84,-68.84"/>
<polygon fill="black" stroke="black" points="100.34,-68.94 103.84,-78.94 107.34,-68.94 100.34,-68.94"/>
</g>
</g>
</svg>
