<?xml version="1.0" encoding="UTF-8" standalone="no"?>
<!DOCTYPE svg PUBLIC "-//W3C//DTD SVG 1.1//EN"
 "http://www.w3.org/Graphics/SVG/1.1/DTD/svg11.dtd">
<!-- Generated by graphviz version 5.0.0 (20220707.1540)
 -->
<!-- Title: StorageDiagram Pages: 1 -->
<svg width="1477pt" height="480pt"
 viewBox="0.00 0.00 1477.42 480.20" xmlns="http://www.w3.org/2000/svg" xmlns:xlink="http://www.w3.org/1999/xlink">
<g id="graph0" class="graph" transform="scale(1 1) rotate(0) translate(4 476.2)">
<title>StorageDiagram</title>
<polygon fill="white" stroke="transparent" points="-4,4 -4,-476.2 1473.42,-476.2 1473.42,4 -4,4"/>
<!-- 3 -->
<g id="node1" class="node">
<title>3</title>
<polygon fill="#f2f2f2" stroke="black" points="0,-0.5 0,-471.7 862.93,-471.7 862.93,-0.5 0,-0.5"/>
<text text-anchor="middle" x="431.47" y="-455.1" font-family="Courier New" font-size="14.00">TwoPoolConvexStrategy &lt;&lt;Contract&gt;&gt;</text>
<polyline fill="none" stroke="black" points="0,-446.9 862.93,-446.9 "/>
<text text-anchor="middle" x="37.4" y="-430.3" font-family="Courier New" font-size="14.00">slot</text>
<polyline fill="none" stroke="black" points="0,-422.1 74.81,-422.1 "/>
<text text-anchor="middle" x="37.4" y="-405.5" font-family="Courier New" font-size="14.00">0</text>
<polyline fill="none" stroke="black" points="0,-397.3 74.81,-397.3 "/>
<text text-anchor="middle" x="37.4" y="-380.7" font-family="Courier New" font-size="14.00">1&#45;50</text>
<polyline fill="none" stroke="black" points="0,-372.5 74.81,-372.5 "/>
<text text-anchor="middle" x="37.4" y="-355.9" font-family="Courier New" font-size="14.00">51</text>
<polyline fill="none" stroke="black" points="0,-347.7 74.81,-347.7 "/>
<text text-anchor="middle" x="37.4" y="-331.1" font-family="Courier New" font-size="14.00">52</text>
<polyline fill="none" stroke="black" points="0,-322.9 74.81,-322.9 "/>
<text text-anchor="middle" x="37.4" y="-306.3" font-family="Courier New" font-size="14.00">53</text>
<polyline fill="none" stroke="black" points="0,-298.1 74.81,-298.1 "/>
<text text-anchor="middle" x="37.4" y="-281.5" font-family="Courier New" font-size="14.00">54</text>
<polyline fill="none" stroke="black" points="0,-273.3 74.81,-273.3 "/>
<text text-anchor="middle" x="37.4" y="-256.7" font-family="Courier New" font-size="14.00">55</text>
<polyline fill="none" stroke="black" points="0,-248.5 74.81,-248.5 "/>
<text text-anchor="middle" x="37.4" y="-231.9" font-family="Courier New" font-size="14.00">56</text>
<polyline fill="none" stroke="black" points="0,-223.7 74.81,-223.7 "/>
<text text-anchor="middle" x="37.4" y="-207.1" font-family="Courier New" font-size="14.00">57</text>
<polyline fill="none" stroke="black" points="0,-198.9 74.81,-198.9 "/>
<text text-anchor="middle" x="37.4" y="-182.3" font-family="Courier New" font-size="14.00">58</text>
<polyline fill="none" stroke="black" points="0,-174.1 74.81,-174.1 "/>
<text text-anchor="middle" x="37.4" y="-157.5" font-family="Courier New" font-size="14.00">59&#45;156</text>
<polyline fill="none" stroke="black" points="0,-149.3 74.81,-149.3 "/>
<text text-anchor="middle" x="37.4" y="-132.7" font-family="Courier New" font-size="14.00">157</text>
<polyline fill="none" stroke="black" points="0,-124.5 74.81,-124.5 "/>
<text text-anchor="middle" x="37.4" y="-107.9" font-family="Courier New" font-size="14.00">158&#45;206</text>
<polyline fill="none" stroke="black" points="0,-99.7 74.81,-99.7 "/>
<text text-anchor="middle" x="37.4" y="-83.1" font-family="Courier New" font-size="14.00">207</text>
<polyline fill="none" stroke="black" points="0,-74.9 74.81,-74.9 "/>
<text text-anchor="middle" x="37.4" y="-58.3" font-family="Courier New" font-size="14.00">208</text>
<polyline fill="none" stroke="black" points="0,-50.1 74.81,-50.1 "/>
<text text-anchor="middle" x="37.4" y="-33.5" font-family="Courier New" font-size="14.00">209</text>
<polyline fill="none" stroke="black" points="0,-25.3 74.81,-25.3 "/>
<text text-anchor="middle" x="37.4" y="-8.7" font-family="Courier New" font-size="14.00">210</text>
<polyline fill="none" stroke="black" points="74.81,-0.5 74.81,-446.9 "/>
<text text-anchor="middle" x="468.87" y="-430.3" font-family="Courier New" font-size="14.00">type: &lt;inherited contract&gt;.variable (bytes)</text>
<polyline fill="none" stroke="black" points="74.81,-422.1 862.93,-422.1 "/>
<text text-anchor="middle" x="151.52" y="-405.5" font-family="Courier New" font-size="14.00">unallocated (30)</text>
<polyline fill="none" stroke="black" points="228.23,-397.3 228.23,-422.1 "/>
<text text-anchor="middle" x="388.96" y="-405.5" font-family="Courier New" font-size="14.00">bool: Initializable.initializing (1)</text>
<polyline fill="none" stroke="black" points="549.68,-397.3 549.68,-422.1 "/>
<text text-anchor="middle" x="706.2" y="-405.5" font-family="Courier New" font-size="14.00">bool: Initializable.initialized (1)</text>
<polyline fill="none" stroke="black" points="74.81,-397.3 862.93,-397.3 "/>
<text text-anchor="middle" x="468.44" y="-380.7" font-family="Courier New" font-size="14.00">uint256[50]: Initializable.______gap (1600)</text>
<polyline fill="none" stroke="black" points="74.81,-372.5 862.93,-372.5 "/>
<text text-anchor="middle" x="156.02" y="-355.9" font-family="Courier New" font-size="14.00">unallocated (12)</text>
<polyline fill="none" stroke="black" points="237.23,-347.7 237.23,-372.5 "/>
<text text-anchor="middle" x="549.98" y="-355.9" font-family="Courier New" font-size="14.00">address: InitializableAbstractStrategy._deprecated_platformAddress (20)</text>
<polyline fill="none" stroke="black" points="74.81,-347.7 862.93,-347.7 "/>
<text text-anchor="middle" x="162.52" y="-331.1" font-family="Courier New" font-size="14.00">unallocated (12)</text>
<polyline fill="none" stroke="black" points="250.23,-322.9 250.23,-347.7 "/>
<text text-anchor="middle" x="556.38" y="-331.1" font-family="Courier New" font-size="14.00">address: InitializableAbstractStrategy._deprecated_vaultAddress (20)</text>
<polyline fill="none" stroke="black" points="74.81,-322.9 862.93,-322.9 "/>
<text text-anchor="middle" x="468.86" y="-306.3" font-family="Courier New" font-size="14.00">mapping(address=&gt;address): InitializableAbstractStrategy.assetToPToken (32)</text>
<polyline fill="none" stroke="black" points="74.81,-298.1 862.93,-298.1 "/>
<text text-anchor="middle" x="468.45" y="-281.5" font-family="Courier New" font-size="14.00">address[]: InitializableAbstractStrategy.assetsMapped (32)</text>
<polyline fill="none" stroke="black" points="74.81,-273.3 862.93,-273.3 "/>
<text text-anchor="middle" x="150.02" y="-256.7" font-family="Courier New" font-size="14.00">unallocated (12)</text>
<polyline fill="none" stroke="black" points="225.23,-248.5 225.23,-273.3 "/>
<text text-anchor="middle" x="544.08" y="-256.7" font-family="Courier New" font-size="14.00">address: InitializableAbstractStrategy._deprecated_rewardTokenAddress (20)</text>
<polyline fill="none" stroke="black" points="74.81,-248.5 862.93,-248.5 "/>
<text text-anchor="middle" x="468.77" y="-231.9" font-family="Courier New" font-size="14.00">uint256: InitializableAbstractStrategy._deprecated_rewardLiquidationThreshold (32)</text>
<polyline fill="none" stroke="black" points="74.81,-223.7 862.93,-223.7 "/>
<text text-anchor="middle" x="179.02" y="-207.1" font-family="Courier New" font-size="14.00">unallocated (12)</text>
<polyline fill="none" stroke="black" points="283.23,-198.9 283.23,-223.7 "/>
<text text-anchor="middle" x="572.77" y="-207.1" font-family="Courier New" font-size="14.00">address: InitializableAbstractStrategy.harvesterAddress (20)</text>
<polyline fill="none" stroke="black" points="74.81,-198.9 862.93,-198.9 "/>
<text text-anchor="middle" x="468.55" y="-182.3" font-family="Courier New" font-size="14.00">address[]: InitializableAbstractStrategy.rewardTokenAddresses (32)</text>
<polyline fill="none" stroke="black" points="74.81,-174.1 862.93,-174.1 "/>
<text text-anchor="middle" x="468.45" y="-157.5" font-family="Courier New" font-size="14.00">int256[98]: InitializableAbstractStrategy._reserved (3136)</text>
<polyline fill="none" stroke="black" points="74.81,-149.3 862.93,-149.3 "/>
<text text-anchor="middle" x="187.52" y="-132.7" font-family="Courier New" font-size="14.00">unallocated (12)</text>
<polyline fill="none" stroke="black" points="300.23,-124.5 300.23,-149.3 "/>
<text text-anchor="middle" x="581.47" y="-132.7" font-family="Courier New" font-size="14.00">address: BaseCurveStrategy.deprecated_pTokenAddress (20)</text>
<polyline fill="none" stroke="black" points="74.81,-124.5 862.93,-124.5 "/>
<text text-anchor="middle" x="468.74" y="-107.9" font-family="Courier New" font-size="14.00">int256[49]: BaseCurveStrategy.__reserved (1568)</text>
<polyline fill="none" stroke="black" points="74.81,-99.7 862.93,-99.7 "/>
<text text-anchor="middle" x="179.02" y="-83.1" font-family="Courier New" font-size="14.00">unallocated (12)</text>
<polyline fill="none" stroke="black" points="283.23,-74.9 283.23,-99.7 "/>
<text text-anchor="middle" x="572.77" y="-83.1" font-family="Courier New" font-size="14.00">address: ConvexStrategy._deprecated_CvxDepositorAddress (20)</text>
<polyline fill="none" stroke="black" points="74.81,-74.9 862.93,-74.9 "/>
<text text-anchor="middle" x="173.02" y="-58.3" font-family="Courier New" font-size="14.00">unallocated (12)</text>
<polyline fill="none" stroke="black" points="271.23,-50.1 271.23,-74.9 "/>
<text text-anchor="middle" x="566.87" y="-58.3" font-family="Courier New" font-size="14.00">address: ConvexStrategy._deprecated_CvxRewardStakerAddress (20)</text>
<polyline fill="none" stroke="black" points="74.81,-50.1 862.93,-50.1 "/>
<text text-anchor="middle" x="175.02" y="-33.5" font-family="Courier New" font-size="14.00">unallocated (12)</text>
<polyline fill="none" stroke="black" points="275.23,-25.3 275.23,-50.1 "/>
<text text-anchor="middle" x="568.67" y="-33.5" font-family="Courier New" font-size="14.00">address: ConvexStrategy._deprecated_cvxRewardTokenAddress (20)</text>
<polyline fill="none" stroke="black" points="74.81,-25.3 862.93,-25.3 "/>
<text text-anchor="middle" x="468.55" y="-8.7" font-family="Courier New" font-size="14.00">uint256: ConvexStrategy._deprecated_CvxDepositorPTokenId (32)</text>
</g>
<!-- 1 -->
<g id="node2" class="node">
<title>1</title>
<polygon fill="#f2f2f2" stroke="black" points="898.93,-245.5 898.93,-336.7 1469.42,-336.7 1469.42,-245.5 898.93,-245.5"/>
<text text-anchor="middle" x="1184.18" y="-320.1" font-family="Courier New" font-size="14.00">address[]: assetsMapped &lt;&lt;Array&gt;&gt;</text>
<text text-anchor="middle" x="1184.18" y="-303.3" font-family="Courier New" font-size="14.00">0x4a11f94e20a93c79f6ec743a1954ec4fc2c08429ae2122118bf234b2185c81b8</text>
<polyline fill="none" stroke="black" points="898.93,-295.1 1469.42,-295.1 "/>
<text text-anchor="middle" x="991.14" y="-278.5" font-family="Courier New" font-size="14.00">offset</text>
<polyline fill="none" stroke="black" points="898.93,-270.3 1083.34,-270.3 "/>
<text text-anchor="middle" x="991.14" y="-253.7" font-family="Courier New" font-size="14.00">0</text>
<polyline fill="none" stroke="black" points="1083.34,-245.5 1083.34,-295.1 "/>
<text text-anchor="middle" x="1275.96" y="-278.5" font-family="Courier New" font-size="14.00">type: variable (bytes)</text>
<polyline fill="none" stroke="black" points="1083.34,-270.3 1468.58,-270.3 "/>
<text text-anchor="middle" x="1188.05" y="-253.7" font-family="Courier New" font-size="14.00">unallocated (12)</text>
<polyline fill="none" stroke="black" points="1292.76,-245.5 1292.76,-270.3 "/>
<text text-anchor="middle" x="1380.67" y="-253.7" font-family="Courier New" font-size="14.00">address (20)</text>
</g>
<!-- 3&#45;&gt;1 -->
<g id="edge1" class="edge">
<title>3:8&#45;&gt;1</title>
<path fill="none" stroke="black" d="M862.93,-286.1C871.33,-286.1 879.84,-286.12 888.44,-286.15"/>
<polygon fill="black" stroke="black" points="888.55,-289.65 898.56,-286.2 888.58,-282.65 888.55,-289.65"/>
</g>
<!-- 2 -->
<g id="node3" class="node">
<title>2</title>
<polygon fill="#f2f2f2" stroke="black" points="898.93,-135.5 898.93,-226.7 1469.42,-226.7 1469.42,-135.5 898.93,-135.5"/>
<text text-anchor="middle" x="1184.18" y="-210.1" font-family="Courier New" font-size="14.00">address[]: rewardTokenAddresses &lt;&lt;Array&gt;&gt;</text>
<text text-anchor="middle" x="1184.18" y="-193.3" font-family="Courier New" font-size="14.00">0xa2999d817b6757290b50e8ecf3fa939673403dd35c97de392fdb343b4015ce9e</text>
<polyline fill="none" stroke="black" points="898.93,-185.1 1469.42,-185.1 "/>
<text text-anchor="middle" x="991.14" y="-168.5" font-family="Courier New" font-size="14.00">offset</text>
<polyline fill="none" stroke="black" points="898.93,-160.3 1083.34,-160.3 "/>
<text text-anchor="middle" x="991.14" y="-143.7" font-family="Courier New" font-size="14.00">0</text>
<polyline fill="none" stroke="black" points="1083.34,-135.5 1083.34,-185.1 "/>
<text text-anchor="middle" x="1275.96" y="-168.5" font-family="Courier New" font-size="14.00">type: variable (bytes)</text>
<polyline fill="none" stroke="black" points="1083.34,-160.3 1468.58,-160.3 "/>
<text text-anchor="middle" x="1188.05" y="-143.7" font-family="Courier New" font-size="14.00">unallocated (12)</text>
<polyline fill="none" stroke="black" points="1292.76,-135.5 1292.76,-160.3 "/>
<text text-anchor="middle" x="1380.67" y="-143.7" font-family="Courier New" font-size="14.00">address (20)</text>
</g>
<!-- 3&#45;&gt;2 -->
<g id="edge2" class="edge">
<title>3:13&#45;&gt;2</title>
<path fill="none" stroke="black" d="M862.93,-186.1C871.33,-186.1 879.84,-186.08 888.44,-186.05"/>
<polygon fill="black" stroke="black" points="888.58,-189.55 898.56,-186 888.55,-182.55 888.58,-189.55"/>
</g>
</g>
</svg>
