<?xml version="1.0" encoding="UTF-8" standalone="no"?>
<!DOCTYPE svg PUBLIC "-//W3C//DTD SVG 1.1//EN"
 "http://www.w3.org/Graphics/SVG/1.1/DTD/svg11.dtd">
<!-- Generated by graphviz version 5.0.0 (20220707.1540)
 -->
<!-- Title: StorageDiagram Pages: 1 -->
<svg width="2908pt" height="959pt"
 viewBox="0.00 0.00 2907.63 958.60" xmlns="http://www.w3.org/2000/svg" xmlns:xlink="http://www.w3.org/1999/xlink">
<g id="graph0" class="graph" transform="scale(1 1) rotate(0) translate(4 954.6)">
<title>StorageDiagram</title>
<polygon fill="white" stroke="transparent" points="-4,4 -4,-954.6 2903.63,-954.6 2903.63,4 -4,4"/>
<!-- 6 -->
<g id="node1" class="node">
<title>6</title>
<polygon fill="#f2f2f2" stroke="black" points="0,-75.1 0,-893.5 1927.5,-893.5 1927.5,-75.1 0,-75.1"/>
<text text-anchor="middle" x="963.75" y="-876.9" font-family="Courier New" font-size="14.00">UniswapV3Strategy &lt;&lt;Contract&gt;&gt;</text>
<polyline fill="none" stroke="black" points="0,-868.7 1927.5,-868.7 "/>
<text text-anchor="middle" x="33.2" y="-852.1" font-family="Courier New" font-size="14.00">slot</text>
<polyline fill="none" stroke="black" points="0,-843.9 66.41,-843.9 "/>
<text text-anchor="middle" x="33.2" y="-827.3" font-family="Courier New" font-size="14.00">0</text>
<polyline fill="none" stroke="black" points="0,-819.1 66.41,-819.1 "/>
<text text-anchor="middle" x="33.2" y="-802.5" font-family="Courier New" font-size="14.00">1&#45;50</text>
<polyline fill="none" stroke="black" points="0,-794.3 66.41,-794.3 "/>
<text text-anchor="middle" x="33.2" y="-777.7" font-family="Courier New" font-size="14.00">51</text>
<polyline fill="none" stroke="black" points="0,-769.5 66.41,-769.5 "/>
<text text-anchor="middle" x="33.2" y="-752.9" font-family="Courier New" font-size="14.00">52</text>
<polyline fill="none" stroke="black" points="0,-744.7 66.41,-744.7 "/>
<text text-anchor="middle" x="33.2" y="-728.1" font-family="Courier New" font-size="14.00">53</text>
<polyline fill="none" stroke="black" points="0,-719.9 66.41,-719.9 "/>
<text text-anchor="middle" x="33.2" y="-703.3" font-family="Courier New" font-size="14.00">54</text>
<polyline fill="none" stroke="black" points="0,-695.1 66.41,-695.1 "/>
<text text-anchor="middle" x="33.2" y="-678.5" font-family="Courier New" font-size="14.00">55</text>
<polyline fill="none" stroke="black" points="0,-670.3 66.41,-670.3 "/>
<text text-anchor="middle" x="33.2" y="-653.7" font-family="Courier New" font-size="14.00">56</text>
<polyline fill="none" stroke="black" points="0,-645.5 66.41,-645.5 "/>
<text text-anchor="middle" x="33.2" y="-628.9" font-family="Courier New" font-size="14.00">57</text>
<polyline fill="none" stroke="black" points="0,-620.7 66.41,-620.7 "/>
<text text-anchor="middle" x="33.2" y="-604.1" font-family="Courier New" font-size="14.00">58</text>
<polyline fill="none" stroke="black" points="0,-595.9 66.41,-595.9 "/>
<text text-anchor="middle" x="33.2" y="-579.3" font-family="Courier New" font-size="14.00">59&#45;156</text>
<polyline fill="none" stroke="black" points="0,-571.1 66.41,-571.1 "/>
<text text-anchor="middle" x="33.2" y="-554.5" font-family="Courier New" font-size="14.00">157</text>
<polyline fill="none" stroke="black" points="0,-546.3 66.41,-546.3 "/>
<text text-anchor="middle" x="33.2" y="-529.7" font-family="Courier New" font-size="14.00">158</text>
<polyline fill="none" stroke="black" points="0,-521.5 66.41,-521.5 "/>
<text text-anchor="middle" x="33.2" y="-504.9" font-family="Courier New" font-size="14.00">159</text>
<polyline fill="none" stroke="black" points="0,-496.7 66.41,-496.7 "/>
<text text-anchor="middle" x="33.2" y="-480.1" font-family="Courier New" font-size="14.00">160</text>
<polyline fill="none" stroke="black" points="0,-471.9 66.41,-471.9 "/>
<text text-anchor="middle" x="33.2" y="-455.3" font-family="Courier New" font-size="14.00">161</text>
<polyline fill="none" stroke="black" points="0,-447.1 66.41,-447.1 "/>
<text text-anchor="middle" x="33.2" y="-430.5" font-family="Courier New" font-size="14.00">162</text>
<polyline fill="none" stroke="black" points="0,-422.3 66.41,-422.3 "/>
<text text-anchor="middle" x="33.2" y="-405.7" font-family="Courier New" font-size="14.00">163</text>
<polyline fill="none" stroke="black" points="0,-397.5 66.41,-397.5 "/>
<text text-anchor="middle" x="33.2" y="-380.9" font-family="Courier New" font-size="14.00">164</text>
<polyline fill="none" stroke="black" points="0,-372.7 66.41,-372.7 "/>
<text text-anchor="middle" x="33.2" y="-356.1" font-family="Courier New" font-size="14.00">165</text>
<polyline fill="none" stroke="black" points="0,-347.9 66.41,-347.9 "/>
<text text-anchor="middle" x="33.2" y="-331.3" font-family="Courier New" font-size="14.00">166</text>
<polyline fill="none" stroke="black" points="0,-323.1 66.41,-323.1 "/>
<text text-anchor="middle" x="33.2" y="-306.5" font-family="Courier New" font-size="14.00">167</text>
<polyline fill="none" stroke="black" points="0,-298.3 66.41,-298.3 "/>
<text text-anchor="middle" x="33.2" y="-281.7" font-family="Courier New" font-size="14.00">168</text>
<polyline fill="none" stroke="black" points="0,-273.5 66.41,-273.5 "/>
<text text-anchor="middle" x="33.2" y="-256.9" font-family="Courier New" font-size="14.00">169</text>
<polyline fill="none" stroke="black" points="0,-248.7 66.41,-248.7 "/>
<text text-anchor="middle" x="33.2" y="-232.1" font-family="Courier New" font-size="14.00">170</text>
<polyline fill="none" stroke="black" points="0,-223.9 66.41,-223.9 "/>
<text text-anchor="middle" x="33.2" y="-207.3" font-family="Courier New" font-size="14.00">171</text>
<polyline fill="none" stroke="black" points="0,-199.1 66.41,-199.1 "/>
<text text-anchor="middle" x="33.2" y="-182.5" font-family="Courier New" font-size="14.00">172</text>
<polyline fill="none" stroke="black" points="0,-174.3 66.41,-174.3 "/>
<text text-anchor="middle" x="33.2" y="-157.7" font-family="Courier New" font-size="14.00">173</text>
<polyline fill="none" stroke="black" points="0,-149.5 66.41,-149.5 "/>
<text text-anchor="middle" x="33.2" y="-132.9" font-family="Courier New" font-size="14.00">174</text>
<polyline fill="none" stroke="black" points="0,-124.7 66.41,-124.7 "/>
<text text-anchor="middle" x="33.2" y="-108.1" font-family="Courier New" font-size="14.00">175</text>
<polyline fill="none" stroke="black" points="0,-99.9 66.41,-99.9 "/>
<text text-anchor="middle" x="33.2" y="-83.3" font-family="Courier New" font-size="14.00">176</text>
<polyline fill="none" stroke="black" points="66.41,-75.1 66.41,-868.7 "/>
<text text-anchor="middle" x="996.95" y="-852.1" font-family="Courier New" font-size="14.00">type: &lt;inherited contract&gt;.variable (bytes)</text>
<polyline fill="none" stroke="black" points="66.41,-843.9 1927.5,-843.9 "/>
<text text-anchor="middle" x="321.62" y="-827.3" font-family="Courier New" font-size="14.00">unallocated (30)</text>
<polyline fill="none" stroke="black" points="576.83,-819.1 576.83,-843.9 "/>
<text text-anchor="middle" x="916.55" y="-827.3" font-family="Courier New" font-size="14.00">bool: Initializable.initializing (1)</text>
<polyline fill="none" stroke="black" points="1256.28,-819.1 1256.28,-843.9 "/>
<text text-anchor="middle" x="1591.8" y="-827.3" font-family="Courier New" font-size="14.00">bool: Initializable.initialized (1)</text>
<polyline fill="none" stroke="black" points="66.41,-819.1 1927.5,-819.1 "/>
<text text-anchor="middle" x="996.54" y="-802.5" font-family="Courier New" font-size="14.00">uint256[50]: Initializable.______gap (1600)</text>
<polyline fill="none" stroke="black" points="66.41,-794.3 1927.5,-794.3 "/>
<text text-anchor="middle" x="441.12" y="-777.7" font-family="Courier New" font-size="14.00">unallocated (12)</text>
<polyline fill="none" stroke="black" points="815.83,-769.5 815.83,-794.3 "/>
<text text-anchor="middle" x="1371.17" y="-777.7" font-family="Courier New" font-size="14.00">address: InitializableAbstractStrategy.platformAddress (20)</text>
<polyline fill="none" stroke="black" points="66.41,-769.5 1927.5,-769.5 "/>
<text text-anchor="middle" x="447.62" y="-752.9" font-family="Courier New" font-size="14.00">unallocated (12)</text>
<polyline fill="none" stroke="black" points="828.83,-744.7 828.83,-769.5 "/>
<text text-anchor="middle" x="1378.07" y="-752.9" font-family="Courier New" font-size="14.00">address: InitializableAbstractStrategy.vaultAddress (20)</text>
<polyline fill="none" stroke="black" points="66.41,-744.7 1927.5,-744.7 "/>
<text text-anchor="middle" x="996.46" y="-728.1" font-family="Courier New" font-size="14.00">mapping(address=&gt;address): InitializableAbstractStrategy.assetToPToken (32)</text>
<polyline fill="none" stroke="black" points="66.41,-719.9 1927.5,-719.9 "/>
<text text-anchor="middle" x="996.55" y="-703.3" font-family="Courier New" font-size="14.00">address[]: InitializableAbstractStrategy.assetsMapped (32)</text>
<polyline fill="none" stroke="black" points="66.41,-695.1 1927.5,-695.1 "/>
<text text-anchor="middle" x="409.62" y="-678.5" font-family="Courier New" font-size="14.00">unallocated (12)</text>
<polyline fill="none" stroke="black" points="752.83,-670.3 752.83,-695.1 "/>
<text text-anchor="middle" x="1339.68" y="-678.5" font-family="Courier New" font-size="14.00">address: InitializableAbstractStrategy._deprecated_rewardTokenAddress (20)</text>
<polyline fill="none" stroke="black" points="66.41,-670.3 1927.5,-670.3 "/>
<text text-anchor="middle" x="996.86" y="-653.7" font-family="Courier New" font-size="14.00">uint256: InitializableAbstractStrategy._deprecated_rewardLiquidationThreshold (32)</text>
<polyline fill="none" stroke="black" points="66.41,-645.5 1927.5,-645.5 "/>
<text text-anchor="middle" x="439.12" y="-628.9" font-family="Courier New" font-size="14.00">unallocated (12)</text>
<polyline fill="none" stroke="black" points="811.83,-620.7 811.83,-645.5 "/>
<text text-anchor="middle" x="1369.37" y="-628.9" font-family="Courier New" font-size="14.00">address: InitializableAbstractStrategy.harvesterAddress (20)</text>
<polyline fill="none" stroke="black" points="66.41,-620.7 1927.5,-620.7 "/>
<text text-anchor="middle" x="996.65" y="-604.1" font-family="Courier New" font-size="14.00">address[]: InitializableAbstractStrategy.rewardTokenAddresses (32)</text>
<polyline fill="none" stroke="black" points="66.41,-595.9 1927.5,-595.9 "/>
<text text-anchor="middle" x="996.55" y="-579.3" font-family="Courier New" font-size="14.00">int256[98]: InitializableAbstractStrategy._reserved (3136)</text>
<polyline fill="none" stroke="black" points="66.41,-571.1 1927.5,-571.1 "/>
<text text-anchor="middle" x="449.62" y="-554.5" font-family="Courier New" font-size="14.00">unallocated (12)</text>
<polyline fill="none" stroke="black" points="832.83,-546.3 832.83,-571.1 "/>
<text text-anchor="middle" x="1379.87" y="-554.5" font-family="Courier New" font-size="14.00">IUniswapV3Strategy: UniswapV3StrategyStorage._self (20)</text>
<polyline fill="none" stroke="black" points="66.41,-546.3 1927.5,-546.3 "/>
<text text-anchor="middle" x="458.12" y="-529.7" font-family="Courier New" font-size="14.00">unallocated (12)</text>
<polyline fill="none" stroke="black" points="849.83,-521.5 849.83,-546.3 "/>
<text text-anchor="middle" x="1388.56" y="-529.7" font-family="Courier New" font-size="14.00">address: UniswapV3StrategyStorage.operatorAddr (20)</text>
<polyline fill="none" stroke="black" points="66.41,-521.5 1927.5,-521.5 "/>
<text text-anchor="middle" x="470.62" y="-504.9" font-family="Courier New" font-size="14.00">unallocated (12)</text>
<polyline fill="none" stroke="black" points="874.83,-496.7 874.83,-521.5 "/>
<text text-anchor="middle" x="1400.86" y="-504.9" font-family="Courier New" font-size="14.00">address: UniswapV3StrategyStorage.token0 (20)</text>
<polyline fill="none" stroke="black" points="66.41,-496.7 1927.5,-496.7 "/>
<text text-anchor="middle" x="470.62" y="-480.1" font-family="Courier New" font-size="14.00">unallocated (12)</text>
<polyline fill="none" stroke="black" points="874.83,-471.9 874.83,-496.7 "/>
<text text-anchor="middle" x="1400.86" y="-480.1" font-family="Courier New" font-size="14.00">address: UniswapV3StrategyStorage.token1 (20)</text>
<polyline fill="none" stroke="black" points="66.41,-471.9 1927.5,-471.9 "/>
<text text-anchor="middle" x="445.12" y="-455.3" font-family="Courier New" font-size="14.00">unallocated (12)</text>
<polyline fill="none" stroke="black" points="823.83,-447.1 823.83,-471.9 "/>
<text text-anchor="middle" x="1375.27" y="-455.3" font-family="Courier New" font-size="14.00">IStrategy: UniswapV3StrategyStorage.reserveStrategy0 (20)</text>
<polyline fill="none" stroke="black" points="66.41,-447.1 1927.5,-447.1 "/>
<text text-anchor="middle" x="137.42" y="-430.5" font-family="Courier New" font-size="14.00">unallocated (7)</text>
<polyline fill="none" stroke="black" points="208.43,-422.3 208.43,-447.1 "/>
<text text-anchor="middle" x="426.46" y="-430.5" font-family="Courier New" font-size="14.00">bool: UniswapV3StrategyStorage.rebalancePaused (1)</text>
<polyline fill="none" stroke="black" points="644.5,-422.3 644.5,-447.1 "/>
<text text-anchor="middle" x="845.73" y="-430.5" font-family="Courier New" font-size="14.00">bool: UniswapV3StrategyStorage.swapsPaused (1)</text>
<polyline fill="none" stroke="black" points="1046.96,-422.3 1046.96,-447.1 "/>
<text text-anchor="middle" x="1239.79" y="-430.5" font-family="Courier New" font-size="14.00">uint24: UniswapV3StrategyStorage.poolFee (3)</text>
<polyline fill="none" stroke="black" points="1432.62,-422.3 1432.62,-447.1 "/>
<text text-anchor="middle" x="1680.06" y="-430.5" font-family="Courier New" font-size="14.00">IStrategy: UniswapV3StrategyStorage.reserveStrategy1 (20)</text>
<polyline fill="none" stroke="black" points="66.41,-422.3 1927.5,-422.3 "/>
<text text-anchor="middle" x="996.94" y="-405.7" font-family="Courier New" font-size="14.00">uint256: UniswapV3StrategyStorage.maxTVL (32)</text>
<polyline fill="none" stroke="black" points="66.41,-397.5 1927.5,-397.5 "/>
<text text-anchor="middle" x="996.75" y="-380.9" font-family="Courier New" font-size="14.00">uint256: UniswapV3StrategyStorage.minDepositThreshold0 (32)</text>
<polyline fill="none" stroke="black" points="66.41,-372.7 1927.5,-372.7 "/>
<text text-anchor="middle" x="996.75" y="-356.1" font-family="Courier New" font-size="14.00">uint256: UniswapV3StrategyStorage.minDepositThreshold1 (32)</text>
<polyline fill="none" stroke="black" points="66.41,-347.9 1927.5,-347.9 "/>
<text text-anchor="middle" x="179.92" y="-331.3" font-family="Courier New" font-size="14.00">unallocated (6)</text>
<polyline fill="none" stroke="black" points="293.43,-323.1 293.43,-347.9 "/>
<text text-anchor="middle" x="571.27" y="-331.3" font-family="Courier New" font-size="14.00">uint160: UniswapV3StrategyStorage.minSwapPriceX96 (20)</text>
<polyline fill="none" stroke="black" points="849.1,-323.1 849.1,-347.9 "/>
<text text-anchor="middle" x="1118.54" y="-331.3" font-family="Courier New" font-size="14.00">int24: UniswapV3StrategyStorage.maxRebalanceTick (3)</text>
<polyline fill="none" stroke="black" points="1387.97,-323.1 1387.97,-347.9 "/>
<text text-anchor="middle" x="1657.41" y="-331.3" font-family="Courier New" font-size="14.00">int24: UniswapV3StrategyStorage.minRebalanceTick (3)</text>
<polyline fill="none" stroke="black" points="66.41,-323.1 1927.5,-323.1 "/>
<text text-anchor="middle" x="451.62" y="-306.5" font-family="Courier New" font-size="14.00">unallocated (12)</text>
<polyline fill="none" stroke="black" points="836.83,-298.3 836.83,-323.1 "/>
<text text-anchor="middle" x="1381.67" y="-306.5" font-family="Courier New" font-size="14.00">uint160: UniswapV3StrategyStorage.maxSwapPriceX96 (20)</text>
<polyline fill="none" stroke="black" points="66.41,-298.3 1927.5,-298.3 "/>
<text text-anchor="middle" x="996.84" y="-281.7" font-family="Courier New" font-size="14.00">uint256: UniswapV3StrategyStorage.activeTokenId (32)</text>
<polyline fill="none" stroke="black" points="66.41,-273.5 1927.5,-273.5 "/>
<text text-anchor="middle" x="996.64" y="-256.9" font-family="Courier New" font-size="14.00">uint256: UniswapV3StrategyStorage.netLostValue (32)</text>
<polyline fill="none" stroke="black" points="66.41,-248.7 1927.5,-248.7 "/>
<text text-anchor="middle" x="996.55" y="-232.1" font-family="Courier New" font-size="14.00">uint256: UniswapV3StrategyStorage.maxPositionValueLostThreshold (32)</text>
<polyline fill="none" stroke="black" points="66.41,-223.9 1927.5,-223.9 "/>
<text text-anchor="middle" x="460.12" y="-207.3" font-family="Courier New" font-size="14.00">unallocated (12)</text>
<polyline fill="none" stroke="black" points="853.83,-199.1 853.83,-223.9 "/>
<text text-anchor="middle" x="1390.36" y="-207.3" font-family="Courier New" font-size="14.00">IUniswapV3Pool: UniswapV3StrategyStorage.pool (20)</text>
<polyline fill="none" stroke="black" points="66.41,-199.1 1927.5,-199.1 "/>
<text text-anchor="middle" x="409.62" y="-182.5" font-family="Courier New" font-size="14.00">unallocated (12)</text>
<polyline fill="none" stroke="black" points="752.83,-174.3 752.83,-199.1 "/>
<text text-anchor="middle" x="1339.68" y="-182.5" font-family="Courier New" font-size="14.00">INonfungiblePositionManager: UniswapV3StrategyStorage.positionManager (20)</text>
<polyline fill="none" stroke="black" points="66.41,-174.3 1927.5,-174.3 "/>
<text text-anchor="middle" x="451.62" y="-157.7" font-family="Courier New" font-size="14.00">unallocated (12)</text>
<polyline fill="none" stroke="black" points="836.83,-149.5 836.83,-174.3 "/>
<text text-anchor="middle" x="1381.67" y="-157.7" font-family="Courier New" font-size="14.00">IUniswapV3Helper: UniswapV3StrategyStorage.helper (20)</text>
<polyline fill="none" stroke="black" points="66.41,-149.5 1927.5,-149.5 "/>
<text text-anchor="middle" x="453.62" y="-132.9" font-family="Courier New" font-size="14.00">unallocated (12)</text>
<polyline fill="none" stroke="black" points="840.83,-124.7 840.83,-149.5 "/>
<text text-anchor="middle" x="1383.97" y="-132.9" font-family="Courier New" font-size="14.00">ISwapRouter: UniswapV3StrategyStorage.swapRouter (20)</text>
<polyline fill="none" stroke="black" points="66.41,-124.7 1927.5,-124.7 "/>
<text text-anchor="middle" x="996.76" y="-108.1" font-family="Courier New" font-size="14.00">mapping(int48=&gt;uint256): UniswapV3StrategyStorage.ticksToTokenId (32)</text>
<polyline fill="none" stroke="black" points="66.41,-99.9 1927.5,-99.9 "/>
<text text-anchor="middle" x="996.46" y="-83.3" font-family="Courier New" font-size="14.00">mapping(uint256=&gt;Position): UniswapV3StrategyStorage.tokenIdToPosition (32)</text>
</g>
<!-- 1 -->
<g id="node2" class="node">
<title>1</title>
<polygon fill="#f2f2f2" stroke="black" points="2289.14,-776.5 2289.14,-950.1 2573.99,-950.1 2573.99,-776.5 2289.14,-776.5"/>
<text text-anchor="middle" x="2431.57" y="-933.5" font-family="Courier New" font-size="14.00">uint256[50]: ______gap &lt;&lt;Array&gt;&gt;</text>
<polyline fill="none" stroke="black" points="2289.14,-925.3 2573.99,-925.3 "/>
<text text-anchor="middle" x="2322.45" y="-908.7" font-family="Courier New" font-size="14.00">slot</text>
<polyline fill="none" stroke="black" points="2289.14,-900.5 2355.75,-900.5 "/>
<text text-anchor="middle" x="2322.45" y="-883.9" font-family="Courier New" font-size="14.00">1</text>
<polyline fill="none" stroke="black" points="2289.14,-875.7 2355.75,-875.7 "/>
<text text-anchor="middle" x="2322.45" y="-859.1" font-family="Courier New" font-size="14.00">2</text>
<polyline fill="none" stroke="black" points="2289.14,-850.9 2355.75,-850.9 "/>
<text text-anchor="middle" x="2322.45" y="-834.3" font-family="Courier New" font-size="14.00">3&#45;48</text>
<polyline fill="none" stroke="black" points="2289.14,-826.1 2355.75,-826.1 "/>
<text text-anchor="middle" x="2322.45" y="-809.5" font-family="Courier New" font-size="14.00">49</text>
<polyline fill="none" stroke="black" points="2289.14,-801.3 2355.75,-801.3 "/>
<text text-anchor="middle" x="2322.45" y="-784.7" font-family="Courier New" font-size="14.00">50</text>
<polyline fill="none" stroke="black" points="2355.75,-776.5 2355.75,-925.3 "/>
<text text-anchor="middle" x="2464.67" y="-908.7" font-family="Courier New" font-size="14.00">type: variable (bytes)</text>
<polyline fill="none" stroke="black" points="2355.75,-900.5 2573.58,-900.5 "/>
<text text-anchor="middle" x="2464.66" y="-883.9" font-family="Courier New" font-size="14.00">uint256 (32)</text>
<polyline fill="none" stroke="black" points="2355.75,-875.7 2573.58,-875.7 "/>
<text text-anchor="middle" x="2464.66" y="-859.1" font-family="Courier New" font-size="14.00">uint256 (32)</text>
<polyline fill="none" stroke="black" points="2355.75,-850.9 2573.58,-850.9 "/>
<text text-anchor="middle" x="2464.46" y="-834.3" font-family="Courier New" font-size="14.00">&#45;&#45;&#45;&#45; (1472)</text>
<polyline fill="none" stroke="black" points="2355.75,-826.1 2573.58,-826.1 "/>
<text text-anchor="middle" x="2464.66" y="-809.5" font-family="Courier New" font-size="14.00">uint256 (32)</text>
<polyline fill="none" stroke="black" points="2355.75,-801.3 2573.58,-801.3 "/>
<text text-anchor="middle" x="2464.66" y="-784.7" font-family="Courier New" font-size="14.00">uint256 (32)</text>
</g>
<!-- 6&#45;&gt;1 -->
<g id="edge1" class="edge">
<title>6:8&#45;&gt;1</title>
<path fill="none" stroke="black" d="M1927.5,-806.3C2046.04,-806.3 2179.31,-822.12 2278.88,-837.09"/>
<polygon fill="black" stroke="black" points="2278.61,-840.59 2289.02,-838.63 2279.66,-833.67 2278.61,-840.59"/>
</g>
<!-- 2 -->
<g id="node3" class="node">
<title>2</title>
<polygon fill="#f2f2f2" stroke="black" points="2146.32,-666.7 2146.32,-757.9 2716.81,-757.9 2716.81,-666.7 2146.32,-666.7"/>
<text text-anchor="middle" x="2431.57" y="-741.3" font-family="Courier New" font-size="14.00">address[]: assetsMapped &lt;&lt;Array&gt;&gt;</text>
<text text-anchor="middle" x="2431.57" y="-724.5" font-family="Courier New" font-size="14.00">0x4a11f94e20a93c79f6ec743a1954ec4fc2c08429ae2122118bf234b2185c81b8</text>
<polyline fill="none" stroke="black" points="2146.32,-716.3 2716.81,-716.3 "/>
<text text-anchor="middle" x="2238.53" y="-699.7" font-family="Courier New" font-size="14.00">offset</text>
<polyline fill="none" stroke="black" points="2146.32,-691.5 2330.73,-691.5 "/>
<text text-anchor="middle" x="2238.53" y="-674.9" font-family="Courier New" font-size="14.00">0</text>
<polyline fill="none" stroke="black" points="2330.73,-666.7 2330.73,-716.3 "/>
<text text-anchor="middle" x="2523.35" y="-699.7" font-family="Courier New" font-size="14.00">type: variable (bytes)</text>
<polyline fill="none" stroke="black" points="2330.73,-691.5 2715.97,-691.5 "/>
<text text-anchor="middle" x="2435.44" y="-674.9" font-family="Courier New" font-size="14.00">unallocated (12)</text>
<polyline fill="none" stroke="black" points="2540.15,-666.7 2540.15,-691.5 "/>
<text text-anchor="middle" x="2628.06" y="-674.9" font-family="Courier New" font-size="14.00">address (20)</text>
</g>
<!-- 6&#45;&gt;2 -->
<g id="edge2" class="edge">
<title>6:13&#45;&gt;2</title>
<path fill="none" stroke="black" d="M1927.5,-707.3C1995.03,-707.3 2067.67,-707.76 2136.16,-708.39"/>
<polygon fill="black" stroke="black" points="2136.2,-711.89 2146.23,-708.49 2136.26,-704.89 2136.2,-711.89"/>
</g>
<!-- 3 -->
<g id="node4" class="node">
<title>3</title>
<polygon fill="#f2f2f2" stroke="black" points="2146.32,-556.7 2146.32,-647.9 2716.81,-647.9 2716.81,-556.7 2146.32,-556.7"/>
<text text-anchor="middle" x="2431.57" y="-631.3" font-family="Courier New" font-size="14.00">address[]: rewardTokenAddresses &lt;&lt;Array&gt;&gt;</text>
<text text-anchor="middle" x="2431.57" y="-614.5" font-family="Courier New" font-size="14.00">0xa2999d817b6757290b50e8ecf3fa939673403dd35c97de392fdb343b4015ce9e</text>
<polyline fill="none" stroke="black" points="2146.32,-606.3 2716.81,-606.3 "/>
<text text-anchor="middle" x="2238.53" y="-589.7" font-family="Courier New" font-size="14.00">offset</text>
<polyline fill="none" stroke="black" points="2146.32,-581.5 2330.73,-581.5 "/>
<text text-anchor="middle" x="2238.53" y="-564.9" font-family="Courier New" font-size="14.00">0</text>
<polyline fill="none" stroke="black" points="2330.73,-556.7 2330.73,-606.3 "/>
<text text-anchor="middle" x="2523.35" y="-589.7" font-family="Courier New" font-size="14.00">type: variable (bytes)</text>
<polyline fill="none" stroke="black" points="2330.73,-581.5 2715.97,-581.5 "/>
<text text-anchor="middle" x="2435.44" y="-564.9" font-family="Courier New" font-size="14.00">unallocated (12)</text>
<polyline fill="none" stroke="black" points="2540.15,-556.7 2540.15,-581.5 "/>
<text text-anchor="middle" x="2628.06" y="-564.9" font-family="Courier New" font-size="14.00">address (20)</text>
</g>
<!-- 6&#45;&gt;3 -->
<g id="edge3" class="edge">
<title>6:18&#45;&gt;3</title>
<path fill="none" stroke="black" d="M1927.5,-608.3C1995.03,-608.3 2067.67,-607.75 2136.16,-606.99"/>
<polygon fill="black" stroke="black" points="2136.27,-610.49 2146.23,-606.87 2136.19,-603.49 2136.27,-610.49"/>
</g>
<!-- 4 -->
<g id="node5" class="node">
<title>4</title>
<polygon fill="#f2f2f2" stroke="black" points="2293.35,-364.5 2293.35,-538.1 2569.79,-538.1 2569.79,-364.5 2293.35,-364.5"/>
<text text-anchor="middle" x="2431.57" y="-521.5" font-family="Courier New" font-size="14.00">int256[98]: _reserved &lt;&lt;Array&gt;&gt;</text>
<polyline fill="none" stroke="black" points="2293.35,-513.3 2569.79,-513.3 "/>
<text text-anchor="middle" x="2328.55" y="-496.7" font-family="Courier New" font-size="14.00">slot</text>
<polyline fill="none" stroke="black" points="2293.35,-488.5 2363.75,-488.5 "/>
<text text-anchor="middle" x="2328.55" y="-471.9" font-family="Courier New" font-size="14.00">59</text>
<polyline fill="none" stroke="black" points="2293.35,-463.7 2363.75,-463.7 "/>
<text text-anchor="middle" x="2328.55" y="-447.1" font-family="Courier New" font-size="14.00">60</text>
<polyline fill="none" stroke="black" points="2293.35,-438.9 2363.75,-438.9 "/>
<text text-anchor="middle" x="2328.55" y="-422.3" font-family="Courier New" font-size="14.00">61&#45;154</text>
<polyline fill="none" stroke="black" points="2293.35,-414.1 2363.75,-414.1 "/>
<text text-anchor="middle" x="2328.55" y="-397.5" font-family="Courier New" font-size="14.00">155</text>
<polyline fill="none" stroke="black" points="2293.35,-389.3 2363.75,-389.3 "/>
<text text-anchor="middle" x="2328.55" y="-372.7" font-family="Courier New" font-size="14.00">156</text>
<polyline fill="none" stroke="black" points="2363.75,-364.5 2363.75,-513.3 "/>
<text text-anchor="middle" x="2466.67" y="-496.7" font-family="Courier New" font-size="14.00">type: variable (bytes)</text>
<polyline fill="none" stroke="black" points="2363.75,-488.5 2569.58,-488.5 "/>
<text text-anchor="middle" x="2466.46" y="-471.9" font-family="Courier New" font-size="14.00">int256 (32)</text>
<polyline fill="none" stroke="black" points="2363.75,-463.7 2569.58,-463.7 "/>
<text text-anchor="middle" x="2466.46" y="-447.1" font-family="Courier New" font-size="14.00">int256 (32)</text>
<polyline fill="none" stroke="black" points="2363.75,-438.9 2569.58,-438.9 "/>
<text text-anchor="middle" x="2466.46" y="-422.3" font-family="Courier New" font-size="14.00">&#45;&#45;&#45;&#45; (3008)</text>
<polyline fill="none" stroke="black" points="2363.75,-414.1 2569.58,-414.1 "/>
<text text-anchor="middle" x="2466.46" y="-397.5" font-family="Courier New" font-size="14.00">int256 (32)</text>
<polyline fill="none" stroke="black" points="2363.75,-389.3 2569.58,-389.3 "/>
<text text-anchor="middle" x="2466.46" y="-372.7" font-family="Courier New" font-size="14.00">int256 (32)</text>
</g>
<!-- 6&#45;&gt;4 -->
<g id="edge4" class="edge">
<title>6:24&#45;&gt;4</title>
<path fill="none" stroke="black" d="M1927.5,-583.3C1950.13,-583.3 1943.58,-558.03 1963.5,-547.3 2062.22,-494.13 2187.24,-470.35 2283.08,-459.74"/>
<polygon fill="black" stroke="black" points="2283.58,-463.21 2293.15,-458.66 2282.83,-456.25 2283.58,-463.21"/>
</g>
<!-- 5 -->
<g id="node6" class="node">
<title>5</title>
<polygon fill="#f2f2f2" stroke="black" points="1963.5,-0.5 1963.5,-174.1 2899.63,-174.1 2899.63,-0.5 1963.5,-0.5"/>
<text text-anchor="middle" x="2431.57" y="-157.5" font-family="Courier New" font-size="14.00">Position &lt;&lt;Struct&gt;&gt;</text>
<polyline fill="none" stroke="black" points="1963.5,-149.3 2899.63,-149.3 "/>
<text text-anchor="middle" x="1996.7" y="-132.7" font-family="Courier New" font-size="14.00">offset</text>
<polyline fill="none" stroke="black" points="1963.5,-124.5 2029.91,-124.5 "/>
<text text-anchor="middle" x="1996.7" y="-107.9" font-family="Courier New" font-size="14.00">0</text>
<polyline fill="none" stroke="black" points="1963.5,-99.7 2029.91,-99.7 "/>
<text text-anchor="middle" x="1996.7" y="-83.1" font-family="Courier New" font-size="14.00">1</text>
<polyline fill="none" stroke="black" points="1963.5,-74.9 2029.91,-74.9 "/>
<text text-anchor="middle" x="1996.7" y="-58.3" font-family="Courier New" font-size="14.00">2</text>
<polyline fill="none" stroke="black" points="1963.5,-50.1 2029.91,-50.1 "/>
<text text-anchor="middle" x="1996.7" y="-33.5" font-family="Courier New" font-size="14.00">3</text>
<polyline fill="none" stroke="black" points="1963.5,-25.3 2029.91,-25.3 "/>
<text text-anchor="middle" x="1996.7" y="-8.7" font-family="Courier New" font-size="14.00">4</text>
<polyline fill="none" stroke="black" points="2029.91,-0.5 2029.91,-149.3 "/>
<text text-anchor="middle" x="2464.77" y="-132.7" font-family="Courier New" font-size="14.00">type: variable (bytes)</text>
<polyline fill="none" stroke="black" points="2029.91,-124.5 2899.63,-124.5 "/>
<text text-anchor="middle" x="2464.62" y="-107.9" font-family="Courier New" font-size="14.00">uint256: tokenId (32)</text>
<polyline fill="none" stroke="black" points="2029.91,-99.7 2899.63,-99.7 "/>
<text text-anchor="middle" x="2100.92" y="-83.1" font-family="Courier New" font-size="14.00">unallocated (9)</text>
<polyline fill="none" stroke="black" points="2171.93,-74.9 2171.93,-99.7 "/>
<text text-anchor="middle" x="2247.14" y="-83.1" font-family="Courier New" font-size="14.00">bool: exists (1)</text>
<polyline fill="none" stroke="black" points="2322.35,-74.9 2322.35,-99.7 "/>
<text text-anchor="middle" x="2414.36" y="-83.1" font-family="Courier New" font-size="14.00">int24: upperTick (3)</text>
<polyline fill="none" stroke="black" points="2506.38,-74.9 2506.38,-99.7 "/>
<text text-anchor="middle" x="2598.39" y="-83.1" font-family="Courier New" font-size="14.00">int24: lowerTick (3)</text>
<polyline fill="none" stroke="black" points="2690.4,-74.9 2690.4,-99.7 "/>
<text text-anchor="middle" x="2795.02" y="-83.1" font-family="Courier New" font-size="14.00">uint128: liquidity (16)</text>
<polyline fill="none" stroke="black" points="2029.91,-74.9 2899.63,-74.9 "/>
<text text-anchor="middle" x="2224.12" y="-58.3" font-family="Courier New" font-size="14.00">unallocated (12)</text>
<polyline fill="none" stroke="black" points="2418.33,-50.1 2418.33,-74.9 "/>
<text text-anchor="middle" x="2658.75" y="-58.3" font-family="Courier New" font-size="14.00">uint160: sqrtRatioAX96 (20)</text>
<polyline fill="none" stroke="black" points="2029.91,-50.1 2899.63,-50.1 "/>
<text text-anchor="middle" x="2224.12" y="-33.5" font-family="Courier New" font-size="14.00">unallocated (12)</text>
<polyline fill="none" stroke="black" points="2418.33,-25.3 2418.33,-50.1 "/>
<text text-anchor="middle" x="2658.75" y="-33.5" font-family="Courier New" font-size="14.00">uint160: sqrtRatioBX96 (20)</text>
<polyline fill="none" stroke="black" points="2029.91,-25.3 2899.63,-25.3 "/>
<text text-anchor="middle" x="2464.32" y="-8.7" font-family="Courier New" font-size="14.00">uint256: netValue (32)</text>
</g>
<!-- 6&#45;&gt;5 -->
<g id="edge5" class="edge">
<title>6:57&#45;&gt;5</title>
<path fill="none" stroke="black" d="M1927.5,-87.3C1935.97,-87.3 1944.53,-87.3 1953.14,-87.3"/>
<polygon fill="black" stroke="black" points="1953.29,-90.8 1963.29,-87.3 1953.29,-83.8 1953.29,-90.8"/>
</g>
</g>
</svg>
