<?xml version="1.0" encoding="UTF-8" standalone="no"?>
<!DOCTYPE svg PUBLIC "-//W3C//DTD SVG 1.1//EN"
 "http://www.w3.org/Graphics/SVG/1.1/DTD/svg11.dtd">
<!-- Generated by graphviz version 5.0.0 (20220707.1540)
 -->
<!-- Title: UmlClassDiagram Pages: 1 -->
<svg width="726pt" height="337pt"
 viewBox="0.00 0.00 725.60 336.80" xmlns="http://www.w3.org/2000/svg" xmlns:xlink="http://www.w3.org/1999/xlink">
<g id="graph0" class="graph" transform="scale(1 1) rotate(0) translate(4 332.8)">
<title>UmlClassDiagram</title>
<polygon fill="white" stroke="transparent" points="-4,4 -4,-332.8 721.6,-332.8 721.6,4 -4,4"/>
<!-- 7 -->
<g id="node1" class="node">
<title>7</title>
<polygon fill="#f2f2f2" stroke="black" points="255.17,-278.3 255.17,-319.9 490.03,-319.9 490.03,-278.3 255.17,-278.3"/>
<text text-anchor="middle" x="372.6" y="-303.3" font-family="Times,serif" font-size="14.00">Governable</text>
<text text-anchor="middle" x="372.6" y="-286.5" font-family="Times,serif" font-size="14.00">../contracts/governance/Governable.sol</text>
</g>
<!-- 207 -->
<g id="node2" class="node">
<title>207</title>
<polygon fill="#f2f2f2" stroke="black" points="0,-0.5 0,-42.1 377.2,-42.1 377.2,-0.5 0,-0.5"/>
<text text-anchor="middle" x="188.6" y="-25.5" font-family="Times,serif" font-size="14.00">UniswapV3LiquidityManager</text>
<text text-anchor="middle" x="188.6" y="-8.7" font-family="Times,serif" font-size="14.00">../contracts/strategies/uniswap/UniswapV3LiquidityManager.sol</text>
</g>
<!-- 210 -->
<g id="node4" class="node">
<title>210</title>
<polygon fill="#f2f2f2" stroke="black" points="190.22,-79.1 190.22,-137.5 554.98,-137.5 554.98,-79.1 190.22,-79.1"/>
<text text-anchor="middle" x="372.6" y="-120.9" font-family="Times,serif" font-size="14.00">&lt;&lt;Abstract&gt;&gt;</text>
<text text-anchor="middle" x="372.6" y="-104.1" font-family="Times,serif" font-size="14.00">UniswapV3StrategyStorage</text>
<text text-anchor="middle" x="372.6" y="-87.3" font-family="Times,serif" font-size="14.00">../contracts/strategies/uniswap/UniswapV3StrategyStorage.sol</text>
</g>
<!-- 207&#45;&gt;210 -->
<g id="edge1" class="edge">
<title>207&#45;&gt;210</title>
<path fill="none" stroke="black" d="M231.74,-42.23C247.38,-49.45 265.67,-57.9 283.79,-66.27"/>
<polygon fill="none" stroke="black" points="279.63,-75.92 311.27,-78.97 288.44,-56.85 279.63,-75.92"/>
</g>
<!-- 209 -->
<g id="node3" class="node">
<title>209</title>
<polygon fill="#f2f2f2" stroke="black" points="395.6,-0.5 395.6,-42.1 717.6,-42.1 717.6,-0.5 395.6,-0.5"/>
<text text-anchor="middle" x="556.6" y="-25.5" font-family="Times,serif" font-size="14.00">UniswapV3Strategy</text>
<text text-anchor="middle" x="556.6" y="-8.7" font-family="Times,serif" font-size="14.00">../contracts/strategies/uniswap/UniswapV3Strategy.sol</text>
</g>
<!-- 209&#45;&gt;210 -->
<g id="edge2" class="edge">
<title>209&#45;&gt;210</title>
<path fill="none" stroke="black" d="M513.46,-42.23C497.83,-49.45 479.53,-57.9 461.41,-66.27"/>
<polygon fill="none" stroke="black" points="456.77,-56.85 433.93,-78.97 465.57,-75.92 456.77,-56.85"/>
</g>
<!-- 156 -->
<g id="node6" class="node">
<title>156</title>
<polygon fill="#f2f2f2" stroke="black" points="227.56,-174.5 227.56,-232.9 517.65,-232.9 517.65,-174.5 227.56,-174.5"/>
<text text-anchor="middle" x="372.6" y="-216.3" font-family="Times,serif" font-size="14.00">&lt;&lt;Abstract&gt;&gt;</text>
<text text-anchor="middle" x="372.6" y="-199.5" font-family="Times,serif" font-size="14.00">InitializableAbstractStrategy</text>
<text text-anchor="middle" x="372.6" y="-182.7" font-family="Times,serif" font-size="14.00">../contracts/utils/InitializableAbstractStrategy.sol</text>
</g>
<!-- 210&#45;&gt;156 -->
<g id="edge3" class="edge">
<title>210&#45;&gt;156</title>
<path fill="none" stroke="black" d="M372.6,-137.58C372.6,-139.66 372.6,-141.8 372.6,-143.98"/>
<polygon fill="none" stroke="black" points="362.1,-144.2 372.6,-174.2 383.1,-144.2 362.1,-144.2"/>
</g>
<!-- 155 -->
<g id="node5" class="node">
<title>155</title>
<polygon fill="#f2f2f2" stroke="black" points="507.6,-269.9 507.6,-328.3 703.61,-328.3 703.61,-269.9 507.6,-269.9"/>
<text text-anchor="middle" x="605.6" y="-311.7" font-family="Times,serif" font-size="14.00">&lt;&lt;Abstract&gt;&gt;</text>
<text text-anchor="middle" x="605.6" y="-294.9" font-family="Times,serif" font-size="14.00">Initializable</text>
<text text-anchor="middle" x="605.6" y="-278.1" font-family="Times,serif" font-size="14.00">../contracts/utils/Initializable.sol</text>
</g>
<!-- 156&#45;&gt;7 -->
<g id="edge5" class="edge">
<title>156&#45;&gt;7</title>
<path fill="none" stroke="black" d="M372.6,-232.98C372.6,-237.77 372.6,-242.87 372.6,-248.02"/>
<polygon fill="none" stroke="black" points="362.1,-248.21 372.6,-278.21 383.1,-248.21 362.1,-248.21"/>
</g>
<!-- 156&#45;&gt;155 -->
<g id="edge4" class="edge">
<title>156&#45;&gt;155</title>
<path fill="none" stroke="black" d="M443.14,-232.98C463.24,-241.03 485.51,-249.96 506.95,-258.55"/>
<polygon fill="none" stroke="black" points="503.15,-268.34 534.9,-269.76 510.96,-248.85 503.15,-268.34"/>
</g>
<!-- 156&#45;&gt;156 -->
<g id="edge6" class="edge">
<title>156&#45;&gt;156</title>
<path fill="none" stroke="black" stroke-dasharray="5,2" d="M517.82,-190.48C528.86,-193.42 535.65,-197.82 535.65,-203.7 535.65,-207.56 532.72,-210.78 527.59,-213.37"/>
<polygon fill="black" stroke="black" points="526.02,-210.22 517.82,-216.92 528.41,-216.8 526.02,-210.22"/>
</g>
</g>
</svg>
