<?xml version="1.0" encoding="UTF-8" standalone="no"?>
<!DOCTYPE svg PUBLIC "-//W3C//DTD SVG 1.1//EN"
 "http://www.w3.org/Graphics/SVG/1.1/DTD/svg11.dtd">
<!-- Generated by graphviz version 5.0.0 (20220707.1540)
 -->
<!-- Title: UmlClassDiagram Pages: 1 -->
<svg width="1542pt" height="494pt"
 viewBox="0.00 0.00 1542.27 494.00" xmlns="http://www.w3.org/2000/svg" xmlns:xlink="http://www.w3.org/1999/xlink">
<g id="graph0" class="graph" transform="scale(1 1) rotate(0) translate(4 490)">
<title>UmlClassDiagram</title>
<polygon fill="white" stroke="transparent" points="-4,4 -4,-490 1538.27,-490 1538.27,4 -4,4"/>
<!-- 20 -->
<g id="node1" class="node">
<title>20</title>
<polygon fill="#f2f2f2" stroke="black" points="763.19,-340.1 763.19,-381.7 998.05,-381.7 998.05,-340.1 763.19,-340.1"/>
<text text-anchor="middle" x="880.62" y="-365.1" font-family="Times,serif" font-size="14.00">Governable</text>
<text text-anchor="middle" x="880.62" y="-348.3" font-family="Times,serif" font-size="14.00">../contracts/governance/Governable.sol</text>
</g>
<!-- 42 -->
<g id="node2" class="node">
<title>42</title>
<polygon fill="#f2f2f2" stroke="black" points="32.15,-79.1 32.15,-137.5 333.09,-137.5 333.09,-79.1 32.15,-79.1"/>
<text text-anchor="middle" x="182.62" y="-120.9" font-family="Times,serif" font-size="14.00">&lt;&lt;Interface&gt;&gt;</text>
<text text-anchor="middle" x="182.62" y="-104.1" font-family="Times,serif" font-size="14.00">IGetExchangeRateToken</text>
<text text-anchor="middle" x="182.62" y="-87.3" font-family="Times,serif" font-size="14.00">../contracts/interfaces/IGetExchangeRateToken.sol</text>
</g>
<!-- 48 -->
<g id="node3" class="node">
<title>48</title>
<polygon fill="#f2f2f2" stroke="black" points="816.91,-79.1 816.91,-137.5 1018.33,-137.5 1018.33,-79.1 816.91,-79.1"/>
<text text-anchor="middle" x="917.62" y="-120.9" font-family="Times,serif" font-size="14.00">&lt;&lt;Interface&gt;&gt;</text>
<text text-anchor="middle" x="917.62" y="-104.1" font-family="Times,serif" font-size="14.00">IOracle</text>
<text text-anchor="middle" x="917.62" y="-87.3" font-family="Times,serif" font-size="14.00">../contracts/interfaces/IOracle.sol</text>
</g>
<!-- 52 -->
<g id="node4" class="node">
<title>52</title>
<polygon fill="#f2f2f2" stroke="black" points="588.24,-79.1 588.24,-137.5 799,-137.5 799,-79.1 588.24,-79.1"/>
<text text-anchor="middle" x="693.62" y="-120.9" font-family="Times,serif" font-size="14.00">&lt;&lt;Interface&gt;&gt;</text>
<text text-anchor="middle" x="693.62" y="-104.1" font-family="Times,serif" font-size="14.00">IStrategy</text>
<text text-anchor="middle" x="693.62" y="-87.3" font-family="Times,serif" font-size="14.00">../contracts/interfaces/IStrategy.sol</text>
</g>
<!-- 53 -->
<g id="node5" class="node">
<title>53</title>
<polygon fill="#f2f2f2" stroke="black" points="1288.07,-79.1 1288.07,-137.5 1501.17,-137.5 1501.17,-79.1 1288.07,-79.1"/>
<text text-anchor="middle" x="1394.62" y="-120.9" font-family="Times,serif" font-size="14.00">&lt;&lt;Interface&gt;&gt;</text>
<text text-anchor="middle" x="1394.62" y="-104.1" font-family="Times,serif" font-size="14.00">ISwapper</text>
<text text-anchor="middle" x="1394.62" y="-87.3" font-family="Times,serif" font-size="14.00">../contracts/interfaces/ISwapper.sol</text>
</g>
<!-- 55 -->
<g id="node6" class="node">
<title>55</title>
<polygon fill="#f2f2f2" stroke="black" points="1075.01,-79.1 1075.01,-137.5 1270.23,-137.5 1270.23,-79.1 1075.01,-79.1"/>
<text text-anchor="middle" x="1172.62" y="-120.9" font-family="Times,serif" font-size="14.00">&lt;&lt;Interface&gt;&gt;</text>
<text text-anchor="middle" x="1172.62" y="-104.1" font-family="Times,serif" font-size="14.00">IVault</text>
<text text-anchor="middle" x="1172.62" y="-87.3" font-family="Times,serif" font-size="14.00">../contracts/interfaces/IVault.sol</text>
</g>
<!-- 207 -->
<g id="node13" class="node">
<title>207</title>
<polygon fill="#f2f2f2" stroke="black" points="728.17,-174.5 728.17,-216.1 935.07,-216.1 935.07,-174.5 728.17,-174.5"/>
<text text-anchor="middle" x="831.62" y="-199.5" font-family="Times,serif" font-size="14.00">VaultStorage</text>
<text text-anchor="middle" x="831.62" y="-182.7" font-family="Times,serif" font-size="14.00">../contracts/vault/VaultStorage.sol</text>
</g>
<!-- 55&#45;&gt;207 -->
<g id="edge1" class="edge">
<title>55&#45;&gt;207</title>
<path fill="none" stroke="black" stroke-dasharray="5,2" d="M1074.9,-134.4C1070.07,-135.62 1065.29,-136.83 1060.62,-138 1015.31,-149.37 964.9,-161.79 922.93,-172.07"/>
<polygon fill="black" stroke="black" points="921.89,-168.72 913.01,-174.5 923.56,-175.52 921.89,-168.72"/>
</g>
<!-- 186 -->
<g id="node7" class="node">
<title>186</title>
<polygon fill="#f2f2f2" stroke="black" points="560.49,-253.1 560.49,-294.7 734.75,-294.7 734.75,-253.1 560.49,-253.1"/>
<text text-anchor="middle" x="647.62" y="-278.1" font-family="Times,serif" font-size="14.00">OUSD</text>
<text text-anchor="middle" x="647.62" y="-261.3" font-family="Times,serif" font-size="14.00">../contracts/token/OUSD.sol</text>
</g>
<!-- 186&#45;&gt;20 -->
<g id="edge4" class="edge">
<title>186&#45;&gt;20</title>
<path fill="none" stroke="black" d="M701.95,-294.72C730.43,-305.11 765.91,-318.05 797.74,-329.66"/>
<polygon fill="none" stroke="black" points="794.42,-339.63 826.2,-340.05 801.62,-319.9 794.42,-339.63"/>
</g>
<!-- 194 -->
<g id="node8" class="node">
<title>194</title>
<polygon fill="#f2f2f2" stroke="black" points="549.61,-331.7 549.61,-390.1 745.63,-390.1 745.63,-331.7 549.61,-331.7"/>
<text text-anchor="middle" x="647.62" y="-373.5" font-family="Times,serif" font-size="14.00">&lt;&lt;Abstract&gt;&gt;</text>
<text text-anchor="middle" x="647.62" y="-356.7" font-family="Times,serif" font-size="14.00">Initializable</text>
<text text-anchor="middle" x="647.62" y="-339.9" font-family="Times,serif" font-size="14.00">../contracts/utils/Initializable.sol</text>
</g>
<!-- 186&#45;&gt;194 -->
<g id="edge2" class="edge">
<title>186&#45;&gt;194</title>
<path fill="none" stroke="black" d="M647.62,-295.04C647.62,-297.09 647.62,-299.23 647.62,-301.43"/>
<polygon fill="none" stroke="black" points="637.12,-301.54 647.62,-331.54 658.12,-301.54 637.12,-301.54"/>
</g>
<!-- 197 -->
<g id="node9" class="node">
<title>197</title>
<polygon fill="#f2f2f2" stroke="black" points="247.29,-331.7 247.29,-390.1 531.95,-390.1 531.95,-331.7 247.29,-331.7"/>
<text text-anchor="middle" x="389.62" y="-373.5" font-family="Times,serif" font-size="14.00">&lt;&lt;Abstract&gt;&gt;</text>
<text text-anchor="middle" x="389.62" y="-356.7" font-family="Times,serif" font-size="14.00">InitializableERC20Detailed</text>
<text text-anchor="middle" x="389.62" y="-339.9" font-family="Times,serif" font-size="14.00">../contracts/utils/InitializableERC20Detailed.sol</text>
</g>
<!-- 186&#45;&gt;197 -->
<g id="edge3" class="edge">
<title>186&#45;&gt;197</title>
<path fill="none" stroke="black" d="M587.46,-294.72C562.57,-302.92 532.85,-312.71 504.11,-322.18"/>
<polygon fill="none" stroke="black" points="500.54,-312.3 475.33,-331.66 507.11,-332.25 500.54,-312.3"/>
</g>
<!-- 392 -->
<g id="node14" class="node">
<title>392</title>
<polygon fill="#f2f2f2" stroke="black" points="187.56,-427.1 187.56,-485.5 591.68,-485.5 591.68,-427.1 187.56,-427.1"/>
<text text-anchor="middle" x="389.62" y="-468.9" font-family="Times,serif" font-size="14.00">&lt;&lt;Interface&gt;&gt;</text>
<text text-anchor="middle" x="389.62" y="-452.1" font-family="Times,serif" font-size="14.00">IERC20</text>
<text text-anchor="middle" x="389.62" y="-435.3" font-family="Times,serif" font-size="14.00">../node_modules/@openzeppelin/contracts/token/ERC20/IERC20.sol</text>
</g>
<!-- 197&#45;&gt;392 -->
<g id="edge5" class="edge">
<title>197&#45;&gt;392</title>
<path fill="none" stroke="black" stroke-dasharray="5,2" d="M389.62,-390.18C389.62,-392.26 389.62,-394.4 389.62,-396.58"/>
<polygon fill="none" stroke="black" points="379.12,-396.8 389.62,-426.8 400.12,-396.8 379.12,-396.8"/>
</g>
<!-- 204 -->
<g id="node10" class="node">
<title>204</title>
<polygon fill="#f2f2f2" stroke="black" points="945.11,-0.5 945.11,-42.1 1148.13,-42.1 1148.13,-0.5 945.11,-0.5"/>
<text text-anchor="middle" x="1046.62" y="-25.5" font-family="Times,serif" font-size="14.00">VaultAdmin</text>
<text text-anchor="middle" x="1046.62" y="-8.7" font-family="Times,serif" font-size="14.00">../contracts/vault/VaultAdmin.sol</text>
</g>
<!-- 204&#45;&gt;48 -->
<g id="edge10" class="edge">
<title>204&#45;&gt;48</title>
<path fill="none" stroke="black" stroke-dasharray="5,2" d="M1016.38,-42.23C1002.43,-51.42 985.47,-62.6 969.56,-73.07"/>
<polygon fill="black" stroke="black" points="967.29,-70.38 960.87,-78.81 971.14,-76.23 967.29,-70.38"/>
</g>
<!-- 204&#45;&gt;52 -->
<g id="edge7" class="edge">
<title>204&#45;&gt;52</title>
<path fill="none" stroke="black" stroke-dasharray="5,2" d="M961.09,-42.11C918.08,-52.16 864.88,-64.7 809.24,-78.22"/>
<polygon fill="black" stroke="black" points="808.08,-74.9 799.19,-80.66 809.74,-81.7 808.08,-74.9"/>
</g>
<!-- 204&#45;&gt;53 -->
<g id="edge9" class="edge">
<title>204&#45;&gt;53</title>
<path fill="none" stroke="black" stroke-dasharray="5,2" d="M1129.42,-42.15C1171.43,-52.26 1223.52,-64.85 1277.98,-78.2"/>
<polygon fill="black" stroke="black" points="1277.26,-81.63 1287.81,-80.61 1278.93,-74.83 1277.26,-81.63"/>
</g>
<!-- 204&#45;&gt;55 -->
<g id="edge11" class="edge">
<title>204&#45;&gt;55</title>
<path fill="none" stroke="black" stroke-dasharray="5,2" d="M1076.16,-42.23C1089.79,-51.42 1106.35,-62.6 1121.88,-73.07"/>
<polygon fill="black" stroke="black" points="1120.13,-76.11 1130.38,-78.81 1124.05,-70.31 1120.13,-76.11"/>
</g>
<!-- 204&#45;&gt;207 -->
<g id="edge6" class="edge">
<title>204&#45;&gt;207</title>
<path fill="none" stroke="black" d="M1049.27,-42.16C1051.48,-67.59 1051.16,-111.53 1027.62,-138 1010.84,-156.86 988.21,-169.59 964.27,-178.13"/>
<polygon fill="none" stroke="black" points="961.23,-168.08 935.31,-186.47 967.04,-188.26 961.23,-168.08"/>
</g>
<!-- 204&#45;&gt;392 -->
<g id="edge8" class="edge">
<title>204&#45;&gt;392</title>
<path fill="none" stroke="black" stroke-dasharray="5,2" d="M1148.33,-28.23C1276.98,-36.69 1484.96,-53.99 1510.62,-78.6 1548.23,-114.67 1529.62,-142.19 1529.62,-194.3 1529.62,-194.3 1529.62,-194.3 1529.62,-274.9 1529.62,-367.77 931.75,-420.74 601.95,-442.89"/>
<polygon fill="black" stroke="black" points="601.53,-439.41 591.79,-443.57 602,-446.4 601.53,-439.41"/>
</g>
<!-- 205 -->
<g id="node11" class="node">
<title>205</title>
<polygon fill="#f2f2f2" stroke="black" points="364.95,-0.5 364.95,-42.1 556.29,-42.1 556.29,-0.5 364.95,-0.5"/>
<text text-anchor="middle" x="460.62" y="-25.5" font-family="Times,serif" font-size="14.00">VaultCore</text>
<text text-anchor="middle" x="460.62" y="-8.7" font-family="Times,serif" font-size="14.00">../contracts/vault/VaultCore.sol</text>
</g>
<!-- 205&#45;&gt;42 -->
<g id="edge16" class="edge">
<title>205&#45;&gt;42</title>
<path fill="none" stroke="black" stroke-dasharray="5,2" d="M395.79,-42.12C362.8,-52.21 321.93,-64.71 284.82,-76.05"/>
<polygon fill="black" stroke="black" points="283.51,-72.79 274.97,-79.06 285.56,-79.49 283.51,-72.79"/>
</g>
<!-- 205&#45;&gt;48 -->
<g id="edge15" class="edge">
<title>205&#45;&gt;48</title>
<path fill="none" stroke="black" stroke-dasharray="5,2" d="M556.43,-35.36C623.91,-45.14 716.49,-59.73 806.84,-78.51"/>
<polygon fill="black" stroke="black" points="806.2,-81.95 816.71,-80.58 807.64,-75.1 806.2,-81.95"/>
</g>
<!-- 205&#45;&gt;52 -->
<g id="edge14" class="edge">
<title>205&#45;&gt;52</title>
<path fill="none" stroke="black" stroke-dasharray="5,2" d="M514.95,-42.12C542.25,-52.08 575.99,-64.39 606.77,-75.62"/>
<polygon fill="black" stroke="black" points="605.62,-78.92 616.22,-79.06 608.02,-72.35 605.62,-78.92"/>
</g>
<!-- 206 -->
<g id="node12" class="node">
<title>206</title>
<polygon fill="#f2f2f2" stroke="black" points="351.35,-87.5 351.35,-129.1 569.89,-129.1 569.89,-87.5 351.35,-87.5"/>
<text text-anchor="middle" x="460.62" y="-112.5" font-family="Times,serif" font-size="14.00">VaultInitializer</text>
<text text-anchor="middle" x="460.62" y="-95.7" font-family="Times,serif" font-size="14.00">../contracts/vault/VaultInitializer.sol</text>
</g>
<!-- 205&#45;&gt;206 -->
<g id="edge12" class="edge">
<title>205&#45;&gt;206</title>
<path fill="none" stroke="black" d="M460.62,-42.44C460.62,-47 460.62,-52.03 460.62,-57.21"/>
<polygon fill="none" stroke="black" points="450.12,-57.3 460.62,-87.3 471.12,-57.3 450.12,-57.3"/>
</g>
<!-- 205&#45;&gt;392 -->
<g id="edge13" class="edge">
<title>205&#45;&gt;392</title>
<path fill="none" stroke="black" stroke-dasharray="5,2" d="M364.64,-21.76C250.89,-23.25 70.8,-33.03 23.62,-78.6 -13.86,-114.8 4.62,-142.19 4.62,-194.3 4.62,-194.3 4.62,-194.3 4.62,-274.9 4.62,-363.03 88.37,-408.2 177.75,-431.3"/>
<polygon fill="black" stroke="black" points="176.99,-434.72 187.54,-433.74 178.68,-427.93 176.99,-434.72"/>
</g>
<!-- 206&#45;&gt;186 -->
<g id="edge18" class="edge">
<title>206&#45;&gt;186</title>
<path fill="none" stroke="black" stroke-dasharray="5,2" d="M483.55,-129.36C517.15,-158.75 579.81,-213.58 617.22,-246.3"/>
<polygon fill="black" stroke="black" points="614.96,-248.98 624.8,-252.93 619.57,-243.71 614.96,-248.98"/>
</g>
<!-- 206&#45;&gt;207 -->
<g id="edge17" class="edge">
<title>206&#45;&gt;207</title>
<path fill="none" stroke="black" d="M542.19,-129.17C554.72,-132.16 567.51,-135.19 579.62,-138 622.66,-148 669.92,-158.64 711.77,-167.96"/>
<polygon fill="none" stroke="black" points="709.58,-178.23 741.14,-174.47 714.13,-157.73 709.58,-178.23"/>
</g>
<!-- 207&#45;&gt;20 -->
<g id="edge20" class="edge">
<title>207&#45;&gt;20</title>
<path fill="none" stroke="black" d="M837.63,-216.36C844.63,-239.73 856.44,-279.17 865.91,-310.8"/>
<polygon fill="none" stroke="black" points="855.97,-314.21 874.64,-339.93 876.09,-308.18 855.97,-314.21"/>
</g>
<!-- 207&#45;&gt;186 -->
<g id="edge21" class="edge">
<title>207&#45;&gt;186</title>
<path fill="none" stroke="black" d="M783.76,-216.23C759.59,-226.29 730.09,-238.57 704.74,-249.12"/>
<polygon fill="black" stroke="black" points="703.13,-246 695.24,-253.07 705.82,-252.46 703.13,-246"/>
</g>
<!-- 207&#45;&gt;194 -->
<g id="edge19" class="edge">
<title>207&#45;&gt;194</title>
<path fill="none" stroke="black" d="M816.38,-216.21C799.79,-237.19 771.83,-270.54 743.62,-295.2 736.13,-301.75 727.95,-308.18 719.62,-314.3"/>
<polygon fill="none" stroke="black" points="713.44,-305.81 694.75,-331.52 725.39,-323.08 713.44,-305.81"/>
</g>
</g>
</svg>
