<?xml version="1.0" encoding="UTF-8" standalone="no"?>
<!DOCTYPE svg PUBLIC "-//W3C//DTD SVG 1.1//EN"
 "http://www.w3.org/Graphics/SVG/1.1/DTD/svg11.dtd">
<!-- Generated by graphviz version 5.0.0 (20220707.1540)
 -->
<!-- Title: UmlClassDiagram Pages: 1 -->
<svg width="900pt" height="623pt"
 viewBox="0.00 0.00 900.46 623.00" xmlns="http://www.w3.org/2000/svg" xmlns:xlink="http://www.w3.org/1999/xlink">
<g id="graph0" class="graph" transform="scale(1 1) rotate(0) translate(4 619)">
<title>UmlClassDiagram</title>
<polygon fill="white" stroke="transparent" points="-4,4 -4,-619 896.46,-619 896.46,4 -4,4"/>
<!-- 44 -->
<g id="node1" class="node">
<title>44</title>
<polygon fill="#f2f2f2" stroke="black" points="282.91,-556.1 282.91,-614.5 517.77,-614.5 517.77,-556.1 282.91,-556.1"/>
<text text-anchor="middle" x="400.34" y="-597.9" font-family="Times,serif" font-size="14.00">&lt;&lt;Abstract&gt;&gt;</text>
<text text-anchor="middle" x="400.34" y="-581.1" font-family="Times,serif" font-size="14.00">Governable</text>
<text text-anchor="middle" x="400.34" y="-564.3" font-family="Times,serif" font-size="14.00">../contracts/governance/Governable.sol</text>
</g>
<!-- 307 -->
<g id="node2" class="node">
<title>307</title>
<polygon fill="#f2f2f2" stroke="black" points="371.21,-469.1 371.21,-510.7 545.47,-510.7 545.47,-469.1 371.21,-469.1"/>
<text text-anchor="middle" x="458.34" y="-494.1" font-family="Times,serif" font-size="14.00">OUSD</text>
<text text-anchor="middle" x="458.34" y="-477.3" font-family="Times,serif" font-size="14.00">../contracts/token/OUSD.sol</text>
</g>
<!-- 307&#45;&gt;44 -->
<g id="edge1" class="edge">
<title>307&#45;&gt;44</title>
<path fill="none" stroke="black" d="M446.04,-510.71C442.39,-516.57 438.22,-523.3 433.9,-530.25"/>
<polygon fill="none" stroke="black" points="424.81,-524.99 417.9,-556.02 442.65,-536.07 424.81,-524.99"/>
</g>
<!-- 324 -->
<g id="node3" class="node">
<title>324</title>
<polygon fill="#f2f2f2" stroke="black" points="563.33,-460.7 563.33,-519.1 759.34,-519.1 759.34,-460.7 563.33,-460.7"/>
<text text-anchor="middle" x="661.34" y="-502.5" font-family="Times,serif" font-size="14.00">&lt;&lt;Abstract&gt;&gt;</text>
<text text-anchor="middle" x="661.34" y="-485.7" font-family="Times,serif" font-size="14.00">Initializable</text>
<text text-anchor="middle" x="661.34" y="-468.9" font-family="Times,serif" font-size="14.00">../contracts/utils/Initializable.sol</text>
</g>
<!-- 330 -->
<g id="node4" class="node">
<title>330</title>
<polygon fill="#f2f2f2" stroke="black" points="0,-0.5 0,-42.1 228.67,-42.1 228.67,-0.5 0,-0.5"/>
<text text-anchor="middle" x="114.34" y="-25.5" font-family="Times,serif" font-size="14.00">OETHBaseVault</text>
<text text-anchor="middle" x="114.34" y="-8.7" font-family="Times,serif" font-size="14.00">../contracts/vault/OETHBaseVault.sol</text>
</g>
<!-- 335 -->
<g id="node8" class="node">
<title>335</title>
<polygon fill="#f2f2f2" stroke="black" points="356.82,-79.1 356.82,-137.5 559.85,-137.5 559.85,-79.1 356.82,-79.1"/>
<text text-anchor="middle" x="458.34" y="-120.9" font-family="Times,serif" font-size="14.00">&lt;&lt;Abstract&gt;&gt;</text>
<text text-anchor="middle" x="458.34" y="-104.1" font-family="Times,serif" font-size="14.00">VaultAdmin</text>
<text text-anchor="middle" x="458.34" y="-87.3" font-family="Times,serif" font-size="14.00">../contracts/vault/VaultAdmin.sol</text>
</g>
<!-- 330&#45;&gt;335 -->
<g id="edge2" class="edge">
<title>330&#45;&gt;335</title>
<path fill="none" stroke="black" d="M194.55,-42.12C234.02,-51.87 282.61,-63.88 327.28,-74.92"/>
<polygon fill="none" stroke="black" points="325.03,-85.18 356.68,-82.18 330.07,-64.79 325.03,-85.18"/>
</g>
<!-- 332 -->
<g id="node5" class="node">
<title>332</title>
<polygon fill="#f2f2f2" stroke="black" points="246.61,-0.5 246.61,-42.1 448.07,-42.1 448.07,-0.5 246.61,-0.5"/>
<text text-anchor="middle" x="347.34" y="-25.5" font-family="Times,serif" font-size="14.00">OETHVault</text>
<text text-anchor="middle" x="347.34" y="-8.7" font-family="Times,serif" font-size="14.00">../contracts/vault/OETHVault.sol</text>
</g>
<!-- 332&#45;&gt;335 -->
<g id="edge3" class="edge">
<title>332&#45;&gt;335</title>
<path fill="none" stroke="black" d="M373.36,-42.23C380.58,-47.76 388.75,-54.01 397.08,-60.4"/>
<polygon fill="none" stroke="black" points="390.92,-68.9 421.13,-78.81 403.69,-52.23 390.92,-68.9"/>
</g>
<!-- 333 -->
<g id="node6" class="node">
<title>333</title>
<polygon fill="#f2f2f2" stroke="black" points="466.27,-0.5 466.27,-42.1 672.4,-42.1 672.4,-0.5 466.27,-0.5"/>
<text text-anchor="middle" x="569.34" y="-25.5" font-family="Times,serif" font-size="14.00">OSonicVault</text>
<text text-anchor="middle" x="569.34" y="-8.7" font-family="Times,serif" font-size="14.00">../contracts/vault/OSonicVault.sol</text>
</g>
<!-- 333&#45;&gt;335 -->
<g id="edge4" class="edge">
<title>333&#45;&gt;335</title>
<path fill="none" stroke="black" d="M543.31,-42.23C536.09,-47.76 527.93,-54.01 519.59,-60.4"/>
<polygon fill="none" stroke="black" points="512.98,-52.23 495.55,-78.81 525.75,-68.9 512.98,-52.23"/>
</g>
<!-- 334 -->
<g id="node7" class="node">
<title>334</title>
<polygon fill="#f2f2f2" stroke="black" points="690.21,-0.5 690.21,-42.1 892.46,-42.1 892.46,-0.5 690.21,-0.5"/>
<text text-anchor="middle" x="791.34" y="-25.5" font-family="Times,serif" font-size="14.00">OUSDVault</text>
<text text-anchor="middle" x="791.34" y="-8.7" font-family="Times,serif" font-size="14.00">../contracts/vault/OUSDVault.sol</text>
</g>
<!-- 334&#45;&gt;335 -->
<g id="edge5" class="edge">
<title>334&#45;&gt;335</title>
<path fill="none" stroke="black" d="M713.68,-42.12C676.7,-51.56 631.44,-63.11 589.36,-73.86"/>
<polygon fill="none" stroke="black" points="586.63,-63.72 560.15,-81.31 591.82,-84.06 586.63,-63.72"/>
</g>
<!-- 336 -->
<g id="node9" class="node">
<title>336</title>
<polygon fill="#f2f2f2" stroke="black" points="362.66,-174.5 362.66,-232.9 554.01,-232.9 554.01,-174.5 362.66,-174.5"/>
<text text-anchor="middle" x="458.34" y="-216.3" font-family="Times,serif" font-size="14.00">&lt;&lt;Abstract&gt;&gt;</text>
<text text-anchor="middle" x="458.34" y="-199.5" font-family="Times,serif" font-size="14.00">VaultCore</text>
<text text-anchor="middle" x="458.34" y="-182.7" font-family="Times,serif" font-size="14.00">../contracts/vault/VaultCore.sol</text>
</g>
<!-- 335&#45;&gt;336 -->
<g id="edge6" class="edge">
<title>335&#45;&gt;336</title>
<path fill="none" stroke="black" d="M458.34,-137.58C458.34,-139.66 458.34,-141.8 458.34,-143.98"/>
<polygon fill="none" stroke="black" points="447.84,-144.2 458.34,-174.2 468.84,-144.2 447.84,-144.2"/>
</g>
<!-- 337 -->
<g id="node10" class="node">
<title>337</title>
<polygon fill="#f2f2f2" stroke="black" points="349.06,-269.9 349.06,-328.3 567.61,-328.3 567.61,-269.9 349.06,-269.9"/>
<text text-anchor="middle" x="458.34" y="-311.7" font-family="Times,serif" font-size="14.00">&lt;&lt;Abstract&gt;&gt;</text>
<text text-anchor="middle" x="458.34" y="-294.9" font-family="Times,serif" font-size="14.00">VaultInitializer</text>
<text text-anchor="middle" x="458.34" y="-278.1" font-family="Times,serif" font-size="14.00">../contracts/vault/VaultInitializer.sol</text>
</g>
<!-- 336&#45;&gt;337 -->
<g id="edge7" class="edge">
<title>336&#45;&gt;337</title>
<path fill="none" stroke="black" d="M458.34,-232.98C458.34,-235.06 458.34,-237.2 458.34,-239.38"/>
<polygon fill="none" stroke="black" points="447.84,-239.6 458.34,-269.6 468.84,-239.6 447.84,-239.6"/>
</g>
<!-- 338 -->
<g id="node11" class="node">
<title>338</title>
<polygon fill="#f2f2f2" stroke="black" points="354.89,-365.3 354.89,-423.7 561.79,-423.7 561.79,-365.3 354.89,-365.3"/>
<text text-anchor="middle" x="458.34" y="-407.1" font-family="Times,serif" font-size="14.00">&lt;&lt;Abstract&gt;&gt;</text>
<text text-anchor="middle" x="458.34" y="-390.3" font-family="Times,serif" font-size="14.00">VaultStorage</text>
<text text-anchor="middle" x="458.34" y="-373.5" font-family="Times,serif" font-size="14.00">../contracts/vault/VaultStorage.sol</text>
</g>
<!-- 337&#45;&gt;338 -->
<g id="edge8" class="edge">
<title>337&#45;&gt;338</title>
<path fill="none" stroke="black" d="M458.34,-328.38C458.34,-330.46 458.34,-332.6 458.34,-334.78"/>
<polygon fill="none" stroke="black" points="447.84,-335 458.34,-365 468.84,-335 447.84,-335"/>
</g>
<!-- 338&#45;&gt;44 -->
<g id="edge10" class="edge">
<title>338&#45;&gt;44</title>
<path fill="none" stroke="black" d="M396.8,-424.03C383.02,-433.49 370.17,-445.47 362.34,-460.2 350.93,-481.64 355.86,-507.02 365.4,-529.23"/>
<polygon fill="none" stroke="black" points="356.26,-534.41 379.6,-555.99 374.81,-524.57 356.26,-534.41"/>
</g>
<!-- 338&#45;&gt;307 -->
<g id="edge11" class="edge">
<title>338&#45;&gt;307</title>
<path fill="none" stroke="black" d="M458.34,-423.78C458.34,-434.84 458.34,-447.55 458.34,-458.79"/>
<polygon fill="black" stroke="black" points="454.84,-459.01 458.34,-469.01 461.84,-459.01 454.84,-459.01"/>
</g>
<!-- 338&#45;&gt;324 -->
<g id="edge9" class="edge">
<title>338&#45;&gt;324</title>
<path fill="none" stroke="black" d="M519.79,-423.78C536.31,-431.38 554.52,-439.75 572.21,-447.89"/>
<polygon fill="none" stroke="black" points="568.1,-457.56 599.74,-460.56 576.87,-438.48 568.1,-457.56"/>
</g>
</g>
</svg>
