<?xml version="1.0" encoding="UTF-8" standalone="no"?>
<!DOCTYPE svg PUBLIC "-//W3C//DTD SVG 1.1//EN"
 "http://www.w3.org/Graphics/SVG/1.1/DTD/svg11.dtd">
<!-- Generated by graphviz version 5.0.0 (20220707.1540)
 -->
<!-- Title: StorageDiagram Pages: 1 -->
<svg width="2304pt" height="877pt"
 viewBox="0.00 0.00 2304.34 877.00" xmlns="http://www.w3.org/2000/svg" xmlns:xlink="http://www.w3.org/1999/xlink">
<g id="graph0" class="graph" transform="scale(1 1) rotate(0) translate(4 873)">
<title>StorageDiagram</title>
<polygon fill="white" stroke="transparent" points="-4,4 -4,-873 2300.34,-873 2300.34,4 -4,4"/>
<!-- 6 -->
<g id="node1" class="node">
<title>6</title>
<polygon fill="#f2f2f2" stroke="black" points="0,-0.5 0,-868.5 1483.03,-868.5 1483.03,-0.5 0,-0.5"/>
<text text-anchor="middle" x="741.51" y="-851.9" font-family="Courier New" font-size="14.00">OUSDVault &lt;&lt;Contract&gt;&gt;</text>
<polyline fill="none" stroke="black" points="0,-843.7 1483.03,-843.7 "/>
<text text-anchor="middle" x="33.2" y="-827.1" font-family="Courier New" font-size="14.00">slot</text>
<polyline fill="none" stroke="black" points="0,-818.9 66.41,-818.9 "/>
<text text-anchor="middle" x="33.2" y="-802.3" font-family="Courier New" font-size="14.00">0</text>
<polyline fill="none" stroke="black" points="0,-794.1 66.41,-794.1 "/>
<text text-anchor="middle" x="33.2" y="-777.5" font-family="Courier New" font-size="14.00">1&#45;50</text>
<polyline fill="none" stroke="black" points="0,-769.3 66.41,-769.3 "/>
<text text-anchor="middle" x="33.2" y="-752.7" font-family="Courier New" font-size="14.00">51</text>
<polyline fill="none" stroke="black" points="0,-744.5 66.41,-744.5 "/>
<text text-anchor="middle" x="33.2" y="-727.9" font-family="Courier New" font-size="14.00">52</text>
<polyline fill="none" stroke="black" points="0,-719.7 66.41,-719.7 "/>
<text text-anchor="middle" x="33.2" y="-703.1" font-family="Courier New" font-size="14.00">53</text>
<polyline fill="none" stroke="black" points="0,-694.9 66.41,-694.9 "/>
<text text-anchor="middle" x="33.2" y="-678.3" font-family="Courier New" font-size="14.00">54</text>
<polyline fill="none" stroke="black" points="0,-670.1 66.41,-670.1 "/>
<text text-anchor="middle" x="33.2" y="-653.5" font-family="Courier New" font-size="14.00">55</text>
<polyline fill="none" stroke="black" points="0,-645.3 66.41,-645.3 "/>
<text text-anchor="middle" x="33.2" y="-628.7" font-family="Courier New" font-size="14.00">56</text>
<polyline fill="none" stroke="black" points="0,-620.5 66.41,-620.5 "/>
<text text-anchor="middle" x="33.2" y="-603.9" font-family="Courier New" font-size="14.00">57</text>
<polyline fill="none" stroke="black" points="0,-595.7 66.41,-595.7 "/>
<text text-anchor="middle" x="33.2" y="-579.1" font-family="Courier New" font-size="14.00">58</text>
<polyline fill="none" stroke="black" points="0,-570.9 66.41,-570.9 "/>
<text text-anchor="middle" x="33.2" y="-554.3" font-family="Courier New" font-size="14.00">59</text>
<polyline fill="none" stroke="black" points="0,-546.1 66.41,-546.1 "/>
<text text-anchor="middle" x="33.2" y="-529.5" font-family="Courier New" font-size="14.00">60</text>
<polyline fill="none" stroke="black" points="0,-521.3 66.41,-521.3 "/>
<text text-anchor="middle" x="33.2" y="-504.7" font-family="Courier New" font-size="14.00">61</text>
<polyline fill="none" stroke="black" points="0,-496.5 66.41,-496.5 "/>
<text text-anchor="middle" x="33.2" y="-479.9" font-family="Courier New" font-size="14.00">62</text>
<polyline fill="none" stroke="black" points="0,-471.7 66.41,-471.7 "/>
<text text-anchor="middle" x="33.2" y="-455.1" font-family="Courier New" font-size="14.00">63</text>
<polyline fill="none" stroke="black" points="0,-446.9 66.41,-446.9 "/>
<text text-anchor="middle" x="33.2" y="-430.3" font-family="Courier New" font-size="14.00">64</text>
<polyline fill="none" stroke="black" points="0,-422.1 66.41,-422.1 "/>
<text text-anchor="middle" x="33.2" y="-405.5" font-family="Courier New" font-size="14.00">65</text>
<polyline fill="none" stroke="black" points="0,-397.3 66.41,-397.3 "/>
<text text-anchor="middle" x="33.2" y="-380.7" font-family="Courier New" font-size="14.00">66</text>
<polyline fill="none" stroke="black" points="0,-372.5 66.41,-372.5 "/>
<text text-anchor="middle" x="33.2" y="-355.9" font-family="Courier New" font-size="14.00">67</text>
<polyline fill="none" stroke="black" points="0,-347.7 66.41,-347.7 "/>
<text text-anchor="middle" x="33.2" y="-331.1" font-family="Courier New" font-size="14.00">68</text>
<polyline fill="none" stroke="black" points="0,-322.9 66.41,-322.9 "/>
<text text-anchor="middle" x="33.2" y="-306.3" font-family="Courier New" font-size="14.00">69</text>
<polyline fill="none" stroke="black" points="0,-298.1 66.41,-298.1 "/>
<text text-anchor="middle" x="33.2" y="-281.5" font-family="Courier New" font-size="14.00">70</text>
<polyline fill="none" stroke="black" points="0,-273.3 66.41,-273.3 "/>
<text text-anchor="middle" x="33.2" y="-256.7" font-family="Courier New" font-size="14.00">71</text>
<polyline fill="none" stroke="black" points="0,-248.5 66.41,-248.5 "/>
<text text-anchor="middle" x="33.2" y="-231.9" font-family="Courier New" font-size="14.00">72</text>
<polyline fill="none" stroke="black" points="0,-223.7 66.41,-223.7 "/>
<text text-anchor="middle" x="33.2" y="-207.1" font-family="Courier New" font-size="14.00">73</text>
<polyline fill="none" stroke="black" points="0,-198.9 66.41,-198.9 "/>
<text text-anchor="middle" x="33.2" y="-182.3" font-family="Courier New" font-size="14.00">74</text>
<polyline fill="none" stroke="black" points="0,-174.1 66.41,-174.1 "/>
<text text-anchor="middle" x="33.2" y="-157.5" font-family="Courier New" font-size="14.00">75&#45;76</text>
<polyline fill="none" stroke="black" points="0,-149.3 66.41,-149.3 "/>
<text text-anchor="middle" x="33.2" y="-132.7" font-family="Courier New" font-size="14.00">77</text>
<polyline fill="none" stroke="black" points="0,-124.5 66.41,-124.5 "/>
<text text-anchor="middle" x="33.2" y="-107.9" font-family="Courier New" font-size="14.00">78</text>
<polyline fill="none" stroke="black" points="0,-99.7 66.41,-99.7 "/>
<text text-anchor="middle" x="33.2" y="-83.1" font-family="Courier New" font-size="14.00">79</text>
<polyline fill="none" stroke="black" points="0,-74.9 66.41,-74.9 "/>
<text text-anchor="middle" x="33.2" y="-58.3" font-family="Courier New" font-size="14.00">80</text>
<polyline fill="none" stroke="black" points="0,-50.1 66.41,-50.1 "/>
<text text-anchor="middle" x="33.2" y="-33.5" font-family="Courier New" font-size="14.00">81&#45;122</text>
<polyline fill="none" stroke="black" points="0,-25.3 66.41,-25.3 "/>
<text text-anchor="middle" x="33.2" y="-8.7" font-family="Courier New" font-size="14.00">123</text>
<polyline fill="none" stroke="black" points="66.41,-0.5 66.41,-843.7 "/>
<text text-anchor="middle" x="774.72" y="-827.1" font-family="Courier New" font-size="14.00">type: &lt;inherited contract&gt;.variable (bytes)</text>
<polyline fill="none" stroke="black" points="66.41,-818.9 1483.03,-818.9 "/>
<text text-anchor="middle" x="247.62" y="-802.3" font-family="Courier New" font-size="14.00">unallocated (30)</text>
<polyline fill="none" stroke="black" points="428.83,-794.1 428.83,-818.9 "/>
<text text-anchor="middle" x="694.55" y="-802.3" font-family="Courier New" font-size="14.00">bool: Initializable.initializing (1)</text>
<polyline fill="none" stroke="black" points="960.28,-794.1 960.28,-818.9 "/>
<text text-anchor="middle" x="1221.3" y="-802.3" font-family="Courier New" font-size="14.00">bool: Initializable.initialized (1)</text>
<polyline fill="none" stroke="black" points="66.41,-794.1 1483.03,-794.1 "/>
<text text-anchor="middle" x="774.54" y="-777.5" font-family="Courier New" font-size="14.00">uint256[50]: Initializable.______gap (1600)</text>
<polyline fill="none" stroke="black" points="66.41,-769.3 1483.03,-769.3 "/>
<text text-anchor="middle" x="774.44" y="-752.7" font-family="Courier New" font-size="14.00">uint256: VaultStorage._deprecated_assets (32)</text>
<polyline fill="none" stroke="black" points="66.41,-744.5 1483.03,-744.5 "/>
<text text-anchor="middle" x="774.44" y="-727.9" font-family="Courier New" font-size="14.00">address[]: VaultStorage._deprecated_allAssets (32)</text>
<polyline fill="none" stroke="black" points="66.41,-719.7 1483.03,-719.7 "/>
<text text-anchor="middle" x="774.65" y="-703.1" font-family="Courier New" font-size="14.00">mapping(address=&gt;Strategy): VaultStorage.strategies (32)</text>
<polyline fill="none" stroke="black" points="66.41,-694.9 1483.03,-694.9 "/>
<text text-anchor="middle" x="774.34" y="-678.3" font-family="Courier New" font-size="14.00">address[]: VaultStorage.allStrategies (32)</text>
<polyline fill="none" stroke="black" points="66.41,-670.1 1483.03,-670.1 "/>
<text text-anchor="middle" x="164.62" y="-653.5" font-family="Courier New" font-size="14.00">unallocated (10)</text>
<polyline fill="none" stroke="black" points="262.83,-645.3 262.83,-670.1 "/>
<text text-anchor="middle" x="445.05" y="-653.5" font-family="Courier New" font-size="14.00">bool: VaultStorage.capitalPaused (1)</text>
<polyline fill="none" stroke="black" points="627.28,-645.3 627.28,-670.1 "/>
<text text-anchor="middle" x="805.3" y="-653.5" font-family="Courier New" font-size="14.00">bool: VaultStorage.rebasePaused (1)</text>
<polyline fill="none" stroke="black" points="983.33,-645.3 983.33,-670.1 "/>
<text text-anchor="middle" x="1232.76" y="-653.5" font-family="Courier New" font-size="14.00">address: VaultStorage._deprecated_priceProvider (20)</text>
<polyline fill="none" stroke="black" points="66.41,-645.3 1483.03,-645.3 "/>
<text text-anchor="middle" x="774.64" y="-628.7" font-family="Courier New" font-size="14.00">uint256: VaultStorage._deprecated_redeemFeeBps (32)</text>
<polyline fill="none" stroke="black" points="66.41,-620.5 1483.03,-620.5 "/>
<text text-anchor="middle" x="774.53" y="-603.9" font-family="Courier New" font-size="14.00">uint256: VaultStorage.vaultBuffer (32)</text>
<polyline fill="none" stroke="black" points="66.41,-595.7 1483.03,-595.7 "/>
<text text-anchor="middle" x="774.54" y="-579.1" font-family="Courier New" font-size="14.00">uint256: VaultStorage.autoAllocateThreshold (32)</text>
<polyline fill="none" stroke="black" points="66.41,-570.9 1483.03,-570.9 "/>
<text text-anchor="middle" x="774.34" y="-554.3" font-family="Courier New" font-size="14.00">uint256: VaultStorage.rebaseThreshold (32)</text>
<polyline fill="none" stroke="black" points="66.41,-546.1 1483.03,-546.1 "/>
<text text-anchor="middle" x="395.12" y="-529.5" font-family="Courier New" font-size="14.00">unallocated (12)</text>
<polyline fill="none" stroke="black" points="723.83,-521.3 723.83,-546.1 "/>
<text text-anchor="middle" x="1102.95" y="-529.5" font-family="Courier New" font-size="14.00">OUSD: VaultStorage.oUSD (20)</text>
<polyline fill="none" stroke="black" points="66.41,-521.3 1483.03,-521.3 "/>
<text text-anchor="middle" x="340.62" y="-504.7" font-family="Courier New" font-size="14.00">unallocated (12)</text>
<polyline fill="none" stroke="black" points="614.83,-496.5 614.83,-521.3 "/>
<text text-anchor="middle" x="1048.67" y="-504.7" font-family="Courier New" font-size="14.00">address: VaultStorage._deprecated_rebaseHooksAddr (20)</text>
<polyline fill="none" stroke="black" points="66.41,-496.5 1483.03,-496.5 "/>
<text text-anchor="middle" x="349.12" y="-479.9" font-family="Courier New" font-size="14.00">unallocated (12)</text>
<polyline fill="none" stroke="black" points="631.83,-471.7 631.83,-496.5 "/>
<text text-anchor="middle" x="1057.36" y="-479.9" font-family="Courier New" font-size="14.00">address: VaultStorage._deprecated_uniswapAddr (20)</text>
<polyline fill="none" stroke="black" points="66.41,-471.7 1483.03,-471.7 "/>
<text text-anchor="middle" x="367.62" y="-455.1" font-family="Courier New" font-size="14.00">unallocated (12)</text>
<polyline fill="none" stroke="black" points="668.83,-446.9 668.83,-471.7 "/>
<text text-anchor="middle" x="1075.56" y="-455.1" font-family="Courier New" font-size="14.00">address: VaultStorage.strategistAddr (20)</text>
<polyline fill="none" stroke="black" points="66.41,-446.9 1483.03,-446.9 "/>
<text text-anchor="middle" x="774.65" y="-430.3" font-family="Courier New" font-size="14.00">uint256: VaultStorage._deprecated_assetDefaultStrategies (32)</text>
<polyline fill="none" stroke="black" points="66.41,-422.1 1483.03,-422.1 "/>
<text text-anchor="middle" x="774.44" y="-405.5" font-family="Courier New" font-size="14.00">uint256: VaultStorage.maxSupplyDiff (32)</text>
<polyline fill="none" stroke="black" points="66.41,-397.3 1483.03,-397.3 "/>
<text text-anchor="middle" x="367.62" y="-380.7" font-family="Courier New" font-size="14.00">unallocated (12)</text>
<polyline fill="none" stroke="black" points="668.83,-372.5 668.83,-397.3 "/>
<text text-anchor="middle" x="1075.56" y="-380.7" font-family="Courier New" font-size="14.00">address: VaultStorage.trusteeAddress (20)</text>
<polyline fill="none" stroke="black" points="66.41,-372.5 1483.03,-372.5 "/>
<text text-anchor="middle" x="774.44" y="-355.9" font-family="Courier New" font-size="14.00">uint256: VaultStorage.trusteeFeeBps (32)</text>
<polyline fill="none" stroke="black" points="66.41,-347.7 1483.03,-347.7 "/>
<text text-anchor="middle" x="774.64" y="-331.1" font-family="Courier New" font-size="14.00">address[]: VaultStorage._deprecated_swapTokens (32)</text>
<polyline fill="none" stroke="black" points="66.41,-322.9 1483.03,-322.9 "/>
<text text-anchor="middle" x="338.62" y="-306.3" font-family="Courier New" font-size="14.00">unallocated (12)</text>
<polyline fill="none" stroke="black" points="610.83,-298.1 610.83,-322.9 "/>
<text text-anchor="middle" x="1046.87" y="-306.3" font-family="Courier New" font-size="14.00">address: VaultStorage._deprecated_ousdMetaStrategy (20)</text>
<polyline fill="none" stroke="black" points="66.41,-298.1 1483.03,-298.1 "/>
<text text-anchor="middle" x="774.35" y="-281.5" font-family="Courier New" font-size="14.00">int256: VaultStorage._deprecated_netOusdMintedForStrategy (32)</text>
<polyline fill="none" stroke="black" points="66.41,-273.3 1483.03,-273.3 "/>
<text text-anchor="middle" x="774.46" y="-256.7" font-family="Courier New" font-size="14.00">uint256: VaultStorage._deprecated_netOusdMintForStrategyThreshold (32)</text>
<polyline fill="none" stroke="black" points="66.41,-248.5 1483.03,-248.5 "/>
<text text-anchor="middle" x="774.24" y="-231.9" font-family="Courier New" font-size="14.00">uint256: VaultStorage._deprecated_swapConfig (32)</text>
<polyline fill="none" stroke="black" points="66.41,-223.7 1483.03,-223.7 "/>
<text text-anchor="middle" x="774.35" y="-207.1" font-family="Courier New" font-size="14.00">mapping(address=&gt;bool): VaultStorage.isMintWhitelistedStrategy (32)</text>
<polyline fill="none" stroke="black" points="66.41,-198.9 1483.03,-198.9 "/>
<text text-anchor="middle" x="357.12" y="-182.3" font-family="Courier New" font-size="14.00">unallocated (12)</text>
<polyline fill="none" stroke="black" points="647.83,-174.1 647.83,-198.9 "/>
<text text-anchor="middle" x="1065.06" y="-182.3" font-family="Courier New" font-size="14.00">address: VaultStorage._deprecated_dripper (20)</text>
<polyline fill="none" stroke="black" points="66.41,-174.1 1483.03,-174.1 "/>
<text text-anchor="middle" x="774.65" y="-157.5" font-family="Courier New" font-size="14.00">WithdrawalQueueMetadata: VaultStorage.withdrawalQueueMetadata (64)</text>
<polyline fill="none" stroke="black" points="66.41,-149.3 1483.03,-149.3 "/>
<text text-anchor="middle" x="774.56" y="-132.7" font-family="Courier New" font-size="14.00">mapping(uint256=&gt;WithdrawalRequest): VaultStorage.withdrawalRequests (32)</text>
<polyline fill="none" stroke="black" points="66.41,-124.5 1483.03,-124.5 "/>
<text text-anchor="middle" x="774.34" y="-107.9" font-family="Courier New" font-size="14.00">uint256: VaultStorage.withdrawalClaimDelay (32)</text>
<polyline fill="none" stroke="black" points="66.41,-99.7 1483.03,-99.7 "/>
<text text-anchor="middle" x="267.64" y="-83.1" font-family="Courier New" font-size="14.00">uint64: VaultStorage.rebasePerSecondTarget (8)</text>
<polyline fill="none" stroke="black" points="468.87,-74.9 468.87,-99.7 "/>
<text text-anchor="middle" x="657.5" y="-83.1" font-family="Courier New" font-size="14.00">uint64: VaultStorage.rebasePerSecondMax (8)</text>
<polyline fill="none" stroke="black" points="846.13,-74.9 846.13,-99.7 "/>
<text text-anchor="middle" x="1009.56" y="-83.1" font-family="Courier New" font-size="14.00">uint64: VaultStorage.dripDuration (8)</text>
<polyline fill="none" stroke="black" points="1172.98,-74.9 1172.98,-99.7 "/>
<text text-anchor="middle" x="1328" y="-83.1" font-family="Courier New" font-size="14.00">uint64: VaultStorage.lastRebase (8)</text>
<polyline fill="none" stroke="black" points="66.41,-74.9 1483.03,-74.9 "/>
<text text-anchor="middle" x="365.62" y="-58.3" font-family="Courier New" font-size="14.00">unallocated (12)</text>
<polyline fill="none" stroke="black" points="664.83,-50.1 664.83,-74.9 "/>
<text text-anchor="middle" x="1073.76" y="-58.3" font-family="Courier New" font-size="14.00">address: VaultStorage.defaultStrategy (20)</text>
<polyline fill="none" stroke="black" points="66.41,-50.1 1483.03,-50.1 "/>
<text text-anchor="middle" x="774.53" y="-33.5" font-family="Courier New" font-size="14.00">uint256[42]: VaultStorage.__gap (1344)</text>
<polyline fill="none" stroke="black" points="66.41,-25.3 1483.03,-25.3 "/>
<text text-anchor="middle" x="774.54" y="-8.7" font-family="Courier New" font-size="14.00">uint256: VaultStorage._deprecated_wethAssetIndex (32)</text>
</g>
<!-- 1 -->
<g id="node2" class="node">
<title>1</title>
<polygon fill="#f2f2f2" stroke="black" points="1622.44,-775.9 1622.44,-867.1 2192.93,-867.1 2192.93,-775.9 1622.44,-775.9"/>
<text text-anchor="middle" x="1907.69" y="-850.5" font-family="Courier New" font-size="14.00">address[]: _deprecated_allAssets &lt;&lt;Array&gt;&gt;</text>
<text text-anchor="middle" x="1907.69" y="-833.7" font-family="Courier New" font-size="14.00">0x46bddb1178e94d7f2892ff5f366840eb658911794f2c3a44c450aa2c505186c1</text>
<polyline fill="none" stroke="black" points="1622.44,-825.5 2192.93,-825.5 "/>
<text text-anchor="middle" x="1714.64" y="-808.9" font-family="Courier New" font-size="14.00">offset</text>
<polyline fill="none" stroke="black" points="1622.44,-800.7 1806.85,-800.7 "/>
<text text-anchor="middle" x="1714.64" y="-784.1" font-family="Courier New" font-size="14.00">0</text>
<polyline fill="none" stroke="black" points="1806.85,-775.9 1806.85,-825.5 "/>
<text text-anchor="middle" x="1999.47" y="-808.9" font-family="Courier New" font-size="14.00">type: variable (bytes)</text>
<polyline fill="none" stroke="black" points="1806.85,-800.7 2192.09,-800.7 "/>
<text text-anchor="middle" x="1911.56" y="-784.1" font-family="Courier New" font-size="14.00">unallocated (12)</text>
<polyline fill="none" stroke="black" points="2016.27,-775.9 2016.27,-800.7 "/>
<text text-anchor="middle" x="2104.18" y="-784.1" font-family="Courier New" font-size="14.00">address (20)</text>
</g>
<!-- 6&#45;&gt;1 -->
<g id="edge1" class="edge">
<title>6:6&#45;&gt;1</title>
<path fill="none" stroke="black" d="M1483.03,-732.5C1505.04,-732.5 1499.2,-756.95 1519.03,-766.5 1548.17,-780.53 1579.86,-791.25 1612.16,-799.4"/>
<polygon fill="black" stroke="black" points="1611.66,-802.88 1622.2,-801.85 1613.32,-796.08 1611.66,-802.88"/>
</g>
<!-- 2 -->
<g id="node3" class="node">
<title>2</title>
<polygon fill="#f2f2f2" stroke="black" points="1703.06,-657.9 1703.06,-757.1 2112.31,-757.1 2112.31,-657.9 1703.06,-657.9"/>
<text text-anchor="middle" x="1907.69" y="-740.5" font-family="Courier New" font-size="14.00">Strategy &lt;&lt;Struct&gt;&gt;</text>
<polyline fill="none" stroke="black" points="1703.06,-732.3 2112.31,-732.3 "/>
<text text-anchor="middle" x="1736.26" y="-715.7" font-family="Courier New" font-size="14.00">offset</text>
<polyline fill="none" stroke="black" points="1703.06,-707.5 1769.46,-707.5 "/>
<text text-anchor="middle" x="1736.26" y="-690.9" font-family="Courier New" font-size="14.00">0</text>
<polyline fill="none" stroke="black" points="1703.06,-682.7 1769.46,-682.7 "/>
<text text-anchor="middle" x="1736.26" y="-666.1" font-family="Courier New" font-size="14.00">1</text>
<polyline fill="none" stroke="black" points="1769.46,-657.9 1769.46,-732.3 "/>
<text text-anchor="middle" x="1940.89" y="-715.7" font-family="Courier New" font-size="14.00">type: variable (bytes)</text>
<polyline fill="none" stroke="black" points="1769.46,-707.5 2112.31,-707.5 "/>
<text text-anchor="middle" x="1844.67" y="-690.9" font-family="Courier New" font-size="14.00">unallocated (31)</text>
<polyline fill="none" stroke="black" points="1919.89,-682.7 1919.89,-707.5 "/>
<text text-anchor="middle" x="2016.1" y="-690.9" font-family="Courier New" font-size="14.00">bool: isSupported (1)</text>
<polyline fill="none" stroke="black" points="1769.46,-682.7 2112.31,-682.7 "/>
<text text-anchor="middle" x="1940.48" y="-666.1" font-family="Courier New" font-size="14.00">uint256: _deprecated (32)</text>
</g>
<!-- 6&#45;&gt;2 -->
<g id="edge2" class="edge">
<title>6:9&#45;&gt;2</title>
<path fill="none" stroke="black" d="M1483.03,-707.5C1551.24,-707.5 1625.63,-707.5 1692.77,-707.5"/>
<polygon fill="black" stroke="black" points="1693.05,-711 1703.05,-707.5 1693.05,-704 1693.05,-711"/>
</g>
<!-- 3 -->
<g id="node4" class="node">
<title>3</title>
<polygon fill="#f2f2f2" stroke="black" points="1622.44,-547.9 1622.44,-639.1 2192.93,-639.1 2192.93,-547.9 1622.44,-547.9"/>
<text text-anchor="middle" x="1907.69" y="-622.5" font-family="Courier New" font-size="14.00">address[]: allStrategies &lt;&lt;Array&gt;&gt;</text>
<text text-anchor="middle" x="1907.69" y="-605.7" font-family="Courier New" font-size="14.00">0x4a11f94e20a93c79f6ec743a1954ec4fc2c08429ae2122118bf234b2185c81b8</text>
<polyline fill="none" stroke="black" points="1622.44,-597.5 2192.93,-597.5 "/>
<text text-anchor="middle" x="1714.64" y="-580.9" font-family="Courier New" font-size="14.00">offset</text>
<polyline fill="none" stroke="black" points="1622.44,-572.7 1806.85,-572.7 "/>
<text text-anchor="middle" x="1714.64" y="-556.1" font-family="Courier New" font-size="14.00">0</text>
<polyline fill="none" stroke="black" points="1806.85,-547.9 1806.85,-597.5 "/>
<text text-anchor="middle" x="1999.47" y="-580.9" font-family="Courier New" font-size="14.00">type: variable (bytes)</text>
<polyline fill="none" stroke="black" points="1806.85,-572.7 2192.09,-572.7 "/>
<text text-anchor="middle" x="1911.56" y="-556.1" font-family="Courier New" font-size="14.00">unallocated (12)</text>
<polyline fill="none" stroke="black" points="2016.27,-547.9 2016.27,-572.7 "/>
<text text-anchor="middle" x="2104.18" y="-556.1" font-family="Courier New" font-size="14.00">address (20)</text>
</g>
<!-- 6&#45;&gt;3 -->
<g id="edge3" class="edge">
<title>6:11&#45;&gt;3</title>
<path fill="none" stroke="black" d="M1483.03,-682.5C1505.04,-682.5 1499.2,-658.05 1519.03,-648.5 1548.17,-634.47 1579.86,-623.75 1612.16,-615.6"/>
<polygon fill="black" stroke="black" points="1613.32,-618.92 1622.2,-613.15 1611.66,-612.12 1613.32,-618.92"/>
</g>
<!-- 4 -->
<g id="node5" class="node">
<title>4</title>
<polygon fill="#f2f2f2" stroke="black" points="1640.05,-158.9 1640.05,-258.1 2175.32,-258.1 2175.32,-158.9 1640.05,-158.9"/>
<text text-anchor="middle" x="1907.69" y="-241.5" font-family="Courier New" font-size="14.00">WithdrawalQueueMetadata &lt;&lt;Struct&gt;&gt;</text>
<polyline fill="none" stroke="black" points="1640.05,-233.3 2175.32,-233.3 "/>
<text text-anchor="middle" x="1664.85" y="-216.7" font-family="Courier New" font-size="14.00">slot</text>
<polyline fill="none" stroke="black" points="1640.05,-208.5 1689.65,-208.5 "/>
<text text-anchor="middle" x="1664.85" y="-191.9" font-family="Courier New" font-size="14.00">75</text>
<polyline fill="none" stroke="black" points="1640.05,-183.7 1689.65,-183.7 "/>
<text text-anchor="middle" x="1664.85" y="-167.1" font-family="Courier New" font-size="14.00">76</text>
<polyline fill="none" stroke="black" points="1689.65,-158.9 1689.65,-233.3 "/>
<text text-anchor="middle" x="1932.49" y="-216.7" font-family="Courier New" font-size="14.00">type: variable (bytes)</text>
<polyline fill="none" stroke="black" points="1689.65,-208.5 2175.32,-208.5 "/>
<text text-anchor="middle" x="1817.27" y="-191.9" font-family="Courier New" font-size="14.00">uint128: claimable (16)</text>
<polyline fill="none" stroke="black" points="1944.88,-183.7 1944.88,-208.5 "/>
<text text-anchor="middle" x="2059.9" y="-191.9" font-family="Courier New" font-size="14.00">uint128: queued (16)</text>
<polyline fill="none" stroke="black" points="1689.65,-183.7 2175.32,-183.7 "/>
<text text-anchor="middle" x="1836.27" y="-167.1" font-family="Courier New" font-size="14.00">uint128: nextWithdrawalIndex (16)</text>
<polyline fill="none" stroke="black" points="1982.9,-158.9 1982.9,-183.7 "/>
<text text-anchor="middle" x="2079.11" y="-167.1" font-family="Courier New" font-size="14.00">uint128: claimed (16)</text>
</g>
<!-- 6&#45;&gt;4 -->
<g id="edge4" class="edge">
<title>6:38&#45;&gt;4</title>
<path fill="none" stroke="black" d="M1483.03,-161.5C1530.63,-161.5 1581.05,-164.47 1629.87,-168.91"/>
<polygon fill="black" stroke="black" points="1629.66,-172.4 1639.94,-169.85 1630.31,-165.44 1629.66,-172.4"/>
</g>
<!-- 5 -->
<g id="node6" class="node">
<title>5</title>
<polygon fill="#f2f2f2" stroke="black" points="1519.03,-40.9 1519.03,-140.1 2296.34,-140.1 2296.34,-40.9 1519.03,-40.9"/>
<text text-anchor="middle" x="1907.69" y="-123.5" font-family="Courier New" font-size="14.00">WithdrawalRequest &lt;&lt;Struct&gt;&gt;</text>
<polyline fill="none" stroke="black" points="1519.03,-115.3 2296.34,-115.3 "/>
<text text-anchor="middle" x="1552.23" y="-98.7" font-family="Courier New" font-size="14.00">offset</text>
<polyline fill="none" stroke="black" points="1519.03,-90.5 1585.44,-90.5 "/>
<text text-anchor="middle" x="1552.23" y="-73.9" font-family="Courier New" font-size="14.00">0</text>
<polyline fill="none" stroke="black" points="1519.03,-65.7 1585.44,-65.7 "/>
<text text-anchor="middle" x="1552.23" y="-49.1" font-family="Courier New" font-size="14.00">1</text>
<polyline fill="none" stroke="black" points="1585.44,-40.9 1585.44,-115.3 "/>
<text text-anchor="middle" x="1940.89" y="-98.7" font-family="Courier New" font-size="14.00">type: variable (bytes)</text>
<polyline fill="none" stroke="black" points="1585.44,-90.5 2296.34,-90.5 "/>
<text text-anchor="middle" x="1656.45" y="-73.9" font-family="Courier New" font-size="14.00">unallocated (6)</text>
<polyline fill="none" stroke="black" points="1727.46,-65.7 1727.46,-90.5 "/>
<text text-anchor="middle" x="1823.67" y="-73.9" font-family="Courier New" font-size="14.00">uint40: timestamp (5)</text>
<polyline fill="none" stroke="black" points="1919.89,-65.7 1919.89,-90.5 "/>
<text text-anchor="middle" x="1999.3" y="-73.9" font-family="Courier New" font-size="14.00">bool: claimed (1)</text>
<polyline fill="none" stroke="black" points="2078.71,-65.7 2078.71,-90.5 "/>
<text text-anchor="middle" x="2187.53" y="-73.9" font-family="Courier New" font-size="14.00">address: withdrawer (20)</text>
<polyline fill="none" stroke="black" points="1585.44,-65.7 2296.34,-65.7 "/>
<text text-anchor="middle" x="1762.95" y="-49.1" font-family="Courier New" font-size="14.00">uint128: queued (16)</text>
<polyline fill="none" stroke="black" points="1940.46,-40.9 1940.46,-65.7 "/>
<text text-anchor="middle" x="2117.98" y="-49.1" font-family="Courier New" font-size="14.00">uint128: amount (16)</text>
</g>
<!-- 6&#45;&gt;5 -->
<g id="edge5" class="edge">
<title>6:44&#45;&gt;5</title>
<path fill="none" stroke="black" d="M1483.03,-136.5C1491.54,-136.5 1500.14,-136.41 1508.8,-136.23"/>
<polygon fill="black" stroke="black" points="1509.09,-139.72 1519,-135.98 1508.92,-132.73 1509.09,-139.72"/>
</g>
</g>
</svg>
