<?xml version="1.0" encoding="UTF-8" standalone="no"?>
<!DOCTYPE svg PUBLIC "-//W3C//DTD SVG 1.1//EN"
 "http://www.w3.org/Graphics/SVG/1.1/DTD/svg11.dtd">
<!-- Generated by graphviz version 5.0.0 (20220707.1540)
 -->
<!-- Title: StorageDiagram Pages: 1 -->
<svg width="2446pt" height="1052pt"
 viewBox="0.00 0.00 2446.36 1052.00" xmlns="http://www.w3.org/2000/svg" xmlns:xlink="http://www.w3.org/1999/xlink">
<g id="graph0" class="graph" transform="scale(1 1) rotate(0) translate(4 1048)">
<title>StorageDiagram</title>
<polygon fill="white" stroke="transparent" points="-4,4 -4,-1048 2442.36,-1048 2442.36,4 -4,4"/>
<!-- 9 -->
<g id="node1" class="node">
<title>9</title>
<polygon fill="#f2f2f2" stroke="black" points="0,-251.3 0,-995.3 1197.38,-995.3 1197.38,-251.3 0,-251.3"/>
<text text-anchor="middle" x="598.69" y="-978.7" font-family="Courier New" font-size="14.00">VaultCore &lt;&lt;Contract&gt;&gt;</text>
<polyline fill="none" stroke="black" points="0,-970.5 1197.38,-970.5 "/>
<text text-anchor="middle" x="33.2" y="-953.9" font-family="Courier New" font-size="14.00">slot</text>
<polyline fill="none" stroke="black" points="0,-945.7 66.41,-945.7 "/>
<text text-anchor="middle" x="33.2" y="-929.1" font-family="Courier New" font-size="14.00">0</text>
<polyline fill="none" stroke="black" points="0,-920.9 66.41,-920.9 "/>
<text text-anchor="middle" x="33.2" y="-904.3" font-family="Courier New" font-size="14.00">1&#45;50</text>
<polyline fill="none" stroke="black" points="0,-896.1 66.41,-896.1 "/>
<text text-anchor="middle" x="33.2" y="-879.5" font-family="Courier New" font-size="14.00">51</text>
<polyline fill="none" stroke="black" points="0,-871.3 66.41,-871.3 "/>
<text text-anchor="middle" x="33.2" y="-854.7" font-family="Courier New" font-size="14.00">52</text>
<polyline fill="none" stroke="black" points="0,-846.5 66.41,-846.5 "/>
<text text-anchor="middle" x="33.2" y="-829.9" font-family="Courier New" font-size="14.00">53</text>
<polyline fill="none" stroke="black" points="0,-821.7 66.41,-821.7 "/>
<text text-anchor="middle" x="33.2" y="-805.1" font-family="Courier New" font-size="14.00">54</text>
<polyline fill="none" stroke="black" points="0,-796.9 66.41,-796.9 "/>
<text text-anchor="middle" x="33.2" y="-780.3" font-family="Courier New" font-size="14.00">55</text>
<polyline fill="none" stroke="black" points="0,-772.1 66.41,-772.1 "/>
<text text-anchor="middle" x="33.2" y="-755.5" font-family="Courier New" font-size="14.00">56</text>
<polyline fill="none" stroke="black" points="0,-747.3 66.41,-747.3 "/>
<text text-anchor="middle" x="33.2" y="-730.7" font-family="Courier New" font-size="14.00">57</text>
<polyline fill="none" stroke="black" points="0,-722.5 66.41,-722.5 "/>
<text text-anchor="middle" x="33.2" y="-705.9" font-family="Courier New" font-size="14.00">58</text>
<polyline fill="none" stroke="black" points="0,-697.7 66.41,-697.7 "/>
<text text-anchor="middle" x="33.2" y="-681.1" font-family="Courier New" font-size="14.00">59</text>
<polyline fill="none" stroke="black" points="0,-672.9 66.41,-672.9 "/>
<text text-anchor="middle" x="33.2" y="-656.3" font-family="Courier New" font-size="14.00">60</text>
<polyline fill="none" stroke="black" points="0,-648.1 66.41,-648.1 "/>
<text text-anchor="middle" x="33.2" y="-631.5" font-family="Courier New" font-size="14.00">61</text>
<polyline fill="none" stroke="black" points="0,-623.3 66.41,-623.3 "/>
<text text-anchor="middle" x="33.2" y="-606.7" font-family="Courier New" font-size="14.00">62</text>
<polyline fill="none" stroke="black" points="0,-598.5 66.41,-598.5 "/>
<text text-anchor="middle" x="33.2" y="-581.9" font-family="Courier New" font-size="14.00">63</text>
<polyline fill="none" stroke="black" points="0,-573.7 66.41,-573.7 "/>
<text text-anchor="middle" x="33.2" y="-557.1" font-family="Courier New" font-size="14.00">64</text>
<polyline fill="none" stroke="black" points="0,-548.9 66.41,-548.9 "/>
<text text-anchor="middle" x="33.2" y="-532.3" font-family="Courier New" font-size="14.00">65</text>
<polyline fill="none" stroke="black" points="0,-524.1 66.41,-524.1 "/>
<text text-anchor="middle" x="33.2" y="-507.5" font-family="Courier New" font-size="14.00">66</text>
<polyline fill="none" stroke="black" points="0,-499.3 66.41,-499.3 "/>
<text text-anchor="middle" x="33.2" y="-482.7" font-family="Courier New" font-size="14.00">67</text>
<polyline fill="none" stroke="black" points="0,-474.5 66.41,-474.5 "/>
<text text-anchor="middle" x="33.2" y="-457.9" font-family="Courier New" font-size="14.00">68</text>
<polyline fill="none" stroke="black" points="0,-449.7 66.41,-449.7 "/>
<text text-anchor="middle" x="33.2" y="-433.1" font-family="Courier New" font-size="14.00">69</text>
<polyline fill="none" stroke="black" points="0,-424.9 66.41,-424.9 "/>
<text text-anchor="middle" x="33.2" y="-408.3" font-family="Courier New" font-size="14.00">70</text>
<polyline fill="none" stroke="black" points="0,-400.1 66.41,-400.1 "/>
<text text-anchor="middle" x="33.2" y="-383.5" font-family="Courier New" font-size="14.00">71</text>
<polyline fill="none" stroke="black" points="0,-375.3 66.41,-375.3 "/>
<text text-anchor="middle" x="33.2" y="-358.7" font-family="Courier New" font-size="14.00">72</text>
<polyline fill="none" stroke="black" points="0,-350.5 66.41,-350.5 "/>
<text text-anchor="middle" x="33.2" y="-333.9" font-family="Courier New" font-size="14.00">73</text>
<polyline fill="none" stroke="black" points="0,-325.7 66.41,-325.7 "/>
<text text-anchor="middle" x="33.2" y="-309.1" font-family="Courier New" font-size="14.00">74&#45;75</text>
<polyline fill="none" stroke="black" points="0,-300.9 66.41,-300.9 "/>
<text text-anchor="middle" x="33.2" y="-284.3" font-family="Courier New" font-size="14.00">76</text>
<polyline fill="none" stroke="black" points="0,-276.1 66.41,-276.1 "/>
<text text-anchor="middle" x="33.2" y="-259.5" font-family="Courier New" font-size="14.00">77&#45;122</text>
<polyline fill="none" stroke="black" points="66.41,-251.3 66.41,-970.5 "/>
<text text-anchor="middle" x="631.9" y="-953.9" font-family="Courier New" font-size="14.00">type: &lt;inherited contract&gt;.variable (bytes)</text>
<polyline fill="none" stroke="black" points="66.41,-945.7 1197.38,-945.7 "/>
<text text-anchor="middle" x="200.12" y="-929.1" font-family="Courier New" font-size="14.00">unallocated (30)</text>
<polyline fill="none" stroke="black" points="333.83,-920.9 333.83,-945.7 "/>
<text text-anchor="middle" x="551.55" y="-929.1" font-family="Courier New" font-size="14.00">bool: Initializable.initializing (1)</text>
<polyline fill="none" stroke="black" points="769.28,-920.9 769.28,-945.7 "/>
<text text-anchor="middle" x="983.3" y="-929.1" font-family="Courier New" font-size="14.00">bool: Initializable.initialized (1)</text>
<polyline fill="none" stroke="black" points="66.41,-920.9 1197.38,-920.9 "/>
<text text-anchor="middle" x="631.54" y="-904.3" font-family="Courier New" font-size="14.00">uint256[50]: Initializable.______gap (1600)</text>
<polyline fill="none" stroke="black" points="66.41,-896.1 1197.38,-896.1 "/>
<text text-anchor="middle" x="631.74" y="-879.5" font-family="Courier New" font-size="14.00">mapping(address=&gt;Asset): VaultStorage.assets (32)</text>
<polyline fill="none" stroke="black" points="66.41,-871.3 1197.38,-871.3 "/>
<text text-anchor="middle" x="631.53" y="-854.7" font-family="Courier New" font-size="14.00">address[]: VaultStorage.allAssets (32)</text>
<polyline fill="none" stroke="black" points="66.41,-846.5 1197.38,-846.5 "/>
<text text-anchor="middle" x="631.65" y="-829.9" font-family="Courier New" font-size="14.00">mapping(address=&gt;Strategy): VaultStorage.strategies (32)</text>
<polyline fill="none" stroke="black" points="66.41,-821.7 1197.38,-821.7 "/>
<text text-anchor="middle" x="631.84" y="-805.1" font-family="Courier New" font-size="14.00">address[]: VaultStorage.allStrategies (32)</text>
<polyline fill="none" stroke="black" points="66.41,-796.9 1197.38,-796.9 "/>
<text text-anchor="middle" x="141.62" y="-780.3" font-family="Courier New" font-size="14.00">unallocated (10)</text>
<polyline fill="none" stroke="black" points="216.83,-772.1 216.83,-796.9 "/>
<text text-anchor="middle" x="376.05" y="-780.3" font-family="Courier New" font-size="14.00">bool: VaultStorage.capitalPaused (1)</text>
<polyline fill="none" stroke="black" points="535.28,-772.1 535.28,-796.9 "/>
<text text-anchor="middle" x="690.3" y="-780.3" font-family="Courier New" font-size="14.00">bool: VaultStorage.rebasePaused (1)</text>
<polyline fill="none" stroke="black" points="845.33,-772.1 845.33,-796.9 "/>
<text text-anchor="middle" x="1021.35" y="-780.3" font-family="Courier New" font-size="14.00">address: VaultStorage.priceProvider (20)</text>
<polyline fill="none" stroke="black" points="66.41,-772.1 1197.38,-772.1 "/>
<text text-anchor="middle" x="631.73" y="-755.5" font-family="Courier New" font-size="14.00">uint256: VaultStorage.redeemFeeBps (32)</text>
<polyline fill="none" stroke="black" points="66.41,-747.3 1197.38,-747.3 "/>
<text text-anchor="middle" x="631.53" y="-730.7" font-family="Courier New" font-size="14.00">uint256: VaultStorage.vaultBuffer (32)</text>
<polyline fill="none" stroke="black" points="66.41,-722.5 1197.38,-722.5 "/>
<text text-anchor="middle" x="631.54" y="-705.9" font-family="Courier New" font-size="14.00">uint256: VaultStorage.autoAllocateThreshold (32)</text>
<polyline fill="none" stroke="black" points="66.41,-697.7 1197.38,-697.7 "/>
<text text-anchor="middle" x="631.84" y="-681.1" font-family="Courier New" font-size="14.00">uint256: VaultStorage.rebaseThreshold (32)</text>
<polyline fill="none" stroke="black" points="66.41,-672.9 1197.38,-672.9 "/>
<text text-anchor="middle" x="323.62" y="-656.3" font-family="Courier New" font-size="14.00">unallocated (12)</text>
<polyline fill="none" stroke="black" points="580.83,-648.1 580.83,-672.9 "/>
<text text-anchor="middle" x="888.95" y="-656.3" font-family="Courier New" font-size="14.00">OUSD: VaultStorage.oUSD (20)</text>
<polyline fill="none" stroke="black" points="66.41,-648.1 1197.38,-648.1 "/>
<text text-anchor="middle" x="269.12" y="-631.5" font-family="Courier New" font-size="14.00">unallocated (12)</text>
<polyline fill="none" stroke="black" points="471.83,-623.3 471.83,-648.1 "/>
<text text-anchor="middle" x="834.17" y="-631.5" font-family="Courier New" font-size="14.00">address: VaultStorage._deprecated_rebaseHooksAddr (20)</text>
<polyline fill="none" stroke="black" points="66.41,-623.3 1197.38,-623.3 "/>
<text text-anchor="middle" x="277.62" y="-606.7" font-family="Courier New" font-size="14.00">unallocated (12)</text>
<polyline fill="none" stroke="black" points="488.83,-598.5 488.83,-623.3 "/>
<text text-anchor="middle" x="842.86" y="-606.7" font-family="Courier New" font-size="14.00">address: VaultStorage._deprecated_uniswapAddr (20)</text>
<polyline fill="none" stroke="black" points="66.41,-598.5 1197.38,-598.5 "/>
<text text-anchor="middle" x="296.62" y="-581.9" font-family="Courier New" font-size="14.00">unallocated (12)</text>
<polyline fill="none" stroke="black" points="526.83,-573.7 526.83,-598.5 "/>
<text text-anchor="middle" x="862.06" y="-581.9" font-family="Courier New" font-size="14.00">address: VaultStorage.strategistAddr (20)</text>
<polyline fill="none" stroke="black" points="66.41,-573.7 1197.38,-573.7 "/>
<text text-anchor="middle" x="631.85" y="-557.1" font-family="Courier New" font-size="14.00">mapping(address=&gt;address): VaultStorage.assetDefaultStrategies (32)</text>
<polyline fill="none" stroke="black" points="66.41,-548.9 1197.38,-548.9 "/>
<text text-anchor="middle" x="631.44" y="-532.3" font-family="Courier New" font-size="14.00">uint256: VaultStorage.maxSupplyDiff (32)</text>
<polyline fill="none" stroke="black" points="66.41,-524.1 1197.38,-524.1 "/>
<text text-anchor="middle" x="296.62" y="-507.5" font-family="Courier New" font-size="14.00">unallocated (12)</text>
<polyline fill="none" stroke="black" points="526.83,-499.3 526.83,-524.1 "/>
<text text-anchor="middle" x="862.06" y="-507.5" font-family="Courier New" font-size="14.00">address: VaultStorage.trusteeAddress (20)</text>
<polyline fill="none" stroke="black" points="66.41,-499.3 1197.38,-499.3 "/>
<text text-anchor="middle" x="631.44" y="-482.7" font-family="Courier New" font-size="14.00">uint256: VaultStorage.trusteeFeeBps (32)</text>
<polyline fill="none" stroke="black" points="66.41,-474.5 1197.38,-474.5 "/>
<text text-anchor="middle" x="631.64" y="-457.9" font-family="Courier New" font-size="14.00">address[]: VaultStorage._deprecated_swapTokens (32)</text>
<polyline fill="none" stroke="black" points="66.41,-449.7 1197.38,-449.7 "/>
<text text-anchor="middle" x="292.12" y="-433.1" font-family="Courier New" font-size="14.00">unallocated (12)</text>
<polyline fill="none" stroke="black" points="517.83,-424.9 517.83,-449.7 "/>
<text text-anchor="middle" x="857.46" y="-433.1" font-family="Courier New" font-size="14.00">address: VaultStorage.ousdMetaStrategy (20)</text>
<polyline fill="none" stroke="black" points="66.41,-424.9 1197.38,-424.9 "/>
<text text-anchor="middle" x="631.44" y="-408.3" font-family="Courier New" font-size="14.00">int256: VaultStorage.netOusdMintedForStrategy (32)</text>
<polyline fill="none" stroke="black" points="66.41,-400.1 1197.38,-400.1 "/>
<text text-anchor="middle" x="631.55" y="-383.5" font-family="Courier New" font-size="14.00">uint256: VaultStorage.netOusdMintForStrategyThreshold (32)</text>
<polyline fill="none" stroke="black" points="66.41,-375.3 1197.38,-375.3 "/>
<text text-anchor="middle" x="631.44" y="-358.7" font-family="Courier New" font-size="14.00">SwapConfig: VaultStorage.swapConfig (32)</text>
<polyline fill="none" stroke="black" points="66.41,-350.5 1197.38,-350.5 "/>
<text text-anchor="middle" x="311.12" y="-333.9" font-family="Courier New" font-size="14.00">unallocated (12)</text>
<polyline fill="none" stroke="black" points="555.83,-325.7 555.83,-350.5 "/>
<text text-anchor="middle" x="876.15" y="-333.9" font-family="Courier New" font-size="14.00">address: VaultStorage.dripper (20)</text>
<polyline fill="none" stroke="black" points="66.41,-325.7 1197.38,-325.7 "/>
<text text-anchor="middle" x="631.65" y="-309.1" font-family="Courier New" font-size="14.00">WithdrawalQueueMetadata: VaultStorage.withdrawalQueueMetadata (64)</text>
<polyline fill="none" stroke="black" points="66.41,-300.9 1197.38,-300.9 "/>
<text text-anchor="middle" x="631.56" y="-284.3" font-family="Courier New" font-size="14.00">mapping(uint256=&gt;WithdrawalRequest): VaultStorage.withdrawalRequests (32)</text>
<polyline fill="none" stroke="black" points="66.41,-276.1 1197.38,-276.1 "/>
<text text-anchor="middle" x="631.53" y="-259.5" font-family="Courier New" font-size="14.00">uint256[46]: VaultStorage.__gap (1472)</text>
</g>
<!-- 1 -->
<g id="node2" class="node">
<title>1</title>
<polygon fill="#f2f2f2" stroke="black" points="1233.38,-969.1 1233.38,-1043.5 2438.36,-1043.5 2438.36,-969.1 1233.38,-969.1"/>
<text text-anchor="middle" x="1835.87" y="-1026.9" font-family="Courier New" font-size="14.00">Asset &lt;&lt;Struct&gt;&gt;</text>
<polyline fill="none" stroke="black" points="1233.38,-1018.7 2438.36,-1018.7 "/>
<text text-anchor="middle" x="1266.59" y="-1002.1" font-family="Courier New" font-size="14.00">offset</text>
<polyline fill="none" stroke="black" points="1233.38,-993.9 1299.79,-993.9 "/>
<text text-anchor="middle" x="1266.59" y="-977.3" font-family="Courier New" font-size="14.00">0</text>
<polyline fill="none" stroke="black" points="1299.79,-969.1 1299.79,-1018.7 "/>
<text text-anchor="middle" x="1869.08" y="-1002.1" font-family="Courier New" font-size="14.00">type: variable (bytes)</text>
<polyline fill="none" stroke="black" points="1299.79,-993.9 2438.36,-993.9 "/>
<text text-anchor="middle" x="1375" y="-977.3" font-family="Courier New" font-size="14.00">unallocated (27)</text>
<polyline fill="none" stroke="black" points="1450.21,-969.1 1450.21,-993.9 "/>
<text text-anchor="middle" x="1609.44" y="-977.3" font-family="Courier New" font-size="14.00">uint16: allowedOracleSlippageBps (2)</text>
<polyline fill="none" stroke="black" points="1768.66,-969.1 1768.66,-993.9 "/>
<text text-anchor="middle" x="1856.47" y="-977.3" font-family="Courier New" font-size="14.00">uint8: decimals (1)</text>
<polyline fill="none" stroke="black" points="1944.29,-969.1 1944.29,-993.9 "/>
<text text-anchor="middle" x="2095.11" y="-977.3" font-family="Courier New" font-size="14.00">UnitConversion: unitConversion (1)</text>
<polyline fill="none" stroke="black" points="2245.93,-969.1 2245.93,-993.9 "/>
<text text-anchor="middle" x="2342.15" y="-977.3" font-family="Courier New" font-size="14.00">bool: isSupported (1)</text>
</g>
<!-- 9&#45;&gt;1 -->
<g id="edge1" class="edge">
<title>9:8&#45;&gt;1</title>
<path fill="none" stroke="black" d="M1197.38,-883.3C1234.76,-883.3 1202.6,-938.1 1233.38,-959.3 1235.35,-960.66 1237.34,-962 1239.33,-963.31"/>
<polygon fill="black" stroke="black" points="1237.85,-966.52 1248.16,-968.96 1241.62,-960.62 1237.85,-966.52"/>
</g>
<!-- 2 -->
<g id="node3" class="node">
<title>2</title>
<polygon fill="#f2f2f2" stroke="black" points="1550.63,-858.7 1550.63,-949.9 2121.12,-949.9 2121.12,-858.7 1550.63,-858.7"/>
<text text-anchor="middle" x="1835.87" y="-933.3" font-family="Courier New" font-size="14.00">address[]: allAssets &lt;&lt;Array&gt;&gt;</text>
<text text-anchor="middle" x="1835.87" y="-916.5" font-family="Courier New" font-size="14.00">0x46bddb1178e94d7f2892ff5f366840eb658911794f2c3a44c450aa2c505186c1</text>
<polyline fill="none" stroke="black" points="1550.63,-908.3 2121.12,-908.3 "/>
<text text-anchor="middle" x="1642.83" y="-891.7" font-family="Courier New" font-size="14.00">offset</text>
<polyline fill="none" stroke="black" points="1550.63,-883.5 1735.04,-883.5 "/>
<text text-anchor="middle" x="1642.83" y="-866.9" font-family="Courier New" font-size="14.00">0</text>
<polyline fill="none" stroke="black" points="1735.04,-858.7 1735.04,-908.3 "/>
<text text-anchor="middle" x="1927.65" y="-891.7" font-family="Courier New" font-size="14.00">type: variable (bytes)</text>
<polyline fill="none" stroke="black" points="1735.04,-883.5 2120.27,-883.5 "/>
<text text-anchor="middle" x="1839.75" y="-866.9" font-family="Courier New" font-size="14.00">unallocated (12)</text>
<polyline fill="none" stroke="black" points="1944.46,-858.7 1944.46,-883.5 "/>
<text text-anchor="middle" x="2032.37" y="-866.9" font-family="Courier New" font-size="14.00">address (20)</text>
</g>
<!-- 9&#45;&gt;2 -->
<g id="edge2" class="edge">
<title>9:10&#45;&gt;2</title>
<path fill="none" stroke="black" d="M1197.38,-859.3C1309.55,-859.3 1432.54,-866.32 1540.31,-874.81"/>
<polygon fill="black" stroke="black" points="1540.11,-878.31 1550.36,-875.61 1540.67,-871.33 1540.11,-878.31"/>
</g>
<!-- 3 -->
<g id="node4" class="node">
<title>3</title>
<polygon fill="#f2f2f2" stroke="black" points="1631.24,-740.7 1631.24,-839.9 2040.5,-839.9 2040.5,-740.7 1631.24,-740.7"/>
<text text-anchor="middle" x="1835.87" y="-823.3" font-family="Courier New" font-size="14.00">Strategy &lt;&lt;Struct&gt;&gt;</text>
<polyline fill="none" stroke="black" points="1631.24,-815.1 2040.5,-815.1 "/>
<text text-anchor="middle" x="1664.45" y="-798.5" font-family="Courier New" font-size="14.00">offset</text>
<polyline fill="none" stroke="black" points="1631.24,-790.3 1697.65,-790.3 "/>
<text text-anchor="middle" x="1664.45" y="-773.7" font-family="Courier New" font-size="14.00">0</text>
<polyline fill="none" stroke="black" points="1631.24,-765.5 1697.65,-765.5 "/>
<text text-anchor="middle" x="1664.45" y="-748.9" font-family="Courier New" font-size="14.00">1</text>
<polyline fill="none" stroke="black" points="1697.65,-740.7 1697.65,-815.1 "/>
<text text-anchor="middle" x="1869.08" y="-798.5" font-family="Courier New" font-size="14.00">type: variable (bytes)</text>
<polyline fill="none" stroke="black" points="1697.65,-790.3 2040.5,-790.3 "/>
<text text-anchor="middle" x="1772.86" y="-773.7" font-family="Courier New" font-size="14.00">unallocated (31)</text>
<polyline fill="none" stroke="black" points="1848.07,-765.5 1848.07,-790.3 "/>
<text text-anchor="middle" x="1944.29" y="-773.7" font-family="Courier New" font-size="14.00">bool: isSupported (1)</text>
<polyline fill="none" stroke="black" points="1697.65,-765.5 2040.5,-765.5 "/>
<text text-anchor="middle" x="1868.67" y="-748.9" font-family="Courier New" font-size="14.00">uint256: _deprecated (32)</text>
</g>
<!-- 9&#45;&gt;3 -->
<g id="edge3" class="edge">
<title>9:13&#45;&gt;3</title>
<path fill="none" stroke="black" d="M1197.38,-834.3C1338.74,-834.3 1497.32,-823.4 1620.95,-812.45"/>
<polygon fill="black" stroke="black" points="1621.27,-815.93 1630.92,-811.56 1620.65,-808.96 1621.27,-815.93"/>
</g>
<!-- 4 -->
<g id="node5" class="node">
<title>4</title>
<polygon fill="#f2f2f2" stroke="black" points="1550.63,-630.7 1550.63,-721.9 2121.12,-721.9 2121.12,-630.7 1550.63,-630.7"/>
<text text-anchor="middle" x="1835.87" y="-705.3" font-family="Courier New" font-size="14.00">address[]: allStrategies &lt;&lt;Array&gt;&gt;</text>
<text text-anchor="middle" x="1835.87" y="-688.5" font-family="Courier New" font-size="14.00">0x4a11f94e20a93c79f6ec743a1954ec4fc2c08429ae2122118bf234b2185c81b8</text>
<polyline fill="none" stroke="black" points="1550.63,-680.3 2121.12,-680.3 "/>
<text text-anchor="middle" x="1642.83" y="-663.7" font-family="Courier New" font-size="14.00">offset</text>
<polyline fill="none" stroke="black" points="1550.63,-655.5 1735.04,-655.5 "/>
<text text-anchor="middle" x="1642.83" y="-638.9" font-family="Courier New" font-size="14.00">0</text>
<polyline fill="none" stroke="black" points="1735.04,-630.7 1735.04,-680.3 "/>
<text text-anchor="middle" x="1927.65" y="-663.7" font-family="Courier New" font-size="14.00">type: variable (bytes)</text>
<polyline fill="none" stroke="black" points="1735.04,-655.5 2120.27,-655.5 "/>
<text text-anchor="middle" x="1839.75" y="-638.9" font-family="Courier New" font-size="14.00">unallocated (12)</text>
<polyline fill="none" stroke="black" points="1944.46,-630.7 1944.46,-655.5 "/>
<text text-anchor="middle" x="2032.37" y="-638.9" font-family="Courier New" font-size="14.00">address (20)</text>
</g>
<!-- 9&#45;&gt;4 -->
<g id="edge4" class="edge">
<title>9:15&#45;&gt;4</title>
<path fill="none" stroke="black" d="M1197.38,-809.3C1235.56,-809.3 1202.19,-753.32 1233.38,-731.3 1321.24,-669.27 1435.25,-648.11 1540.35,-645.04"/>
<polygon fill="black" stroke="black" points="1540.58,-648.53 1550.49,-644.79 1540.41,-641.53 1540.58,-648.53"/>
</g>
<!-- 5 -->
<g id="node6" class="node">
<title>5</title>
<polygon fill="#f2f2f2" stroke="black" points="1497.22,-429.1 1497.22,-503.5 2174.52,-503.5 2174.52,-429.1 1497.22,-429.1"/>
<text text-anchor="middle" x="1835.87" y="-486.9" font-family="Courier New" font-size="14.00">SwapConfig &lt;&lt;Struct&gt;&gt;</text>
<polyline fill="none" stroke="black" points="1497.22,-478.7 2174.52,-478.7 "/>
<text text-anchor="middle" x="1522.02" y="-462.1" font-family="Courier New" font-size="14.00">slot</text>
<polyline fill="none" stroke="black" points="1497.22,-453.9 1546.83,-453.9 "/>
<text text-anchor="middle" x="1522.02" y="-437.3" font-family="Courier New" font-size="14.00">72</text>
<polyline fill="none" stroke="black" points="1546.83,-429.1 1546.83,-478.7 "/>
<text text-anchor="middle" x="1860.67" y="-462.1" font-family="Courier New" font-size="14.00">type: variable (bytes)</text>
<polyline fill="none" stroke="black" points="1546.83,-453.9 2174.52,-453.9 "/>
<text text-anchor="middle" x="1622.04" y="-437.3" font-family="Courier New" font-size="14.00">unallocated (10)</text>
<polyline fill="none" stroke="black" points="1697.25,-429.1 1697.25,-453.9 "/>
<text text-anchor="middle" x="1839.67" y="-437.3" font-family="Courier New" font-size="14.00">uint16: allowedUndervalueBps (2)</text>
<polyline fill="none" stroke="black" points="1982.09,-429.1 1982.09,-453.9 "/>
<text text-anchor="middle" x="2078.31" y="-437.3" font-family="Courier New" font-size="14.00">address: swapper (20)</text>
</g>
<!-- 9&#45;&gt;5 -->
<g id="edge5" class="edge">
<title>9:37&#45;&gt;5</title>
<path fill="none" stroke="black" d="M1197.38,-363.3C1226.97,-363.3 1207.98,-404.12 1233.38,-419.3 1308.7,-464.32 1399.13,-484.9 1486.72,-492.23"/>
<polygon fill="black" stroke="black" points="1486.6,-495.73 1496.84,-493.02 1487.14,-488.75 1486.6,-495.73"/>
</g>
<!-- 6 -->
<g id="node7" class="node">
<title>6</title>
<polygon fill="#f2f2f2" stroke="black" points="1568.23,-310.7 1568.23,-409.9 2103.51,-409.9 2103.51,-310.7 1568.23,-310.7"/>
<text text-anchor="middle" x="1835.87" y="-393.3" font-family="Courier New" font-size="14.00">WithdrawalQueueMetadata &lt;&lt;Struct&gt;&gt;</text>
<polyline fill="none" stroke="black" points="1568.23,-385.1 2103.51,-385.1 "/>
<text text-anchor="middle" x="1593.04" y="-368.5" font-family="Courier New" font-size="14.00">slot</text>
<polyline fill="none" stroke="black" points="1568.23,-360.3 1617.84,-360.3 "/>
<text text-anchor="middle" x="1593.04" y="-343.7" font-family="Courier New" font-size="14.00">74</text>
<polyline fill="none" stroke="black" points="1568.23,-335.5 1617.84,-335.5 "/>
<text text-anchor="middle" x="1593.04" y="-318.9" font-family="Courier New" font-size="14.00">75</text>
<polyline fill="none" stroke="black" points="1617.84,-310.7 1617.84,-385.1 "/>
<text text-anchor="middle" x="1860.67" y="-368.5" font-family="Courier New" font-size="14.00">type: variable (bytes)</text>
<polyline fill="none" stroke="black" points="1617.84,-360.3 2103.51,-360.3 "/>
<text text-anchor="middle" x="1745.45" y="-343.7" font-family="Courier New" font-size="14.00">uint128: claimable (16)</text>
<polyline fill="none" stroke="black" points="1873.07,-335.5 1873.07,-360.3 "/>
<text text-anchor="middle" x="1988.08" y="-343.7" font-family="Courier New" font-size="14.00">uint128: queued (16)</text>
<polyline fill="none" stroke="black" points="1617.84,-335.5 2103.51,-335.5 "/>
<text text-anchor="middle" x="1764.46" y="-318.9" font-family="Courier New" font-size="14.00">uint128: nextWithdrawalIndex (16)</text>
<polyline fill="none" stroke="black" points="1911.08,-310.7 1911.08,-335.5 "/>
<text text-anchor="middle" x="2007.3" y="-318.9" font-family="Courier New" font-size="14.00">uint128: claimed (16)</text>
</g>
<!-- 9&#45;&gt;6 -->
<g id="edge6" class="edge">
<title>9:43&#45;&gt;6</title>
<path fill="none" stroke="black" d="M1197.38,-313.3C1315.74,-313.3 1446.13,-321.46 1557.99,-330.98"/>
<polygon fill="black" stroke="black" points="1557.8,-334.47 1568.06,-331.84 1558.4,-327.5 1557.8,-334.47"/>
</g>
<!-- 7 -->
<g id="node8" class="node">
<title>7</title>
<polygon fill="#f2f2f2" stroke="black" points="1539.23,-192.7 1539.23,-291.9 2132.52,-291.9 2132.52,-192.7 1539.23,-192.7"/>
<text text-anchor="middle" x="1835.87" y="-275.3" font-family="Courier New" font-size="14.00">WithdrawalRequest &lt;&lt;Struct&gt;&gt;</text>
<polyline fill="none" stroke="black" points="1539.23,-267.1 2132.52,-267.1 "/>
<text text-anchor="middle" x="1572.43" y="-250.5" font-family="Courier New" font-size="14.00">offset</text>
<polyline fill="none" stroke="black" points="1539.23,-242.3 1605.64,-242.3 "/>
<text text-anchor="middle" x="1572.43" y="-225.7" font-family="Courier New" font-size="14.00">0</text>
<polyline fill="none" stroke="black" points="1539.23,-217.5 1605.64,-217.5 "/>
<text text-anchor="middle" x="1572.43" y="-200.9" font-family="Courier New" font-size="14.00">1</text>
<polyline fill="none" stroke="black" points="1605.64,-192.7 1605.64,-267.1 "/>
<text text-anchor="middle" x="1869.08" y="-250.5" font-family="Courier New" font-size="14.00">type: variable (bytes)</text>
<polyline fill="none" stroke="black" points="1605.64,-242.3 2132.52,-242.3 "/>
<text text-anchor="middle" x="1680.85" y="-225.7" font-family="Courier New" font-size="14.00">unallocated (11)</text>
<polyline fill="none" stroke="black" points="1756.06,-217.5 1756.06,-242.3 "/>
<text text-anchor="middle" x="1835.47" y="-225.7" font-family="Courier New" font-size="14.00">bool: claimed (1)</text>
<polyline fill="none" stroke="black" points="1914.88,-217.5 1914.88,-242.3 "/>
<text text-anchor="middle" x="2023.7" y="-225.7" font-family="Courier New" font-size="14.00">address: withdrawer (20)</text>
<polyline fill="none" stroke="black" points="1605.64,-217.5 2132.52,-217.5 "/>
<text text-anchor="middle" x="1737.15" y="-200.9" font-family="Courier New" font-size="14.00">uint128: queued (16)</text>
<polyline fill="none" stroke="black" points="1868.66,-192.7 1868.66,-217.5 "/>
<text text-anchor="middle" x="2000.18" y="-200.9" font-family="Courier New" font-size="14.00">uint128: amount (16)</text>
</g>
<!-- 9&#45;&gt;7 -->
<g id="edge7" class="edge">
<title>9:48&#45;&gt;7</title>
<path fill="none" stroke="black" d="M1197.38,-288.3C1305.68,-288.3 1424.07,-281.61 1529.1,-273.34"/>
<polygon fill="black" stroke="black" points="1529.53,-276.82 1539.22,-272.53 1528.98,-269.84 1529.53,-276.82"/>
</g>
<!-- 8 -->
<g id="node9" class="node">
<title>8</title>
<polygon fill="#f2f2f2" stroke="black" points="1702.25,-0.5 1702.25,-174.1 1969.49,-174.1 1969.49,-0.5 1702.25,-0.5"/>
<text text-anchor="middle" x="1835.87" y="-157.5" font-family="Courier New" font-size="14.00">uint256[46]: __gap &lt;&lt;Array&gt;&gt;</text>
<polyline fill="none" stroke="black" points="1702.25,-149.3 1969.49,-149.3 "/>
<text text-anchor="middle" x="1735.46" y="-132.7" font-family="Courier New" font-size="14.00">slot</text>
<polyline fill="none" stroke="black" points="1702.25,-124.5 1768.66,-124.5 "/>
<text text-anchor="middle" x="1735.46" y="-107.9" font-family="Courier New" font-size="14.00">77</text>
<polyline fill="none" stroke="black" points="1702.25,-99.7 1768.66,-99.7 "/>
<text text-anchor="middle" x="1735.46" y="-83.1" font-family="Courier New" font-size="14.00">78</text>
<polyline fill="none" stroke="black" points="1702.25,-74.9 1768.66,-74.9 "/>
<text text-anchor="middle" x="1735.46" y="-58.3" font-family="Courier New" font-size="14.00">79&#45;120</text>
<polyline fill="none" stroke="black" points="1702.25,-50.1 1768.66,-50.1 "/>
<text text-anchor="middle" x="1735.46" y="-33.5" font-family="Courier New" font-size="14.00">121</text>
<polyline fill="none" stroke="black" points="1702.25,-25.3 1768.66,-25.3 "/>
<text text-anchor="middle" x="1735.46" y="-8.7" font-family="Courier New" font-size="14.00">122</text>
<polyline fill="none" stroke="black" points="1768.66,-0.5 1768.66,-149.3 "/>
<text text-anchor="middle" x="1869.08" y="-132.7" font-family="Courier New" font-size="14.00">type: variable (bytes)</text>
<polyline fill="none" stroke="black" points="1768.66,-124.5 1969.49,-124.5 "/>
<text text-anchor="middle" x="1869.07" y="-107.9" font-family="Courier New" font-size="14.00">uint256 (32)</text>
<polyline fill="none" stroke="black" points="1768.66,-99.7 1969.49,-99.7 "/>
<text text-anchor="middle" x="1869.07" y="-83.1" font-family="Courier New" font-size="14.00">uint256 (32)</text>
<polyline fill="none" stroke="black" points="1768.66,-74.9 1969.49,-74.9 "/>
<text text-anchor="middle" x="1868.87" y="-58.3" font-family="Courier New" font-size="14.00">&#45;&#45;&#45;&#45; (1344)</text>
<polyline fill="none" stroke="black" points="1768.66,-50.1 1969.49,-50.1 "/>
<text text-anchor="middle" x="1869.07" y="-33.5" font-family="Courier New" font-size="14.00">uint256 (32)</text>
<polyline fill="none" stroke="black" points="1768.66,-25.3 1969.49,-25.3 "/>
<text text-anchor="middle" x="1869.07" y="-8.7" font-family="Courier New" font-size="14.00">uint256 (32)</text>
</g>
<!-- 9&#45;&gt;8 -->
<g id="edge8" class="edge">
<title>9:54&#45;&gt;8</title>
<path fill="none" stroke="black" d="M1197.38,-263.3C1236.37,-263.3 1202.42,-206.99 1233.38,-183.3 1364.65,-82.86 1559.85,-69.28 1691.98,-73.94"/>
<polygon fill="black" stroke="black" points="1692.04,-77.45 1702.17,-74.34 1692.32,-70.45 1692.04,-77.45"/>
</g>
</g>
</svg>
