<?xml version="1.0" encoding="UTF-8" standalone="no"?>
<!DOCTYPE svg PUBLIC "-//W3C//DTD SVG 1.1//EN"
 "http://www.w3.org/Graphics/SVG/1.1/DTD/svg11.dtd">
<!-- Generated by graphviz version 5.0.0 (20220707.1540)
 -->
<!-- Title: StorageDiagram Pages: 1 -->
<svg width="2446pt" height="871pt"
 viewBox="0.00 0.00 2446.36 871.00" xmlns="http://www.w3.org/2000/svg" xmlns:xlink="http://www.w3.org/1999/xlink">
<g id="graph0" class="graph" transform="scale(1 1) rotate(0) translate(4 867)">
<title>StorageDiagram</title>
<polygon fill="white" stroke="transparent" points="-4,4 -4,-867 2442.36,-867 2442.36,4 -4,4"/>
<!-- 7 -->
<g id="node1" class="node">
<title>7</title>
<polygon fill="#f2f2f2" stroke="black" points="0,-121.1 0,-815.5 1197.38,-815.5 1197.38,-121.1 0,-121.1"/>
<text text-anchor="middle" x="598.69" y="-798.9" font-family="Courier New" font-size="14.00">VaultCore &lt;&lt;Contract&gt;&gt;</text>
<polyline fill="none" stroke="black" points="0,-790.7 1197.38,-790.7 "/>
<text text-anchor="middle" x="33.2" y="-774.1" font-family="Courier New" font-size="14.00">slot</text>
<polyline fill="none" stroke="black" points="0,-765.9 66.41,-765.9 "/>
<text text-anchor="middle" x="33.2" y="-749.3" font-family="Courier New" font-size="14.00">0</text>
<polyline fill="none" stroke="black" points="0,-741.1 66.41,-741.1 "/>
<text text-anchor="middle" x="33.2" y="-724.5" font-family="Courier New" font-size="14.00">1&#45;50</text>
<polyline fill="none" stroke="black" points="0,-716.3 66.41,-716.3 "/>
<text text-anchor="middle" x="33.2" y="-699.7" font-family="Courier New" font-size="14.00">51</text>
<polyline fill="none" stroke="black" points="0,-691.5 66.41,-691.5 "/>
<text text-anchor="middle" x="33.2" y="-674.9" font-family="Courier New" font-size="14.00">52</text>
<polyline fill="none" stroke="black" points="0,-666.7 66.41,-666.7 "/>
<text text-anchor="middle" x="33.2" y="-650.1" font-family="Courier New" font-size="14.00">53</text>
<polyline fill="none" stroke="black" points="0,-641.9 66.41,-641.9 "/>
<text text-anchor="middle" x="33.2" y="-625.3" font-family="Courier New" font-size="14.00">54</text>
<polyline fill="none" stroke="black" points="0,-617.1 66.41,-617.1 "/>
<text text-anchor="middle" x="33.2" y="-600.5" font-family="Courier New" font-size="14.00">55</text>
<polyline fill="none" stroke="black" points="0,-592.3 66.41,-592.3 "/>
<text text-anchor="middle" x="33.2" y="-575.7" font-family="Courier New" font-size="14.00">56</text>
<polyline fill="none" stroke="black" points="0,-567.5 66.41,-567.5 "/>
<text text-anchor="middle" x="33.2" y="-550.9" font-family="Courier New" font-size="14.00">57</text>
<polyline fill="none" stroke="black" points="0,-542.7 66.41,-542.7 "/>
<text text-anchor="middle" x="33.2" y="-526.1" font-family="Courier New" font-size="14.00">58</text>
<polyline fill="none" stroke="black" points="0,-517.9 66.41,-517.9 "/>
<text text-anchor="middle" x="33.2" y="-501.3" font-family="Courier New" font-size="14.00">59</text>
<polyline fill="none" stroke="black" points="0,-493.1 66.41,-493.1 "/>
<text text-anchor="middle" x="33.2" y="-476.5" font-family="Courier New" font-size="14.00">60</text>
<polyline fill="none" stroke="black" points="0,-468.3 66.41,-468.3 "/>
<text text-anchor="middle" x="33.2" y="-451.7" font-family="Courier New" font-size="14.00">61</text>
<polyline fill="none" stroke="black" points="0,-443.5 66.41,-443.5 "/>
<text text-anchor="middle" x="33.2" y="-426.9" font-family="Courier New" font-size="14.00">62</text>
<polyline fill="none" stroke="black" points="0,-418.7 66.41,-418.7 "/>
<text text-anchor="middle" x="33.2" y="-402.1" font-family="Courier New" font-size="14.00">63</text>
<polyline fill="none" stroke="black" points="0,-393.9 66.41,-393.9 "/>
<text text-anchor="middle" x="33.2" y="-377.3" font-family="Courier New" font-size="14.00">64</text>
<polyline fill="none" stroke="black" points="0,-369.1 66.41,-369.1 "/>
<text text-anchor="middle" x="33.2" y="-352.5" font-family="Courier New" font-size="14.00">65</text>
<polyline fill="none" stroke="black" points="0,-344.3 66.41,-344.3 "/>
<text text-anchor="middle" x="33.2" y="-327.7" font-family="Courier New" font-size="14.00">66</text>
<polyline fill="none" stroke="black" points="0,-319.5 66.41,-319.5 "/>
<text text-anchor="middle" x="33.2" y="-302.9" font-family="Courier New" font-size="14.00">67</text>
<polyline fill="none" stroke="black" points="0,-294.7 66.41,-294.7 "/>
<text text-anchor="middle" x="33.2" y="-278.1" font-family="Courier New" font-size="14.00">68</text>
<polyline fill="none" stroke="black" points="0,-269.9 66.41,-269.9 "/>
<text text-anchor="middle" x="33.2" y="-253.3" font-family="Courier New" font-size="14.00">69</text>
<polyline fill="none" stroke="black" points="0,-245.1 66.41,-245.1 "/>
<text text-anchor="middle" x="33.2" y="-228.5" font-family="Courier New" font-size="14.00">70</text>
<polyline fill="none" stroke="black" points="0,-220.3 66.41,-220.3 "/>
<text text-anchor="middle" x="33.2" y="-203.7" font-family="Courier New" font-size="14.00">71</text>
<polyline fill="none" stroke="black" points="0,-195.5 66.41,-195.5 "/>
<text text-anchor="middle" x="33.2" y="-178.9" font-family="Courier New" font-size="14.00">72</text>
<polyline fill="none" stroke="black" points="0,-170.7 66.41,-170.7 "/>
<text text-anchor="middle" x="33.2" y="-154.1" font-family="Courier New" font-size="14.00">73</text>
<polyline fill="none" stroke="black" points="0,-145.9 66.41,-145.9 "/>
<text text-anchor="middle" x="33.2" y="-129.3" font-family="Courier New" font-size="14.00">74&#45;122</text>
<polyline fill="none" stroke="black" points="66.41,-121.1 66.41,-790.7 "/>
<text text-anchor="middle" x="631.9" y="-774.1" font-family="Courier New" font-size="14.00">type: &lt;inherited contract&gt;.variable (bytes)</text>
<polyline fill="none" stroke="black" points="66.41,-765.9 1197.38,-765.9 "/>
<text text-anchor="middle" x="200.12" y="-749.3" font-family="Courier New" font-size="14.00">unallocated (30)</text>
<polyline fill="none" stroke="black" points="333.83,-741.1 333.83,-765.9 "/>
<text text-anchor="middle" x="551.55" y="-749.3" font-family="Courier New" font-size="14.00">bool: Initializable.initializing (1)</text>
<polyline fill="none" stroke="black" points="769.28,-741.1 769.28,-765.9 "/>
<text text-anchor="middle" x="983.3" y="-749.3" font-family="Courier New" font-size="14.00">bool: Initializable.initialized (1)</text>
<polyline fill="none" stroke="black" points="66.41,-741.1 1197.38,-741.1 "/>
<text text-anchor="middle" x="631.54" y="-724.5" font-family="Courier New" font-size="14.00">uint256[50]: Initializable.______gap (1600)</text>
<polyline fill="none" stroke="black" points="66.41,-716.3 1197.38,-716.3 "/>
<text text-anchor="middle" x="631.74" y="-699.7" font-family="Courier New" font-size="14.00">mapping(address=&gt;Asset): VaultStorage.assets (32)</text>
<polyline fill="none" stroke="black" points="66.41,-691.5 1197.38,-691.5 "/>
<text text-anchor="middle" x="631.53" y="-674.9" font-family="Courier New" font-size="14.00">address[]: VaultStorage.allAssets (32)</text>
<polyline fill="none" stroke="black" points="66.41,-666.7 1197.38,-666.7 "/>
<text text-anchor="middle" x="631.65" y="-650.1" font-family="Courier New" font-size="14.00">mapping(address=&gt;Strategy): VaultStorage.strategies (32)</text>
<polyline fill="none" stroke="black" points="66.41,-641.9 1197.38,-641.9 "/>
<text text-anchor="middle" x="631.84" y="-625.3" font-family="Courier New" font-size="14.00">address[]: VaultStorage.allStrategies (32)</text>
<polyline fill="none" stroke="black" points="66.41,-617.1 1197.38,-617.1 "/>
<text text-anchor="middle" x="141.62" y="-600.5" font-family="Courier New" font-size="14.00">unallocated (10)</text>
<polyline fill="none" stroke="black" points="216.83,-592.3 216.83,-617.1 "/>
<text text-anchor="middle" x="376.05" y="-600.5" font-family="Courier New" font-size="14.00">bool: VaultStorage.capitalPaused (1)</text>
<polyline fill="none" stroke="black" points="535.28,-592.3 535.28,-617.1 "/>
<text text-anchor="middle" x="690.3" y="-600.5" font-family="Courier New" font-size="14.00">bool: VaultStorage.rebasePaused (1)</text>
<polyline fill="none" stroke="black" points="845.33,-592.3 845.33,-617.1 "/>
<text text-anchor="middle" x="1021.35" y="-600.5" font-family="Courier New" font-size="14.00">address: VaultStorage.priceProvider (20)</text>
<polyline fill="none" stroke="black" points="66.41,-592.3 1197.38,-592.3 "/>
<text text-anchor="middle" x="631.73" y="-575.7" font-family="Courier New" font-size="14.00">uint256: VaultStorage.redeemFeeBps (32)</text>
<polyline fill="none" stroke="black" points="66.41,-567.5 1197.38,-567.5 "/>
<text text-anchor="middle" x="631.53" y="-550.9" font-family="Courier New" font-size="14.00">uint256: VaultStorage.vaultBuffer (32)</text>
<polyline fill="none" stroke="black" points="66.41,-542.7 1197.38,-542.7 "/>
<text text-anchor="middle" x="631.54" y="-526.1" font-family="Courier New" font-size="14.00">uint256: VaultStorage.autoAllocateThreshold (32)</text>
<polyline fill="none" stroke="black" points="66.41,-517.9 1197.38,-517.9 "/>
<text text-anchor="middle" x="631.84" y="-501.3" font-family="Courier New" font-size="14.00">uint256: VaultStorage.rebaseThreshold (32)</text>
<polyline fill="none" stroke="black" points="66.41,-493.1 1197.38,-493.1 "/>
<text text-anchor="middle" x="323.62" y="-476.5" font-family="Courier New" font-size="14.00">unallocated (12)</text>
<polyline fill="none" stroke="black" points="580.83,-468.3 580.83,-493.1 "/>
<text text-anchor="middle" x="888.95" y="-476.5" font-family="Courier New" font-size="14.00">OUSD: VaultStorage.oUSD (20)</text>
<polyline fill="none" stroke="black" points="66.41,-468.3 1197.38,-468.3 "/>
<text text-anchor="middle" x="269.12" y="-451.7" font-family="Courier New" font-size="14.00">unallocated (12)</text>
<polyline fill="none" stroke="black" points="471.83,-443.5 471.83,-468.3 "/>
<text text-anchor="middle" x="834.17" y="-451.7" font-family="Courier New" font-size="14.00">address: VaultStorage._deprecated_rebaseHooksAddr (20)</text>
<polyline fill="none" stroke="black" points="66.41,-443.5 1197.38,-443.5 "/>
<text text-anchor="middle" x="277.62" y="-426.9" font-family="Courier New" font-size="14.00">unallocated (12)</text>
<polyline fill="none" stroke="black" points="488.83,-418.7 488.83,-443.5 "/>
<text text-anchor="middle" x="842.86" y="-426.9" font-family="Courier New" font-size="14.00">address: VaultStorage._deprecated_uniswapAddr (20)</text>
<polyline fill="none" stroke="black" points="66.41,-418.7 1197.38,-418.7 "/>
<text text-anchor="middle" x="296.62" y="-402.1" font-family="Courier New" font-size="14.00">unallocated (12)</text>
<polyline fill="none" stroke="black" points="526.83,-393.9 526.83,-418.7 "/>
<text text-anchor="middle" x="862.06" y="-402.1" font-family="Courier New" font-size="14.00">address: VaultStorage.strategistAddr (20)</text>
<polyline fill="none" stroke="black" points="66.41,-393.9 1197.38,-393.9 "/>
<text text-anchor="middle" x="631.85" y="-377.3" font-family="Courier New" font-size="14.00">mapping(address=&gt;address): VaultStorage.assetDefaultStrategies (32)</text>
<polyline fill="none" stroke="black" points="66.41,-369.1 1197.38,-369.1 "/>
<text text-anchor="middle" x="631.44" y="-352.5" font-family="Courier New" font-size="14.00">uint256: VaultStorage.maxSupplyDiff (32)</text>
<polyline fill="none" stroke="black" points="66.41,-344.3 1197.38,-344.3 "/>
<text text-anchor="middle" x="296.62" y="-327.7" font-family="Courier New" font-size="14.00">unallocated (12)</text>
<polyline fill="none" stroke="black" points="526.83,-319.5 526.83,-344.3 "/>
<text text-anchor="middle" x="862.06" y="-327.7" font-family="Courier New" font-size="14.00">address: VaultStorage.trusteeAddress (20)</text>
<polyline fill="none" stroke="black" points="66.41,-319.5 1197.38,-319.5 "/>
<text text-anchor="middle" x="631.44" y="-302.9" font-family="Courier New" font-size="14.00">uint256: VaultStorage.trusteeFeeBps (32)</text>
<polyline fill="none" stroke="black" points="66.41,-294.7 1197.38,-294.7 "/>
<text text-anchor="middle" x="631.64" y="-278.1" font-family="Courier New" font-size="14.00">address[]: VaultStorage._deprecated_swapTokens (32)</text>
<polyline fill="none" stroke="black" points="66.41,-269.9 1197.38,-269.9 "/>
<text text-anchor="middle" x="292.12" y="-253.3" font-family="Courier New" font-size="14.00">unallocated (12)</text>
<polyline fill="none" stroke="black" points="517.83,-245.1 517.83,-269.9 "/>
<text text-anchor="middle" x="857.46" y="-253.3" font-family="Courier New" font-size="14.00">address: VaultStorage.ousdMetaStrategy (20)</text>
<polyline fill="none" stroke="black" points="66.41,-245.1 1197.38,-245.1 "/>
<text text-anchor="middle" x="631.44" y="-228.5" font-family="Courier New" font-size="14.00">int256: VaultStorage.netOusdMintedForStrategy (32)</text>
<polyline fill="none" stroke="black" points="66.41,-220.3 1197.38,-220.3 "/>
<text text-anchor="middle" x="631.55" y="-203.7" font-family="Courier New" font-size="14.00">uint256: VaultStorage.netOusdMintForStrategyThreshold (32)</text>
<polyline fill="none" stroke="black" points="66.41,-195.5 1197.38,-195.5 "/>
<text text-anchor="middle" x="631.44" y="-178.9" font-family="Courier New" font-size="14.00">SwapConfig: VaultStorage.swapConfig (32)</text>
<polyline fill="none" stroke="black" points="66.41,-170.7 1197.38,-170.7 "/>
<text text-anchor="middle" x="311.12" y="-154.1" font-family="Courier New" font-size="14.00">unallocated (12)</text>
<polyline fill="none" stroke="black" points="555.83,-145.9 555.83,-170.7 "/>
<text text-anchor="middle" x="876.15" y="-154.1" font-family="Courier New" font-size="14.00">address: VaultStorage.dripper (20)</text>
<polyline fill="none" stroke="black" points="66.41,-145.9 1197.38,-145.9 "/>
<text text-anchor="middle" x="631.53" y="-129.3" font-family="Courier New" font-size="14.00">uint256[49]: VaultStorage.__gap (1568)</text>
</g>
<!-- 1 -->
<g id="node2" class="node">
<title>1</title>
<polygon fill="#f2f2f2" stroke="black" points="1233.38,-788.1 1233.38,-862.5 2438.36,-862.5 2438.36,-788.1 1233.38,-788.1"/>
<text text-anchor="middle" x="1835.87" y="-845.9" font-family="Courier New" font-size="14.00">Asset &lt;&lt;Struct&gt;&gt;</text>
<polyline fill="none" stroke="black" points="1233.38,-837.7 2438.36,-837.7 "/>
<text text-anchor="middle" x="1266.59" y="-821.1" font-family="Courier New" font-size="14.00">offset</text>
<polyline fill="none" stroke="black" points="1233.38,-812.9 1299.79,-812.9 "/>
<text text-anchor="middle" x="1266.59" y="-796.3" font-family="Courier New" font-size="14.00">0</text>
<polyline fill="none" stroke="black" points="1299.79,-788.1 1299.79,-837.7 "/>
<text text-anchor="middle" x="1869.08" y="-821.1" font-family="Courier New" font-size="14.00">type: variable (bytes)</text>
<polyline fill="none" stroke="black" points="1299.79,-812.9 2438.36,-812.9 "/>
<text text-anchor="middle" x="1375" y="-796.3" font-family="Courier New" font-size="14.00">unallocated (27)</text>
<polyline fill="none" stroke="black" points="1450.21,-788.1 1450.21,-812.9 "/>
<text text-anchor="middle" x="1609.44" y="-796.3" font-family="Courier New" font-size="14.00">uint16: allowedOracleSlippageBps (2)</text>
<polyline fill="none" stroke="black" points="1768.66,-788.1 1768.66,-812.9 "/>
<text text-anchor="middle" x="1856.47" y="-796.3" font-family="Courier New" font-size="14.00">uint8: decimals (1)</text>
<polyline fill="none" stroke="black" points="1944.29,-788.1 1944.29,-812.9 "/>
<text text-anchor="middle" x="2095.11" y="-796.3" font-family="Courier New" font-size="14.00">UnitConversion: unitConversion (1)</text>
<polyline fill="none" stroke="black" points="2245.93,-788.1 2245.93,-812.9 "/>
<text text-anchor="middle" x="2342.15" y="-796.3" font-family="Courier New" font-size="14.00">bool: isSupported (1)</text>
</g>
<!-- 7&#45;&gt;1 -->
<g id="edge1" class="edge">
<title>7:8&#45;&gt;1</title>
<path fill="none" stroke="black" d="M1197.38,-704.3C1233.96,-704.3 1203.15,-757.71 1233.38,-778.3 1235.56,-779.78 1237.75,-781.24 1239.96,-782.68"/>
<polygon fill="black" stroke="black" points="1238.22,-785.72 1248.55,-788.09 1241.96,-779.8 1238.22,-785.72"/>
</g>
<!-- 2 -->
<g id="node3" class="node">
<title>2</title>
<polygon fill="#f2f2f2" stroke="black" points="1550.63,-677.7 1550.63,-768.9 2121.12,-768.9 2121.12,-677.7 1550.63,-677.7"/>
<text text-anchor="middle" x="1835.87" y="-752.3" font-family="Courier New" font-size="14.00">address[]: allAssets &lt;&lt;Array&gt;&gt;</text>
<text text-anchor="middle" x="1835.87" y="-735.5" font-family="Courier New" font-size="14.00">0x46bddb1178e94d7f2892ff5f366840eb658911794f2c3a44c450aa2c505186c1</text>
<polyline fill="none" stroke="black" points="1550.63,-727.3 2121.12,-727.3 "/>
<text text-anchor="middle" x="1642.83" y="-710.7" font-family="Courier New" font-size="14.00">offset</text>
<polyline fill="none" stroke="black" points="1550.63,-702.5 1735.04,-702.5 "/>
<text text-anchor="middle" x="1642.83" y="-685.9" font-family="Courier New" font-size="14.00">0</text>
<polyline fill="none" stroke="black" points="1735.04,-677.7 1735.04,-727.3 "/>
<text text-anchor="middle" x="1927.65" y="-710.7" font-family="Courier New" font-size="14.00">type: variable (bytes)</text>
<polyline fill="none" stroke="black" points="1735.04,-702.5 2120.27,-702.5 "/>
<text text-anchor="middle" x="1839.75" y="-685.9" font-family="Courier New" font-size="14.00">unallocated (12)</text>
<polyline fill="none" stroke="black" points="1944.46,-677.7 1944.46,-702.5 "/>
<text text-anchor="middle" x="2032.37" y="-685.9" font-family="Courier New" font-size="14.00">address (20)</text>
</g>
<!-- 7&#45;&gt;2 -->
<g id="edge2" class="edge">
<title>7:10&#45;&gt;2</title>
<path fill="none" stroke="black" d="M1197.38,-679.3C1309.53,-679.3 1432.52,-686.16 1540.3,-694.47"/>
<polygon fill="black" stroke="black" points="1540.11,-697.96 1550.35,-695.25 1540.65,-690.98 1540.11,-697.96"/>
</g>
<!-- 3 -->
<g id="node4" class="node">
<title>3</title>
<polygon fill="#f2f2f2" stroke="black" points="1631.24,-559.7 1631.24,-658.9 2040.5,-658.9 2040.5,-559.7 1631.24,-559.7"/>
<text text-anchor="middle" x="1835.87" y="-642.3" font-family="Courier New" font-size="14.00">Strategy &lt;&lt;Struct&gt;&gt;</text>
<polyline fill="none" stroke="black" points="1631.24,-634.1 2040.5,-634.1 "/>
<text text-anchor="middle" x="1664.45" y="-617.5" font-family="Courier New" font-size="14.00">offset</text>
<polyline fill="none" stroke="black" points="1631.24,-609.3 1697.65,-609.3 "/>
<text text-anchor="middle" x="1664.45" y="-592.7" font-family="Courier New" font-size="14.00">0</text>
<polyline fill="none" stroke="black" points="1631.24,-584.5 1697.65,-584.5 "/>
<text text-anchor="middle" x="1664.45" y="-567.9" font-family="Courier New" font-size="14.00">1</text>
<polyline fill="none" stroke="black" points="1697.65,-559.7 1697.65,-634.1 "/>
<text text-anchor="middle" x="1869.08" y="-617.5" font-family="Courier New" font-size="14.00">type: variable (bytes)</text>
<polyline fill="none" stroke="black" points="1697.65,-609.3 2040.5,-609.3 "/>
<text text-anchor="middle" x="1772.86" y="-592.7" font-family="Courier New" font-size="14.00">unallocated (31)</text>
<polyline fill="none" stroke="black" points="1848.07,-584.5 1848.07,-609.3 "/>
<text text-anchor="middle" x="1944.29" y="-592.7" font-family="Courier New" font-size="14.00">bool: isSupported (1)</text>
<polyline fill="none" stroke="black" points="1697.65,-584.5 2040.5,-584.5 "/>
<text text-anchor="middle" x="1868.67" y="-567.9" font-family="Courier New" font-size="14.00">uint256: _deprecated (32)</text>
</g>
<!-- 7&#45;&gt;3 -->
<g id="edge3" class="edge">
<title>7:13&#45;&gt;3</title>
<path fill="none" stroke="black" d="M1197.38,-654.3C1338.76,-654.3 1497.34,-643.15 1620.97,-631.95"/>
<polygon fill="black" stroke="black" points="1621.29,-635.44 1630.93,-631.04 1620.66,-628.47 1621.29,-635.44"/>
</g>
<!-- 4 -->
<g id="node5" class="node">
<title>4</title>
<polygon fill="#f2f2f2" stroke="black" points="1550.63,-449.7 1550.63,-540.9 2121.12,-540.9 2121.12,-449.7 1550.63,-449.7"/>
<text text-anchor="middle" x="1835.87" y="-524.3" font-family="Courier New" font-size="14.00">address[]: allStrategies &lt;&lt;Array&gt;&gt;</text>
<text text-anchor="middle" x="1835.87" y="-507.5" font-family="Courier New" font-size="14.00">0x4a11f94e20a93c79f6ec743a1954ec4fc2c08429ae2122118bf234b2185c81b8</text>
<polyline fill="none" stroke="black" points="1550.63,-499.3 2121.12,-499.3 "/>
<text text-anchor="middle" x="1642.83" y="-482.7" font-family="Courier New" font-size="14.00">offset</text>
<polyline fill="none" stroke="black" points="1550.63,-474.5 1735.04,-474.5 "/>
<text text-anchor="middle" x="1642.83" y="-457.9" font-family="Courier New" font-size="14.00">0</text>
<polyline fill="none" stroke="black" points="1735.04,-449.7 1735.04,-499.3 "/>
<text text-anchor="middle" x="1927.65" y="-482.7" font-family="Courier New" font-size="14.00">type: variable (bytes)</text>
<polyline fill="none" stroke="black" points="1735.04,-474.5 2120.27,-474.5 "/>
<text text-anchor="middle" x="1839.75" y="-457.9" font-family="Courier New" font-size="14.00">unallocated (12)</text>
<polyline fill="none" stroke="black" points="1944.46,-449.7 1944.46,-474.5 "/>
<text text-anchor="middle" x="2032.37" y="-457.9" font-family="Courier New" font-size="14.00">address (20)</text>
</g>
<!-- 7&#45;&gt;4 -->
<g id="edge4" class="edge">
<title>7:15&#45;&gt;4</title>
<path fill="none" stroke="black" d="M1197.38,-629.3C1235.97,-629.3 1201.92,-572.63 1233.38,-550.3 1321.09,-488.05 1435.07,-466.86 1540.19,-463.81"/>
<polygon fill="black" stroke="black" points="1540.42,-467.3 1550.33,-463.57 1540.25,-460.31 1540.42,-467.3"/>
</g>
<!-- 5 -->
<g id="node6" class="node">
<title>5</title>
<polygon fill="#f2f2f2" stroke="black" points="1497.22,-193.1 1497.22,-267.5 2174.52,-267.5 2174.52,-193.1 1497.22,-193.1"/>
<text text-anchor="middle" x="1835.87" y="-250.9" font-family="Courier New" font-size="14.00">SwapConfig &lt;&lt;Struct&gt;&gt;</text>
<polyline fill="none" stroke="black" points="1497.22,-242.7 2174.52,-242.7 "/>
<text text-anchor="middle" x="1522.02" y="-226.1" font-family="Courier New" font-size="14.00">slot</text>
<polyline fill="none" stroke="black" points="1497.22,-217.9 1546.83,-217.9 "/>
<text text-anchor="middle" x="1522.02" y="-201.3" font-family="Courier New" font-size="14.00">72</text>
<polyline fill="none" stroke="black" points="1546.83,-193.1 1546.83,-242.7 "/>
<text text-anchor="middle" x="1860.67" y="-226.1" font-family="Courier New" font-size="14.00">type: variable (bytes)</text>
<polyline fill="none" stroke="black" points="1546.83,-217.9 2174.52,-217.9 "/>
<text text-anchor="middle" x="1622.04" y="-201.3" font-family="Courier New" font-size="14.00">unallocated (10)</text>
<polyline fill="none" stroke="black" points="1697.25,-193.1 1697.25,-217.9 "/>
<text text-anchor="middle" x="1839.67" y="-201.3" font-family="Courier New" font-size="14.00">uint16: allowedUndervalueBps (2)</text>
<polyline fill="none" stroke="black" points="1982.09,-193.1 1982.09,-217.9 "/>
<text text-anchor="middle" x="2078.31" y="-201.3" font-family="Courier New" font-size="14.00">address: swapper (20)</text>
</g>
<!-- 7&#45;&gt;5 -->
<g id="edge5" class="edge">
<title>7:37&#45;&gt;5</title>
<path fill="none" stroke="black" d="M1197.38,-183.3C1291.34,-183.3 1392.88,-188.44 1486.7,-195.32"/>
<polygon fill="black" stroke="black" points="1486.7,-198.83 1496.93,-196.08 1487.21,-191.85 1486.7,-198.83"/>
</g>
<!-- 6 -->
<g id="node7" class="node">
<title>6</title>
<polygon fill="#f2f2f2" stroke="black" points="1702.25,-0.5 1702.25,-174.1 1969.49,-174.1 1969.49,-0.5 1702.25,-0.5"/>
<text text-anchor="middle" x="1835.87" y="-157.5" font-family="Courier New" font-size="14.00">uint256[49]: __gap &lt;&lt;Array&gt;&gt;</text>
<polyline fill="none" stroke="black" points="1702.25,-149.3 1969.49,-149.3 "/>
<text text-anchor="middle" x="1735.46" y="-132.7" font-family="Courier New" font-size="14.00">slot</text>
<polyline fill="none" stroke="black" points="1702.25,-124.5 1768.66,-124.5 "/>
<text text-anchor="middle" x="1735.46" y="-107.9" font-family="Courier New" font-size="14.00">74</text>
<polyline fill="none" stroke="black" points="1702.25,-99.7 1768.66,-99.7 "/>
<text text-anchor="middle" x="1735.46" y="-83.1" font-family="Courier New" font-size="14.00">75</text>
<polyline fill="none" stroke="black" points="1702.25,-74.9 1768.66,-74.9 "/>
<text text-anchor="middle" x="1735.46" y="-58.3" font-family="Courier New" font-size="14.00">76&#45;120</text>
<polyline fill="none" stroke="black" points="1702.25,-50.1 1768.66,-50.1 "/>
<text text-anchor="middle" x="1735.46" y="-33.5" font-family="Courier New" font-size="14.00">121</text>
<polyline fill="none" stroke="black" points="1702.25,-25.3 1768.66,-25.3 "/>
<text text-anchor="middle" x="1735.46" y="-8.7" font-family="Courier New" font-size="14.00">122</text>
<polyline fill="none" stroke="black" points="1768.66,-0.5 1768.66,-149.3 "/>
<text text-anchor="middle" x="1869.08" y="-132.7" font-family="Courier New" font-size="14.00">type: variable (bytes)</text>
<polyline fill="none" stroke="black" points="1768.66,-124.5 1969.49,-124.5 "/>
<text text-anchor="middle" x="1869.07" y="-107.9" font-family="Courier New" font-size="14.00">uint256 (32)</text>
<polyline fill="none" stroke="black" points="1768.66,-99.7 1969.49,-99.7 "/>
<text text-anchor="middle" x="1869.07" y="-83.1" font-family="Courier New" font-size="14.00">uint256 (32)</text>
<polyline fill="none" stroke="black" points="1768.66,-74.9 1969.49,-74.9 "/>
<text text-anchor="middle" x="1868.87" y="-58.3" font-family="Courier New" font-size="14.00">&#45;&#45;&#45;&#45; (1440)</text>
<polyline fill="none" stroke="black" points="1768.66,-50.1 1969.49,-50.1 "/>
<text text-anchor="middle" x="1869.07" y="-33.5" font-family="Courier New" font-size="14.00">uint256 (32)</text>
<polyline fill="none" stroke="black" points="1768.66,-25.3 1969.49,-25.3 "/>
<text text-anchor="middle" x="1869.07" y="-8.7" font-family="Courier New" font-size="14.00">uint256 (32)</text>
</g>
<!-- 7&#45;&gt;6 -->
<g id="edge6" class="edge">
<title>7:44&#45;&gt;6</title>
<path fill="none" stroke="black" d="M1197.38,-133.3C1367.71,-133.3 1562.98,-116.76 1692.04,-103.52"/>
<polygon fill="black" stroke="black" points="1692.4,-107 1701.99,-102.49 1691.68,-100.04 1692.4,-107"/>
</g>
</g>
</svg>
