<?xml version="1.0" encoding="UTF-8" standalone="no"?>
<!DOCTYPE svg PUBLIC "-//W3C//DTD SVG 1.1//EN"
 "http://www.w3.org/Graphics/SVG/1.1/DTD/svg11.dtd">
<!-- Generated by graphviz version 5.0.0 (20220707.1540)
 -->
<!-- Title: StorageDiagram Pages: 1 -->
<svg width="2732pt" height="931pt"
 viewBox="0.00 0.00 2732.01 930.80" xmlns="http://www.w3.org/2000/svg" xmlns:xlink="http://www.w3.org/1999/xlink">
<g id="graph0" class="graph" transform="scale(1 1) rotate(0) translate(4 926.8)">
<title>StorageDiagram</title>
<polygon fill="white" stroke="transparent" points="-4,4 -4,-926.8 2728.01,-926.8 2728.01,4 -4,4"/>
<!-- 8 -->
<g id="node1" class="node">
<title>8</title>
<polygon fill="#f2f2f2" stroke="black" points="0,-56.9 0,-875.3 1483.03,-875.3 1483.03,-56.9 0,-56.9"/>
<text text-anchor="middle" x="741.51" y="-858.7" font-family="Courier New" font-size="14.00">VaultCore &lt;&lt;Contract&gt;&gt;</text>
<polyline fill="none" stroke="black" points="0,-850.5 1483.03,-850.5 "/>
<text text-anchor="middle" x="33.2" y="-833.9" font-family="Courier New" font-size="14.00">slot</text>
<polyline fill="none" stroke="black" points="0,-825.7 66.41,-825.7 "/>
<text text-anchor="middle" x="33.2" y="-809.1" font-family="Courier New" font-size="14.00">0</text>
<polyline fill="none" stroke="black" points="0,-800.9 66.41,-800.9 "/>
<text text-anchor="middle" x="33.2" y="-784.3" font-family="Courier New" font-size="14.00">1&#45;50</text>
<polyline fill="none" stroke="black" points="0,-776.1 66.41,-776.1 "/>
<text text-anchor="middle" x="33.2" y="-759.5" font-family="Courier New" font-size="14.00">51</text>
<polyline fill="none" stroke="black" points="0,-751.3 66.41,-751.3 "/>
<text text-anchor="middle" x="33.2" y="-734.7" font-family="Courier New" font-size="14.00">52</text>
<polyline fill="none" stroke="black" points="0,-726.5 66.41,-726.5 "/>
<text text-anchor="middle" x="33.2" y="-709.9" font-family="Courier New" font-size="14.00">53</text>
<polyline fill="none" stroke="black" points="0,-701.7 66.41,-701.7 "/>
<text text-anchor="middle" x="33.2" y="-685.1" font-family="Courier New" font-size="14.00">54</text>
<polyline fill="none" stroke="black" points="0,-676.9 66.41,-676.9 "/>
<text text-anchor="middle" x="33.2" y="-660.3" font-family="Courier New" font-size="14.00">55</text>
<polyline fill="none" stroke="black" points="0,-652.1 66.41,-652.1 "/>
<text text-anchor="middle" x="33.2" y="-635.5" font-family="Courier New" font-size="14.00">56</text>
<polyline fill="none" stroke="black" points="0,-627.3 66.41,-627.3 "/>
<text text-anchor="middle" x="33.2" y="-610.7" font-family="Courier New" font-size="14.00">57</text>
<polyline fill="none" stroke="black" points="0,-602.5 66.41,-602.5 "/>
<text text-anchor="middle" x="33.2" y="-585.9" font-family="Courier New" font-size="14.00">58</text>
<polyline fill="none" stroke="black" points="0,-577.7 66.41,-577.7 "/>
<text text-anchor="middle" x="33.2" y="-561.1" font-family="Courier New" font-size="14.00">59</text>
<polyline fill="none" stroke="black" points="0,-552.9 66.41,-552.9 "/>
<text text-anchor="middle" x="33.2" y="-536.3" font-family="Courier New" font-size="14.00">60</text>
<polyline fill="none" stroke="black" points="0,-528.1 66.41,-528.1 "/>
<text text-anchor="middle" x="33.2" y="-511.5" font-family="Courier New" font-size="14.00">61</text>
<polyline fill="none" stroke="black" points="0,-503.3 66.41,-503.3 "/>
<text text-anchor="middle" x="33.2" y="-486.7" font-family="Courier New" font-size="14.00">62</text>
<polyline fill="none" stroke="black" points="0,-478.5 66.41,-478.5 "/>
<text text-anchor="middle" x="33.2" y="-461.9" font-family="Courier New" font-size="14.00">63</text>
<polyline fill="none" stroke="black" points="0,-453.7 66.41,-453.7 "/>
<text text-anchor="middle" x="33.2" y="-437.1" font-family="Courier New" font-size="14.00">64</text>
<polyline fill="none" stroke="black" points="0,-428.9 66.41,-428.9 "/>
<text text-anchor="middle" x="33.2" y="-412.3" font-family="Courier New" font-size="14.00">65</text>
<polyline fill="none" stroke="black" points="0,-404.1 66.41,-404.1 "/>
<text text-anchor="middle" x="33.2" y="-387.5" font-family="Courier New" font-size="14.00">66</text>
<polyline fill="none" stroke="black" points="0,-379.3 66.41,-379.3 "/>
<text text-anchor="middle" x="33.2" y="-362.7" font-family="Courier New" font-size="14.00">67</text>
<polyline fill="none" stroke="black" points="0,-354.5 66.41,-354.5 "/>
<text text-anchor="middle" x="33.2" y="-337.9" font-family="Courier New" font-size="14.00">68</text>
<polyline fill="none" stroke="black" points="0,-329.7 66.41,-329.7 "/>
<text text-anchor="middle" x="33.2" y="-313.1" font-family="Courier New" font-size="14.00">69</text>
<polyline fill="none" stroke="black" points="0,-304.9 66.41,-304.9 "/>
<text text-anchor="middle" x="33.2" y="-288.3" font-family="Courier New" font-size="14.00">70</text>
<polyline fill="none" stroke="black" points="0,-280.1 66.41,-280.1 "/>
<text text-anchor="middle" x="33.2" y="-263.5" font-family="Courier New" font-size="14.00">71</text>
<polyline fill="none" stroke="black" points="0,-255.3 66.41,-255.3 "/>
<text text-anchor="middle" x="33.2" y="-238.7" font-family="Courier New" font-size="14.00">72</text>
<polyline fill="none" stroke="black" points="0,-230.5 66.41,-230.5 "/>
<text text-anchor="middle" x="33.2" y="-213.9" font-family="Courier New" font-size="14.00">73</text>
<polyline fill="none" stroke="black" points="0,-205.7 66.41,-205.7 "/>
<text text-anchor="middle" x="33.2" y="-189.1" font-family="Courier New" font-size="14.00">74</text>
<polyline fill="none" stroke="black" points="0,-180.9 66.41,-180.9 "/>
<text text-anchor="middle" x="33.2" y="-164.3" font-family="Courier New" font-size="14.00">75&#45;76</text>
<polyline fill="none" stroke="black" points="0,-156.1 66.41,-156.1 "/>
<text text-anchor="middle" x="33.2" y="-139.5" font-family="Courier New" font-size="14.00">77</text>
<polyline fill="none" stroke="black" points="0,-131.3 66.41,-131.3 "/>
<text text-anchor="middle" x="33.2" y="-114.7" font-family="Courier New" font-size="14.00">78</text>
<polyline fill="none" stroke="black" points="0,-106.5 66.41,-106.5 "/>
<text text-anchor="middle" x="33.2" y="-89.9" font-family="Courier New" font-size="14.00">79</text>
<polyline fill="none" stroke="black" points="0,-81.7 66.41,-81.7 "/>
<text text-anchor="middle" x="33.2" y="-65.1" font-family="Courier New" font-size="14.00">80&#45;122</text>
<polyline fill="none" stroke="black" points="66.41,-56.9 66.41,-850.5 "/>
<text text-anchor="middle" x="774.72" y="-833.9" font-family="Courier New" font-size="14.00">type: &lt;inherited contract&gt;.variable (bytes)</text>
<polyline fill="none" stroke="black" points="66.41,-825.7 1483.03,-825.7 "/>
<text text-anchor="middle" x="247.62" y="-809.1" font-family="Courier New" font-size="14.00">unallocated (30)</text>
<polyline fill="none" stroke="black" points="428.83,-800.9 428.83,-825.7 "/>
<text text-anchor="middle" x="694.55" y="-809.1" font-family="Courier New" font-size="14.00">bool: Initializable.initializing (1)</text>
<polyline fill="none" stroke="black" points="960.28,-800.9 960.28,-825.7 "/>
<text text-anchor="middle" x="1221.3" y="-809.1" font-family="Courier New" font-size="14.00">bool: Initializable.initialized (1)</text>
<polyline fill="none" stroke="black" points="66.41,-800.9 1483.03,-800.9 "/>
<text text-anchor="middle" x="774.54" y="-784.3" font-family="Courier New" font-size="14.00">uint256[50]: Initializable.______gap (1600)</text>
<polyline fill="none" stroke="black" points="66.41,-776.1 1483.03,-776.1 "/>
<text text-anchor="middle" x="774.24" y="-759.5" font-family="Courier New" font-size="14.00">mapping(address=&gt;Asset): VaultStorage.assets (32)</text>
<polyline fill="none" stroke="black" points="66.41,-751.3 1483.03,-751.3 "/>
<text text-anchor="middle" x="774.53" y="-734.7" font-family="Courier New" font-size="14.00">address[]: VaultStorage.allAssets (32)</text>
<polyline fill="none" stroke="black" points="66.41,-726.5 1483.03,-726.5 "/>
<text text-anchor="middle" x="774.65" y="-709.9" font-family="Courier New" font-size="14.00">mapping(address=&gt;Strategy): VaultStorage.strategies (32)</text>
<polyline fill="none" stroke="black" points="66.41,-701.7 1483.03,-701.7 "/>
<text text-anchor="middle" x="774.34" y="-685.1" font-family="Courier New" font-size="14.00">address[]: VaultStorage.allStrategies (32)</text>
<polyline fill="none" stroke="black" points="66.41,-676.9 1483.03,-676.9 "/>
<text text-anchor="middle" x="177.12" y="-660.3" font-family="Courier New" font-size="14.00">unallocated (10)</text>
<polyline fill="none" stroke="black" points="287.83,-652.1 287.83,-676.9 "/>
<text text-anchor="middle" x="482.55" y="-660.3" font-family="Courier New" font-size="14.00">bool: VaultStorage.capitalPaused (1)</text>
<polyline fill="none" stroke="black" points="677.28,-652.1 677.28,-676.9 "/>
<text text-anchor="middle" x="868.3" y="-660.3" font-family="Courier New" font-size="14.00">bool: VaultStorage.rebasePaused (1)</text>
<polyline fill="none" stroke="black" points="1059.33,-652.1 1059.33,-676.9 "/>
<text text-anchor="middle" x="1270.85" y="-660.3" font-family="Courier New" font-size="14.00">address: VaultStorage.priceProvider (20)</text>
<polyline fill="none" stroke="black" points="66.41,-652.1 1483.03,-652.1 "/>
<text text-anchor="middle" x="774.23" y="-635.5" font-family="Courier New" font-size="14.00">uint256: VaultStorage.redeemFeeBps (32)</text>
<polyline fill="none" stroke="black" points="66.41,-627.3 1483.03,-627.3 "/>
<text text-anchor="middle" x="774.53" y="-610.7" font-family="Courier New" font-size="14.00">uint256: VaultStorage.vaultBuffer (32)</text>
<polyline fill="none" stroke="black" points="66.41,-602.5 1483.03,-602.5 "/>
<text text-anchor="middle" x="774.54" y="-585.9" font-family="Courier New" font-size="14.00">uint256: VaultStorage.autoAllocateThreshold (32)</text>
<polyline fill="none" stroke="black" points="66.41,-577.7 1483.03,-577.7 "/>
<text text-anchor="middle" x="774.34" y="-561.1" font-family="Courier New" font-size="14.00">uint256: VaultStorage.rebaseThreshold (32)</text>
<polyline fill="none" stroke="black" points="66.41,-552.9 1483.03,-552.9 "/>
<text text-anchor="middle" x="395.12" y="-536.3" font-family="Courier New" font-size="14.00">unallocated (12)</text>
<polyline fill="none" stroke="black" points="723.83,-528.1 723.83,-552.9 "/>
<text text-anchor="middle" x="1102.95" y="-536.3" font-family="Courier New" font-size="14.00">OUSD: VaultStorage.oUSD (20)</text>
<polyline fill="none" stroke="black" points="66.41,-528.1 1483.03,-528.1 "/>
<text text-anchor="middle" x="340.62" y="-511.5" font-family="Courier New" font-size="14.00">unallocated (12)</text>
<polyline fill="none" stroke="black" points="614.83,-503.3 614.83,-528.1 "/>
<text text-anchor="middle" x="1048.67" y="-511.5" font-family="Courier New" font-size="14.00">address: VaultStorage._deprecated_rebaseHooksAddr (20)</text>
<polyline fill="none" stroke="black" points="66.41,-503.3 1483.03,-503.3 "/>
<text text-anchor="middle" x="349.12" y="-486.7" font-family="Courier New" font-size="14.00">unallocated (12)</text>
<polyline fill="none" stroke="black" points="631.83,-478.5 631.83,-503.3 "/>
<text text-anchor="middle" x="1057.36" y="-486.7" font-family="Courier New" font-size="14.00">address: VaultStorage._deprecated_uniswapAddr (20)</text>
<polyline fill="none" stroke="black" points="66.41,-478.5 1483.03,-478.5 "/>
<text text-anchor="middle" x="367.62" y="-461.9" font-family="Courier New" font-size="14.00">unallocated (12)</text>
<polyline fill="none" stroke="black" points="668.83,-453.7 668.83,-478.5 "/>
<text text-anchor="middle" x="1075.56" y="-461.9" font-family="Courier New" font-size="14.00">address: VaultStorage.strategistAddr (20)</text>
<polyline fill="none" stroke="black" points="66.41,-453.7 1483.03,-453.7 "/>
<text text-anchor="middle" x="774.35" y="-437.1" font-family="Courier New" font-size="14.00">mapping(address=&gt;address): VaultStorage.assetDefaultStrategies (32)</text>
<polyline fill="none" stroke="black" points="66.41,-428.9 1483.03,-428.9 "/>
<text text-anchor="middle" x="774.44" y="-412.3" font-family="Courier New" font-size="14.00">uint256: VaultStorage.maxSupplyDiff (32)</text>
<polyline fill="none" stroke="black" points="66.41,-404.1 1483.03,-404.1 "/>
<text text-anchor="middle" x="367.62" y="-387.5" font-family="Courier New" font-size="14.00">unallocated (12)</text>
<polyline fill="none" stroke="black" points="668.83,-379.3 668.83,-404.1 "/>
<text text-anchor="middle" x="1075.56" y="-387.5" font-family="Courier New" font-size="14.00">address: VaultStorage.trusteeAddress (20)</text>
<polyline fill="none" stroke="black" points="66.41,-379.3 1483.03,-379.3 "/>
<text text-anchor="middle" x="774.44" y="-362.7" font-family="Courier New" font-size="14.00">uint256: VaultStorage.trusteeFeeBps (32)</text>
<polyline fill="none" stroke="black" points="66.41,-354.5 1483.03,-354.5 "/>
<text text-anchor="middle" x="774.64" y="-337.9" font-family="Courier New" font-size="14.00">address[]: VaultStorage._deprecated_swapTokens (32)</text>
<polyline fill="none" stroke="black" points="66.41,-329.7 1483.03,-329.7 "/>
<text text-anchor="middle" x="363.62" y="-313.1" font-family="Courier New" font-size="14.00">unallocated (12)</text>
<polyline fill="none" stroke="black" points="660.83,-304.9 660.83,-329.7 "/>
<text text-anchor="middle" x="1071.46" y="-313.1" font-family="Courier New" font-size="14.00">address: VaultStorage.ousdMetaStrategy (20)</text>
<polyline fill="none" stroke="black" points="66.41,-304.9 1483.03,-304.9 "/>
<text text-anchor="middle" x="774.44" y="-288.3" font-family="Courier New" font-size="14.00">int256: VaultStorage.netOusdMintedForStrategy (32)</text>
<polyline fill="none" stroke="black" points="66.41,-280.1 1483.03,-280.1 "/>
<text text-anchor="middle" x="774.55" y="-263.5" font-family="Courier New" font-size="14.00">uint256: VaultStorage.netOusdMintForStrategyThreshold (32)</text>
<polyline fill="none" stroke="black" points="66.41,-255.3 1483.03,-255.3 "/>
<text text-anchor="middle" x="774.44" y="-238.7" font-family="Courier New" font-size="14.00">SwapConfig: VaultStorage.swapConfig (32)</text>
<polyline fill="none" stroke="black" points="66.41,-230.5 1483.03,-230.5 "/>
<text text-anchor="middle" x="774.35" y="-213.9" font-family="Courier New" font-size="14.00">mapping(address=&gt;bool): VaultStorage.isMintWhitelistedStrategy (32)</text>
<polyline fill="none" stroke="black" points="66.41,-205.7 1483.03,-205.7 "/>
<text text-anchor="middle" x="382.62" y="-189.1" font-family="Courier New" font-size="14.00">unallocated (12)</text>
<polyline fill="none" stroke="black" points="698.83,-180.9 698.83,-205.7 "/>
<text text-anchor="middle" x="1090.65" y="-189.1" font-family="Courier New" font-size="14.00">address: VaultStorage.dripper (20)</text>
<polyline fill="none" stroke="black" points="66.41,-180.9 1483.03,-180.9 "/>
<text text-anchor="middle" x="774.65" y="-164.3" font-family="Courier New" font-size="14.00">WithdrawalQueueMetadata: VaultStorage.withdrawalQueueMetadata (64)</text>
<polyline fill="none" stroke="black" points="66.41,-156.1 1483.03,-156.1 "/>
<text text-anchor="middle" x="774.56" y="-139.5" font-family="Courier New" font-size="14.00">mapping(uint256=&gt;WithdrawalRequest): VaultStorage.withdrawalRequests (32)</text>
<polyline fill="none" stroke="black" points="66.41,-131.3 1483.03,-131.3 "/>
<text text-anchor="middle" x="774.34" y="-114.7" font-family="Courier New" font-size="14.00">uint256: VaultStorage.withdrawalClaimDelay (32)</text>
<polyline fill="none" stroke="black" points="66.41,-106.5 1483.03,-106.5 "/>
<text text-anchor="middle" x="267.64" y="-89.9" font-family="Courier New" font-size="14.00">uint64: VaultStorage.rebasePerSecondTarget (8)</text>
<polyline fill="none" stroke="black" points="468.87,-81.7 468.87,-106.5 "/>
<text text-anchor="middle" x="657.5" y="-89.9" font-family="Courier New" font-size="14.00">uint64: VaultStorage.rebasePerSecondMax (8)</text>
<polyline fill="none" stroke="black" points="846.13,-81.7 846.13,-106.5 "/>
<text text-anchor="middle" x="1009.56" y="-89.9" font-family="Courier New" font-size="14.00">uint64: VaultStorage.dripDuration (8)</text>
<polyline fill="none" stroke="black" points="1172.98,-81.7 1172.98,-106.5 "/>
<text text-anchor="middle" x="1328" y="-89.9" font-family="Courier New" font-size="14.00">uint64: VaultStorage.lastRebase (8)</text>
<polyline fill="none" stroke="black" points="66.41,-81.7 1483.03,-81.7 "/>
<text text-anchor="middle" x="774.53" y="-65.1" font-family="Courier New" font-size="14.00">uint256[43]: VaultStorage.__gap (1376)</text>
</g>
<!-- 1 -->
<g id="node2" class="node">
<title>1</title>
<polygon fill="#f2f2f2" stroke="black" points="1519.03,-847.9 1519.03,-922.3 2724.01,-922.3 2724.01,-847.9 1519.03,-847.9"/>
<text text-anchor="middle" x="2121.52" y="-905.7" font-family="Courier New" font-size="14.00">Asset &lt;&lt;Struct&gt;&gt;</text>
<polyline fill="none" stroke="black" points="1519.03,-897.5 2724.01,-897.5 "/>
<text text-anchor="middle" x="1552.23" y="-880.9" font-family="Courier New" font-size="14.00">offset</text>
<polyline fill="none" stroke="black" points="1519.03,-872.7 1585.44,-872.7 "/>
<text text-anchor="middle" x="1552.23" y="-856.1" font-family="Courier New" font-size="14.00">0</text>
<polyline fill="none" stroke="black" points="1585.44,-847.9 1585.44,-897.5 "/>
<text text-anchor="middle" x="2154.72" y="-880.9" font-family="Courier New" font-size="14.00">type: variable (bytes)</text>
<polyline fill="none" stroke="black" points="1585.44,-872.7 2724.01,-872.7 "/>
<text text-anchor="middle" x="1660.65" y="-856.1" font-family="Courier New" font-size="14.00">unallocated (27)</text>
<polyline fill="none" stroke="black" points="1735.86,-847.9 1735.86,-872.7 "/>
<text text-anchor="middle" x="1895.08" y="-856.1" font-family="Courier New" font-size="14.00">uint16: allowedOracleSlippageBps (2)</text>
<polyline fill="none" stroke="black" points="2054.31,-847.9 2054.31,-872.7 "/>
<text text-anchor="middle" x="2142.12" y="-856.1" font-family="Courier New" font-size="14.00">uint8: decimals (1)</text>
<polyline fill="none" stroke="black" points="2229.93,-847.9 2229.93,-872.7 "/>
<text text-anchor="middle" x="2380.76" y="-856.1" font-family="Courier New" font-size="14.00">UnitConversion: unitConversion (1)</text>
<polyline fill="none" stroke="black" points="2531.58,-847.9 2531.58,-872.7 "/>
<text text-anchor="middle" x="2627.79" y="-856.1" font-family="Courier New" font-size="14.00">bool: isSupported (1)</text>
</g>
<!-- 8&#45;&gt;1 -->
<g id="edge1" class="edge">
<title>8:8&#45;&gt;1</title>
<path fill="none" stroke="black" d="M1483.03,-764.1C1519.6,-764.1 1488.8,-817.51 1519.03,-838.1 1521.21,-839.58 1523.4,-841.04 1525.61,-842.48"/>
<polygon fill="black" stroke="black" points="1523.87,-845.52 1534.19,-847.89 1527.6,-839.6 1523.87,-845.52"/>
</g>
<!-- 2 -->
<g id="node3" class="node">
<title>2</title>
<polygon fill="#f2f2f2" stroke="black" points="1836.27,-737.5 1836.27,-828.7 2406.76,-828.7 2406.76,-737.5 1836.27,-737.5"/>
<text text-anchor="middle" x="2121.52" y="-812.1" font-family="Courier New" font-size="14.00">address[]: allAssets &lt;&lt;Array&gt;&gt;</text>
<text text-anchor="middle" x="2121.52" y="-795.3" font-family="Courier New" font-size="14.00">0x46bddb1178e94d7f2892ff5f366840eb658911794f2c3a44c450aa2c505186c1</text>
<polyline fill="none" stroke="black" points="1836.27,-787.1 2406.76,-787.1 "/>
<text text-anchor="middle" x="1928.48" y="-770.5" font-family="Courier New" font-size="14.00">offset</text>
<polyline fill="none" stroke="black" points="1836.27,-762.3 2020.68,-762.3 "/>
<text text-anchor="middle" x="1928.48" y="-745.7" font-family="Courier New" font-size="14.00">0</text>
<polyline fill="none" stroke="black" points="2020.68,-737.5 2020.68,-787.1 "/>
<text text-anchor="middle" x="2213.3" y="-770.5" font-family="Courier New" font-size="14.00">type: variable (bytes)</text>
<polyline fill="none" stroke="black" points="2020.68,-762.3 2405.92,-762.3 "/>
<text text-anchor="middle" x="2125.39" y="-745.7" font-family="Courier New" font-size="14.00">unallocated (12)</text>
<polyline fill="none" stroke="black" points="2230.1,-737.5 2230.1,-762.3 "/>
<text text-anchor="middle" x="2318.01" y="-745.7" font-family="Courier New" font-size="14.00">address (20)</text>
</g>
<!-- 8&#45;&gt;2 -->
<g id="edge2" class="edge">
<title>8:10&#45;&gt;2</title>
<path fill="none" stroke="black" d="M1483.03,-739.1C1595.18,-739.1 1718.17,-745.96 1825.94,-754.27"/>
<polygon fill="black" stroke="black" points="1825.75,-757.76 1835.99,-755.05 1826.3,-750.78 1825.75,-757.76"/>
</g>
<!-- 3 -->
<g id="node4" class="node">
<title>3</title>
<polygon fill="#f2f2f2" stroke="black" points="1916.89,-619.5 1916.89,-718.7 2326.15,-718.7 2326.15,-619.5 1916.89,-619.5"/>
<text text-anchor="middle" x="2121.52" y="-702.1" font-family="Courier New" font-size="14.00">Strategy &lt;&lt;Struct&gt;&gt;</text>
<polyline fill="none" stroke="black" points="1916.89,-693.9 2326.15,-693.9 "/>
<text text-anchor="middle" x="1950.09" y="-677.3" font-family="Courier New" font-size="14.00">offset</text>
<polyline fill="none" stroke="black" points="1916.89,-669.1 1983.3,-669.1 "/>
<text text-anchor="middle" x="1950.09" y="-652.5" font-family="Courier New" font-size="14.00">0</text>
<polyline fill="none" stroke="black" points="1916.89,-644.3 1983.3,-644.3 "/>
<text text-anchor="middle" x="1950.09" y="-627.7" font-family="Courier New" font-size="14.00">1</text>
<polyline fill="none" stroke="black" points="1983.3,-619.5 1983.3,-693.9 "/>
<text text-anchor="middle" x="2154.72" y="-677.3" font-family="Courier New" font-size="14.00">type: variable (bytes)</text>
<polyline fill="none" stroke="black" points="1983.3,-669.1 2326.15,-669.1 "/>
<text text-anchor="middle" x="2058.51" y="-652.5" font-family="Courier New" font-size="14.00">unallocated (31)</text>
<polyline fill="none" stroke="black" points="2133.72,-644.3 2133.72,-669.1 "/>
<text text-anchor="middle" x="2229.93" y="-652.5" font-family="Courier New" font-size="14.00">bool: isSupported (1)</text>
<polyline fill="none" stroke="black" points="1983.3,-644.3 2326.15,-644.3 "/>
<text text-anchor="middle" x="2154.31" y="-627.7" font-family="Courier New" font-size="14.00">uint256: _deprecated (32)</text>
</g>
<!-- 8&#45;&gt;3 -->
<g id="edge3" class="edge">
<title>8:13&#45;&gt;3</title>
<path fill="none" stroke="black" d="M1483.03,-714.1C1624.41,-714.1 1782.98,-702.95 1906.61,-691.75"/>
<polygon fill="black" stroke="black" points="1906.94,-695.24 1916.58,-690.84 1906.3,-688.27 1906.94,-695.24"/>
</g>
<!-- 4 -->
<g id="node5" class="node">
<title>4</title>
<polygon fill="#f2f2f2" stroke="black" points="1836.27,-509.5 1836.27,-600.7 2406.76,-600.7 2406.76,-509.5 1836.27,-509.5"/>
<text text-anchor="middle" x="2121.52" y="-584.1" font-family="Courier New" font-size="14.00">address[]: allStrategies &lt;&lt;Array&gt;&gt;</text>
<text text-anchor="middle" x="2121.52" y="-567.3" font-family="Courier New" font-size="14.00">0x4a11f94e20a93c79f6ec743a1954ec4fc2c08429ae2122118bf234b2185c81b8</text>
<polyline fill="none" stroke="black" points="1836.27,-559.1 2406.76,-559.1 "/>
<text text-anchor="middle" x="1928.48" y="-542.5" font-family="Courier New" font-size="14.00">offset</text>
<polyline fill="none" stroke="black" points="1836.27,-534.3 2020.68,-534.3 "/>
<text text-anchor="middle" x="1928.48" y="-517.7" font-family="Courier New" font-size="14.00">0</text>
<polyline fill="none" stroke="black" points="2020.68,-509.5 2020.68,-559.1 "/>
<text text-anchor="middle" x="2213.3" y="-542.5" font-family="Courier New" font-size="14.00">type: variable (bytes)</text>
<polyline fill="none" stroke="black" points="2020.68,-534.3 2405.92,-534.3 "/>
<text text-anchor="middle" x="2125.39" y="-517.7" font-family="Courier New" font-size="14.00">unallocated (12)</text>
<polyline fill="none" stroke="black" points="2230.1,-509.5 2230.1,-534.3 "/>
<text text-anchor="middle" x="2318.01" y="-517.7" font-family="Courier New" font-size="14.00">address (20)</text>
</g>
<!-- 8&#45;&gt;4 -->
<g id="edge4" class="edge">
<title>8:15&#45;&gt;4</title>
<path fill="none" stroke="black" d="M1483.03,-689.1C1521.61,-689.1 1487.56,-632.43 1519.03,-610.1 1606.74,-547.85 1720.72,-526.66 1825.84,-523.61"/>
<polygon fill="black" stroke="black" points="1826.07,-527.1 1835.98,-523.37 1825.9,-520.11 1826.07,-527.1"/>
</g>
<!-- 5 -->
<g id="node6" class="node">
<title>5</title>
<polygon fill="#f2f2f2" stroke="black" points="1782.87,-236.9 1782.87,-311.3 2460.17,-311.3 2460.17,-236.9 1782.87,-236.9"/>
<text text-anchor="middle" x="2121.52" y="-294.7" font-family="Courier New" font-size="14.00">SwapConfig &lt;&lt;Struct&gt;&gt;</text>
<polyline fill="none" stroke="black" points="1782.87,-286.5 2460.17,-286.5 "/>
<text text-anchor="middle" x="1807.67" y="-269.9" font-family="Courier New" font-size="14.00">slot</text>
<polyline fill="none" stroke="black" points="1782.87,-261.7 1832.47,-261.7 "/>
<text text-anchor="middle" x="1807.67" y="-245.1" font-family="Courier New" font-size="14.00">72</text>
<polyline fill="none" stroke="black" points="1832.47,-236.9 1832.47,-286.5 "/>
<text text-anchor="middle" x="2146.32" y="-269.9" font-family="Courier New" font-size="14.00">type: variable (bytes)</text>
<polyline fill="none" stroke="black" points="1832.47,-261.7 2460.17,-261.7 "/>
<text text-anchor="middle" x="1907.69" y="-245.1" font-family="Courier New" font-size="14.00">unallocated (10)</text>
<polyline fill="none" stroke="black" points="1982.9,-236.9 1982.9,-261.7 "/>
<text text-anchor="middle" x="2125.32" y="-245.1" font-family="Courier New" font-size="14.00">uint16: allowedUndervalueBps (2)</text>
<polyline fill="none" stroke="black" points="2267.74,-236.9 2267.74,-261.7 "/>
<text text-anchor="middle" x="2363.95" y="-245.1" font-family="Courier New" font-size="14.00">address: swapper (20)</text>
</g>
<!-- 8&#45;&gt;5 -->
<g id="edge5" class="edge">
<title>8:37&#45;&gt;5</title>
<path fill="none" stroke="black" d="M1483.03,-243.1C1576.98,-243.1 1678.62,-246.5 1772.56,-251.05"/>
<polygon fill="black" stroke="black" points="1772.63,-254.56 1782.79,-251.55 1772.98,-247.57 1772.63,-254.56"/>
</g>
<!-- 6 -->
<g id="node7" class="node">
<title>6</title>
<polygon fill="#f2f2f2" stroke="black" points="1853.88,-118.5 1853.88,-217.7 2389.16,-217.7 2389.16,-118.5 1853.88,-118.5"/>
<text text-anchor="middle" x="2121.52" y="-201.1" font-family="Courier New" font-size="14.00">WithdrawalQueueMetadata &lt;&lt;Struct&gt;&gt;</text>
<polyline fill="none" stroke="black" points="1853.88,-192.9 2389.16,-192.9 "/>
<text text-anchor="middle" x="1878.68" y="-176.3" font-family="Courier New" font-size="14.00">slot</text>
<polyline fill="none" stroke="black" points="1853.88,-168.1 1903.48,-168.1 "/>
<text text-anchor="middle" x="1878.68" y="-151.5" font-family="Courier New" font-size="14.00">75</text>
<polyline fill="none" stroke="black" points="1853.88,-143.3 1903.48,-143.3 "/>
<text text-anchor="middle" x="1878.68" y="-126.7" font-family="Courier New" font-size="14.00">76</text>
<polyline fill="none" stroke="black" points="1903.48,-118.5 1903.48,-192.9 "/>
<text text-anchor="middle" x="2146.32" y="-176.3" font-family="Courier New" font-size="14.00">type: variable (bytes)</text>
<polyline fill="none" stroke="black" points="1903.48,-168.1 2389.16,-168.1 "/>
<text text-anchor="middle" x="2031.1" y="-151.5" font-family="Courier New" font-size="14.00">uint128: claimable (16)</text>
<polyline fill="none" stroke="black" points="2158.72,-143.3 2158.72,-168.1 "/>
<text text-anchor="middle" x="2273.73" y="-151.5" font-family="Courier New" font-size="14.00">uint128: queued (16)</text>
<polyline fill="none" stroke="black" points="1903.48,-143.3 2389.16,-143.3 "/>
<text text-anchor="middle" x="2050.11" y="-126.7" font-family="Courier New" font-size="14.00">uint128: nextWithdrawalIndex (16)</text>
<polyline fill="none" stroke="black" points="2196.73,-118.5 2196.73,-143.3 "/>
<text text-anchor="middle" x="2292.94" y="-126.7" font-family="Courier New" font-size="14.00">uint128: claimed (16)</text>
</g>
<!-- 8&#45;&gt;6 -->
<g id="edge6" class="edge">
<title>8:44&#45;&gt;6</title>
<path fill="none" stroke="black" d="M1483.03,-168.1C1601.2,-168.1 1731.7,-168.1 1843.69,-168.1"/>
<polygon fill="black" stroke="black" points="1843.77,-171.6 1853.77,-168.1 1843.77,-164.6 1843.77,-171.6"/>
</g>
<!-- 7 -->
<g id="node8" class="node">
<title>7</title>
<polygon fill="#f2f2f2" stroke="black" points="1732.86,-0.5 1732.86,-99.7 2510.18,-99.7 2510.18,-0.5 1732.86,-0.5"/>
<text text-anchor="middle" x="2121.52" y="-83.1" font-family="Courier New" font-size="14.00">WithdrawalRequest &lt;&lt;Struct&gt;&gt;</text>
<polyline fill="none" stroke="black" points="1732.86,-74.9 2510.18,-74.9 "/>
<text text-anchor="middle" x="1766.07" y="-58.3" font-family="Courier New" font-size="14.00">offset</text>
<polyline fill="none" stroke="black" points="1732.86,-50.1 1799.27,-50.1 "/>
<text text-anchor="middle" x="1766.07" y="-33.5" font-family="Courier New" font-size="14.00">0</text>
<polyline fill="none" stroke="black" points="1732.86,-25.3 1799.27,-25.3 "/>
<text text-anchor="middle" x="1766.07" y="-8.7" font-family="Courier New" font-size="14.00">1</text>
<polyline fill="none" stroke="black" points="1799.27,-0.5 1799.27,-74.9 "/>
<text text-anchor="middle" x="2154.72" y="-58.3" font-family="Courier New" font-size="14.00">type: variable (bytes)</text>
<polyline fill="none" stroke="black" points="1799.27,-50.1 2510.18,-50.1 "/>
<text text-anchor="middle" x="1870.28" y="-33.5" font-family="Courier New" font-size="14.00">unallocated (6)</text>
<polyline fill="none" stroke="black" points="1941.29,-25.3 1941.29,-50.1 "/>
<text text-anchor="middle" x="2037.5" y="-33.5" font-family="Courier New" font-size="14.00">uint40: timestamp (5)</text>
<polyline fill="none" stroke="black" points="2133.72,-25.3 2133.72,-50.1 "/>
<text text-anchor="middle" x="2213.13" y="-33.5" font-family="Courier New" font-size="14.00">bool: claimed (1)</text>
<polyline fill="none" stroke="black" points="2292.54,-25.3 2292.54,-50.1 "/>
<text text-anchor="middle" x="2401.36" y="-33.5" font-family="Courier New" font-size="14.00">address: withdrawer (20)</text>
<polyline fill="none" stroke="black" points="1799.27,-25.3 2510.18,-25.3 "/>
<text text-anchor="middle" x="1976.78" y="-8.7" font-family="Courier New" font-size="14.00">uint128: queued (16)</text>
<polyline fill="none" stroke="black" points="2154.3,-0.5 2154.3,-25.3 "/>
<text text-anchor="middle" x="2331.81" y="-8.7" font-family="Courier New" font-size="14.00">uint128: amount (16)</text>
</g>
<!-- 8&#45;&gt;7 -->
<g id="edge7" class="edge">
<title>8:50&#45;&gt;7</title>
<path fill="none" stroke="black" d="M1483.03,-144.1C1505.34,-144.1 1498.79,-118.49 1519.03,-109.1 1581.85,-79.94 1652.26,-61.9 1722.17,-51.18"/>
<polygon fill="black" stroke="black" points="1723.1,-54.58 1732.48,-49.65 1722.07,-47.65 1723.1,-54.58"/>
</g>
</g>
</svg>
