<?xml version="1.0" encoding="UTF-8" standalone="no"?>
<!DOCTYPE svg PUBLIC "-//W3C//DTD SVG 1.1//EN"
 "http://www.w3.org/Graphics/SVG/1.1/DTD/svg11.dtd">
<!-- Generated by graphviz version 5.0.0 (20220707.1540)
 -->
<!-- Title: UmlClassDiagram Pages: 1 -->
<svg width="1585pt" height="511pt"
 viewBox="0.00 0.00 1585.01 510.80" xmlns="http://www.w3.org/2000/svg" xmlns:xlink="http://www.w3.org/1999/xlink">
<g id="graph0" class="graph" transform="scale(1 1) rotate(0) translate(4 506.8)">
<title>UmlClassDiagram</title>
<polygon fill="white" stroke="transparent" points="-4,4 -4,-506.8 1581.01,-506.8 1581.01,4 -4,4"/>
<!-- 7 -->
<g id="node1" class="node">
<title>7</title>
<polygon fill="#f2f2f2" stroke="black" points="825.57,-356.9 825.57,-398.5 1060.43,-398.5 1060.43,-356.9 825.57,-356.9"/>
<text text-anchor="middle" x="943" y="-381.9" font-family="Times,serif" font-size="14.00">Governable</text>
<text text-anchor="middle" x="943" y="-365.1" font-family="Times,serif" font-size="14.00">../contracts/governance/Governable.sol</text>
</g>
<!-- 27 -->
<g id="node2" class="node">
<title>27</title>
<polygon fill="#f2f2f2" stroke="black" points="476.53,-174.5 476.53,-232.9 777.47,-232.9 777.47,-174.5 476.53,-174.5"/>
<text text-anchor="middle" x="627" y="-216.3" font-family="Times,serif" font-size="14.00">&lt;&lt;Interface&gt;&gt;</text>
<text text-anchor="middle" x="627" y="-199.5" font-family="Times,serif" font-size="14.00">IGetExchangeRateToken</text>
<text text-anchor="middle" x="627" y="-182.7" font-family="Times,serif" font-size="14.00">../contracts/interfaces/IGetExchangeRateToken.sol</text>
</g>
<!-- 35 -->
<g id="node3" class="node">
<title>35</title>
<polygon fill="#f2f2f2" stroke="black" points="28.29,-174.5 28.29,-232.9 229.71,-232.9 229.71,-174.5 28.29,-174.5"/>
<text text-anchor="middle" x="129" y="-216.3" font-family="Times,serif" font-size="14.00">&lt;&lt;Interface&gt;&gt;</text>
<text text-anchor="middle" x="129" y="-199.5" font-family="Times,serif" font-size="14.00">IOracle</text>
<text text-anchor="middle" x="129" y="-182.7" font-family="Times,serif" font-size="14.00">../contracts/interfaces/IOracle.sol</text>
</g>
<!-- 39 -->
<g id="node4" class="node">
<title>39</title>
<polygon fill="#f2f2f2" stroke="black" points="247.62,-174.5 247.62,-232.9 458.38,-232.9 458.38,-174.5 247.62,-174.5"/>
<text text-anchor="middle" x="353" y="-216.3" font-family="Times,serif" font-size="14.00">&lt;&lt;Interface&gt;&gt;</text>
<text text-anchor="middle" x="353" y="-199.5" font-family="Times,serif" font-size="14.00">IStrategy</text>
<text text-anchor="middle" x="353" y="-182.7" font-family="Times,serif" font-size="14.00">../contracts/interfaces/IStrategy.sol</text>
</g>
<!-- 40 -->
<g id="node5" class="node">
<title>40</title>
<polygon fill="#f2f2f2" stroke="black" points="240.45,-79.1 240.45,-137.5 453.55,-137.5 453.55,-79.1 240.45,-79.1"/>
<text text-anchor="middle" x="347" y="-120.9" font-family="Times,serif" font-size="14.00">&lt;&lt;Interface&gt;&gt;</text>
<text text-anchor="middle" x="347" y="-104.1" font-family="Times,serif" font-size="14.00">ISwapper</text>
<text text-anchor="middle" x="347" y="-87.3" font-family="Times,serif" font-size="14.00">../contracts/interfaces/ISwapper.sol</text>
</g>
<!-- 42 -->
<g id="node6" class="node">
<title>42</title>
<polygon fill="#f2f2f2" stroke="black" points="719.39,-79.1 719.39,-137.5 914.61,-137.5 914.61,-79.1 719.39,-79.1"/>
<text text-anchor="middle" x="817" y="-120.9" font-family="Times,serif" font-size="14.00">&lt;&lt;Interface&gt;&gt;</text>
<text text-anchor="middle" x="817" y="-104.1" font-family="Times,serif" font-size="14.00">IVault</text>
<text text-anchor="middle" x="817" y="-87.3" font-family="Times,serif" font-size="14.00">../contracts/interfaces/IVault.sol</text>
</g>
<!-- 182 -->
<g id="node12" class="node">
<title>182</title>
<polygon fill="#f2f2f2" stroke="black" points="839.55,-182.9 839.55,-224.5 1046.45,-224.5 1046.45,-182.9 839.55,-182.9"/>
<text text-anchor="middle" x="943" y="-207.9" font-family="Times,serif" font-size="14.00">VaultStorage</text>
<text text-anchor="middle" x="943" y="-191.1" font-family="Times,serif" font-size="14.00">../contracts/vault/VaultStorage.sol</text>
</g>
<!-- 42&#45;&gt;182 -->
<g id="edge1" class="edge">
<title>42&#45;&gt;182</title>
<path fill="none" stroke="black" stroke-dasharray="5,2" d="M855.15,-137.58C871.92,-150.01 891.5,-164.53 907.91,-176.69"/>
<polygon fill="black" stroke="black" points="906.05,-179.67 916.17,-182.81 910.22,-174.05 906.05,-179.67"/>
</g>
<!-- 161 -->
<g id="node7" class="node">
<title>161</title>
<polygon fill="#f2f2f2" stroke="black" points="1133.87,-269.9 1133.87,-311.5 1308.13,-311.5 1308.13,-269.9 1133.87,-269.9"/>
<text text-anchor="middle" x="1221" y="-294.9" font-family="Times,serif" font-size="14.00">OUSD</text>
<text text-anchor="middle" x="1221" y="-278.1" font-family="Times,serif" font-size="14.00">../contracts/token/OUSD.sol</text>
</g>
<!-- 161&#45;&gt;7 -->
<g id="edge4" class="edge">
<title>161&#45;&gt;7</title>
<path fill="none" stroke="black" d="M1156.17,-311.52C1120.63,-322.39 1075.94,-336.05 1036.66,-348.06"/>
<polygon fill="none" stroke="black" points="1033.55,-338.03 1007.93,-356.85 1039.69,-358.12 1033.55,-338.03"/>
</g>
<!-- 169 -->
<g id="node8" class="node">
<title>169</title>
<polygon fill="#f2f2f2" stroke="black" points="1380.99,-348.5 1380.99,-406.9 1577.01,-406.9 1577.01,-348.5 1380.99,-348.5"/>
<text text-anchor="middle" x="1479" y="-390.3" font-family="Times,serif" font-size="14.00">&lt;&lt;Abstract&gt;&gt;</text>
<text text-anchor="middle" x="1479" y="-373.5" font-family="Times,serif" font-size="14.00">Initializable</text>
<text text-anchor="middle" x="1479" y="-356.7" font-family="Times,serif" font-size="14.00">../contracts/utils/Initializable.sol</text>
</g>
<!-- 161&#45;&gt;169 -->
<g id="edge2" class="edge">
<title>161&#45;&gt;169</title>
<path fill="none" stroke="black" d="M1281.16,-311.52C1306.05,-319.72 1335.77,-329.51 1364.51,-338.98"/>
<polygon fill="none" stroke="black" points="1361.51,-349.05 1393.29,-348.46 1368.08,-329.1 1361.51,-349.05"/>
</g>
<!-- 172 -->
<g id="node9" class="node">
<title>172</title>
<polygon fill="#f2f2f2" stroke="black" points="1078.67,-348.5 1078.67,-406.9 1363.33,-406.9 1363.33,-348.5 1078.67,-348.5"/>
<text text-anchor="middle" x="1221" y="-390.3" font-family="Times,serif" font-size="14.00">&lt;&lt;Abstract&gt;&gt;</text>
<text text-anchor="middle" x="1221" y="-373.5" font-family="Times,serif" font-size="14.00">InitializableERC20Detailed</text>
<text text-anchor="middle" x="1221" y="-356.7" font-family="Times,serif" font-size="14.00">../contracts/utils/InitializableERC20Detailed.sol</text>
</g>
<!-- 161&#45;&gt;172 -->
<g id="edge3" class="edge">
<title>161&#45;&gt;172</title>
<path fill="none" stroke="black" d="M1221,-311.84C1221,-313.89 1221,-316.03 1221,-318.23"/>
<polygon fill="none" stroke="black" points="1210.5,-318.34 1221,-348.34 1231.5,-318.34 1210.5,-318.34"/>
</g>
<!-- 358 -->
<g id="node13" class="node">
<title>358</title>
<polygon fill="#f2f2f2" stroke="black" points="1018.94,-443.9 1018.94,-502.3 1423.06,-502.3 1423.06,-443.9 1018.94,-443.9"/>
<text text-anchor="middle" x="1221" y="-485.7" font-family="Times,serif" font-size="14.00">&lt;&lt;Interface&gt;&gt;</text>
<text text-anchor="middle" x="1221" y="-468.9" font-family="Times,serif" font-size="14.00">IERC20</text>
<text text-anchor="middle" x="1221" y="-452.1" font-family="Times,serif" font-size="14.00">../node_modules/@openzeppelin/contracts/token/ERC20/IERC20.sol</text>
</g>
<!-- 172&#45;&gt;358 -->
<g id="edge5" class="edge">
<title>172&#45;&gt;358</title>
<path fill="none" stroke="black" stroke-dasharray="5,2" d="M1221,-406.98C1221,-409.06 1221,-411.2 1221,-413.38"/>
<polygon fill="none" stroke="black" points="1210.5,-413.6 1221,-443.6 1231.5,-413.6 1210.5,-413.6"/>
</g>
<!-- 179 -->
<g id="node10" class="node">
<title>179</title>
<polygon fill="#f2f2f2" stroke="black" points="715.49,-0.5 715.49,-42.1 918.51,-42.1 918.51,-0.5 715.49,-0.5"/>
<text text-anchor="middle" x="817" y="-25.5" font-family="Times,serif" font-size="14.00">VaultAdmin</text>
<text text-anchor="middle" x="817" y="-8.7" font-family="Times,serif" font-size="14.00">../contracts/vault/VaultAdmin.sol</text>
</g>
<!-- 179&#45;&gt;35 -->
<g id="edge10" class="edge">
<title>179&#45;&gt;35</title>
<path fill="none" stroke="black" stroke-dasharray="5,2" d="M715.4,-22.79C570.34,-25.04 312.42,-35.25 231,-78.6 194.41,-98.08 165.93,-136.77 148.47,-165.8"/>
<polygon fill="black" stroke="black" points="145.43,-164.07 143.41,-174.47 151.48,-167.6 145.43,-164.07"/>
</g>
<!-- 179&#45;&gt;39 -->
<g id="edge7" class="edge">
<title>179&#45;&gt;39</title>
<path fill="none" stroke="black" stroke-dasharray="5,2" d="M715.23,-31.54C636.56,-40.3 535.46,-55.58 501,-78.6 474.94,-96.01 485.57,-116.26 463,-138 450.73,-149.82 435.9,-160.38 421.16,-169.37"/>
<polygon fill="black" stroke="black" points="419.35,-166.37 412.52,-174.47 422.91,-172.4 419.35,-166.37"/>
</g>
<!-- 179&#45;&gt;40 -->
<g id="edge9" class="edge">
<title>179&#45;&gt;40</title>
<path fill="none" stroke="black" stroke-dasharray="5,2" d="M715.47,-36.68C645.65,-47.06 550.92,-62.1 468,-78.6 466.54,-78.89 465.08,-79.18 463.61,-79.48"/>
<polygon fill="black" stroke="black" points="462.87,-76.06 453.8,-81.52 464.3,-82.91 462.87,-76.06"/>
</g>
<!-- 179&#45;&gt;42 -->
<g id="edge11" class="edge">
<title>179&#45;&gt;42</title>
<path fill="none" stroke="black" stroke-dasharray="5,2" d="M817,-42.44C817,-50.36 817,-59.73 817,-68.84"/>
<polygon fill="black" stroke="black" points="813.5,-68.94 817,-78.94 820.5,-68.94 813.5,-68.94"/>
</g>
<!-- 179&#45;&gt;182 -->
<g id="edge6" class="edge">
<title>179&#45;&gt;182</title>
<path fill="none" stroke="black" d="M877.84,-42.24C895.27,-50.8 912.61,-62.62 924,-78.6 939.05,-99.71 944.21,-128 945.43,-152.23"/>
<polygon fill="none" stroke="black" points="934.93,-152.52 945.15,-182.62 955.93,-152.72 934.93,-152.52"/>
</g>
<!-- 179&#45;&gt;358 -->
<g id="edge8" class="edge">
<title>179&#45;&gt;358</title>
<path fill="none" stroke="black" stroke-dasharray="5,2" d="M715.21,-24.99C557.77,-30.17 263.04,-44.24 164,-78.6 77.64,-108.56 0,-111.29 0,-202.7 0,-202.7 0,-202.7 0,-291.7 0,-392.45 658.96,-442.53 1008.69,-462.02"/>
<polygon fill="black" stroke="black" points="1008.51,-465.51 1018.69,-462.57 1008.9,-458.52 1008.51,-465.51"/>
</g>
<!-- 180 -->
<g id="node11" class="node">
<title>180</title>
<polygon fill="#f2f2f2" stroke="black" points="510.33,-87.5 510.33,-129.1 701.67,-129.1 701.67,-87.5 510.33,-87.5"/>
<text text-anchor="middle" x="606" y="-112.5" font-family="Times,serif" font-size="14.00">VaultCore</text>
<text text-anchor="middle" x="606" y="-95.7" font-family="Times,serif" font-size="14.00">../contracts/vault/VaultCore.sol</text>
</g>
<!-- 180&#45;&gt;27 -->
<g id="edge16" class="edge">
<title>180&#45;&gt;27</title>
<path fill="none" stroke="black" stroke-dasharray="5,2" d="M610.45,-129.11C612.77,-139.4 615.68,-152.33 618.41,-164.48"/>
<polygon fill="black" stroke="black" points="615.03,-165.43 620.64,-174.42 621.86,-163.89 615.03,-165.43"/>
</g>
<!-- 180&#45;&gt;35 -->
<g id="edge15" class="edge">
<title>180&#45;&gt;35</title>
<path fill="none" stroke="black" stroke-dasharray="5,2" d="M509.95,-129.11C494.28,-132.19 478.2,-135.25 463,-138 366.87,-155.36 339.38,-153.4 239.78,-173.91"/>
<polygon fill="black" stroke="black" points="238.99,-170.5 229.91,-175.97 240.42,-177.36 238.99,-170.5"/>
</g>
<!-- 180&#45;&gt;39 -->
<g id="edge14" class="edge">
<title>180&#45;&gt;39</title>
<path fill="none" stroke="black" stroke-dasharray="5,2" d="M552.35,-129.11C519.45,-141.25 476.59,-157.08 439.04,-170.94"/>
<polygon fill="black" stroke="black" points="437.79,-167.67 429.62,-174.42 440.21,-174.24 437.79,-167.67"/>
</g>
<!-- 180&#45;&gt;182 -->
<g id="edge12" class="edge">
<title>180&#45;&gt;182</title>
<path fill="none" stroke="black" d="M677.47,-129.11C725.42,-142.4 789.27,-160.09 842.34,-174.8"/>
<polygon fill="none" stroke="black" points="839.63,-184.95 871.34,-182.84 845.24,-164.71 839.63,-184.95"/>
</g>
<!-- 180&#45;&gt;358 -->
<g id="edge13" class="edge">
<title>180&#45;&gt;358</title>
<path fill="none" stroke="black" stroke-dasharray="5,2" d="M671.45,-129.18C719.73,-144.44 778.31,-164.47 786,-174 851.71,-255.44 744,-332.42 817,-407.4 844.88,-436.04 926.34,-452 1008.87,-460.9"/>
<polygon fill="black" stroke="black" points="1008.63,-464.39 1018.94,-461.95 1009.36,-457.43 1008.63,-464.39"/>
</g>
<!-- 182&#45;&gt;7 -->
<g id="edge18" class="edge">
<title>182&#45;&gt;7</title>
<path fill="none" stroke="black" d="M943,-224.77C943,-249.56 943,-292.62 943,-326.58"/>
<polygon fill="none" stroke="black" points="932.5,-326.76 943,-356.76 953.5,-326.76 932.5,-326.76"/>
</g>
<!-- 182&#45;&gt;161 -->
<g id="edge19" class="edge">
<title>182&#45;&gt;161</title>
<path fill="none" stroke="black" d="M1007.83,-224.52C1049.29,-237.2 1103.22,-253.69 1146.45,-266.91"/>
<polygon fill="black" stroke="black" points="1145.48,-270.27 1156.07,-269.85 1147.53,-263.58 1145.48,-270.27"/>
</g>
<!-- 182&#45;&gt;169 -->
<g id="edge17" class="edge">
<title>182&#45;&gt;169</title>
<path fill="none" stroke="black" d="M1046.5,-211.09C1123.36,-218.56 1229.58,-234.67 1317,-269.4 1354.15,-284.16 1391.63,-308.25 1421.16,-329.87"/>
<polygon fill="none" stroke="black" points="1415.11,-338.46 1445.33,-348.31 1427.85,-321.76 1415.11,-338.46"/>
</g>
</g>
</svg>
