<?xml version="1.0" encoding="UTF-8" standalone="no"?>
<!DOCTYPE svg PUBLIC "-//W3C//DTD SVG 1.1//EN"
 "http://www.w3.org/Graphics/SVG/1.1/DTD/svg11.dtd">
<!-- Generated by graphviz version 5.0.0 (20220707.1540)
 -->
<!-- Title: StorageDiagram Pages: 1 -->
<svg width="2446pt" height="906pt"
 viewBox="0.00 0.00 2446.36 905.80" xmlns="http://www.w3.org/2000/svg" xmlns:xlink="http://www.w3.org/1999/xlink">
<g id="graph0" class="graph" transform="scale(1 1) rotate(0) translate(4 901.8)">
<title>StorageDiagram</title>
<polygon fill="white" stroke="transparent" points="-4,4 -4,-901.8 2442.36,-901.8 2442.36,4 -4,4"/>
<!-- 8 -->
<g id="node1" class="node">
<title>8</title>
<polygon fill="#f2f2f2" stroke="black" points="0,-106.1 0,-850.1 1197.38,-850.1 1197.38,-106.1 0,-106.1"/>
<text text-anchor="middle" x="598.69" y="-833.5" font-family="Courier New" font-size="14.00">VaultCore &lt;&lt;Contract&gt;&gt;</text>
<polyline fill="none" stroke="black" points="0,-825.3 1197.38,-825.3 "/>
<text text-anchor="middle" x="33.2" y="-808.7" font-family="Courier New" font-size="14.00">slot</text>
<polyline fill="none" stroke="black" points="0,-800.5 66.41,-800.5 "/>
<text text-anchor="middle" x="33.2" y="-783.9" font-family="Courier New" font-size="14.00">0</text>
<polyline fill="none" stroke="black" points="0,-775.7 66.41,-775.7 "/>
<text text-anchor="middle" x="33.2" y="-759.1" font-family="Courier New" font-size="14.00">1&#45;50</text>
<polyline fill="none" stroke="black" points="0,-750.9 66.41,-750.9 "/>
<text text-anchor="middle" x="33.2" y="-734.3" font-family="Courier New" font-size="14.00">51</text>
<polyline fill="none" stroke="black" points="0,-726.1 66.41,-726.1 "/>
<text text-anchor="middle" x="33.2" y="-709.5" font-family="Courier New" font-size="14.00">52</text>
<polyline fill="none" stroke="black" points="0,-701.3 66.41,-701.3 "/>
<text text-anchor="middle" x="33.2" y="-684.7" font-family="Courier New" font-size="14.00">53</text>
<polyline fill="none" stroke="black" points="0,-676.5 66.41,-676.5 "/>
<text text-anchor="middle" x="33.2" y="-659.9" font-family="Courier New" font-size="14.00">54</text>
<polyline fill="none" stroke="black" points="0,-651.7 66.41,-651.7 "/>
<text text-anchor="middle" x="33.2" y="-635.1" font-family="Courier New" font-size="14.00">55</text>
<polyline fill="none" stroke="black" points="0,-626.9 66.41,-626.9 "/>
<text text-anchor="middle" x="33.2" y="-610.3" font-family="Courier New" font-size="14.00">56</text>
<polyline fill="none" stroke="black" points="0,-602.1 66.41,-602.1 "/>
<text text-anchor="middle" x="33.2" y="-585.5" font-family="Courier New" font-size="14.00">57</text>
<polyline fill="none" stroke="black" points="0,-577.3 66.41,-577.3 "/>
<text text-anchor="middle" x="33.2" y="-560.7" font-family="Courier New" font-size="14.00">58</text>
<polyline fill="none" stroke="black" points="0,-552.5 66.41,-552.5 "/>
<text text-anchor="middle" x="33.2" y="-535.9" font-family="Courier New" font-size="14.00">59</text>
<polyline fill="none" stroke="black" points="0,-527.7 66.41,-527.7 "/>
<text text-anchor="middle" x="33.2" y="-511.1" font-family="Courier New" font-size="14.00">60</text>
<polyline fill="none" stroke="black" points="0,-502.9 66.41,-502.9 "/>
<text text-anchor="middle" x="33.2" y="-486.3" font-family="Courier New" font-size="14.00">61</text>
<polyline fill="none" stroke="black" points="0,-478.1 66.41,-478.1 "/>
<text text-anchor="middle" x="33.2" y="-461.5" font-family="Courier New" font-size="14.00">62</text>
<polyline fill="none" stroke="black" points="0,-453.3 66.41,-453.3 "/>
<text text-anchor="middle" x="33.2" y="-436.7" font-family="Courier New" font-size="14.00">63</text>
<polyline fill="none" stroke="black" points="0,-428.5 66.41,-428.5 "/>
<text text-anchor="middle" x="33.2" y="-411.9" font-family="Courier New" font-size="14.00">64</text>
<polyline fill="none" stroke="black" points="0,-403.7 66.41,-403.7 "/>
<text text-anchor="middle" x="33.2" y="-387.1" font-family="Courier New" font-size="14.00">65</text>
<polyline fill="none" stroke="black" points="0,-378.9 66.41,-378.9 "/>
<text text-anchor="middle" x="33.2" y="-362.3" font-family="Courier New" font-size="14.00">66</text>
<polyline fill="none" stroke="black" points="0,-354.1 66.41,-354.1 "/>
<text text-anchor="middle" x="33.2" y="-337.5" font-family="Courier New" font-size="14.00">67</text>
<polyline fill="none" stroke="black" points="0,-329.3 66.41,-329.3 "/>
<text text-anchor="middle" x="33.2" y="-312.7" font-family="Courier New" font-size="14.00">68</text>
<polyline fill="none" stroke="black" points="0,-304.5 66.41,-304.5 "/>
<text text-anchor="middle" x="33.2" y="-287.9" font-family="Courier New" font-size="14.00">69</text>
<polyline fill="none" stroke="black" points="0,-279.7 66.41,-279.7 "/>
<text text-anchor="middle" x="33.2" y="-263.1" font-family="Courier New" font-size="14.00">70</text>
<polyline fill="none" stroke="black" points="0,-254.9 66.41,-254.9 "/>
<text text-anchor="middle" x="33.2" y="-238.3" font-family="Courier New" font-size="14.00">71</text>
<polyline fill="none" stroke="black" points="0,-230.1 66.41,-230.1 "/>
<text text-anchor="middle" x="33.2" y="-213.5" font-family="Courier New" font-size="14.00">72</text>
<polyline fill="none" stroke="black" points="0,-205.3 66.41,-205.3 "/>
<text text-anchor="middle" x="33.2" y="-188.7" font-family="Courier New" font-size="14.00">73</text>
<polyline fill="none" stroke="black" points="0,-180.5 66.41,-180.5 "/>
<text text-anchor="middle" x="33.2" y="-163.9" font-family="Courier New" font-size="14.00">74&#45;75</text>
<polyline fill="none" stroke="black" points="0,-155.7 66.41,-155.7 "/>
<text text-anchor="middle" x="33.2" y="-139.1" font-family="Courier New" font-size="14.00">76</text>
<polyline fill="none" stroke="black" points="0,-130.9 66.41,-130.9 "/>
<text text-anchor="middle" x="33.2" y="-114.3" font-family="Courier New" font-size="14.00">77&#45;122</text>
<polyline fill="none" stroke="black" points="66.41,-106.1 66.41,-825.3 "/>
<text text-anchor="middle" x="631.9" y="-808.7" font-family="Courier New" font-size="14.00">type: &lt;inherited contract&gt;.variable (bytes)</text>
<polyline fill="none" stroke="black" points="66.41,-800.5 1197.38,-800.5 "/>
<text text-anchor="middle" x="200.12" y="-783.9" font-family="Courier New" font-size="14.00">unallocated (30)</text>
<polyline fill="none" stroke="black" points="333.83,-775.7 333.83,-800.5 "/>
<text text-anchor="middle" x="551.55" y="-783.9" font-family="Courier New" font-size="14.00">bool: Initializable.initializing (1)</text>
<polyline fill="none" stroke="black" points="769.28,-775.7 769.28,-800.5 "/>
<text text-anchor="middle" x="983.3" y="-783.9" font-family="Courier New" font-size="14.00">bool: Initializable.initialized (1)</text>
<polyline fill="none" stroke="black" points="66.41,-775.7 1197.38,-775.7 "/>
<text text-anchor="middle" x="631.54" y="-759.1" font-family="Courier New" font-size="14.00">uint256[50]: Initializable.______gap (1600)</text>
<polyline fill="none" stroke="black" points="66.41,-750.9 1197.38,-750.9 "/>
<text text-anchor="middle" x="631.74" y="-734.3" font-family="Courier New" font-size="14.00">mapping(address=&gt;Asset): VaultStorage.assets (32)</text>
<polyline fill="none" stroke="black" points="66.41,-726.1 1197.38,-726.1 "/>
<text text-anchor="middle" x="631.53" y="-709.5" font-family="Courier New" font-size="14.00">address[]: VaultStorage.allAssets (32)</text>
<polyline fill="none" stroke="black" points="66.41,-701.3 1197.38,-701.3 "/>
<text text-anchor="middle" x="631.65" y="-684.7" font-family="Courier New" font-size="14.00">mapping(address=&gt;Strategy): VaultStorage.strategies (32)</text>
<polyline fill="none" stroke="black" points="66.41,-676.5 1197.38,-676.5 "/>
<text text-anchor="middle" x="631.84" y="-659.9" font-family="Courier New" font-size="14.00">address[]: VaultStorage.allStrategies (32)</text>
<polyline fill="none" stroke="black" points="66.41,-651.7 1197.38,-651.7 "/>
<text text-anchor="middle" x="141.62" y="-635.1" font-family="Courier New" font-size="14.00">unallocated (10)</text>
<polyline fill="none" stroke="black" points="216.83,-626.9 216.83,-651.7 "/>
<text text-anchor="middle" x="376.05" y="-635.1" font-family="Courier New" font-size="14.00">bool: VaultStorage.capitalPaused (1)</text>
<polyline fill="none" stroke="black" points="535.28,-626.9 535.28,-651.7 "/>
<text text-anchor="middle" x="690.3" y="-635.1" font-family="Courier New" font-size="14.00">bool: VaultStorage.rebasePaused (1)</text>
<polyline fill="none" stroke="black" points="845.33,-626.9 845.33,-651.7 "/>
<text text-anchor="middle" x="1021.35" y="-635.1" font-family="Courier New" font-size="14.00">address: VaultStorage.priceProvider (20)</text>
<polyline fill="none" stroke="black" points="66.41,-626.9 1197.38,-626.9 "/>
<text text-anchor="middle" x="631.73" y="-610.3" font-family="Courier New" font-size="14.00">uint256: VaultStorage.redeemFeeBps (32)</text>
<polyline fill="none" stroke="black" points="66.41,-602.1 1197.38,-602.1 "/>
<text text-anchor="middle" x="631.53" y="-585.5" font-family="Courier New" font-size="14.00">uint256: VaultStorage.vaultBuffer (32)</text>
<polyline fill="none" stroke="black" points="66.41,-577.3 1197.38,-577.3 "/>
<text text-anchor="middle" x="631.54" y="-560.7" font-family="Courier New" font-size="14.00">uint256: VaultStorage.autoAllocateThreshold (32)</text>
<polyline fill="none" stroke="black" points="66.41,-552.5 1197.38,-552.5 "/>
<text text-anchor="middle" x="631.84" y="-535.9" font-family="Courier New" font-size="14.00">uint256: VaultStorage.rebaseThreshold (32)</text>
<polyline fill="none" stroke="black" points="66.41,-527.7 1197.38,-527.7 "/>
<text text-anchor="middle" x="323.62" y="-511.1" font-family="Courier New" font-size="14.00">unallocated (12)</text>
<polyline fill="none" stroke="black" points="580.83,-502.9 580.83,-527.7 "/>
<text text-anchor="middle" x="888.95" y="-511.1" font-family="Courier New" font-size="14.00">OUSD: VaultStorage.oUSD (20)</text>
<polyline fill="none" stroke="black" points="66.41,-502.9 1197.38,-502.9 "/>
<text text-anchor="middle" x="269.12" y="-486.3" font-family="Courier New" font-size="14.00">unallocated (12)</text>
<polyline fill="none" stroke="black" points="471.83,-478.1 471.83,-502.9 "/>
<text text-anchor="middle" x="834.17" y="-486.3" font-family="Courier New" font-size="14.00">address: VaultStorage._deprecated_rebaseHooksAddr (20)</text>
<polyline fill="none" stroke="black" points="66.41,-478.1 1197.38,-478.1 "/>
<text text-anchor="middle" x="277.62" y="-461.5" font-family="Courier New" font-size="14.00">unallocated (12)</text>
<polyline fill="none" stroke="black" points="488.83,-453.3 488.83,-478.1 "/>
<text text-anchor="middle" x="842.86" y="-461.5" font-family="Courier New" font-size="14.00">address: VaultStorage._deprecated_uniswapAddr (20)</text>
<polyline fill="none" stroke="black" points="66.41,-453.3 1197.38,-453.3 "/>
<text text-anchor="middle" x="296.62" y="-436.7" font-family="Courier New" font-size="14.00">unallocated (12)</text>
<polyline fill="none" stroke="black" points="526.83,-428.5 526.83,-453.3 "/>
<text text-anchor="middle" x="862.06" y="-436.7" font-family="Courier New" font-size="14.00">address: VaultStorage.strategistAddr (20)</text>
<polyline fill="none" stroke="black" points="66.41,-428.5 1197.38,-428.5 "/>
<text text-anchor="middle" x="631.85" y="-411.9" font-family="Courier New" font-size="14.00">mapping(address=&gt;address): VaultStorage.assetDefaultStrategies (32)</text>
<polyline fill="none" stroke="black" points="66.41,-403.7 1197.38,-403.7 "/>
<text text-anchor="middle" x="631.44" y="-387.1" font-family="Courier New" font-size="14.00">uint256: VaultStorage.maxSupplyDiff (32)</text>
<polyline fill="none" stroke="black" points="66.41,-378.9 1197.38,-378.9 "/>
<text text-anchor="middle" x="296.62" y="-362.3" font-family="Courier New" font-size="14.00">unallocated (12)</text>
<polyline fill="none" stroke="black" points="526.83,-354.1 526.83,-378.9 "/>
<text text-anchor="middle" x="862.06" y="-362.3" font-family="Courier New" font-size="14.00">address: VaultStorage.trusteeAddress (20)</text>
<polyline fill="none" stroke="black" points="66.41,-354.1 1197.38,-354.1 "/>
<text text-anchor="middle" x="631.44" y="-337.5" font-family="Courier New" font-size="14.00">uint256: VaultStorage.trusteeFeeBps (32)</text>
<polyline fill="none" stroke="black" points="66.41,-329.3 1197.38,-329.3 "/>
<text text-anchor="middle" x="631.64" y="-312.7" font-family="Courier New" font-size="14.00">address[]: VaultStorage._deprecated_swapTokens (32)</text>
<polyline fill="none" stroke="black" points="66.41,-304.5 1197.38,-304.5 "/>
<text text-anchor="middle" x="292.12" y="-287.9" font-family="Courier New" font-size="14.00">unallocated (12)</text>
<polyline fill="none" stroke="black" points="517.83,-279.7 517.83,-304.5 "/>
<text text-anchor="middle" x="857.46" y="-287.9" font-family="Courier New" font-size="14.00">address: VaultStorage.ousdMetaStrategy (20)</text>
<polyline fill="none" stroke="black" points="66.41,-279.7 1197.38,-279.7 "/>
<text text-anchor="middle" x="631.44" y="-263.1" font-family="Courier New" font-size="14.00">int256: VaultStorage.netOusdMintedForStrategy (32)</text>
<polyline fill="none" stroke="black" points="66.41,-254.9 1197.38,-254.9 "/>
<text text-anchor="middle" x="631.55" y="-238.3" font-family="Courier New" font-size="14.00">uint256: VaultStorage.netOusdMintForStrategyThreshold (32)</text>
<polyline fill="none" stroke="black" points="66.41,-230.1 1197.38,-230.1 "/>
<text text-anchor="middle" x="631.44" y="-213.5" font-family="Courier New" font-size="14.00">SwapConfig: VaultStorage.swapConfig (32)</text>
<polyline fill="none" stroke="black" points="66.41,-205.3 1197.38,-205.3 "/>
<text text-anchor="middle" x="311.12" y="-188.7" font-family="Courier New" font-size="14.00">unallocated (12)</text>
<polyline fill="none" stroke="black" points="555.83,-180.5 555.83,-205.3 "/>
<text text-anchor="middle" x="876.15" y="-188.7" font-family="Courier New" font-size="14.00">address: VaultStorage.dripper (20)</text>
<polyline fill="none" stroke="black" points="66.41,-180.5 1197.38,-180.5 "/>
<text text-anchor="middle" x="631.65" y="-163.9" font-family="Courier New" font-size="14.00">WithdrawalQueueMetadata: VaultStorage.withdrawalQueueMetadata (64)</text>
<polyline fill="none" stroke="black" points="66.41,-155.7 1197.38,-155.7 "/>
<text text-anchor="middle" x="631.56" y="-139.1" font-family="Courier New" font-size="14.00">mapping(uint256=&gt;WithdrawalRequest): VaultStorage.withdrawalRequests (32)</text>
<polyline fill="none" stroke="black" points="66.41,-130.9 1197.38,-130.9 "/>
<text text-anchor="middle" x="631.53" y="-114.3" font-family="Courier New" font-size="14.00">uint256[46]: VaultStorage.__gap (1472)</text>
</g>
<!-- 1 -->
<g id="node2" class="node">
<title>1</title>
<polygon fill="#f2f2f2" stroke="black" points="1233.38,-822.9 1233.38,-897.3 2438.36,-897.3 2438.36,-822.9 1233.38,-822.9"/>
<text text-anchor="middle" x="1835.87" y="-880.7" font-family="Courier New" font-size="14.00">Asset &lt;&lt;Struct&gt;&gt;</text>
<polyline fill="none" stroke="black" points="1233.38,-872.5 2438.36,-872.5 "/>
<text text-anchor="middle" x="1266.59" y="-855.9" font-family="Courier New" font-size="14.00">offset</text>
<polyline fill="none" stroke="black" points="1233.38,-847.7 1299.79,-847.7 "/>
<text text-anchor="middle" x="1266.59" y="-831.1" font-family="Courier New" font-size="14.00">0</text>
<polyline fill="none" stroke="black" points="1299.79,-822.9 1299.79,-872.5 "/>
<text text-anchor="middle" x="1869.08" y="-855.9" font-family="Courier New" font-size="14.00">type: variable (bytes)</text>
<polyline fill="none" stroke="black" points="1299.79,-847.7 2438.36,-847.7 "/>
<text text-anchor="middle" x="1375" y="-831.1" font-family="Courier New" font-size="14.00">unallocated (27)</text>
<polyline fill="none" stroke="black" points="1450.21,-822.9 1450.21,-847.7 "/>
<text text-anchor="middle" x="1609.44" y="-831.1" font-family="Courier New" font-size="14.00">uint16: allowedOracleSlippageBps (2)</text>
<polyline fill="none" stroke="black" points="1768.66,-822.9 1768.66,-847.7 "/>
<text text-anchor="middle" x="1856.47" y="-831.1" font-family="Courier New" font-size="14.00">uint8: decimals (1)</text>
<polyline fill="none" stroke="black" points="1944.29,-822.9 1944.29,-847.7 "/>
<text text-anchor="middle" x="2095.11" y="-831.1" font-family="Courier New" font-size="14.00">UnitConversion: unitConversion (1)</text>
<polyline fill="none" stroke="black" points="2245.93,-822.9 2245.93,-847.7 "/>
<text text-anchor="middle" x="2342.15" y="-831.1" font-family="Courier New" font-size="14.00">bool: isSupported (1)</text>
</g>
<!-- 8&#45;&gt;1 -->
<g id="edge1" class="edge">
<title>8:8&#45;&gt;1</title>
<path fill="none" stroke="black" d="M1197.38,-738.1C1234.36,-738.1 1202.88,-792.2 1233.38,-813.1 1235.36,-814.45 1237.34,-815.79 1239.34,-817.1"/>
<polygon fill="black" stroke="black" points="1237.87,-820.31 1248.19,-822.72 1241.63,-814.4 1237.87,-820.31"/>
</g>
<!-- 2 -->
<g id="node3" class="node">
<title>2</title>
<polygon fill="#f2f2f2" stroke="black" points="1550.63,-712.5 1550.63,-803.7 2121.12,-803.7 2121.12,-712.5 1550.63,-712.5"/>
<text text-anchor="middle" x="1835.87" y="-787.1" font-family="Courier New" font-size="14.00">address[]: allAssets &lt;&lt;Array&gt;&gt;</text>
<text text-anchor="middle" x="1835.87" y="-770.3" font-family="Courier New" font-size="14.00">0x46bddb1178e94d7f2892ff5f366840eb658911794f2c3a44c450aa2c505186c1</text>
<polyline fill="none" stroke="black" points="1550.63,-762.1 2121.12,-762.1 "/>
<text text-anchor="middle" x="1642.83" y="-745.5" font-family="Courier New" font-size="14.00">offset</text>
<polyline fill="none" stroke="black" points="1550.63,-737.3 1735.04,-737.3 "/>
<text text-anchor="middle" x="1642.83" y="-720.7" font-family="Courier New" font-size="14.00">0</text>
<polyline fill="none" stroke="black" points="1735.04,-712.5 1735.04,-762.1 "/>
<text text-anchor="middle" x="1927.65" y="-745.5" font-family="Courier New" font-size="14.00">type: variable (bytes)</text>
<polyline fill="none" stroke="black" points="1735.04,-737.3 2120.27,-737.3 "/>
<text text-anchor="middle" x="1839.75" y="-720.7" font-family="Courier New" font-size="14.00">unallocated (12)</text>
<polyline fill="none" stroke="black" points="1944.46,-712.5 1944.46,-737.3 "/>
<text text-anchor="middle" x="2032.37" y="-720.7" font-family="Courier New" font-size="14.00">address (20)</text>
</g>
<!-- 8&#45;&gt;2 -->
<g id="edge2" class="edge">
<title>8:10&#45;&gt;2</title>
<path fill="none" stroke="black" d="M1197.38,-714.1C1309.53,-714.1 1432.52,-720.96 1540.3,-729.27"/>
<polygon fill="black" stroke="black" points="1540.11,-732.76 1550.35,-730.05 1540.65,-725.78 1540.11,-732.76"/>
</g>
<!-- 3 -->
<g id="node4" class="node">
<title>3</title>
<polygon fill="#f2f2f2" stroke="black" points="1631.24,-594.5 1631.24,-693.7 2040.5,-693.7 2040.5,-594.5 1631.24,-594.5"/>
<text text-anchor="middle" x="1835.87" y="-677.1" font-family="Courier New" font-size="14.00">Strategy &lt;&lt;Struct&gt;&gt;</text>
<polyline fill="none" stroke="black" points="1631.24,-668.9 2040.5,-668.9 "/>
<text text-anchor="middle" x="1664.45" y="-652.3" font-family="Courier New" font-size="14.00">offset</text>
<polyline fill="none" stroke="black" points="1631.24,-644.1 1697.65,-644.1 "/>
<text text-anchor="middle" x="1664.45" y="-627.5" font-family="Courier New" font-size="14.00">0</text>
<polyline fill="none" stroke="black" points="1631.24,-619.3 1697.65,-619.3 "/>
<text text-anchor="middle" x="1664.45" y="-602.7" font-family="Courier New" font-size="14.00">1</text>
<polyline fill="none" stroke="black" points="1697.65,-594.5 1697.65,-668.9 "/>
<text text-anchor="middle" x="1869.08" y="-652.3" font-family="Courier New" font-size="14.00">type: variable (bytes)</text>
<polyline fill="none" stroke="black" points="1697.65,-644.1 2040.5,-644.1 "/>
<text text-anchor="middle" x="1772.86" y="-627.5" font-family="Courier New" font-size="14.00">unallocated (31)</text>
<polyline fill="none" stroke="black" points="1848.07,-619.3 1848.07,-644.1 "/>
<text text-anchor="middle" x="1944.29" y="-627.5" font-family="Courier New" font-size="14.00">bool: isSupported (1)</text>
<polyline fill="none" stroke="black" points="1697.65,-619.3 2040.5,-619.3 "/>
<text text-anchor="middle" x="1868.67" y="-602.7" font-family="Courier New" font-size="14.00">uint256: _deprecated (32)</text>
</g>
<!-- 8&#45;&gt;3 -->
<g id="edge3" class="edge">
<title>8:13&#45;&gt;3</title>
<path fill="none" stroke="black" d="M1197.38,-689.1C1338.76,-689.1 1497.34,-677.95 1620.97,-666.75"/>
<polygon fill="black" stroke="black" points="1621.29,-670.24 1630.93,-665.84 1620.66,-663.27 1621.29,-670.24"/>
</g>
<!-- 4 -->
<g id="node5" class="node">
<title>4</title>
<polygon fill="#f2f2f2" stroke="black" points="1550.63,-484.5 1550.63,-575.7 2121.12,-575.7 2121.12,-484.5 1550.63,-484.5"/>
<text text-anchor="middle" x="1835.87" y="-559.1" font-family="Courier New" font-size="14.00">address[]: allStrategies &lt;&lt;Array&gt;&gt;</text>
<text text-anchor="middle" x="1835.87" y="-542.3" font-family="Courier New" font-size="14.00">0x4a11f94e20a93c79f6ec743a1954ec4fc2c08429ae2122118bf234b2185c81b8</text>
<polyline fill="none" stroke="black" points="1550.63,-534.1 2121.12,-534.1 "/>
<text text-anchor="middle" x="1642.83" y="-517.5" font-family="Courier New" font-size="14.00">offset</text>
<polyline fill="none" stroke="black" points="1550.63,-509.3 1735.04,-509.3 "/>
<text text-anchor="middle" x="1642.83" y="-492.7" font-family="Courier New" font-size="14.00">0</text>
<polyline fill="none" stroke="black" points="1735.04,-484.5 1735.04,-534.1 "/>
<text text-anchor="middle" x="1927.65" y="-517.5" font-family="Courier New" font-size="14.00">type: variable (bytes)</text>
<polyline fill="none" stroke="black" points="1735.04,-509.3 2120.27,-509.3 "/>
<text text-anchor="middle" x="1839.75" y="-492.7" font-family="Courier New" font-size="14.00">unallocated (12)</text>
<polyline fill="none" stroke="black" points="1944.46,-484.5 1944.46,-509.3 "/>
<text text-anchor="middle" x="2032.37" y="-492.7" font-family="Courier New" font-size="14.00">address (20)</text>
</g>
<!-- 8&#45;&gt;4 -->
<g id="edge4" class="edge">
<title>8:15&#45;&gt;4</title>
<path fill="none" stroke="black" d="M1197.38,-664.1C1235.97,-664.1 1201.92,-607.43 1233.38,-585.1 1321.09,-522.85 1435.07,-501.66 1540.19,-498.61"/>
<polygon fill="black" stroke="black" points="1540.42,-502.1 1550.33,-498.37 1540.25,-495.11 1540.42,-502.1"/>
</g>
<!-- 5 -->
<g id="node6" class="node">
<title>5</title>
<polygon fill="#f2f2f2" stroke="black" points="1497.22,-236.9 1497.22,-311.3 2174.52,-311.3 2174.52,-236.9 1497.22,-236.9"/>
<text text-anchor="middle" x="1835.87" y="-294.7" font-family="Courier New" font-size="14.00">SwapConfig &lt;&lt;Struct&gt;&gt;</text>
<polyline fill="none" stroke="black" points="1497.22,-286.5 2174.52,-286.5 "/>
<text text-anchor="middle" x="1522.02" y="-269.9" font-family="Courier New" font-size="14.00">slot</text>
<polyline fill="none" stroke="black" points="1497.22,-261.7 1546.83,-261.7 "/>
<text text-anchor="middle" x="1522.02" y="-245.1" font-family="Courier New" font-size="14.00">72</text>
<polyline fill="none" stroke="black" points="1546.83,-236.9 1546.83,-286.5 "/>
<text text-anchor="middle" x="1860.67" y="-269.9" font-family="Courier New" font-size="14.00">type: variable (bytes)</text>
<polyline fill="none" stroke="black" points="1546.83,-261.7 2174.52,-261.7 "/>
<text text-anchor="middle" x="1622.04" y="-245.1" font-family="Courier New" font-size="14.00">unallocated (10)</text>
<polyline fill="none" stroke="black" points="1697.25,-236.9 1697.25,-261.7 "/>
<text text-anchor="middle" x="1839.67" y="-245.1" font-family="Courier New" font-size="14.00">uint16: allowedUndervalueBps (2)</text>
<polyline fill="none" stroke="black" points="1982.09,-236.9 1982.09,-261.7 "/>
<text text-anchor="middle" x="2078.31" y="-245.1" font-family="Courier New" font-size="14.00">address: swapper (20)</text>
</g>
<!-- 8&#45;&gt;5 -->
<g id="edge5" class="edge">
<title>8:37&#45;&gt;5</title>
<path fill="none" stroke="black" d="M1197.38,-218.1C1213.87,-218.1 1217.1,-224.45 1233.38,-227.1 1314.97,-240.39 1403.41,-249.95 1486.73,-256.82"/>
<polygon fill="black" stroke="black" points="1486.62,-260.33 1496.87,-257.65 1487.18,-253.35 1486.62,-260.33"/>
</g>
<!-- 6 -->
<g id="node7" class="node">
<title>6</title>
<polygon fill="#f2f2f2" stroke="black" points="1568.23,-118.5 1568.23,-217.7 2103.51,-217.7 2103.51,-118.5 1568.23,-118.5"/>
<text text-anchor="middle" x="1835.87" y="-201.1" font-family="Courier New" font-size="14.00">WithdrawalQueueMetadata &lt;&lt;Struct&gt;&gt;</text>
<polyline fill="none" stroke="black" points="1568.23,-192.9 2103.51,-192.9 "/>
<text text-anchor="middle" x="1593.04" y="-176.3" font-family="Courier New" font-size="14.00">slot</text>
<polyline fill="none" stroke="black" points="1568.23,-168.1 1617.84,-168.1 "/>
<text text-anchor="middle" x="1593.04" y="-151.5" font-family="Courier New" font-size="14.00">74</text>
<polyline fill="none" stroke="black" points="1568.23,-143.3 1617.84,-143.3 "/>
<text text-anchor="middle" x="1593.04" y="-126.7" font-family="Courier New" font-size="14.00">75</text>
<polyline fill="none" stroke="black" points="1617.84,-118.5 1617.84,-192.9 "/>
<text text-anchor="middle" x="1860.67" y="-176.3" font-family="Courier New" font-size="14.00">type: variable (bytes)</text>
<polyline fill="none" stroke="black" points="1617.84,-168.1 2103.51,-168.1 "/>
<text text-anchor="middle" x="1745.45" y="-151.5" font-family="Courier New" font-size="14.00">uint128: claimable (16)</text>
<polyline fill="none" stroke="black" points="1873.07,-143.3 1873.07,-168.1 "/>
<text text-anchor="middle" x="1988.08" y="-151.5" font-family="Courier New" font-size="14.00">uint128: queued (16)</text>
<polyline fill="none" stroke="black" points="1617.84,-143.3 2103.51,-143.3 "/>
<text text-anchor="middle" x="1764.46" y="-126.7" font-family="Courier New" font-size="14.00">uint128: nextWithdrawalIndex (16)</text>
<polyline fill="none" stroke="black" points="1911.08,-118.5 1911.08,-143.3 "/>
<text text-anchor="middle" x="2007.3" y="-126.7" font-family="Courier New" font-size="14.00">uint128: claimed (16)</text>
</g>
<!-- 8&#45;&gt;6 -->
<g id="edge6" class="edge">
<title>8:43&#45;&gt;6</title>
<path fill="none" stroke="black" d="M1197.38,-168.1C1315.56,-168.1 1446.06,-168.1 1558.04,-168.1"/>
<polygon fill="black" stroke="black" points="1558.13,-171.6 1568.13,-168.1 1558.13,-164.6 1558.13,-171.6"/>
</g>
<!-- 7 -->
<g id="node8" class="node">
<title>7</title>
<polygon fill="#f2f2f2" stroke="black" points="1447.22,-0.5 1447.22,-99.7 2224.53,-99.7 2224.53,-0.5 1447.22,-0.5"/>
<text text-anchor="middle" x="1835.87" y="-83.1" font-family="Courier New" font-size="14.00">WithdrawalRequest &lt;&lt;Struct&gt;&gt;</text>
<polyline fill="none" stroke="black" points="1447.22,-74.9 2224.53,-74.9 "/>
<text text-anchor="middle" x="1480.42" y="-58.3" font-family="Courier New" font-size="14.00">offset</text>
<polyline fill="none" stroke="black" points="1447.22,-50.1 1513.62,-50.1 "/>
<text text-anchor="middle" x="1480.42" y="-33.5" font-family="Courier New" font-size="14.00">0</text>
<polyline fill="none" stroke="black" points="1447.22,-25.3 1513.62,-25.3 "/>
<text text-anchor="middle" x="1480.42" y="-8.7" font-family="Courier New" font-size="14.00">1</text>
<polyline fill="none" stroke="black" points="1513.62,-0.5 1513.62,-74.9 "/>
<text text-anchor="middle" x="1869.08" y="-58.3" font-family="Courier New" font-size="14.00">type: variable (bytes)</text>
<polyline fill="none" stroke="black" points="1513.62,-50.1 2224.53,-50.1 "/>
<text text-anchor="middle" x="1584.63" y="-33.5" font-family="Courier New" font-size="14.00">unallocated (6)</text>
<polyline fill="none" stroke="black" points="1655.64,-25.3 1655.64,-50.1 "/>
<text text-anchor="middle" x="1751.86" y="-33.5" font-family="Courier New" font-size="14.00">uint40: timestamp (5)</text>
<polyline fill="none" stroke="black" points="1848.07,-25.3 1848.07,-50.1 "/>
<text text-anchor="middle" x="1927.48" y="-33.5" font-family="Courier New" font-size="14.00">bool: claimed (1)</text>
<polyline fill="none" stroke="black" points="2006.9,-25.3 2006.9,-50.1 "/>
<text text-anchor="middle" x="2115.71" y="-33.5" font-family="Courier New" font-size="14.00">address: withdrawer (20)</text>
<polyline fill="none" stroke="black" points="1513.62,-25.3 2224.53,-25.3 "/>
<text text-anchor="middle" x="1691.14" y="-8.7" font-family="Courier New" font-size="14.00">uint128: queued (16)</text>
<polyline fill="none" stroke="black" points="1868.65,-0.5 1868.65,-25.3 "/>
<text text-anchor="middle" x="2046.16" y="-8.7" font-family="Courier New" font-size="14.00">uint128: amount (16)</text>
</g>
<!-- 8&#45;&gt;7 -->
<g id="edge7" class="edge">
<title>8:49&#45;&gt;7</title>
<path fill="none" stroke="black" d="M1197.38,-143.1C1219.39,-143.1 1213.35,-118.22 1233.38,-109.1 1296.41,-80.4 1366.92,-62.58 1436.87,-51.93"/>
<polygon fill="black" stroke="black" points="1437.8,-55.33 1447.18,-50.41 1436.78,-48.4 1437.8,-55.33"/>
</g>
</g>
</svg>
