<?xml version="1.0" encoding="UTF-8" standalone="no"?>
<!DOCTYPE svg PUBLIC "-//W3C//DTD SVG 1.1//EN"
 "http://www.w3.org/Graphics/SVG/1.1/DTD/svg11.dtd">
<!-- Generated by graphviz version 5.0.0 (20220707.1540)
 -->
<!-- Title: UmlClassDiagram Pages: 1 -->
<svg width="1773pt" height="494pt"
 viewBox="0.00 0.00 1772.76 494.00" xmlns="http://www.w3.org/2000/svg" xmlns:xlink="http://www.w3.org/1999/xlink">
<g id="graph0" class="graph" transform="scale(1 1) rotate(0) translate(4 490)">
<title>UmlClassDiagram</title>
<polygon fill="white" stroke="transparent" points="-4,4 -4,-490 1768.76,-490 1768.76,4 -4,4"/>
<!-- 20 -->
<g id="node1" class="node">
<title>20</title>
<polygon fill="#f2f2f2" stroke="black" points="626.12,-340.1 626.12,-381.7 860.98,-381.7 860.98,-340.1 626.12,-340.1"/>
<text text-anchor="middle" x="743.55" y="-365.1" font-family="Times,serif" font-size="14.00">Governable</text>
<text text-anchor="middle" x="743.55" y="-348.3" font-family="Times,serif" font-size="14.00">../contracts/governance/Governable.sol</text>
</g>
<!-- 40 -->
<g id="node2" class="node">
<title>40</title>
<polygon fill="#f2f2f2" stroke="black" points="969.72,-79.1 969.72,-137.5 1177.37,-137.5 1177.37,-79.1 969.72,-79.1"/>
<text text-anchor="middle" x="1073.55" y="-120.9" font-family="Times,serif" font-size="14.00">&lt;&lt;Interface&gt;&gt;</text>
<text text-anchor="middle" x="1073.55" y="-104.1" font-family="Times,serif" font-size="14.00">IDripper</text>
<text text-anchor="middle" x="1073.55" y="-87.3" font-family="Times,serif" font-size="14.00">../contracts/interfaces/IDripper.sol</text>
</g>
<!-- 44 -->
<g id="node3" class="node">
<title>44</title>
<polygon fill="#f2f2f2" stroke="black" points="1195.08,-79.1 1195.08,-137.5 1496.01,-137.5 1496.01,-79.1 1195.08,-79.1"/>
<text text-anchor="middle" x="1345.55" y="-120.9" font-family="Times,serif" font-size="14.00">&lt;&lt;Interface&gt;&gt;</text>
<text text-anchor="middle" x="1345.55" y="-104.1" font-family="Times,serif" font-size="14.00">IGetExchangeRateToken</text>
<text text-anchor="middle" x="1345.55" y="-87.3" font-family="Times,serif" font-size="14.00">../contracts/interfaces/IGetExchangeRateToken.sol</text>
</g>
<!-- 51 -->
<g id="node4" class="node">
<title>51</title>
<polygon fill="#f2f2f2" stroke="black" points="521.84,-79.1 521.84,-137.5 723.25,-137.5 723.25,-79.1 521.84,-79.1"/>
<text text-anchor="middle" x="622.55" y="-120.9" font-family="Times,serif" font-size="14.00">&lt;&lt;Interface&gt;&gt;</text>
<text text-anchor="middle" x="622.55" y="-104.1" font-family="Times,serif" font-size="14.00">IOracle</text>
<text text-anchor="middle" x="622.55" y="-87.3" font-family="Times,serif" font-size="14.00">../contracts/interfaces/IOracle.sol</text>
</g>
<!-- 57 -->
<g id="node5" class="node">
<title>57</title>
<polygon fill="#f2f2f2" stroke="black" points="741.17,-79.1 741.17,-137.5 951.93,-137.5 951.93,-79.1 741.17,-79.1"/>
<text text-anchor="middle" x="846.55" y="-120.9" font-family="Times,serif" font-size="14.00">&lt;&lt;Interface&gt;&gt;</text>
<text text-anchor="middle" x="846.55" y="-104.1" font-family="Times,serif" font-size="14.00">IStrategy</text>
<text text-anchor="middle" x="846.55" y="-87.3" font-family="Times,serif" font-size="14.00">../contracts/interfaces/IStrategy.sol</text>
</g>
<!-- 58 -->
<g id="node6" class="node">
<title>58</title>
<polygon fill="#f2f2f2" stroke="black" points="0,-79.1 0,-137.5 213.09,-137.5 213.09,-79.1 0,-79.1"/>
<text text-anchor="middle" x="106.55" y="-120.9" font-family="Times,serif" font-size="14.00">&lt;&lt;Interface&gt;&gt;</text>
<text text-anchor="middle" x="106.55" y="-104.1" font-family="Times,serif" font-size="14.00">ISwapper</text>
<text text-anchor="middle" x="106.55" y="-87.3" font-family="Times,serif" font-size="14.00">../contracts/interfaces/ISwapper.sol</text>
</g>
<!-- 61 -->
<g id="node7" class="node">
<title>61</title>
<polygon fill="#f2f2f2" stroke="black" points="269.94,-79.1 269.94,-137.5 465.15,-137.5 465.15,-79.1 269.94,-79.1"/>
<text text-anchor="middle" x="367.55" y="-120.9" font-family="Times,serif" font-size="14.00">&lt;&lt;Interface&gt;&gt;</text>
<text text-anchor="middle" x="367.55" y="-104.1" font-family="Times,serif" font-size="14.00">IVault</text>
<text text-anchor="middle" x="367.55" y="-87.3" font-family="Times,serif" font-size="14.00">../contracts/interfaces/IVault.sol</text>
</g>
<!-- 226 -->
<g id="node14" class="node">
<title>226</title>
<polygon fill="#f2f2f2" stroke="black" points="679.1,-174.5 679.1,-216.1 886,-216.1 886,-174.5 679.1,-174.5"/>
<text text-anchor="middle" x="782.55" y="-199.5" font-family="Times,serif" font-size="14.00">VaultStorage</text>
<text text-anchor="middle" x="782.55" y="-182.7" font-family="Times,serif" font-size="14.00">../contracts/vault/VaultStorage.sol</text>
</g>
<!-- 61&#45;&gt;226 -->
<g id="edge1" class="edge">
<title>61&#45;&gt;226</title>
<path fill="none" stroke="black" stroke-dasharray="5,2" d="M465.19,-134.73C470.04,-135.87 474.84,-136.96 479.55,-138 541.77,-151.74 611.68,-164.88 668.65,-175"/>
<polygon fill="black" stroke="black" points="668.32,-178.5 678.77,-176.8 669.54,-171.61 668.32,-178.5"/>
</g>
<!-- 205 -->
<g id="node8" class="node">
<title>205</title>
<polygon fill="#f2f2f2" stroke="black" points="889.42,-253.1 889.42,-294.7 1063.68,-294.7 1063.68,-253.1 889.42,-253.1"/>
<text text-anchor="middle" x="976.55" y="-278.1" font-family="Times,serif" font-size="14.00">OUSD</text>
<text text-anchor="middle" x="976.55" y="-261.3" font-family="Times,serif" font-size="14.00">../contracts/token/OUSD.sol</text>
</g>
<!-- 205&#45;&gt;20 -->
<g id="edge4" class="edge">
<title>205&#45;&gt;20</title>
<path fill="none" stroke="black" d="M922.21,-294.72C893.74,-305.11 858.25,-318.05 826.43,-329.66"/>
<polygon fill="none" stroke="black" points="822.55,-319.9 797.97,-340.05 829.75,-339.63 822.55,-319.9"/>
</g>
<!-- 213 -->
<g id="node9" class="node">
<title>213</title>
<polygon fill="#f2f2f2" stroke="black" points="878.54,-331.7 878.54,-390.1 1074.55,-390.1 1074.55,-331.7 878.54,-331.7"/>
<text text-anchor="middle" x="976.55" y="-373.5" font-family="Times,serif" font-size="14.00">&lt;&lt;Abstract&gt;&gt;</text>
<text text-anchor="middle" x="976.55" y="-356.7" font-family="Times,serif" font-size="14.00">Initializable</text>
<text text-anchor="middle" x="976.55" y="-339.9" font-family="Times,serif" font-size="14.00">../contracts/utils/Initializable.sol</text>
</g>
<!-- 205&#45;&gt;213 -->
<g id="edge2" class="edge">
<title>205&#45;&gt;213</title>
<path fill="none" stroke="black" d="M976.55,-295.04C976.55,-297.09 976.55,-299.23 976.55,-301.43"/>
<polygon fill="none" stroke="black" points="966.05,-301.54 976.55,-331.54 987.05,-301.54 966.05,-301.54"/>
</g>
<!-- 216 -->
<g id="node10" class="node">
<title>216</title>
<polygon fill="#f2f2f2" stroke="black" points="1092.22,-331.7 1092.22,-390.1 1376.88,-390.1 1376.88,-331.7 1092.22,-331.7"/>
<text text-anchor="middle" x="1234.55" y="-373.5" font-family="Times,serif" font-size="14.00">&lt;&lt;Abstract&gt;&gt;</text>
<text text-anchor="middle" x="1234.55" y="-356.7" font-family="Times,serif" font-size="14.00">InitializableERC20Detailed</text>
<text text-anchor="middle" x="1234.55" y="-339.9" font-family="Times,serif" font-size="14.00">../contracts/utils/InitializableERC20Detailed.sol</text>
</g>
<!-- 205&#45;&gt;216 -->
<g id="edge3" class="edge">
<title>205&#45;&gt;216</title>
<path fill="none" stroke="black" d="M1036.71,-294.72C1061.6,-302.92 1091.31,-312.71 1120.06,-322.18"/>
<polygon fill="none" stroke="black" points="1117.06,-332.25 1148.84,-331.66 1123.63,-312.3 1117.06,-332.25"/>
</g>
<!-- 695 -->
<g id="node15" class="node">
<title>695</title>
<polygon fill="#f2f2f2" stroke="black" points="1032.49,-427.1 1032.49,-485.5 1436.6,-485.5 1436.6,-427.1 1032.49,-427.1"/>
<text text-anchor="middle" x="1234.55" y="-468.9" font-family="Times,serif" font-size="14.00">&lt;&lt;Interface&gt;&gt;</text>
<text text-anchor="middle" x="1234.55" y="-452.1" font-family="Times,serif" font-size="14.00">IERC20</text>
<text text-anchor="middle" x="1234.55" y="-435.3" font-family="Times,serif" font-size="14.00">../node_modules/@openzeppelin/contracts/token/ERC20/IERC20.sol</text>
</g>
<!-- 216&#45;&gt;695 -->
<g id="edge5" class="edge">
<title>216&#45;&gt;695</title>
<path fill="none" stroke="black" stroke-dasharray="5,2" d="M1234.55,-390.18C1234.55,-392.26 1234.55,-394.4 1234.55,-396.58"/>
<polygon fill="none" stroke="black" points="1224.05,-396.8 1234.55,-426.8 1245.05,-396.8 1224.05,-396.8"/>
</g>
<!-- 223 -->
<g id="node11" class="node">
<title>223</title>
<polygon fill="#f2f2f2" stroke="black" points="392.03,-0.5 392.03,-42.1 595.06,-42.1 595.06,-0.5 392.03,-0.5"/>
<text text-anchor="middle" x="493.55" y="-25.5" font-family="Times,serif" font-size="14.00">VaultAdmin</text>
<text text-anchor="middle" x="493.55" y="-8.7" font-family="Times,serif" font-size="14.00">../contracts/vault/VaultAdmin.sol</text>
</g>
<!-- 223&#45;&gt;51 -->
<g id="edge10" class="edge">
<title>223&#45;&gt;51</title>
<path fill="none" stroke="black" stroke-dasharray="5,2" d="M523.79,-42.23C537.74,-51.42 554.7,-62.6 570.6,-73.07"/>
<polygon fill="black" stroke="black" points="569.03,-76.23 579.3,-78.81 572.88,-70.38 569.03,-76.23"/>
</g>
<!-- 223&#45;&gt;57 -->
<g id="edge7" class="edge">
<title>223&#45;&gt;57</title>
<path fill="none" stroke="black" stroke-dasharray="5,2" d="M579.07,-42.11C622.09,-52.16 675.28,-64.7 730.93,-78.22"/>
<polygon fill="black" stroke="black" points="730.43,-81.7 740.97,-80.66 732.09,-74.9 730.43,-81.7"/>
</g>
<!-- 223&#45;&gt;58 -->
<g id="edge9" class="edge">
<title>223&#45;&gt;58</title>
<path fill="none" stroke="black" stroke-dasharray="5,2" d="M397.08,-42.13C346.53,-52.67 283.62,-66.02 227.55,-78.6 226.1,-78.92 224.64,-79.25 223.18,-79.58"/>
<polygon fill="black" stroke="black" points="222.38,-76.18 213.4,-81.81 223.93,-83 222.38,-76.18"/>
</g>
<!-- 223&#45;&gt;61 -->
<g id="edge11" class="edge">
<title>223&#45;&gt;61</title>
<path fill="none" stroke="black" stroke-dasharray="5,2" d="M464.01,-42.23C450.38,-51.42 433.81,-62.6 418.28,-73.07"/>
<polygon fill="black" stroke="black" points="416.12,-70.31 409.79,-78.81 420.03,-76.11 416.12,-70.31"/>
</g>
<!-- 223&#45;&gt;226 -->
<g id="edge6" class="edge">
<title>223&#45;&gt;226</title>
<path fill="none" stroke="black" d="M490.6,-42.44C488.07,-68.17 488.04,-112.42 512.55,-138 532.12,-158.43 591.14,-171.99 649.02,-180.68"/>
<polygon fill="none" stroke="black" points="647.83,-191.11 678.98,-184.78 650.68,-170.3 647.83,-191.11"/>
</g>
<!-- 223&#45;&gt;695 -->
<g id="edge8" class="edge">
<title>223&#45;&gt;695</title>
<path fill="none" stroke="black" stroke-dasharray="5,2" d="M391.9,-35.6C337.83,-44.79 278.81,-58.93 260.55,-78.6 225.09,-116.79 241.55,-142.19 241.55,-194.3 241.55,-194.3 241.55,-194.3 241.55,-274.9 241.55,-353.58 730.4,-410.66 1022.11,-437.72"/>
<polygon fill="black" stroke="black" points="1022.12,-441.23 1032.4,-438.67 1022.77,-434.26 1022.12,-441.23"/>
</g>
<!-- 224 -->
<g id="node12" class="node">
<title>224</title>
<polygon fill="#f2f2f2" stroke="black" points="1388.87,-0.5 1388.87,-42.1 1580.22,-42.1 1580.22,-0.5 1388.87,-0.5"/>
<text text-anchor="middle" x="1484.55" y="-25.5" font-family="Times,serif" font-size="14.00">VaultCore</text>
<text text-anchor="middle" x="1484.55" y="-8.7" font-family="Times,serif" font-size="14.00">../contracts/vault/VaultCore.sol</text>
</g>
<!-- 224&#45;&gt;40 -->
<g id="edge13" class="edge">
<title>224&#45;&gt;40</title>
<path fill="none" stroke="black" stroke-dasharray="5,2" d="M1388.62,-38.86C1332.57,-48.91 1260.29,-62.5 1187.37,-78.46"/>
<polygon fill="black" stroke="black" points="1186.56,-75.06 1177.55,-80.63 1188.07,-81.89 1186.56,-75.06"/>
</g>
<!-- 224&#45;&gt;44 -->
<g id="edge17" class="edge">
<title>224&#45;&gt;44</title>
<path fill="none" stroke="black" stroke-dasharray="5,2" d="M1451.96,-42.23C1436.72,-51.55 1418.15,-62.9 1400.81,-73.51"/>
<polygon fill="black" stroke="black" points="1398.58,-70.76 1391.88,-78.97 1402.24,-76.74 1398.58,-70.76"/>
</g>
<!-- 224&#45;&gt;51 -->
<g id="edge16" class="edge">
<title>224&#45;&gt;51</title>
<path fill="none" stroke="black" stroke-dasharray="5,2" d="M1388.62,-23.95C1247.01,-27.62 973.74,-39.38 733.37,-78.59"/>
<polygon fill="black" stroke="black" points="732.69,-75.15 723.4,-80.23 733.83,-82.06 732.69,-75.15"/>
</g>
<!-- 224&#45;&gt;57 -->
<g id="edge15" class="edge">
<title>224&#45;&gt;57</title>
<path fill="none" stroke="black" stroke-dasharray="5,2" d="M1388.84,-28.55C1285.62,-36.21 1116.4,-51.41 962.16,-78.4"/>
<polygon fill="black" stroke="black" points="961.26,-75.01 952.02,-80.2 962.48,-81.9 961.26,-75.01"/>
</g>
<!-- 225 -->
<g id="node13" class="node">
<title>225</title>
<polygon fill="#f2f2f2" stroke="black" points="1514.27,-87.5 1514.27,-129.1 1732.82,-129.1 1732.82,-87.5 1514.27,-87.5"/>
<text text-anchor="middle" x="1623.55" y="-112.5" font-family="Times,serif" font-size="14.00">VaultInitializer</text>
<text text-anchor="middle" x="1623.55" y="-95.7" font-family="Times,serif" font-size="14.00">../contracts/vault/VaultInitializer.sol</text>
</g>
<!-- 224&#45;&gt;225 -->
<g id="edge12" class="edge">
<title>224&#45;&gt;225</title>
<path fill="none" stroke="black" d="M1517.14,-42.23C1531.51,-51.02 1548.86,-61.63 1565.34,-71.7"/>
<polygon fill="none" stroke="black" points="1560.09,-80.8 1591.16,-87.5 1571.05,-62.89 1560.09,-80.8"/>
</g>
<!-- 224&#45;&gt;695 -->
<g id="edge14" class="edge">
<title>224&#45;&gt;695</title>
<path fill="none" stroke="black" stroke-dasharray="5,2" d="M1580.46,-32.08C1643.94,-40.58 1719.43,-55.28 1741.55,-78.6 1777.41,-116.41 1760.55,-142.19 1760.55,-194.3 1760.55,-194.3 1760.55,-194.3 1760.55,-274.9 1760.55,-347.09 1581.01,-396.51 1431.72,-425.12"/>
<polygon fill="black" stroke="black" points="1430.65,-421.76 1421.48,-427.06 1431.95,-428.63 1430.65,-421.76"/>
</g>
<!-- 225&#45;&gt;205 -->
<g id="edge19" class="edge">
<title>225&#45;&gt;205</title>
<path fill="none" stroke="black" stroke-dasharray="5,2" d="M1545.18,-129.12C1423.94,-159.77 1191.68,-218.5 1064.73,-250.6"/>
<polygon fill="black" stroke="black" points="1063.87,-247.21 1055.03,-253.05 1065.58,-254 1063.87,-247.21"/>
</g>
<!-- 225&#45;&gt;226 -->
<g id="edge18" class="edge">
<title>225&#45;&gt;226</title>
<path fill="none" stroke="black" d="M1549.32,-129.12C1534.57,-132.51 1519.13,-135.69 1504.55,-138 1300.87,-170.29 1061.79,-184.32 916.3,-190.23"/>
<polygon fill="none" stroke="black" points="915.85,-179.73 886.27,-191.38 916.66,-200.72 915.85,-179.73"/>
</g>
<!-- 226&#45;&gt;20 -->
<g id="edge21" class="edge">
<title>226&#45;&gt;20</title>
<path fill="none" stroke="black" d="M777.76,-216.36C772.21,-239.67 762.84,-278.96 755.31,-310.55"/>
<polygon fill="none" stroke="black" points="745.05,-308.31 748.31,-339.93 765.48,-313.18 745.05,-308.31"/>
</g>
<!-- 226&#45;&gt;205 -->
<g id="edge22" class="edge">
<title>226&#45;&gt;205</title>
<path fill="none" stroke="black" d="M832.76,-216.13C858.47,-226.28 889.94,-238.71 916.89,-249.34"/>
<polygon fill="black" stroke="black" points="915.62,-252.61 926.21,-253.02 918.19,-246.1 915.62,-252.61"/>
</g>
<!-- 226&#45;&gt;213 -->
<g id="edge20" class="edge">
<title>226&#45;&gt;213</title>
<path fill="none" stroke="black" d="M800.28,-216.41C819.15,-237.26 850.38,-270.23 880.55,-295.2 888.41,-301.71 896.93,-308.18 905.54,-314.37"/>
<polygon fill="none" stroke="black" points="899.62,-323.05 930.29,-331.38 911.51,-305.74 899.62,-323.05"/>
</g>
</g>
</svg>
