<?xml version="1.0" encoding="UTF-8" standalone="no"?>
<!DOCTYPE svg PUBLIC "-//W3C//DTD SVG 1.1//EN"
 "http://www.w3.org/Graphics/SVG/1.1/DTD/svg11.dtd">
<!-- Generated by graphviz version 5.0.0 (20220707.1540)
 -->
<!-- Title: UmlClassDiagram Pages: 1 -->
<svg width="1509pt" height="494pt"
 viewBox="0.00 0.00 1509.40 494.00" xmlns="http://www.w3.org/2000/svg" xmlns:xlink="http://www.w3.org/1999/xlink">
<g id="graph0" class="graph" transform="scale(1 1) rotate(0) translate(4 490)">
<title>UmlClassDiagram</title>
<polygon fill="white" stroke="transparent" points="-4,4 -4,-490 1505.4,-490 1505.4,4 -4,4"/>
<!-- 7 -->
<g id="node1" class="node">
<title>7</title>
<polygon fill="#f2f2f2" stroke="black" points="435.43,-340.1 435.43,-381.7 670.29,-381.7 670.29,-340.1 435.43,-340.1"/>
<text text-anchor="middle" x="552.86" y="-365.1" font-family="Times,serif" font-size="14.00">Governable</text>
<text text-anchor="middle" x="552.86" y="-348.3" font-family="Times,serif" font-size="14.00">../contracts/governance/Governable.sol</text>
</g>
<!-- 26 -->
<g id="node2" class="node">
<title>26</title>
<polygon fill="#f2f2f2" stroke="black" points="32.39,-79.1 32.39,-137.5 333.32,-137.5 333.32,-79.1 32.39,-79.1"/>
<text text-anchor="middle" x="182.86" y="-120.9" font-family="Times,serif" font-size="14.00">&lt;&lt;Interface&gt;&gt;</text>
<text text-anchor="middle" x="182.86" y="-104.1" font-family="Times,serif" font-size="14.00">IGetExchangeRateToken</text>
<text text-anchor="middle" x="182.86" y="-87.3" font-family="Times,serif" font-size="14.00">../contracts/interfaces/IGetExchangeRateToken.sol</text>
</g>
<!-- 34 -->
<g id="node3" class="node">
<title>34</title>
<polygon fill="#f2f2f2" stroke="black" points="351.15,-79.1 351.15,-137.5 552.56,-137.5 552.56,-79.1 351.15,-79.1"/>
<text text-anchor="middle" x="451.86" y="-120.9" font-family="Times,serif" font-size="14.00">&lt;&lt;Interface&gt;&gt;</text>
<text text-anchor="middle" x="451.86" y="-104.1" font-family="Times,serif" font-size="14.00">IOracle</text>
<text text-anchor="middle" x="451.86" y="-87.3" font-family="Times,serif" font-size="14.00">../contracts/interfaces/IOracle.sol</text>
</g>
<!-- 37 -->
<g id="node4" class="node">
<title>37</title>
<polygon fill="#f2f2f2" stroke="black" points="807.47,-79.1 807.47,-137.5 1018.24,-137.5 1018.24,-79.1 807.47,-79.1"/>
<text text-anchor="middle" x="912.86" y="-120.9" font-family="Times,serif" font-size="14.00">&lt;&lt;Interface&gt;&gt;</text>
<text text-anchor="middle" x="912.86" y="-104.1" font-family="Times,serif" font-size="14.00">IStrategy</text>
<text text-anchor="middle" x="912.86" y="-87.3" font-family="Times,serif" font-size="14.00">../contracts/interfaces/IStrategy.sol</text>
</g>
<!-- 38 -->
<g id="node5" class="node">
<title>38</title>
<polygon fill="#f2f2f2" stroke="black" points="1288.31,-79.1 1288.31,-137.5 1501.4,-137.5 1501.4,-79.1 1288.31,-79.1"/>
<text text-anchor="middle" x="1394.86" y="-120.9" font-family="Times,serif" font-size="14.00">&lt;&lt;Interface&gt;&gt;</text>
<text text-anchor="middle" x="1394.86" y="-104.1" font-family="Times,serif" font-size="14.00">ISwapper</text>
<text text-anchor="middle" x="1394.86" y="-87.3" font-family="Times,serif" font-size="14.00">../contracts/interfaces/ISwapper.sol</text>
</g>
<!-- 40 -->
<g id="node6" class="node">
<title>40</title>
<polygon fill="#f2f2f2" stroke="black" points="1036.25,-79.1 1036.25,-137.5 1231.46,-137.5 1231.46,-79.1 1036.25,-79.1"/>
<text text-anchor="middle" x="1133.86" y="-120.9" font-family="Times,serif" font-size="14.00">&lt;&lt;Interface&gt;&gt;</text>
<text text-anchor="middle" x="1133.86" y="-104.1" font-family="Times,serif" font-size="14.00">IVault</text>
<text text-anchor="middle" x="1133.86" y="-87.3" font-family="Times,serif" font-size="14.00">../contracts/interfaces/IVault.sol</text>
</g>
<!-- 180 -->
<g id="node13" class="node">
<title>180</title>
<polygon fill="#f2f2f2" stroke="black" points="576.41,-174.5 576.41,-216.1 783.31,-216.1 783.31,-174.5 576.41,-174.5"/>
<text text-anchor="middle" x="679.86" y="-199.5" font-family="Times,serif" font-size="14.00">VaultStorage</text>
<text text-anchor="middle" x="679.86" y="-182.7" font-family="Times,serif" font-size="14.00">../contracts/vault/VaultStorage.sol</text>
</g>
<!-- 40&#45;&gt;180 -->
<g id="edge1" class="edge">
<title>40&#45;&gt;180</title>
<path fill="none" stroke="black" stroke-dasharray="5,2" d="M1035.99,-135.97C1032.92,-136.68 1029.86,-137.35 1026.86,-138 949.67,-154.57 861.88,-168.77 793.92,-178.76"/>
<polygon fill="black" stroke="black" points="793.01,-175.36 783.62,-180.27 794.02,-182.29 793.01,-175.36"/>
</g>
<!-- 160 -->
<g id="node7" class="node">
<title>160</title>
<polygon fill="#f2f2f2" stroke="black" points="465.73,-253.1 465.73,-294.7 639.99,-294.7 639.99,-253.1 465.73,-253.1"/>
<text text-anchor="middle" x="552.86" y="-278.1" font-family="Times,serif" font-size="14.00">OUSD</text>
<text text-anchor="middle" x="552.86" y="-261.3" font-family="Times,serif" font-size="14.00">../contracts/token/OUSD.sol</text>
</g>
<!-- 160&#45;&gt;7 -->
<g id="edge4" class="edge">
<title>160&#45;&gt;7</title>
<path fill="none" stroke="black" d="M552.86,-295.04C552.86,-299.6 552.86,-304.63 552.86,-309.81"/>
<polygon fill="none" stroke="black" points="542.36,-309.9 552.86,-339.9 563.36,-309.9 542.36,-309.9"/>
</g>
<!-- 167 -->
<g id="node8" class="node">
<title>167</title>
<polygon fill="#f2f2f2" stroke="black" points="687.85,-331.7 687.85,-390.1 883.86,-390.1 883.86,-331.7 687.85,-331.7"/>
<text text-anchor="middle" x="785.86" y="-373.5" font-family="Times,serif" font-size="14.00">&lt;&lt;Abstract&gt;&gt;</text>
<text text-anchor="middle" x="785.86" y="-356.7" font-family="Times,serif" font-size="14.00">Initializable</text>
<text text-anchor="middle" x="785.86" y="-339.9" font-family="Times,serif" font-size="14.00">../contracts/utils/Initializable.sol</text>
</g>
<!-- 160&#45;&gt;167 -->
<g id="edge2" class="edge">
<title>160&#45;&gt;167</title>
<path fill="none" stroke="black" d="M607.19,-294.72C628.96,-302.66 654.82,-312.1 680.01,-321.29"/>
<polygon fill="none" stroke="black" points="676.67,-331.25 708.45,-331.66 683.87,-311.52 676.67,-331.25"/>
</g>
<!-- 170 -->
<g id="node9" class="node">
<title>170</title>
<polygon fill="#f2f2f2" stroke="black" points="132.53,-331.7 132.53,-390.1 417.19,-390.1 417.19,-331.7 132.53,-331.7"/>
<text text-anchor="middle" x="274.86" y="-373.5" font-family="Times,serif" font-size="14.00">&lt;&lt;Abstract&gt;&gt;</text>
<text text-anchor="middle" x="274.86" y="-356.7" font-family="Times,serif" font-size="14.00">InitializableERC20Detailed</text>
<text text-anchor="middle" x="274.86" y="-339.9" font-family="Times,serif" font-size="14.00">../contracts/utils/InitializableERC20Detailed.sol</text>
</g>
<!-- 160&#45;&gt;170 -->
<g id="edge3" class="edge">
<title>160&#45;&gt;170</title>
<path fill="none" stroke="black" d="M488.03,-294.72C460.65,-303.09 427.85,-313.12 396.27,-322.78"/>
<polygon fill="none" stroke="black" points="392.83,-312.85 367.21,-331.66 398.97,-332.93 392.83,-312.85"/>
</g>
<!-- 342 -->
<g id="node14" class="node">
<title>342</title>
<polygon fill="#f2f2f2" stroke="black" points="72.8,-427.1 72.8,-485.5 476.91,-485.5 476.91,-427.1 72.8,-427.1"/>
<text text-anchor="middle" x="274.86" y="-468.9" font-family="Times,serif" font-size="14.00">&lt;&lt;Interface&gt;&gt;</text>
<text text-anchor="middle" x="274.86" y="-452.1" font-family="Times,serif" font-size="14.00">IERC20</text>
<text text-anchor="middle" x="274.86" y="-435.3" font-family="Times,serif" font-size="14.00">../node_modules/@openzeppelin/contracts/token/ERC20/IERC20.sol</text>
</g>
<!-- 170&#45;&gt;342 -->
<g id="edge5" class="edge">
<title>170&#45;&gt;342</title>
<path fill="none" stroke="black" stroke-dasharray="5,2" d="M274.86,-390.18C274.86,-392.26 274.86,-394.4 274.86,-396.58"/>
<polygon fill="none" stroke="black" points="264.36,-396.8 274.86,-426.8 285.36,-396.8 264.36,-396.8"/>
</g>
<!-- 177 -->
<g id="node10" class="node">
<title>177</title>
<polygon fill="#f2f2f2" stroke="black" points="802.34,-0.5 802.34,-42.1 1005.37,-42.1 1005.37,-0.5 802.34,-0.5"/>
<text text-anchor="middle" x="903.86" y="-25.5" font-family="Times,serif" font-size="14.00">VaultAdmin</text>
<text text-anchor="middle" x="903.86" y="-8.7" font-family="Times,serif" font-size="14.00">../contracts/vault/VaultAdmin.sol</text>
</g>
<!-- 177&#45;&gt;34 -->
<g id="edge10" class="edge">
<title>177&#45;&gt;34</title>
<path fill="none" stroke="black" stroke-dasharray="5,2" d="M802.27,-39.69C796.38,-40.68 790.54,-41.66 784.86,-42.6 688.91,-58.53 661.77,-57.96 562.6,-78.52"/>
<polygon fill="black" stroke="black" points="561.84,-75.1 552.77,-80.57 563.27,-81.95 561.84,-75.1"/>
</g>
<!-- 177&#45;&gt;37 -->
<g id="edge7" class="edge">
<title>177&#45;&gt;37</title>
<path fill="none" stroke="black" stroke-dasharray="5,2" d="M905.99,-42.44C906.83,-50.36 907.82,-59.73 908.78,-68.84"/>
<polygon fill="black" stroke="black" points="905.32,-69.36 909.85,-78.94 912.28,-68.63 905.32,-69.36"/>
</g>
<!-- 177&#45;&gt;38 -->
<g id="edge9" class="edge">
<title>177&#45;&gt;38</title>
<path fill="none" stroke="black" stroke-dasharray="5,2" d="M1005.53,-35.49C1080.08,-45.71 1183.6,-61.06 1273.86,-78.6 1275.31,-78.88 1276.78,-79.17 1278.25,-79.47"/>
<polygon fill="black" stroke="black" points="1277.57,-82.9 1288.07,-81.47 1278.97,-76.04 1277.57,-82.9"/>
</g>
<!-- 177&#45;&gt;40 -->
<g id="edge11" class="edge">
<title>177&#45;&gt;40</title>
<path fill="none" stroke="black" stroke-dasharray="5,2" d="M957.49,-42.12C984.32,-52.04 1017.45,-64.28 1047.73,-75.47"/>
<polygon fill="black" stroke="black" points="1046.86,-78.88 1057.45,-79.06 1049.28,-72.31 1046.86,-78.88"/>
</g>
<!-- 179 -->
<g id="node12" class="node">
<title>179</title>
<polygon fill="#f2f2f2" stroke="black" points="570.58,-87.5 570.58,-129.1 789.13,-129.1 789.13,-87.5 570.58,-87.5"/>
<text text-anchor="middle" x="679.86" y="-112.5" font-family="Times,serif" font-size="14.00">VaultInitializer</text>
<text text-anchor="middle" x="679.86" y="-95.7" font-family="Times,serif" font-size="14.00">../contracts/vault/VaultInitializer.sol</text>
</g>
<!-- 177&#45;&gt;179 -->
<g id="edge6" class="edge">
<title>177&#45;&gt;179</title>
<path fill="none" stroke="black" d="M851.62,-42.12C824.53,-52.4 790.83,-65.19 760.48,-76.71"/>
<polygon fill="none" stroke="black" points="756.5,-66.99 732.17,-87.45 763.95,-86.62 756.5,-66.99"/>
</g>
<!-- 177&#45;&gt;342 -->
<g id="edge8" class="edge">
<title>177&#45;&gt;342</title>
<path fill="none" stroke="black" stroke-dasharray="5,2" d="M1005.52,-26.53C1092.45,-32.36 1208.5,-46.15 1240.86,-78.6 1277.65,-115.5 1259.86,-142.19 1259.86,-194.3 1259.86,-194.3 1259.86,-194.3 1259.86,-274.9 1259.86,-445.92 1060.3,-355.81 892.86,-390.6 759.43,-418.32 607.2,-434.44 487.22,-443.65"/>
<polygon fill="black" stroke="black" points="486.88,-440.17 477.18,-444.41 487.41,-447.15 486.88,-440.17"/>
</g>
<!-- 178 -->
<g id="node11" class="node">
<title>178</title>
<polygon fill="#f2f2f2" stroke="black" points="584.18,-0.5 584.18,-42.1 775.53,-42.1 775.53,-0.5 584.18,-0.5"/>
<text text-anchor="middle" x="679.86" y="-25.5" font-family="Times,serif" font-size="14.00">VaultCore</text>
<text text-anchor="middle" x="679.86" y="-8.7" font-family="Times,serif" font-size="14.00">../contracts/vault/VaultCore.sol</text>
</g>
<!-- 178&#45;&gt;26 -->
<g id="edge16" class="edge">
<title>178&#45;&gt;26</title>
<path fill="none" stroke="black" stroke-dasharray="5,2" d="M584.01,-37.91C518.82,-48.61 430.33,-63.3 343.52,-78.32"/>
<polygon fill="black" stroke="black" points="342.75,-74.9 333.49,-80.06 343.94,-81.8 342.75,-74.9"/>
</g>
<!-- 178&#45;&gt;34 -->
<g id="edge15" class="edge">
<title>178&#45;&gt;34</title>
<path fill="none" stroke="black" stroke-dasharray="5,2" d="M626.69,-42.12C600.09,-52.04 567.25,-64.28 537.23,-75.47"/>
<polygon fill="black" stroke="black" points="535.75,-72.29 527.6,-79.06 538.19,-78.85 535.75,-72.29"/>
</g>
<!-- 178&#45;&gt;37 -->
<g id="edge14" class="edge">
<title>178&#45;&gt;37</title>
<path fill="none" stroke="black" stroke-dasharray="5,2" d="M734.19,-42.12C761.49,-52.08 795.23,-64.39 826.01,-75.62"/>
<polygon fill="black" stroke="black" points="824.86,-78.92 835.45,-79.06 827.26,-72.35 824.86,-78.92"/>
</g>
<!-- 178&#45;&gt;179 -->
<g id="edge12" class="edge">
<title>178&#45;&gt;179</title>
<path fill="none" stroke="black" d="M679.86,-42.44C679.86,-47 679.86,-52.03 679.86,-57.21"/>
<polygon fill="none" stroke="black" points="669.36,-57.3 679.86,-87.3 690.36,-57.3 669.36,-57.3"/>
</g>
<!-- 178&#45;&gt;342 -->
<g id="edge13" class="edge">
<title>178&#45;&gt;342</title>
<path fill="none" stroke="black" stroke-dasharray="5,2" d="M583.9,-24.13C411.63,-28.35 64.04,-41.4 23.86,-78.6 -14.39,-114 4.86,-142.19 4.86,-194.3 4.86,-194.3 4.86,-194.3 4.86,-274.9 4.86,-351.11 80.14,-397.14 151.2,-423.61"/>
<polygon fill="black" stroke="black" points="150.15,-426.95 160.74,-427.05 152.53,-420.36 150.15,-426.95"/>
</g>
<!-- 179&#45;&gt;160 -->
<g id="edge18" class="edge">
<title>179&#45;&gt;160</title>
<path fill="none" stroke="black" stroke-dasharray="5,2" d="M624.25,-129.23C603.39,-139.46 581.46,-154.06 567.86,-174 554.19,-194.03 550.97,-221.64 550.86,-242.6"/>
<polygon fill="black" stroke="black" points="547.37,-242.94 551.06,-252.88 554.37,-242.81 547.37,-242.94"/>
</g>
<!-- 179&#45;&gt;180 -->
<g id="edge17" class="edge">
<title>179&#45;&gt;180</title>
<path fill="none" stroke="black" d="M679.86,-129.44C679.86,-134 679.86,-139.03 679.86,-144.21"/>
<polygon fill="none" stroke="black" points="669.36,-144.3 679.86,-174.3 690.36,-144.3 669.36,-144.3"/>
</g>
<!-- 180&#45;&gt;7 -->
<g id="edge20" class="edge">
<title>180&#45;&gt;7</title>
<path fill="none" stroke="black" d="M677.56,-216.27C674.26,-237.61 666.5,-271.54 648.86,-295.2 640.95,-305.8 630.76,-315.23 619.99,-323.39"/>
<polygon fill="none" stroke="black" points="613.91,-314.82 594.59,-340.06 625.44,-332.37 613.91,-314.82"/>
</g>
<!-- 180&#45;&gt;160 -->
<g id="edge21" class="edge">
<title>180&#45;&gt;160</title>
<path fill="none" stroke="black" d="M646.82,-216.23C630.8,-225.89 611.38,-237.6 594.37,-247.86"/>
<polygon fill="black" stroke="black" points="592.48,-244.91 585.73,-253.07 596.1,-250.91 592.48,-244.91"/>
</g>
<!-- 180&#45;&gt;167 -->
<g id="edge19" class="edge">
<title>180&#45;&gt;167</title>
<path fill="none" stroke="black" d="M692.85,-216.36C707.23,-238.55 731,-275.24 750.91,-305.97"/>
<polygon fill="none" stroke="black" points="742.28,-311.96 767.41,-331.43 759.91,-300.54 742.28,-311.96"/>
</g>
</g>
</svg>
