<?xml version="1.0" encoding="UTF-8" standalone="no"?>
<!DOCTYPE svg PUBLIC "-//W3C//DTD SVG 1.1//EN"
 "http://www.w3.org/Graphics/SVG/1.1/DTD/svg11.dtd">
<!-- Generated by graphviz version 5.0.0 (20220707.1540)
 -->
<!-- Title: UmlClassDiagram Pages: 1 -->
<svg width="876pt" height="623pt"
 viewBox="0.00 0.00 876.46 623.00" xmlns="http://www.w3.org/2000/svg" xmlns:xlink="http://www.w3.org/1999/xlink">
<g id="graph0" class="graph" transform="scale(1 1) rotate(0) translate(4 619)">
<title>UmlClassDiagram</title>
<polygon fill="white" stroke="transparent" points="-4,4 -4,-619 872.46,-619 872.46,4 -4,4"/>
<!-- 44 -->
<g id="node1" class="node">
<title>44</title>
<polygon fill="#f2f2f2" stroke="black" points="268.91,-556.1 268.91,-614.5 503.77,-614.5 503.77,-556.1 268.91,-556.1"/>
<text text-anchor="middle" x="386.34" y="-597.9" font-family="Times,serif" font-size="14.00">&lt;&lt;Abstract&gt;&gt;</text>
<text text-anchor="middle" x="386.34" y="-581.1" font-family="Times,serif" font-size="14.00">Governable</text>
<text text-anchor="middle" x="386.34" y="-564.3" font-family="Times,serif" font-size="14.00">../contracts/governance/Governable.sol</text>
</g>
<!-- 304 -->
<g id="node2" class="node">
<title>304</title>
<polygon fill="#f2f2f2" stroke="black" points="242.21,-469.1 242.21,-510.7 416.47,-510.7 416.47,-469.1 242.21,-469.1"/>
<text text-anchor="middle" x="329.34" y="-494.1" font-family="Times,serif" font-size="14.00">OUSD</text>
<text text-anchor="middle" x="329.34" y="-477.3" font-family="Times,serif" font-size="14.00">../contracts/token/OUSD.sol</text>
</g>
<!-- 304&#45;&gt;44 -->
<g id="edge1" class="edge">
<title>304&#45;&gt;44</title>
<path fill="none" stroke="black" d="M341.42,-510.71C345,-516.57 349.11,-523.3 353.35,-530.25"/>
<polygon fill="none" stroke="black" points="344.48,-535.88 369.08,-556.02 362.41,-524.94 344.48,-535.88"/>
</g>
<!-- 326 -->
<g id="node3" class="node">
<title>326</title>
<polygon fill="#f2f2f2" stroke="black" points="472.33,-460.7 472.33,-519.1 668.34,-519.1 668.34,-460.7 472.33,-460.7"/>
<text text-anchor="middle" x="570.34" y="-502.5" font-family="Times,serif" font-size="14.00">&lt;&lt;Abstract&gt;&gt;</text>
<text text-anchor="middle" x="570.34" y="-485.7" font-family="Times,serif" font-size="14.00">Initializable</text>
<text text-anchor="middle" x="570.34" y="-468.9" font-family="Times,serif" font-size="14.00">../contracts/utils/Initializable.sol</text>
</g>
<!-- 332 -->
<g id="node4" class="node">
<title>332</title>
<polygon fill="#f2f2f2" stroke="black" points="0,-0.5 0,-42.1 228.67,-42.1 228.67,-0.5 0,-0.5"/>
<text text-anchor="middle" x="114.34" y="-25.5" font-family="Times,serif" font-size="14.00">OETHBaseVault</text>
<text text-anchor="middle" x="114.34" y="-8.7" font-family="Times,serif" font-size="14.00">../contracts/vault/OETHBaseVault.sol</text>
</g>
<!-- 337 -->
<g id="node8" class="node">
<title>337</title>
<polygon fill="#f2f2f2" stroke="black" points="350.82,-79.1 350.82,-137.5 553.85,-137.5 553.85,-79.1 350.82,-79.1"/>
<text text-anchor="middle" x="452.34" y="-120.9" font-family="Times,serif" font-size="14.00">&lt;&lt;Abstract&gt;&gt;</text>
<text text-anchor="middle" x="452.34" y="-104.1" font-family="Times,serif" font-size="14.00">VaultAdmin</text>
<text text-anchor="middle" x="452.34" y="-87.3" font-family="Times,serif" font-size="14.00">../contracts/vault/VaultAdmin.sol</text>
</g>
<!-- 332&#45;&gt;337 -->
<g id="edge2" class="edge">
<title>332&#45;&gt;337</title>
<path fill="none" stroke="black" d="M193.16,-42.12C231.27,-51.71 278.05,-63.47 321.32,-74.35"/>
<polygon fill="none" stroke="black" points="318.91,-84.57 350.57,-81.71 324.03,-64.21 318.91,-84.57"/>
</g>
<!-- 334 -->
<g id="node5" class="node">
<title>334</title>
<polygon fill="#f2f2f2" stroke="black" points="246.61,-0.5 246.61,-42.1 448.07,-42.1 448.07,-0.5 246.61,-0.5"/>
<text text-anchor="middle" x="347.34" y="-25.5" font-family="Times,serif" font-size="14.00">OETHVault</text>
<text text-anchor="middle" x="347.34" y="-8.7" font-family="Times,serif" font-size="14.00">../contracts/vault/OETHVault.sol</text>
</g>
<!-- 334&#45;&gt;337 -->
<g id="edge3" class="edge">
<title>334&#45;&gt;337</title>
<path fill="none" stroke="black" d="M371.95,-42.23C378.58,-47.59 386.03,-53.63 393.67,-59.81"/>
<polygon fill="none" stroke="black" points="387.21,-68.09 417.14,-78.81 400.43,-51.77 387.21,-68.09"/>
</g>
<!-- 335 -->
<g id="node6" class="node">
<title>335</title>
<polygon fill="#f2f2f2" stroke="black" points="466.32,-0.5 466.32,-42.1 648.35,-42.1 648.35,-0.5 466.32,-0.5"/>
<text text-anchor="middle" x="557.34" y="-25.5" font-family="Times,serif" font-size="14.00">OSVault</text>
<text text-anchor="middle" x="557.34" y="-8.7" font-family="Times,serif" font-size="14.00">../contracts/vault/OSVault.sol</text>
</g>
<!-- 335&#45;&gt;337 -->
<g id="edge4" class="edge">
<title>335&#45;&gt;337</title>
<path fill="none" stroke="black" d="M532.72,-42.23C526.1,-47.59 518.64,-53.63 511,-59.81"/>
<polygon fill="none" stroke="black" points="504.25,-51.77 487.54,-78.81 517.46,-68.09 504.25,-51.77"/>
</g>
<!-- 336 -->
<g id="node7" class="node">
<title>336</title>
<polygon fill="#f2f2f2" stroke="black" points="666.21,-0.5 666.21,-42.1 868.46,-42.1 868.46,-0.5 666.21,-0.5"/>
<text text-anchor="middle" x="767.34" y="-25.5" font-family="Times,serif" font-size="14.00">OUSDVault</text>
<text text-anchor="middle" x="767.34" y="-8.7" font-family="Times,serif" font-size="14.00">../contracts/vault/OUSDVault.sol</text>
</g>
<!-- 336&#45;&gt;337 -->
<g id="edge5" class="edge">
<title>336&#45;&gt;337</title>
<path fill="none" stroke="black" d="M693.88,-42.12C660.87,-51.03 620.89,-61.82 583.04,-72.03"/>
<polygon fill="none" stroke="black" points="580.22,-61.92 553.99,-79.87 585.69,-82.19 580.22,-61.92"/>
</g>
<!-- 338 -->
<g id="node9" class="node">
<title>338</title>
<polygon fill="#f2f2f2" stroke="black" points="356.66,-174.5 356.66,-232.9 548.01,-232.9 548.01,-174.5 356.66,-174.5"/>
<text text-anchor="middle" x="452.34" y="-216.3" font-family="Times,serif" font-size="14.00">&lt;&lt;Abstract&gt;&gt;</text>
<text text-anchor="middle" x="452.34" y="-199.5" font-family="Times,serif" font-size="14.00">VaultCore</text>
<text text-anchor="middle" x="452.34" y="-182.7" font-family="Times,serif" font-size="14.00">../contracts/vault/VaultCore.sol</text>
</g>
<!-- 337&#45;&gt;338 -->
<g id="edge6" class="edge">
<title>337&#45;&gt;338</title>
<path fill="none" stroke="black" d="M452.34,-137.58C452.34,-139.66 452.34,-141.8 452.34,-143.98"/>
<polygon fill="none" stroke="black" points="441.84,-144.2 452.34,-174.2 462.84,-144.2 441.84,-144.2"/>
</g>
<!-- 339 -->
<g id="node10" class="node">
<title>339</title>
<polygon fill="#f2f2f2" stroke="black" points="343.06,-269.9 343.06,-328.3 561.61,-328.3 561.61,-269.9 343.06,-269.9"/>
<text text-anchor="middle" x="452.34" y="-311.7" font-family="Times,serif" font-size="14.00">&lt;&lt;Abstract&gt;&gt;</text>
<text text-anchor="middle" x="452.34" y="-294.9" font-family="Times,serif" font-size="14.00">VaultInitializer</text>
<text text-anchor="middle" x="452.34" y="-278.1" font-family="Times,serif" font-size="14.00">../contracts/vault/VaultInitializer.sol</text>
</g>
<!-- 338&#45;&gt;339 -->
<g id="edge7" class="edge">
<title>338&#45;&gt;339</title>
<path fill="none" stroke="black" d="M452.34,-232.98C452.34,-235.06 452.34,-237.2 452.34,-239.38"/>
<polygon fill="none" stroke="black" points="441.84,-239.6 452.34,-269.6 462.84,-239.6 441.84,-239.6"/>
</g>
<!-- 339&#45;&gt;304 -->
<g id="edge9" class="edge">
<title>339&#45;&gt;304</title>
<path fill="none" stroke="black" stroke-dasharray="5,2" d="M380.01,-328.32C364.56,-337.65 350,-349.65 340.34,-364.8 322.37,-392.97 322.08,-432.34 324.68,-459.13"/>
<polygon fill="black" stroke="black" points="321.2,-459.54 325.83,-469.08 328.16,-458.74 321.2,-459.54"/>
</g>
<!-- 340 -->
<g id="node11" class="node">
<title>340</title>
<polygon fill="#f2f2f2" stroke="black" points="348.89,-365.3 348.89,-423.7 555.79,-423.7 555.79,-365.3 348.89,-365.3"/>
<text text-anchor="middle" x="452.34" y="-407.1" font-family="Times,serif" font-size="14.00">&lt;&lt;Abstract&gt;&gt;</text>
<text text-anchor="middle" x="452.34" y="-390.3" font-family="Times,serif" font-size="14.00">VaultStorage</text>
<text text-anchor="middle" x="452.34" y="-373.5" font-family="Times,serif" font-size="14.00">../contracts/vault/VaultStorage.sol</text>
</g>
<!-- 339&#45;&gt;340 -->
<g id="edge8" class="edge">
<title>339&#45;&gt;340</title>
<path fill="none" stroke="black" d="M452.34,-328.38C452.34,-330.46 452.34,-332.6 452.34,-334.78"/>
<polygon fill="none" stroke="black" points="441.84,-335 452.34,-365 462.84,-335 441.84,-335"/>
</g>
<!-- 340&#45;&gt;44 -->
<g id="edge11" class="edge">
<title>340&#45;&gt;44</title>
<path fill="none" stroke="black" d="M448.87,-423.88C445.1,-449.55 437.88,-488.05 425.34,-519.6 424.01,-522.93 422.52,-526.3 420.92,-529.64"/>
<polygon fill="none" stroke="black" points="411.63,-524.74 406.13,-556.05 429.95,-535 411.63,-524.74"/>
</g>
<!-- 340&#45;&gt;304 -->
<g id="edge12" class="edge">
<title>340&#45;&gt;304</title>
<path fill="none" stroke="black" d="M415.1,-423.78C398.72,-436.21 379.61,-450.73 363.59,-462.89"/>
<polygon fill="black" stroke="black" points="361.37,-460.18 355.53,-469.01 365.61,-465.75 361.37,-460.18"/>
</g>
<!-- 340&#45;&gt;326 -->
<g id="edge10" class="edge">
<title>340&#45;&gt;326</title>
<path fill="none" stroke="black" d="M488.06,-423.78C495.16,-429.39 502.79,-435.44 510.44,-441.49"/>
<polygon fill="none" stroke="black" points="504.29,-450.01 534.33,-460.4 517.32,-433.55 504.29,-450.01"/>
</g>
</g>
</svg>
