<?xml version="1.0" encoding="UTF-8" standalone="no"?>
<!DOCTYPE svg PUBLIC "-//W3C//DTD SVG 1.1//EN"
 "http://www.w3.org/Graphics/SVG/1.1/DTD/svg11.dtd">
<!-- Generated by graphviz version 5.0.0 (20220707.1540)
 -->
<!-- Title: StorageDiagram Pages: 1 -->
<svg width="2446pt" height="930pt"
 viewBox="0.00 0.00 2446.36 929.80" xmlns="http://www.w3.org/2000/svg" xmlns:xlink="http://www.w3.org/1999/xlink">
<g id="graph0" class="graph" transform="scale(1 1) rotate(0) translate(4 925.8)">
<title>StorageDiagram</title>
<polygon fill="white" stroke="transparent" points="-4,4 -4,-925.8 2442.36,-925.8 2442.36,4 -4,4"/>
<!-- 8 -->
<g id="node1" class="node">
<title>8</title>
<polygon fill="#f2f2f2" stroke="black" points="0,-105.7 0,-874.5 1197.38,-874.5 1197.38,-105.7 0,-105.7"/>
<text text-anchor="middle" x="598.69" y="-857.9" font-family="Courier New" font-size="14.00">VaultCore &lt;&lt;Contract&gt;&gt;</text>
<polyline fill="none" stroke="black" points="0,-849.7 1197.38,-849.7 "/>
<text text-anchor="middle" x="33.2" y="-833.1" font-family="Courier New" font-size="14.00">slot</text>
<polyline fill="none" stroke="black" points="0,-824.9 66.41,-824.9 "/>
<text text-anchor="middle" x="33.2" y="-808.3" font-family="Courier New" font-size="14.00">0</text>
<polyline fill="none" stroke="black" points="0,-800.1 66.41,-800.1 "/>
<text text-anchor="middle" x="33.2" y="-783.5" font-family="Courier New" font-size="14.00">1&#45;50</text>
<polyline fill="none" stroke="black" points="0,-775.3 66.41,-775.3 "/>
<text text-anchor="middle" x="33.2" y="-758.7" font-family="Courier New" font-size="14.00">51</text>
<polyline fill="none" stroke="black" points="0,-750.5 66.41,-750.5 "/>
<text text-anchor="middle" x="33.2" y="-733.9" font-family="Courier New" font-size="14.00">52</text>
<polyline fill="none" stroke="black" points="0,-725.7 66.41,-725.7 "/>
<text text-anchor="middle" x="33.2" y="-709.1" font-family="Courier New" font-size="14.00">53</text>
<polyline fill="none" stroke="black" points="0,-700.9 66.41,-700.9 "/>
<text text-anchor="middle" x="33.2" y="-684.3" font-family="Courier New" font-size="14.00">54</text>
<polyline fill="none" stroke="black" points="0,-676.1 66.41,-676.1 "/>
<text text-anchor="middle" x="33.2" y="-659.5" font-family="Courier New" font-size="14.00">55</text>
<polyline fill="none" stroke="black" points="0,-651.3 66.41,-651.3 "/>
<text text-anchor="middle" x="33.2" y="-634.7" font-family="Courier New" font-size="14.00">56</text>
<polyline fill="none" stroke="black" points="0,-626.5 66.41,-626.5 "/>
<text text-anchor="middle" x="33.2" y="-609.9" font-family="Courier New" font-size="14.00">57</text>
<polyline fill="none" stroke="black" points="0,-601.7 66.41,-601.7 "/>
<text text-anchor="middle" x="33.2" y="-585.1" font-family="Courier New" font-size="14.00">58</text>
<polyline fill="none" stroke="black" points="0,-576.9 66.41,-576.9 "/>
<text text-anchor="middle" x="33.2" y="-560.3" font-family="Courier New" font-size="14.00">59</text>
<polyline fill="none" stroke="black" points="0,-552.1 66.41,-552.1 "/>
<text text-anchor="middle" x="33.2" y="-535.5" font-family="Courier New" font-size="14.00">60</text>
<polyline fill="none" stroke="black" points="0,-527.3 66.41,-527.3 "/>
<text text-anchor="middle" x="33.2" y="-510.7" font-family="Courier New" font-size="14.00">61</text>
<polyline fill="none" stroke="black" points="0,-502.5 66.41,-502.5 "/>
<text text-anchor="middle" x="33.2" y="-485.9" font-family="Courier New" font-size="14.00">62</text>
<polyline fill="none" stroke="black" points="0,-477.7 66.41,-477.7 "/>
<text text-anchor="middle" x="33.2" y="-461.1" font-family="Courier New" font-size="14.00">63</text>
<polyline fill="none" stroke="black" points="0,-452.9 66.41,-452.9 "/>
<text text-anchor="middle" x="33.2" y="-436.3" font-family="Courier New" font-size="14.00">64</text>
<polyline fill="none" stroke="black" points="0,-428.1 66.41,-428.1 "/>
<text text-anchor="middle" x="33.2" y="-411.5" font-family="Courier New" font-size="14.00">65</text>
<polyline fill="none" stroke="black" points="0,-403.3 66.41,-403.3 "/>
<text text-anchor="middle" x="33.2" y="-386.7" font-family="Courier New" font-size="14.00">66</text>
<polyline fill="none" stroke="black" points="0,-378.5 66.41,-378.5 "/>
<text text-anchor="middle" x="33.2" y="-361.9" font-family="Courier New" font-size="14.00">67</text>
<polyline fill="none" stroke="black" points="0,-353.7 66.41,-353.7 "/>
<text text-anchor="middle" x="33.2" y="-337.1" font-family="Courier New" font-size="14.00">68</text>
<polyline fill="none" stroke="black" points="0,-328.9 66.41,-328.9 "/>
<text text-anchor="middle" x="33.2" y="-312.3" font-family="Courier New" font-size="14.00">69</text>
<polyline fill="none" stroke="black" points="0,-304.1 66.41,-304.1 "/>
<text text-anchor="middle" x="33.2" y="-287.5" font-family="Courier New" font-size="14.00">70</text>
<polyline fill="none" stroke="black" points="0,-279.3 66.41,-279.3 "/>
<text text-anchor="middle" x="33.2" y="-262.7" font-family="Courier New" font-size="14.00">71</text>
<polyline fill="none" stroke="black" points="0,-254.5 66.41,-254.5 "/>
<text text-anchor="middle" x="33.2" y="-237.9" font-family="Courier New" font-size="14.00">72</text>
<polyline fill="none" stroke="black" points="0,-229.7 66.41,-229.7 "/>
<text text-anchor="middle" x="33.2" y="-213.1" font-family="Courier New" font-size="14.00">73</text>
<polyline fill="none" stroke="black" points="0,-204.9 66.41,-204.9 "/>
<text text-anchor="middle" x="33.2" y="-188.3" font-family="Courier New" font-size="14.00">74</text>
<polyline fill="none" stroke="black" points="0,-180.1 66.41,-180.1 "/>
<text text-anchor="middle" x="33.2" y="-163.5" font-family="Courier New" font-size="14.00">75&#45;76</text>
<polyline fill="none" stroke="black" points="0,-155.3 66.41,-155.3 "/>
<text text-anchor="middle" x="33.2" y="-138.7" font-family="Courier New" font-size="14.00">77</text>
<polyline fill="none" stroke="black" points="0,-130.5 66.41,-130.5 "/>
<text text-anchor="middle" x="33.2" y="-113.9" font-family="Courier New" font-size="14.00">78&#45;122</text>
<polyline fill="none" stroke="black" points="66.41,-105.7 66.41,-849.7 "/>
<text text-anchor="middle" x="631.9" y="-833.1" font-family="Courier New" font-size="14.00">type: &lt;inherited contract&gt;.variable (bytes)</text>
<polyline fill="none" stroke="black" points="66.41,-824.9 1197.38,-824.9 "/>
<text text-anchor="middle" x="200.12" y="-808.3" font-family="Courier New" font-size="14.00">unallocated (30)</text>
<polyline fill="none" stroke="black" points="333.83,-800.1 333.83,-824.9 "/>
<text text-anchor="middle" x="551.55" y="-808.3" font-family="Courier New" font-size="14.00">bool: Initializable.initializing (1)</text>
<polyline fill="none" stroke="black" points="769.28,-800.1 769.28,-824.9 "/>
<text text-anchor="middle" x="983.3" y="-808.3" font-family="Courier New" font-size="14.00">bool: Initializable.initialized (1)</text>
<polyline fill="none" stroke="black" points="66.41,-800.1 1197.38,-800.1 "/>
<text text-anchor="middle" x="631.54" y="-783.5" font-family="Courier New" font-size="14.00">uint256[50]: Initializable.______gap (1600)</text>
<polyline fill="none" stroke="black" points="66.41,-775.3 1197.38,-775.3 "/>
<text text-anchor="middle" x="631.74" y="-758.7" font-family="Courier New" font-size="14.00">mapping(address=&gt;Asset): VaultStorage.assets (32)</text>
<polyline fill="none" stroke="black" points="66.41,-750.5 1197.38,-750.5 "/>
<text text-anchor="middle" x="631.53" y="-733.9" font-family="Courier New" font-size="14.00">address[]: VaultStorage.allAssets (32)</text>
<polyline fill="none" stroke="black" points="66.41,-725.7 1197.38,-725.7 "/>
<text text-anchor="middle" x="631.65" y="-709.1" font-family="Courier New" font-size="14.00">mapping(address=&gt;Strategy): VaultStorage.strategies (32)</text>
<polyline fill="none" stroke="black" points="66.41,-700.9 1197.38,-700.9 "/>
<text text-anchor="middle" x="631.84" y="-684.3" font-family="Courier New" font-size="14.00">address[]: VaultStorage.allStrategies (32)</text>
<polyline fill="none" stroke="black" points="66.41,-676.1 1197.38,-676.1 "/>
<text text-anchor="middle" x="141.62" y="-659.5" font-family="Courier New" font-size="14.00">unallocated (10)</text>
<polyline fill="none" stroke="black" points="216.83,-651.3 216.83,-676.1 "/>
<text text-anchor="middle" x="376.05" y="-659.5" font-family="Courier New" font-size="14.00">bool: VaultStorage.capitalPaused (1)</text>
<polyline fill="none" stroke="black" points="535.28,-651.3 535.28,-676.1 "/>
<text text-anchor="middle" x="690.3" y="-659.5" font-family="Courier New" font-size="14.00">bool: VaultStorage.rebasePaused (1)</text>
<polyline fill="none" stroke="black" points="845.33,-651.3 845.33,-676.1 "/>
<text text-anchor="middle" x="1021.35" y="-659.5" font-family="Courier New" font-size="14.00">address: VaultStorage.priceProvider (20)</text>
<polyline fill="none" stroke="black" points="66.41,-651.3 1197.38,-651.3 "/>
<text text-anchor="middle" x="631.73" y="-634.7" font-family="Courier New" font-size="14.00">uint256: VaultStorage.redeemFeeBps (32)</text>
<polyline fill="none" stroke="black" points="66.41,-626.5 1197.38,-626.5 "/>
<text text-anchor="middle" x="631.53" y="-609.9" font-family="Courier New" font-size="14.00">uint256: VaultStorage.vaultBuffer (32)</text>
<polyline fill="none" stroke="black" points="66.41,-601.7 1197.38,-601.7 "/>
<text text-anchor="middle" x="631.54" y="-585.1" font-family="Courier New" font-size="14.00">uint256: VaultStorage.autoAllocateThreshold (32)</text>
<polyline fill="none" stroke="black" points="66.41,-576.9 1197.38,-576.9 "/>
<text text-anchor="middle" x="631.84" y="-560.3" font-family="Courier New" font-size="14.00">uint256: VaultStorage.rebaseThreshold (32)</text>
<polyline fill="none" stroke="black" points="66.41,-552.1 1197.38,-552.1 "/>
<text text-anchor="middle" x="323.62" y="-535.5" font-family="Courier New" font-size="14.00">unallocated (12)</text>
<polyline fill="none" stroke="black" points="580.83,-527.3 580.83,-552.1 "/>
<text text-anchor="middle" x="888.95" y="-535.5" font-family="Courier New" font-size="14.00">OUSD: VaultStorage.oUSD (20)</text>
<polyline fill="none" stroke="black" points="66.41,-527.3 1197.38,-527.3 "/>
<text text-anchor="middle" x="269.12" y="-510.7" font-family="Courier New" font-size="14.00">unallocated (12)</text>
<polyline fill="none" stroke="black" points="471.83,-502.5 471.83,-527.3 "/>
<text text-anchor="middle" x="834.17" y="-510.7" font-family="Courier New" font-size="14.00">address: VaultStorage._deprecated_rebaseHooksAddr (20)</text>
<polyline fill="none" stroke="black" points="66.41,-502.5 1197.38,-502.5 "/>
<text text-anchor="middle" x="277.62" y="-485.9" font-family="Courier New" font-size="14.00">unallocated (12)</text>
<polyline fill="none" stroke="black" points="488.83,-477.7 488.83,-502.5 "/>
<text text-anchor="middle" x="842.86" y="-485.9" font-family="Courier New" font-size="14.00">address: VaultStorage._deprecated_uniswapAddr (20)</text>
<polyline fill="none" stroke="black" points="66.41,-477.7 1197.38,-477.7 "/>
<text text-anchor="middle" x="296.62" y="-461.1" font-family="Courier New" font-size="14.00">unallocated (12)</text>
<polyline fill="none" stroke="black" points="526.83,-452.9 526.83,-477.7 "/>
<text text-anchor="middle" x="862.06" y="-461.1" font-family="Courier New" font-size="14.00">address: VaultStorage.strategistAddr (20)</text>
<polyline fill="none" stroke="black" points="66.41,-452.9 1197.38,-452.9 "/>
<text text-anchor="middle" x="631.85" y="-436.3" font-family="Courier New" font-size="14.00">mapping(address=&gt;address): VaultStorage.assetDefaultStrategies (32)</text>
<polyline fill="none" stroke="black" points="66.41,-428.1 1197.38,-428.1 "/>
<text text-anchor="middle" x="631.44" y="-411.5" font-family="Courier New" font-size="14.00">uint256: VaultStorage.maxSupplyDiff (32)</text>
<polyline fill="none" stroke="black" points="66.41,-403.3 1197.38,-403.3 "/>
<text text-anchor="middle" x="296.62" y="-386.7" font-family="Courier New" font-size="14.00">unallocated (12)</text>
<polyline fill="none" stroke="black" points="526.83,-378.5 526.83,-403.3 "/>
<text text-anchor="middle" x="862.06" y="-386.7" font-family="Courier New" font-size="14.00">address: VaultStorage.trusteeAddress (20)</text>
<polyline fill="none" stroke="black" points="66.41,-378.5 1197.38,-378.5 "/>
<text text-anchor="middle" x="631.44" y="-361.9" font-family="Courier New" font-size="14.00">uint256: VaultStorage.trusteeFeeBps (32)</text>
<polyline fill="none" stroke="black" points="66.41,-353.7 1197.38,-353.7 "/>
<text text-anchor="middle" x="631.64" y="-337.1" font-family="Courier New" font-size="14.00">address[]: VaultStorage._deprecated_swapTokens (32)</text>
<polyline fill="none" stroke="black" points="66.41,-328.9 1197.38,-328.9 "/>
<text text-anchor="middle" x="292.12" y="-312.3" font-family="Courier New" font-size="14.00">unallocated (12)</text>
<polyline fill="none" stroke="black" points="517.83,-304.1 517.83,-328.9 "/>
<text text-anchor="middle" x="857.46" y="-312.3" font-family="Courier New" font-size="14.00">address: VaultStorage.ousdMetaStrategy (20)</text>
<polyline fill="none" stroke="black" points="66.41,-304.1 1197.38,-304.1 "/>
<text text-anchor="middle" x="631.44" y="-287.5" font-family="Courier New" font-size="14.00">int256: VaultStorage.netOusdMintedForStrategy (32)</text>
<polyline fill="none" stroke="black" points="66.41,-279.3 1197.38,-279.3 "/>
<text text-anchor="middle" x="631.55" y="-262.7" font-family="Courier New" font-size="14.00">uint256: VaultStorage.netOusdMintForStrategyThreshold (32)</text>
<polyline fill="none" stroke="black" points="66.41,-254.5 1197.38,-254.5 "/>
<text text-anchor="middle" x="631.44" y="-237.9" font-family="Courier New" font-size="14.00">SwapConfig: VaultStorage.swapConfig (32)</text>
<polyline fill="none" stroke="black" points="66.41,-229.7 1197.38,-229.7 "/>
<text text-anchor="middle" x="631.85" y="-213.1" font-family="Courier New" font-size="14.00">mapping(address=&gt;bool): VaultStorage.isMintWhitelistedStrategy (32)</text>
<polyline fill="none" stroke="black" points="66.41,-204.9 1197.38,-204.9 "/>
<text text-anchor="middle" x="311.12" y="-188.3" font-family="Courier New" font-size="14.00">unallocated (12)</text>
<polyline fill="none" stroke="black" points="555.83,-180.1 555.83,-204.9 "/>
<text text-anchor="middle" x="876.15" y="-188.3" font-family="Courier New" font-size="14.00">address: VaultStorage.dripper (20)</text>
<polyline fill="none" stroke="black" points="66.41,-180.1 1197.38,-180.1 "/>
<text text-anchor="middle" x="631.65" y="-163.5" font-family="Courier New" font-size="14.00">WithdrawalQueueMetadata: VaultStorage.withdrawalQueueMetadata (64)</text>
<polyline fill="none" stroke="black" points="66.41,-155.3 1197.38,-155.3 "/>
<text text-anchor="middle" x="631.56" y="-138.7" font-family="Courier New" font-size="14.00">mapping(uint256=&gt;WithdrawalRequest): VaultStorage.withdrawalRequests (32)</text>
<polyline fill="none" stroke="black" points="66.41,-130.5 1197.38,-130.5 "/>
<text text-anchor="middle" x="631.53" y="-113.9" font-family="Courier New" font-size="14.00">uint256[45]: VaultStorage.__gap (1440)</text>
</g>
<!-- 1 -->
<g id="node2" class="node">
<title>1</title>
<polygon fill="#f2f2f2" stroke="black" points="1233.38,-846.9 1233.38,-921.3 2438.36,-921.3 2438.36,-846.9 1233.38,-846.9"/>
<text text-anchor="middle" x="1835.87" y="-904.7" font-family="Courier New" font-size="14.00">Asset &lt;&lt;Struct&gt;&gt;</text>
<polyline fill="none" stroke="black" points="1233.38,-896.5 2438.36,-896.5 "/>
<text text-anchor="middle" x="1266.59" y="-879.9" font-family="Courier New" font-size="14.00">offset</text>
<polyline fill="none" stroke="black" points="1233.38,-871.7 1299.79,-871.7 "/>
<text text-anchor="middle" x="1266.59" y="-855.1" font-family="Courier New" font-size="14.00">0</text>
<polyline fill="none" stroke="black" points="1299.79,-846.9 1299.79,-896.5 "/>
<text text-anchor="middle" x="1869.08" y="-879.9" font-family="Courier New" font-size="14.00">type: variable (bytes)</text>
<polyline fill="none" stroke="black" points="1299.79,-871.7 2438.36,-871.7 "/>
<text text-anchor="middle" x="1375" y="-855.1" font-family="Courier New" font-size="14.00">unallocated (27)</text>
<polyline fill="none" stroke="black" points="1450.21,-846.9 1450.21,-871.7 "/>
<text text-anchor="middle" x="1609.44" y="-855.1" font-family="Courier New" font-size="14.00">uint16: allowedOracleSlippageBps (2)</text>
<polyline fill="none" stroke="black" points="1768.66,-846.9 1768.66,-871.7 "/>
<text text-anchor="middle" x="1856.47" y="-855.1" font-family="Courier New" font-size="14.00">uint8: decimals (1)</text>
<polyline fill="none" stroke="black" points="1944.29,-846.9 1944.29,-871.7 "/>
<text text-anchor="middle" x="2095.11" y="-855.1" font-family="Courier New" font-size="14.00">UnitConversion: unitConversion (1)</text>
<polyline fill="none" stroke="black" points="2245.93,-846.9 2245.93,-871.7 "/>
<text text-anchor="middle" x="2342.15" y="-855.1" font-family="Courier New" font-size="14.00">bool: isSupported (1)</text>
</g>
<!-- 8&#45;&gt;1 -->
<g id="edge1" class="edge">
<title>8:8&#45;&gt;1</title>
<path fill="none" stroke="black" d="M1197.38,-763.1C1233.96,-763.1 1203.15,-816.51 1233.38,-837.1 1235.56,-838.58 1237.75,-840.04 1239.96,-841.48"/>
<polygon fill="black" stroke="black" points="1238.22,-844.52 1248.55,-846.89 1241.96,-838.6 1238.22,-844.52"/>
</g>
<!-- 2 -->
<g id="node3" class="node">
<title>2</title>
<polygon fill="#f2f2f2" stroke="black" points="1550.63,-736.5 1550.63,-827.7 2121.12,-827.7 2121.12,-736.5 1550.63,-736.5"/>
<text text-anchor="middle" x="1835.87" y="-811.1" font-family="Courier New" font-size="14.00">address[]: allAssets &lt;&lt;Array&gt;&gt;</text>
<text text-anchor="middle" x="1835.87" y="-794.3" font-family="Courier New" font-size="14.00">0x46bddb1178e94d7f2892ff5f366840eb658911794f2c3a44c450aa2c505186c1</text>
<polyline fill="none" stroke="black" points="1550.63,-786.1 2121.12,-786.1 "/>
<text text-anchor="middle" x="1642.83" y="-769.5" font-family="Courier New" font-size="14.00">offset</text>
<polyline fill="none" stroke="black" points="1550.63,-761.3 1735.04,-761.3 "/>
<text text-anchor="middle" x="1642.83" y="-744.7" font-family="Courier New" font-size="14.00">0</text>
<polyline fill="none" stroke="black" points="1735.04,-736.5 1735.04,-786.1 "/>
<text text-anchor="middle" x="1927.65" y="-769.5" font-family="Courier New" font-size="14.00">type: variable (bytes)</text>
<polyline fill="none" stroke="black" points="1735.04,-761.3 2120.27,-761.3 "/>
<text text-anchor="middle" x="1839.75" y="-744.7" font-family="Courier New" font-size="14.00">unallocated (12)</text>
<polyline fill="none" stroke="black" points="1944.46,-736.5 1944.46,-761.3 "/>
<text text-anchor="middle" x="2032.37" y="-744.7" font-family="Courier New" font-size="14.00">address (20)</text>
</g>
<!-- 8&#45;&gt;2 -->
<g id="edge2" class="edge">
<title>8:10&#45;&gt;2</title>
<path fill="none" stroke="black" d="M1197.38,-738.1C1309.53,-738.1 1432.52,-744.96 1540.3,-753.27"/>
<polygon fill="black" stroke="black" points="1540.11,-756.76 1550.35,-754.05 1540.65,-749.78 1540.11,-756.76"/>
</g>
<!-- 3 -->
<g id="node4" class="node">
<title>3</title>
<polygon fill="#f2f2f2" stroke="black" points="1631.24,-618.5 1631.24,-717.7 2040.5,-717.7 2040.5,-618.5 1631.24,-618.5"/>
<text text-anchor="middle" x="1835.87" y="-701.1" font-family="Courier New" font-size="14.00">Strategy &lt;&lt;Struct&gt;&gt;</text>
<polyline fill="none" stroke="black" points="1631.24,-692.9 2040.5,-692.9 "/>
<text text-anchor="middle" x="1664.45" y="-676.3" font-family="Courier New" font-size="14.00">offset</text>
<polyline fill="none" stroke="black" points="1631.24,-668.1 1697.65,-668.1 "/>
<text text-anchor="middle" x="1664.45" y="-651.5" font-family="Courier New" font-size="14.00">0</text>
<polyline fill="none" stroke="black" points="1631.24,-643.3 1697.65,-643.3 "/>
<text text-anchor="middle" x="1664.45" y="-626.7" font-family="Courier New" font-size="14.00">1</text>
<polyline fill="none" stroke="black" points="1697.65,-618.5 1697.65,-692.9 "/>
<text text-anchor="middle" x="1869.08" y="-676.3" font-family="Courier New" font-size="14.00">type: variable (bytes)</text>
<polyline fill="none" stroke="black" points="1697.65,-668.1 2040.5,-668.1 "/>
<text text-anchor="middle" x="1772.86" y="-651.5" font-family="Courier New" font-size="14.00">unallocated (31)</text>
<polyline fill="none" stroke="black" points="1848.07,-643.3 1848.07,-668.1 "/>
<text text-anchor="middle" x="1944.29" y="-651.5" font-family="Courier New" font-size="14.00">bool: isSupported (1)</text>
<polyline fill="none" stroke="black" points="1697.65,-643.3 2040.5,-643.3 "/>
<text text-anchor="middle" x="1868.67" y="-626.7" font-family="Courier New" font-size="14.00">uint256: _deprecated (32)</text>
</g>
<!-- 8&#45;&gt;3 -->
<g id="edge3" class="edge">
<title>8:13&#45;&gt;3</title>
<path fill="none" stroke="black" d="M1197.38,-713.1C1338.76,-713.1 1497.34,-701.95 1620.97,-690.75"/>
<polygon fill="black" stroke="black" points="1621.29,-694.24 1630.93,-689.84 1620.66,-687.27 1621.29,-694.24"/>
</g>
<!-- 4 -->
<g id="node5" class="node">
<title>4</title>
<polygon fill="#f2f2f2" stroke="black" points="1550.63,-508.5 1550.63,-599.7 2121.12,-599.7 2121.12,-508.5 1550.63,-508.5"/>
<text text-anchor="middle" x="1835.87" y="-583.1" font-family="Courier New" font-size="14.00">address[]: allStrategies &lt;&lt;Array&gt;&gt;</text>
<text text-anchor="middle" x="1835.87" y="-566.3" font-family="Courier New" font-size="14.00">0x4a11f94e20a93c79f6ec743a1954ec4fc2c08429ae2122118bf234b2185c81b8</text>
<polyline fill="none" stroke="black" points="1550.63,-558.1 2121.12,-558.1 "/>
<text text-anchor="middle" x="1642.83" y="-541.5" font-family="Courier New" font-size="14.00">offset</text>
<polyline fill="none" stroke="black" points="1550.63,-533.3 1735.04,-533.3 "/>
<text text-anchor="middle" x="1642.83" y="-516.7" font-family="Courier New" font-size="14.00">0</text>
<polyline fill="none" stroke="black" points="1735.04,-508.5 1735.04,-558.1 "/>
<text text-anchor="middle" x="1927.65" y="-541.5" font-family="Courier New" font-size="14.00">type: variable (bytes)</text>
<polyline fill="none" stroke="black" points="1735.04,-533.3 2120.27,-533.3 "/>
<text text-anchor="middle" x="1839.75" y="-516.7" font-family="Courier New" font-size="14.00">unallocated (12)</text>
<polyline fill="none" stroke="black" points="1944.46,-508.5 1944.46,-533.3 "/>
<text text-anchor="middle" x="2032.37" y="-516.7" font-family="Courier New" font-size="14.00">address (20)</text>
</g>
<!-- 8&#45;&gt;4 -->
<g id="edge4" class="edge">
<title>8:15&#45;&gt;4</title>
<path fill="none" stroke="black" d="M1197.38,-688.1C1235.97,-688.1 1201.92,-631.43 1233.38,-609.1 1321.09,-546.85 1435.07,-525.66 1540.19,-522.61"/>
<polygon fill="black" stroke="black" points="1540.42,-526.1 1550.33,-522.37 1540.25,-519.11 1540.42,-526.1"/>
</g>
<!-- 5 -->
<g id="node6" class="node">
<title>5</title>
<polygon fill="#f2f2f2" stroke="black" points="1497.22,-236.9 1497.22,-311.3 2174.52,-311.3 2174.52,-236.9 1497.22,-236.9"/>
<text text-anchor="middle" x="1835.87" y="-294.7" font-family="Courier New" font-size="14.00">SwapConfig &lt;&lt;Struct&gt;&gt;</text>
<polyline fill="none" stroke="black" points="1497.22,-286.5 2174.52,-286.5 "/>
<text text-anchor="middle" x="1522.02" y="-269.9" font-family="Courier New" font-size="14.00">slot</text>
<polyline fill="none" stroke="black" points="1497.22,-261.7 1546.83,-261.7 "/>
<text text-anchor="middle" x="1522.02" y="-245.1" font-family="Courier New" font-size="14.00">72</text>
<polyline fill="none" stroke="black" points="1546.83,-236.9 1546.83,-286.5 "/>
<text text-anchor="middle" x="1860.67" y="-269.9" font-family="Courier New" font-size="14.00">type: variable (bytes)</text>
<polyline fill="none" stroke="black" points="1546.83,-261.7 2174.52,-261.7 "/>
<text text-anchor="middle" x="1622.04" y="-245.1" font-family="Courier New" font-size="14.00">unallocated (10)</text>
<polyline fill="none" stroke="black" points="1697.25,-236.9 1697.25,-261.7 "/>
<text text-anchor="middle" x="1839.67" y="-245.1" font-family="Courier New" font-size="14.00">uint16: allowedUndervalueBps (2)</text>
<polyline fill="none" stroke="black" points="1982.09,-236.9 1982.09,-261.7 "/>
<text text-anchor="middle" x="2078.31" y="-245.1" font-family="Courier New" font-size="14.00">address: swapper (20)</text>
</g>
<!-- 8&#45;&gt;5 -->
<g id="edge5" class="edge">
<title>8:37&#45;&gt;5</title>
<path fill="none" stroke="black" d="M1197.38,-242.1C1291.34,-242.1 1392.98,-245.61 1486.92,-250.31"/>
<polygon fill="black" stroke="black" points="1486.99,-253.81 1497.16,-250.82 1487.35,-246.82 1486.99,-253.81"/>
</g>
<!-- 6 -->
<g id="node7" class="node">
<title>6</title>
<polygon fill="#f2f2f2" stroke="black" points="1568.23,-118.5 1568.23,-217.7 2103.51,-217.7 2103.51,-118.5 1568.23,-118.5"/>
<text text-anchor="middle" x="1835.87" y="-201.1" font-family="Courier New" font-size="14.00">WithdrawalQueueMetadata &lt;&lt;Struct&gt;&gt;</text>
<polyline fill="none" stroke="black" points="1568.23,-192.9 2103.51,-192.9 "/>
<text text-anchor="middle" x="1593.04" y="-176.3" font-family="Courier New" font-size="14.00">slot</text>
<polyline fill="none" stroke="black" points="1568.23,-168.1 1617.84,-168.1 "/>
<text text-anchor="middle" x="1593.04" y="-151.5" font-family="Courier New" font-size="14.00">75</text>
<polyline fill="none" stroke="black" points="1568.23,-143.3 1617.84,-143.3 "/>
<text text-anchor="middle" x="1593.04" y="-126.7" font-family="Courier New" font-size="14.00">76</text>
<polyline fill="none" stroke="black" points="1617.84,-118.5 1617.84,-192.9 "/>
<text text-anchor="middle" x="1860.67" y="-176.3" font-family="Courier New" font-size="14.00">type: variable (bytes)</text>
<polyline fill="none" stroke="black" points="1617.84,-168.1 2103.51,-168.1 "/>
<text text-anchor="middle" x="1745.45" y="-151.5" font-family="Courier New" font-size="14.00">uint128: claimable (16)</text>
<polyline fill="none" stroke="black" points="1873.07,-143.3 1873.07,-168.1 "/>
<text text-anchor="middle" x="1988.08" y="-151.5" font-family="Courier New" font-size="14.00">uint128: queued (16)</text>
<polyline fill="none" stroke="black" points="1617.84,-143.3 2103.51,-143.3 "/>
<text text-anchor="middle" x="1764.46" y="-126.7" font-family="Courier New" font-size="14.00">uint128: nextWithdrawalIndex (16)</text>
<polyline fill="none" stroke="black" points="1911.08,-118.5 1911.08,-143.3 "/>
<text text-anchor="middle" x="2007.3" y="-126.7" font-family="Courier New" font-size="14.00">uint128: claimed (16)</text>
</g>
<!-- 8&#45;&gt;6 -->
<g id="edge6" class="edge">
<title>8:44&#45;&gt;6</title>
<path fill="none" stroke="black" d="M1197.38,-168.1C1315.56,-168.1 1446.06,-168.1 1558.04,-168.1"/>
<polygon fill="black" stroke="black" points="1558.13,-171.6 1568.13,-168.1 1558.13,-164.6 1558.13,-171.6"/>
</g>
<!-- 7 -->
<g id="node8" class="node">
<title>7</title>
<polygon fill="#f2f2f2" stroke="black" points="1447.22,-0.5 1447.22,-99.7 2224.53,-99.7 2224.53,-0.5 1447.22,-0.5"/>
<text text-anchor="middle" x="1835.87" y="-83.1" font-family="Courier New" font-size="14.00">WithdrawalRequest &lt;&lt;Struct&gt;&gt;</text>
<polyline fill="none" stroke="black" points="1447.22,-74.9 2224.53,-74.9 "/>
<text text-anchor="middle" x="1480.42" y="-58.3" font-family="Courier New" font-size="14.00">offset</text>
<polyline fill="none" stroke="black" points="1447.22,-50.1 1513.62,-50.1 "/>
<text text-anchor="middle" x="1480.42" y="-33.5" font-family="Courier New" font-size="14.00">0</text>
<polyline fill="none" stroke="black" points="1447.22,-25.3 1513.62,-25.3 "/>
<text text-anchor="middle" x="1480.42" y="-8.7" font-family="Courier New" font-size="14.00">1</text>
<polyline fill="none" stroke="black" points="1513.62,-0.5 1513.62,-74.9 "/>
<text text-anchor="middle" x="1869.08" y="-58.3" font-family="Courier New" font-size="14.00">type: variable (bytes)</text>
<polyline fill="none" stroke="black" points="1513.62,-50.1 2224.53,-50.1 "/>
<text text-anchor="middle" x="1584.63" y="-33.5" font-family="Courier New" font-size="14.00">unallocated (6)</text>
<polyline fill="none" stroke="black" points="1655.64,-25.3 1655.64,-50.1 "/>
<text text-anchor="middle" x="1751.86" y="-33.5" font-family="Courier New" font-size="14.00">uint40: timestamp (5)</text>
<polyline fill="none" stroke="black" points="1848.07,-25.3 1848.07,-50.1 "/>
<text text-anchor="middle" x="1927.48" y="-33.5" font-family="Courier New" font-size="14.00">bool: claimed (1)</text>
<polyline fill="none" stroke="black" points="2006.9,-25.3 2006.9,-50.1 "/>
<text text-anchor="middle" x="2115.71" y="-33.5" font-family="Courier New" font-size="14.00">address: withdrawer (20)</text>
<polyline fill="none" stroke="black" points="1513.62,-25.3 2224.53,-25.3 "/>
<text text-anchor="middle" x="1691.14" y="-8.7" font-family="Courier New" font-size="14.00">uint128: queued (16)</text>
<polyline fill="none" stroke="black" points="1868.65,-0.5 1868.65,-25.3 "/>
<text text-anchor="middle" x="2046.16" y="-8.7" font-family="Courier New" font-size="14.00">uint128: amount (16)</text>
</g>
<!-- 8&#45;&gt;7 -->
<g id="edge7" class="edge">
<title>8:50&#45;&gt;7</title>
<path fill="none" stroke="black" d="M1197.38,-143.1C1219.39,-143.1 1213.35,-118.22 1233.38,-109.1 1296.41,-80.4 1366.92,-62.58 1436.87,-51.93"/>
<polygon fill="black" stroke="black" points="1437.8,-55.33 1447.18,-50.41 1436.78,-48.4 1437.8,-55.33"/>
</g>
</g>
</svg>
