<?xml version="1.0" encoding="UTF-8" standalone="no"?>
<!DOCTYPE svg PUBLIC "-//W3C//DTD SVG 1.1//EN"
 "http://www.w3.org/Graphics/SVG/1.1/DTD/svg11.dtd">
<!-- Generated by graphviz version 5.0.0 (20220707.1540)
 -->
<!-- Title: UmlClassDiagram Pages: 1 -->
<svg width="918pt" height="539pt"
 viewBox="0.00 0.00 918.46 539.00" xmlns="http://www.w3.org/2000/svg" xmlns:xlink="http://www.w3.org/1999/xlink">
<g id="graph0" class="graph" transform="scale(1 1) rotate(0) translate(4 535)">
<title>UmlClassDiagram</title>
<polygon fill="white" stroke="transparent" points="-4,4 -4,-535 914.46,-535 914.46,4 -4,4"/>
<!-- 21 -->
<g id="node1" class="node">
<title>21</title>
<polygon fill="#f2f2f2" stroke="black" points="348.35,-488.9 348.35,-530.5 583.21,-530.5 583.21,-488.9 348.35,-488.9"/>
<text text-anchor="middle" x="465.78" y="-513.9" font-family="Times,serif" font-size="14.00">Governable</text>
<text text-anchor="middle" x="465.78" y="-497.1" font-family="Times,serif" font-size="14.00">../contracts/governance/Governable.sol</text>
</g>
<!-- 261 -->
<g id="node2" class="node">
<title>261</title>
<polygon fill="#f2f2f2" stroke="black" points="436.65,-401.9 436.65,-443.5 610.91,-443.5 610.91,-401.9 436.65,-401.9"/>
<text text-anchor="middle" x="523.78" y="-426.9" font-family="Times,serif" font-size="14.00">OUSD</text>
<text text-anchor="middle" x="523.78" y="-410.1" font-family="Times,serif" font-size="14.00">../contracts/token/OUSD.sol</text>
</g>
<!-- 261&#45;&gt;21 -->
<g id="edge1" class="edge">
<title>261&#45;&gt;21</title>
<path fill="none" stroke="black" d="M510.04,-443.84C505.92,-449.88 501.23,-456.75 496.48,-463.72"/>
<polygon fill="none" stroke="black" points="487.66,-458 479.43,-488.7 505.01,-469.84 487.66,-458"/>
</g>
<!-- 277 -->
<g id="node3" class="node">
<title>277</title>
<polygon fill="#f2f2f2" stroke="black" points="628.78,-393.5 628.78,-451.9 824.79,-451.9 824.79,-393.5 628.78,-393.5"/>
<text text-anchor="middle" x="726.78" y="-435.3" font-family="Times,serif" font-size="14.00">&lt;&lt;Abstract&gt;&gt;</text>
<text text-anchor="middle" x="726.78" y="-418.5" font-family="Times,serif" font-size="14.00">Initializable</text>
<text text-anchor="middle" x="726.78" y="-401.7" font-family="Times,serif" font-size="14.00">../contracts/utils/Initializable.sol</text>
</g>
<!-- 282 -->
<g id="node4" class="node">
<title>282</title>
<polygon fill="#f2f2f2" stroke="black" points="0,-79.1 0,-120.7 267.56,-120.7 267.56,-79.1 0,-79.1"/>
<text text-anchor="middle" x="133.78" y="-104.1" font-family="Times,serif" font-size="14.00">OETHBaseVaultAdmin</text>
<text text-anchor="middle" x="133.78" y="-87.3" font-family="Times,serif" font-size="14.00">../contracts/vault/OETHBaseVaultAdmin.sol</text>
</g>
<!-- 286 -->
<g id="node6" class="node">
<title>286</title>
<polygon fill="#f2f2f2" stroke="black" points="287.61,-157.7 287.61,-199.3 527.96,-199.3 527.96,-157.7 287.61,-157.7"/>
<text text-anchor="middle" x="407.78" y="-182.7" font-family="Times,serif" font-size="14.00">OETHVaultAdmin</text>
<text text-anchor="middle" x="407.78" y="-165.9" font-family="Times,serif" font-size="14.00">../contracts/vault/OETHVaultAdmin.sol</text>
</g>
<!-- 282&#45;&gt;286 -->
<g id="edge2" class="edge">
<title>282&#45;&gt;286</title>
<path fill="none" stroke="black" d="M204.7,-120.73C236.1,-129.5 273.58,-139.98 307.75,-149.53"/>
<polygon fill="none" stroke="black" points="304.97,-159.66 336.68,-157.62 310.62,-139.43 304.97,-159.66"/>
</g>
<!-- 283 -->
<g id="node5" class="node">
<title>283</title>
<polygon fill="#f2f2f2" stroke="black" points="402.84,-0.5 402.84,-42.1 658.72,-42.1 658.72,-0.5 402.84,-0.5"/>
<text text-anchor="middle" x="530.78" y="-25.5" font-family="Times,serif" font-size="14.00">OETHBaseVaultCore</text>
<text text-anchor="middle" x="530.78" y="-8.7" font-family="Times,serif" font-size="14.00">../contracts/vault/OETHBaseVaultCore.sol</text>
</g>
<!-- 287 -->
<g id="node7" class="node">
<title>287</title>
<polygon fill="#f2f2f2" stroke="black" points="548.44,-79.1 548.44,-120.7 777.12,-120.7 777.12,-79.1 548.44,-79.1"/>
<text text-anchor="middle" x="662.78" y="-104.1" font-family="Times,serif" font-size="14.00">OETHVaultCore</text>
<text text-anchor="middle" x="662.78" y="-87.3" font-family="Times,serif" font-size="14.00">../contracts/vault/OETHVaultCore.sol</text>
</g>
<!-- 283&#45;&gt;287 -->
<g id="edge3" class="edge">
<title>283&#45;&gt;287</title>
<path fill="none" stroke="black" d="M565.12,-42.23C576.58,-48.88 589.7,-56.49 602.54,-63.94"/>
<polygon fill="none" stroke="black" points="597.4,-73.1 628.62,-79.07 607.94,-54.93 597.4,-73.1"/>
</g>
<!-- 293 -->
<g id="node10" class="node">
<title>293</title>
<polygon fill="#f2f2f2" stroke="black" points="308.27,-236.3 308.27,-277.9 511.29,-277.9 511.29,-236.3 308.27,-236.3"/>
<text text-anchor="middle" x="409.78" y="-261.3" font-family="Times,serif" font-size="14.00">VaultAdmin</text>
<text text-anchor="middle" x="409.78" y="-244.5" font-family="Times,serif" font-size="14.00">../contracts/vault/VaultAdmin.sol</text>
</g>
<!-- 286&#45;&gt;293 -->
<g id="edge4" class="edge">
<title>286&#45;&gt;293</title>
<path fill="none" stroke="black" d="M408.31,-199.63C408.36,-201.65 408.41,-203.76 408.47,-205.93"/>
<polygon fill="none" stroke="black" points="397.98,-206.39 409.26,-236.11 418.97,-205.84 397.98,-206.39"/>
</g>
<!-- 294 -->
<g id="node11" class="node">
<title>294</title>
<polygon fill="#f2f2f2" stroke="black" points="556.11,-157.7 556.11,-199.3 747.46,-199.3 747.46,-157.7 556.11,-157.7"/>
<text text-anchor="middle" x="651.78" y="-182.7" font-family="Times,serif" font-size="14.00">VaultCore</text>
<text text-anchor="middle" x="651.78" y="-165.9" font-family="Times,serif" font-size="14.00">../contracts/vault/VaultCore.sol</text>
</g>
<!-- 287&#45;&gt;294 -->
<g id="edge5" class="edge">
<title>287&#45;&gt;294</title>
<path fill="none" stroke="black" d="M659.89,-121.03C659.59,-123.14 659.27,-125.34 658.95,-127.61"/>
<polygon fill="none" stroke="black" points="648.52,-126.32 654.65,-157.51 669.31,-129.31 648.52,-126.32"/>
</g>
<!-- 289 -->
<g id="node8" class="node">
<title>289</title>
<polygon fill="#f2f2f2" stroke="black" points="285.27,-79.1 285.27,-120.7 530.29,-120.7 530.29,-79.1 285.27,-79.1"/>
<text text-anchor="middle" x="407.78" y="-104.1" font-family="Times,serif" font-size="14.00">OSonicVaultAdmin</text>
<text text-anchor="middle" x="407.78" y="-87.3" font-family="Times,serif" font-size="14.00">../contracts/vault/OSonicVaultAdmin.sol</text>
</g>
<!-- 289&#45;&gt;286 -->
<g id="edge6" class="edge">
<title>289&#45;&gt;286</title>
<path fill="none" stroke="black" d="M407.78,-121.03C407.78,-123.05 407.78,-125.16 407.78,-127.33"/>
<polygon fill="none" stroke="black" points="397.28,-127.51 407.78,-157.51 418.28,-127.51 397.28,-127.51"/>
</g>
<!-- 290 -->
<g id="node9" class="node">
<title>290</title>
<polygon fill="#f2f2f2" stroke="black" points="677.11,-0.5 677.11,-42.1 910.46,-42.1 910.46,-0.5 677.11,-0.5"/>
<text text-anchor="middle" x="793.78" y="-25.5" font-family="Times,serif" font-size="14.00">OSonicVaultCore</text>
<text text-anchor="middle" x="793.78" y="-8.7" font-family="Times,serif" font-size="14.00">../contracts/vault/OSonicVaultCore.sol</text>
</g>
<!-- 290&#45;&gt;287 -->
<g id="edge7" class="edge">
<title>290&#45;&gt;287</title>
<path fill="none" stroke="black" d="M759.7,-42.23C748.41,-48.83 735.48,-56.39 722.82,-63.79"/>
<polygon fill="none" stroke="black" points="717.28,-54.87 696.69,-79.07 727.89,-72.99 717.28,-54.87"/>
</g>
<!-- 296 -->
<g id="node13" class="node">
<title>296</title>
<polygon fill="#f2f2f2" stroke="black" points="420.33,-314.9 420.33,-356.5 627.23,-356.5 627.23,-314.9 420.33,-314.9"/>
<text text-anchor="middle" x="523.78" y="-339.9" font-family="Times,serif" font-size="14.00">VaultStorage</text>
<text text-anchor="middle" x="523.78" y="-323.1" font-family="Times,serif" font-size="14.00">../contracts/vault/VaultStorage.sol</text>
</g>
<!-- 293&#45;&gt;296 -->
<g id="edge8" class="edge">
<title>293&#45;&gt;296</title>
<path fill="none" stroke="black" d="M439.44,-278.03C448.54,-284.14 458.86,-291.08 469.09,-297.95"/>
<polygon fill="none" stroke="black" points="463.52,-306.86 494.28,-314.87 475.23,-289.43 463.52,-306.86"/>
</g>
<!-- 295 -->
<g id="node12" class="node">
<title>295</title>
<polygon fill="#f2f2f2" stroke="black" points="535.51,-236.3 535.51,-277.9 754.06,-277.9 754.06,-236.3 535.51,-236.3"/>
<text text-anchor="middle" x="644.78" y="-261.3" font-family="Times,serif" font-size="14.00">VaultInitializer</text>
<text text-anchor="middle" x="644.78" y="-244.5" font-family="Times,serif" font-size="14.00">../contracts/vault/VaultInitializer.sol</text>
</g>
<!-- 294&#45;&gt;295 -->
<g id="edge9" class="edge">
<title>294&#45;&gt;295</title>
<path fill="none" stroke="black" d="M649.94,-199.63C649.75,-201.74 649.55,-203.94 649.34,-206.21"/>
<polygon fill="none" stroke="black" points="638.88,-205.28 646.61,-236.11 659.79,-207.19 638.88,-205.28"/>
</g>
<!-- 295&#45;&gt;296 -->
<g id="edge10" class="edge">
<title>295&#45;&gt;296</title>
<path fill="none" stroke="black" d="M613.31,-278.03C603.36,-284.32 592.05,-291.48 580.89,-298.55"/>
<polygon fill="none" stroke="black" points="574.83,-289.96 555.1,-314.87 586.06,-307.7 574.83,-289.96"/>
</g>
<!-- 296&#45;&gt;21 -->
<g id="edge12" class="edge">
<title>296&#45;&gt;21</title>
<path fill="none" stroke="black" d="M468.46,-356.6C452.48,-365.21 436.9,-377.07 427.78,-393 414.66,-415.91 420.06,-427.15 427.78,-452.4 428.89,-456.04 430.33,-459.65 431.99,-463.19"/>
<polygon fill="none" stroke="black" points="423.26,-469.04 448.11,-488.86 441.04,-457.87 423.26,-469.04"/>
</g>
<!-- 296&#45;&gt;261 -->
<g id="edge13" class="edge">
<title>296&#45;&gt;261</title>
<path fill="none" stroke="black" d="M523.78,-356.84C523.78,-367.22 523.78,-380.08 523.78,-391.6"/>
<polygon fill="black" stroke="black" points="520.28,-391.7 523.78,-401.7 527.28,-391.7 520.28,-391.7"/>
</g>
<!-- 296&#45;&gt;277 -->
<g id="edge11" class="edge">
<title>296&#45;&gt;277</title>
<path fill="none" stroke="black" d="M571.12,-356.52C589.16,-364.08 610.43,-372.98 631.36,-381.74"/>
<polygon fill="none" stroke="black" points="627.62,-391.56 659.34,-393.46 635.73,-372.19 627.62,-391.56"/>
</g>
</g>
</svg>
