<?xml version="1.0" encoding="UTF-8" standalone="no"?>
<!DOCTYPE svg PUBLIC "-//W3C//DTD SVG 1.1//EN"
 "http://www.w3.org/Graphics/SVG/1.1/DTD/svg11.dtd">
<!-- Generated by graphviz version 5.0.0 (20220707.1540)
 -->
<!-- Title: UmlClassDiagram Pages: 1 -->
<svg width="1266pt" height="415pt"
 viewBox="0.00 0.00 1266.41 415.40" xmlns="http://www.w3.org/2000/svg" xmlns:xlink="http://www.w3.org/1999/xlink">
<g id="graph0" class="graph" transform="scale(1 1) rotate(0) translate(4 411.4)">
<title>UmlClassDiagram</title>
<polygon fill="white" stroke="transparent" points="-4,4 -4,-411.4 1262.41,-411.4 1262.41,4 -4,4"/>
<!-- 7 -->
<g id="node1" class="node">
<title>7</title>
<polygon fill="#f2f2f2" stroke="black" points="475.04,-261.5 475.04,-303.1 709.9,-303.1 709.9,-261.5 475.04,-261.5"/>
<text text-anchor="middle" x="592.47" y="-286.5" font-family="Times,serif" font-size="14.00">Governable</text>
<text text-anchor="middle" x="592.47" y="-269.7" font-family="Times,serif" font-size="14.00">../contracts/governance/Governable.sol</text>
</g>
<!-- 25 -->
<g id="node2" class="node">
<title>25</title>
<polygon fill="#f2f2f2" stroke="black" points="0,-79.1 0,-137.5 300.94,-137.5 300.94,-79.1 0,-79.1"/>
<text text-anchor="middle" x="150.47" y="-120.9" font-family="Times,serif" font-size="14.00">&lt;&lt;Interface&gt;&gt;</text>
<text text-anchor="middle" x="150.47" y="-104.1" font-family="Times,serif" font-size="14.00">IGetExchangeRateToken</text>
<text text-anchor="middle" x="150.47" y="-87.3" font-family="Times,serif" font-size="14.00">../contracts/interfaces/IGetExchangeRateToken.sol</text>
</g>
<!-- 30 -->
<g id="node3" class="node">
<title>30</title>
<polygon fill="#f2f2f2" stroke="black" points="318.76,-79.1 318.76,-137.5 520.17,-137.5 520.17,-79.1 318.76,-79.1"/>
<text text-anchor="middle" x="419.47" y="-120.9" font-family="Times,serif" font-size="14.00">&lt;&lt;Interface&gt;&gt;</text>
<text text-anchor="middle" x="419.47" y="-104.1" font-family="Times,serif" font-size="14.00">IOracle</text>
<text text-anchor="middle" x="419.47" y="-87.3" font-family="Times,serif" font-size="14.00">../contracts/interfaces/IOracle.sol</text>
</g>
<!-- 33 -->
<g id="node4" class="node">
<title>33</title>
<polygon fill="#f2f2f2" stroke="black" points="538.09,-79.1 538.09,-137.5 748.85,-137.5 748.85,-79.1 538.09,-79.1"/>
<text text-anchor="middle" x="643.47" y="-120.9" font-family="Times,serif" font-size="14.00">&lt;&lt;Interface&gt;&gt;</text>
<text text-anchor="middle" x="643.47" y="-104.1" font-family="Times,serif" font-size="14.00">IStrategy</text>
<text text-anchor="middle" x="643.47" y="-87.3" font-family="Times,serif" font-size="14.00">../contracts/interfaces/IStrategy.sol</text>
</g>
<!-- 142 -->
<g id="node5" class="node">
<title>142</title>
<polygon fill="#f2f2f2" stroke="black" points="783.34,-174.5 783.34,-216.1 957.6,-216.1 957.6,-174.5 783.34,-174.5"/>
<text text-anchor="middle" x="870.47" y="-199.5" font-family="Times,serif" font-size="14.00">OUSD</text>
<text text-anchor="middle" x="870.47" y="-182.7" font-family="Times,serif" font-size="14.00">../contracts/token/OUSD.sol</text>
</g>
<!-- 142&#45;&gt;7 -->
<g id="edge3" class="edge">
<title>142&#45;&gt;7</title>
<path fill="none" stroke="black" d="M805.64,-216.12C770.1,-226.99 725.4,-240.65 686.13,-252.66"/>
<polygon fill="none" stroke="black" points="683.02,-242.63 657.4,-261.45 689.16,-262.72 683.02,-242.63"/>
</g>
<!-- 149 -->
<g id="node6" class="node">
<title>149</title>
<polygon fill="#f2f2f2" stroke="black" points="1030.46,-253.1 1030.46,-311.5 1226.47,-311.5 1226.47,-253.1 1030.46,-253.1"/>
<text text-anchor="middle" x="1128.47" y="-294.9" font-family="Times,serif" font-size="14.00">&lt;&lt;Abstract&gt;&gt;</text>
<text text-anchor="middle" x="1128.47" y="-278.1" font-family="Times,serif" font-size="14.00">Initializable</text>
<text text-anchor="middle" x="1128.47" y="-261.3" font-family="Times,serif" font-size="14.00">../contracts/utils/Initializable.sol</text>
</g>
<!-- 142&#45;&gt;149 -->
<g id="edge1" class="edge">
<title>142&#45;&gt;149</title>
<path fill="none" stroke="black" d="M930.63,-216.12C955.52,-224.32 985.23,-234.11 1013.98,-243.58"/>
<polygon fill="none" stroke="black" points="1010.98,-253.65 1042.76,-253.06 1017.55,-233.7 1010.98,-253.65"/>
</g>
<!-- 151 -->
<g id="node7" class="node">
<title>151</title>
<polygon fill="#f2f2f2" stroke="black" points="728.14,-253.1 728.14,-311.5 1012.8,-311.5 1012.8,-253.1 728.14,-253.1"/>
<text text-anchor="middle" x="870.47" y="-294.9" font-family="Times,serif" font-size="14.00">&lt;&lt;Abstract&gt;&gt;</text>
<text text-anchor="middle" x="870.47" y="-278.1" font-family="Times,serif" font-size="14.00">InitializableERC20Detailed</text>
<text text-anchor="middle" x="870.47" y="-261.3" font-family="Times,serif" font-size="14.00">../contracts/utils/InitializableERC20Detailed.sol</text>
</g>
<!-- 142&#45;&gt;151 -->
<g id="edge2" class="edge">
<title>142&#45;&gt;151</title>
<path fill="none" stroke="black" d="M870.47,-216.44C870.47,-218.49 870.47,-220.63 870.47,-222.83"/>
<polygon fill="none" stroke="black" points="859.97,-222.94 870.47,-252.94 880.97,-222.94 859.97,-222.94"/>
</g>
<!-- 436 -->
<g id="node10" class="node">
<title>436</title>
<polygon fill="#f2f2f2" stroke="black" points="668.41,-348.5 668.41,-406.9 1072.52,-406.9 1072.52,-348.5 668.41,-348.5"/>
<text text-anchor="middle" x="870.47" y="-390.3" font-family="Times,serif" font-size="14.00">&lt;&lt;Interface&gt;&gt;</text>
<text text-anchor="middle" x="870.47" y="-373.5" font-family="Times,serif" font-size="14.00">IERC20</text>
<text text-anchor="middle" x="870.47" y="-356.7" font-family="Times,serif" font-size="14.00">../node_modules/@openzeppelin/contracts/token/ERC20/IERC20.sol</text>
</g>
<!-- 151&#45;&gt;436 -->
<g id="edge4" class="edge">
<title>151&#45;&gt;436</title>
<path fill="none" stroke="black" stroke-dasharray="5,2" d="M870.47,-311.58C870.47,-313.66 870.47,-315.8 870.47,-317.98"/>
<polygon fill="none" stroke="black" points="859.97,-318.2 870.47,-348.2 880.97,-318.2 859.97,-318.2"/>
</g>
<!-- 159 -->
<g id="node8" class="node">
<title>159</title>
<polygon fill="#f2f2f2" stroke="black" points="774.79,-0.5 774.79,-42.1 966.14,-42.1 966.14,-0.5 774.79,-0.5"/>
<text text-anchor="middle" x="870.47" y="-25.5" font-family="Times,serif" font-size="14.00">VaultCore</text>
<text text-anchor="middle" x="870.47" y="-8.7" font-family="Times,serif" font-size="14.00">../contracts/vault/VaultCore.sol</text>
</g>
<!-- 159&#45;&gt;25 -->
<g id="edge9" class="edge">
<title>159&#45;&gt;25</title>
<path fill="none" stroke="black" stroke-dasharray="5,2" d="M774.65,-29.61C664.93,-38.5 479.61,-55.12 311.11,-78.41"/>
<polygon fill="black" stroke="black" points="310.49,-74.96 301.06,-79.81 311.45,-81.89 310.49,-74.96"/>
</g>
<!-- 159&#45;&gt;30 -->
<g id="edge8" class="edge">
<title>159&#45;&gt;30</title>
<path fill="none" stroke="black" stroke-dasharray="5,2" d="M774.49,-35.75C708.39,-45.57 618.42,-60.04 530.29,-78.5"/>
<polygon fill="black" stroke="black" points="529.44,-75.1 520.38,-80.59 530.89,-81.94 529.44,-75.1"/>
</g>
<!-- 159&#45;&gt;33 -->
<g id="edge7" class="edge">
<title>159&#45;&gt;33</title>
<path fill="none" stroke="black" stroke-dasharray="5,2" d="M817.53,-42.12C791.05,-52.04 758.35,-64.28 728.47,-75.47"/>
<polygon fill="black" stroke="black" points="727.02,-72.28 718.88,-79.06 729.47,-78.83 727.02,-72.28"/>
</g>
<!-- 161 -->
<g id="node9" class="node">
<title>161</title>
<polygon fill="#f2f2f2" stroke="black" points="767.02,-87.5 767.02,-129.1 973.92,-129.1 973.92,-87.5 767.02,-87.5"/>
<text text-anchor="middle" x="870.47" y="-112.5" font-family="Times,serif" font-size="14.00">VaultStorage</text>
<text text-anchor="middle" x="870.47" y="-95.7" font-family="Times,serif" font-size="14.00">../contracts/vault/VaultStorage.sol</text>
</g>
<!-- 159&#45;&gt;161 -->
<g id="edge5" class="edge">
<title>159&#45;&gt;161</title>
<path fill="none" stroke="black" d="M870.47,-42.44C870.47,-47 870.47,-52.03 870.47,-57.21"/>
<polygon fill="none" stroke="black" points="859.97,-57.3 870.47,-87.3 880.97,-57.3 859.97,-57.3"/>
</g>
<!-- 159&#45;&gt;436 -->
<g id="edge6" class="edge">
<title>159&#45;&gt;436</title>
<path fill="none" stroke="black" stroke-dasharray="5,2" d="M937.01,-42.23C1067.89,-84.69 1337.6,-190.17 1235.47,-312 1214.19,-337.38 1151.01,-352.81 1083.06,-362.19"/>
<polygon fill="black" stroke="black" points="1082.46,-358.74 1073.01,-363.53 1083.38,-365.68 1082.46,-358.74"/>
</g>
<!-- 161&#45;&gt;7 -->
<g id="edge11" class="edge">
<title>161&#45;&gt;7</title>
<path fill="none" stroke="black" d="M838.31,-129.2C792.47,-157.56 707.62,-210.06 650.6,-245.34"/>
<polygon fill="none" stroke="black" points="644.76,-236.6 624.77,-261.32 655.81,-254.46 644.76,-236.6"/>
</g>
<!-- 161&#45;&gt;142 -->
<g id="edge12" class="edge">
<title>161&#45;&gt;142</title>
<path fill="none" stroke="black" d="M870.47,-129.44C870.47,-139.82 870.47,-152.68 870.47,-164.2"/>
<polygon fill="black" stroke="black" points="866.97,-164.3 870.47,-174.3 873.97,-164.3 866.97,-164.3"/>
</g>
<!-- 161&#45;&gt;149 -->
<g id="edge10" class="edge">
<title>161&#45;&gt;149</title>
<path fill="none" stroke="black" d="M900.32,-129.2C939.37,-155.24 1008.97,-201.64 1061.06,-236.36"/>
<polygon fill="none" stroke="black" points="1055.3,-245.14 1086.09,-253.05 1066.95,-227.67 1055.3,-245.14"/>
</g>
</g>
</svg>
