<?xml version="1.0" encoding="UTF-8" standalone="no"?>
<!DOCTYPE svg PUBLIC "-//W3C//DTD SVG 1.1//EN"
 "http://www.w3.org/Graphics/SVG/1.1/DTD/svg11.dtd">
<!-- Generated by graphviz version 5.0.0 (20220707.1540)
 -->
<!-- Title: StorageDiagram Pages: 1 -->
<svg width="2430pt" height="725pt"
 viewBox="0.00 0.00 2429.56 725.40" xmlns="http://www.w3.org/2000/svg" xmlns:xlink="http://www.w3.org/1999/xlink">
<g id="graph0" class="graph" transform="scale(1 1) rotate(0) translate(4 721.4)">
<title>StorageDiagram</title>
<polygon fill="white" stroke="transparent" points="-4,4 -4,-721.4 2425.56,-721.4 2425.56,4 -4,4"/>
<!-- 6 -->
<g id="node1" class="node">
<title>6</title>
<polygon fill="#f2f2f2" stroke="black" points="0,-25.3 0,-670.1 1180.58,-670.1 1180.58,-25.3 0,-25.3"/>
<text text-anchor="middle" x="590.29" y="-653.5" font-family="Courier New" font-size="14.00">VaultCore &lt;&lt;Contract&gt;&gt;</text>
<polyline fill="none" stroke="black" points="0,-645.3 1180.58,-645.3 "/>
<text text-anchor="middle" x="24.8" y="-628.7" font-family="Courier New" font-size="14.00">slot</text>
<polyline fill="none" stroke="black" points="0,-620.5 49.61,-620.5 "/>
<text text-anchor="middle" x="24.8" y="-603.9" font-family="Courier New" font-size="14.00">0</text>
<polyline fill="none" stroke="black" points="0,-595.7 49.61,-595.7 "/>
<text text-anchor="middle" x="24.8" y="-579.1" font-family="Courier New" font-size="14.00">1&#45;50</text>
<polyline fill="none" stroke="black" points="0,-570.9 49.61,-570.9 "/>
<text text-anchor="middle" x="24.8" y="-554.3" font-family="Courier New" font-size="14.00">51</text>
<polyline fill="none" stroke="black" points="0,-546.1 49.61,-546.1 "/>
<text text-anchor="middle" x="24.8" y="-529.5" font-family="Courier New" font-size="14.00">52</text>
<polyline fill="none" stroke="black" points="0,-521.3 49.61,-521.3 "/>
<text text-anchor="middle" x="24.8" y="-504.7" font-family="Courier New" font-size="14.00">53</text>
<polyline fill="none" stroke="black" points="0,-496.5 49.61,-496.5 "/>
<text text-anchor="middle" x="24.8" y="-479.9" font-family="Courier New" font-size="14.00">54</text>
<polyline fill="none" stroke="black" points="0,-471.7 49.61,-471.7 "/>
<text text-anchor="middle" x="24.8" y="-455.1" font-family="Courier New" font-size="14.00">55</text>
<polyline fill="none" stroke="black" points="0,-446.9 49.61,-446.9 "/>
<text text-anchor="middle" x="24.8" y="-430.3" font-family="Courier New" font-size="14.00">56</text>
<polyline fill="none" stroke="black" points="0,-422.1 49.61,-422.1 "/>
<text text-anchor="middle" x="24.8" y="-405.5" font-family="Courier New" font-size="14.00">57</text>
<polyline fill="none" stroke="black" points="0,-397.3 49.61,-397.3 "/>
<text text-anchor="middle" x="24.8" y="-380.7" font-family="Courier New" font-size="14.00">58</text>
<polyline fill="none" stroke="black" points="0,-372.5 49.61,-372.5 "/>
<text text-anchor="middle" x="24.8" y="-355.9" font-family="Courier New" font-size="14.00">59</text>
<polyline fill="none" stroke="black" points="0,-347.7 49.61,-347.7 "/>
<text text-anchor="middle" x="24.8" y="-331.1" font-family="Courier New" font-size="14.00">60</text>
<polyline fill="none" stroke="black" points="0,-322.9 49.61,-322.9 "/>
<text text-anchor="middle" x="24.8" y="-306.3" font-family="Courier New" font-size="14.00">61</text>
<polyline fill="none" stroke="black" points="0,-298.1 49.61,-298.1 "/>
<text text-anchor="middle" x="24.8" y="-281.5" font-family="Courier New" font-size="14.00">62</text>
<polyline fill="none" stroke="black" points="0,-273.3 49.61,-273.3 "/>
<text text-anchor="middle" x="24.8" y="-256.7" font-family="Courier New" font-size="14.00">63</text>
<polyline fill="none" stroke="black" points="0,-248.5 49.61,-248.5 "/>
<text text-anchor="middle" x="24.8" y="-231.9" font-family="Courier New" font-size="14.00">64</text>
<polyline fill="none" stroke="black" points="0,-223.7 49.61,-223.7 "/>
<text text-anchor="middle" x="24.8" y="-207.1" font-family="Courier New" font-size="14.00">65</text>
<polyline fill="none" stroke="black" points="0,-198.9 49.61,-198.9 "/>
<text text-anchor="middle" x="24.8" y="-182.3" font-family="Courier New" font-size="14.00">66</text>
<polyline fill="none" stroke="black" points="0,-174.1 49.61,-174.1 "/>
<text text-anchor="middle" x="24.8" y="-157.5" font-family="Courier New" font-size="14.00">67</text>
<polyline fill="none" stroke="black" points="0,-149.3 49.61,-149.3 "/>
<text text-anchor="middle" x="24.8" y="-132.7" font-family="Courier New" font-size="14.00">68</text>
<polyline fill="none" stroke="black" points="0,-124.5 49.61,-124.5 "/>
<text text-anchor="middle" x="24.8" y="-107.9" font-family="Courier New" font-size="14.00">69</text>
<polyline fill="none" stroke="black" points="0,-99.7 49.61,-99.7 "/>
<text text-anchor="middle" x="24.8" y="-83.1" font-family="Courier New" font-size="14.00">70</text>
<polyline fill="none" stroke="black" points="0,-74.9 49.61,-74.9 "/>
<text text-anchor="middle" x="24.8" y="-58.3" font-family="Courier New" font-size="14.00">71</text>
<polyline fill="none" stroke="black" points="0,-50.1 49.61,-50.1 "/>
<text text-anchor="middle" x="24.8" y="-33.5" font-family="Courier New" font-size="14.00">72</text>
<polyline fill="none" stroke="black" points="49.61,-25.3 49.61,-645.3 "/>
<text text-anchor="middle" x="615.09" y="-628.7" font-family="Courier New" font-size="14.00">type: &lt;inherited contract&gt;.variable (bytes)</text>
<polyline fill="none" stroke="black" points="49.61,-620.5 1180.58,-620.5 "/>
<text text-anchor="middle" x="183.32" y="-603.9" font-family="Courier New" font-size="14.00">unallocated (30)</text>
<polyline fill="none" stroke="black" points="317.03,-595.7 317.03,-620.5 "/>
<text text-anchor="middle" x="534.75" y="-603.9" font-family="Courier New" font-size="14.00">bool: Initializable.initializing (1)</text>
<polyline fill="none" stroke="black" points="752.48,-595.7 752.48,-620.5 "/>
<text text-anchor="middle" x="966.5" y="-603.9" font-family="Courier New" font-size="14.00">bool: Initializable.initialized (1)</text>
<polyline fill="none" stroke="black" points="49.61,-595.7 1180.58,-595.7 "/>
<text text-anchor="middle" x="614.73" y="-579.1" font-family="Courier New" font-size="14.00">uint256[50]: Initializable.______gap (1600)</text>
<polyline fill="none" stroke="black" points="49.61,-570.9 1180.58,-570.9 "/>
<text text-anchor="middle" x="614.94" y="-554.3" font-family="Courier New" font-size="14.00">mapping(address=&gt;Asset): VaultStorage.assets (32)</text>
<polyline fill="none" stroke="black" points="49.61,-546.1 1180.58,-546.1 "/>
<text text-anchor="middle" x="614.73" y="-529.5" font-family="Courier New" font-size="14.00">address[]: VaultStorage.allAssets (32)</text>
<polyline fill="none" stroke="black" points="49.61,-521.3 1180.58,-521.3 "/>
<text text-anchor="middle" x="614.84" y="-504.7" font-family="Courier New" font-size="14.00">mapping(address=&gt;Strategy): VaultStorage.strategies (32)</text>
<polyline fill="none" stroke="black" points="49.61,-496.5 1180.58,-496.5 "/>
<text text-anchor="middle" x="615.03" y="-479.9" font-family="Courier New" font-size="14.00">address[]: VaultStorage.allStrategies (32)</text>
<polyline fill="none" stroke="black" points="49.61,-471.7 1180.58,-471.7 "/>
<text text-anchor="middle" x="124.82" y="-455.1" font-family="Courier New" font-size="14.00">unallocated (10)</text>
<polyline fill="none" stroke="black" points="200.03,-446.9 200.03,-471.7 "/>
<text text-anchor="middle" x="359.25" y="-455.1" font-family="Courier New" font-size="14.00">bool: VaultStorage.capitalPaused (1)</text>
<polyline fill="none" stroke="black" points="518.48,-446.9 518.48,-471.7 "/>
<text text-anchor="middle" x="673.5" y="-455.1" font-family="Courier New" font-size="14.00">bool: VaultStorage.rebasePaused (1)</text>
<polyline fill="none" stroke="black" points="828.52,-446.9 828.52,-471.7 "/>
<text text-anchor="middle" x="1004.55" y="-455.1" font-family="Courier New" font-size="14.00">address: VaultStorage.priceProvider (20)</text>
<polyline fill="none" stroke="black" points="49.61,-446.9 1180.58,-446.9 "/>
<text text-anchor="middle" x="614.93" y="-430.3" font-family="Courier New" font-size="14.00">uint256: VaultStorage.redeemFeeBps (32)</text>
<polyline fill="none" stroke="black" points="49.61,-422.1 1180.58,-422.1 "/>
<text text-anchor="middle" x="614.73" y="-405.5" font-family="Courier New" font-size="14.00">uint256: VaultStorage.vaultBuffer (32)</text>
<polyline fill="none" stroke="black" points="49.61,-397.3 1180.58,-397.3 "/>
<text text-anchor="middle" x="614.74" y="-380.7" font-family="Courier New" font-size="14.00">uint256: VaultStorage.autoAllocateThreshold (32)</text>
<polyline fill="none" stroke="black" points="49.61,-372.5 1180.58,-372.5 "/>
<text text-anchor="middle" x="615.03" y="-355.9" font-family="Courier New" font-size="14.00">uint256: VaultStorage.rebaseThreshold (32)</text>
<polyline fill="none" stroke="black" points="49.61,-347.7 1180.58,-347.7 "/>
<text text-anchor="middle" x="306.82" y="-331.1" font-family="Courier New" font-size="14.00">unallocated (12)</text>
<polyline fill="none" stroke="black" points="564.03,-322.9 564.03,-347.7 "/>
<text text-anchor="middle" x="872.15" y="-331.1" font-family="Courier New" font-size="14.00">OUSD: VaultStorage.oUSD (20)</text>
<polyline fill="none" stroke="black" points="49.61,-322.9 1180.58,-322.9 "/>
<text text-anchor="middle" x="252.32" y="-306.3" font-family="Courier New" font-size="14.00">unallocated (12)</text>
<polyline fill="none" stroke="black" points="455.03,-298.1 455.03,-322.9 "/>
<text text-anchor="middle" x="817.36" y="-306.3" font-family="Courier New" font-size="14.00">address: VaultStorage._deprecated_rebaseHooksAddr (20)</text>
<polyline fill="none" stroke="black" points="49.61,-298.1 1180.58,-298.1 "/>
<text text-anchor="middle" x="260.82" y="-281.5" font-family="Courier New" font-size="14.00">unallocated (12)</text>
<polyline fill="none" stroke="black" points="472.03,-273.3 472.03,-298.1 "/>
<text text-anchor="middle" x="826.06" y="-281.5" font-family="Courier New" font-size="14.00">address: VaultStorage._deprecated_uniswapAddr (20)</text>
<polyline fill="none" stroke="black" points="49.61,-273.3 1180.58,-273.3 "/>
<text text-anchor="middle" x="279.82" y="-256.7" font-family="Courier New" font-size="14.00">unallocated (12)</text>
<polyline fill="none" stroke="black" points="510.03,-248.5 510.03,-273.3 "/>
<text text-anchor="middle" x="845.26" y="-256.7" font-family="Courier New" font-size="14.00">address: VaultStorage.strategistAddr (20)</text>
<polyline fill="none" stroke="black" points="49.61,-248.5 1180.58,-248.5 "/>
<text text-anchor="middle" x="615.05" y="-231.9" font-family="Courier New" font-size="14.00">mapping(address=&gt;address): VaultStorage.assetDefaultStrategies (32)</text>
<polyline fill="none" stroke="black" points="49.61,-223.7 1180.58,-223.7 "/>
<text text-anchor="middle" x="614.63" y="-207.1" font-family="Courier New" font-size="14.00">uint256: VaultStorage.maxSupplyDiff (32)</text>
<polyline fill="none" stroke="black" points="49.61,-198.9 1180.58,-198.9 "/>
<text text-anchor="middle" x="279.82" y="-182.3" font-family="Courier New" font-size="14.00">unallocated (12)</text>
<polyline fill="none" stroke="black" points="510.03,-174.1 510.03,-198.9 "/>
<text text-anchor="middle" x="845.26" y="-182.3" font-family="Courier New" font-size="14.00">address: VaultStorage.trusteeAddress (20)</text>
<polyline fill="none" stroke="black" points="49.61,-174.1 1180.58,-174.1 "/>
<text text-anchor="middle" x="614.63" y="-157.5" font-family="Courier New" font-size="14.00">uint256: VaultStorage.trusteeFeeBps (32)</text>
<polyline fill="none" stroke="black" points="49.61,-149.3 1180.58,-149.3 "/>
<text text-anchor="middle" x="614.84" y="-132.7" font-family="Courier New" font-size="14.00">address[]: VaultStorage._deprecated_swapTokens (32)</text>
<polyline fill="none" stroke="black" points="49.61,-124.5 1180.58,-124.5 "/>
<text text-anchor="middle" x="275.32" y="-107.9" font-family="Courier New" font-size="14.00">unallocated (12)</text>
<polyline fill="none" stroke="black" points="501.03,-99.7 501.03,-124.5 "/>
<text text-anchor="middle" x="840.66" y="-107.9" font-family="Courier New" font-size="14.00">address: VaultStorage.ousdMetaStrategy (20)</text>
<polyline fill="none" stroke="black" points="49.61,-99.7 1180.58,-99.7 "/>
<text text-anchor="middle" x="614.64" y="-83.1" font-family="Courier New" font-size="14.00">int256: VaultStorage.netOusdMintedForStrategy (32)</text>
<polyline fill="none" stroke="black" points="49.61,-74.9 1180.58,-74.9 "/>
<text text-anchor="middle" x="614.75" y="-58.3" font-family="Courier New" font-size="14.00">uint256: VaultStorage.netOusdMintForStrategyThreshold (32)</text>
<polyline fill="none" stroke="black" points="49.61,-50.1 1180.58,-50.1 "/>
<text text-anchor="middle" x="614.63" y="-33.5" font-family="Courier New" font-size="14.00">SwapConfig: VaultStorage.swapConfig (32)</text>
</g>
<!-- 1 -->
<g id="node2" class="node">
<title>1</title>
<polygon fill="#f2f2f2" stroke="black" points="1216.58,-642.5 1216.58,-716.9 2421.56,-716.9 2421.56,-642.5 1216.58,-642.5"/>
<text text-anchor="middle" x="1819.07" y="-700.3" font-family="Courier New" font-size="14.00">Asset &lt;&lt;Struct&gt;&gt;</text>
<polyline fill="none" stroke="black" points="1216.58,-692.1 2421.56,-692.1 "/>
<text text-anchor="middle" x="1249.78" y="-675.5" font-family="Courier New" font-size="14.00">offset</text>
<polyline fill="none" stroke="black" points="1216.58,-667.3 1282.99,-667.3 "/>
<text text-anchor="middle" x="1249.78" y="-650.7" font-family="Courier New" font-size="14.00">0</text>
<polyline fill="none" stroke="black" points="1282.99,-642.5 1282.99,-692.1 "/>
<text text-anchor="middle" x="1852.27" y="-675.5" font-family="Courier New" font-size="14.00">type: variable (bytes)</text>
<polyline fill="none" stroke="black" points="1282.99,-667.3 2421.56,-667.3 "/>
<text text-anchor="middle" x="1358.2" y="-650.7" font-family="Courier New" font-size="14.00">unallocated (27)</text>
<polyline fill="none" stroke="black" points="1433.41,-642.5 1433.41,-667.3 "/>
<text text-anchor="middle" x="1592.63" y="-650.7" font-family="Courier New" font-size="14.00">uint16: allowedOracleSlippageBps (2)</text>
<polyline fill="none" stroke="black" points="1751.86,-642.5 1751.86,-667.3 "/>
<text text-anchor="middle" x="1839.67" y="-650.7" font-family="Courier New" font-size="14.00">uint8: decimals (1)</text>
<polyline fill="none" stroke="black" points="1927.48,-642.5 1927.48,-667.3 "/>
<text text-anchor="middle" x="2078.31" y="-650.7" font-family="Courier New" font-size="14.00">UnitConversion: unitConversion (1)</text>
<polyline fill="none" stroke="black" points="2229.13,-642.5 2229.13,-667.3 "/>
<text text-anchor="middle" x="2325.35" y="-650.7" font-family="Courier New" font-size="14.00">bool: isSupported (1)</text>
</g>
<!-- 6&#45;&gt;1 -->
<g id="edge1" class="edge">
<title>6:8&#45;&gt;1</title>
<path fill="none" stroke="black" d="M1180.58,-558.7C1217.15,-558.7 1186.35,-612.11 1216.58,-632.7 1218.76,-634.18 1220.95,-635.64 1223.16,-637.08"/>
<polygon fill="black" stroke="black" points="1221.42,-640.12 1231.75,-642.49 1225.15,-634.2 1221.42,-640.12"/>
</g>
<!-- 2 -->
<g id="node3" class="node">
<title>2</title>
<polygon fill="#f2f2f2" stroke="black" points="1533.82,-532.1 1533.82,-623.3 2104.31,-623.3 2104.31,-532.1 1533.82,-532.1"/>
<text text-anchor="middle" x="1819.07" y="-606.7" font-family="Courier New" font-size="14.00">address[]: allAssets &lt;&lt;Array&gt;&gt;</text>
<text text-anchor="middle" x="1819.07" y="-589.9" font-family="Courier New" font-size="14.00">0x46bddb1178e94d7f2892ff5f366840eb658911794f2c3a44c450aa2c505186c1</text>
<polyline fill="none" stroke="black" points="1533.82,-581.7 2104.31,-581.7 "/>
<text text-anchor="middle" x="1626.03" y="-565.1" font-family="Courier New" font-size="14.00">offset</text>
<polyline fill="none" stroke="black" points="1533.82,-556.9 1718.23,-556.9 "/>
<text text-anchor="middle" x="1626.03" y="-540.3" font-family="Courier New" font-size="14.00">0</text>
<polyline fill="none" stroke="black" points="1718.23,-532.1 1718.23,-581.7 "/>
<text text-anchor="middle" x="1910.85" y="-565.1" font-family="Courier New" font-size="14.00">type: variable (bytes)</text>
<polyline fill="none" stroke="black" points="1718.23,-556.9 2103.47,-556.9 "/>
<text text-anchor="middle" x="1822.94" y="-540.3" font-family="Courier New" font-size="14.00">unallocated (12)</text>
<polyline fill="none" stroke="black" points="1927.65,-532.1 1927.65,-556.9 "/>
<text text-anchor="middle" x="2015.56" y="-540.3" font-family="Courier New" font-size="14.00">address (20)</text>
</g>
<!-- 6&#45;&gt;2 -->
<g id="edge2" class="edge">
<title>6:10&#45;&gt;2</title>
<path fill="none" stroke="black" d="M1180.58,-533.7C1292.73,-533.7 1415.72,-540.56 1523.5,-548.87"/>
<polygon fill="black" stroke="black" points="1523.3,-552.36 1533.54,-549.65 1523.85,-545.38 1523.3,-552.36"/>
</g>
<!-- 3 -->
<g id="node4" class="node">
<title>3</title>
<polygon fill="#f2f2f2" stroke="black" points="1614.44,-414.1 1614.44,-513.3 2023.7,-513.3 2023.7,-414.1 1614.44,-414.1"/>
<text text-anchor="middle" x="1819.07" y="-496.7" font-family="Courier New" font-size="14.00">Strategy &lt;&lt;Struct&gt;&gt;</text>
<polyline fill="none" stroke="black" points="1614.44,-488.5 2023.7,-488.5 "/>
<text text-anchor="middle" x="1647.64" y="-471.9" font-family="Courier New" font-size="14.00">offset</text>
<polyline fill="none" stroke="black" points="1614.44,-463.7 1680.85,-463.7 "/>
<text text-anchor="middle" x="1647.64" y="-447.1" font-family="Courier New" font-size="14.00">0</text>
<polyline fill="none" stroke="black" points="1614.44,-438.9 1680.85,-438.9 "/>
<text text-anchor="middle" x="1647.64" y="-422.3" font-family="Courier New" font-size="14.00">1</text>
<polyline fill="none" stroke="black" points="1680.85,-414.1 1680.85,-488.5 "/>
<text text-anchor="middle" x="1852.27" y="-471.9" font-family="Courier New" font-size="14.00">type: variable (bytes)</text>
<polyline fill="none" stroke="black" points="1680.85,-463.7 2023.7,-463.7 "/>
<text text-anchor="middle" x="1756.06" y="-447.1" font-family="Courier New" font-size="14.00">unallocated (31)</text>
<polyline fill="none" stroke="black" points="1831.27,-438.9 1831.27,-463.7 "/>
<text text-anchor="middle" x="1927.48" y="-447.1" font-family="Courier New" font-size="14.00">bool: isSupported (1)</text>
<polyline fill="none" stroke="black" points="1680.85,-438.9 2023.7,-438.9 "/>
<text text-anchor="middle" x="1851.87" y="-422.3" font-family="Courier New" font-size="14.00">uint256: _deprecated (32)</text>
</g>
<!-- 6&#45;&gt;3 -->
<g id="edge3" class="edge">
<title>6:13&#45;&gt;3</title>
<path fill="none" stroke="black" d="M1180.58,-508.7C1321.96,-508.7 1480.54,-497.55 1604.16,-486.35"/>
<polygon fill="black" stroke="black" points="1604.49,-489.84 1614.13,-485.44 1603.85,-482.87 1604.49,-489.84"/>
</g>
<!-- 4 -->
<g id="node5" class="node">
<title>4</title>
<polygon fill="#f2f2f2" stroke="black" points="1533.82,-304.1 1533.82,-395.3 2104.31,-395.3 2104.31,-304.1 1533.82,-304.1"/>
<text text-anchor="middle" x="1819.07" y="-378.7" font-family="Courier New" font-size="14.00">address[]: allStrategies &lt;&lt;Array&gt;&gt;</text>
<text text-anchor="middle" x="1819.07" y="-361.9" font-family="Courier New" font-size="14.00">0x4a11f94e20a93c79f6ec743a1954ec4fc2c08429ae2122118bf234b2185c81b8</text>
<polyline fill="none" stroke="black" points="1533.82,-353.7 2104.31,-353.7 "/>
<text text-anchor="middle" x="1626.03" y="-337.1" font-family="Courier New" font-size="14.00">offset</text>
<polyline fill="none" stroke="black" points="1533.82,-328.9 1718.23,-328.9 "/>
<text text-anchor="middle" x="1626.03" y="-312.3" font-family="Courier New" font-size="14.00">0</text>
<polyline fill="none" stroke="black" points="1718.23,-304.1 1718.23,-353.7 "/>
<text text-anchor="middle" x="1910.85" y="-337.1" font-family="Courier New" font-size="14.00">type: variable (bytes)</text>
<polyline fill="none" stroke="black" points="1718.23,-328.9 2103.47,-328.9 "/>
<text text-anchor="middle" x="1822.94" y="-312.3" font-family="Courier New" font-size="14.00">unallocated (12)</text>
<polyline fill="none" stroke="black" points="1927.65,-304.1 1927.65,-328.9 "/>
<text text-anchor="middle" x="2015.56" y="-312.3" font-family="Courier New" font-size="14.00">address (20)</text>
</g>
<!-- 6&#45;&gt;4 -->
<g id="edge4" class="edge">
<title>6:15&#45;&gt;4</title>
<path fill="none" stroke="black" d="M1180.58,-483.7C1219.16,-483.7 1185.11,-427.03 1216.58,-404.7 1304.29,-342.45 1418.27,-321.26 1523.39,-318.21"/>
<polygon fill="black" stroke="black" points="1523.62,-321.7 1533.53,-317.97 1523.45,-314.71 1523.62,-321.7"/>
</g>
<!-- 5 -->
<g id="node6" class="node">
<title>5</title>
<polygon fill="#f2f2f2" stroke="black" points="1480.42,-0.5 1480.42,-74.9 2157.72,-74.9 2157.72,-0.5 1480.42,-0.5"/>
<text text-anchor="middle" x="1819.07" y="-58.3" font-family="Courier New" font-size="14.00">SwapConfig &lt;&lt;Struct&gt;&gt;</text>
<polyline fill="none" stroke="black" points="1480.42,-50.1 2157.72,-50.1 "/>
<text text-anchor="middle" x="1505.22" y="-33.5" font-family="Courier New" font-size="14.00">slot</text>
<polyline fill="none" stroke="black" points="1480.42,-25.3 1530.02,-25.3 "/>
<text text-anchor="middle" x="1505.22" y="-8.7" font-family="Courier New" font-size="14.00">72</text>
<polyline fill="none" stroke="black" points="1530.02,-0.5 1530.02,-50.1 "/>
<text text-anchor="middle" x="1843.87" y="-33.5" font-family="Courier New" font-size="14.00">type: variable (bytes)</text>
<polyline fill="none" stroke="black" points="1530.02,-25.3 2157.72,-25.3 "/>
<text text-anchor="middle" x="1605.24" y="-8.7" font-family="Courier New" font-size="14.00">unallocated (10)</text>
<polyline fill="none" stroke="black" points="1680.45,-0.5 1680.45,-25.3 "/>
<text text-anchor="middle" x="1822.87" y="-8.7" font-family="Courier New" font-size="14.00">uint16: allowedUndervalueBps (2)</text>
<polyline fill="none" stroke="black" points="1965.29,-0.5 1965.29,-25.3 "/>
<text text-anchor="middle" x="2061.5" y="-8.7" font-family="Courier New" font-size="14.00">address: swapper (20)</text>
</g>
<!-- 6&#45;&gt;5 -->
<g id="edge5" class="edge">
<title>6:37&#45;&gt;5</title>
<path fill="none" stroke="black" d="M1180.29,-37.7C1274.17,-37.7 1375.82,-37.7 1469.8,-37.7"/>
<polygon fill="black" stroke="black" points="1470.04,-41.2 1480.04,-37.7 1470.04,-34.2 1470.04,-41.2"/>
</g>
</g>
</svg>
