<?xml version="1.0" encoding="UTF-8" standalone="no"?>
<!DOCTYPE svg PUBLIC "-//W3C//DTD SVG 1.1//EN"
 "http://www.w3.org/Graphics/SVG/1.1/DTD/svg11.dtd">
<!-- Generated by graphviz version 5.0.0 (20220707.1540)
 -->
<!-- Title: UmlClassDiagram Pages: 1 -->
<svg width="1271pt" height="415pt"
 viewBox="0.00 0.00 1271.18 415.40" xmlns="http://www.w3.org/2000/svg" xmlns:xlink="http://www.w3.org/1999/xlink">
<g id="graph0" class="graph" transform="scale(1 1) rotate(0) translate(4 411.4)">
<title>UmlClassDiagram</title>
<polygon fill="white" stroke="transparent" points="-4,4 -4,-411.4 1267.18,-411.4 1267.18,4 -4,4"/>
<!-- 7 -->
<g id="node1" class="node">
<title>7</title>
<polygon fill="#f2f2f2" stroke="black" points="586.4,-261.5 586.4,-303.1 821.26,-303.1 821.26,-261.5 586.4,-261.5"/>
<text text-anchor="middle" x="703.83" y="-286.5" font-family="Times,serif" font-size="14.00">Governable</text>
<text text-anchor="middle" x="703.83" y="-269.7" font-family="Times,serif" font-size="14.00">../contracts/governance/Governable.sol</text>
</g>
<!-- 25 -->
<g id="node2" class="node">
<title>25</title>
<polygon fill="#f2f2f2" stroke="black" points="36.36,-79.1 36.36,-137.5 337.3,-137.5 337.3,-79.1 36.36,-79.1"/>
<text text-anchor="middle" x="186.83" y="-120.9" font-family="Times,serif" font-size="14.00">&lt;&lt;Interface&gt;&gt;</text>
<text text-anchor="middle" x="186.83" y="-104.1" font-family="Times,serif" font-size="14.00">IGetExchangeRateToken</text>
<text text-anchor="middle" x="186.83" y="-87.3" font-family="Times,serif" font-size="14.00">../contracts/interfaces/IGetExchangeRateToken.sol</text>
</g>
<!-- 33 -->
<g id="node3" class="node">
<title>33</title>
<polygon fill="#f2f2f2" stroke="black" points="580.13,-79.1 580.13,-137.5 781.54,-137.5 781.54,-79.1 580.13,-79.1"/>
<text text-anchor="middle" x="680.83" y="-120.9" font-family="Times,serif" font-size="14.00">&lt;&lt;Interface&gt;&gt;</text>
<text text-anchor="middle" x="680.83" y="-104.1" font-family="Times,serif" font-size="14.00">IOracle</text>
<text text-anchor="middle" x="680.83" y="-87.3" font-family="Times,serif" font-size="14.00">../contracts/interfaces/IOracle.sol</text>
</g>
<!-- 36 -->
<g id="node4" class="node">
<title>36</title>
<polygon fill="#f2f2f2" stroke="black" points="799.45,-79.1 799.45,-137.5 1010.21,-137.5 1010.21,-79.1 799.45,-79.1"/>
<text text-anchor="middle" x="904.83" y="-120.9" font-family="Times,serif" font-size="14.00">&lt;&lt;Interface&gt;&gt;</text>
<text text-anchor="middle" x="904.83" y="-104.1" font-family="Times,serif" font-size="14.00">IStrategy</text>
<text text-anchor="middle" x="904.83" y="-87.3" font-family="Times,serif" font-size="14.00">../contracts/interfaces/IStrategy.sol</text>
</g>
<!-- 37 -->
<g id="node5" class="node">
<title>37</title>
<polygon fill="#f2f2f2" stroke="black" points="1028.28,-79.1 1028.28,-137.5 1241.38,-137.5 1241.38,-79.1 1028.28,-79.1"/>
<text text-anchor="middle" x="1134.83" y="-120.9" font-family="Times,serif" font-size="14.00">&lt;&lt;Interface&gt;&gt;</text>
<text text-anchor="middle" x="1134.83" y="-104.1" font-family="Times,serif" font-size="14.00">ISwapper</text>
<text text-anchor="middle" x="1134.83" y="-87.3" font-family="Times,serif" font-size="14.00">../contracts/interfaces/ISwapper.sol</text>
</g>
<!-- 151 -->
<g id="node6" class="node">
<title>151</title>
<polygon fill="#f2f2f2" stroke="black" points="338.7,-174.5 338.7,-216.1 512.96,-216.1 512.96,-174.5 338.7,-174.5"/>
<text text-anchor="middle" x="425.83" y="-199.5" font-family="Times,serif" font-size="14.00">OUSD</text>
<text text-anchor="middle" x="425.83" y="-182.7" font-family="Times,serif" font-size="14.00">../contracts/token/OUSD.sol</text>
</g>
<!-- 151&#45;&gt;7 -->
<g id="edge3" class="edge">
<title>151&#45;&gt;7</title>
<path fill="none" stroke="black" d="M490.66,-216.12C526.2,-226.99 570.9,-240.65 610.17,-252.66"/>
<polygon fill="none" stroke="black" points="607.14,-262.72 638.9,-261.45 613.28,-242.63 607.14,-262.72"/>
</g>
<!-- 158 -->
<g id="node7" class="node">
<title>158</title>
<polygon fill="#f2f2f2" stroke="black" points="69.83,-253.1 69.83,-311.5 265.84,-311.5 265.84,-253.1 69.83,-253.1"/>
<text text-anchor="middle" x="167.83" y="-294.9" font-family="Times,serif" font-size="14.00">&lt;&lt;Abstract&gt;&gt;</text>
<text text-anchor="middle" x="167.83" y="-278.1" font-family="Times,serif" font-size="14.00">Initializable</text>
<text text-anchor="middle" x="167.83" y="-261.3" font-family="Times,serif" font-size="14.00">../contracts/utils/Initializable.sol</text>
</g>
<!-- 151&#45;&gt;158 -->
<g id="edge1" class="edge">
<title>151&#45;&gt;158</title>
<path fill="none" stroke="black" d="M365.67,-216.12C340.78,-224.32 311.06,-234.11 282.32,-243.58"/>
<polygon fill="none" stroke="black" points="278.75,-233.7 253.54,-253.06 285.32,-253.65 278.75,-233.7"/>
</g>
<!-- 160 -->
<g id="node8" class="node">
<title>160</title>
<polygon fill="#f2f2f2" stroke="black" points="283.5,-253.1 283.5,-311.5 568.16,-311.5 568.16,-253.1 283.5,-253.1"/>
<text text-anchor="middle" x="425.83" y="-294.9" font-family="Times,serif" font-size="14.00">&lt;&lt;Abstract&gt;&gt;</text>
<text text-anchor="middle" x="425.83" y="-278.1" font-family="Times,serif" font-size="14.00">InitializableERC20Detailed</text>
<text text-anchor="middle" x="425.83" y="-261.3" font-family="Times,serif" font-size="14.00">../contracts/utils/InitializableERC20Detailed.sol</text>
</g>
<!-- 151&#45;&gt;160 -->
<g id="edge2" class="edge">
<title>151&#45;&gt;160</title>
<path fill="none" stroke="black" d="M425.83,-216.44C425.83,-218.49 425.83,-220.63 425.83,-222.83"/>
<polygon fill="none" stroke="black" points="415.33,-222.94 425.83,-252.94 436.33,-222.94 415.33,-222.94"/>
</g>
<!-- 331 -->
<g id="node12" class="node">
<title>331</title>
<polygon fill="#f2f2f2" stroke="black" points="223.78,-348.5 223.78,-406.9 627.89,-406.9 627.89,-348.5 223.78,-348.5"/>
<text text-anchor="middle" x="425.83" y="-390.3" font-family="Times,serif" font-size="14.00">&lt;&lt;Interface&gt;&gt;</text>
<text text-anchor="middle" x="425.83" y="-373.5" font-family="Times,serif" font-size="14.00">IERC20</text>
<text text-anchor="middle" x="425.83" y="-356.7" font-family="Times,serif" font-size="14.00">../node_modules/@openzeppelin/contracts/token/ERC20/IERC20.sol</text>
</g>
<!-- 160&#45;&gt;331 -->
<g id="edge4" class="edge">
<title>160&#45;&gt;331</title>
<path fill="none" stroke="black" stroke-dasharray="5,2" d="M425.83,-311.58C425.83,-313.66 425.83,-315.8 425.83,-317.98"/>
<polygon fill="none" stroke="black" points="415.33,-318.2 425.83,-348.2 436.33,-318.2 415.33,-318.2"/>
</g>
<!-- 167 -->
<g id="node9" class="node">
<title>167</title>
<polygon fill="#f2f2f2" stroke="black" points="575.32,-0.5 575.32,-42.1 778.34,-42.1 778.34,-0.5 575.32,-0.5"/>
<text text-anchor="middle" x="676.83" y="-25.5" font-family="Times,serif" font-size="14.00">VaultAdmin</text>
<text text-anchor="middle" x="676.83" y="-8.7" font-family="Times,serif" font-size="14.00">../contracts/vault/VaultAdmin.sol</text>
</g>
<!-- 167&#45;&gt;33 -->
<g id="edge7" class="edge">
<title>167&#45;&gt;33</title>
<path fill="none" stroke="black" stroke-dasharray="5,2" d="M677.78,-42.44C678.15,-50.36 678.59,-59.73 679.02,-68.84"/>
<polygon fill="black" stroke="black" points="675.53,-69.11 679.5,-78.94 682.52,-68.79 675.53,-69.11"/>
</g>
<!-- 167&#45;&gt;36 -->
<g id="edge6" class="edge">
<title>167&#45;&gt;36</title>
<path fill="none" stroke="black" stroke-dasharray="5,2" d="M730,-42.12C756.6,-52.04 789.44,-64.28 819.46,-75.47"/>
<polygon fill="black" stroke="black" points="818.5,-78.85 829.09,-79.06 820.94,-72.29 818.5,-78.85"/>
</g>
<!-- 167&#45;&gt;37 -->
<g id="edge9" class="edge">
<title>167&#45;&gt;37</title>
<path fill="none" stroke="black" stroke-dasharray="5,2" d="M778.61,-36.89C844.29,-46.82 931.75,-60.98 1018.11,-78.51"/>
<polygon fill="black" stroke="black" points="1017.59,-81.98 1028.08,-80.55 1018.99,-75.12 1017.59,-81.98"/>
</g>
<!-- 170 -->
<g id="node11" class="node">
<title>170</title>
<polygon fill="#f2f2f2" stroke="black" points="355.38,-87.5 355.38,-129.1 562.28,-129.1 562.28,-87.5 355.38,-87.5"/>
<text text-anchor="middle" x="458.83" y="-112.5" font-family="Times,serif" font-size="14.00">VaultStorage</text>
<text text-anchor="middle" x="458.83" y="-95.7" font-family="Times,serif" font-size="14.00">../contracts/vault/VaultStorage.sol</text>
</g>
<!-- 167&#45;&gt;170 -->
<g id="edge5" class="edge">
<title>167&#45;&gt;170</title>
<path fill="none" stroke="black" d="M626,-42.12C599.76,-52.35 567.17,-65.06 537.76,-76.53"/>
<polygon fill="none" stroke="black" points="533.88,-66.77 509.75,-87.45 541.51,-86.33 533.88,-66.77"/>
</g>
<!-- 167&#45;&gt;331 -->
<g id="edge8" class="edge">
<title>167&#45;&gt;331</title>
<path fill="none" stroke="black" stroke-dasharray="5,2" d="M778.57,-25C934.97,-30.23 1219.79,-44.36 1250.83,-78.6 1268.56,-98.16 1265.51,-116.05 1250.83,-138 1138.28,-306.3 1024.67,-256.95 829.83,-312 768.43,-329.35 700.39,-342.49 637.91,-352.23"/>
<polygon fill="black" stroke="black" points="637.29,-348.79 627.94,-353.77 638.35,-355.71 637.29,-348.79"/>
</g>
<!-- 168 -->
<g id="node10" class="node">
<title>168</title>
<polygon fill="#f2f2f2" stroke="black" points="363.16,-0.5 363.16,-42.1 554.51,-42.1 554.51,-0.5 363.16,-0.5"/>
<text text-anchor="middle" x="458.83" y="-25.5" font-family="Times,serif" font-size="14.00">VaultCore</text>
<text text-anchor="middle" x="458.83" y="-8.7" font-family="Times,serif" font-size="14.00">../contracts/vault/VaultCore.sol</text>
</g>
<!-- 168&#45;&gt;25 -->
<g id="edge14" class="edge">
<title>168&#45;&gt;25</title>
<path fill="none" stroke="black" stroke-dasharray="5,2" d="M395.4,-42.12C363.12,-52.21 323.13,-64.71 286.83,-76.05"/>
<polygon fill="black" stroke="black" points="285.69,-72.74 277.19,-79.06 287.78,-79.42 285.69,-72.74"/>
</g>
<!-- 168&#45;&gt;33 -->
<g id="edge13" class="edge">
<title>168&#45;&gt;33</title>
<path fill="none" stroke="black" stroke-dasharray="5,2" d="M510.6,-42.12C536.5,-52.04 568.48,-64.28 597.7,-75.47"/>
<polygon fill="black" stroke="black" points="596.49,-78.76 607.08,-79.06 599,-72.22 596.49,-78.76"/>
</g>
<!-- 168&#45;&gt;36 -->
<g id="edge12" class="edge">
<title>168&#45;&gt;36</title>
<path fill="none" stroke="black" stroke-dasharray="5,2" d="M554.76,-40.64C558.5,-41.31 562.2,-41.97 565.83,-42.6 662.47,-59.5 689.93,-58.31 789.46,-78.38"/>
<polygon fill="black" stroke="black" points="788.82,-81.82 799.32,-80.39 790.22,-74.96 788.82,-81.82"/>
</g>
<!-- 168&#45;&gt;170 -->
<g id="edge10" class="edge">
<title>168&#45;&gt;170</title>
<path fill="none" stroke="black" d="M458.83,-42.44C458.83,-47 458.83,-52.03 458.83,-57.21"/>
<polygon fill="none" stroke="black" points="448.33,-57.3 458.83,-87.3 469.33,-57.3 448.33,-57.3"/>
</g>
<!-- 168&#45;&gt;331 -->
<g id="edge11" class="edge">
<title>168&#45;&gt;331</title>
<path fill="none" stroke="black" stroke-dasharray="5,2" d="M362.97,-28.21C242.75,-36.62 49.6,-53.81 27.83,-78.6 -13.35,-125.52 -13.05,-239 60.83,-312 84.18,-335.07 146.85,-350.02 213.81,-359.67"/>
<polygon fill="black" stroke="black" points="213.32,-363.14 223.71,-361.05 214.29,-356.2 213.32,-363.14"/>
</g>
<!-- 170&#45;&gt;7 -->
<g id="edge16" class="edge">
<title>170&#45;&gt;7</title>
<path fill="none" stroke="black" d="M487.42,-129.37C527.34,-157.4 600.53,-208.78 650.64,-243.96"/>
<polygon fill="none" stroke="black" points="644.84,-252.72 675.43,-261.36 656.91,-235.53 644.84,-252.72"/>
</g>
<!-- 170&#45;&gt;151 -->
<g id="edge17" class="edge">
<title>170&#45;&gt;151</title>
<path fill="none" stroke="black" d="M451.01,-129.44C446.9,-140.03 441.79,-153.2 437.24,-164.9"/>
<polygon fill="black" stroke="black" points="433.95,-163.71 433.6,-174.3 440.48,-166.25 433.95,-163.71"/>
</g>
<!-- 170&#45;&gt;158 -->
<g id="edge15" class="edge">
<title>170&#45;&gt;158</title>
<path fill="none" stroke="black" d="M416.03,-129.17C390.59,-141.37 357.91,-157.74 329.83,-174 296.98,-193.03 261.7,-216.06 232.48,-235.91"/>
<polygon fill="none" stroke="black" points="226.36,-227.37 207.59,-253.02 238.26,-244.68 226.36,-227.37"/>
</g>
</g>
</svg>
