<?xml version="1.0" encoding="UTF-8" standalone="no"?>
<!DOCTYPE svg PUBLIC "-//W3C//DTD SVG 1.1//EN"
 "http://www.w3.org/Graphics/SVG/1.1/DTD/svg11.dtd">
<!-- Generated by graphviz version 5.0.0 (20220707.1540)
 -->
<!-- Title: UmlClassDiagram Pages: 1 -->
<svg width="1763pt" height="432pt"
 viewBox="0.00 0.00 1762.89 432.20" xmlns="http://www.w3.org/2000/svg" xmlns:xlink="http://www.w3.org/1999/xlink">
<g id="graph0" class="graph" transform="scale(1 1) rotate(0) translate(4 428.2)">
<title>UmlClassDiagram</title>
<polygon fill="white" stroke="transparent" points="-4,4 -4,-428.2 1758.89,-428.2 1758.89,4 -4,4"/>
<!-- 20 -->
<g id="node1" class="node">
<title>20</title>
<polygon fill="#f2f2f2" stroke="black" points="0,-278.3 0,-319.9 234.86,-319.9 234.86,-278.3 0,-278.3"/>
<text text-anchor="middle" x="117.43" y="-303.3" font-family="Times,serif" font-size="14.00">Governable</text>
<text text-anchor="middle" x="117.43" y="-286.5" font-family="Times,serif" font-size="14.00">../contracts/governance/Governable.sol</text>
</g>
<!-- 185 -->
<g id="node2" class="node">
<title>185</title>
<polygon fill="#f2f2f2" stroke="black" points="308.7,-87.5 308.7,-129.1 482.16,-129.1 482.16,-87.5 308.7,-87.5"/>
<text text-anchor="middle" x="395.43" y="-112.5" font-family="Times,serif" font-size="14.00">OETH</text>
<text text-anchor="middle" x="395.43" y="-95.7" font-family="Times,serif" font-size="14.00">../contracts/token/OETH.sol</text>
</g>
<!-- 186 -->
<g id="node3" class="node">
<title>186</title>
<polygon fill="#f2f2f2" stroke="black" points="308.3,-182.9 308.3,-224.5 482.56,-224.5 482.56,-182.9 308.3,-182.9"/>
<text text-anchor="middle" x="395.43" y="-207.9" font-family="Times,serif" font-size="14.00">OUSD</text>
<text text-anchor="middle" x="395.43" y="-191.1" font-family="Times,serif" font-size="14.00">../contracts/token/OUSD.sol</text>
</g>
<!-- 185&#45;&gt;186 -->
<g id="edge1" class="edge">
<title>185&#45;&gt;186</title>
<path fill="none" stroke="black" d="M395.43,-129.11C395.43,-136 395.43,-144.07 395.43,-152.29"/>
<polygon fill="none" stroke="black" points="384.93,-152.6 395.43,-182.6 405.93,-152.6 384.93,-152.6"/>
</g>
<!-- 186&#45;&gt;20 -->
<g id="edge4" class="edge">
<title>186&#45;&gt;20</title>
<path fill="none" stroke="black" d="M336.47,-224.51C298.36,-237.31 248.07,-254.21 205.3,-268.58"/>
<polygon fill="none" stroke="black" points="201.87,-258.65 176.78,-278.16 208.56,-278.56 201.87,-258.65"/>
</g>
<!-- 194 -->
<g id="node5" class="node">
<title>194</title>
<polygon fill="#f2f2f2" stroke="black" points="555.42,-269.9 555.42,-328.3 751.44,-328.3 751.44,-269.9 555.42,-269.9"/>
<text text-anchor="middle" x="653.43" y="-311.7" font-family="Times,serif" font-size="14.00">&lt;&lt;Abstract&gt;&gt;</text>
<text text-anchor="middle" x="653.43" y="-294.9" font-family="Times,serif" font-size="14.00">Initializable</text>
<text text-anchor="middle" x="653.43" y="-278.1" font-family="Times,serif" font-size="14.00">../contracts/utils/Initializable.sol</text>
</g>
<!-- 186&#45;&gt;194 -->
<g id="edge2" class="edge">
<title>186&#45;&gt;194</title>
<path fill="none" stroke="black" d="M450.14,-224.51C478.36,-234.72 513.77,-247.54 547.09,-259.6"/>
<polygon fill="none" stroke="black" points="543.52,-269.48 575.3,-269.82 550.66,-249.73 543.52,-269.48"/>
</g>
<!-- 197 -->
<g id="node6" class="node">
<title>197</title>
<polygon fill="#f2f2f2" stroke="black" points="253.1,-269.9 253.1,-328.3 537.76,-328.3 537.76,-269.9 253.1,-269.9"/>
<text text-anchor="middle" x="395.43" y="-311.7" font-family="Times,serif" font-size="14.00">&lt;&lt;Abstract&gt;&gt;</text>
<text text-anchor="middle" x="395.43" y="-294.9" font-family="Times,serif" font-size="14.00">InitializableERC20Detailed</text>
<text text-anchor="middle" x="395.43" y="-278.1" font-family="Times,serif" font-size="14.00">../contracts/utils/InitializableERC20Detailed.sol</text>
</g>
<!-- 186&#45;&gt;197 -->
<g id="edge3" class="edge">
<title>186&#45;&gt;197</title>
<path fill="none" stroke="black" d="M395.43,-224.51C395.43,-229.14 395.43,-234.31 395.43,-239.69"/>
<polygon fill="none" stroke="black" points="384.93,-239.82 395.43,-269.82 405.93,-239.82 384.93,-239.82"/>
</g>
<!-- 190 -->
<g id="node4" class="node">
<title>190</title>
<polygon fill="#f2f2f2" stroke="black" points="560.09,-0.5 560.09,-42.1 746.77,-42.1 746.77,-0.5 560.09,-0.5"/>
<text text-anchor="middle" x="653.43" y="-25.5" font-family="Times,serif" font-size="14.00">WOETH</text>
<text text-anchor="middle" x="653.43" y="-8.7" font-family="Times,serif" font-size="14.00">../contracts/token/WOETH.sol</text>
</g>
<!-- 190&#45;&gt;20 -->
<g id="edge6" class="edge">
<title>190&#45;&gt;20</title>
<path fill="none" stroke="black" d="M560.09,-29.67C470.55,-38.07 342.75,-53.91 299.43,-78.6 227.53,-119.59 171.92,-200.66 141.98,-251.98"/>
<polygon fill="none" stroke="black" points="132.79,-246.9 127.4,-278.22 151.15,-257.1 132.79,-246.9"/>
</g>
<!-- 190&#45;&gt;185 -->
<g id="edge9" class="edge">
<title>190&#45;&gt;185</title>
<path fill="none" stroke="black" stroke-dasharray="5,2" d="M593.27,-42.12C555.02,-54.72 505.37,-71.08 465.37,-84.26"/>
<polygon fill="black" stroke="black" points="464.09,-80.99 455.69,-87.45 466.28,-87.64 464.09,-80.99"/>
</g>
<!-- 190&#45;&gt;194 -->
<g id="edge7" class="edge">
<title>190&#45;&gt;194</title>
<path fill="none" stroke="black" d="M653.43,-42.13C653.43,-82.87 653.43,-177.34 653.43,-239.42"/>
<polygon fill="none" stroke="black" points="642.93,-239.63 653.43,-269.63 663.93,-239.63 642.93,-239.63"/>
</g>
<!-- 745 -->
<g id="node7" class="node">
<title>745</title>
<polygon fill="#f2f2f2" stroke="black" points="696.09,-79.1 696.09,-137.5 1092.77,-137.5 1092.77,-79.1 696.09,-79.1"/>
<text text-anchor="middle" x="894.43" y="-120.9" font-family="Times,serif" font-size="14.00">&lt;&lt;Abstract&gt;&gt;</text>
<text text-anchor="middle" x="894.43" y="-104.1" font-family="Times,serif" font-size="14.00">ERC4626</text>
<text text-anchor="middle" x="894.43" y="-87.3" font-family="Times,serif" font-size="14.00">../lib/openzeppelin/contracts/token/ERC20/extensions/ERC4626.sol</text>
</g>
<!-- 190&#45;&gt;745 -->
<g id="edge5" class="edge">
<title>190&#45;&gt;745</title>
<path fill="none" stroke="black" d="M709.63,-42.12C732.39,-50.15 759.47,-59.7 785.8,-68.99"/>
<polygon fill="none" stroke="black" points="782.58,-78.99 814.37,-79.06 789.57,-59.18 782.58,-78.99"/>
</g>
<!-- 391 -->
<g id="node9" class="node">
<title>391</title>
<polygon fill="#f2f2f2" stroke="black" points="1081.71,-182.9 1081.71,-224.5 1481.15,-224.5 1481.15,-182.9 1081.71,-182.9"/>
<text text-anchor="middle" x="1281.43" y="-207.9" font-family="Times,serif" font-size="14.00">ERC20</text>
<text text-anchor="middle" x="1281.43" y="-191.1" font-family="Times,serif" font-size="14.00">../node_modules/@openzeppelin/contracts/token/ERC20/ERC20.sol</text>
</g>
<!-- 190&#45;&gt;391 -->
<g id="edge8" class="edge">
<title>190&#45;&gt;391</title>
<path fill="none" stroke="black" stroke-dasharray="5,2" d="M747.11,-28.82C858.91,-37.52 1038.62,-54.65 1101.43,-78.6 1160.53,-101.14 1218.96,-146.92 1252.55,-176.13"/>
<polygon fill="black" stroke="black" points="1250.32,-178.83 1260.14,-182.82 1254.95,-173.58 1250.32,-178.83"/>
</g>
<!-- 392 -->
<g id="node10" class="node">
<title>392</title>
<polygon fill="#f2f2f2" stroke="black" points="865.37,-365.3 865.37,-423.7 1269.48,-423.7 1269.48,-365.3 865.37,-365.3"/>
<text text-anchor="middle" x="1067.43" y="-407.1" font-family="Times,serif" font-size="14.00">&lt;&lt;Interface&gt;&gt;</text>
<text text-anchor="middle" x="1067.43" y="-390.3" font-family="Times,serif" font-size="14.00">IERC20</text>
<text text-anchor="middle" x="1067.43" y="-373.5" font-family="Times,serif" font-size="14.00">../node_modules/@openzeppelin/contracts/token/ERC20/IERC20.sol</text>
</g>
<!-- 190&#45;&gt;392 -->
<g id="edge10" class="edge">
<title>190&#45;&gt;392</title>
<path fill="none" stroke="black" stroke-dasharray="5,2" d="M747.07,-27.97C989.86,-44.93 1628.67,-104.7 1742.43,-269.4 1757.43,-291.12 1760.18,-309.26 1742.43,-328.8 1711.45,-362.89 1466.1,-379.48 1280.05,-387.22"/>
<polygon fill="black" stroke="black" points="1279.69,-383.74 1269.84,-387.64 1279.98,-390.73 1279.69,-383.74"/>
</g>
<!-- 197&#45;&gt;392 -->
<g id="edge11" class="edge">
<title>197&#45;&gt;392</title>
<path fill="none" stroke="black" stroke-dasharray="5,2" d="M538.05,-327.46C540.87,-327.92 543.66,-328.37 546.43,-328.8 640.68,-343.59 744.95,-357.11 835.3,-367.91"/>
<polygon fill="none" stroke="black" points="834.34,-378.37 865.37,-371.47 836.81,-357.52 834.34,-378.37"/>
</g>
<!-- 268 -->
<g id="node8" class="node">
<title>268</title>
<polygon fill="#f2f2f2" stroke="black" points="763.38,-174.5 763.38,-232.9 1025.48,-232.9 1025.48,-174.5 763.38,-174.5"/>
<text text-anchor="middle" x="894.43" y="-216.3" font-family="Times,serif" font-size="14.00">&lt;&lt;Interface&gt;&gt;</text>
<text text-anchor="middle" x="894.43" y="-199.5" font-family="Times,serif" font-size="14.00">IERC4626</text>
<text text-anchor="middle" x="894.43" y="-182.7" font-family="Times,serif" font-size="14.00">../lib/openzeppelin/interfaces/IERC4626.sol</text>
</g>
<!-- 745&#45;&gt;268 -->
<g id="edge13" class="edge">
<title>745&#45;&gt;268</title>
<path fill="none" stroke="black" stroke-dasharray="5,2" d="M894.43,-137.58C894.43,-139.66 894.43,-141.8 894.43,-143.98"/>
<polygon fill="none" stroke="black" points="883.93,-144.2 894.43,-174.2 904.93,-144.2 883.93,-144.2"/>
</g>
<!-- 745&#45;&gt;391 -->
<g id="edge12" class="edge">
<title>745&#45;&gt;391</title>
<path fill="none" stroke="black" d="M1011.33,-137.51C1061.66,-149.66 1120.24,-163.8 1169.95,-175.8"/>
<polygon fill="none" stroke="black" points="1167.6,-186.03 1199.22,-182.86 1172.52,-165.61 1167.6,-186.03"/>
</g>
<!-- 763 -->
<g id="node11" class="node">
<title>763</title>
<polygon fill="#f2f2f2" stroke="black" points="807.84,-269.9 807.84,-328.3 1327.02,-328.3 1327.02,-269.9 807.84,-269.9"/>
<text text-anchor="middle" x="1067.43" y="-311.7" font-family="Times,serif" font-size="14.00">&lt;&lt;Interface&gt;&gt;</text>
<text text-anchor="middle" x="1067.43" y="-294.9" font-family="Times,serif" font-size="14.00">IERC20Metadata</text>
<text text-anchor="middle" x="1067.43" y="-278.1" font-family="Times,serif" font-size="14.00">../node_modules/@openzeppelin/contracts/token/ERC20/extensions/IERC20Metadata.sol</text>
</g>
<!-- 745&#45;&gt;763 -->
<g id="edge14" class="edge">
<title>745&#45;&gt;763</title>
<path fill="none" stroke="black" d="M986.05,-137.54C1004.14,-146.71 1021.51,-158.63 1034.43,-174 1054.56,-197.96 1062.54,-232.95 1065.64,-259.68"/>
<polygon fill="black" stroke="black" points="1062.17,-260.23 1066.63,-269.84 1069.14,-259.55 1062.17,-260.23"/>
</g>
<!-- 268&#45;&gt;392 -->
<g id="edge15" class="edge">
<title>268&#45;&gt;392</title>
<path fill="none" stroke="black" stroke-dasharray="5,2" d="M832.89,-233.23C819.11,-242.69 806.26,-254.67 798.43,-269.4 786.03,-292.71 782.09,-308.06 798.43,-328.8 807.05,-339.74 825.57,-349.04 849.06,-356.89"/>
<polygon fill="none" stroke="black" points="846.29,-367.02 878.03,-365.29 852.14,-346.85 846.29,-367.02"/>
</g>
<!-- 268&#45;&gt;763 -->
<g id="edge16" class="edge">
<title>268&#45;&gt;763</title>
<path fill="none" stroke="black" stroke-dasharray="5,2" d="M946.8,-232.98C959.96,-240.08 974.36,-247.85 988.49,-255.48"/>
<polygon fill="none" stroke="black" points="983.55,-264.75 1014.93,-269.76 993.52,-246.27 983.55,-264.75"/>
</g>
<!-- 391&#45;&gt;392 -->
<g id="edge18" class="edge">
<title>391&#45;&gt;392</title>
<path fill="none" stroke="black" stroke-dasharray="5,2" d="M1304.9,-224.6C1316.81,-236.27 1330.07,-252.1 1336.43,-269.4 1345.54,-294.18 1352.77,-308.06 1336.43,-328.8 1327.81,-339.74 1309.29,-349.04 1285.8,-356.89"/>
<polygon fill="none" stroke="black" points="1282.72,-346.85 1256.83,-365.29 1288.57,-367.02 1282.72,-346.85"/>
</g>
<!-- 391&#45;&gt;763 -->
<g id="edge19" class="edge">
<title>391&#45;&gt;763</title>
<path fill="none" stroke="black" stroke-dasharray="5,2" d="M1236.05,-224.51C1213.88,-234.18 1186.36,-246.19 1160.03,-257.68"/>
<polygon fill="none" stroke="black" points="1155.53,-248.19 1132.24,-269.82 1163.93,-267.44 1155.53,-248.19"/>
</g>
<!-- 319 -->
<g id="node12" class="node">
<title>319</title>
<polygon fill="#f2f2f2" stroke="black" points="1383.21,-269.9 1383.21,-328.3 1733.65,-328.3 1733.65,-269.9 1383.21,-269.9"/>
<text text-anchor="middle" x="1558.43" y="-311.7" font-family="Times,serif" font-size="14.00">&lt;&lt;Abstract&gt;&gt;</text>
<text text-anchor="middle" x="1558.43" y="-294.9" font-family="Times,serif" font-size="14.00">Context</text>
<text text-anchor="middle" x="1558.43" y="-278.1" font-family="Times,serif" font-size="14.00">../node_modules/@openzeppelin/contracts/utils/Context.sol</text>
</g>
<!-- 391&#45;&gt;319 -->
<g id="edge17" class="edge">
<title>391&#45;&gt;319</title>
<path fill="none" stroke="black" d="M1340.17,-224.51C1370.92,-234.88 1409.63,-247.93 1445.88,-260.15"/>
<polygon fill="none" stroke="black" points="1442.76,-270.18 1474.55,-269.82 1449.47,-250.28 1442.76,-270.18"/>
</g>
<!-- 763&#45;&gt;392 -->
<g id="edge20" class="edge">
<title>763&#45;&gt;392</title>
<path fill="none" stroke="black" stroke-dasharray="5,2" d="M1067.43,-328.38C1067.43,-330.46 1067.43,-332.6 1067.43,-334.78"/>
<polygon fill="none" stroke="black" points="1056.93,-335 1067.43,-365 1077.93,-335 1056.93,-335"/>
</g>
</g>
</svg>
