<?xml version="1.0" encoding="UTF-8" standalone="no"?>
<!DOCTYPE svg PUBLIC "-//W3C//DTD SVG 1.1//EN"
 "http://www.w3.org/Graphics/SVG/1.1/DTD/svg11.dtd">
<!-- Generated by graphviz version 5.0.0 (20220707.1540)
 -->
<!-- Title: UmlClassDiagram Pages: 1 -->
<svg width="939pt" height="399pt"
 viewBox="0.00 0.00 938.63 398.60" xmlns="http://www.w3.org/2000/svg" xmlns:xlink="http://www.w3.org/1999/xlink">
<g id="graph0" class="graph" transform="scale(1 1) rotate(0) translate(4 394.6)">
<title>UmlClassDiagram</title>
<polygon fill="white" stroke="transparent" points="-4,4 -4,-394.6 934.63,-394.6 934.63,4 -4,4"/>
<!-- 21 -->
<g id="node1" class="node">
<title>21</title>
<polygon fill="#f2f2f2" stroke="black" points="0,-340.1 0,-381.7 234.86,-381.7 234.86,-340.1 0,-340.1"/>
<text text-anchor="middle" x="117.43" y="-365.1" font-family="Times,serif" font-size="14.00">Governable</text>
<text text-anchor="middle" x="117.43" y="-348.3" font-family="Times,serif" font-size="14.00">../contracts/governance/Governable.sol</text>
</g>
<!-- 242 -->
<g id="node2" class="node">
<title>242</title>
<polygon fill="#f2f2f2" stroke="black" points="87.7,-166.1 87.7,-207.7 261.16,-207.7 261.16,-166.1 87.7,-166.1"/>
<text text-anchor="middle" x="174.43" y="-191.1" font-family="Times,serif" font-size="14.00">OETH</text>
<text text-anchor="middle" x="174.43" y="-174.3" font-family="Times,serif" font-size="14.00">../contracts/token/OETH.sol</text>
</g>
<!-- 245 -->
<g id="node3" class="node">
<title>245</title>
<polygon fill="#f2f2f2" stroke="black" points="87.3,-253.1 87.3,-294.7 261.56,-294.7 261.56,-253.1 87.3,-253.1"/>
<text text-anchor="middle" x="174.43" y="-278.1" font-family="Times,serif" font-size="14.00">OUSD</text>
<text text-anchor="middle" x="174.43" y="-261.3" font-family="Times,serif" font-size="14.00">../contracts/token/OUSD.sol</text>
</g>
<!-- 242&#45;&gt;245 -->
<g id="edge1" class="edge">
<title>242&#45;&gt;245</title>
<path fill="none" stroke="black" d="M174.43,-208.04C174.43,-212.6 174.43,-217.63 174.43,-222.81"/>
<polygon fill="none" stroke="black" points="163.93,-222.9 174.43,-252.9 184.93,-222.9 163.93,-222.9"/>
</g>
<!-- 245&#45;&gt;21 -->
<g id="edge2" class="edge">
<title>245&#45;&gt;21</title>
<path fill="none" stroke="black" d="M160.92,-295.04C156.88,-301.08 152.27,-307.95 147.6,-314.92"/>
<polygon fill="none" stroke="black" points="138.83,-309.14 130.84,-339.9 156.27,-320.83 138.83,-309.14"/>
</g>
<!-- 249 -->
<g id="node4" class="node">
<title>249</title>
<polygon fill="#f2f2f2" stroke="black" points="284.09,-79.1 284.09,-120.7 470.77,-120.7 470.77,-79.1 284.09,-79.1"/>
<text text-anchor="middle" x="377.43" y="-104.1" font-family="Times,serif" font-size="14.00">WOETH</text>
<text text-anchor="middle" x="377.43" y="-87.3" font-family="Times,serif" font-size="14.00">../contracts/token/WOETH.sol</text>
</g>
<!-- 249&#45;&gt;21 -->
<g id="edge4" class="edge">
<title>249&#45;&gt;21</title>
<path fill="none" stroke="black" d="M284.08,-105.77C206.32,-112.01 104.27,-126.04 78.43,-157.2 39.28,-204.41 62,-236.11 78.43,-295.2 80.2,-301.57 82.79,-307.93 85.79,-314.06"/>
<polygon fill="none" stroke="black" points="76.97,-319.76 101.5,-339.96 94.93,-308.87 76.97,-319.76"/>
</g>
<!-- 249&#45;&gt;242 -->
<g id="edge7" class="edge">
<title>249&#45;&gt;242</title>
<path fill="none" stroke="black" stroke-dasharray="5,2" d="M330.09,-120.72C300.57,-133.08 262.42,-149.06 231.27,-162.1"/>
<polygon fill="black" stroke="black" points="229.72,-158.96 221.84,-166.05 232.42,-165.41 229.72,-158.96"/>
</g>
<!-- 261 -->
<g id="node6" class="node">
<title>261</title>
<polygon fill="#f2f2f2" stroke="black" points="279.42,-157.7 279.42,-216.1 475.44,-216.1 475.44,-157.7 279.42,-157.7"/>
<text text-anchor="middle" x="377.43" y="-199.5" font-family="Times,serif" font-size="14.00">&lt;&lt;Abstract&gt;&gt;</text>
<text text-anchor="middle" x="377.43" y="-182.7" font-family="Times,serif" font-size="14.00">Initializable</text>
<text text-anchor="middle" x="377.43" y="-165.9" font-family="Times,serif" font-size="14.00">../contracts/utils/Initializable.sol</text>
</g>
<!-- 249&#45;&gt;261 -->
<g id="edge5" class="edge">
<title>249&#45;&gt;261</title>
<path fill="none" stroke="black" d="M377.43,-121.04C377.43,-123.09 377.43,-125.23 377.43,-127.43"/>
<polygon fill="none" stroke="black" points="366.93,-127.54 377.43,-157.54 387.93,-127.54 366.93,-127.54"/>
</g>
<!-- 1261 -->
<g id="node7" class="node">
<title>1261</title>
<polygon fill="#f2f2f2" stroke="black" points="493.09,-157.7 493.09,-216.1 889.77,-216.1 889.77,-157.7 493.09,-157.7"/>
<text text-anchor="middle" x="691.43" y="-199.5" font-family="Times,serif" font-size="14.00">&lt;&lt;Abstract&gt;&gt;</text>
<text text-anchor="middle" x="691.43" y="-182.7" font-family="Times,serif" font-size="14.00">ERC4626</text>
<text text-anchor="middle" x="691.43" y="-165.9" font-family="Times,serif" font-size="14.00">../lib/openzeppelin/contracts/token/ERC20/extensions/ERC4626.sol</text>
</g>
<!-- 249&#45;&gt;1261 -->
<g id="edge3" class="edge">
<title>249&#45;&gt;1261</title>
<path fill="none" stroke="black" d="M450.65,-120.72C482.68,-129.39 521.29,-139.84 558.12,-149.81"/>
<polygon fill="none" stroke="black" points="555.42,-159.96 587.12,-157.66 560.9,-139.69 555.42,-159.96"/>
</g>
<!-- 775 -->
<g id="node8" class="node">
<title>775</title>
<polygon fill="#f2f2f2" stroke="black" points="491.71,-253.1 491.71,-294.7 891.15,-294.7 891.15,-253.1 491.71,-253.1"/>
<text text-anchor="middle" x="691.43" y="-278.1" font-family="Times,serif" font-size="14.00">ERC20</text>
<text text-anchor="middle" x="691.43" y="-261.3" font-family="Times,serif" font-size="14.00">../node_modules/@openzeppelin/contracts/token/ERC20/ERC20.sol</text>
</g>
<!-- 249&#45;&gt;775 -->
<g id="edge6" class="edge">
<title>249&#45;&gt;775</title>
<path fill="none" stroke="black" stroke-dasharray="5,2" d="M470.96,-104.35C613.2,-110.58 870.45,-126.04 898.43,-157.2 916.07,-176.84 914.46,-195.63 898.43,-216.6 887.73,-230.6 856.67,-241.94 821.76,-250.67"/>
<polygon fill="black" stroke="black" points="820.72,-247.32 811.82,-253.07 822.36,-254.13 820.72,-247.32"/>
</g>
<!-- 250 -->
<g id="node5" class="node">
<title>250</title>
<polygon fill="#f2f2f2" stroke="black" points="270.48,-0.5 270.48,-42.1 484.38,-42.1 484.38,-0.5 270.48,-0.5"/>
<text text-anchor="middle" x="377.43" y="-25.5" font-family="Times,serif" font-size="14.00">WOETHBase</text>
<text text-anchor="middle" x="377.43" y="-8.7" font-family="Times,serif" font-size="14.00">../contracts/token/WOETHBase.sol</text>
</g>
<!-- 250&#45;&gt;249 -->
<g id="edge8" class="edge">
<title>250&#45;&gt;249</title>
<path fill="none" stroke="black" d="M377.43,-42.43C377.43,-44.45 377.43,-46.56 377.43,-48.73"/>
<polygon fill="none" stroke="black" points="366.93,-48.91 377.43,-78.91 387.93,-48.91 366.93,-48.91"/>
</g>
<!-- 250&#45;&gt;775 -->
<g id="edge9" class="edge">
<title>250&#45;&gt;775</title>
<path fill="none" stroke="black" stroke-dasharray="5,2" d="M484.52,-33.55C626.58,-50.94 865.61,-89.6 918.43,-157.2 934.68,-178 934.7,-195.81 918.43,-216.6 907.12,-231.06 875.48,-242.33 839.28,-250.86"/>
<polygon fill="black" stroke="black" points="838.46,-247.45 829.48,-253.08 840.01,-254.28 838.46,-247.45"/>
</g>
<!-- 1261&#45;&gt;775 -->
<g id="edge10" class="edge">
<title>1261&#45;&gt;775</title>
<path fill="none" stroke="black" d="M691.43,-216.2C691.43,-218.37 691.43,-220.6 691.43,-222.85"/>
<polygon fill="none" stroke="black" points="680.93,-223.04 691.43,-253.04 701.93,-223.04 680.93,-223.04"/>
</g>
<!-- 431 -->
<g id="node9" class="node">
<title>431</title>
<polygon fill="#f2f2f2" stroke="black" points="516.21,-331.7 516.21,-390.1 866.65,-390.1 866.65,-331.7 516.21,-331.7"/>
<text text-anchor="middle" x="691.43" y="-373.5" font-family="Times,serif" font-size="14.00">&lt;&lt;Abstract&gt;&gt;</text>
<text text-anchor="middle" x="691.43" y="-356.7" font-family="Times,serif" font-size="14.00">Context</text>
<text text-anchor="middle" x="691.43" y="-339.9" font-family="Times,serif" font-size="14.00">../node_modules/@openzeppelin/contracts/utils/Context.sol</text>
</g>
<!-- 775&#45;&gt;431 -->
<g id="edge11" class="edge">
<title>775&#45;&gt;431</title>
<path fill="none" stroke="black" d="M691.43,-295.04C691.43,-297.09 691.43,-299.23 691.43,-301.43"/>
<polygon fill="none" stroke="black" points="680.93,-301.54 691.43,-331.54 701.93,-301.54 680.93,-301.54"/>
</g>
</g>
</svg>
