<?xml version="1.0" encoding="UTF-8" standalone="no"?>
<!DOCTYPE svg PUBLIC "-//W3C//DTD SVG 1.1//EN"
 "http://www.w3.org/Graphics/SVG/1.1/DTD/svg11.dtd">
<!-- Generated by graphviz version 5.0.0 (20220707.1540)
 -->
<!-- Title: UmlClassDiagram Pages: 1 -->
<svg width="1780pt" height="511pt"
 viewBox="0.00 0.00 1779.65 510.80" xmlns="http://www.w3.org/2000/svg" xmlns:xlink="http://www.w3.org/1999/xlink">
<g id="graph0" class="graph" transform="scale(1 1) rotate(0) translate(4 506.8)">
<title>UmlClassDiagram</title>
<polygon fill="white" stroke="transparent" points="-4,4 -4,-506.8 1775.65,-506.8 1775.65,4 -4,4"/>
<!-- 20 -->
<g id="node1" class="node">
<title>20</title>
<polygon fill="#f2f2f2" stroke="black" points="0,-356.9 0,-398.5 234.86,-398.5 234.86,-356.9 0,-356.9"/>
<text text-anchor="middle" x="117.43" y="-381.9" font-family="Times,serif" font-size="14.00">Governable</text>
<text text-anchor="middle" x="117.43" y="-365.1" font-family="Times,serif" font-size="14.00">../contracts/governance/Governable.sol</text>
</g>
<!-- 214 -->
<g id="node2" class="node">
<title>214</title>
<polygon fill="#f2f2f2" stroke="black" points="308.7,-166.1 308.7,-207.7 482.16,-207.7 482.16,-166.1 308.7,-166.1"/>
<text text-anchor="middle" x="395.43" y="-191.1" font-family="Times,serif" font-size="14.00">OETH</text>
<text text-anchor="middle" x="395.43" y="-174.3" font-family="Times,serif" font-size="14.00">../contracts/token/OETH.sol</text>
</g>
<!-- 216 -->
<g id="node3" class="node">
<title>216</title>
<polygon fill="#f2f2f2" stroke="black" points="308.3,-261.5 308.3,-303.1 482.56,-303.1 482.56,-261.5 308.3,-261.5"/>
<text text-anchor="middle" x="395.43" y="-286.5" font-family="Times,serif" font-size="14.00">OUSD</text>
<text text-anchor="middle" x="395.43" y="-269.7" font-family="Times,serif" font-size="14.00">../contracts/token/OUSD.sol</text>
</g>
<!-- 214&#45;&gt;216 -->
<g id="edge1" class="edge">
<title>214&#45;&gt;216</title>
<path fill="none" stroke="black" d="M395.43,-207.71C395.43,-214.6 395.43,-222.67 395.43,-230.89"/>
<polygon fill="none" stroke="black" points="384.93,-231.2 395.43,-261.2 405.93,-231.2 384.93,-231.2"/>
</g>
<!-- 216&#45;&gt;20 -->
<g id="edge4" class="edge">
<title>216&#45;&gt;20</title>
<path fill="none" stroke="black" d="M336.47,-303.11C298.36,-315.91 248.07,-332.81 205.3,-347.18"/>
<polygon fill="none" stroke="black" points="201.87,-337.25 176.78,-356.76 208.56,-357.16 201.87,-337.25"/>
</g>
<!-- 226 -->
<g id="node6" class="node">
<title>226</title>
<polygon fill="#f2f2f2" stroke="black" points="555.42,-348.5 555.42,-406.9 751.44,-406.9 751.44,-348.5 555.42,-348.5"/>
<text text-anchor="middle" x="653.43" y="-390.3" font-family="Times,serif" font-size="14.00">&lt;&lt;Abstract&gt;&gt;</text>
<text text-anchor="middle" x="653.43" y="-373.5" font-family="Times,serif" font-size="14.00">Initializable</text>
<text text-anchor="middle" x="653.43" y="-356.7" font-family="Times,serif" font-size="14.00">../contracts/utils/Initializable.sol</text>
</g>
<!-- 216&#45;&gt;226 -->
<g id="edge2" class="edge">
<title>216&#45;&gt;226</title>
<path fill="none" stroke="black" d="M450.14,-303.11C478.36,-313.32 513.77,-326.14 547.09,-338.2"/>
<polygon fill="none" stroke="black" points="543.52,-348.08 575.3,-348.42 550.66,-328.33 543.52,-348.08"/>
</g>
<!-- 229 -->
<g id="node7" class="node">
<title>229</title>
<polygon fill="#f2f2f2" stroke="black" points="253.1,-348.5 253.1,-406.9 537.76,-406.9 537.76,-348.5 253.1,-348.5"/>
<text text-anchor="middle" x="395.43" y="-390.3" font-family="Times,serif" font-size="14.00">&lt;&lt;Abstract&gt;&gt;</text>
<text text-anchor="middle" x="395.43" y="-373.5" font-family="Times,serif" font-size="14.00">InitializableERC20Detailed</text>
<text text-anchor="middle" x="395.43" y="-356.7" font-family="Times,serif" font-size="14.00">../contracts/utils/InitializableERC20Detailed.sol</text>
</g>
<!-- 216&#45;&gt;229 -->
<g id="edge3" class="edge">
<title>216&#45;&gt;229</title>
<path fill="none" stroke="black" d="M395.43,-303.11C395.43,-307.74 395.43,-312.91 395.43,-318.29"/>
<polygon fill="none" stroke="black" points="384.93,-318.42 395.43,-348.42 405.93,-318.42 384.93,-318.42"/>
</g>
<!-- 220 -->
<g id="node4" class="node">
<title>220</title>
<polygon fill="#f2f2f2" stroke="black" points="560.09,-79.1 560.09,-120.7 746.77,-120.7 746.77,-79.1 560.09,-79.1"/>
<text text-anchor="middle" x="653.43" y="-104.1" font-family="Times,serif" font-size="14.00">WOETH</text>
<text text-anchor="middle" x="653.43" y="-87.3" font-family="Times,serif" font-size="14.00">../contracts/token/WOETH.sol</text>
</g>
<!-- 220&#45;&gt;20 -->
<g id="edge6" class="edge">
<title>220&#45;&gt;20</title>
<path fill="none" stroke="black" d="M560.09,-108.27C470.55,-116.67 342.75,-132.51 299.43,-157.2 227.53,-198.19 171.92,-279.26 141.98,-330.58"/>
<polygon fill="none" stroke="black" points="132.79,-325.5 127.4,-356.82 151.15,-335.7 132.79,-325.5"/>
</g>
<!-- 220&#45;&gt;214 -->
<g id="edge9" class="edge">
<title>220&#45;&gt;214</title>
<path fill="none" stroke="black" stroke-dasharray="5,2" d="M593.27,-120.72C555.02,-133.32 505.37,-149.68 465.37,-162.86"/>
<polygon fill="black" stroke="black" points="464.09,-159.59 455.69,-166.05 466.28,-166.24 464.09,-159.59"/>
</g>
<!-- 220&#45;&gt;226 -->
<g id="edge7" class="edge">
<title>220&#45;&gt;226</title>
<path fill="none" stroke="black" d="M653.43,-120.73C653.43,-161.47 653.43,-255.94 653.43,-318.02"/>
<polygon fill="none" stroke="black" points="642.93,-318.23 653.43,-348.23 663.93,-318.23 642.93,-318.23"/>
</g>
<!-- 1196 -->
<g id="node8" class="node">
<title>1196</title>
<polygon fill="#f2f2f2" stroke="black" points="807.09,-157.7 807.09,-216.1 1203.77,-216.1 1203.77,-157.7 807.09,-157.7"/>
<text text-anchor="middle" x="1005.43" y="-199.5" font-family="Times,serif" font-size="14.00">&lt;&lt;Abstract&gt;&gt;</text>
<text text-anchor="middle" x="1005.43" y="-182.7" font-family="Times,serif" font-size="14.00">ERC4626</text>
<text text-anchor="middle" x="1005.43" y="-165.9" font-family="Times,serif" font-size="14.00">../lib/openzeppelin/contracts/token/ERC20/extensions/ERC4626.sol</text>
</g>
<!-- 220&#45;&gt;1196 -->
<g id="edge5" class="edge">
<title>220&#45;&gt;1196</title>
<path fill="none" stroke="black" d="M735.51,-120.72C772.31,-129.61 816.85,-140.36 859.05,-150.55"/>
<polygon fill="none" stroke="black" points="856.87,-160.83 888.49,-157.66 861.8,-140.41 856.87,-160.83"/>
</g>
<!-- 711 -->
<g id="node10" class="node">
<title>711</title>
<polygon fill="#f2f2f2" stroke="black" points="1133.71,-261.5 1133.71,-303.1 1533.15,-303.1 1533.15,-261.5 1133.71,-261.5"/>
<text text-anchor="middle" x="1333.43" y="-286.5" font-family="Times,serif" font-size="14.00">ERC20</text>
<text text-anchor="middle" x="1333.43" y="-269.7" font-family="Times,serif" font-size="14.00">../node_modules/@openzeppelin/contracts/token/ERC20/ERC20.sol</text>
</g>
<!-- 220&#45;&gt;711 -->
<g id="edge8" class="edge">
<title>220&#45;&gt;711</title>
<path fill="none" stroke="black" stroke-dasharray="5,2" d="M746.79,-102.64C884.01,-106.48 1132.53,-118.68 1212.43,-157.2 1256.84,-178.61 1293.96,-223.44 1314.94,-252.95"/>
<polygon fill="black" stroke="black" points="1312.09,-254.98 1320.67,-261.2 1317.84,-250.99 1312.09,-254.98"/>
</g>
<!-- 712 -->
<g id="node11" class="node">
<title>712</title>
<polygon fill="#f2f2f2" stroke="black" points="615.37,-443.9 615.37,-502.3 1019.48,-502.3 1019.48,-443.9 615.37,-443.9"/>
<text text-anchor="middle" x="817.43" y="-485.7" font-family="Times,serif" font-size="14.00">&lt;&lt;Interface&gt;&gt;</text>
<text text-anchor="middle" x="817.43" y="-468.9" font-family="Times,serif" font-size="14.00">IERC20</text>
<text text-anchor="middle" x="817.43" y="-452.1" font-family="Times,serif" font-size="14.00">../node_modules/@openzeppelin/contracts/token/ERC20/IERC20.sol</text>
</g>
<!-- 220&#45;&gt;712 -->
<g id="edge10" class="edge">
<title>220&#45;&gt;712</title>
<path fill="none" stroke="black" stroke-dasharray="5,2" d="M662.25,-120.86C688.47,-180.21 766.28,-356.33 800.72,-434.27"/>
<polygon fill="black" stroke="black" points="797.65,-435.98 804.89,-443.71 804.05,-433.15 797.65,-435.98"/>
</g>
<!-- 221 -->
<g id="node5" class="node">
<title>221</title>
<polygon fill="#f2f2f2" stroke="black" points="546.48,-0.5 546.48,-42.1 760.38,-42.1 760.38,-0.5 546.48,-0.5"/>
<text text-anchor="middle" x="653.43" y="-25.5" font-family="Times,serif" font-size="14.00">WOETHBase</text>
<text text-anchor="middle" x="653.43" y="-8.7" font-family="Times,serif" font-size="14.00">../contracts/token/WOETHBase.sol</text>
</g>
<!-- 221&#45;&gt;220 -->
<g id="edge11" class="edge">
<title>221&#45;&gt;220</title>
<path fill="none" stroke="black" d="M653.43,-42.43C653.43,-44.45 653.43,-46.56 653.43,-48.73"/>
<polygon fill="none" stroke="black" points="642.93,-48.91 653.43,-78.91 663.93,-48.91 642.93,-48.91"/>
</g>
<!-- 221&#45;&gt;711 -->
<g id="edge12" class="edge">
<title>221&#45;&gt;711</title>
<path fill="none" stroke="black" stroke-dasharray="5,2" d="M760.56,-35.46C913.25,-55.96 1183.72,-99.26 1262.43,-157.2 1294.26,-180.63 1313.96,-222.92 1324.31,-251.55"/>
<polygon fill="black" stroke="black" points="1321.02,-252.74 1327.58,-261.05 1327.63,-250.46 1321.02,-252.74"/>
</g>
<!-- 229&#45;&gt;712 -->
<g id="edge13" class="edge">
<title>229&#45;&gt;712</title>
<path fill="none" stroke="black" stroke-dasharray="5,2" d="M522.9,-406.91C566.19,-416.49 615.07,-427.31 660.39,-437.34"/>
<polygon fill="none" stroke="black" points="658.38,-447.65 689.94,-443.88 662.92,-427.15 658.38,-447.65"/>
</g>
<!-- 312 -->
<g id="node9" class="node">
<title>312</title>
<polygon fill="#f2f2f2" stroke="black" points="815.38,-253.1 815.38,-311.5 1077.48,-311.5 1077.48,-253.1 815.38,-253.1"/>
<text text-anchor="middle" x="946.43" y="-294.9" font-family="Times,serif" font-size="14.00">&lt;&lt;Interface&gt;&gt;</text>
<text text-anchor="middle" x="946.43" y="-278.1" font-family="Times,serif" font-size="14.00">IERC4626</text>
<text text-anchor="middle" x="946.43" y="-261.3" font-family="Times,serif" font-size="14.00">../lib/openzeppelin/interfaces/IERC4626.sol</text>
</g>
<!-- 1196&#45;&gt;312 -->
<g id="edge15" class="edge">
<title>1196&#45;&gt;312</title>
<path fill="none" stroke="black" stroke-dasharray="5,2" d="M987.57,-216.18C985.34,-219.71 983,-223.41 980.62,-227.18"/>
<polygon fill="none" stroke="black" points="971.58,-221.83 964.43,-252.8 989.33,-233.04 971.58,-221.83"/>
</g>
<!-- 1196&#45;&gt;711 -->
<g id="edge14" class="edge">
<title>1196&#45;&gt;711</title>
<path fill="none" stroke="black" d="M1104.73,-216.18C1145.98,-227.92 1193.72,-241.52 1234.89,-253.24"/>
<polygon fill="none" stroke="black" points="1232.12,-263.37 1263.85,-261.49 1237.87,-243.17 1232.12,-263.37"/>
</g>
<!-- 1236 -->
<g id="node12" class="node">
<title>1236</title>
<polygon fill="#f2f2f2" stroke="black" points="845.84,-348.5 845.84,-406.9 1365.02,-406.9 1365.02,-348.5 845.84,-348.5"/>
<text text-anchor="middle" x="1105.43" y="-390.3" font-family="Times,serif" font-size="14.00">&lt;&lt;Interface&gt;&gt;</text>
<text text-anchor="middle" x="1105.43" y="-373.5" font-family="Times,serif" font-size="14.00">IERC20Metadata</text>
<text text-anchor="middle" x="1105.43" y="-356.7" font-family="Times,serif" font-size="14.00">../node_modules/@openzeppelin/contracts/token/ERC20/extensions/IERC20Metadata.sol</text>
</g>
<!-- 1196&#45;&gt;1236 -->
<g id="edge16" class="edge">
<title>1196&#45;&gt;1236</title>
<path fill="none" stroke="black" d="M1052.78,-216.22C1065.62,-226.15 1078.23,-238.42 1086.43,-252.6 1101.44,-278.55 1105.81,-312.44 1106.63,-338.25"/>
<polygon fill="black" stroke="black" points="1103.13,-338.47 1106.79,-348.41 1110.13,-338.36 1103.13,-338.47"/>
</g>
<!-- 312&#45;&gt;712 -->
<g id="edge17" class="edge">
<title>312&#45;&gt;712</title>
<path fill="none" stroke="black" stroke-dasharray="5,2" d="M876.9,-311.67C861.39,-321.06 846.56,-333.05 836.43,-348 823.57,-366.98 818.07,-391.32 816.05,-413.41"/>
<polygon fill="none" stroke="black" points="805.55,-413.44 815.15,-443.74 826.54,-414.07 805.55,-413.44"/>
</g>
<!-- 312&#45;&gt;1236 -->
<g id="edge18" class="edge">
<title>312&#45;&gt;1236</title>
<path fill="none" stroke="black" stroke-dasharray="5,2" d="M994.57,-311.58C1006.11,-318.36 1018.71,-325.76 1031.13,-333.05"/>
<polygon fill="none" stroke="black" points="1026,-342.22 1057.18,-348.36 1036.63,-324.11 1026,-342.22"/>
</g>
<!-- 711&#45;&gt;712 -->
<g id="edge20" class="edge">
<title>711&#45;&gt;712</title>
<path fill="none" stroke="black" stroke-dasharray="5,2" d="M1350.72,-303.35C1371.65,-330.1 1400.99,-377.58 1374.43,-407.4 1352.12,-432.45 1192.39,-449.28 1049.68,-459.48"/>
<polygon fill="none" stroke="black" points="1048.74,-449.02 1019.53,-461.56 1050.19,-469.97 1048.74,-449.02"/>
</g>
<!-- 711&#45;&gt;1236 -->
<g id="edge21" class="edge">
<title>711&#45;&gt;1236</title>
<path fill="none" stroke="black" stroke-dasharray="5,2" d="M1285.08,-303.11C1260.96,-312.99 1230.9,-325.3 1202.3,-337.02"/>
<polygon fill="none" stroke="black" points="1198.26,-327.33 1174.48,-348.42 1206.22,-346.76 1198.26,-327.33"/>
</g>
<!-- 367 -->
<g id="node13" class="node">
<title>367</title>
<polygon fill="#f2f2f2" stroke="black" points="1421.21,-348.5 1421.21,-406.9 1771.65,-406.9 1771.65,-348.5 1421.21,-348.5"/>
<text text-anchor="middle" x="1596.43" y="-390.3" font-family="Times,serif" font-size="14.00">&lt;&lt;Abstract&gt;&gt;</text>
<text text-anchor="middle" x="1596.43" y="-373.5" font-family="Times,serif" font-size="14.00">Context</text>
<text text-anchor="middle" x="1596.43" y="-356.7" font-family="Times,serif" font-size="14.00">../node_modules/@openzeppelin/contracts/utils/Context.sol</text>
</g>
<!-- 711&#45;&gt;367 -->
<g id="edge19" class="edge">
<title>711&#45;&gt;367</title>
<path fill="none" stroke="black" d="M1389.21,-303.11C1418.04,-313.35 1454.24,-326.2 1488.29,-338.29"/>
<polygon fill="none" stroke="black" points="1485,-348.27 1516.78,-348.42 1492.03,-328.48 1485,-348.27"/>
</g>
<!-- 1236&#45;&gt;712 -->
<g id="edge22" class="edge">
<title>1236&#45;&gt;712</title>
<path fill="none" stroke="black" stroke-dasharray="5,2" d="M1018.24,-406.98C991.57,-415.62 961.82,-425.27 933.55,-434.44"/>
<polygon fill="none" stroke="black" points="930.12,-424.52 904.82,-443.76 936.6,-444.49 930.12,-424.52"/>
</g>
</g>
</svg>
