<?xml version="1.0" encoding="UTF-8" standalone="no"?>
<!DOCTYPE svg PUBLIC "-//W3C//DTD SVG 1.1//EN"
 "http://www.w3.org/Graphics/SVG/1.1/DTD/svg11.dtd">
<!-- Generated by graphviz version 5.0.0 (20220707.1540)
 -->
<!-- Title: UmlClassDiagram Pages: 1 -->
<svg width="919pt" height="320pt"
 viewBox="0.00 0.00 919.16 320.00" xmlns="http://www.w3.org/2000/svg" xmlns:xlink="http://www.w3.org/1999/xlink">
<g id="graph0" class="graph" transform="scale(1 1) rotate(0) translate(4 316)">
<title>UmlClassDiagram</title>
<polygon fill="white" stroke="transparent" points="-4,4 -4,-316 915.16,-316 915.16,4 -4,4"/>
<!-- 21 -->
<g id="node1" class="node">
<title>21</title>
<polygon fill="#f2f2f2" stroke="black" points="0,-261.5 0,-303.1 234.86,-303.1 234.86,-261.5 0,-261.5"/>
<text text-anchor="middle" x="117.43" y="-286.5" font-family="Times,serif" font-size="14.00">Governable</text>
<text text-anchor="middle" x="117.43" y="-269.7" font-family="Times,serif" font-size="14.00">../contracts/governance/Governable.sol</text>
</g>
<!-- 242 -->
<g id="node2" class="node">
<title>242</title>
<polygon fill="#f2f2f2" stroke="black" points="87.7,-87.5 87.7,-129.1 261.16,-129.1 261.16,-87.5 87.7,-87.5"/>
<text text-anchor="middle" x="174.43" y="-112.5" font-family="Times,serif" font-size="14.00">OETH</text>
<text text-anchor="middle" x="174.43" y="-95.7" font-family="Times,serif" font-size="14.00">../contracts/token/OETH.sol</text>
</g>
<!-- 245 -->
<g id="node3" class="node">
<title>245</title>
<polygon fill="#f2f2f2" stroke="black" points="87.3,-174.5 87.3,-216.1 261.56,-216.1 261.56,-174.5 87.3,-174.5"/>
<text text-anchor="middle" x="174.43" y="-199.5" font-family="Times,serif" font-size="14.00">OUSD</text>
<text text-anchor="middle" x="174.43" y="-182.7" font-family="Times,serif" font-size="14.00">../contracts/token/OUSD.sol</text>
</g>
<!-- 242&#45;&gt;245 -->
<g id="edge1" class="edge">
<title>242&#45;&gt;245</title>
<path fill="none" stroke="black" d="M174.43,-129.44C174.43,-134 174.43,-139.03 174.43,-144.21"/>
<polygon fill="none" stroke="black" points="163.93,-144.3 174.43,-174.3 184.93,-144.3 163.93,-144.3"/>
</g>
<!-- 245&#45;&gt;21 -->
<g id="edge2" class="edge">
<title>245&#45;&gt;21</title>
<path fill="none" stroke="black" d="M160.92,-216.44C156.88,-222.48 152.27,-229.35 147.6,-236.32"/>
<polygon fill="none" stroke="black" points="138.83,-230.54 130.84,-261.3 156.27,-242.23 138.83,-230.54"/>
</g>
<!-- 249 -->
<g id="node4" class="node">
<title>249</title>
<polygon fill="#f2f2f2" stroke="black" points="284.09,-0.5 284.09,-42.1 470.77,-42.1 470.77,-0.5 284.09,-0.5"/>
<text text-anchor="middle" x="377.43" y="-25.5" font-family="Times,serif" font-size="14.00">WOETH</text>
<text text-anchor="middle" x="377.43" y="-8.7" font-family="Times,serif" font-size="14.00">../contracts/token/WOETH.sol</text>
</g>
<!-- 249&#45;&gt;21 -->
<g id="edge4" class="edge">
<title>249&#45;&gt;21</title>
<path fill="none" stroke="black" d="M284.08,-27.17C206.32,-33.41 104.27,-47.44 78.43,-78.6 39.28,-125.81 62,-157.51 78.43,-216.6 80.2,-222.97 82.79,-229.33 85.79,-235.46"/>
<polygon fill="none" stroke="black" points="76.97,-241.16 101.5,-261.36 94.93,-230.27 76.97,-241.16"/>
</g>
<!-- 249&#45;&gt;242 -->
<g id="edge7" class="edge">
<title>249&#45;&gt;242</title>
<path fill="none" stroke="black" stroke-dasharray="5,2" d="M330.09,-42.12C300.57,-54.48 262.42,-70.46 231.27,-83.5"/>
<polygon fill="black" stroke="black" points="229.72,-80.36 221.84,-87.45 232.42,-86.81 229.72,-80.36"/>
</g>
<!-- 261 -->
<g id="node5" class="node">
<title>261</title>
<polygon fill="#f2f2f2" stroke="black" points="279.42,-79.1 279.42,-137.5 475.44,-137.5 475.44,-79.1 279.42,-79.1"/>
<text text-anchor="middle" x="377.43" y="-120.9" font-family="Times,serif" font-size="14.00">&lt;&lt;Abstract&gt;&gt;</text>
<text text-anchor="middle" x="377.43" y="-104.1" font-family="Times,serif" font-size="14.00">Initializable</text>
<text text-anchor="middle" x="377.43" y="-87.3" font-family="Times,serif" font-size="14.00">../contracts/utils/Initializable.sol</text>
</g>
<!-- 249&#45;&gt;261 -->
<g id="edge5" class="edge">
<title>249&#45;&gt;261</title>
<path fill="none" stroke="black" d="M377.43,-42.44C377.43,-44.49 377.43,-46.63 377.43,-48.83"/>
<polygon fill="none" stroke="black" points="366.93,-48.94 377.43,-78.94 387.93,-48.94 366.93,-48.94"/>
</g>
<!-- 1261 -->
<g id="node6" class="node">
<title>1261</title>
<polygon fill="#f2f2f2" stroke="black" points="493.09,-79.1 493.09,-137.5 889.77,-137.5 889.77,-79.1 493.09,-79.1"/>
<text text-anchor="middle" x="691.43" y="-120.9" font-family="Times,serif" font-size="14.00">&lt;&lt;Abstract&gt;&gt;</text>
<text text-anchor="middle" x="691.43" y="-104.1" font-family="Times,serif" font-size="14.00">ERC4626</text>
<text text-anchor="middle" x="691.43" y="-87.3" font-family="Times,serif" font-size="14.00">../lib/openzeppelin/contracts/token/ERC20/extensions/ERC4626.sol</text>
</g>
<!-- 249&#45;&gt;1261 -->
<g id="edge3" class="edge">
<title>249&#45;&gt;1261</title>
<path fill="none" stroke="black" d="M450.65,-42.12C482.68,-50.79 521.29,-61.24 558.12,-71.21"/>
<polygon fill="none" stroke="black" points="555.42,-81.36 587.12,-79.06 560.9,-61.09 555.42,-81.36"/>
</g>
<!-- 775 -->
<g id="node7" class="node">
<title>775</title>
<polygon fill="#f2f2f2" stroke="black" points="491.71,-174.5 491.71,-216.1 891.15,-216.1 891.15,-174.5 491.71,-174.5"/>
<text text-anchor="middle" x="691.43" y="-199.5" font-family="Times,serif" font-size="14.00">ERC20</text>
<text text-anchor="middle" x="691.43" y="-182.7" font-family="Times,serif" font-size="14.00">../node_modules/@openzeppelin/contracts/token/ERC20/ERC20.sol</text>
</g>
<!-- 249&#45;&gt;775 -->
<g id="edge6" class="edge">
<title>249&#45;&gt;775</title>
<path fill="none" stroke="black" stroke-dasharray="5,2" d="M470.96,-25.75C613.2,-31.98 870.45,-47.44 898.43,-78.6 916.07,-98.24 914.46,-117.03 898.43,-138 887.73,-152 856.67,-163.34 821.76,-172.07"/>
<polygon fill="black" stroke="black" points="820.72,-168.72 811.82,-174.47 822.36,-175.53 820.72,-168.72"/>
</g>
<!-- 1261&#45;&gt;775 -->
<g id="edge8" class="edge">
<title>1261&#45;&gt;775</title>
<path fill="none" stroke="black" d="M691.43,-137.6C691.43,-139.77 691.43,-142 691.43,-144.25"/>
<polygon fill="none" stroke="black" points="680.93,-144.44 691.43,-174.44 701.93,-144.44 680.93,-144.44"/>
</g>
<!-- 431 -->
<g id="node8" class="node">
<title>431</title>
<polygon fill="#f2f2f2" stroke="black" points="516.21,-253.1 516.21,-311.5 866.65,-311.5 866.65,-253.1 516.21,-253.1"/>
<text text-anchor="middle" x="691.43" y="-294.9" font-family="Times,serif" font-size="14.00">&lt;&lt;Abstract&gt;&gt;</text>
<text text-anchor="middle" x="691.43" y="-278.1" font-family="Times,serif" font-size="14.00">Context</text>
<text text-anchor="middle" x="691.43" y="-261.3" font-family="Times,serif" font-size="14.00">../node_modules/@openzeppelin/contracts/utils/Context.sol</text>
</g>
<!-- 775&#45;&gt;431 -->
<g id="edge9" class="edge">
<title>775&#45;&gt;431</title>
<path fill="none" stroke="black" d="M691.43,-216.44C691.43,-218.49 691.43,-220.63 691.43,-222.83"/>
<polygon fill="none" stroke="black" points="680.93,-222.94 691.43,-252.94 701.93,-222.94 680.93,-222.94"/>
</g>
</g>
</svg>
