<?xml version="1.0" encoding="UTF-8" standalone="no"?>
<!DOCTYPE svg PUBLIC "-//W3C//DTD SVG 1.1//EN"
 "http://www.w3.org/Graphics/SVG/1.1/DTD/svg11.dtd">
<!-- Generated by graphviz version 5.0.0 (20220707.1540)
 -->
<!-- Title: StorageDiagram Pages: 1 -->
<svg width="837pt" height="232pt"
 viewBox="0.00 0.00 836.52 232.20" xmlns="http://www.w3.org/2000/svg" xmlns:xlink="http://www.w3.org/1999/xlink">
<g id="graph0" class="graph" transform="scale(1 1) rotate(0) translate(4 228.2)">
<title>StorageDiagram</title>
<polygon fill="white" stroke="transparent" points="-4,4 -4,-228.2 832.52,-228.2 832.52,4 -4,4"/>
<!-- 1 -->
<g id="node1" class="node">
<title>1</title>
<polygon fill="#f2f2f2" stroke="black" points="0,-0.5 0,-223.7 828.52,-223.7 828.52,-0.5 0,-0.5"/>
<text text-anchor="middle" x="414.26" y="-207.1" font-family="Courier New" font-size="14.00">WOETH &lt;&lt;Contract&gt;&gt;</text>
<polyline fill="none" stroke="black" points="0,-198.9 828.52,-198.9 "/>
<text text-anchor="middle" x="24.8" y="-182.3" font-family="Courier New" font-size="14.00">slot</text>
<polyline fill="none" stroke="black" points="0,-174.1 49.61,-174.1 "/>
<text text-anchor="middle" x="24.8" y="-157.5" font-family="Courier New" font-size="14.00">0</text>
<polyline fill="none" stroke="black" points="0,-149.3 49.61,-149.3 "/>
<text text-anchor="middle" x="24.8" y="-132.7" font-family="Courier New" font-size="14.00">1</text>
<polyline fill="none" stroke="black" points="0,-124.5 49.61,-124.5 "/>
<text text-anchor="middle" x="24.8" y="-107.9" font-family="Courier New" font-size="14.00">2</text>
<polyline fill="none" stroke="black" points="0,-99.7 49.61,-99.7 "/>
<text text-anchor="middle" x="24.8" y="-83.1" font-family="Courier New" font-size="14.00">3</text>
<polyline fill="none" stroke="black" points="0,-74.9 49.61,-74.9 "/>
<text text-anchor="middle" x="24.8" y="-58.3" font-family="Courier New" font-size="14.00">4</text>
<polyline fill="none" stroke="black" points="0,-50.1 49.61,-50.1 "/>
<text text-anchor="middle" x="24.8" y="-33.5" font-family="Courier New" font-size="14.00">5</text>
<polyline fill="none" stroke="black" points="0,-25.3 49.61,-25.3 "/>
<text text-anchor="middle" x="24.8" y="-8.7" font-family="Courier New" font-size="14.00">6&#45;55</text>
<polyline fill="none" stroke="black" points="49.61,-0.5 49.61,-198.9 "/>
<text text-anchor="middle" x="439.06" y="-182.3" font-family="Courier New" font-size="14.00">type: &lt;inherited contract&gt;.variable (bytes)</text>
<polyline fill="none" stroke="black" points="49.61,-174.1 828.52,-174.1 "/>
<text text-anchor="middle" x="439.04" y="-157.5" font-family="Courier New" font-size="14.00">mapping(address=&gt;uint256): ERC20._balances (32)</text>
<polyline fill="none" stroke="black" points="49.61,-149.3 828.52,-149.3 "/>
<text text-anchor="middle" x="439.05" y="-132.7" font-family="Courier New" font-size="14.00">mapping(address=&gt;mapping(address=&gt;uint256)): ERC20._allowances (32)</text>
<polyline fill="none" stroke="black" points="49.61,-124.5 828.52,-124.5 "/>
<text text-anchor="middle" x="439.03" y="-107.9" font-family="Courier New" font-size="14.00">uint256: ERC20._totalSupply (32)</text>
<polyline fill="none" stroke="black" points="49.61,-99.7 828.52,-99.7 "/>
<text text-anchor="middle" x="438.92" y="-83.1" font-family="Courier New" font-size="14.00">string: ERC20._name (32)</text>
<polyline fill="none" stroke="black" points="49.61,-74.9 828.52,-74.9 "/>
<text text-anchor="middle" x="438.82" y="-58.3" font-family="Courier New" font-size="14.00">string: ERC20._symbol (32)</text>
<polyline fill="none" stroke="black" points="49.61,-50.1 828.52,-50.1 "/>
<text text-anchor="middle" x="124.82" y="-33.5" font-family="Courier New" font-size="14.00">unallocated (30)</text>
<polyline fill="none" stroke="black" points="200.03,-25.3 200.03,-50.1 "/>
<text text-anchor="middle" x="359.25" y="-33.5" font-family="Courier New" font-size="14.00">bool: Initializable.initializing (1)</text>
<polyline fill="none" stroke="black" points="518.48,-25.3 518.48,-50.1 "/>
<text text-anchor="middle" x="673.5" y="-33.5" font-family="Courier New" font-size="14.00">bool: Initializable.initialized (1)</text>
<polyline fill="none" stroke="black" points="49.61,-25.3 828.52,-25.3 "/>
<text text-anchor="middle" x="438.73" y="-8.7" font-family="Courier New" font-size="14.00">uint256[50]: Initializable.______gap (1600)</text>
</g>
</g>
</svg>
