<?xml version="1.0" encoding="UTF-8" standalone="no"?>
<!DOCTYPE svg PUBLIC "-//W3C//DTD SVG 1.1//EN"
 "http://www.w3.org/Graphics/SVG/1.1/DTD/svg11.dtd">
<!-- Generated by graphviz version 5.0.0 (20220707.1540)
 -->
<!-- Title: UmlClassDiagram Pages: 1 -->
<svg width="923pt" height="320pt"
 viewBox="0.00 0.00 923.16 320.00" xmlns="http://www.w3.org/2000/svg" xmlns:xlink="http://www.w3.org/1999/xlink">
<g id="graph0" class="graph" transform="scale(1 1) rotate(0) translate(4 316)">
<title>UmlClassDiagram</title>
<polygon fill="white" stroke="transparent" points="-4,4 -4,-316 919.16,-316 919.16,4 -4,4"/>
<!-- 21 -->
<g id="node1" class="node">
<title>21</title>
<polygon fill="#f2f2f2" stroke="black" points="0,-261.5 0,-303.1 234.86,-303.1 234.86,-261.5 0,-261.5"/>
<text text-anchor="middle" x="117.43" y="-286.5" font-family="Times,serif" font-size="14.00">Governable</text>
<text text-anchor="middle" x="117.43" y="-269.7" font-family="Times,serif" font-size="14.00">../contracts/governance/Governable.sol</text>
</g>
<!-- 244 -->
<g id="node2" class="node">
<title>244</title>
<polygon fill="#f2f2f2" stroke="black" points="87.36,-87.5 87.36,-129.1 265.5,-129.1 265.5,-87.5 87.36,-87.5"/>
<text text-anchor="middle" x="176.43" y="-112.5" font-family="Times,serif" font-size="14.00">OSonic</text>
<text text-anchor="middle" x="176.43" y="-95.7" font-family="Times,serif" font-size="14.00">../contracts/token/OSonic.sol</text>
</g>
<!-- 245 -->
<g id="node3" class="node">
<title>245</title>
<polygon fill="#f2f2f2" stroke="black" points="88.3,-174.5 88.3,-216.1 262.56,-216.1 262.56,-174.5 88.3,-174.5"/>
<text text-anchor="middle" x="175.43" y="-199.5" font-family="Times,serif" font-size="14.00">OUSD</text>
<text text-anchor="middle" x="175.43" y="-182.7" font-family="Times,serif" font-size="14.00">../contracts/token/OUSD.sol</text>
</g>
<!-- 244&#45;&gt;245 -->
<g id="edge1" class="edge">
<title>244&#45;&gt;245</title>
<path fill="none" stroke="black" d="M176.19,-129.44C176.14,-134 176.08,-139.03 176.02,-144.21"/>
<polygon fill="none" stroke="black" points="165.52,-144.18 175.66,-174.3 186.52,-144.43 165.52,-144.18"/>
</g>
<!-- 245&#45;&gt;21 -->
<g id="edge2" class="edge">
<title>245&#45;&gt;21</title>
<path fill="none" stroke="black" d="M161.68,-216.44C157.57,-222.48 152.88,-229.35 148.12,-236.32"/>
<polygon fill="none" stroke="black" points="139.31,-230.6 131.08,-261.3 156.66,-242.44 139.31,-230.6"/>
</g>
<!-- 251 -->
<g id="node4" class="node">
<title>251</title>
<polygon fill="#f2f2f2" stroke="black" points="285.75,-0.5 285.75,-42.1 477.11,-42.1 477.11,-0.5 285.75,-0.5"/>
<text text-anchor="middle" x="381.43" y="-25.5" font-family="Times,serif" font-size="14.00">WOSonic</text>
<text text-anchor="middle" x="381.43" y="-8.7" font-family="Times,serif" font-size="14.00">../contracts/token/WOSonic.sol</text>
</g>
<!-- 251&#45;&gt;21 -->
<g id="edge4" class="edge">
<title>251&#45;&gt;21</title>
<path fill="none" stroke="black" d="M285.68,-27.08C207.04,-33.25 104.51,-47.23 78.43,-78.6 74.35,-83.5 75.71,-203.24 79.43,-216.6 81.19,-222.92 83.73,-229.26 86.68,-235.37"/>
<polygon fill="none" stroke="black" points="77.69,-240.79 101.98,-261.28 95.77,-230.11 77.69,-240.79"/>
</g>
<!-- 251&#45;&gt;244 -->
<g id="edge7" class="edge">
<title>251&#45;&gt;244</title>
<path fill="none" stroke="black" stroke-dasharray="5,2" d="M333.63,-42.12C303.82,-54.48 265.28,-70.46 233.83,-83.5"/>
<polygon fill="black" stroke="black" points="232.21,-80.38 224.31,-87.45 234.89,-86.85 232.21,-80.38"/>
</g>
<!-- 261 -->
<g id="node5" class="node">
<title>261</title>
<polygon fill="#f2f2f2" stroke="black" points="283.42,-79.1 283.42,-137.5 479.44,-137.5 479.44,-79.1 283.42,-79.1"/>
<text text-anchor="middle" x="381.43" y="-120.9" font-family="Times,serif" font-size="14.00">&lt;&lt;Abstract&gt;&gt;</text>
<text text-anchor="middle" x="381.43" y="-104.1" font-family="Times,serif" font-size="14.00">Initializable</text>
<text text-anchor="middle" x="381.43" y="-87.3" font-family="Times,serif" font-size="14.00">../contracts/utils/Initializable.sol</text>
</g>
<!-- 251&#45;&gt;261 -->
<g id="edge5" class="edge">
<title>251&#45;&gt;261</title>
<path fill="none" stroke="black" d="M381.43,-42.44C381.43,-44.49 381.43,-46.63 381.43,-48.83"/>
<polygon fill="none" stroke="black" points="370.93,-48.94 381.43,-78.94 391.93,-48.94 370.93,-48.94"/>
</g>
<!-- 1261 -->
<g id="node6" class="node">
<title>1261</title>
<polygon fill="#f2f2f2" stroke="black" points="497.09,-79.1 497.09,-137.5 893.77,-137.5 893.77,-79.1 497.09,-79.1"/>
<text text-anchor="middle" x="695.43" y="-120.9" font-family="Times,serif" font-size="14.00">&lt;&lt;Abstract&gt;&gt;</text>
<text text-anchor="middle" x="695.43" y="-104.1" font-family="Times,serif" font-size="14.00">ERC4626</text>
<text text-anchor="middle" x="695.43" y="-87.3" font-family="Times,serif" font-size="14.00">../lib/openzeppelin/contracts/token/ERC20/extensions/ERC4626.sol</text>
</g>
<!-- 251&#45;&gt;1261 -->
<g id="edge3" class="edge">
<title>251&#45;&gt;1261</title>
<path fill="none" stroke="black" d="M454.65,-42.12C486.68,-50.79 525.29,-61.24 562.12,-71.21"/>
<polygon fill="none" stroke="black" points="559.42,-81.36 591.12,-79.06 564.9,-61.09 559.42,-81.36"/>
</g>
<!-- 775 -->
<g id="node7" class="node">
<title>775</title>
<polygon fill="#f2f2f2" stroke="black" points="495.71,-174.5 495.71,-216.1 895.15,-216.1 895.15,-174.5 495.71,-174.5"/>
<text text-anchor="middle" x="695.43" y="-199.5" font-family="Times,serif" font-size="14.00">ERC20</text>
<text text-anchor="middle" x="695.43" y="-182.7" font-family="Times,serif" font-size="14.00">../node_modules/@openzeppelin/contracts/token/ERC20/ERC20.sol</text>
</g>
<!-- 251&#45;&gt;775 -->
<g id="edge6" class="edge">
<title>251&#45;&gt;775</title>
<path fill="none" stroke="black" stroke-dasharray="5,2" d="M477.29,-25.85C619.99,-32.15 874.61,-47.61 902.43,-78.6 920.07,-98.24 918.46,-117.03 902.43,-138 891.73,-152 860.67,-163.34 825.76,-172.07"/>
<polygon fill="black" stroke="black" points="824.72,-168.72 815.82,-174.47 826.36,-175.53 824.72,-168.72"/>
</g>
<!-- 1261&#45;&gt;775 -->
<g id="edge8" class="edge">
<title>1261&#45;&gt;775</title>
<path fill="none" stroke="black" d="M695.43,-137.6C695.43,-139.77 695.43,-142 695.43,-144.25"/>
<polygon fill="none" stroke="black" points="684.93,-144.44 695.43,-174.44 705.93,-144.44 684.93,-144.44"/>
</g>
<!-- 431 -->
<g id="node8" class="node">
<title>431</title>
<polygon fill="#f2f2f2" stroke="black" points="520.21,-253.1 520.21,-311.5 870.65,-311.5 870.65,-253.1 520.21,-253.1"/>
<text text-anchor="middle" x="695.43" y="-294.9" font-family="Times,serif" font-size="14.00">&lt;&lt;Abstract&gt;&gt;</text>
<text text-anchor="middle" x="695.43" y="-278.1" font-family="Times,serif" font-size="14.00">Context</text>
<text text-anchor="middle" x="695.43" y="-261.3" font-family="Times,serif" font-size="14.00">../node_modules/@openzeppelin/contracts/utils/Context.sol</text>
</g>
<!-- 775&#45;&gt;431 -->
<g id="edge9" class="edge">
<title>775&#45;&gt;431</title>
<path fill="none" stroke="black" d="M695.43,-216.44C695.43,-218.49 695.43,-220.63 695.43,-222.83"/>
<polygon fill="none" stroke="black" points="684.93,-222.94 695.43,-252.94 705.93,-222.94 684.93,-222.94"/>
</g>
</g>
</svg>
