<?xml version="1.0" encoding="UTF-8" standalone="no"?>
<!DOCTYPE svg PUBLIC "-//W3C//DTD SVG 1.1//EN"
 "http://www.w3.org/Graphics/SVG/1.1/DTD/svg11.dtd">
<!-- Generated by graphviz version 5.0.0 (20220707.1540)
 -->
<!-- Title: UmlClassDiagram Pages: 1 -->
<svg width="920pt" height="320pt"
 viewBox="0.00 0.00 920.16 320.00" xmlns="http://www.w3.org/2000/svg" xmlns:xlink="http://www.w3.org/1999/xlink">
<g id="graph0" class="graph" transform="scale(1 1) rotate(0) translate(4 316)">
<title>UmlClassDiagram</title>
<polygon fill="white" stroke="transparent" points="-4,4 -4,-316 916.16,-316 916.16,4 -4,4"/>
<!-- 21 -->
<g id="node1" class="node">
<title>21</title>
<polygon fill="#f2f2f2" stroke="black" points="0,-174.5 0,-216.1 234.86,-216.1 234.86,-174.5 0,-174.5"/>
<text text-anchor="middle" x="117.43" y="-199.5" font-family="Times,serif" font-size="14.00">Governable</text>
<text text-anchor="middle" x="117.43" y="-182.7" font-family="Times,serif" font-size="14.00">../contracts/governance/Governable.sol</text>
</g>
<!-- 245 -->
<g id="node2" class="node">
<title>245</title>
<polygon fill="#f2f2f2" stroke="black" points="88.3,-87.5 88.3,-129.1 262.56,-129.1 262.56,-87.5 88.3,-87.5"/>
<text text-anchor="middle" x="175.43" y="-112.5" font-family="Times,serif" font-size="14.00">OUSD</text>
<text text-anchor="middle" x="175.43" y="-95.7" font-family="Times,serif" font-size="14.00">../contracts/token/OUSD.sol</text>
</g>
<!-- 245&#45;&gt;21 -->
<g id="edge1" class="edge">
<title>245&#45;&gt;21</title>
<path fill="none" stroke="black" d="M161.68,-129.44C157.57,-135.48 152.88,-142.35 148.12,-149.32"/>
<polygon fill="none" stroke="black" points="139.31,-143.6 131.08,-174.3 156.66,-155.44 139.31,-143.6"/>
</g>
<!-- 252 -->
<g id="node3" class="node">
<title>252</title>
<polygon fill="#f2f2f2" stroke="black" points="269.93,-0.5 269.93,-42.1 486.93,-42.1 486.93,-0.5 269.93,-0.5"/>
<text text-anchor="middle" x="378.43" y="-25.5" font-family="Times,serif" font-size="14.00">WrappedOusd</text>
<text text-anchor="middle" x="378.43" y="-8.7" font-family="Times,serif" font-size="14.00">../contracts/token/WrappedOusd.sol</text>
</g>
<!-- 252&#45;&gt;21 -->
<g id="edge3" class="edge">
<title>252&#45;&gt;21</title>
<path fill="none" stroke="black" d="M269.57,-28.5C194.33,-35.32 103.58,-49.48 79.43,-78.6 62.93,-98.5 70.86,-125.79 83.65,-148.86"/>
<polygon fill="none" stroke="black" points="75.05,-154.9 100.34,-174.15 92.57,-143.33 75.05,-154.9"/>
</g>
<!-- 252&#45;&gt;245 -->
<g id="edge6" class="edge">
<title>252&#45;&gt;245</title>
<path fill="none" stroke="black" stroke-dasharray="5,2" d="M331.09,-42.12C301.57,-54.48 263.42,-70.46 232.27,-83.5"/>
<polygon fill="black" stroke="black" points="230.72,-80.36 222.84,-87.45 233.42,-86.81 230.72,-80.36"/>
</g>
<!-- 261 -->
<g id="node4" class="node">
<title>261</title>
<polygon fill="#f2f2f2" stroke="black" points="280.42,-79.1 280.42,-137.5 476.44,-137.5 476.44,-79.1 280.42,-79.1"/>
<text text-anchor="middle" x="378.43" y="-120.9" font-family="Times,serif" font-size="14.00">&lt;&lt;Abstract&gt;&gt;</text>
<text text-anchor="middle" x="378.43" y="-104.1" font-family="Times,serif" font-size="14.00">Initializable</text>
<text text-anchor="middle" x="378.43" y="-87.3" font-family="Times,serif" font-size="14.00">../contracts/utils/Initializable.sol</text>
</g>
<!-- 252&#45;&gt;261 -->
<g id="edge4" class="edge">
<title>252&#45;&gt;261</title>
<path fill="none" stroke="black" d="M378.43,-42.44C378.43,-44.49 378.43,-46.63 378.43,-48.83"/>
<polygon fill="none" stroke="black" points="367.93,-48.94 378.43,-78.94 388.93,-48.94 367.93,-48.94"/>
</g>
<!-- 1261 -->
<g id="node5" class="node">
<title>1261</title>
<polygon fill="#f2f2f2" stroke="black" points="494.09,-79.1 494.09,-137.5 890.77,-137.5 890.77,-79.1 494.09,-79.1"/>
<text text-anchor="middle" x="692.43" y="-120.9" font-family="Times,serif" font-size="14.00">&lt;&lt;Abstract&gt;&gt;</text>
<text text-anchor="middle" x="692.43" y="-104.1" font-family="Times,serif" font-size="14.00">ERC4626</text>
<text text-anchor="middle" x="692.43" y="-87.3" font-family="Times,serif" font-size="14.00">../lib/openzeppelin/contracts/token/ERC20/extensions/ERC4626.sol</text>
</g>
<!-- 252&#45;&gt;1261 -->
<g id="edge2" class="edge">
<title>252&#45;&gt;1261</title>
<path fill="none" stroke="black" d="M451.65,-42.12C483.68,-50.79 522.29,-61.24 559.12,-71.21"/>
<polygon fill="none" stroke="black" points="556.42,-81.36 588.12,-79.06 561.9,-61.09 556.42,-81.36"/>
</g>
<!-- 775 -->
<g id="node6" class="node">
<title>775</title>
<polygon fill="#f2f2f2" stroke="black" points="492.71,-174.5 492.71,-216.1 892.15,-216.1 892.15,-174.5 492.71,-174.5"/>
<text text-anchor="middle" x="692.43" y="-199.5" font-family="Times,serif" font-size="14.00">ERC20</text>
<text text-anchor="middle" x="692.43" y="-182.7" font-family="Times,serif" font-size="14.00">../node_modules/@openzeppelin/contracts/token/ERC20/ERC20.sol</text>
</g>
<!-- 252&#45;&gt;775 -->
<g id="edge5" class="edge">
<title>252&#45;&gt;775</title>
<path fill="none" stroke="black" stroke-dasharray="5,2" d="M487.13,-26.43C631.74,-33.07 872.42,-48.52 899.43,-78.6 917.07,-98.24 915.46,-117.03 899.43,-138 888.73,-152 857.67,-163.34 822.76,-172.07"/>
<polygon fill="black" stroke="black" points="821.72,-168.72 812.82,-174.47 823.36,-175.53 821.72,-168.72"/>
</g>
<!-- 1261&#45;&gt;775 -->
<g id="edge7" class="edge">
<title>1261&#45;&gt;775</title>
<path fill="none" stroke="black" d="M692.43,-137.6C692.43,-139.77 692.43,-142 692.43,-144.25"/>
<polygon fill="none" stroke="black" points="681.93,-144.44 692.43,-174.44 702.93,-144.44 681.93,-144.44"/>
</g>
<!-- 431 -->
<g id="node7" class="node">
<title>431</title>
<polygon fill="#f2f2f2" stroke="black" points="517.21,-253.1 517.21,-311.5 867.65,-311.5 867.65,-253.1 517.21,-253.1"/>
<text text-anchor="middle" x="692.43" y="-294.9" font-family="Times,serif" font-size="14.00">&lt;&lt;Abstract&gt;&gt;</text>
<text text-anchor="middle" x="692.43" y="-278.1" font-family="Times,serif" font-size="14.00">Context</text>
<text text-anchor="middle" x="692.43" y="-261.3" font-family="Times,serif" font-size="14.00">../node_modules/@openzeppelin/contracts/utils/Context.sol</text>
</g>
<!-- 775&#45;&gt;431 -->
<g id="edge8" class="edge">
<title>775&#45;&gt;431</title>
<path fill="none" stroke="black" d="M692.43,-216.44C692.43,-218.49 692.43,-220.63 692.43,-222.83"/>
<polygon fill="none" stroke="black" points="681.93,-222.94 692.43,-252.94 702.93,-222.94 681.93,-222.94"/>
</g>
</g>
</svg>
