<?xml version="1.0" encoding="UTF-8" standalone="no"?>
<!DOCTYPE svg PUBLIC "-//W3C//DTD SVG 1.1//EN"
 "http://www.w3.org/Graphics/SVG/1.1/DTD/svg11.dtd">
<!-- Generated by graphviz version 5.0.0 (20220707.1540)
 -->
<!-- Title: StorageDiagram Pages: 1 -->
<svg width="1157pt" height="306pt"
 viewBox="0.00 0.00 1157.37 306.40" xmlns="http://www.w3.org/2000/svg" xmlns:xlink="http://www.w3.org/1999/xlink">
<g id="graph0" class="graph" transform="scale(1 1) rotate(0) translate(4 302.4)">
<title>StorageDiagram</title>
<polygon fill="white" stroke="transparent" points="-4,4 -4,-302.4 1153.37,-302.4 1153.37,4 -4,4"/>
<!-- 2 -->
<g id="node1" class="node">
<title>2</title>
<polygon fill="#f2f2f2" stroke="black" points="0,-74.7 0,-297.9 828.52,-297.9 828.52,-74.7 0,-74.7"/>
<text text-anchor="middle" x="414.26" y="-281.3" font-family="Courier New" font-size="14.00">WrappedOusd &lt;&lt;Contract&gt;&gt;</text>
<polyline fill="none" stroke="black" points="0,-273.1 828.52,-273.1 "/>
<text text-anchor="middle" x="24.8" y="-256.5" font-family="Courier New" font-size="14.00">slot</text>
<polyline fill="none" stroke="black" points="0,-248.3 49.61,-248.3 "/>
<text text-anchor="middle" x="24.8" y="-231.7" font-family="Courier New" font-size="14.00">0</text>
<polyline fill="none" stroke="black" points="0,-223.5 49.61,-223.5 "/>
<text text-anchor="middle" x="24.8" y="-206.9" font-family="Courier New" font-size="14.00">1</text>
<polyline fill="none" stroke="black" points="0,-198.7 49.61,-198.7 "/>
<text text-anchor="middle" x="24.8" y="-182.1" font-family="Courier New" font-size="14.00">2</text>
<polyline fill="none" stroke="black" points="0,-173.9 49.61,-173.9 "/>
<text text-anchor="middle" x="24.8" y="-157.3" font-family="Courier New" font-size="14.00">3</text>
<polyline fill="none" stroke="black" points="0,-149.1 49.61,-149.1 "/>
<text text-anchor="middle" x="24.8" y="-132.5" font-family="Courier New" font-size="14.00">4</text>
<polyline fill="none" stroke="black" points="0,-124.3 49.61,-124.3 "/>
<text text-anchor="middle" x="24.8" y="-107.7" font-family="Courier New" font-size="14.00">5</text>
<polyline fill="none" stroke="black" points="0,-99.5 49.61,-99.5 "/>
<text text-anchor="middle" x="24.8" y="-82.9" font-family="Courier New" font-size="14.00">6&#45;55</text>
<polyline fill="none" stroke="black" points="49.61,-74.7 49.61,-273.1 "/>
<text text-anchor="middle" x="439.06" y="-256.5" font-family="Courier New" font-size="14.00">type: &lt;inherited contract&gt;.variable (bytes)</text>
<polyline fill="none" stroke="black" points="49.61,-248.3 828.52,-248.3 "/>
<text text-anchor="middle" x="439.04" y="-231.7" font-family="Courier New" font-size="14.00">mapping(address=&gt;uint256): ERC20._balances (32)</text>
<polyline fill="none" stroke="black" points="49.61,-223.5 828.52,-223.5 "/>
<text text-anchor="middle" x="439.05" y="-206.9" font-family="Courier New" font-size="14.00">mapping(address=&gt;mapping(address=&gt;uint256)): ERC20._allowances (32)</text>
<polyline fill="none" stroke="black" points="49.61,-198.7 828.52,-198.7 "/>
<text text-anchor="middle" x="439.03" y="-182.1" font-family="Courier New" font-size="14.00">uint256: ERC20._totalSupply (32)</text>
<polyline fill="none" stroke="black" points="49.61,-173.9 828.52,-173.9 "/>
<text text-anchor="middle" x="438.92" y="-157.3" font-family="Courier New" font-size="14.00">string: ERC20._name (32)</text>
<polyline fill="none" stroke="black" points="49.61,-149.1 828.52,-149.1 "/>
<text text-anchor="middle" x="438.82" y="-132.5" font-family="Courier New" font-size="14.00">string: ERC20._symbol (32)</text>
<polyline fill="none" stroke="black" points="49.61,-124.3 828.52,-124.3 "/>
<text text-anchor="middle" x="124.82" y="-107.7" font-family="Courier New" font-size="14.00">unallocated (30)</text>
<polyline fill="none" stroke="black" points="200.03,-99.5 200.03,-124.3 "/>
<text text-anchor="middle" x="359.25" y="-107.7" font-family="Courier New" font-size="14.00">bool: Initializable.initializing (1)</text>
<polyline fill="none" stroke="black" points="518.48,-99.5 518.48,-124.3 "/>
<text text-anchor="middle" x="673.5" y="-107.7" font-family="Courier New" font-size="14.00">bool: Initializable.initialized (1)</text>
<polyline fill="none" stroke="black" points="49.61,-99.5 828.52,-99.5 "/>
<text text-anchor="middle" x="438.73" y="-82.9" font-family="Courier New" font-size="14.00">uint256[50]: Initializable.______gap (1600)</text>
</g>
<!-- 1 -->
<g id="node2" class="node">
<title>1</title>
<polygon fill="#f2f2f2" stroke="black" points="864.52,-0.5 864.52,-174.1 1149.37,-174.1 1149.37,-0.5 864.52,-0.5"/>
<text text-anchor="middle" x="1006.95" y="-157.5" font-family="Courier New" font-size="14.00">uint256[50]: ______gap &lt;&lt;Array&gt;&gt;</text>
<polyline fill="none" stroke="black" points="864.52,-149.3 1149.37,-149.3 "/>
<text text-anchor="middle" x="897.83" y="-132.7" font-family="Courier New" font-size="14.00">slot</text>
<polyline fill="none" stroke="black" points="864.52,-124.5 931.13,-124.5 "/>
<text text-anchor="middle" x="897.83" y="-107.9" font-family="Courier New" font-size="14.00">6</text>
<polyline fill="none" stroke="black" points="864.52,-99.7 931.13,-99.7 "/>
<text text-anchor="middle" x="897.83" y="-83.1" font-family="Courier New" font-size="14.00">7</text>
<polyline fill="none" stroke="black" points="864.52,-74.9 931.13,-74.9 "/>
<text text-anchor="middle" x="897.83" y="-58.3" font-family="Courier New" font-size="14.00">8&#45;53</text>
<polyline fill="none" stroke="black" points="864.52,-50.1 931.13,-50.1 "/>
<text text-anchor="middle" x="897.83" y="-33.5" font-family="Courier New" font-size="14.00">54</text>
<polyline fill="none" stroke="black" points="864.52,-25.3 931.13,-25.3 "/>
<text text-anchor="middle" x="897.83" y="-8.7" font-family="Courier New" font-size="14.00">55</text>
<polyline fill="none" stroke="black" points="931.13,-0.5 931.13,-149.3 "/>
<text text-anchor="middle" x="1040.04" y="-132.7" font-family="Courier New" font-size="14.00">type: variable (bytes)</text>
<polyline fill="none" stroke="black" points="931.13,-124.5 1148.96,-124.5 "/>
<text text-anchor="middle" x="1040.04" y="-107.9" font-family="Courier New" font-size="14.00">uint256 (32)</text>
<polyline fill="none" stroke="black" points="931.13,-99.7 1148.96,-99.7 "/>
<text text-anchor="middle" x="1040.04" y="-83.1" font-family="Courier New" font-size="14.00">uint256 (32)</text>
<polyline fill="none" stroke="black" points="931.13,-74.9 1148.96,-74.9 "/>
<text text-anchor="middle" x="1039.84" y="-58.3" font-family="Courier New" font-size="14.00">&#45;&#45;&#45;&#45; (1472)</text>
<polyline fill="none" stroke="black" points="931.13,-50.1 1148.96,-50.1 "/>
<text text-anchor="middle" x="1040.04" y="-33.5" font-family="Courier New" font-size="14.00">uint256 (32)</text>
<polyline fill="none" stroke="black" points="931.13,-25.3 1148.96,-25.3 "/>
<text text-anchor="middle" x="1040.04" y="-8.7" font-family="Courier New" font-size="14.00">uint256 (32)</text>
</g>
<!-- 2&#45;&gt;1 -->
<g id="edge1" class="edge">
<title>2:13&#45;&gt;1</title>
<path fill="none" stroke="black" d="M828.52,-87.3C836.83,-87.3 845.35,-87.3 853.95,-87.3"/>
<polygon fill="black" stroke="black" points="854.07,-90.8 864.07,-87.3 854.07,-83.8 854.07,-90.8"/>
</g>
</g>
</svg>
