<svg xmlns="http://www.w3.org/2000/svg" width="74" height="87" viewBox="0 0 74 87">
    <g fill="none" fill-rule="evenodd">
        <g fill="#FAFBFC" fill-rule="nonzero" stroke="#1A82FF" stroke-width=".809">
            <g>
                <g transform="translate(-924 -6119) translate(925 6119) translate(0 1)">
                    <ellipse cx="18.049" cy="17.915" rx="17.998" ry="17.915"/>
                    <path d="M.051 21.577c0 9.938 8.014 17.915 17.998 17.915 9.984 0 17.998-7.977 17.998-17.915v3.661c0 9.939-8.014 17.916-17.998 17.916-9.984 0-17.998-7.977-17.998-17.916v-3.661z"/>
                    <path d="M.051 25.238c0 9.939 8.014 17.916 17.998 17.916 9.984 0 17.998-7.977 17.998-17.916V28.9c0 9.938-8.014 17.915-17.998 17.915C8.065 46.815.051 38.838.051 28.9v-3.662z"/>
                    <path d="M.051 28.9c0 9.938 8.014 17.915 17.998 17.915 9.984 0 17.998-7.977 17.998-17.915v3.662c0 9.938-8.014 17.915-17.998 17.915C8.065 50.477.051 42.5.051 32.562V28.9z"/>
                    <path d="M.051 32.562c0 9.938 8.014 17.915 17.998 17.915 9.984 0 17.998-7.977 17.998-17.915v3.661c0 9.939-8.014 17.915-17.998 17.915-9.984 0-17.998-7.976-17.998-17.915v-3.661z"/>
                    <path d="M.051 36.223c0 9.939 8.014 17.915 17.998 17.915 9.984 0 17.998-7.976 17.998-17.915v3.662c0 9.938-8.014 17.915-17.998 17.915C8.065 57.8.051 49.823.051 39.885v-3.662z"/>
                    <path d="M.051 39.754c0 9.938 8.014 17.915 17.998 17.915 9.984 0 17.998-7.977 17.998-17.915v3.661c0 9.939-8.014 17.916-17.998 17.916C8.065 61.33.051 53.354.051 43.415v-3.661zM.051 17.915c0 9.939 8.014 17.916 17.998 17.916 9.984 0 17.998-7.977 17.998-17.916v3.662c0 9.938-8.014 17.915-17.998 17.915-9.984 0-17.998-7.977-17.998-17.915v-3.662z"/>
                </g>
                <g transform="translate(-924 -6119) translate(925 6119) translate(35.902 .77)">
                    <ellipse cx="18.049" cy="17.962" rx="17.998" ry="17.915"/>
                    <path d="M.051 21.492c0 9.939 8.014 17.916 17.998 17.916 9.984 0 17.998-7.977 17.998-17.916v3.662c0 9.938-8.014 17.915-17.998 17.915C8.065 43.07.051 35.092.051 25.154v-3.662z"/>
                    <path d="M.051 25.154c0 9.938 8.014 17.915 17.998 17.915 9.984 0 17.998-7.977 17.998-17.915v3.661c0 9.939-8.014 17.916-17.998 17.916C8.065 46.73.051 38.754.051 28.815v-3.661z"/>
                    <path d="M.051 28.815c0 9.939 8.014 17.916 17.998 17.916 9.984 0 17.998-7.977 17.998-17.916v3.662c0 9.938-8.014 17.915-17.998 17.915-9.984 0-17.998-7.977-17.998-17.915v-3.662z"/>
                    <path d="M.051 32.477c0 9.938 8.014 17.915 17.998 17.915 9.984 0 17.998-7.977 17.998-17.915v3.661c0 9.939-8.014 17.916-17.998 17.916-9.984 0-17.998-7.977-17.998-17.916v-3.661z"/>
                    <path d="M.051 17.962c0 9.938 8.014 17.915 17.998 17.915 9.984 0 17.998-7.977 17.998-17.915v3.661c0 9.939-8.014 17.915-17.998 17.915-9.984 0-17.998-7.976-17.998-17.915v-3.661z"/>
                </g>
                <g transform="translate(-924 -6119) translate(925 6119) translate(17.902 31.77)">
                    <ellipse cx="18.049" cy="17.962" rx="17.998" ry="17.915"/>
                    <path d="M.051 21.492c0 9.939 8.014 17.916 17.998 17.916 9.984 0 17.998-7.977 17.998-17.916v3.662c0 9.938-8.014 17.915-17.998 17.915C8.065 43.07.051 35.092.051 25.154v-3.662z"/>
                    <path d="M.051 25.154c0 9.938 8.014 17.915 17.998 17.915 9.984 0 17.998-7.977 17.998-17.915v3.661c0 9.939-8.014 17.916-17.998 17.916C8.065 46.73.051 38.754.051 28.815v-3.661z"/>
                    <path d="M.051 28.815c0 9.939 8.014 17.916 17.998 17.916 9.984 0 17.998-7.977 17.998-17.916v3.662c0 9.938-8.014 17.915-17.998 17.915-9.984 0-17.998-7.977-17.998-17.915v-3.662z"/>
                    <path d="M.051 32.477c0 9.938 8.014 17.915 17.998 17.915 9.984 0 17.998-7.977 17.998-17.915v3.661c0 9.939-8.014 17.916-17.998 17.916-9.984 0-17.998-7.977-17.998-17.916v-3.661z"/>
                    <path d="M.051 17.962c0 9.938 8.014 17.915 17.998 17.915 9.984 0 17.998-7.977 17.998-17.915v3.661c0 9.939-8.014 17.915-17.998 17.915-9.984 0-17.998-7.976-17.998-17.915v-3.661z"/>
                </g>
            </g>
        </g>
    </g>
</svg>
