<svg xmlns="http://www.w3.org/2000/svg" width="489" height="292" viewBox="0 0 489 292">
    <defs>
        <linearGradient id="ld0t1r5sna" x1="50.898%" x2="41.036%" y1="79.568%" y2="-11.87%">
            <stop offset=".058%" stop-color="#FFF"/>
            <stop offset="100%" stop-color="#1E313F"/>
        </linearGradient>
        <linearGradient id="1ew347m9sb" x1="48.094%" x2="58.005%" y1="17.958%" y2="112.287%">
            <stop offset=".058%" stop-color="#FFF"/>
            <stop offset="99.67%" stop-color="#4E5A64"/>
        </linearGradient>
    </defs>
    <g fill="none" fill-rule="evenodd" transform="translate(0 1)">
        <path stroke="#00D592" d="M212.15 222.737c-7.917-3.32-15.069-7.663-21.454-13.026-14.047-12.004-23.753-28.606-27.073-47.761M231.306 227.845c-4.087-.511-7.918-1.533-12.004-2.554"/>
        <path stroke="#FEC100" d="M322.23 148.924c0 28.095-14.557 52.87-36.522 67.172M318.91 125.937c1.278 4.598 2.3 9.706 2.81 14.559"/>
        <path stroke="#7A26F3" d="M175.372 105.505c14.303-21.965 38.822-36.523 66.916-36.523 5.364 0 10.728.51 16.091 1.532"/>
        <path stroke="#FEC100" d="M348.538 209.455c-21.199 36.78-60.787 61.554-106.25 61.554M357.477 190.045c-1.532 4.341-3.32 8.683-5.363 12.77"/>
        <path stroke="#7A26F3" d="M242.288 26.584c30.65 0 59 11.493 80.454 30.138"/>
        <path stroke="#00D592" d="M129.143 102.695c12.004-29.372 34.99-52.869 63.852-65.64M126.844 108.825c-1.277 3.32-2.298 6.896-3.064 10.216H85.213M242.288 290.164c-65.384 0-120.296-44.185-136.642-104.206"/>
        <path stroke="#7A26F3" d="M375.1 198.218c-8.684 22.986-22.986 43.163-41.631 58.743"/>
        <path stroke="#FEC100" d="M286.985 14.58c41.887 14.047 74.834 46.995 89.137 88.882h47.506M401.407 151.989L448.913 151.989M458.618 151.989L470.367 151.989M477.008 151.989L488.756 151.989"/>
        <path stroke="#7A26F3" d="M380.719 119.041L427.969 119.041M438.186 119.041L460.151 119.041"/>
        <path stroke="#00D592" d="M291.837 59.276c27.84 15.325 47.506 43.42 51.848 76.367M259.145 47.783c7.407 1.277 14.559 3.32 21.455 5.874"/>
        <path stroke="#7A26F3" d="M261.955 248.533c-6.385 1.277-12.77 1.788-19.411 1.788-30.904 0-58.488-13.537-77.133-35.247M303.075 230.399c-7.151 5.108-14.813 9.45-22.986 12.77M321.72 212.776c-2.043 2.554-4.086 4.852-6.385 7.151"/>
        <circle cx="344.451" cy="148.413" r="6.641" stroke="#00D592"/>
        <circle cx="270.894" cy="74.345" r="6.641" stroke="#7A26F3"/>
        <circle cx="323.253" cy="264.879" r="6.641" stroke="#7A26F3"/>
        <circle cx="157.749" cy="205.369" r="6.641" stroke="#7A26F3"/>
        <circle cx="45.114" cy="150.456" r="6.641" stroke="#7A26F3"/>
        <circle cx="102.836" cy="173.698" r="6.641" stroke="#00D592"/>
        <circle cx="172.818" cy="73.834" r="6.641" stroke="#FEC100"/>
        <circle cx="242.288" cy="6.662" r="6.641" stroke="#7A26F3"/>
        <circle cx="436.398" cy="103.462" r="6.641" stroke="#FEC100"/>
        <path stroke="#FEC100" d="M74.741 134.877h66.406c2.554-19.411 10.727-37.29 22.731-51.593M59.417 134.877L.673 134.877"/>
        <path stroke="#7A26F3" d="M67.08 103.206h40.864c17.623-52.103 64.618-90.67 121.319-96.033M54.309 103.206L15.998 103.206"/>
        <path stroke="#00D592" d="M79.85 167.058L54.309 167.058M41.538 167.058L28.768 167.058M487.479 134.877L390.68 134.877"/>
        <path stroke="#7A26F3" d="M423.883 167.058h-40.865c-.766 6.64-2.299 13.026-3.831 19.41"/>
        <g>
            <g fill-rule="nonzero" transform="translate(180.225 78.176) translate(37.757 33.203)">
                <circle cx="24.307" cy="74.068" r="24.008" fill="#1A82FF" stroke="#FFF" stroke-width=".809" opacity=".1"/>
                <circle cx="24.307" cy="61.809" r="24.008" fill="#1A82FF" stroke="#FFF" stroke-width=".809" opacity=".3"/>
                <circle cx="24.307" cy="49.549" r="24.008" fill="#1A82FF" stroke="#FFF" stroke-width=".809" opacity=".5"/>
                <circle cx="24.307" cy="37.545" r="24.008" fill="#1A82FF" stroke="#FFF" stroke-width=".809" opacity=".7"/>
                <g transform="translate(.018 .62)">
                    <circle cx="24.46" cy="24.541" r="24.278" fill="#1E313F" transform="rotate(-.192 24.46 24.541)"/>
                    <path fill="#FFF" d="M39.644 39.623c8.328-8.388 8.287-21.918-.101-30.246-8.389-8.328-21.92-8.288-30.247.1l30.348 30.146z" opacity=".2"/>
                    <g>
                        <path fill="#FAFBFC" d="M13.43 13.087c-.242-.04-.464-.101-.686-.141-2.984-.605-5.142-1.029-5.142-3.106 0-1.29 1.27-2.319 3.549-2.319 2.037 0 3.65.827 4.698 2.38l.162.04 3.246-3.327-.02-.121c-1.29-1.533-2.924-2.601-4.8-3.166-.261-.08-.503-.141-.765-.201h-.02c-.101-.02-.182-.04-.283-.061V.121H8.933v2.944c-.141.02-.282.06-.424.08h-.02C6.392 3.65 4.557 4.74 3.126 6.413c-.605 1.009-.908 2.218-.908 3.61 0 4.759 3.59 6.271 7.098 7.118.645.161 1.29.282 1.916.383 2.198.403 4.093.746 4.093 2.722 0 1.23-1.35 2.763-4.174 2.763-1.674 0-3.045-.565-4.053-1.593-.06-.06-.141-.121-.202-.182l-3.831 2.662v.141c.544.645 1.15 1.21 1.795 1.694.221.161.443.303.665.444h.02c.222.14.464.262.686.383 0 0 .02 0 .02.02.242.12.464.222.706.323.02 0 .02 0 .04.02.242.1.484.181.726.262.02 0 .04 0 .04.02.121.04.222.06.343.1h.04c.121.041.242.061.384.102.02 0 .04 0 .06.02.1.02.222.04.323.06v2.944h4.436v-2.944c.08-.02.161-.02.242-.04h.04c.303-.06.605-.141.908-.242.14-.04.302-.1.443-.141 1.634-.605 3.065-1.613 4.235-2.984.443-.525.827-1.07 1.17-1.674.18-.645.262-1.371.262-2.138.02-5.121-3.852-6.513-7.22-7.178z" transform="translate(13.309 9.276)"/>
                        <path fill="url(#ld0t1r5sna)" d="M3.085 24.016c-.222-.262-.423-.524-.605-.807-.08-.12-.161-.242-.242-.342-.02-.02-.04-.06-.06-.081-.06-.1-.141-.222-.202-.343l-.06-.12c-.06-.102-.121-.223-.182-.323l-.06-.121c-.06-.101-.121-.222-.162-.343-.02-.04-.04-.101-.06-.141-.06-.121-.101-.222-.161-.343-.02-.04-.04-.08-.061-.141-.04-.121-.1-.242-.141-.363 0-.02-.02-.06-.02-.08-.101-.283-.202-.566-.283-.848 0-.02-.02-.04-.02-.08-.02-.101-.06-.202-.08-.303l-.06-.242c-.021-.1-.041-.181-.061-.282-.02-.08-.04-.182-.06-.262-.021-.101-.041-.182-.061-.283l-.06-.302c-.021-.08-.021-.182-.041-.262-.02-.101-.04-.202-.04-.323-.02-.08-.02-.161-.04-.262-.021-.121-.021-.222-.041-.343 0-.08-.02-.161-.02-.242 0-.141-.02-.262-.02-.403 0-.06 0-.121-.02-.202 0-.201-.02-.403-.02-.605 0-.201 0-.383.02-.584v-.182c0-.141.02-.262.02-.403 0-.06.02-.141.02-.202.02-.12.02-.262.04-.383 0-.06.02-.121.02-.182.02-.16.04-.302.06-.443 0-.04 0-.08.02-.101.021-.181.061-.363.102-.544.02-.06.02-.121.04-.162.02-.12.06-.242.08-.363.02-.06.04-.14.04-.201.021-.121.061-.222.082-.343.02-.06.04-.141.06-.202.04-.12.08-.242.1-.363.021-.06.041-.1.061-.161l.182-.484c.02-.06.04-.1.06-.161.04-.121.081-.222.142-.343.02-.06.06-.121.08-.202.04-.1.08-.181.141-.282.04-.06.06-.141.101-.202.04-.1.101-.181.141-.282.04-.06.06-.121.101-.182l.242-.423c-.181.665-.262 1.391-.262 2.158 0 2.621 1.109 4.617 3.307 5.968.121 2.36.807 4.215 1.976 5.404l-4.033 2.642z" transform="translate(13.309 9.276)"/>
                        <path fill="url(#1ew347m9sb)" d="M15.87 9.9c.685 1.03 1.129 2.32 1.29 3.872.565.263 1.049.565 1.492.908 1.634 1.27 2.46 3.125 2.46 5.485 0 .282-.02.564-.04.847v-.02c.08-.182.161-.384.222-.585.02-.06.04-.101.06-.162.04-.14.101-.282.141-.423.02-.06.04-.141.061-.202.02-.08.06-.181.08-.262.041-.121.061-.222.101-.343.02-.08.04-.181.06-.262l.061-.302c.02-.06.02-.142.04-.202.02-.141.061-.302.081-.444 0-.06.02-.12.02-.181l.061-.484c0-.04 0-.06.02-.1.02-.162.04-.303.04-.465 0-.04 0-.08.02-.12.02-.182.02-.364.041-.545v-.121c0-.182.02-.383.02-.565 0-.201 0-.403-.02-.625 0-.06 0-.12-.02-.201 0-.142-.02-.283-.02-.404 0-.08-.02-.161-.02-.242-.02-.12-.02-.242-.04-.363 0-.08-.02-.161-.041-.262-.02-.12-.02-.222-.04-.343-.02-.08-.02-.181-.04-.262-.02-.1-.041-.222-.061-.322-.02-.081-.04-.182-.06-.263l-.061-.302c-.02-.08-.04-.182-.06-.262-.02-.101-.061-.202-.081-.303-.02-.08-.04-.181-.081-.262-.02-.1-.06-.181-.08-.282-.02-.08-.061-.182-.081-.262-.04-.101-.06-.182-.101-.262-.04-.081-.06-.182-.101-.262-.04-.081-.06-.182-.1-.263-.041-.08-.081-.181-.102-.262l-.12-.242c-.041-.08-.081-.161-.122-.262l-.12-.242c-.04-.08-.081-.161-.142-.242-.04-.08-.08-.161-.14-.222-.041-.08-.102-.161-.142-.242-.04-.08-.1-.14-.141-.221-.141-.222-.303-.444-.464-.666-.121-.161-.242-.302-.363-.443L15.87 9.9z" transform="translate(13.309 9.276)"/>
                    </g>
                </g>
            </g>
            <g stroke="#FFF" stroke-width=".809">
                <path d="M55.168 16.091L62.064 9.195 55.168 2.299" transform="translate(180.225 78.176)"/>
                <path d="M62.064 9.195c-33.714 0-61.042 27.328-61.042 61.042s27.328 61.042 61.042 61.042 61.042-27.328 61.042-61.042c0-29.883-21.454-54.657-49.549-60.02" transform="translate(180.225 78.176)"/>
            </g>
        </g>
        <circle cx="162.601" cy="148.924" r="6.641" stroke="#00D592"/>
        <circle cx="274.725" cy="221.715" r="6.641" stroke="#FEC100"/>
        <path stroke="#7A26F3" d="M327.34 61.575c1.276-1.277 2.809-1.788 4.596-1.788 3.576 0 6.641 2.81 6.641 6.64 0 3.832-2.81 6.641-6.64 6.641-3.832 0-6.641-2.81-6.641-6.64 0-2.044.766-3.832 2.043-4.853"/>
        <circle cx="229.774" cy="269.987" r="6.641" stroke="#FEC100"/>
        <circle cx="205.254" cy="32.714" r="6.641" stroke="#00D592"/>
        <path stroke="#FEC100" d="M348.538 88.903c-1.533-2.81-3.065-5.363-4.853-7.917M361.564 172.932c1.532-7.917 2.554-16.09 2.554-24.519 0-19.41-4.598-37.8-12.515-53.89"/>
        <path stroke="#7A26F3" d="M182.779 254.663c5.619 3.32 11.748 5.874 17.878 8.173M174.35 249.299c-31.926-21.454-52.87-57.722-53.635-98.843H56.863"/>
        <path stroke="#00D592" d="M74.997 119.297L61.46 119.297M280.089 284.545c2.81-.766 5.619-1.532 8.173-2.554M254.293 289.142c6.896-.51 13.536-1.532 20.177-3.064M242.288 47.017c-11.237 0-22.22 1.787-32.18 5.108"/>
    </g>
</svg>
