<svg xmlns="http://www.w3.org/2000/svg" width="12" height="15" viewBox="0 0 12 15">
    <path fill="#FFF" fill-rule="evenodd" d="M7.8 12.6c0 .959-.835 1.8-1.783 1.8-.947 0-1.817-.841-1.817-1.8h3.6zM6 .6c.331 0 .6.27.6.6 0 .331-.269.6-.6.6-.331 0-.6-.269-.6-.6 0-.33.269-.6.6-.6zm1.882 1.767c-.386-.224-.625-.642-.624-1.092v-.002C7.258.57 6.695 0 6 0c-.695 0-1.258.57-1.258 1.273v.002c0 .45-.238.868-.625 1.092-2.8 1.627-1.19 7.029-4.117 7.984V11.4h12v-1.05c-2.926-.954-1.317-6.356-4.118-7.983z"/>
</svg>
