<svg xmlns="http://www.w3.org/2000/svg" width="18" height="21" viewBox="0 0 18 21">
    <g fill="none" fill-rule="evenodd">
        <g fill="#BBC9DA" fill-rule="nonzero">
            <path d="M561.402 123.452c.499 0 .931-.176 1.298-.528.367-.352.55-.777.55-1.276v-14.696c0-.499-.183-.924-.55-1.276-.367-.352-.8-.528-1.298-.528h-3.828c-.19-.543-.517-.986-.979-1.331-.462-.345-.994-.517-1.595-.517s-1.133.172-1.595.517c-.462.345-.788.788-.979 1.331h-3.828c-.499 0-.931.176-1.298.528-.367.352-.55.777-.55 1.276v14.696c0 .499.183.924.55 1.276.367.352.8.528 1.298.528h12.804zm-6.402-16.5c-.25 0-.462-.088-.638-.264-.176-.176-.264-.389-.264-.638 0-.25.088-.462.264-.638.176-.176.389-.264.638-.264.25 0 .462.088.638.264.176.176.264.389.264.638 0 .25-.088.462-.264.638-.176.176-.389.264-.638.264zm6.402 14.696h-12.804v-14.696h1.804v2.75h9.196v-2.75h1.804v14.696z" transform="translate(-546 -103)"/>
        </g>
    </g>
</svg>
