<svg xmlns="http://www.w3.org/2000/svg" width="718" height="494" viewBox="0 0 718 494">
    <g fill="none" fill-rule="evenodd">
        <g>
            <g>
                <text fill="#FAFBFC" font-family="Lato-Regular, Lato" font-size="12" opacity=".8" transform="translate(-339 -2820) translate(326 2816)">
                    <tspan x="12.948" y="250">$20K</tspan>
                </text>
                <text fill="#FAFBFC" font-family="Lato-Regular, Lato" font-size="12" opacity=".8" transform="translate(-339 -2820) translate(326 2816)">
                    <tspan x="12.948" y="182">$30K</tspan>
                </text>
                <text fill="#FAFBFC" font-family="Lato-Regular, Lato" font-size="12" opacity=".8" transform="translate(-339 -2820) translate(326 2816)">
                    <tspan x="12.948" y="314">$10K</tspan>
                </text>
                <text fill="#FAFBFC" font-family="Lato-Regular, Lato" font-size="12" opacity=".8" transform="translate(-339 -2820) translate(326 2816)">
                    <tspan x="28.08" y="380">$0</tspan>
                </text>
                <text fill="#FAFBFC" font-family="Lato-Regular, Lato" font-size="12" opacity=".8" transform="translate(-339 -2820) translate(326 2816)">
                    <tspan x="12.948" y="119">$40K</tspan>
                </text>
                <text fill="#FAFBFC" font-family="Lato-Regular, Lato" font-size="12" opacity=".8" transform="translate(-339 -2820) translate(326 2816)">
                    <tspan x="50" y="414">0</tspan>
                </text>
                <text fill="#FAFBFC" font-family="Lato-Regular, Lato" font-size="12" opacity=".8" transform="translate(-339 -2820) translate(326 2816)">
                    <tspan x="323" y="414">10</tspan>
                </text>
                <text fill="#FAFBFC" font-family="Lato-Regular, Lato" font-size="12" opacity=".8" transform="translate(-339 -2820) translate(326 2816)">
                    <tspan x="461" y="414">15</tspan>
                </text>
                <text fill="#FAFBFC" font-family="Lato-Regular, Lato" font-size="12" opacity=".8" transform="translate(-339 -2820) translate(326 2816)">
                    <tspan x="189" y="414">5</tspan>
                </text>
                <text fill="#FAFBFC" font-family="Lato-Regular, Lato" font-size="12" opacity=".8" transform="translate(-339 -2820) translate(326 2816)">
                    <tspan x="600" y="414">20</tspan>
                </text>
                <path stroke="#FFF" stroke-width=".5" d="M731 377L55 377" transform="translate(-339 -2820) translate(326 2816)"/>
                <g>
                    <path stroke="#00D592" d="M0 196L669 188.425" transform="translate(-339 -2820) translate(326 2816) translate(61 113)"/>
                    <path stroke="#9348FF" d="M0 196L669 180.85" transform="translate(-339 -2820) translate(326 2816) translate(61 113)"/>
                    <path stroke="#FEC100" d="M0 196c34.367-1.058 625.562-31.086 669-35.98" transform="translate(-339 -2820) translate(326 2816) translate(61 113)"/>
                    <path stroke="#1A82FF" d="M0 196c59.79-3.8 484.175-46.415 670-81.43" transform="translate(-339 -2820) translate(326 2816) translate(61 113)"/>
                    <path stroke="#FFF" d="M0 195.053C188.649 173.108 498.996 94.187 670 0" transform="translate(-339 -2820) translate(326 2816) translate(61 113)"/>
                </g>
                <g>
                    <text fill="#FAFBFC" font-family="Lato-Regular, Lato" font-size="16" transform="translate(-339 -2820) translate(326 2816) translate(58 465)">
                        <tspan x="36" y="16">$40K</tspan>
                    </text>
                    <text fill="#FAFBFC" font-family="Lato-Regular, Lato" font-size="12" opacity=".8" transform="translate(-339 -2820) translate(326 2816) translate(58 465)">
                        <tspan x="36" y="32">100% APY</tspan>
                    </text>
                    <text fill="#FAFBFC" font-family="Lato-Regular, Lato" font-size="16" transform="translate(-339 -2820) translate(326 2816) translate(58 465)">
                        <tspan x="176" y="16">$22.5K</tspan>
                    </text>
                    <text fill="#FAFBFC" font-family="Lato-Regular, Lato" font-size="16" transform="translate(-339 -2820) translate(326 2816) translate(58 465)">
                        <tspan x="320" y="16">$15.6K</tspan>
                    </text>
                    <text fill="#FAFBFC" font-family="Lato-Regular, Lato" font-size="16" transform="translate(-339 -2820) translate(326 2816) translate(58 465)">
                        <tspan x="463" y="16">$12.1K</tspan>
                    </text>
                    <text fill="#FAFBFC" font-family="Lato-Regular, Lato" font-size="16" transform="translate(-339 -2820) translate(326 2816) translate(58 465)">
                        <tspan x="612" y="16">$11K</tspan>
                    </text>
                    <text fill="#FAFBFC" font-family="Lato-Regular, Lato" font-size="12" opacity=".8" transform="translate(-339 -2820) translate(326 2816) translate(58 465)">
                        <tspan x="176" y="32">50% APY</tspan>
                    </text>
                    <text fill="#FAFBFC" font-family="Lato-Regular, Lato" font-size="12" opacity=".8" transform="translate(-339 -2820) translate(326 2816) translate(58 465)">
                        <tspan x="320" y="32">25% APY</tspan>
                    </text>
                    <text fill="#FAFBFC" font-family="Lato-Regular, Lato" font-size="12" opacity=".8" transform="translate(-339 -2820) translate(326 2816) translate(58 465)">
                        <tspan x="463" y="32">10% APY</tspan>
                    </text>
                    <text fill="#FAFBFC" font-family="Lato-Regular, Lato" font-size="12" opacity=".8" transform="translate(-339 -2820) translate(326 2816) translate(58 465)">
                        <tspan x="612" y="32">5% APY</tspan>
                    </text>
                    <path stroke="#FFF" d="M25.303 10L0 10" transform="translate(-339 -2820) translate(326 2816) translate(58 465)"/>
                    <path stroke="#1A82FF" d="M165.303 10L140 10" transform="translate(-339 -2820) translate(326 2816) translate(58 465)"/>
                    <path stroke="#FEC100" d="M309.303 10L284 10" transform="translate(-339 -2820) translate(326 2816) translate(58 465)"/>
                    <path stroke="#9348FF" d="M452.303 10L427 10" transform="translate(-339 -2820) translate(326 2816) translate(58 465)"/>
                    <path stroke="#00D592" d="M601.303 10L576 10" transform="translate(-339 -2820) translate(326 2816) translate(58 465)"/>
                </g>
                <path stroke="#FAFBFC" stroke-width=".5" d="M731 244L55 244M731 177L55 177" opacity=".3" transform="translate(-339 -2820) translate(326 2816)"/>
                <text fill="#FAFBFC" font-family="Lato-Regular, Lato" font-size="12" opacity=".8" transform="translate(-339 -2820) translate(326 2816)">
                    <tspan x="12.948" y="54">$50K</tspan>
                </text>
                <path stroke="#FAFBFC" stroke-width=".5" d="M731 112L55 112M731 49L55 49M731 309L55 309" opacity=".3" transform="translate(-339 -2820) translate(326 2816)"/>
            </g>
        </g>
    </g>
</svg>
