<svg width="170" height="30" viewBox="0 0 170 30" fill="none" xmlns="http://www.w3.org/2000/svg">
<path d="M98.7552 28.0646L88.7388 2.20752H94.9044L102.244 22.462L109.502 2.20752H115.489L105.391 28.0646H98.7552Z" fill="#3A3A3A"/>
<path d="M44.0436 1.62695C51.8479 1.62695 57.4835 7.1113 57.4835 15.1658C57.4835 23.2202 51.8479 28.6454 44.0436 28.6454C36.2392 28.6454 30.6577 23.1611 30.6577 15.1658C30.6577 7.17045 36.2771 1.62695 44.0436 1.62695ZM44.0436 6.58437C39.7168 6.58437 36.5258 9.91262 36.5258 15.1873C36.5258 20.4619 39.6952 23.7095 44.0436 23.7095C48.5055 23.7095 51.6153 20.3813 51.6153 15.1873C51.6153 9.99327 48.5055 6.58437 44.0436 6.58437Z" fill="#3A3A3A"/>
<path d="M62.2378 3.8422C66.0432 2.41781 70.0704 1.66803 74.1363 1.62695C80.7724 1.62695 84.9964 4.13255 84.9964 11.4289V28.0647H79.2689V11.9343C79.2689 8.17053 76.9162 6.85321 73.6874 6.85321C71.782 6.84134 69.8846 7.09841 68.0518 7.61672V28.0486H62.2378V3.8422Z" fill="#3A3A3A"/>
<path d="M160.373 14.757L170 28.0646H163.375L156.966 19.0154L150.568 28.0646H144.229L153.856 14.8161L144.813 2.20752H151.509L157.258 10.4878L162.893 2.20752H169.47L160.373 14.757Z" fill="#3A3A3A"/>
<path d="M131.492 23.688C127.441 23.688 123.45 21.177 123.098 16.5637V16.4508H141.2V13.5312C141.2 6.47146 137.62 1.62695 130.048 1.62695C122.887 1.62695 117.49 7.1113 117.49 15.3432C117.49 23.5751 123.006 28.6454 131.108 28.6454C134.451 28.6454 137.917 27.8873 140.265 26.2528L136.836 22.8546C135.115 23.4313 133.308 23.7131 131.492 23.688ZM129.87 6.48222C133.623 6.48222 135.619 8.69746 135.738 12.7247H123.298C124.034 8.805 126.5 6.47146 129.843 6.47146L129.87 6.48222Z" fill="#3A3A3A"/>
<path d="M25.8712 12.1633V6.2174H22.8789V3.24445H16.8981V0.271484H10.9178V3.24445H4.93752V6.2174H1.94531V24.054H4.93575V27.0269H10.916V29.9999H16.8963V27.0269H22.8789V24.054H25.8712V18.1087H19.8885V21.0816H16.8981V24.0546H10.9178V21.0816H7.92737V9.19037H10.9178V6.2174H16.8981V9.19037H19.8885V12.1633H25.8712Z" fill="#3A3A3A"/>
<rect x="14.9546" y="6.06934" width="2.08279" height="3.12179" fill="#1682FE"/>
<rect x="8.9707" y="0.271484" width="2.08279" height="3.12179" fill="#1682FE"/>
<rect x="2.99121" y="3.24414" width="2.08279" height="3.12179" fill="#60D8A4"/>
<rect y="15.1361" width="2.10383" height="8.91772" fill="#F4BB3B"/>
<rect y="6.21802" width="2.10383" height="8.91772" fill="#60D8A4"/>
<rect x="17.9438" y="9.04053" width="2.08279" height="3.12179" fill="#1682FE"/>
<rect x="17.9424" y="18.1099" width="2.08279" height="3.12179" fill="#FF5A5A"/>
<rect x="14.9536" y="21.0825" width="2.08279" height="3.12179" fill="#FF5A5A"/>
<rect x="8.97168" y="26.8779" width="2.08279" height="3.12179" fill="#FF5A5A"/>
<rect x="2.99121" y="23.9058" width="2.08279" height="3.12179" fill="#F4BB3B"/>
<path d="M25.8712 12.1633V6.2174H22.8789V3.24445H16.8981V0.271484H10.9178V3.24445H4.93752V6.2174H1.94531V24.054H4.93575V27.0269H10.916V29.9999H16.8963V27.0269H22.8789V24.054H25.8712V18.1087H19.8885V21.0816H16.8981V24.0546H10.9178V21.0816H7.92737V9.19037H10.9178V6.2174H16.8981V9.19037H19.8885V12.1633H25.8712Z" fill="#3A3A3A"/>
</svg>
