<svg width="1072" height="1599" viewBox="0 0 1072 1599" fill="none" xmlns="http://www.w3.org/2000/svg">
<path d="M374.658 897.404C167.854 1255.96 505.811 1598.95 505.811 1598.95L505.821 1599C392.742 1572.22 97.168 1451.28 21.3489 1079.84C-67.4037 645.555 160.168 466.578 160.168 466.578C167.623 635.597 287.593 630.271 299.84 530.531C329.482 409.395 267.231 128.698 499.805 16.6024C513.798 9.88101 416.98 173.922 534.964 192.228C580.339 199.305 603.087 124.358 626.967 75.1502C723.028 -138.243 695.561 -338 695.561 -338C935.142 -81.9114 887.336 263.868 871.242 331.239C862.797 375.54 905.696 427.509 951.121 389.364C969.267 379.363 974.197 274.249 1036.21 207.017C1096.67 136.273 1167.81 130.352 1167.81 130.352C1055.35 411.334 1203.54 585.54 1274.52 978.405C1345.52 1371.28 868.457 1598.97 868.457 1598.97C1082.98 1215.43 933.965 1011.03 764.204 842.649C594.443 674.271 652.091 478.402 652.091 478.402C333.555 710.033 623.681 975.772 545.904 1096.43C523.577 1132.24 363.708 1151.11 374.658 897.404Z" fill="url(#paint0_linear_105_709)"/>
<defs>
<linearGradient id="paint0_linear_105_709" x1="-57.417" y1="794.012" x2="1574.51" y2="815.887" gradientUnits="userSpaceOnUse">
<stop stop-color="#FEDBA820"/>
<stop offset="0.878478" stop-color="#CF75D520"/>
</linearGradient>
</defs>
</svg>
