<svg xmlns="http://www.w3.org/2000/svg" width="31" height="30" viewBox="0 0 31 30">
    <path fill="#BDCBD5" fill-rule="evenodd" d="M24.498 18.608c-.144 3.18-1.915 4.943-5.09 5.09-.933.042-1.232.052-3.608.052-2.376 0-2.674-.01-3.608-.052-3.18-.147-4.943-1.912-5.09-5.09-.042-.933-.052-1.232-.052-3.608 0-2.376.01-2.674.052-3.608.147-3.18 1.912-4.943 5.09-5.088.934-.044 1.232-.054 3.608-.054 2.376 0 2.675.01 3.609.054 3.181.146 4.946 1.915 5.089 5.088.042.934.052 1.232.052 3.608 0 2.376-.01 2.675-.052 3.608M15.8 0C7.516 0 .8 6.716.8 15c0 8.284 6.716 15 15 15 8.284 0 15-6.716 15-15 0-8.284-6.716-15-15-15m2.916 15c0 1.611-1.306 2.916-2.916 2.916-1.61 0-2.916-1.305-2.916-2.916s1.306-2.916 2.916-2.916c1.61 0 2.916 1.305 2.916 2.916m1.755-3.62c-.58 0-1.05-.47-1.05-1.05 0-.58.47-1.05 1.05-1.05.58 0 1.05.47 1.05 1.05 0 .579-.47 1.05-1.05 1.05M15.8 19.494c-2.481 0-4.494-2.011-4.494-4.494 0-2.481 2.013-4.492 4.494-4.492s4.494 2.01 4.494 4.492c0 2.481-2.013 4.494-4.494 4.494m3.536-11.617c-.922-.042-1.2-.05-3.536-.05-2.336 0-2.613.01-3.535.05-2.374.11-3.479 1.233-3.587 3.588-.042.923-.052 1.199-.052 3.535 0 2.336.01 2.612.052 3.536.108 2.349 1.208 3.479 3.587 3.588.921.041 1.199.051 3.535.051 2.337 0 2.614-.009 3.536-.051 2.374-.108 3.478-1.235 3.588-3.588.041-.922.05-1.2.05-3.536 0-2.336-.009-2.612-.05-3.535-.11-2.354-1.216-3.479-3.588-3.588"/>
</svg>
