<svg xmlns="http://www.w3.org/2000/svg" width="12" height="12" viewBox="0 0 12 12">
    <g fill="none" fill-rule="evenodd">
        <g fill="#8293A4" fill-rule="nonzero">
            <g>
                <g>
                    <g>
                        <path d="M236.362 11.564l5.712-5.712v2.072h1.176V3.85h-4.074v1.176h2.072l-5.712 5.712.826.826zm5.712 2.786c.317 0 .593-.117.826-.35.233-.233.35-.509.35-.826V9.1h-1.176v4.074h-8.148V5.026H238V3.85h-4.074c-.327 0-.604.117-.833.35-.229.233-.343.509-.343.826v8.148c0 .317.114.593.343.826.229.233.506.35.833.35h8.148z" transform="translate(-679 -178) translate(250 175) translate(197)"/>
                    </g>
                </g>
            </g>
        </g>
    </g>
</svg>
