<svg xmlns="http://www.w3.org/2000/svg" width="21" height="22" viewBox="0 0 21 22">
    <defs>
        <linearGradient id="a" x1="50%" x2="50%" y1="0%" y2="100%">
            <stop offset="0%" stop-color="#809BFF"/>
            <stop offset="100%" stop-color="#4962FF"/>
        </linearGradient>
    </defs>
    <g fill="none" fill-rule="evenodd" transform="translate(.5 1)">
        <circle cx="10" cy="10" r="10" fill="url(#a)" stroke="#FFF"/>
        <path fill="#FFF" d="M14.377 6.943l-1.734 1.852c.07.367.105.77.105 1.205 0 2.343-1.03 3.741-2.756 3.741-.72 0-1.326-.246-1.784-.714l6.006-6.416a5.036 5.036 0 0 0-.822-1.16l-.037-.038c-.028-.03-.054-.06-.083-.088l-.001.002C12.399 4.458 11.278 4 9.992 4 8.507 4 7.24 4.61 6.33 5.762 5.472 6.846 5 8.352 5 10c0 1.096.21 2.127.6 3.014l1.744-1.862A6.812 6.812 0 0 1 7.252 10c0-1.078.206-1.95.61-2.59.476-.753 1.213-1.15 2.13-1.15.715 0 1.31.24 1.762.688L5.76 13.35a5.498 5.498 0 0 0 .7 1.046l.002.001c.051.06.104.118.157.175l.02.021.051.054.002-.002c.873.888 2.002 1.355 3.3 1.355 1.486 0 2.756-.61 3.671-1.762C14.525 13.153 15 11.648 15 10c0-1.112-.217-2.16-.623-3.057"/>
    </g>
</svg>
