<svg xmlns="http://www.w3.org/2000/svg" width="86" height="85" viewBox="0 0 86 85">
    <g fill="none" fill-rule="evenodd">
        <circle cx="43.049" cy="42.683" r="41.822" stroke="#FAFBFC" stroke-width=".5"/>
        <path fill="#FAFBFC" fill-rule="nonzero" d="M61.718 30.786l-7.321 7.321c.275 1.465.458 3.02.458 4.76 0 9.334-4.393 14.825-11.714 14.825-3.02 0-5.674-1.007-7.596-2.837l25.533-25.533c-.641-1.19-1.465-2.38-2.38-3.386-.366-.458-.732-.824-1.19-1.19l-.183-.183-.366-.366c-3.66-3.478-8.419-5.308-13.91-5.308-6.314 0-11.714 2.38-15.557 7.047-3.661 4.301-5.674 10.25-5.674 16.839 0 4.392.915 8.419 2.562 11.988l7.413-7.413c-.275-1.372-.366-2.928-.366-4.575 0-4.302.915-7.78 2.562-10.342 2.013-3.02 5.125-4.575 9.06-4.575 3.02 0 5.583.915 7.504 2.745l-25.44 25.441c.731 1.281 1.463 2.471 2.379 3.57.183.182.366.457.549.64.183.274.457.458.64.732l.092.092.183.183c3.66 3.569 8.51 5.399 14.002 5.399 6.314 0 11.714-2.38 15.557-7.047 3.66-4.3 5.674-10.34 5.674-16.838.183-4.302-.732-8.42-2.47-11.989z"/>
    </g>
</svg>
