<svg xmlns="http://www.w3.org/2000/svg" width="118" height="119" viewBox="0 0 118 119">
    <g fill="none" fill-rule="evenodd">
        <g>
            <g>
                <g>
                    <g>
                        <path fill="#0075EA" d="M0 59.479C0 26.629 26.406 0 58.979 0s58.979 26.63 58.979 59.479c0 32.849-26.406 59.478-58.98 59.478C26.407 118.957 0 92.327 0 59.48" transform="translate(-290 -244) translate(250 205) translate(-213 -216) translate(253 255.043)"/>
                        <path fill="#1A82FF" d="M6 59.957c0-29.271 23.505-53 52.5-53s52.5 23.729 52.5 53-23.505 53-52.5 53S6 89.228 6 59.957" transform="translate(-290 -244) translate(250 205) translate(-213 -216) translate(253 255.043)"/>
                        <path fill="#FAFBFC" d="M82.634 43.919l-9.361 9.413c.372 1.866.565 3.913.565 6.126 0 11.907-5.562 19.016-14.88 19.016-3.885 0-7.164-1.25-9.637-3.63L81.756 42.23c-.868-1.547-1.86-2.994-2.975-4.316-.468-.555-.961-1.075-1.464-1.579l.003-.003c-.066-.067-.136-.129-.202-.195-.15-.146-.295-.3-.447-.442l-.008.008c-4.709-4.417-10.765-6.746-17.704-6.746-8.02 0-14.861 3.098-19.782 8.958C34.549 43.426 32 51.077 32 59.458c0 5.568 1.131 10.81 3.244 15.32l9.412-9.464c-.327-1.792-.494-3.746-.494-5.856 0-5.48 1.11-9.912 3.298-13.172 2.566-3.823 6.543-5.844 11.499-5.844 3.858 0 7.07 1.223 9.512 3.498L36.102 76.486c.89 1.624 1.917 3.136 3.075 4.514.231.276.471.539.712.802h-.001l.007.008c.277.304.561.598.85.886l.108.11c.092.09.18.187.274.276l.01-.01c4.713 4.508 10.813 6.885 17.822 6.885 8.025 0 14.88-3.097 19.822-8.956C83.436 75.482 86 67.83 86 59.458c0-5.656-1.173-10.978-3.366-15.539" transform="translate(-290 -244) translate(250 205) translate(-213 -216) translate(253 255.043)"/>
                    </g>
                </g>
            </g>
        </g>
    </g>
</svg>
