<svg xmlns="http://www.w3.org/2000/svg" width="20" height="20" viewBox="0 0 20 20">
    <path fill="#BBC9DA" fill-rule="evenodd" d="M11.634 10.268c-.753.813-.789 1.262-.779 1.815h-1.67c-.007-1.228.016-1.77 1.192-2.89.477-.453.854-.812.801-1.517-.047-.671-.608-1.022-1.137-1.022-.591 0-1.282.44-1.282 1.678H7.084c0-2 1.174-3.292 2.992-3.292.863 0 1.618.282 2.125.796.475.482.72 1.143.712 1.915-.014 1.152-.715 1.909-1.279 2.517M10 15.208c-.575 0-1.042-.465-1.042-1.041 0-.575.467-1.042 1.042-1.042.576 0 1.042.467 1.042 1.042 0 .576-.466 1.041-1.042 1.041M10 0C4.477 0 0 4.477 0 10c0 5.522 4.477 10 10 10s10-4.478 10-10c0-5.523-4.477-10-10-10"/>
</svg>
