<svg xmlns="http://www.w3.org/2000/svg" width="78" height="84" viewBox="0 0 78 84">
    <g fill="none" fill-rule="evenodd" stroke="#1A82FF" stroke-width=".809" transform="translate(1 1)">
        <ellipse cx="38.132" cy="43.91" fill="#FFF" fill-rule="nonzero" rx="26.044" ry="26.055"/>
        <path d="M38.132 69.965S23.325 61.368 23.325 43.91s14.807-26.055 14.807-26.055M38.132 69.965S52.94 61.368 52.94 43.91 38.132 17.855 38.132 17.855"/>
        <path d="M21.342 24.071c4.495 3.835 10.444 6.216 16.79 6.216 6.478 0 12.295-2.38 16.79-6.216M54.922 63.748c-4.495-3.835-10.444-6.216-16.79-6.216-6.478 0-12.295 2.38-16.79 6.216M64.176 43.91L12.088 43.91"/>
        <path d="M24.25 8.597C10.106 14.152.19 27.907.19 43.91c0 21.029 17.054 37.958 37.942 37.958S76.075 64.806 76.075 43.91c0-16.136-10.048-29.758-24.061-35.313"/>
        <path d="M38.132.132c3.173 0 5.817 2.645 5.817 5.82 0 3.174-2.644 5.819-5.817 5.819s-5.817-2.645-5.817-5.82c0-3.306 2.512-5.819 5.817-5.819M20.946 16.532L24.251 8.597 16.319 5.158M38.132 17.855L38.132 69.965"/>
    </g>
</svg>
