<svg xmlns="http://www.w3.org/2000/svg" width="482" height="350" viewBox="0 0 482 350">
    <defs>
        <linearGradient id="ecizo6bx3a" x1="50.898%" x2="41.036%" y1="79.568%" y2="-11.87%">
            <stop offset=".058%" stop-color="#FFF"/>
            <stop offset="100%" stop-color="#1E313F"/>
        </linearGradient>
        <linearGradient id="57t3henz3b" x1="48.094%" x2="58.005%" y1="17.958%" y2="112.287%">
            <stop offset=".058%" stop-color="#FFF"/>
            <stop offset="99.67%" stop-color="#4E5A64"/>
        </linearGradient>
    </defs>
    <g fill="none" fill-rule="evenodd">
        <g fill-rule="nonzero">
            <g stroke="#1E313F" stroke-width=".5">
                <path fill="#FAFBFC" d="M226.191 100.002c8.237 4.751 8.237 12.513 0 17.265l-82.736 47.783c-8.236 4.752-21.647 4.752-29.884 0L6.547 103.222c-8.237-4.752-8.237-12.513 0-17.265l82.736-47.783c8.237-4.752 21.648-4.752 29.885 0l107.023 61.828z" opacity=".3" transform="translate(1) translate(248.156 30.431)"/>
                <path fill="#FAFBFC" d="M226.191 106.865c8.237 4.752 8.237 12.514 0 17.266l-82.736 47.783c-8.236 4.752-21.647 4.752-29.884 0L6.547 110.086c-8.237-4.752-8.237-12.513 0-17.265l82.736-47.783c8.237-4.752 21.648-4.752 29.885 0l107.023 61.827z" opacity=".1" transform="translate(1) translate(248.156 30.431)"/>
                <path fill="#FAFBFC" d="M226.191 92.874c8.237 4.752 8.237 12.513 0 17.265l-82.683 47.73c-8.237 4.752-21.648 4.752-29.884 0L6.547 96.042c-8.237-4.752-8.237-12.514 0-17.266l82.736-47.783c8.237-4.752 21.648-4.752 29.885 0l107.023 61.88z" opacity=".5" transform="translate(1) translate(248.156 30.431)"/>
                <path fill="#FAFBFC" d="M226.191 85.693c8.237 4.752 8.237 12.513 0 17.265l-82.736 47.783c-8.236 4.752-21.647 4.752-29.884 0L6.547 88.914c-8.237-4.752-8.237-12.514 0-17.266l82.736-47.783c8.237-4.752 21.648-4.752 29.885 0L226.19 85.693z" opacity=".7" transform="translate(1) translate(248.156 30.431)"/>
                <path fill="#F7F8F9" d="M226.191 82.895l-82.736 47.783c-4.118 2.376-9.504 3.537-14.942 3.537-5.438 0-10.824-1.161-14.942-3.537L6.547 68.85C2.534 66.527.528 63.517.422 60.455v12.408c.106 3.062 2.165 6.072 6.125 8.395l107.077 61.828c4.118 2.376 9.504 3.537 14.942 3.537 5.438 0 10.824-1.161 14.942-3.537l82.736-47.784c4.224-2.428 6.283-5.65 6.125-8.87V74.024c.106 3.221-1.954 6.442-6.178 8.87z" transform="translate(1) translate(248.156 30.431)"/>
                <path fill="#FFF" d="M226.191 65.63c8.237 4.751 8.237 12.513 0 17.265l-82.736 47.783c-8.236 4.752-21.647 4.752-29.884 0L6.547 68.85c-8.237-4.752-8.237-12.513 0-17.265L89.283 3.802c8.237-4.752 21.648-4.752 29.885 0L226.19 65.629z" transform="translate(1) translate(248.156 30.431)"/>
                <path fill="#FAFBFC" d="M119.801 115.366c-2.481-1.425-3.749-3.326-3.749-5.227 0-1.9 1.268-3.802 3.802-5.28 5.016-2.904 13.2-2.904 18.216-.053 2.481 1.426 3.748 3.327 3.748 5.227 0 1.901-1.267 3.802-3.801 5.28-5.069 2.904-13.2 2.904-18.216.053z" transform="translate(1) translate(248.156 30.431)"/>
            </g>
            <g fill="#1E313F">
                <path d="M2.376 1.478C3.59.792 4.805.317 5.914.211 7.075.053 8.13.264 9.187.898c1.056.58 1.426 1.214 1.162 1.9-.264.634-1.004 1.32-2.218 2.06-1.214.686-2.429 1.161-3.537 1.267-1.11.105-2.218-.053-3.274-.687-1.056-.58-1.426-1.214-1.162-1.9.212-.687 1.004-1.373 2.218-2.06zm4.488 2.588c.897-.528 1.425-.95 1.69-1.373.263-.423.052-.792-.581-1.162-.634-.37-1.32-.475-2.007-.317-.686.159-1.478.476-2.376 1.004-.897.528-1.478.95-1.742 1.372-.264.423-.053.792.58 1.162.634.37 1.32.475 2.007.317.74-.159 1.531-.528 2.429-1.003zM9.134 9.873L9.768 7.761 6.336 8.237 4.91 7.445 10.085 6.811 10.982 3.96 12.408 4.805 11.774 6.864 15.153 6.389 16.526 7.181 11.457 7.761 10.56 10.718zM13.781 10.982L12.408 11.774 10.982 10.929 12.355 10.137zM15.893 12.197L14.52 12.989 13.094 12.144 14.467 11.352zM18.005 13.411L16.632 14.203 15.206 13.358 16.579 12.566zM21.436 12.46c1.215-.686 2.43-1.161 3.538-1.267 1.162-.158 2.218.053 3.274.687 1.056.633 1.425 1.214 1.161 1.9-.264.634-1.003 1.32-2.217 2.06-1.215.686-2.43 1.161-3.538 1.267-1.109.106-2.218-.053-3.274-.686-1.056-.634-1.425-1.215-1.161-1.901.264-.634 1.003-1.32 2.217-2.06zm4.488 2.588c.898-.528 1.426-.95 1.69-1.373.264-.422.053-.792-.58-1.162-.634-.37-1.32-.475-2.007-.316-.687.158-1.479.475-2.376 1.003-.898.528-1.479.95-1.743 1.373-.264.422-.052.792.581 1.161.634.37 1.32.475 2.007.317.739-.158 1.53-.475 2.428-1.003zM28.3 16.42c1.215-.686 2.43-1.161 3.538-1.267 1.161-.158 2.217.053 3.273.687 1.056.633 1.426 1.214 1.162 1.9-.264.634-1.003 1.32-2.218 2.06-1.214.686-2.428 1.161-3.537 1.267-1.162.158-2.218-.053-3.274-.687-1.056-.633-1.425-1.214-1.161-1.9.264-.634 1.003-1.32 2.217-2.06zm4.488 2.588c.898-.528 1.426-.95 1.69-1.373.264-.422.053-.792-.581-1.162-.634-.37-1.32-.475-2.006-.316-.687.158-1.479.475-2.376 1.003-.898.528-1.479.95-1.743 1.372-.264.423-.052.792.581 1.162.634.37 1.32.475 2.006.317.74-.159 1.532-.475 2.43-1.003zM35.217 20.433c1.214-.686 2.429-1.161 3.538-1.267 1.161-.158 2.217.053 3.273.686 1.056.634 1.426 1.215 1.162 1.901-.264.634-1.004 1.32-2.218 2.06-1.214.686-2.429 1.161-3.537 1.267-1.162.158-2.218-.053-3.274-.687-1.056-.633-1.426-1.214-1.162-1.9.212-.687.95-1.373 2.218-2.06zm4.488 2.587c.898-.528 1.426-.95 1.69-1.372.264-.423.052-.792-.581-1.162-.634-.37-1.32-.475-2.007-.317-.686.159-1.478.475-2.376 1.003-.897.528-1.478.95-1.742 1.373-.264.423-.053.792.58 1.162.634.37 1.32.475 2.007.317.74-.159 1.531-.528 2.429-1.004zM44.298 22.598L45.46 21.912 47.942 23.337 40.18 27.825 38.86 27.086 45.46 23.284z" transform="translate(1) translate(248.156 30.431) translate(24.816 55.967)"/>
            </g>
        </g>
        <g stroke="#1E313F" stroke-width=".5">
            <path d="M45.302 49.631L0.317 49.737 0.475 23.76" transform="translate(1) translate(247.1 186.717)"/>
            <path d="M20.75 12.038L20.592 38.015 65.577 37.91" transform="translate(1) translate(247.1 186.717)"/>
            <path d="M40.972 0.37L40.867 26.294 85.851 26.241" transform="translate(1) translate(247.1 186.717)"/>
        </g>
        <g stroke="#1A82FF" stroke-width=".5">
            <path d="M40.972 0.158L85.904 0.053 85.799 26.03" transform="translate(1) translate(164.205 155.037)"/>
            <path d="M65.524 37.699L65.682 11.774 20.697 11.827" transform="translate(1) translate(164.205 155.037)"/>
            <path d="M45.249 49.42L45.407 23.443 0.422 23.548" transform="translate(1) translate(164.205 155.037)"/>
        </g>
        <g fill-rule="nonzero" transform="translate(1) translate(320)">
            <circle cx="49.919" cy="50.084" r="49.548" fill="#1E313F" transform="rotate(-.192 49.919 50.084)"/>
            <path fill="#FFF" d="M80.905 80.864c16.996-17.12 16.914-44.732-.205-61.728C63.58 2.14 35.967 2.222 18.97 19.342l61.934 61.522z" opacity=".2"/>
            <g>
                <path fill="#FAFBFC" d="M27.407 26.708c-.493-.082-.946-.206-1.399-.288-6.09-1.235-10.494-2.099-10.494-6.338 0-2.633 2.593-4.732 7.243-4.732 4.157 0 7.449 1.687 9.589 4.856l.329.082 6.625-6.79-.04-.247c-2.634-3.128-5.968-5.309-9.795-6.46-.535-.165-1.029-.289-1.564-.412h-.04c-.207-.042-.371-.083-.577-.124V.247H18.23v6.008c-.288.041-.576.124-.864.165h-.04C13.045 7.449 9.3 9.67 6.378 13.086c-1.235 2.058-1.852 4.527-1.852 7.367 0 9.712 7.325 12.798 14.485 14.526 1.317.33 2.634.577 3.91.782 4.485.823 8.354 1.523 8.354 5.556 0 2.51-2.757 5.638-8.519 5.638-3.415 0-6.214-1.153-8.271-3.251-.124-.124-.288-.247-.412-.37l-7.819 5.431v.288c1.111 1.317 2.346 2.47 3.663 3.457.452.33.905.618 1.358.906h.04c.454.288.947.535 1.4.782 0 0 .041 0 .041.04.494.248.947.453 1.44.66.042 0 .042 0 .083.04.494.206.987.37 1.481.535.041 0 .083 0 .083.041.247.083.452.124.7.206h.082c.246.082.493.124.781.206.042 0 .083 0 .124.041.206.041.453.082.658.124v6.008h9.054V56.09c.164-.042.329-.042.494-.083h.082c.617-.123 1.234-.288 1.852-.494.288-.082.617-.205.905-.288 3.333-1.234 6.255-3.292 8.642-6.09.905-1.07 1.687-2.181 2.387-3.416.37-1.317.535-2.798.535-4.362.041-10.453-7.86-13.292-14.733-14.65z" transform="translate(27.16 18.93)"/>
                <path fill="url(#ecizo6bx3a)" d="M6.296 49.012c-.452-.535-.864-1.07-1.234-1.646-.165-.247-.33-.494-.494-.7-.041-.04-.082-.123-.124-.164-.123-.206-.288-.453-.411-.7l-.124-.246c-.123-.206-.246-.453-.37-.659l-.123-.247c-.124-.206-.247-.452-.33-.7-.04-.082-.082-.205-.123-.287-.123-.247-.206-.453-.33-.7-.04-.082-.082-.165-.123-.288-.082-.247-.205-.494-.288-.74 0-.042-.04-.124-.04-.165-.207-.577-.412-1.153-.577-1.729 0-.041-.041-.082-.041-.164-.041-.206-.124-.412-.165-.618l-.123-.494c-.041-.205-.083-.37-.124-.576-.04-.164-.082-.37-.123-.535-.041-.205-.082-.37-.124-.576-.04-.206-.082-.411-.123-.617-.041-.165-.041-.37-.082-.535-.042-.206-.083-.412-.083-.659-.04-.164-.04-.329-.082-.534-.041-.247-.041-.453-.082-.7 0-.165-.041-.33-.041-.494 0-.288-.042-.535-.042-.823 0-.123 0-.247-.04-.411 0-.412-.042-.824-.042-1.235 0-.412 0-.782.041-1.193v-.37c0-.289.041-.536.041-.824 0-.123.042-.288.042-.411.04-.247.04-.535.082-.782 0-.124.041-.247.041-.37.041-.33.082-.618.123-.906 0-.082 0-.165.042-.206.04-.37.123-.74.205-1.11.042-.124.042-.248.083-.33.04-.247.123-.494.164-.74.041-.124.083-.289.083-.412.04-.247.123-.453.164-.7.041-.123.082-.288.124-.411.082-.247.164-.494.205-.741.042-.124.083-.206.124-.33l.37-.987c.041-.124.083-.206.124-.33.082-.246.164-.452.288-.699.04-.123.123-.247.164-.411.083-.206.165-.37.288-.577.083-.123.124-.288.206-.411.082-.206.206-.37.288-.576.083-.124.124-.247.206-.37l.494-.865c-.37 1.358-.535 2.84-.535 4.404 0 5.35 2.263 9.423 6.749 12.18.247 4.815 1.646 8.601 4.033 11.03l-8.23 5.39z" transform="translate(27.16 18.93)"/>
                <path fill="url(#57t3henz3b)" d="M32.387 20.206c1.399 2.099 2.304 4.732 2.634 7.901 1.152.535 2.14 1.152 3.045 1.852 3.333 2.592 5.02 6.378 5.02 11.193 0 .576-.04 1.153-.082 1.729v-.041c.165-.37.33-.782.453-1.194.04-.123.082-.206.123-.33.083-.287.206-.575.288-.863.041-.124.083-.288.124-.412.04-.164.123-.37.164-.535.083-.247.124-.453.206-.7.041-.164.082-.37.124-.534l.123-.618c.041-.123.041-.288.082-.411.042-.288.124-.617.165-.906 0-.123.041-.246.041-.37l.124-.988c0-.082 0-.123.04-.205.042-.33.083-.618.083-.947 0-.082 0-.164.041-.247.041-.37.041-.74.082-1.11v-.248c0-.37.042-.782.042-1.152 0-.412 0-.823-.042-1.276 0-.123 0-.247-.04-.411 0-.288-.042-.576-.042-.823 0-.165-.041-.33-.041-.494-.041-.247-.041-.494-.082-.74 0-.166-.041-.33-.083-.536-.04-.247-.04-.453-.082-.7-.041-.164-.041-.37-.082-.534-.041-.206-.082-.453-.124-.659-.04-.164-.082-.37-.123-.535l-.124-.617c-.04-.165-.082-.37-.123-.535-.041-.206-.123-.412-.165-.617-.04-.165-.082-.37-.164-.535-.041-.206-.124-.37-.165-.577-.041-.164-.123-.37-.164-.534-.083-.206-.124-.37-.206-.535-.083-.165-.124-.37-.206-.535-.082-.165-.123-.37-.206-.535-.082-.165-.164-.37-.205-.535l-.247-.494c-.083-.165-.165-.33-.247-.535l-.247-.494c-.083-.165-.165-.33-.288-.494-.083-.164-.165-.33-.288-.453-.083-.164-.206-.329-.288-.493-.083-.165-.206-.288-.288-.453-.289-.453-.618-.905-.947-1.358-.247-.33-.494-.617-.74-.905l-6.873 7.078z" transform="translate(27.16 18.93)"/>
            </g>
        </g>
        <g fill-rule="nonzero">
            <g stroke="#1A82FF" stroke-width=".5">
                <path fill="#FAFBFC" d="M225.927 100.107c8.237 4.752 8.237 12.514 0 17.265l-82.736 47.784c-8.236 4.752-21.647 4.752-29.884 0L6.23 103.328c-8.236-4.752-8.236-12.514 0-17.265l82.737-47.784c8.236-4.752 21.647-4.752 29.884 0l107.076 61.828z" opacity=".3" transform="translate(1) translate(0 174.045)"/>
                <path fill="#FAFBFC" d="M225.927 106.971c8.237 4.752 8.237 12.513 0 17.265l-82.736 47.784c-8.236 4.751-21.647 4.751-29.884 0L6.23 110.192c-8.236-4.752-8.236-12.514 0-17.266l82.737-47.783c8.236-4.752 21.647-4.752 29.884 0l107.076 61.828z" opacity=".1" transform="translate(1) translate(0 174.045)"/>
                <path fill="#FAFBFC" d="M225.927 92.98c8.237 4.751 8.237 12.513 0 17.265l-82.736 47.783c-8.236 4.752-21.647 4.752-29.884 0L6.23 96.148c-8.236-4.753-8.236-12.514 0-17.266l82.737-47.73c8.236-4.752 21.647-4.752 29.884 0l107.076 61.827z" opacity=".5" transform="translate(1) translate(0 174.045)"/>
                <path fill="#FAFBFC" d="M225.927 85.799c8.237 4.751 8.237 12.513 0 17.265l-82.736 47.783c-8.236 4.752-21.647 4.752-29.884 0L6.23 89.02c-8.236-4.752-8.236-12.513 0-17.265l82.737-47.783c8.236-4.752 21.647-4.752 29.884 0l107.076 61.828z" opacity=".7" transform="translate(1) translate(0 174.045)"/>
                <path fill="#F7F8F9" d="M225.927 83l-82.736 47.783c-4.118 2.376-9.504 3.538-14.942 3.538-5.438 0-10.824-1.162-14.942-3.538L6.23 68.956C2.218 66.632.211 63.623.106 60.56v12.407C.21 76.031 2.27 79.04 6.23 81.363l107.077 61.828c4.118 2.376 9.504 3.538 14.942 3.538 5.438 0 10.824-1.162 14.942-3.538l82.736-47.783c4.224-2.429 6.284-5.65 6.125-8.87V74.13c.106 3.22-1.9 6.441-6.125 8.87z" transform="translate(1) translate(0 174.045)"/>
                <path fill="#FFF" d="M225.927 65.735c8.237 4.752 8.237 12.513 0 17.265l-82.736 47.783c-8.236 4.752-21.647 4.752-29.884 0L6.23 68.956c-8.236-4.752-8.236-12.514 0-17.266L88.967 3.907c8.236-4.752 21.647-4.752 29.884 0l107.076 61.828z" transform="translate(1) translate(0 174.045)"/>
                <path fill="#FAFBFC" d="M119.484 115.472c-2.481-1.426-3.748-3.327-3.748-5.227 0-1.901 1.267-3.802 3.801-5.28 5.016-2.904 13.2-2.904 18.216-.053 2.481 1.425 3.749 3.326 3.749 5.227 0 1.9-1.268 3.802-3.802 5.28-5.069 2.904-13.2 2.904-18.216.053z" transform="translate(1) translate(0 174.045)"/>
            </g>
            <g fill="#1A82FF">
                <path d="M2.587 1.584C3.802.898 5.016.422 6.125.317c1.161-.159 2.217.053 3.273.686 1.056.634 1.426 1.215 1.162 1.901-.264.634-1.003 1.32-2.218 2.06-1.214.686-2.428 1.16-3.537 1.266-1.162.159-2.218-.053-3.274-.686C.475 4.91.106 4.33.37 3.644c.264-.687 1.003-1.374 2.217-2.06zm4.488 2.587c.898-.528 1.426-.95 1.69-1.373.264-.422.052-.792-.581-1.161-.634-.37-1.32-.475-2.007-.317-.686.158-1.478.475-2.375 1.003-.898.528-1.479.95-1.743 1.373-.264.422-.053.792.581 1.162.634.37 1.32.475 2.006.316.74-.158 1.531-.528 2.43-1.003zM9.345 9.979L9.979 7.867 6.547 8.342 5.122 7.55 10.296 6.917 11.193 4.066 12.619 4.91 11.985 6.969 15.365 6.494 16.737 7.286 11.669 7.867 10.771 10.824zM13.992 11.088L12.619 11.88 11.193 11.035 12.566 10.243zM16.104 12.302L14.731 13.094 13.305 12.249 14.678 11.457zM18.216 13.517L16.843 14.309 15.417 13.464 16.79 12.672zM21.648 12.566c1.214-.686 2.428-1.161 3.537-1.267 1.162-.158 2.218.053 3.274.686 1.056.634 1.425 1.215 1.161 1.901-.264.634-1.003 1.32-2.217 2.06-1.215.686-2.429 1.16-3.538 1.267-1.161.158-2.217-.053-3.273-.687-1.056-.633-1.426-1.214-1.162-1.9.264-.634 1.003-1.32 2.218-2.06zm4.488 2.587c.897-.528 1.425-.95 1.69-1.372.263-.423.052-.792-.582-1.162-.633-.37-1.32-.475-2.006-.317-.686.159-1.478.475-2.376 1.003-.898.528-1.478.95-1.742 1.373-.264.423-.053.792.58 1.162.634.37 1.32.475 2.007.317.739-.159 1.531-.476 2.429-1.004zM28.564 16.526c1.215-.686 2.43-1.161 3.538-1.267 1.161-.158 2.217.053 3.273.686 1.056.634 1.426 1.215 1.162 1.901-.264.634-1.003 1.32-2.218 2.06-1.214.686-2.428 1.16-3.537 1.266-1.162.159-2.218-.052-3.274-.686s-1.425-1.214-1.161-1.9c.211-.634.95-1.32 2.217-2.06zM33 19.113c.898-.528 1.426-.95 1.69-1.372.264-.423.053-.792-.58-1.162-.634-.37-1.32-.475-2.007-.317-.687.159-1.479.475-2.376 1.003-.898.528-1.478.95-1.742 1.373-.264.422-.053.792.58 1.162.634.37 1.32.475 2.007.316.792-.158 1.584-.475 2.428-1.003zM35.428 20.539c1.215-.687 2.429-1.162 3.538-1.267 1.161-.159 2.217.052 3.273.686s1.426 1.214 1.162 1.9c-.264.634-1.003 1.32-2.218 2.06-1.214.686-2.428 1.162-3.537 1.267-1.162.159-2.218-.053-3.274-.686-1.056-.634-1.425-1.215-1.161-1.901.21-.686.95-1.373 2.217-2.06zm4.488 2.587c.898-.528 1.426-.95 1.69-1.373.264-.422.053-.792-.581-1.161-.634-.37-1.32-.476-2.006-.317-.687.158-1.479.475-2.376 1.003-.898.528-1.479.95-1.743 1.373-.264.422-.053.792.581 1.161.634.37 1.32.476 2.006.317.74-.158 1.532-.528 2.43-1.003zM44.457 26.4c1.478-.053 2.587-.264 3.22-.634.37-.211.634-.475.634-.74.053-.263-.158-.474-.58-.738-.476-.264-.951-.37-1.426-.317-.528.053-1.056.211-1.637.475l-1.214-.686c.95-.476 1.9-.74 2.85-.687.951 0 1.849.264 2.588.687.74.422 1.162.897 1.162 1.372.052.476-.317.898-1.004 1.32-.58.317-1.32.528-2.217.687-.95.105-1.9.158-2.904.158-1.003-.053-2.006-.105-2.904-.211l3.696 2.112-1.003.58-5.386-3.114.898-.528c2.006.21 3.748.316 5.227.264z" transform="translate(1) translate(0 174.045) translate(24.288 55.967)"/>
            </g>
        </g>
        <g fill-rule="nonzero" transform="translate(1) translate(72 146)">
            <circle cx="49.919" cy="50.084" r="49.548" fill="#1E313F" transform="rotate(-.192 49.919 50.084)"/>
            <path fill="#FFF" d="M80.905 80.864c16.996-17.12 16.914-44.732-.205-61.728C63.58 2.14 35.967 2.222 18.97 19.342l61.934 61.522z" opacity=".2"/>
            <g>
                <path fill="#FAFBFC" d="M27.407 26.708c-.493-.082-.946-.206-1.399-.288-6.09-1.235-10.494-2.099-10.494-6.338 0-2.633 2.593-4.732 7.243-4.732 4.157 0 7.449 1.687 9.589 4.856l.329.082 6.625-6.79-.04-.247c-2.634-3.128-5.968-5.309-9.795-6.46-.535-.165-1.029-.289-1.564-.412h-.04c-.207-.042-.371-.083-.577-.124V.247H18.23v6.008c-.288.041-.576.124-.864.165h-.04C13.045 7.449 9.3 9.67 6.378 13.086c-1.235 2.058-1.852 4.527-1.852 7.367 0 9.712 7.325 12.798 14.485 14.526 1.317.33 2.634.577 3.91.782 4.485.823 8.354 1.523 8.354 5.556 0 2.51-2.757 5.638-8.519 5.638-3.415 0-6.214-1.153-8.271-3.251-.124-.124-.288-.247-.412-.37l-7.819 5.431v.288c1.111 1.317 2.346 2.47 3.663 3.457.452.33.905.618 1.358.906h.04c.454.288.947.535 1.4.782 0 0 .041 0 .041.04.494.248.947.453 1.44.66.042 0 .042 0 .083.04.494.206.987.37 1.481.535.041 0 .083 0 .083.041.247.083.452.124.7.206h.082c.246.082.493.124.781.206.042 0 .083 0 .124.041.206.041.453.082.658.124v6.008h9.054V56.09c.164-.042.329-.042.494-.083h.082c.617-.123 1.234-.288 1.852-.494.288-.082.617-.205.905-.288 3.333-1.234 6.255-3.292 8.642-6.09.905-1.07 1.687-2.181 2.387-3.416.37-1.317.535-2.798.535-4.362.041-10.453-7.86-13.292-14.733-14.65z" transform="translate(27.16 18.93)"/>
                <path fill="url(#ecizo6bx3a)" d="M6.296 49.012c-.452-.535-.864-1.07-1.234-1.646-.165-.247-.33-.494-.494-.7-.041-.04-.082-.123-.124-.164-.123-.206-.288-.453-.411-.7l-.124-.246c-.123-.206-.246-.453-.37-.659l-.123-.247c-.124-.206-.247-.452-.33-.7-.04-.082-.082-.205-.123-.287-.123-.247-.206-.453-.33-.7-.04-.082-.082-.165-.123-.288-.082-.247-.205-.494-.288-.74 0-.042-.04-.124-.04-.165-.207-.577-.412-1.153-.577-1.729 0-.041-.041-.082-.041-.164-.041-.206-.124-.412-.165-.618l-.123-.494c-.041-.205-.083-.37-.124-.576-.04-.164-.082-.37-.123-.535-.041-.205-.082-.37-.124-.576-.04-.206-.082-.411-.123-.617-.041-.165-.041-.37-.082-.535-.042-.206-.083-.412-.083-.659-.04-.164-.04-.329-.082-.534-.041-.247-.041-.453-.082-.7 0-.165-.041-.33-.041-.494 0-.288-.042-.535-.042-.823 0-.123 0-.247-.04-.411 0-.412-.042-.824-.042-1.235 0-.412 0-.782.041-1.193v-.37c0-.289.041-.536.041-.824 0-.123.042-.288.042-.411.04-.247.04-.535.082-.782 0-.124.041-.247.041-.37.041-.33.082-.618.123-.906 0-.082 0-.165.042-.206.04-.37.123-.74.205-1.11.042-.124.042-.248.083-.33.04-.247.123-.494.164-.74.041-.124.083-.289.083-.412.04-.247.123-.453.164-.7.041-.123.082-.288.124-.411.082-.247.164-.494.205-.741.042-.124.083-.206.124-.33l.37-.987c.041-.124.083-.206.124-.33.082-.246.164-.452.288-.699.04-.123.123-.247.164-.411.083-.206.165-.37.288-.577.083-.123.124-.288.206-.411.082-.206.206-.37.288-.576.083-.124.124-.247.206-.37l.494-.865c-.37 1.358-.535 2.84-.535 4.404 0 5.35 2.263 9.423 6.749 12.18.247 4.815 1.646 8.601 4.033 11.03l-8.23 5.39z" transform="translate(27.16 18.93)"/>
                <path fill="url(#57t3henz3b)" d="M32.387 20.206c1.399 2.099 2.304 4.732 2.634 7.901 1.152.535 2.14 1.152 3.045 1.852 3.333 2.592 5.02 6.378 5.02 11.193 0 .576-.04 1.153-.082 1.729v-.041c.165-.37.33-.782.453-1.194.04-.123.082-.206.123-.33.083-.287.206-.575.288-.863.041-.124.083-.288.124-.412.04-.164.123-.37.164-.535.083-.247.124-.453.206-.7.041-.164.082-.37.124-.534l.123-.618c.041-.123.041-.288.082-.411.042-.288.124-.617.165-.906 0-.123.041-.246.041-.37l.124-.988c0-.082 0-.123.04-.205.042-.33.083-.618.083-.947 0-.082 0-.164.041-.247.041-.37.041-.74.082-1.11v-.248c0-.37.042-.782.042-1.152 0-.412 0-.823-.042-1.276 0-.123 0-.247-.04-.411 0-.288-.042-.576-.042-.823 0-.165-.041-.33-.041-.494-.041-.247-.041-.494-.082-.74 0-.166-.041-.33-.083-.536-.04-.247-.04-.453-.082-.7-.041-.164-.041-.37-.082-.534-.041-.206-.082-.453-.124-.659-.04-.164-.082-.37-.123-.535l-.124-.617c-.04-.165-.082-.37-.123-.535-.041-.206-.123-.412-.165-.617-.04-.165-.082-.37-.164-.535-.041-.206-.124-.37-.165-.577-.041-.164-.123-.37-.164-.534-.083-.206-.124-.37-.206-.535-.083-.165-.124-.37-.206-.535-.082-.165-.123-.37-.206-.535-.082-.165-.164-.37-.205-.535l-.247-.494c-.083-.165-.165-.33-.247-.535l-.247-.494c-.083-.165-.165-.33-.288-.494-.083-.164-.165-.33-.288-.453-.083-.164-.206-.329-.288-.493-.083-.165-.206-.288-.288-.453-.289-.453-.618-.905-.947-1.358-.247-.33-.494-.617-.74-.905l-6.873 7.078z" transform="translate(27.16 18.93)"/>
            </g>
        </g>
    </g>
</svg>
