<?xml version="1.0" encoding="utf-8"?>
<!-- Generator: Adobe Illustrator 21.1.0, SVG Export Plug-In . SVG Version: 6.00 Build 0)  -->
<svg version="1.1" id="Layer_1" xmlns="http://www.w3.org/2000/svg" xmlns:xlink="http://www.w3.org/1999/xlink" x="0px" y="0px"
	 viewBox="0 0 609 109" style="enable-background:new 0 0 609 109;" xml:space="preserve">
<style type="text/css">
	.st0{fill:#FFFFFF;}
</style>
<path class="st0" d="M238.3,38.1c0.8,0,1.6,0.2,2.3,0.5c0.7,0.3,1.4,0.8,2,1.3c1.1,1.2,1.8,2.7,1.8,4.4V80h-15.1v-7.7
	c-3.7,5.4-12.2,8.6-19,8.5c-4.8,0.1-9.5-0.9-13.9-2.8c-4.4-1.9-8.3-4.7-11.6-8.2c-6.7-7.1-10.4-16.6-10.4-26.4
	c0-9.8,3.7-19.2,10.4-26.4c3.2-3.5,7.2-6.3,11.5-8.2c4.4-1.9,9.1-2.8,13.9-2.8c7-0.1,13.9,2.1,19.6,6.3c1.4,1,2.7,2.1,3.9,3.3
	c1.9,1.8,3.6,3.8,5,6c2.1,3.2,3.7,6.8,4.5,10.6h-15.5l-0.8-1.3c-1.5-2.6-3.5-4.8-5.9-6.6c-3.2-2.2-6.9-3.4-10.8-3.3
	c-2.8-0.1-5.6,0.5-8.1,1.6c-2.6,1.1-4.9,2.8-6.8,4.9c-3.9,4.5-6,10.1-6,16c0,5.9,2.1,11.6,6,16.1c1.9,2.1,4.2,3.7,6.8,4.8
	c2.6,1.1,5.3,1.6,8.1,1.6c4.6,0,9.1-1.7,12.5-4.8c3-2.7,5.1-4.9,5.9-9.3L207.7,52l-0.2-13.9H238.3z"/>
<path class="st0" d="M75,33.8c0.6,2.3,0.9,4.7,1.1,7.1c0.5,7.6-1.2,15.1-5,21.7c-5.7,9.9-16.4,16.9-27.8,18
	c-2.9,0.3-5.8,0.1-8.7-0.4c-4.6-0.8-8.9-2.5-12.8-4.9c-1.9-1.2-3.7-2.7-5.4-4.3c-0.6-0.6-1.1-1.1-1.7-1.7c-0.7-0.7-1.4-1.5-2.1-2.4
	c-0.3-0.4-0.6-0.8-0.9-1.3c-0.3-0.4-0.6-0.8-0.8-1.2l40.2-40.8l-0.5-0.3c-0.2-0.1-0.4-0.2-0.5-0.3c-5.6-3-12.9-3-18.5,0
	c-2.8,1.5-5.2,3.5-7.1,6.1c-1.9,2.5-3.2,5.4-3.9,8.5c-0.8,3.4-0.9,6.9-0.3,10.4c0,0.1,0,0.1,0,0.2c0,0.1,0,0.1,0,0.2L8.8,60.1
	c-0.1-0.2-0.1-0.3-0.2-0.5C6.4,54.9,5.2,49.7,5,44.5C4.9,39.3,5.8,34,7.7,29.2c0.3-0.8,0.7-1.6,1.1-2.4c3.9-8.1,11-15.2,19.5-18.5
	c7.2-2.7,15-3,22.4-0.8c7.4,2.2,13.8,6.8,18.2,13v0c0.1,0.1,0.2,0.2,0.2,0.3c0.2,0.3,0.5,0.7,0.7,1l0.3,0.5l-40,40.8
	c4.6,2.9,10.7,3.5,15.9,2.1c0.7-0.2,1.4-0.5,2.1-0.7l0.4-0.2c6.9-3,11.6-9.7,12.6-17.1c0.3-1.7,0.3-3.5,0.2-5.2
	c0-0.5-0.4-3.3-0.4-3.3l11.7-11.9c0.3,0.7,0.7,1.4,1,2.2c0,0,0.4,1.3,0.6,1.9c0,0.1,0.1,0.2,0.1,0.3C74.6,32,74.8,32.9,75,33.8z"/>
<path class="st0" d="M141.6,31.3c0.1,4.6-1.2,9-3.7,12.9c-2.5,3.9-6,6.9-10.2,8.8l16.8,27.1h-17.1l-15.2-24.8h-11.7v24.8H85V10.1
	c0-0.4,0.1-0.9,0.3-1.3C85.4,8.3,85.7,8,86,7.6s0.7-0.6,1.1-0.7c0.4-0.2,0.9-0.3,1.3-0.3h28.3c3.3-0.1,6.5,0.5,9.5,1.7
	c4.6,1.8,8.5,5,11.2,9.1C140.2,21.6,141.6,26.4,141.6,31.3z M123.6,38.3c1-0.9,1.8-2.1,2.3-3.3c0.5-1.3,0.8-2.6,0.7-4
	c0-1.3-0.2-2.6-0.6-3.9c-0.5-1.2-1.2-2.4-2.1-3.3c-0.9-0.9-2-1.7-3.2-2.2c-1.2-0.5-2.5-0.7-3.9-0.6h-16.3v20.1h15.6
	c1.4,0.1,2.8-0.2,4.1-0.7C121.4,40,122.6,39.3,123.6,38.3L123.6,38.3z"/>
<path class="st0" d="M150.4,6.6h15.2v73.5h-15.2V6.6z"/>
<path class="st0" d="M254.2,6.6h15.2v73.5h-15.2V6.6z"/>
<path class="st0" d="M328.2,6.7h0.9l0,0h14.3v65.1c0,2.2-0.8,4.3-2.3,5.9c-0.7,0.8-1.6,1.4-2.6,1.8c-1,0.4-2,0.6-3.1,0.7h-7.6
	c-1.5,0-3-0.5-4.2-1.3c-1.3-0.8-2.3-2-2.9-3.4l-26.3-48.6v53.3h-15.3V15c0-2.2,0.8-4.3,2.3-5.9c1.4-1.5,3.3-2.4,5.4-2.5h8.2
	c1.5,0,3,0.4,4.2,1.3c1.3,0.8,2.3,2,2.9,3.4l26,47.6V6.7z"/>
<path class="st0" d="M396.2,6.2c-16.9,0-25.1,9.8-25.1,21.2c0,13.9,10.7,17.5,23.7,20.7c11.1,2.6,17.4,4.6,17.4,11.8
	c0,7.6-6.1,10.7-14.5,10.7c-9.1,0-16-4.9-16.5-12.7l-11.7,0.7c0.5,14.1,12.3,22,28.3,22c14.4,0,26.2-6.5,26.2-21.4
	c0-12.8-9.6-17.2-24.9-20.8c-10.5-2.4-16.1-4.1-16.1-11.3c0-6.2,4.7-10.9,13.5-10.9c8.2,0,13.5,4.5,13.9,11.7l11.7-0.7
	C421.5,14,411.1,6.2,396.2,6.2z"/>
<path class="st0" d="M455.4,70.7c-4.5,0-8.3-2-8.3-8.5l0.1-22.8h12.7V30h-12.6l0.1-16.9h-11L436.3,30h-9.2v9.4h9.2l-0.1,25
	c-0.1,11.2,6.7,16.1,16.5,16.1c3.5,0,5.4-0.3,7.3-0.6v-9.7C458.9,70.4,457.4,70.7,455.4,70.7z"/>
<path class="st0" d="M490.9,29.1c-14.9,0-26,10-26,25.8c0,15.7,11.2,25.8,26,25.8c14.8,0,25.9-10.1,25.9-25.8
	C516.8,39.1,505.7,29.1,490.9,29.1z M490.9,38.4c8.5,0,15,6.1,15,16.5c0,10.3-6.4,16.4-15,16.4c-8.6,0-15-6.1-15-16.4
	C475.9,44.5,482.3,38.4,490.9,38.4z"/>
<path class="st0" d="M549.2,29.4c-8,0-11.5,3.7-13.3,7.6v-7h-10.6v49.7h10.9v-27c0-7.3,7.9-12.7,16.4-12.7L549.2,29.4z"/>
<path class="st0" d="M605.5,30h-12.1L580,64l-13.4-34h-12.1l19.7,46.2l-12.2,28.2h11.9L605.5,30z"/>
</svg>
