<?xml version="1.0" encoding="utf-8"?>
<!-- Generator: Adobe Illustrator 21.1.0, SVG Export Plug-In . SVG Version: 6.00 Build 0)  -->
<svg version="1.1" id="Layer_1" xmlns="http://www.w3.org/2000/svg" xmlns:xlink="http://www.w3.org/1999/xlink" x="0px" y="0px"
	 viewBox="0 0 24 24" style="enable-background:new 0 0 24 24;" xml:space="preserve">
<path d="M21.9,13.7l2,0.2c-0.1,0.9-0.4,1.7-0.7,2.5l-1.8-0.9C21.6,14.8,21.8,14.3,21.9,13.7z M19.3,21.5l-1.4-1.4
	c-0.5,0.4-1,0.7-1.6,0.9l0.7,1.9C17.8,22.5,18.6,22.1,19.3,21.5z M20.5,17.2c-0.3,0.5-0.7,1.1-1.1,1.5l1.4,1.4
	c0.6-0.6,1.1-1.3,1.5-2.1C22.3,18.1,20.5,17.2,20.5,17.2z M0,12c0,6.6,5.4,12,12,12c1.1,0,2.1-0.2,3.1-0.4l-0.7-1.9
	C13.7,21.9,12.9,22,12,22C6.5,22,2,17.5,2,12S6.5,2,12,2c2.2,0,4.3,0.7,6,2l-2.1,2l7,1.4l-1.4-7l-2.2,2.2C17.4,1,14.8,0,12,0
	C5.4,0,0,5.4,0,12z M23.8,9.6h-2.1c0.2,0.7,0.3,1.3,0.3,2l2,0.2C24,11.1,23.9,10.4,23.8,9.6z M6.1,13.7v-1.3l3.1-4.2h1.3v4.3h0.9
	v1.2h-0.9v1.6H9.1v-1.6H6.1z M9,10l-1.8,2.5h1.9L9,10L9,10z M12.2,9.2c0.1-0.2,0.3-0.4,0.6-0.6c0.2-0.2,0.5-0.3,0.8-0.4
	c0.3-0.1,0.6-0.1,0.9-0.1c0.4,0,0.8,0.1,1.1,0.2c0.3,0.1,0.6,0.3,0.7,0.5c0.2,0.2,0.3,0.4,0.4,0.6c0.1,0.2,0.1,0.4,0.1,0.6
	c0,0.4-0.1,0.7-0.3,0.9c-0.2,0.3-0.4,0.5-0.8,0.6v0c0.4,0.1,0.8,0.3,1,0.6c0.2,0.3,0.3,0.7,0.3,1.1c0,0.4-0.1,0.7-0.2,1
	c-0.2,0.3-0.4,0.5-0.6,0.7c-0.3,0.2-0.5,0.3-0.9,0.4c-0.3,0.1-0.6,0.1-1,0.1c-0.3,0-0.7,0-1-0.1c-0.3-0.1-0.6-0.2-0.9-0.4
	c-0.3-0.2-0.5-0.4-0.6-0.7c-0.2-0.3-0.2-0.6-0.2-1c0-0.5,0.1-0.8,0.4-1.1c0.2-0.3,0.6-0.5,1-0.6v0c-0.3-0.1-0.6-0.3-0.8-0.5
	C12.1,10.7,12,10.4,12,10C12,9.7,12.1,9.4,12.2,9.2z M13.2,13.7c0.1,0.1,0.2,0.3,0.3,0.4c0.1,0.1,0.2,0.2,0.4,0.2
	c0.2,0.1,0.3,0.1,0.5,0.1c0.2,0,0.3,0,0.5-0.1s0.3-0.1,0.4-0.2c0.1-0.1,0.2-0.2,0.3-0.4c0.1-0.1,0.1-0.3,0.1-0.5
	c0-0.2,0-0.3-0.1-0.5c-0.1-0.1-0.2-0.3-0.3-0.4c-0.1-0.1-0.2-0.2-0.4-0.2c-0.1-0.1-0.3-0.1-0.5-0.1c-0.4,0-0.7,0.1-0.9,0.3
	c-0.2,0.2-0.4,0.5-0.4,0.8C13.1,13.4,13.2,13.6,13.2,13.7z M13.6,10.9c0.2,0.2,0.5,0.2,0.8,0.2c0.3,0,0.6-0.1,0.8-0.2
	c0.2-0.2,0.3-0.4,0.3-0.7c0-0.1,0-0.2,0-0.3c0-0.1-0.1-0.2-0.2-0.3c-0.1-0.1-0.2-0.2-0.3-0.3c-0.1-0.1-0.3-0.1-0.5-0.1
	c-0.1,0-0.3,0-0.4,0.1c-0.1,0-0.2,0.1-0.4,0.2c-0.1,0.1-0.2,0.2-0.2,0.3c-0.1,0.1-0.1,0.3-0.1,0.4C13.3,10.5,13.4,10.7,13.6,10.9z"
	/>
</svg>
