<svg xmlns="http://www.w3.org/2000/svg" width="30" height="31" viewBox="0 0 30 31">
    <path fill="#BDCBD5" fill-rule="evenodd" d="M22.582 12.256c.23 5.05-3.537 10.68-10.206 10.68-2.027 0-3.912-.595-5.501-1.613 1.905.226 3.806-.306 5.315-1.487-1.57-.028-2.896-1.067-3.356-2.493.565.107 1.119.076 1.624-.06-1.728-.35-2.92-1.904-2.88-3.568.484.269 1.037.43 1.625.449-1.598-1.069-2.05-3.18-1.11-4.794 1.77 2.172 4.415 3.601 7.4 3.751-.524-2.245 1.178-4.409 3.498-4.409 1.03 0 1.964.437 2.62 1.134.818-.16 1.587-.46 2.28-.871-.268.839-.837 1.541-1.58 1.986.726-.087 1.42-.28 2.063-.566-.48.723-1.089 1.355-1.792 1.861M15 .2C6.716.2 0 6.916 0 15.2c0 8.284 6.716 15 15 15 8.284 0 15-6.716 15-15 0-8.284-6.716-15-15-15"/>
</svg>
