<svg xmlns="http://www.w3.org/2000/svg" width="138" height="29" viewBox="0 0 138 29">
    <path fill-rule="evenodd" d="M20.525 6.181l-.234 1.439c-.49-.165-.935-.315-1.37-.46.535.457 1.2.802 1.5 1.349.307.556.255 1.31.393 2.19l.273-2.05 1.136.847c-.775-1.002-1.835-1.832-1.698-3.315zM10.43 12.964l-.615.64c.192.145.394.416.573.401.221-.017.423-.272.634-.424l-.592-.617zm-.448 2.11c-.549.05-.895-.177-.883-.819.014-.71.555-1.273 1.23-1.279.672-.005 1.302.521 1.319 1.102.017.57-.667.989-1.666.995zm1.274 6.263c1.293-.135 2.593-.228 3.877-.423.531-.08 1.083-.297 1.534-.592 1.414-.926 1.695-2.757.604-4.035.047.257.084.435.113.615.211 1.332-.332 2.458-1.519 3.009-.452.21-.96.305-1.45.425-1.065.259-2.133.5-3.2.748l.04.253zm-1.17-11.083c.426.316.875.673 1.382.47-.357-1.134-.69-2.209-1.033-3.281-.355-1.11-.97-1.613-2.11-1.707-.196 1.738.524 3.598 1.761 4.518zm2.766 15.177c.14.288.044.843-.16 1.111-.332.437-.862.361-1.32.08-.51-.313-.754-.758-.574-1.358.206-.683.732-.964 1.393-.943.968.03 1.617.598 2.057 1.415.345.642.61 1.328.967 1.962.804 1.427 2.211 1.72 3.576.687-.231.058-.358.096-.488.12-1.454.278-2.205-.245-2.471-1.717-.108-.599-.175-1.208-.33-1.795-.375-1.43-1.37-2.22-2.776-2.45-2.325-.38-4.178.643-5.911 2.166 1.718.05 2.76 1.174 3.896 2.205.356.323 1.021.427 1.539.413.597-.017.987-.48 1.086-1.102.082-.516-.013-.985-.517-1.256-.465-.25-.917-.26-1.294.182.525-.244 1.067-.254 1.327.28zm9.575-6.245c-1.119-.962-2.477-1.643-3.79-2.492-.37 1.093-.24 1.998.2 2.835.453.858.98 1.679 1.51 2.492.913 1.404 1.645 2.832.76 4.684 2.98-1.444 3.654-5.51 1.32-7.519zm-9.72-11.47c.404.518.82 1.027 1.202 1.561 1.032 1.441 2.402 2.313 4.167 2.52.65.075 1.302.142 1.955.166 1.168.045 2.261.24 2.999 1.316l.207-.155-1.626-3.094c-.345.674-.555 1.157-.838 1.591-.082.127-.455.22-.55.144-.145-.117-.19-.387-.228-.6-.018-.103.086-.223.123-.338.412-1.29.068-2.067-1.149-2.627-1.471-.677-3.025-.926-4.61-.695-.706.103-1.092-.12-1.537-.601-1.03-1.115-2.248-1.917-3.87-1.893 1.614.388 2.762 1.439 3.755 2.706zm11.906 8.892c-.56-2.051-2.122-2.967-4.037-3.446-1.734-.432-3.614-.302-5.186-1.446-.155 1.333.272 2.352 1.263 3.085.6.443 1.255.824 1.926 1.15 1.065.52 2.174.945 3.244 1.453 1.155.549 2.127 1.286 2.3 2.902.716-1.295.82-2.489.49-3.698zm47.194-6.87c-.775 0-1.552-.023-2.326.016-.18.01-.35.225-.524.346.156.116.297.296.47.336 1.112.258 1.239.316 1.252 1.42.042 3.363.052 6.726.028 10.088-.008 1.185-.178 1.313-1.275 1.69-.178.061-.312.252-.466.383.18.114.36.324.543.327 1.501.028 3.004.03 4.506.004.181-.004.359-.222.538-.34-.176-.124-.338-.322-.53-.358-.688-.131-.982-.512-.988-1.214-.03-3.436-.092-6.872-.115-10.308-.007-.985.127-1.493 1.27-1.71.138-.025.243-.233.363-.356-.14-.103-.274-.283-.422-.295-.772-.064-1.548-.086-2.322-.123l-.002.094zm-69.03 10.86c.034.196.054.395.108.584.05.175.134.34.204.51.185-.152.47-.269.537-.462.173-.505-.247-.8-.85-.631zm.03-14.959c1.105 1.686 2.21 3.37 3.312 5.057.295.45.647.812 1.235.734.204-.027.482-.098.564-.242.068-.119-.059-.408-.174-.566-1.837-2.516-3.68-5.026-5.534-7.53C1.46 2.082.685 1.091 0 0c.108.096.226.182.322.288 2.904 3.244 5.809 6.487 8.707 9.735.598.67.597 1.473-.12 2.011-.482.361-1.105.59-1.7.726-.749.171-1.077.533-1.21 1.306-.175 1.018-.449 2.038-.83 2.997-.647 1.629-.499 2.34.907 3.395.596.447 1.356.843 1.241 1.739-.062.489-.29 1.035-.618 1.396-.724.8-2.15 1.343-3.608 1.487-.465-1.222-1.032-2.474-1.407-3.78-.25-.868.079-1.73.641-2.462.415-.54.835-1.077 1.236-1.628.669-.921 1.052-1.942 1.235-3.082.111-.693.434-1.38.79-1.994.26-.449.17-.774-.03-1.15C4.62 9.229 3.68 7.473 2.741 5.716l.067-.076zm83.23 4.604c-.02-.45-.24-.695-.665-.704-1.307-.028-2.633-.18-3.916-.013-3.035.394-4.33 3.804-2.358 6.146.55.653 1.314 1.133 2.01 1.65.913.678 1.93 1.234 2.755 2.003.43.4.756 1.14.762 1.73.015 1.475-1.22 2.642-2.689 2.769-1.603.138-2.703-.649-3.101-2.218-.03-.119-.036-.257-.104-.348-.12-.16-.28-.29-.423-.433-.103.17-.287.334-.296.508-.04.779-.044 1.56-.022 2.339.004.147.155.375.288.422 2.427.854 4.814.998 6.97-.697 2.117-1.665 2.184-4.35.148-6.103-.841-.724-1.827-1.277-2.72-1.944-.718-.534-1.462-1.057-2.073-1.702-.766-.808-.638-1.905.173-2.666 1.31-1.228 3.436-.899 4.32.677.227.402.449.773 1.08.578-.047-.652-.111-1.322-.14-1.994zm31.38 2.467l-.197-.002-1.763 5.1h4.016l-2.056-5.098zm7.867 11.855H119.7l-.13-.172c.163-.149.302-.37.493-.434 1.094-.365 1.425-.993 1.04-2.06-.924-2.564-.924-2.568-3.613-2.562-.728.002-1.457.007-2.18.065-.183.015-.444.202-.507.371-.314.843-.62 1.694-.839 2.565-.227.908.056 1.286.937 1.577.226.075.408.288.61.437l-.114.252c-1.352 0-2.704.01-4.056-.007-.338-.004-.946-.038-.969-.15-.118-.59.554-.37.776-.625.403-.466.86-.94 1.09-1.494 1.244-2.986 2.426-5.999 3.628-9.002.343-.859.67-1.723 1.031-2.574.088-.21.239-.43.422-.553.983-.655 1.17-.584 1.59.501 1.403 3.63 2.805 7.262 4.223 10.887.212.54.448 1.09.779 1.559.234.332.649.535.98.8.176.14.345.29.518.435l-.125.184zM36.82 9.773c-1.611 0-3.222-.006-4.833.014-.105.001-.208.201-.312.308.129.115.256.327.388.329.648.012.806.443.883.957.04.264.063.533.071.8.088 2.701.192 5.402.248 8.104.034 1.622.797 2.787 2.133 3.584 1.9 1.134 3.97 1.129 5.969.471 2.015-.662 3.155-2.19 3.264-4.385.06-1.24.115-2.48.163-3.721.059-1.533.085-3.068.175-4.599.028-.473-.021-1.067.7-1.192.165-.028.299-.235.447-.36-.178-.116-.354-.33-.536-.334-1.137-.032-2.276-.03-3.413-.005-.179.005-.354.184-.53.283.163.147.316.407.49.421.83.069 1.067.606 1.069 1.303.008 2.725.022 5.451-.027 8.176-.025 1.38-.78 2.368-1.95 3.053-2.608 1.527-5.702-.153-5.735-3.15-.032-2.851.016-5.703.005-8.554-.002-.415.13-.606.518-.727.318-.1.603-.309.902-.47l-.09-.306zM62.537 20.47c-.235-.306-.45-.628-.706-.914-2.806-3.133-5.618-6.261-8.432-9.387-.142-.158-.32-.399-.485-.403-1.138-.03-2.277-.017-3.416.01-.11.004-.302.202-.301.308 0 .111.17.263.3.32.147.066.332.043.5.065.937.12 1.472.57 1.473 1.503.002 3.408-.054 6.816-.108 10.223-.011.72-.306 1.26-1.107 1.41-.19.036-.338.283-.506.433.187.108.372.306.56.31 1.38.024 2.762.016 4.142.001.175-.002.35-.099.524-.152l.07-.206c-.286-.157-.555-.387-.86-.457-.765-.177-1.102-.642-1.111-1.4-.034-2.727-.07-5.455-.098-8.183-.002-.18.056-.362.086-.543l.201-.126c.135.202.248.422.407.601 1.84 2.074 3.673 4.153 5.534 6.207 1.142 1.261 2.318 2.492 3.497 3.718.382.397.811.773 1.537.482 0-.82-.012-1.646.002-2.471.058-3.435.133-6.869.178-10.303.008-.59.238-.888.803-1.01.273-.06.52-.237.779-.36l-.056-.343c-1.605-.01-3.21-.023-4.816-.016-.094 0-.257.166-.265.265-.008.107.104.261.207.33.113.077.282.065.416.12.997.411 1.398.74 1.365 1.763-.061 1.899.012 3.801.026 5.703.005.771 0 1.543 0 2.315l-.34.187zm26.047-10.448c.148.13.28.352.444.377.862.133 1.182.78 1.454 1.473 1.519 3.872 3.034 7.745 4.545 11.62.442 1.132.435 1.134 1.708 1.044l3.793-9.939.22.027c.133.306.278.608.397.92 1.07 2.792 2.138 5.586 3.2 8.383.14.371.23.698.77.672.523-.026.788-.232.96-.705.375-1.028.784-2.044 1.181-3.064 1.148-2.947 2.293-5.895 3.447-8.839.268-.683.554-1.356 1.348-1.62.155-.051.252-.278.376-.424l-.085-.211c-1.324 0-2.65-.012-3.973.016-.15.003-.297.228-.445.35.16.115.306.297.482.336 1.12.242 1.179.29.78 1.4-1.07 2.975-2.167 5.941-3.257 8.91-.078.214-.188.417-.302.667-.1-.124-.164-.173-.187-.237-1.085-3.047-2.189-6.088-3.235-9.149-.328-.959-.061-1.291.954-1.6.148-.046.255-.227.382-.345-.133-.109-.265-.31-.399-.313-1.647-.022-3.294-.022-4.94-.002-.15.001-.295.176-.443.27.133.142.24.352.403.412 1.373.507 1.84 1.172 1.398 2.57-.898 2.841-1.924 5.642-2.968 8.663-.198-.43-.311-.638-.392-.859-1.007-2.74-2.015-5.478-3.005-8.224-.164-.455-.263-.936-.354-1.413-.082-.428.072-.716.561-.727.145-.003.307.001.428-.062.127-.069.215-.214.32-.326-.116-.1-.217-.25-.35-.288-.23-.064-.48-.078-.72-.079-1.47-.006-2.94-.003-4.409-.003l-.087.319zm41.973 4.557h-.008c0 .78.038 1.562-.013 2.338-.034.515.185.747.623.906 2.51.91 4.724-.598 4.765-3.258.042-2.64-2.06-4.338-4.462-3.618-.586.176-.912.514-.906 1.148.007.828.001 1.656.001 2.484zm7.443.926c-.498 1.674-1.397 3-3.177 3.455-1.423.364-2.829.277-4.201-.455 0 1.522-.047 3.015.022 4.502.03.621.67.75 1.167.954.213.087.374.3.558.457-.213.094-.424.267-.638.27-1.455.025-2.91.022-4.366.003-.185-.002-.368-.142-.553-.219.143-.164.263-.438.433-.474 1.093-.231 1.408-.953 1.4-1.977-.03-3.387-.032-6.775-.043-10.162-.002-.569-.277-.909-.824-1.039-.189-.044-.393-.065-.558-.156-.164-.09-.287-.256-.428-.388.159-.104.313-.29.477-.3 1.427-.085 2.856-.162 4.285-.194.87-.02 1.757-.044 2.611.09 1.986.313 3.308 1.415 3.713 3.474.018.09.08.171.122.256v1.903z"/>
</svg>
