<svg xmlns="http://www.w3.org/2000/svg" width="29" height="34" viewBox="0 0 29 34">
    <path fill="#ffffff" fill-rule="evenodd" d="M12.648 31.17c-.296-.23-.559-.499-.782-.8.24.287.5.554.782.8zm-1.409-17.895c-.06.233-.166.452-.31.644-.27.35-.625.624-1.032.793-.366.158-.754.26-1.15.303-.087.011-.176.018-.262.025-.25.009-.492.099-.689.257-.196.157-.337.373-.402.617-.03.122-.052.245-.067.369-.04.321-.045.656-.08 1.06-.086.689-.284 1.358-.587 1.982-.394.833-.836 1.504-.734 2.464.068.623.386 1.04.808 1.472.762.782 2.467 1.132 2.086 3.061-.23 1.151-2.13 2.36-4.8 2.782.265-.04-.341-1.067-.38-1.133-.286-.45-.6-.875-.826-1.363-.447-.948-.653-2.045-.47-3.084.192-1.093.997-1.93 1.667-2.766.796-.994 1.632-2.296 1.817-3.586.044-.313.075-.705.144-1.094.067-.431.2-.849.398-1.238.135-.254.313-.484.525-.679.11-.103.184-.24.208-.39.023-.15-.004-.303-.078-.436L2.768 5.642l6.116 7.581c.07.088.157.16.257.21.1.05.21.076.322.079.112.002.223-.02.325-.066.102-.045.193-.113.267-.198.077-.09.121-.205.124-.325.003-.119-.035-.236-.108-.33-.4-.513-.822-1.036-1.23-1.55L7.3 9.13 4.212 5.31 0 0l4.608 4.967L7.896 8.62l1.64 1.83c.545.616 1.089 1.212 1.633 1.86l.09.109.02.169c.026.23.012.463-.04.688zm1.487 17.946l-.043-.034.043.034zm9.632 1.386c-.153.123-.307.253-.475.366-.17.113-.348.212-.533.298-.384.188-.806.284-1.234.28-1.158-.02-1.977-.887-2.455-1.866-.327-.666-.552-1.387-.94-2.022-.554-.909-1.502-1.64-2.612-1.505-.453.057-.877.262-1.129.656-.662 1.031.289 2.476 1.5 2.271.103-.016.204-.043.3-.083.097-.041.187-.096.267-.163.17-.141.297-.327.369-.535.08-.218.097-.454.051-.682-.05-.237-.189-.446-.39-.583.234.11.415.306.507.547.095.248.12.518.07.78-.047.272-.166.527-.345.737-.096.108-.206.202-.327.278-.12.077-.25.138-.384.183-.274.094-.565.124-.851.089-.403-.058-.783-.223-1.1-.48-.374-.297-.653-.686-.991-1.02-.388-.41-.846-.745-1.352-.992-.349-.154-.714-.268-1.088-.339-.189-.04-.38-.068-.57-.092-.087-.009-.513-.104-.573-.048.588-.544 1.23-1.028 1.915-1.443.704-.42 1.46-.744 2.247-.966.817-.23 1.67-.297 2.513-.193.434.052.858.162 1.263.328.423.17.814.412 1.155.717.338.32.61.701.804 1.125.174.397.304.811.387 1.237.248 1.271.157 3.243 1.815 3.533.086.017.173.03.26.038l.272.006c.186-.013.371-.04.554-.08.378-.089.746-.215 1.1-.377zm-9.748-7.51c.415-.314.87-.573 1.35-.77.488-.196.993-.343 1.51-.438 1.024-.196 2.037-.244 2.888-.588.42-.165.808-.406 1.142-.71.323-.303.571-.677.723-1.094.155-.44.218-.907.185-1.372-.039-.5-.151-.991-.335-1.458.38.396.656.88.805 1.41.148.53.165 1.087.048 1.624-.134.569-.421 1.09-.83 1.504-.406.401-.896.707-1.433.896-.513.181-1.048.291-1.59.328-.523.044-1.028.056-1.524.086-1.003.042-1.995.238-2.939.582zm9.14-5.584c-1.523 4.272 5.388 7.138 2.8 11.48 2.656-1.102 3.917-4.431 2.815-7.073-.964-2.319-3.816-3.164-5.614-4.407zM9.955 6.873c.705.103 1.425.385 1.888.923.464.538.635 1.238.769 1.904.109.516.195 1.042.397 1.53.098.239.242.448.362.673.099.187.28.355.349.555.012.03.017.06.013.092-.003.03-.015.06-.034.085-.246.274-.91-.03-1.16-.153-.433-.215-.82-.512-1.142-.874-1.004-1.121-1.524-2.734-1.492-4.202.007-.179.024-.356.05-.533zm17.01 8.984l-.006-.01c-.1-.186-.213-.364-.34-.532-.372-.507-.905-.87-1.511-1.028-.404-.105-.817-.17-1.233-.195-.42-.03-.85-.048-1.285-.07-.87-.049-1.762-.138-2.633-.388-.218-.062-.435-.13-.645-.212-.11-.04-.21-.082-.318-.128-.108-.046-.218-.098-.327-.154-.41-.225-.788-.502-1.128-.823-.67-.627-1.198-1.338-1.725-2.026-.498-.692-1.032-1.356-1.6-1.99-.561-.622-1.224-1.142-1.96-1.538-.762-.385-1.589-.622-2.439-.7.882-.096 1.773.014 2.606.32.84.328 1.608.818 2.26 1.442.427.401.827.83 1.198 1.282 2.764-.546 5.007-.06 6.73.882l.039.02c.548.298 1.062.657 1.532 1.069.075.065.15.131.218.198.367.339.708.704 1.022 1.093l.024.032c1.017 1.294 1.52 2.64 1.521 3.456zM24.4 11.273c-.072-.067-.146-.132-.218-.198.073.067.146.137.218.198zm-6.356 2.371c-.819 6.29 10.216 4.98 10.005 9.986 1.089-1.421 1.557-5.283-1.648-7.27-2.854-1.773-6.575-.803-8.357-2.716zm-4.397 2.305c.704 1.245-.87 1.63-1.61 1.702-1.12.11-1.352-.54-1.133-1.354.072-.291.232-.554.457-.751.225-.198.505-.321.803-.353.292-.027.587.03.85.163.262.134.482.339.633.593z"/>
</svg>
