<svg xmlns="http://www.w3.org/2000/svg" width="95" height="96" viewBox="0 0 95 96">
    <g fill="none" fill-rule="evenodd">
        <path fill="#2775CA" d="M53.98 21.843c-.576-.287-1.152 0-1.296.576-.144.144-.144.288-.144.576v2.015c0 .577.432 1.152.864 1.44 11.229 4.03 16.987 16.555 12.812 27.64-2.16 6.046-6.91 10.652-12.812 12.812-.576.287-.864.719-.864 1.44v2.014c0 .576.288 1.008.864 1.152.144 0 .431 0 .576-.144C67.655 67.045 75.14 52.506 70.822 38.83c-2.59-8.205-8.925-14.395-16.842-16.987M38.72 66.757c-11.228-4.03-16.987-16.555-12.812-27.639 2.16-6.046 6.91-10.653 12.812-12.812.576-.288.864-.72.864-1.44V22.85c0-.576-.288-1.008-.864-1.152-.144 0-.432 0-.575.144-13.676 4.319-21.162 18.858-16.843 32.534 2.59 8.062 8.781 14.252 16.843 16.843.575.288 1.151 0 1.295-.576.144-.144.144-.288.144-.576v-2.015c0-.432-.432-1.008-.864-1.296m16.843-15.115c0-5.038-3.023-6.766-9.07-7.486-4.318-.576-5.182-1.727-5.182-3.743 0-2.015 1.44-3.31 4.32-3.31 2.59 0 4.03.863 4.75 3.023.144.432.576.719 1.007.719h2.304c.575 0 1.008-.432 1.008-1.007v-.144c-.577-3.168-3.168-5.615-6.48-5.902v-3.455c0-.576-.43-1.008-1.15-1.152h-2.16c-.576 0-1.007.431-1.152 1.152v3.31c-4.318.577-7.053 3.456-7.053 7.054 0 4.75 2.88 6.622 8.926 7.342 4.03.72 5.326 1.584 5.326 3.887s-2.016 3.887-4.75 3.887c-3.744 0-5.04-1.584-5.472-3.743-.143-.576-.575-.864-1.007-.864H37.28c-.575 0-1.007.432-1.007 1.007v.145c.575 3.598 2.88 6.19 7.63 6.91v3.455c0 .575.431 1.007 1.151 1.151h2.16c.576 0 1.007-.432 1.151-1.151V59.27c4.32-.72 7.198-3.743 7.198-7.63" transform="translate(1.62 2)"/>
        <path stroke="#2775CA" stroke-width="3" d="M0 45.907C0 20.553 20.553 0 45.907 0 71.26 0 91.813 20.553 91.813 45.907c0 25.353-20.553 45.906-45.906 45.906C20.553 91.813 0 71.26 0 45.907z" transform="translate(1.62 2)"/>
    </g>
</svg>
