<?xml version="1.0" encoding="utf-8"?>
<!-- Generator: Adobe Illustrator 21.1.0, SVG Export Plug-In . SVG Version: 6.00 Build 0)  -->
<svg version="1.1" id="Layer_1" xmlns="http://www.w3.org/2000/svg" xmlns:xlink="http://www.w3.org/1999/xlink" x="0px" y="0px"
	 viewBox="0 0 310 451" style="enable-background:new 0 0 310 451;" xml:space="preserve">
<style type="text/css">
	.st0{fill:#142A38;stroke:#FFFFFF;}
	.st1{fill:url(#SVGID_1_);stroke:#1A82FF;stroke-linecap:round;stroke-linejoin:round;}
	.st2{fill:#204052;stroke:#1A82FF;}
</style>
<g>
	<g>
		<g>
			<path class="st0" d="M74.4,430.8c-22.1-12.7-33-29.4-33.1-46.2c0-16.9,11.2-33.8,33.6-46.8c44.6-25.7,116.6-25.9,160.9-0.3
				c22.1,12.7,33,29.4,33.1,46.2c0,16.9-11.2,33.8-33.6,46.8C190.8,456.2,118.7,456.4,74.4,430.8L74.4,430.8z"/>
		</g>
		
			<linearGradient id="SVGID_1_" gradientUnits="userSpaceOnUse" x1="-148.4102" y1="620.1179" x2="-148.4102" y2="620.5034" gradientTransform="matrix(137.644 0 0 -200.1537 20582.918 124575.3359)">
			<stop  offset="0" style="stop-color:#0B1A22"/>
			<stop  offset="1" style="stop-color:#183140"/>
		</linearGradient>
		<path class="st1" d="M195.3,444.6v-126H224l-68.8-68.8l-68.9,68.8h28.8v126.3"/>
		<path class="st2" d="M86.3,303.6l68.9-68.8v15l-68.9,68.8V303.6z M155.2,234.8l68.8,68.8v15l-68.8-68.8V234.8z"/>
	</g>
</g>
</svg>
