<svg width="450" height="450" viewBox="0 0 450 450" fill="none" xmlns="http://www.w3.org/2000/svg">
<path d="M225.751 449.249C349.601 448.834 449.664 348.098 449.249 224.249C448.834 100.399 348.098 0.336455 224.249 0.751473C100.399 1.16649 0.336439 101.902 0.751457 225.751C1.16648 349.601 101.902 449.664 225.751 449.249Z" fill="#0074F0"/>
<path opacity="0.2" d="M365.169 364.272C442.058 286.87 441.673 161.717 364.27 84.8279C286.868 7.93905 161.715 8.32413 84.8262 85.7265L365.169 364.272Z" fill="white"/>
<path d="M215.843 136.433C218.854 136.125 221.908 135.967 225 135.967C274.153 135.967 314 175.814 314 224.967C314 263.297 289.77 295.968 255.791 308.497L225.593 350.966C294.908 350.647 351 294.357 351 224.967C351 159.809 301.541 106.203 238.118 99.6418L215.843 136.433Z" fill="white"/>
<path d="M222.141 98.999C153.873 100.519 99 156.335 99 224.967C99 289.176 147.028 342.167 209.118 349.976L235.128 313.397C231.804 313.774 228.425 313.967 225 313.967C175.847 313.967 136 274.121 136 224.967C136 185.578 161.588 152.166 197.048 140.445L222.141 98.999Z" fill="white"/>
<path d="M255.792 308.498C289.771 295.968 314.001 263.298 314.001 224.968H351.001C351.001 294.358 294.909 350.647 225.594 350.966L255.792 308.498Z" fill="url(#paint0_linear_43_2883)"/>
<path d="M222.141 98.999C153.873 100.519 99 156.335 99 224.967C99 224.967 136 225.499 136 224.967C136 185.578 161.588 152.166 197.048 140.445L222.141 98.999Z" fill="url(#paint1_linear_43_2883)"/>
<path d="M224.773 327.97L288.038 238.877L224.773 276.213L161.542 238.877L224.773 327.97Z" fill="white"/>
<path opacity="0.1" d="M224.773 327.97L288.038 238.877L224.773 276.213V327.97Z" fill="#0074F0"/>
<path d="M224.581 264.389L288.161 226.984L224.581 121.97L161 226.984L224.581 264.389Z" fill="url(#paint2_linear_43_2883)"/>
<path d="M224.581 264.389L288.161 226.984L224.581 121.97L161 226.984L224.581 264.389Z" fill="white"/>
<path opacity="0.1" d="M224.58 264.386L161 226.984L224.58 121.97L224.58 264.386Z" fill="#0074F0"/>
<path opacity="0.1" d="M224.58 264.389V197.177L161 226.984L224.58 264.389Z" fill="#0074F0"/>
<path opacity="0.1" d="M224.581 264.389V197.177L288.161 226.984L224.581 264.389Z" fill="#0074F0"/>
<defs>
<linearGradient id="paint0_linear_43_2883" x1="142.043" y1="382.842" x2="280.809" y2="291.943" gradientUnits="userSpaceOnUse">
<stop stop-color="#1A82FF" stop-opacity="0.5"/>
<stop offset="1" stop-color="white"/>
</linearGradient>
<linearGradient id="paint1_linear_43_2883" x1="293" y1="41.001" x2="160.228" y2="136.933" gradientUnits="userSpaceOnUse">
<stop stop-color="#1A82FF" stop-opacity="0.5"/>
<stop offset="1" stop-color="white"/>
</linearGradient>
<linearGradient id="paint2_linear_43_2883" x1="89.3154" y1="159.998" x2="200.703" y2="227.973" gradientUnits="userSpaceOnUse">
<stop stop-color="#1C313F"/>
<stop offset="1" stop-color="white"/>
</linearGradient>
</defs>
</svg>
