<svg version="1.1" xmlns="http://www.w3.org/2000/svg" viewBox="0 0 1136.7250366210938 712.7141571044922">
  <!-- svg-source:excalidraw -->
  <defs>
    <style>
      @font-face {
        font-family: "Virgil";
        src: url("https://excalidraw.com/FG_Virgil.woff2");
      }
      @font-face {
        font-family: "Cascadia";
        src: url("https://excalidraw.com/Cascadia.woff2");
      }
    </style>
  </defs>
  <rect x="0" y="0" width="1136.7250366210938" height="712.7141571044922" fill="#ffffff"></rect><g transform="translate(289.8687744140625 593.9559173583984) rotate(0 104.302978515625 54.379119873046875)"><path d="M-0.8460033946044152 0.7218309565234483 C64.638449990005 0.20509839586985934, 130.48722590967023 2.7346117083958466, 207.01340854270998 -1.2596071117335867 M-0.5916108029892277 0.36671449878419843 C77.48926979469749 0.8117061801694108, 154.69229367556093 1.9159805540976724, 207.89682170684125 0.683699852182828 M208.1155252996832 -1.630114460363984 C208.80383888403807 42.42296195734256, 207.59511790196333 82.39093057170437, 206.69462358392775 106.78140405379236 M208.8813691912219 0.420374003238976 C207.81419334557933 33.738941893051084, 208.84242440012378 67.00107991988712, 208.61001377087086 108.58111798483878 M207.59681882833104 109.81806012487407 C143.86295032480635 109.15245165589349, 76.91120996036203 107.27079351842967, 0.6057872767915943 107.2267888664262 M208.339675116408 109.09180957374232 C138.0979640885821 110.19918758091656, 68.52300483744432 109.5864988698872, 0.785938886805233 108.21383316095178 M0.6675483528524637 107.98478028737009 C0.8101473449251472 82.28776230761375, 0.886761903621894 59.89223320420018, -1.3387529905885458 1.0543913003057241 M0.3319840608164668 107.96083941776305 C0.9472543132286745 73.99640528423836, -0.00028176784699385227 38.01368826039385, 0.2602803586050868 -0.006809773854911327" stroke="#000000" stroke-width="1" fill="none"></path></g><g transform="translate(327.94171142578125 630.8669586181641) rotate(0 69.5 12.5)"><text x="69.5" y="18" font-family="Virgil, Segoe UI Emoji" font-size="20px" fill="#000000" text-anchor="middle" style="white-space: pre;" direction="ltr">Token (OUSD)</text></g><g transform="translate(93.94647216796875 376.61192321777344) rotate(0 72 10)"><text x="0" y="14" font-family="Virgil, Segoe UI Emoji" font-size="16px" fill="#000000" text-anchor="start" style="white-space: pre;" direction="ltr">Deposit/Withdraw</text></g><g transform="translate(293.5245361328125 291.33152770996094) rotate(0 104.302978515625 85.00881958007812)"><path d="M0.6816892840818092 -0.6296446065176464 C48.9324084201195 -0.6409143489358874, 93.81064281749138 -1.2043736526662863, 207.72923739147387 -1.2093638749729447 M-0.4475258041694075 -0.2411137724075916 C62.210646966027475 2.143827986767787, 123.86067299565543 2.316986138020752, 208.272726412009 -0.5705929037700593 M208.14116266928613 -0.08864635787904263 C210.84962299711293 52.340412288594216, 211.52343663818425 100.81615710755283, 208.49347517453134 168.40593349374828 M209.57005238253623 -0.15329806227236986 C209.35279160827534 62.303980994357616, 208.53731909483807 125.16087533876836, 208.9538045199588 170.96376662235704 M207.70785834563506 171.23571567753294 C134.2549735571586 172.6155667309385, 62.35235102928423 173.13476243957936, -0.6694543667929386 169.6384095497795 M207.97770583607115 169.4326455514236 C164.0568287589385 172.42451787595226, 121.85307270737388 171.18620555603974, 0.8297537160455012 169.57539195309218 M0.26975599490106106 171.40926902927455 C0.8124899655977678 128.40995757824385, 3.016947069803853 86.33831374501098, -0.7820948604494333 -0.5010087545961142 M0.23867827374488115 169.25659109931436 C0.24215833387839825 119.99691978147717, 0.9138970478581193 72.13680271626448, 0.6758609684184194 0.48480652552098036" stroke="#000000" stroke-width="1" fill="none"></path></g><g transform="translate(369.4527587890625 322.6865997314453) rotate(0 24 12.5)"><text x="24" y="18" font-family="Virgil, Segoe UI Emoji" font-size="20px" fill="#000000" text-anchor="middle" style="white-space: pre;" direction="ltr">Vault</text></g><g transform="translate(10 438.0024871826172) rotate(0 68.61965942382812 63.543914794921875)"><path d="M78.58287008624728 0.6088813333721319 C88.45691890233866 1.1226505962344304, 99.37741730161335 6.9604457479210815, 108.11541007856269 12.765147846867812 C116.85340285551203 18.569849945814543, 126.01176770950569 26.750537337962424, 131.0108267479433 35.437093927052516 C136.0098857863809 44.123650516142604, 138.5323720898479 54.95880420177375, 138.10976430918834 64.88448738140836 C137.68715652852876 74.81017056104298, 133.68350142495694 86.26414471462158, 128.4751800639859 94.9911930048602 C123.26685870301486 103.7182412950988, 115.71592152201528 111.79396524181524, 106.85983614336212 117.24677712284006 C98.00375076470895 122.69958900386487, 85.94661256022846 126.81871831425829, 75.33866779206693 127.70806429100911 C64.7307230239054 128.59741026775993, 53.19284134153939 126.50671066904204, 43.212167534392904 122.582852983345 C33.231493727246416 118.65899529764798, 22.309025164028093 111.76228316615885, 15.454624949187988 104.16491817682693 C8.600224734347883 96.56755318749501, 4.184543828224072 86.63798296538732, 2.085766245352275 76.99866304735345 C-0.013011337519522215 67.35934312931957, -0.05868551101277708 55.98603225278756, 2.8619594519572047 46.32899866862365 C5.782604414927187 36.671965084459735, 12.357322616243682 26.189395122011575, 19.609636023172165 19.05646154236996 C26.861949430100648 11.923527962728343, 35.20969384741465 6.375775447595911, 46.37583989352811 3.5313971907739585 C57.54198593964157 0.6870189339520061, 78.52890919759497 1.7201147120192128, 86.60651229985295 1.9901920014382455 C94.68411540211093 2.2602692908572783, 95.15224697053753 4.0062989905845585, 94.84145850707597 5.151860927288155 M93.51194595266784 4.659931218438295 C103.30958120647878 7.511395633322849, 112.72733035481743 16.4436219835656, 119.97703770416499 23.909963327570345 C127.22674505351254 31.37630467157509, 134.5206616011852 39.826513723382426, 137.0101900487532 49.457979282466766 C139.4997184963212 59.089444841551106, 137.8217548910834 71.97868733377217, 134.91420838957308 81.69875668207638 C132.00666188806275 91.41882603038059, 126.970759712081 100.92028627465595, 119.56491103969134 107.778395372292 C112.15906236730167 114.63650446992804, 100.64383588501804 119.87539175234025, 90.47911635523505 122.84741126789265 C80.31439682545206 125.81943078344506, 68.85129218164687 126.9435998286075, 58.57659386099342 125.6105124656064 C48.30189554033997 124.2774251026053, 37.23622381112811 120.33194262643477, 28.83092643131433 114.84888708988608 C20.42562905150055 109.36583155333739, 12.975179610320595 101.39610454532915, 8.144809582110739 92.71217924631425 C3.3144395539008835 84.02825394729935, -0.32605847525281106 72.89877880055096, -0.1512937379447976 62.74533529579664 C0.02347099936321584 52.59189179104233, 4.152623368500471 40.57310388279671, 9.19339800595882 31.791518217788344 C14.234172643417168 23.00993255277998, 21.424734237355352 15.238983603532951, 30.09335408680529 10.055821305746463 C38.76197393625523 4.8726590079599745, 50.656892366410815 1.3769422105443496, 61.20511710265846 0.6925444310694147 C71.75334183890611 0.008146651594479692, 87.84882887269481 5.2185457856695265, 93.38270250429117 5.949434628896853 C98.91657613588754 6.680323472124179, 94.44823709608859 4.1478720055317, 94.40835889223669 5.077877490433373" stroke="#000000" stroke-width="1" fill="none"></path></g><g transform="translate(59.619659423828125 492.29689025878906) rotate(0 17 10)"><text x="17" y="14" font-family="Virgil, Segoe UI Emoji" font-size="16px" fill="#000000" text-anchor="middle" style="white-space: pre;" direction="ltr">User</text></g><g transform="translate(288.31988525390625 516.8867645263672) rotate(0 38 10)"><text x="0" y="14" font-family="Virgil, Segoe UI Emoji" font-size="16px" fill="#000000" text-anchor="start" style="white-space: pre;" direction="ltr">Mint/Burn</text></g><g><g transform="translate(117.384765625 448.8619842529297) rotate(0 88.00097256042068 -23.31934503446334)"><path d="M-0.9093380358070136 -1.0563264403492212 C28.74329012768964 -8.940820105249683, 147.40495511827368 -40.10435486969849, 176.91128315664827 -47.642188302055004 M0.8141207660548391 1.0034982331283393 C30.437429966858275 -6.726643595925221, 147.14430038783078 -38.34884807947402, 176.20809659196064 -46.58085233910009" stroke="#000000" stroke-width="1" fill="none"></path></g></g><g><g transform="translate(395.96246337890625 463.81333923339844) rotate(0 0.00960499305273288 65.36456545155497)"><path d="M-0.20697652436792846 0.23619223572313786 C-0.33340680934488764 22.130554713184637, -0.4102954301983117 108.28253189859292, -0.30655718185007563 130.24216651655735 M-1.7747779290005565 -0.6854107858613134 C-1.5906832222267986 21.45082849046836, 1.5952915008738635 109.59928168357659, 1.7939879151061175 131.4145416889712" stroke="#000000" stroke-width="1" fill="none"></path></g></g><g><g transform="translate(289.623291015625 650.0630950927734) rotate(0 -81.40531155727803 -51.45386764742432)"><path d="M0.7942262504249811 0.4953342642635108 C-26.564707933490475 -16.769886278485256, -136.32468829813104 -86.19498288171988, -163.60484936498105 -103.4030695591122 M-0.24794369744136935 -0.2902191923372448 C-27.283391649195302 -17.461527066261816, -134.12402868595595 -85.53484357856836, -161.37575294004753 -102.42954159302637" stroke="#000000" stroke-width="1" fill="none"></path></g></g><g transform="translate(534.3772583007812 10) rotate(0 63.43023681640625 60.642822265625)"><path d="M77.77562840118885 1.3748124027041015 C87.38728414402159 2.559813801003659, 97.95569081954059 9.164041803635474, 105.62589838170214 15.530477082229261 C113.2961059438637 21.89691236082305, 120.52400309315732 30.42161126393062, 123.79687377415817 39.573424074266825 C127.06974445515903 48.72523688460303, 127.04543473616881 60.63963731587984, 125.26312246770723 70.44135394424649 C123.48081019924565 80.24307057261314, 119.01759961888334 90.93087357083671, 113.1030001633887 98.38372384446672 C107.18840070789406 105.83657411809672, 98.87986503629082 111.37351189081423, 89.77552573473942 115.15845558602655 C80.67118643318801 118.94339928123887, 68.64661633569865 121.85193135582247, 58.476964354080295 121.0933860157406 C48.307312372461936 120.33484067565874, 37.37703638505814 115.80328046391003, 28.75761384502927 110.60718354553538 C20.138191305000397 105.41108662716073, 11.464079331943076 98.20837861590083, 6.76042911390708 89.91680450549273 C2.0567788958710835 81.62523039508464, 0.18453848675283052 70.68378484861704, 0.5357125368132927 60.85773888308685 C0.8868865868737548 51.031692917556676, 3.969795948911151 39.41862783100325, 8.867473414269853 30.960528712311653 C13.765150879628553 22.502429593620057, 21.42866592377612 15.234368177948394, 29.921777328965504 10.10914417093727 C38.414888734154886 4.983920163926148, 50.41735285349955 1.1613531578018148, 59.82614184540616 0.20918467024491605 C69.23493083731277 -0.7429838173119828, 80.88894850178325 2.9516494436621024, 86.37451128040517 4.396133245595877 C91.8600740590271 5.840617047529651, 93.33479632196213 7.94234848101976, 92.73951851713775 8.876087481847563 M87.75222209718436 4.291796173998193 C96.72430571606571 7.185460535044319, 105.85618211593133 16.921357782391656, 112.22271295263734 24.512980965754167 C118.58924378934334 32.10460414911668, 124.27979455631329 40.630162484898264, 125.95140711742036 49.84153527417327 C127.62301967852743 59.05290806344827, 125.51514373386554 70.41112478399313, 122.25238831927976 79.78121770140419 C118.98963290469398 89.15131061881524, 113.50811184711456 99.51335096479123, 106.37487462990568 106.06209277863957 C99.24163741269679 112.6108345924879, 89.33610661780011 116.99978124732097, 79.45296501602645 119.07366858449424 C69.5698234142528 121.14755592166752, 57.029167803044444 121.04645729925294, 47.07602501926377 118.50541680167922 C37.12288223548309 115.9643763041055, 27.15580690303045 110.17741100942153, 19.73410831334239 103.82742559905192 C12.31240972365433 97.47744018868231, 5.5466179936652615 89.66724381227542, 2.5458334811354177 80.40550433946156 C-0.45495103139442605 71.1437648666477, -0.3826105717934092 58.04725699307193, 1.7294012381633266 48.256988762168774 C3.8414130481200623 38.466720531265615, 8.729083343612004 28.870489130254466, 15.217904340875833 21.66389495404261 C21.706725338139663 14.457300777830756, 31.390597715035483 8.5724735712387, 40.6623272217463 5.017423704897645 C49.93405672845712 1.4623738385565908, 62.897564244951226 0.440241385515975, 70.84828138114074 0.333595755996285 C78.79899851733025 0.22695012647659496, 85.29739966646365 3.3425850945306586, 88.36663003888336 4.377549927779505 C91.43586041130307 5.412514761028351, 89.54997682028439 5.286376651224084, 89.26366361565901 6.543384755489363" stroke="#000000" stroke-width="1" fill="none"></path></g><g transform="translate(555.3795166015625 55.706085205078125) rotate(0 43.5 12.5)"><text x="43.5" y="18" font-family="Virgil, Segoe UI Emoji" font-size="20px" fill="#000000" text-anchor="middle" style="white-space: pre;" direction="ltr">Governor</text></g><g transform="translate(685.5556030273438 313.66944885253906) rotate(0 131.67431640625 45.236663818359375)"><path d="M0.96027713275375 -0.38680046247963495 C75.87874201585667 -2.1321678615407063, 152.23304694108813 -0.9432883020687679, 262.6519498563269 1.4791649566041907 M-0.5882050490800175 -0.3551670266783979 C103.88850131255866 -0.5111400884820697, 207.61145695582874 -1.1013419427968538, 263.63246131744074 0.7306952060291149 M265.2594667598605 1.8654730394482613 C264.40689517803185 34.9913472624811, 263.1217277223586 69.97587169303347, 263.93155228346586 88.57911062985659 M262.6272358931601 -0.5506934560835361 C263.43453575608856 29.028768392836472, 263.5881725692523 57.508189805965465, 263.0802117623389 89.5208153091371 M263.7993327470564 89.6072147030083 C202.10266657448926 87.84148756691616, 143.0873329370864 87.8177840863907, -0.5864351521186204 91.34809995785557 M263.559176893609 90.29138884196766 C187.47133676779742 89.17355485388596, 111.35062658332042 89.35730697055546, 0.25261092658012985 90.45330757444745 M-0.9458655193448067 88.59884334355593 C0.3593453085835677 69.26012670302782, -2.3722790562693374 44.62625167626924, 0.7149742767214775 0.523311622440815 M0.5798203982412815 90.98377114161849 C-1.1967042072157597 60.817925830244235, -1.4742578847746586 28.375038129953964, -0.04983770474791527 0.28415411338210106" stroke="#000000" stroke-width="1" fill="none"></path></g><g transform="translate(763.4816284179688 333.65782165527344) rotate(0 53.5 25)"><text x="53.5" y="18" font-family="Virgil, Segoe UI Emoji" font-size="20px" fill="#000000" text-anchor="middle" style="white-space: pre;" direction="ltr">Strategy 1</text><text x="53.5" y="43" font-family="Virgil, Segoe UI Emoji" font-size="20px" fill="#000000" text-anchor="middle" style="white-space: pre;" direction="ltr">(Compound)</text></g><g transform="translate(684.1519165039062 445.5734405517578) rotate(0 131.67431640625 45.236663818359375)"><path d="M1.334561092684152 -0.8068120089208296 C91.19172355303759 -0.6870217216050742, 179.70080451269797 -2.3661097055381077, 261.79301607950276 0.40258671573394694 M0.7380206654249226 0.02830628034516922 C69.76952742277514 -0.029341892189130747, 138.77470358735835 0.7872245742098953, 263.3563593623652 -0.39242590612808076 M262.1105485036969 0.43232976645231247 C264.8822657689472 28.142444117282256, 262.08268209547003 57.74085650278017, 264.7740533426404 88.94773804396391 M263.9576949439943 0.038149360567331314 C262.2332614624324 19.531228685382192, 261.79353952048444 39.00575713739432, 262.507791813463 90.2374631203711 M263.4221637411749 90.57484494105866 C169.54449885844906 88.04158842465712, 75.139900904727 87.7793039097415, -0.8684921265572902 91.92619674288898 M262.6693369350799 90.78537131955808 C183.8272884493553 88.67257312127992, 105.9354049645159 89.3190225642292, 0.46213363340561314 90.22044966766416 M1.378235824406147 91.29480754584074 C2.326217535733497 63.395055157739876, 1.2511669433110115 40.31084689805697, -1.362785093486309 1.0007523223757744 M0.8532664142549038 90.49641013517976 C0.4758373813750836 66.3643358075625, -0.21665403078769718 43.0664938102675, 0.05911737307906151 -0.3452841006219387" stroke="#000000" stroke-width="1" fill="none"></path></g><g transform="translate(764.9506225585938 463.80860900878906) rotate(0 57 25)"><text x="57" y="18" font-family="Virgil, Segoe UI Emoji" font-size="20px" fill="#000000" text-anchor="middle" style="white-space: pre;" direction="ltr">Strategy 2</text><text x="57" y="43" font-family="Virgil, Segoe UI Emoji" font-size="20px" fill="#000000" text-anchor="middle" style="white-space: pre;" direction="ltr">(Aave)</text></g><g><g transform="translate(504.76605224609375 390.2484588623047) rotate(0 90.39519870728259 -15.659687735461631)"><path d="M-0.8217834904789925 -1.1108689114451409 C29.38177760889133 -6.650401843090853, 151.39721691260735 -27.129214712480703, 181.61218090504408 -32.23969643563032 M0.9476414476800712 0.9203209647070616 C30.998077873981867 -3.900305657632028, 151.1672721156447 -24.94450889721202, 180.89869264801033 -30.751351711796595" stroke="#000000" stroke-width="1" fill="none"></path></g></g><g><g transform="translate(507.42987060546875 421.51368713378906) rotate(0 89.40930638814814 32.48648335258477)"><path d="M-0.6129280999302864 0.5476882651448249 C28.980037804941336 11.077167276044687, 147.35912507822118 53.08807557771603, 177.2129567667842 63.86979915648699 M1.2661459182668477 -0.2103793409932404 C31.25903551280188 10.425523412379746, 149.98723626742452 54.58328961198839, 179.4315408762265 65.18334604616277" stroke="#000000" stroke-width="1" fill="none"></path></g></g><g transform="translate(333.110595703125 372.56871032714844) rotate(0 64 30)"><text x="0" y="14" font-family="Virgil, Segoe UI Emoji" font-size="16px" fill="#000000" text-anchor="start" style="white-space: pre;" direction="ltr">Weights</text><text x="0" y="34" font-family="Virgil, Segoe UI Emoji" font-size="16px" fill="#000000" text-anchor="start" style="white-space: pre;" direction="ltr">50: Strategy 1</text><text x="0" y="54" font-family="Virgil, Segoe UI Emoji" font-size="16px" fill="#000000" text-anchor="start" style="white-space: pre;" direction="ltr">50: Strategy 2</text></g><g transform="translate(985.7250366210938 376.70933532714844) rotate(0 70.5 40)"><text x="0" y="14" font-family="Virgil, Segoe UI Emoji" font-size="16px" fill="#000000" text-anchor="start" style="white-space: pre;" direction="ltr">deposit()</text><text x="0" y="34" font-family="Virgil, Segoe UI Emoji" font-size="16px" fill="#000000" text-anchor="start" style="white-space: pre;" direction="ltr">withdraw()</text><text x="0" y="54" font-family="Virgil, Segoe UI Emoji" font-size="16px" fill="#000000" text-anchor="start" style="white-space: pre;" direction="ltr">getRewardToken()</text><text x="0" y="74" font-family="Virgil, Segoe UI Emoji" font-size="16px" fill="#000000" text-anchor="start" style="white-space: pre;" direction="ltr">checkBalance()</text></g><g transform="translate(319.8544921875 126.61466979980469) rotate(0 79.416748046875 40.302520751953125)"><path d="M1.3129891082644463 -0.7027549669146538 C38.37336794787171 -0.07133445176315956, 74.52346083777194 0.2002030905799801, 158.62891160696745 0.5022385194897652 M0.14120614901185036 0.16201895102858543 C44.93734946891873 -0.07600483520431234, 87.29196828321038 -0.0338313303749056, 159.64158726111054 -0.6312603391706944 M158.97510492056608 -0.40032076090574265 C158.2860917199784 25.665446999579427, 157.57608905922706 56.79201340508413, 159.34143482893705 79.31572771817446 M159.59036255255342 0.700832899659872 C159.43587662352823 21.707298644580238, 159.96916736735605 44.48921223495959, 158.44792521372437 80.71309178695083 M158.09515988081694 80.3777070119977 C114.36122929113134 81.14958705192335, 71.59738384548872 81.18569673782117, 1.432551495730877 79.29829192906618 M159.46588385477662 80.59465401992202 C96.7493335634519 78.88422877153042, 33.842479469636956 79.98955077489498, -0.652745958417654 79.9048827253282 M-1.0448635891079903 79.99473167210817 C0.5306119838087966 52.48909418643541, 2.1143867888777663 21.577946752032176, -0.4690762832760811 1.218729980289936 M0.6756069697439671 80.82907801494002 C1.0694634163187016 51.882512390730895, 1.3170714819238651 20.690642658855758, -0.11294090375304222 0.22963493689894676" stroke="#000000" stroke-width="1" fill="none"></path></g><g transform="translate(367.771240234375 164.49497985839844) rotate(0 31.5 12.5)"><text x="31.5" y="18" font-family="Virgil, Segoe UI Emoji" font-size="20px" fill="#000000" text-anchor="middle" style="white-space: pre;" direction="ltr">Oracle</text></g><g transform="translate(591.3408203125 390.8600616455078) rotate(0 23 10)"><text x="0" y="14" font-family="Virgil, Segoe UI Emoji" font-size="16px" fill="#000000" text-anchor="start" style="white-space: pre;" direction="ltr">COMP</text></g><g><g transform="translate(399.09710693359375 291.0754852294922) rotate(0 -1.260711203566757 -42.21156388925854)"><path d="M0.10193081349134436 0.3022980406880378 C-0.17501803586880377 -13.532628262539703, -1.5297920500238738 -68.77714089999596, -1.7953868344426156 -82.9399984166026 M-1.303694238765165 -0.5845994332898408 C-1.7069529952636608 -14.775053211695823, -2.5110041072995712 -70.83435765519427, -2.6233532206248493 -84.72542581920511" stroke="#000000" stroke-width="1" fill="none"></path></g></g><g><g transform="translate(583.7760620117188 131.0845184326172) rotate(0 -39.92021609743597 79.47538826386445)"><path d="M-0.33322233706712723 -0.17543256729841228 C-13.741437971095245 26.305588089923063, -68.05633619179328 132.08514008869727, -81.533129401505 158.65800492316484 M1.6926972066331656 -1.3131386104691773 C-11.265431506835547 25.403624369852864, -66.00242447525574 133.82760907277776, -79.40153929750436 160.26391513819806" stroke="#000000" stroke-width="1" fill="none"></path></g></g><g transform="translate(427.54022216796875 515.6723480224609) rotate(0 28.5 10)"><text x="0" y="14" font-family="Virgil, Segoe UI Emoji" font-size="16px" fill="#000000" text-anchor="start" style="white-space: pre;" direction="ltr">Rebase</text></g><g transform="translate(686.346923828125 154.4475555419922) rotate(0 200.5 10)"><text x="0" y="14" font-family="Virgil, Segoe UI Emoji" font-size="16px" fill="#000000" text-anchor="start" style="white-space: pre;" direction="ltr">Total Balance = Vault + Strategy 1 + strategy 2</text></g></svg>