<?xml version="1.0" encoding="UTF-8" standalone="no"?>
<!DOCTYPE svg PUBLIC "-//W3C//DTD SVG 1.1//EN"
 "http://www.w3.org/Graphics/SVG/1.1/DTD/svg11.dtd">
<!-- Generated by graphviz version 5.0.0 (20220707.1540)
 -->
<!-- Title: StorageDiagram Pages: 1 -->
<svg width="2382pt" height="218pt"
 viewBox="0.00 0.00 2382.35 218.20" xmlns="http://www.w3.org/2000/svg" xmlns:xlink="http://www.w3.org/1999/xlink">
<g id="graph0" class="graph" transform="scale(1 1) rotate(0) translate(4 214.2)">
<title>StorageDiagram</title>
<polygon fill="white" stroke="transparent" points="-4,4 -4,-214.2 2378.35,-214.2 2378.35,4 -4,4"/>
<!-- 4 -->
<g id="node1" class="node">
<title>4</title>
<polygon fill="#f2f2f2" stroke="black" points="0,-81.5 0,-180.7 796.52,-180.7 796.52,-81.5 0,-81.5"/>
<text text-anchor="middle" x="398.26" y="-164.1" font-family="Courier New" font-size="14.00">PoolBoosterFactorySwapxSingle &lt;&lt;Contract&gt;&gt;</text>
<polyline fill="none" stroke="black" points="0,-155.9 796.52,-155.9 "/>
<text text-anchor="middle" x="24.8" y="-139.3" font-family="Courier New" font-size="14.00">slot</text>
<polyline fill="none" stroke="black" points="0,-131.1 49.61,-131.1 "/>
<text text-anchor="middle" x="24.8" y="-114.5" font-family="Courier New" font-size="14.00">0</text>
<polyline fill="none" stroke="black" points="0,-106.3 49.61,-106.3 "/>
<text text-anchor="middle" x="24.8" y="-89.7" font-family="Courier New" font-size="14.00">1</text>
<polyline fill="none" stroke="black" points="49.61,-81.5 49.61,-155.9 "/>
<text text-anchor="middle" x="423.06" y="-139.3" font-family="Courier New" font-size="14.00">type: &lt;inherited contract&gt;.variable (bytes)</text>
<polyline fill="none" stroke="black" points="49.61,-131.1 796.52,-131.1 "/>
<text text-anchor="middle" x="422.95" y="-114.5" font-family="Courier New" font-size="14.00">PoolBoosterEntry[]: AbstractPoolBoosterFactory.poolBoosters (32)</text>
<polyline fill="none" stroke="black" points="49.61,-106.3 796.52,-106.3 "/>
<text text-anchor="middle" x="423.06" y="-89.7" font-family="Courier New" font-size="14.00">mapping(address=&gt;PoolBoosterEntry): AbstractPoolBoosterFactory.poolBoosterFromPool (32)</text>
</g>
<!-- 2 -->
<g id="node3" class="node">
<title>2</title>
<polygon fill="#f2f2f2" stroke="black" points="923.74,-118.5 923.74,-209.7 1494.23,-209.7 1494.23,-118.5 923.74,-118.5"/>
<text text-anchor="middle" x="1208.98" y="-193.1" font-family="Courier New" font-size="14.00">PoolBoosterEntry[]: poolBoosters &lt;&lt;Array&gt;&gt;</text>
<text text-anchor="middle" x="1208.98" y="-176.3" font-family="Courier New" font-size="14.00">0x290decd9548b62a8d60345a988386fc84ba6bc95484008f6362f93160ef3e563</text>
<polyline fill="none" stroke="black" points="923.74,-168.1 1494.23,-168.1 "/>
<text text-anchor="middle" x="1032.44" y="-151.5" font-family="Courier New" font-size="14.00">offset</text>
<polyline fill="none" stroke="black" points="923.74,-143.3 1141.14,-143.3 "/>
<text text-anchor="middle" x="1032.44" y="-126.7" font-family="Courier New" font-size="14.00">0&#45;1</text>
<polyline fill="none" stroke="black" points="1141.14,-118.5 1141.14,-168.1 "/>
<text text-anchor="middle" x="1317.56" y="-151.5" font-family="Courier New" font-size="14.00">type: variable (bytes)</text>
<polyline fill="none" stroke="black" points="1141.14,-143.3 1493.97,-143.3 "/>
<text text-anchor="middle" x="1317.36" y="-126.7" font-family="Courier New" font-size="14.00">PoolBoosterEntry (64)</text>
</g>
<!-- 4&#45;&gt;2 -->
<g id="edge1" class="edge">
<title>4:5&#45;&gt;2</title>
<path fill="none" stroke="black" d="M796.52,-119.1C834.53,-119.1 874.4,-121.02 913.73,-124.07"/>
<polygon fill="black" stroke="black" points="913.47,-127.56 923.72,-124.87 914.03,-120.58 913.47,-127.56"/>
</g>
<!-- 3 -->
<g id="node4" class="node">
<title>3</title>
<polygon fill="#f2f2f2" stroke="black" points="832.52,-0.5 832.52,-99.7 1585.44,-99.7 1585.44,-0.5 832.52,-0.5"/>
<text text-anchor="middle" x="1208.98" y="-83.1" font-family="Courier New" font-size="14.00">PoolBoosterEntry &lt;&lt;Struct&gt;&gt;</text>
<polyline fill="none" stroke="black" points="832.52,-74.9 1585.44,-74.9 "/>
<text text-anchor="middle" x="865.73" y="-58.3" font-family="Courier New" font-size="14.00">offset</text>
<polyline fill="none" stroke="black" points="832.52,-50.1 898.93,-50.1 "/>
<text text-anchor="middle" x="865.73" y="-33.5" font-family="Courier New" font-size="14.00">0</text>
<polyline fill="none" stroke="black" points="832.52,-25.3 898.93,-25.3 "/>
<text text-anchor="middle" x="865.73" y="-8.7" font-family="Courier New" font-size="14.00">1</text>
<polyline fill="none" stroke="black" points="898.93,-0.5 898.93,-74.9 "/>
<text text-anchor="middle" x="1242.18" y="-58.3" font-family="Courier New" font-size="14.00">type: variable (bytes)</text>
<polyline fill="none" stroke="black" points="898.93,-50.1 1585.44,-50.1 "/>
<text text-anchor="middle" x="1045.14" y="-33.5" font-family="Courier New" font-size="14.00">unallocated (12)</text>
<polyline fill="none" stroke="black" points="1191.35,-25.3 1191.35,-50.1 "/>
<text text-anchor="middle" x="1387.97" y="-33.5" font-family="Courier New" font-size="14.00">address: boosterAddress (20)</text>
<polyline fill="none" stroke="black" points="898.93,-25.3 1585.44,-25.3 "/>
<text text-anchor="middle" x="974.14" y="-8.7" font-family="Courier New" font-size="14.00">unallocated (11)</text>
<polyline fill="none" stroke="black" points="1049.35,-0.5 1049.35,-25.3 "/>
<text text-anchor="middle" x="1191.78" y="-8.7" font-family="Courier New" font-size="14.00">PoolBoosterType: boosterType (1)</text>
<polyline fill="none" stroke="black" points="1334.2,-0.5 1334.2,-25.3 "/>
<text text-anchor="middle" x="1459.82" y="-8.7" font-family="Courier New" font-size="14.00">address: ammPoolAddress (20)</text>
</g>
<!-- 4&#45;&gt;3 -->
<g id="edge2" class="edge">
<title>4:9&#45;&gt;3</title>
<path fill="none" stroke="black" d="M796.52,-94.1C804.98,-94.1 813.53,-94.01 822.14,-93.83"/>
<polygon fill="black" stroke="black" points="822.37,-97.33 832.28,-93.58 822.2,-90.33 822.37,-97.33"/>
</g>
<!-- 1 -->
<g id="node2" class="node">
<title>1</title>
<polygon fill="#f2f2f2" stroke="black" points="1621.44,-73.1 1621.44,-189.1 2374.35,-189.1 2374.35,-73.1 1621.44,-73.1"/>
<text text-anchor="middle" x="1997.89" y="-172.5" font-family="Courier New" font-size="14.00">PoolBoosterEntry &lt;&lt;Struct&gt;&gt;</text>
<text text-anchor="middle" x="1997.89" y="-155.7" font-family="Courier New" font-size="14.00">0x290decd9548b62a8d60345a988386fc84ba6bc95484008f6362f93160ef3e563</text>
<polyline fill="none" stroke="black" points="1621.44,-147.5 2374.35,-147.5 "/>
<text text-anchor="middle" x="1654.64" y="-130.9" font-family="Courier New" font-size="14.00">offset</text>
<polyline fill="none" stroke="black" points="1621.44,-122.7 1687.84,-122.7 "/>
<text text-anchor="middle" x="1654.64" y="-106.1" font-family="Courier New" font-size="14.00">0</text>
<polyline fill="none" stroke="black" points="1621.44,-97.9 1687.84,-97.9 "/>
<text text-anchor="middle" x="1654.64" y="-81.3" font-family="Courier New" font-size="14.00">1</text>
<polyline fill="none" stroke="black" points="1687.84,-73.1 1687.84,-147.5 "/>
<text text-anchor="middle" x="2031.1" y="-130.9" font-family="Courier New" font-size="14.00">type: variable (bytes)</text>
<polyline fill="none" stroke="black" points="1687.84,-122.7 2374.35,-122.7 "/>
<text text-anchor="middle" x="1834.06" y="-106.1" font-family="Courier New" font-size="14.00">unallocated (12)</text>
<polyline fill="none" stroke="black" points="1980.27,-97.9 1980.27,-122.7 "/>
<text text-anchor="middle" x="2176.89" y="-106.1" font-family="Courier New" font-size="14.00">address: boosterAddress (20)</text>
<polyline fill="none" stroke="black" points="1687.84,-97.9 2374.35,-97.9 "/>
<text text-anchor="middle" x="1763.06" y="-81.3" font-family="Courier New" font-size="14.00">unallocated (11)</text>
<polyline fill="none" stroke="black" points="1838.27,-73.1 1838.27,-97.9 "/>
<text text-anchor="middle" x="1980.69" y="-81.3" font-family="Courier New" font-size="14.00">PoolBoosterType: boosterType (1)</text>
<polyline fill="none" stroke="black" points="2123.11,-73.1 2123.11,-97.9 "/>
<text text-anchor="middle" x="2248.73" y="-81.3" font-family="Courier New" font-size="14.00">address: ammPoolAddress (20)</text>
</g>
<!-- 2&#45;&gt;1 -->
<g id="edge3" class="edge">
<title>2:4&#45;&gt;1</title>
<path fill="none" stroke="black" d="M1494.98,-131.1C1532.58,-131.1 1571.75,-131.1 1610.92,-131.1"/>
<polygon fill="black" stroke="black" points="1611.41,-134.6 1621.41,-131.1 1611.41,-127.6 1611.41,-134.6"/>
</g>
</g>
</svg>
