<?xml version="1.0" encoding="UTF-8" standalone="no"?>
<!DOCTYPE svg PUBLIC "-//W3C//DTD SVG 1.1//EN"
 "http://www.w3.org/Graphics/SVG/1.1/DTD/svg11.dtd">
<!-- Generated by graphviz version 5.0.0 (20220707.1540)
 -->
<!-- Title: StorageDiagram Pages: 1 -->
<svg width="2382pt" height="410pt"
 viewBox="0.00 0.00 2382.35 410.40" xmlns="http://www.w3.org/2000/svg" xmlns:xlink="http://www.w3.org/1999/xlink">
<g id="graph0" class="graph" transform="scale(1 1) rotate(0) translate(4 406.4)">
<title>StorageDiagram</title>
<polygon fill="white" stroke="transparent" points="-4,4 -4,-406.4 2378.35,-406.4 2378.35,4 -4,4"/>
<!-- 5 -->
<g id="node1" class="node">
<title>5</title>
<polygon fill="#f2f2f2" stroke="black" points="0,-205.3 0,-329.3 796.52,-329.3 796.52,-205.3 0,-205.3"/>
<text text-anchor="middle" x="398.26" y="-312.7" font-family="Courier New" font-size="14.00">PoolBoosterFactorySwapxIchi &lt;&lt;Contract&gt;&gt;</text>
<polyline fill="none" stroke="black" points="0,-304.5 796.52,-304.5 "/>
<text text-anchor="middle" x="24.8" y="-287.9" font-family="Courier New" font-size="14.00">slot</text>
<polyline fill="none" stroke="black" points="0,-279.7 49.61,-279.7 "/>
<text text-anchor="middle" x="24.8" y="-263.1" font-family="Courier New" font-size="14.00">0</text>
<polyline fill="none" stroke="black" points="0,-254.9 49.61,-254.9 "/>
<text text-anchor="middle" x="24.8" y="-238.3" font-family="Courier New" font-size="14.00">1</text>
<polyline fill="none" stroke="black" points="0,-230.1 49.61,-230.1 "/>
<text text-anchor="middle" x="24.8" y="-213.5" font-family="Courier New" font-size="14.00">2&#45;49</text>
<polyline fill="none" stroke="black" points="49.61,-205.3 49.61,-304.5 "/>
<text text-anchor="middle" x="423.06" y="-287.9" font-family="Courier New" font-size="14.00">type: &lt;inherited contract&gt;.variable (bytes)</text>
<polyline fill="none" stroke="black" points="49.61,-279.7 796.52,-279.7 "/>
<text text-anchor="middle" x="422.95" y="-263.1" font-family="Courier New" font-size="14.00">PoolBoosterEntry[]: AbstractPoolBoosterFactory.poolBoosters (32)</text>
<polyline fill="none" stroke="black" points="49.61,-254.9 796.52,-254.9 "/>
<text text-anchor="middle" x="423.06" y="-238.3" font-family="Courier New" font-size="14.00">mapping(address=&gt;PoolBoosterEntry): AbstractPoolBoosterFactory.poolBoosterFromPool (32)</text>
<polyline fill="none" stroke="black" points="49.61,-230.1 796.52,-230.1 "/>
<text text-anchor="middle" x="422.74" y="-213.5" font-family="Courier New" font-size="14.00">uint256[48]: AbstractPoolBoosterFactory.___gap (1536)</text>
</g>
<!-- 2 -->
<g id="node3" class="node">
<title>2</title>
<polygon fill="#f2f2f2" stroke="black" points="923.74,-310.7 923.74,-401.9 1494.23,-401.9 1494.23,-310.7 923.74,-310.7"/>
<text text-anchor="middle" x="1208.98" y="-385.3" font-family="Courier New" font-size="14.00">PoolBoosterEntry[]: poolBoosters &lt;&lt;Array&gt;&gt;</text>
<text text-anchor="middle" x="1208.98" y="-368.5" font-family="Courier New" font-size="14.00">0x290decd9548b62a8d60345a988386fc84ba6bc95484008f6362f93160ef3e563</text>
<polyline fill="none" stroke="black" points="923.74,-360.3 1494.23,-360.3 "/>
<text text-anchor="middle" x="1032.44" y="-343.7" font-family="Courier New" font-size="14.00">offset</text>
<polyline fill="none" stroke="black" points="923.74,-335.5 1141.14,-335.5 "/>
<text text-anchor="middle" x="1032.44" y="-318.9" font-family="Courier New" font-size="14.00">0&#45;1</text>
<polyline fill="none" stroke="black" points="1141.14,-310.7 1141.14,-360.3 "/>
<text text-anchor="middle" x="1317.56" y="-343.7" font-family="Courier New" font-size="14.00">type: variable (bytes)</text>
<polyline fill="none" stroke="black" points="1141.14,-335.5 1493.97,-335.5 "/>
<text text-anchor="middle" x="1317.36" y="-318.9" font-family="Courier New" font-size="14.00">PoolBoosterEntry (64)</text>
</g>
<!-- 5&#45;&gt;2 -->
<g id="edge1" class="edge">
<title>5:5&#45;&gt;2</title>
<path fill="none" stroke="black" d="M796.52,-267.3C818.53,-267.3 812.72,-291.7 832.52,-301.3 857.98,-313.63 885.46,-323.38 913.57,-331.05"/>
<polygon fill="black" stroke="black" points="912.97,-334.51 923.53,-333.68 914.76,-327.75 912.97,-334.51"/>
</g>
<!-- 3 -->
<g id="node4" class="node">
<title>3</title>
<polygon fill="#f2f2f2" stroke="black" points="832.52,-192.7 832.52,-291.9 1585.44,-291.9 1585.44,-192.7 832.52,-192.7"/>
<text text-anchor="middle" x="1208.98" y="-275.3" font-family="Courier New" font-size="14.00">PoolBoosterEntry &lt;&lt;Struct&gt;&gt;</text>
<polyline fill="none" stroke="black" points="832.52,-267.1 1585.44,-267.1 "/>
<text text-anchor="middle" x="865.73" y="-250.5" font-family="Courier New" font-size="14.00">offset</text>
<polyline fill="none" stroke="black" points="832.52,-242.3 898.93,-242.3 "/>
<text text-anchor="middle" x="865.73" y="-225.7" font-family="Courier New" font-size="14.00">0</text>
<polyline fill="none" stroke="black" points="832.52,-217.5 898.93,-217.5 "/>
<text text-anchor="middle" x="865.73" y="-200.9" font-family="Courier New" font-size="14.00">1</text>
<polyline fill="none" stroke="black" points="898.93,-192.7 898.93,-267.1 "/>
<text text-anchor="middle" x="1242.18" y="-250.5" font-family="Courier New" font-size="14.00">type: variable (bytes)</text>
<polyline fill="none" stroke="black" points="898.93,-242.3 1585.44,-242.3 "/>
<text text-anchor="middle" x="1045.14" y="-225.7" font-family="Courier New" font-size="14.00">unallocated (12)</text>
<polyline fill="none" stroke="black" points="1191.35,-217.5 1191.35,-242.3 "/>
<text text-anchor="middle" x="1387.97" y="-225.7" font-family="Courier New" font-size="14.00">address: boosterAddress (20)</text>
<polyline fill="none" stroke="black" points="898.93,-217.5 1585.44,-217.5 "/>
<text text-anchor="middle" x="974.14" y="-200.9" font-family="Courier New" font-size="14.00">unallocated (11)</text>
<polyline fill="none" stroke="black" points="1049.35,-192.7 1049.35,-217.5 "/>
<text text-anchor="middle" x="1191.78" y="-200.9" font-family="Courier New" font-size="14.00">PoolBoosterType: boosterType (1)</text>
<polyline fill="none" stroke="black" points="1334.2,-192.7 1334.2,-217.5 "/>
<text text-anchor="middle" x="1459.82" y="-200.9" font-family="Courier New" font-size="14.00">address: ammPoolAddress (20)</text>
</g>
<!-- 5&#45;&gt;3 -->
<g id="edge2" class="edge">
<title>5:9&#45;&gt;3</title>
<path fill="none" stroke="black" d="M796.52,-242.3C805,-242.3 813.57,-242.3 822.21,-242.3"/>
<polygon fill="black" stroke="black" points="822.38,-245.8 832.38,-242.3 822.38,-238.8 822.38,-245.8"/>
</g>
<!-- 4 -->
<g id="node5" class="node">
<title>4</title>
<polygon fill="#f2f2f2" stroke="black" points="1079.16,-0.5 1079.16,-174.1 1338.8,-174.1 1338.8,-0.5 1079.16,-0.5"/>
<text text-anchor="middle" x="1208.98" y="-157.5" font-family="Courier New" font-size="14.00">uint256[48]: ___gap &lt;&lt;Array&gt;&gt;</text>
<polyline fill="none" stroke="black" points="1079.16,-149.3 1338.8,-149.3 "/>
<text text-anchor="middle" x="1105.96" y="-132.7" font-family="Courier New" font-size="14.00">slot</text>
<polyline fill="none" stroke="black" points="1079.16,-124.5 1132.77,-124.5 "/>
<text text-anchor="middle" x="1105.96" y="-107.9" font-family="Courier New" font-size="14.00">2</text>
<polyline fill="none" stroke="black" points="1079.16,-99.7 1132.77,-99.7 "/>
<text text-anchor="middle" x="1105.96" y="-83.1" font-family="Courier New" font-size="14.00">3</text>
<polyline fill="none" stroke="black" points="1079.16,-74.9 1132.77,-74.9 "/>
<text text-anchor="middle" x="1105.96" y="-58.3" font-family="Courier New" font-size="14.00">4&#45;47</text>
<polyline fill="none" stroke="black" points="1079.16,-50.1 1132.77,-50.1 "/>
<text text-anchor="middle" x="1105.96" y="-33.5" font-family="Courier New" font-size="14.00">48</text>
<polyline fill="none" stroke="black" points="1079.16,-25.3 1132.77,-25.3 "/>
<text text-anchor="middle" x="1105.96" y="-8.7" font-family="Courier New" font-size="14.00">49</text>
<polyline fill="none" stroke="black" points="1132.77,-0.5 1132.77,-149.3 "/>
<text text-anchor="middle" x="1235.68" y="-132.7" font-family="Courier New" font-size="14.00">type: variable (bytes)</text>
<polyline fill="none" stroke="black" points="1132.77,-124.5 1338.6,-124.5 "/>
<text text-anchor="middle" x="1235.67" y="-107.9" font-family="Courier New" font-size="14.00">uint256 (32)</text>
<polyline fill="none" stroke="black" points="1132.77,-99.7 1338.6,-99.7 "/>
<text text-anchor="middle" x="1235.67" y="-83.1" font-family="Courier New" font-size="14.00">uint256 (32)</text>
<polyline fill="none" stroke="black" points="1132.77,-74.9 1338.6,-74.9 "/>
<text text-anchor="middle" x="1235.47" y="-58.3" font-family="Courier New" font-size="14.00">&#45;&#45;&#45;&#45; (1408)</text>
<polyline fill="none" stroke="black" points="1132.77,-50.1 1338.6,-50.1 "/>
<text text-anchor="middle" x="1235.67" y="-33.5" font-family="Courier New" font-size="14.00">uint256 (32)</text>
<polyline fill="none" stroke="black" points="1132.77,-25.3 1338.6,-25.3 "/>
<text text-anchor="middle" x="1235.67" y="-8.7" font-family="Courier New" font-size="14.00">uint256 (32)</text>
</g>
<!-- 5&#45;&gt;4 -->
<g id="edge3" class="edge">
<title>5:15&#45;&gt;4</title>
<path fill="none" stroke="black" d="M796.52,-217.3C818.53,-217.3 813.25,-193.92 832.52,-183.3 905.27,-143.22 995.16,-119.47 1068.74,-105.62"/>
<polygon fill="black" stroke="black" points="1069.81,-108.99 1079.02,-103.74 1068.55,-102.1 1069.81,-108.99"/>
</g>
<!-- 1 -->
<g id="node2" class="node">
<title>1</title>
<polygon fill="#f2f2f2" stroke="black" points="1621.44,-265.3 1621.44,-381.3 2374.35,-381.3 2374.35,-265.3 1621.44,-265.3"/>
<text text-anchor="middle" x="1997.89" y="-364.7" font-family="Courier New" font-size="14.00">PoolBoosterEntry &lt;&lt;Struct&gt;&gt;</text>
<text text-anchor="middle" x="1997.89" y="-347.9" font-family="Courier New" font-size="14.00">0x290decd9548b62a8d60345a988386fc84ba6bc95484008f6362f93160ef3e563</text>
<polyline fill="none" stroke="black" points="1621.44,-339.7 2374.35,-339.7 "/>
<text text-anchor="middle" x="1654.64" y="-323.1" font-family="Courier New" font-size="14.00">offset</text>
<polyline fill="none" stroke="black" points="1621.44,-314.9 1687.84,-314.9 "/>
<text text-anchor="middle" x="1654.64" y="-298.3" font-family="Courier New" font-size="14.00">0</text>
<polyline fill="none" stroke="black" points="1621.44,-290.1 1687.84,-290.1 "/>
<text text-anchor="middle" x="1654.64" y="-273.5" font-family="Courier New" font-size="14.00">1</text>
<polyline fill="none" stroke="black" points="1687.84,-265.3 1687.84,-339.7 "/>
<text text-anchor="middle" x="2031.1" y="-323.1" font-family="Courier New" font-size="14.00">type: variable (bytes)</text>
<polyline fill="none" stroke="black" points="1687.84,-314.9 2374.35,-314.9 "/>
<text text-anchor="middle" x="1834.06" y="-298.3" font-family="Courier New" font-size="14.00">unallocated (12)</text>
<polyline fill="none" stroke="black" points="1980.27,-290.1 1980.27,-314.9 "/>
<text text-anchor="middle" x="2176.89" y="-298.3" font-family="Courier New" font-size="14.00">address: boosterAddress (20)</text>
<polyline fill="none" stroke="black" points="1687.84,-290.1 2374.35,-290.1 "/>
<text text-anchor="middle" x="1763.06" y="-273.5" font-family="Courier New" font-size="14.00">unallocated (11)</text>
<polyline fill="none" stroke="black" points="1838.27,-265.3 1838.27,-290.1 "/>
<text text-anchor="middle" x="1980.69" y="-273.5" font-family="Courier New" font-size="14.00">PoolBoosterType: boosterType (1)</text>
<polyline fill="none" stroke="black" points="2123.11,-265.3 2123.11,-290.1 "/>
<text text-anchor="middle" x="2248.73" y="-273.5" font-family="Courier New" font-size="14.00">address: ammPoolAddress (20)</text>
</g>
<!-- 2&#45;&gt;1 -->
<g id="edge4" class="edge">
<title>2:4&#45;&gt;1</title>
<path fill="none" stroke="black" d="M1494.98,-323.3C1532.58,-323.3 1571.75,-323.3 1610.92,-323.3"/>
<polygon fill="black" stroke="black" points="1611.41,-326.8 1621.41,-323.3 1611.41,-319.8 1611.41,-326.8"/>
</g>
</g>
</svg>
