<svg width="27" height="27" viewBox="0 0 27 27" xmlns="http://www.w3.org/2000/svg" xmlns:xlink="http://www.w3.org/1999/xlink">
    <defs>
        <linearGradient x1="50.898%" y1="79.568%" x2="41.036%" y2="-11.87%" id="ydmfgf9aae">
            <stop stop-color="#FFF" offset=".058%"/>
            <stop stop-color="#1E313F" offset="100%"/>
        </linearGradient>
        <linearGradient x1="48.094%" y1="17.958%" x2="58.005%" y2="112.287%" id="ee019pz26f">
            <stop stop-color="#FFF" offset=".058%"/>
            <stop stop-color="#4E5A64" offset="99.67%"/>
        </linearGradient>
        <path d="M.855.218.81.303C.785.35.76.396.737.443a5.893 5.893 0 0 0-.111.235C.61.71.595.741.582.774a6.24 6.24 0 0 0-.067.162l-.03.076c-.03.079-.059.158-.086.239l-.025.079a6.625 6.625 0 0 0-.054.173L.293 1.6a6.988 6.988 0 0 0-.068.262l-.04.182-.017.082a7.325 7.325 0 0 0-.047.265l-.008.052a7.552 7.552 0 0 0-.03.222l-.01.093a7.084 7.084 0 0 0-.026.287c-.005.065-.009.13-.012.196l-.004.087a7.945 7.945 0 0 0 0 .578l.005.096.011.193.01.116a7.822 7.822 0 0 0 .032.294l.022.155.02.13.026.144.027.135.03.133c.01.046.02.093.032.14l.03.115c.014.05.027.101.042.151l.011.036a6.6 6.6 0 0 0 .139.412l.013.037c.023.06.047.119.072.177.009.022.017.045.027.066.024.057.05.112.075.168l.032.068a5.983 5.983 0 0 0 .115.227c.029.055.059.109.09.162l.032.056c.032.055.065.11.1.163l.026.04a5.34 5.34 0 0 0 .414.56v.002l1.96-1.276c-.573-.585-.91-1.485-.966-2.638C1.388 3.312.847 2.336.847 1.059c0-.373.044-.725.13-1.05a5.742 5.742 0 0 0-.122.21" id="j04k6vel4a"/>
        <path d="M.006 1.67c.336.499.548 1.13.626 1.893.273.131.517.28.726.444.795.622 1.198 1.523 1.198 2.678 0 .14-.006.277-.018.41l.004-.008a6.561 6.561 0 0 0 .14-.362c.025-.069.049-.138.07-.209l.032-.1.037-.125.045-.168.03-.129.033-.144.02-.096a7.56 7.56 0 0 0 .087-.547l.005-.052a7.67 7.67 0 0 0 .022-.225l.005-.06c.007-.086.012-.173.015-.26l.002-.056a8.12 8.12 0 0 0 0-.577L3.08 3.88l-.012-.201-.01-.116c-.006-.059-.01-.118-.017-.176l-.016-.124-.023-.164c-.006-.043-.014-.085-.021-.128a7.208 7.208 0 0 0-.054-.285l-.033-.148a6.331 6.331 0 0 0-.107-.402 6.851 6.851 0 0 0-.085-.266H2.7a6.16 6.16 0 0 0-.095-.259 6.034 6.034 0 0 0-.053-.126L2.5 1.36l-.056-.122-.06-.123c-.019-.039-.04-.078-.06-.116C2.303.96 2.282.919 2.26.88 2.24.841 2.217.804 2.195.767c-.023-.04-.045-.08-.07-.118C2.105.615 2.08.58 2.058.545a5.267 5.267 0 0 0-.396-.537L.006 1.67z" id="ztti1wiucc"/>
    </defs>
    <g fill="none" fill-rule="evenodd">
        <path d="M13.735.032C6.464.057.59 5.971.614 13.242c.006 1.666.321 3.26.891 4.726a5.306 5.306 0 0 1 3.118-1.009 5.34 5.34 0 0 1 5.335 5.335A5.306 5.306 0 0 1 8.93 25.44c1.514.6 3.166.928 4.894.922 7.27-.024 13.145-5.938 13.12-13.209C26.92 5.883 21.006.008 13.736.033" fill="#1E313F"/>
        <g transform="translate(8.373 9.589)">
            <mask id="36fq8ls07b" fill="#fff">
                <use xlink:href="#j04k6vel4a"/>
            </mask>
            <path d="M.855.218.81.303C.785.35.76.396.737.443a5.893 5.893 0 0 0-.111.235C.61.71.595.741.582.774a6.24 6.24 0 0 0-.067.162l-.03.076c-.03.079-.059.158-.086.239l-.025.079a6.625 6.625 0 0 0-.054.173L.293 1.6a6.988 6.988 0 0 0-.068.262l-.04.182-.017.082a7.325 7.325 0 0 0-.047.265l-.008.052a7.552 7.552 0 0 0-.03.222l-.01.093a7.084 7.084 0 0 0-.026.287c-.005.065-.009.13-.012.196l-.004.087a7.945 7.945 0 0 0 0 .578l.005.096.011.193.01.116a7.822 7.822 0 0 0 .032.294l.022.155.02.13.026.144.027.135.03.133c.01.046.02.093.032.14l.03.115c.014.05.027.101.042.151l.011.036a6.6 6.6 0 0 0 .139.412l.013.037c.023.06.047.119.072.177.009.022.017.045.027.066.024.057.05.112.075.168l.032.068a5.983 5.983 0 0 0 .115.227c.029.055.059.109.09.162l.032.056c.032.055.065.11.1.163l.026.04a5.34 5.34 0 0 0 .414.56v.002l1.96-1.276c-.573-.585-.91-1.485-.966-2.638C1.388 3.312.847 2.336.847 1.059c0-.373.044-.725.13-1.05a5.742 5.742 0 0 0-.122.21" mask="url(#36fq8ls07b)"/>
        </g>
        <g transform="translate(16.068 8.91)">
            <mask id="w8rk4tvhyd" fill="#fff">
                <use xlink:href="#ztti1wiucc"/>
            </mask>
            <path d="M.006 1.67c.336.499.548 1.13.626 1.893.273.131.517.28.726.444.795.622 1.198 1.523 1.198 2.678 0 .14-.006.277-.018.41l.004-.008a6.561 6.561 0 0 0 .14-.362c.025-.069.049-.138.07-.209l.032-.1.037-.125.045-.168.03-.129.033-.144.02-.096a7.56 7.56 0 0 0 .087-.547l.005-.052a7.67 7.67 0 0 0 .022-.225l.005-.06c.007-.086.012-.173.015-.26l.002-.056a8.12 8.12 0 0 0 0-.577L3.08 3.88l-.012-.201-.01-.116c-.006-.059-.01-.118-.017-.176l-.016-.124-.023-.164c-.006-.043-.014-.085-.021-.128a7.208 7.208 0 0 0-.054-.285l-.033-.148a6.331 6.331 0 0 0-.107-.402 6.851 6.851 0 0 0-.085-.266H2.7a6.16 6.16 0 0 0-.095-.259 6.034 6.034 0 0 0-.053-.126L2.5 1.36l-.056-.122-.06-.123c-.019-.039-.04-.078-.06-.116C2.303.96 2.282.919 2.26.88 2.24.841 2.217.804 2.195.767c-.023-.04-.045-.08-.07-.118C2.105.615 2.08.58 2.058.545a5.267 5.267 0 0 0-.396-.537L.006 1.67z" mask="url(#w8rk4tvhyd)"/>
        </g>
        <path d="M4.623 17.67A4.629 4.629 0 0 0 0 22.295a4.629 4.629 0 0 0 4.623 4.623 4.629 4.629 0 0 0 4.624-4.623 4.629 4.629 0 0 0-4.624-4.623" fill="#1A82FF"/>
        <path fill="#FFF" d="m7.417 20.64-.848 3.702H5.126l-.429-2.102-.429 2.102H2.825l-.847-3.703h1.25l.334 2.333.502-2.333H5.33l.502 2.333.335-2.333z"/>
        <path d="M21.814 21.803c4.583-4.615 4.56-12.06-.055-16.643C17.143.577 9.698.6 5.115 5.215l16.7 16.588z" fill="#FFF" fill-rule="nonzero" opacity=".2"/>
        <g fill-rule="nonzero">
            <path d="M15.188 11.866c-.129-.022-.246-.054-.364-.075-1.584-.321-2.729-.546-2.729-1.648 0-.685.675-1.23 1.884-1.23 1.08 0 1.936.438 2.493 1.262l.085.022L18.28 8.43l-.01-.064a5.286 5.286 0 0 0-2.547-1.68 5.696 5.696 0 0 0-.407-.107h-.01c-.054-.01-.097-.021-.15-.032V4.986h-2.354v1.562c-.075.01-.15.032-.225.043h-.01A5.32 5.32 0 0 0 9.72 8.324c-.32.535-.481 1.177-.481 1.916 0 2.525 1.904 3.327 3.766 3.776.342.086.685.15 1.016.204 1.167.214 2.172.396 2.172 1.444 0 .653-.716 1.466-2.214 1.466-.888 0-1.616-.3-2.151-.845-.032-.032-.075-.064-.107-.097l-2.033 1.413v.075c.289.342.61.642.952.898.118.086.236.161.353.236h.011c.118.075.246.139.364.203 0 0 .01 0 .01.01.129.065.247.119.375.172.01 0 .01 0 .021.01.129.054.257.097.386.14.01 0 .021 0 .021.01.064.022.118.033.182.054h.021c.065.021.129.032.204.054.01 0 .021 0 .032.01.053.011.117.022.17.032v1.562h2.355v-1.562c.043-.01.085-.01.128-.021h.022c.16-.032.32-.075.481-.128.075-.022.16-.054.236-.075a5.401 5.401 0 0 0 2.246-1.584c.236-.278.44-.567.621-.888.096-.342.14-.728.14-1.134.01-2.718-2.045-3.456-3.831-3.81z" fill="#FAFBFC"/>
            <path d="M1.637 12.743a4.057 4.057 0 0 1-.321-.428 2.677 2.677 0 0 0-.128-.182c-.011-.01-.022-.032-.032-.042-.033-.054-.075-.118-.107-.182l-.033-.065c-.032-.053-.064-.117-.096-.17l-.032-.065a.948.948 0 0 1-.086-.182c-.01-.021-.02-.053-.032-.075-.032-.064-.053-.117-.085-.182a.522.522 0 0 1-.032-.075c-.022-.064-.054-.128-.075-.192 0-.01-.01-.032-.01-.043a7.37 7.37 0 0 1-.15-.45c0-.01-.011-.02-.011-.042-.011-.054-.033-.107-.043-.16l-.032-.129C.32 10.026.31 9.983.3 9.929L.267 9.79c-.01-.053-.02-.096-.032-.15l-.032-.16c-.01-.043-.01-.096-.021-.14-.01-.053-.022-.106-.022-.17-.01-.043-.01-.086-.02-.14-.012-.064-.012-.117-.022-.181 0-.043-.011-.086-.011-.129 0-.075-.01-.139-.01-.214 0-.032 0-.064-.011-.107 0-.107-.011-.214-.011-.32 0-.108 0-.204.01-.311v-.096c0-.075.011-.14.011-.214 0-.032.011-.075.011-.107.01-.065.01-.14.021-.204 0-.032.011-.064.011-.096a13 13 0 0 1 .032-.235c0-.022 0-.043.01-.054.012-.096.033-.192.054-.289.011-.032.011-.064.022-.085.01-.065.032-.129.043-.193a.38.38 0 0 0 .021-.107c.01-.064.032-.118.043-.182.01-.032.021-.075.032-.107.021-.064.043-.128.053-.192.011-.033.022-.054.032-.086l.097-.257c.01-.032.021-.053.032-.085.021-.065.043-.118.075-.182.01-.032.032-.064.043-.107a.978.978 0 0 1 .074-.15c.022-.032.033-.075.054-.107.021-.054.053-.096.075-.15.021-.032.032-.064.053-.096l.129-.225a4.36 4.36 0 0 0-.14 1.145c0 1.39.59 2.45 1.755 3.167.065 1.252.428 2.236 1.049 2.868l-2.14 1.401z" fill="url(#ydmfgf9aae)" transform="translate(8.062 4.922)"/>
            <path d="M8.42 5.253c.364.546.6 1.231.685 2.055.3.139.557.3.792.481.867.674 1.305 1.659 1.305 2.91 0 .15-.01.3-.02.45v-.01c.042-.097.085-.204.117-.311.01-.032.021-.054.032-.086.021-.075.053-.15.075-.224.01-.032.021-.075.032-.107.01-.043.032-.097.043-.14.021-.064.032-.117.053-.181l.032-.14.032-.16c.011-.032.011-.075.022-.107.01-.075.032-.16.043-.235 0-.032.01-.064.01-.097l.032-.256c0-.022 0-.032.011-.054.01-.085.021-.16.021-.246 0-.021 0-.043.011-.064.01-.096.01-.193.022-.289v-.064c0-.097.01-.204.01-.3 0-.107 0-.214-.01-.331 0-.033 0-.065-.011-.107 0-.075-.01-.15-.01-.214 0-.043-.012-.086-.012-.129-.01-.064-.01-.128-.021-.192 0-.043-.01-.086-.021-.14-.011-.064-.011-.117-.022-.181-.01-.043-.01-.097-.021-.14l-.032-.17-.032-.14-.032-.16-.033-.14c-.01-.053-.032-.106-.042-.16-.011-.043-.022-.096-.043-.139-.01-.054-.032-.096-.043-.15-.01-.043-.032-.096-.043-.139-.021-.053-.032-.096-.053-.139-.022-.043-.032-.096-.054-.14-.021-.042-.032-.095-.053-.138a.743.743 0 0 1-.054-.14l-.064-.128a1.742 1.742 0 0 1-.064-.139l-.064-.128c-.022-.043-.043-.086-.075-.129a.442.442 0 0 0-.075-.117c-.022-.043-.054-.086-.075-.129-.021-.042-.054-.075-.075-.117a7.035 7.035 0 0 0-.246-.353c-.064-.086-.128-.16-.193-.236l-1.786 1.84z" fill="url(#ee019pz26f)" transform="translate(8.062 4.922)"/>
        </g>
    </g>
</svg>
