<svg width="24" height="24" viewBox="0 0 24 24" fill="none" xmlns="http://www.w3.org/2000/svg">
<path d="M12 24C18.6274 24 24 18.6274 24 12C24 5.37258 18.6274 0 12 0C5.37258 0 0 5.37258 0 12C0 18.6274 5.37258 24 12 24Z" fill="white"/>
<g clip-path="url(#clip0_712_256)">
<path d="M11.9985 4L11.8893 4.36451V14.9417L11.9985 15.0487L16.997 12.1466L11.9985 4Z" fill="#343434"/>
<path d="M11.9985 4L7 12.1466L11.9985 15.0488V9.91494V4Z" fill="#8C8C8C"/>
<path d="M11.9985 15.9784L11.937 16.052V19.8199L11.9985 19.9964L17 13.0776L11.9985 15.9784Z" fill="#3C3C3B"/>
<path d="M11.9985 19.9964V15.9784L7 13.0776L11.9985 19.9964Z" fill="#8C8C8C"/>
<path d="M11.9985 15.0488L16.9969 12.1467L11.9985 9.91504V15.0488Z" fill="#141414"/>
<path d="M7.00006 12.1467L11.9985 15.0488V9.91504L7.00006 12.1467Z" fill="#393939"/>
</g>
<defs>
<clipPath id="clip0_712_256">
<rect width="10" height="16" fill="white" transform="translate(7 4)"/>
</clipPath>
</defs>
</svg>
