<svg width="24" height="24" viewBox="0 0 24 24" fill="none" xmlns="http://www.w3.org/2000/svg">
<g clip-path="url(#clip0_722_260)">
<path d="M12 24C10.3803 24 8.80886 23.6825 7.32886 23.0568C5.89967 22.4523 4.61695 21.587 3.51457 20.4854C2.41304 19.3839 1.54773 18.1003 0.943202 16.6711C0.317505 15.1911 0 13.6197 0 12C0 10.3803 0.317505 8.80886 0.943202 7.32886C1.54773 5.89967 2.41304 4.61695 3.51457 3.51457C4.61695 2.41304 5.89967 1.54773 7.32886 0.943202C8.80886 0.317505 10.3803 0 12 0C13.6197 0 15.1911 0.317505 16.6711 0.943202C18.1003 1.54773 19.3831 2.41304 20.4854 3.51457C21.587 4.6161 22.4523 5.89967 23.0568 7.32886C23.6825 8.80886 24 10.3803 24 12C24 13.6197 23.6825 15.1911 23.0568 16.6711C22.4523 18.1003 21.587 19.3831 20.4854 20.4854C19.3839 21.587 18.1003 22.4523 16.6711 23.0568C15.1911 23.6833 13.6197 24 12 24Z" fill="white"/>
<path d="M12 23.364C18.2763 23.364 23.3642 18.2761 23.3642 11.9999C23.3642 5.72364 18.2763 0.635742 12 0.635742C5.72376 0.635742 0.635864 5.72364 0.635864 11.9999C0.635864 18.2761 5.72376 23.364 12 23.364Z" fill="black"/>
<path d="M12.2794 9.86548V15.1013L17.4052 11.9949L12.2794 9.86548Z" fill="white"/>
<path d="M12.2794 9.27461L17.3587 11.3854L16.1445 9.40584L18.726 6.82432L17.1834 5.28082L14.9719 7.49319L12.2794 3.104V9.27461Z" fill="white"/>
<path d="M11.7341 15.1013V9.86548L6.60834 11.9949L11.7341 15.1013Z" fill="white"/>
<path d="M6.65493 11.3854L11.7342 9.27461V3.104L9.04256 7.49319L6.83019 5.28082L5.28754 6.82432L7.86907 9.405L6.65493 11.3854Z" fill="white"/>
<path d="M17.3476 13.6248L12.2794 16.6965V20.7648L14.3648 17.826L16.5416 20.0028L18.0843 18.4601L15.6458 16.0217L17.3476 13.6248Z" fill="white"/>
<path d="M11.7342 16.6965L6.66593 13.6248L8.36776 16.0217L5.92932 18.4601L7.47197 20.0028L9.64879 17.8268L11.7342 20.764V16.6965Z" fill="white"/>
</g>
<defs>
<clipPath id="clip0_722_260">
<rect width="24" height="24" fill="white"/>
</clipPath>
</defs>
</svg>
