<svg width="24" height="24" viewBox="0 0 24 24" fill="none" xmlns="http://www.w3.org/2000/svg">
<path d="M12.0401 23.9598C18.6454 23.9377 23.9821 18.5651 23.9599 11.9598C23.9378 5.35456 18.5652 0.0178661 11.9599 0.0400004C5.35464 0.0621347 0.0179434 5.43472 0.0400777 12.04C0.062212 18.6453 5.43479 23.982 12.0401 23.9598Z" fill="#0074F0"/>
<path opacity="0.2" d="M19.4757 19.4278C23.5764 15.2996 23.5559 8.62482 19.4277 4.52408C15.2996 0.423334 8.62479 0.443872 4.52405 4.572L19.4757 19.4278Z" fill="white"/>
<path d="M11.5117 7.27648C11.6722 7.26007 11.8351 7.25167 12 7.25167C14.6215 7.25167 16.7467 9.37682 16.7467 11.9983C16.7467 14.0426 15.4544 15.785 13.6422 16.4533L12.0316 18.7183C15.7285 18.7012 18.72 15.6991 18.72 11.9983C18.72 8.52323 16.0822 5.66422 12.6996 5.31431L11.5117 7.27648Z" fill="white"/>
<path d="M11.8475 5.28003C8.20661 5.36109 5.28003 8.33794 5.28003 11.9983C5.28003 15.4228 7.84151 18.249 11.153 18.6655L12.5402 16.7146C12.3629 16.7347 12.1827 16.745 12 16.745C9.37852 16.745 7.25336 14.6198 7.25336 11.9983C7.25336 9.8976 8.61804 8.1156 10.5092 7.4905L11.8475 5.28003Z" fill="white"/>
<path d="M13.6422 16.4532C15.4544 15.785 16.7467 14.0425 16.7467 11.9983H18.7201C18.7201 15.6991 15.7285 18.7012 12.0317 18.7182L13.6422 16.4532Z" fill="url(#paint0_linear_732_374)"/>
<path d="M11.8475 5.28003C8.20662 5.36109 5.28003 8.33794 5.28003 11.9983C5.28003 11.9983 7.25336 12.0267 7.25336 11.9983C7.25336 9.8976 8.61804 8.1156 10.5092 7.4905L11.8475 5.28003Z" fill="url(#paint1_linear_732_374)"/>
<path d="M11.9879 17.4918L15.362 12.7402L11.9879 14.7315L8.61554 12.7402L11.9879 17.4918Z" fill="white"/>
<path opacity="0.1" d="M11.9879 17.4918L15.3621 12.7402L11.9879 14.7315V17.4918Z" fill="#0074F0"/>
<path d="M11.9777 14.1008L15.3686 12.1059L11.9777 6.50513L8.58673 12.1059L11.9777 14.1008Z" fill="url(#paint2_linear_732_374)"/>
<path d="M11.9777 14.1008L15.3686 12.1059L11.9777 6.50513L8.58673 12.1059L11.9777 14.1008Z" fill="white"/>
<path opacity="0.1" d="M11.9776 14.1007L8.58667 12.1059L11.9776 6.50513L11.9776 14.1007Z" fill="#0074F0"/>
<path opacity="0.1" d="M11.9776 14.1008V10.5161L8.58667 12.1058L11.9776 14.1008Z" fill="#0074F0"/>
<path opacity="0.1" d="M11.9777 14.1008V10.5161L15.3686 12.1058L11.9777 14.1008Z" fill="#0074F0"/>
<defs>
<linearGradient id="paint0_linear_732_374" x1="7.57565" y1="20.4183" x2="14.9765" y2="15.5703" gradientUnits="userSpaceOnUse">
<stop stop-color="#1A82FF" stop-opacity="0.5"/>
<stop offset="1" stop-color="white"/>
</linearGradient>
<linearGradient id="paint1_linear_732_374" x1="15.6267" y1="2.1868" x2="8.54554" y2="7.30317" gradientUnits="userSpaceOnUse">
<stop stop-color="#1A82FF" stop-opacity="0.5"/>
<stop offset="1" stop-color="white"/>
</linearGradient>
<linearGradient id="paint2_linear_732_374" x1="4.76353" y1="8.53331" x2="10.7042" y2="12.1586" gradientUnits="userSpaceOnUse">
<stop stop-color="#1C313F"/>
<stop offset="1" stop-color="white"/>
</linearGradient>
</defs>
</svg>
