<svg width="24" height="24" viewBox="0 0 24 24" fill="none" xmlns="http://www.w3.org/2000/svg">
<rect width="24" height="24" rx="12" fill="white"/>
<g clip-path="url(#clip0_718_257)">
<path d="M6.27955 10.7231L6.12902 10.9468C4.39783 13.6308 4.77418 17.135 7.10751 19.3717C8.38708 20.7137 10.1935 21.3847 12 21.3847C12 21.3847 12 21.3847 6.27955 10.7231Z" fill="#00A3FF"/>
<path opacity="0.6" d="M12 13.9289L6.27954 10.6484C12 21.3845 12 21.3845 12 21.3845C12 19.0733 12 16.3893 12 13.9289Z" fill="#00A3FF"/>
<path opacity="0.6" d="M17.7204 10.7231L17.871 10.9468C19.6022 13.6308 19.2258 17.135 16.8925 19.3717C15.5376 20.7137 13.8065 21.3847 12 21.3847C12 21.3847 12 21.3847 17.7204 10.7231Z" fill="#00A3FF"/>
<path opacity="0.2" d="M12 13.9289L17.7204 10.6484C12 21.3845 12 21.3845 12 21.3845C12 19.0733 12 16.3893 12 13.9289Z" fill="#00A3FF"/>
<path opacity="0.2" d="M12 6.69702V12.2887L16.9677 9.53016L12 6.69702Z" fill="#00A3FF"/>
<path opacity="0.6" d="M12 6.69702L7.03229 9.53016L12 12.2887V6.69702Z" fill="#00A3FF"/>
<path d="M12 2L7.03229 9.53018L12 6.69704V2Z" fill="#00A3FF"/>
<path opacity="0.6" d="M12 6.69704L16.9677 9.53018L12 2V6.69704Z" fill="#00A3FF"/>
</g>
<defs>
<clipPath id="clip0_718_257">
<rect width="14" height="19.3846" fill="white" transform="translate(5 2)"/>
</clipPath>
</defs>
</svg>
