<svg width="32" height="32" viewBox="0 0 32 32" fill="none" xmlns="http://www.w3.org/2000/svg">
<path fill-rule="evenodd" clip-rule="evenodd" d="M31.952 14.724C31.9792 22.8558 25.4092 29.4701 17.2773 29.4973C15.3395 29.5038 13.4879 29.1357 11.7911 28.4611C11.9968 27.8285 12.108 27.1537 12.108 26.4533C12.108 22.8657 9.19287 19.9467 5.60131 19.9467C4.89053 19.9467 4.20603 20.0612 3.56527 20.2728C2.88668 18.5884 2.51045 16.7494 2.50399 14.8227C2.47674 6.69084 9.04681 0.0765896 17.1786 0.0493398C25.3105 0.02209 31.9247 6.59216 31.952 14.724ZM3.95545 21.156C4.47569 20.994 5.02852 20.9067 5.60131 20.9067C8.66232 20.9067 11.148 23.3956 11.148 26.4533C11.148 27.0172 11.0633 27.5618 10.9061 28.0749C7.87437 26.6314 5.41303 24.1816 3.95545 21.156Z" fill="#0074F0"/>
<path opacity="0.2" d="M26.4305 23.9178C31.479 18.8357 31.4537 10.6182 26.3715 5.56973C21.2894 0.521263 13.0719 0.546548 8.02344 5.62873L26.4305 23.9178Z" fill="white"/>
<path d="M16.625 8.95806C16.8226 8.93785 17.0232 8.9275 17.2262 8.9275C20.4536 8.9275 23.0699 11.5438 23.0699 14.7712C23.0699 17.2879 21.4789 19.433 19.2479 20.2557L17.2651 23.0442C21.8163 23.0232 25.4993 19.3273 25.4993 14.7712C25.4993 10.4929 22.2518 6.97317 18.0875 6.5424L16.625 8.95806Z" fill="white"/>
<path d="M17.0385 6.5002C12.5561 6.6 8.95312 10.2648 8.95312 14.7712C8.95312 18.9871 12.1066 22.4664 16.1834 22.9792L17.8912 20.5774C17.6729 20.6021 17.451 20.6149 17.2262 20.6149C13.9988 20.6149 11.3825 17.9985 11.3825 14.7712C11.3825 12.1849 13.0626 9.9911 15.3909 9.22153L17.0385 6.5002Z" fill="white"/>
<path d="M19.2484 20.2557C21.4794 19.433 23.0704 17.2879 23.0704 14.7712H25.4998C25.4998 19.3273 21.8168 23.0232 17.2656 23.0442L19.2484 20.2557Z" fill="url(#paint0_linear_378_7452)"/>
<path d="M17.0385 6.5002C12.5561 6.6 8.95312 10.2648 8.95312 14.7712C8.95312 14.7712 11.3825 14.8061 11.3825 14.7712C11.3825 12.1849 13.0626 9.9911 15.3909 9.22153L17.0385 6.5002Z" fill="url(#paint1_linear_378_7452)"/>
<path d="M17.2103 21.5342L21.3643 15.6845L17.2103 18.1359L13.0586 15.6845L17.2103 21.5342Z" fill="white"/>
<path opacity="0.1" d="M17.2109 21.5342L21.3649 15.6845L17.2109 18.1359V21.5342Z" fill="#0074F0"/>
<path d="M17.1981 17.3596L21.3727 14.9036L17.1981 8.00844L13.0234 14.9036L17.1981 17.3596Z" fill="url(#paint2_linear_378_7452)"/>
<path d="M17.1981 17.3596L21.3727 14.9036L17.1981 8.00844L13.0234 14.9036L17.1981 17.3596Z" fill="white"/>
<path opacity="0.1" d="M17.1992 17.3594L13.0246 14.9036L17.1992 8.00844L17.1992 17.3594Z" fill="#0074F0"/>
<path opacity="0.1" d="M17.1981 17.3596V12.9465L13.0234 14.9036L17.1981 17.3596Z" fill="#0074F0"/>
<path opacity="0.1" d="M17.1965 17.3596V12.9465L21.3711 14.9036L17.1965 17.3596Z" fill="#0074F0"/>
<path d="M5.60136 20.9067C2.54358 20.9067 0.0546875 23.3956 0.0546875 26.4533C0.0546875 29.5111 2.54358 32 5.60136 32C8.65913 32 11.148 29.5111 11.148 26.4533C11.148 23.3956 8.66237 20.9067 5.60136 20.9067Z" fill="#0074F0"/>
<path d="M8.95252 24.4687L7.93757 28.9099H6.20504L5.6911 26.3887L5.17716 28.9099H3.44464L2.42969 24.4687H3.92949L4.33029 27.2679L4.93151 24.4687H6.4507L7.05191 27.2679L7.45272 24.4687H8.95252Z" fill="white"/>
<defs>
<linearGradient id="paint0_linear_378_7452" x1="11.7798" y1="25.1371" x2="20.891" y2="19.1688" gradientUnits="userSpaceOnUse">
<stop stop-color="#1A82FF" stop-opacity="0.5"/>
<stop offset="1" stop-color="white"/>
</linearGradient>
<linearGradient id="paint1_linear_378_7452" x1="21.691" y1="2.69209" x2="12.9733" y2="8.99091" gradientUnits="userSpaceOnUse">
<stop stop-color="#1A82FF" stop-opacity="0.5"/>
<stop offset="1" stop-color="white"/>
</linearGradient>
<linearGradient id="paint2_linear_378_7452" x1="8.31665" y1="10.5054" x2="15.6303" y2="14.9685" gradientUnits="userSpaceOnUse">
<stop stop-color="#1C313F"/>
<stop offset="1" stop-color="white"/>
</linearGradient>
</defs>
</svg>
