<svg xmlns="http://www.w3.org/2000/svg" width="105" height="105" viewBox="0 0 105 105">
    <g fill="none" fill-rule="evenodd">
        <path fill="#1A82FF" d="M74.04 60.4c.091-.306.177-.615.258-.927.697-2.67 1.06-5.52 1.06-8.473 0-.263-.003-.52-.008-.776l-.007-.244c-.006-.179-.012-.358-.02-.537l-.012-.27-.031-.524c-.006-.083-.01-.166-.017-.25-.015-.202-.032-.404-.05-.606l-.013-.153c-.025-.26-.053-.521-.084-.78l-.003-.03c-.03-.243-.061-.486-.096-.728l-.024-.162c-.03-.203-.06-.405-.094-.607l-.028-.166c-.037-.214-.075-.426-.116-.638l-.02-.105c-.15-.769-.326-1.526-.529-2.268l-.012-.046c-.065-.235-.132-.47-.202-.702l-.012-.04c-.3-.992-.646-1.956-1.039-2.887l-8.646 8.62c.158 1.223.238 2.524.238 3.9 0 10.54-4.877 16.833-13.17 16.833-2.895 0-5.373-.767-7.373-2.214l28.416-28.33c-.674-1.411-1.458-2.74-2.348-3.97L33.522 69.746c.09.11.178.219.27.326.892 1.052 1.852 2.002 2.875 2.85 1.878 1.558 3.967 2.769 6.24 3.617l.048.018c.568.21 1.147.397 1.738.562l.15.042c.116.032.233.062.35.092l.192.047c.111.028.223.055.336.081l.214.047c.179.04.358.077.539.112l.288.056.277.047.296.05.27.04c.107.016.215.03.324.045l.246.032c.149.018.298.035.448.05l.171.018c.175.017.352.032.529.046l.206.014c.133.009.265.017.398.024l.222.011c.136.006.272.01.41.015l.197.006c.198.004.396.007.596.007 4.475 0 8.504-1.071 11.972-3.14 2.08-1.242 3.96-2.844 5.61-4.789 2.3-2.712 4.026-6.007 5.107-9.67zM51.369 24c.201 0 .402.003.602.007l.194.006c.139.004.277.009.415.015l.22.01.398.025.207.014c.174.014.347.029.519.045l.154.016c.16.016.32.034.48.054l.24.031.333.046.265.04.303.05c.092.016.183.03.274.047l.298.058c.175.034.35.07.522.108l.23.05.331.08.202.05c.115.029.23.059.343.09l.166.046c.125.034.249.07.372.106.467.14.92.29 1.365.455l.057.021c.143.054.286.108.428.165l.02.008c2.114.84 4.064 2 5.823 3.463 1.013.841 1.962 1.782 2.841 2.824.1.118.199.239.297.36L40.285 61.182l-7.553 7.538c-.9-1.228-1.69-2.552-2.369-3.957l28.435-28.349c-2.033-1.48-4.547-2.248-7.436-2.248-4.411 0-7.95 1.789-10.235 5.174-1.948 2.885-2.935 6.808-2.935 11.66 0 1.374.083 2.675.246 3.9l-8.64 8.615c-.395-.933-.744-1.897-1.045-2.889l-.011-.037c-.071-.234-.14-.469-.204-.705l-.013-.044c-.204-.743-.381-1.5-.532-2.27l-.02-.1c-.04-.214-.08-.427-.116-.642l-.028-.163c-.034-.203-.066-.407-.096-.612l-.023-.156c-.035-.245-.068-.49-.097-.736l-.003-.023c-.031-.26-.059-.52-.084-.782l-.013-.146c-.019-.204-.036-.408-.05-.613l-.018-.246c-.011-.175-.022-.351-.03-.528l-.014-.266-.019-.543-.006-.237c-.006-.258-.01-.517-.01-.778 0-7.419 2.269-14.192 6.388-19.07.959-1.135 1.998-2.153 3.113-3.05.478-.385.97-.748 1.474-1.088.615-.414 1.249-.793 1.901-1.141.123-.065.246-.13.37-.192 3.19-1.622 6.81-2.459 10.75-2.459h.006z" transform="translate(1.634 2)"/>
        <path stroke="#1A82FF" stroke-width="3" d="M0 50.739C0 22.717 22.717 0 50.739 0s50.739 22.717 50.739 50.739-22.717 50.739-50.739 50.739S0 78.761 0 50.739z" transform="translate(1.634 2)"/>
    </g>
</svg>
