<svg xmlns="http://www.w3.org/2000/svg" width="20" height="22" viewBox="0 0 20 22">
    <path fill="#1A82FF" fill-rule="evenodd" d="M19.45 14.83c.038-.125.074-.251.108-.378.29-1.088.442-2.249.442-3.452 0-.107-.001-.212-.004-.316l-.003-.1c-.002-.072-.004-.145-.008-.218l-.005-.11-.013-.214-.007-.102-.02-.246-.006-.063c-.01-.106-.022-.212-.035-.318l-.001-.012-.04-.297-.01-.065-.04-.248-.011-.068-.048-.26-.009-.042c-.062-.313-.136-.622-.22-.924l-.005-.019c-.027-.096-.055-.191-.085-.286l-.005-.016c-.124-.404-.269-.797-.432-1.176L15.39 9.41c.065.499.099 1.029.099 1.59 0 4.294-2.033 6.857-5.489 6.857-1.206 0-2.239-.312-3.072-.902L18.77 5.414c-.282-.574-.608-1.116-.98-1.617L2.566 18.637l.113.133c.371.428.772.815 1.198 1.16.782.635 1.653 1.129 2.6 1.474l.02.008c.237.085.478.162.725.229l.062.017.146.037.08.02.14.032.09.02c.074.016.148.03.224.045l.12.023.115.02.124.02.112.016.135.018c.034.004.068.01.103.013.062.008.124.014.186.02l.072.008.22.019.086.005.166.01.092.005.17.006.083.002c.083.002.165.003.249.003 1.864 0 3.543-.436 4.989-1.28.867-.505 1.65-1.158 2.337-1.95.96-1.105 1.678-2.448 2.129-3.94zM10.003 0c.084 0 .168.001.251.003l.081.002.173.006.091.005.167.01.086.006.216.018.064.006.2.022.1.013.14.019.11.016.126.02.114.02.124.023c.073.014.146.028.218.044l.096.02c.046.01.092.022.137.033l.085.02.143.037.069.019.155.043c.194.057.383.118.569.185L13.54.6l.179.067.008.003c.881.343 1.694.815 2.427 1.411.422.343.817.726 1.184 1.15l.123.147L5.384 15.148 2.236 18.22c-.375-.5-.704-1.04-.987-1.613l11.85-11.549c-.848-.603-1.895-.916-3.099-.916-1.838 0-3.314.729-4.266 2.108C4.923 7.425 4.511 9.024 4.511 11c0 .56.035 1.09.103 1.59l-3.6 3.509c-.165-.38-.31-.773-.436-1.177l-.005-.015c-.03-.095-.058-.191-.085-.287l-.005-.018c-.085-.303-.159-.611-.222-.925l-.008-.04-.049-.262-.011-.067c-.014-.082-.028-.166-.04-.249l-.01-.064c-.014-.1-.028-.199-.04-.3l-.001-.009-.036-.318-.005-.06c-.008-.083-.015-.166-.021-.25l-.007-.1c-.005-.071-.01-.143-.013-.215l-.005-.108c-.004-.074-.006-.147-.008-.221l-.003-.097C0 11.212 0 11.107 0 11c0-3.022.945-5.782 2.662-7.77.4-.462.833-.876 1.297-1.242.2-.157.404-.304.615-.443.256-.169.52-.323.792-.465.05-.027.102-.053.154-.078C6.849.342 8.358 0 10 0h.002z"/>
</svg>
