<svg xmlns="http://www.w3.org/2000/svg" width="24" height="24" viewBox="0 0 24 24">
    <defs>
        <linearGradient id="7dzc4fe9ia" x1="50.898%" x2="41.036%" y1="79.568%" y2="-11.87%">
            <stop offset=".058%" stop-color="#FFF"/>
            <stop offset="100%" stop-color="#1E313F"/>
        </linearGradient>
        <linearGradient id="t2p1bauwnb" x1="48.094%" x2="58.005%" y1="17.958%" y2="112.287%">
            <stop offset=".058%" stop-color="#FFF"/>
            <stop offset="99.67%" stop-color="#4E5A64"/>
        </linearGradient>
    </defs>
    <g fill="none">
        <circle cx="11.981" cy="12.02" r="11.891" fill="#1E313F" transform="rotate(-.192 11.98 12.02)"/>
        <path fill="#FFF" d="M19.417 19.407c4.08-4.108 4.06-10.735-.05-14.814C15.26.513 8.633.533 4.554 4.642l14.864 14.765z" opacity=".2"/>
        <g>
            <path fill="#FAFBFC" d="M6.578 6.41c-.119-.02-.227-.05-.336-.07-1.462-.296-2.519-.503-2.519-1.52 0-.632.623-1.136 1.739-1.136.997 0 1.787.405 2.301 1.165l.079.02 1.59-1.63-.01-.059c-.632-.75-1.432-1.274-2.35-1.55-.129-.04-.247-.07-.376-.1h-.01c-.049-.009-.088-.019-.138-.029V.06H4.375v1.442c-.069.01-.138.03-.207.04h-.01c-1.027.247-1.926.78-2.627 1.6-.296.494-.445 1.086-.445 1.768 0 2.33 1.758 3.071 3.477 3.486.316.08.632.138.938.188 1.077.197 2.005.365 2.005 1.333 0 .603-.662 1.353-2.044 1.353-.82 0-1.492-.276-1.985-.78-.03-.03-.07-.06-.1-.089l-1.876 1.304v.069c.267.316.563.592.88.83.108.078.217.148.325.217h.01c.109.069.227.128.336.187 0 0 .01 0 .01.01.118.06.227.109.345.158.01 0 .01 0 .02.01.119.05.237.09.356.129.01 0 .02 0 .02.01.059.02.108.03.167.049h.02c.06.02.119.03.188.05.01 0 .02 0 .03.01l.157.029v1.442h2.173v-1.442c.04-.01.08-.01.119-.02h.02c.148-.03.296-.07.444-.119.07-.02.148-.049.217-.069.8-.296 1.502-.79 2.074-1.461.218-.257.405-.524.573-.82.09-.316.129-.672.129-1.047.01-2.509-1.887-3.19-3.536-3.516z" transform="translate(6.519 4.543)"/>
            <path fill="url(#7dzc4fe9ia)" d="M1.511 11.763c-.109-.128-.207-.257-.296-.395-.04-.06-.08-.119-.119-.168-.01-.01-.02-.03-.03-.04-.029-.049-.068-.108-.098-.167l-.03-.06c-.03-.049-.059-.108-.089-.158l-.03-.059c-.029-.05-.059-.109-.078-.168-.01-.02-.02-.05-.03-.069-.03-.06-.05-.109-.079-.168-.01-.02-.02-.04-.03-.069-.02-.06-.049-.119-.069-.178 0-.01-.01-.03-.01-.04-.049-.138-.098-.276-.138-.414 0-.01-.01-.02-.01-.04-.01-.049-.03-.098-.04-.148l-.029-.118-.03-.139-.03-.128c-.009-.05-.019-.089-.029-.138l-.03-.148c-.01-.04-.01-.09-.02-.129-.009-.05-.019-.099-.019-.158-.01-.04-.01-.079-.02-.128-.01-.06-.01-.109-.02-.168 0-.04-.01-.08-.01-.119 0-.069-.01-.128-.01-.197 0-.03 0-.06-.009-.099 0-.099-.01-.197-.01-.296 0-.099 0-.188.01-.287v-.089c0-.069.01-.128.01-.197 0-.03.01-.07.01-.099.01-.06.01-.128.02-.187 0-.03.01-.06.01-.09l.029-.217c0-.02 0-.04.01-.049.01-.089.03-.178.05-.267.01-.03.01-.059.019-.079.01-.059.03-.118.04-.177.01-.03.02-.07.02-.1.01-.059.029-.108.039-.167.01-.03.02-.07.03-.099.02-.06.039-.118.049-.178.01-.03.02-.05.03-.079l.088-.237c.01-.03.02-.05.03-.079.02-.059.04-.108.07-.168.009-.03.029-.059.039-.098.02-.05.04-.09.069-.139.02-.03.03-.069.05-.098.019-.05.049-.09.068-.139.02-.03.03-.059.05-.089l.118-.207C.938 4.168.9 4.523.9 4.899c0 1.284.543 2.261 1.62 2.923.059 1.156.395 2.064.967 2.647l-1.975 1.294z" transform="translate(6.519 4.543)"/>
            <path fill="url(#t2p1bauwnb)" d="M7.773 4.85c.336.503.553 1.135.632 1.896.276.128.514.276.73.444.8.622 1.206 1.531 1.206 2.687 0 .138-.01.276-.02.414v-.01c.04-.088.079-.187.109-.286.01-.03.02-.05.03-.079.019-.07.049-.138.068-.207l.03-.1c.01-.039.03-.088.04-.128.02-.059.03-.108.049-.167l.03-.129.03-.148c.009-.03.009-.07.019-.099.01-.069.03-.148.04-.217 0-.03.01-.06.01-.089l.029-.237c0-.02 0-.03.01-.05.01-.078.02-.147.02-.226 0-.02 0-.04.01-.06.01-.089.01-.178.02-.266v-.06c0-.089.01-.187.01-.276 0-.099 0-.198-.01-.306 0-.03 0-.06-.01-.1 0-.068-.01-.137-.01-.197 0-.04-.01-.079-.01-.118-.01-.06-.01-.119-.02-.178 0-.04-.01-.079-.02-.128-.01-.06-.01-.109-.02-.168-.01-.04-.01-.09-.02-.129l-.03-.158c-.009-.04-.019-.089-.029-.128l-.03-.148-.029-.129c-.01-.049-.03-.098-.04-.148-.01-.04-.02-.089-.039-.128-.01-.05-.03-.09-.04-.138-.01-.04-.03-.09-.039-.129-.02-.05-.03-.089-.05-.128-.02-.04-.029-.09-.049-.129-.02-.04-.03-.089-.05-.128-.019-.04-.039-.089-.049-.128l-.059-.119c-.02-.04-.04-.079-.059-.128l-.06-.119c-.019-.04-.039-.079-.068-.118-.02-.04-.04-.08-.07-.109-.02-.04-.049-.079-.069-.119-.02-.039-.05-.069-.069-.108-.069-.109-.148-.217-.227-.326-.06-.08-.119-.148-.178-.217l-1.65 1.698z" transform="translate(6.519 4.543)"/>
        </g>
    </g>
</svg>
