<svg xmlns="http://www.w3.org/2000/svg" xmlns:xlink="http://www.w3.org/1999/xlink" width="52" height="52" viewBox="0 0 52 52">
    <defs>
        <filter id="vys2rqqosb" width="110%" height="110%" x="-5%" y="-5%" filterUnits="objectBoundingBox">
            <feGaussianBlur in="SourceAlpha" result="shadowBlurInner1" stdDeviation="2"/>
            <feOffset in="shadowBlurInner1" result="shadowOffsetInner1"/>
            <feComposite in="shadowOffsetInner1" in2="SourceAlpha" k2="-1" k3="1" operator="arithmetic" result="shadowInnerInner1"/>
            <feColorMatrix in="shadowInnerInner1" values="0 0 0 0 0.0925505534 0 0 0 0 0.193092525 0 0 0 0 0.252657115 0 0 0 0.4 0"/>
        </filter>
        <path id="vbhywb304a" d="M25 0c13.807 0 25 11.193 25 25S38.807 50 25 50 0 38.807 0 25 11.193 0 25 0z"/>
    </defs>
    <g fill="none" fill-rule="evenodd" transform="translate(1 1)">
        <use fill="#2775CA" xlink:href="#vbhywb304a"/>
        <use fill="#000" filter="url(#vys2rqqosb)" xlink:href="#vbhywb304a"/>
        <use stroke="#2775CA" xlink:href="#vbhywb304a"/>
        <path fill="#FFF" stroke="#2775CA" d="M25 10c8.284 0 15 6.716 15 15 0 8.284-6.716 15-15 15-8.284 0-15-6.716-15-15 0-8.284 6.716-15 15-15z"/>
        <path fill="#2775CA" d="M27.826 34.67c-.222-.055-.333-.221-.333-.443v-.776c0-.277.111-.443.333-.554 2.271-.83 4.1-2.604 4.93-4.93 1.608-4.267-.609-9.087-4.93-10.639-.167-.11-.333-.332-.333-.554V16c0-.111 0-.167.056-.222.055-.222.277-.332.498-.222 3.048.998 5.485 3.38 6.483 6.538 1.662 5.264-1.22 10.86-6.483 12.522-.055.055-.166.055-.221.055zm-1.94-3.38c-.055.277-.221.444-.443.444h-.83c-.278-.056-.444-.222-.444-.443v-1.33c-1.828-.277-2.715-1.275-2.937-2.66v-.055c0-.222.167-.388.388-.388h.942c.166 0 .333.11.388.332.166.832.665 1.441 2.105 1.441 1.053 0 1.829-.61 1.829-1.496s-.499-1.219-2.05-1.496c-2.327-.277-3.435-.997-3.435-2.826 0-1.385 1.052-2.493 2.714-2.714v-1.275c.056-.277.222-.443.444-.443h.83c.278.055.444.222.444.443v1.33c1.274.11 2.272 1.053 2.493 2.272v.055c0 .222-.166.388-.388.388h-.886c-.166 0-.332-.111-.388-.277-.277-.831-.83-1.164-1.828-1.164-1.108 0-1.662.499-1.662 1.275 0 .775.332 1.219 1.994 1.44 2.327.277 3.49.942 3.49 2.881 0 1.496-1.107 2.66-2.77 2.937v1.33zm-3.38 2.826c0 .11 0 .166-.055.222-.055.221-.277.332-.498.221-3.103-.997-5.485-3.38-6.483-6.482-1.662-5.264 1.22-10.86 6.483-12.522.055-.055.166-.055.221-.055.222.055.333.222.333.443v.776c0 .277-.111.443-.333.554-2.271.831-4.1 2.604-4.93 4.93-1.608 4.267.609 9.088 4.93 10.639.167.11.333.332.333.498v.776z"/>
    </g>
</svg>
