<svg xmlns="http://www.w3.org/2000/svg" width="30" height="30" viewBox="0 0 30 30">
    <g fill="none" fill-rule="evenodd">
        <circle cx="15" cy="15" r="15" fill="#53AE94"/>
        <path fill="#FFF" d="M16.83 16.913v-.001c-.102.006-.631.038-1.808.038-.942 0-1.604-.027-1.837-.039v.003c-3.623-.16-6.326-.791-6.326-1.546s2.704-1.385 6.326-1.545v2.463c.237.016.916.056 1.852.056 1.125 0 1.69-.047 1.794-.056v-2.463c3.616.16 6.313.792 6.313 1.544s-2.699 1.384-6.313 1.545m-.001-3.345V11.36h5.044V8H8.138v3.361h5.045v2.204c-4.1.188-7.183 1-7.183 1.973 0 .973 3.084 1.785 7.183 1.974v7.066h3.648v-7.066c4.092-.189 7.169-1 7.169-1.972s-3.077-1.784-7.17-1.972"/>
    </g>
</svg>
