<svg xmlns="http://www.w3.org/2000/svg" width="30" height="30" viewBox="0 0 30 30">
    <g fill="none" fill-rule="evenodd">
        <circle cx="15" cy="15" r="15" fill="#1A82FE"/>
        <path fill="#FFF" d="M22.56 18.136c.03-.103.06-.206.086-.31.233-.89.354-1.84.354-2.824 0-.088-.001-.174-.003-.26l-.002-.08-.007-.18-.004-.09-.01-.174-.006-.084c-.005-.067-.01-.135-.017-.202l-.004-.05c-.008-.088-.017-.174-.028-.26v-.01c-.01-.082-.021-.163-.033-.244l-.008-.053-.031-.203-.01-.055-.038-.213-.007-.035c-.05-.256-.109-.508-.176-.756l-.004-.015c-.022-.079-.044-.157-.068-.234l-.004-.014c-.1-.33-.215-.652-.346-.962L19.312 13.7c.052.408.079.842.079 1.3 0 3.515-1.626 5.613-4.391 5.613-.965 0-1.791-.256-2.458-.738l9.474-9.445c-.225-.47-.487-.914-.783-1.324L9.053 21.251c.029.036.059.073.09.108.297.351.617.668.958.95.626.52 1.322.924 2.08 1.207l.016.005c.19.07.382.133.58.188l.05.014.116.03.064.016c.037.01.075.019.112.027l.071.016.18.037.096.019.092.016.1.016.09.014.107.014.082.011.15.017.057.006c.058.006.117.01.176.015l.069.005.132.008.074.004.137.005.066.001.198.003c1.492 0 2.836-.357 3.992-1.047.693-.414 1.32-.948 1.87-1.596.767-.905 1.342-2.003 1.703-3.224zM15.003 6l.2.002.065.002.138.005.074.004.133.008.069.005c.058.004.115.01.173.015l.05.005c.054.005.108.011.161.018l.08.01.111.016.089.013.1.017.092.015.1.02c.057.01.116.023.173.036l.077.016.11.027c.023.005.045.01.068.017l.114.03.055.015.124.035c.156.047.307.097.455.152l.02.007.142.055.007.003c.704.28 1.355.666 1.941 1.154.338.28.654.594.947.942l.099.12-9.662 9.632-2.518 2.513c-.3-.41-.563-.85-.79-1.319l9.48-9.45c-.678-.494-1.516-.75-2.479-.75-1.47 0-2.65.596-3.412 1.724-.65.962-.979 2.27-.979 3.888 0 .458.028.892.082 1.3l-2.88 2.872c-.132-.31-.248-.632-.349-.963l-.004-.012c-.023-.078-.046-.157-.067-.236l-.005-.014c-.068-.248-.127-.5-.177-.757l-.007-.033-.038-.214-.01-.055-.032-.204-.007-.052c-.012-.081-.023-.163-.033-.245v-.008c-.011-.086-.02-.173-.029-.26l-.004-.05-.017-.203-.006-.082-.01-.176-.004-.089-.007-.181-.002-.08c-.002-.085-.003-.172-.003-.258 0-2.474.756-4.732 2.13-6.358.32-.379.666-.718 1.037-1.017.16-.128.324-.25.492-.363.205-.138.416-.264.634-.38.04-.022.081-.043.123-.064C12.479 6.28 13.686 6 15 6h.002z"/>
    </g>
</svg>
