<svg xmlns="http://www.w3.org/2000/svg" xmlns:xlink="http://www.w3.org/1999/xlink" width="38" height="38" viewBox="0 0 38 38">
    <defs>
        <filter id="6blsskdgya" width="143.3%" height="143.3%" x="-21.7%" y="-21.7%" filterUnits="objectBoundingBox">
            <feMorphology in="SourceAlpha" operator="dilate" radius=".5" result="shadowSpreadOuter1"/>
            <feOffset in="shadowSpreadOuter1" result="shadowOffsetOuter1"/>
            <feGaussianBlur in="shadowOffsetOuter1" result="shadowBlurOuter1" stdDeviation="2"/>
            <feComposite in="shadowBlurOuter1" in2="SourceAlpha" operator="out" result="shadowBlurOuter1"/>
            <feColorMatrix in="shadowBlurOuter1" values="0 0 0 0 0.803921569 0 0 0 0 0.843137255 0 0 0 0 0.878431373 0 0 0 1 0"/>
        </filter>
        <path id="o7r9rkq35b" d="M15 0c8.284 0 15 6.716 15 15 0 8.284-6.716 15-15 15-8.284 0-15-6.716-15-15C0 6.716 6.716 0 15 0z"/>
    </defs>
    <g fill="none" fill-rule="evenodd" transform="translate(4 4)">
        <use fill="#000" filter="url(#6blsskdgya)" xlink:href="#o7r9rkq35b"/>
        <use fill="#FFF" stroke="#CDD7E0" xlink:href="#o7r9rkq35b"/>
        <path fill="#BBC9DA" d="M17.826 24.67c-.222-.055-.333-.221-.333-.443v-.776c0-.277.111-.443.333-.554 2.271-.83 4.1-2.604 4.93-4.93 1.608-4.267-.609-9.087-4.93-10.639-.167-.11-.333-.332-.333-.554V6c0-.111 0-.167.056-.222.055-.222.277-.332.498-.222 3.048.998 5.485 3.38 6.483 6.538 1.662 5.264-1.22 10.86-6.483 12.522-.055.055-.166.055-.221.055zm-1.94-3.38c-.055.277-.221.444-.443.444h-.83c-.278-.056-.444-.222-.444-.443v-1.33c-1.828-.277-2.715-1.275-2.937-2.66v-.055c0-.222.167-.388.388-.388h.942c.166 0 .333.11.388.332.166.832.665 1.441 2.105 1.441 1.053 0 1.829-.61 1.829-1.496s-.499-1.219-2.05-1.496c-2.327-.277-3.435-.997-3.435-2.826 0-1.385 1.052-2.493 2.714-2.714V8.824c.056-.277.222-.443.444-.443h.83c.278.055.444.222.444.443v1.33c1.274.11 2.272 1.053 2.493 2.272v.055c0 .222-.166.388-.388.388h-.886c-.166 0-.332-.111-.388-.277-.277-.831-.83-1.164-1.828-1.164-1.108 0-1.662.499-1.662 1.275 0 .775.332 1.219 1.994 1.44 2.327.277 3.49.942 3.49 2.881 0 1.496-1.107 2.66-2.77 2.937v1.33zm-3.38 2.826c0 .11 0 .166-.055.222-.055.221-.277.332-.498.221-3.103-.997-5.485-3.38-6.483-6.482-1.662-5.264 1.22-10.86 6.483-12.522.055-.055.166-.055.221-.055.222.055.333.222.333.443v.776c0 .277-.111.443-.333.554-2.271.831-4.1 2.604-4.93 4.93-1.608 4.267.609 9.088 4.93 10.639.167.11.333.332.333.498v.776z"/>
    </g>
</svg>
