<svg width="12" height="12" viewBox="0 0 12 12" xmlns="http://www.w3.org/2000/svg">
    <path d="M10.074 11.35c.317 0 .593-.117.826-.35a1.13 1.13 0 0 0 .35-.826V2.026a1.13 1.13 0 0 0-.35-.826 1.13 1.13 0 0 0-.826-.35H1.926c-.327 0-.604.117-.833.35a1.141 1.141 0 0 0-.343.826V4.35h1.176V2.026h8.148v8.148H1.926V7.85H.75v2.324c0 .317.114.593.343.826.229.233.506.35.833.35h8.148zM5.706 9.026 8.632 6.1 5.706 3.174 4.88 4l1.498 1.526H.75v1.148h5.628L4.88 8.2l.826.826z" fill="#000" fill-rule="nonzero"/>
</svg>
